<svg id="Layer_1" data-name="Layer 1" xmlns="http://www.w3.org/2000/svg" xmlns:xlink="http://www.w3.org/1999/xlink" width="417.8681" height="55.6087" viewBox="0 0 417.8681 55.6087"><defs><style>.cls-1{fill:#ac9655;}.cls-2{fill:url(#New_Gradient_Swatch_1);}.cls-3{fill:url(#New_Gradient_Swatch_1-2);}</style><linearGradient id="New_Gradient_Swatch_1" x1="357.4596" y1="27.8043" x2="414.1504" y2="27.8043" gradientUnits="userSpaceOnUse"><stop offset="0" stop-color="#ac8e34"/><stop offset="0.1878" stop-color="#ceb367"/><stop offset="0.461" stop-color="#a48e4a"/><stop offset="0.7634" stop-color="#ceb367"/><stop offset="1" stop-color="#997f2e"/></linearGradient><linearGradient id="New_Gradient_Swatch_1-2" x1="421.1626" y1="42.0404" x2="411.5548" y2="49.1952" xlink:href="#New_Gradient_Swatch_1"/></defs><title>frame3</title><path class="cls-1" d="M3.61,36.5342a3.48,3.48,0,0,1-2.56-1.0507A3.4682,3.4682,0,0,1,0,32.9366v-11.7H2.2344V32.9122a1.2469,1.2469,0,0,0,.3857.9238,1.28,1.28,0,0,0,.93.38,1.2988,1.2988,0,0,0,1.3047-1.3037V21.2364H7.2324v11.7a3.44,3.44,0,0,1-1.0625,2.56A3.5287,3.5287,0,0,1,3.61,36.5342Z"/><path class="cls-1" d="M14.8828,21.2247l3.0283,10.1758V21.2247h2.2813V36.3653h-2.45l-3.14-9.6953v9.6953H12.32V21.2247Z"/><path class="cls-1" d="M28.8789,36.5587a3.6078,3.6078,0,0,1-3.6221-3.61V24.69a3.6163,3.6163,0,1,1,7.2325,0v1.7266H30.1221V24.6417a1.3188,1.3188,0,0,0-1.3155-1.3164,1.2479,1.2479,0,0,0-.9238.3867,1.2761,1.2761,0,0,0-.38.93v8.2822a1.2988,1.2988,0,0,0,1.3037,1.3047,1.277,1.277,0,0,0,.93-.3809,1.2488,1.2488,0,0,0,.3858-.9238V30.835h2.3672v2.1133a3.6076,3.6076,0,0,1-3.61,3.61Z"/><path class="cls-1" d="M40.9941,21.044a3.6175,3.6175,0,0,1,3.6221,3.6221v8.2578a3.6162,3.6162,0,1,1-7.2324,0V24.6661a3.616,3.616,0,0,1,3.61-3.6221Zm1.2442,3.5733a1.2988,1.2988,0,0,0-1.3047-1.3038,1.28,1.28,0,0,0-.93.38,1.247,1.247,0,0,0-.3857.9239v8.2832a1.2432,1.2432,0,0,0,.3857.9228,1.277,1.277,0,0,0,.93.3809,1.3,1.3,0,0,0,1.3047-1.3037Z"/><path class="cls-1" d="M51.95,36.3653,49.2461,21.2364h2.3916l1.8994,11.793,1.9121-11.793h2.3936L55.09,36.3653Z"/><path class="cls-1" d="M62.81,36.3653V21.2247h6.4961v2.2939H65.0918v4.1289H68.17v2.2949H65.0918v4.129h4.2139v2.2939Z"/><path class="cls-1" d="M77.5332,21.2364a3.48,3.48,0,0,1,2.8008,1.0508,3.82,3.82,0,0,1,.7842,2.56V27.044a3.5348,3.5348,0,0,1-1.2188,2.7168l1.6895,6.6045H79.1221l-1.3838-5.6992H76.2168v5.6992H73.9346V21.2364Zm1.3643,3.6465a1.1576,1.1576,0,0,0-1.3037-1.3155h-1.377v4.8409h1.377a1.2448,1.2448,0,0,0,.9228-.3858,1.277,1.277,0,0,0,.3809-.93Z"/><path class="cls-1" d="M97.7588,36.3653H95.4775V21.2247H98.752l2.1269,10.876,2.041-10.876h3.1465V36.3653h-2.2822V26.8507l-1.98,9.5146H99.9688l-2.21-9.49Z"/><path class="cls-1" d="M114.74,21.044a3.616,3.616,0,0,1,3.6221,3.6221v8.2578a3.6157,3.6157,0,1,1-7.2314,0V24.6661A3.616,3.616,0,0,1,114.74,21.044Zm1.2442,3.5733a1.2988,1.2988,0,0,0-1.3037-1.3038,1.2784,1.2784,0,0,0-.93.38,1.2479,1.2479,0,0,0-.3867.9239v8.2832a1.2441,1.2441,0,0,0,.3867.9228,1.2754,1.2754,0,0,0,.93.3809,1.3,1.3,0,0,0,1.3037-1.3037Z"/><path class="cls-1" d="M127.0371,21.2364a3.48,3.48,0,0,1,2.8008,1.0508,3.8149,3.8149,0,0,1,.7851,2.56V27.044a3.5324,3.5324,0,0,1-1.22,2.7168l1.69,6.6045H128.626l-1.3838-5.6992h-1.5215v5.6992H123.44V21.2364Zm1.3643,3.6465a1.1576,1.1576,0,0,0-1.3037-1.3155h-1.377v4.8409h1.377a1.247,1.247,0,0,0,.9238-.3858,1.28,1.28,0,0,0,.38-.93Z"/><path class="cls-1" d="M136.1094,36.3653V21.2247h6.4951v2.2939h-4.2139v4.1289H141.47v2.2949h-3.0791v4.129h4.2139v2.2939Z"/><path class="cls-1" d="M147.2363,34.0958h2.2813V36.377h-2.2813Z"/><path class="cls-2" d="M357.46,47.5857h.5349l5.0277,5.0276V47.5857h1.6047v8.023h-.5881l-4.9746-4.9742v4.9742H357.46Zm13.2219,0,3.2039,8.0175-1.7061.0055-.4816-1.23h-3.6371l-.4814,1.23h-1.7114l3.2092-8.023Zm.4278,5.1883-1.1873-3.049-1.2193,3.049Zm4.5092-5.1883h-.5348v8.023h1.6047V50.9554l2.4069,2.6743,2.4066-2.6743.0056,4.6533h1.6045v-8.023h-.5348l-3.4819,3.9579Zm13.4841,0,3.2037,8.0175-1.7063.0055-.4814-1.23h-3.6371L386,55.6087h-1.7114l3.2092-8.023Zm.4279,5.1883-1.1873-3.049-1.22,3.049Zm6.365,1.337a2.5415,2.5415,0,0,1-1.8185-.7488l-1.07,1.07a4.0486,4.0486,0,0,0,1.2838.8557,4.7494,4.7494,0,0,0,1.8668.3208,3.24,3.24,0,0,0,2.0618-.6953,2.0566,2.0566,0,0,0,.8853-1.658,2.0083,2.0083,0,0,0-.8291-1.7918,3.98,3.98,0,0,0-1.8453-.6685,2.1138,2.1138,0,0,1-1.23-.4816.6257.6257,0,0,1,0-.7755q.2676-.4545,1.23-.4545a1.8426,1.8426,0,0,1,1.4978.6417l1.07-1.07a3.7431,3.7431,0,0,0-1.15-.8024,4.4781,4.4781,0,0,0-1.7331-.2674,3.2114,3.2114,0,0,0-1.8745.6446,1.996,1.996,0,0,0-.9119,1.7089,1.7754,1.7754,0,0,0,.8021,1.6581,4.3122,4.3122,0,0,0,1.7652.5883q1.0695.1071,1.3345.5616a.8475.8475,0,0,1,0,.9094Q396.9652,54.111,395.8955,54.111Zm8.515,1.4976V49.0833h2.6744V47.5857h-6.9534v1.4976h2.6743v6.5253Zm9.74-6.5253V47.5857l-5.8941.0054v8.0176H414.14V54.1111H409.861V52.2872h3.2145V50.7949H409.861V49.0833ZM406.26,34.5368l-4.4024.01.49-.16a5.5121,5.5121,0,0,0-1.0389.32l-5.1358,2.1405,3.108-2.3157-.0237.0039-.071-.534-.5648-.9315a18.6089,18.6089,0,0,0,4.2319-4.3689l-4.1524,1.988,4.231-3.5238a6.97,6.97,0,0,0,1.3434-1.4565c.5456-.8247,1.0522-1.6695,1.5142-2.5248l-1.3114,1.295,1.572-3.42a45.1662,45.1662,0,0,0,2.3259-6.4307,54.7448,54.7448,0,0,0-6.2328,4.0157l-3.0778,2.3324.9817-1.53c-.7963.6771-1.5661,1.3917-2.3008,2.136a6.7451,6.7451,0,0,0-1.1329,1.5876l-2.248,4.3055.7984-3.93a18.5853,18.5853,0,0,0-1.7809,2.13l-.3919.5466-.3591-.2465a1.0166,1.0166,0,0,0-.0556.0934l-3.0878,5.8554,1.821-6.3642a20.2042,20.2042,0,0,0,.604-7.9868l-2.1264,3.9519,1.03-4.754a7.74,7.74,0,0,0,.1609-2.3723,38.2913,38.2913,0,0,0-.8171-4.7992l-.28,2.3334-.9232-3.4019A57.8706,57.8706,0,0,0,385.805,0a57.8138,57.8138,0,0,0-3.1524,8.5324l-.9229,3.4019-.28-2.3334a38.3461,38.3461,0,0,0-.8171,4.7992,7.7461,7.7461,0,0,0,.1609,2.3725l1.0287,4.7554-2.1252-3.9529a20.1993,20.1993,0,0,0,.6041,7.9862l1.8211,6.3646-3.088-5.8558a.9956.9956,0,0,0-.0555-.0934l-.3592.2465-.3919-.5466a18.5686,18.5686,0,0,0-1.7809-2.13l.7987,3.93-2.2483-4.3055a6.7465,6.7465,0,0,0-1.1327-1.5876c-.7332-.7428-1.5021-1.4565-2.2975-2.1327l.9839,1.5309-3.0835-2.3369a54.7173,54.7173,0,0,0-6.2328-4.0157A45.1555,45.1555,0,0,0,365.56,21.06l1.572,3.42-1.3114-1.295c.462.8553.9688,1.7,1.5144,2.5248a6.9611,6.9611,0,0,0,1.3433,1.4565l4.2309,3.5238-4.1524-1.988a18.6049,18.6049,0,0,0,4.2319,4.3689l-.5648.9315-.071.534-.0239-.0039,3.1085,2.3159-5.1361-2.1407a5.5461,5.5461,0,0,0-1.0385-.32l.49.16-4.4026-.01a37.8637,37.8637,0,0,0-4.1958.2541,34.638,34.638,0,0,0,3.5872,1.9719l3.8734,1.8171-.4454-.054a5.7367,5.7367,0,0,0,.9822.1255l5.869.2606-4.0047.7627a14.3806,14.3806,0,0,0,2.8926.3181l4.2483.0278-2.4843.8063,3.8167.6633-5.8775.353q-.14.0084-.275.0256L370.64,43.1873c-.6916.3383-1.3371.7055-1.9332,1.0732.74.0573,1.5362.0924,2.3429.0779l3.073-.0548c.0836-.03.1677-.0631.2515-.0993l5.0839-2.2133-2.5648,1.9778a8.9632,8.9632,0,0,0,1.0065-.4307s.4.2308.4767.2949a1.866,1.866,0,0,0,.2157-.047,9.0711,9.0711,0,0,0,2.2276-1.3,9.3593,9.3593,0,0,1,2.498-1.4254,6.2248,6.2248,0,0,1,.8745-.1636,2.3815,2.3815,0,0,1-1.1519-.7183c-.556-.5558-.7686-1.3061-.2328-1.4645s1.5076.75,1.5708.75a1.16,1.16,0,0,0,.324-.7481c0-.3208-.229-.9447-.2719-1.3222a6.2829,6.2829,0,0,0-.2284-1.0939c-.0836-.2486-.6645-.3569-.9763-.5493a5.1,5.1,0,0,1-.7866-.5445,2.4887,2.4887,0,0,1-.3344-1.1413,4.4846,4.4846,0,0,0-.1877-1.1618c-.1085-.2034-.3876-.3471-.5762-.5358a.8113.8113,0,0,1-.1945-.4994c.1448-.0451.19.3277.3572.3594s.1559.1695.418.26.2713.2149.3052.459.3277,1.0689.4248,1.4056.1989.59.5313.6014.287.1829.6779.1515a2.1871,2.1871,0,0,1,.9381.1807c.21.0746.4746.0813.565-.0655s-.0634-.7391-.0634-.7391c-.1355,0-.1582-.183-.21-.3525s.0316-.1831.0316-.1831a.7163.7163,0,1,1,1.3652,0s.0836.0135.0317.1831-.0747.3525-.21.3525c0,0-.1535.5922-.0632.7391s.3549.14.5651.0655a2.1861,2.1861,0,0,1,.9379-.1807c.391.0314.3458-.14.678-.1515s.434-.2645.5311-.6014.3911-1.1615.425-1.4056.0429-.3686.3052-.459.2508-.2281.418-.26.2126-.4045.3572-.3594a.813.813,0,0,1-.1944.4994c-.1887.1887-.4678.3324-.5763.5358a4.4846,4.4846,0,0,0-.1877,1.1618,2.4875,2.4875,0,0,1-.3344,1.1413,5.1,5.1,0,0,1-.7866.5445c-.312.1924-.8927.3007-.9763.5493a6.2737,6.2737,0,0,0-.2284,1.0939c-.0429.3775-.2719,1.0014-.2719,1.3222a1.1589,1.1589,0,0,0,.3241.7481c.0631,0,1.0351-.9084,1.5707-.75s.3232.9087-.2328,1.4645a2.3815,2.3815,0,0,1-1.1519.7183,6.2248,6.2248,0,0,1,.8745.1636,9.3593,9.3593,0,0,1,2.498,1.4254,9.0741,9.0741,0,0,0,2.2274,1.3,1.8826,1.8826,0,0,0,.2155.0473c.0764-.064.4771-.2952.4771-.2952a8.9569,8.9569,0,0,0,1.0066.4307l-2.5649-1.9778,5.0842,2.2133c.0836.0362.1676.0695.2512.0993l3.073.0548c.8067.0147,1.6033-.0206,2.3429-.0779-.5961-.3677-1.2416-.7349-1.9336-1.0732l-2.6963-1.3185q-.1347-.0171-.2748-.0256l-5.8773-.353,3.819-.6637-2.4757-.8059,4.237-.0278a14.379,14.379,0,0,0,2.8926-.3181l-4.0046-.7627,5.8689-.2606a5.7646,5.7646,0,0,0,.9825-.1253l-.4457.054,3.8734-1.8173a34.638,34.638,0,0,0,3.5872-1.9719A37.8592,37.8592,0,0,0,406.26,34.5368Z"/><path class="cls-3" d="M415.3029,45.16v1.4563h-.2893V45.16h-.5418V44.9h1.3753v.26Zm2.2979,1.4563-.0024-1.2822-.5418,1.1032h-.1888l-.5418-1.1032v1.2822h-.2721V44.9h.3431l.5664,1.14.564-1.14h.3407v1.7162Z"/></svg>