<?xml version="1.0" encoding="utf-8"?>
<!-- Generator: Adobe Illustrator 22.1.0, SVG Export Plug-In . SVG Version: 6.00 Build 0)  -->
<svg version="1.1" id="Layer_1" xmlns="http://www.w3.org/2000/svg" xmlns:xlink="http://www.w3.org/1999/xlink" x="0px" y="0px"
	 viewBox="0 0 438.8 15.5" style="enable-background:new 0 0 438.8 15.5;" xml:space="preserve">
<style type="text/css">
	.st0{fill:#D3B372;}
</style>
<title>frame1</title>
<path class="st0" d="M3.6,15.5c-1,0-1.9-0.4-2.6-1.1C0.4,13.8,0,12.9,0,11.9V3.6c0-1,0.4-1.9,1.1-2.6C1.7,0.4,2.7,0,3.6,0
	c1,0,1.9,0.4,2.6,1.1c0.7,0.7,1.1,1.6,1.1,2.6v1.7H4.9V3.6c0-0.7-0.6-1.3-1.3-1.3c-0.3,0-0.7,0.1-0.9,0.4C2.4,2.9,2.2,3.2,2.2,3.6
	v8.3c0,0.7,0.6,1.3,1.3,1.3c0,0,0,0,0,0c0.3,0,0.7-0.1,0.9-0.4c0.3-0.2,0.4-0.6,0.4-0.9V9.8h2.4v2.1c0,1-0.4,1.9-1.1,2.6
	C5.5,15.1,4.6,15.5,3.6,15.5z"/>
<path class="st0" d="M14.5,11.8L14,15.3h-2.4l2.6-15.1h3.1l2.5,15.1h-2.4l-0.5-3.5H14.5z M15.7,3.7l-0.8,6h1.7L15.7,3.7z"/>
<path class="st0" d="M27.4,0.2l3,10.2V0.2h2.3v15.1h-2.5l-3.1-9.7v9.7h-2.3V0.2H27.4z"/>
<path class="st0" d="M40.4,0.2l3,10.2V0.2h2.3v15.1h-2.5l-3.1-9.7v9.7h-2.3V0.2H40.4z"/>
<path class="st0" d="M53.6,11.8L53,15.3h-2.4l2.6-15.1h3.1l2.5,15.1h-2.4l-0.5-3.5H53.6z M54.8,3.7l-0.8,6h1.7L54.8,3.7z"/>
<path class="st0" d="M63.2,15.3V0.2h3.4c0.9,0,1.7,0.2,2.4,0.7c0.7,0.4,1.1,1.1,1.3,1.9c0.2,0.5,0.2,1.1,0.2,1.6
	c0,0.9-0.2,1.8-0.8,2.4c-0.2,0.3-0.5,0.5-0.8,0.6c0.5,0.2,1,0.6,1.3,1.1c0.3,0.5,0.4,1,0.5,1.5c0.1,0.3,0.1,0.7,0.1,1.1
	c0,0.8-0.2,1.7-0.5,2.4c-0.3,0.5-0.7,1-1.2,1.3c-0.5,0.3-1.1,0.5-1.7,0.5H63.2z M65.7,6.4h1c0.7,0,1.3-0.4,1.4-1
	c0.1-0.3,0.1-0.6,0.1-1c0-0.5-0.1-1-0.5-1.4c-0.3-0.3-0.7-0.5-1.1-0.4h-1V6.4z M65.7,13.1h1c0.7,0,1.4-0.5,1.6-1.2
	c0.1-0.3,0.2-0.6,0.2-0.9c0.1-0.7-0.1-1.3-0.5-1.8c-0.3-0.4-0.8-0.6-1.3-0.5h-1V13.1z"/>
<path class="st0" d="M77.5,15.3h-2.3V0.2h2.3V15.3z"/>
<path class="st0" d="M89.4,11.6c0,1-0.2,1.9-0.8,2.7c-0.4,0.5-0.9,0.9-1.6,1.1c-0.4,0.1-0.8,0.2-1.3,0.2c-0.8,0-1.6-0.2-2.2-0.7
	c-0.5-0.4-0.9-0.9-1.2-1.5c-0.3-0.7-0.5-1.4-0.5-2.1l2.2-0.2c0,0.7,0.3,1.4,0.7,1.9c0.2,0.3,0.6,0.4,0.9,0.4c0.5,0,1-0.3,1.2-0.7
	c0.2-0.3,0.3-0.7,0.2-1c0-0.7-0.3-1.4-0.9-1.9c-0.5-0.4-1.1-1.1-2-1.9c-0.6-0.6-1.2-1.2-1.6-2C82.2,5.2,82,4.5,82,3.8
	c-0.1-1.2,0.4-2.4,1.4-3.1C84.1,0.2,84.8,0,85.6,0c0.7,0,1.5,0.2,2.1,0.5c0.5,0.3,0.8,0.7,1.1,1.2c0.3,0.5,0.5,1.1,0.5,1.8l-2.2,0.4
	c0-0.5-0.2-1-0.5-1.4C86.3,2.2,86,2,85.6,2.1c-0.4,0-0.8,0.2-1,0.6c-0.2,0.3-0.3,0.7-0.3,1.1c0,0.8,0.4,1.5,0.9,2.1
	c0.3,0.4,0.6,0.7,1,1c0.5,0.4,0.9,0.8,1.1,0.9c0.5,0.5,0.9,1.1,1.3,1.7c0.1,0.2,0.2,0.5,0.3,0.7C89.2,10.6,89.3,11.1,89.4,11.6z"/>
<path class="st0" d="M105.5,8.9v6.4h-2.3V0.2h2.3v6.4h2.8V0.2h2.3v15.1h-2.3V8.9H105.5z"/>
<path class="st0" d="M118.5,11.8l-0.6,3.5h-2.4l2.6-15.1h3.1l2.5,15.1h-2.4l-0.5-3.5H118.5z M119.7,3.7l-0.8,6h1.7L119.7,3.7z"/>
<path class="st0" d="M135.6,11.6c0,1-0.2,1.9-0.8,2.7c-0.4,0.5-0.9,0.9-1.6,1.1c-0.4,0.1-0.8,0.2-1.3,0.2c-0.8,0-1.6-0.2-2.2-0.7
	c-0.5-0.4-0.9-0.9-1.2-1.5c-0.3-0.7-0.5-1.4-0.5-2.1l2.2-0.2c0,0.7,0.3,1.4,0.7,1.9c0.2,0.3,0.6,0.4,0.9,0.4c0.5,0,1-0.3,1.2-0.7
	c0.2-0.3,0.3-0.7,0.2-1c0-0.7-0.3-1.4-0.9-1.9l-2-1.9c-0.6-0.6-1.2-1.2-1.6-2c-0.3-0.7-0.5-1.4-0.5-2.1c-0.1-1.2,0.4-2.4,1.4-3.1
	c0.6-0.4,1.4-0.7,2.1-0.6c0.7,0,1.5,0.2,2.1,0.5c0.5,0.3,0.8,0.7,1.1,1.2c0.3,0.5,0.5,1.1,0.5,1.8l-2.2,0.4c0-0.5-0.2-1-0.5-1.4
	c-0.2-0.3-0.6-0.4-0.9-0.4c-0.4,0-0.8,0.2-1,0.6c-0.2,0.3-0.3,0.7-0.3,1.1c0,0.8,0.4,1.5,0.9,2.1c0.3,0.4,0.6,0.7,1,1
	c0.5,0.4,0.9,0.8,1.1,0.9c0.5,0.5,0.9,1.1,1.3,1.7c0.1,0.2,0.2,0.5,0.4,0.7C135.5,10.6,135.6,11.1,135.6,11.6z"/>
<path class="st0" d="M149.5,15.3V0.2h3.4c0.9,0,1.7,0.2,2.4,0.7c0.7,0.4,1.1,1.1,1.3,1.9c0.2,0.5,0.2,1.1,0.2,1.6
	c0,0.9-0.2,1.8-0.8,2.4c-0.2,0.3-0.5,0.5-0.8,0.6c0.5,0.2,1,0.6,1.3,1.1c0.3,0.5,0.4,1,0.5,1.5c0.1,0.3,0.1,0.7,0.1,1.1
	c0,0.8-0.2,1.7-0.5,2.4c-0.3,0.5-0.7,1-1.2,1.3c-0.5,0.3-1.1,0.5-1.7,0.5H149.5z M152,6.4h1c0.7,0,1.3-0.4,1.4-1
	c0.1-0.3,0.1-0.6,0.1-1c0-0.5-0.1-1-0.5-1.4c-0.3-0.3-0.7-0.5-1.1-0.4h-1V6.4z M152,13.1h1c0.7,0,1.4-0.5,1.6-1.2
	c0.1-0.3,0.2-0.6,0.2-0.9c0.1-0.7-0.1-1.3-0.5-1.8c-0.3-0.4-0.8-0.6-1.3-0.5h-1L152,13.1z"/>
<path class="st0" d="M161.5,15.3V0.2h6.5v2.3h-4.2v4.1h3.1v2.3h-3.1V13h4.2v2.3H161.5z"/>
<path class="st0" d="M172.3,15.3V0.2h6.5v2.3h-4.2v4.1h3.1v2.3h-3.1V13h4.2v2.3H172.3z"/>
<path class="st0" d="M186,0.2l3,10.2V0.2h2.3v15.1h-2.5l-3.1-9.7v9.7h-2.3V0.2H186z"/>
<path class="st0" d="M208.8,15.5c-2,0-3.6-1.6-3.6-3.6c0,0,0,0,0,0V0.2h2.2v11.7c0,0.3,0.1,0.7,0.4,0.9c0.2,0.2,0.6,0.4,0.9,0.4
	c0.7,0,1.3-0.6,1.3-1.3c0,0,0,0,0,0V0.2h2.4v11.7c0,1-0.4,1.9-1.1,2.6C210.7,15.1,209.8,15.5,208.8,15.5z"/>
<path class="st0" d="M223.9,11.6c0,1-0.2,1.9-0.8,2.7c-0.4,0.5-0.9,0.9-1.6,1.1c-0.4,0.1-0.8,0.2-1.3,0.2c-0.8,0-1.6-0.2-2.2-0.7
	c-0.5-0.4-0.9-0.9-1.2-1.5c-0.3-0.7-0.5-1.4-0.5-2.1l2.2-0.2c0,0.7,0.3,1.4,0.7,1.9c0.2,0.3,0.6,0.4,0.9,0.4c0.5,0,1-0.3,1.2-0.7
	c0.2-0.3,0.3-0.7,0.2-1c0-0.7-0.3-1.4-0.9-1.9c-0.5-0.4-1.1-1.1-2-1.9c-0.6-0.6-1.2-1.2-1.6-2c-0.3-0.7-0.5-1.4-0.5-2.1
	c-0.1-1.2,0.4-2.4,1.4-3.1c0.6-0.4,1.4-0.7,2.1-0.6c0.7,0,1.5,0.2,2.1,0.5c0.5,0.3,0.8,0.7,1.1,1.2c0.3,0.5,0.5,1.1,0.5,1.8
	l-2.2,0.4c0-0.5-0.2-1-0.5-1.4c-0.2-0.3-0.6-0.4-0.9-0.4c-0.4,0-0.8,0.2-1,0.6c-0.2,0.3-0.3,0.7-0.3,1.1c0,0.8,0.4,1.5,0.9,2.1
	c0.3,0.4,0.6,0.7,1,1c0.5,0.4,0.9,0.8,1.1,0.9c0.5,0.5,0.9,1.1,1.3,1.7c0.1,0.2,0.2,0.5,0.4,0.7C223.8,10.6,223.9,11.1,223.9,11.6z"
	/>
<path class="st0" d="M227.8,15.3V0.2h6.5v2.3h-4.2v4.1h3.1v2.3h-3.1V13h4.2v2.3H227.8z"/>
<path class="st0" d="M245.5,11.7c0,1-0.4,1.9-1.1,2.6c-0.7,0.7-1.6,1.1-2.5,1.1h-3.6V0.2h3.6c1,0,1.9,0.4,2.5,1.1
	c0.7,0.7,1.1,1.6,1,2.5L245.5,11.7z M240.6,13.1h1.4c0.3,0,0.7-0.1,0.9-0.4c0.2-0.2,0.4-0.6,0.4-0.9V3.8c0-0.3-0.1-0.7-0.4-0.9
	c-0.2-0.3-0.6-0.4-0.9-0.4h-1.4V13.1z"/>
<path class="st0" d="M261.9,11.8l-0.6,3.5H259l2.6-15.1h3.1l2.5,15.1h-2.4l-0.5-3.5H261.9z M263.1,3.7l-0.8,6h1.7L263.1,3.7z"/>
<path class="st0" d="M277.7,11.6c0,1-0.2,1.9-0.8,2.7c-0.4,0.5-0.9,0.9-1.6,1.1c-0.4,0.1-0.8,0.2-1.3,0.2c-0.8,0-1.6-0.2-2.2-0.7
	c-0.5-0.4-0.9-0.9-1.2-1.5c-0.3-0.7-0.5-1.4-0.5-2.1l2.2-0.2c0,0.7,0.3,1.4,0.7,1.9c0.2,0.3,0.6,0.4,0.9,0.4c0.5,0,1-0.3,1.2-0.7
	c0.2-0.3,0.2-0.7,0.2-1c0-0.7-0.3-1.4-0.9-1.9c-0.5-0.4-1.1-1.1-2-1.9c-0.6-0.6-1.2-1.2-1.6-2c-0.3-0.7-0.5-1.4-0.5-2.1
	c-0.1-1.2,0.4-2.4,1.4-3.1c0.6-0.4,1.4-0.7,2.1-0.6c0.7,0,1.5,0.2,2.1,0.5c0.5,0.3,0.8,0.7,1.1,1.2c0.3,0.5,0.5,1.1,0.5,1.8
	l-2.2,0.4c0-0.5-0.2-1-0.5-1.4c-0.2-0.3-0.6-0.4-0.9-0.4c-0.4,0-0.8,0.2-1,0.6c-0.2,0.3-0.3,0.7-0.3,1.1c0,0.8,0.4,1.5,0.9,2.1
	c0.3,0.4,0.6,0.7,1,1c0.5,0.4,0.9,0.8,1.1,0.9c0.5,0.5,0.9,1.1,1.3,1.7c0.1,0.2,0.2,0.5,0.4,0.7C277.6,10.6,277.7,11.1,277.7,11.6z"
	/>
<path class="st0" d="M294.5,11.8l-0.6,3.5h-2.4l2.6-15.1h3.1l2.5,15.1h-2.4l-0.5-3.5H294.5z M295.7,3.7l-0.8,6h1.7L295.7,3.7z"/>
<path class="st0" d="M321.3,11.6c0,1-0.2,1.9-0.8,2.7c-0.4,0.5-0.9,0.9-1.6,1.1c-0.4,0.1-0.8,0.2-1.3,0.2c-0.8,0-1.6-0.2-2.2-0.7
	c-0.5-0.4-0.9-0.9-1.2-1.5c-0.3-0.7-0.5-1.4-0.5-2.1l2.2-0.2c0,0.7,0.3,1.4,0.7,1.9c0.2,0.3,0.6,0.4,0.9,0.4c0.5,0,1-0.3,1.2-0.7
	c0.2-0.3,0.2-0.7,0.2-1c0-0.7-0.3-1.4-0.9-1.9c-0.5-0.4-1.1-1.1-2-1.9c-0.6-0.6-1.2-1.2-1.6-2c-0.3-0.7-0.5-1.4-0.5-2.1
	c-0.1-1.2,0.4-2.4,1.4-3.1c0.6-0.4,1.4-0.7,2.1-0.6c0.7,0,1.5,0.2,2.1,0.5c0.5,0.3,0.8,0.7,1.1,1.2c0.3,0.5,0.5,1.1,0.5,1.8L319,3.9
	c0-0.5-0.2-1-0.5-1.4c-0.2-0.3-0.6-0.4-0.9-0.4c-0.4,0-0.8,0.2-1,0.6c-0.2,0.3-0.3,0.7-0.3,1.1c0,0.8,0.4,1.5,0.9,2.1
	c0.3,0.4,0.6,0.7,1,1c0.5,0.4,0.9,0.8,1.1,0.9c0.5,0.5,0.9,1.1,1.3,1.7c0.1,0.2,0.2,0.5,0.4,0.7C321.2,10.6,321.3,11.1,321.3,11.6z"
	/>
<path class="st0" d="M328.8,0.2c1,0,2,0.3,2.7,1.1c0.6,0.7,1,1.6,0.9,2.6V6c0,1-0.4,1.9-1,2.6c-0.7,0.7-1.6,1.1-2.5,1.1h-1.3v5.7
	h-2.3V0.2H328.8z M330.2,3.8c0-0.4-0.1-0.7-0.4-1c-0.3-0.2-0.6-0.4-0.9-0.4h-1.4v4.8h1.4c0.3,0,0.7-0.1,0.9-0.4
	c0.2-0.2,0.4-0.6,0.4-0.9L330.2,3.8z"/>
<path class="st0" d="M338.5,15.3h-2.3V0.2h2.3V15.3z"/>
<path class="st0" d="M346.9,0.2c1-0.1,2.1,0.3,2.8,1.1c0.6,0.7,0.8,1.6,0.8,2.6V6c0,1-0.4,2-1.2,2.7l1.7,6.6h-2.5l-1.4-5.7h-1.5v5.7
	h-2.3V0.2H346.9z M348.3,3.8c0.1-0.6-0.3-1.2-1-1.3c-0.1,0-0.2,0-0.3,0h-1.4v4.8h1.4c0.3,0,0.7-0.1,0.9-0.4c0.2-0.2,0.4-0.6,0.4-0.9
	L348.3,3.8z"/>
<path class="st0" d="M357.6,15.3h-2.3V0.2h2.3L357.6,15.3z"/>
<path class="st0" d="M364.2,2.5h-2.4V0.2h7.1v2.3h-2.4v12.8h-2.3L364.2,2.5z"/>
<path class="st0" d="M376.8,15.5c-2,0-3.6-1.6-3.6-3.6c0,0,0,0,0,0V0.2h2.2v11.7c0,0.3,0.1,0.7,0.4,0.9c0.2,0.2,0.6,0.4,0.9,0.4
	c0.7,0,1.3-0.6,1.3-1.3c0,0,0,0,0,0V0.2h2.4v11.7c0,1-0.4,1.9-1.1,2.6C378.6,15.1,377.7,15.5,376.8,15.5z"/>
<path class="st0" d="M387.3,11.8l-0.6,3.5h-2.4l2.6-15.1h3.1l2.5,15.1h-2.4l-0.5-3.5H387.3z M388.5,3.7l-0.8,6h1.7L388.5,3.7z"/>
<path class="st0" d="M403.1,15.3h-6.2V0.2h2.3v12.9h3.9V15.3z"/>
<path class="st0" d="M415.3,11.8l-0.6,3.5h-2.4l2.6-15.1h3.1l2.5,15.1h-2.4l-0.5-3.5H415.3z M416.5,3.7l-0.8,6h1.7L416.5,3.7z"/>
<path class="st0" d="M426.9,15.3h-2.3V0.2h2.3L426.9,15.3z"/>
<path class="st0" d="M438.8,11.7c0,1-0.4,1.9-1.1,2.6c-0.7,0.7-1.6,1.1-2.5,1.1h-3.6V0.2h3.6c1,0,1.9,0.4,2.5,1.1
	c0.7,0.7,1.1,1.6,1,2.5V11.7z M433.9,13.1h1.4c0.3,0,0.7-0.1,0.9-0.4c0.2-0.2,0.4-0.6,0.4-0.9V3.8c0-0.3-0.1-0.7-0.4-0.9
	c-0.2-0.3-0.6-0.4-0.9-0.4h-1.4V13.1z"/>
</svg>
