<svg id="Content" xmlns="http://www.w3.org/2000/svg" xmlns:xlink="http://www.w3.org/1999/xlink" width="728" height="360" viewBox="0 0 728 360"><defs><style>.cls-1{fill:none;}.cls-2{fill:#fff;stroke:#ba9544;stroke-miterlimit:10;stroke-width:0.5px;}.cls-3{fill:#ba9544;}.cls-4{clip-path:url(#clip-path);}</style><clipPath id="clip-path"><rect class="cls-1" x="461.86539" y="-134.33868" width="208.12648" height="92"/></clipPath></defs><title>THC - Sensi Star</title><polygon class="cls-2" points="621.295 150.429 388.693 149.548 376.951 166.48 388.693 183.112 621.295 182.716 631.864 166.574 621.295 150.429"/><polygon class="cls-3" points="388.862 149.548 377.12 166.48 388.862 183.112 424.51 183.112 424.63 149.548 388.862 149.548"/><path class="cls-3" d="M521.824,161.12323v2.126h-3.7959v9.26269h-2.27734v-9.26269h-3.79688v-2.126Z"/><path class="cls-3" d="M523.51731,172.5119V161.12323h2.27832v4.55567h5.30664v-4.5625h2.27734v11.38769l-2.27734.00781v-4.707h-5.30664v4.707Z"/><path class="cls-3" d="M536.91379,170.87616a5.697,5.697,0,0,1,4.05079-9.75293,6.16429,6.16429,0,0,1,4.18359,1.51856l-1.51856,1.66308a4.19969,4.19969,0,0,0-2.665-.91113,3.34682,3.34682,0,0,0-2.47168.95605,3.3131,3.3131,0,0,0-.9375,2.42969,3.41105,3.41105,0,0,0,.94921,2.52051,3.36172,3.36172,0,0,0,2.47559.93457,4.08629,4.08629,0,0,0,2.64941-.90332l1.51856,1.66211a6.14211,6.14211,0,0,1-4.18359,1.51855A5.54379,5.54379,0,0,1,536.91379,170.87616Z"/><path class="cls-3" d="M547.699,165.25018a1.10111,1.10111,0,0,1,.82031-.30761,1.143,1.143,0,0,1,.85059.30761,1.10585,1.10585,0,0,1,0,1.52247,1.30094,1.30094,0,0,1-1.6709,0,1.10585,1.10585,0,0,1,0-1.52247Zm0,5.43555a1.10108,1.10108,0,0,1,.82031-.30762,1.143,1.143,0,0,1,.85059.30762,1.04565,1.04565,0,0,1,.30371.76367,1.0298,1.0298,0,0,1-.30371.75879,1.30094,1.30094,0,0,1-1.6709,0,1.0298,1.0298,0,0,1-.30371-.75879A1.04565,1.04565,0,0,1,547.699,170.68573Z"/><path class="cls-3" d="M559.824,161.12323v-.00683h2.27051v11.3955H559.824v-8.35156l-1.51855,1.51856-1.51856-1.51856Z"/><path class="cls-3" d="M564.364,166.97675a6.88658,6.88658,0,0,1,1.17676-4.27735,3.84591,3.84591,0,0,1,3.15039-1.56836,4.77771,4.77771,0,0,1,3.18945,1.13184l-1.13965,1.51758a4.011,4.011,0,0,0-1.95117-.45508,2.015,2.015,0,0,0-1.57129.64551,3.05462,3.05462,0,0,0-.65332,1.93554,3.54152,3.54152,0,0,1,2.27832-.98632,3.80039,3.80039,0,0,1,2.92285,1.02441,3.91931,3.91931,0,0,1,.94922,2.77148,3.734,3.734,0,0,1-1.06347,2.69532,4.02615,4.02615,0,0,1-3.03614,1.10058,3.81128,3.81128,0,0,1-3.26465-1.541A7.06334,7.06334,0,0,1,564.364,166.97675Zm2.50488,1.74707q.07617,1.58642,1.82227,1.65429,1.74609-.06738,1.82226-1.51074a1.71972,1.71972,0,0,0-1.89746-1.89746A1.69171,1.69171,0,0,0,566.86887,168.72382Z"/><path class="cls-3" d="M574.76536,169.467v-1.51074h4.707V169.467Z"/><path class="cls-3" d="M585.53879,161.12323a4.30153,4.30153,0,0,1,2.73731.83887,2.98983,2.98983,0,0,1,1.06641,2.50195,5.21664,5.21664,0,0,1-1.51465,3.61426,10.53659,10.53659,0,0,1-2.502,2.15625h4.09961v2.27734h-7.67578v-2.27734q.76026,0,2.88574-1.89844a10.85475,10.85475,0,0,0,2.4668-2.69531,1.85024,1.85024,0,0,0-.03711-1.59375q-.38085-.79834-1.82226-.79785a2.61434,2.61434,0,0,0-2.126.91113l-1.51856-1.51855a6.28932,6.28932,0,0,1,1.48047-1.13868A5.70073,5.70073,0,0,1,585.53879,161.12323Z"/><path class="cls-3" d="M592.698,170.87616a7.80764,7.80764,0,0,1,0-8.12012,3.64463,3.64463,0,0,1,6.07813,0,7.83587,7.83587,0,0,1,0,8.123,3.64283,3.64283,0,0,1-6.07813-.00293Zm3.04493-.49023q.75146,0,1.32128-1.02442a5.966,5.966,0,0,0,0-5.08691q-.56982-1.0254-1.33691-1.02539-.75147,0-1.32031,1.02539a5.966,5.966,0,0,0,0,5.08691Q594.97531,170.38544,595.7429,170.38593Z"/><path class="cls-3" d="M602.62083,165.92987a2.936,2.936,0,1,1,2.03515.81934A2.76692,2.76692,0,0,1,602.62083,165.92987Zm2.01269-.53222a1.35451,1.35451,0,0,0,1.04-.43262,1.64044,1.64044,0,0,0,0-2.15235,1.37148,1.37148,0,0,0-1.04785-.42871,1.3541,1.3541,0,0,0-1.0332.42871,1.64041,1.64041,0,0,0,0,2.15235A1.35517,1.35517,0,0,0,604.63352,165.39765Zm-.60742,7.11425,6.45312-11.38867h1.85254l-6.43847,11.38867Zm5.65625-.75195a2.9161,2.9161,0,1,1,2.01953.8125A2.7394,2.7394,0,0,1,609.68235,171.76Zm1.98144-.55371a1.32833,1.32833,0,0,0,1.01661-.42188,1.58454,1.58454,0,0,0,0-2.09472,1.338,1.338,0,0,0-1.02442-.42188,1.32077,1.32077,0,0,0-1.00976.42188,1.58744,1.58744,0,0,0,0,2.09472A1.33041,1.33041,0,0,0,611.66379,171.20624Z"/><g class="cls-4"><image id="SmallTopDown-8342SensiStar.psd" width="1500" height="1261" transform="translate(443.42939 -154.61789) scale(0.12656)" xlink:href="../../../../../Dropbox%20(Revolution%20Strategy)/Rocio%20Ugarte/Clients/Namaste/Digital%20Ads/_Flight%202:Phase%202%20Terpene/1.%20Animated%20w:%20Packaging/8.%20Expandable%20Unit%20728%20x%2090:728%20x%20360/728%20x%2090_728%20x%20360_Folder/Links/SmallTopDown-8342SensiStar.png"/></g></svg>