<svg id="Layer_1" data-name="Layer 1" xmlns="http://www.w3.org/2000/svg" width="970" height="250" viewBox="0 0 970 250"><defs><style>.cls-1{fill:#ab9555;}</style></defs><title>frame3_1</title><path class="cls-1" d="M402.042,161.42626h-3.2207v-21.3584h3.2207Z"/><path class="cls-1" d="M411.90133,140.05126l4.27539,14.36523V140.05126h3.2207v21.375h-3.459l-4.4336-13.6875v13.6875h-3.2207v-21.375Z"/><path class="cls-1" d="M428.85836,161.42626h-3.2207v-21.375h9.16992v3.23828h-5.94922v5.83008h4.3457v3.23828h-4.3457Z"/><path class="cls-1" d="M445.47945,139.7954a5.108,5.108,0,0,1,5.11524,5.11426v11.6582a5.1055,5.1055,0,1,1-10.21094,0v-11.6582a5.10634,5.10634,0,0,1,5.0957-5.11426Zm1.75586,5.0459a1.8322,1.8322,0,0,0-1.83984-1.84082,1.80385,1.80385,0,0,0-1.3125.53613,1.764,1.764,0,0,0-.54492,1.30469v11.69336a1.76334,1.76334,0,0,0,.54492,1.30371,1.80475,1.80475,0,0,0,1.3125.53711,1.83385,1.83385,0,0,0,1.83984-1.84082Z"/><path class="cls-1" d="M461.87984,140.06786a4.91646,4.91646,0,0,1,3.95508,1.4834,5.38993,5.38993,0,0,1,1.10742,3.61328v3.10254a4.99216,4.99216,0,0,1-1.7207,3.835l2.38477,9.32422H464.124l-1.95313-8.0459h-2.14844v8.0459h-3.2207v-21.3584Zm1.92579,5.14844a1.63472,1.63472,0,0,0-1.83985-1.8584h-1.94336v6.835h1.94336a1.7655,1.7655,0,0,0,1.30469-.54492,1.803,1.803,0,0,0,.53516-1.3125Z"/><path class="cls-1" d="M476.9482,161.42626h-3.2207v-21.375h4.623l3.002,15.35449,2.88281-15.35449h4.44141v21.375h-3.22266V147.99462l-2.79492,13.43164H480.0693l-3.1211-13.39746Z"/><path class="cls-1" d="M498.86813,156.51708l-.78321,4.90918h-3.35351l3.63086-21.3584h4.43164l3.57812,21.3584h-3.38672l-.7539-4.90918Zm1.6914-11.55664-1.19336,8.41992h2.38672Z"/><path class="cls-1" d="M512.85055,143.30712h-3.42578v-3.23926h10.05664v3.23926H516.0732v18.11914h-3.22265Z"/><path class="cls-1" d="M528.65328,161.42626h-3.2207v-21.3584h3.2207Z"/><path class="cls-1" d="M539.958,139.7954a5.10466,5.10466,0,0,1,5.11328,5.11426v11.6582a5.10452,5.10452,0,1,1-10.209,0v-11.6582a5.10634,5.10634,0,0,1,5.0957-5.11426Zm1.75586,5.0459a1.83221,1.83221,0,0,0-1.8418-1.84082,1.807,1.807,0,0,0-1.3125.53613,1.764,1.764,0,0,0-.54492,1.30469v11.69336a1.76334,1.76334,0,0,0,.54492,1.30371,1.808,1.808,0,0,0,1.3125.53711,1.83386,1.83386,0,0,0,1.8418-1.84082Z"/><path class="cls-1" d="M554.87594,140.05126l4.27539,14.36523V140.05126H562.374v21.375h-3.46094l-4.43164-13.6875v13.6875H551.2607v-21.375Z"/><path class="cls-1" d="M567.95016,158.22216h3.2207v3.2207h-3.2207Z"/></svg>