<svg id="Layer_1" data-name="Layer 1" xmlns="http://www.w3.org/2000/svg" xmlns:xlink="http://www.w3.org/1999/xlink" width="33.54844" height="50.43155" viewBox="0 0 33.54844 50.43155"><defs><style>.cls-1{fill:url(#New_Gradient_Swatch_1);}.cls-2{fill:#fff;}.cls-3{fill:#ba9544;}</style><linearGradient id="New_Gradient_Swatch_1" y1="17.16013" x2="33.54844" y2="17.16013" gradientUnits="userSpaceOnUse"><stop offset="0" stop-color="#a88a34"/><stop offset="0.49324" stop-color="#caaf67"/><stop offset="1" stop-color="#957f2e"/></linearGradient></defs><title>fruity</title><polygon class="cls-1" points="13.936 34.32 0 18.227 11 0 31.734 4.829 33.548 26.039 13.936 34.32"/><path class="cls-2" d="M23.53669,12.56081c1.14815-.34763,1.46868-1.27573,2.14482-1.59625-1.33633-.54857-2.1209-.68571-2.91345-.30937a1.982,1.982,0,0,0-1.17845,1.47028,2.0449,2.0449,0,0,0,1.94708.43534"/><path class="cls-2" d="M21.06082,14.495a6.173,6.173,0,0,0-1.51174-4.66278.104.104,0,0,0-.1483-.00479l-.00478.00479-.31415.32212a.10569.10569,0,0,0-.00319.14352,5.59141,5.59141,0,0,1,1.31081,4.22106c-2.754-1.61379-5.64988.1499-5.51593,3.07929a7.62286,7.62286,0,0,0,.23282,1.50536,12.92491,12.92491,0,0,0,5.87792,2.66627,1.53811,1.53811,0,0,1,.75268.37474,1.11072,1.11072,0,0,1,.354.783l.00957.28863a1.57966,1.57966,0,0,1-.07016.5103,2.24336,2.24336,0,0,1-.10047.31893c2.29631.11322,4.47143-3.53855,4.60538-6.44721.13395-2.91344-2.73325-4.67395-5.47447-3.10321"/><path class="cls-2" d="M21.19445,22.732a.75663.75663,0,0,0-.36517-.1786c-4.64524-.92331-8.55535-3.572-10.17233-9.0449a1.24945,1.24945,0,0,0-.16266-.31415.73837.73837,0,0,1-.11-.421l.03668-1.03813a.28057.28057,0,0,0-.2711-.29182h-.01116l-.55015.00478a.28006.28006,0,0,0-.27907.28226.18369.18369,0,0,0,.00159.0303l.12917,1.11467a.69308.69308,0,0,1-.15149.4481,1.78434,1.78434,0,0,0-.18179.93766c-.11163,8.72278,5.78383,11.26467,11.2264,9.92356.69208-.17063.75746-.28225.81646-.36518a1.24039,1.24039,0,0,0,.10844-.31095.73056.73056,0,0,0,.04146-.26791l-.008-.287a.31592.31592,0,0,0-.09728-.22166"/><path class="cls-3" d="M.7055,50.43155V44.12491H5.14105v1.17675H1.96673v1.34571h2.3418v1.17285H1.96673v2.61133Z"/><path class="cls-3" d="M9.85443,47.68155l1.57275,2.75H9.9804L8.47113,47.8251H7.31927v2.60645H6.05755V44.12491h2.75q2.20752,0,2.20752,1.8164A1.63029,1.63029,0,0,1,9.85443,47.68155ZM7.31927,46.64737H9.0849q.761-.01319.78222-.69336-.02124-.62256-.76953-.64746H7.31927Z"/><path class="cls-3" d="M13.24749,44.12491v3.65722a1.266,1.266,0,0,0,.4209,1.05176,1.81209,1.81209,0,0,0,2.10205,0,1.26713,1.26713,0,0,0,.42041-1.05176V44.12491h1.26172v3.99414a2.08954,2.08954,0,0,1-.77783,1.63965,2.8849,2.8849,0,0,1-1.95557.67285,2.8836,2.8836,0,0,1-1.95507-.67285,2.08952,2.08952,0,0,1-.77784-1.63965V44.12491Z"/><path class="cls-3" d="M18.81439,44.12h1.25732v6.31153H18.81439Z"/><path class="cls-3" d="M26.48382,44.12491v1.17675H24.38177v5.12989H23.12005V45.30166H21.018V44.12491Z"/><path class="cls-3" d="M27.0512,44.12491h1.48047l1.46289,2.05957,1.49707-2.05957h1.44629l-2.3125,3.15332v3.15332H29.36419V47.27823Z"/></svg>