<svg id="Content" xmlns="http://www.w3.org/2000/svg" xmlns:xlink="http://www.w3.org/1999/xlink" width="320" height="480" viewBox="0 0 320 480"><defs><style>.cls-1{fill:#ba9544;}.cls-2{fill:#fff;stroke:#ba9544;stroke-miterlimit:10;stroke-width:0.5px;}.cls-3{clip-path:url(#clip-path);}</style><clipPath id="clip-path"><polygon class="cls-1" points="58.24 285.076 67.633 298.382 67.818 298.399 67.818 271.534 67.633 271.528 58.24 285.076"/></clipPath></defs><title>CBD - MK Ultra</title><polygon class="cls-2" points="253.51 272.203 67.429 271.498 58.035 285.044 67.429 298.35 253.51 298.033 261.965 285.119 253.51 272.203"/><polygon class="cls-1" points="58.24 285.076 67.633 298.382 67.818 298.399 67.818 271.534 67.633 271.528 58.24 285.076"/><g class="cls-3"><rect class="cls-1" x="56.16232" y="269.45176" width="13.72831" height="31.0228"/></g><path class="cls-1" d="M167.3584,289.51318a4.557,4.557,0,0,1,3.24023-7.80175,4.92928,4.92928,0,0,1,3.34668,1.21484l-1.21484,1.33008a3.35829,3.35829,0,0,0-2.13184-.72852,2.59663,2.59663,0,0,0-2.72656,2.709,2.73107,2.73107,0,0,0,.75879,2.01611A2.6893,2.6893,0,0,0,170.61133,289a3.2627,3.2627,0,0,0,2.11914-.72266l1.21484,1.33008a4.913,4.913,0,0,1-3.34668,1.21485A4.4331,4.4331,0,0,1,167.3584,289.51318Z"/><path class="cls-1" d="M182.376,286.01807a2.58685,2.58685,0,0,1-1.48243,4.81l-5.126-.00585v-9.1045h4.835q2.30127.13331,2.42969,2.67823A1.90461,1.90461,0,0,1,182.376,286.01807Zm-4.78028-.64991h2.55078a1.02807,1.02807,0,0,0,1.12989-1.13574q-.02929-.668-1.11133-.70459H177.5957Zm0,4.03272h2.97657a1.189,1.189,0,0,0,1.31152-1.31787q-.03077-.87452-1.293-.91113H177.5957Z"/><path class="cls-1" d="M185.46191,290.82227v-9.1167h3.51075q4.251,0,4.251,4.56152,0,4.55493-4.251,4.55518Zm3.51075-1.81592q2.42284-.00587,2.42871-2.73926-.00586-2.73341-2.42871-2.7334h-1.68848v5.47266Z"/><path class="cls-1" d="M195.25879,285.0127a.877.877,0,0,1,.65527-.2461.91331.91331,0,0,1,.68067.2461.83424.83424,0,0,1,.24316.61035.82291.82291,0,0,1-.24316.60742,1.039,1.039,0,0,1-1.33594,0,.82291.82291,0,0,1-.24317-.60742A.83425.83425,0,0,1,195.25879,285.0127Zm0,4.34863a.87862.87862,0,0,1,.65527-.24561.915.915,0,0,1,.68067.24561.83458.83458,0,0,1,.24316.61084.82257.82257,0,0,1-.24316.60693,1.039,1.039,0,0,1-1.33594,0,.82257.82257,0,0,1-.24317-.60693A.83459.83459,0,0,1,195.25879,289.36133Z"/><path class="cls-1" d="M208.292,284.32324l-3.52246,1.94385,3.52246,1.94336v1.397l-5.75781-3.16455v-.39453l5.75781-3.12207Z"/><path class="cls-1" d="M216.18164,281.71143v-.00586h1.81641v9.1167h-1.81641v-6.68116L214.9668,285.356l-1.21387-1.21485Z"/></svg>