<svg id="Content" xmlns="http://www.w3.org/2000/svg" width="320" height="480" viewBox="0 0 320 480"><defs><style>.cls-1{fill:#fff;stroke:#ba9544;stroke-miterlimit:10;stroke-width:0.5px;}.cls-2{fill:#ba9544;}</style></defs><title>THC - MK Ultra</title><polygon class="cls-1" points="253.51 229.999 67.429 229.294 58.035 242.84 67.429 256.146 253.51 255.829 261.965 242.915 253.51 229.999"/><polygon class="cls-2" points="67.565 229.294 58.171 242.84 67.565 256.146 96.083 256.146 96.178 229.294 67.565 229.294"/><path class="cls-2" d="M173.93359,238.40088v1.70068h-3.03711v7.41016h-1.82226v-7.41016h-3.03613v-1.70068Z"/><path class="cls-2" d="M175.28809,247.51172v-9.11084h1.82226v3.64453h4.24512V238.395h1.82226v9.11084l-1.82226.00586v-3.76563h-4.24512v3.76563Z"/><path class="cls-2" d="M186.00488,246.20264a4.557,4.557,0,0,1,3.24024-7.80176,4.92932,4.92932,0,0,1,3.34668,1.21484L191.377,240.9458a3.35825,3.35825,0,0,0-2.13183-.72851,2.59661,2.59661,0,0,0-2.72657,2.709,2.73105,2.73105,0,0,0,.75879,2.01611,2.68932,2.68932,0,0,0,1.98047.74707,3.2627,3.2627,0,0,0,2.11914-.72265l1.21485,1.33008a4.913,4.913,0,0,1-3.34668,1.21484A4.43316,4.43316,0,0,1,186.00488,246.20264Z"/><path class="cls-2" d="M194.63281,241.70215a.88087.88087,0,0,1,.65625-.2461.911.911,0,0,1,.67969.2461.83424.83424,0,0,1,.24316.61035.82291.82291,0,0,1-.24316.60742,1.039,1.039,0,0,1-1.33594,0,.82291.82291,0,0,1-.24316-.60742A.83424.83424,0,0,1,194.63281,241.70215Zm0,4.34863a.88248.88248,0,0,1,.65625-.2456.91266.91266,0,0,1,.67969.2456.8346.8346,0,0,1,.24316.61084.82255.82255,0,0,1-.24316.60693,1.039,1.039,0,0,1-1.33594,0,.82255.82255,0,0,1-.24316-.60693A.8346.8346,0,0,1,194.63281,246.05078Z"/><path class="cls-2" d="M204.332,238.40088V238.395h1.81641v9.1167H204.332v-6.68115l-1.21484,1.21484-1.21387-1.21484Z"/><path class="cls-2" d="M207.96484,243.084a5.51225,5.51225,0,0,1,.94141-3.42236,3.075,3.075,0,0,1,2.52051-1.25439,3.825,3.825,0,0,1,2.55078.90478l-.91113,1.21485a3.21217,3.21217,0,0,0-1.56055-.36426,1.61471,1.61471,0,0,0-1.25781.51611,2.44891,2.44891,0,0,0-.52246,1.54883,2.83245,2.83245,0,0,1,1.82226-.78955,3.04393,3.04393,0,0,1,2.33887.81982,3.13615,3.13615,0,0,1,.75879,2.2168,2.98749,2.98749,0,0,1-.84961,2.15625,3.22123,3.22123,0,0,1-2.42969.88086,3.0507,3.0507,0,0,1-2.6123-1.23291A5.65125,5.65125,0,0,1,207.96484,243.084Zm2.00391,1.397q.06153,1.26928,1.458,1.32422,1.39746-.05495,1.458-1.209a1.376,1.376,0,0,0-1.51856-1.51807A1.3528,1.3528,0,0,0,209.96875,244.481Z"/><path class="cls-2" d="M216.28516,245.07617v-1.20849h3.76562v1.20849Z"/><path class="cls-2" d="M224.9043,238.40088a3.43752,3.43752,0,0,1,2.18945.67139,2.39249,2.39249,0,0,1,.85352,2.00146,4.1744,4.1744,0,0,1-1.21192,2.89111,8.4089,8.4089,0,0,1-2.001,1.72461h3.27929v1.82227h-6.14062v-1.82227q.6079,0,2.30859-1.51806a8.70168,8.70168,0,0,0,1.97363-2.15625,1.48353,1.48353,0,0,0-.03027-1.27588q-.30468-.63722-1.458-.6377a2.09063,2.09063,0,0,0-1.70019.729l-1.21485-1.21485a5.02323,5.02323,0,0,1,1.18457-.91113A4.56021,4.56021,0,0,1,224.9043,238.40088Z"/><path class="cls-2" d="M230.63184,246.20264a6.24405,6.24405,0,0,1,0-6.49561,2.91564,2.91564,0,0,1,4.8623,0,6.27315,6.27315,0,0,1,0,6.499,2.91413,2.91413,0,0,1-4.8623-.00341Zm2.43554-.3916q.60058,0,1.05664-.81983a4.76675,4.76675,0,0,0,0-4.06933q-.45557-.82032-1.06933-.82032-.60058,0-1.05664.82032a4.776,4.776,0,0,0,0,4.06933Q232.45362,245.8108,233.06738,245.811Z"/><path class="cls-2" d="M238.57031,242.24561a2.34729,2.34729,0,1,1,1.62793.65625A2.20842,2.20842,0,0,1,238.57031,242.24561Zm1.60938-.42481a1.0864,1.0864,0,0,0,.832-.34619,1.31154,1.31154,0,0,0,0-1.72217,1.098,1.098,0,0,0-.83789-.34326,1.084,1.084,0,0,0-.82617.34326,1.31151,1.31151,0,0,0,0,1.72217A1.08638,1.08638,0,0,0,240.17969,241.8208Zm-.48535,5.69092,5.16211-9.11084h1.48242l-5.15039,9.11084Zm4.52441-.60108a2.33336,2.33336,0,1,1,1.61523.64991A2.19278,2.19278,0,0,1,244.21875,246.91064Zm1.585-.44384a1.06725,1.06725,0,0,0,.81445-.33692,1.27122,1.27122,0,0,0,0-1.67627,1.07419,1.07419,0,0,0-.82031-.33691,1.05682,1.05682,0,0,0-.80762.33691,1.27122,1.27122,0,0,0,0,1.67627A1.0637,1.0637,0,0,0,245.80371,246.4668Z"/></svg>