<?xml version="1.0" encoding="utf-8"?>
<!-- Generator: Adobe Illustrator 23.0.1, SVG Export Plug-In . SVG Version: 6.00 Build 0)  -->
<svg version="1.1" id="Content" xmlns="http://www.w3.org/2000/svg" xmlns:xlink="http://www.w3.org/1999/xlink" x="0px" y="0px"
	 viewBox="0 0 640 1136" style="enable-background:new 0 0 640 1136;" xml:space="preserve">
<style type="text/css">
	.st0{fill:#B89344;}
</style>
<title>Frame2 - Ultra Sour</title>
<path class="st0" d="M168.8,617.7v38c0,3.5,1.6,4.8,4,4.8s4-1.3,4-4.8v-38h7.3v37.5c0,7.9-3.9,12.4-11.5,12.4s-11.5-4.5-11.5-12.4
	v-37.5H168.8z"/>
<path class="st0" d="M196.9,617.7h7.8v42.2h12.7v7h-20.5V617.7z"/>
<path class="st0" d="M225.9,617.7h23.9v7h-8.1V667H234v-42.3h-8.1L225.9,617.7z"/>
<path class="st0" d="M276.9,667c-0.4-1.3-0.7-2-0.7-6.1v-7.7c0-4.6-1.5-6.3-5.1-6.3h-2.7V667h-7.7v-49.3h11.7
	c8,0,11.5,3.7,11.5,11.3v3.9c0,5.1-1.6,8.4-5.1,10c3.9,1.6,5.1,5.3,5.1,10.5v7.6c-0.1,2,0.1,4.1,0.9,6H276.9z M268.4,624.8v15.1h3
	c2.9,0,4.6-1.3,4.6-5.2v-4.9c0-3.5-1.2-5.1-4-5.1H268.4z"/>
<path class="st0" d="M321.5,667h-7.8l-1.3-9h-9.5l-1.3,9h-7.1l7.9-49.3h11.3L321.5,667z M303.9,651.4h7.5l-3.7-24.9L303.9,651.4z"/>
<path class="st0" d="M361.4,617.1c7.5,0,11.4,4.5,11.4,12.4v1.5h-7.3v-2c0-3.5-1.4-4.9-3.9-4.9s-3.9,1.3-3.9,4.9
	c0,10.1,15.1,12,15.1,26.1c0,7.9-4,12.4-11.5,12.4s-11.5-4.5-11.5-12.4v-3h7.3v3.5c0,3.5,1.5,4.8,4,4.8s4-1.3,4-4.8
	c0-10.1-15.1-12-15.1-26.1C350,621.6,353.9,617.1,361.4,617.1z"/>
<path class="st0" d="M384.1,629.5c0-7.9,4.1-12.4,11.8-12.4s11.8,4.5,11.8,12.4v25.6c0,7.9-4.1,12.4-11.8,12.4s-11.8-4.5-11.8-12.4
	V629.5z M391.9,655.6c0,3.5,1.5,4.9,4,4.9s4-1.3,4-4.9V629c0-3.5-1.5-4.9-4-4.9s-4,1.3-4,4.9V655.6z"/>
<path class="st0" d="M427.5,617.7v38c0,3.5,1.5,4.8,4,4.8s4-1.3,4-4.8v-38h7.3v37.5c0,7.9-4,12.4-11.5,12.4s-11.5-4.5-11.5-12.4
	v-37.5H427.5z"/>
<path class="st0" d="M471.8,667c-0.4-1.3-0.7-2-0.7-6.1v-7.7c0-4.6-1.5-6.3-5.1-6.3h-2.7V667h-7.7v-49.3h11.7
	c8,0,11.5,3.7,11.5,11.3v3.9c0,5.1-1.6,8.4-5.1,10c3.9,1.6,5.1,5.3,5.1,10.5v7.6c-0.1,2,0.1,4.1,0.9,6H471.8z M463.3,624.8v15.1h3
	c2.9,0,4.6-1.3,4.6-5.2v-4.9c0-3.5-1.2-5.1-4-5.1H463.3z"/>
</svg>
