<svg id="Content" xmlns="http://www.w3.org/2000/svg" width="640" height="100" viewBox="0 0 640 100"><defs><style>.cls-1{fill:#ba9544;}</style></defs><title>Frame1 - Shishkaberry</title><path class="cls-1" d="M212.62905,39.71338c3.42383,0,5.18359,2.04785,5.18359,5.63183v.70411h-3.32812v-.92871c0-1.59961-.64063-2.207-1.75977-2.207-1.12011,0-1.75976.60743-1.75976,2.207,0,4.60839,6.8789,5.47168,6.8789,11.87158,0,3.584-1.791,5.63183-5.248,5.63183-3.45508,0-5.24707-2.04785-5.24707-5.63183v-1.376h3.32715V57.2168c0,1.59961.70507,2.17578,1.82421,2.17578,1.12012,0,1.82422-.57617,1.82422-2.17578,0-4.6084-6.8789-5.47168-6.8789-11.87159C207.44546,41.76123,209.20522,39.71338,212.62905,39.71338Z"/><path class="cls-1" d="M226.77261,62.36816H223.2521V39.96924h3.52051v9.59961h3.999V39.96924h3.584V62.36816h-3.584V52.76855h-3.999Z"/><path class="cls-1" d="M240.30874,39.96924h3.51953V62.36816h-3.51953Z"/><path class="cls-1" d="M254.51577,39.71338c3.42383,0,5.18359,2.04785,5.18359,5.63183v.70411h-3.32812v-.92871c0-1.59961-.64063-2.207-1.75977-2.207-1.12011,0-1.75976.60743-1.75976,2.207,0,4.60839,6.8789,5.47168,6.8789,11.87158,0,3.584-1.791,5.63183-5.248,5.63183-3.45508,0-5.24707-2.04785-5.24707-5.63183v-1.376h3.32714V57.2168c0,1.59961.70508,2.17578,1.82422,2.17578,1.12012,0,1.82422-.57617,1.82422-2.17578,0-4.6084-6.8789-5.47168-6.8789-11.87159C249.33218,41.76123,251.09194,39.71338,254.51577,39.71338Z"/><path class="cls-1" d="M268.65932,62.36816h-3.5205V39.96924h3.5205v9.59961h3.999V39.96924h3.584V62.36816h-3.584V52.76855h-3.999Z"/><path class="cls-1" d="M286.80288,53.44043,285.715,55.48828v6.87988h-3.51953V39.96924H285.715V49.729l4.60742-9.75976h3.51953l-4.89551,9.9834,4.89551,12.41552h-3.61523Z"/><path class="cls-1" d="M310.22573,62.36816H306.674l-.60742-4.06347h-4.32031l-.60742,4.06347h-3.23243l3.584-22.39892h5.15234Zm-8.03125-7.10351h3.3916L303.89077,43.937Z"/><path class="cls-1" d="M325.77749,45.12061v.7998c0,2.30469-.70313,3.77637-2.27149,4.51172,1.88868.73682,2.624,2.4331,2.624,4.80029v1.82422c0,3.45606-1.82325,5.31152-5.34375,5.31152h-5.53614V39.96924h5.3125C324.21011,39.96924,325.77749,41.66553,325.77749,45.12061Zm-7.00684-1.95118v5.919h1.376c1.31152,0,2.11133-.57617,2.11133-2.36719v-1.248c0-1.60058-.543-2.30371-1.791-2.30371Zm0,9.11963V59.168h2.01563c1.18457,0,1.82324-.54395,1.82324-2.207V55.00879c0-2.08008-.67188-2.71973-2.27149-2.71973Z"/><path class="cls-1" d="M335.15444,49.40869h4.832V52.6084h-4.832V59.168h6.08008v3.20019h-9.59961V39.96924h9.59961v3.20019h-6.08008Z"/><path class="cls-1" d="M354.16128,62.36816a6.88592,6.88592,0,0,1-.31934-2.752V56.09668c0-2.08008-.70508-2.84766-2.30469-2.84766h-1.21484v9.11914H346.8019V39.96924h5.31153c3.64843,0,5.21582,1.69629,5.21582,5.15137v1.75976c0,2.30469-.73536,3.80859-2.30372,4.54443,1.75977.73633,2.33594,2.43165,2.33594,4.76758v3.45606a6.5869,6.5869,0,0,0,.38379,2.71972Zm-3.83887-19.19873v6.87891h1.375c1.3125,0,2.1123-.57617,2.1123-2.36719v-2.208c0-1.60058-.54394-2.30371-1.792-2.30371Z"/><path class="cls-1" d="M370.41811,62.36816a6.85908,6.85908,0,0,1-.32031-2.752V56.09668c0-2.08008-.70508-2.84766-2.30469-2.84766h-1.21484v9.11914h-3.51953V39.96924h5.31054c3.64844,0,5.2168,1.69629,5.2168,5.15137v1.75976c0,2.30469-.73633,3.80859-2.30469,4.54443,1.75977.73633,2.33594,2.43165,2.33594,4.76758v3.45606a6.60369,6.60369,0,0,0,.38281,2.71972Zm-3.83984-19.19873v6.87891h1.375c1.3125,0,2.11133-.57617,2.11133-2.36719v-2.208c0-1.60058-.543-2.30371-1.791-2.30371Z"/><path class="cls-1" d="M382.60952,54.94434l-4.44727-14.9751h3.67969l2.6875,10.207,2.6875-10.207h3.35938l-4.44727,14.9751v7.42382h-3.51953Z"/></svg>