<svg id="Layer_1" data-name="Layer 1" xmlns="http://www.w3.org/2000/svg" xmlns:xlink="http://www.w3.org/1999/xlink" width="33.37775" height="50.71653" viewBox="0 0 33.37775 50.71653"><defs><style>.cls-1{fill:url(#New_Gradient_Swatch_1);}.cls-2{fill:#fff;}.cls-3{fill:#ba9544;}</style><linearGradient id="New_Gradient_Swatch_1" y1="16.57721" x2="33.37775" y2="16.57721" gradientUnits="userSpaceOnUse"><stop offset="0" stop-color="#a88a34"/><stop offset="0.49324" stop-color="#caaf67"/><stop offset="1" stop-color="#957f2e"/></linearGradient></defs><title>diesel</title><polygon class="cls-1" points="28.877 5.341 14.961 0 2.111 7.55 0 22.305 10.22 33.154 25.074 31.929 33.378 19.55 28.877 5.341"/><path class="cls-2" d="M12.23308,12.59723a1.42446,1.42446,0,0,1,.2683-.11011,2.57787,2.57787,0,0,1,.29932-.076l.01706-.0062,2.928-.64361a.94768.94768,0,0,1,.625.09615l.49318.48233L15.83884,13.413l-3.26768.718c-.13027-.58933-.26519-1.20348-.33808-1.53381m10.16129,8.16841L20.78611,13.4502a1.09653,1.09653,0,0,0-1.219-.84832l.86228-.9057.23728.22487.35826-.38a.23272.23272,0,0,0-.00932-.32879L19.28177,9.57458a.23272.23272,0,0,0-.32878.00932l-.35826.38.28536.26986-1.15074,1.20657-.57072-.55676-.04031-.031a2.18062,2.18062,0,0,0-1.63928-.30863l-2.897.63741a4.2383,4.2383,0,0,0-.51179.13182,1.7436,1.7436,0,0,0-.93672.625,1.01162,1.01162,0,0,0-.152.78939c.08994.40323.40321,1.83158.59242,2.6892.0031.01861.0062.03722.01086.05583l1.60824,7.317a1.0899,1.0899,0,0,0,1.30274.82816l7.058-1.55241a1.0956,1.0956,0,0,0,.84059-1.29963"/><path class="cls-3" d="M1.51877,50.71653V44.57884H3.88206q2.8623,0,2.8623,3.07129,0,3.06591-2.8623,3.0664Zm2.36329-1.22265q1.63183-.00439,1.63574-1.84375-.00439-1.83984-1.63574-1.84082H2.74534v3.68457Z"/><path class="cls-3" d="M8.06174,44.57884H9.2844v6.13769H8.06174Z"/><path class="cls-3" d="M10.49827,50.71653V44.58665l4.50683-.0039v1.1455H11.72483v1.3086h2.458v1.14062h-2.458V49.572h3.27148v1.14453Z"/><path class="cls-3" d="M19.55979,44.78782a2.84647,2.84647,0,0,1,.87891.61328l-.81739.81739a1.40737,1.40737,0,0,0-1.14453-.49024q-.73682,0-.9414.34766a.47984.47984,0,0,0,0,.59277,1.6241,1.6241,0,0,0,.9414.36817,3.04748,3.04748,0,0,1,1.41016.51074,1.53519,1.53519,0,0,1,.63379,1.37012,1.57345,1.57345,0,0,1-.67676,1.26757,2.47716,2.47716,0,0,1-1.57617.53125,3.61759,3.61759,0,0,1-1.42676-.24511,3.085,3.085,0,0,1-.98144-.6543l.81738-.81738a1.94473,1.94473,0,0,0,1.39062.57226q.81738,0,1.02051-.34765a.64843.64843,0,0,0,0-.69532q-.20361-.34716-1.02051-.42968a3.28852,3.28852,0,0,1-1.34961-.44922,1.35637,1.35637,0,0,1-.61328-1.26758,1.52571,1.52571,0,0,1,.69727-1.30664,2.45144,2.45144,0,0,1,1.43262-.49316A3.41262,3.41262,0,0,1,19.55979,44.78782Z"/><path class="cls-3" d="M21.59983,50.71653V44.58665l4.50684-.0039v1.1455H22.82639v1.3086h2.458v1.14062h-2.458V49.572h3.27149v1.14453Z"/><path class="cls-3" d="M28.5803,44.58275V49.572h3.27148v1.14453h-4.498V44.58275Z"/></svg>