<svg xmlns="http://www.w3.org/2000/svg" width="727.99955" height="90" viewBox="0 0 727.99955 90"><defs><style>.cls-1{fill:#fff;stroke:#ba9544;stroke-miterlimit:10;stroke-width:0.5px;}.cls-2{fill:#ba9544;}</style></defs><title>THC - Ultra Sour</title><g id="Content"><polygon class="cls-1" points="359.055 21.185 228.126 20.689 221.517 30.22 228.126 39.582 359.055 39.359 365.004 30.273 359.055 21.185"/><polygon class="cls-2" points="228.222 20.689 221.612 30.22 228.222 39.582 253.126 39.582 253.126 20.689 228.222 20.689"/><path class="cls-2" d="M303.064,27.0962v1.19629h-2.13672v5.21387H299.6451V28.29249h-2.13672V27.0962Z"/><path class="cls-2" d="M304.01619,33.50636V27.0962h1.28223v2.56446h2.9873V27.0923H309.568v6.41015l-1.28223.00391V30.857h-2.9873v2.64941Z"/><path class="cls-2" d="M311.55623,32.58546a3.20665,3.20665,0,0,1,2.28027-5.48926,3.4687,3.4687,0,0,1,2.35449.8545l-.85449.93652a2.36249,2.36249,0,0,0-1.5-.51269,1.82749,1.82749,0,0,0-1.91894,1.90527,1.92178,1.92178,0,0,0,.53418,1.41894,1.89309,1.89309,0,0,0,1.39355.52539,2.2976,2.2976,0,0,0,1.49121-.50781l.85449.93555a3.45351,3.45351,0,0,1-2.35449.85449A3.11909,3.11909,0,0,1,311.55623,32.58546Z"/><path class="cls-2" d="M320.61873,29.41847a.62022.62022,0,0,1,.46191-.17285.64319.64319,0,0,1,.47852.17285.5876.5876,0,0,1,.1709.42969.58.58,0,0,1-.1709.42773.73233.73233,0,0,1-.94043,0,.58.58,0,0,1-.1709-.42773A.5876.5876,0,0,1,320.61873,29.41847Zm0,3.06055a.62019.62019,0,0,1,.46191-.17285.64315.64315,0,0,1,.47852.17285.586.586,0,0,1,.1709.42968.57628.57628,0,0,1-.1709.42676.73233.73233,0,0,1-.94043,0,.57628.57628,0,0,1-.1709-.42676A.586.586,0,0,1,320.61873,32.479Z"/><path class="cls-2" d="M327.443,27.0962v-.0039h1.27832v6.41406H327.443V28.80617l-.8545.85449-.85449-.85449Z"/><path class="cls-2" d="M333.45174,30.25831c.07714.0293.14648.05762.209.08594a1.25642,1.25642,0,0,1,.66211,1.28223,1.64666,1.64666,0,0,1-.62109,1.43164,3.08182,3.08182,0,0,1-3.20118,0,1.64721,1.64721,0,0,1-.62207-1.43164,1.25554,1.25554,0,0,1,.66309-1.28223c.0625-.02832.13184-.05664.209-.08594-.04589-.02246-.08691-.04394-.124-.06347a1.26794,1.26794,0,0,1-.57715-1.21778,1.75752,1.75752,0,0,1,.55762-1.38964,2.51646,2.51646,0,0,1,2.9873,0,1.75431,1.75431,0,0,1,.55762,1.38964,1.2674,1.2674,0,0,1-.57617,1.21778C333.53865,30.21437,333.49666,30.23585,333.45174,30.25831Zm-1.35059-.58105q.564-.01611.72656-.29492a.68238.68238,0,0,0,0-.72656.82074.82074,0,0,0-.72656-.3584.8112.8112,0,0,0-.72266.3584.67058.67058,0,0,0,0,.72656Q331.5367,29.66065,332.10115,29.67726Zm0,1.17578a.95208.95208,0,0,0-.72266.36719.67058.67058,0,0,0,0,.72656.81177.81177,0,0,0,.72266.35938.82131.82131,0,0,0,.72656-.35938.68238.68238,0,0,0,0-.72656A.96705.96705,0,0,0,332.10115,30.853Z"/><path class="cls-2" d="M335.443,31.79249v-.84961h2.64941v.84961Z"/><path class="cls-2" d="M341.50642,27.0962a2.415,2.415,0,0,1,1.541.47266,1.6815,1.6815,0,0,1,.60059,1.4082,2.93819,2.93819,0,0,1-.85254,2.03418,5.91,5.91,0,0,1-1.40821,1.21289h2.30762v1.28223h-4.32031V32.22413q.42627,0,1.624-1.06835a6.14144,6.14144,0,0,0,1.38867-1.51661,1.044,1.044,0,0,0-.02148-.89746q-.21387-.44825-1.02539-.44922a1.47023,1.47023,0,0,0-1.19727.51368l-.85449-.85547a3.56511,3.56511,0,0,1,.833-.64063A3.20952,3.20952,0,0,1,341.50642,27.0962Z"/><path class="cls-2" d="M349.01131,27.0962v1.19629h-2.64942V29.19h.5127a2.87633,2.87633,0,0,1,1.94043.57715,2.34088,2.34088,0,0,1,.66211,1.73047,1.86825,1.86825,0,0,1-.64356,1.41113,2.23764,2.23764,0,0,1-1.583.59766,3.7942,3.7942,0,0,1-1.49121-.25586,3.24431,3.24431,0,0,1-1.02636-.68359l.85546-.85547a1.79315,1.79315,0,0,0,1.36719.55566q1.15429,0,1.26074-.8457a.95522.95522,0,0,0-.39355-.79492,2.55591,2.55591,0,0,0-1.376-.23926h-1.36718v-3.291Z"/><path class="cls-2" d="M350.78084,29.80128a1.65011,1.65011,0,1,1,1.14551.46192A1.55571,1.55571,0,0,1,350.78084,29.80128Zm1.13183-.29883a.76137.76137,0,0,0,.58594-.24414.92231.92231,0,0,0,0-1.21093.7715.7715,0,0,0-.58984-.24121.76108.76108,0,0,0-.58106.24121.92231.92231,0,0,0,0,1.21093A.76072.76072,0,0,0,351.91267,29.50245Zm-.34179,4.00391,3.63281-6.41016h1.043l-3.624,6.41016Zm3.18457-.42285a1.64212,1.64212,0,1,1,1.13672.457A1.5401,1.5401,0,0,1,354.75545,33.08351Zm1.11523-.31152a.74921.74921,0,0,0,.57227-.23731.89263.89263,0,0,0,0-1.17969.754.754,0,0,0-.57715-.2373.74511.74511,0,0,0-.56836.2373.89556.89556,0,0,0,0,1.17969A.75132.75132,0,0,0,355.87068,32.772Z"/></g></svg>