<svg id="Content" xmlns="http://www.w3.org/2000/svg" width="320" height="50" viewBox="0 0 320 50"><defs><style>.cls-1{fill:#ba9544;}</style></defs><title>Frame1 - Daytime CBD</title><path class="cls-1" d="M117.18359,20.35938h2.78516c1.76074,0,2.625.97656,2.625,2.769v5.6665c0,1.79248-.86426,2.769-2.625,2.769h-2.78516ZM118.94434,21.96v8.00342h.99267c.56006,0,.896-.28809.896-1.08838V23.04834c0-.80029-.33594-1.08838-.896-1.08838Z"/><path class="cls-1" d="M130.78564,31.564h-1.77636l-.3042-2.03271H126.544l-.3042,2.03271h-1.61621L126.416,20.35938h2.57714Zm-4.01757-3.55322h1.69677l-.84814-5.6665Z"/><path class="cls-1" d="M133.34473,27.85059l-2.2251-7.49121h1.84082l1.34473,5.106,1.34423-5.10595h1.68067l-2.22461,7.49121V31.564h-1.76074Z"/><path class="cls-1" d="M138.25537,20.35938h5.44238V21.96h-1.84082v9.604h-1.76074V21.96h-1.84082Z"/><path class="cls-1" d="M145.83936,20.35938h1.76074V31.564h-1.76074Z"/><path class="cls-1" d="M154.3042,28.31445l1.20068-7.95507h2.44873V31.564h-1.66455V23.52881L155.07275,31.564H153.4082l-1.313-7.92334V31.564h-1.53662V20.35938h2.44922Z"/><path class="cls-1" d="M162.6875,25.08154h2.417v1.60059h-2.417v3.28125h3.0415V31.564h-4.80224V20.35938H165.729V21.96h-3.0415Z"/><path class="cls-1" d="M177.793,27.38623V28.875c0,1.79248-.896,2.81689-2.625,2.81689-1.72852,0-2.625-1.02441-2.625-2.81689V23.04834c0-1.79248.89648-2.81689,2.625-2.81689,1.729,0,2.625,1.02441,2.625,2.81689v1.08838h-1.66455v-1.2002c0-.80029-.35205-1.10449-.91211-1.10449-.56055,0-.9126.3042-.9126,1.10449v6.0503c0,.80029.352,1.08838.9126,1.08838.56006,0,.91211-.28809.91211-1.08838V27.38623Z"/><path class="cls-1" d="M185.82471,22.93652v.39991a2.201,2.201,0,0,1-1.13623,2.25732,2.26553,2.26553,0,0,1,1.3125,2.40088v.91211a2.38188,2.38188,0,0,1-2.67334,2.65722h-2.769V20.35938h2.65723C185.04053,20.35938,185.82471,21.208,185.82471,22.93652ZM182.31934,21.96v2.96143h.68847c.65625,0,1.05615-.28809,1.05615-1.18457V23.1123c0-.80029-.272-1.15234-.896-1.15234Zm0,4.562v3.44141h1.0083c.59228,0,.91259-.272.91259-1.10449v-.97657c0-1.04-.33593-1.36035-1.13671-1.36035Z"/><path class="cls-1" d="M188.75,20.35938h2.78516c1.76074,0,2.625.97656,2.625,2.769v5.6665c0,1.79248-.86426,2.769-2.625,2.769H188.75ZM190.51074,21.96v8.00342h.99268c.56006,0,.896-.28809.896-1.08838V23.04834c0-.80029-.33593-1.08838-.896-1.08838Z"/></svg>