<svg id="Content" xmlns="http://www.w3.org/2000/svg" viewBox="0 0 728 360"><defs><style>.cls-1{fill:#b89344;}</style></defs><title>Frame2 - Shishkaberry</title><path class="cls-1" d="M117.26,250.92c3.64,0,5.51,2.17,5.51,6v.75h-3.54v-1c0-1.7-.68-2.34-1.87-2.34s-1.87.64-1.87,2.34c0,4.9,7.31,5.82,7.31,12.62,0,3.8-1.9,6-5.57,6s-5.58-2.18-5.58-6v-1.47h3.54v1.7c0,1.7.74,2.32,1.93,2.32s1.94-.62,1.94-2.32c0-4.89-7.31-5.81-7.31-12.61C111.75,253.09,113.62,250.92,117.26,250.92Z"/><path class="cls-1" d="M132.29,275h-3.74v-23.8h3.74v10.2h4.25v-10.2h3.8V275h-3.8v-10.2h-4.25Z"/><path class="cls-1" d="M146.67,251.19h3.74V275h-3.74Z"/><path class="cls-1" d="M161.76,250.92c3.64,0,5.51,2.17,5.51,6v.75h-3.53v-1c0-1.7-.68-2.34-1.87-2.34S160,255,160,256.66c0,4.9,7.31,5.82,7.31,12.62,0,3.8-1.91,6-5.58,6s-5.57-2.18-5.57-6v-1.47h3.53v1.7c0,1.7.75,2.32,1.94,2.32s1.94-.62,1.94-2.32c0-4.89-7.31-5.81-7.31-12.61C156.26,253.09,158.13,250.92,161.76,250.92Z"/><path class="cls-1" d="M176.79,275h-3.74v-23.8h3.74v10.2H181v-10.2h3.81V275H181v-10.2h-4.25Z"/><path class="cls-1" d="M196.07,265.5l-1.15,2.18V275h-3.75v-23.8h3.75v10.37l4.89-10.37h3.74l-5.2,10.61,5.2,13.19h-3.84Z"/><path class="cls-1" d="M221,275h-3.78l-.64-4.32H212L211.3,275h-3.43l3.81-23.8h5.47Zm-8.54-7.55H216l-1.8-12Z"/><path class="cls-1" d="M237.48,256.66v.85c0,2.45-.75,4-2.41,4.8,2,.78,2.78,2.58,2.78,5.1v1.93c0,3.68-1.93,5.65-5.67,5.65H226.3v-23.8h5.64C235.82,251.19,237.48,253,237.48,256.66ZM230,254.59v6.29h1.46c1.39,0,2.24-.61,2.24-2.52V257c0-1.7-.58-2.45-1.9-2.45Zm0,9.69v7.31h2.14c1.26,0,1.94-.58,1.94-2.35v-2.07c0-2.21-.72-2.89-2.42-2.89Z"/><path class="cls-1" d="M247.44,261.22h5.14v3.4h-5.14v7h6.46V275H243.7v-23.8h10.2v3.4h-6.46Z"/><path class="cls-1" d="M267.64,275a7.23,7.23,0,0,1-.34-2.93v-3.74c0-2.21-.75-3-2.45-3h-1.29V275h-3.74v-23.8h5.64c3.88,0,5.54,1.8,5.54,5.47v1.87c0,2.45-.78,4.05-2.44,4.83,1.87.78,2.48,2.58,2.48,5.07v3.67a6.94,6.94,0,0,0,.41,2.89Zm-4.08-20.4v7.31H265c1.4,0,2.24-.61,2.24-2.52V257c0-1.7-.57-2.45-1.9-2.45Z"/><path class="cls-1" d="M284.91,275a7.42,7.42,0,0,1-.34-2.93v-3.74c0-2.21-.75-3-2.45-3h-1.29V275h-3.74v-23.8h5.65c3.87,0,5.54,1.8,5.54,5.47v1.87c0,2.45-.78,4.05-2.45,4.83,1.87.78,2.48,2.58,2.48,5.07v3.67a6.94,6.94,0,0,0,.41,2.89Zm-4.08-20.4v7.31h1.46c1.4,0,2.25-.61,2.25-2.52V257c0-1.7-.58-2.45-1.91-2.45Z"/><path class="cls-1" d="M297.87,267.1l-4.73-15.91h3.91L299.91,262l2.85-10.84h3.57L301.6,267.1V275h-3.73Z"/></svg>