<svg id="Content" xmlns="http://www.w3.org/2000/svg" width="728" height="90" viewBox="0 0 728 90"><defs><style>.cls-1{fill:#ba9544;}</style></defs><title>Frame1 - Daytime CBD</title><path class="cls-1" d="M214.73242,35.72559h5.56787c3.51953,0,5.24756,1.95214,5.24756,5.53613V52.58887c0,3.583-1.728,5.53515-5.24756,5.53515h-5.56787Zm3.52,3.20019V54.92383h1.98389c1.11963,0,1.7915-.5752,1.7915-2.17578V41.10156c0-1.60058-.67187-2.17578-1.7915-2.17578Z"/><path class="cls-1" d="M241.93115,58.124h-3.55176l-.60791-4.06347h-4.31933l-.60791,4.06347H229.6123l3.5835-22.39843h5.15186Zm-8.03125-7.10351h3.3916l-1.6958-11.32715Z"/><path class="cls-1" d="M247.05176,50.7002,242.604,35.72559h3.67969l2.688,10.207,2.6875-10.207H255.019L250.57129,50.7002V58.124h-3.51953Z"/><path class="cls-1" d="M256.876,35.72559h10.87939v3.20019h-3.67969V58.124h-3.52V38.92578H256.876Z"/><path class="cls-1" d="M272.04346,35.72559h3.52V58.124h-3.52Z"/><path class="cls-1" d="M288.9707,51.62891l2.39991-15.90332h4.8955V58.124h-3.32763V42.06152L290.50684,58.124h-3.32813l-2.62353-15.83886V58.124H281.4834V35.72559h4.89551Z"/><path class="cls-1" d="M305.73877,45.165h4.83154v3.19922h-4.83154v6.55957h6.07959V58.124h-9.59961V35.72559h9.59961v3.20019h-6.07959Z"/><path class="cls-1" d="M335.9458,49.77246v2.97559c0,3.584-1.792,5.63183-5.24756,5.63183-3.45605,0-5.248-2.04785-5.248-5.63183V41.10156c0-3.584,1.792-5.63183,5.248-5.63183,3.45557,0,5.24756,2.04785,5.24756,5.63183v2.17578h-3.32812V40.877c0-1.59961-.70362-2.207-1.82373-2.207-1.11963,0-1.82374.60742-1.82374,2.207V52.97266c0,1.59961.70411,2.17578,1.82374,2.17578,1.12011,0,1.82373-.57617,1.82373-2.17578v-3.2002Z"/><path class="cls-1" d="M352.00928,40.877v.79981c0,2.30469-.7041,3.77636-2.272,4.51172,1.88819.73632,2.624,2.43261,2.624,4.7998V52.8125c0,3.456-1.82373,5.31152-5.34375,5.31152h-5.53565V35.72559h5.31153C350.44141,35.72559,352.00928,37.42188,352.00928,40.877ZM345.002,38.92578v5.91895h1.376c1.31152,0,2.11182-.57618,2.11182-2.36719v-1.248c0-1.60058-.54395-2.30371-1.792-2.30371Zm0,9.11914v6.87891h2.01563c1.18408,0,1.82373-.544,1.82373-2.207V50.76465c0-2.08008-.67188-2.71973-2.27149-2.71973Z"/><path class="cls-1" d="M357.86572,35.72559h5.56739c3.519,0,5.24658,1.95214,5.24658,5.53613V52.58887c0,3.583-1.72754,5.53515-5.24658,5.53515h-5.56739Zm3.51953,3.20019V54.92383h1.9834c1.12012,0,1.79151-.5752,1.79151-2.17578V41.10156c0-1.60058-.67139-2.17578-1.79151-2.17578Z"/></svg>