<svg id="Content" xmlns="http://www.w3.org/2000/svg" width="728" height="90" viewBox="0 0 728 90"><defs><style>.cls-1{fill:#ba9544;}</style></defs><title>Frame1 - Ultra Sour</title><path class="cls-1" d="M223.78236,35.72607V53.00488c0,1.60059.7041,2.17676,1.82422,2.17676s1.82422-.57617,1.82422-2.17676V35.72607h3.32714V52.78125c0,3.584-1.792,5.63184-5.24707,5.63184-3.45605,0-5.248-2.04786-5.248-5.63184V35.72607Z"/><path class="cls-1" d="M236.55091,35.72607h3.51953V54.9248h5.792V58.125h-9.31153Z"/><path class="cls-1" d="M249.76673,35.72607h10.87891v3.2002H256.966V58.125h-3.51953V38.92627h-3.67969Z"/><path class="cls-1" d="M272.93275,58.125a6.90538,6.90538,0,0,1-.31934-2.752V51.85352c0-2.08008-.7041-2.84766-2.30371-2.84766h-1.21582V58.125h-3.52051V35.72607h5.31153c3.64843,0,5.21582,1.69629,5.21582,5.15137v1.75977c0,2.30468-.73535,3.80908-2.30371,4.54443,1.75976.73633,2.33593,2.43164,2.33593,4.76758v3.45605a6.6032,6.6032,0,0,0,.38379,2.71973Zm-3.83887-19.19873v6.87891h1.376c1.31152,0,2.11133-.57618,2.11133-2.36719V41.23c0-1.60059-.54395-2.30371-1.792-2.30371Z"/><path class="cls-1" d="M293.22083,58.125h-3.55175l-.6084-4.06348h-4.31934l-.60742,4.06348H280.9015l3.584-22.39893h5.15137Zm-8.03125-7.10352h3.39161L286.8849,39.69385Z"/><path class="cls-1" d="M311.33314,35.47021c3.42383,0,5.18359,2.04786,5.18359,5.63184v.7041h-3.32715v-.92871c0-1.59961-.64062-2.207-1.76074-2.207-1.11914,0-1.75976.60742-1.75976,2.207,0,4.6084,6.87988,5.47217,6.87988,11.87158,0,3.584-1.792,5.63184-5.24805,5.63184-3.45508,0-5.24707-2.04785-5.24707-5.63184v-1.376H309.381v1.60058c0,1.59961.7041,2.17578,1.82422,2.17578s1.82422-.57617,1.82422-2.17578c0-4.6084-6.87988-5.47168-6.87988-11.87158C306.14955,37.51807,307.90931,35.47021,311.33314,35.47021Z"/><path class="cls-1" d="M321.66908,41.10205c0-3.584,1.88867-5.63184,5.34375-5.63184,3.45605,0,5.34375,2.04786,5.34375,5.63184V52.749c0,3.584-1.8877,5.63184-5.34375,5.63184-3.45508,0-5.34375-2.04785-5.34375-5.63184Zm3.5205,11.87158c0,1.59961.70411,2.208,1.82325,2.208,1.12011,0,1.82422-.6084,1.82422-2.208V40.87744c0-1.59961-.70411-2.207-1.82422-2.207-1.11914,0-1.82325.60742-1.82325,2.207Z"/><path class="cls-1" d="M341.381,35.72607V53.00488c0,1.60059.7041,2.17676,1.82422,2.17676s1.82422-.57617,1.82422-2.17676V35.72607h3.32715V52.78125c0,3.584-1.792,5.63184-5.24707,5.63184-3.45606,0-5.248-2.04786-5.248-5.63184V35.72607Z"/><path class="cls-1" d="M361.50892,58.125a6.87839,6.87839,0,0,1-.32031-2.752V51.85352c0-2.08008-.7041-2.84766-2.30371-2.84766h-1.21582V58.125h-3.52051V35.72607h5.3125c3.64746,0,5.21582,1.69629,5.21582,5.15137v1.75977c0,2.30468-.73633,3.80908-2.30469,4.54443,1.76074.73633,2.33594,2.43164,2.33594,4.76758v3.45605a6.6032,6.6032,0,0,0,.38379,2.71973Zm-3.83984-19.19873v6.87891h1.376c1.31153,0,2.11133-.57618,2.11133-2.36719V41.23c0-1.60059-.54394-2.30371-1.792-2.30371Z"/></svg>