<svg id="Content" xmlns="http://www.w3.org/2000/svg" xmlns:xlink="http://www.w3.org/1999/xlink" width="728" height="360" viewBox="0 0 728 360"><defs><style>.cls-1{fill:url(#New_Gradient_Swatch_1);}.cls-2{fill:#fff;}.cls-3{fill:#ba9544;}</style><linearGradient id="New_Gradient_Swatch_1" x1="287.46047" y1="178.21219" x2="344.3909" y2="178.21219" gradientUnits="userSpaceOnUse"><stop offset="0" stop-color="#a88a34"/><stop offset="0.49324" stop-color="#caaf67"/><stop offset="1" stop-color="#957f2e"/></linearGradient></defs><title>pine</title><polygon class="cls-1" points="338.705 197.93 310.239 207.798 287.46 188.08 293.149 158.494 321.613 148.627 344.391 168.345 338.705 197.93"/><path class="cls-2" d="M325.39409,187.15494l-9.5182-22.72048-9.41647,22.72048,8.94082,1.78982v2.54038a.52544.52544,0,0,0,1.05026,0v-2.54038Z"/><path class="cls-3" d="M298.50978,235.57538v-10.874H303.251q3.80566,0,3.80567,3.13183,0,3.24756-3.79883,3.24805h-2.57324v4.49414Zm2.17481-6.52441h3.04492q1.311-.022,1.34765-1.19629-.03514-1.07228-1.32617-1.11621h-3.0664Z"/><path class="cls-3" d="M308.65822,224.69452h2.168v10.88086h-2.168Z"/><path class="cls-3" d="M313.00783,235.57538v-10.874h.72461l6.81445,6.81445v-6.81445h2.17481v10.874h-.79688l-6.74219-6.74219v6.74219Z"/><path class="cls-3" d="M324.94728,235.57538V224.70917l7.98926-.00781v2.03027h-5.81445V229.051h4.35742v2.02246h-4.35742v2.47265h5.7998v2.0293Z"/></svg>