<svg id="Content" xmlns="http://www.w3.org/2000/svg" width="320" height="480" viewBox="0 0 320 480"><defs><style>.cls-1{fill:#ba9544;}</style></defs><title>Frame1 - Shishkaberry</title><path class="cls-1" d="M74.22314,343.71973c3.34864,0,5.06983,2.00293,5.06983,5.50781v.68848H76.03809v-.90821c0-1.56445-.626-2.1582-1.7212-2.1582s-1.72119.59375-1.72119,2.1582c0,4.50781,6.72852,5.35157,6.72852,11.61133,0,3.50586-1.75244,5.50781-5.13233,5.50781-3.38037,0-5.13281-2.002-5.13281-5.50781v-1.3457H72.314v1.56445c0,1.56543.68848,2.12891,1.7837,2.12891,1.0957,0,1.78418-.56348,1.78418-2.12891,0-4.50586-6.729-5.35156-6.729-11.61035C69.15283,345.72266,70.87451,343.71973,74.22314,343.71973Z"/><path class="cls-1" d="M88.05273,365.877H84.61035V343.96973h3.44238v9.38965h3.91211v-9.38965h3.50489V365.877H91.96484v-9.38867H88.05273Z"/><path class="cls-1" d="M101.28711,343.96973h3.44238V365.877h-3.44238Z"/><path class="cls-1" d="M115.18066,343.71973c3.34864,0,5.06983,2.00293,5.06983,5.50781v.68848h-3.25488v-.90821c0-1.56445-.626-2.1582-1.7212-2.1582s-1.72119.59375-1.72119,2.1582c0,4.50781,6.72852,5.35157,6.72852,11.61133,0,3.50586-1.75244,5.50781-5.13233,5.50781-3.38037,0-5.13281-2.002-5.13281-5.50781v-1.3457h3.25488v1.56445c0,1.56543.68848,2.12891,1.7837,2.12891,1.0957,0,1.78418-.56348,1.78418-2.12891,0-4.50586-6.729-5.35156-6.729-11.61035C110.11035,345.72266,111.832,343.71973,115.18066,343.71973Z"/><path class="cls-1" d="M129.00977,365.877h-3.44239V343.96973h3.44239v9.38965h3.91211v-9.38965h3.50488V365.877h-3.50488v-9.38867h-3.91211Z"/><path class="cls-1" d="M146.751,357.14551l-1.064,2.00293V365.877h-3.44238V343.96973H145.687v9.54589l4.50684-9.54589h3.44238l-4.78809,9.76465,4.78809,12.14257h-3.53662Z"/><path class="cls-1" d="M169.65576,365.877h-3.47363l-.59473-3.97461h-4.2251l-.59472,3.97461h-3.16065l3.50537-21.90722h5.03858Zm-7.855-6.94726h3.31738l-1.65869-11.0791Z"/><path class="cls-1" d="M184.86279,349.00781v.78321c0,2.2539-.68847,3.69336-2.22217,4.4121,1.8462.72071,2.56641,2.37891,2.56641,4.69532v1.7832c0,3.38086-1.78418,5.19531-5.22656,5.19531h-5.41406V343.96973h5.19482C183.3291,343.96973,184.86279,345.62891,184.86279,349.00781Zm-6.854-1.9082v5.78906h1.3457c1.28321,0,2.06543-.5625,2.06543-2.31543v-1.21972c0-1.56543-.53174-2.25391-1.75244-2.25391Zm0,8.91894v6.7295h1.97168c1.15771,0,1.78369-.53321,1.78369-2.16016v-1.90918c0-2.03418-.65723-2.66016-2.22168-2.66016Z"/><path class="cls-1" d="M194.02881,353.20215h4.72558V356.332h-4.72558v6.416h5.94629v3.1289h-9.38867V343.96973h9.38867v3.12988h-5.94629Z"/><path class="cls-1" d="M212.61523,365.877a6.74525,6.74525,0,0,1-.313-2.6914v-3.44239c0-2.03418-.68848-2.78613-2.25293-2.78613h-1.18946V365.877h-3.44238V343.96973h5.19482c3.56788,0,5.10157,1.65918,5.10157,5.03808v1.72266c0,2.25195-.72022,3.72363-2.25342,4.44336,1.72119.71972,2.28467,2.3789,2.28467,4.66308v3.37989a6.45031,6.45031,0,0,0,.37549,2.66015Zm-3.75537-18.77734v6.72851h1.34571c1.2832,0,2.06543-.56347,2.06543-2.3164v-2.1582c0-1.56543-.53174-2.25391-1.75245-2.25391Z"/><path class="cls-1" d="M228.51025,365.877a6.74525,6.74525,0,0,1-.313-2.6914v-3.44239c0-2.03418-.68848-2.78613-2.25293-2.78613h-1.18946V365.877H221.3125V343.96973h5.19482c3.56788,0,5.10157,1.65918,5.10157,5.03808v1.72266c0,2.25195-.72022,3.72363-2.25342,4.44336,1.72119.71972,2.28467,2.3789,2.28467,4.66308v3.37989a6.45048,6.45048,0,0,0,.37548,2.66015Zm-3.75537-18.77734v6.72851h1.34571c1.2832,0,2.06543-.56347,2.06543-2.3164v-2.1582c0-1.56543-.53174-2.25391-1.75245-2.25391Z"/><path class="cls-1" d="M240.43018,358.61621l-4.3501-14.64648h3.59912l2.62891,9.98339,2.6289-9.98339h3.28613l-4.35009,14.64648V365.877h-3.44287Z"/></svg>