<svg id="Layer_1" data-name="Layer 1" xmlns="http://www.w3.org/2000/svg" width="300" height="250" viewBox="0 0 300 250"><defs><style>.cls-1{fill:#fff;}</style></defs><title>reflection</title><path class="cls-1" d="M80.55908,175.34338H78.00781V158.42151h3.65528l2.375,12.13476,2.28222-12.13476h3.51612v16.92187H87.28516V164.71155l-2.20508,10.63183H83.03271l-2.47363-10.60351Z"/><path class="cls-1" d="M96.10791,158.21741a4.04607,4.04607,0,0,1,4.0542,4.05371v9.23144a4.04605,4.04605,0,0,1-4.0542,4.05371,3.86007,3.86007,0,0,1-2.853-1.1875,3.92843,3.92843,0,0,1-1.17334-2.86621v-9.23144a4.04612,4.04612,0,0,1,4.02637-4.05371Zm1.3916,4.00683a1.43984,1.43984,0,0,0-1.45654-1.45508,1.42422,1.42422,0,0,0-1.03418.4209,1.38894,1.38894,0,0,0-.43164,1.03418V171.485a1.392,1.392,0,0,0,.43164,1.0293,1.41806,1.41806,0,0,0,1.03418.42676,1.44958,1.44958,0,0,0,1.45654-1.45606Z"/><path class="cls-1" d="M106.43359,158.42151a3.86654,3.86654,0,0,1,3.12647,1.17773,4.26081,4.26081,0,0,1,.88135,2.85742v2.459a3.93449,3.93449,0,0,1-1.36133,3.0332l1.89013,7.39453h-2.75146l-1.55615-6.39258c-.07422.00684-.15137.00977-.23145.00977h-1.46338v6.38281H102.4165V158.42151Zm1.52149,4.082a1.29336,1.29336,0,0,0-1.45215-1.47461h-1.53516v5.4082h1.53516a1.38326,1.38326,0,0,0,1.03125-.43164,1.42618,1.42618,0,0,0,.4209-1.03418Z"/><path class="cls-1" d="M113.15967,175.34338V158.42151h7.26416v2.55078h-4.71289V165.611h3.44189v2.55176h-3.44189v4.62988h4.71289v2.55078Z"/><path class="cls-1" d="M131.45459,158.42151a3.86651,3.86651,0,0,1,3.12646,1.17773,4.26076,4.26076,0,0,1,.88135,2.85742v2.459a3.93445,3.93445,0,0,1-1.36133,3.0332l1.89014,7.39453h-2.75146l-1.55616-6.39258c-.07421.00684-.15136.00977-.23144.00977h-1.46338v6.38281H127.4375V158.42151Zm1.52148,4.082a1.29335,1.29335,0,0,0-1.45214-1.47461h-1.53516v5.4082h1.53516a1.38329,1.38329,0,0,0,1.03125-.43164,1.42618,1.42618,0,0,0,.42089-1.03418Z"/><path class="cls-1" d="M138.18066,175.34338V158.42151h7.26416v2.55078h-4.71289V165.611h3.4419v2.55176h-3.4419v4.62988h4.71289v2.55078Z"/><path class="cls-1" d="M149.74951,175.34338h-2.55127V158.42151h7.26367v2.55078h-4.7124V165.611h3.4419v2.55176h-3.4419Z"/><path class="cls-1" d="M163.17383,175.34338h-6.958V158.42151h2.55078v14.38867h4.40723Z"/><path class="cls-1" d="M164.917,175.34338V158.42151h7.26465v2.55078h-4.71289V165.611h3.44238v2.55176h-3.44238v4.62988h4.71289v2.55078Z"/><path class="cls-1" d="M177.97949,175.55627a4.02283,4.02283,0,0,1-4.04492-4.03515v-9.26758a4.04054,4.04054,0,1,1,8.08105,0v1.92969h-2.64355v-1.97657a1.47207,1.47207,0,0,0-1.47559-1.47461,1.39853,1.39853,0,0,0-1.03027.43067,1.43126,1.43126,0,0,0-.42578,1.04394v9.28711a1.45378,1.45378,0,0,0,1.45605,1.46485,1.43128,1.43128,0,0,0,1.04395-.42578,1.40959,1.40959,0,0,0,.43164-1.03907v-2.3291h2.64355v2.35645a3.86979,3.86979,0,0,1-1.1875,2.8623A3.90888,3.90888,0,0,1,177.97949,175.55627Z"/><path class="cls-1" d="M186.47754,160.97229h-2.709v-2.55078h7.96094v2.55078H189.0293v14.37109h-2.55176Z"/><path class="cls-1" d="M196.33008,175.34338h-2.55176V158.42151h2.55176Z"/><path class="cls-1" d="M202.61133,158.21741a4.04607,4.04607,0,0,1,4.05371,4.05371v9.23144a4.04605,4.04605,0,0,1-4.05371,4.05371,3.85961,3.85961,0,0,1-2.85352-1.1875,3.92888,3.92888,0,0,1-1.17383-2.86621v-9.23144a4.04611,4.04611,0,0,1,4.02735-4.05371Zm1.39062,4.00683a1.439,1.439,0,0,0-1.45605-1.45508,1.42422,1.42422,0,0,0-1.03418.4209,1.38894,1.38894,0,0,0-.43164,1.03418V171.485a1.392,1.392,0,0,0,.43164,1.0293,1.41806,1.41806,0,0,0,1.03418.42676A1.44876,1.44876,0,0,0,204.002,171.485Z"/><path class="cls-1" d="M211.76758,158.42151l3.37695,11.36523V158.42151h2.55078v16.92187h-2.73242l-3.51074-10.83593v10.83593h-2.55176V158.42151Z"/><path class="cls-1" d="M219.44922,172.80139H222.001v2.55176h-2.55176Z"/></svg>