<?xml version="1.0" encoding="utf-8"?>
<!-- Generator: Adobe Illustrator 23.0.1, SVG Export Plug-In . SVG Version: 6.00 Build 0)  -->
<svg version="1.1" id="Layer_2" xmlns="http://www.w3.org/2000/svg" xmlns:xlink="http://www.w3.org/1999/xlink" x="0px" y="0px"
	 viewBox="0 0 728 90" enable-background="new 0 0 728 90" xml:space="preserve">
<g>
	<g>
		<polygon fill="#FFFFFF" stroke="#BA9544" stroke-width="0.5" stroke-miterlimit="10" points="445.76,52.04 314.83,51.55 
			308.22,61.08 314.83,70.44 445.76,70.22 451.71,61.13 		"/>
		<g>
			<defs>
				<polygon id="SVGID_1_" points="308.37,61.1 314.98,70.46 331.2,70.47 331.2,51.57 314.98,51.57 				"/>
			</defs>
			<use xlink:href="#SVGID_1_"  overflow="visible" fill="#BA9544"/>
			<clipPath id="SVGID_2_">
				<use xlink:href="#SVGID_1_"  overflow="visible"/>
			</clipPath>
			<g clip-path="url(#SVGID_2_)">
				<defs>
					<rect id="SVGID_3_" x="306.9" y="50.11" width="9.66" height="21.83"/>
				</defs>
				<use xlink:href="#SVGID_3_"  overflow="visible" fill="#BA9544"/>
				<clipPath id="SVGID_4_">
					<use xlink:href="#SVGID_3_"  overflow="visible"/>
				</clipPath>
			</g>
		</g>
	</g>
	<g>
		<path fill="#BA9544" d="M385.14,64.22c-0.61-0.61-0.92-1.38-0.92-2.3c0-0.9,0.31-1.66,0.92-2.27c0.61-0.61,1.37-0.92,2.28-0.92
			c0.92,0,1.7,0.29,2.35,0.85l-0.85,0.94c-0.44-0.34-0.94-0.51-1.5-0.51c-0.58,0-1.04,0.18-1.39,0.54
			c-0.35,0.36-0.53,0.81-0.53,1.37c0,0.6,0.18,1.07,0.53,1.42s0.82,0.53,1.39,0.53s1.07-0.17,1.49-0.51l0.85,0.94
			c-0.65,0.57-1.44,0.85-2.35,0.85C386.52,65.14,385.76,64.83,385.14,64.22z"/>
		<path fill="#BA9544" d="M395.71,61.76c0.56,0.38,0.86,0.86,0.89,1.47c-0.06,1.21-0.7,1.85-1.94,1.92l-3.61,0v-6.41h3.4
			c1.08,0.06,1.65,0.69,1.71,1.88C396.15,61.19,396,61.57,395.71,61.76z M392.35,61.31h1.79c0.52-0.01,0.78-0.28,0.79-0.8
			c-0.01-0.31-0.28-0.48-0.78-0.5h-1.81V61.31z M392.35,64.14h2.09c0.6-0.01,0.91-0.32,0.92-0.93c-0.01-0.41-0.32-0.62-0.91-0.64
			h-2.11V64.14z"/>
		<path fill="#BA9544" d="M397.88,65.14v-6.41h2.47c1.99,0,2.99,1.07,2.99,3.21c0,2.14-1,3.21-2.99,3.21H397.88z M400.35,63.87
			c1.14,0,1.71-0.65,1.71-1.93c0-1.28-0.57-1.92-1.71-1.92h-1.19v3.85H400.35z"/>
		<path fill="#BA9544" d="M404.77,61.06c0.11-0.12,0.27-0.17,0.46-0.17c0.21,0,0.36,0.06,0.48,0.17c0.11,0.12,0.17,0.26,0.17,0.43
			s-0.06,0.31-0.17,0.43s-0.27,0.17-0.47,0.17c-0.2,0-0.36-0.06-0.47-0.17s-0.17-0.26-0.17-0.43S404.66,61.17,404.77,61.06z
			 M404.77,64.12c0.11-0.12,0.27-0.17,0.46-0.17c0.21,0,0.36,0.06,0.48,0.17s0.17,0.26,0.17,0.43s-0.06,0.31-0.17,0.43
			c-0.11,0.11-0.27,0.17-0.47,0.17c-0.2,0-0.36-0.06-0.47-0.17c-0.11-0.11-0.17-0.26-0.17-0.43S404.66,64.23,404.77,64.12z"/>
		<path fill="#BA9544" d="M414.57,61.57c-0.02,1.37-0.27,2.31-0.77,2.84c-0.5,0.53-1.12,0.76-1.85,0.7
			c-0.74-0.09-1.31-0.36-1.72-0.81l0.72-0.79c0.3,0.2,0.65,0.32,1.07,0.36c0.37,0.04,0.67-0.05,0.91-0.27
			c0.24-0.22,0.4-0.57,0.47-1.05c-0.47,0.33-0.91,0.47-1.33,0.43c-0.74-0.07-1.26-0.32-1.58-0.74c-0.32-0.42-0.44-0.95-0.38-1.6
			c0.06-0.6,0.31-1.08,0.75-1.45s1.03-0.52,1.76-0.45c0.65,0.11,1.13,0.39,1.44,0.85C414.38,60.06,414.55,60.71,414.57,61.57z
			 M413.29,60.87c-0.03-0.6-0.37-0.91-1.03-0.93c-0.66,0.03-1,0.31-1.03,0.85c0.03,0.71,0.38,1.07,1.07,1.07
			C412.9,61.83,413.23,61.5,413.29,60.87z"/>
		<path fill="#BA9544" d="M415.71,63.43v-0.85h2.65v0.85H415.71z"/>
		<path fill="#BA9544" d="M421.12,58.73L421.12,58.73l1.28,0v6.41h-1.28v-4.7l-0.85,0.85l-0.85-0.85L421.12,58.73z"/>
		<path fill="#BA9544" d="M427.67,61.89c0.08,0.03,0.15,0.06,0.21,0.09c0.44,0.2,0.66,0.63,0.66,1.28c0,0.51-0.24,0.95-0.71,1.32
			c-0.47,0.37-1.02,0.56-1.65,0.56c-0.6,0-1.09-0.08-1.49-0.26c-0.4-0.17-0.74-0.4-1.03-0.68l0.85-0.86
			c0.29,0.34,0.77,0.54,1.45,0.6c0.57,0,0.93-0.12,1.07-0.36s0.14-0.48,0-0.73s-0.64-0.38-1.49-0.41V61.3
			c0.85,0.06,1.35-0.04,1.49-0.28s0.14-0.48,0-0.73s-0.5-0.36-1.07-0.36c-0.54,0-0.95,0.17-1.24,0.51l-0.85-0.86
			c0.29-0.28,0.59-0.5,0.92-0.64c0.33-0.14,0.79-0.21,1.38-0.21c0.63,0,1.15,0.19,1.56,0.56c0.42,0.37,0.62,0.81,0.62,1.33
			c0,0.6-0.19,1-0.58,1.22C427.75,61.85,427.71,61.87,427.67,61.89z"/>
		<path fill="#BA9544" d="M429.95,61.44c-0.31-0.31-0.46-0.69-0.46-1.15c0-0.46,0.15-0.84,0.46-1.14c0.31-0.31,0.69-0.46,1.15-0.46
			c0.46,0,0.84,0.15,1.14,0.46c0.31,0.31,0.46,0.69,0.46,1.14c0,0.46-0.15,0.84-0.46,1.15s-0.69,0.46-1.14,0.46
			C430.64,61.9,430.26,61.75,429.95,61.44z M431.08,61.14c0.24,0,0.43-0.08,0.59-0.24c0.15-0.16,0.23-0.36,0.23-0.61
			s-0.08-0.44-0.23-0.6s-0.35-0.24-0.59-0.24c-0.24,0-0.43,0.08-0.58,0.24s-0.23,0.36-0.23,0.6s0.08,0.44,0.23,0.61
			C430.65,61.06,430.85,61.14,431.08,61.14z M430.74,65.14l3.63-6.41h1.04l-3.62,6.41H430.74z M433.93,64.72
			c-0.31-0.3-0.46-0.68-0.46-1.14s0.15-0.83,0.46-1.14c0.3-0.3,0.68-0.46,1.14-0.46c0.45,0,0.83,0.15,1.14,0.46
			c0.3,0.3,0.46,0.68,0.46,1.14s-0.15,0.83-0.46,1.14c-0.31,0.3-0.68,0.46-1.14,0.46C434.61,65.18,434.23,65.02,433.93,64.72z
			 M435.04,64.41c0.23,0,0.42-0.08,0.57-0.24s0.22-0.36,0.22-0.59c0-0.23-0.07-0.43-0.22-0.59s-0.34-0.24-0.58-0.24
			c-0.23,0-0.42,0.08-0.57,0.24c-0.15,0.16-0.22,0.35-0.22,0.59c0,0.24,0.07,0.43,0.22,0.59C434.62,64.33,434.81,64.41,435.04,64.41
			z"/>
	</g>
</g>
<g>
</g>
<g>
</g>
<g>
</g>
<g>
</g>
<g>
</g>
<g>
</g>
<g>
</g>
<g>
</g>
<g>
</g>
<g>
</g>
<g>
</g>
<g>
</g>
<g>
</g>
<g>
</g>
<g>
</g>
</svg>
