<?xml version="1.0" encoding="utf-8"?>
<!-- Generator: Adobe Illustrator 23.0.1, SVG Export Plug-In . SVG Version: 6.00 Build 0)  -->
<svg version="1.1" id="Layer_2" xmlns="http://www.w3.org/2000/svg" xmlns:xlink="http://www.w3.org/1999/xlink" x="0px" y="0px"
	 viewBox="0 0 728 90" enable-background="new 0 0 728 90" xml:space="preserve">
<g>
	<g>
		<polygon fill="#FFFFFF" stroke="#BA9544" stroke-width="0.5" stroke-miterlimit="10" points="445.76,22.35 314.83,21.85 
			308.22,31.38 314.83,40.74 445.76,40.52 451.71,31.43 		"/>
		<polygon fill="#BA9544" points="314.93,21.85 308.32,31.38 314.93,40.74 328.03,40.74 327.88,21.85 		"/>
	</g>
	<g>
		<path fill="#BA9544" d="M389.77,28.26v1.2h-2.14v5.21h-1.28v-5.21h-2.14v-1.2H389.77z"/>
		<path fill="#BA9544" d="M390.72,34.67v-6.41H392v2.56h2.99v-2.57h1.28v6.41l-1.28,0v-2.65H392v2.65H390.72z"/>
		<path fill="#BA9544" d="M398.26,33.75c-0.61-0.61-0.92-1.38-0.92-2.3c0-0.9,0.31-1.66,0.92-2.27c0.61-0.61,1.37-0.92,2.28-0.92
			c0.92,0,1.7,0.28,2.35,0.85l-0.85,0.94c-0.44-0.34-0.94-0.51-1.5-0.51c-0.58,0-1.04,0.18-1.39,0.54
			c-0.35,0.36-0.53,0.81-0.53,1.37c0,0.6,0.18,1.07,0.53,1.42c0.35,0.35,0.82,0.53,1.39,0.53s1.07-0.17,1.49-0.51l0.85,0.94
			c-0.65,0.57-1.44,0.85-2.35,0.85C399.64,34.67,398.88,34.36,398.26,33.75z"/>
		<path fill="#BA9544" d="M404.33,30.58c0.11-0.12,0.27-0.17,0.46-0.17c0.21,0,0.36,0.06,0.48,0.17c0.11,0.12,0.17,0.26,0.17,0.43
			s-0.06,0.31-0.17,0.43c-0.11,0.11-0.27,0.17-0.47,0.17c-0.2,0-0.36-0.06-0.47-0.17c-0.11-0.11-0.17-0.26-0.17-0.43
			S404.22,30.7,404.33,30.58z M404.33,33.64c0.11-0.12,0.27-0.17,0.46-0.17c0.21,0,0.36,0.06,0.48,0.17s0.17,0.26,0.17,0.43
			s-0.06,0.31-0.17,0.43s-0.27,0.17-0.47,0.17c-0.2,0-0.36-0.06-0.47-0.17s-0.17-0.26-0.17-0.43S404.22,33.76,404.33,33.64z"/>
		<path fill="#BA9544" d="M412.5,28.26L412.5,28.26l1.28-0.01v3.73h0.86v1.28h-0.86v1.41h-1.28v-1.41h-2.91v-1.28h0.04l-0.04-0.04
			L412.5,28.26z M412.5,31.98v-2.04l-1.56,2.04H412.5z"/>
		<path fill="#BA9544" d="M415.62,32.95V32.1h2.65v0.85H415.62z"/>
		<path fill="#BA9544" d="M423,31.42c0.08,0.03,0.15,0.06,0.21,0.09c0.44,0.2,0.66,0.63,0.66,1.28s-0.21,1.13-0.62,1.43
			c-0.42,0.3-0.95,0.45-1.6,0.45c-0.65,0-1.18-0.15-1.6-0.45c-0.41-0.3-0.62-0.78-0.62-1.43s0.22-1.08,0.66-1.28
			c0.06-0.03,0.13-0.06,0.21-0.09c-0.05-0.02-0.09-0.04-0.12-0.06c-0.38-0.21-0.58-0.62-0.58-1.22c0-0.6,0.19-1.06,0.56-1.39
			c0.37-0.33,0.87-0.49,1.5-0.49c0.62,0,1.12,0.16,1.49,0.49c0.37,0.33,0.56,0.79,0.56,1.39c0,0.6-0.19,1-0.58,1.22
			C423.08,31.38,423.04,31.4,423,31.42z M421.65,30.84c0.38-0.01,0.62-0.11,0.73-0.29c0.14-0.24,0.14-0.48,0-0.73
			c-0.13-0.22-0.37-0.34-0.73-0.36c-0.35,0.02-0.59,0.14-0.72,0.36c-0.14,0.24-0.14,0.48,0,0.73
			C421.03,30.73,421.27,30.83,421.65,30.84z M421.65,32.01c-0.38,0.06-0.62,0.18-0.72,0.37c-0.14,0.24-0.14,0.48,0,0.73
			c0.13,0.22,0.37,0.34,0.72,0.36c0.35-0.02,0.6-0.14,0.73-0.36c0.14-0.24,0.14-0.48,0-0.73C422.26,32.2,422.02,32.07,421.65,32.01z
			"/>
		<path fill="#BA9544" d="M425.36,30.96c-0.31-0.31-0.46-0.69-0.46-1.15c0-0.46,0.15-0.84,0.46-1.15c0.31-0.31,0.69-0.46,1.15-0.46
			c0.46,0,0.84,0.15,1.14,0.46c0.31,0.31,0.46,0.69,0.46,1.15c0,0.46-0.15,0.84-0.46,1.15s-0.69,0.46-1.14,0.46
			C426.05,31.42,425.67,31.27,425.36,30.96z M426.49,30.66c0.24,0,0.43-0.08,0.59-0.24c0.15-0.16,0.23-0.36,0.23-0.61
			c0-0.24-0.08-0.44-0.23-0.6s-0.35-0.24-0.59-0.24c-0.24,0-0.43,0.08-0.58,0.24s-0.23,0.36-0.23,0.6c0,0.24,0.08,0.44,0.23,0.61
			C426.06,30.58,426.25,30.66,426.49,30.66z M426.15,34.67l3.63-6.41h1.04l-3.62,6.41H426.15z M429.33,34.25
			c-0.31-0.31-0.46-0.68-0.46-1.14c0-0.45,0.15-0.83,0.46-1.14c0.3-0.3,0.68-0.46,1.14-0.46c0.45,0,0.83,0.15,1.14,0.46
			c0.3,0.31,0.46,0.68,0.46,1.14c0,0.45-0.15,0.83-0.46,1.14c-0.31,0.3-0.68,0.46-1.14,0.46C430.02,34.7,429.64,34.55,429.33,34.25z
			 M430.45,33.93c0.23,0,0.42-0.08,0.57-0.24s0.22-0.36,0.22-0.59c0-0.23-0.07-0.43-0.22-0.59s-0.34-0.24-0.58-0.24
			c-0.23,0-0.42,0.08-0.57,0.24c-0.15,0.16-0.22,0.35-0.22,0.59c0,0.24,0.07,0.43,0.22,0.59C430.02,33.85,430.22,33.93,430.45,33.93
			z"/>
	</g>
</g>
<g>
</g>
<g>
</g>
<g>
</g>
<g>
</g>
<g>
</g>
<g>
</g>
<g>
</g>
<g>
</g>
<g>
</g>
<g>
</g>
<g>
</g>
<g>
</g>
<g>
</g>
<g>
</g>
<g>
</g>
</svg>
