<svg id="Content" xmlns="http://www.w3.org/2000/svg" viewBox="0 0 640 100"><defs><style>.cls-1{fill:#ba9544;}</style></defs><title>Frame1 - Sensi Star</title><path class="cls-1" d="M245.42,36.72c3.64,0,5.51,2.17,5.51,6v.75h-3.54v-1c0-1.7-.68-2.35-1.87-2.35s-1.87.65-1.87,2.35c0,4.9,7.31,5.81,7.31,12.61,0,3.81-1.9,6-5.57,6s-5.58-2.18-5.58-6V53.61h3.54v1.7c0,1.7.75,2.31,1.94,2.31s1.93-.61,1.93-2.31c0-4.89-7.31-5.81-7.31-12.61C239.91,38.89,241.78,36.72,245.42,36.72Z"/><path class="cls-1" d="M260.45,47h5.13v3.4h-5.13v7h6.46v3.4h-10.2V37h10.2v3.4h-6.46Z"/><path class="cls-1" d="M276.16,43.55V60.78h-3.37V37h4.69l3.85,14.24V37h3.33V60.78h-3.84Z"/><path class="cls-1" d="M296,36.72c3.64,0,5.51,2.17,5.51,6v.75H298v-1c0-1.7-.68-2.35-1.87-2.35s-1.87.65-1.87,2.35c0,4.9,7.31,5.81,7.31,12.61,0,3.81-1.9,6-5.57,6s-5.58-2.18-5.58-6V53.61h3.54v1.7c0,1.7.74,2.31,1.93,2.31s1.94-.61,1.94-2.31c0-4.89-7.31-5.81-7.31-12.61C290.47,38.89,292.34,36.72,296,36.72Z"/><path class="cls-1" d="M307.27,37H311V60.78h-3.74Z"/><path class="cls-1" d="M331.24,36.72c3.63,0,5.5,2.17,5.5,6v.75h-3.53v-1c0-1.7-.68-2.35-1.87-2.35s-1.87.65-1.87,2.35c0,4.9,7.31,5.81,7.31,12.61,0,3.81-1.91,6-5.58,6s-5.57-2.18-5.57-6V53.61h3.53v1.7c0,1.7.75,2.31,1.94,2.31S333,57,333,55.31c0-4.89-7.31-5.81-7.31-12.61C325.73,38.89,327.6,36.72,331.24,36.72Z"/><path class="cls-1" d="M341.44,37H353v3.4h-3.91V60.78h-3.74V40.39h-3.91Z"/><path class="cls-1" d="M370.33,60.78h-3.77l-.65-4.31h-4.58l-.65,4.31h-3.43L361.05,37h5.48Zm-8.53-7.54h3.61l-1.81-12Z"/><path class="cls-1" d="M383.49,60.78a7.36,7.36,0,0,1-.34-2.92V54.12c0-2.21-.74-3-2.44-3h-1.3v9.69h-3.74V37h5.65c3.87,0,5.54,1.8,5.54,5.47v1.87c0,2.45-.78,4.05-2.45,4.83,1.87.78,2.48,2.58,2.48,5.06v3.67a7.05,7.05,0,0,0,.41,2.89Zm-4.08-20.39V47.7h1.47c1.39,0,2.24-.62,2.24-2.52V42.83c0-1.7-.58-2.44-1.9-2.44Z"/></svg>