<svg id="Content" xmlns="http://www.w3.org/2000/svg" viewBox="0 0 640 100"><defs><style>.cls-1{fill:#ba9544;}</style></defs><title>Frame1 - MK Ultra</title><path class="cls-1" d="M259,53.88,261.52,37h5.2V60.78h-3.53V43.72L260.6,60.78h-3.53L254.28,44V60.78H251V37h5.21Z"/><path class="cls-1" d="M277.94,51.3l-1.15,2.17v7.31h-3.74V37h3.74V47.36L281.68,37h3.74l-5.2,10.6,5.2,13.19h-3.84Z"/><path class="cls-1" d="M303.17,37V55.34c0,1.7.75,2.32,1.94,2.32s1.94-.62,1.94-2.32V37h3.53V55.11c0,3.8-1.9,6-5.57,6s-5.58-2.18-5.58-6V37Z"/><path class="cls-1" d="M316.74,37h3.74V57.38h6.15v3.4h-9.89Z"/><path class="cls-1" d="M330.78,37h11.56v3.4h-3.91V60.78h-3.74V40.39h-3.91Z"/><path class="cls-1" d="M355.39,60.78a7.36,7.36,0,0,1-.34-2.92V54.12c0-2.21-.75-3-2.44-3h-1.3v9.69h-3.74V37h5.65c3.87,0,5.54,1.8,5.54,5.47v1.87c0,2.45-.78,4.05-2.45,4.83,1.87.78,2.48,2.58,2.48,5.06v3.67a7.05,7.05,0,0,0,.41,2.89Zm-4.08-20.39V47.7h1.47c1.39,0,2.24-.62,2.24-2.52V42.83c0-1.7-.58-2.44-1.9-2.44Z"/><path class="cls-1" d="M377,60.78h-3.78l-.64-4.31h-4.59l-.65,4.31h-3.43L367.67,37h5.47Zm-8.54-7.54H372l-1.8-12Z"/></svg>