<svg id="Content" xmlns="http://www.w3.org/2000/svg" width="640" height="100" viewBox="0 0 640 100"><defs><style>.cls-1{fill:#ba9544;}</style></defs><title>Frame1</title><path class="cls-1" d="M216.17562,39.44922c3.42382,0,5.18359,2.04785,5.18359,5.63183v.70411h-3.32813v-.92871c0-1.59961-.63964-2.207-1.75976-2.207s-1.75977.60743-1.75977,2.207c0,4.60839,6.87891,5.47167,6.87891,11.87109,0,3.584-1.791,5.63184-5.24707,5.63184s-5.24805-2.04786-5.24805-5.63184v-1.376h3.32813v1.60059c0,1.59961.7041,2.17578,1.82422,2.17578,1.11914,0,1.82324-.57617,1.82324-2.17578,0-4.6084-6.87891-5.47168-6.87891-11.8711C210.992,41.49707,212.75179,39.44922,216.17562,39.44922Z"/><path class="cls-1" d="M230.31917,49.14453h4.832v3.19922h-4.832v6.55957h6.08008v3.2002h-9.59961V39.70508h9.59961v3.20019h-6.08008Z"/><path class="cls-1" d="M245.10335,45.88086V62.10352h-3.168V39.70508h4.416l3.61523,13.40722V39.70508h3.13574V62.10352h-3.61523Z"/><path class="cls-1" d="M263.75862,39.44922c3.42383,0,5.1836,2.04785,5.1836,5.63183v.70411h-3.32813v-.92871c0-1.59961-.63965-2.207-1.75976-2.207s-1.75977.60743-1.75977,2.207c0,4.60839,6.87891,5.47167,6.87891,11.87109,0,3.584-1.791,5.63184-5.24707,5.63184s-5.24805-2.04786-5.24805-5.63184v-1.376h3.32813v1.60059c0,1.59961.7041,2.17578,1.82421,2.17578,1.11914,0,1.82325-.57617,1.82325-2.17578,0-4.6084-6.87891-5.47168-6.87891-11.8711C258.575,41.49707,260.3348,39.44922,263.75862,39.44922Z"/><path class="cls-1" d="M274.38265,39.70508h3.51953V62.10352h-3.51953Z"/><path class="cls-1" d="M296.94222,39.44922c3.42383,0,5.18359,2.04785,5.18359,5.63183v.70411h-3.32812v-.92871c0-1.59961-.63965-2.207-1.75977-2.207s-1.75977.60743-1.75977,2.207c0,4.60839,6.87891,5.47167,6.87891,11.87109,0,3.584-1.791,5.63184-5.24707,5.63184s-5.248-2.04786-5.248-5.63184v-1.376h3.32813v1.60059c0,1.59961.7041,2.17578,1.82422,2.17578,1.11914,0,1.82324-.57617,1.82324-2.17578,0-4.6084-6.87891-5.47168-6.87891-11.8711C291.75862,41.49707,293.51839,39.44922,296.94222,39.44922Z"/><path class="cls-1" d="M306.54183,39.70508h10.87988v3.20019H313.742V62.10352h-3.52051V42.90527h-3.67968Z"/><path class="cls-1" d="M333.741,62.10352h-3.55176l-.6084-4.06348h-4.31934l-.6084,4.06348h-3.23144l3.584-22.39844h5.15137ZM325.7098,55h3.3916l-1.69629-11.32715Z"/><path class="cls-1" d="M346.12483,62.10352a6.87849,6.87849,0,0,1-.32031-2.752V55.832c0-2.08008-.7041-2.84765-2.30371-2.84765H342.285v9.11914h-3.51953V39.70508H344.077c3.64746,0,5.21582,1.69629,5.21582,5.15137v1.75976c0,2.30469-.73632,3.80859-2.30468,4.54395,1.75976.73632,2.33593,2.43164,2.33593,4.76757v3.45606a6.60323,6.60323,0,0,0,.38379,2.71973ZM342.285,42.90527v6.87891h1.376c1.31152,0,2.11133-.57617,2.11133-2.36719V45.209c0-1.60058-.54395-2.30371-1.792-2.30371Z"/></svg>