<svg id="Content" xmlns="http://www.w3.org/2000/svg" viewBox="0 0 640 1136"><defs><style>.cls-1{fill:#fff;stroke:#ba9544;stroke-miterlimit:10;stroke-width:0.96px;}.cls-2{fill:#ba9544;}</style></defs><title>THC - Shishkaberry</title><polygon class="cls-1" points="501.4 690.2 145.52 688.85 127.55 714.75 145.52 740.2 501.4 739.6 517.57 714.9 501.4 690.2"/><polygon class="cls-2" points="145.78 688.85 127.81 714.75 145.78 740.2 189.78 740.2 189.78 688.85 145.78 688.85"/><path class="cls-2" d="M349.21,706.27v3.25H343.4v14.17h-3.48V709.52h-5.81v-3.25Z"/><path class="cls-2" d="M351.8,723.69V706.27h3.49v7h8.12v-7h3.48v17.42h-3.48v-7.2h-8.12v7.2Z"/><path class="cls-2" d="M372.3,721.19a8.71,8.71,0,0,1,6.19-14.92,9.46,9.46,0,0,1,6.4,2.32l-2.32,2.55a6.41,6.41,0,0,0-4.08-1.4,5.13,5.13,0,0,0-3.78,1.47,5.06,5.06,0,0,0-1.43,3.71,5.24,5.24,0,0,0,1.45,3.86,5.15,5.15,0,0,0,3.79,1.43,6.25,6.25,0,0,0,4.05-1.38l2.32,2.54a9.37,9.37,0,0,1-6.4,2.32A8.44,8.44,0,0,1,372.3,721.19Z"/><path class="cls-2" d="M388.8,712.58a1.7,1.7,0,0,1,1.25-.47,1.75,1.75,0,0,1,1.3.47,1.62,1.62,0,0,1,.47,1.17,1.57,1.57,0,0,1-.47,1.16,2,2,0,0,1-2.55,0,1.57,1.57,0,0,1-.47-1.16A1.62,1.62,0,0,1,388.8,712.58Zm0,8.32a1.7,1.7,0,0,1,1.25-.47,1.75,1.75,0,0,1,1.3.47,1.68,1.68,0,0,1,0,2.33,2,2,0,0,1-2.55,0,1.68,1.68,0,0,1,0-2.33Z"/><path class="cls-2" d="M407.35,706.27h3.47v17.43h-3.47V710.92L405,713.24l-2.32-2.32Z"/><path class="cls-2" d="M422,706.28v0h3.48v10.13h2.34v3.47h-2.34v3.83H422v-3.83h-7.91v-3.47h.12l-.1-.12Zm0,10.11v-5.55l-4.24,5.55Z"/><path class="cls-2" d="M430.48,719v-2.32h7.2V719Z"/><path class="cls-2" d="M445.19,706.27h3.48v17.43h-3.48V710.92l-2.32,2.32-2.32-2.32Z"/><path class="cls-2" d="M461.52,714.87a5.19,5.19,0,0,1,.57.23q1.8.81,1.8,3.48a4.46,4.46,0,0,1-1.69,3.89,8.37,8.37,0,0,1-8.7,0,4.48,4.48,0,0,1-1.69-3.89q0-2.67,1.8-3.48a5.19,5.19,0,0,1,.57-.23l-.33-.18a3.43,3.43,0,0,1-1.57-3.31,4.76,4.76,0,0,1,1.51-3.77,6.82,6.82,0,0,1,8.12,0,4.77,4.77,0,0,1,1.52,3.77,3.43,3.43,0,0,1-1.57,3.31Zm-3.67-1.58c1,0,1.68-.3,2-.81a1.84,1.84,0,0,0,0-2,2.27,2.27,0,0,0-2-1,2.22,2.22,0,0,0-2,1,1.8,1.8,0,0,0,0,2C456.18,713,456.83,713.26,457.85,713.29Zm0,3.19a2.6,2.6,0,0,0-2,1,1.8,1.8,0,0,0,0,2,2.2,2.2,0,0,0,2,1,2.24,2.24,0,0,0,2-1,1.84,1.84,0,0,0,0-2A2.64,2.64,0,0,0,457.85,716.48Z"/><path class="cls-2" d="M468,713.62a4.47,4.47,0,1,1,3.11,1.26A4.2,4.2,0,0,1,468,713.62Zm3.08-.81a2.07,2.07,0,0,0,1.59-.66,2.54,2.54,0,0,0,0-3.3,2.13,2.13,0,0,0-1.61-.65,2.1,2.1,0,0,0-1.58.65,2.54,2.54,0,0,0,0,3.3A2.08,2.08,0,0,0,471,712.81Zm-.93,10.88L480,706.27h2.83L473,723.69Zm8.65-1.15a4.47,4.47,0,0,1,0-6.18,4.33,4.33,0,0,1,7.42,3.09,4.36,4.36,0,0,1-7.42,3.09Zm3-.84a2,2,0,0,0,1.56-.65,2.43,2.43,0,0,0,0-3.2,2.06,2.06,0,0,0-1.57-.65,2,2,0,0,0-1.54.65,2.4,2.4,0,0,0,0,3.2A2,2,0,0,0,481.78,721.7Z"/></svg>