<svg id="Layer_1" data-name="Layer 1" xmlns="http://www.w3.org/2000/svg" width="970" height="250" viewBox="0 0 970 250"><defs><style>.cls-1,.cls-2{fill:#ab9555;}.cls-1{opacity:0.5;}</style></defs><title>frame3</title><path class="cls-1" d="M302.686,161.66528a5.0624,5.0624,0,0,1-5.09668-5.07911V140.0686h3.15332V156.552a1.75888,1.75888,0,0,0,.54541,1.30372,1.80249,1.80249,0,0,0,1.3125.5371,1.83382,1.83382,0,0,0,1.8413-1.84082V140.0686h3.35791v16.51757a4.85381,4.85381,0,0,1-1.5,3.61329A4.98418,4.98418,0,0,1,302.686,161.66528Z"/><path class="cls-1" d="M317.15918,140.052l4.27539,14.36524V140.052h3.22168v21.375H321.1958l-4.43164-13.6875V161.427h-3.22168V140.052Z"/><path class="cls-1" d="M335.49609,140.0686a4.91,4.91,0,0,1,3.75,1.48339,5.14449,5.14449,0,0,1,1.29541,3.61329v3.10253a4.96652,4.96652,0,0,1-1.47461,3.61329,4.81764,4.81764,0,0,1-3.5708,1.5h-1.85791V161.427H330.4165V140.0686Zm1.92627,5.14843a1.8392,1.8392,0,0,0-.50293-1.34668,1.79263,1.79263,0,0,0-1.33789-.51171h-1.94336v6.835h1.94336a1.76176,1.76176,0,0,0,1.30371-.54493,1.80281,1.80281,0,0,0,.53711-1.3125Z"/><path class="cls-1" d="M354.77393,161.427h-8.77832V140.0686h3.22168v18.15429h5.55664Z"/><path class="cls-1" d="M364.96631,161.66528a5.0624,5.0624,0,0,1-5.09668-5.07911V140.0686H363.023V156.552a1.75888,1.75888,0,0,0,.54541,1.30372,1.80249,1.80249,0,0,0,1.3125.5371,1.83384,1.83384,0,0,0,1.84131-1.84082V140.0686h3.35742v16.51757a4.852,4.852,0,0,1-1.5,3.61329A4.98311,4.98311,0,0,1,364.96631,161.66528Z"/><path class="cls-1" d="M380.88623,161.69946a5.10633,5.10633,0,0,1-5.11328-5.09668V144.9436a5.105,5.105,0,1,1,10.21,0v2.4375h-3.34082v-2.50489a1.86385,1.86385,0,0,0-1.8584-1.8584,1.759,1.759,0,0,0-1.30371.5459,1.80087,1.80087,0,0,0-.53711,1.3125V156.5686a1.83386,1.83386,0,0,0,1.84082,1.84179,1.80385,1.80385,0,0,0,1.3125-.53613,1.7541,1.7541,0,0,0,.5459-1.2998v-4.19825h-1.79V149.137h5.13086v7.46582a5.0913,5.0913,0,0,1-5.09668,5.09668Z"/><path class="cls-1" d="M391.07861,158.22289h3.22071v3.22071h-3.22071Z"/><path class="cls-1" d="M418.36572,161.427H409.5874V140.0686h3.22071v18.15429h5.55761Z"/><path class="cls-1" d="M428.55713,139.79614a5.10633,5.10633,0,0,1,5.11426,5.11425V156.5686a5.105,5.105,0,1,1-10.21,0V144.91039a5.10634,5.10634,0,0,1,5.0957-5.11425ZM430.313,144.842a1.83222,1.83222,0,0,0-1.84082-1.84082,1.80541,1.80541,0,0,0-1.3125.53614,1.76391,1.76391,0,0,0-.54492,1.30468v11.69336a1.76331,1.76331,0,0,0,.54492,1.30371,1.80631,1.80631,0,0,0,1.3125.53711,1.83385,1.83385,0,0,0,1.84082-1.84082Z"/><path class="cls-1" d="M444.42529,139.79614a5.10633,5.10633,0,0,1,5.11426,5.11425V156.5686a5.105,5.105,0,1,1-10.21,0V144.91039a5.10634,5.10634,0,0,1,5.0957-5.11425Zm1.75586,5.04589a1.83222,1.83222,0,0,0-1.84082-1.84082,1.80541,1.80541,0,0,0-1.3125.53614,1.76391,1.76391,0,0,0-.54492,1.30468v11.69336a1.76331,1.76331,0,0,0,.54492,1.30371,1.80631,1.80631,0,0,0,1.3125.53711,1.83385,1.83385,0,0,0,1.84082-1.84082Z"/><path class="cls-1" d="M458.46924,154.6516V161.427h-3.2207V140.052h3.2207v7.61915l3.9375-7.61915h3.43555l-4.41016,8.71875L466.603,161.427h-3.78711l-3.38184-8.67871Z"/><path class="cls-1" d="M486.98535,161.66528a5.06157,5.06157,0,0,1-5.09619-5.07911V140.0686h3.15332V156.552a1.76028,1.76028,0,0,0,.54492,1.30372,1.8036,1.8036,0,0,0,1.313.5371,1.83384,1.83384,0,0,0,1.84082-1.84082V140.0686h3.3584v16.51757a4.852,4.852,0,0,1-1.5,3.61329A4.98374,4.98374,0,0,1,486.98535,161.66528Z"/><path class="cls-1" d="M502.92187,140.0686a4.90929,4.90929,0,0,1,3.75,1.48339,5.14481,5.14481,0,0,1,1.2959,3.61329v3.10253a4.96843,4.96843,0,0,1-1.47461,3.61329,4.82022,4.82022,0,0,1-3.57129,1.5h-1.85839V161.427h-3.22071V140.0686Zm1.92579,5.14843a1.83529,1.83529,0,0,0-.50293-1.34668,1.79187,1.79187,0,0,0-1.33789-.51171h-1.94336v6.835h1.94336a1.76392,1.76392,0,0,0,1.30468-.54493,1.80382,1.80382,0,0,0,.53614-1.3125Z"/><path class="cls-1" d="M513.06348,158.22289h3.2207v3.22071h-3.2207Z"/><path class="cls-2" d="M526.47656,161.427V140.052h4.82324a6.14025,6.14025,0,0,1,3.44336,1.00586,4.679,4.679,0,0,1,1.875,2.64161,7.46154,7.46154,0,0,1,.30664,2.26757,5.022,5.022,0,0,1-1.1416,3.44336,3.246,3.246,0,0,1-1.125.835,3.74141,3.74141,0,0,1,1.82325,1.61914,6.29071,6.29071,0,0,1,.73339,2.11329,8.47554,8.47554,0,0,1,.11914,1.48339,7.14563,7.14563,0,0,1-.7666,3.44336,4.93943,4.93943,0,0,1-4.125,2.52246Zm3.47656-12.64746h1.34668a1.97348,1.97348,0,0,0,2.01172-1.46582,4.18419,4.18419,0,0,0,.1875-1.34668,2.818,2.818,0,0,0-.64746-2.01172,2.04205,2.04205,0,0,0-1.55176-.63085h-1.34668Zm0,9.46h1.34668a2.28691,2.28691,0,0,0,2.26758-1.6875,3.70678,3.70678,0,0,0,.22168-1.3291,4.04763,4.04763,0,0,0-.68261-2.6084,2.19761,2.19761,0,0,0-1.80665-.75h-1.34668Z"/><path class="cls-2" d="M548.08887,140.0686a4.913,4.913,0,0,1,3.9541,1.48339,5.385,5.385,0,0,1,1.1084,3.61329v3.10253a4.9899,4.9899,0,0,1-1.72168,3.835l2.38574,9.32421H550.332l-1.95312-8.04589h-2.14844V161.427h-3.2207V140.0686Zm1.92578,5.14843a1.635,1.635,0,0,0-1.84082-1.85839h-1.94336v6.835h1.94336a1.76392,1.76392,0,0,0,1.30469-.54493,1.80385,1.80385,0,0,0,.53613-1.3125Z"/><path class="cls-2" d="M559.459,161.427V140.052h9.16993v3.23829h-5.94922v5.83007h4.34668v3.23829h-4.34668v5.83007h5.94922V161.427Z"/><path class="cls-2" d="M577.86133,156.51781l-.78223,4.90918h-3.35449l3.63086-21.35839h4.43164l3.5791,21.35839h-3.38769l-.75391-4.90918Zm1.69238-11.55664-1.19336,8.41993h2.38672Z"/><path class="cls-2" d="M591.36523,143.30785h-3.42578V140.0686h10.05664v3.23925h-3.40918V161.427h-3.22168Z"/><path class="cls-2" d="M606.6875,152.37621V161.427h-3.2207V140.0686h3.2207V149.137h3.88672V140.0686h3.22168V161.427h-3.22168v-9.05078Z"/><path class="cls-2" d="M619.55566,161.427V140.052h9.16993v3.23829h-5.94922v5.83007h4.34668v3.23829h-4.34668v5.83007h5.94922V161.427Z"/><path class="cls-2" d="M647.2334,161.427h-3.2207V140.0686h3.2207Z"/><path class="cls-2" d="M656.61133,140.052l4.27539,14.36524V140.052h3.22168v21.375h-3.46l-4.43262-13.6875V161.427h-3.2207V140.052Z"/><path class="cls-2" d="M669.20508,158.22289h3.2207v3.22071h-3.2207Z"/></svg>