<svg id="Layer_1" data-name="Layer 1" xmlns="http://www.w3.org/2000/svg" width="375" height="132" viewBox="0 0 375 132"><defs><style>.cls-1{fill:#fff;}</style></defs><title>reflection</title><path class="cls-1" d="M168.76817,86.47574h-1.76593V74.7628h2.5301l1.64392,8.39941L172.756,74.7628h2.43377V86.47574h-1.76593v-7.3585l-1.52619,7.3585h-1.41734l-1.71211-7.33954Z"/><path class="cls-1" d="M180.05668,74.62214a2.80114,2.80114,0,0,1,2.80622,2.80592v6.38977a2.80012,2.80012,0,0,1-2.80622,2.80592,2.67134,2.67134,0,0,1-1.97448-.822,2.71921,2.71921,0,0,1-.81248-1.98395V77.42806a2.80014,2.80014,0,0,1,2.787-2.80592Zm.96323,2.77289a.99673.99673,0,0,0-1.00818-1.00727.98911.98911,0,0,0-.71616.29173.96257.96257,0,0,0-.29845.71554v6.41056a.96609.96609,0,0,0,.29845.71188.98278.98278,0,0,0,.71616.29539,1.00281,1.00281,0,0,0,1.00818-1.00727Z"/><path class="cls-1" d="M187.72984,74.7628a2.67606,2.67606,0,0,1,2.16438.81585,2.9465,2.9465,0,0,1,.60974,1.97784V79.2579a2.723,2.723,0,0,1-.94244,2.10016l1.30878,5.11768h-1.90446l-1.0776-4.42415c-.05137.00428-.10458.00611-.16023.00611h-1.01278v4.418H184.9493V74.7628Zm1.05314,2.82549a.89548.89548,0,0,0-1.00482-1.02072h-1.06293V80.311h1.06293a.95819.95819,0,0,0,.71371-.29845.99062.99062,0,0,0,.29111-.71555Z"/><path class="cls-1" d="M192.91174,86.47574V74.7628h5.0284V76.529H194.678v3.21078h2.3821v1.76624H194.678v3.20406h3.26216v1.76562Z"/><path class="cls-1" d="M205.93958,74.7628a2.67468,2.67468,0,0,1,2.16376.81585,2.94666,2.94666,0,0,1,.61036,1.97784V79.2579a2.72508,2.72508,0,0,1-.94245,2.10016l1.30817,5.11768H207.175l-1.077-4.42415c-.05138.00428-.10458.00611-.16024.00611H204.925v4.418h-1.76563V74.7628Zm1.05313,2.82549a.89548.89548,0,0,0-1.00482-1.02072H204.925V80.311h1.06292a.95818.95818,0,0,0,.71371-.29845.99062.99062,0,0,0,.29111-.71555Z"/><path class="cls-1" d="M211.12148,86.47574V74.7628h5.02778V76.529H212.8871v3.21078h2.3821v1.76624h-2.3821v3.20406h3.26216v1.76562Z"/><path class="cls-1" d="M219.65483,86.47574H217.8892V74.7628H222.917V76.529h-3.26215v3.21078h2.38209v1.76624h-2.38209Z"/><path class="cls-1" d="M229.47249,86.47574h-4.81557V74.7628h1.76563V84.723h3.04994Z"/><path class="cls-1" d="M231.20692,86.47574V74.7628h5.02779V76.529h-3.26216v3.21078h2.38209v1.76624h-2.38209v3.20406h3.26216v1.76562Z"/><path class="cls-1" d="M240.77445,86.62375a2.78454,2.78454,0,0,1-2.79981-2.79369V77.41522a2.79645,2.79645,0,1,1,5.59289,0V78.7509h-1.83046V77.3828a1.02,1.02,0,0,0-1.02072-1.02072.96376.96376,0,0,0-.71249.29906.98445.98445,0,0,0-.296.72166v6.4283a1.0096,1.0096,0,0,0,1.00849,1.01461.98864.98864,0,0,0,.72227-.2954.97218.97218,0,0,0,.29845-.71921V82.19959h1.83046v1.63047a2.78966,2.78966,0,0,1-2.79308,2.79369Z"/><path class="cls-1" d="M247.18256,76.529h-1.87509V74.7628h5.50909V76.529h-1.86837v9.9467h-1.76563Z"/><path class="cls-1" d="M254.52762,86.47574H252.762V74.7628h1.76563Z"/><path class="cls-1" d="M259.40067,74.62214a2.80114,2.80114,0,0,1,2.80653,2.80592v6.38977a2.80012,2.80012,0,0,1-2.80653,2.80592,2.67067,2.67067,0,0,1-1.97418-.822,2.719,2.719,0,0,1-.81217-1.98395V77.42806a2.80015,2.80015,0,0,1,2.78635-2.80592Zm.96385,2.77289a.99727.99727,0,0,0-1.0085-1.00727.9891.9891,0,0,0-.71615.29173.96253.96253,0,0,0-.29845.71554v6.41056a.96605.96605,0,0,0,.29845.71188.98277.98277,0,0,0,.71615.29539,1.00335,1.00335,0,0,0,1.0085-1.00727Z"/><path class="cls-1" d="M266.265,74.7628l2.33745,7.86673V74.7628h1.76624V86.47574H268.4771l-2.43041-7.50039v7.50039h-1.76563V74.7628Z"/><path class="cls-1" d="M272.108,84.71685h1.76562v1.76562H272.108Z"/></svg>