<svg id="Layer_1" data-name="Layer 1" xmlns="http://www.w3.org/2000/svg" width="209.7409" height="15.5146" viewBox="0 0 209.7409 15.5146"><defs><style>.cls-1{fill:#ac9655;}</style></defs><title>frame2</title><path class="cls-1" d="M7.5464,11.5547a4.2559,4.2559,0,0,1-.8213,2.7041A2.9551,2.9551,0,0,1,5.1558,15.333a4.26,4.26,0,0,1-1.2681.169,3.5837,3.5837,0,0,1-2.2212-.6641A3.7027,3.7027,0,0,1,.501,13.3594,5.9682,5.9682,0,0,1,0,11.2158L2.1733,11.06a3.304,3.304,0,0,0,.7,1.917,1.1661,1.1661,0,0,0,.9419.4248,1.4144,1.4144,0,0,0,1.1953-.7373,1.8294,1.8294,0,0,0,.2295-1.003,2.7839,2.7839,0,0,0-.8574-1.873q-.676-.64-2.0283-1.9209A8.6694,8.6694,0,0,1,.7485,5.8965,4.5557,4.5557,0,0,1,.2417,3.77,3.7007,3.7007,0,0,1,1.63.64,3.4535,3.4535,0,0,1,3.7549,0,3.8619,3.8619,0,0,1,5.8438.543,3.14,3.14,0,0,1,6.9365,1.7266a4.3725,4.3725,0,0,1,.501,1.75L5.2524,3.875a2.6348,2.6348,0,0,0-.5312-1.4482,1.115,1.115,0,0,0-.9058-.375,1.0432,1.0432,0,0,0-.9536.5556,2.141,2.141,0,0,0-.2656,1.1114,3.33,3.33,0,0,0,.8931,2.1123,7.5438,7.5438,0,0,0,1.0146.9658q.7969.665,1.05.93a7.7426,7.7426,0,0,1,1.3037,1.666,6.324,6.324,0,0,1,.35.7129A4.1438,4.1438,0,0,1,7.5464,11.5547Z"/><path class="cls-1" d="M14.7837,15.3213H12.5015V.1924h2.2822Z"/><path class="cls-1" d="M22.4458.1807l3.0283,10.1757V.1807h2.2818V15.3213H25.3052L22.166,5.626v9.6953H19.8838V.1807Z"/><path class="cls-1" d="M36.4419,15.5146a3.6077,3.6077,0,0,1-3.6221-3.61V3.6455A3.4818,3.4818,0,0,1,33.8823,1.08a3.6219,3.6219,0,0,1,5.12.0058,3.5108,3.5108,0,0,1,1.05,2.56V5.3721H37.6855V3.5977A1.32,1.32,0,0,0,36.37,2.2812a1.2479,1.2479,0,0,0-.9238.3868,1.278,1.278,0,0,0-.38.93V11.88A1.2988,1.2988,0,0,0,36.37,13.1846a1.277,1.277,0,0,0,.93-.3809,1.2477,1.2477,0,0,0,.3862-.9238V9.791h2.3667v2.1133a3.6074,3.6074,0,0,1-3.61,3.61Z"/><path class="cls-1" d="M44.9834,15.3213V.1807H51.48V2.4746H47.2656V6.6035h3.0786V8.8984H47.2656v4.1289H51.48v2.294Z"/><path class="cls-1" d="M68.2979,11.8438l-.5542,3.4775H65.3672L67.94.1924h3.1386l2.5357,15.1289H71.2144L70.68,11.8438Zm1.1987-8.1856-.8452,5.9639h1.69Z"/><path class="cls-1" d="M81.1553.1807l3.0283,10.1757V.1807h2.2817V15.3213H84.0146L80.8755,5.626v9.6953H78.5933V.1807Z"/><path class="cls-1" d="M95.1514,15.5146a3.6075,3.6075,0,0,1-3.6221-3.61V3.6455A3.4818,3.4818,0,0,1,92.5918,1.08a3.6218,3.6218,0,0,1,5.12.0058,3.51,3.51,0,0,1,1.05,2.56V5.3721H96.395V3.5977a1.32,1.32,0,0,0-1.3159-1.3165,1.2479,1.2479,0,0,0-.9238.3868,1.278,1.278,0,0,0-.38.93V11.88a1.2988,1.2988,0,0,0,1.3037,1.3047,1.277,1.277,0,0,0,.93-.3809,1.2477,1.2477,0,0,0,.3862-.9238V9.791h2.3667v2.1133a3.6074,3.6074,0,0,1-3.61,3.61Z"/><path class="cls-1" d="M105.9746,15.3213h-2.2817V.1924h2.2817Z"/><path class="cls-1" d="M111.0752,15.3213V.1807H117.57V2.4746h-4.2139V6.6035h3.0791V8.8984h-3.0791v4.1289H117.57v2.294Z"/><path class="cls-1" d="M124.7617.1807,127.79,10.3564V.1807h2.2823V15.3213h-2.4512l-3.14-9.6953v9.6953H122.2V.1807Z"/><path class="cls-1" d="M137.3945,2.4863h-2.4267V.1924h7.123V2.4863h-2.415v12.835h-2.2813Z"/><path class="cls-1" d="M158.4062,2.4863H155.98V.1924h7.123V2.4863h-2.415v12.835h-2.2813Z"/><path class="cls-1" d="M170.2783,15.3213h-2.2812V.1924h2.2812Z"/><path class="cls-1" d="M177.6611,15.3213H175.38V.1807h3.2744l2.1269,10.8759L182.8223.1807h3.1465V15.3213h-2.2823V5.8066l-1.98,9.5147h-1.835l-2.21-9.49Z"/><path class="cls-1" d="M191.0684,15.3213V.1807h6.4951V2.4746H193.35V6.6035h3.0791V8.8984H193.35v4.1289h4.2139v2.294Z"/><path class="cls-1" d="M209.74,11.5547a4.2583,4.2583,0,0,1-.8213,2.7041A2.9566,2.9566,0,0,1,207.35,15.333a4.2608,4.2608,0,0,1-1.2676.169,3.5831,3.5831,0,0,1-2.2216-.6641,3.6975,3.6975,0,0,1-1.1651-1.4785,5.9516,5.9516,0,0,1-.501-2.1436l2.1729-.1562a3.304,3.304,0,0,0,.7,1.917,1.1656,1.1656,0,0,0,.9424.4248,1.4146,1.4146,0,0,0,1.1953-.7373,1.8352,1.8352,0,0,0,.2285-1.003,2.7848,2.7848,0,0,0-.8565-1.873q-.6766-.64-2.0283-1.9209a8.6838,8.6838,0,0,1-1.6064-1.9707,4.5558,4.5558,0,0,1-.5069-2.127A3.7,3.7,0,0,1,203.8242.64a3.45,3.45,0,0,1,2.125-.64,3.8643,3.8643,0,0,1,2.0889.543,3.1484,3.1484,0,0,1,1.0928,1.1836,4.3886,4.3886,0,0,1,.5009,1.75l-2.1855.3984a2.631,2.631,0,0,0-.5313-1.4482,1.1157,1.1157,0,0,0-.9052-.375,1.0428,1.0428,0,0,0-.9541.5556,2.1352,2.1352,0,0,0-.2657,1.1114,3.3307,3.3307,0,0,0,.8936,2.1123,7.5339,7.5339,0,0,0,1.0137.9658q.7968.665,1.0507.93a7.7433,7.7433,0,0,1,1.3038,1.666,6.3149,6.3149,0,0,1,.3505.7129A4.1532,4.1532,0,0,1,209.74,11.5547Z"/></svg>