<svg id="Layer_1" data-name="Layer 1" xmlns="http://www.w3.org/2000/svg" width="216.6514" height="15.5146" viewBox="0 0 216.6514 15.5146"><defs><style>.cls-1{fill:#ac9655;}</style></defs><title>frame2</title><path class="cls-1" d="M7.5469,11.5547a4.2589,4.2589,0,0,1-.8213,2.7041A2.9569,2.9569,0,0,1,5.1562,15.333a4.2628,4.2628,0,0,1-1.2685.169,3.5822,3.5822,0,0,1-2.2207-.6641A3.708,3.708,0,0,1,.501,13.3594,5.9892,5.9892,0,0,1,0,11.2158L2.1738,11.06a3.304,3.304,0,0,0,.7,1.917,1.1652,1.1652,0,0,0,.9414.4248,1.4144,1.4144,0,0,0,1.1953-.7373,1.825,1.825,0,0,0,.2295-1.003,2.7817,2.7817,0,0,0-.8574-1.873q-.6753-.64-2.0283-1.9209A8.6515,8.6515,0,0,1,.749,5.8965,4.5557,4.5557,0,0,1,.2422,3.77,3.7017,3.7017,0,0,1,1.63.64,3.4543,3.4543,0,0,1,3.7549,0,3.86,3.86,0,0,1,5.8438.543,3.1323,3.1323,0,0,1,6.9365,1.7266a4.3581,4.3581,0,0,1,.501,1.75L5.2529,3.875a2.6387,2.6387,0,0,0-.5312-1.4482,1.1167,1.1167,0,0,0-.9063-.375,1.0425,1.0425,0,0,0-.9531.5556,2.1362,2.1362,0,0,0-.2656,1.1114,3.329,3.329,0,0,0,.8926,2.1123,7.5438,7.5438,0,0,0,1.0146.9658q.7969.665,1.0508.93a7.7426,7.7426,0,0,1,1.3037,1.666,6.3139,6.3139,0,0,1,.35.7129A4.1568,4.1568,0,0,1,7.5469,11.5547Z"/><path class="cls-1" d="M14.7842,15.3213H12.502V.1924h2.2822Z"/><path class="cls-1" d="M22.4463.1807l3.0283,10.1757V.1807h2.2813V15.3213h-2.45L22.166,5.626v9.6953H19.8838V.1807Z"/><path class="cls-1" d="M36.4424,15.5146a3.6077,3.6077,0,0,1-3.6221-3.61V3.6455A3.48,3.48,0,0,1,33.8828,1.08a3.6213,3.6213,0,0,1,5.1192.0058,3.5112,3.5112,0,0,1,1.0507,2.56V5.3721H37.6855V3.5977A1.3187,1.3187,0,0,0,36.37,2.2812a1.2479,1.2479,0,0,0-.9238.3868,1.2761,1.2761,0,0,0-.38.93V11.88A1.2988,1.2988,0,0,0,36.37,13.1846a1.277,1.277,0,0,0,.93-.3809,1.2491,1.2491,0,0,0,.3857-.9238V9.791h2.3672v2.1133a3.6074,3.6074,0,0,1-3.61,3.61Z"/><path class="cls-1" d="M44.9834,15.3213V.1807H51.48V2.4746H47.2656V6.6035h3.0791V8.8984H47.2656v4.1289H51.48v2.294Z"/><path class="cls-1" d="M68.2979,11.8438l-.5538,3.4775H65.3672L67.94.1924h3.1386l2.5362,15.1289h-2.4l-.5341-3.4775Zm1.1992-8.1856-.8457,5.9639h1.69Z"/><path class="cls-1" d="M81.1553.1807l3.0283,10.1757V.1807h2.2822V15.3213H84.0146L80.876,5.626v9.6953H78.5938V.1807Z"/><path class="cls-1" d="M95.1514,15.5146a3.6075,3.6075,0,0,1-3.6221-3.61V3.6455A3.4838,3.4838,0,0,1,92.5918,1.08a3.6224,3.6224,0,0,1,5.12.0058,3.51,3.51,0,0,1,1.05,2.56V5.3721H96.3955V3.5977a1.32,1.32,0,0,0-1.3164-1.3165,1.2479,1.2479,0,0,0-.9238.3868,1.28,1.28,0,0,0-.38.93V11.88a1.2988,1.2988,0,0,0,1.3037,1.3047,1.277,1.277,0,0,0,.93-.3809,1.2463,1.2463,0,0,0,.3867-.9238V9.791h2.3662v2.1133a3.6074,3.6074,0,0,1-3.61,3.61Z"/><path class="cls-1" d="M105.9746,15.3213h-2.2822V.1924h2.2822Z"/><path class="cls-1" d="M111.0752,15.3213V.1807H117.57V2.4746h-4.2129V6.6035h3.0781V8.8984h-3.0781v4.1289H117.57v2.294Z"/><path class="cls-1" d="M124.7627.1807l3.0283,10.1757V.1807h2.2822V15.3213h-2.4511l-3.14-9.6953v9.6953h-2.2812V.1807Z"/><path class="cls-1" d="M137.3945,2.4863h-2.4267V.1924h7.123V2.4863h-2.415v12.835h-2.2813Z"/><path class="cls-1" d="M158.4062,2.4863H155.98V.1924h7.123V2.4863h-2.415v12.835h-2.2813Z"/><path class="cls-1" d="M170.2783,15.3213h-2.2812V.1924h2.2812Z"/><path class="cls-1" d="M177.6621,15.3213h-2.2812V.1807h3.2744l2.1269,10.8759L182.8232.1807H185.97V15.3213h-2.2822V5.8066l-1.9805,9.5147h-1.8349l-2.21-9.49Z"/><path class="cls-1" d="M191.0693,15.3213V.1807h6.4952V2.4746h-4.2139V6.6035H196.43V8.8984h-3.0791v4.1289h4.2139v2.294Z"/><path class="cls-1" d="M209.7412,11.5547a4.2589,4.2589,0,0,1-.8213,2.7041,2.9566,2.9566,0,0,1-1.5693,1.0742,4.2612,4.2612,0,0,1-1.2676.169,3.5834,3.5834,0,0,1-2.2217-.6641,3.6973,3.6973,0,0,1-1.165-1.4785,5.9516,5.9516,0,0,1-.501-2.1436l2.1729-.1562a3.3026,3.3026,0,0,0,.7,1.917,1.1655,1.1655,0,0,0,.9423.4248,1.4146,1.4146,0,0,0,1.1954-.7373,1.8352,1.8352,0,0,0,.2285-1.003,2.7848,2.7848,0,0,0-.8565-1.873q-.6766-.64-2.0283-1.9209a8.6838,8.6838,0,0,1-1.6064-1.9707,4.5558,4.5558,0,0,1-.5069-2.127A3.7,3.7,0,0,1,203.8252.64,3.45,3.45,0,0,1,205.95,0a3.8643,3.8643,0,0,1,2.0889.543,3.1473,3.1473,0,0,1,1.0927,1.1836,4.3871,4.3871,0,0,1,.501,1.75l-2.1855.3984a2.631,2.631,0,0,0-.5313-1.4482,1.1158,1.1158,0,0,0-.9053-.375,1.0429,1.0429,0,0,0-.9541.5556,2.1362,2.1362,0,0,0-.2656,1.1114,3.3307,3.3307,0,0,0,.8936,2.1123,7.5321,7.5321,0,0,0,1.0136.9658q.7969.665,1.0508.93a7.7394,7.7394,0,0,1,1.3037,1.666,6.3169,6.3169,0,0,1,.3506.7129A4.1532,4.1532,0,0,1,209.7412,11.5547Z"/><path class="cls-1" d="M214.37,13.0518h2.2813V15.333H214.37Z"/></svg>