<svg id="Layer_1" data-name="Layer 1" xmlns="http://www.w3.org/2000/svg" width="970" height="250" viewBox="0 0 970 250"><defs><style>.cls-1{fill:#ab9555;}</style></defs><title>frame1_1</title><path class="cls-1" d="M418.15426,161.427V140.0515h9.16992v3.23828H421.375v5.83057h4.34668v3.23828H421.375v5.83008h5.94922V161.427Z"/><path class="cls-1" d="M443.02535,156.31371a4.95488,4.95488,0,0,1-1.4834,3.61328,4.84882,4.84882,0,0,1-3.5791,1.5h-5.0625V140.0515h5.0625a4.84348,4.84348,0,0,1,3.58789,1.5,4.95258,4.95258,0,0,1,1.47461,3.59717Zm-6.90429,1.92578h1.94336a1.72211,1.72211,0,0,0,1.29589-.55371,1.82988,1.82988,0,0,0,.52832-1.30469V145.19945a1.804,1.804,0,0,0-.53711-1.3125,1.74092,1.74092,0,0,0-1.2871-.54541h-1.94336Z"/><path class="cls-1" d="M454.29391,161.66527a5.06157,5.06157,0,0,1-5.09571-5.0791V140.0681h3.15332V156.552a1.76025,1.76025,0,0,0,.54493,1.30371,1.80244,1.80244,0,0,0,1.3125.53711,1.83385,1.83385,0,0,0,1.84082-1.84082V140.0681h3.3584v16.51807a4.852,4.852,0,0,1-1.5,3.61328A4.9837,4.9837,0,0,1,454.29391,161.66527Z"/><path class="cls-1" d="M470.6943,161.69945a5.09139,5.09139,0,0,1-5.11328-5.09668V144.94359a5.105,5.105,0,1,1,10.21,0v2.4375h-3.34082v-2.50488a1.86469,1.86469,0,0,0-1.8584-1.85889,1.75761,1.75761,0,0,0-1.30371.54639,1.80087,1.80087,0,0,0-.53711,1.3125v11.69238a1.83386,1.83386,0,0,0,1.84082,1.8418,1.80475,1.80475,0,0,0,1.3125-.53711,1.76485,1.76485,0,0,0,.5459-1.30469v-2.94824H475.791v2.98242a5.09128,5.09128,0,0,1-5.09668,5.09668Z"/><path class="cls-1" d="M485.12789,156.51781l-.78222,4.90918h-3.3545L484.622,140.0681h4.43164l3.5791,21.35889h-3.38769l-.75391-4.90918Zm1.69238-11.55664-1.19335,8.41992h2.38671Z"/><path class="cls-1" d="M499.11227,143.30736h-3.42578V140.0681h10.05664v3.23926H502.334V161.427h-3.22168Z"/><path class="cls-1" d="M514.914,161.427h-3.2207V140.0681h3.2207Z"/><path class="cls-1" d="M526.21676,139.79564a5.10633,5.10633,0,0,1,5.11426,5.11475v11.6582a5.105,5.105,0,1,1-10.21,0v-11.6582a5.10634,5.10634,0,0,1,5.0957-5.11475Zm1.75586,5.04639a1.83221,1.83221,0,0,0-1.84082-1.84131,1.80544,1.80544,0,0,0-1.3125.53613,1.76581,1.76581,0,0,0-.54492,1.30518v11.69336a1.76334,1.76334,0,0,0,.54492,1.30371,1.80635,1.80635,0,0,0,1.3125.53711,1.83385,1.83385,0,0,0,1.84082-1.84082Z"/><path class="cls-1" d="M541.13766,140.0515l4.27539,14.36572V140.0515h3.22168V161.427h-3.46l-4.43262-13.6875V161.427h-3.2207V140.0515Z"/><path class="cls-1" d="M554.20992,158.22289h3.22071v3.2207h-3.22071Z"/></svg>