<svg id="Layer_1" data-name="Layer 1" xmlns="http://www.w3.org/2000/svg" width="300" height="600" viewBox="0 0 300 600"><defs><style>.cls-1{fill:#ab9555;}</style></defs><title>frame3</title><path class="cls-1" d="M78.84511,309.51953v-21.375h4.82324a6.14406,6.14406,0,0,1,3.44336,1.00586,4.68015,4.68015,0,0,1,1.875,2.64209,7.45527,7.45527,0,0,1,.30664,2.2666,5.01953,5.01953,0,0,1-1.1416,3.44336,3.24124,3.24124,0,0,1-1.125.83545A3.74139,3.74139,0,0,1,88.85,299.957a6.2866,6.2866,0,0,1,.7334,2.11328,8.47654,8.47654,0,0,1,.11914,1.4834,7.13892,7.13892,0,0,1-.7666,3.44238,4.93752,4.93752,0,0,1-4.125,2.52344Zm3.47656-12.64795h1.34668a1.97348,1.97348,0,0,0,2.01172-1.46582,4.178,4.178,0,0,0,.1875-1.34668,2.81674,2.81674,0,0,0-.64746-2.01123,2.03994,2.03994,0,0,0-1.55176-.63037H82.32167Zm0,9.46045h1.34668a2.28691,2.28691,0,0,0,2.26758-1.6875,3.71607,3.71607,0,0,0,.22168-1.33008A4.04263,4.04263,0,0,0,85.475,300.707a2.19759,2.19759,0,0,0-1.80664-.75H82.32167Z"/><path class="cls-1" d="M100.45741,288.16162a4.91117,4.91117,0,0,1,3.95411,1.48291,5.38644,5.38644,0,0,1,1.10839,3.61377v3.102a4.99156,4.99156,0,0,1-1.72168,3.83545l2.38575,9.32373h-3.4834l-1.95313-8.0459H98.599v8.0459H95.37831V288.16162Zm1.92579,5.14746a1.63467,1.63467,0,0,0-1.84083-1.85791H98.599v6.83545h1.94335a1.76255,1.76255,0,0,0,1.30469-.54541,1.80545,1.80545,0,0,0,.53614-1.3125Z"/><path class="cls-1" d="M111.82655,309.51953v-21.375h9.16993v3.23877h-5.94922v5.82959h4.34668v3.23828h-4.34668v5.8291h5.94922v3.23926Z"/><path class="cls-1" d="M130.2289,304.61035l-.78223,4.90918h-3.35449l3.63086-21.35791h4.43164l3.5791,21.35791h-3.38769l-.75391-4.90918Zm1.69238-11.55664-1.19336,8.41992h2.38672Z"/><path class="cls-1" d="M143.7328,291.40039H140.307v-3.23877h10.05664v3.23877h-3.40918v18.11914H143.7328Z"/><path class="cls-1" d="M159.05605,300.46826v9.05127h-3.22071V288.16162h3.22071V297.23h3.88672v-9.06836h3.22168v21.35791h-3.22168v-9.05127Z"/><path class="cls-1" d="M171.92421,309.51953v-21.375h9.16992v3.23877h-5.94922v5.82959h4.34668v3.23828h-4.34668v5.8291h5.94922v3.23926Z"/><path class="cls-1" d="M195.94667,309.51953H192.726V288.16162h3.2207Z"/><path class="cls-1" d="M205.3246,288.14453,209.6,302.50977V288.14453h3.22168v21.375h-3.46l-4.43262-13.6875v13.6875h-3.2207v-21.375Z"/><path class="cls-1" d="M217.91737,306.31445h3.22071v3.22168h-3.22071Z"/></svg>