<svg id="Content" xmlns="http://www.w3.org/2000/svg" width="300" height="600" viewBox="0 0 300 600"><defs><style>.cls-1{fill:#fff;stroke:#ba9544;stroke-miterlimit:10;stroke-width:0.5px;}.cls-2{fill:#ba9544;}</style></defs><title>THC - Durga Mata</title><polygon class="cls-1" points="242.818 265.768 56.737 265.063 47.343 278.609 56.737 291.915 242.818 291.598 251.273 278.684 242.818 265.768"/><polygon class="cls-2" points="56.872 265.063 47.479 278.609 56.872 291.915 75.49 291.915 75.285 265.063 56.872 265.063"/><path class="cls-2" d="M163.24121,274.17058v1.7002H160.2041v7.41015h-1.82226v-7.41015H155.3457v-1.7002Z"/><path class="cls-2" d="M164.5957,283.28093v-9.11035H166.418v3.64453h4.24512v-3.65039h1.82226v9.11036l-1.82226.00585v-3.76562H166.418v3.76562Z"/><path class="cls-2" d="M175.3125,281.97136a4.55632,4.55632,0,0,1,3.24023-7.80078,4.92453,4.92453,0,0,1,3.34668,1.21485l-1.21484,1.33007a3.35551,3.35551,0,0,0-2.13184-.72851,2.59592,2.59592,0,0,0-2.72656,2.709,2.73069,2.73069,0,0,0,.75879,2.01563,2.6893,2.6893,0,0,0,1.98047.74707,3.26538,3.26538,0,0,0,2.11914-.72266l1.21484,1.33008a4.91528,4.91528,0,0,1-3.34668,1.21484A4.43158,4.43158,0,0,1,175.3125,281.97136Z"/><path class="cls-2" d="M183.94043,277.47136a.88086.88086,0,0,1,.65625-.24609.911.911,0,0,1,.67969.24609.83349.83349,0,0,1,.24316.61036.82215.82215,0,0,1-.24316.60742,1.039,1.039,0,0,1-1.33594,0,.82215.82215,0,0,1-.24316-.60742A.83349.83349,0,0,1,183.94043,277.47136Zm0,4.34864a.88407.88407,0,0,1,.65625-.24512.91434.91434,0,0,1,.67969.24512.835.835,0,0,1,.24316.61035.82368.82368,0,0,1-.24316.60742,1.039,1.039,0,0,1-1.33594,0,.82368.82368,0,0,1-.24316-.60742A.835.835,0,0,1,183.94043,281.82Z"/><path class="cls-2" d="M195.54688,274.17644v-.01172h1.8164v5.2959h1.22656v1.81543h-1.22656v2.00488h-1.8164v-2.00488h-4.13575v-1.81543h.06055l-.05469-.06152Zm0,5.28418V276.5573l-2.2168,2.90332Z"/><path class="cls-2" d="M199.98047,280.84539v-1.208h3.76562v1.208Z"/><path class="cls-2" d="M210.46387,278.66472c.10937.041.209.08106.29785.1211a1.78636,1.78636,0,0,1,.9414,1.82226,2.34,2.34,0,0,1-.88378,2.03516,4.37484,4.37484,0,0,1-4.54883,0,2.33754,2.33754,0,0,1-.88379-2.03516,1.78638,1.78638,0,0,1,.9414-1.82226c.08887-.04.1875-.08008.29688-.1211q-.09668-.04833-.17578-.09082a1.80173,1.80173,0,0,1-.82031-1.73144,2.49306,2.49306,0,0,1,.793-1.97363,3.5752,3.5752,0,0,1,4.24511,0,2.48989,2.48989,0,0,1,.793,1.97363,1.803,1.803,0,0,1-.81934,1.73144C210.58789,278.60222,210.52832,278.6325,210.46387,278.66472Zm-1.91895-.82617c.53418-.01562.87793-.15625,1.03223-.41894a.97014.97014,0,0,0,0-1.03223,1.16394,1.16394,0,0,0-1.03223-.50977,1.14733,1.14733,0,0,0-1.02637.50977.95045.95045,0,0,0,0,1.03223C207.668,277.6823,208.00977,277.82293,208.54492,277.83855Zm0,1.66992a1.35376,1.35376,0,0,0-1.02637.52344.95045.95045,0,0,0,0,1.03223,1.1542,1.1542,0,0,0,1.02637.51074,1.171,1.171,0,0,0,1.03223-.51074.97014.97014,0,0,0,0-1.03223A1.37913,1.37913,0,0,0,208.54492,279.50847Z"/><path class="cls-2" d="M213.82227,278.01433a2.34728,2.34728,0,1,1,1.62793.65625A2.20866,2.20866,0,0,1,213.82227,278.01433Zm1.61035-.42383a1.08683,1.08683,0,0,0,.832-.34667,1.31388,1.31388,0,0,0,0-1.72168,1.099,1.099,0,0,0-.83887-.34375,1.08081,1.08081,0,0,0-.82519.34375,1.31086,1.31086,0,0,0,0,1.72168A1.0839,1.0839,0,0,0,215.43262,277.5905Zm-.48633,5.69043,5.16309-9.11035h1.48144l-5.15039,9.11035Zm4.52539-.60058a2.33344,2.33344,0,1,1,1.61523.64941A2.19474,2.19474,0,0,1,219.47168,282.68035Zm1.585-.44434a1.06368,1.06368,0,0,0,.81348-.33691,1.26763,1.26763,0,0,0,0-1.67578,1.14932,1.14932,0,0,0-1.62793,0,1.27056,1.27056,0,0,0,0,1.67578A1.06724,1.06724,0,0,0,221.05664,282.236Z"/></svg>