<svg id="Content" xmlns="http://www.w3.org/2000/svg" xmlns:xlink="http://www.w3.org/1999/xlink" width="640" height="1136" viewBox="0 0 640 1136"><defs><style>.cls-1{fill:url(#New_Gradient_Swatch_1);}.cls-2{fill:#fff;}.cls-3{fill:#ba9544;}</style><linearGradient id="New_Gradient_Swatch_1" x1="274.2742" y1="462.54352" x2="369.63539" y2="462.54352" gradientUnits="userSpaceOnUse"><stop offset="0" stop-color="#a88a34"/><stop offset="0.49324" stop-color="#caaf67"/><stop offset="1" stop-color="#957f2e"/></linearGradient></defs><title>fruity</title><polygon class="cls-1" points="313.886 511.321 274.274 465.576 305.541 413.766 364.477 427.491 369.635 487.782 313.886 511.321"/><path class="cls-2" d="M341.17706,449.47c3.26362-.98815,4.17471-3.62624,6.09662-4.53734-3.79849-1.55928-6.02863-1.94911-8.28143-.87936a5.63371,5.63371,0,0,0-3.34975,4.17925,5.81258,5.81258,0,0,0,5.53456,1.23745"/><path class="cls-2" d="M334.13943,454.96784a17.54686,17.54686,0,0,0-4.29711-13.25393.29547.29547,0,0,0-.42154-.0136l-.0136.0136-.893.91564a.30039.30039,0,0,0-.00906.40794,15.89359,15.89359,0,0,1,3.726,11.99835c-7.82815-4.58721-16.05973.42608-15.679,8.75285a21.66784,21.66784,0,0,0,.66179,4.279,36.73866,36.73866,0,0,0,16.70793,7.57885,4.37211,4.37211,0,0,1,2.13949,1.06521,3.15729,3.15729,0,0,1,1.00628,2.2256l.02719.82044a4.48928,4.48928,0,0,1-.19943,1.45051,6.37272,6.37272,0,0,1-.28558.90655c6.52725.32184,12.71-10.05829,13.09075-18.32613.38075-8.28144-7.76923-13.28566-15.56112-8.82085"/><path class="cls-2" d="M334.51928,478.3816a2.15048,2.15048,0,0,0-1.038-.50767c-13.20406-2.6245-24.31851-10.15349-28.91477-25.71008a3.55139,3.55139,0,0,0-.46235-.893,2.09886,2.09886,0,0,1-.31276-1.19667l.10425-2.95086a.79748.79748,0,0,0-.77058-.82949h-.03173l-1.56381.01359a.79606.79606,0,0,0-.79324.8023.52092.52092,0,0,0,.00453.08613l.36715,3.16843a1.97,1.97,0,0,1-.43061,1.27372,5.072,5.072,0,0,0-.51674,2.6653c-.3173,24.79445,16.44049,32.01974,31.911,28.20765,1.96723-.485,2.15308-.8023,2.32079-1.038a3.52561,3.52561,0,0,0,.30823-.8839,2.07678,2.07678,0,0,0,.11786-.76151l-.02267-.8159a.898.898,0,0,0-.27649-.63007"/><path class="cls-3" d="M276.28076,557.11638V539.18864h12.60938v3.34668H279.8667v3.82422h6.65723v3.335H279.8667v7.42188Z"/><path class="cls-3" d="M302.2876,549.3l4.46972,7.81641H302.646l-4.291-7.41016h-3.27441v7.41016h-3.58594V539.18864H299.311q6.27538,0,6.27539,5.16309Q305.58643,548.23649,302.2876,549.3Zm-7.207-2.94043h5.01953q2.16357-.03516,2.22265-1.97168-.05859-1.76806-2.18652-1.84082h-5.05566Z"/><path class="cls-3" d="M311.93213,539.18864v10.39844a3.5945,3.5945,0,0,0,1.19531,2.9873,5.14814,5.14814,0,0,0,5.97656,0,3.59687,3.59687,0,0,0,1.19434-2.9873V539.18864h3.58545v11.35449a5.94184,5.94184,0,0,1-2.21094,4.66114,9.032,9.032,0,0,1-11.11474,0,5.93882,5.93882,0,0,1-2.21094-4.66114V539.18864Z"/><path class="cls-3" d="M327.75586,539.17692h3.57422v17.93946h-3.57422Z"/><path class="cls-3" d="M349.55566,539.18864v3.34668h-5.97558v14.58106h-3.58594V542.53532h-5.97559v-3.34668Z"/><path class="cls-3" d="M351.169,539.18864h4.207l4.15918,5.85645,4.25488-5.85645h4.11133l-6.57325,8.96387v8.96387h-3.585v-8.96387Z"/></svg>