<svg id="Layer_1" data-name="Layer 1" xmlns="http://www.w3.org/2000/svg" width="375" height="132" viewBox="0 0 375 132"><defs><style>.cls-1{fill:#fff;}</style></defs><title>gratitude</title><path class="cls-1" d="M174.56716,86.44709h-1.69429V75.20964h2.42745l1.57723,8.05835,1.51562-8.05835h2.335V86.44709h-1.69429V79.38683l-1.46427,7.06026h-1.35983l-1.64265-7.04178Z"/><path class="cls-1" d="M185.39768,75.0741a2.68749,2.68749,0,0,1,2.69238,2.69238v6.12994a2.6875,2.6875,0,0,1-2.69238,2.69267,2.56294,2.56294,0,0,1-1.89437-.78862,2.60929,2.60929,0,0,1-.77952-1.904V77.76648a2.68755,2.68755,0,0,1,2.67389-2.69238Zm.92416,2.66069a.95678.95678,0,0,0-.96728-.9664.94807.94807,0,0,0-.68711.28018.92333.92333,0,0,0-.28634.68622v6.15048a.92689.92689,0,0,0,.28634.683.943.943,0,0,0,.68711.2834.96212.96212,0,0,0,.96728-.9664Z"/><path class="cls-1" d="M192.75954,75.20964a2.56738,2.56738,0,0,1,2.07657.78246,2.827,2.827,0,0,1,.585,1.8976v1.63267a2.612,2.612,0,0,1-.9042,2.01466l1.25568,4.91006H193.9454l-1.03389-4.24466c-.04928.0041-.10033.00586-.15373.00586h-.97168v4.2388h-1.694V75.20964ZM193.77,77.9205a.85912.85912,0,0,0-.964-.9796h-1.0198v3.59188h1.0198a.92147.92147,0,0,0,.68475-.28634.95075.95075,0,0,0,.2793-.6871Z"/><path class="cls-1" d="M197.73121,86.44709V75.20964h4.8238v1.69429H199.4252v3.08052h2.28546v1.694H199.4252V84.7531H202.555v1.694Z"/><path class="cls-1" d="M208.57992,86.58909a2.68149,2.68149,0,0,1-2.68621-2.68035V77.75415a2.683,2.683,0,1,1,5.366,0v1.2815h-1.75619v-1.3123a.97814.97814,0,0,0-.97931-.97961.92434.92434,0,0,0-.68358.28664.94676.94676,0,0,0-.284.693v6.1672a.96865.96865,0,0,0,.96758.97345.94855.94855,0,0,0,.693-.28341.93277.93277,0,0,0,.28634-.69V81.67844h-.94234v-1.694h2.69853v3.92429a2.67745,2.67745,0,0,1-2.67976,2.68035Z"/><path class="cls-1" d="M215.89866,75.20964a2.566,2.566,0,0,1,2.076.78246,2.82713,2.82713,0,0,1,.5856,1.8976v1.63267A2.61393,2.61393,0,0,1,217.656,81.537l1.25509,4.91006h-1.82719l-1.03329-4.24466c-.04929.0041-.10034.00586-.15373.00586h-.97169v4.2388h-1.694V75.20964Zm1.01041,2.71086a.85913.85913,0,0,0-.96406-.9796h-1.0198v3.59188h1.0198a.92151.92151,0,0,0,.68476-.28634.95079.95079,0,0,0,.2793-.6871Z"/><path class="cls-1" d="M222.95217,83.86591l-.41308,2.58118h-1.76148l1.90347-11.23745h2.33533l1.87883,11.23745h-1.77438l-.40018-2.58118Zm.88719-6.081-.62843,4.42979h1.25686Z"/><path class="cls-1" d="M229.04515,76.90393h-1.799V75.20964h5.28559v1.69429h-1.79257v9.54316h-1.694Z"/><path class="cls-1" d="M236.09279,86.44709h-1.694V75.20964h1.694Z"/><path class="cls-1" d="M239.7589,76.90393h-1.799V75.20964h5.28559v1.69429H241.4529v9.54316h-1.694Z"/><path class="cls-1" d="M247.78,86.58909a2.66149,2.66149,0,0,1-2.6733-2.668V75.20964h1.657v8.69323a.92726.92726,0,0,0,.28634.68359.94293.94293,0,0,0,.6871.2834.96264.96264,0,0,0,.96758-.967V75.20964h1.76792v8.71142a2.548,2.548,0,0,1-.78861,1.8976A2.62668,2.62668,0,0,1,247.78,86.58909Z"/><path class="cls-1" d="M257.8043,83.76088a2.59749,2.59749,0,0,1-.78274,1.8976,2.55286,2.55286,0,0,1-1.87883.78861h-2.66157V75.20964h2.66157a2.54529,2.54529,0,0,1,1.8847.78862,2.601,2.601,0,0,1,.77687,1.89144Zm-3.62914,1.01041h1.0198a.899.899,0,0,0,.68123-.2928.96718.96718,0,0,0,.27695-.68652V77.91434a.94308.94308,0,0,0-.28282-.68681.91473.91473,0,0,0-.67536-.28663h-1.0198Z"/><path class="cls-1" d="M259.79344,86.44709V75.20964h4.8238v1.69429h-3.12981v3.08052h2.28545v1.694h-2.28545V84.7531h3.12981v1.694Z"/><path class="cls-1" d="M266.28659,84.759h1.694v1.69457h-1.694Z"/></svg>