<svg xmlns="http://www.w3.org/2000/svg" xmlns:xlink="http://www.w3.org/1999/xlink" width="727.99955" height="90" viewBox="0 0 727.99955 90"><defs><style>.cls-1{fill:#ba9544;}.cls-2{fill:#fff;stroke:#ba9544;stroke-miterlimit:10;stroke-width:0.5px;}.cls-3{clip-path:url(#clip-path);}</style><clipPath id="clip-path"><polygon class="cls-1" points="221.661 59.938 228.27 69.3 244.497 69.311 244.497 50.41 228.27 50.405 221.661 59.938"/></clipPath></defs><title>CBD - Durga Mata</title><g id="Content"><polygon class="cls-2" points="359.055 50.88 228.126 50.384 221.517 59.915 228.126 69.277 359.055 69.054 365.003 59.968 359.055 50.88"/><polygon class="cls-1" points="221.661 59.938 228.27 69.3 244.497 69.311 244.497 50.41 228.27 50.405 221.661 59.938"/><g class="cls-3"><rect class="cls-1" x="220.19918" y="48.94417" width="9.65935" height="21.82789"/></g><path class="cls-1" d="M298.43731,63.06007a3.20665,3.20665,0,0,1,2.28028-5.48926,3.464,3.464,0,0,1,2.35449.8545l-.85449.93554a2.36255,2.36255,0,0,0-1.5-.51269,1.88392,1.88392,0,0,0-1.39063.53808,1.86329,1.86329,0,0,0-.52832,1.36817,1.92178,1.92178,0,0,0,.53418,1.41894,1.897,1.897,0,0,0,1.39355.52539,2.29841,2.29841,0,0,0,1.49122-.50879l.85449.93653a3.46,3.46,0,0,1-2.35449.85449A3.123,3.123,0,0,1,298.43731,63.06007Z"/><path class="cls-1" d="M309.00469,60.60011a1.82058,1.82058,0,0,1-1.043,3.38477l-3.60645-.00391V57.57472h3.40137q1.62012.09375,1.709,1.88477A1.33955,1.33955,0,0,1,309.00469,60.60011Zm-3.36328-.457h1.79493a.7237.7237,0,0,0,.79492-.79883q-.022-.47021-.78223-.49609h-1.80762Zm0,2.83789h2.09375a.83677.83677,0,0,0,.92286-.92773q-.02052-.61524-.91016-.64063h-2.10645Z"/><path class="cls-1" d="M311.17559,63.981v-6.415h2.47071q2.99121,0,2.99121,3.21,0,3.20508-2.99121,3.20508Zm2.47071-1.27832q1.70508-.00439,1.709-1.92676-.00439-1.92333-1.709-1.92383h-1.18848v3.85059Z"/><path class="cls-1" d="M318.06915,59.89308a.62022.62022,0,0,1,.46191-.17285.64319.64319,0,0,1,.47852.17285.586.586,0,0,1,.1709.42969.57629.57629,0,0,1-.1709.42676.73236.73236,0,0,1-.94043,0,.57629.57629,0,0,1-.1709-.42676A.586.586,0,0,1,318.06915,59.89308Zm0,3.05957a.62022.62022,0,0,1,.46191-.17285.64319.64319,0,0,1,.47852.17285.586.586,0,0,1,.1709.42969.58.58,0,0,1-.1709.42773.73233.73233,0,0,1-.94043,0,.58.58,0,0,1-.1709-.42773A.586.586,0,0,1,318.06915,62.95265Z"/><path class="cls-1" d="M327.86407,60.41261a4.25116,4.25116,0,0,1-.77148,2.8418,2.16553,2.16553,0,0,1-1.85254.70019,2.66491,2.66491,0,0,1-1.72266-.81152l.72266-.78613a2.24139,2.24139,0,0,0,1.06836.36328,1.13137,1.13137,0,0,0,.91406-.27344,1.72479,1.72479,0,0,0,.47461-1.04687,2.00618,2.00618,0,0,1-1.3291.42675,2.14316,2.14316,0,0,1-1.58106-.7373,2.19476,2.19476,0,0,1-.376-1.60449,2.10556,2.10556,0,0,1,.74512-1.45118,2.26474,2.26474,0,0,1,1.7627-.44628,2.088,2.088,0,0,1,1.44238.85058A3.6142,3.6142,0,0,1,327.86407,60.41261Zm-1.28223-.70508q-.04393-.89355-1.02636-.93164-.98292.03809-1.02539.84961a.96846.96846,0,0,0,1.06835,1.06934A.95353.95353,0,0,0,326.58184,59.70753Z"/><path class="cls-1" d="M328.99981,62.2671v-.85058h2.64942v.85058Z"/><path class="cls-1" d="M334.41387,57.57081v-.00488h1.27832v6.415h-1.27832V59.2798l-.85449.85449-.85449-.85449Z"/><path class="cls-1" d="M340.96075,60.73292c.07715.02832.14648.05664.21.085a1.25728,1.25728,0,0,1,.66211,1.28223,1.64616,1.64616,0,0,1-.707,1.3252,2.59367,2.59367,0,0,1-1.64746.55566,3.80157,3.80157,0,0,1-1.49219-.25684,3.23428,3.23428,0,0,1-1.02539-.68359l.85449-.85449a2.03129,2.03129,0,0,0,1.45313.59765q.85546,0,1.0664-.36328a.67667.67667,0,0,0,0-.72558q-.21093-.36329-1.48925-.40625v-1.1543q1.27734.08643,1.48925-.27734a.67838.67838,0,0,0,0-.72657q-.21093-.36327-1.0664-.36328a1.5224,1.5224,0,0,0-1.23926.5127l-.85449-.85449a2.9827,2.9827,0,0,1,.91894-.64161,3.593,3.593,0,0,1,1.38477-.21289,2.25724,2.25724,0,0,1,1.56152.55469,1.71977,1.71977,0,0,1,.62207,1.3252,1.26694,1.26694,0,0,1-.57715,1.21777C341.04766,60.689,341.00665,60.71046,340.96075,60.73292Z"/><path class="cls-1" d="M343.24786,60.27589a1.65264,1.65264,0,1,1,1.14551.46094A1.55572,1.55572,0,0,1,343.24786,60.27589Zm1.13183-.2998a.764.764,0,0,0,.58594-.24317.92362.92362,0,0,0,0-1.21191.77151.77151,0,0,0-.58984-.24121.76112.76112,0,0,0-.58106.24121.92362.92362,0,0,0,0,1.21191A.76335.76335,0,0,0,344.37969,59.97609ZM344.0379,63.981l3.63281-6.41016h1.043l-3.624,6.41016Zm3.18457-.42285a1.64213,1.64213,0,1,1,1.13672.457A1.54387,1.54387,0,0,1,347.22247,63.55812Zm1.11523-.3125a.74918.74918,0,0,0,.57227-.23731.89261.89261,0,0,0,0-1.17968.75469.75469,0,0,0-.57715-.23633.74428.74428,0,0,0-.56836.23633.89555.89555,0,0,0,0,1.17968A.75129.75129,0,0,0,348.3377,63.24562Z"/></g></svg>