<svg id="Content" xmlns="http://www.w3.org/2000/svg" xmlns:xlink="http://www.w3.org/1999/xlink" width="300" height="250" viewBox="0 0 300 250"><defs><style>.cls-1{fill:#ba9544;}</style></defs><title>Frame1 - Shishkaberry</title><path class="cls-1" d="M151.09473,141.4456c2.78222,0,4.21191,1.66407,4.21191,4.57618v.57226h-2.7041v-.75391c0-1.29882-.51953-1.793-1.42969-1.793s-1.42969.49414-1.42969,1.793c0,3.74415,5.58985,4.44727,5.58985,9.64649,0,2.91211-1.45606,4.57617-4.26367,4.57617-2.8086,0-4.26465-1.66406-4.26465-4.57617v-1.11719h2.7041v1.29883c0,1.30078.57226,1.76953,1.48242,1.76953s1.48145-.46875,1.48145-1.76953c0-3.74414-5.58985-4.44531-5.58985-9.64648C146.88281,143.10967,148.3125,141.4456,151.09473,141.4456Z"/><path class="cls-1" d="M161.5459,159.85576h-2.85938V141.65459h2.85938v7.80078h3.251v-7.80078h2.9121v18.20117h-2.9121V152.055h-3.251Z"/><path class="cls-1" d="M172.02441,141.65459h2.85938v18.20117h-2.85938Z"/><path class="cls-1" d="M182.52734,141.4456c2.78223,0,4.21192,1.66407,4.21192,4.57618v.57226h-2.7041v-.75391c0-1.29882-.51954-1.793-1.42969-1.793s-1.42969.49414-1.42969,1.793c0,3.74415,5.58984,4.44727,5.58984,9.64649,0,2.91211-1.45605,4.57617-4.26367,4.57617-2.80859,0-4.26465-1.66406-4.26465-4.57617v-1.11719h2.70411v1.29883c0,1.30078.57226,1.76953,1.48242,1.76953s1.48144-.46875,1.48144-1.76953c0-3.74414-5.58984-4.44531-5.58984-9.64648C178.31543,143.10967,179.74512,141.4456,182.52734,141.4456Z"/><path class="cls-1" d="M192.97852,159.85576h-2.85938V141.65459h2.85938v7.80078h3.251v-7.80078h2.91211v18.20117h-2.91211V152.055h-3.251Z"/><path class="cls-1" d="M207.7207,152.60185l-.88379,1.66407v5.58984h-2.86035V141.65459h2.86035v7.92969l3.74414-7.92969h2.86036l-3.97852,8.11133,3.97852,10.08984h-2.93848Z"/><path class="cls-1" d="M224.15234,159.85576H221.2666l-.49414-3.30273H217.2627l-.49415,3.30273h-2.626l2.91211-18.20117h4.18554Zm-6.52636-5.77344h2.75683l-1.3789-9.20312Z"/><path class="cls-1" d="M235.749,145.84013v.6504c0,1.873-.57226,3.06835-1.84668,3.666,1.53418.59766,2.13282,1.97656,2.13282,3.90039v1.48242c0,2.8086-1.48243,4.31641-4.34278,4.31641h-4.498V141.65459h4.3164C234.47461,141.65459,235.749,143.03349,235.749,145.84013Zm-5.69433-1.58593v4.81054h1.11816c1.06543,0,1.71582-.46875,1.71582-1.92382v-1.01368c0-1.30078-.44238-1.873-1.45605-1.873Zm0,7.41015v5.58985h1.63769c.96192,0,1.48242-.44141,1.48242-1.793v-1.58594c0-1.68945-.54589-2.21094-1.8457-2.21094Z"/><path class="cls-1" d="M242.8457,149.32451h3.92676v2.59961H242.8457v5.33008h4.94043v2.60156h-7.7998V141.65459h7.7998v2.59961H242.8457Z"/><path class="cls-1" d="M257.25,159.85576a5.59743,5.59743,0,0,1-.25977-2.23633V154.7581c0-1.68945-.57226-2.3125-1.87207-2.3125h-.98828v7.41016h-2.86035V141.65459h4.31641c2.96386,0,4.23828,1.3789,4.23828,4.18554v1.42969c0,1.873-.59863,3.09571-1.87207,3.69336,1.42969.59766,1.89746,1.97656,1.89746,3.87305v2.80859a5.35951,5.35951,0,0,0,.3125,2.21094Zm-3.12012-15.60156V149.844h1.11817c1.06543,0,1.71582-.4668,1.71582-1.92383v-1.793c0-1.30078-.44239-1.873-1.45606-1.873Z"/><path class="cls-1" d="M269.418,159.85576a5.59743,5.59743,0,0,1-.25977-2.23633V154.7581c0-1.68945-.57226-2.3125-1.87207-2.3125h-.98828v7.41016H263.4375V141.65459h4.31641c2.96386,0,4.23828,1.3789,4.23828,4.18554v1.42969c0,1.873-.59864,3.09571-1.87207,3.69336,1.42968.59766,1.89746,1.97656,1.89746,3.87305v2.80859a5.35951,5.35951,0,0,0,.3125,2.21094Zm-3.12012-15.60156V149.844H267.416c1.06543,0,1.71582-.4668,1.71582-1.92383v-1.793c0-1.30078-.44239-1.873-1.45606-1.873Z"/><path class="cls-1" d="M277.76367,153.82256l-3.61426-12.168h2.99024l2.18359,8.29492,2.18457-8.29492h2.72949l-3.61425,12.168v6.0332h-2.85938Z"/><image width="1500" height="1429" transform="translate(288.96119 -216.88859) scale(0.16637)" xlink:href="../../../../../Dropbox%20(Revolution%20Strategy)/Rocio%20Ugarte/Clients/Namaste/Digital%20Ads/_Flight%202:Phase%202%20Terpene/1.%20Animated%20w:%20Packaging/5.%20Big%20Box%20300%20x%20250/300%20x%20250_Folder/Links/LargeTopDown-8154-SensiStar.png"/><image width="1500" height="1429" transform="translate(288.96119 54.16968) scale(0.16637)" xlink:href="../../../../../Dropbox%20(Revolution%20Strategy)/Rocio%20Ugarte/Clients/Namaste/Digital%20Ads/_Flight%202:Phase%202%20Terpene/1.%20Animated%20w:%20Packaging/5.%20Big%20Box%20300%20x%20250/300%20x%20250_Folder/Links/LargeTopDown-8207-Shishkaberry.png"/></svg>