<svg id="Content" xmlns="http://www.w3.org/2000/svg" viewBox="0 0 728 360"><defs><style>.cls-1{fill:#ba9544;}</style></defs><title>Frame2 - Durga Mata</title><path class="cls-1" d="M89.56,109.51h7.31c4.62,0,6.89,2.56,6.89,7.27v14.87c0,4.7-2.27,7.26-6.89,7.26H89.56Zm4.62,4.2v21h2.61c1.47,0,2.35-.75,2.35-2.85V116.57c0-2.1-.88-2.86-2.35-2.86Z"/><path class="cls-1" d="M115.56,109.51v22.68c0,2.1.92,2.86,2.4,2.86s2.39-.76,2.39-2.86V109.51h4.37V131.9c0,4.7-2.35,7.39-6.89,7.39s-6.89-2.69-6.89-7.39V109.51Z"/><path class="cls-1" d="M142,138.91a9,9,0,0,1-.42-3.61v-4.62c0-2.73-.92-3.74-3-3.74h-1.59v12h-4.62v-29.4h7c4.79,0,6.85,2.23,6.85,6.76v2.31c0,3-1,5-3,6,2.31,1,3.07,3.19,3.07,6.26v4.53a8.68,8.68,0,0,0,.5,3.57Zm-5-25.2v9h1.8c1.73,0,2.78-.76,2.78-3.11v-2.9c0-2.1-.72-3-2.36-3Z"/><path class="cls-1" d="M160.58,122.53h6.47v9.33c0,4.7-2.35,7.39-6.89,7.39s-6.88-2.69-6.88-7.39V116.57c0-4.71,2.35-7.4,6.88-7.4s6.89,2.69,6.89,7.4v2.85h-4.37v-3.15c0-2.1-.92-2.9-2.39-2.9s-2.39.8-2.39,2.9v15.88c0,2.1.92,2.86,2.39,2.86s2.39-.76,2.39-2.86v-5.42h-2.1Z"/><path class="cls-1" d="M189.44,138.91h-4.66l-.8-5.33h-5.67l-.8,5.33h-4.24l4.7-29.4h6.77Zm-10.54-9.32h4.45l-2.23-14.87Z"/><path class="cls-1" d="M216.78,130.39l3.15-20.88h6.43v29.4H222V117.83l-3.19,21.08h-4.37L211,118.12v20.79h-4v-29.4h6.43Z"/><path class="cls-1" d="M249.12,138.91h-4.66l-.8-5.33H238l-.8,5.33H233l4.7-29.4h6.77Zm-10.54-9.32H243l-2.23-14.87Z"/><path class="cls-1" d="M254.37,109.51h14.28v4.2h-4.83v25.2H259.2v-25.2h-4.83Z"/><path class="cls-1" d="M290.07,138.91h-4.66l-.8-5.33h-5.67l-.8,5.33H273.9l4.7-29.4h6.77Zm-10.54-9.32H284l-2.23-14.87Z"/><path class="cls-1" d="M314.39,113.37c-1.47,0-2.4.8-2.4,2.9v3.15h-4.37v-2.85c0-4.71,2.36-7.4,6.89-7.4s6.89,2.69,6.89,7.4c0,9.24-9.2,12.68-9.2,17.51a3.33,3.33,0,0,0,0,.63H321v4.2H307.62V135.3c0-8.65,9.16-10.08,9.16-18.57C316.78,114.09,315.86,113.37,314.39,113.37Z"/></svg>