<svg id="Content" xmlns="http://www.w3.org/2000/svg" viewBox="0 0 728 360"><defs><style>.cls-1{fill:#ba9544;}</style></defs><title>Frame2 - Daytime CBD</title><path class="cls-1" d="M100.21,109.51h7.31c4.62,0,6.89,2.56,6.89,7.27v14.87c0,4.7-2.27,7.26-6.89,7.26h-7.31Zm4.62,4.2v21h2.61c1.47,0,2.35-.75,2.35-2.85V116.57c0-2.1-.88-2.86-2.35-2.86Z"/><path class="cls-1" d="M136.75,138.91h-4.66l-.8-5.33h-5.67l-.8,5.33h-4.24l4.7-29.4h6.77Zm-10.54-9.32h4.45l-2.23-14.87Z"/><path class="cls-1" d="M147.67,129.17l-5.84-19.66h4.83l3.53,13.4,3.53-13.4h4.41l-5.84,19.66v9.74h-4.62Z"/><path class="cls-1" d="M163.08,109.51h14.29v4.2h-4.84v25.2h-4.62v-25.2h-4.83Z"/><path class="cls-1" d="M183.83,109.51h4.62v29.4h-4.62Z"/><path class="cls-1" d="M206.05,130.39l3.15-20.88h6.43v29.4h-4.37V117.83l-3.19,21.08H203.7l-3.45-20.79v20.79h-4v-29.4h6.43Z"/><path class="cls-1" d="M228.06,121.9h6.34v4.2h-6.34v8.61h8v4.2h-12.6v-29.4H236v4.2h-8Z"/><path class="cls-1" d="M267.71,128v3.91c0,4.7-2.36,7.39-6.89,7.39s-6.89-2.69-6.89-7.39V116.57c0-4.71,2.35-7.4,6.89-7.4s6.89,2.69,6.89,7.4v2.85h-4.37v-3.15c0-2.1-.93-2.9-2.4-2.9s-2.39.8-2.39,2.9v15.88c0,2.1.92,2.86,2.39,2.86s2.4-.76,2.4-2.86V128Z"/><path class="cls-1" d="M288.79,116.27v1c0,3-.93,5-3,5.93,2.47,1,3.44,3.19,3.44,6.3v2.39c0,4.54-2.39,7-7,7H275v-29.4h7C286.73,109.51,288.79,111.74,288.79,116.27Zm-9.2-2.56v7.77h1.81c1.72,0,2.77-.76,2.77-3.11v-1.64c0-2.1-.72-3-2.35-3Zm0,12v9h2.65c1.55,0,2.39-.71,2.39-2.9v-2.56c0-2.73-.88-3.57-3-3.57Z"/><path class="cls-1" d="M296.47,109.51h7.31c4.62,0,6.89,2.56,6.89,7.27v14.87c0,4.7-2.27,7.26-6.89,7.26h-7.31Zm4.62,4.2v21h2.61c1.47,0,2.35-.75,2.35-2.85V116.57c0-2.1-.88-2.86-2.35-2.86Z"/></svg>