<svg id="Content" xmlns="http://www.w3.org/2000/svg" viewBox="0 0 728 90"><defs><style>.cls-1{fill:#ba9544;}</style></defs><title>Frame1 - Shiskaberry</title><path class="cls-1" d="M250.31,32.22c4.07,0,6.16,2.44,6.16,6.69v.84h-4v-1.1c0-1.9-.76-2.63-2.09-2.63s-2.09.73-2.09,2.63c0,5.47,8.16,6.49,8.16,14.09,0,4.26-2.12,6.69-6.23,6.69S244,57,244,52.74V51.11h4V53c0,1.9.84,2.58,2.17,2.58s2.17-.68,2.17-2.58c0-5.47-8.17-6.5-8.17-14.1C244.16,34.66,246.25,32.22,250.31,32.22Z"/><path class="cls-1" d="M267.11,59.12h-4.18V32.53h4.18v11.4h4.75V32.53h4.25V59.12h-4.25V47.73h-4.75Z"/><path class="cls-1" d="M283.18,32.53h4.18V59.12h-4.18Z"/><path class="cls-1" d="M300.05,32.22c4.07,0,6.16,2.44,6.16,6.69v.84h-3.95v-1.1c0-1.9-.76-2.63-2.09-2.63s-2.09.73-2.09,2.63c0,5.47,8.17,6.49,8.17,14.09,0,4.26-2.13,6.69-6.23,6.69s-6.24-2.43-6.24-6.69V51.11h4V53c0,1.9.83,2.58,2.16,2.58s2.17-.68,2.17-2.58c0-5.47-8.17-6.5-8.17-14.1C293.9,34.66,296,32.22,300.05,32.22Z"/><path class="cls-1" d="M316.85,59.12h-4.18V32.53h4.18v11.4h4.75V32.53h4.25V59.12H321.6V47.73h-4.75Z"/><path class="cls-1" d="M338.39,48.52,337.1,51v8.16h-4.18V32.53h4.18V44.12l5.47-11.59h4.18l-5.81,11.85,5.81,14.74h-4.29Z"/><path class="cls-1" d="M366.21,59.12H362l-.72-4.82h-5.13l-.72,4.82h-3.84l4.26-26.59H362Zm-9.54-8.43h4l-2-13.45Z"/><path class="cls-1" d="M384.68,38.65v1c0,2.73-.84,4.48-2.7,5.35,2.24.88,3.11,2.89,3.11,5.7v2.17c0,4.1-2.16,6.3-6.34,6.3h-6.57V32.53h6.3C382.82,32.53,384.68,34.54,384.68,38.65Zm-8.32-2.32v7H378c1.56,0,2.51-.69,2.51-2.81V39.06c0-1.9-.65-2.73-2.13-2.73Zm0,10.83v8.17h2.39c1.41,0,2.17-.65,2.17-2.63V50.39c0-2.47-.8-3.23-2.7-3.23Z"/><path class="cls-1" d="M395.81,43.74h5.74v3.8h-5.74v7.79H403v3.79h-11.4V32.53H403v3.8h-7.22Z"/><path class="cls-1" d="M418.38,59.12a8.3,8.3,0,0,1-.38-3.26V51.68c0-2.47-.83-3.38-2.73-3.38h-1.45V59.12h-4.18V32.53H416c4.33,0,6.19,2,6.19,6.12v2.08c0,2.74-.87,4.53-2.73,5.4,2.09.87,2.77,2.89,2.77,5.66V55.9a7.73,7.73,0,0,0,.46,3.22Zm-4.56-22.79V44.5h1.64c1.56,0,2.5-.69,2.5-2.81V39.06c0-1.9-.64-2.73-2.12-2.73Z"/><path class="cls-1" d="M437.69,59.12a8.1,8.1,0,0,1-.38-3.26V51.68c0-2.47-.84-3.38-2.74-3.38h-1.44V59.12H429V32.53h6.31c4.33,0,6.19,2,6.19,6.12v2.08c0,2.74-.87,4.53-2.74,5.4,2.09.87,2.78,2.89,2.78,5.66V55.9a7.74,7.74,0,0,0,.45,3.22Zm-4.56-22.79V44.5h1.63c1.56,0,2.51-.69,2.51-2.81V39.06c0-1.9-.65-2.73-2.13-2.73Z"/><path class="cls-1" d="M452.17,50.31l-5.29-17.78h4.37l3.2,12.12,3.19-12.12h4l-5.29,17.78v8.81h-4.17Z"/></svg>