<svg id="Content" xmlns="http://www.w3.org/2000/svg" xmlns:xlink="http://www.w3.org/1999/xlink" width="320" height="568" viewBox="0 0 320 568"><defs><style>.cls-1{fill:url(#New_Gradient_Swatch_1);}.cls-2{fill:#fff;}.cls-3{fill:#ba9544;}</style><linearGradient id="New_Gradient_Swatch_1" x1="77.73327" y1="267.68629" x2="117.06478" y2="267.68629" gradientUnits="userSpaceOnUse"><stop offset="0" stop-color="#a88a34"/><stop offset="0.49324" stop-color="#caaf67"/><stop offset="1" stop-color="#957f2e"/></linearGradient></defs><title>berry</title><polygon class="cls-1" points="94.071 247.568 77.733 266.436 90.629 287.804 114.937 282.143 117.065 257.277 94.071 247.568"/><path class="cls-2" d="M103.11684,269.8073a.359.359,0,1,1-.07665-.50291.3622.3622,0,0,1,.07665.50291M100.9706,265.255a.45244.45244,0,1,1,.45056-.45243.454.454,0,0,1-.45056.45243m-.45056,5.45346a.45243.45243,0,1,1,.45243-.45243.45483.45483,0,0,1-.45243.45243m-.06917-3.32779a.36176.36176,0,1,1-.3627.36083.36225.36225,0,0,1,.3627-.36083m-.96095,5.87411a.39525.39525,0,1,1-.14769-.54029.39206.39206,0,0,1,.14769.54029m-1.85646-5.919a.39822.39822,0,1,1,.39822-.39821.39616.39616,0,0,1-.39822.39821m-.11591,3.03614a.36176.36176,0,1,1,.36082-.36082.36385.36385,0,0,1-.36082.36082m-1.1722,1.6209a.36083.36083,0,1,1,.36082-.36082.36386.36386,0,0,1-.36082.36082m-.40943-2.86227a.45028.45028,0,1,1-.05235-.63565.45207.45207,0,0,1,.05235.63565m-1.12547-3.72788a.39728.39728,0,1,1,.39634.39821.399.399,0,0,1-.39634-.39821m5.79185-2.40237A9.4457,9.4457,0,0,0,102.627,261.443a5.40742,5.40742,0,0,0-2.56689.26174,3.7189,3.7189,0,0,0,.39635-1.97612,2.01949,2.01949,0,0,0-1.48068,1.17782,3.68217,3.68217,0,0,0-.51413-1.73868,2.23165,2.23165,0,0,0-.8226,2.00789,2.10162,2.10162,0,0,0-1.55172-1.30681,3.72764,3.72764,0,0,0,.35708,1.89572,5.25291,5.25291,0,0,0-2.7071-.32156,9.17856,9.17856,0,0,0,2.135,1.61529c-2.14063.46178-3.6344,1.65642-3.6344,4.15225,0,3.38949,4.28126,8.99439,6.14146,8.99439,2.0135,0,6.14146-5.6049,6.14146-8.99439.01309-2.60615-1.6209-3.80265-3.91857-4.21022"/><path class="cls-3" d="M85.082,304.94336a2.09981,2.09981,0,0,1-1.20312,3.9043l-4.16016-.00489v-7.38965h3.92383q1.86768.10841,1.97168,2.17383A1.54511,1.54511,0,0,1,85.082,304.94336Zm-3.87988-.52734h2.07031a.83505.83505,0,0,0,.917-.92188q-.0249-.542-.90234-.57129h-2.085Zm0,3.27343h2.416a.96521.96521,0,0,0,1.06446-1.07031q-.0249-.709-1.04981-.73926H81.20215Z"/><path class="cls-3" d="M87.56641,308.84277v-7.38965l5.43164-.00488v1.38086H89.04492v1.57715h2.96289v1.375H89.04492v1.68164h3.94336v1.37988Z"/><path class="cls-3" d="M98.93848,305.61914l1.84375,3.22363H99.08594l-1.76953-3.05664H95.96582v3.05664H94.4873v-7.39453h3.22364q2.58837,0,2.58789,2.12988A1.91216,1.91216,0,0,1,98.93848,305.61914Zm-2.97266-1.21289h2.07031q.89209-.01466.917-.81348-.0249-.72948-.90234-.75879h-2.085Z"/><path class="cls-3" d="M106.002,305.61914l1.84375,3.22363h-1.69629l-1.76953-3.05664H103.0293v3.05664h-1.47852v-7.39453h3.22363q2.58839,0,2.58789,2.12988A1.91215,1.91215,0,0,1,106.002,305.61914Zm-2.97265-1.21289h2.07031q.89209-.01466.917-.81348-.0249-.72948-.90234-.75879h-2.085Z"/><path class="cls-3" d="M108.18066,301.44824H109.915l1.71582,2.416,1.75488-2.416H115.082l-2.71191,3.69727v3.69726H110.8916v-3.69726Z"/></svg>