<?xml version="1.0" encoding="utf-8"?>
<!-- Generator: Adobe Illustrator 23.0.1, SVG Export Plug-In . SVG Version: 6.00 Build 0)  -->
<svg version="1.1" id="Content" xmlns="http://www.w3.org/2000/svg" xmlns:xlink="http://www.w3.org/1999/xlink" x="0px" y="0px"
	 viewBox="0 0 320 568" style="enable-background:new 0 0 320 568;" xml:space="preserve">
<style type="text/css">
	.st0{fill:#FFFFFF;stroke:#BA9544;stroke-width:0.425;stroke-miterlimit:10;}
	.st1{fill:#BA9544;}
	.st2{clip-path:url(#SVGID_2_);}
</style>
<title>CBD - Durga Mata</title>
<polygon class="st0" points="239.5,379 81.3,378.4 73.3,389.9 81.3,401.2 239.5,401 246.7,390 "/>
<polygon class="st1" points="73.5,390 81.5,401.3 101.1,401.3 101.1,378.4 81.5,378.4 "/>
<g>
	<defs>
		<polygon id="SVGID_1_" points="73.5,390 81.5,401.3 101.1,401.3 101.1,378.4 81.5,378.4 		"/>
	</defs>
	<clipPath id="SVGID_2_">
		<use xlink:href="#SVGID_1_"  style="overflow:visible;"/>
	</clipPath>
	<g class="st2">
		<rect x="71.8" y="376.7" class="st1" width="11.7" height="26.4"/>
	</g>
</g>
<path class="st1" d="M166.3,393.7c-1.5-1.5-1.5-4,0-5.5c0.7-0.7,1.7-1.2,2.8-1.2c1,0,2.1,0.3,2.8,1l-1,1.1c-0.5-0.4-1.2-0.6-1.8-0.6
	c-1.2-0.1-2.3,0.9-2.3,2.1c0,0.1,0,0.1,0,0.2c0,0.6,0.2,1.3,0.6,1.7c0.5,0.4,1.1,0.7,1.7,0.6c0.7,0,1.3-0.2,1.8-0.6l1,1.1
	c-0.8,0.7-1.8,1.1-2.8,1C168,394.9,167,394.5,166.3,393.7z"/>
<path class="st1" d="M179,390.8c1,0.6,1.4,2,0.8,3c-0.4,0.7-1.2,1.1-2,1.1l-4.4,0v-7.7h4.1c1.3,0.1,2,0.8,2.1,2.3
	C179.6,389.9,179.4,390.4,179,390.8z M175,390.2h2.2c0.5,0.1,0.9-0.3,1-0.8c0-0.1,0-0.1,0-0.2c0-0.4-0.3-0.6-0.9-0.6H175L175,390.2z
	 M175,393.6h2.5c0.6,0.1,1.1-0.3,1.1-0.9c0-0.1,0-0.2,0-0.2c0-0.5-0.4-0.8-1.1-0.8H175V393.6z"/>
<path class="st1" d="M181.7,394.8v-7.7h3c2.4,0,3.6,1.3,3.6,3.9c0,2.6-1.2,3.9-3.6,3.9L181.7,394.8z M184.6,393.3
	c1.4,0,2.1-0.8,2.1-2.3c0-1.5-0.7-2.3-2.1-2.3h-1.4v4.7H184.6z"/>
<path class="st1" d="M190,389.9c0.1-0.1,0.4-0.2,0.6-0.2c0.2,0,0.4,0.1,0.6,0.2c0.1,0.1,0.2,0.3,0.2,0.5c0,0.2-0.1,0.4-0.2,0.5
	c-0.3,0.3-0.8,0.3-1.1,0c-0.1-0.1-0.2-0.3-0.2-0.5C189.8,390.2,189.9,390,190,389.9z M190,393.6c0.1-0.1,0.4-0.2,0.6-0.2
	c0.2,0,0.4,0.1,0.6,0.2c0.3,0.3,0.3,0.7,0,1c-0.3,0.3-0.8,0.3-1.1,0C189.7,394.3,189.7,393.9,190,393.6L190,393.6z"/>
<path class="st1" d="M201.8,390.5c0.1,1.2-0.2,2.4-0.9,3.4c-0.6,0.6-1.4,0.9-2.2,0.8c-0.8-0.1-1.5-0.4-2.1-1l0.9-1
	c0.4,0.3,0.8,0.4,1.3,0.4c0.4,0.1,0.8-0.1,1.1-0.3c0.3-0.3,0.5-0.8,0.6-1.3c-0.5,0.4-1,0.5-1.6,0.5c-0.7,0-1.4-0.3-1.9-0.9
	c-0.4-0.6-0.6-1.3-0.5-1.9c0.1-0.7,0.4-1.3,0.9-1.8c0.6-0.5,1.4-0.7,2.1-0.5c0.7,0.1,1.3,0.5,1.7,1
	C201.6,388.9,201.9,389.7,201.8,390.5z M200.3,389.7c0-0.7-0.4-1.1-1.2-1.1c-0.8,0-1.2,0.4-1.2,1c-0.1,0.6,0.4,1.2,1,1.3
	c0.1,0,0.2,0,0.3,0C199.7,390.9,200.3,390.4,200.3,389.7C200.3,389.7,200.3,389.7,200.3,389.7z"/>
<path class="st1" d="M203.2,392.8v-1h3.2v1H203.2z"/>
<path class="st1" d="M209.7,387.1L209.7,387.1l1.5,0v7.7h-1.5v-5.7l-1,1l-1-1L209.7,387.1z"/>
<path class="st1" d="M217.6,390.9c0.1,0,0.2,0.1,0.3,0.1c0.6,0.3,0.9,0.9,0.8,1.5c0,0.6-0.3,1.2-0.9,1.6c-0.6,0.4-1.3,0.7-2,0.7
	c-0.6,0-1.2-0.1-1.8-0.3c-0.5-0.2-0.9-0.5-1.2-0.8l1-1c0.5,0.5,1.1,0.7,1.8,0.7c0.7,0,1.1-0.1,1.3-0.4c0.2-0.3,0.2-0.6,0-0.9
	c-0.2-0.3-0.8-0.5-1.8-0.5v-1.4c1,0.1,1.6,0,1.8-0.3c0.2-0.3,0.2-0.6,0-0.9c-0.2-0.3-0.6-0.4-1.3-0.4c-0.6,0-1.1,0.2-1.5,0.6l-1-1
	c0.3-0.3,0.7-0.6,1.1-0.8c0.5-0.2,1.1-0.3,1.7-0.3c0.7,0,1.4,0.2,1.9,0.7c0.5,0.4,0.8,1,0.8,1.6c0.1,0.6-0.2,1.2-0.7,1.5
	C217.8,390.9,217.7,390.9,217.6,390.9z"/>
<path class="st1" d="M220.4,390.4c-0.8-0.8-0.8-2-0.1-2.8s2-0.8,2.8-0.1c0.8,0.8,0.8,2,0.1,2.8c-0.4,0.4-0.9,0.6-1.4,0.6
	C221.3,390.9,220.8,390.7,220.4,390.4z M221.8,390c0.3,0,0.5-0.1,0.7-0.3c0.4-0.4,0.4-1,0-1.5c-0.2-0.2-0.4-0.3-0.7-0.3
	c-0.3,0-0.5,0.1-0.7,0.3c-0.4,0.4-0.4,1,0,1.5C221.3,389.9,221.5,390,221.8,390z M221.4,394.8l4.4-7.7h1.3l-4.4,7.7H221.4z
	 M225.2,394.3c-0.8-0.8-0.8-2-0.1-2.8s2-0.8,2.8-0.1c0.8,0.8,0.8,2,0.1,2.8c-0.4,0.4-0.9,0.6-1.4,0.6
	C226.1,394.9,225.6,394.7,225.2,394.3L225.2,394.3z M226.6,393.9c0.3,0,0.5-0.1,0.7-0.3c0.4-0.4,0.4-1,0-1.4
	c-0.2-0.2-0.4-0.3-0.7-0.3c-0.3,0-0.5,0.1-0.7,0.3c-0.4,0.4-0.4,1,0,1.4C226,393.9,226.3,394,226.6,393.9L226.6,393.9z"/>
</svg>
