<svg xmlns="http://www.w3.org/2000/svg" xmlns:xlink="http://www.w3.org/1999/xlink" width="970" height="250" viewBox="0 0 970 250"><defs><style>.cls-1{fill:none;}.cls-2{fill:#ba9544;}.cls-3{clip-path:url(#clip-path);}.cls-4{clip-path:url(#clip-path-2);}.cls-5{clip-path:url(#clip-path-3);}.cls-6{clip-path:url(#clip-path-4);}.cls-7{clip-path:url(#clip-path-5);}.cls-8{fill:#fff;stroke:#ba9544;stroke-miterlimit:10;stroke-width:0.5px;}.cls-9{clip-path:url(#clip-path-6);}.cls-10{clip-path:url(#clip-path-7);}.cls-11{clip-path:url(#clip-path-8);}</style><clipPath id="clip-path"><rect class="cls-1" x="-2" y="-589.16275" width="170.77483" height="153.04906"/></clipPath><clipPath id="clip-path-2"><rect class="cls-1" x="-153.55264" y="-640.15394" width="598.84548" height="708.41343" transform="translate(305.8987 -7.67623) rotate(-56.92989)"/></clipPath><clipPath id="clip-path-3"><rect class="cls-1" x="-2" y="-301.16333" width="170.77483" height="153.04906"/></clipPath><clipPath id="clip-path-4"><rect class="cls-1" x="-153.55264" y="-352.15452" width="598.84548" height="708.41343" transform="translate(64.55417 123.17204) rotate(-56.92989)"/></clipPath><clipPath id="clip-path-5"><polygon class="cls-1" points="1391.085 -49.053 1116.618 -49.671 1116.618 -141.778 1279.701 -110.837 1391.085 -49.053"/></clipPath><clipPath id="clip-path-6"><polygon class="cls-2" points="396.779 167.574 408.521 184.206 408.752 184.227 408.752 150.647 408.521 150.639 396.779 167.574"/></clipPath><clipPath id="clip-path-7"><rect class="cls-1" x="17.24025" y="-299.16219" width="383.03219" height="250.51546"/></clipPath><clipPath id="clip-path-8"><rect class="cls-1" x="2.56702" y="-306.41002" width="399.55191" height="335.80187"/></clipPath></defs><title>CBD - Ultra Sour</title><g id="Terpenes"><g class="cls-3"><g id="Variety_2_GettyImages-639528520.psd" data-name="Variety#2_GettyImages-639528520.psd"><g class="cls-4"><image id="Variety_2-orange_slice_Variety_2-lemon_with_leaf_Variety_2-lemon_bunch_half" data-name="Variety#2-orange+slice + Variety#2-lemon with leaf + Variety#2-lemon bunch+half" width="4425" height="3804" transform="translate(12.42809 -730.14269) rotate(33.07011) scale(0.15743)" xlink:href="CBD%20-%20Ultra%20Sour1.png"/></g></g></g><g class="cls-5"><g id="Variety_2_GettyImages-639528520.psd-2" data-name="Variety#2_GettyImages-639528520.psd"><g class="cls-6"><image id="Variety_2-orange_slice_Variety_2-lemon_with_leaf_Variety_2-lemon_bunch_half-2" data-name="Variety#2-orange+slice + Variety#2-lemon with leaf + Variety#2-lemon bunch+half" width="4425" height="3804" transform="translate(12.42809 -442.14327) rotate(33.07011) scale(0.15743)" xlink:href="CBD%20-%20Ultra%20Sour2.png"/></g></g></g></g><g id="Content"><polygon class="cls-8" points="640.868 151.483 408.265 150.601 396.523 167.534 408.265 184.166 640.868 183.77 651.436 167.628 640.868 151.483"/><polygon class="cls-2" points="396.779 167.574 408.521 184.206 408.752 184.227 408.752 150.647 408.521 150.639 396.779 167.574"/><g class="cls-9"><rect class="cls-2" x="394.18198" y="148.04316" width="17.16045" height="38.77863"/></g><path class="cls-2" d="M533.17755,173.12062a5.697,5.697,0,0,1,4.05078-9.75293,6.16433,6.16433,0,0,1,4.18359,1.51855l-1.51855,1.66309a4.19974,4.19974,0,0,0-2.665-.91113,3.34683,3.34683,0,0,0-2.47168.956,3.31309,3.31309,0,0,0-.9375,2.42969,3.41106,3.41106,0,0,0,.94922,2.52051,3.36174,3.36174,0,0,0,2.47558.93457,4.0863,4.0863,0,0,0,2.64942-.90332l1.51855,1.66211a6.14211,6.14211,0,0,1-4.18359,1.51855A5.54377,5.54377,0,0,1,533.17755,173.12062Z"/><path class="cls-2" d="M551.95,168.7505a3.23423,3.23423,0,0,1-1.85254,6.01367l-6.4082-.00781V163.3755h6.04394q2.877.167,3.03711,3.34863A2.38263,2.38263,0,0,1,551.95,168.7505Zm-5.97461-.81152h3.18848a1.28634,1.28634,0,0,0,1.4121-1.41992q-.03808-.835-1.38964-.88086H545.9754Zm0,5.041h3.71973a1.4866,1.4866,0,0,0,1.63964-1.64746q-.03809-1.09423-1.61718-1.13867H545.9754Z"/><path class="cls-2" d="M555.80645,174.75636V163.36085h4.38868q5.31444,0,5.31445,5.70118,0,5.69384-5.31445,5.69433Zm4.38868-2.27051q3.0293-.00732,3.0371-3.42382-.00878-3.416-3.0371-3.416h-2.11036v6.83984Z"/><path class="cls-2" d="M573.367,167.49464a1.10107,1.10107,0,0,1,.82031-.30761,1.143,1.143,0,0,1,.85059.30761,1.10584,1.10584,0,0,1,0,1.52246,1.30094,1.30094,0,0,1-1.6709,0,1.10584,1.10584,0,0,1,0-1.52246Zm0,5.43555a1.10108,1.10108,0,0,1,.82031-.30762,1.143,1.143,0,0,1,.85059.30762,1.04565,1.04565,0,0,1,.30371.76367,1.0298,1.0298,0,0,1-.30371.75879,1.30094,1.30094,0,0,1-1.6709,0,1.0298,1.0298,0,0,1-.30371-.75879A1.04565,1.04565,0,0,1,573.367,172.93019Z"/><path class="cls-2" d="M589.66,166.63234l-4.40332,2.42969,4.40332,2.42968v1.7461l-7.19727-3.95508v-.49414l7.19727-3.90235Z"/><path class="cls-2" d="M599.52227,163.36769v-.00684h2.27051v11.39551h-2.27051V166.4048l-1.51855,1.51855-1.51856-1.51855Z"/><g class="cls-10"><g id="SmallTopDown-8351-UltraSour.psd"><g class="cls-11"><image id="SmallTopDown-8351-UltraSour" width="4124" height="3466" transform="translate(2.56702 -306.41002) scale(0.09688)" xlink:href="CBD%20-%20Ultra%20Sour3.png"/></g></g></g></g></svg>