<svg id="Layer_1" data-name="Layer 1" xmlns="http://www.w3.org/2000/svg" xmlns:xlink="http://www.w3.org/1999/xlink" width="46.27236" height="72.09332" viewBox="0 0 46.27236 72.09332"><defs><style>.cls-1{fill:url(#New_Gradient_Swatch_1);}.cls-2{fill:#fff;}.cls-3{fill:#ba9544;}</style><linearGradient id="New_Gradient_Swatch_1" y1="23.66845" x2="46.27236" y2="23.66845" gradientUnits="userSpaceOnUse"><stop offset="0" stop-color="#a88a34"/><stop offset="0.49324" stop-color="#caaf67"/><stop offset="1" stop-color="#957f2e"/></linearGradient></defs><title>berry</title><polygon class="cls-1" points="19.221 0 0 22.197 15.172 47.337 43.769 40.677 46.272 11.422 19.221 0"/><path class="cls-2" d="M29.863,26.16376a.42231.42231,0,1,1-.09017-.59166.42611.42611,0,0,1,.09017.59166m-2.525-5.35571a.53227.53227,0,1,1,.53007-.53226.53412.53412,0,0,1-.53007.53226M26.808,27.22389a.53227.53227,0,1,1,.53227-.53227.53511.53511,0,0,1-.53227.53227m-.08139-3.915a.4256.4256,0,1,1-.42669.4245.42617.42617,0,0,1,.42669-.4245m-1.13052,6.91072a.465.465,0,1,1-.17376-.63564.46124.46124,0,0,1,.17376.63564M23.412,23.25606a.46849.46849,0,1,1,.46849-.46848.46607.46607,0,0,1-.46849.46848M23.27562,26.828a.4256.4256,0,1,1,.4245-.4245.42806.42806,0,0,1-.4245.4245m-1.37906,1.90694a.4245.4245,0,1,1,.42449-.4245.42806.42806,0,0,1-.42449.4245m-.48168-3.36738a.52974.52974,0,1,1-.06159-.74782.53184.53184,0,0,1,.06159.74782M20.0908,20.98182a.46739.46739,0,1,1,.46628.46848.46938.46938,0,0,1-.46628-.46848m6.81394-2.82633a11.11267,11.11267,0,0,0,2.382-1.83213,6.36159,6.36159,0,0,0-3.01986.30792,4.37518,4.37518,0,0,0,.46628-2.32485,2.37591,2.37591,0,0,0-1.742,1.38567,4.332,4.332,0,0,0-.60486-2.0455,2.62551,2.62551,0,0,0-.96776,2.36222A2.4725,2.4725,0,0,0,21.593,14.4714a4.38552,4.38552,0,0,0,.4201,2.23026,6.17988,6.17988,0,0,0-3.18483-.3783,10.79826,10.79826,0,0,0,2.51179,1.90033c-2.51839.54327-4.27576,1.94873-4.27576,4.885,0,3.98763,5.03678,10.58163,7.22525,10.58163,2.36882,0,7.22524-6.594,7.22524-10.58163.0154-3.06606-1.90694-4.47372-4.61008-4.95321"/><path class="cls-3" d="M8.64548,67.50055a2.47007,2.47007,0,0,1-1.415,4.59277l-4.89453-.00586V63.39411H6.95212q2.198.12744,2.31983,2.55761A1.82038,1.82038,0,0,1,8.64548,67.50055Zm-4.564-.62109H6.51707a.98181.98181,0,0,0,1.07861-1.084q-.02856-.63867-1.061-.67285H4.08152Zm0,3.85058h2.8418a1.135,1.135,0,0,0,1.25244-1.25781q-.02929-.835-1.23535-.87012H4.08152Z"/><path class="cls-3" d="M11.56833,72.08746V63.39411l6.39112-.00586v1.624H13.30857v1.85547h3.48535V68.4859H13.30857v1.97754h4.63916v1.624Z"/><path class="cls-3" d="M24.94773,68.2945l2.16894,3.793H25.12156l-2.082-3.5957H21.45066v3.5957H19.71091V63.38825h3.793q3.04469,0,3.04444,2.50586A2.24929,2.24929,0,0,1,24.94773,68.2945Zm-3.49707-1.42676h2.43555q1.04955-.01758,1.0791-.957-.0293-.85693-1.06153-.89258H21.45066Z"/><path class="cls-3" d="M33.25828,68.2945l2.16894,3.793H33.4321l-2.082-3.5957H29.76121v3.5957H28.02146V63.38825h3.793q3.04467,0,3.04443,2.50586A2.24928,2.24928,0,0,1,33.25828,68.2945Zm-3.49707-1.42676h2.43554q1.04956-.01758,1.0791-.957-.02929-.85693-1.06152-.89258H29.76121Z"/><path class="cls-3" d="M35.82175,63.38825h2.041L39.88132,66.23l2.06446-2.84179h1.99511L40.751,67.73786v4.3496H39.01121v-4.3496Z"/></svg>