<svg id="Layer_1" data-name="Layer 1" xmlns="http://www.w3.org/2000/svg" width="320" height="480" viewBox="0 0 320 480"><defs><style>.cls-1{fill:#fff;}</style></defs><title>frame2</title><path class="cls-1" d="M73.331,325.8435V300.906h5.61914a7.16741,7.16741,0,0,1,4.01954,1.17578,5.47931,5.47931,0,0,1,2.1875,3.07618,8.83458,8.83458,0,0,1,.35546,2.65234,5.89584,5.89584,0,0,1-1.32617,4.01953,3.93479,3.93479,0,0,1-1.3125.9707,4.3974,4.3974,0,0,1,2.11914,1.88672,7.18412,7.18412,0,0,1,.86133,2.46094,10.22592,10.22592,0,0,1,.13672,1.73633,8.40091,8.40091,0,0,1-.88867,4.01953A5.76934,5.76934,0,0,1,80.29,325.8435Zm4.04688-14.752h1.57226a2.31154,2.31154,0,0,0,2.35157-1.709,4.95511,4.95511,0,0,0,.21875-1.57227,3.30351,3.30351,0,0,0-.752-2.35156,2.38865,2.38865,0,0,0-1.81836-.73828H77.37792Zm0,11.0332h1.57226a2.6745,2.6745,0,0,0,2.65235-1.96875,4.28248,4.28248,0,0,0,.25976-1.54492,4.69707,4.69707,0,0,0-.80664-3.04883,2.555,2.555,0,0,0-2.10547-.875H77.37792Z"/><path class="cls-1" d="M97.97753,300.906a5.69417,5.69417,0,0,1,4.60742,1.73633,6.26609,6.26609,0,0,1,1.29883,4.21094v3.623a5.79675,5.79675,0,0,1-2.00586,4.4707l2.78515,10.89648h-4.05468l-2.293-9.41992c-.10938.00879-.22266.01367-.3418.01367H95.81737v9.40625H92.05761V300.906Zm2.24219,6.01563A1.906,1.906,0,0,0,98.081,304.7478H95.81737v7.9707H98.081a2.04169,2.04169,0,0,0,1.51953-.63574,2.10957,2.10957,0,0,0,.61915-1.52441Z"/><path class="cls-1" d="M110.69042,325.8435V300.906H121.3955v3.75977h-6.94532v6.83594h5.07227v3.75976h-5.07227v6.82227h6.94532v3.75976Z"/><path class="cls-1" d="M131.60643,320.115l-.916,5.72851h-3.91016l4.22461-24.9375h5.18164l4.16992,24.9375h-3.9375l-.88867-5.72851Zm1.96875-13.49414-1.39453,9.83008h2.78907Z"/><path class="cls-1" d="M146.80565,304.66577h-3.99218V300.906h11.73046v3.75977h-3.97851V325.8435h-3.75977Z"/><path class="cls-1" d="M164.126,315.28882V325.8435H160.3662V300.906H164.126v10.59571h4.51171V300.906h3.75977v24.9375h-3.75977V315.28882Z"/><path class="cls-1" d="M178.5869,325.8435V300.906H189.292v3.75977h-6.94531v6.83594h5.07226v3.75976h-5.07226v6.82227H189.292v3.75976Z"/><path class="cls-1" d="M205.99511,300.60522a5.96491,5.96491,0,0,1,5.97461,5.97461v13.60352a5.96325,5.96325,0,0,1-5.97461,5.97461,5.69116,5.69116,0,0,1-4.20508-1.75,5.79375,5.79375,0,0,1-1.72852-4.22461V306.57983a5.96335,5.96335,0,0,1,5.9336-5.97461Zm2.05078,5.9043a2.12587,2.12587,0,0,0-2.14649-2.14453,2.10113,2.10113,0,0,0-1.52539.62207,2.04572,2.04572,0,0,0-.63476,1.52246V320.158a2.05218,2.05218,0,0,0,.63476,1.51562,2.08819,2.08819,0,0,0,1.52539.62891,2.13727,2.13727,0,0,0,2.14649-2.14453Z"/><path class="cls-1" d="M223.98339,326.158a5.90667,5.90667,0,0,1-5.9336-5.91993V300.906h3.67774v19.291a2.05679,2.05679,0,0,0,.63672,1.51758,2.09078,2.09078,0,0,0,1.52343.6289,2.134,2.134,0,0,0,2.14649-2.14648V300.906H229.958v19.332a5.64982,5.64982,0,0,1-1.75,4.21094A5.82334,5.82334,0,0,1,223.98339,326.158Z"/><path class="cls-1" d="M239.75878,304.66577h-3.99219V300.906h11.73047v3.75977h-3.97852V325.8435h-3.75976Z"/><path class="cls-1" d="M252.87987,322.09741h3.75977v3.75977h-3.75977Z"/></svg>