<svg id="Layer_1" data-name="Layer 1" xmlns="http://www.w3.org/2000/svg" width="728" height="90" viewBox="0 0 728 90"><defs><style>.cls-1{fill:#fff;}</style></defs><title>reflection</title><path class="cls-1" d="M336.9917,55.183h-2.81982V36.47992h4.04l2.625,13.41211,2.52247-13.41211h3.88623V55.183h-2.81983V43.433l-2.437,11.75h-2.26318L336.9917,43.46332Z"/><path class="cls-1" d="M355.01709,36.25531a4.47285,4.47285,0,0,1,4.481,4.48047V50.9389a4.47118,4.47118,0,0,1-4.481,4.48047,4.26559,4.26559,0,0,1-3.15283-1.3125,4.342,4.342,0,0,1-1.29737-3.168V40.73578a4.47125,4.47125,0,0,1,4.4502-4.48047Zm1.53809,4.42773a1.59158,1.59158,0,0,0-1.60987-1.6084,1.57941,1.57941,0,0,0-1.14355.46582,1.53705,1.53705,0,0,0-.47656,1.14258V50.91937a1.54263,1.54263,0,0,0,.47656,1.13672,1.56933,1.56933,0,0,0,1.14355.47168,1.6013,1.6013,0,0,0,1.60987-1.6084Z"/><path class="cls-1" d="M367.26953,36.47992a4.27315,4.27315,0,0,1,3.45606,1.30273,4.705,4.705,0,0,1,.97363,3.15821v2.71679a4.34815,4.34815,0,0,1-1.50488,3.35352l2.08984,8.17187h-3.041l-1.7207-7.06445c-.082.00684-.167.00977-.25586.00977h-1.61719V55.183h-2.81982V36.47992Zm1.68164,4.51172a1.4299,1.4299,0,0,0-1.60449-1.62989h-1.69727v5.97754h1.69727a1.53,1.53,0,0,0,1.13965-.47656,1.58179,1.58179,0,0,0,.46484-1.14258Z"/><path class="cls-1" d="M375.544,55.183V36.47992h8.02929v2.82031h-5.209v5.127H382.168V47.2475h-3.80371v5.11621h5.209V55.183Z"/><path class="cls-1" d="M396.34668,36.47992a4.271,4.271,0,0,1,3.45508,1.30273,4.7053,4.7053,0,0,1,.97461,3.15821v2.71679a4.35137,4.35137,0,0,1-1.50489,3.35352l2.08887,8.17187h-3.041l-1.71973-7.06445c-.082.00684-.167.00977-.25586.00977h-1.61719V55.183h-2.81933V36.47992Zm1.68164,4.51172a1.42991,1.42991,0,0,0-1.60449-1.62989h-1.69727v5.97754h1.69727a1.53,1.53,0,0,0,1.13965-.47656,1.58179,1.58179,0,0,0,.46484-1.14258Z"/><path class="cls-1" d="M404.62109,55.183V36.47992h8.02832v2.82031h-5.209v5.127h3.80371V47.2475h-3.80371v5.11621h5.209V55.183Z"/><path class="cls-1" d="M418.24707,55.183h-2.81934V36.47992h8.02832v2.82031h-5.209v5.127h3.80371V47.2475h-3.80371Z"/><path class="cls-1" d="M433.92383,55.183h-7.68945V36.47992h2.81933V52.38421h4.87012Z"/><path class="cls-1" d="M436.69336,55.183V36.47992h8.02832v2.82031h-5.209v5.127h3.80371V47.2475H439.5127v5.11621h5.209V55.183Z"/><path class="cls-1" d="M451.9707,55.41937A4.4463,4.4463,0,0,1,447.5,50.95843V40.71527a4.46535,4.46535,0,1,1,8.93066,0v2.13281h-2.92285V40.66351a1.62875,1.62875,0,0,0-1.62988-1.62988,1.53889,1.53889,0,0,0-1.1377.47754,1.572,1.572,0,0,0-.47265,1.15234V50.92816a1.61211,1.61211,0,0,0,1.61035,1.62012,1.57869,1.57869,0,0,0,1.15332-.47168,1.55246,1.55246,0,0,0,.47656-1.14844V48.35492h2.92285v2.60351a4.45445,4.45445,0,0,1-4.46,4.46094Z"/><path class="cls-1" d="M462.20312,39.30023H459.209V36.47992h8.79688v2.82031h-2.9834V55.183h-2.81934Z"/><path class="cls-1" d="M473.93164,55.183H471.1123V36.47992h2.81934Z"/><path class="cls-1" d="M481.71289,36.25531a4.47285,4.47285,0,0,1,4.48145,4.48047V50.9389a4.47118,4.47118,0,0,1-4.48145,4.48047,4.26449,4.26449,0,0,1-3.15234-1.3125,4.34158,4.34158,0,0,1-1.29688-3.168V40.73578a4.47126,4.47126,0,0,1,4.44922-4.48047ZM483.252,40.683a1.59238,1.59238,0,0,0-1.61035-1.6084,1.57941,1.57941,0,0,0-1.14355.46582,1.537,1.537,0,0,0-.47657,1.14258V50.91937a1.5426,1.5426,0,0,0,.47657,1.13672,1.56933,1.56933,0,0,0,1.14355.47168,1.60212,1.60212,0,0,0,1.61035-1.6084Z"/><path class="cls-1" d="M492.67383,36.47992l3.73242,12.56152V36.47992h2.82031V55.183h-3.02051L492.3252,43.20648V55.183h-2.81934V36.47992Z"/><path class="cls-1" d="M502.00391,52.37445h2.81933v2.81933h-2.81933Z"/></svg>