<?xml version="1.0" encoding="utf-8"?>
<!-- Generator: Adobe Illustrator 23.0.1, SVG Export Plug-In . SVG Version: 6.00 Build 0)  -->
<svg version="1.1" id="Layer_3" xmlns="http://www.w3.org/2000/svg" xmlns:xlink="http://www.w3.org/1999/xlink" x="0px" y="0px"
	 viewBox="0 0 37 52" style="enable-background:new 0 0 37 52;" xml:space="preserve">
<style type="text/css">
	.st0{fill:url(#SVGID_1_);}
	.st1{fill:#FFFFFF;}
	.st2{fill:#BA9544;}
</style>
<g>
	<g>
		<linearGradient id="SVGID_1_" gradientUnits="userSpaceOnUse" x1="1.5961" y1="18.1588" x2="35.1446" y2="18.1588">
			<stop  offset="0" style="stop-color:#A88A34"/>
			<stop  offset="0.4932" style="stop-color:#CAAF67"/>
			<stop  offset="1" style="stop-color:#957F2E"/>
		</linearGradient>
		<polygon class="st0" points="15.53,35.32 1.6,19.23 12.6,1 33.33,5.83 35.14,27.04 		"/>
		<path class="st1" d="M25.13,13.56c1.15-0.35,1.47-1.28,2.14-1.6c-1.34-0.55-2.12-0.69-2.91-0.31c-0.62,0.26-1.06,0.81-1.18,1.47
			C23.72,13.6,24.45,13.76,25.13,13.56"/>
		<path class="st1" d="M22.66,15.49c0.16-1.7-0.39-3.38-1.51-4.66c-0.04-0.04-0.11-0.04-0.15,0c0,0,0,0,0,0l-0.31,0.32
			c-0.04,0.04-0.04,0.1,0,0.14c1,1.17,1.47,2.69,1.31,4.22c-2.75-1.61-5.65,0.15-5.52,3.08c0.03,0.51,0.11,1.01,0.23,1.51
			c1.56,1.3,3.52,2.2,5.88,2.67c0.28,0.05,0.54,0.18,0.75,0.37c0.22,0.2,0.35,0.48,0.35,0.78l0.01,0.29c0,0.17-0.02,0.34-0.07,0.51
			c-0.03,0.11-0.06,0.22-0.1,0.32c2.3,0.11,4.47-3.54,4.61-6.45C28.27,15.68,25.4,13.92,22.66,15.49"/>
		<path class="st1" d="M22.79,23.73c-0.1-0.09-0.23-0.15-0.37-0.18c-4.65-0.92-8.56-3.57-10.17-9.04c-0.04-0.11-0.09-0.22-0.16-0.31
			c-0.08-0.13-0.12-0.27-0.11-0.42l0.04-1.04c0.01-0.16-0.11-0.29-0.27-0.29c0,0-0.01,0-0.01,0l-0.55,0c-0.15,0-0.28,0.13-0.28,0.28
			c0,0.01,0,0.02,0,0.03l0.13,1.11c0,0.16-0.05,0.32-0.15,0.45c-0.15,0.29-0.21,0.62-0.18,0.94c-0.11,8.72,5.78,11.26,11.23,9.92
			c0.69-0.17,0.76-0.28,0.82-0.37c0.05-0.1,0.09-0.2,0.11-0.31c0.03-0.09,0.04-0.18,0.04-0.27l-0.01-0.29
			C22.89,23.87,22.85,23.79,22.79,23.73"/>
	</g>
	<g>
		<path class="st2" d="M2.3,51.43v-6.31h4.44v1.18H3.56v1.35H5.9v1.17H3.56v2.61H2.3z"/>
		<path class="st2" d="M11.45,48.68l1.57,2.75h-1.45l-1.51-2.61H8.92v2.61H7.65v-6.31h2.75c1.47,0,2.21,0.61,2.21,1.82
			C12.61,47.85,12.22,48.43,11.45,48.68z M8.92,47.65h1.77c0.51-0.01,0.77-0.24,0.78-0.69c-0.01-0.42-0.27-0.63-0.77-0.65H8.92
			V47.65z"/>
		<path class="st2" d="M14.84,45.12v3.66c0,0.48,0.14,0.83,0.42,1.05c0.28,0.22,0.63,0.34,1.05,0.34s0.77-0.11,1.05-0.34
			s0.42-0.58,0.42-1.05v-3.66h1.26v3.99c0,0.64-0.26,1.19-0.78,1.64c-0.52,0.45-1.17,0.67-1.96,0.67c-0.78,0-1.44-0.22-1.96-0.67
			s-0.78-1-0.78-1.64v-3.99H14.84z"/>
		<path class="st2" d="M20.41,45.12h1.26v6.31h-1.26V45.12z"/>
		<path class="st2" d="M28.08,45.12v1.18h-2.1v5.13h-1.26V46.3h-2.1v-1.18H28.08z"/>
		<path class="st2" d="M28.65,45.12h1.48l1.46,2.06l1.5-2.06h1.45l-2.31,3.15v3.15h-1.26v-3.15L28.65,45.12z"/>
	</g>
</g>
<g>
</g>
<g>
</g>
<g>
</g>
<g>
</g>
<g>
</g>
<g>
</g>
<g>
</g>
<g>
</g>
<g>
</g>
<g>
</g>
<g>
</g>
<g>
</g>
<g>
</g>
<g>
</g>
<g>
</g>
</svg>
