<svg id="Layer_1" data-name="Layer 1" xmlns="http://www.w3.org/2000/svg" width="300" height="600" viewBox="0 0 300 600"><defs><style>.cls-1{fill:#231f20;}.cls-2{fill:#d3b372;}</style></defs><title>frame1</title><rect class="cls-1" width="300" height="600"/><path class="cls-2" d="M74.4912,276.5776a4.2436,4.2436,0,0,1-4.2612-4.247v-9.7159a4.2542,4.2542,0,1,1,8.5083,0v2.0313H75.9546v-2.0889a1.5513,1.5513,0,0,0-1.5484-1.5478,1.4689,1.4689,0,0,0-1.0869.4541,1.5043,1.5043,0,0,0-.4472,1.0937v9.7451a1.5269,1.5269,0,0,0,1.5341,1.5332,1.5017,1.5017,0,0,0,1.0938-.4472,1.4676,1.4676,0,0,0,.4546-1.086v-2.458h2.7837v2.4864a4.2444,4.2444,0,0,1-4.2471,4.247Z"/><path class="cls-2" d="M87.32,272.2593,86.668,276.35H83.8726l3.0258-17.7979h3.6929L93.5742,276.35H90.7515l-.6285-4.0908Zm1.41-9.6309-.9942,7.0176h1.9883Z"/><path class="cls-2" d="M102.4468,258.5376l3.5625,11.9707V258.5376h2.6845V276.35H105.81l-3.6929-11.4063V276.35H99.4326V258.5376Z"/><path class="cls-2" d="M117.7085,258.5376l3.5625,11.9707V258.5376h2.6846V276.35h-2.8838l-3.6924-11.4063V276.35h-2.6856V258.5376Z"/><path class="cls-2" d="M133.2476,272.2593l-.6524,4.0908h-2.7959l3.0264-17.7979h3.6924l2.9834,17.7979h-2.8233l-.6279-4.0908Zm1.41-9.6309-.9941,7.0176h1.9883Z"/><path class="cls-2" d="M144.5669,276.35V258.5376h4.02a5.1177,5.1177,0,0,1,2.8687.8379,3.9011,3.9011,0,0,1,1.5625,2.2021,6.1876,6.1876,0,0,1,.2558,1.8887,4.1775,4.1775,0,0,1-.9521,2.8691,2.6818,2.6818,0,0,1-.9375.6963,3.1265,3.1265,0,0,1,1.52,1.35,5.2553,5.2553,0,0,1,.61,1.7618,7.0092,7.0092,0,0,1,.1,1.2353,5.9417,5.9417,0,0,1-.64,2.8692,3.8192,3.8192,0,0,1-1.4063,1.4775,3.8654,3.8654,0,0,1-2.0307.625Zm2.8984-10.54h1.1221a1.6446,1.6446,0,0,0,1.6758-1.2217,3.4731,3.4731,0,0,0,.1562-1.1221,2.3446,2.3446,0,0,0-.54-1.6758,1.6956,1.6956,0,0,0-1.292-.5254h-1.1221Zm0,7.8837h1.1221a1.9036,1.9036,0,0,0,1.8887-1.4062,3.0931,3.0931,0,0,0,.1845-1.1084,3.3783,3.3783,0,0,0-.5673-2.1729,1.8328,1.8328,0,0,0-1.5059-.625h-1.1221Z"/><path class="cls-2" d="M161.4268,276.35h-2.6856V258.5522h2.6856Z"/><path class="cls-2" d="M175.35,271.9185a5.0017,5.0017,0,0,1-.9658,3.1816,3.4819,3.4819,0,0,1-1.8467,1.2646,5.0531,5.0531,0,0,1-1.4912.1983,4.2152,4.2152,0,0,1-2.6133-.7813,4.3591,4.3591,0,0,1-1.3711-1.74,7.0391,7.0391,0,0,1-.59-2.52l2.5576-.1856a3.8815,3.8815,0,0,0,.8232,2.2559,1.3726,1.3726,0,0,0,1.1084.5,1.664,1.664,0,0,0,1.4063-.8672,2.1541,2.1541,0,0,0,.2695-1.18,3.2766,3.2766,0,0,0-1.0088-2.2041q-.7953-.7529-2.3857-2.26a10.1965,10.1965,0,0,1-1.89-2.3184,5.3614,5.3614,0,0,1-.5966-2.5019,4.3552,4.3552,0,0,1,1.6337-3.6827,4.0635,4.0635,0,0,1,2.5-.7529,4.5461,4.5461,0,0,1,2.4571.6387,3.7021,3.7021,0,0,1,1.2861,1.3926,5.1472,5.1472,0,0,1,.5889,2.06l-2.57.4688a3.1042,3.1042,0,0,0-.625-1.7051,1.3151,1.3151,0,0,0-1.0655-.4395,1.2273,1.2273,0,0,0-1.122.6534,2.5109,2.5109,0,0,0-.3125,1.3066,3.9179,3.9179,0,0,0,1.0507,2.4854,8.8422,8.8422,0,0,0,1.1934,1.1367q.9375.7808,1.2354,1.0937a9.1006,9.1006,0,0,1,1.5341,1.96,7.6019,7.6019,0,0,1,.4121.8379A4.863,4.863,0,0,1,175.35,271.9185Z"/><path class="cls-2" d="M194.376,268.8071v7.543H191.69V258.5522h2.6856v7.5567h3.2383v-7.5567h2.6845V276.35h-2.6845v-7.543Z"/><path class="cls-2" d="M209.59,272.2593l-.6523,4.0908h-2.7959l3.0264-17.7979H212.86l2.9834,17.7979h-2.8233l-.6279-4.0908Zm1.41-9.6309-.9941,7.0176h1.9882Z"/><path class="cls-2" d="M229.77,271.9185a5.0011,5.0011,0,0,1-.9658,3.1816,3.4816,3.4816,0,0,1-1.8467,1.2646,5.0531,5.0531,0,0,1-1.4912.1983,4.2154,4.2154,0,0,1-2.6133-.7813,4.3591,4.3591,0,0,1-1.3711-1.74,7.0391,7.0391,0,0,1-.59-2.52l2.5576-.1856a3.8808,3.8808,0,0,0,.8233,2.2559,1.3725,1.3725,0,0,0,1.1084.5,1.664,1.664,0,0,0,1.4062-.8672,2.1541,2.1541,0,0,0,.2695-1.18,3.2769,3.2769,0,0,0-1.0087-2.2041q-.7955-.7529-2.3858-2.26a10.1929,10.1929,0,0,1-1.89-2.3184,5.36,5.36,0,0,1-.5967-2.5019,4.355,4.355,0,0,1,1.6338-3.6827,4.063,4.063,0,0,1,2.5-.7529,4.5458,4.5458,0,0,1,2.457.6387,3.7021,3.7021,0,0,1,1.2861,1.3926,5.1456,5.1456,0,0,1,.5889,2.06l-2.57.4688a3.1042,3.1042,0,0,0-.625-1.7051,1.315,1.315,0,0,0-1.0654-.4395,1.2273,1.2273,0,0,0-1.1221.6534,2.5109,2.5109,0,0,0-.3125,1.3066,3.9175,3.9175,0,0,0,1.0508,2.4854,8.84,8.84,0,0,0,1.1933,1.1367q.9375.7808,1.2354,1.0937a9.1013,9.1013,0,0,1,1.5342,1.96,7.62,7.62,0,0,1,.4121.8379A4.8649,4.8649,0,0,1,229.77,271.9185Z"/><path class="cls-2" d="M96.2749,306.749V288.937h4.02a5.1231,5.1231,0,0,1,2.87.8379,3.9051,3.9051,0,0,1,1.5625,2.2022,6.2175,6.2175,0,0,1,.2558,1.8886,4.1779,4.1779,0,0,1-.9531,2.8692,2.6716,2.6716,0,0,1-.9365.6963,3.13,3.13,0,0,1,1.52,1.35,5.2782,5.2782,0,0,1,.6093,1.7617,6.9933,6.9933,0,0,1,.1,1.2348,5.9517,5.9517,0,0,1-.6387,2.8692,4.1155,4.1155,0,0,1-3.4375,2.1025Zm2.8975-10.54h1.1225a1.6443,1.6443,0,0,0,1.6758-1.2217,3.4725,3.4725,0,0,0,.1563-1.1221,2.3463,2.3463,0,0,0-.54-1.6758,1.6976,1.6976,0,0,0-1.2925-.5253H99.1724Zm0,7.8833h1.1225a1.9054,1.9054,0,0,0,1.8892-1.4063,3.0927,3.0927,0,0,0,.1846-1.1084,3.3709,3.3709,0,0,0-.5684-2.1723,1.8307,1.8307,0,0,0-1.5054-.625H99.1724Z"/><path class="cls-2" d="M110.4292,306.749V288.937h7.6426v2.6992h-4.9571v4.8575h3.6221v2.6992h-3.6221V304.05h4.9571v2.6992Z"/><path class="cls-2" d="M123.1177,306.749V288.937H130.76v2.6992h-4.9571v4.8575h3.6221v2.6992h-3.6221V304.05H130.76v2.6992Z"/><path class="cls-2" d="M139.22,288.937l3.5625,11.9707V288.937h2.6846v17.812h-2.8838l-3.6924-11.4057V306.749h-2.6855V288.937Z"/><path class="cls-2" d="M160.6074,306.9482a4.2212,4.2212,0,0,1-4.248-4.2334V288.9517h2.6279v13.7348a1.4677,1.4677,0,0,0,.4551,1.0869,1.5029,1.5029,0,0,0,1.0937.4473,1.5272,1.5272,0,0,0,1.5342-1.5342V288.9517h2.7979v13.7631a4.0467,4.0467,0,0,1-1.25,3.0118A4.1519,4.1519,0,0,1,160.6074,306.9482Z"/><path class="cls-2" d="M178.3721,302.3174a5.0016,5.0016,0,0,1-.9659,3.1816,3.482,3.482,0,0,1-1.8466,1.2647,5.0571,5.0571,0,0,1-1.4912.1982,4.2158,4.2158,0,0,1-2.6133-.7812,4.3593,4.3593,0,0,1-1.3711-1.74,7.0391,7.0391,0,0,1-.59-2.5205l2.5577-.1855a3.88,3.88,0,0,0,.8232,2.2558,1.372,1.372,0,0,0,1.1084.5,1.6639,1.6639,0,0,0,1.4062-.8672,2.1539,2.1539,0,0,0,.27-1.18A3.276,3.276,0,0,0,174.65,300.24q-.7954-.7529-2.3858-2.26a10.1929,10.1929,0,0,1-1.89-2.3184,5.36,5.36,0,0,1-.5967-2.5019,4.3548,4.3548,0,0,1,1.6338-3.6826,4.0629,4.0629,0,0,1,2.5-.753,4.5455,4.5455,0,0,1,2.457.6387,3.7031,3.7031,0,0,1,1.2862,1.3926,5.1476,5.1476,0,0,1,.5888,2.06l-2.57.4688a3.1034,3.1034,0,0,0-.625-1.7051,1.3147,1.3147,0,0,0-1.0654-.4394,1.2273,1.2273,0,0,0-1.1221.6533,2.5109,2.5109,0,0,0-.3125,1.3066,3.9175,3.9175,0,0,0,1.0508,2.4854,8.8422,8.8422,0,0,0,1.1934,1.1367q.9375.7807,1.2353,1.0937a9.1013,9.1013,0,0,1,1.5342,1.96,7.62,7.62,0,0,1,.4121.8379A4.8587,4.8587,0,0,1,178.3721,302.3174Z"/><path class="cls-2" d="M182.999,306.749V288.937h7.6426v2.6992h-4.957v4.8575h3.622v2.6992h-3.622V304.05h4.957v2.6992Z"/><path class="cls-2" d="M203.7246,302.4873a4.1259,4.1259,0,0,1-1.2353,3.0117,4.0442,4.0442,0,0,1-2.9834,1.25h-4.2188V288.937h4.2188a4.0358,4.0358,0,0,1,2.99,1.25,4.1218,4.1218,0,0,1,1.2285,2.9971Zm-5.7519,1.6055h1.6191a1.4336,1.4336,0,0,0,1.0791-.4619,1.5209,1.5209,0,0,0,.44-1.086v-9.3178a1.5033,1.5033,0,0,0-.4472-1.0938,1.4513,1.4513,0,0,0-1.0723-.4551h-1.6191Z"/><path class="cls-2" d="M90.5527,332.7178a5.01,5.01,0,0,1-.9658,3.1816,3.4861,3.4861,0,0,1-1.8467,1.2647,5.062,5.062,0,0,1-1.4917.1982,4.2182,4.2182,0,0,1-2.6137-.7812,4.3617,4.3617,0,0,1-1.3706-1.74,7.016,7.016,0,0,1-.5894-2.5205l2.5566-.1855a3.88,3.88,0,0,0,.8243,2.2558,1.37,1.37,0,0,0,1.1079.5,1.664,1.664,0,0,0,1.4062-.8672,2.1539,2.1539,0,0,0,.27-1.18,3.2786,3.2786,0,0,0-1.0083-2.2042q-.7955-.7528-2.3863-2.26a10.1887,10.1887,0,0,1-1.8891-2.3184,5.354,5.354,0,0,1-.5967-2.5019,4.3545,4.3545,0,0,1,1.6333-3.6826,4.0614,4.0614,0,0,1,2.5-.753,4.5463,4.5463,0,0,1,2.4575.6387,3.6969,3.6969,0,0,1,1.2856,1.3926,5.1544,5.1544,0,0,1,.5894,2.06l-2.5713.4688a3.0965,3.0965,0,0,0-.625-1.7051,1.3126,1.3126,0,0,0-1.0649-.4394,1.2275,1.2275,0,0,0-1.1226.6533,2.5206,2.5206,0,0,0-.3125,1.3066,3.921,3.921,0,0,0,1.0513,2.4854,8.84,8.84,0,0,0,1.1933,1.1367q.9375.7807,1.2359,1.0937a9.1488,9.1488,0,0,1,1.5342,1.96,7.6092,7.6092,0,0,1,.4116.8379A4.8873,4.8873,0,0,1,90.5527,332.7178Z"/><path class="cls-2" d="M100.6152,319.3516a4.0911,4.0911,0,0,1,3.1255,1.2353,4.29,4.29,0,0,1,1.0781,3.0117v2.585a4.1383,4.1383,0,0,1-1.2285,3.0117,4.0171,4.0171,0,0,1-2.9751,1.25H99.0669v6.7041H96.3823V319.3516Zm1.605,4.289a1.5315,1.5315,0,0,0-.4189-1.122,1.4932,1.4932,0,0,0-1.1153-.4258H99.0669v5.6963h1.6191a1.4661,1.4661,0,0,0,1.0869-.4551,1.5028,1.5028,0,0,0,.4473-1.0938Z"/><path class="cls-2" d="M113.25,337.1494H110.564V319.3516H113.25Z"/><path class="cls-2" d="M123.4819,319.3516a4.0937,4.0937,0,0,1,3.2959,1.2353,4.4924,4.4924,0,0,1,.9229,3.0117v2.585a4.16,4.16,0,0,1-1.4346,3.1963l1.9883,7.7695h-2.9033l-1.628-6.7041h-1.789v6.7041h-2.6856V319.3516Zm1.6055,4.289a1.3621,1.3621,0,0,0-1.5342-1.5478h-1.6191v5.6963h1.6191a1.4643,1.4643,0,0,0,1.086-.4551,1.502,1.502,0,0,0,.4482-1.0938Z"/><path class="cls-2" d="M136.8413,337.1494h-2.6855V319.3516h2.6855Z"/><path class="cls-2" d="M145.4546,322.05h-2.8555v-2.6982H150.98V322.05h-2.8408v15.1h-2.6846Z"/><path class="cls-2" d="M160.9717,337.3486a4.2213,4.2213,0,0,1-4.2481-4.2334V319.3516h2.628v13.7353a1.4676,1.4676,0,0,0,.455,1.0869,1.5031,1.5031,0,0,0,1.0938.4473,1.5272,1.5272,0,0,0,1.5342-1.5342V319.3516h2.7978v13.7636a4.0467,4.0467,0,0,1-1.25,3.0118A4.1516,4.1516,0,0,1,160.9717,337.3486Z"/><path class="cls-2" d="M174.127,333.0586l-.6524,4.0908h-2.7959l3.0264-17.7978h3.6924l2.9834,17.7978h-2.8233l-.6279-4.0908Zm1.41-9.6309-.9941,7.0176h1.9882Z"/><path class="cls-2" d="M193.5527,337.1494h-7.3154V319.3516h2.6856v15.1269h4.63Z"/><path class="cls-2" d="M206.3154,337.1494H199V319.3516h2.6855v15.1269h4.63Z"/><path class="cls-2" d="M212.0322,329.6924l-3.5937-10.3555h2.9551l1.9882,6.3916,1.9746-6.3916h2.9688l-3.6074,10.3555v7.457h-2.6856Z"/></svg>