<?xml version="1.0" encoding="utf-8"?>
<!-- Generator: Adobe Illustrator 22.1.0, SVG Export Plug-In . SVG Version: 6.00 Build 0)  -->
<svg version="1.1" id="Layer_1" xmlns="http://www.w3.org/2000/svg" xmlns:xlink="http://www.w3.org/1999/xlink" x="0px" y="0px"
	 viewBox="0 0 154.6 18.3" style="enable-background:new 0 0 154.6 18.3;" xml:space="preserve">
<style type="text/css">
	.st0{fill:#D3B372;}
</style>
<title>frame4</title>
<path class="st0" d="M3,0.2l3.6,12v-12h2.7V18H6.4L2.7,6.6V18H0V0.2H3z"/>
<path class="st0" d="M18.6,13.9L17.9,18h-2.8l3-17.8h3.7l3,17.8H22l-0.6-4.1L18.6,13.9z M20,4.3l-1,7h2L20,4.3z"/>
<path class="st0" d="M33.4,18h-2.7V0.2h3.9L37,13l2.4-12.8h3.7V18h-2.7V6.8L38.1,18H36L33.4,6.9L33.4,18z"/>
<path class="st0" d="M52.4,13.9L51.8,18H49l3-17.8h3.7l3,17.8h-2.8l-0.6-4.1L52.4,13.9z M53.8,4.3l-1,7h2L53.8,4.3z"/>
<path class="st0" d="M72.6,13.6c0.1,1.1-0.3,2.3-1,3.2c-0.5,0.6-1.1,1.1-1.8,1.3c-0.5,0.1-1,0.2-1.5,0.2c-0.9,0-1.9-0.2-2.6-0.8
	c-0.6-0.5-1.1-1.1-1.4-1.7c-0.4-0.8-0.6-1.7-0.6-2.5l2.6-0.2c0,0.8,0.3,1.6,0.8,2.3c0.3,0.3,0.7,0.5,1.1,0.5c0.6,0,1.1-0.3,1.4-0.9
	c0.2-0.4,0.3-0.8,0.3-1.2c0-0.8-0.4-1.6-1-2.2c-0.5-0.5-1.3-1.3-2.4-2.3c-0.7-0.7-1.4-1.5-1.9-2.3C64.2,6.2,64,5.3,64,4.4
	c-0.1-1.4,0.5-2.8,1.6-3.7C66.4,0.2,67.2,0,68.1,0c0.9,0,1.7,0.2,2.5,0.6c0.5,0.3,1,0.8,1.3,1.4c0.3,0.6,0.5,1.3,0.6,2.1l-2.6,0.5
	c0-0.6-0.3-1.2-0.6-1.7c-0.3-0.3-0.7-0.5-1.1-0.4c-0.5,0-0.9,0.2-1.1,0.7c-0.2,0.4-0.3,0.9-0.3,1.3c0,0.9,0.4,1.8,1.1,2.5
	C68.2,7.3,68.6,7.7,69,8c0.6,0.5,1,0.9,1.2,1.1c0.6,0.6,1.1,1.2,1.5,2c0.2,0.3,0.3,0.6,0.4,0.8C72.4,12.4,72.6,13,72.6,13.6z"/>
<path class="st0" d="M80.9,2.9H78V0.2h8.4v2.7h-2.8V18h-2.7V2.9z"/>
<path class="st0" d="M92.2,18V0.2h7.6v2.7h-5v4.9h3.6v2.7h-3.6v4.9h5V18L92.2,18z"/>
<path class="st0" d="M105.3,15.4h2.7V18h-2.7V15.4z"/>
<path class="st0" d="M117.7,18.3c-2.3,0-4.3-1.9-4.3-4.2c0,0,0,0,0,0V4.3c0-1.1,0.4-2.2,1.2-3c1.7-1.7,4.4-1.7,6,0
	c0.8,0.8,1.3,1.9,1.2,3v2h-2.8V4.2c0-0.9-0.7-1.5-1.5-1.5c-0.4,0-0.8,0.2-1.1,0.5c-0.3,0.3-0.5,0.7-0.4,1.1V14
	c0,0.8,0.7,1.5,1.5,1.5c0,0,0,0,0,0c0.4,0,0.8-0.2,1.1-0.4c0.3-0.3,0.5-0.7,0.5-1.1v-2.5h2.8V14C121.9,16.4,120,18.3,117.7,18.3
	C117.7,18.3,117.7,18.3,117.7,18.3L117.7,18.3z"/>
<path class="st0" d="M131.9,0c1.1,0,2.2,0.4,3,1.2c0.8,0.8,1.3,1.9,1.2,3V14c0,2.3-1.9,4.3-4.3,4.3c-2.3,0-4.3-1.9-4.3-4.3
	c0,0,0,0,0,0V4.3c0-1.1,0.4-2.2,1.3-3C129.7,0.4,130.8,0,131.9,0z M133.4,4.2c0-0.8-0.7-1.5-1.5-1.5c0,0,0,0,0,0
	c-0.4,0-0.8,0.2-1.1,0.4c-0.3,0.3-0.5,0.7-0.5,1.1v9.7c0,0.4,0.2,0.8,0.5,1.1c0.3,0.3,0.7,0.5,1.1,0.4c0.8,0,1.5-0.7,1.5-1.5
	c0,0,0,0,0,0L133.4,4.2z"/>
<path class="st0" d="M144.8,18h-2.7V0.2h3.9l2.5,12.8l2.4-12.8h3.7V18h-2.7V6.8L149.6,18h-2.2l-2.6-11.2L144.8,18z"/>
</svg>
