<svg id="Layer_1" data-name="Layer 1" xmlns="http://www.w3.org/2000/svg" width="113.4777" height="26.1082" viewBox="0 0 113.4777 26.1082"><defs><style>.cls-1{fill:#fff;}</style></defs><title>logo</title><path class="cls-1" d="M32.5583,22.761V11.9055h.7237l6.8028,6.8029V11.9055H42.256V22.761H41.46l-6.73-6.73v6.73Zm11.3766,0,4.3422-10.8555h2.1712l4.335,10.8484-2.3086.0071-.6513-1.6644H46.9021l-.6513,1.6644ZM49.4207,14.8l-1.65,4.1252h3.2566Zm6.9837,7.9608V11.9055h.7236l4.704,5.3553,4.7114-5.3553h.7236V22.761H65.096l-.0074-6.2962L61.832,20.0834l-3.2565-3.6186V22.761Zm12.4549,0,4.3423-10.8555h2.171l4.335,10.8484-2.3085.0071-.6513-1.6644H71.8266l-.6514,1.6644ZM74.345,14.8l-1.65,4.1252h3.2566Zm12.86-2.533a5.0611,5.0611,0,0,1,1.556,1.0857L87.3139,14.8a2.4928,2.4928,0,0,0-2.0263-.8684q-1.3029,0-1.6646.6153a.8465.8465,0,0,0,0,1.0493,2.86,2.86,0,0,0,1.6646.6514,5.3909,5.3909,0,0,1,2.4967.9046,2.7177,2.7177,0,0,1,1.1216,2.4243A2.7833,2.7833,0,0,1,87.7082,21.82a4.3854,4.3854,0,0,1-2.79.9407,6.4324,6.4324,0,0,1-2.5258-.434,5.4788,5.4788,0,0,1-1.737-1.158l1.4474-1.4476a3.44,3.44,0,0,0,2.4606,1.0133q1.4475,0,1.8058-.615a1.146,1.146,0,0,0,0-1.23q-.3585-.6151-1.8058-.76a5.8378,5.8378,0,0,1-2.388-.796A2.402,2.402,0,0,1,81.09,15.09a2.7017,2.7017,0,0,1,1.2338-2.3122,4.3472,4.3472,0,0,1,2.5367-.8721A6.062,6.062,0,0,1,87.2053,12.2672Zm12.4984-.3617v2.0263H96.0851V22.761h-2.171V13.9318H90.2955V11.9055Zm1.5848,10.8555V11.9127l7.9752-.0072v2.0263H103.46v2.316h4.3494v2.0191H103.46v2.4678h5.79V22.761ZM4.3927,22.7158l-.2622-.0317a3.4148,3.4148,0,0,0,.5782.0739l3.456.1533-2.3581.4493a8.4915,8.4915,0,0,0,1.7032.1872l2.5012.0163-1.4627.4748,2.2473.39-3.4607.2078q-.0828.005-.1619.0149l-1.5876.7765c-.4074.1991-.7875.4154-1.1385.632.4355.0336.9046.0544,1.38.0456l1.8092-.0321q.0738-.0264.1482-.0585l2.9935-1.3031-1.51,1.1644a5.2316,5.2316,0,0,0,.5926-.2535s.2358.1359.2807.1737a1.1323,1.1323,0,0,0,.1269-.0276,5.3482,5.3482,0,0,0,1.3117-.7659,5.518,5.518,0,0,1,1.4707-.8393,3.6665,3.6665,0,0,1,.515-.0961,1.4069,1.4069,0,0,1-.6781-.4229c-.3275-.3273-.4525-.7692-.137-.8625s.8875.4419.9247.4419a.6821.6821,0,0,0,.191-.4405c0-.1888-.1352-.5564-.16-.7784a3.7189,3.7189,0,0,0-.1347-.6442c-.0493-.1465-.391-.21-.5747-.3233a3.0225,3.0225,0,0,1-.4632-.3207,1.465,1.465,0,0,1-.1969-.672,2.6487,2.6487,0,0,0-.1105-.6842c-.0639-.12-.2282-.2042-.3394-.3155a.478.478,0,0,1-.1143-.2939c.0852-.0268.1119.1929.21.2116s.0916.1.2461.1531.16.1264.1794.27.1932.63.2505.8277.1169.3474.3126.3541.169.1079.3993.0892a1.2869,1.2869,0,0,1,.5522.1065c.1237.0438.2795.0478.3327-.0386s-.0371-.4352-.0371-.4352c-.08,0-.0935-.1077-.1241-.2076s.019-.1077.019-.1077a.4217.4217,0,1,1,.8035,0s.0492.0078.0187.1077-.0438.2076-.1238.2076c0,0-.09.3486-.0374.4352s.209.0824.333.0386a1.2852,1.2852,0,0,1,.5522-.1065c.23.0187.2035-.0826.399-.0892s.2556-.1558.3129-.3541.23-.684.25-.8277.0253-.217.18-.27.1477-.1344.2462-.1531.1252-.2384.21-.2116a.4771.4771,0,0,1-.1146.2939c-.111.1113-.2755.1958-.3391.3155a2.6264,2.6264,0,0,0-.1106.6842,1.465,1.465,0,0,1-.1969.672,3.0377,3.0377,0,0,1-.4632.3207c-.1836.1131-.5256.1768-.5749.3233a3.6932,3.6932,0,0,0-.1344.6442c-.0253.222-.16.59-.16.7784a.6806.6806,0,0,0,.191.4405c.0371,0,.6094-.5351.9247-.4419s.1905.5352-.1371.8625a1.4049,1.4049,0,0,1-.678.4229,3.6532,3.6532,0,0,1,.5147.0961,5.518,5.518,0,0,1,1.4707.8393,5.3566,5.3566,0,0,0,1.3115.7659,1.1561,1.1561,0,0,0,.1271.0276c.0449-.0376.2809-.1737.2809-.1737a5.241,5.241,0,0,0,.5927.2535l-1.51-1.1644,2.9933,1.3031c.0494.0213.0989.0409.1481.0585l1.8094.0321c.475.0088.9439-.012,1.38-.0456-.351-.2166-.7313-.4329-1.1386-.632l-1.5877-.7765c-.0525-.0066-.1067-.0116-.1616-.0149l-3.46-.2078,2.2487-.3908-1.4579-.4745,2.4948-.0163a8.4922,8.4922,0,0,0,1.7031-.1872l-2.358-.4493,3.4557-.1533a3.4171,3.4171,0,0,0,.5785-.0739l-.2625.0317,2.2806-1.07a20.3278,20.3278,0,0,0,2.1124-1.1609,22.27,22.27,0,0,0-2.4705-.15l-2.5923.006.2887-.0947a3.241,3.241,0,0,0-.6115.1889l-3.0241,1.26,1.83-1.3635-.0139.0023L22.393,20.02l-.3325-.5486a10.9567,10.9567,0,0,0,2.4917-2.5722l-2.4449,1.17,2.4911-2.0747a4.1163,4.1163,0,0,0,.7909-.8575c.3212-.4856.6194-.9831.8916-1.4865l-.7723.7625L26.4343,12.4a26.6041,26.6041,0,0,0,1.3694-3.7864,32.2674,32.2674,0,0,0-3.67,2.3644l-1.8122,1.3735.5779-.9006c-.4688.3986-.9221.8194-1.3547,1.2575a3.9831,3.9831,0,0,0-.6672.9348l-1.3235,2.5351.47-2.314a10.9394,10.9394,0,0,0-1.0487,1.2544l-.2306.3219-.2116-.1453a.5332.5332,0,0,0-.0326.0551l-1.8182,3.4477,1.0722-3.7473a11.8945,11.8945,0,0,0,.3557-4.7028l-1.252,2.327.6063-2.7992A4.5589,4.5589,0,0,0,17.56,8.4787a22.5725,22.5725,0,0,0-.4809-2.8257l-.1652,1.3742L16.37,5.024A34.0653,34.0653,0,0,0,14.514,0a34.0643,34.0643,0,0,0-1.856,5.024l-.5437,2.0032L11.9494,5.653a22.5362,22.5362,0,0,0-.481,2.8257,4.5552,4.5552,0,0,0,.0947,1.3971l.6057,2.8-1.2513-2.3274a11.8905,11.8905,0,0,0,.3555,4.7023l1.0723,3.7475L10.5272,15.35a.5682.5682,0,0,0-.0329-.0551l-.2114.1453-.2307-.3219a10.9482,10.9482,0,0,0-1.0485-1.2544l.47,2.314L8.15,13.643a3.9836,3.9836,0,0,0-.6669-.9348c-.4317-.4374-.8847-.8575-1.3529-1.2558l.5794.9015L4.894,10.9778a32.2321,32.2321,0,0,0-3.67-2.3644A26.5644,26.5644,0,0,0,2.594,12.4L3.52,14.4134l-.7723-.7625c.272.5034.57,1.0009.8916,1.4865a4.1075,4.1075,0,0,0,.7908.8575L6.9209,18.07l-2.4449-1.17a10.9532,10.9532,0,0,0,2.4918,2.5722l-.3326.5486-.0416.3145-.0142-.0023,1.83,1.3635-3.0242-1.26a3.2351,3.2351,0,0,0-.6114-.1889l.2885.0947L2.47,20.3353a22.265,22.265,0,0,0-2.47.15,20.3323,20.3323,0,0,0,2.1121,1.1609Z"/><path class="cls-1" d="M110.5076,9.21v1.6861h-.3349V9.21h-.6273V8.909h1.5923V9.21Zm2.6606,1.6861-.0028-1.4846-.6273,1.2772H112.32l-.6273-1.2772v1.4846h-.315V8.909h.3973l.6557,1.32.6529-1.32h.3946v1.9871Z"/></svg>