<svg id="Content" xmlns="http://www.w3.org/2000/svg" xmlns:xlink="http://www.w3.org/1999/xlink" width="320" height="568" viewBox="0 0 320 568"><defs><style>.cls-1{fill:#ba9544;}.cls-2{fill:#fff;stroke:#ba9544;stroke-miterlimit:10;stroke-width:0.5px;}.cls-3{clip-path:url(#clip-path);}</style><clipPath id="clip-path"><polygon class="cls-1" points="58.969 353.849 68.362 367.155 68.547 367.171 68.547 340.307 68.362 340.301 58.969 353.849"/></clipPath></defs><title>CBD - Sensi Star</title><polygon class="cls-2" points="254.24 340.976 68.157 340.271 58.764 353.817 68.157 367.123 254.24 366.806 262.694 353.892 254.24 340.976"/><polygon class="cls-1" points="58.969 353.849 68.362 367.155 68.547 367.171 68.547 340.307 68.362 340.301 58.969 353.849"/><g class="cls-3"><rect class="cls-1" x="56.89092" y="338.22442" width="13.72837" height="31.02293"/></g><path class="cls-1" d="M168.08789,358.28809a4.5568,4.5568,0,0,1,3.24023-7.80176,4.931,4.931,0,0,1,3.34668,1.21484L173.46,353.03125a3.35546,3.35546,0,0,0-2.13184-.72852,2.59585,2.59585,0,0,0-2.72656,2.708,2.73144,2.73144,0,0,0,.75879,2.0166,2.6893,2.6893,0,0,0,1.98047.74707,3.26006,3.26006,0,0,0,2.11914-.72265l1.21484,1.33008a4.9106,4.9106,0,0,1-3.34668,1.21484A4.43467,4.43467,0,0,1,168.08789,358.28809Z"/><path class="cls-1" d="M183.10547,354.793a2.58656,2.58656,0,0,1-1.48242,4.80957l-5.126-.00586v-9.10449h4.835q2.30127.13329,2.42969,2.67871A1.908,1.908,0,0,1,183.10547,354.793Zm-4.78027-.65039H180.876a1.02829,1.02829,0,0,0,1.12988-1.13574q-.03077-.668-1.11133-.70411H178.3252Zm0,4.0332h2.97656a1.18977,1.18977,0,0,0,1.31152-1.31836q-.03077-.87452-1.29394-.91113H178.3252Z"/><path class="cls-1" d="M186.19043,359.59668v-9.11621h3.51074q4.251,0,4.252,4.56152,0,4.55419-4.252,4.55469Zm3.51074-1.81543q2.42286-.00587,2.42969-2.73926-.00587-2.73339-2.42969-2.7334H188.0127v5.47266Z"/><path class="cls-1" d="M200.23926,353.78711a.88086.88086,0,0,1,.65625-.24609.9125.9125,0,0,1,.67969.24609.83507.83507,0,0,1,.24316.61035.82372.82372,0,0,1-.24316.60742,1.039,1.039,0,0,1-1.33594,0,.82369.82369,0,0,1-.24317-.60742A.835.835,0,0,1,200.23926,353.78711Zm0,4.34863a.88411.88411,0,0,1,.65625-.24512.9159.9159,0,0,1,.67969.24512.83576.83576,0,0,1,.24316.61133.82151.82151,0,0,1-.24316.60645,1.039,1.039,0,0,1-1.33594,0,.82148.82148,0,0,1-.24317-.60645A.83573.83573,0,0,1,200.23926,358.13574Z"/><path class="cls-1" d="M213.27441,353.09766,209.751,355.042l3.52343,1.94336v1.39649l-5.75781-3.16407v-.39453l5.75781-3.12207Z"/><path class="cls-1" d="M221.16406,350.48633v-.00586h1.81641v9.11621h-1.81641V352.916l-1.21484,1.21484-1.21484-1.21484Z"/></svg>