<svg id="Content" xmlns="http://www.w3.org/2000/svg" width="320" height="480" viewBox="0 0 320 480"><defs><style>.cls-1{fill:#fff;stroke:#ba9544;stroke-miterlimit:10;stroke-width:0.5px;}.cls-2{fill:#ba9544;}</style></defs><title>THC - Shishkaberry</title><polygon class="cls-1" points="253.511 229.999 67.428 229.294 58.035 242.84 67.428 256.146 253.511 255.829 261.965 242.915 253.511 229.999"/><polygon class="cls-2" points="67.564 229.294 58.171 242.84 67.564 256.146 90.573 256.146 90.573 229.294 67.564 229.294"/><path class="cls-2" d="M173.93555,238.40234v1.70118h-3.03711v7.41015h-1.82227v-7.41015h-3.03711v-1.70118Z"/><path class="cls-2" d="M175.29,247.51367v-9.11133h1.82226v3.64454h4.24512v-3.6504h1.82227v9.11133l-1.82227.00586v-3.76562H177.1123v3.76562Z"/><path class="cls-2" d="M186.00684,246.20508a4.55777,4.55777,0,0,1,3.24023-7.80274,4.93577,4.93577,0,0,1,3.34668,1.21485l-1.21484,1.33008a3.36106,3.36106,0,0,0-2.13184-.72852,2.67558,2.67558,0,0,0-1.97656.76563,2.6489,2.6489,0,0,0-.75,1.94335,2.7314,2.7314,0,0,0,.75879,2.01661,2.68934,2.68934,0,0,0,1.98047.74707,3.26007,3.26007,0,0,0,2.11914-.72266l1.21484,1.33008a4.91059,4.91059,0,0,1-3.34668,1.21484A4.4346,4.4346,0,0,1,186.00684,246.20508Z"/><path class="cls-2" d="M194.63477,241.7041a.88085.88085,0,0,1,.65625-.24609.91248.91248,0,0,1,.67968.24609.83505.83505,0,0,1,.24317.61035.82369.82369,0,0,1-.24317.60743,1.039,1.039,0,0,1-1.33593,0,.82369.82369,0,0,1-.24317-.60743A.83505.83505,0,0,1,194.63477,241.7041Zm0,4.34863a.88085.88085,0,0,1,.65625-.24609.91248.91248,0,0,1,.67968.24609.83418.83418,0,0,1,.24317.61133.82147.82147,0,0,1-.24317.60645,1.039,1.039,0,0,1-1.33593,0,.82147.82147,0,0,1-.24317-.60645A.83418.83418,0,0,1,194.63477,246.05273Z"/><path class="cls-2" d="M204.335,238.40234v-.00586h1.81641v9.11719H204.335V240.832l-1.21484,1.21485-1.21485-1.21485Z"/><path class="cls-2" d="M211.99414,238.40918v-.0127h1.81641v5.29688h1.22656v1.81641h-1.22656v2.0039h-1.81641v-2.0039H207.8584v-1.81641h.06055l-.05469-.06055Zm0,5.28418V240.79l-2.2168,2.90332Z"/><path class="cls-2" d="M216.42871,245.07812v-1.209h3.76563v1.209Z"/><path class="cls-2" d="M224.124,238.40234v-.00586h1.81641v9.11719H224.124V240.832l-1.21484,1.21485-1.21484-1.21485Z"/><path class="cls-2" d="M232.66406,242.89746c.10938.04.208.08106.29785.12207a1.78609,1.78609,0,0,1,.94141,1.82227,2.33812,2.33812,0,0,1-.88379,2.03418,4.37657,4.37657,0,0,1-4.5498,0,2.33812,2.33812,0,0,1-.88379-2.03418,1.7861,1.7861,0,0,1,.9414-1.82227c.08985-.041.18848-.082.29786-.12207q-.09669-.04835-.17579-.09082a1.80108,1.80108,0,0,1-.82031-1.73047,2.49248,2.49248,0,0,1,.793-1.97461,3.57122,3.57122,0,0,1,4.24512,0,2.49248,2.49248,0,0,1,.793,1.97461,1.80107,1.80107,0,0,1-.82032,1.73047Q232.76075,242.84912,232.66406,242.89746Zm-1.91894-.82519q.80127-.02492,1.03222-.41993a.97008.97008,0,0,0,0-1.03222,1.171,1.171,0,0,0-1.03222-.51074,1.156,1.156,0,0,0-1.02735.51074.95426.95426,0,0,0,0,1.03222Q229.94336,242.04786,230.74512,242.07227Zm0,1.66992a1.35413,1.35413,0,0,0-1.02735.52148.956.956,0,0,0,0,1.03321,1.14911,1.14911,0,0,0,1.02735.50976,1.16394,1.16394,0,0,0,1.03222-.50976.9718.9718,0,0,0,0-1.03321A1.37519,1.37519,0,0,0,230.74512,243.74219Z"/><path class="cls-2" d="M236.02344,242.24805a2.34608,2.34608,0,1,1,1.62793.65625A2.211,2.211,0,0,1,236.02344,242.24805Zm1.60937-.42578a1.086,1.086,0,0,0,.832-.34571,1.31215,1.31215,0,0,0,0-1.72265,1.09754,1.09754,0,0,0-.83789-.34278,1.08073,1.08073,0,0,0-.82617.34278,1.31218,1.31218,0,0,0,0,1.72265A1.08458,1.08458,0,0,0,237.63281,241.82227Zm-.48633,5.6914,5.16309-9.11133H243.791l-5.1504,9.11133Zm4.5254-.60156a2.33211,2.33211,0,1,1,1.61523.65039A2.19247,2.19247,0,0,1,241.67188,246.91211Zm1.585-.44336a1.06725,1.06725,0,0,0,.81445-.33691,1.27187,1.27187,0,0,0,0-1.67676,1.07347,1.07347,0,0,0-.82031-.33594,1.056,1.056,0,0,0-.80762.33594,1.26891,1.26891,0,0,0,0,1.67676A1.06367,1.06367,0,0,0,243.25684,246.46875Z"/></svg>