<?xml version="1.0" encoding="utf-8"?>
<!-- Generator: Adobe Illustrator 23.0.1, SVG Export Plug-In . SVG Version: 6.00 Build 0)  -->
<svg version="1.1" id="Layer_1" xmlns="http://www.w3.org/2000/svg" xmlns:xlink="http://www.w3.org/1999/xlink" x="0px" y="0px"
	 viewBox="0 0 970 250" enable-background="new 0 0 970 250" xml:space="preserve">
<g>
	<g>
		<polygon fill="#FFFFFF" stroke="#BA9544" stroke-width="0.5" stroke-miterlimit="10" points="612.27,150.64 379.67,149.76 
			367.93,166.7 379.67,183.33 612.27,182.93 622.84,166.79 		"/>
		<g>
			<defs>
				<polygon id="SVGID_1_" points="368.18,166.74 379.92,183.37 380.15,183.39 380.15,149.81 379.92,149.8 				"/>
			</defs>
			<use xlink:href="#SVGID_1_"  overflow="visible" fill="#BA9544"/>
			<clipPath id="SVGID_2_">
				<use xlink:href="#SVGID_1_"  overflow="visible"/>
			</clipPath>
			<g clip-path="url(#SVGID_2_)">
				<defs>
					<rect id="SVGID_3_" x="365.58" y="147.21" width="17.16" height="38.78"/>
				</defs>
				<use xlink:href="#SVGID_3_"  overflow="visible" fill="#BA9544"/>
				<clipPath id="SVGID_4_">
					<use xlink:href="#SVGID_3_"  overflow="visible"/>
				</clipPath>
			</g>
		</g>
	</g>
	<g>
		<path fill="#BA9544" d="M504.58,172.28c-1.09-1.09-1.64-2.45-1.64-4.08c0.01-1.6,0.55-2.94,1.64-4.04
			c1.09-1.09,2.44-1.64,4.05-1.64c1.63,0,3.02,0.51,4.18,1.52l-1.52,1.66c-0.77-0.61-1.66-0.91-2.66-0.91
			c-1.02,0-1.85,0.32-2.47,0.96c-0.63,0.63-0.94,1.44-0.94,2.43c0.01,1.06,0.32,1.9,0.95,2.52c0.63,0.62,1.45,0.93,2.48,0.93
			c1.02,0,1.9-0.3,2.65-0.9l1.52,1.66c-1.16,1.01-2.55,1.52-4.18,1.52C507.02,173.91,505.67,173.37,504.58,172.28z"/>
		<path fill="#BA9544" d="M523.35,167.91c1,0.67,1.53,1.54,1.59,2.61c-0.1,2.15-1.25,3.28-3.44,3.41l-6.41-0.01v-11.38h6.04
			c1.92,0.11,2.93,1.23,3.04,3.35C524.14,166.9,523.86,167.57,523.35,167.91z M517.38,167.1h3.19c0.92-0.02,1.39-0.49,1.41-1.42
			c-0.03-0.56-0.49-0.85-1.39-0.88h-3.21V167.1z M517.38,172.14h3.72c1.07-0.02,1.61-0.56,1.64-1.65c-0.03-0.73-0.56-1.11-1.62-1.14
			h-3.74V172.14z"/>
		<path fill="#BA9544" d="M527.21,173.92v-11.39h4.39c3.54,0,5.31,1.9,5.31,5.7c0,3.79-1.77,5.69-5.31,5.69H527.21z M531.6,171.65
			c2.02-0.01,3.03-1.15,3.04-3.42c-0.01-2.28-1.02-3.42-3.04-3.42h-2.11v6.84H531.6z"/>
		<path fill="#BA9544" d="M544.77,166.66c0.2-0.21,0.47-0.31,0.82-0.31c0.36,0,0.65,0.1,0.85,0.31s0.3,0.46,0.3,0.76
			c0,0.3-0.1,0.56-0.3,0.76c-0.2,0.2-0.48,0.3-0.83,0.3c-0.36,0-0.63-0.1-0.84-0.3c-0.2-0.2-0.3-0.46-0.3-0.76
			C544.46,167.12,544.57,166.86,544.77,166.66z M544.77,172.09c0.2-0.21,0.47-0.31,0.82-0.31c0.36,0,0.65,0.1,0.85,0.31
			s0.3,0.46,0.3,0.76c0,0.3-0.1,0.56-0.3,0.76c-0.2,0.2-0.48,0.3-0.83,0.3c-0.36,0-0.63-0.1-0.84-0.3c-0.2-0.2-0.3-0.46-0.3-0.76
			C544.46,172.55,544.57,172.3,544.77,172.09z"/>
		<path fill="#BA9544" d="M561.06,165.79l-4.4,2.43l4.4,2.43v1.75l-7.2-3.96v-0.49l7.2-3.9V165.79z"/>
		<path fill="#BA9544" d="M570.92,162.53L570.92,162.53l2.27-0.01v11.39h-2.27v-8.35l-1.52,1.52l-1.52-1.52L570.92,162.53z"/>
	</g>
</g>
<g>
</g>
<g>
</g>
<g>
</g>
<g>
</g>
<g>
</g>
<g>
</g>
<g>
</g>
<g>
</g>
<g>
</g>
<g>
</g>
<g>
</g>
<g>
</g>
<g>
</g>
<g>
</g>
<g>
</g>
</svg>
