<svg id="Layer_1" data-name="Layer 1" xmlns="http://www.w3.org/2000/svg" xmlns:xlink="http://www.w3.org/1999/xlink" width="59.2975" height="90.1019" viewBox="0 0 59.2975 90.1019"><defs><style>.cls-1{fill:url(#New_Gradient_Swatch_1);}.cls-2{fill:#fff;}.cls-3{fill:#ba9544;}</style><linearGradient id="New_Gradient_Swatch_1" y1="29.45037" x2="59.2975" y2="29.45037" gradientUnits="userSpaceOnUse"><stop offset="0" stop-color="#a88a34"/><stop offset="0.49324" stop-color="#caaf67"/><stop offset="1" stop-color="#957f2e"/></linearGradient></defs><title>diesel</title><polygon class="cls-1" points="51.302 9.489 26.579 0 3.75 13.412 0 39.625 18.157 58.901 44.546 56.724 59.297 34.732 51.302 9.489"/><path class="cls-2" d="M21.73278,22.37971a2.5298,2.5298,0,0,1,.47664-.19562,4.58165,4.58165,0,0,1,.53176-.135l.03031-.011,5.20183-1.14341a1.68361,1.68361,0,0,1,1.11034.17081l.87616.85688L28.13862,23.829,22.3334,25.1046c-.23144-1.047-.47113-2.138-.60062-2.72489M39.78489,36.89136l-2.85716-12.9963a1.948,1.948,0,0,0-2.1656-1.50709l1.5319-1.609.42154.3995.63646-.675a.41342.41342,0,0,0-.01654-.58412l-3.08031-2.9095a.41343.41343,0,0,0-.5841.01654l-.63646.675.507.47941-2.04436,2.14355L30.4833,19.3352l-.07162-.0551a3.87405,3.87405,0,0,0-2.91227-.5483L22.3527,19.8642a7.53323,7.53323,0,0,0-.90922.23419,3.09774,3.09774,0,0,0-1.66414,1.11035,1.79733,1.79733,0,0,0-.27,1.40241c.1598.71635.71634,3.25389,1.05248,4.77751.00551.03307.011.06612.0193.09919l2.85713,12.999a1.93625,1.93625,0,0,0,2.31438,1.47128l12.53892-2.758a1.94637,1.94637,0,0,0,1.49335-2.30886"/><path class="cls-3" d="M2.70035,90.1019V79.1976H6.89957q5.08446,0,5.085,5.45605,0,5.44776-5.085,5.44825ZM6.89957,87.93q2.89891-.00732,2.90527-3.27637-.00732-3.26952-2.90527-3.26953H4.88V87.93Z"/><path class="cls-3" d="M14.32339,79.1976h2.17188V90.1019H14.32339Z"/><path class="cls-3" d="M18.65347,90.1019V79.21225l8.00586-.00782v2.03418H20.83316v2.3252h4.36621v2.02637H20.83316v2.47754h5.81152V90.1019Z"/><path class="cls-3" d="M34.75308,79.56772a5.077,5.077,0,0,1,1.56152,1.08984l-1.45312,1.45312a2.50219,2.50219,0,0,0-2.03418-.87207q-1.30811,0-1.6709.61817a.849.849,0,0,0,0,1.05273,2.86867,2.86867,0,0,0,1.6709.6543,5.40832,5.40832,0,0,1,2.50684.9082,2.72815,2.72815,0,0,1,1.126,2.4336,2.79579,2.79579,0,0,1-1.20215,2.252,4.40253,4.40253,0,0,1-2.80078.94434,6.46018,6.46018,0,0,1-2.53515-.43555,5.50043,5.50043,0,0,1-1.74414-1.16309L29.631,87.05111a3.45273,3.45273,0,0,0,2.46973,1.01661q1.45313,0,1.8125-.61719a1.14886,1.14886,0,0,0,0-1.23535q-.35889-.61671-1.8125-.7627a5.86562,5.86562,0,0,1-2.39746-.79883,2.41091,2.41091,0,0,1-1.08887-2.25195,2.71143,2.71143,0,0,1,1.23828-2.32129,4.36013,4.36013,0,0,1,2.5459-.876A6.08383,6.08383,0,0,1,34.75308,79.56772Z"/><path class="cls-3" d="M38.3771,90.1019V79.21225l8.00586-.00782v2.03418H40.55679v2.3252H44.923v2.02637H40.55679v2.47754h5.81153V90.1019Z"/><path class="cls-3" d="M50.77847,79.20443v8.86329H56.59V90.1019H48.59878V79.20443Z"/></svg>