<svg id="Layer_1" data-name="Layer 1" xmlns="http://www.w3.org/2000/svg" xmlns:xlink="http://www.w3.org/1999/xlink" width="57.88684" height="85.76358" viewBox="0 0 57.88684 85.76358"><defs><style>.cls-1{fill:url(#New_Gradient_Swatch_1);}.cls-2{fill:#fff;}.cls-3{fill:#ba9544;}</style><linearGradient id="New_Gradient_Swatch_1" y1="28.27942" x2="57.88684" y2="28.27942" gradientUnits="userSpaceOnUse"><stop offset="0" stop-color="#a88a34"/><stop offset="0.49324" stop-color="#caaf67"/><stop offset="1" stop-color="#957f2e"/></linearGradient></defs><title>lemon</title><polygon class="cls-1" points="8.905 50.131 0 21.852 20.041 0 48.985 6.428 57.887 34.71 37.848 56.559 8.905 50.131"/><path class="cls-2" d="M40.99332,25.05252c-1.58426-3.86-6.15238-6.505-12.04852-6.45544-5.81073.04959-10.4312,2.66979-12.00718,6.45544-1.41342.62819-3.05827,1.96722-3.05827,3.22635,0,1.2481,1.63108,2.60917,3.09133,3.22359,1.55945,3.736,6.14685,6.461,11.97412,6.461,5.84378,0,10.41743-2.76072,12.04852-6.461,1.52636-.6585,3.01417-1.992,3.01417-3.22084,0-1.26188-1.48506-2.57061-3.01417-3.2291"/><path class="cls-3" d="M3.53123,74.86612V83.7294H9.34276v2.03418H1.35155V74.86612Z"/><path class="cls-3" d="M11.10838,85.76358V74.87393l8.00586-.00781V76.9003H13.28807v2.3252h4.36621v2.02636H13.28807V83.7294h5.81152v2.03418Z"/><path class="cls-3" d="M21.3076,85.76358V74.86612h.72656l4.72168,5.376,4.7295-5.376h.72656V85.76358H30.03221l-.00683-6.32031-3.26954,3.63281-3.26855-3.63281v6.32031Z"/><path class="cls-3" d="M35.39452,84.19815a5.61282,5.61282,0,1,1,3.88671,1.56543A5.27978,5.27978,0,0,1,35.39452,84.19815Zm3.89355-.46875a3.06407,3.06407,0,0,0,2.35449-.98047,3.71759,3.71759,0,0,0,0-4.86718,3.33132,3.33132,0,0,0-4.72265,0,3.71456,3.71456,0,0,0,0,4.86718A3.08065,3.08065,0,0,0,39.28807,83.7294Z"/><path class="cls-3" d="M46.34959,85.76358V74.86612h.72657l6.8291,6.8291v-6.8291H56.084V85.76358h-.79883l-6.75586-6.75586v6.75586Z"/></svg>