<svg id="Layer_1" data-name="Layer 1" xmlns="http://www.w3.org/2000/svg" width="300" height="250" viewBox="0 0 300 250"><defs><style>.cls-1{fill:#ab9555;}</style></defs><title>frame4</title><path class="cls-1" d="M89.552,161.96327V145.0414h3.81885a4.86685,4.86685,0,0,1,2.72607.7959,3.707,3.707,0,0,1,1.48438,2.09179A5.88576,5.88576,0,0,1,97.824,149.724a3.97327,3.97327,0,0,1-.90381,2.72559,2.56536,2.56536,0,0,1-.89062.66113,2.96384,2.96384,0,0,1,1.44385,1.28223,4.98551,4.98551,0,0,1,.58008,1.67285,6.66877,6.66877,0,0,1,.09472,1.17383,5.65328,5.65328,0,0,1-.60742,2.72656,3.643,3.643,0,0,1-1.33594,1.40332,3.682,3.682,0,0,1-1.92968.59375Zm2.75293-10.01269h1.06592a1.56283,1.56283,0,0,0,1.59277-1.16114A3.31188,3.31188,0,0,0,95.112,149.724a2.231,2.231,0,0,0-.51318-1.59277,1.61282,1.61282,0,0,0-1.228-.499H92.30491Zm0,7.48925h1.06592a1.80986,1.80986,0,0,0,1.79492-1.33593,2.94088,2.94088,0,0,0,.17529-1.05274,3.20513,3.20513,0,0,0-.53955-2.06445,1.7387,1.7387,0,0,0-1.43066-.59375H92.30491Z"/><path class="cls-1" d="M102.62718,161.96327V145.0414h7.26025v2.56347H105.178v4.61524h3.44092v2.56347H105.178v4.61524h4.70947v2.56445Z"/><path class="cls-1" d="M126.011,145.05507a3.88347,3.88347,0,0,1,2.96875,1.17383,4.07236,4.07236,0,0,1,1.0254,2.86035v2.45605a3.93684,3.93684,0,0,1-1.167,2.86133,3.82057,3.82057,0,0,1-2.82715,1.1875h-1.4707v6.36914h-2.55078v-16.9082Zm1.52491,4.07519a1.45515,1.45515,0,0,0-.398-1.0664,1.421,1.421,0,0,0-1.05957-.40528h-1.53809v5.41211h1.53809a1.394,1.394,0,0,0,1.03222-.43261,1.42486,1.42486,0,0,0,.4253-1.03907Z"/><path class="cls-1" d="M138.34348,145.05507a3.88766,3.88766,0,0,1,3.13086,1.17383,4.26759,4.26759,0,0,1,.877,2.86035v2.45605a3.95165,3.95165,0,0,1-1.3628,3.03614l1.88868,7.38183h-2.75782l-1.54638-6.36914h-1.7002v6.36914H134.322v-16.9082Zm1.52491,4.07519a1.29484,1.29484,0,0,0-1.45752-1.47168h-1.53809v5.41211h1.53809a1.394,1.394,0,0,0,1.03222-.43261,1.42486,1.42486,0,0,0,.4253-1.03907Z"/><path class="cls-1" d="M147.34348,161.96327V145.0414h7.25977v2.56347h-4.709v4.61524h3.44043v2.56347h-3.44043v4.61524h4.709v2.56445Z"/><path class="cls-1" d="M167.072,157.75233a4.75966,4.75966,0,0,1-.918,3.02344,3.31291,3.31291,0,0,1-1.7539,1.20117,4.82089,4.82089,0,0,1-1.417.18848,4.00786,4.00786,0,0,1-2.4834-.74219,4.15312,4.15312,0,0,1-1.30175-1.65332,6.657,6.657,0,0,1-.56055-2.39453l2.42871-.17578a3.69052,3.69052,0,0,0,.7832,2.14258,1.30561,1.30561,0,0,0,1.05274.47558,1.584,1.584,0,0,0,1.33594-.82421,2.04629,2.04629,0,0,0,.25586-1.1211,3.1136,3.1136,0,0,0-.958-2.09375q-.75586-.71484-2.2666-2.14746a9.67084,9.67084,0,0,1-1.79493-2.20117,5.0891,5.0891,0,0,1-.5664-2.37695,4.13465,4.13465,0,0,1,1.55176-3.499,3.85906,3.85906,0,0,1,2.375-.71582,4.31989,4.31989,0,0,1,2.334.60742,3.51565,3.51565,0,0,1,1.22168,1.32227,4.88987,4.88987,0,0,1,.55957,1.957l-2.44238.44531a2.94368,2.94368,0,0,0-.59375-1.61914,1.24852,1.24852,0,0,0-1.01172-.418,1.16733,1.16733,0,0,0-1.06641.62012,2.39116,2.39116,0,0,0-.29687,1.24121,3.72523,3.72523,0,0,0,.999,2.36231,8.33121,8.33121,0,0,0,1.13281,1.0791q.89063.74268,1.17481,1.03906a8.68956,8.68956,0,0,1,1.457,1.86231,7.30466,7.30466,0,0,1,.3916.79589A4.67419,4.67419,0,0,1,167.072,157.75233Z"/><path class="cls-1" d="M171.46946,161.96327V145.0414h7.25977v2.56347h-4.709v4.61524h3.44043v2.56347h-3.44043v4.61524h4.709v2.56445Z"/><path class="cls-1" d="M185.62571,145.0414l3.38477,11.37207V145.0414h2.55078v16.92187H188.822l-3.50879-10.83594v10.83594h-2.55078V145.0414Z"/><path class="cls-1" d="M198.6052,147.61855h-2.71289v-2.56348h7.96192v2.56348H201.155v14.34472H198.6052Z"/><path class="cls-1" d="M207.88841,159.42616h2.55078v2.55078h-2.55078Z"/></svg>