<svg id="Layer_1" data-name="Layer 1" xmlns="http://www.w3.org/2000/svg" width="160" height="600" viewBox="0 0 160 600"><defs><style>.cls-1{fill:#ab9555;}</style></defs><title>frame2</title><path class="cls-1" d="M44.724,296.00586H37.77476v-16.9082h2.55078v14.37109H44.724Z"/><path class="cls-1" d="M52.79331,278.88135a4.04271,4.04271,0,0,1,4.04785,4.04834v9.23047a4.04152,4.04152,0,1,1-8.083,0v-9.23047a4.04355,4.04355,0,0,1,4.03515-4.04834ZM54.183,282.876a1.45124,1.45124,0,0,0-1.458-1.45752,1.42806,1.42806,0,0,0-1.03906.42529,1.39676,1.39676,0,0,0-.43164,1.03223v9.25683a1.39862,1.39862,0,0,0,.43164,1.03272,1.42955,1.42955,0,0,0,1.03906.4248,1.45042,1.45042,0,0,0,1.458-1.45752Z"/><path class="cls-1" d="M65.35581,278.88135a4.04438,4.04438,0,0,1,4.04883,4.04834v9.23047a4.042,4.042,0,1,1-8.084,0v-9.23047a4.04355,4.04355,0,0,1,4.03515-4.04834Zm1.38965,3.99463a1.45124,1.45124,0,0,0-1.457-1.45752,1.42646,1.42646,0,0,0-1.03906.42529,1.39306,1.39306,0,0,0-.43164,1.03223v9.25683a1.39491,1.39491,0,0,0,.43164,1.03272,1.42794,1.42794,0,0,0,1.03906.4248,1.45041,1.45041,0,0,0,1.457-1.45752Z"/><path class="cls-1" d="M76.475,290.64209v5.36377H73.92417V279.084H76.475v6.03174l3.11719-6.03174h2.71875l-3.49121,6.90235,4.09375,10.01953H79.91538l-2.67773-6.87012Z"/><path class="cls-1" d="M99.04722,296.19482a4.00789,4.00789,0,0,1-4.03516-4.02148V279.09766h2.49707v13.04882a1.3931,1.3931,0,0,0,.43164,1.03223,1.42489,1.42489,0,0,0,1.03907.42529,1.45125,1.45125,0,0,0,1.457-1.45752V279.09766h2.6582v13.07568a3.84055,3.84055,0,0,1-1.1875,2.86084A3.94285,3.94285,0,0,1,99.04722,296.19482Z"/><path class="cls-1" d="M111.66343,279.09766a3.88527,3.88527,0,0,1,2.96875,1.17382,4.07282,4.07282,0,0,1,1.02539,2.86084v2.45606a3.933,3.933,0,0,1-1.167,2.86084,3.81878,3.81878,0,0,1-2.82715,1.1875h-1.4707v6.36914h-2.55079v-16.9082Zm1.52441,4.07519a1.4564,1.4564,0,0,0-.39746-1.06592,1.4199,1.4199,0,0,0-1.05957-.40527h-1.53808v5.41162h1.53808a1.39274,1.39274,0,0,0,1.03223-.43213,1.42794,1.42794,0,0,0,.4248-1.03906Z"/><path class="cls-1" d="M119.69175,293.46875h2.55078v2.55078h-2.55078Z"/></svg>