<svg id="Layer_1" data-name="Layer 1" xmlns="http://www.w3.org/2000/svg" xmlns:xlink="http://www.w3.org/1999/xlink" width="47.30745" height="69.88557" viewBox="0 0 47.30745 69.88557"><defs><style>.cls-1{fill:url(#New_Gradient_Swatch_1);}.cls-2{fill:#fff;}.cls-3{fill:#ba9544;}</style><linearGradient id="New_Gradient_Swatch_1" x1="1.03426" y1="23.66886" x2="47.30745" y2="23.66886" gradientUnits="userSpaceOnUse"><stop offset="0" stop-color="#a88a34"/><stop offset="0.49324" stop-color="#caaf67"/><stop offset="1" stop-color="#957f2e"/></linearGradient></defs><title>sweet</title><polygon class="cls-1" points="20.256 47.338 1.034 25.14 16.206 0 44.804 6.66 47.307 35.916 20.256 47.338"/><path class="cls-2" d="M35.64417,15.65255A1.149,1.149,0,0,1,34.496,14.50441a1.8577,1.8577,0,0,0-1.85859-1.85858h-.60706a1.25271,1.25271,0,0,0-1.25374,1.25152v4.33742a6.10894,6.10894,0,0,0-8.037.53008l-1.16355,1.16354a6.109,6.109,0,0,0-.53007,8.037H16.70861a1.25128,1.25128,0,0,0-1.25152,1.25372v.60706a1.85769,1.85769,0,0,0,1.85859,1.85858,1.149,1.149,0,0,1,1.14815,1.14814,1.85767,1.85767,0,0,0,1.85858,1.85858h.60707a1.25267,1.25267,0,0,0,1.2537-1.25152V29.10252a6.109,6.109,0,0,0,8.037-.53008L31.3837,27.4089a6.10886,6.10886,0,0,0,.53007-8.037H36.2512a1.25268,1.25268,0,0,0,1.25152-1.25371v-.60706a1.85767,1.85767,0,0,0-1.85855-1.85859"/><path class="cls-3" d="M5.24854,61.47639a4.0503,4.0503,0,0,1,1.24707.87012L5.33545,63.50569a1.996,1.996,0,0,0-1.62354-.69531q-1.0437,0-1.334.49316a.6784.6784,0,0,0,0,.84082,2.2986,2.2986,0,0,0,1.334.52148,4.31264,4.31264,0,0,1,2.00049.72559,2.175,2.175,0,0,1,.89893,1.94238,2.23085,2.23085,0,0,1-.95947,1.79786,3.51412,3.51412,0,0,1-2.23584.7539,5.1607,5.1607,0,0,1-2.02393-.34765A4.39558,4.39558,0,0,1,0,68.6092L1.16016,67.45a2.75547,2.75547,0,0,0,1.97168.81153q1.16014,0,1.44677-.49317a.91718.91718,0,0,0,0-.98535q-.28637-.49365-1.44677-.60937a4.6772,4.6772,0,0,1-1.91358-.6377,1.92433,1.92433,0,0,1-.87012-1.79785,2.16412,2.16412,0,0,1,.98877-1.85254,3.48414,3.48414,0,0,1,2.03272-.69922A4.85086,4.85086,0,0,1,5.24854,61.47639Z"/><path class="cls-3" d="M13.45508,63.50569l-1.73975,6.37988H9.97559L7.6499,61.18635h1.856l1.51367,5.915,1.56543-5.915h1.79785l1.5083,5.915,1.50782-5.915h1.85546l-2.31982,8.69922H15.19482Z"/><path class="cls-3" d="M20.51855,69.88557V61.19221l6.39112-.00586v1.624H22.25879v1.85546h3.48535V66.284H22.25879v1.97754H26.898v1.624Z"/><path class="cls-3" d="M28.6377,69.88557V61.19221l6.39111-.00586v1.624H30.37793v1.85546h3.48535V66.284H30.37793v1.97754h4.63916v1.624Z"/><path class="cls-3" d="M43.87891,61.18635v1.624H40.979v7.07519H39.23926V62.81038h-2.8999v-1.624Z"/></svg>