<svg id="Content" xmlns="http://www.w3.org/2000/svg" width="320" height="480" viewBox="0 0 320 480"><defs><style>.cls-1{fill:#fff;stroke:#ba9544;stroke-miterlimit:10;stroke-width:0.5px;}.cls-2{fill:#ba9544;}</style></defs><title>THC - Durga Mata</title><polygon class="cls-1" points="253.51 229.999 67.429 229.294 58.035 242.84 67.429 256.146 253.51 255.829 261.965 242.915 253.51 229.999"/><polygon class="cls-2" points="67.565 229.294 58.171 242.84 67.565 256.146 86.182 256.146 85.977 229.294 67.565 229.294"/><path class="cls-2" d="M173.93359,238.40088v1.70068h-3.03711v7.41016h-1.82226v-7.41016h-3.03613v-1.70068Z"/><path class="cls-2" d="M175.28809,247.51172v-9.11084h1.82226v3.64453h4.24512V238.395h1.82226v9.11084l-1.82226.00586v-3.76563h-4.24512v3.76563Z"/><path class="cls-2" d="M186.00488,246.20264a4.557,4.557,0,0,1,3.24024-7.80176,4.92932,4.92932,0,0,1,3.34668,1.21484L191.377,240.9458a3.35825,3.35825,0,0,0-2.13183-.72851,2.59661,2.59661,0,0,0-2.72657,2.709,2.73105,2.73105,0,0,0,.75879,2.01611,2.68932,2.68932,0,0,0,1.98047.74707,3.2627,3.2627,0,0,0,2.11914-.72265l1.21485,1.33008a4.913,4.913,0,0,1-3.34668,1.21484A4.43316,4.43316,0,0,1,186.00488,246.20264Z"/><path class="cls-2" d="M194.63281,241.70215a.88087.88087,0,0,1,.65625-.2461.911.911,0,0,1,.67969.2461.83424.83424,0,0,1,.24316.61035.82291.82291,0,0,1-.24316.60742,1.039,1.039,0,0,1-1.33594,0,.82291.82291,0,0,1-.24316-.60742A.83424.83424,0,0,1,194.63281,241.70215Zm0,4.34863a.88248.88248,0,0,1,.65625-.2456.91266.91266,0,0,1,.67969.2456.8346.8346,0,0,1,.24316.61084.82255.82255,0,0,1-.24316.60693,1.039,1.039,0,0,1-1.33594,0,.82255.82255,0,0,1-.24316-.60693A.8346.8346,0,0,1,194.63281,246.05078Z"/><path class="cls-2" d="M206.23926,238.40723V238.395h1.8164v5.29639h1.22657v1.81591h-1.22657v2.0044h-1.8164v-2.0044h-4.13574v-1.81591h.06054l-.05468-.061Zm0,5.28418v-2.90332l-2.2168,2.90332Z"/><path class="cls-2" d="M210.67285,245.07617v-1.20849h3.76563v1.20849Z"/><path class="cls-2" d="M221.15625,242.89551c.10937.04053.209.08105.29785.12158a1.78552,1.78552,0,0,1,.94141,1.82227,2.339,2.339,0,0,1-.88379,2.03466,4.37478,4.37478,0,0,1-4.54883,0,2.3366,2.3366,0,0,1-.88379-2.03466,1.78552,1.78552,0,0,1,.94141-1.82227c.08887-.04053.1875-.08105.29687-.12158q-.09668-.04834-.17578-.09082a1.80142,1.80142,0,0,1-.82031-1.731,2.49278,2.49278,0,0,1,.793-1.97412,3.57323,3.57323,0,0,1,4.24512,0,2.48961,2.48961,0,0,1,.793,1.97412,1.80268,1.80268,0,0,1-.81933,1.731C221.28027,242.833,221.2207,242.86328,221.15625,242.89551Zm-1.91895-.82569q.80127-.02416,1.03223-.41943a.97014.97014,0,0,0,0-1.03223,1.16745,1.16745,0,0,0-1.03223-.51025,1.15073,1.15073,0,0,0-1.02636.51025.95041.95041,0,0,0,0,1.03223Q218.43506,242.04516,219.2373,242.06982Zm0,1.66993a1.35333,1.35333,0,0,0-1.02636.52246.95122.95122,0,0,0,0,1.03271,1.15074,1.15074,0,0,0,1.02636.51026,1.16746,1.16746,0,0,0,1.03223-.51026.971.971,0,0,0,0-1.03271A1.37874,1.37874,0,0,0,219.2373,243.73975Z"/><path class="cls-2" d="M224.51465,242.24561a2.34729,2.34729,0,1,1,1.62793.65625A2.21136,2.21136,0,0,1,224.51465,242.24561Zm1.61035-.42481a1.0864,1.0864,0,0,0,.832-.34619,1.31453,1.31453,0,0,0,0-1.72217,1.09863,1.09863,0,0,0-.83887-.34326,1.08048,1.08048,0,0,0-.82519.34326,1.31151,1.31151,0,0,0,0,1.72217A1.0835,1.0835,0,0,0,226.125,241.8208Zm-.48633,5.69092,5.16309-9.11084h1.48144l-5.15039,9.11084Zm4.52539-.60108a2.33214,2.33214,0,1,1,1.61524.64991A2.1936,2.1936,0,0,1,230.16406,246.91064Zm1.585-.44384a1.06369,1.06369,0,0,0,.81348-.33692,1.26826,1.26826,0,0,0,0-1.67627,1.15168,1.15168,0,0,0-1.62793,0,1.27122,1.27122,0,0,0,0,1.67627A1.06726,1.06726,0,0,0,231.749,246.4668Z"/></svg>