<?xml version="1.0" encoding="utf-8"?>
<!-- Generator: Adobe Illustrator 23.0.1, SVG Export Plug-In . SVG Version: 6.00 Build 0)  -->
<svg version="1.1" id="Layer_3" xmlns="http://www.w3.org/2000/svg" xmlns:xlink="http://www.w3.org/1999/xlink" x="0px" y="0px"
	 viewBox="0 0 37 52" style="enable-background:new 0 0 37 52;" xml:space="preserve">
<style type="text/css">
	.st0{fill:url(#SVGID_1_);}
	.st1{fill:#FFFFFF;}
	.st2{fill:#BA9544;}
</style>
<g>
	<g>
		<linearGradient id="SVGID_1_" gradientUnits="userSpaceOnUse" x1="1.7251" y1="17.4162" x2="35.0336" y2="17.4162">
			<stop  offset="0" style="stop-color:#A88A34"/>
			<stop  offset="0.4932" style="stop-color:#CAAF67"/>
			<stop  offset="1" style="stop-color:#957F2E"/>
		</linearGradient>
		<polygon class="st0" points="26.71,2.99 10.05,2.99 1.73,17.42 10.05,31.84 26.71,31.84 35.03,17.42 		"/>
		<path class="st1" d="M25.19,19.46c-2.67,2.78-7.08,3.02-10.04,0.48c-2.96-2.54-3.4-6.94-1.06-10l-0.68-0.58
			c-2.66,3.44-2.18,8.4,1.15,11.26c3.34,2.86,8.31,2.58,11.3-0.58L25.19,19.46z"/>
		<path class="st1" d="M13.28,15.12c0.17,1.53,0.87,3,2.07,4.13l3.94-4.59L13.28,15.12z"/>
		<path class="st1" d="M15.8,19.64c1.28,1,2.82,1.46,4.33,1.41l-0.45-5.93L15.8,19.64z"/>
		<path class="st1" d="M14.58,10.36c-0.93,1.24-1.37,2.71-1.34,4.16l5.69-0.44L14.58,10.36z"/>
		<path class="st1" d="M24.7,19.04l-4.42-3.79l0.44,5.76C22.19,20.83,23.61,20.17,24.7,19.04"/>
		<path class="st1" d="M19.25,13.59c0.03-0.37,0.24-0.61,0.48-0.63c0.24-0.02,0.41,0.18,0.38,0.56c-0.03,0.37-0.48,0.71-0.48,0.71
			S19.22,13.97,19.25,13.59"/>
		<path class="st1" d="M20.79,13.95c0.36-0.11,0.6,0.02,0.63,0.25c0.03,0.23-0.16,0.48-0.52,0.59c-0.36,0.11-0.71-0.23-0.71-0.23
			S20.43,14.06,20.79,13.95"/>
		<path class="st1" d="M21.46,25.48c0.02,0.43-0.32,0.78-0.74,0.8c-0.43,0.01-0.78-0.32-0.8-0.75c-0.01-0.43,0.73-1.27,0.73-1.27
			S21.45,25.06,21.46,25.48"/>
		<path class="st1" d="M21.19,24.98c0,0.13-0.08,0.24-0.19,0.24l-0.64,0.02c-0.11,0-0.2-0.1-0.2-0.23c0,0,0.24-0.72,0.07-1.23
			c-0.25-0.73-1.96-1.31-1.85-1.31l3.53-0.25c-0.57,0.43-0.9,1.13-0.95,1.55C20.86,24.59,21.19,24.98,21.19,24.98"/>
	</g>
	<g>
		<path class="st2" d="M3.25,50.6c-0.59-0.58-0.88-1.31-0.88-2.19c0-0.86,0.3-1.58,0.88-2.17s1.31-0.88,2.17-0.88
			c0.87,0,1.62,0.27,2.25,0.82l-0.82,0.89c-0.42-0.33-0.89-0.49-1.43-0.49c-0.55,0-0.99,0.17-1.33,0.51
			c-0.34,0.34-0.5,0.78-0.5,1.31c0,0.57,0.17,1.02,0.51,1.35c0.34,0.33,0.78,0.5,1.33,0.5c0.55,0,1.02-0.16,1.42-0.49l0.82,0.89
			c-0.62,0.54-1.37,0.82-2.25,0.82C4.56,51.48,3.83,51.19,3.25,50.6z"/>
		<path class="st2" d="M8.99,45.36h1.22v6.13H8.99V45.36z"/>
		<path class="st2" d="M16.43,45.36v1.14h-2.04v4.98h-1.22V46.5h-2.04v-1.14H16.43z"/>
		<path class="st2" d="M21.03,48.81l1.53,2.67h-1.4l-1.46-2.53h-1.12v2.53h-1.22v-6.12h2.67c1.43,0,2.14,0.59,2.14,1.76
			C22.15,48.01,21.78,48.57,21.03,48.81z M18.57,47.81h1.71c0.49-0.01,0.75-0.23,0.76-0.67c-0.01-0.4-0.26-0.61-0.75-0.63h-1.73
			V47.81z"/>
		<path class="st2" d="M24.32,45.36v3.55c0,0.46,0.14,0.8,0.41,1.02c0.27,0.22,0.61,0.33,1.02,0.33s0.75-0.11,1.02-0.33
			c0.27-0.22,0.41-0.56,0.41-1.02v-3.55h1.22v3.88c0,0.63-0.25,1.16-0.75,1.59c-0.5,0.43-1.14,0.65-1.9,0.65s-1.39-0.22-1.9-0.65
			c-0.5-0.44-0.75-0.97-0.75-1.59v-3.88H24.32z"/>
		<path class="st2" d="M33.04,45.57c0.31,0.14,0.61,0.34,0.88,0.61l-0.82,0.82c-0.27-0.33-0.65-0.49-1.14-0.49
			c-0.49,0-0.8,0.12-0.94,0.35c-0.14,0.23-0.14,0.43,0,0.59c0.14,0.16,0.45,0.29,0.94,0.37c0.52,0.05,0.99,0.22,1.41,0.51
			c0.42,0.29,0.63,0.74,0.63,1.37c0,0.49-0.23,0.91-0.68,1.26s-0.97,0.53-1.57,0.53c-0.57,0-1.04-0.08-1.42-0.24
			c-0.38-0.16-0.71-0.38-0.98-0.65l0.82-0.82c0.27,0.33,0.73,0.52,1.39,0.57c0.54,0,0.88-0.12,1.02-0.35s0.13-0.46,0-0.69
			s-0.47-0.37-1.02-0.43c-0.49-0.05-0.94-0.2-1.35-0.45c-0.41-0.24-0.61-0.67-0.61-1.26c0-0.54,0.23-0.98,0.7-1.3
			c0.46-0.33,0.94-0.49,1.43-0.49C32.28,45.36,32.72,45.43,33.04,45.57z"/>
	</g>
</g>
<g>
</g>
<g>
</g>
<g>
</g>
<g>
</g>
<g>
</g>
<g>
</g>
<g>
</g>
<g>
</g>
<g>
</g>
<g>
</g>
<g>
</g>
<g>
</g>
<g>
</g>
<g>
</g>
<g>
</g>
</svg>
