<svg xmlns="http://www.w3.org/2000/svg" width="727.99955" height="90" viewBox="0 0 727.99955 90"><defs><style>.cls-1{fill:#ba9544;}</style></defs><title>Frame1 - Ultra Sour</title><g id="Content"><path class="cls-1" d="M222.66072,34.90723V52.18555c0,1.60058.7041,2.17675,1.82422,2.17675,1.11914,0,1.82422-.57617,1.82422-2.17675V34.90723h3.32715V51.96191c0,3.584-1.792,5.63184-5.24707,5.63184-3.457,0-5.24805-2.04785-5.24805-5.63184V34.90723Z"/><path class="cls-1" d="M235.4283,34.90723h3.52051V54.10547h5.792v3.20019h-9.3125Z"/><path class="cls-1" d="M248.6451,34.90723H259.524v3.20019h-3.67969V57.30566h-3.51953V38.10742H248.6451Z"/><path class="cls-1" d="M271.81111,57.30566a6.89761,6.89761,0,0,1-.32031-2.752V51.03418c0-2.08008-.70313-2.84766-2.30274-2.84766h-1.21679v9.11914h-3.51953V34.90723h5.31152c3.64746,0,5.21582,1.69629,5.21582,5.15136v1.75977c0,2.30469-.73633,3.80859-2.30371,4.54394,1.75976.73633,2.33594,2.43165,2.33594,4.76758v3.45606a6.603,6.603,0,0,0,.38379,2.71972Zm-3.83984-19.19824v6.87891h1.377c1.31055,0,2.11133-.57617,2.11133-2.36719v-2.208c0-1.60058-.54395-2.30371-1.792-2.30371Z"/><path class="cls-1" d="M292.09822,57.30566h-3.55078l-.6084-4.06347H283.6197l-.60742,4.06347h-3.23242l3.584-22.39843h5.15136ZM284.067,50.20215h3.39258L285.76326,38.875Z"/><path class="cls-1" d="M310.2115,34.65137c3.42383,0,5.1836,2.04785,5.1836,5.63183v.7041H312.067v-.92871c0-1.59961-.63965-2.207-1.75977-2.207-1.11914,0-1.75976.60742-1.75976,2.207,0,4.6084,6.87891,5.47168,6.87891,11.8711,0,3.584-1.791,5.63183-5.24707,5.63183s-5.24708-2.04785-5.24708-5.63183v-1.376h3.32715V52.1543c0,1.59961.7041,2.17578,1.82422,2.17578s1.82324-.57617,1.82324-2.17578c0-4.6084-6.8789-5.47168-6.8789-11.8711C305.02791,36.69922,306.78767,34.65137,310.2115,34.65137Z"/><path class="cls-1" d="M320.54744,40.2832c0-3.584,1.88867-5.63183,5.34375-5.63183,3.45605,0,5.34375,2.04785,5.34375,5.63183V51.92969c0,3.584-1.8877,5.63183-5.34375,5.63183-3.45508,0-5.34375-2.04785-5.34375-5.63183ZM324.067,52.1543c0,1.59961.70508,2.208,1.82422,2.208,1.12012,0,1.82422-.60839,1.82422-2.208V40.05859c0-1.59961-.7041-2.207-1.82422-2.207-1.11914,0-1.82422.60742-1.82422,2.207Z"/><path class="cls-1" d="M340.25935,34.90723V52.18555c0,1.60058.7041,2.17675,1.82325,2.17675,1.12109,0,1.82421-.57617,1.82421-2.17675V34.90723h3.32813V51.96191c0,3.584-1.792,5.63184-5.248,5.63184-3.45508,0-5.24707-2.04785-5.24707-5.63184V34.90723Z"/><path class="cls-1" d="M360.38728,57.30566a6.85908,6.85908,0,0,1-.32031-2.752V51.03418c0-2.08008-.70508-2.84766-2.30469-2.84766h-1.21484v9.11914h-3.52051V34.90723h5.31152c3.64844,0,5.2168,1.69629,5.2168,5.15136v1.75977c0,2.30469-.73633,3.80859-2.30469,4.54394,1.75977.73633,2.33594,2.43165,2.33594,4.76758v3.45606a6.60369,6.60369,0,0,0,.38281,2.71972Zm-3.83984-19.19824v6.87891h1.375c1.3125,0,2.11133-.57617,2.11133-2.36719v-2.208c0-1.60058-.543-2.30371-1.791-2.30371Z"/></g></svg>