<svg id="Layer_1" data-name="Layer 1" xmlns="http://www.w3.org/2000/svg" width="728" height="90" viewBox="0 0 728 90"><defs><style>.cls-1{fill:#ab9555;}</style></defs><title>frame4</title><path class="cls-1" d="M297.01025,60.29884V40.627h4.44a5.66116,5.66116,0,0,1,3.16894.92481,4.31161,4.31161,0,0,1,1.72559,2.43164,6.86107,6.86107,0,0,1,.28222,2.08691,4.61884,4.61884,0,0,1-1.05127,3.16895,2.96969,2.96969,0,0,1-1.03515.76855,3.44861,3.44861,0,0,1,1.67871,1.49024,5.79707,5.79707,0,0,1,.67431,1.94531,7.75386,7.75386,0,0,1,.10987,1.36523,6.5634,6.5634,0,0,1-.70606,3.168,4.22374,4.22374,0,0,1-1.55273,1.63184,4.27289,4.27289,0,0,1-2.24365.69043Zm3.20069-11.64063h1.23926a1.81629,1.81629,0,0,0,1.85107-1.34863,3.85912,3.85912,0,0,0,.17236-1.23926,2.59261,2.59261,0,0,0-.59619-1.85156,1.87619,1.87619,0,0,0-1.42724-.58008h-1.23926Zm0,8.707h1.23926a2.104,2.104,0,0,0,2.08642-1.55273,3.416,3.416,0,0,0,.20361-1.22363,3.7254,3.7254,0,0,0-.62744-2.40039,2.02357,2.02357,0,0,0-1.66259-.69043h-1.23926Z"/><path class="cls-1" d="M311.32715,60.29884V40.627h8.43994v2.98047h-5.47461v5.36524h4v2.98046h-4v5.36524h5.47461v2.98047Z"/><path class="cls-1" d="M335.86133,40.64259a4.51671,4.51671,0,0,1,3.45117,1.36426,4.736,4.736,0,0,1,1.19238,3.32617v2.85449a4.57132,4.57132,0,0,1-1.35742,3.32617,4.43519,4.43519,0,0,1-3.28613,1.38086h-1.71v7.4043H331.186V40.64259Zm1.77246,4.7373a1.69018,1.69018,0,0,0-.46289-1.23926,1.65069,1.65069,0,0,0-1.23145-.4707h-1.78808v6.291h1.78808a1.62026,1.62026,0,0,0,1.2002-.502,1.65981,1.65981,0,0,0,.49414-1.208Z"/><path class="cls-1" d="M349.31543,40.64259a4.5189,4.5189,0,0,1,3.63916,1.36426,4.96059,4.96059,0,0,1,1.02,3.32617v2.85449a4.59352,4.59352,0,0,1-1.58447,3.53027l2.1958,8.58106h-3.20655l-1.79736-7.4043h-1.97656v7.4043h-2.96533V40.64259Zm1.77246,4.7373a1.50473,1.50473,0,0,0-1.69434-1.71h-1.78808v6.291h1.78808a1.62026,1.62026,0,0,0,1.2002-.502,1.65981,1.65981,0,0,0,.49414-1.208Z"/><path class="cls-1" d="M358.894,60.29884V40.627H367.334v2.98047h-5.4746v5.36524h4v2.98046h-4v5.36524h5.4746v2.98047Z"/><path class="cls-1" d="M380.94531,55.40431a5.53368,5.53368,0,0,1-1.0664,3.51367,3.8403,3.8403,0,0,1-2.04,1.39648,5.55545,5.55545,0,0,1-1.64649.21973,4.655,4.655,0,0,1-2.88672-.86328A4.80887,4.80887,0,0,1,371.792,57.75a7.73488,7.73488,0,0,1-.65137-2.78516l2.82325-.2041a4.29522,4.29522,0,0,0,.91015,2.49219,1.51969,1.51969,0,0,0,1.22364.55176,1.84345,1.84345,0,0,0,1.55371-.958,2.38369,2.38369,0,0,0,.29785-1.30274,3.61753,3.61753,0,0,0-1.11426-2.43457q-.87891-.832-2.63574-2.49609a11.287,11.287,0,0,1-2.08594-2.55957,5.91713,5.91713,0,0,1-.65918-2.76367,4.80449,4.80449,0,0,1,1.80469-4.06641,4.48119,4.48119,0,0,1,2.76074-.832,5.02683,5.02683,0,0,1,2.71387.70508,4.08157,4.08157,0,0,1,1.41992,1.53809,5.69348,5.69348,0,0,1,.65039,2.27441l-2.83887.51758a3.42594,3.42594,0,0,0-.69043-1.88282,1.453,1.453,0,0,0-1.17675-.48632,1.35593,1.35593,0,0,0-1.23926.72168,2.78077,2.78077,0,0,0-.34473,1.44336,4.33607,4.33607,0,0,0,1.16016,2.74609,9.84121,9.84121,0,0,0,1.31836,1.25488q1.03564.8628,1.36426,1.208a10.03856,10.03856,0,0,1,1.69433,2.16406,8.33387,8.33387,0,0,1,.45508.92578A5.402,5.402,0,0,1,380.94531,55.40431Z"/><path class="cls-1" d="M385.1748,60.29884V40.627h8.43946v2.98047h-5.47461v5.36524h4v2.98046h-4v5.36524h5.47461v2.98047Z"/><path class="cls-1" d="M400.75,40.627l3.93457,13.22071V40.627h2.96484V60.29884h-3.18457l-4.0791-12.59766V60.29884H397.4209V40.627Z"/><path class="cls-1" d="M414.9541,43.62306h-3.15332V40.64259h9.25586v2.98047H417.919V60.29884H414.9541Z"/><path class="cls-1" d="M424.8623,57.34962h2.96582v2.96484H424.8623Z"/></svg>