<svg id="Layer_1" data-name="Layer 1" xmlns="http://www.w3.org/2000/svg" xmlns:xlink="http://www.w3.org/1999/xlink" width="970" height="250" viewBox="0 0 970 250"><defs><style>.cls-1{fill:url(#linear-gradient);}.cls-2{fill:url(#linear-gradient-2);}.cls-3{fill:url(#linear-gradient-3);}.cls-4{fill:url(#linear-gradient-4);}.cls-5{fill:url(#linear-gradient-5);}.cls-6{fill:url(#linear-gradient-6);}.cls-7{fill:url(#linear-gradient-7);}.cls-8{fill:url(#linear-gradient-8);}.cls-9{fill:url(#linear-gradient-9);}.cls-10{fill:url(#linear-gradient-10);}</style><linearGradient id="linear-gradient" x1="333.12207" y1="118.28196" x2="352.11801" y2="118.28196" gradientTransform="matrix(1, 0, 0, -1, 0, 252)" gradientUnits="userSpaceOnUse"><stop offset="0" stop-color="#cab272"/><stop offset="0.20527" stop-color="#cdb36c"/><stop offset="0.4882" stop-color="#d4b75a"/><stop offset="0.50029" stop-color="#d4b759"/><stop offset="0.74962" stop-color="#d4b563"/><stop offset="1" stop-color="#d3b372"/></linearGradient><linearGradient id="linear-gradient-2" x1="361.21387" y1="118.28159" x2="380.12207" y2="118.28159" xlink:href="#linear-gradient"/><linearGradient id="linear-gradient-3" x1="389.16113" y1="118.28159" x2="405.21875" y2="118.28159" xlink:href="#linear-gradient"/><linearGradient id="linear-gradient-4" x1="413.29495" y1="118.28159" x2="433.65921" y2="118.28159" xlink:href="#linear-gradient"/><linearGradient id="linear-gradient-5" x1="437.34671" y1="118.28159" x2="454.94241" y2="118.28159" xlink:href="#linear-gradient"/><linearGradient id="linear-gradient-6" x1="463.6748" y1="118.28159" x2="481.72165" y2="118.28159" xlink:href="#linear-gradient"/><linearGradient id="linear-gradient-7" x1="491.00781" y1="118.28159" x2="507.06543" y2="118.28159" xlink:href="#linear-gradient"/><linearGradient id="linear-gradient-8" x1="527.41699" y1="118.28159" x2="533.05664" y2="118.28159" xlink:href="#linear-gradient"/><linearGradient id="linear-gradient-9" x1="542.30176" y1="118.28159" x2="561.74316" y2="118.28159" xlink:href="#linear-gradient"/><linearGradient id="linear-gradient-10" x1="569.81934" y1="102.37778" x2="575.45898" y2="102.37778" xlink:href="#linear-gradient"/></defs><title>frame3</title><path class="cls-1" d="M333.12207,152.42154V115.01529h8.42871a10.74574,10.74574,0,0,1,6.0293,1.76368,8.21333,8.21333,0,0,1,3.28125,4.61425,13.21981,13.21981,0,0,1,.5332,3.97852,8.834,8.834,0,0,1-1.98926,6.02931,5.8635,5.8635,0,0,1-1.96875,1.45605,6.57843,6.57843,0,0,1,3.17871,2.83008,10.7026,10.7026,0,0,1,1.292,3.69141,15.13415,15.13415,0,0,1,.20507,2.6045,12.59281,12.59281,0,0,1-1.333,6.0293,8.654,8.654,0,0,1-7.21875,4.40918Zm6.07031-22.12793h2.3584a3.46557,3.46557,0,0,0,3.52734-2.56347,7.37752,7.37752,0,0,0,.32813-2.3584,4.94712,4.94712,0,0,0-1.12793-3.52735,3.58009,3.58009,0,0,0-2.72754-1.10742h-2.3584Zm0,16.5498h2.3584a4.011,4.011,0,0,0,3.97852-2.95312,6.382,6.382,0,0,0,.38965-2.31738,7.04066,7.04066,0,0,0-1.21-4.57325,3.82975,3.82975,0,0,0-3.1582-1.3125h-2.3584Z"/><path class="cls-2" d="M370.09375,115.01529q4.71679,0,6.91113,2.6045a9.41024,9.41024,0,0,1,1.94824,6.3164v5.43457a8.70067,8.70067,0,0,1-3.00976,6.70605l4.17871,16.34473h-6.083l-3.43945-14.12988c-.16406.01367-.334.0205-.51172.0205h-3.23437v14.10938h-5.63965V115.01529Zm3.36328,9.02344q0-3.26074-3.21-3.26075h-3.39355v11.956H370.247a3.06062,3.06062,0,0,0,2.2793-.95313,3.16016,3.16016,0,0,0,.93066-2.28711Z"/><path class="cls-3" d="M389.16113,152.42154V115.01529h16.05762v5.63965h-10.418v10.2539h7.6084v5.63965h-7.6084v10.23339h10.418v5.63964Z"/><path class="cls-4" d="M420.53418,143.82877l-1.374,8.59277h-5.86524l6.33692-37.40625h7.77246l6.25488,37.40625H427.753l-1.333-8.59277Zm2.95312-20.24122-2.09179,14.74512h4.18359Z"/><path class="cls-5" d="M443.335,120.65494h-5.98828v-5.63965h17.5957v5.63965h-5.96777v31.7666H443.335Z"/><path class="cls-6" d="M469.31445,136.58951v15.832H463.6748V115.01529h5.63965v15.89355H476.082V115.01529h5.63965v37.40625H476.082v-15.832Z"/><path class="cls-7" d="M491.00781,152.42154V115.01529h16.05762v5.63965h-10.418v10.2539h7.6084v5.63965h-7.6084v10.23339h10.418v5.63964Z"/><path class="cls-8" d="M533.05664,152.42154H527.417V115.01529h5.63965Z"/><path class="cls-9" d="M548.63867,115.01529l7.46485,25.12207V115.01529h5.63964v37.40625h-6.041l-7.76074-23.95313v23.95313h-5.63965V115.01529Z"/><path class="cls-10" d="M569.81934,146.8024H575.459v5.63965h-5.63964Z"/></svg>