<svg id="Layer_1" data-name="Layer 1" xmlns="http://www.w3.org/2000/svg" xmlns:xlink="http://www.w3.org/1999/xlink" width="970" height="250" viewBox="0 0 970 250"><defs><style>.cls-1{fill:url(#linear-gradient);}.cls-2{fill:url(#linear-gradient-2);}.cls-3{fill:url(#linear-gradient-3);}.cls-4{fill:url(#linear-gradient-4);}.cls-5{fill:url(#linear-gradient-5);}.cls-6{fill:url(#linear-gradient-6);}.cls-7{fill:url(#linear-gradient-7);}.cls-8{fill:url(#linear-gradient-8);}.cls-9{fill:url(#linear-gradient-9);}.cls-10{fill:url(#linear-gradient-10);}</style><linearGradient id="linear-gradient" x1="327.64551" y1="118.28189" x2="346.64146" y2="118.28189" gradientTransform="matrix(1, 0, 0, -1, 0, 252)" gradientUnits="userSpaceOnUse"><stop offset="0" stop-color="#cab272"/><stop offset="0.20527" stop-color="#cdb36c"/><stop offset="0.4882" stop-color="#d4b75a"/><stop offset="0.50029" stop-color="#d4b759"/><stop offset="0.74962" stop-color="#d4b563"/><stop offset="1" stop-color="#d3b372"/></linearGradient><linearGradient id="linear-gradient-2" x1="355.7168" y1="118.28149" x2="371.77441" y2="118.28149" xlink:href="#linear-gradient"/><linearGradient id="linear-gradient-3" x1="391.2861" y1="118.28626" x2="409.01106" y2="118.28626" xlink:href="#linear-gradient"/><linearGradient id="linear-gradient-4" x1="417.7168" y1="118.2815" x2="436.625" y2="118.2815" xlink:href="#linear-gradient"/><linearGradient id="linear-gradient-5" x1="445.66501" y1="118.28149" x2="461.72263" y2="118.28149" xlink:href="#linear-gradient"/><linearGradient id="linear-gradient-6" x1="469.7988" y1="118.2705" x2="488.451" y2="118.2705" xlink:href="#linear-gradient"/><linearGradient id="linear-gradient-7" x1="497.31543" y1="118.28149" x2="513.37305" y2="118.28149" xlink:href="#linear-gradient"/><linearGradient id="linear-gradient-8" x1="521.44922" y1="118.2815" x2="540.89063" y2="118.2815" xlink:href="#linear-gradient"/><linearGradient id="linear-gradient-9" x1="549.62305" y1="118.28152" x2="567.21875" y2="118.28152" xlink:href="#linear-gradient"/><linearGradient id="linear-gradient-10" x1="575.29492" y1="102.3777" x2="580.93457" y2="102.3777" xlink:href="#linear-gradient"/></defs><title>frame4</title><path class="cls-1" d="M327.64551,152.42162V115.01537h8.42871a10.74592,10.74592,0,0,1,6.0293,1.76368,8.21337,8.21337,0,0,1,3.28125,4.61425,13.21991,13.21991,0,0,1,.5332,3.97853,8.834,8.834,0,0,1-1.98926,6.02929,5.86386,5.86386,0,0,1-1.96875,1.45606,6.57834,6.57834,0,0,1,3.17871,2.83008,10.70232,10.70232,0,0,1,1.292,3.6914,15.134,15.134,0,0,1,.20508,2.60449,12.59236,12.59236,0,0,1-1.333,6.0293,8.65394,8.65394,0,0,1-7.21875,4.40918Zm6.07031-22.12793h2.3584a3.46559,3.46559,0,0,0,3.52734-2.56348,7.3775,7.3775,0,0,0,.32813-2.35839,4.94712,4.94712,0,0,0-1.12793-3.52735,3.5801,3.5801,0,0,0-2.72754-1.10742h-2.3584Zm0,16.5498h2.3584a4.011,4.011,0,0,0,3.97851-2.95312,6.38162,6.38162,0,0,0,.38965-2.31739,7.04069,7.04069,0,0,0-1.21-4.57324,3.82972,3.82972,0,0,0-3.1582-1.3125h-2.3584Z"/><path class="cls-2" d="M355.7168,152.42162V115.01537h16.05761V120.655h-10.418v10.25391h7.6084v5.63963h-7.6084V146.782h10.418v5.63965Z"/><path class="cls-3" d="M400.166,115.01537a8.56251,8.56251,0,0,1,6.5625,2.6045,8.98147,8.98147,0,0,1,2.27636,6.31641v5.43457a8.68712,8.68712,0,0,1-2.5791,6.31641,8.43411,8.43411,0,0,1-6.24414,2.625h-3.25586v14.10937H391.2861V115.01537Zm3.36328,9.02344a3.24526,3.24526,0,0,0-.86914-2.36817,3.11721,3.11721,0,0,0-2.34082-.89257h-3.39356v11.956h3.39356a3.06427,3.06427,0,0,0,2.28027-.95313,3.15928,3.15928,0,0,0,.92969-2.2871Z"/><path class="cls-4" d="M426.59668,115.01537q4.7168,0,6.91113,2.6045a9.41026,9.41026,0,0,1,1.94824,6.31641v5.43457a8.69752,8.69752,0,0,1-3.00976,6.70605l4.17871,16.34473h-6.082l-3.43945-14.12988c-.16407.01367-.335.02051-.51172.02051h-3.23535v14.10937H417.7168V115.01537Zm3.36328,9.02344q0-3.26074-3.21-3.26074h-3.39356v11.956H426.75a3.06425,3.06425,0,0,0,2.28027-.95313,3.15928,3.15928,0,0,0,.92969-2.2871Z"/><path class="cls-5" d="M445.665,152.42162V115.01537h16.05762V120.655h-10.418v10.25391H458.913v5.63963h-7.60839V146.782h10.418v5.63965Z"/><path class="cls-6" d="M488.44043,143.13158a10.48386,10.48386,0,0,1-2.03027,6.68554,7.21405,7.21405,0,0,1-3.876,2.64551,10.36269,10.36269,0,0,1-3.1377.43067,8.8677,8.8677,0,0,1-5.49609-1.64063,9.38927,9.38927,0,0,1-2.87109-3.66016,14.46816,14.46816,0,0,1-1.23047-5.32226l5.35254-.36914a8.12146,8.12146,0,0,0,1.74316,4.71679,2.8567,2.8567,0,0,0,2.31738,1.0459,3.51466,3.51466,0,0,0,2.95313-1.80468,4.53342,4.53342,0,0,0,.57422-2.48145,6.90819,6.90819,0,0,0-2.11231-4.65527q-1.68163-1.57908-5.02441-4.73731a20.76388,20.76388,0,0,1-3.958-4.86035,11.26359,11.26359,0,0,1-1.251-5.25q0-5.10645,3.42481-7.73145a8.52189,8.52189,0,0,1,5.25-1.5791,9.51378,9.51378,0,0,1,5.168,1.3535,7.77469,7.77469,0,0,1,2.68652,2.92286,11.01716,11.01716,0,0,1,1.251,4.3164l-5.41406.98438a6.31842,6.31842,0,0,0-1.3125-3.56835,2.73454,2.73454,0,0,0-2.23536-.94336,2.59866,2.59866,0,0,0-2.35839,1.374,5.31082,5.31082,0,0,0-.65625,2.748,8.26139,8.26139,0,0,0,2.21484,5.2295,19.75411,19.75411,0,0,0,2.502,2.3789q1.9688,1.64063,2.6045,2.29688a19.85945,19.85945,0,0,1,3.21972,4.12207,14.76287,14.76287,0,0,1,.86133,1.76367A10.47709,10.47709,0,0,1,488.44043,143.13158Z"/><path class="cls-7" d="M497.31543,152.42162V115.01537h16.05762V120.655h-10.418v10.25391h7.6084v5.63963h-7.6084V146.782h10.418v5.63965Z"/><path class="cls-8" d="M527.78613,115.01537l7.46485,25.12208V115.01537h5.63964v37.40626h-6.041l-7.76074-23.95312v23.95312h-5.63965V115.01537Z"/><path class="cls-9" d="M555.61133,120.655h-5.98828v-5.63965h17.5957V120.655H561.251v31.7666h-5.63965Z"/><path class="cls-10" d="M575.29492,146.80247h5.63965v5.63965h-5.63965Z"/></svg>