<svg id="Layer_1" data-name="Layer 1" xmlns="http://www.w3.org/2000/svg" xmlns:xlink="http://www.w3.org/1999/xlink" width="970" height="250" viewBox="0 0 970 250"><defs><style>.cls-1{fill:url(#linear-gradient);}.cls-2{fill:url(#linear-gradient-2);}.cls-3{fill:url(#linear-gradient-3);}.cls-4{fill:url(#linear-gradient-4);}.cls-5{fill:url(#linear-gradient-5);}.cls-6{fill:url(#linear-gradient-6);}.cls-7{fill:url(#linear-gradient-7);}.cls-8{fill:url(#linear-gradient-8);}.cls-9{fill:url(#linear-gradient-9);}.cls-10{fill:#ab9555;}</style><linearGradient id="linear-gradient" x1="70.7552" y1="151.1953" x2="195.49562" y2="151.1953" gradientTransform="matrix(1, 0, 0, -1, 0, 252)" gradientUnits="userSpaceOnUse"><stop offset="0" stop-color="#ab8d34"/><stop offset="0.07813" stop-color="#b2943e"/><stop offset="0.34281" stop-color="#c6aa5c"/><stop offset="0.49291" stop-color="#cdb267"/><stop offset="0.61495" stop-color="#c7ad61"/><stop offset="0.77706" stop-color="#b89e50"/><stop offset="0.961" stop-color="#9e8535"/><stop offset="1" stop-color="#987f2e"/></linearGradient><linearGradient id="linear-gradient-2" x1="116.1545" y1="86.89101" x2="116.1545" y2="66.591" gradientTransform="matrix(1, 0, 0, -1, 0, 252)" gradientUnits="userSpaceOnUse"><stop offset="0" stop-color="#cdb267"/><stop offset="1" stop-color="#987f2e"/></linearGradient><linearGradient id="linear-gradient-3" x1="197.388" y1="86.89101" x2="197.388" y2="66.591" xlink:href="#linear-gradient-2"/><linearGradient id="linear-gradient-4" x1="139.4319" y1="86.89055" x2="139.4319" y2="66.591" xlink:href="#linear-gradient-2"/><linearGradient id="linear-gradient-5" x1="159.07033" y1="86.90183" x2="159.07033" y2="66.58572" xlink:href="#linear-gradient-2"/><linearGradient id="linear-gradient-6" x1="178.171" y1="86.89101" x2="178.171" y2="66.591" xlink:href="#linear-gradient-2"/><linearGradient id="linear-gradient-7" x1="70.4735" y1="86.89101" x2="70.4735" y2="66.591" xlink:href="#linear-gradient-2"/><linearGradient id="linear-gradient-8" x1="92.82327" y1="86.89055" x2="92.82327" y2="66.59097" xlink:href="#linear-gradient-2"/><linearGradient id="linear-gradient-9" x1="205.658" y1="91.51425" x2="214.2514" y2="91.51425" gradientTransform="matrix(1, 0, 0, -1, 0, 252)" gradientUnits="userSpaceOnUse"><stop offset="0" stop-color="#ab8d34"/><stop offset="0.1878" stop-color="#cdb267"/><stop offset="0.76341" stop-color="#cdb267"/><stop offset="1" stop-color="#987f2e"/></linearGradient></defs><title>logo</title><path class="cls-1" d="M125.54233,142.61084c1.35561-.39983,3.81459,1.89877,3.97439,1.89877a2.9334,2.9334,0,0,0,.81977-1.89305c0-.81157-.57926-2.39013-.68787-3.34543a15.91192,15.91192,0,0,0-.57777-2.76765c-.21151-.629-1.68145-.90312-2.47023-1.38985a12.884,12.884,0,0,1-1.99031-1.37791,6.29556,6.29556,0,0,1-.8462-2.88761,11.35257,11.35257,0,0,0-.4748-2.93939c-.27464-.51465-.98066-.87826-1.4581-1.35572a2.05272,2.05272,0,0,1-.49185-1.26357c.36617-.11433.4805.82913.90361.90933s.39459.42872,1.05769.65739c.6636.22856.68639.54355.77222,1.16118s.82913,2.70452,1.07486,3.55643c.24622.85242.50319,1.49323,1.34426,1.52164.84047.0285.72615.463,1.71508.38334a5.5374,5.5374,0,0,1,2.37356.45714c.5317.18881,1.201.20587,1.4296-.16543.22867-.37191-.16029-1.87035-.16029-1.87035-.3429,0-.40041-.46284-.53171-.89168-.1314-.4293.08009-.46344.08009-.46344a1.81232,1.81232,0,1,1,3.45415,0s.2115.03414.08009.46344c-.1319.42884-.18881.89168-.53219.89168,0,0-.38848,1.49844-.15981,1.87035.22858.3713.89789.35424,1.4296.16543a5.53643,5.53643,0,0,1,2.37306-.45714c.98944.07961.8751-.35482,1.71557-.38334.84107-.02841,1.09815-.66922,1.34378-1.52164.24622-.85191.98943-2.9389,1.07535-3.55643s.10861-.93261.77222-1.16117c.66312-.22867.6346-.57719,1.05769-.65739s.53792-1.02366.90361-.90933a2.05622,2.05622,0,0,1-.49186,1.26357c-.47745.47746-1.18348.84107-1.4581,1.35572a11.35214,11.35214,0,0,0-.4748,2.93938,6.29568,6.29568,0,0,1-.8462,2.88761,12.88914,12.88914,0,0,1-1.99031,1.37791c-.78928.48673-2.25873.76087-2.47023,1.38985a15.84736,15.84736,0,0,0-.57778,2.76765c-.10861.95531-.68786,2.53386-.68786,3.34543a2.93334,2.93334,0,0,0,.81976,1.89305c.15981,0,2.61929-2.29858,3.97441-1.89877,1.35512.40089.81769,2.29907-.58913,3.70538a6.02485,6.02485,0,0,1-2.91464,1.81758,15.78386,15.78386,0,0,1,2.21276.41373c1.94325.54266,4.07008,2.03114,6.32043,3.60664,2.0193,1.41362,4.10786,2.87528,5.63573,3.29058a4.81158,4.81158,0,0,0,.54522.11955c.19345-.162,1.20716-.747,1.20716-.747a22.681,22.681,0,0,0,2.54687,1.08986l-6.48971-5.0042,12.864,5.6c.21151.09153.42409.17588.63569.25134l7.77539.13859c2.041.0373,4.05668-.05218,5.92791-.197-1.50811-.93054-3.14161-1.8595-4.89242-2.71546l-6.82216-3.33616c-.22708-.0289-.4593-.05071-.69518-.06461l-14.8708-.89326,9.66281-1.67948-6.26411-2.03883,10.7205-.07034a36.3928,36.3928,0,0,0,7.31885-.80486l-10.13257-1.92973,14.8496-.65946a14.57308,14.57308,0,0,0,2.48582-.317l-1.12753.13652,9.80041-4.59814a87.57121,87.57121,0,0,0,9.07625-4.9892,95.7675,95.7675,0,0,0-10.616-.64288l-11.139.02536,1.24078-.406a13.95194,13.95194,0,0,0-2.62855.811L159.358,137.93932l7.864-5.85917-.06.00988-.17953-1.35108-1.42911-2.357a47.08639,47.08639,0,0,0,10.70769-11.05414l-10.50646,5.03,10.705-8.916a17.6321,17.6321,0,0,0,3.3992-3.68527c1.38046-2.0865,2.66218-4.22419,3.83117-6.38831l-3.31811,3.27667,3.97746-8.65217a114.26439,114.26439,0,0,0,5.885-16.2709A138.50731,138.50731,0,0,0,174.46423,91.8823l-7.78741,5.90158,2.48373-3.87043c-2.01457,1.71311-3.96246,3.52131-5.82138,5.40449a17.06316,17.06316,0,0,0-2.86639,4.01683l-5.688,10.89383,2.0203-9.94317a47.00871,47.00871,0,0,0-4.5061,5.38951l-.99152,1.383-.90874-.62375a2.60255,2.60255,0,0,0-.14067.23636L142.44536,125.486l4.60744-16.10281a51.1161,51.1161,0,0,0,1.52833-20.20812l-5.38013,9.9991,2.60578-12.02867a19.58219,19.58219,0,0,0,.407-6.0024,96.90236,96.90236,0,0,0-2.06736-12.1429l-.70907,5.904-2.33577-8.60758a146.45787,146.45787,0,0,0-7.97614-21.5886,146.30991,146.30991,0,0,0-7.97622,21.5886l-2.33529,8.60758-.70957-5.904A96.99435,96.99435,0,0,0,120.037,81.1431a19.59327,19.59327,0,0,0,.407,6.0029l2.60271,12.03231-5.37707-10.00167a51.10841,51.10841,0,0,0,1.52835,20.20654l4.608,16.1038-7.81327-14.81646a2.48476,2.48476,0,0,0-.14067-.23635l-.90874.62374-.9915-1.383a47.01265,47.01265,0,0,0-4.50612-5.38951l2.0208,9.94317-5.68849-10.8938a17.07291,17.07291,0,0,0-2.8659-4.01683c-1.85526-1.87962-3.80059-3.68527-5.8131-5.39621l2.48937,3.87349L91.78656,91.8823A138.43742,138.43742,0,0,0,76.01639,81.72191a114.248,114.248,0,0,0,5.88491,16.2709l3.97757,8.65217-3.31811-3.27667c1.169,2.16412,2.45119,4.30181,3.83166,6.38831a17.61542,17.61542,0,0,0,3.39869,3.68527l10.705,8.91595-10.50644-5.03A47.07433,47.07433,0,0,0,100.69736,128.382l-1.4291,2.357-.17952,1.351-.06047-.00988,7.865,5.85967-12.99532-5.41644a14.0359,14.0359,0,0,0-2.62747-.811l1.24029.406L81.3712,132.093a95.77719,95.77719,0,0,0-10.616.64288,87.57412,87.57412,0,0,0,9.07625,4.9892l9.80043,4.59765-1.127-.13653a14.512,14.512,0,0,0,2.48532.31755l14.84951.65945L95.70721,145.093a36.39479,36.39479,0,0,0,7.31875.80486l10.7489.07034-6.28581,2.03993,9.65709,1.67838-14.8712.89326q-.35469.02088-.69576.06461L94.756,153.98055c-1.74971.856-3.38311,1.78492-4.89133,2.71545,1.87183.14482,3.8869.2337,5.92792.197l7.77548-.1386c.2115-.07545.42409-.15981.63618-.25134l12.86342-5.6-6.48972,5.0042a22.68035,22.68035,0,0,0,2.54688-1.08986s1.01271.584,1.20616.74637a4.74138,4.74138,0,0,0,.54563-.119c1.52844-.41531,3.617-1.877,5.63632-3.29057,2.25044-1.5755,4.37728-3.064,6.32044-3.60664a15.78386,15.78386,0,0,1,2.21276-.41373,6.025,6.025,0,0,1-2.91464-1.81758C124.72464,144.90993,124.18671,143.01173,125.54233,142.61084Z"/><polygon class="cls-2" points="116.149 175.123 107.352 165.109 105.998 165.109 105.998 185.409 110.059 185.409 110.059 173.635 116.149 180.402 122.238 173.635 122.252 185.409 126.311 185.409 126.311 165.109 124.958 165.109 116.149 175.123"/><polygon class="cls-3" points="204.845 168.899 204.845 165.109 189.931 165.123 189.931 185.409 204.818 185.409 204.818 181.62 193.992 181.62 193.992 177.005 202.125 177.005 202.125 173.229 193.992 173.229 193.992 168.899 204.845 168.899"/><path class="cls-4" d="M141.469,165.10945h-4.06022L129.28886,185.409H133.619l1.2181-3.11263h9.20253l1.21809,3.11263,4.31722-.01392Zm-5.00723,13.12721,3.08579-7.71441,3.004,7.71441Z"/><path class="cls-5" d="M164.67842,174.92093a10.06616,10.06616,0,0,0-4.669-1.69132,5.35132,5.35132,0,0,1-3.11271-1.21859,1.58386,1.58386,0,0,1,0-1.96239q.67728-1.14972,3.11271-1.14973a4.66192,4.66192,0,0,1,3.78974,1.62353l2.70608-2.7067a9.46981,9.46981,0,0,0-2.9094-2.03007,11.32964,11.32964,0,0,0-4.38508-.67651,8.12559,8.12559,0,0,0-4.743,1.63073,5.051,5.051,0,0,0-2.30736,4.324,4.49192,4.49192,0,0,0,2.02966,4.19528,10.91038,10.91038,0,0,0,4.46627,1.48859q2.70609.27078,3.3764,1.42082a2.14452,2.14452,0,0,1,0,2.30115q-.66955,1.14973-3.3764,1.14973-3.2478-.2699-4.60131-1.89451L151.3479,182.432a10.24335,10.24335,0,0,0,3.24815,2.1652,12.02113,12.02113,0,0,0,4.72335.81147,8.19767,8.19767,0,0,0,5.21676-1.75908,5.20333,5.20333,0,0,0,2.2401-4.19518A5.081,5.081,0,0,0,164.67842,174.92093Z"/><polygon class="cls-6" points="169.374 168.899 176.141 168.899 176.141 185.409 180.201 185.409 180.201 168.899 186.968 168.899 186.968 165.109 169.374 165.109 169.374 168.899"/><polygon class="cls-7" points="75.48 177.83 62.759 165.109 61.406 165.109 61.406 185.409 65.466 185.409 65.466 172.823 78.053 185.409 79.541 185.409 79.541 165.109 75.48 165.109 75.48 177.83"/><path class="cls-8" d="M94.85992,165.10945H90.80019l-8.12,20.29958h4.33023l1.2181-3.11263h9.20253l1.21859,3.11263,4.31671-.01392Zm-5.00676,13.12721,3.0852-7.71441,3.00411,7.71441Z"/><path class="cls-9" d="M207.76079,158.9722v3.68474h-.73191V158.9722H205.658v-.65764h3.47966v.65764Zm5.81425,3.68474-.00606-3.2443-1.37084,2.79122h-.47783l-1.37087-2.79122v3.2443H209.661v-4.34238h.86827l1.433,2.88464,1.42692-2.88464h.86221v4.34238Z"/><path class="cls-10" d="M95.5654,199.966a2.86433,2.86433,0,0,1-1.64081,5.3259l-5.67558-.00671V195.20494h5.3528q2.54912.14843,2.68985,2.96556A2.11108,2.11108,0,0,1,95.5654,199.966Zm-5.29228-.71954h2.82434a1.13831,1.13831,0,0,0,1.25079-1.25751q-.03315-.73922-1.23061-.78H90.27312Zm0,4.46516h3.29506a1.31642,1.31642,0,0,0,1.45253-1.45924q-.03316-.96836-1.43235-1.0087H90.27312Z"/><path class="cls-10" d="M98.38975,195.19821h2.36707l2.34017,3.29508,2.394-3.29508h2.31327l-3.69855,5.04349v5.04347H102.0883V200.2417Z"/><path class="cls-10" d="M121.91251,205.28516h-8.07627l.00672-.67246,4.70052-7.53158H113.843l-.00672-1.88291h8.07628v.73972l-4.72069,7.46434h4.72069Z"/><path class="cls-10" d="M124.44673,205.28516V195.20494l7.41054-.00673v1.88291h-5.39315V199.233h4.0415v1.87618h-4.04151v2.2931h5.37972v1.88291Z"/><path class="cls-10" d="M133.88811,205.28516v-10.087h.67247l6.32115,6.32117v-6.32117h2.01739v10.087h-.73971l-6.25391-6.25391v6.25391Z"/><path class="cls-10" d="M144.45923,205.28516l4.03477-10.087h2.0174l4.02708,10.08022-2.14419.00673-.60523-1.54668h-4.57275l-.60523,1.54668Zm5.09727-7.3971-1.5332,3.833h3.02608Z"/><path class="cls-10" d="M163.2075,199.966a2.86465,2.86465,0,0,1-1.6408,5.3259l-5.67559-.00671V195.20494h5.35282q2.54766.14843,2.68985,2.96556A2.1164,2.1164,0,0,1,163.2075,199.966Zm-5.29324-.71954h2.82434a1.13748,1.13748,0,0,0,1.25078-1.25751c-.02113-.49281-.4323-.75314-1.22964-.78h-2.84548Zm0,4.46516h3.29508a1.31556,1.31556,0,0,0,1.45251-1.45924q-.03172-.96836-1.4314-1.0087h-3.31619Z"/><path class="cls-10" d="M166.62363,195.19148h2.0097v10.09368h-2.0097Z"/><path class="cls-10" d="M176.11879,195.53444a4.6824,4.6824,0,0,1,1.44484,1.0087l-1.34493,1.34492a2.31491,2.31491,0,0,0-1.88288-.807q-1.21046,0-1.54668.5716a.79038.79038,0,0,0,0,.97507,2.65986,2.65986,0,0,0,1.54668.60522,5.00415,5.00415,0,0,1,2.32095.84058,2.52784,2.52784,0,0,1,1.04137,2.25274,2.58716,2.58716,0,0,1-1.11245,2.08464,4.07306,4.07306,0,0,1-2.59187.87421,5.97885,5.97885,0,0,1-2.34785-.40347,5.111,5.111,0,0,1-1.61391-1.076l1.34492-1.34492a3.19769,3.19769,0,0,0,2.28638.94145q1.34589,0,1.67732-.57159a1.06089,1.06089,0,0,0,0-1.14319q-.33141-.572-1.67732-.70609a5.41963,5.41963,0,0,1-2.21912-.73971,2.23147,2.23147,0,0,1-1.00869-2.08464,2.50851,2.50851,0,0,1,1.147-2.148,4.03677,4.03677,0,0,1,2.35745-.8108A5.6429,5.6429,0,0,1,176.11879,195.53444Z"/><rect class="cls-10" x="61.40592" y="200.09714" width="18.13475" height="2.20815"/><rect class="cls-10" x="186.71004" y="200.09714" width="18.13475" height="2.20815"/></svg>