<svg id="Content" xmlns="http://www.w3.org/2000/svg" xmlns:xlink="http://www.w3.org/1999/xlink" width="640" height="1136" viewBox="0 0 640 1136"><defs><style>.cls-1{fill:url(#New_Gradient_Swatch_1);}.cls-2{fill:#fff;}.cls-3{fill:#ba9544;}</style><linearGradient id="New_Gradient_Swatch_1" x1="122.87187" y1="461.87176" x2="218.23311" y2="461.87176" gradientUnits="userSpaceOnUse"><stop offset="0" stop-color="#a88a34"/><stop offset="0.49324" stop-color="#caaf67"/><stop offset="1" stop-color="#957f2e"/></linearGradient></defs><title>sweet</title><polygon class="cls-1" points="162.484 510.649 122.872 464.904 154.139 413.094 213.075 426.82 218.233 487.11 162.484 510.649"/><path class="cls-2" d="M194.197,445.35149a2.36783,2.36783,0,0,1-2.36614-2.36612,3.82839,3.82839,0,0,0-3.83022-3.83022h-1.25106a2.58161,2.58161,0,0,0-2.58374,2.57917V450.673a12.58948,12.58948,0,0,0-16.56284,1.09241l-2.39788,2.39785a12.58955,12.58955,0,0,0-1.0924,16.56288h-8.93869a2.57868,2.57868,0,0,0-2.57917,2.5837v1.25105a3.82839,3.82839,0,0,0,3.83023,3.83023,2.36783,2.36783,0,0,1,2.36614,2.36612,3.82834,3.82834,0,0,0,3.83022,3.83022h1.25106a2.58155,2.58155,0,0,0,2.58367-2.57917v-8.9387a12.58952,12.58952,0,0,0,16.5629-1.0924l2.39782-2.39785a12.58937,12.58937,0,0,0,1.0924-16.56288H195.448a2.58156,2.58156,0,0,0,2.57917-2.5837v-1.25105a3.82833,3.82833,0,0,0-3.83016-3.83023"/><path class="cls-3" d="M131.5542,539.7863a8.35136,8.35136,0,0,1,2.56934,1.793l-2.38965,2.39062a4.11486,4.11486,0,0,0-3.34668-1.43457q-2.15186,0-2.749,1.01563a1.39894,1.39894,0,0,0,0,1.73339,4.72213,4.72213,0,0,0,2.749,1.0752,8.9055,8.9055,0,0,1,4.123,1.49414,4.48834,4.48834,0,0,1,1.85254,4.00391,4.59723,4.59723,0,0,1-1.97754,3.70507,7.24316,7.24316,0,0,1-4.60742,1.55372,10.63124,10.63124,0,0,1-4.17187-.7168,9.06758,9.06758,0,0,1-2.86817-1.91211l2.39063-2.39063a5.68088,5.68088,0,0,0,4.06347,1.67286q2.39063,0,2.98243-1.01563a1.8966,1.8966,0,0,0,0-2.03223q-.5918-1.01513-2.98243-1.25488a9.64163,9.64163,0,0,1-3.94433-1.31445,3.96625,3.96625,0,0,1-1.793-3.70508,4.46249,4.46249,0,0,1,2.03809-3.81836,7.179,7.179,0,0,1,4.18945-1.44043A9.99965,9.99965,0,0,1,131.5542,539.7863Z"/><path class="cls-3" d="M148.46631,543.96989l-3.58594,13.14649h-3.585l-4.793-17.92774h3.82422l3.12012,12.19043,3.22656-12.19043h3.70508l3.10742,12.19043,3.10742-12.19043h3.82422l-4.78027,17.92774h-3.58594Z"/><path class="cls-3" d="M163.023,557.11638v-17.916l13.1709-.01172v3.34668h-9.585v3.82422h7.18261v3.335h-7.18261v4.0752h9.56152v3.34668Z"/><path class="cls-3" d="M179.75537,557.11638v-17.916l13.1709-.01172v3.34668h-9.585v3.82422h7.18262v3.335h-7.18262v4.0752h9.56152v3.34668Z"/><path class="cls-3" d="M211.16455,539.18864v3.34668H205.189v14.58106H201.603V542.53532h-5.97559v-3.34668Z"/></svg>