<svg id="Content" xmlns="http://www.w3.org/2000/svg" xmlns:xlink="http://www.w3.org/1999/xlink" viewBox="0 0 728 90"><defs><style>.cls-1{fill:url(#New_Gradient_Swatch_1);}.cls-2{fill:url(#linear-gradient);}.cls-3{fill:url(#linear-gradient-2);}.cls-4{fill:url(#linear-gradient-3);}.cls-5{fill:url(#linear-gradient-4);}.cls-6{fill:url(#linear-gradient-5);}.cls-7{fill:url(#linear-gradient-6);}.cls-8{fill:url(#linear-gradient-7);}.cls-9{fill:url(#New_Gradient_Swatch_2);}.cls-10{fill:#a89255;}.cls-11{fill:url(#New_Gradient_Swatch_3);}.cls-12{fill:#fff;}</style><linearGradient id="New_Gradient_Swatch_1" x1="91.5" y1="32.39" x2="147.98" y2="32.39" gradientUnits="userSpaceOnUse"><stop offset="0" stop-color="#a88a34"/><stop offset="0.49" stop-color="#caaf67"/><stop offset="1" stop-color="#957f2e"/></linearGradient><linearGradient id="linear-gradient" x1="148.84" y1="154.33" x2="148.84" y2="59.6" gradientUnits="userSpaceOnUse"><stop offset="0" stop-color="#a88a34"/><stop offset="0.5" stop-color="#caaf67"/><stop offset="1" stop-color="#957f2e"/></linearGradient><linearGradient id="linear-gradient-2" x1="122.59" y1="105.02" x2="122.59" y2="35.07" xlink:href="#linear-gradient"/><linearGradient id="linear-gradient-3" x1="131.48" y1="129.01" x2="131.48" y2="36.96" xlink:href="#linear-gradient"/><linearGradient id="linear-gradient-4" x1="140.13" y1="131.1" x2="140.13" y2="50.53" xlink:href="#linear-gradient"/><linearGradient id="linear-gradient-5" x1="91.37" y1="74.62" x2="91.37" y2="-3.23" xlink:href="#linear-gradient"/><linearGradient id="linear-gradient-6" x1="112.06" y1="94.28" x2="112.06" y2="24.75" xlink:href="#linear-gradient"/><linearGradient id="linear-gradient-7" x1="101.49" y1="83.9" x2="101.49" y2="13.95" xlink:href="#linear-gradient"/><linearGradient id="New_Gradient_Swatch_2" x1="152.58" y1="59.41" x2="156.47" y2="59.41" gradientUnits="userSpaceOnUse"><stop offset="0" stop-color="#a88a34"/><stop offset="0.19" stop-color="#caaf67"/><stop offset="0.46" stop-color="#a08a4a"/><stop offset="0.76" stop-color="#caaf67"/><stop offset="1" stop-color="#957f2e"/></linearGradient><linearGradient id="New_Gradient_Swatch_3" x1="509.93" y1="65.21" x2="830.48" y2="19.91" gradientUnits="userSpaceOnUse"><stop offset="0" stop-color="#a68834"/><stop offset="0.19" stop-color="#c8ad67"/><stop offset="0.46" stop-color="#9e884a"/><stop offset="0.76" stop-color="#c8ad67"/><stop offset="1" stop-color="#937f2e"/></linearGradient></defs><title>CTA1</title><path class="cls-1" d="M116.31,51.32c.61-.18,1.72.86,1.8.86a1.35,1.35,0,0,0,.37-.86c0-.37-.27-1.08-.31-1.52a6.93,6.93,0,0,0-.27-1.25c-.09-.28-.76-.41-1.11-.63a5.85,5.85,0,0,1-.91-.62A3,3,0,0,1,115.5,46a5.26,5.26,0,0,0-.21-1.33c-.13-.23-.45-.4-.66-.61a1,1,0,0,1-.23-.58c.17,0,.22.38.41.42s.18.19.48.29.31.25.35.53.38,1.22.49,1.61.23.68.61.69.32.21.77.17a2.55,2.55,0,0,1,1.08.21c.24.08.54.09.64-.08s-.07-.84-.07-.84-.18-.21-.24-.41,0-.21,0-.21a.82.82,0,1,1,1.56,0s.1,0,0,.21-.09.41-.24.41c0,0-.18.68-.08.84s.41.16.65.08a2.55,2.55,0,0,1,1.08-.21c.44,0,.39-.16.77-.17s.5-.3.61-.69.45-1.33.49-1.61,0-.42.35-.53.29-.26.48-.29.24-.47.41-.42a1,1,0,0,1-.23.58c-.21.21-.53.38-.66.61A5.26,5.26,0,0,0,124,46a2.82,2.82,0,0,1-.39,1.31,5.25,5.25,0,0,1-.9.62c-.35.22-1,.35-1.11.63a6.93,6.93,0,0,0-.27,1.25c0,.44-.31,1.15-.31,1.52a1.35,1.35,0,0,0,.37.86c.08,0,1.19-1,1.8-.86s.37,1-.26,1.67a2.78,2.78,0,0,1-1.32.83,9.16,9.16,0,0,1,1,.18,10.71,10.71,0,0,1,2.86,1.64A10.41,10.41,0,0,0,128,57.13l.25,0c.09-.07.55-.34.55-.34a10,10,0,0,0,1.15.5L127,55.07l5.82,2.54.29.11,3.52.06a26.08,26.08,0,0,0,2.69-.09c-.69-.42-1.43-.84-2.22-1.23L134,55l-.31,0-6.74-.4,4.38-.76-2.84-.92,4.86,0a16.87,16.87,0,0,0,3.31-.37l-4.59-.87,6.73-.3a6.45,6.45,0,0,0,1.12-.15l-.51.07,4.44-2.09A40.14,40.14,0,0,0,148,46.85a42.36,42.36,0,0,0-4.81-.3l-5,0,.56-.19a6.26,6.26,0,0,0-1.19.37l-5.88,2.45,3.56-2.65h0l-.08-.61-.65-1.07a21.12,21.12,0,0,0,4.85-5l-4.76,2.28,4.85-4a7.9,7.9,0,0,0,1.54-1.67c.62-.94,1.2-1.91,1.73-2.89L141.13,35l1.8-3.91a52,52,0,0,0,2.67-7.37,62.2,62.2,0,0,0-7.14,4.6L134.93,31l1.12-1.75c-.91.77-1.79,1.59-2.63,2.45a7.9,7.9,0,0,0-1.3,1.81l-2.57,4.94.91-4.51a22.73,22.73,0,0,0-2,2.44L128,37l-.41-.28a.54.54,0,0,0-.06.11L124,43.56l2.09-7.29a23.27,23.27,0,0,0,.69-9.15l-2.44,4.53,1.18-5.45a8.91,8.91,0,0,0,.19-2.71,43.56,43.56,0,0,0-.94-5.5l-.32,2.67-1.06-3.9A66.91,66.91,0,0,0,119.74,7a65.78,65.78,0,0,0-3.61,9.77l-1.06,3.9L114.75,18a43.56,43.56,0,0,0-.94,5.5A8.6,8.6,0,0,0,114,26.2l1.18,5.45-2.44-4.53a23.27,23.27,0,0,0,.69,9.15l2.09,7.29L112,36.86a.54.54,0,0,0-.06-.11l-.41.28-.45-.63A22.73,22.73,0,0,0,109,34l.91,4.51-2.57-4.94a7.9,7.9,0,0,0-1.3-1.81c-.84-.86-1.72-1.67-2.63-2.45L104.56,31,101,28.35a62.2,62.2,0,0,0-7.14-4.6,52,52,0,0,0,2.67,7.37L98.35,35l-1.5-1.48c.52,1,1.11,2,1.73,2.89a7.9,7.9,0,0,0,1.54,1.67l4.85,4-4.76-2.28a21.12,21.12,0,0,0,4.85,5l-.65,1.07-.08.61h0l3.56,2.65L102,46.75a7.08,7.08,0,0,0-1.19-.37l.56.19-5,0a42.21,42.21,0,0,0-4.81.3,40.14,40.14,0,0,0,4.11,2.25l4.44,2.09-.51-.07a6.45,6.45,0,0,0,1.12.15l6.73.3-4.59.87a16.87,16.87,0,0,0,3.31.37l4.87,0-2.85.92,4.37.76-6.73.4-.31,0-3.09,1.51c-.8.39-1.53.81-2.22,1.23a26.08,26.08,0,0,0,2.69.09l3.52-.06.28-.11,5.83-2.54-2.94,2.27a10,10,0,0,0,1.15-.5s.46.27.55.34l.25,0A10.6,10.6,0,0,0,114,55.64,10.71,10.71,0,0,1,116.89,54a9.16,9.16,0,0,1,1-.18,2.78,2.78,0,0,1-1.32-.83C115.94,52.36,115.69,51.5,116.31,51.32Z"/><polygon class="cls-2" points="152.21 63.22 152.21 61.5 145.46 61.51 145.46 70.69 152.2 70.69 152.2 68.98 147.3 68.98 147.3 66.89 150.98 66.89 150.98 65.18 147.3 65.18 147.3 63.22 152.21 63.22"/><path class="cls-3" d="M121.68,61.5,118,70.69h2l.55-1.4h4.17l.55,1.4h2l-3.67-9.19Zm-.43,6,1.4-3.5,1.36,3.5Z"/><path class="cls-4" d="M134,66a4.57,4.57,0,0,0-2.12-.77,2.48,2.48,0,0,1-1.41-.55.73.73,0,0,1,0-.89c.21-.35.68-.52,1.41-.52a2.11,2.11,0,0,1,1.72.73l1.22-1.22a4.17,4.17,0,0,0-1.31-.92,5.24,5.24,0,0,0-2-.31,3.7,3.7,0,0,0-2.15.74,2.3,2.3,0,0,0-1,2,2,2,0,0,0,.92,1.9,4.83,4.83,0,0,0,2,.67c.82.08,1.33.3,1.53.65a1,1,0,0,1,0,1c-.2.35-.71.52-1.53.52a2.88,2.88,0,0,1-2.08-.86L128,69.35a4.73,4.73,0,0,0,1.47,1,5.56,5.56,0,0,0,2.14.36A3.69,3.69,0,0,0,134,69.9a2.36,2.36,0,0,0,1-1.9A2.29,2.29,0,0,0,134,66Z"/><polygon class="cls-5" points="136.15 63.22 139.22 63.22 139.22 70.69 141.05 70.69 141.05 63.22 144.12 63.22 144.12 61.5 136.15 61.5 136.15 63.22"/><polygon class="cls-6" points="93.64 67.26 87.88 61.5 87.27 61.5 87.27 70.69 89.11 70.69 89.11 65 94.8 70.69 95.48 70.69 95.48 61.5 93.64 61.5 93.64 67.26"/><polygon class="cls-7" points="112.05 66.04 108.07 61.5 107.46 61.5 107.46 70.69 109.3 70.69 109.3 65.36 112.05 68.43 114.81 65.36 114.82 70.69 116.65 70.69 116.65 61.5 116.04 61.5 112.05 66.04"/><path class="cls-8" d="M100.58,61.5,96.9,70.69h2l.55-1.4h4.17l.55,1.4h2l-3.67-9.19Zm-.43,6,1.39-3.5,1.36,3.5Z"/><path class="cls-9" d="M153.53,58.72v1.67h-.33V58.72h-.62v-.29h1.58v.29Zm2.63,1.67V58.92l-.62,1.27h-.22l-.62-1.27v1.47h-.31v-2h.4l.64,1.3.65-1.3h.39v2Z"/><path class="cls-10" d="M102.73,77.29a1.28,1.28,0,0,1,.64,1A1.3,1.3,0,0,1,102,79.7H99.42V75.13h2.42c.77,0,1.18.49,1.22,1.34A1,1,0,0,1,102.73,77.29ZM100.34,77h1.28a.52.52,0,0,0,.56-.57c0-.22-.19-.34-.55-.35h-1.29Zm0,2h1.49a.59.59,0,0,0,.66-.66c0-.29-.23-.44-.65-.46h-1.5Z"/><path class="cls-10" d="M104,75.13h1.07l1.06,1.49,1.09-1.49h1l-1.67,2.28v2.28h-.91V77.41Z"/><path class="cls-10" d="M114.66,79.69H111v-.3L113.14,76H111v-.85h3.65v.33l-2.13,3.38h2.13Z"/><path class="cls-10" d="M115.81,79.69V75.13h3.36V76h-2.45v1h1.83v.85h-1.83v1h2.44v.85Z"/><path class="cls-10" d="M120.08,79.69V75.13h.31L123.25,78V75.13h.91v4.56h-.33L121,76.86v2.83Z"/><path class="cls-10" d="M124.87,79.69l1.83-4.56h.91l1.82,4.56h-1l-.27-.7h-2.07l-.27.7Zm2.31-3.35-.7,1.74h1.37Z"/><path class="cls-10" d="M133.36,77.29a1.29,1.29,0,0,1-.74,2.41h-2.57V75.13h2.42c.77,0,1.18.49,1.22,1.34A1,1,0,0,1,133.36,77.29ZM131,77h1.28a.52.52,0,0,0,.57-.57c0-.22-.2-.34-.56-.35H131Zm0,2h1.49a.59.59,0,0,0,.66-.66c0-.29-.22-.44-.65-.46H131Z"/><path class="cls-10" d="M134.91,75.12h.91v4.57h-.91Z"/><path class="cls-10" d="M139.21,75.28a2,2,0,0,1,.65.46l-.61.6a1.05,1.05,0,0,0-.85-.36c-.37,0-.6.09-.7.26a.36.36,0,0,0,0,.44,1.19,1.19,0,0,0,.7.27,2.34,2.34,0,0,1,1,.38,1.17,1.17,0,0,1,.47,1,1.2,1.2,0,0,1-.5,1,1.88,1.88,0,0,1-1.18.39,2.73,2.73,0,0,1-1.06-.18,2.18,2.18,0,0,1-.73-.49l.61-.61a1.42,1.42,0,0,0,1,.43c.41,0,.66-.08.76-.26a.49.49,0,0,0,0-.52c-.1-.17-.35-.27-.76-.31a2.64,2.64,0,0,1-1-.34,1,1,0,0,1-.46-.94,1.16,1.16,0,0,1,.52-1,1.86,1.86,0,0,1,1.07-.36A2.64,2.64,0,0,1,139.21,75.28Z"/><rect class="cls-10" x="87.27" y="77.34" width="8.21" height="1"/><rect class="cls-10" x="144" y="77.34" width="8.21" height="1"/><polygon class="cls-11" points="733.77 23.3 561.71 23.3 546.75 45.73 561.71 68.16 733.77 68.16 733.77 23.3"/><path class="cls-12" d="M574.47,48.82a5.19,5.19,0,0,1,0-7.23,4.86,4.86,0,0,1,3.6-1.46,5.49,5.49,0,0,1,3.73,1.35L580.46,43a3.75,3.75,0,0,0-2.38-.81,3,3,0,0,0-2.2.85,3,3,0,0,0-.84,2.17,3.09,3.09,0,0,0,.85,2.25,3,3,0,0,0,2.21.83,3.62,3.62,0,0,0,2.36-.81l1.35,1.49a5.47,5.47,0,0,1-3.73,1.35A4.93,4.93,0,0,1,574.47,48.82Z"/><path class="cls-12" d="M586.05,40.13v8.25h5.41v1.9H584V40.13Z"/><path class="cls-12" d="M593.13,40.12h2V50.28h-2Z"/><path class="cls-12" d="M598.15,48.82a5.22,5.22,0,0,1,0-7.23,4.86,4.86,0,0,1,3.6-1.46,5.49,5.49,0,0,1,3.73,1.35L604.14,43a3.75,3.75,0,0,0-2.38-.81,3,3,0,0,0-2.2.85,3,3,0,0,0-.83,2.17,2.87,2.87,0,0,0,3,3.08,3.62,3.62,0,0,0,2.36-.81l1.35,1.49a5.47,5.47,0,0,1-3.73,1.35A4.93,4.93,0,0,1,598.15,48.82Z"/><path class="cls-12" d="M607.7,40.13h2v4.06l3.38-4.06h2.28l-4,4.74,4.81,5.41h-2.64l-3.86-4.39v4.39h-2Z"/><path class="cls-12" d="M630.47,40.13V42h-3.38v8.26h-2V42h-3.39V40.13Z"/><path class="cls-12" d="M632.92,48.82a5.23,5.23,0,1,1,3.62,1.46A4.92,4.92,0,0,1,632.92,48.82Zm3.63-.44a2.83,2.83,0,0,0,2.19-.91,3.44,3.44,0,0,0,0-4.53,3.09,3.09,0,0,0-4.4,0,3.47,3.47,0,0,0,0,4.53A2.87,2.87,0,0,0,636.55,48.38Z"/><path class="cls-12" d="M647.84,50.28V40.13h7.46V42h-5.43v2.17h4.07v1.89h-4.07v2.3h5.41v1.9Z"/><path class="cls-12" d="M660.68,45l-3.55-4.86h2.38l2.37,3.23,2.37-3.23h2.38L663.08,45,667,50.28h-2.41l-2.67-3.65-2.66,3.65h-2.41Z"/><path class="cls-12" d="M668.28,50.28V40.13h4.43c2.36,0,3.55,1,3.55,2.92s-1.18,3-3.55,3h-2.4v4.2Zm2-6.09h2.84c.82,0,1.24-.39,1.26-1.12s-.44-1-1.24-1h-2.86Z"/><path class="cls-12" d="M677.22,50.28l4.06-10.15h2l4.06,10.14h-2.16l-.61-1.56H680l-.6,1.56Zm5.13-7.45-1.54,3.86h3Z"/><path class="cls-12" d="M688.88,50.28V40.13h.68l6.36,6.36V40.13h2V50.28h-.74L690.91,44v6.29Z"/><path class="cls-12" d="M700.05,50.28V40.12H704c3.15,0,4.73,1.7,4.73,5.08s-1.58,5.08-4.73,5.08Zm3.92-2q2.7,0,2.7-3.06c0-2-.9-3-2.7-3h-1.88v6.1Z"/></svg>