<svg id="Content" xmlns="http://www.w3.org/2000/svg" xmlns:xlink="http://www.w3.org/1999/xlink" width="728" height="360" viewBox="0 0 728 360"><defs><style>.cls-1{fill:url(#New_Gradient_Swatch_1);}.cls-2{fill:#fff;}.cls-3{fill:#ba9544;}</style><linearGradient id="New_Gradient_Swatch_1" x1="195.75476" y1="177.15877" x2="252.37547" y2="177.15877" gradientUnits="userSpaceOnUse"><stop offset="0" stop-color="#a88a34"/><stop offset="0.49324" stop-color="#caaf67"/><stop offset="1" stop-color="#957f2e"/></linearGradient></defs><title>fruity</title><polygon class="cls-1" points="219.275 206.12 195.755 178.959 214.32 148.197 249.313 156.347 252.375 192.144 219.275 206.12"/><path class="cls-2" d="M235.47834,169.39636c1.93777-.58671,2.47874-2.15308,3.61987-2.694-2.25535-.92582-3.5795-1.15728-4.9171-.52212a3.345,3.345,0,0,0-1.98891,2.48143,3.45118,3.45118,0,0,0,3.28614.73473"/><path class="cls-2" d="M231.29975,172.66071a10.41846,10.41846,0,0,0-2.55141-7.86952.17544.17544,0,0,0-.25029-.00808l-.00808.00808-.5302.54366a.17836.17836,0,0,0-.00538.24221,9.4368,9.4368,0,0,1,2.21229,7.124c-4.648-2.72365-9.53546.253-9.30939,5.197a12.86464,12.86464,0,0,0,.39294,2.54064,21.81363,21.81363,0,0,0,9.92033,4.49994,2.59582,2.59582,0,0,1,1.27032.63247,1.87464,1.87464,0,0,1,.59748,1.32145l.01615.48713a2.66556,2.66556,0,0,1-.11842.86124,3.78315,3.78315,0,0,1-.16956.53827c3.87555.19109,7.54656-5.97211,7.77263-10.88114.22608-4.91711-4.613-7.88836-9.23941-5.23738"/><path class="cls-2" d="M231.52528,186.56263a1.27678,1.27678,0,0,0-.61632-.30143c-7.83991-1.5583-14.43911-6.02863-17.16815-15.26536a2.10878,2.10878,0,0,0-.27451-.5302,1.24621,1.24621,0,0,1-.18571-.71052l.0619-1.75207a.47349.47349,0,0,0-.45753-.49251h-.01884l-.92851.00807a.47266.47266,0,0,0-.471.47637.3092.3092,0,0,0,.00269.05113l.218,1.88126a1.16971,1.16971,0,0,1-.25568.75627,3.01152,3.01152,0,0,0-.30681,1.58252c-.1884,14.7217,9.76154,19.01172,18.94713,16.7483,1.16805-.288,1.27839-.47637,1.378-.61633a2.09361,2.09361,0,0,0,.183-.52481,1.233,1.233,0,0,0,.07-.45215l-.01346-.48444a.53315.53315,0,0,0-.16417-.3741"/><path class="cls-3" d="M196.9458,233.31073V222.6662h7.48682v1.9873h-5.35791V226.924h3.95263v1.97949h-3.95263v4.40723Z"/><path class="cls-3" d="M212.38721,228.67011l2.65429,4.64062h-2.4414l-2.54737-4.39941H208.1084v4.39941h-2.12891V222.6662h4.64063q3.72582,0,3.72558,3.06543A2.75351,2.75351,0,0,1,212.38721,228.67011Zm-4.27881-1.7461h2.98047q1.28393-.022,1.31982-1.1709-.03588-1.05028-1.29883-1.09277H208.1084Z"/><path class="cls-3" d="M218.11377,222.6662V228.84a2.13633,2.13633,0,0,0,.71,1.77441,3.0568,3.0568,0,0,0,3.54785,0,2.1363,2.1363,0,0,0,.71-1.77441V222.6662h2.12891v6.74121a3.52681,3.52681,0,0,1-1.313,2.76758,5.36153,5.36153,0,0,1-6.59961,0,3.5253,3.5253,0,0,1-1.313-2.76758V222.6662Z"/><path class="cls-3" d="M227.50977,222.65936h2.12158v10.65137h-2.12158Z"/><path class="cls-3" d="M240.45312,222.6662v1.9873h-3.54785v8.65723h-2.1289V224.6535H231.228v-1.9873Z"/><path class="cls-3" d="M241.41162,222.6662h2.49756l2.46973,3.47754,2.52636-3.47754h2.44092l-3.90283,5.32227v5.32226h-2.12891v-5.32226Z"/></svg>