<svg id="Content" xmlns="http://www.w3.org/2000/svg" viewBox="0 0 728 360"><defs><style>.cls-1{fill:#fff;stroke:#ba9544;stroke-miterlimit:10;stroke-width:0.48px;}.cls-2{fill:#ba9544;}</style></defs><title>THC - Daytime CBD</title><polygon class="cls-1" points="629.43 173 408.46 172.16 397.31 188.25 408.46 204.05 629.43 203.67 639.47 188.34 629.43 173"/><polygon class="cls-2" points="408.62 172.16 397.47 188.25 408.62 204.05 422.49 204.05 422.49 172.16 408.62 172.16"/><path class="cls-2" d="M534.94,182.37v2h-3.61v8.8h-2.16v-8.8h-3.61v-2Z"/><path class="cls-2" d="M536.54,193.19V182.37h2.17v4.33h5v-4.33h2.16v10.82h-2.16v-4.47h-5v4.47Z"/><path class="cls-2" d="M549.27,191.64a5.42,5.42,0,0,1,3.85-9.27,5.8,5.8,0,0,1,4,1.45l-1.44,1.58a4,4,0,0,0-2.53-.87,3.22,3.22,0,0,0-2.35.91,3.16,3.16,0,0,0-.89,2.31,3.24,3.24,0,0,0,.9,2.39,3.21,3.21,0,0,0,2.35.89,3.91,3.91,0,0,0,2.52-.86l1.44,1.58a5.83,5.83,0,0,1-4,1.44A5.26,5.26,0,0,1,549.27,191.64Z"/><path class="cls-2" d="M559.52,186.29a1,1,0,0,1,.77-.29,1.1,1.1,0,0,1,.81.29,1,1,0,0,1,.29.73,1,1,0,0,1-.29.72,1.22,1.22,0,0,1-1.58,0,.94.94,0,0,1-.29-.72A1,1,0,0,1,559.52,186.29Zm0,5.17a1,1,0,0,1,.77-.29,1.06,1.06,0,0,1,.81.29,1,1,0,0,1,0,1.44,1.22,1.22,0,0,1-1.58,0,1,1,0,0,1,0-1.44Z"/><path class="cls-2" d="M575.25,187.71l.36.15a2.11,2.11,0,0,1,1.12,2.16,2.79,2.79,0,0,1-1.2,2.24,4.38,4.38,0,0,1-2.78.93,6.44,6.44,0,0,1-2.52-.43,5.51,5.51,0,0,1-1.73-1.15l1.45-1.45a3.37,3.37,0,0,0,2.45,1c1,0,1.56-.2,1.8-.61a1.14,1.14,0,0,0,0-1.23c-.24-.41-1.08-.63-2.52-.68v-2c1.44.1,2.28-.06,2.52-.47a1.12,1.12,0,0,0,0-1.22c-.24-.41-.84-.62-1.8-.62a2.55,2.55,0,0,0-2.09.87l-1.45-1.44a5.1,5.1,0,0,1,1.55-1.09,6.1,6.1,0,0,1,2.34-.36,3.84,3.84,0,0,1,2.64.94,2.91,2.91,0,0,1,1.05,2.24,2.13,2.13,0,0,1-1,2Z"/><path class="cls-2" d="M578.49,190.3v-1.43H583v1.43Z"/><path class="cls-2" d="M586.2,193.19v-.72l3.38-8.08H585v-2h7.38v.8l-4,10Z"/><path class="cls-2" d="M594.71,186.94a2.78,2.78,0,1,1,1.93.78A2.62,2.62,0,0,1,594.71,186.94Zm1.91-.51a1.28,1.28,0,0,0,1-.41,1.56,1.56,0,0,0,0-2,1.33,1.33,0,0,0-1-.41,1.28,1.28,0,0,0-1,.41,1.56,1.56,0,0,0,0,2A1.26,1.26,0,0,0,596.62,186.43Zm-.58,6.76,6.13-10.82h1.76l-6.11,10.82Zm5.37-.71a2.69,2.69,0,0,1,1.92-4.61,2.69,2.69,0,1,1,0,5.38A2.64,2.64,0,0,1,601.41,192.48Zm1.89-.53a1.25,1.25,0,0,0,1-.4,1.49,1.49,0,0,0,0-2,1.36,1.36,0,0,0-1.93,0,1.52,1.52,0,0,0,0,2A1.25,1.25,0,0,0,603.3,192Z"/></svg>