<svg id="Content" xmlns="http://www.w3.org/2000/svg" xmlns:xlink="http://www.w3.org/1999/xlink" width="320" height="50" viewBox="0 0 320 50"><defs><style>.cls-1{fill:url(#New_Gradient_Swatch_1);}.cls-2{fill:#fff;}.cls-3{fill:#ba9544;}</style><linearGradient id="New_Gradient_Swatch_1" x1="101.17835" y1="20.09559" x2="121.30742" y2="20.09559" gradientUnits="userSpaceOnUse"><stop offset="0" stop-color="#a88a34"/><stop offset="0.49324" stop-color="#caaf67"/><stop offset="1" stop-color="#957f2e"/></linearGradient></defs><title>sweet</title><polygon class="cls-1" points="109.54 30.392 101.178 20.736 107.778 9.8 120.219 12.697 121.307 25.423 109.54 30.392"/><path class="cls-2" d="M116.23383,16.60845a.49981.49981,0,0,1-.49945-.49944.8081.8081,0,0,0-.80849-.80849h-.26408a.54493.54493,0,0,0-.54538.54441v1.8868a2.65742,2.65742,0,0,0-3.49612.23059l-.50615.50615a2.65743,2.65743,0,0,0-.23059,3.49613h-1.8868a.54432.54432,0,0,0-.54442.54537V22.774a.80811.80811,0,0,0,.8085.8085.49981.49981,0,0,1,.49945.49944.8081.8081,0,0,0,.80849.8085h.26408a.54492.54492,0,0,0,.54536-.54442v-1.8868a2.65744,2.65744,0,0,0,3.49614-.23059l.50614-.50614a2.65738,2.65738,0,0,0,.23058-3.49613h1.8868a.54493.54493,0,0,0,.54442-.54538V17.417a.8081.8081,0,0,0-.80848-.8085"/><path class="cls-3" d="M103.01123,36.542a1.787,1.787,0,0,1,.54248.37891l-.50488.50488a.86687.86687,0,0,0-.70606-.30273q-.45409,0-.58056.21386a.29607.29607,0,0,0,0,.36621.99772.99772,0,0,0,.58056.22657,1.88276,1.88276,0,0,1,.87012.31543.94748.94748,0,0,1,.39111.8457.96775.96775,0,0,1-.41748.78125,1.52859,1.52859,0,0,1-.97265.32813,2.22848,2.22848,0,0,1-.88037-.15137,1.90493,1.90493,0,0,1-.60547-.40332l.50439-.50489a1.20082,1.20082,0,0,0,.85791.35352q.50465,0,.6294-.21484a.3982.3982,0,0,0,0-.42871c-.083-.14258-.293-.23145-.6294-.26465a2.04346,2.04346,0,0,1-.83252-.27735.83712.83712,0,0,1-.37842-.78222.94059.94059,0,0,1,.43018-.80567,1.51263,1.51263,0,0,1,.88428-.30468A2.11354,2.11354,0,0,1,103.01123,36.542Z"/><path class="cls-3" d="M106.58105,37.42578l-.75683,2.77442h-.75684L104.05566,36.416h.80713l.65869,2.57324.68116-2.57324h.78174l.65624,2.57324.65577-2.57324h.80713l-1.00879,3.78418h-.75684Z"/><path class="cls-3" d="M109.65381,40.2002V36.419l2.78027-.00293v.707h-2.02344v.80664h1.51612v.7041h-1.51612v.86035h2.01807v.70606Z"/><path class="cls-3" d="M113.18555,40.2002V36.419l2.78027-.00293v.707h-2.02344v.80664h1.51612v.7041h-1.51612v.86035h2.01807v.70606Z"/><path class="cls-3" d="M119.81543,36.416v.707h-1.26172V40.2002h-.75683V37.12305h-1.26124v-.707Z"/><image width="1500" height="1261" transform="translate(191.53398 -91.26917) scale(0.07651)" xlink:href="../../../../../Dropbox%20(Revolution%20Strategy)/Rocio%20Ugarte/Clients/Namaste/Digital%20Ads/_Flight%202:Phase%202%20Terpene/1.%20Animated%20w:%20Packaging/6.%20Mobile%20Banner%20320%20x%2050/320%20x%2050_Folder/Links/SmallTopDown-8383-DaytimeCBD.png"/></svg>