<?xml version="1.0" encoding="utf-8"?>
<!-- Generator: Adobe Illustrator 22.1.0, SVG Export Plug-In . SVG Version: 6.00 Build 0)  -->
<svg version="1.1" id="Layer_1" xmlns="http://www.w3.org/2000/svg" xmlns:xlink="http://www.w3.org/1999/xlink" x="0px" y="0px"
	 viewBox="0 0 89.1 112" style="enable-background:new 0 0 89.1 112;" xml:space="preserve">
<style type="text/css">
	.st0{fill:#D3B372;}
</style>
<title>frame1</title>
<path class="st0" d="M5.9,14.6c-0.9,0-1.8-0.3-2.4-1c-0.6-0.6-1-1.5-1-2.4V3.4c0-0.9,0.3-1.8,1-2.4C4.1,0.4,5,0,5.9,0
	c0.9,0,1.8,0.3,2.4,1c0.6,0.6,1,1.5,1,2.4v1.6H7.1V3.4c0-0.7-0.6-1.2-1.2-1.2C5.5,2.1,5.2,2.3,5,2.5C4.7,2.7,4.6,3.1,4.6,3.4v7.8
	c0,0.7,0.5,1.2,1.2,1.2c0,0,0,0,0,0c0.3,0,0.6-0.1,0.9-0.4c0.2-0.2,0.4-0.5,0.4-0.9v-2h2.2v2c0,0.9-0.3,1.8-1,2.4
	C7.7,14.3,6.8,14.6,5.9,14.6z"/>
<path class="st0" d="M16.2,11.1l-0.5,3.3h-2.2l2.4-14.2h3l2.4,14.2h-2.3l-0.5-3.3H16.2z M17.3,3.4l-0.8,5.6h1.6L17.3,3.4z"/>
<path class="st0" d="M28.3,0.2l2.9,9.6V0.2h2.1v14.2H31l-3-9.1v9.1h-2.1V0.2H28.3z"/>
<path class="st0" d="M40.5,0.2l2.8,9.6V0.2h2.1v14.2h-2.3l-3-9.1v9.1h-2.1V0.2H40.5z"/>
<path class="st0" d="M52.9,11.1l-0.5,3.3h-2.2l2.4-14.2h3l2.4,14.2h-2.3l-0.5-3.3H52.9z M54,3.4l-0.8,5.6h1.6L54,3.4z"/>
<path class="st0" d="M62,14.4V0.2h3.2c0.8,0,1.6,0.2,2.3,0.7c0.6,0.4,1.1,1,1.2,1.8c0.1,0.5,0.2,1,0.2,1.5c0,0.8-0.2,1.7-0.8,2.3
	C68,6.6,67.7,6.8,67.4,7c0.5,0.2,0.9,0.6,1.2,1.1c0.2,0.4,0.4,0.9,0.5,1.4c0.1,0.3,0.1,0.7,0.1,1c0,0.8-0.2,1.6-0.5,2.3
	c-0.6,1-1.6,1.6-2.7,1.7H62z M64.3,6h0.9c0.6,0,1.2-0.4,1.3-1c0.1-0.3,0.1-0.6,0.1-0.9c0-0.5-0.1-1-0.4-1.3c-0.3-0.3-0.6-0.4-1-0.4
	h-0.9V6z M64.3,12.3h0.9c0.7,0,1.3-0.4,1.5-1.1c0.1-0.3,0.2-0.6,0.1-0.9c0.1-0.6-0.1-1.2-0.5-1.7C66.1,8.2,65.6,8,65.2,8h-0.9V12.3z
	"/>
<path class="st0" d="M75.5,14.4h-2.1V0.2h2.1V14.4z"/>
<path class="st0" d="M86.6,10.9c0,0.9-0.2,1.8-0.8,2.5c-0.4,0.5-0.9,0.8-1.5,1c-0.4,0.1-0.8,0.2-1.2,0.2c-0.7,0-1.5-0.2-2.1-0.6
	c-0.5-0.4-0.9-0.8-1.1-1.4c-0.3-0.6-0.4-1.3-0.5-2l2-0.1c0,0.7,0.3,1.3,0.7,1.8c0.2,0.3,0.5,0.4,0.9,0.4c0.5,0,0.9-0.3,1.1-0.7
	c0.2-0.3,0.2-0.6,0.2-0.9c0-0.7-0.3-1.3-0.8-1.8c-0.4-0.4-1.1-1-1.9-1.8c-0.6-0.5-1.1-1.2-1.5-1.9c-0.3-0.6-0.5-1.3-0.5-2
	c-0.1-1.1,0.4-2.2,1.3-2.9C81.6,0.2,82.3,0,83,0c0.7,0,1.4,0.2,2,0.5c0.4,0.3,0.8,0.7,1,1.1c0.3,0.5,0.4,1.1,0.5,1.6l-2.1,0.4
	c0-0.5-0.2-1-0.5-1.4c-0.2-0.2-0.5-0.4-0.9-0.4c-0.4,0-0.7,0.2-0.9,0.5c-0.2,0.3-0.3,0.7-0.2,1c0,0.7,0.3,1.4,0.8,2
	c0.3,0.3,0.6,0.6,1,0.9c0.5,0.4,0.8,0.7,1,0.9c0.5,0.5,0.9,1,1.2,1.6c0.1,0.2,0.2,0.4,0.3,0.7C86.5,9.9,86.6,10.4,86.6,10.9z"/>
<path class="st0" d="M5.3,32.8v6H3.1V24.6h2.1v6h2.6v-6H10v14.2H7.8v-6H5.3z"/>
<path class="st0" d="M17.4,35.5l-0.5,3.3h-2.2l2.4-14.2h3l2.4,14.2h-2.3l-0.5-3.3H17.4z M18.6,27.8l-0.8,5.6h1.6L18.6,27.8z"/>
<path class="st0" d="M33.6,35.3c0,0.9-0.2,1.8-0.8,2.5c-0.4,0.5-0.9,0.8-1.5,1c-0.4,0.1-0.8,0.2-1.2,0.2c-0.7,0-1.5-0.2-2.1-0.6
	c-0.5-0.4-0.9-0.8-1.1-1.4c-0.3-0.6-0.4-1.3-0.5-2l2-0.1c0,0.7,0.3,1.3,0.7,1.8c0.2,0.3,0.5,0.4,0.9,0.4c0.5,0,0.9-0.3,1.1-0.7
	c0.2-0.3,0.2-0.6,0.2-0.9c0-0.7-0.3-1.3-0.8-1.8c-0.4-0.4-1.1-1-1.9-1.8c-0.6-0.5-1.1-1.2-1.5-1.9c-0.3-0.6-0.5-1.3-0.5-2
	c-0.1-1.1,0.4-2.2,1.3-2.9c0.6-0.4,1.3-0.6,2-0.6c0.7,0,1.4,0.2,2,0.5c0.4,0.3,0.8,0.7,1,1.1c0.3,0.5,0.4,1.1,0.5,1.6L31.4,28
	c0-0.5-0.2-1-0.5-1.4c-0.2-0.2-0.5-0.4-0.9-0.4c-0.4,0-0.7,0.2-0.9,0.5c-0.2,0.3-0.3,0.7-0.2,1c0,0.7,0.3,1.4,0.8,2
	c0.3,0.3,0.6,0.6,1,0.9c0.5,0.4,0.8,0.7,1,0.9c0.5,0.5,0.9,1,1.2,1.6c0.1,0.2,0.2,0.4,0.3,0.7C33.4,34.3,33.5,34.8,33.6,35.3z"/>
<path class="st0" d="M46.6,38.8V24.6h3.2c0.8,0,1.6,0.2,2.3,0.7c0.6,0.4,1.1,1,1.2,1.8c0.1,0.5,0.2,1,0.2,1.5c0,0.8-0.2,1.7-0.8,2.3
	c-0.2,0.2-0.5,0.4-0.8,0.6c0.5,0.2,0.9,0.6,1.2,1.1c0.2,0.4,0.4,0.9,0.5,1.4c0.1,0.3,0.1,0.7,0.1,1c0,0.8-0.2,1.6-0.5,2.3
	c-0.6,1-1.6,1.6-2.8,1.7H46.6z M49,30.4h0.9c0.6,0,1.2-0.4,1.3-1c0.1-0.3,0.1-0.6,0.1-0.9c0-0.5-0.1-1-0.4-1.3
	c-0.3-0.3-0.6-0.4-1-0.4H49L49,30.4z M49,36.7h0.9c0.7,0,1.3-0.4,1.5-1.1c0.1-0.3,0.2-0.6,0.1-0.9c0.1-0.6-0.1-1.2-0.5-1.7
	c-0.3-0.3-0.7-0.5-1.2-0.5H49L49,36.7z"/>
<path class="st0" d="M58,38.8V24.6h6.1v2.2h-4v3.9H63v2.2h-2.9v3.9h4v2.2H58z"/>
<path class="st0" d="M68.1,38.8V24.6h6.1v2.2h-4v3.9h2.9v2.2h-2.9v3.9h4v2.2H68.1z"/>
<path class="st0" d="M81,24.6l2.9,9.6v-9.6H86v14.2h-2.3l-3-9.1v9.1h-2.1V24.6H81z"/>
<path class="st0" d="M3.4,63.4c-0.9,0-1.8-0.3-2.4-1c-0.6-0.6-1-1.5-1-2.4V49h2.1v11c0,0.3,0.1,0.6,0.4,0.9c0.2,0.2,0.5,0.4,0.9,0.4
	c0.7,0,1.2-0.5,1.2-1.2c0,0,0,0,0,0V49h2.2v11c0,0.9-0.3,1.8-1,2.4C5.2,63,4.3,63.4,3.4,63.4z"/>
<path class="st0" d="M17.6,59.7c0,0.9-0.2,1.8-0.8,2.5c-0.4,0.5-0.9,0.8-1.5,1c-0.4,0.1-0.8,0.2-1.2,0.2c-0.7,0-1.5-0.2-2.1-0.6
	c-0.5-0.4-0.9-0.8-1.1-1.4c-0.3-0.6-0.4-1.3-0.5-2l2-0.1c0,0.7,0.3,1.3,0.7,1.8c0.2,0.3,0.5,0.4,0.9,0.4c0.5,0,0.9-0.3,1.1-0.7
	c0.2-0.3,0.2-0.6,0.2-0.9c0-0.7-0.3-1.3-0.8-1.8c-0.4-0.4-1.1-1-1.9-1.8c-0.6-0.5-1.1-1.2-1.5-1.9c-0.3-0.6-0.5-1.3-0.5-2
	c-0.1-1.1,0.4-2.2,1.3-2.9c0.6-0.4,1.3-0.6,2-0.6c0.7,0,1.4,0.2,2,0.5c0.4,0.3,0.8,0.7,1,1.1c0.3,0.5,0.4,1.1,0.5,1.6l-2.1,0.4
	c0-0.5-0.2-1-0.5-1.4c-0.2-0.2-0.5-0.4-0.9-0.4c-0.4,0-0.7,0.2-0.9,0.5c-0.2,0.3-0.3,0.7-0.2,1c0,0.7,0.3,1.4,0.8,2
	c0.3,0.3,0.6,0.6,1,0.9c0.5,0.4,0.8,0.7,1,0.9c0.5,0.5,0.9,1,1.2,1.6c0.1,0.2,0.2,0.4,0.3,0.7C17.5,58.7,17.6,59.2,17.6,59.7z"/>
<path class="st0" d="M21.3,63.2V49h6.1v2.2h-4V55h2.9v2.2h-2.9v3.9h4v2.2L21.3,63.2z"/>
<path class="st0" d="M37.9,59.8c0,0.9-0.3,1.8-1,2.4c-0.6,0.7-1.5,1-2.4,1h-3.4V49h3.4c0.9,0,1.8,0.3,2.4,1c0.6,0.6,1,1.5,1,2.4
	V59.8z M33.3,61.1h1.3c0.3,0,0.6-0.1,0.9-0.4c0.2-0.2,0.4-0.5,0.4-0.9v-7.5c0-0.3-0.1-0.6-0.4-0.9c-0.2-0.2-0.5-0.4-0.9-0.4h-1.3
	V61.1z"/>
<path class="st0" d="M53.4,59.9l-0.5,3.3h-2.2L53.1,49h3l2.4,14.2h-2.3l-0.5-3.3H53.4z M54.5,52.2l-0.8,5.6h1.6L54.5,52.2z"/>
<path class="st0" d="M68.3,59.7c0,0.9-0.2,1.8-0.8,2.5c-0.4,0.5-0.9,0.8-1.5,1c-0.4,0.1-0.8,0.2-1.2,0.2c-0.7,0-1.5-0.2-2.1-0.6
	c-0.5-0.4-0.9-0.8-1.1-1.4c-0.3-0.6-0.4-1.3-0.5-2l2-0.1c0,0.7,0.3,1.3,0.7,1.8c0.2,0.3,0.5,0.4,0.9,0.4c0.5,0,0.9-0.3,1.1-0.7
	c0.2-0.3,0.2-0.6,0.2-0.9c0-0.7-0.3-1.3-0.8-1.8c-0.4-0.4-1.1-1-1.9-1.8c-0.6-0.5-1.1-1.2-1.5-1.9c-0.3-0.6-0.5-1.3-0.5-2
	c-0.1-1.1,0.4-2.2,1.3-2.9c0.6-0.4,1.3-0.6,2-0.6c0.7,0,1.4,0.2,2,0.5c0.4,0.3,0.8,0.7,1,1.1c0.3,0.5,0.4,1.1,0.5,1.6l-2.1,0.4
	c0-0.5-0.2-1-0.5-1.4c-0.2-0.2-0.5-0.4-0.9-0.4c-0.4,0-0.7,0.2-0.9,0.5c-0.2,0.3-0.3,0.7-0.2,1c0,0.7,0.3,1.4,0.8,2
	c0.3,0.3,0.6,0.6,1,0.9c0.5,0.4,0.8,0.7,1,0.9c0.5,0.5,0.9,1,1.2,1.6c0.1,0.2,0.2,0.4,0.3,0.7C68.1,58.7,68.2,59.2,68.3,59.7z"/>
<path class="st0" d="M84.1,59.9l-0.5,3.3h-2.2L83.8,49h3l2.4,14.2h-2.3l-0.5-3.3H84.1z M85.2,52.2l-0.8,5.6H86L85.2,52.2z"/>
<path class="st0" d="M9.6,84.1c0,0.9-0.2,1.8-0.8,2.5c-0.4,0.5-0.9,0.8-1.5,1c-0.4,0.1-0.8,0.2-1.2,0.2c-0.7,0-1.5-0.2-2.1-0.6
	c-0.5-0.4-0.9-0.8-1.1-1.4c-0.3-0.6-0.4-1.3-0.5-2l2-0.1c0,0.7,0.3,1.3,0.7,1.8c0.2,0.3,0.5,0.4,0.9,0.4c0.5,0,0.9-0.3,1.1-0.7
	c0.2-0.3,0.2-0.6,0.2-0.9c0-0.7-0.3-1.3-0.8-1.8c-0.4-0.4-1.1-1-1.9-1.8c-0.6-0.5-1.1-1.2-1.5-1.9c-0.3-0.6-0.5-1.3-0.5-2
	c-0.1-1.1,0.4-2.2,1.3-2.9c0.6-0.4,1.3-0.6,2-0.6c0.7,0,1.4,0.2,2,0.5c0.4,0.3,0.8,0.7,1,1.1c0.3,0.5,0.4,1.1,0.5,1.6l-2.1,0.4
	c0-0.5-0.2-1-0.5-1.4c-0.2-0.2-0.5-0.4-0.9-0.4c-0.4,0-0.7,0.2-0.9,0.5c-0.2,0.3-0.3,0.7-0.2,1c0,0.7,0.3,1.4,0.8,2
	c0.3,0.3,0.6,0.6,1,0.9c0.5,0.4,0.8,0.7,1,0.9c0.5,0.5,0.9,1,1.2,1.6c0.1,0.2,0.2,0.4,0.3,0.7C9.5,83.1,9.6,83.6,9.6,84.1z"/>
<path class="st0" d="M16.7,73.4c0.9,0,1.8,0.3,2.5,1c0.6,0.7,0.9,1.5,0.9,2.4v2.1c0,0.9-0.3,1.8-1,2.4c-0.6,0.7-1.5,1-2.4,1h-1.2
	v5.4h-2.1V73.4H16.7z M18,76.8c0-0.3-0.1-0.7-0.3-0.9c-0.2-0.2-0.6-0.4-0.9-0.3h-1.3v4.6h1.3c0.3,0,0.6-0.1,0.9-0.4
	c0.2-0.2,0.4-0.5,0.4-0.9V76.8z"/>
<path class="st0" d="M25.8,87.6h-2.1V73.4h2.1V87.6z"/>
<path class="st0" d="M33.7,73.4c1-0.1,2,0.3,2.6,1c0.5,0.7,0.8,1.5,0.7,2.4v2.1c0,1-0.4,1.9-1.1,2.6l1.6,6.2h-2.3l-1.3-5.4h-1.4v5.4
	h-2.1V73.4H33.7z M35,76.8c0.1-0.6-0.3-1.1-0.9-1.2c-0.1,0-0.2,0-0.3,0h-1.3v4.6h1.3c0.3,0,0.6-0.1,0.9-0.4c0.2-0.2,0.4-0.5,0.4-0.9
	L35,76.8z"/>
<path class="st0" d="M43.8,87.6h-2.1V73.4h2.1V87.6z"/>
<path class="st0" d="M50,75.5h-2.3v-2.2h6.7v2.2h-2.3v12.1H50V75.5z"/>
<path class="st0" d="M61.8,87.8c-1.9,0-3.4-1.5-3.4-3.4c0,0,0,0,0,0v-11h2.1v11c0,0.3,0.1,0.6,0.4,0.9c0.2,0.2,0.5,0.4,0.9,0.4
	c0.7,0,1.2-0.5,1.2-1.2c0,0,0,0,0,0v-11h2.2v11c0,0.9-0.3,1.8-1,2.4C63.6,87.4,62.7,87.8,61.8,87.8z"/>
<path class="st0" d="M71.7,84.3l-0.5,3.3h-2.2l2.4-14.2h3l2.4,14.2h-2.3l-0.5-3.3L71.7,84.3z M72.8,76.6L72,82.3h1.6L72.8,76.6z"/>
<path class="st0" d="M86.6,87.6h-5.9V73.4h2.1v12.1h3.7V87.6z"/>
<path class="st0" d="M34.9,108.7l-0.5,3.3h-2.2l2.4-14.2h3l2.4,14.2h-2.3l-0.5-3.3H34.9z M36,101l-0.8,5.6h1.6L36,101z"/>
<path class="st0" d="M45.8,112h-2.1V97.8h2.1V112z"/>
<path class="st0" d="M57,108.6c0,0.9-0.3,1.8-1,2.4c-0.6,0.7-1.5,1-2.4,1h-3.4V97.8h3.4c0.9,0,1.8,0.3,2.4,1c0.6,0.6,1,1.5,1,2.4
	V108.6z M52.4,109.9h1.3c0.3,0,0.6-0.1,0.9-0.4c0.2-0.2,0.4-0.5,0.4-0.9v-7.5c0-0.3-0.1-0.6-0.4-0.9c-0.2-0.2-0.5-0.4-0.9-0.4h-1.3
	V109.9z"/>
</svg>
