<svg id="Layer_1" data-name="Layer 1" xmlns="http://www.w3.org/2000/svg" width="123.6738" height="14.6025" viewBox="0 0 123.6738 14.6025"><defs><style>.cls-1{fill:#ac9655;}</style></defs><title>frame4</title><path class="cls-1" d="M2.4111.1709,5.2617,9.748V.1709H7.4092v14.25H5.1025l-2.955-9.125v9.125H0V.1709Z"/><path class="cls-1" d="M14.8418,11.1484,14.32,14.4209H12.084L14.5049.1826H17.459l2.3867,14.2383H17.5869l-.5019-3.2725Zm1.1289-7.705-.7959,5.6142h1.5908Z"/><path class="cls-1" d="M26.68,14.4209H24.5322V.1709h3.0821l2.0019,10.2363L31.5371.1709H34.498v14.25H32.3506V5.4668l-1.8633,8.9541H28.76L26.68,5.4893Z"/><path class="cls-1" d="M41.9326,11.1484l-.5215,3.2725H39.1748L41.5947.1826H44.55l2.3857,14.2383H44.6777l-.5029-3.2725Zm1.1279-7.705-.7949,5.6142h1.5908Z"/><path class="cls-1" d="M58.0762,10.875a4.001,4.001,0,0,1-.7725,2.5459,2.7835,2.7835,0,0,1-1.4775,1.0117,4.0419,4.0419,0,0,1-1.1924.1592,3.3837,3.3837,0,0,1-2.0918-.625,3.5017,3.5017,0,0,1-1.0957-1.3926,5.593,5.593,0,0,1-.4717-2.0166l2.0449-.1484a3.1079,3.1079,0,0,0,.6592,1.8047,1.1,1.1,0,0,0,.8867.4A1.334,1.334,0,0,0,55.69,11.92a1.7241,1.7241,0,0,0,.2158-.9433A2.6255,2.6255,0,0,0,55.1,9.2129q-.6372-.6021-1.9092-1.8076a8.16,8.16,0,0,1-1.5117-1.8545,4.286,4.286,0,0,1-.4775-2.002A3.4792,3.4792,0,0,1,52.5088.6035a3.2426,3.2426,0,0,1,2-.6035,3.6382,3.6382,0,0,1,1.9658.5117A2.9673,2.9673,0,0,1,57.5029,1.625a4.1463,4.1463,0,0,1,.4717,1.6484l-2.0576.375a2.4756,2.4756,0,0,0-.5-1.3642,1.0486,1.0486,0,0,0-.8516-.3516.982.982,0,0,0-.8984.5225A2.0215,2.0215,0,0,0,53.417,3.5a3.135,3.135,0,0,0,.8418,1.9893,7.043,7.043,0,0,0,.9541.9091q.75.6242.9883.875a7.2888,7.2888,0,0,1,1.2275,1.5684,6.0945,6.0945,0,0,1,.33.67A3.8963,3.8963,0,0,1,58.0762,10.875Z"/><path class="cls-1" d="M64.7178,2.3418H62.4336V.1826h6.7041V2.3418H66.8652V14.4209H64.7178Z"/><path class="cls-1" d="M73.7451,14.4209V.1709h6.1133V2.33H75.8926V6.2168H78.79V8.375H75.8926v3.8867h3.9658v2.1592Z"/><path class="cls-1" d="M84.2158,12.2842h2.1485v2.1484H84.2158Z"/><path class="cls-1" d="M94.13,14.6025a3.3958,3.3958,0,0,1-3.4092-3.3974V3.4326a3.2812,3.2812,0,0,1,1-2.415A3.2927,3.2927,0,0,1,94.13.0234a3.2583,3.2583,0,0,1,2.4092,1,3.3025,3.3025,0,0,1,.9892,2.4092v1.625H95.3008V3.3867a1.2421,1.2421,0,0,0-1.2393-1.2383,1.1754,1.1754,0,0,0-.8691.3633,1.2031,1.2031,0,0,0-.3574.875v7.7959a1.22,1.22,0,0,0,1.2265,1.2266,1.2018,1.2018,0,0,0,.875-.3574,1.1729,1.1729,0,0,0,.3643-.8692V9.2168h2.2275v1.9883A3.3941,3.3941,0,0,1,94.13,14.6025Z"/><path class="cls-1" d="M105.5332,0a3.2807,3.2807,0,0,1,2.4141,1,3.2952,3.2952,0,0,1,.9951,2.4092v7.7734a3.4038,3.4038,0,1,1-6.8076,0V3.4092a3.2807,3.2807,0,0,1,1-2.4141A3.2805,3.2805,0,0,1,105.5332,0Zm1.17,3.3643a1.222,1.222,0,0,0-1.2275-1.2276,1.202,1.202,0,0,0-.875.3584,1.174,1.174,0,0,0-.3633.8692v7.7949a1.1777,1.1777,0,0,0,.3633.87,1.2047,1.2047,0,0,0,.875.3574,1.22,1.22,0,0,0,1.2275-1.2275Z"/><path class="cls-1" d="M115.8564,14.4209H113.708V.1709h3.082l2.002,10.2363L120.7129.1709h2.9609v14.25h-2.1474V5.4668l-1.8633,8.9541h-1.7276l-2.0791-8.9316Z"/></svg>