<svg id="Layer_1" data-name="Layer 1" xmlns="http://www.w3.org/2000/svg" width="320" height="50" viewBox="0 0 320 50"><defs><style>.cls-1{fill:#231f20;}.cls-2{fill:#d3b372;}</style></defs><title>frame1</title><rect class="cls-1" width="320" height="50"/><path class="cls-2" d="M51.7891,27.1758a2.1215,2.1215,0,0,1-2.1309-2.1226V20.1948a2.1272,2.1272,0,1,1,4.2544,0V21.21H52.5205V20.1665a.7759.7759,0,0,0-.7739-.7744.7352.7352,0,0,0-.5435.2275.7525.7525,0,0,0-.2236.5469v4.8721a.7636.7636,0,0,0,.7671.7676.755.755,0,0,0,.5469-.2237.7364.7364,0,0,0,.227-.5439V23.81h1.3921v1.2431a2.1206,2.1206,0,0,1-2.1235,2.1226Z"/><path class="cls-2" d="M58.2031,25.0171l-.3261,2.0454H56.479l1.5132-8.8989h1.8462L61.33,27.0625H59.9185l-.314-2.0454Zm.7051-4.8145L58.4111,23.71h.9942Z"/><path class="cls-2" d="M65.7666,18.1567l1.7813,5.9854V18.1567H68.89v8.9058H67.4482L65.6021,21.36v5.7026H64.2593V18.1567Z"/><path class="cls-2" d="M73.397,18.1567l1.7812,5.9854V18.1567h1.3423v8.9058H75.0786L73.2324,21.36v5.7026H71.89V18.1567Z"/><path class="cls-2" d="M81.1665,25.0171,80.84,27.0625H79.4424l1.5132-8.8989h1.8462l1.4917,8.8989H82.8818l-.3139-2.0454Zm.7051-4.8145L81.3745,23.71h.9942Z"/><path class="cls-2" d="M86.8262,27.0625V18.1567h2.01a2.56,2.56,0,0,1,1.4346.419,1.9506,1.9506,0,0,1,.7812,1.1006,3.0958,3.0958,0,0,1,.128.9453,2.09,2.09,0,0,1-.4761,1.4346,1.341,1.341,0,0,1-.4687.3476,1.5607,1.5607,0,0,1,.76.6748,2.628,2.628,0,0,1,.3052.8809,3.5058,3.5058,0,0,1,.05.6181,2.9691,2.9691,0,0,1-.32,1.4341,1.8987,1.8987,0,0,1-.7032.7383,1.93,1.93,0,0,1-1.0156.3125Zm1.4492-5.269h.561a.8227.8227,0,0,0,.8379-.6114,1.7314,1.7314,0,0,0,.0781-.56,1.1732,1.1732,0,0,0-.27-.8389.85.85,0,0,0-.646-.2627h-.561Zm0,3.9414h.561a.9519.9519,0,0,0,.9444-.7032,1.5455,1.5455,0,0,0,.0922-.5537,1.692,1.692,0,0,0-.2836-1.0869.9178.9178,0,0,0-.753-.3125h-.561Z"/><path class="cls-2" d="M95.2563,27.0625H93.9136V18.1636h1.3427Z"/><path class="cls-2" d="M102.2178,24.8472a2.499,2.499,0,0,1-.4829,1.59,1.7365,1.7365,0,0,1-.9234.6328,2.511,2.511,0,0,1-.7456.1,2.1134,2.1134,0,0,1-1.3066-.3906,2.1847,2.1847,0,0,1-.6856-.8706,3.5234,3.5234,0,0,1-.2949-1.2608l1.2788-.0917a1.9442,1.9442,0,0,0,.4116,1.1279.6906.6906,0,0,0,.5542.25.8343.8343,0,0,0,.7032-.4336,1.08,1.08,0,0,0,.1347-.5908,1.6378,1.6378,0,0,0-.5044-1.1016q-.3976-.3765-1.1928-1.13a5.0869,5.0869,0,0,1-.9449-1.1592,2.68,2.68,0,0,1-.2983-1.2509,2.1755,2.1755,0,0,1,.8169-1.8409,2.0321,2.0321,0,0,1,1.25-.3769,2.2729,2.2729,0,0,1,1.2285.3193,1.8486,1.8486,0,0,1,.6431.6963,2.5708,2.5708,0,0,1,.2944,1.0293l-1.2851.2344a1.5489,1.5489,0,0,0-.3125-.8516.6555.6555,0,0,0-.5328-.2207.614.614,0,0,0-.561.3272,1.2543,1.2543,0,0,0-.1562.6533,1.9615,1.9615,0,0,0,.5253,1.2432,4.4239,4.4239,0,0,0,.5967.5673q.4688.3912.6177.5469a4.5529,4.5529,0,0,1,.7671.9805,3.7313,3.7313,0,0,1,.206.4189A2.4311,2.4311,0,0,1,102.2178,24.8472Z"/><path class="cls-2" d="M111.731,23.2915v3.771h-1.3428V18.1636h1.3428v3.7783H113.35V18.1636h1.3423v8.8989H113.35v-3.771Z"/><path class="cls-2" d="M119.3379,25.0171l-.3262,2.0454h-1.3979l1.5132-8.8989h1.8461l1.4917,8.8989h-1.4116l-.3139-2.0454Zm.7051-4.8145-.4971,3.5078h.9941Z"/><path class="cls-2" d="M129.4277,24.8472a2.4978,2.4978,0,0,1-.4829,1.59,1.7362,1.7362,0,0,1-.9233.6328,2.511,2.511,0,0,1-.7456.1,2.1139,2.1139,0,0,1-1.3067-.3906,2.1854,2.1854,0,0,1-.6855-.8706,3.5213,3.5213,0,0,1-.2949-1.2608l1.2788-.0917a1.9429,1.9429,0,0,0,.4116,1.1279.69.69,0,0,0,.5542.25.8342.8342,0,0,0,.7031-.4336,1.0792,1.0792,0,0,0,.1348-.5908,1.6382,1.6382,0,0,0-.5044-1.1016q-.3976-.3765-1.1929-1.13a5.086,5.086,0,0,1-.9448-1.1592,2.68,2.68,0,0,1-.2983-1.2509,2.1752,2.1752,0,0,1,.8169-1.8409,2.0321,2.0321,0,0,1,1.25-.3769,2.2731,2.2731,0,0,1,1.2285.3193,1.8476,1.8476,0,0,1,.643.6963,2.5709,2.5709,0,0,1,.2945,1.0293l-1.2852.2344a1.5489,1.5489,0,0,0-.3125-.8516.6553.6553,0,0,0-.5327-.2207.614.614,0,0,0-.561.3272,1.2543,1.2543,0,0,0-.1563.6533,1.9611,1.9611,0,0,0,.5254,1.2432,4.4117,4.4117,0,0,0,.5967.5673q.4687.3912.6177.5469a4.5491,4.5491,0,0,1,.767.9805,3.7161,3.7161,0,0,1,.2061.4189A2.4329,2.4329,0,0,1,129.4277,24.8472Z"/><path class="cls-2" d="M137.5981,27.0625V18.1567h2.01a2.56,2.56,0,0,1,1.4346.419,1.9506,1.9506,0,0,1,.7812,1.1006,3.096,3.096,0,0,1,.1279.9453,2.09,2.09,0,0,1-.476,1.4346,1.34,1.34,0,0,1-.4688.3476,1.56,1.56,0,0,1,.76.6748,2.63,2.63,0,0,1,.3052.8809,3.5058,3.5058,0,0,1,.05.6181,2.9679,2.9679,0,0,1-.32,1.4341,1.8984,1.8984,0,0,1-.7031.7383,1.93,1.93,0,0,1-1.0156.3125Zm1.4493-5.269h.561a.8227.8227,0,0,0,.8379-.6114,1.7341,1.7341,0,0,0,.0781-.56,1.1732,1.1732,0,0,0-.27-.8389.85.85,0,0,0-.646-.2627h-.561Zm0,3.9414h.561a.9518.9518,0,0,0,.9443-.7032,1.5433,1.5433,0,0,0,.0923-.5537,1.6914,1.6914,0,0,0-.2837-1.0869.9175.9175,0,0,0-.7529-.3125h-.561Z"/><path class="cls-2" d="M144.6753,27.0625V18.1567h3.8213v1.35h-2.4785v2.4288h1.811v1.35h-1.811v2.4287h2.4785v1.3491Z"/><path class="cls-2" d="M151.02,27.0625V18.1567h3.8213v1.35h-2.4785v2.4288h1.811v1.35h-1.811v2.4287h2.4785v1.3491Z"/><path class="cls-2" d="M159.0708,18.1567l1.7813,5.9854V18.1567h1.3422v8.9058h-1.4419L158.9062,21.36v5.7026h-1.3427V18.1567Z"/><path class="cls-2" d="M172.4873,27.1621a2.1089,2.1089,0,0,1-2.124-2.1157V18.1636h1.3144v6.8681a.7293.7293,0,0,0,.2276.543.7487.7487,0,0,0,.5468.2236.7636.7636,0,0,0,.7667-.7666V18.1636h1.3994v6.8828a2.022,2.022,0,0,1-.625,1.5044A2.0743,2.0743,0,0,1,172.4873,27.1621Z"/><path class="cls-2" d="M181.37,24.8472a2.4951,2.4951,0,0,1-.4834,1.59,1.7372,1.7372,0,0,1-.9228.6328,2.5144,2.5144,0,0,1-.7461.1,2.1147,2.1147,0,0,1-1.3067-.3906,2.1854,2.1854,0,0,1-.6855-.8706,3.5319,3.5319,0,0,1-.2949-1.2608l1.2793-.0917a1.9429,1.9429,0,0,0,.4111,1.1279.6908.6908,0,0,0,.5547.25.8354.8354,0,0,0,.7031-.4336,1.0792,1.0792,0,0,0,.1348-.5908,1.6367,1.6367,0,0,0-.5049-1.1016q-.3971-.3765-1.1924-1.13a5.09,5.09,0,0,1-.9453-1.1592,2.6858,2.6858,0,0,1-.2979-1.2509,2.1765,2.1765,0,0,1,.8164-1.8409,2.0335,2.0335,0,0,1,1.25-.3769,2.272,2.272,0,0,1,1.2286.3193,1.8488,1.8488,0,0,1,.6435.6963,2.5642,2.5642,0,0,1,.294,1.0293l-1.2852.2344a1.5451,1.5451,0,0,0-.3125-.8516.6542.6542,0,0,0-.5322-.2207.6148.6148,0,0,0-.5615.3272,1.2543,1.2543,0,0,0-.1563.6533,1.9611,1.9611,0,0,0,.5254,1.2432,4.4732,4.4732,0,0,0,.5967.5673q.4688.3912.6181.5469a4.5589,4.5589,0,0,1,.7666.9805,3.5684,3.5684,0,0,1,.2061.4189A2.4459,2.4459,0,0,1,181.37,24.8472Z"/><path class="cls-2" d="M183.6836,27.0625V18.1567h3.8213v1.35h-2.4785v2.4288h1.8105v1.35h-1.8105v2.4287h2.4785v1.3491Z"/><path class="cls-2" d="M194.0459,24.9321a2.0615,2.0615,0,0,1-.6172,1.5054,2.0167,2.0167,0,0,1-1.4922.625h-2.1094V18.1567h2.1094a2.0144,2.0144,0,0,1,1.4951.625,2.06,2.06,0,0,1,.6143,1.4991Zm-2.876.8028h.81a.7192.7192,0,0,0,.54-.23.7633.7633,0,0,0,.22-.544V20.3013a.7521.7521,0,0,0-.2237-.5469.7263.7263,0,0,0-.5361-.2266h-.81Z"/><path class="cls-2" d="M206.4551,24.8472a2.5016,2.5016,0,0,1-.4824,1.59,1.74,1.74,0,0,1-.9239.6328,2.5122,2.5122,0,0,1-.7451.1,2.1154,2.1154,0,0,1-1.3076-.3906,2.1914,2.1914,0,0,1-.6846-.8706,3.4921,3.4921,0,0,1-.2949-1.2608l1.2783-.0917a1.9442,1.9442,0,0,0,.4121,1.1279.689.689,0,0,0,.5537.25.8356.8356,0,0,0,.7032-.4336,1.08,1.08,0,0,0,.1347-.5908,1.6393,1.6393,0,0,0-.5039-1.1016q-.3984-.3765-1.1933-1.13a5.0826,5.0826,0,0,1-.9444-1.1592,2.6744,2.6744,0,0,1-.2988-1.2509,2.1745,2.1745,0,0,1,.8174-1.8409,2.029,2.029,0,0,1,1.25-.3769,2.2741,2.2741,0,0,1,1.2285.3193,1.8466,1.8466,0,0,1,.6426.6963,2.5792,2.5792,0,0,1,.2949,1.0293l-1.2861.2344a1.5375,1.5375,0,0,0-.3125-.8516.6545.6545,0,0,0-.5323-.2207.6148.6148,0,0,0-.5615.3272,1.264,1.264,0,0,0-.1562.6533,1.9631,1.9631,0,0,0,.5263,1.2432,4.4062,4.4062,0,0,0,.5957.5673q.4688.3912.6182.5469a4.5722,4.5722,0,0,1,.7676.9805,3.912,3.912,0,0,1,.206.4189A2.463,2.463,0,0,1,206.4551,24.8472Z"/><path class="cls-2" d="M211.4863,18.1636a2.0453,2.0453,0,0,1,1.5625.6181,2.1443,2.1443,0,0,1,.54,1.5059V21.58a2.07,2.07,0,0,1-.6143,1.5058,2.01,2.01,0,0,1-1.4883.625h-.7744v3.3521H209.37V18.1636Zm.8028,2.1455a.767.767,0,0,0-.21-.5615.7476.7476,0,0,0-.5576-.2129h-.81v2.8476h.81a.7344.7344,0,0,0,.5439-.2265.7559.7559,0,0,0,.2237-.5469Z"/><path class="cls-2" d="M217.8037,27.0625h-1.3418V18.1636h1.3418Z"/><path class="cls-2" d="M222.9209,18.1636a2.0461,2.0461,0,0,1,1.6475.6181,2.2469,2.2469,0,0,1,.4619,1.5059V21.58a2.08,2.08,0,0,1-.7178,1.5986l.9951,3.8843h-1.4521L223.042,23.71h-.8955v3.3521h-1.3418V18.1636Zm.8027,2.1455a.6813.6813,0,0,0-.7675-.7744h-.81v2.8476h.81a.7345.7345,0,0,0,.5439-.2265.7562.7562,0,0,0,.2236-.5469Z"/><path class="cls-2" d="M229.6,27.0625h-1.3418V18.1636H229.6Z"/><path class="cls-2" d="M233.9072,19.5132H232.48v-1.35h4.19v1.35H235.249v7.5493h-1.3418Z"/><path class="cls-2" d="M241.665,27.1621a2.1074,2.1074,0,0,1-2.123-2.1157V18.1636h1.3135v6.8681a.7329.7329,0,0,0,.2275.543.7505.7505,0,0,0,.5469.2236.7634.7634,0,0,0,.7666-.7666V18.1636h1.3994v6.8828a2.0183,2.0183,0,0,1-.625,1.5044A2.0742,2.0742,0,0,1,241.665,27.1621Z"/><path class="cls-2" d="M248.2432,25.0171l-.3262,2.0454H246.52l1.5127-8.8989h1.8467l1.4912,8.8989H249.959l-.3145-2.0454Zm.705-4.8145-.497,3.5078h.9941Z"/><path class="cls-2" d="M257.9561,27.0625h-3.6573V18.1636h1.3418V25.728h2.3155Z"/><path class="cls-2" d="M264.3379,27.0625h-3.6572V18.1636h1.3418V25.728h2.3154Z"/><path class="cls-2" d="M267.1963,23.3345l-1.7969-5.1778h1.4766l.9951,3.1963.9873-3.1963h1.4844l-1.8047,5.1778v3.728h-1.3418Z"/></svg>