<?xml version="1.0" encoding="utf-8"?>
<!-- Generator: Adobe Illustrator 22.1.0, SVG Export Plug-In . SVG Version: 6.00 Build 0)  -->
<svg version="1.1" id="Layer_1" xmlns="http://www.w3.org/2000/svg" xmlns:xlink="http://www.w3.org/1999/xlink" x="0px" y="0px"
	 viewBox="0 0 258.1 9.1" style="enable-background:new 0 0 258.1 9.1;" xml:space="preserve">
<style type="text/css">
	.st0{fill:#D3B372;}
</style>
<title>frame1</title>
<path class="st0" d="M2.1,9.1C1.6,9.1,1,8.9,0.6,8.5C0.2,8.1,0,7.6,0,7V2.1C0,1.6,0.2,1,0.6,0.6C1,0.2,1.6,0,2.1,0
	c0.6,0,1.1,0.2,1.5,0.6C4,1,4.3,1.6,4.3,2.1v1H2.9v-1c0-0.4-0.3-0.8-0.8-0.8c-0.2,0-0.4,0.1-0.5,0.2C1.4,1.7,1.3,1.9,1.3,2.1V7
	c0,0.4,0.3,0.8,0.8,0.8c0,0,0,0,0,0c0.2,0,0.4-0.1,0.5-0.2C2.8,7.4,2.9,7.2,2.9,7V5.8h1.4V7c0,0.6-0.2,1.1-0.6,1.5
	C3.2,8.9,2.7,9.1,2.1,9.1z"/>
<path class="st0" d="M8.5,7L8.2,9H6.8l1.5-8.9h1.8L11.7,9h-1.4L9.9,7L8.5,7z M9.2,2.2L8.8,5.7h1L9.2,2.2z"/>
<path class="st0" d="M16.1,0.1l1.8,6v-6h1.3V9h-1.4l-1.8-5.7V9h-1.3V0.1H16.1z"/>
<path class="st0" d="M23.7,0.1l1.8,6v-6h1.3V9h-1.4l-1.8-5.7V9h-1.3V0.1H23.7z"/>
<path class="st0" d="M31.5,7l-0.3,2h-1.4l1.5-8.9h1.8L34.6,9h-1.4l-0.3-2H31.5z M32.2,2.2l-0.5,3.5h1L32.2,2.2z"/>
<path class="st0" d="M37.2,9V0.1h2c0.5,0,1,0.1,1.4,0.4c0.4,0.3,0.7,0.7,0.8,1.1c0.1,0.3,0.1,0.6,0.1,0.9c0,0.5-0.1,1-0.5,1.4
	c-0.1,0.1-0.3,0.3-0.5,0.3c0.3,0.1,0.6,0.4,0.8,0.7c0.2,0.3,0.3,0.6,0.3,0.9c0,0.2,0.1,0.4,0,0.6c0,0.5-0.1,1-0.3,1.4
	c-0.2,0.3-0.4,0.6-0.7,0.7C40.4,8.9,40,9,39.7,9H37.2z M38.6,3.7h0.6c0.4,0,0.7-0.2,0.8-0.6c0.1-0.2,0.1-0.4,0.1-0.6
	c0-0.3-0.1-0.6-0.3-0.8c-0.2-0.2-0.4-0.3-0.6-0.3h-0.6L38.6,3.7z M38.6,7.7h0.6c0.4,0,0.8-0.3,0.9-0.7c0.1-0.2,0.1-0.4,0.1-0.6
	c0-0.4-0.1-0.8-0.3-1.1C39.7,5.1,39.5,5,39.2,5h-0.6L38.6,7.7z"/>
<path class="st0" d="M45.6,9h-1.3V0.1h1.3L45.6,9z"/>
<path class="st0" d="M52.6,6.8c0,0.6-0.1,1.1-0.5,1.6c-0.2,0.3-0.6,0.5-0.9,0.6c-0.2,0.1-0.5,0.1-0.7,0.1c-0.5,0-0.9-0.1-1.3-0.4
	c-0.3-0.2-0.5-0.5-0.7-0.9c-0.2-0.4-0.3-0.8-0.3-1.3l1.3-0.1c0,0.4,0.2,0.8,0.4,1.1c0.1,0.2,0.3,0.3,0.6,0.2c0.3,0,0.6-0.2,0.7-0.4
	c0.1-0.2,0.1-0.4,0.1-0.6c0-0.4-0.2-0.8-0.5-1.1c-0.3-0.3-0.7-0.6-1.2-1.1c-0.4-0.3-0.7-0.7-0.9-1.2c-0.2-0.4-0.3-0.8-0.3-1.3
	c0-0.7,0.3-1.4,0.8-1.8C49.4,0.1,49.9,0,50.3,0c0.4,0,0.9,0.1,1.2,0.3c0.3,0.2,0.5,0.4,0.6,0.7c0.2,0.3,0.3,0.7,0.3,1l-1.3,0.2
	c0-0.3-0.1-0.6-0.3-0.9c-0.1-0.2-0.3-0.2-0.5-0.2c-0.2,0-0.5,0.1-0.6,0.3c-0.1,0.2-0.2,0.4-0.2,0.7c0,0.5,0.2,0.9,0.5,1.2
	c0.2,0.2,0.4,0.4,0.6,0.6c0.3,0.3,0.5,0.4,0.6,0.5c0.3,0.3,0.6,0.6,0.8,1c0.1,0.1,0.1,0.3,0.2,0.4C52.5,6.2,52.5,6.5,52.6,6.8z"/>
<path class="st0" d="M62.1,5.2V9h-1.3V0.1h1.3v3.8h1.6V0.1H65V9h-1.3V5.2H62.1z"/>
<path class="st0" d="M69.7,7l-0.3,2H68l1.5-8.9h1.8L72.8,9h-1.4l-0.3-2L69.7,7z M70.4,2.2l-0.5,3.5h1L70.4,2.2z"/>
<path class="st0" d="M79.8,6.8c0,0.6-0.1,1.1-0.5,1.6c-0.2,0.3-0.6,0.5-0.9,0.6c-0.2,0.1-0.5,0.1-0.7,0.1c-0.5,0-0.9-0.1-1.3-0.4
	c-0.3-0.2-0.5-0.5-0.7-0.9c-0.2-0.4-0.3-0.8-0.3-1.3l1.3-0.1c0,0.4,0.2,0.8,0.4,1.1c0.1,0.2,0.3,0.3,0.6,0.2c0.3,0,0.6-0.2,0.7-0.4
	c0.1-0.2,0.1-0.4,0.1-0.6c0-0.4-0.2-0.8-0.5-1.1c-0.3-0.3-0.7-0.6-1.2-1.1c-0.4-0.3-0.7-0.7-0.9-1.2c-0.2-0.4-0.3-0.8-0.3-1.3
	c0-0.7,0.3-1.4,0.8-1.8C76.7,0.1,77.1,0,77.5,0c0.4,0,0.9,0.1,1.2,0.3C79,0.5,79.3,0.7,79.4,1c0.2,0.3,0.3,0.7,0.3,1l-1.3,0.2
	c0-0.3-0.1-0.6-0.3-0.9c-0.1-0.2-0.3-0.2-0.5-0.2c-0.2,0-0.5,0.1-0.6,0.3c-0.1,0.2-0.2,0.4-0.2,0.7c0,0.5,0.2,0.9,0.5,1.2
	C77.6,3.6,77.8,3.8,78,4c0.3,0.3,0.5,0.4,0.6,0.5c0.3,0.3,0.6,0.6,0.8,1c0.1,0.1,0.1,0.3,0.2,0.4C79.7,6.2,79.8,6.5,79.8,6.8z"/>
<path class="st0" d="M87.9,9V0.1h2c0.5,0,1,0.1,1.4,0.4c0.4,0.3,0.7,0.7,0.8,1.1c0.1,0.3,0.1,0.6,0.1,0.9c0,0.5-0.1,1-0.5,1.4
	c-0.1,0.1-0.3,0.3-0.5,0.3c0.3,0.1,0.6,0.4,0.8,0.7c0.2,0.3,0.3,0.6,0.3,0.9c0,0.2,0.1,0.4,0.1,0.6c0,0.5-0.1,1-0.3,1.4
	c-0.2,0.3-0.4,0.6-0.7,0.7c-0.3,0.2-0.7,0.3-1,0.3H87.9z M89.4,3.7H90c0.4,0,0.7-0.2,0.8-0.6c0.1-0.2,0.1-0.4,0.1-0.6
	c0-0.3-0.1-0.6-0.3-0.8c-0.2-0.2-0.4-0.3-0.6-0.3h-0.6L89.4,3.7z M89.4,7.7H90c0.4,0,0.8-0.3,0.9-0.7C91,6.8,91,6.6,91,6.4
	c0-0.4-0.1-0.8-0.3-1.1C90.5,5.1,90.2,5,90,5h-0.6V7.7z"/>
<path class="st0" d="M95,9V0.1h3.8v1.4h-2.5v2.4h1.8v1.3h-1.8v2.4h2.5V9L95,9z"/>
<path class="st0" d="M101.4,9V0.1h3.8v1.4h-2.5v2.4h1.8v1.3h-1.8v2.4h2.5V9L101.4,9z"/>
<path class="st0" d="M109.4,0.1l1.8,6v-6h1.3V9h-1.4l-1.8-5.7V9h-1.3V0.1H109.4z"/>
<path class="st0" d="M122.8,9.1c-1.2,0-2.1-0.9-2.1-2.1c0,0,0,0,0,0V0.1h1.3V7c0,0.2,0.1,0.4,0.2,0.5c0.1,0.1,0.3,0.2,0.5,0.2
	c0.4,0,0.8-0.3,0.8-0.8c0,0,0,0,0,0V0.1h1.4V7c0,0.6-0.2,1.1-0.6,1.5C123.9,8.9,123.4,9.1,122.8,9.1z"/>
<path class="st0" d="M131.7,6.8c0,0.6-0.1,1.1-0.5,1.6c-0.2,0.3-0.6,0.5-0.9,0.6c-0.2,0.1-0.5,0.1-0.7,0.1c-0.5,0-0.9-0.1-1.3-0.4
	c-0.3-0.2-0.5-0.5-0.7-0.9c-0.2-0.4-0.3-0.8-0.3-1.3l1.3-0.1c0,0.4,0.2,0.8,0.4,1.1c0.1,0.2,0.3,0.3,0.6,0.2c0.3,0,0.6-0.2,0.7-0.4
	c0.1-0.2,0.1-0.4,0.1-0.6c0-0.4-0.2-0.8-0.5-1.1c-0.3-0.3-0.7-0.6-1.2-1.1c-0.4-0.3-0.7-0.7-0.9-1.2c-0.2-0.4-0.3-0.8-0.3-1.3
	c0-0.7,0.3-1.4,0.8-1.8c0.4-0.3,0.8-0.4,1.2-0.4c0.4,0,0.9,0.1,1.2,0.3c0.3,0.2,0.5,0.4,0.6,0.7c0.2,0.3,0.3,0.7,0.3,1l-1.3,0.2
	c0-0.3-0.1-0.6-0.3-0.9c-0.1-0.2-0.3-0.2-0.5-0.2c-0.2,0-0.5,0.1-0.6,0.3c-0.1,0.2-0.2,0.4-0.2,0.7c0,0.5,0.2,0.9,0.5,1.2
	c0.2,0.2,0.4,0.4,0.6,0.6c0.3,0.3,0.5,0.4,0.6,0.5c0.3,0.3,0.6,0.6,0.8,1c0.1,0.1,0.1,0.3,0.2,0.4C131.6,6.2,131.7,6.5,131.7,6.8z"
	/>
<path class="st0" d="M134,9V0.1h3.8v1.4h-2.5v2.4h1.8v1.3h-1.8v2.4h2.5V9L134,9z"/>
<path class="st0" d="M144.4,6.9c0,0.6-0.2,1.1-0.6,1.5c-0.4,0.4-0.9,0.6-1.5,0.6h-2.1V0.1h2.1c0.6,0,1.1,0.2,1.5,0.6
	c0.4,0.4,0.6,0.9,0.6,1.5V6.9z M141.5,7.7h0.8c0.2,0,0.4-0.1,0.5-0.2c0.1-0.1,0.2-0.3,0.2-0.5V2.3c0-0.2-0.1-0.4-0.2-0.5
	c-0.1-0.1-0.3-0.2-0.5-0.2h-0.8L141.5,7.7z"/>
<path class="st0" d="M154.1,7l-0.3,2h-1.4l1.5-8.9h1.8l1.5,8.9h-1.4l-0.3-2L154.1,7z M154.8,2.2l-0.5,3.5h1L154.8,2.2z"/>
<path class="st0" d="M163.4,6.8c0,0.6-0.1,1.1-0.5,1.6c-0.2,0.3-0.6,0.5-0.9,0.6c-0.2,0.1-0.5,0.1-0.7,0.1c-0.5,0-0.9-0.1-1.3-0.4
	c-0.3-0.2-0.5-0.5-0.7-0.9c-0.2-0.4-0.3-0.8-0.3-1.3l1.3-0.1c0,0.4,0.2,0.8,0.4,1.1c0.1,0.2,0.3,0.3,0.6,0.2c0.3,0,0.6-0.2,0.7-0.4
	c0.1-0.2,0.1-0.4,0.1-0.6c0-0.4-0.2-0.8-0.5-1.1c-0.3-0.3-0.7-0.6-1.2-1.1c-0.4-0.3-0.7-0.7-0.9-1.2c-0.2-0.4-0.3-0.8-0.3-1.3
	c0-0.7,0.3-1.4,0.8-1.8c0.4-0.3,0.8-0.4,1.2-0.4c0.4,0,0.9,0.1,1.2,0.3c0.3,0.2,0.5,0.4,0.6,0.7c0.2,0.3,0.3,0.7,0.3,1L162,2.3
	c0-0.3-0.1-0.6-0.3-0.9c-0.1-0.2-0.3-0.2-0.5-0.2c-0.2,0-0.5,0.1-0.6,0.3c-0.1,0.2-0.2,0.4-0.2,0.7c0,0.5,0.2,0.9,0.5,1.2
	c0.2,0.2,0.4,0.4,0.6,0.6c0.3,0.3,0.5,0.4,0.6,0.5c0.3,0.3,0.6,0.6,0.8,1c0.1,0.1,0.1,0.3,0.2,0.4C163.3,6.2,163.4,6.5,163.4,6.8z"
	/>
<path class="st0" d="M173.3,7l-0.3,2h-1.4l1.5-8.9h1.8l1.5,8.9H175l-0.3-2L173.3,7z M174,2.2l-0.5,3.5h1L174,2.2z"/>
<path class="st0" d="M189,6.8c0,0.6-0.1,1.1-0.5,1.6c-0.2,0.3-0.6,0.5-0.9,0.6c-0.2,0.1-0.5,0.1-0.7,0.1c-0.5,0-0.9-0.1-1.3-0.4
	c-0.3-0.2-0.5-0.5-0.7-0.9c-0.2-0.4-0.3-0.8-0.3-1.3l1.3-0.1c0,0.4,0.2,0.8,0.4,1.1c0.1,0.2,0.3,0.3,0.6,0.2c0.3,0,0.6-0.2,0.7-0.4
	c0.1-0.2,0.1-0.4,0.1-0.6c0-0.4-0.2-0.8-0.5-1.1c-0.3-0.3-0.7-0.6-1.2-1.1c-0.4-0.3-0.7-0.7-0.9-1.2c-0.2-0.4-0.3-0.8-0.3-1.3
	c0-0.7,0.3-1.4,0.8-1.8c0.4-0.3,0.8-0.4,1.2-0.4c0.4,0,0.9,0.1,1.2,0.3c0.3,0.2,0.5,0.4,0.6,0.7c0.2,0.3,0.3,0.7,0.3,1l-1.3,0.2
	c0-0.3-0.1-0.6-0.3-0.9c-0.1-0.2-0.3-0.2-0.5-0.2c-0.2,0-0.5,0.1-0.6,0.3c-0.1,0.2-0.2,0.4-0.2,0.7c0,0.5,0.2,0.9,0.5,1.2
	c0.2,0.2,0.4,0.4,0.6,0.6c0.3,0.3,0.5,0.4,0.6,0.5c0.3,0.3,0.6,0.6,0.8,1c0.1,0.1,0.1,0.3,0.2,0.4C188.9,6.2,189,6.5,189,6.8z"/>
<path class="st0" d="M193.4,0.1c0.6,0,1.2,0.2,1.6,0.6c0.4,0.4,0.6,1,0.5,1.5v1.3c0,0.6-0.2,1.1-0.6,1.5c-0.4,0.4-0.9,0.6-1.5,0.6
	h-0.8V9h-1.3V0.1H193.4z M194.2,2.3c0-0.2-0.1-0.4-0.2-0.6c-0.1-0.1-0.4-0.2-0.6-0.2h-0.8v2.8h0.8c0.2,0,0.4-0.1,0.5-0.2
	c0.1-0.1,0.2-0.3,0.2-0.5V2.3z"/>
<path class="st0" d="M199.1,9h-1.3V0.1h1.3V9z"/>
<path class="st0" d="M204.1,0.1c0.6-0.1,1.2,0.2,1.6,0.6c0.3,0.4,0.5,1,0.5,1.5v1.3c0,0.6-0.3,1.2-0.7,1.6l1,3.9H205l-0.8-3.4h-0.9
	V9H202V0.1H204.1z M204.9,2.3c0.1-0.4-0.2-0.7-0.6-0.8c-0.1,0-0.1,0-0.2,0h-0.8v2.8h0.8c0.2,0,0.4-0.1,0.5-0.2
	c0.1-0.1,0.2-0.3,0.2-0.5V2.3z"/>
<path class="st0" d="M210.4,9H209V0.1h1.3V9z"/>
<path class="st0" d="M214.3,1.5h-1.4V0.1h4.2v1.4h-1.4V9h-1.3V1.5z"/>
<path class="st0" d="M221.6,9.1c-1.2,0-2.1-0.9-2.1-2.1c0,0,0,0,0,0V0.1h1.3V7c0,0.2,0.1,0.4,0.2,0.5c0.1,0.1,0.3,0.2,0.5,0.2
	c0.4,0,0.8-0.3,0.8-0.8c0,0,0,0,0,0V0.1h1.4V7c0,0.6-0.2,1.1-0.6,1.5C222.7,8.9,222.2,9.1,221.6,9.1z"/>
<path class="st0" d="M227.8,7l-0.3,2h-1.4l1.5-8.9h1.8l1.5,8.9h-1.4l-0.3-2L227.8,7z M228.5,2.2L228,5.7h1L228.5,2.2z"/>
<path class="st0" d="M237.1,9h-3.7V0.1h1.3v7.6h2.3L237.1,9z"/>
<path class="st0" d="M244.3,7L244,9h-1.4l1.5-8.9h1.8l1.5,8.9H246l-0.3-2L244.3,7z M245,2.2l-0.5,3.5h1L245,2.2z"/>
<path class="st0" d="M251.1,9h-1.3V0.1h1.3V9z"/>
<path class="st0" d="M258.1,6.9c0,0.6-0.2,1.1-0.6,1.5C257.1,8.8,256.6,9,256,9h-2.1V0.1h2.1c0.6,0,1.1,0.2,1.5,0.6
	c0.4,0.4,0.6,0.9,0.6,1.5L258.1,6.9z M255.2,7.7h0.8c0.2,0,0.4-0.1,0.5-0.2c0.1-0.1,0.2-0.3,0.2-0.5V2.3c0-0.2-0.1-0.4-0.2-0.5
	c-0.1-0.1-0.3-0.2-0.5-0.2h-0.8L255.2,7.7z"/>
</svg>
