<?xml version="1.0" encoding="utf-8"?>
<!-- Generator: Adobe Illustrator 22.1.0, SVG Export Plug-In . SVG Version: 6.00 Build 0)  -->
<svg version="1.1" id="Layer_1" xmlns="http://www.w3.org/2000/svg" xmlns:xlink="http://www.w3.org/1999/xlink" x="0px" y="0px"
	 viewBox="0 0 83.9 9.1" style="enable-background:new 0 0 83.9 9.1;" xml:space="preserve">
<style type="text/css">
	.st0{fill:#D3B372;}
</style>
<title>frame3</title>
<path class="st0" d="M2.1,9.1C1.6,9.1,1,8.9,0.6,8.5C0.2,8.1,0,7.6,0,7V0.1h1.3V7c0,0.2,0.1,0.4,0.2,0.5c0.1,0.1,0.3,0.2,0.5,0.2
	c0.4,0,0.8-0.3,0.8-0.8c0,0,0,0,0,0V0.1h1.4V7c0,0.6-0.2,1.1-0.6,1.5C3.2,8.9,2.7,9.1,2.1,9.1z"/>
<path class="st0" d="M8.8,0.1l1.8,6v-6h1.3V9h-1.4L8.6,3.3V9H7.2V0.1H8.8z"/>
<path class="st0" d="M17,9.1c-1.2,0-2.1-0.9-2.1-2.1c0,0,0,0,0,0V2.1c0-0.6,0.2-1.1,0.6-1.5C15.9,0.2,16.4,0,17,0
	c0.6,0,1.1,0.2,1.5,0.6c0.4,0.4,0.6,0.9,0.6,1.5v1h-1.4v-1c0-0.4-0.3-0.8-0.8-0.8c-0.2,0-0.4,0.1-0.5,0.2c-0.1,0.1-0.2,0.3-0.2,0.5
	V7c0,0.4,0.3,0.8,0.8,0.8c0,0,0,0,0,0c0.2,0,0.4-0.1,0.5-0.2c0.1-0.1,0.2-0.3,0.2-0.5V5.8h1.4V7C19.1,8.2,18.2,9.1,17,9.1
	C17,9.1,17,9.1,17,9.1z"/>
<path class="st0" d="M24.1,0c0.6,0,1.1,0.2,1.5,0.6C26,1,26.3,1.6,26.2,2.1V7c0,1.2-1,2.1-2.1,2.1c-1.2,0-2.1-1-2.1-2.1l0,0V2.1
	c0-0.6,0.2-1.1,0.6-1.5C23,0.2,23.6,0,24.1,0z M24.8,2.1c0-0.4-0.3-0.8-0.8-0.8c0,0,0,0,0,0c-0.2,0-0.4,0.1-0.5,0.2
	c-0.1,0.1-0.2,0.3-0.2,0.5V7c0,0.2,0.1,0.4,0.2,0.5c0.1,0.1,0.3,0.2,0.5,0.2c0.4,0,0.8-0.3,0.8-0.8c0,0,0,0,0,0V2.1z"/>
<path class="st0" d="M30.6,9L29,0.1h1.4l1.1,6.9l1.1-6.9H34L32.4,9H30.6z"/>
<path class="st0" d="M36.9,9V0.1h3.8v1.4h-2.5v2.4h1.8v1.3h-1.8v2.4h2.5V9L36.9,9z"/>
<path class="st0" d="M45.6,0.1c0.6-0.1,1.2,0.2,1.6,0.6c0.3,0.4,0.5,1,0.5,1.5v1.3c0,0.6-0.3,1.2-0.7,1.6L48,9h-1.5l-0.8-3.4h-0.9V9
	h-1.3V0.1H45.6z M46.4,2.3c0.1-0.4-0.2-0.7-0.6-0.8c-0.1,0-0.1,0-0.2,0h-0.8v2.8h0.8c0.2,0,0.4-0.1,0.5-0.2c0.1-0.1,0.2-0.3,0.2-0.5
	L46.4,2.3z"/>
<path class="st0" d="M57.5,9h-1.3V0.1h1.9l1.3,6.4l1.2-6.4h1.9V9H61V3.4L59.9,9h-1.1l-1.3-5.6L57.5,9z"/>
<path class="st0" d="M67.5,0c0.6,0,1.1,0.2,1.5,0.6c0.4,0.4,0.6,0.9,0.6,1.5V7c0,1.2-0.9,2.1-2.1,2.1c-1.2,0-2.1-0.9-2.1-2.1
	c0,0,0,0,0,0V2.1c0-0.6,0.2-1.1,0.6-1.5C66.4,0.2,66.9,0,67.5,0z M68.2,2.1c0-0.4-0.3-0.8-0.8-0.8c0,0,0,0,0,0
	c-0.2,0-0.4,0.1-0.5,0.2c-0.1,0.1-0.2,0.3-0.2,0.5V7c0,0.2,0.1,0.4,0.2,0.5c0.1,0.1,0.3,0.2,0.5,0.2c0.4,0,0.8-0.3,0.8-0.8
	c0,0,0,0,0,0V2.1z"/>
<path class="st0" d="M74.7,0.1c0.6-0.1,1.2,0.2,1.6,0.6c0.3,0.4,0.5,1,0.5,1.5v1.3c0,0.6-0.3,1.2-0.7,1.6l1,3.9h-1.5l-0.8-3.4H74V9
	h-1.3V0.1H74.7z M75.5,2.3c0.1-0.4-0.2-0.7-0.6-0.8c-0.1,0-0.1,0-0.2,0H74v2.8h0.8c0.2,0,0.4-0.1,0.5-0.2c0.1-0.1,0.2-0.3,0.2-0.5
	V2.3z"/>
<path class="st0" d="M80.1,9V0.1h3.8v1.4h-2.5v2.4h1.8v1.3h-1.8v2.4h2.5V9L80.1,9z"/>
</svg>
