<svg id="Content" xmlns="http://www.w3.org/2000/svg" width="320" height="480" viewBox="0 0 320 480"><defs><style>.cls-1{fill:#fff;stroke:#ba9544;stroke-miterlimit:10;stroke-width:0.5px;}.cls-2{fill:#ba9544;}</style></defs><title>THC - Sensi Star</title><polygon class="cls-1" points="253.511 229.923 67.428 229.218 58.035 242.764 67.428 256.07 253.511 255.753 261.965 242.839 253.511 229.923"/><polygon class="cls-2" points="67.564 229.218 58.171 242.764 67.564 256.07 96.082 256.07 96.178 229.218 67.564 229.218"/><path class="cls-2" d="M173.93457,238.47852v1.70117h-3.03711v7.41015H169.0752v-7.41015h-3.03711v-1.70117Z"/><path class="cls-2" d="M175.28906,247.58984v-9.11132h1.82227v3.64453h4.24512v-3.65039h1.82226V247.584l-1.82226.00586v-3.76562h-4.24512v3.76562Z"/><path class="cls-2" d="M186.00586,246.28125a4.55777,4.55777,0,0,1,3.24023-7.80273,4.93581,4.93581,0,0,1,3.34668,1.21484l-1.21484,1.33008a3.36112,3.36112,0,0,0-2.13184-.72852,2.67558,2.67558,0,0,0-1.97656.76563,2.64893,2.64893,0,0,0-.75,1.94336,2.73146,2.73146,0,0,0,.75879,2.0166,2.68934,2.68934,0,0,0,1.98047.74707,3.26007,3.26007,0,0,0,2.11914-.72266l1.21484,1.33008a4.91057,4.91057,0,0,1-3.34668,1.21484A4.43461,4.43461,0,0,1,186.00586,246.28125Z"/><path class="cls-2" d="M194.63379,241.78027a.88086.88086,0,0,1,.65625-.24609.9125.9125,0,0,1,.67969.24609.83506.83506,0,0,1,.24316.61035.82369.82369,0,0,1-.24316.60743,1.039,1.039,0,0,1-1.33594,0,.82369.82369,0,0,1-.24317-.60743A.83507.83507,0,0,1,194.63379,241.78027Zm0,4.34864a.88083.88083,0,0,1,.65625-.2461.91247.91247,0,0,1,.67969.2461.83413.83413,0,0,1,.24316.61132.82146.82146,0,0,1-.24316.60645,1.039,1.039,0,0,1-1.33594,0,.82147.82147,0,0,1-.24317-.60645A.83414.83414,0,0,1,194.63379,246.12891Z"/><path class="cls-2" d="M204.334,238.47852v-.00586h1.81641v9.11718H204.334V240.9082l-1.21484,1.21485-1.21484-1.21485Z"/><path class="cls-2" d="M207.9668,243.16211a5.51475,5.51475,0,0,1,.9414-3.42285,3.07849,3.07849,0,0,1,2.52051-1.25391,3.81973,3.81973,0,0,1,2.55078.90527l-.91113,1.21485a3.1962,3.1962,0,0,0-1.56055-.36524,1.61061,1.61061,0,0,0-1.25781.51661,2.45,2.45,0,0,0-.52246,1.54882,2.82929,2.82929,0,0,1,1.82226-.79,3.04222,3.04222,0,0,1,2.33887.82032,3.13529,3.13529,0,0,1,.75879,2.21679,2.9843,2.9843,0,0,1-.85058,2.15625,3.21787,3.21787,0,0,1-2.42969.88086,3.051,3.051,0,0,1-2.61133-1.23242A5.65621,5.65621,0,0,1,207.9668,243.16211Zm2.0039,1.39648q.06006,1.27,1.458,1.32422,1.396-.0542,1.457-1.209a1.375,1.375,0,0,0-1.51855-1.51758A1.35245,1.35245,0,0,0,209.9707,244.55859Z"/><path class="cls-2" d="M216.28809,245.1543v-1.209h3.76562v1.209Z"/><path class="cls-2" d="M224.90723,238.47852a3.43773,3.43773,0,0,1,2.18945.67187,2.39165,2.39165,0,0,1,.85254,2.002,4.17212,4.17212,0,0,1-1.21094,2.89063,8.39769,8.39769,0,0,1-2.00195,1.72461h3.28027v1.82226H221.876v-1.82226q.6079,0,2.30761-1.51758a8.74852,8.74852,0,0,0,1.97461-2.15625,1.488,1.488,0,0,0-.03027-1.27637q-.30469-.6372-1.458-.63769a2.09506,2.09506,0,0,0-1.70117.72851l-1.21387-1.21484a5.01309,5.01309,0,0,1,1.1836-.91016A4.55026,4.55026,0,0,1,224.90723,238.47852Z"/><path class="cls-2" d="M230.63379,246.28125a6.245,6.245,0,0,1,0-6.49609,2.915,2.915,0,0,1,4.8623,0,6.26736,6.26736,0,0,1,0,6.499,2.91444,2.91444,0,0,1-4.8623-.00293Zm2.43555-.39258q.602,0,1.05664-.81933a4.76687,4.76687,0,0,0,0-4.06934q-.45557-.82032-1.06836-.82031-.60205,0-1.05664.82031a4.76678,4.76678,0,0,0,0,4.06934Q232.45655,245.88818,233.06934,245.88867Z"/><path class="cls-2" d="M238.57227,242.32422a2.34608,2.34608,0,1,1,1.62793.65625A2.211,2.211,0,0,1,238.57227,242.32422Zm1.60937-.42578a1.086,1.086,0,0,0,.832-.34571,1.31215,1.31215,0,0,0,0-1.72265,1.09754,1.09754,0,0,0-.83789-.34278,1.08073,1.08073,0,0,0-.82617.34278,1.31215,1.31215,0,0,0,0,1.72265A1.08458,1.08458,0,0,0,240.18164,241.89844Zm-.48633,5.6914,5.16309-9.11132h1.48144l-5.15039,9.11132Zm4.52539-.60156a2.33212,2.33212,0,1,1,1.61524.65039A2.1925,2.1925,0,0,1,244.2207,246.98828Zm1.585-.44336a1.06726,1.06726,0,0,0,.81446-.33691,1.27187,1.27187,0,0,0,0-1.67676,1.07348,1.07348,0,0,0-.82032-.33594,1.056,1.056,0,0,0-.80761.33594,1.26891,1.26891,0,0,0,0,1.67676A1.06366,1.06366,0,0,0,245.80566,246.54492Z"/></svg>