<svg id="Content" xmlns="http://www.w3.org/2000/svg" width="300" height="250" viewBox="0 0 300 250"><defs><style>.cls-1{fill:#ba9544;}</style></defs><title>Frame1 - Sensi Star</title><path class="cls-1" d="M145.19824,147.69236c3.13965,0,4.75342,1.87793,4.75342,5.16406v.64551H146.8999v-.85059c0-1.46777-.58691-2.02441-1.61377-2.02441s-1.61377.55664-1.61377,2.02441c0,4.22461,6.3086,5.01758,6.3086,10.88574,0,3.28614-1.64307,5.16407-4.812,5.16407-3.16944,0-4.8125-1.87793-4.8125-5.16407v-1.26171h3.05175v1.46679c0,1.46778.64551,1.9961,1.67237,1.9961,1.02734,0,1.67285-.52832,1.67285-1.9961,0-4.22461-6.30908-5.01758-6.30908-10.88574C140.44434,149.57029,142.05859,147.69236,145.19824,147.69236Z"/><path class="cls-1" d="M159.457,156.583h4.43067v2.93457H159.457v6.01465h5.5752v2.93457h-8.80274v-20.54h8.80274v2.93457H159.457Z"/><path class="cls-1" d="M174.30176,153.58982v14.87695h-2.9043v-20.54h4.04883l3.31641,12.29492V147.92673h2.875v20.54h-3.31543Z"/><path class="cls-1" d="M192.69824,147.69236c3.13965,0,4.75293,1.87793,4.75293,5.16406v.64551h-3.05078v-.85059c0-1.46777-.58691-2.02441-1.61426-2.02441s-1.61425.55664-1.61425,2.02441c0,4.22461,6.30859,5.01758,6.30859,10.88574,0,3.28614-1.64258,5.16407-4.81152,5.16407s-4.8125-1.87793-4.8125-5.16407v-1.26171h3.05175v1.46679c0,1.46778.64551,1.9961,1.67285,1.9961,1.02637,0,1.67188-.52832,1.67188-1.9961,0-4.22461-6.30859-5.01758-6.30859-10.88574C187.94434,149.57029,189.55859,147.69236,192.69824,147.69236Z"/><path class="cls-1" d="M203.72852,147.92673h3.22753v20.54h-3.22753Z"/><path class="cls-1" d="M226.99512,147.69236c3.13965,0,4.75293,1.87793,4.75293,5.16406v.64551h-3.05078v-.85059c0-1.46777-.58692-2.02441-1.61426-2.02441s-1.61426.55664-1.61426,2.02441c0,4.22461,6.30859,5.01758,6.30859,10.88574,0,3.28614-1.64257,5.16407-4.81152,5.16407s-4.8125-1.87793-4.8125-5.16407v-1.26171h3.05176v1.46679c0,1.46778.64551,1.9961,1.67285,1.9961,1.02637,0,1.67187-.52832,1.67187-1.9961,0-4.22461-6.30859-5.01758-6.30859-10.88574C222.24121,149.57029,223.85547,147.69236,226.99512,147.69236Z"/><path class="cls-1" d="M237.08691,147.92673h9.97657v2.93457h-3.374v17.60547h-3.22754V150.8613h-3.375Z"/><path class="cls-1" d="M263.31738,168.46677h-3.25781l-.55762-3.72656H255.541l-.55762,3.72656h-2.96289l3.28613-20.54h4.72363Zm-7.36523-6.51367h3.11035l-1.55566-10.3877Z"/><path class="cls-1" d="M275.96289,168.46677a6.298,6.298,0,0,1-.29394-2.52344v-3.22754c0-1.90722-.64551-2.61132-2.11231-2.61132h-1.11523v8.3623h-3.22754v-20.54H274.085c3.34473,0,4.78223,1.55567,4.78223,4.72461v1.61328c0,2.11328-.67481,3.49219-2.11231,4.167,1.61426.6748,2.1416,2.23046,2.1416,4.37207v3.16894a6.03941,6.03941,0,0,0,.35254,2.49414Zm-3.52148-17.60547v6.3086h1.26171c1.20313,0,1.93653-.52832,1.93653-2.17188v-2.02441c0-1.4668-.499-2.11231-1.64258-2.11231Z"/></svg>