<?xml version="1.0" encoding="utf-8"?>
<!-- Generator: Adobe Illustrator 23.0.1, SVG Export Plug-In . SVG Version: 6.00 Build 0)  -->
<svg version="1.1" id="Content" xmlns="http://www.w3.org/2000/svg" xmlns:xlink="http://www.w3.org/1999/xlink" x="0px" y="0px"
	 viewBox="0 0 640 1136" style="enable-background:new 0 0 640 1136;" xml:space="preserve">
<style type="text/css">
	.st0{fill:#B89344;}
</style>
<title>Frame2 - Shishkaberry</title>
<path class="st0" d="M130.3,617.1c7.5,0,11.4,4.5,11.4,12.4v1.5h-7.3v-2c0-3.5-1.4-4.9-3.9-4.9s-3.9,1.3-3.9,4.9
	c0,10.1,15.1,12,15.1,26.1c0,7.9-3.9,12.4-11.6,12.4s-11.5-4.5-11.5-12.4v-3h7.3v3.5c0,3.5,1.6,4.8,4,4.8s4-1.3,4-4.8
	c0-10.1-15.1-12-15.1-26.1C118.9,621.6,122.8,617.1,130.3,617.1z"/>
<path class="st0" d="M161.4,667h-7.7v-49.3h7.7v21.1h8.8v-21.1h7.9V667h-7.9v-21.2h-8.8V667z"/>
<path class="st0" d="M191.2,617.7h7.7V667h-7.7V617.7z"/>
<path class="st0" d="M222.4,617.1c7.5,0,11.4,4.5,11.4,12.4v1.5h-7.3v-2c0-3.5-1.4-4.9-3.9-4.9s-3.9,1.3-3.9,4.9
	c0,10.1,15.1,12,15.1,26.1c0,7.9-3.9,12.4-11.5,12.4s-11.6-4.5-11.6-12.4v-3h7.3v3.5c0,3.5,1.6,4.8,4,4.8s4-1.3,4-4.8
	c0-10.1-15.1-12-15.1-26.1C211,621.6,214.9,617.1,222.4,617.1z"/>
<path class="st0" d="M253.6,667h-7.7v-49.3h7.7v21.1h8.8v-21.1h7.9V667h-7.9v-21.2h-8.8L253.6,667z"/>
<path class="st0" d="M293.5,647.3l-2.4,4.5V667h-7.8v-49.3h7.8v21.5l10.1-21.5h7.8l-10.8,22L309,667h-8L293.5,647.3z"/>
<path class="st0" d="M345,667h-7.8l-1.3-9h-9.5l-1.4,9h-7.1l7.9-49.3h11.3L345,667z M327.3,651.4h7.5l-3.7-24.9L327.3,651.4z"/>
<path class="st0" d="M379.2,629v1.8c0,5.1-1.5,8.3-5,9.9c4.1,1.6,5.8,5.3,5.8,10.6v4c0,7.6-4,11.7-11.8,11.7h-12.2v-49.3h11.7
	C375.8,617.7,379.2,621.4,379.2,629z M363.8,624.7v13h3c2.9,0,4.6-1.3,4.6-5.2v-2.8c0-3.5-1.2-5.1-3.9-5.1L363.8,624.7z
	 M363.8,644.8v15.1h4.4c2.6,0,4-1.2,4-4.9v-4.3c0-4.6-1.5-6-5-6L363.8,644.8z"/>
<path class="st0" d="M399.9,638.4h10.6v7h-10.6v14.4h13.4v7h-21.1v-49.2h21.1v7h-13.4V638.4z"/>
<path class="st0" d="M441.7,667c-0.4-1.3-0.7-2-0.7-6.1v-7.7c0-4.6-1.5-6.3-5.1-6.3h-2.7V667h-7.7v-49.3h11.7
	c8,0,11.5,3.7,11.5,11.3v3.9c0,5.1-1.6,8.4-5.1,10c3.9,1.6,5.1,5.3,5.1,10.5v7.6c-0.1,2,0.1,4.1,0.9,6H441.7z M433.2,624.8v15.1h3
	c2.9,0,4.6-1.3,4.6-5.2v-4.9c0-3.5-1.2-5.1-3.9-5.1H433.2z"/>
<path class="st0" d="M477.4,667c-0.4-1.3-0.7-2-0.7-6.1v-7.7c0-4.6-1.5-6.3-5.1-6.3H469V667h-7.8v-49.3h11.7c8,0,11.5,3.7,11.5,11.3
	v3.9c0,5.1-1.6,8.4-5.1,10c3.9,1.6,5.1,5.3,5.1,10.5v7.6c-0.1,2,0.1,4.1,0.8,6H477.4z M469,624.7v15.1h3c2.9,0,4.6-1.3,4.6-5.2v-4.9
	c0-3.5-1.2-5.1-3.9-5.1H469z"/>
<path class="st0" d="M504.3,650.6l-9.8-33h8.1l5.9,22.5l5.9-22.5h7.4l-9.8,33V667h-7.7L504.3,650.6z"/>
</svg>
