<svg id="Layer_1" data-name="Layer 1" xmlns="http://www.w3.org/2000/svg" width="300" height="250" viewBox="0 0 300 250"><defs><style>.cls-1{fill:#ab9555;}</style></defs><title>frame3</title><path class="cls-1" d="M92.2196,161.96289V145.041H96.038a4.86851,4.86851,0,0,1,2.72656.79589,3.70922,3.70922,0,0,1,1.48438,2.0918,5.88664,5.88664,0,0,1,.24219,1.79492,3.9731,3.9731,0,0,1-.90332,2.72559,2.56561,2.56561,0,0,1-.89063.66113,2.96286,2.96286,0,0,1,1.44336,1.28223,4.98551,4.98551,0,0,1,.58008,1.67285,6.6223,6.6223,0,0,1,.09472,1.17383,5.64767,5.64767,0,0,1-.60742,2.72656,3.63591,3.63591,0,0,1-1.33593,1.40332,3.68208,3.68208,0,0,1-1.92969.59375Zm2.75293-10.01269H96.038a1.56208,1.56208,0,0,0,1.59277-1.16114,3.31164,3.31164,0,0,0,.14844-1.06543,2.23091,2.23091,0,0,0-.51269-1.59277,1.6146,1.6146,0,0,0-1.22852-.499H94.97253Zm0,7.48925H96.038a1.80947,1.80947,0,0,0,1.79492-1.33593,2.92993,2.92993,0,0,0,.17578-1.05274,3.202,3.202,0,0,0-.54-2.06445,1.738,1.738,0,0,0-1.43066-.59375H94.97253Z"/><path class="cls-1" d="M109.329,145.05469a3.887,3.887,0,0,1,3.13086,1.17383,4.26506,4.26506,0,0,1,.87695,2.86035v2.45605a3.95114,3.95114,0,0,1-1.36231,3.03613l1.88868,7.38184h-2.75782l-1.54687-6.36914h-1.7002v6.36914h-2.55078v-16.9082Zm1.52539,4.07519a1.29518,1.29518,0,0,0-1.458-1.47168h-1.53809v5.41211h1.53809a1.39324,1.39324,0,0,0,1.03223-.43261,1.42341,1.42341,0,0,0,.42578-1.03907Z"/><path class="cls-1" d="M118.329,161.96289V145.041h7.26074v2.56347h-4.71v4.61524h3.4414v2.56347h-3.4414v4.61524h4.71v2.56445Z"/><path class="cls-1" d="M132.89831,158.07617l-.61914,3.88672h-2.65625l2.875-16.9082h3.50781l2.834,16.9082h-2.68164l-.59668-3.88672Zm1.33985-9.14941-.94434,6.667h1.88965Z"/><path class="cls-1" d="M143.58972,147.61816H140.8778v-2.56347h7.96094v2.56347h-2.69922v14.34473h-2.5498Z"/><path class="cls-1" d="M155.72058,154.79688v7.166H153.1698v-16.9082h2.55078v7.17871h3.07617v-7.17871h2.55078v16.9082h-2.55078v-7.166Z"/><path class="cls-1" d="M165.90808,161.96289V145.041h7.25976v2.56347h-4.709v4.61524h3.44043v2.56347h-3.44043v4.61524h4.709v2.56445Z"/><path class="cls-1" d="M187.82019,161.96289h-2.55078v-16.9082h2.55078Z"/><path class="cls-1" d="M195.243,145.041l3.38476,11.37207V145.041h2.55079v16.92187h-2.73926L194.93054,151.127v10.83594h-2.55078V145.041Z"/><path class="cls-1" d="M205.21277,159.42578h2.55078v2.55078h-2.55078Z"/></svg>