<svg id="Content" xmlns="http://www.w3.org/2000/svg" xmlns:xlink="http://www.w3.org/1999/xlink" width="320" height="568" viewBox="0 0 320 568"><defs><style>.cls-1{fill:url(#New_Gradient_Swatch_1);}.cls-2{fill:#fff;}.cls-3{fill:#b89344;}</style><linearGradient id="New_Gradient_Swatch_1" x1="202.88777" y1="395.17063" x2="241.60086" y2="395.17063" gradientUnits="userSpaceOnUse"><stop offset="0" stop-color="#a68834"/><stop offset="0.49324" stop-color="#c8ad67"/><stop offset="1" stop-color="#937f2e"/></linearGradient></defs><title>earthy</title><polygon class="cls-1" points="237.735 381.762 218.377 375.052 202.888 388.461 206.756 408.579 226.112 415.289 241.601 401.88 237.735 381.762"/><path class="cls-2" d="M227.10779,399.87688a4.53269,4.53269,0,0,0-2.26407-2.09391,2.22119,2.22119,0,0,0-1.69569.16639,4.7331,4.7331,0,0,0-.88617-.22809,9.25919,9.25919,0,0,1,1.88266-3.70921c.04861.00187.09534.00187.14209.00187.18321.00186.36455.00373.544.00373,2.107,0,3.97468-.27856,4.0719-4.085a5.86334,5.86334,0,0,1,.79269-1.78357l.28978-.47486h-.55711A6.02926,6.02926,0,0,0,223.406,393.698v.28417c-.22807.32718-.44308.65248-.64126.974a7.72611,7.72611,0,0,0-7.7026-7.28194H214.505l.28978.47486a7.63876,7.63876,0,0,1,1.04136,2.3594c.12338,4.85152,2.50709,5.20673,5.19739,5.20673.23,0,.46177-.00187.69361-.00561.20192-.00187.40569-.00374.61134-.00374a5.96414,5.96414,0,0,0-.6992,1.96117,2.82152,2.82152,0,0,0-2.681,1.48444,3.53649,3.53649,0,0,0-2.88286.15518,3.46779,3.46779,0,0,0-1.3274,3.038l-.00936.32156h14.91166l.058-.2393a1.88147,1.88147,0,0,0-.31408-1.43022,3.15875,3.15875,0,0,0-2.28647-1.11987"/><path class="cls-3" d="M200.44727,436.32617v-7.39062l5.43261-.00391v1.38086h-3.95361v1.57617h2.96289v1.375h-2.96289v1.68164h3.94385v1.38086Z"/><path class="cls-3" d="M206.979,436.32617l2.958-7.39453h1.47852l2.95312,7.38867-1.57275.00586-.44385-1.13476H209l-.44336,1.13476Zm3.73682-5.42383-1.124,2.81055h2.21826Z"/><path class="cls-3" d="M219.92383,433.10156l1.84375,3.22461h-1.6958l-1.76953-3.05664h-1.35108v3.05664h-1.47851v-7.39453h3.22363q2.58838,0,2.58838,2.12891A1.9125,1.9125,0,0,1,219.92383,433.10156Zm-2.97266-1.21289h2.0708q.89209-.01464.91651-.8125-.02418-.72949-.90186-.75976h-2.08545Z"/><path class="cls-3" d="M228.57031,428.93164v1.38086h-2.46484v6.01367h-1.479V430.3125h-2.46484v-1.38086Z"/><path class="cls-3" d="M229.66943,436.32617v-7.39453H231.148v2.957h3.4458v-2.96289h1.479v7.39453l-1.479.00586v-3.05664H231.148v3.05664Z"/><path class="cls-3" d="M237.23584,428.93164h1.73535l1.71533,2.416,1.75489-2.416h1.6958l-2.71094,3.69727v3.69726h-1.479v-3.69726Z"/></svg>