<svg id="Layer_1" data-name="Layer 1" xmlns="http://www.w3.org/2000/svg" width="258.1108" height="9.126" viewBox="0 0 258.1108 9.126"><defs><style>.cls-1{fill:#ac9655;}</style></defs><title>frame1</title><path class="cls-1" d="M2.1309,9.126A2.0562,2.0562,0,0,1,.6216,8.5049,2.0471,2.0471,0,0,1,0,7.0029V2.1445A2.0483,2.0483,0,0,1,.625.6357,2.0611,2.0611,0,0,1,2.1309.0137a2.04,2.04,0,0,1,1.5058.625,2.0665,2.0665,0,0,1,.6177,1.5058V3.16H2.8623V2.1162a.7759.7759,0,0,0-.7739-.7744.7352.7352,0,0,0-.5435.2275.7525.7525,0,0,0-.2236.5469V6.9883a.7636.7636,0,0,0,.7671.7676.755.755,0,0,0,.5469-.2237.7364.7364,0,0,0,.227-.5439V5.76H4.2544V7.0029a2.0387,2.0387,0,0,1-.625,1.5059A2.0579,2.0579,0,0,1,2.1309,9.126Z"/><path class="cls-1" d="M8.5449,6.9668,8.2188,9.0127H6.8208L8.334.1133H10.18l1.4917,8.8994H10.26l-.314-2.0459ZM9.25,2.1523,8.7529,5.66h.9942Z"/><path class="cls-1" d="M16.1084.1064,17.89,6.0918V.1064h1.3423V9.0127H17.79L15.9438,3.31V9.0127H14.6011V.1064Z"/><path class="cls-1" d="M23.7388.1064,25.52,6.0918V.1064h1.3423V9.0127H25.42L23.5742,3.31V9.0127H22.2314V.1064Z"/><path class="cls-1" d="M31.5083,6.9668l-.3262,2.0459H29.7842L31.2974.1133h1.8462l1.4917,8.8994H33.2236L32.91,6.9668Zm.7051-4.8145L31.7163,5.66H32.71Z"/><path class="cls-1" d="M37.168,9.0127V.1064h2.01a2.56,2.56,0,0,1,1.4346.419A1.9506,1.9506,0,0,1,41.394,1.626a3.0963,3.0963,0,0,1,.128.9453,2.09,2.09,0,0,1-.4761,1.4346,1.34,1.34,0,0,1-.4688.3476,1.56,1.56,0,0,1,.76.6748,2.628,2.628,0,0,1,.3052.8809,3.5066,3.5066,0,0,1,.05.6181,2.9725,2.9725,0,0,1-.32,1.4346,1.9123,1.9123,0,0,1-.7032.7383,1.9387,1.9387,0,0,1-1.0156.3125Zm1.4492-5.27h.561a.8227.8227,0,0,0,.8379-.6114,1.7314,1.7314,0,0,0,.0781-.5605,1.1732,1.1732,0,0,0-.27-.8389.85.85,0,0,0-.646-.2627h-.561Zm0,3.9414h.561a.9519.9519,0,0,0,.9444-.7032,1.5455,1.5455,0,0,0,.0922-.5537,1.692,1.692,0,0,0-.2836-1.0869.9178.9178,0,0,0-.753-.3125h-.561Z"/><path class="cls-1" d="M45.5981,9.0127H44.2554V.1133h1.3427Z"/><path class="cls-1" d="M52.56,6.7969a2.5014,2.5014,0,0,1-.4829,1.5908,1.74,1.74,0,0,1-.9234.6318,2.511,2.511,0,0,1-.7456.1,2.1071,2.1071,0,0,1-1.3066-.3906,2.18,2.18,0,0,1-.6856-.87,3.5234,3.5234,0,0,1-.2949-1.2607l1.2788-.0918a1.9442,1.9442,0,0,0,.4116,1.1279.6906.6906,0,0,0,.5542.25.8343.8343,0,0,0,.7032-.4336,1.08,1.08,0,0,0,.1347-.5908,1.6378,1.6378,0,0,0-.5044-1.1016q-.3977-.3765-1.1928-1.13a5.0861,5.0861,0,0,1-.9449-1.1591,2.6808,2.6808,0,0,1-.2983-1.251A2.1752,2.1752,0,0,1,49.08.377,2.0315,2.0315,0,0,1,50.33,0a2.2729,2.2729,0,0,1,1.2285.3193,1.8494,1.8494,0,0,1,.6431.6963,2.5708,2.5708,0,0,1,.2944,1.0293L51.21,2.2793a1.5474,1.5474,0,0,0-.3125-.8516.6552.6552,0,0,0-.5327-.2207.614.614,0,0,0-.561.3272,1.2543,1.2543,0,0,0-.1563.6533,1.9616,1.9616,0,0,0,.5254,1.2432,4.4239,4.4239,0,0,0,.5967.5673q.4688.3912.6177.5469a4.5553,4.5553,0,0,1,.7671.9805,3.7313,3.7313,0,0,1,.206.4189A2.4311,2.4311,0,0,1,52.56,6.7969Z"/><path class="cls-1" d="M62.0728,5.2412V9.0127H60.73V.1133h1.3428V3.8916h1.6191V.1133h1.3423V9.0127H63.6919V5.2412Z"/><path class="cls-1" d="M69.68,6.9668l-.3262,2.0459H67.9556L69.4688.1133h1.8461l1.4917,8.8994H71.395l-.3139-2.0459Zm.7051-4.8145L69.8877,5.66h.9941Z"/><path class="cls-1" d="M79.77,6.7969a2.5,2.5,0,0,1-.4829,1.5908,1.7406,1.7406,0,0,1-.9233.6318,2.511,2.511,0,0,1-.7456.1,2.1074,2.1074,0,0,1-1.3067-.3906,2.18,2.18,0,0,1-.6855-.87,3.5213,3.5213,0,0,1-.2949-1.2607l1.2788-.0918a1.9429,1.9429,0,0,0,.4116,1.1279.69.69,0,0,0,.5542.25.8342.8342,0,0,0,.7031-.4336,1.0792,1.0792,0,0,0,.1348-.5908,1.6382,1.6382,0,0,0-.5044-1.1016q-.3976-.3765-1.1929-1.13a5.088,5.088,0,0,1-.9448-1.1591,2.6808,2.6808,0,0,1-.2983-1.251A2.1749,2.1749,0,0,1,76.29.377,2.0315,2.0315,0,0,1,77.54,0a2.2731,2.2731,0,0,1,1.2285.3193,1.8483,1.8483,0,0,1,.643.6963,2.5709,2.5709,0,0,1,.2945,1.0293L78.42,2.2793a1.5489,1.5489,0,0,0-.3125-.8516.6553.6553,0,0,0-.5327-.2207.614.614,0,0,0-.561.3272,1.2543,1.2543,0,0,0-.1563.6533,1.9611,1.9611,0,0,0,.5254,1.2432,4.4117,4.4117,0,0,0,.5967.5673q.4688.3912.6177.5469a4.5515,4.5515,0,0,1,.767.9805,3.7161,3.7161,0,0,1,.2061.4189A2.4329,2.4329,0,0,1,79.77,6.7969Z"/><path class="cls-1" d="M87.94,9.0127V.1064h2.01a2.56,2.56,0,0,1,1.4346.419A1.9506,1.9506,0,0,1,92.166,1.626a3.0965,3.0965,0,0,1,.1279.9453,2.09,2.09,0,0,1-.476,1.4346,1.3414,1.3414,0,0,1-.4688.3476,1.56,1.56,0,0,1,.76.6748,2.63,2.63,0,0,1,.3052.8809,3.5066,3.5066,0,0,1,.05.6181,2.9714,2.9714,0,0,1-.32,1.4346,1.9121,1.9121,0,0,1-.7031.7383,1.9387,1.9387,0,0,1-1.0156.3125Zm1.4493-5.27h.561a.8227.8227,0,0,0,.8379-.6114,1.7341,1.7341,0,0,0,.0781-.5605,1.1732,1.1732,0,0,0-.27-.8389A.85.85,0,0,0,89.95,1.47h-.561Zm0,3.9414h.561a.9518.9518,0,0,0,.9443-.7032,1.5433,1.5433,0,0,0,.0923-.5537,1.6914,1.6914,0,0,0-.2837-1.0869.9176.9176,0,0,0-.7529-.3125h-.561Z"/><path class="cls-1" d="M95.0171,9.0127V.1064h3.8213v1.35H96.36V3.8848h1.811v1.35H96.36V7.6631h2.4785v1.35Z"/><path class="cls-1" d="M101.3613,9.0127V.1064h3.8213v1.35h-2.4785V3.8848h1.811v1.35h-1.811V7.6631h2.4785v1.35Z"/><path class="cls-1" d="M109.4126.1064l1.7812,5.9854V.1064h1.3423V9.0127h-1.4419L109.248,3.31V9.0127h-1.3427V.1064Z"/><path class="cls-1" d="M122.83,9.1123a2.1106,2.1106,0,0,1-2.124-2.1162V.1133H122.02V6.9814a.7311.7311,0,0,0,.2276.543.75.75,0,0,0,.5468.2236.7634.7634,0,0,0,.7671-.7666V.1133h1.399V6.9961a2.0226,2.0226,0,0,1-.625,1.5049A2.0764,2.0764,0,0,1,122.83,9.1123Z"/><path class="cls-1" d="M131.7119,6.7969a2.5008,2.5008,0,0,1-.4829,1.5908,1.7406,1.7406,0,0,1-.9233.6318,2.5114,2.5114,0,0,1-.7456.1,2.1074,2.1074,0,0,1-1.3067-.3906,2.1794,2.1794,0,0,1-.6855-.87,3.5234,3.5234,0,0,1-.295-1.2607l1.2789-.0918a1.9429,1.9429,0,0,0,.4116,1.1279.69.69,0,0,0,.5542.25.8343.8343,0,0,0,.7031-.4336,1.08,1.08,0,0,0,.1348-.5908,1.6382,1.6382,0,0,0-.5044-1.1016q-.3978-.3765-1.1929-1.13a5.0853,5.0853,0,0,1-.9448-1.1591,2.68,2.68,0,0,1-.2984-1.251A2.1752,2.1752,0,0,1,128.2319.377a2.0319,2.0319,0,0,1,1.25-.377A2.2726,2.2726,0,0,1,130.71.3193a1.8486,1.8486,0,0,1,.6431.6963,2.5708,2.5708,0,0,1,.2944,1.0293l-1.2851.2344a1.5489,1.5489,0,0,0-.3125-.8516.6553.6553,0,0,0-.5327-.2207.6143.6143,0,0,0-.5611.3272,1.2553,1.2553,0,0,0-.1562.6533,1.9611,1.9611,0,0,0,.5254,1.2432,4.4117,4.4117,0,0,0,.5967.5673q.4688.3912.6176.5469a4.5522,4.5522,0,0,1,.7671.9805,3.7333,3.7333,0,0,1,.2061.4189A2.4329,2.4329,0,0,1,131.7119,6.7969Z"/><path class="cls-1" d="M134.0254,9.0127V.1064h3.8213v1.35h-2.4785V3.8848h1.811v1.35h-1.811V7.6631h2.4785v1.35Z"/><path class="cls-1" d="M144.3882,6.8818a2.0646,2.0646,0,0,1-.6177,1.5059,2.02,2.02,0,0,1-1.4917.625h-2.1094V.1064h2.1094a2.0163,2.0163,0,0,1,1.4951.625,2.0621,2.0621,0,0,1,.6143,1.4991Zm-2.876.8028h.81a.7181.7181,0,0,0,.54-.23.7616.7616,0,0,0,.22-.5439V2.251a.754.754,0,0,0-.2236-.5469.7263.7263,0,0,0-.5361-.2266h-.81Z"/><path class="cls-1" d="M154.082,6.9668l-.3261,2.0459h-1.398L153.8711.1133h1.8462l1.4917,8.8994h-1.4116l-.314-2.0459Zm.7051-4.8145L154.29,5.66h.9942Z"/><path class="cls-1" d="M163.3711,6.7969a2.5008,2.5008,0,0,1-.4829,1.5908,1.74,1.74,0,0,1-.9234.6318,2.51,2.51,0,0,1-.7456.1,2.1071,2.1071,0,0,1-1.3066-.3906,2.1785,2.1785,0,0,1-.6855-.87,3.5213,3.5213,0,0,1-.295-1.2607l1.2788-.0918a1.9435,1.9435,0,0,0,.4117,1.1279.69.69,0,0,0,.5542.25A.8343.8343,0,0,0,161.88,7.45a1.08,1.08,0,0,0,.1347-.5908,1.6381,1.6381,0,0,0-.5043-1.1016q-.3978-.3765-1.1929-1.13a5.0853,5.0853,0,0,1-.9448-1.1591,2.68,2.68,0,0,1-.2984-1.251A2.1752,2.1752,0,0,1,159.8911.377a2.0315,2.0315,0,0,1,1.25-.377A2.2729,2.2729,0,0,1,162.37.3193a1.8486,1.8486,0,0,1,.6431.6963,2.5708,2.5708,0,0,1,.2944,1.0293l-1.2851.2344a1.5489,1.5489,0,0,0-.3125-.8516.6554.6554,0,0,0-.5327-.2207.6143.6143,0,0,0-.5611.3272,1.2543,1.2543,0,0,0-.1562.6533,1.9611,1.9611,0,0,0,.5254,1.2432,4.416,4.416,0,0,0,.5966.5673q.4688.3912.6177.5469a4.5522,4.5522,0,0,1,.7671.9805,3.7333,3.7333,0,0,1,.2061.4189A2.4329,2.4329,0,0,1,163.3711,6.7969Z"/><path class="cls-1" d="M173.2651,6.9668l-.3261,2.0459h-1.3975L173.0542.1133h1.8467l1.4912,8.8994H174.981l-.3145-2.0459Zm.7051-4.8145L173.4731,5.66h.9942Z"/><path class="cls-1" d="M189.0005,6.7969a2.5034,2.5034,0,0,1-.4824,1.5908,1.7437,1.7437,0,0,1-.9239.6318,2.5122,2.5122,0,0,1-.7451.1,2.1093,2.1093,0,0,1-1.3076-.3906,2.1862,2.1862,0,0,1-.6846-.87,3.492,3.492,0,0,1-.2949-1.2607l1.2783-.0918a1.9442,1.9442,0,0,0,.4121,1.1279.6891.6891,0,0,0,.5538.25.8356.8356,0,0,0,.7031-.4336,1.08,1.08,0,0,0,.1347-.5908,1.6393,1.6393,0,0,0-.5039-1.1016q-.3984-.3765-1.1933-1.13a5.0846,5.0846,0,0,1-.9444-1.1591,2.6751,2.6751,0,0,1-.2988-1.251A2.1742,2.1742,0,0,1,185.521.377,2.0284,2.0284,0,0,1,186.771,0,2.2741,2.2741,0,0,1,188,.3193a1.8474,1.8474,0,0,1,.6426.6963,2.5792,2.5792,0,0,1,.2949,1.0293l-1.2861.2344a1.5375,1.5375,0,0,0-.3125-.8516.6544.6544,0,0,0-.5322-.2207.615.615,0,0,0-.5616.3272,1.264,1.264,0,0,0-.1562.6533,1.9631,1.9631,0,0,0,.5263,1.2432,4.4062,4.4062,0,0,0,.5957.5673q.4688.3912.6182.5469a4.5747,4.5747,0,0,1,.7676.9805,3.8931,3.8931,0,0,1,.206.4189A2.463,2.463,0,0,1,189.0005,6.7969Z"/><path class="cls-1" d="M193.43.1133a2.0455,2.0455,0,0,1,1.5625.6181,2.1443,2.1443,0,0,1,.54,1.5059v1.292a2.07,2.07,0,0,1-.6142,1.5059,2.0108,2.0108,0,0,1-1.4883.625h-.7744V9.0127H191.314V.1133Zm.8027,2.1455a.767.767,0,0,0-.21-.5615.7475.7475,0,0,0-.5576-.2129h-.81V4.332h.81a.7346.7346,0,0,0,.544-.2265.7562.7562,0,0,0,.2236-.5469Z"/><path class="cls-1" d="M199.1479,9.0127h-1.3417V.1133h1.3417Z"/><path class="cls-1" d="M204.0688.1133a2.046,2.046,0,0,1,1.6475.6181,2.2469,2.2469,0,0,1,.4619,1.5059v1.292a2.08,2.08,0,0,1-.7178,1.5986l.9952,3.8848h-1.4522L204.19,5.66h-.8955V9.0127h-1.3418V.1133Zm.8028,2.1455a.6814.6814,0,0,0-.7676-.7744h-.81V4.332h.81a.7344.7344,0,0,0,.5439-.2265.7559.7559,0,0,0,.2237-.5469Z"/><path class="cls-1" d="M210.35,9.0127h-1.3418V.1133H210.35Z"/><path class="cls-1" d="M214.2612,1.4629h-1.4277V.1133h4.19v1.35H215.603v7.55h-1.3418Z"/><path class="cls-1" d="M221.62,9.1123a2.1091,2.1091,0,0,1-2.123-2.1162V.1133H220.81V6.9814a.7329.7329,0,0,0,.2275.543.7505.7505,0,0,0,.5469.2236.7636.7636,0,0,0,.7666-.7666V.1133h1.3994V6.9961a2.0208,2.0208,0,0,1-.625,1.5049A2.0783,2.0783,0,0,1,221.62,9.1123Z"/><path class="cls-1" d="M227.7974,6.9668l-.3262,2.0459h-1.3975L227.5864.1133h1.8467l1.4912,8.8994h-1.4111l-.3145-2.0459Zm.705-4.8145-.497,3.5079H229Z"/><path class="cls-1" d="M237.1157,9.0127h-3.6572V.1133H234.8V7.6777h2.3154Z"/><path class="cls-1" d="M244.2856,6.9668,243.96,9.0127H242.562L244.0747.1133h1.8467l1.4912,8.8994h-1.4111l-.3145-2.0459Zm.7051-4.8145-.497,3.5079h.9941Z"/><path class="cls-1" d="M251.0884,9.0127h-1.3418V.1133h1.3418Z"/><path class="cls-1" d="M258.1108,6.8818a2.0649,2.0649,0,0,1-.6181,1.5059,2.02,2.02,0,0,1-1.4912.625h-2.1094V.1064h2.1094a2.018,2.018,0,0,1,1.4951.625,2.0639,2.0639,0,0,1,.6142,1.4991Zm-2.8769.8028h.81a.7178.7178,0,0,0,.54-.23.7642.7642,0,0,0,.2207-.5439V2.251a.7529.7529,0,0,0-.2246-.5469.7233.7233,0,0,0-.5361-.2266h-.81Z"/></svg>