<svg id="Layer_1" data-name="Layer 1" xmlns="http://www.w3.org/2000/svg" width="87.9502" height="9.126" viewBox="0 0 87.9502 9.126"><defs><style>.cls-1{fill:#ac9655;}</style></defs><title>frame3</title><path class="cls-1" d="M2.124,9.1123A2.0484,2.0484,0,0,1,.6182,8.4941,2.04,2.04,0,0,1,0,6.9961V.1133H1.314V6.9814a.731.731,0,0,0,.2275.543.75.75,0,0,0,.5469.2236.7636.7636,0,0,0,.7671-.7666V.1133H4.2544V6.9961a2.0226,2.0226,0,0,1-.625,1.5049A2.0764,2.0764,0,0,1,2.124,9.1123Z"/><path class="cls-1" d="M8.7539.1064l1.7813,5.9854V.1064h1.3422V9.0127H10.4355L8.5894,3.31V9.0127H7.2466V.1064Z"/><path class="cls-1" d="M16.9873,9.126a2.1215,2.1215,0,0,1-2.1309-2.1231V2.1445a2.0483,2.0483,0,0,1,.625-1.5088,2.0613,2.0613,0,0,1,1.5059-.622,2.0406,2.0406,0,0,1,1.5059.625,2.0664,2.0664,0,0,1,.6176,1.5058V3.16h-1.392V2.1162a.7761.7761,0,0,0-.774-.7744.735.735,0,0,0-.5434.2275.7522.7522,0,0,0-.2237.5469V6.9883a.7638.7638,0,0,0,.7671.7676.755.755,0,0,0,.5469-.2237.7361.7361,0,0,0,.2271-.5439V5.76h1.392V7.0029A2.1206,2.1206,0,0,1,16.9873,9.126Z"/><path class="cls-1" d="M24.1138,0a2.0464,2.0464,0,0,1,1.5088.625,2.0587,2.0587,0,0,1,.6215,1.5059V6.9883a2.1272,2.1272,0,1,1-4.2544,0V2.1309a2.052,2.052,0,0,1,.625-1.51A2.0517,2.0517,0,0,1,24.1138,0Zm.7314,2.1025a.7635.7635,0,0,0-.7671-.7675.7537.7537,0,0,0-.5469.2236.7336.7336,0,0,0-.2275.5439V6.9746a.733.733,0,0,0,.2275.543.75.75,0,0,0,.5469.2236.7634.7634,0,0,0,.7671-.7666Z"/><path class="cls-1" d="M30.5586,9.0127,28.9678.1133h1.4067l1.1172,6.9375L32.6167.1133h1.4077l-1.62,8.8994Z"/><path class="cls-1" d="M36.9458,9.0127V.1064h3.8213v1.35H38.2886V3.8848H40.1v1.35h-1.811V7.6631h2.4785v1.35Z"/><path class="cls-1" d="M45.6064.1133a2.046,2.046,0,0,1,1.6475.6181,2.2469,2.2469,0,0,1,.4619,1.5059v1.292a2.08,2.08,0,0,1-.7178,1.5986l.9942,3.8848H46.541L45.7266,5.66h-.8941V9.0127H43.49V.1133Zm.8028,2.1455a.6814.6814,0,0,0-.7676-.7744h-.8091V4.332h.8091a.7325.7325,0,0,0,.543-.2265.7531.7531,0,0,0,.2246-.5469Z"/><path class="cls-1" d="M57.5059,9.0127H56.1631V.1064h1.9258L59.34,6.5039,60.541.1064h1.8506V9.0127H61.05V3.416l-1.165,5.5967H58.8057l-1.3-5.582Z"/><path class="cls-1" d="M67.4941,0a2.0462,2.0462,0,0,1,1.5088.625,2.0569,2.0569,0,0,1,.6221,1.5059V6.9883a2.1275,2.1275,0,1,1-4.2549,0V2.1309a2.0539,2.0539,0,0,1,.625-1.51A2.0525,2.0525,0,0,1,67.4941,0Zm.7315,2.1025a.7634.7634,0,0,0-.7666-.7675.7529.7529,0,0,0-.5469.2236.7317.7317,0,0,0-.2275.5439V6.9746a.7311.7311,0,0,0,.2275.543.7489.7489,0,0,0,.5469.2236.7634.7634,0,0,0,.7666-.7666Z"/><path class="cls-1" d="M74.7266.1133A2.0482,2.0482,0,0,1,76.375.7314a2.2467,2.2467,0,0,1,.4609,1.5059v1.292a2.0819,2.0819,0,0,1-.7168,1.5986l.9942,3.8848H75.6611L74.8477,5.66h-.8946V9.0127H72.61V.1133Zm.8027,2.1455a.6811.6811,0,0,0-.7666-.7744h-.81V4.332h.81a.7341.7341,0,0,0,.543-.2265.7522.7522,0,0,0,.2236-.5469Z"/><path class="cls-1" d="M80.0635,9.0127V.1064h3.8213v1.35H81.4062V3.8848h1.8106v1.35H81.4062V7.6631h2.4786v1.35Z"/><path class="cls-1" d="M86.6084,7.6777H87.95V9.02H86.6084Z"/></svg>