<?xml version="1.0" encoding="utf-8"?>
<!-- Generator: Adobe Illustrator 22.1.0, SVG Export Plug-In . SVG Version: 6.00 Build 0)  -->
<svg version="1.1" id="Layer_1" xmlns="http://www.w3.org/2000/svg" xmlns:xlink="http://www.w3.org/1999/xlink" x="0px" y="0px"
	 viewBox="0 0 122.2 9.1" style="enable-background:new 0 0 122.2 9.1;" xml:space="preserve">
<style type="text/css">
	.st0{fill:#D3B372;}
</style>
<title>frame2</title>
<path class="st0" d="M4.4,6.8c0,0.6-0.1,1.1-0.5,1.6C3.7,8.7,3.4,8.9,3,9C2.8,9.1,2.5,9.1,2.3,9.1C1.8,9.1,1.4,9,1,8.7
	C0.7,8.5,0.4,8.2,0.3,7.9C0.1,7.5,0,7,0,6.6l1.3-0.1c0,0.4,0.2,0.8,0.4,1.1C1.8,7.8,2,7.9,2.2,7.9c0.3,0,0.6-0.2,0.7-0.4
	C3,7.3,3.1,7.1,3.1,6.9c0-0.4-0.2-0.8-0.5-1.1C2.3,5.5,1.9,5.1,1.4,4.6C1,4.3,0.7,3.9,0.4,3.5C0.2,3.1,0.1,2.7,0.1,2.2
	c0-0.7,0.3-1.4,0.8-1.8C1.3,0.1,1.8,0,2.2,0c0.4,0,0.9,0.1,1.2,0.3C3.7,0.5,3.9,0.7,4.1,1c0.2,0.3,0.3,0.7,0.3,1L3.1,2.3
	C3.1,2,3,1.7,2.8,1.4C2.6,1.3,2.4,1.2,2.2,1.2C2,1.2,1.8,1.3,1.7,1.5C1.6,1.7,1.5,2,1.5,2.2c0,0.5,0.2,0.9,0.5,1.2
	C2.2,3.6,2.4,3.8,2.6,4C3,4.3,3.2,4.4,3.3,4.5c0.3,0.3,0.6,0.6,0.8,1c0.1,0.1,0.1,0.3,0.2,0.4C4.4,6.2,4.4,6.5,4.4,6.8z"/>
<path class="st0" d="M8.7,9H7.4V0.1h1.3V9z"/>
<path class="st0" d="M13.2,0.1l1.8,6v-6h1.3V9h-1.4L13,3.3V9h-1.3V0.1H13.2z"/>
<path class="st0" d="M21.4,9.1c-1.2,0-2.1-0.9-2.1-2.1c0,0,0,0,0,0V2.1c0-0.6,0.2-1.1,0.6-1.5c0.8-0.8,2.2-0.8,3,0
	c0.4,0.4,0.6,0.9,0.6,1.5v1h-1.4v-1c0-0.4-0.3-0.8-0.8-0.8c-0.2,0-0.4,0.1-0.5,0.2c-0.1,0.1-0.2,0.3-0.2,0.5V7
	c0,0.4,0.3,0.8,0.8,0.8c0,0,0,0,0,0c0.2,0,0.4-0.1,0.5-0.2c0.1-0.1,0.2-0.3,0.2-0.5V5.8h1.4V7C23.6,8.2,22.6,9.1,21.4,9.1
	C21.4,9.1,21.4,9.1,21.4,9.1z"/>
<path class="st0" d="M26.5,9V0.1h3.8v1.4h-2.5v2.4h1.8v1.3h-1.8v2.4h2.5V9L26.5,9z"/>
<path class="st0" d="M40.2,7l-0.3,2h-1.4L40,0.1h1.8L43.3,9h-1.4l-0.3-2L40.2,7z M40.9,2.2l-0.5,3.5h1L40.9,2.2z"/>
<path class="st0" d="M47.7,0.1l1.8,6v-6h1.3V9h-1.4l-1.8-5.7V9h-1.3V0.1H47.7z"/>
<path class="st0" d="M56,9.1c-1.2,0-2.1-0.9-2.1-2.1c0,0,0,0,0,0V2.1c0-0.6,0.2-1.1,0.6-1.5C54.9,0.2,55.4,0,56,0
	c0.6,0,1.1,0.2,1.5,0.6c0.4,0.4,0.6,0.9,0.6,1.5v1h-1.4v-1c0-0.4-0.3-0.8-0.8-0.8c-0.2,0-0.4,0.1-0.5,0.2c-0.1,0.1-0.2,0.3-0.2,0.5
	V7c0,0.4,0.3,0.8,0.8,0.8c0,0,0,0,0,0c0.2,0,0.4-0.1,0.5-0.2c0.1-0.1,0.2-0.3,0.2-0.5V5.8h1.4V7C58.1,8.2,57.1,9.1,56,9.1
	C56,9.1,56,9.1,56,9.1z"/>
<path class="st0" d="M62.3,9H61V0.1h1.3V9z"/>
<path class="st0" d="M65.3,9V0.1h3.8v1.4h-2.5v2.4h1.8v1.3h-1.8v2.4h2.5V9L65.3,9z"/>
<path class="st0" d="M73.4,0.1l1.8,6v-6h1.3V9h-1.4l-1.8-5.7V9h-1.3V0.1H73.4z"/>
<path class="st0" d="M80.8,1.5h-1.4V0.1h4.2v1.4h-1.4V9h-1.3V1.5z"/>
<path class="st0" d="M92,1.5h-1.4V0.1h4.2v1.4h-1.4V9H92V1.5z"/>
<path class="st0" d="M99,9h-1.3V0.1H99L99,9z"/>
<path class="st0" d="M103.3,9H102V0.1h1.9l1.3,6.4l1.2-6.4h1.9V9h-1.3V3.4L105.7,9h-1.1l-1.3-5.6L103.3,9z"/>
<path class="st0" d="M111.2,9V0.1h3.8v1.4h-2.5v2.4h1.8v1.3h-1.8v2.4h2.5V9L111.2,9z"/>
<path class="st0" d="M122.2,6.8c0,0.6-0.1,1.1-0.5,1.6c-0.2,0.3-0.6,0.5-0.9,0.6c-0.2,0.1-0.5,0.1-0.7,0.1c-0.5,0-0.9-0.1-1.3-0.4
	c-0.3-0.2-0.5-0.5-0.7-0.9c-0.2-0.4-0.3-0.8-0.3-1.3l1.3-0.1c0,0.4,0.2,0.8,0.4,1.1c0.1,0.2,0.3,0.3,0.6,0.2c0.3,0,0.6-0.2,0.7-0.4
	c0.1-0.2,0.1-0.4,0.1-0.6c0-0.4-0.2-0.8-0.5-1.1c-0.3-0.3-0.7-0.6-1.2-1.1c-0.4-0.3-0.7-0.7-0.9-1.2c-0.2-0.4-0.3-0.8-0.3-1.3
	c0-0.7,0.3-1.4,0.8-1.8c0.4-0.3,0.8-0.4,1.2-0.4c0.4,0,0.9,0.1,1.2,0.3c0.3,0.2,0.5,0.4,0.6,0.7c0.2,0.3,0.3,0.7,0.3,1l-1.3,0.2
	c0-0.3-0.1-0.6-0.3-0.9c-0.1-0.2-0.3-0.2-0.5-0.2c-0.2,0-0.5,0.1-0.6,0.3c-0.1,0.2-0.2,0.4-0.2,0.7c0,0.5,0.2,0.9,0.5,1.2
	c0.2,0.2,0.4,0.4,0.6,0.6c0.3,0.3,0.5,0.4,0.6,0.5c0.3,0.3,0.6,0.6,0.8,1c0.1,0.1,0.1,0.3,0.2,0.4C122.1,6.2,122.2,6.5,122.2,6.8z"
	/>
</svg>
