<svg id="Layer_1" data-name="Layer 1" xmlns="http://www.w3.org/2000/svg" width="320" height="50" viewBox="0 0 320 50"><defs><style>.cls-1{fill:#ab9555;}</style></defs><title>frame2</title><path class="cls-1" d="M141.60889,30.375h-4.02344V20.58589H139.062V28.9062h2.54688Z"/><path class="cls-1" d="M145.84033,20.46089a2.3406,2.3406,0,0,1,2.34375,2.34375v5.34375a2.33986,2.33986,0,1,1-4.67969,0V22.80464a2.3406,2.3406,0,0,1,2.33594-2.34375Zm.80469,2.3125a.84023.84023,0,0,0-.84375-.84375.82638.82638,0,0,0-.60156.24609.806.806,0,0,0-.25.59766v5.35937a.806.806,0,0,0,.25.59766.82638.82638,0,0,0,.60156.24609.84023.84023,0,0,0,.84375-.84375Z"/><path class="cls-1" d="M152.67334,20.46089a2.3406,2.3406,0,0,1,2.34375,2.34375v5.34375a2.33986,2.33986,0,1,1-4.67969,0V22.80464a2.3406,2.3406,0,0,1,2.33594-2.34375Zm.80469,2.3125a.84025.84025,0,0,0-.84375-.84375.82642.82642,0,0,0-.60157.24609.80608.80608,0,0,0-.25.59766v5.35937a.80608.80608,0,0,0,.25.59766.82642.82642,0,0,0,.60157.24609.84025.84025,0,0,0,.84375-.84375Z"/><path class="cls-1" d="M158.6709,27.26948V30.375h-1.47656V20.57807h1.47656v3.49219l1.80469-3.49219h1.57421l-2.021,3.9961,2.36963,5.80078h-1.73535l-1.5503-3.97754Z"/><path class="cls-1" d="M170.41992,30.48432A2.3207,2.3207,0,0,1,168.084,28.1562V20.58589h1.44532v7.55468a.806.806,0,0,0,.25.59766.82559.82559,0,0,0,.60156.24609.84023.84023,0,0,0,.84375-.84375V20.58589h1.53906V28.1562a2.22628,2.22628,0,0,1-.6875,1.65625A2.28442,2.28442,0,0,1,170.41992,30.48432Z"/><path class="cls-1" d="M177.28418,20.58589a2.24915,2.24915,0,0,1,1.71875.67968,2.35941,2.35941,0,0,1,.59375,1.65625V24.3437a2.27863,2.27863,0,0,1-.67578,1.65625,2.21089,2.21089,0,0,1-1.63672.6875h-.85156V30.375h-1.47657V20.58589Zm.88281,2.35937a.84413.84413,0,0,0-.23047-.61719.82127.82127,0,0,0-.61328-.23437h-.89062v3.13281h.89062a.80608.80608,0,0,0,.59766-.25.8272.8272,0,0,0,.24609-.60156Z"/><path class="cls-1" d="M181.49219,28.9062h1.47656v1.47656h-1.47656Z"/></svg>