<svg id="Layer_1" data-name="Layer 1" xmlns="http://www.w3.org/2000/svg" width="320" height="50" viewBox="0 0 320 50"><defs><style>.cls-1{fill:#ab9555;}</style></defs><title>frame3</title><path class="cls-1" d="M129.24023,30.37525V20.57838h2.21094a2.81371,2.81371,0,0,1,1.57813.46094,2.14683,2.14683,0,0,1,.85937,1.21093,3.41122,3.41122,0,0,1,.14063,1.03907,2.30066,2.30066,0,0,1-.52344,1.57812,1.48645,1.48645,0,0,1-.51563.38281,1.7153,1.7153,0,0,1,.83594.74219,2.89909,2.89909,0,0,1,.33594.96875,3.89532,3.89532,0,0,1,.05469.67969,3.27147,3.27147,0,0,1-.35157,1.57812,2.26364,2.26364,0,0,1-1.89062,1.15625Zm1.59375-5.79687h.61719a.90443.90443,0,0,0,.92188-.67188,1.92094,1.92094,0,0,0,.08593-.61718,1.29093,1.29093,0,0,0-.29687-.92188.936.936,0,0,0-.71094-.28906H130.834Zm0,4.33594h.61719a1.04783,1.04783,0,0,0,1.03906-.77344,1.703,1.703,0,0,0,.10157-.60938,1.85788,1.85788,0,0,0-.3125-1.19531,1.0071,1.0071,0,0,0-.82813-.34375H130.834Z"/><path class="cls-1" d="M138.70605,20.58619a2.252,2.252,0,0,1,1.8125.67969,2.47075,2.47075,0,0,1,.50782,1.65625V24.344a2.289,2.289,0,0,1-.78907,1.75782l1.09375,4.27343h-1.59667l-.89551-3.6875h-.98438v3.6875h-1.47656V20.58619Zm.88282,2.35938a.74938.74938,0,0,0-.84375-.85157h-.89063v3.13282h.89063a.80607.80607,0,0,0,.59765-.25.82719.82719,0,0,0,.2461-.60157Z"/><path class="cls-1" d="M143.47656,30.37525V20.57838h4.20313v1.48437h-2.72657v2.67188h1.99219V26.219h-1.99219v2.67188h2.72657v1.48437Z"/><path class="cls-1" d="M151.47217,28.12525l-.35889,2.25h-1.5376l1.66407-9.78906H153.271l1.64062,9.78906h-1.55273l-.34522-2.25Zm.77539-5.29687-.54688,3.85937h1.09375Z"/><path class="cls-1" d="M157.22119,22.07057h-1.57031V20.58619h4.60937v1.48438h-1.5625v8.30468h-1.47656Z"/><path class="cls-1" d="M163.80371,26.22682v4.14843h-1.47656V20.58619h1.47656v4.15625H165.585V20.58619h1.47656v9.78906H165.585V26.22682Z"/><path class="cls-1" d="M169.26172,30.37525V20.57838h4.20312v1.48437h-2.72656v2.67188h1.99219V26.219h-1.99219v2.67188h2.72656v1.48437Z"/><path class="cls-1" d="M180.62891,30.37525h-1.47657V20.58619h1.47657Z"/><path class="cls-1" d="M184.48633,20.57838l1.96,6.584v-6.584h1.47656v9.79687h-1.58594l-2.03125-6.27343v6.27343H182.8291V20.57838Z"/><path class="cls-1" d="M189.81836,28.9065h1.47656v1.47657h-1.47656Z"/></svg>