<svg id="Content" xmlns="http://www.w3.org/2000/svg" width="300" height="250" viewBox="0 0 300 250"><defs><style>.cls-1{fill:#ba9544;}</style></defs><title>Frame1 - Daytime CBD</title><path class="cls-1" d="M124.89551,147.92676H130.001c3.22754,0,4.812,1.79,4.812,5.07617v10.38769c0,3.28614-1.58447,5.07618-4.812,5.07618h-5.10547Zm3.22754,2.93457v14.6709h1.81933c1.02686,0,1.64307-.52832,1.64307-1.99512V152.85645c0-1.4668-.61621-1.99512-1.64307-1.99512Z"/><path class="cls-1" d="M151.126,168.4668h-3.25733l-.55761-3.72657h-3.96143l-.55762,3.72657h-2.96338l3.28662-20.54h4.72413Zm-7.36524-6.51368h3.11035l-1.55517-10.38769Z"/><path class="cls-1" d="M157.11035,161.65918l-4.0791-13.73242h3.375l2.46484,9.36035,2.46387-9.36035H164.416l-4.07813,13.73242v6.80762h-3.22754Z"/><path class="cls-1" d="M167.40723,147.92676h9.97656v2.93457h-3.374V168.4668h-3.22754V150.86133h-3.375Z"/><path class="cls-1" d="M182.60449,147.92676H185.832v20.54h-3.22754Z"/><path class="cls-1" d="M199.417,162.50977l2.2002-14.583h4.48926v20.54h-3.05079V153.73633L200.8252,168.4668h-3.05176l-2.40625-14.52442V168.4668h-2.81641v-20.54H197.04Z"/><path class="cls-1" d="M216.08105,156.583h4.43067v2.93457h-4.43067v6.01465h5.5752v2.93457h-8.80273v-20.54h8.80273v2.93457h-5.5752Z"/><path class="cls-1" d="M246.36035,160.80859v2.72852c0,3.28613-1.64355,5.16406-4.8125,5.16406s-4.8125-1.87793-4.8125-5.16406V152.85645c0-3.28614,1.64356-5.16407,4.8125-5.16407s4.8125,1.87793,4.8125,5.16407v1.99511h-3.05176v-2.20019c0-1.46778-.6455-2.02442-1.67285-2.02442-1.02636,0-1.67187.55664-1.67187,2.02442v11.09082c0,1.46777.64551,1.99609,1.67187,1.99609,1.02735,0,1.67285-.52832,1.67285-1.99609v-2.9336Z"/><path class="cls-1" d="M262.37793,152.65137v.7334c0,2.1123-.64551,3.46191-2.083,4.13769,1.73145.67481,2.40625,2.22949,2.40625,4.40137v1.67187c0,3.16895-1.67285,4.8711-4.90039,4.8711h-5.07617v-20.54h4.87109C260.94043,147.92676,262.37793,149.48242,262.37793,152.65137Zm-6.42578-1.79V156.29h1.26172c1.20312,0,1.93652-.52832,1.93652-2.17188v-1.14453c0-1.46679-.499-2.1123-1.64258-2.1123Zm0,8.3623v6.3086h1.84863c1.08594,0,1.67285-.49805,1.67285-2.02442v-1.79c0-1.90722-.61621-2.49414-2.084-2.49414Z"/><path class="cls-1" d="M269.03711,147.92676h5.10547c3.22754,0,4.8125,1.79,4.8125,5.07617v10.38769c0,3.28614-1.585,5.07618-4.8125,5.07618h-5.10547Zm3.22754,2.93457v14.6709H274.084c1.02735,0,1.64356-.52832,1.64356-1.99512V152.85645c0-1.4668-.61621-1.99512-1.64356-1.99512Z"/></svg>