<svg id="Content" xmlns="http://www.w3.org/2000/svg" width="300" height="600" viewBox="0 0 300 600"><defs><style>.cls-1{fill:#ba9544;}</style></defs><title>Frame1 - Shishkaberry</title><path class="cls-1" d="M65.22363,368.60563c3.34864,0,5.06983,2.00293,5.06983,5.50781v.68848H67.03857v-.90723c0-1.56445-.626-2.16016-1.72119-2.16016s-1.72119.59571-1.72119,2.16016c0,4.50586,6.72852,5.35156,6.72852,11.61035,0,3.50488-1.75244,5.50879-5.13233,5.50879-3.38037,0-5.13281-2.00391-5.13281-5.50879v-1.3457h3.25488v1.56543c0,1.56445.68848,2.127,1.78369,2.127,1.09571,0,1.78418-.5625,1.78418-2.127,0-4.50781-6.729-5.35156-6.729-11.61133C60.15332,370.60856,61.875,368.60563,65.22363,368.60563Z"/><path class="cls-1" d="M79.05322,390.76285H75.61084V368.85563h3.44238v9.38867h3.91211v-9.38867h3.50488v21.90722H82.96533v-9.38867H79.05322Z"/><path class="cls-1" d="M92.2876,368.85563H95.73v21.90722H92.2876Z"/><path class="cls-1" d="M106.18115,368.60563c3.34864,0,5.06983,2.00293,5.06983,5.50781v.68848h-3.25489v-.90723c0-1.56445-.626-2.16016-1.72119-2.16016s-1.72119.59571-1.72119,2.16016c0,4.50586,6.72852,5.35156,6.72852,11.61035,0,3.50488-1.75244,5.50879-5.13233,5.50879-3.38037,0-5.13281-2.00391-5.13281-5.50879v-1.3457H104.272v1.56543c0,1.56445.68848,2.127,1.78369,2.127,1.09571,0,1.78418-.5625,1.78418-2.127,0-4.50781-6.729-5.35156-6.729-11.61133C101.11084,370.60856,102.83252,368.60563,106.18115,368.60563Z"/><path class="cls-1" d="M120.01025,390.76285h-3.44238V368.85563h3.44238v9.38867h3.91211v-9.38867h3.50489v21.90722h-3.50489v-9.38867h-3.91211Z"/><path class="cls-1" d="M137.75146,382.03141l-1.064,2.00293v6.72851h-3.44238V368.85563h3.44238v9.54492l4.50684-9.54492h3.44238l-4.78809,9.76465,4.78809,12.14257H141.1001Z"/><path class="cls-1" d="M160.65625,390.76285h-3.47363l-.59473-3.97461H152.3623l-.59472,3.97461h-3.16016l3.50488-21.90722h5.03907Zm-7.85547-6.94824h3.31738L154.46,372.73649Z"/><path class="cls-1" d="M175.86328,373.89469v.78223c0,2.25293-.68848,3.69238-2.22266,4.41308,1.84668.71875,2.56641,2.37793,2.56641,4.69336v1.78418c0,3.37988-1.78418,5.19531-5.22656,5.19531h-5.41406V368.85563h5.19531C174.3291,368.85563,175.86328,370.51383,175.86328,373.89469Zm-6.85449-1.90918v5.79h1.3457c1.28321,0,2.06543-.56445,2.06543-2.31641v-1.2207c0-1.56445-.53125-2.25293-1.75195-2.25293Zm0,8.91895V387.633h1.97168c1.1582,0,1.78418-.53125,1.78418-2.15918v-1.90918c0-2.03418-.65723-2.66015-2.22168-2.66015Z"/><path class="cls-1" d="M185.0293,378.08805h4.72558V381.217H185.0293v6.416h5.94629v3.12988h-9.38868V368.85563h9.38868v3.12988H185.0293Z"/><path class="cls-1" d="M203.61523,390.76285a6.74551,6.74551,0,0,1-.3125-2.6914v-3.44239c0-2.03417-.68847-2.78515-2.25293-2.78515h-1.18945v8.91894H196.418V368.85563h5.19433c3.56836,0,5.10157,1.6582,5.10157,5.03906v1.7207c0,2.25391-.71973,3.72461-2.25293,4.44434,1.7207.71973,2.28418,2.37793,2.28418,4.66308v3.37989a6.44458,6.44458,0,0,0,.376,2.66015Zm-3.75488-18.77734V378.714h1.3457c1.28321,0,2.06543-.56348,2.06543-2.31543v-2.16016c0-1.56445-.53222-2.25293-1.75293-2.25293Z"/><path class="cls-1" d="M219.51074,390.76285a6.73776,6.73776,0,0,1-.31347-2.6914v-3.44239c0-2.03417-.68848-2.78515-2.25293-2.78515h-1.18946v8.91894H212.3125V368.85563h5.19531c3.56739,0,5.10157,1.6582,5.10157,5.03906v1.7207c0,2.25391-.72071,3.72461-2.25391,4.44434,1.72168.71973,2.28515,2.37793,2.28515,4.66308v3.37989a6.46138,6.46138,0,0,0,.375,2.66015Zm-3.75586-18.77734V378.714h1.34571c1.2832,0,2.06543-.56348,2.06543-2.31543v-2.16016c0-1.56445-.53125-2.25293-1.752-2.25293Z"/><path class="cls-1" d="M231.43066,383.50211l-4.35058-14.64648h3.59961l2.6289,9.9834,2.62891-9.9834h3.28613l-4.35058,14.64648v7.26074h-3.44239Z"/></svg>