<svg id="Content" xmlns="http://www.w3.org/2000/svg" xmlns:xlink="http://www.w3.org/1999/xlink" width="320" height="568" viewBox="0 0 320 568"><defs><style>.cls-1{fill:#ba9544;}.cls-2{fill:#fff;stroke:#ba9544;stroke-miterlimit:10;stroke-width:0.5px;}.cls-3{clip-path:url(#clip-path);}</style><clipPath id="clip-path"><polygon class="cls-1" points="58.969 353.773 68.362 367.079 68.547 367.095 68.547 340.231 68.362 340.225 58.969 353.773"/></clipPath></defs><title>CBD - Shiskaberry</title><polygon class="cls-2" points="254.24 340.9 68.157 340.195 58.764 353.741 68.157 367.047 254.24 366.73 262.694 353.816 254.24 340.9"/><polygon class="cls-1" points="58.969 353.773 68.362 367.079 68.547 367.095 68.547 340.231 68.362 340.225 58.969 353.773"/><g class="cls-3"><rect class="cls-1" x="56.89092" y="338.14846" width="13.72837" height="31.02293"/></g><path class="cls-1" d="M168.08887,358.21191a4.55728,4.55728,0,0,1,3.24023-7.80175,4.931,4.931,0,0,1,3.34668,1.21484l-1.21484,1.33008a3.36112,3.36112,0,0,0-2.13184-.72852,2.59734,2.59734,0,0,0-2.72656,2.709,2.73146,2.73146,0,0,0,.75879,2.0166,2.6893,2.6893,0,0,0,1.98047.74707,3.26538,3.26538,0,0,0,2.11914-.72266l1.21484,1.33008a4.91532,4.91532,0,0,1-3.34668,1.21484A4.43157,4.43157,0,0,1,168.08887,358.21191Z"/><path class="cls-1" d="M183.10645,354.7168a2.58715,2.58715,0,0,1-1.48243,4.81054l-5.126-.00586V350.417h4.835q2.30127.13331,2.42969,2.67774A1.90667,1.90667,0,0,1,183.10645,354.7168Zm-4.78028-.64942H180.877a1.02872,1.02872,0,0,0,1.12989-1.13574q-.03077-.66944-1.11133-.70508h-2.56934Zm0,4.03223h2.97656a1.189,1.189,0,0,0,1.31153-1.31738q-.03077-.87451-1.29395-.91114h-2.99414Z"/><path class="cls-1" d="M186.19141,359.52148V350.4043h3.51074q4.251,0,4.252,4.56152,0,4.55566-4.252,4.55566Zm3.51074-1.8164q2.42285-.00587,2.42969-2.73926-.00587-2.73341-2.42969-2.7334h-1.68848v5.47266Z"/><path class="cls-1" d="M195.98828,353.71191a.88086.88086,0,0,1,.65625-.24609.91249.91249,0,0,1,.67969.24609.83349.83349,0,0,1,.24316.61036.82368.82368,0,0,1-.24316.60742,1.039,1.039,0,0,1-1.33594,0,.82368.82368,0,0,1-.24316-.60742A.83349.83349,0,0,1,195.98828,353.71191Zm0,4.34864a.88083.88083,0,0,1,.65625-.2461.91245.91245,0,0,1,.67969.2461.83346.83346,0,0,1,.24316.61035.82368.82368,0,0,1-.24316.60742,1.039,1.039,0,0,1-1.33594,0,.82368.82368,0,0,1-.24316-.60742A.83346.83346,0,0,1,195.98828,358.06055Z"/><path class="cls-1" d="M209.02344,353.02246,205.5,354.96582l3.52344,1.94336v1.39746l-5.75782-3.165v-.39453l5.75782-3.12207Z"/><path class="cls-1" d="M216.91309,350.41016v-.00586h1.8164v9.11718h-1.8164v-6.68164l-1.21485,1.21485-1.21484-1.21485Z"/></svg>