<svg id="Content" xmlns="http://www.w3.org/2000/svg" width="320" height="50" viewBox="0 0 320 50"><defs><style>.cls-1{fill:#ba9544;}</style></defs><title>Frame1 - Shishkaberry</title><path class="cls-1" d="M112.57715,20.23145c1.71191,0,2.59277,1.02441,2.59277,2.81689v.35254h-1.66406v-.46436c0-.80029-.32031-1.10449-.88086-1.10449s-.88086.3042-.88086,1.10449c0,2.30469,3.44141,2.73731,3.44141,5.93848,0,1.79248-.89649,2.81689-2.625,2.81689s-2.625-1.02441-2.625-2.81689v-.68848h1.665v.8003c0,.80029.35253,1.08838.91308,1.08838.55957,0,.91211-.28809.91211-1.08838,0-2.30469-3.4414-2.73682-3.4414-5.93848C109.98438,21.25586,110.86426,20.23145,112.57715,20.23145Z"/><path class="cls-1" d="M119.64844,31.564H117.8877V20.35938h1.76074v4.80175h2.001V20.35938h1.792V31.564h-1.792V26.76221h-2.001Z"/><path class="cls-1" d="M126.416,20.35938h1.75976V31.564H126.416Z"/><path class="cls-1" d="M133.52051,20.23145c1.71191,0,2.59277,1.02441,2.59277,2.81689v.35254h-1.66406v-.46436c0-.80029-.32031-1.10449-.88086-1.10449s-.88086.3042-.88086,1.10449c0,2.30469,3.44141,2.73731,3.44141,5.93848,0,1.79248-.89649,2.81689-2.625,2.81689s-2.625-1.02441-2.625-2.81689v-.68848h1.665v.8003c0,.80029.35253,1.08838.91308,1.08838.55957,0,.91211-.28809.91211-1.08838,0-2.30469-3.44141-2.73682-3.44141-5.93848C130.92773,21.25586,131.80762,20.23145,133.52051,20.23145Z"/><path class="cls-1" d="M140.5918,31.564H138.832V20.35938h1.75977v4.80175h2.00195V20.35938h1.792V31.564h-1.792V26.76221H140.5918Z"/><path class="cls-1" d="M149.66406,27.09814l-.54492,1.02442V31.564h-1.75976V20.35938h1.75976v4.88183l2.30566-4.88183h1.76075l-2.44922,4.99414,2.44922,6.21044H151.377Z"/><path class="cls-1" d="M161.377,31.564h-1.77636l-.30371-2.03271h-2.16211L156.832,31.564h-1.61719l1.793-11.20458H159.584Zm-4.01757-3.55322h1.69726l-.84863-5.6665Z"/><path class="cls-1" d="M169.15234,22.93652v.39991a2.20072,2.20072,0,0,1-1.13574,2.25732,2.26551,2.26551,0,0,1,1.3125,2.40088v.91211a2.38193,2.38193,0,0,1-2.67285,2.65722h-2.76953V20.35938H166.544C168.36914,20.35938,169.15234,21.208,169.15234,22.93652ZM165.64746,21.96v2.96143h.68848c.65625,0,1.05664-.28809,1.05664-1.18457V23.1123c0-.80029-.27246-1.15234-.89649-1.15234Zm0,4.562v3.44141h1.00879c.5918,0,.91211-.272.91211-1.10449v-.97657c0-1.04-.33594-1.36035-1.13672-1.36035Z"/><path class="cls-1" d="M173.83984,25.08154h2.416v1.60059h-2.416v3.28125h3.041V31.564h-4.80274V20.35938h4.80274V21.96h-3.041Z"/><path class="cls-1" d="M183.34375,31.564a3.452,3.452,0,0,1-.16016-1.37646V28.42676c0-1.04053-.35156-1.42481-1.15234-1.42481h-.60742v4.562h-1.76172V20.35938h2.6582c1.82422,0,2.6084.84863,2.6084,2.57714v.88037a2.234,2.234,0,0,1-1.15234,2.27295c.87988.36817,1.16894,1.21631,1.16894,2.38477v1.729a3.30422,3.30422,0,0,0,.19141,1.36035Zm-1.91992-9.604v3.44141h.6875c.65625,0,1.05664-.28809,1.05664-1.18457V23.1123c0-.80029-.27149-1.15234-.89649-1.15234Z"/><path class="cls-1" d="M191.47168,31.564a3.43261,3.43261,0,0,1-.16016-1.37646V28.42676c0-1.04053-.35254-1.42481-1.15234-1.42481h-.6084v4.562H187.79V20.35938h2.65723c1.82421,0,2.60937.84863,2.60937,2.57714v.88037a2.23547,2.23547,0,0,1-1.15234,2.27295c.87988.36817,1.168,1.21631,1.168,2.38477v1.729a3.30422,3.30422,0,0,0,.1914,1.36035Zm-1.9209-9.604v3.44141h.68848c.65625,0,1.05566-.28809,1.05566-1.18457V23.1123c0-.80029-.27148-1.15234-.89551-1.15234Z"/><path class="cls-1" d="M197.56641,27.85059l-2.22461-7.49121h1.83984l1.3457,5.106,1.34375-5.10595h1.68067l-2.22461,7.49121V31.564h-1.76074Z"/></svg>