<svg id="Layer_1" data-name="Layer 1" xmlns="http://www.w3.org/2000/svg" width="970" height="250" viewBox="0 0 970 250"><defs><style>.cls-1{fill:#ab9555;}</style></defs><title>frame1</title><path class="cls-1" d="M441.74756,161.66406a5.06155,5.06155,0,0,1-5.0957-5.0791V140.06738h3.15332v16.4834a1.76024,1.76024,0,0,0,.54492,1.30371,1.80246,1.80246,0,0,0,1.3125.53711,1.83385,1.83385,0,0,0,1.84082-1.84082v-16.4834h3.3584V156.585a4.852,4.852,0,0,1-1.5,3.61328A4.9837,4.9837,0,0,1,441.74756,161.66406Z"/><path class="cls-1" d="M456.22119,140.05078l4.27539,14.36524V140.05078h3.22168v21.375h-3.46l-4.43262-13.6875v13.6875H452.605v-21.375Z"/><path class="cls-1" d="M474.55811,140.06738a4.90933,4.90933,0,0,1,3.75,1.4834,5.14482,5.14482,0,0,1,1.29589,3.61328v3.10254a4.96839,4.96839,0,0,1-1.47461,3.61328,4.82018,4.82018,0,0,1-3.57128,1.5h-1.8584v8.0459H469.479v-21.3584Zm1.92578,5.14844a1.83529,1.83529,0,0,0-.50293-1.34668,1.79188,1.79188,0,0,0-1.33789-.51172h-1.94336v6.835h1.94336a1.76391,1.76391,0,0,0,1.30468-.54492,1.80382,1.80382,0,0,0,.53614-1.3125Z"/><path class="cls-1" d="M493.83594,161.42578h-8.77881v-21.3584h3.22119v18.1543h5.55762Z"/><path class="cls-1" d="M504.02734,161.66406a5.06155,5.06155,0,0,1-5.0957-5.0791V140.06738H502.085v16.4834a1.76024,1.76024,0,0,0,.54492,1.30371,1.80246,1.80246,0,0,0,1.3125.53711,1.83385,1.83385,0,0,0,1.84082-1.84082v-16.4834h3.3584V156.585a4.852,4.852,0,0,1-1.5,3.61328A4.9837,4.9837,0,0,1,504.02734,161.66406Z"/><path class="cls-1" d="M519.94824,161.69824a5.10633,5.10633,0,0,1-5.11328-5.09668V144.94238a5.105,5.105,0,1,1,10.21,0v2.4375H521.7041V144.875a1.86385,1.86385,0,0,0-1.8584-1.8584,1.759,1.759,0,0,0-1.30371.5459,1.80087,1.80087,0,0,0-.53711,1.3125v11.69238a1.83386,1.83386,0,0,0,1.84082,1.8418,1.80385,1.80385,0,0,0,1.3125-.53613,1.7541,1.7541,0,0,0,.5459-1.29981V152.375h-1.79v-3.23926h5.13086v7.46582a5.09128,5.09128,0,0,1-5.09668,5.09668Z"/><path class="cls-1" d="M530.14063,158.22168h3.2207v3.2207h-3.2207Z"/></svg>