<svg id="Content" xmlns="http://www.w3.org/2000/svg" xmlns:xlink="http://www.w3.org/1999/xlink" width="320" height="568" viewBox="0 0 320 568"><defs><style>.cls-1{fill:#ba9544;}.cls-2{fill:#fff;stroke:#ba9544;stroke-miterlimit:10;stroke-width:0.5px;}.cls-3{clip-path:url(#clip-path);}</style><clipPath id="clip-path"><polygon class="cls-1" points="58.969 353.523 68.363 366.829 91.425 366.846 91.425 339.981 68.363 339.975 58.969 353.523"/></clipPath></defs><title>CBD - Daytime CBD</title><polygon class="cls-2" points="254.24 340.65 68.158 339.945 58.765 353.491 68.158 366.797 254.24 366.48 262.694 353.566 254.24 340.65"/><polygon class="cls-1" points="58.969 353.523 68.363 366.829 91.425 366.846 91.425 339.981 68.363 339.975 58.969 353.523"/><g class="cls-3"><rect class="cls-1" x="56.89188" y="337.89873" width="13.7283" height="31.02277"/></g><path class="cls-1" d="M168.08887,357.95215a4.5568,4.5568,0,0,1,3.24023-7.80176,4.92928,4.92928,0,0,1,3.34668,1.21484l-1.21484,1.33008a3.35545,3.35545,0,0,0-2.13184-.72851,2.59592,2.59592,0,0,0-2.72656,2.709,2.7307,2.7307,0,0,0,.75879,2.01563,2.68934,2.68934,0,0,0,1.98047.74707,3.26007,3.26007,0,0,0,2.11914-.72266l1.21484,1.33008a4.91059,4.91059,0,0,1-3.34668,1.21484A4.4346,4.4346,0,0,1,168.08887,357.95215Z"/><path class="cls-1" d="M183.10645,354.457a2.58656,2.58656,0,0,1-1.48243,4.80957l-5.126-.00586v-9.10449h4.835q2.30127.1333,2.42969,2.67871A1.90527,1.90527,0,0,1,183.10645,354.457Zm-4.78028-.65039H180.877a1.02786,1.02786,0,0,0,1.12989-1.13574q-.02931-.668-1.11133-.7041h-2.56934Zm0,4.0332h2.97656a1.18934,1.18934,0,0,0,1.31153-1.31836q-.03077-.8745-1.29395-.91113h-2.99414Z"/><path class="cls-1" d="M186.19238,359.26074v-9.11621h3.51074q4.251,0,4.251,4.56152,0,4.55421-4.251,4.55469Zm3.51074-1.81543q2.42286-.00585,2.42872-2.73926-.00587-2.73339-2.42872-2.73339h-1.68847v5.47265Z"/><path class="cls-1" d="M195.98926,353.45117a.877.877,0,0,1,.65527-.24609.91335.91335,0,0,1,.68067.24609.83508.83508,0,0,1,.24316.61035.82219.82219,0,0,1-.24316.60743,1.039,1.039,0,0,1-1.33594,0,.82216.82216,0,0,1-.24317-.60743A.83505.83505,0,0,1,195.98926,353.45117Zm0,4.34863a.88026.88026,0,0,1,.65527-.24511.91674.91674,0,0,1,.68067.24511.83578.83578,0,0,1,.24316.61133.8215.8215,0,0,1-.24316.60645,1.039,1.039,0,0,1-1.33594,0,.82147.82147,0,0,1-.24317-.60645A.83574.83574,0,0,1,195.98926,357.7998Z"/><path class="cls-1" d="M209.90918,354.18945q-.03516,2.90919-1.0957,4.03907a3.07928,3.07928,0,0,1-2.63282.99609,3.79529,3.79529,0,0,1-2.44824-1.1543l1.02637-1.11719a3.188,3.188,0,0,0,1.51855.51563,1.60286,1.60286,0,0,0,1.29981-.38867,2.44579,2.44579,0,0,0,.6748-1.48731,2.85471,2.85471,0,0,1-1.88965.60743,3.05034,3.05034,0,0,1-2.24707-1.04786,3.12719,3.12719,0,0,1-.53418-2.28125,2.992,2.992,0,0,1,1.05957-2.06152,3.21507,3.21507,0,0,1,2.50586-.63477,2.97194,2.97194,0,0,1,2.04981,1.209A5.13506,5.13506,0,0,1,209.90918,354.18945Zm-1.82129-1.002q-.06152-1.27-1.458-1.32422-1.39746.05419-1.458,1.209a1.37582,1.37582,0,0,0,1.51855,1.51757A1.35267,1.35267,0,0,0,208.08789,353.1875Z"/><path class="cls-1" d="M211.52539,356.8252v-1.208H215.291v1.208Z"/><path class="cls-1" d="M219.2207,350.15039v-.00586h1.81641v9.11621H219.2207v-6.68066l-1.21484,1.21484-1.21484-1.21484Z"/><path class="cls-1" d="M228.52539,354.64453c.10938.041.209.08106.29785.12207a1.78467,1.78467,0,0,1,.94141,1.82227,2.33667,2.33667,0,0,1-1.00488,1.88281,3.68376,3.68376,0,0,1-2.3418.78906,5.38578,5.38578,0,0,1-2.11914-.36426,4.58165,4.58165,0,0,1-1.458-.97168l1.21484-1.21484a2.88323,2.88323,0,0,0,2.06446.85059q1.21581,0,1.51562-.5166a.9621.9621,0,0,0,0-1.03223q-.30028-.5171-2.11621-.57715v-1.63965q1.81494.12159,2.11621-.39551a.96209.96209,0,0,0,0-1.03222q-.30028-.51562-1.51562-.5166a2.16055,2.16055,0,0,0-1.76074.72949l-1.21485-1.21485a4.22154,4.22154,0,0,1,1.30567-.91113,5.08748,5.08748,0,0,1,1.96777-.30371,3.20775,3.20775,0,0,1,2.21973.79,2.44,2.44,0,0,1,.88378,1.88281,1.80235,1.80235,0,0,1-.81933,1.73047C228.64941,354.582,228.59082,354.6123,228.52539,354.64453Z"/><path class="cls-1" d="M231.77539,353.99512a2.34729,2.34729,0,1,1,1.62793.65625A2.20951,2.20951,0,0,1,231.77539,353.99512Zm1.60938-.42481a1.0868,1.0868,0,0,0,.832-.34668,1.31089,1.31089,0,0,0,0-1.72168,1.09833,1.09833,0,0,0-.83789-.34375,1.08448,1.08448,0,0,0-.82618.34375,1.31089,1.31089,0,0,0,0,1.72168A1.08681,1.08681,0,0,0,233.38477,353.57031Zm-.48536,5.69043,5.16211-9.11035H239.544l-5.1504,9.11035Zm4.52442-.60058a2.33465,2.33465,0,1,1,1.61523.64941A2.19389,2.19389,0,0,1,237.42383,358.66016Zm1.585-.44434a1.06725,1.06725,0,0,0,.81445-.33691,1.27058,1.27058,0,0,0,0-1.67579,1.07424,1.07424,0,0,0-.82031-.33691,1.05682,1.05682,0,0,0-.80762.33691,1.27058,1.27058,0,0,0,0,1.67579A1.06368,1.06368,0,0,0,239.00879,358.21582Z"/></svg>