<svg id="Content" xmlns="http://www.w3.org/2000/svg" width="320" height="568" viewBox="0 0 320 568"><defs><style>.cls-1{fill:#b89344;}</style></defs><title>Frame2 - Daytime CBD</title><path class="cls-1" d="M84.1748,310.03711h5.44532c3.44238,0,5.13183,1.90918,5.13183,5.41406v11.0791c0,3.50489-1.68945,5.41407-5.13183,5.41407H84.1748Zm3.44239,3.12988v15.64746h1.94043c1.09472,0,1.75195-.56347,1.75195-2.12793v-11.3916c0-1.56543-.65723-2.12793-1.75195-2.12793Z"/><path class="cls-1" d="M110.77246,331.94434h-3.47363l-.59473-3.97461h-4.22558l-.59375,3.97461H98.72363l3.50489-21.90723h5.03906Zm-7.85547-6.94825h3.31739L104.57617,313.918Z"/><path class="cls-1" d="M115.77637,324.68359l-4.34961-14.64648h3.59863l2.62891,9.9834,2.6289-9.9834h3.28614l-4.34961,14.64648v7.26075h-3.44336Z"/><path class="cls-1" d="M125.38184,310.03711h10.64062V313.167h-3.59863v18.77735h-3.44238V313.167h-3.59961Z"/><path class="cls-1" d="M140.21289,310.03711h3.44238v21.90723h-3.44238Z"/><path class="cls-1" d="M156.7666,325.59082l2.34766-15.55371h4.78808v21.90723h-3.25488V316.2334l-2.37891,15.71094h-3.25488l-2.56543-15.49122v15.49122h-3.00488V310.03711h4.78809Z"/><path class="cls-1" d="M173.16113,319.26953h4.72559v3.12891h-4.72559v6.416h5.94629v3.12989h-9.38867V310.03711h9.38867V313.167h-5.94629Z"/><path class="cls-1" d="M202.69922,323.77637v2.91015c0,3.50489-1.75293,5.50782-5.13281,5.50782s-5.13184-2.00293-5.13184-5.50782v-11.3916c0-3.50488,1.75195-5.50781,5.13184-5.50781s5.13281,2.00293,5.13281,5.50781v2.12793h-3.25488V315.0752c0-1.56446-.68848-2.15918-1.78321-2.15918-1.0957,0-1.78418.59472-1.78418,2.15918v11.83007c0,1.56543.68848,2.12793,1.78418,2.12793,1.09473,0,1.78321-.5625,1.78321-2.12793v-3.1289Z"/><path class="cls-1" d="M218.40625,315.0752v.7832c0,2.25293-.68848,3.69238-2.22168,4.41211,1.8457.71972,2.56641,2.3789,2.56641,4.69433V326.749c0,3.37989-1.78418,5.19532-5.22657,5.19532h-5.41406V310.03711h5.19434C216.87305,310.03711,218.40625,311.69531,218.40625,315.0752Zm-6.85352-1.90821v5.78906h1.34571c1.2832,0,2.06543-.56347,2.06543-2.31543v-1.2207c0-1.56445-.53223-2.25293-1.75293-2.25293Zm0,8.91895v6.72851h1.97168c1.15723,0,1.78321-.53222,1.78321-2.15918v-1.90918c0-2.03418-.65723-2.66015-2.22168-2.66015Z"/><path class="cls-1" d="M224.12988,310.03711h5.44532c3.44238,0,5.13281,1.90918,5.13281,5.41406v11.0791c0,3.50489-1.69043,5.41407-5.13281,5.41407h-5.44532Zm3.44239,3.12988v15.64746h1.94043c1.0957,0,1.75292-.56347,1.75292-2.12793v-11.3916c0-1.56543-.65722-2.12793-1.75292-2.12793Z"/></svg>