<svg id="Content" xmlns="http://www.w3.org/2000/svg" xmlns:xlink="http://www.w3.org/1999/xlink" width="320" height="568" viewBox="0 0 320 568"><defs><style>.cls-1{fill:url(#New_Gradient_Swatch_1);}.cls-2{fill:#fff;}.cls-3{fill:#b89344;}</style><linearGradient id="New_Gradient_Swatch_1" x1="141.32623" y1="396.06807" x2="181.85474" y2="396.06807" gradientUnits="userSpaceOnUse"><stop offset="0" stop-color="#a68834"/><stop offset="0.49324" stop-color="#c8ad67"/><stop offset="1" stop-color="#937f2e"/></linearGradient></defs><title>fruity</title><polygon class="cls-1" points="158.161 416.799 141.326 397.357 154.615 375.338 179.662 381.171 181.855 406.794 158.161 416.799"/><path class="cls-2" d="M169.76,390.51182c1.387-.42,1.77425-1.54116,2.59106-1.92837-1.61435-.6627-2.56217-.82837-3.51961-.37373a2.39433,2.39433,0,0,0-1.42364,1.77618,2.47036,2.47036,0,0,0,2.35219.52592"/><path class="cls-2" d="M166.769,392.8484a7.45743,7.45743,0,0,0-1.82628-5.63292.12557.12557,0,0,0-.17915-.00578l-.00578.00578-.37951.38915a.12766.12766,0,0,0-.00385.17337,6.7548,6.7548,0,0,1,1.58353,5.0993c-3.327-1.94956-6.82539.18108-6.66357,3.72a9.20893,9.20893,0,0,0,.28126,1.81856,15.61389,15.61389,0,0,0,7.10088,3.221,1.85823,1.85823,0,0,1,.90928.45272,1.34187,1.34187,0,0,1,.42767.94588l.01155.34869a1.90769,1.90769,0,0,1-.08476.61646,2.7077,2.7077,0,0,1-.12137.38529c2.77408.13678,5.40175-4.27478,5.56357-7.78861.16182-3.51961-3.30192-5.6464-6.61347-3.74886"/><path class="cls-2" d="M166.93039,402.79925a.91392.91392,0,0,0-.44116-.21576c-5.61172-1.11541-10.33536-4.31523-12.28877-10.92679a1.5098,1.5098,0,0,0-.1965-.37951.892.892,0,0,1-.13293-.50858l.04431-1.25411a.33893.33893,0,0,0-.3275-.35254h-.01348l-.66462.00578a.33833.33833,0,0,0-.33713.341.22082.22082,0,0,0,.00193.0366l.156,1.34658a.83728.83728,0,0,1-.183.54133,2.15568,2.15568,0,0,0-.21962,1.13276c-.13485,10.53764,6.98721,13.60839,13.56216,11.98825.83608-.20613.91506-.341.98634-.44116a1.49854,1.49854,0,0,0,.131-.37565.88271.88271,0,0,0,.05009-.32365l-.00964-.34675a.38161.38161,0,0,0-.11751-.26778"/><path class="cls-3" d="M142.1792,436.26172v-7.61914h5.35889v1.42187h-3.835v1.626h2.82911v1.417h-2.82911v3.1543Z"/><path class="cls-3" d="M153.23193,432.93945l1.89991,3.32227h-1.74756L151.561,433.1123H150.169v3.14942h-1.52344v-7.61914h3.32178q2.66674,0,2.6665,2.19433A1.9694,1.9694,0,0,1,153.23193,432.93945Zm-3.063-1.249h2.13378q.9192-.01611.94434-.83789-.0249-.75292-.9292-.7832H150.169Z"/><path class="cls-3" d="M157.33105,428.64258v4.41894a1.52745,1.52745,0,0,0,.50782,1.26953,2.184,2.184,0,0,0,2.54,0,1.52745,1.52745,0,0,0,.50781-1.26953v-4.41894h1.52392v4.82519a2.52547,2.52547,0,0,1-.93994,1.98145,3.839,3.839,0,0,1-4.72363,0,2.5255,2.5255,0,0,1-.93994-1.98145v-4.82519Z"/><path class="cls-3" d="M164.05664,428.6377h1.51856v7.624h-1.51856Z"/><path class="cls-3" d="M173.32178,428.64258v1.42187h-2.54v6.19727h-1.52393v-6.19727h-2.53955v-1.42187Z"/><path class="cls-3" d="M174.00732,428.64258h1.78809l1.76758,2.48926,1.8081-2.48926h1.74756l-2.79394,3.80957v3.80957h-1.52344v-3.80957Z"/></svg>