<svg id="Layer_1" data-name="Layer 1" xmlns="http://www.w3.org/2000/svg" xmlns:xlink="http://www.w3.org/1999/xlink" width="320" height="50" viewBox="0 0 320 50"><defs><style>.cls-1{fill:url(#linear-gradient);}.cls-2{fill:url(#linear-gradient-2);}.cls-3{fill:url(#linear-gradient-3);}.cls-4{fill:url(#linear-gradient-4);}.cls-5{fill:url(#linear-gradient-5);}.cls-6{fill:url(#linear-gradient-6);}.cls-7{fill:url(#linear-gradient-7);}.cls-8{fill:url(#linear-gradient-8);}.cls-9{fill:url(#linear-gradient-9);}.cls-10{fill:url(#linear-gradient-10);}</style><linearGradient id="linear-gradient" x1="120.18743" y1="24.61133" x2="127.08273" y2="24.61133" gradientTransform="matrix(1, 0, 0, -1, 0, 52)" gradientUnits="userSpaceOnUse"><stop offset="0" stop-color="#cab272"/><stop offset="0.20527" stop-color="#cdb36c"/><stop offset="0.4882" stop-color="#d4b75a"/><stop offset="0.50029" stop-color="#d4b759"/><stop offset="0.74962" stop-color="#d4b563"/><stop offset="1" stop-color="#d3b372"/></linearGradient><linearGradient id="linear-gradient-2" x1="130.38445" y1="24.61698" x2="137.24782" y2="24.61698" xlink:href="#linear-gradient"/><linearGradient id="linear-gradient-3" x1="140.52884" y1="24.61119" x2="146.35759" y2="24.61119" xlink:href="#linear-gradient"/><linearGradient id="linear-gradient-4" x1="149.28908" y1="24.61119" x2="156.68105" y2="24.61119" xlink:href="#linear-gradient"/><linearGradient id="linear-gradient-5" x1="158.01955" y1="24.61117" x2="164.40654" y2="24.61117" xlink:href="#linear-gradient"/><linearGradient id="linear-gradient-6" x1="167.57629" y1="24.61117" x2="174.12706" y2="24.61117" xlink:href="#linear-gradient"/><linearGradient id="linear-gradient-7" x1="177.4978" y1="24.61119" x2="183.32649" y2="24.61119" xlink:href="#linear-gradient"/><linearGradient id="linear-gradient-8" x1="190.71388" y1="24.61119" x2="192.761" y2="24.61119" xlink:href="#linear-gradient"/><linearGradient id="linear-gradient-9" x1="196.11681" y1="24.61115" x2="203.17375" y2="24.61115" xlink:href="#linear-gradient"/><linearGradient id="linear-gradient-10" x1="206.1053" y1="18.8383" x2="208.15242" y2="18.8383" xlink:href="#linear-gradient"/></defs><title>frame3</title><path class="cls-1" d="M120.18743,34.17781v-13.578h3.05951a3.90059,3.90059,0,0,1,2.18855.64019,2.98131,2.98131,0,0,1,1.19105,1.67491,4.79865,4.79865,0,0,1,.19355,1.44415,3.20667,3.20667,0,0,1-.72208,2.18855,2.1282,2.1282,0,0,1-.71463.52853,2.38791,2.38791,0,0,1,1.15384,1.02728,3.88513,3.88513,0,0,1,.469,1.33993,5.49469,5.49469,0,0,1,.07444.94539,4.571,4.571,0,0,1-.48387,2.18856,3.14128,3.14128,0,0,1-2.6203,1.60047Zm2.20344-8.03214h.85607a1.258,1.258,0,0,0,1.28038-.9305,2.67786,2.67786,0,0,0,.1191-.85607,1.79573,1.79573,0,0,0-.40942-1.28038,1.29957,1.29957,0,0,0-.99006-.402h-.85607Zm0,6.00736h.85607a1.45592,1.45592,0,0,0,1.44415-1.072,2.31644,2.31644,0,0,0,.14144-.84118,2.55569,2.55569,0,0,0-.4392-1.66,1.39015,1.39015,0,0,0-1.14638-.47642h-.85607Z"/><path class="cls-2" d="M133.60765,20.59985a3.10122,3.10122,0,0,1,2.50864.9454,3.41573,3.41573,0,0,1,.70718,2.29277v1.97267A3.15827,3.15827,0,0,1,135.731,28.2449l1.51682,5.93291h-2.20806l-1.24847-5.129c-.05955.005-.12125.00745-.18574.00745h-1.174v5.12151h-2.0471v-13.578Zm1.22083,3.27539a1.03815,1.03815,0,0,0-1.16518-1.18361h-1.23183v4.33989h1.23183a1.1109,1.1109,0,0,0,.82735-.346,1.14711,1.14711,0,0,0,.33781-.83019Z"/><path class="cls-3" d="M140.52884,34.17781v-13.578h5.8287V22.647H142.576v3.722h2.76174v2.04712H142.576V32.1307h3.78159v2.04712Z"/><path class="cls-4" d="M151.91682,31.05875l-.49874,3.11906h-2.129l2.30021-13.578h2.82131l2.27045,13.578h-2.14389l-.48386-3.11906Zm1.07195-7.34728-.75929,5.35227h1.51858Z"/><path class="cls-5" d="M160.19321,22.647h-2.17366V20.59985h6.387V22.647h-2.16621V34.17781h-2.04712Z"/><path class="cls-6" d="M169.6234,28.431v5.74681h-2.04711v-13.578h2.04711V26.369h2.45654V20.59985h2.04712v13.578h-2.04712V28.431Z"/><path class="cls-7" d="M177.4978,34.17781v-13.578h5.82869V22.647h-3.78158v3.722h2.76175v2.04712h-2.76175V32.1307h3.78158v2.04712Z"/><path class="cls-8" d="M192.761,34.17781h-2.04712v-13.578H192.761Z"/><path class="cls-9" d="M198.417,20.59985l2.70964,9.119v-9.119h2.0471v13.578H200.981l-2.817-8.69466v8.69466h-2.04715v-13.578Z"/><path class="cls-10" d="M206.1053,32.13814h2.04712v2.04711H206.1053Z"/></svg>