<svg id="Content" xmlns="http://www.w3.org/2000/svg" xmlns:xlink="http://www.w3.org/1999/xlink" width="320" height="568" viewBox="0 0 320 568"><defs><style>.cls-1{fill:url(#New_Gradient_Swatch_1);}.cls-2{fill:#fff;}.cls-3{fill:#ba9544;}</style><linearGradient id="New_Gradient_Swatch_1" x1="61.34205" y1="228.29776" x2="109.02267" y2="228.29776" gradientUnits="userSpaceOnUse"><stop offset="0" stop-color="#a88a34"/><stop offset="0.49324" stop-color="#caaf67"/><stop offset="1" stop-color="#957f2e"/></linearGradient></defs><title>sweet</title><polygon class="cls-1" points="81.148 252.687 61.342 229.814 76.976 203.909 106.444 210.772 109.023 240.917 81.148 252.687"/><path class="cls-2" d="M97.00464,220.03763a1.18391,1.18391,0,0,1-1.18307-1.18306,1.91419,1.91419,0,0,0-1.91511-1.91511h-.62553a1.2908,1.2908,0,0,0-1.29187,1.28958v4.46935a6.29473,6.29473,0,0,0-8.28142.5462l-1.19894,1.19893a6.29479,6.29479,0,0,0-.5462,8.28144H77.49315a1.28934,1.28934,0,0,0-1.28958,1.29185v.62552a1.91419,1.91419,0,0,0,1.91511,1.91512,1.18391,1.18391,0,0,1,1.18307,1.18306,1.91417,1.91417,0,0,0,1.91512,1.91511h.62553a1.29077,1.29077,0,0,0,1.29183-1.28959v-4.46934a6.29476,6.29476,0,0,0,8.28145-.54621l1.19891-1.19892a6.29467,6.29467,0,0,0,.5462-8.28144h4.46935a1.29078,1.29078,0,0,0,1.28958-1.29185v-.62553a1.91416,1.91416,0,0,0-1.91508-1.91511"/><path class="cls-3" d="M65.68311,267.25488a4.17569,4.17569,0,0,1,1.28466.89649L65.773,269.34668a2.05707,2.05707,0,0,0-1.67334-.7168q-1.07594,0-1.37451.50782a.69875.69875,0,0,0,0,.86621,2.35742,2.35742,0,0,0,1.37451.53808,4.44733,4.44733,0,0,1,2.06152.74707,2.24362,2.24362,0,0,1,.92627,2.002,2.3,2.3,0,0,1-.98877,1.85253,3.624,3.624,0,0,1-2.30371.77637,5.30676,5.30676,0,0,1-2.08594-.3584,4.5255,4.5255,0,0,1-1.43408-.956l1.19531-1.19531a2.84066,2.84066,0,0,0,2.03174.83691q1.19532,0,1.49121-.50781a.94911.94911,0,0,0,0-1.0166q-.29589-.50684-1.49121-.627a4.828,4.828,0,0,1-1.97216-.65722,1.98363,1.98363,0,0,1-.89649-1.85254,2.23,2.23,0,0,1,1.019-1.90918,3.58681,3.58681,0,0,1,2.09473-.72071A4.99985,4.99985,0,0,1,65.68311,267.25488Z"/><path class="cls-3" d="M74.13916,269.34668l-1.793,6.57324H70.55371l-2.39648-8.96387h1.91211l1.56005,6.09571,1.61329-6.09571h1.85253l1.55372,6.09571,1.55371-6.09571h1.91211l-2.39014,8.96387h-1.793Z"/><path class="cls-3" d="M81.41748,275.91992v-8.958l6.58545-.00586v1.67383H83.21045V270.542h3.59131v1.667H83.21045v2.03809h4.78076v1.67285Z"/><path class="cls-3" d="M89.78369,275.91992v-8.958l6.58545-.00586v1.67383H91.57666V270.542H95.168v1.667H91.57666v2.03809h4.78076v1.67285Z"/><path class="cls-3" d="M105.48828,266.95605v1.67383h-2.98779v7.29h-1.793v-7.29H97.71973v-1.67383Z"/></svg>