<svg xmlns="http://www.w3.org/2000/svg" width="727.99955" height="90" viewBox="0 0 727.99955 90"><defs><style>.cls-1{fill:#ba9544;}</style></defs><title>Frame1 - Shishkaberry</title><g id="Content"><path class="cls-1" d="M205.28534,34.65137c3.42382,0,5.18359,2.04785,5.18359,5.63183v.7041h-3.32715v-.92871c0-1.59961-.64062-2.207-1.76074-2.207s-1.75977.60742-1.75977,2.207c0,4.6084,6.87989,5.47168,6.87989,11.8711,0,3.584-1.792,5.63183-5.24805,5.63183-3.45508,0-5.24805-2.04785-5.24805-5.63183v-1.376h3.32813V52.1543c0,1.59961.7041,2.17578,1.82422,2.17578,1.11914,0,1.82421-.57617,1.82421-2.17578,0-4.6084-6.87988-5.47168-6.87988-11.8711C200.10174,36.69922,201.86151,34.65137,205.28534,34.65137Z"/><path class="cls-1" d="M219.42889,57.30566h-3.51953V34.90723h3.51953v9.59961h4V34.90723h3.584V57.30566h-3.584V47.70605h-4Z"/><path class="cls-1" d="M232.965,34.90723h3.52051V57.30566H232.965Z"/><path class="cls-1" d="M247.17205,34.65137c3.42383,0,5.1836,2.04785,5.1836,5.63183v.7041H249.0285v-.92871c0-1.59961-.64063-2.207-1.76074-2.207s-1.75977.60742-1.75977,2.207c0,4.6084,6.87988,5.47168,6.87988,11.8711,0,3.584-1.792,5.63183-5.248,5.63183-3.45508,0-5.248-2.04785-5.248-5.63183v-1.376h3.32813V52.1543c0,1.59961.7041,2.17578,1.82421,2.17578,1.11915,0,1.82422-.57617,1.82422-2.17578,0-4.6084-6.87988-5.47168-6.87988-11.8711C241.98846,36.69922,243.74823,34.65137,247.17205,34.65137Z"/><path class="cls-1" d="M261.31561,57.30566h-3.51953V34.90723h3.51953v9.59961h4V34.90723h3.584V57.30566h-3.584V47.70605h-4Z"/><path class="cls-1" d="M279.46014,48.37793l-1.08789,2.04785v6.87988h-3.52051V34.90723h3.52051V44.667l4.60742-9.75976h3.51953l-4.89648,9.98339,4.89648,12.415H282.884Z"/><path class="cls-1" d="M302.882,57.30566h-3.55079l-.60839-4.06347H294.4035l-.6084,4.06347h-3.23144l3.584-22.39843H299.299Zm-8.03125-7.10351h3.39257L296.54705,38.875Z"/><path class="cls-1" d="M318.43475,40.05859v.79981c0,2.30469-.7041,3.77637-2.27148,4.51172,1.88769.73633,2.623,2.43261,2.623,4.7998v1.82422c0,3.45606-1.82324,5.31152-5.34375,5.31152h-5.53515V34.90723h5.31152C316.86639,34.90723,318.43475,36.60352,318.43475,40.05859Zm-7.00781-1.95117v5.919h1.377c1.31055,0,2.11133-.57617,2.11133-2.36719v-1.248c0-1.60058-.54395-2.30371-1.792-2.30371Zm0,9.11914v6.87891h2.01562c1.18457,0,1.82422-.54395,1.82422-2.207V49.94629c0-2.08008-.67187-2.71973-2.27148-2.71973Z"/><path class="cls-1" d="M327.8117,44.34668h4.83106V47.5459H327.8117v6.55957h6.0791v3.20019h-9.59961V34.90723h9.59961v3.20019h-6.0791Z"/><path class="cls-1" d="M346.81756,57.30566a6.90566,6.90566,0,0,1-.31933-2.752V51.03418c0-2.08008-.70411-2.84766-2.30371-2.84766h-1.21583v9.11914h-3.5205V34.90723h5.3125c3.64746,0,5.21484,1.69629,5.21484,5.15136v1.75977c0,2.30469-.73535,3.80859-2.30273,4.54394,1.75976.73633,2.33593,2.43165,2.33593,4.76758v3.45606a6.60352,6.60352,0,0,0,.38282,2.71972Zm-3.83887-19.19824v6.87891h1.376c1.31152,0,2.11133-.57617,2.11133-2.36719v-2.208c0-1.60058-.543-2.30371-1.791-2.30371Z"/><path class="cls-1" d="M363.0744,57.30566a6.87839,6.87839,0,0,1-.32031-2.752V51.03418c0-2.08008-.70411-2.84766-2.30372-2.84766h-1.21582v9.11914H355.715V34.90723h5.31153c3.64746,0,5.21582,1.69629,5.21582,5.15136v1.75977c0,2.30469-.73633,3.80859-2.30469,4.54394,1.76074.73633,2.33594,2.43165,2.33594,4.76758v3.45606a6.603,6.603,0,0,0,.38379,2.71972Zm-3.83985-19.19824v6.87891h1.376c1.31152,0,2.11133-.57617,2.11133-2.36719v-2.208c0-1.60058-.54395-2.30371-1.792-2.30371Z"/><path class="cls-1" d="M375.2658,49.88184l-4.44726-14.97461h3.67969l2.6875,10.207,2.68847-10.207h3.35938l-4.44727,14.97461v7.42382H375.2658Z"/></g></svg>