<svg id="Content" xmlns="http://www.w3.org/2000/svg" xmlns:xlink="http://www.w3.org/1999/xlink" width="300" height="250" viewBox="0 0 300 250"><defs><style>.cls-1{fill:#ba9544;}.cls-2{fill:#fff;stroke:#ba9544;stroke-miterlimit:10;stroke-width:0.5px;}.cls-3{clip-path:url(#clip-path);}</style><clipPath id="clip-path"><polygon class="cls-1" points="162.334 175.334 167.967 183.313 168.077 183.323 168.077 167.214 167.967 167.21 162.334 175.334"/></clipPath></defs><title>CBD - MK Ultra</title><polygon class="cls-2" points="279.428 167.615 167.844 167.192 162.211 175.315 167.844 183.294 279.428 183.104 284.498 175.36 279.428 167.615"/><polygon class="cls-1" points="162.334 175.334 167.967 183.313 168.077 183.323 168.077 167.214 167.967 167.21 162.334 175.334"/><g class="cls-3"><rect class="cls-1" x="161.08804" y="165.96511" width="8.2322" height="18.60287"/></g><path class="cls-1" d="M227.76663,177.99477A2.732,2.732,0,0,1,229.71,173.317a2.95288,2.95288,0,0,1,2.00684.72851l-.72852.79688a2.01546,2.01546,0,0,0-1.27832-.43652,1.5565,1.5565,0,0,0-1.63476,1.624,1.63131,1.63131,0,0,0,.45508,1.209,1.6108,1.6108,0,0,0,1.1875.44825,1.95508,1.95508,0,0,0,1.2705-.4336l.72852.79785a2.94706,2.94706,0,0,1-2.00684.72852A2.65576,2.65576,0,0,1,227.76663,177.99477Z"/><path class="cls-1" d="M236.77249,175.89907a1.55163,1.55163,0,0,1-.88867,2.88477l-3.07422-.00391v-5.46H235.709q1.37988.08056,1.456,1.60644A1.14234,1.14234,0,0,1,236.77249,175.89907Zm-2.86621-.38965h1.5293a.61766.61766,0,0,0,.67773-.68164c-.01269-.2666-.23437-.40723-.667-.42187h-1.54Zm0,2.418h1.78418a.7132.7132,0,0,0,.78711-.79q-.019-.52441-.77637-.5459h-1.79492Z"/><path class="cls-1" d="M238.62308,178.77993v-5.4668h2.10449q2.5503,0,2.54981,2.73535,0,2.73193-2.54981,2.73145Zm2.10449-1.08887q1.45313-.00439,1.457-1.64258-.00293-1.63915-1.457-1.63867h-1.01172v3.28125Z"/><path class="cls-1" d="M244.4971,175.29653a.52811.52811,0,0,1,.39356-.14746.54788.54788,0,0,1,.4082.14746.4999.4999,0,0,1,.14551.36621.49318.49318,0,0,1-.14551.36328.62176.62176,0,0,1-.80176,0,.49318.49318,0,0,1-.14551-.36328A.4999.4999,0,0,1,244.4971,175.29653Zm0,2.60742a.52811.52811,0,0,1,.39356-.14746.54788.54788,0,0,1,.4082.14746.50306.50306,0,0,1,.14551.36621.497.497,0,0,1-.14551.36426.625.625,0,0,1-.80176,0,.497.497,0,0,1-.14551-.36426A.50306.50306,0,0,1,244.4971,177.904Z"/><path class="cls-1" d="M252.31351,174.88247l-2.11328,1.166,2.11328,1.165v.83789l-3.45313-1.89746v-.23632l3.45313-1.87208Z"/><path class="cls-1" d="M257.04495,173.317v-.00391h1.08887v5.4668h-1.08887v-4.00586l-.72851.72754-.72852-.72754Z"/></svg>