<svg id="Content" xmlns="http://www.w3.org/2000/svg" xmlns:xlink="http://www.w3.org/1999/xlink" width="300" height="250" viewBox="0 0 300 250"><defs><style>.cls-1{fill:url(#New_Gradient_Swatch_1);}.cls-2{fill:#fff;}.cls-3{fill:#ba9544;}</style><linearGradient id="New_Gradient_Swatch_1" x1="255.24934" y1="154.83537" x2="283.65695" y2="154.83537" gradientUnits="userSpaceOnUse"><stop offset="0" stop-color="#a88a34"/><stop offset="0.49324" stop-color="#caaf67"/><stop offset="1" stop-color="#957f2e"/></linearGradient><image id="image" width="1500" height="1429" xlink:href="../../../../../Dropbox%20(Revolution%20Strategy)/Rocio%20Ugarte/Clients/Namaste/Digital%20Ads/_Flight%202:Phase%202%20Terpene/1.%20Animated%20w:%20Packaging/5.%20Big%20Box%20300%20x%20250/300%20x%20250_Folder/Links/LargeTopDown-8195-DaytimeCBD.png"/></defs><title>earthy</title><polygon class="cls-1" points="280.82 144.996 266.615 140.073 255.249 149.912 258.088 164.675 272.291 169.598 283.657 159.759 280.82 144.996"/><path class="cls-2" d="M273.022,158.28881a3.32615,3.32615,0,0,0-1.66137-1.53651,1.62993,1.62993,0,0,0-1.2443.1221,3.47339,3.47339,0,0,0-.65027-.16737,6.79444,6.79444,0,0,1,1.38149-2.72182c.03567.00137.07.00137.10427.00137.13443.00137.26751.00275.39922.00275,1.54611,0,2.91661-.20441,2.988-2.99756a4.30233,4.30233,0,0,1,.58168-1.30878l.21264-.34846h-.40881a4.42426,4.42426,0,0,0-4.41885,4.42021v.20852c-.16736.24008-.32513.47879-.47056.71475a5.6694,5.6694,0,0,0-5.65215-5.34348h-.40883l.21264.34846a5.60528,5.60528,0,0,1,.76415,1.73132c.09053,3.56,1.8397,3.82069,3.81383,3.82069.16875,0,.33885-.00137.509-.00412.14816-.00137.29769-.00274.4486-.00274a4.37656,4.37656,0,0,0-.51308,1.4391,2.07043,2.07043,0,0,0-1.96729,1.08928,2.595,2.595,0,0,0-2.11543.11387,2.54465,2.54465,0,0,0-.974,2.22931l-.00687.236H274.8877l.04253-.1756a1.3806,1.3806,0,0,0-.23047-1.04949,2.31785,2.31785,0,0,0-1.6778-.82176"/><path class="cls-3" d="M253.459,185.03493V179.613l3.98633-.0039v1.01269H254.544v1.15723h2.17383v1.00976H254.544v1.2334h2.89356v1.0127Z"/><path class="cls-3" d="M258.252,185.03493l2.16992-5.42578h1.08594l2.166,5.42187-1.15332.00391-.32617-.832h-2.459l-.32617.832Zm2.74219-3.97852-.8252,2.06152h1.62793Z"/><path class="cls-3" d="M267.751,182.66969l1.35352,2.36524h-1.24414l-1.29883-2.24317h-.99121v2.24317h-1.085v-5.42578h2.36523q1.8999,0,1.89942,1.5625A1.40357,1.40357,0,0,1,267.751,182.66969Zm-2.18066-.89062h1.51953q.65333-.01026.67285-.59668-.019-.53467-.66211-.55664h-1.53027Z"/><path class="cls-3" d="M274.09572,179.60915v1.01269h-1.80859v4.41309h-1.085v-4.41309h-1.80859v-1.01269Z"/><path class="cls-3" d="M274.90334,185.03493v-5.42578h1.085v2.16992h2.52832v-2.17383h1.085V185.031l-1.085.00391v-2.24317H275.9883v2.24317Z"/><path class="cls-3" d="M280.45607,179.60915h1.27246l1.25977,1.77246,1.28711-1.77246h1.24414l-1.98926,2.71289v2.71289h-1.085V182.322Z"/><use transform="translate(-30.31418 -215.58543) scale(0.16637)" xlink:href="#image"/><use transform="translate(288.96119 -215.58543) scale(0.16637)" xlink:href="#image"/><image width="1500" height="1429" transform="translate(288.96119 54.16968) scale(0.16637)" xlink:href="../../../../../Dropbox%20(Revolution%20Strategy)/Rocio%20Ugarte/Clients/Namaste/Digital%20Ads/_Flight%202:Phase%202%20Terpene/1.%20Animated%20w:%20Packaging/5.%20Big%20Box%20300%20x%20250/300%20x%20250_Folder/Links/LargeTopDown-8282-DurgaMata2.png"/></svg>