<svg id="Layer_1" data-name="Layer 1" xmlns="http://www.w3.org/2000/svg" width="300" height="600" viewBox="0 0 300 600"><defs><style>.cls-1{fill:#ab9555;}</style></defs><title>frame3</title><path class="cls-1" d="M77.0152,313.75488v-21.375h4.82325a6.14406,6.14406,0,0,1,3.44336,1.00586,4.68015,4.68015,0,0,1,1.875,2.64209,7.45527,7.45527,0,0,1,.30664,2.2666,5.01737,5.01737,0,0,1-1.1416,3.44287,3.23653,3.23653,0,0,1-1.125.83594,3.74139,3.74139,0,0,1,1.82324,1.61914,6.2827,6.2827,0,0,1,.7334,2.11328,8.47654,8.47654,0,0,1,.11914,1.4834,7.13887,7.13887,0,0,1-.76661,3.44239,4.93754,4.93754,0,0,1-4.125,2.52343Zm3.47657-12.64843h1.34668a1.97308,1.97308,0,0,0,2.01172-1.46534,4.178,4.178,0,0,0,.1875-1.34668,2.8167,2.8167,0,0,0-.64747-2.01123,2.0399,2.0399,0,0,0-1.55175-.63037H80.49177Zm0,9.46093h1.34668a2.28689,2.28689,0,0,0,2.26757-1.6875,3.71585,3.71585,0,0,0,.22168-1.33008,4.04265,4.04265,0,0,0-.68261-2.60742,2.19759,2.19759,0,0,0-1.80664-.75H80.49177Z"/><path class="cls-1" d="M98.62653,292.397a4.91117,4.91117,0,0,1,3.9541,1.48291,5.38639,5.38639,0,0,1,1.1084,3.61377v3.10205a4.98986,4.98986,0,0,1-1.72168,3.835l2.38575,9.32422h-3.4834l-1.95313-8.0459H96.76813v8.0459h-3.2207V292.397Zm1.92578,5.14746a1.63467,1.63467,0,0,0-1.84082-1.85791H96.76813v6.835h1.94336a1.764,1.764,0,0,0,1.30469-.54492,1.807,1.807,0,0,0,.53613-1.3125Z"/><path class="cls-1" d="M109.99567,313.75488v-21.375h9.16993v3.23877h-5.94922v5.82959h4.34668v3.23828h-4.34668v5.8291h5.94922v3.23926Z"/><path class="cls-1" d="M128.398,308.8457l-.78223,4.90918H124.2613l3.63086-21.35791h4.43164l3.5791,21.35791h-3.3877l-.7539-4.90918Zm1.69238-11.55664L128.897,305.709h2.38672Z"/><path class="cls-1" d="M141.90192,295.63574h-3.42578V292.397h10.05664v3.23877H145.1236v18.11914h-3.22168Z"/><path class="cls-1" d="M157.22517,304.70312v9.05176h-3.22071V292.397h3.22071v9.06787h3.88671V292.397h3.22168v21.35791h-3.22168v-9.05176Z"/><path class="cls-1" d="M170.09333,313.75488v-21.375h9.16992v3.23877H173.314v5.82959h4.34668v3.23828H173.314v5.8291h5.94922v3.23926Z"/><path class="cls-1" d="M197.77106,313.75488h-3.2207V292.397h3.2207Z"/><path class="cls-1" d="M207.149,292.37988l4.27539,14.36524V292.37988h3.22168v21.375h-3.46l-4.43261-13.6875v13.6875h-3.22071v-21.375Z"/><path class="cls-1" d="M219.74177,310.5498h3.2207v3.22168h-3.2207Z"/></svg>