<svg id="Content" xmlns="http://www.w3.org/2000/svg" width="320" height="50" viewBox="0 0 320 50"><defs><style>.cls-1{fill:#fff;stroke:#ba9544;stroke-miterlimit:10;stroke-width:0.5px;}.cls-2{fill:#ba9544;}</style></defs><title>THC - Sensi Star</title><polygon class="cls-1" points="183.303 10.679 104.746 10.381 100.78 16.1 104.746 21.717 183.303 21.583 186.872 16.131 183.303 10.679"/><polygon class="cls-2" points="104.803 10.381 100.837 16.1 104.803 21.717 116.842 21.717 116.883 10.381 104.803 10.381"/><path class="cls-2" d="M149.709,14.291v.71875h-1.28222V18.1377h-.76953V15.00977H146.375V14.291Z"/><path class="cls-2" d="M150.28027,18.1377V14.291h.76953v1.53906h1.792v-1.541h.76953v3.84571l-.76953.00293V16.54785h-1.792V18.1377Z"/><path class="cls-2" d="M154.80371,17.585a1.92437,1.92437,0,0,1,1.36817-3.29394,2.08311,2.08311,0,0,1,1.41308.51367l-.51269.56152a1.419,1.419,0,0,0-.90039-.30762,1.12814,1.12814,0,0,0-.834.32227,1.1167,1.1167,0,0,0-.31738.82129,1.15031,1.15031,0,0,0,.32129.85058,1.132,1.132,0,0,0,.83593.31543,1.37917,1.37917,0,0,0,.89454-.30468l.51269.56152a2.07531,2.07531,0,0,1-1.41308.5127A1.87309,1.87309,0,0,1,154.80371,17.585Z"/><path class="cls-2" d="M158.44629,15.68555a.37258.37258,0,0,1,.27734-.1045.3852.3852,0,0,1,.28711.1045.37292.37292,0,0,1,0,.51367.43966.43966,0,0,1-.56445,0,.37292.37292,0,0,1,0-.51367Zm0,1.83593a.37261.37261,0,0,1,.27734-.10449.38524.38524,0,0,1,.28711.10449.37293.37293,0,0,1,0,.51368.43966.43966,0,0,1-.56445,0,.37293.37293,0,0,1,0-.51368Z"/><path class="cls-2" d="M162.542,14.291v-.002h.7666V18.1377h-.7666V15.31738l-.51269.5127-.51368-.5127Z"/><path class="cls-2" d="M164.0752,16.26855a2.33265,2.33265,0,0,1,.39746-1.44531,1.30171,1.30171,0,0,1,1.06445-.52929,1.61874,1.61874,0,0,1,1.07715.38183l-.38477.5127a1.358,1.358,0,0,0-.65918-.15332.67863.67863,0,0,0-.53027.21777,1.03265,1.03265,0,0,0-.2207.6543,1.19163,1.19163,0,0,1,.76855-.334,1.2793,1.2793,0,0,1,.98731.34668,1.32246,1.32246,0,0,1,.32128.93555,1.26085,1.26085,0,0,1-.35937.91015,1.35866,1.35866,0,0,1-1.02539.37208,1.285,1.285,0,0,1-1.10254-.52051A2.3818,2.3818,0,0,1,164.0752,16.26855Zm.84668.58985q.0249.53613.61523.55859.59032-.02343.61523-.50976a.58062.58062,0,0,0-.64062-.64161A.57162.57162,0,0,0,164.92188,16.8584Z"/><path class="cls-2" d="M167.58789,17.10938v-.50977h1.58984v.50977Z"/><path class="cls-2" d="M171.22656,14.291a1.44614,1.44614,0,0,1,.92383.28418,1.0075,1.0075,0,0,1,.36035.84472,1.75875,1.75875,0,0,1-.51172,1.2207,3.53373,3.53373,0,0,1-.84472.72754h1.38476v.76954h-2.59179v-.76954q.25633,0,.97363-.64062a3.68481,3.68481,0,0,0,.834-.91016.63183.63183,0,0,0-.01269-.53906q-.12891-.26806-.61621-.26855a.8828.8828,0,0,0-.71778.30761l-.51269-.51269a2.11591,2.11591,0,0,1,.5-.38477A1.916,1.916,0,0,1,171.22656,14.291Z"/><path class="cls-2" d="M173.64355,17.585a2.34391,2.34391,0,0,1-.38378-1.37012,2.34394,2.34394,0,0,1,.38378-1.37207,1.23051,1.23051,0,0,1,2.05274,0,2.34387,2.34387,0,0,1,.38379,1.37207,2.34071,2.34071,0,0,1-.38379,1.3711,1.22989,1.22989,0,0,1-2.05274-.001Zm1.02833-.165q.25488,0,.44628-.34668a2.01335,2.01335,0,0,0,0-1.71777q-.19189-.34571-.45117-.3457c-.16894,0-.31836.11523-.44629.3457a2.01345,2.01345,0,0,0,0,1.71777Q174.4126,17.42042,174.67188,17.41992Z"/><path class="cls-2" d="M176.99512,15.915a.9933.9933,0,1,1,.6875.27637A.9351.9351,0,0,1,176.99512,15.915Zm.67968-.17969a.4584.4584,0,0,0,.35157-.14648.51353.51353,0,0,0,.13574-.36426.50717.50717,0,0,0-.13574-.36231.46383.46383,0,0,0-.35352-.1455.45464.45464,0,0,0-.34863.1455.50791.50791,0,0,0-.13672.36231.51428.51428,0,0,0,.13672.36426A.45483.45483,0,0,0,177.6748,15.73535Zm-.20507,2.40235,2.17968-3.84668h.626l-2.1748,3.84668Zm1.91015-.25391a.985.985,0,1,1,.68262.27441A.92623.92623,0,0,1,179.37988,17.88379Zm.66992-.1875a.44864.44864,0,0,0,.34278-.1416.5008.5008,0,0,0,.13379-.35547.49534.49534,0,0,0-.13379-.35254.45282.45282,0,0,0-.3457-.14258.4466.4466,0,0,0-.34083.14258.49538.49538,0,0,0-.13378.35254.50084.50084,0,0,0,.13378.35547A.4493.4493,0,0,0,180.0498,17.69629Z"/></svg>