<svg id="Layer_1" data-name="Layer 1" xmlns="http://www.w3.org/2000/svg" width="970" height="250" viewBox="0 0 970 250"><defs><style>.cls-1{fill:#fff;}</style></defs><title>reflection</title><path class="cls-1" d="M449.5958,168.9542h-3.53186V145.52831h5.0602l3.28784,16.79883,3.15941-16.79883h4.86755V168.9542h-3.53186v-14.717l-3.05239,14.717H453.02l-3.42423-14.6791Z"/><path class="cls-1" d="M472.17282,145.247a5.60229,5.60229,0,0,1,5.61245,5.61184v12.77953a5.6002,5.6002,0,0,1-5.61245,5.61184,5.34268,5.34268,0,0,1-3.949-1.64392,5.43845,5.43845,0,0,1-1.625-3.96792V150.85883a5.60028,5.60028,0,0,1,5.57392-5.61184Zm1.92647,5.54579a1.99347,1.99347,0,0,0-2.01637-2.01454,1.97822,1.97822,0,0,0-1.43232.58344,1.92516,1.92516,0,0,0-.5969,1.4311V163.6139a1.93214,1.93214,0,0,0,.5969,1.42375,1.96558,1.96558,0,0,0,1.43232.59078,2.00565,2.00565,0,0,0,2.01637-2.01453Z"/><path class="cls-1" d="M487.51914,145.52831a5.35214,5.35214,0,0,1,4.32875,1.63169,5.89307,5.89307,0,0,1,1.21949,3.95569v3.40282a5.4461,5.4461,0,0,1-1.88488,4.20032l2.61755,10.23537h-3.80891l-2.1552-8.84831c-.10274.00856-.20916.01223-.32046.01223h-2.02555v8.83608h-3.53186V145.52831Zm2.10628,5.651a1.791,1.791,0,0,0-2.00965-2.04144h-2.12584v7.48693h2.12584a1.91636,1.91636,0,0,0,1.42743-.5969,1.98121,1.98121,0,0,0,.58222-1.43109Z"/><path class="cls-1" d="M497.883,168.9542V145.52831h10.05678v3.53248h-6.52431v6.42157h4.76419v3.53247h-4.76419v6.40811h6.52431v3.53126Z"/><path class="cls-1" d="M523.93861,145.52831a5.34944,5.34944,0,0,1,4.32753,1.63169,5.89339,5.89339,0,0,1,1.22071,3.95569v3.40282a5.45014,5.45014,0,0,1-1.88488,4.20032l2.61633,10.23537h-3.80891l-2.154-8.84831c-.10274.00856-.20916.01223-.32046.01223H521.9094v8.83608h-3.53125V145.52831Zm2.10628,5.651a1.791,1.791,0,0,0-2.00965-2.04144H521.9094v7.48693h2.12584a1.91636,1.91636,0,0,0,1.42743-.5969,1.98121,1.98121,0,0,0,.58222-1.43109Z"/><path class="cls-1" d="M534.30242,168.9542V145.52831H544.358v3.53248h-6.52431v6.42157h4.76419v3.53247h-4.76419v6.40811H544.358v3.53126Z"/><path class="cls-1" d="M551.36911,168.9542h-3.53125V145.52831h10.05557v3.53248h-6.52432v6.42157h4.76419v3.53247h-4.76419Z"/><path class="cls-1" d="M571.00443,168.9542H561.3733V145.52831h3.53126v19.92032h6.09987Z"/><path class="cls-1" d="M574.47331,168.9542V145.52831h10.05556v3.53248h-6.52431v6.42157h4.76419v3.53247h-4.76419v6.40811h6.52431v3.53126Z"/><path class="cls-1" d="M593.60836,169.2502a5.56905,5.56905,0,0,1-5.59961-5.58738V150.83314a5.5929,5.5929,0,1,1,11.18576,0v2.67137h-3.6609v-2.7362a2.04,2.04,0,0,0-2.04145-2.04144,1.92746,1.92746,0,0,0-1.425.59812,1.96891,1.96891,0,0,0-.592,1.44332v12.8566a2.01919,2.01919,0,0,0,2.017,2.02921,1.97735,1.97735,0,0,0,1.44455-.59078,1.9445,1.9445,0,0,0,.5969-1.43843v-3.223h3.6609v3.26093a5.57926,5.57926,0,0,1-5.58615,5.58738Z"/><path class="cls-1" d="M606.42459,149.06079h-3.7502v-3.53248h11.01819v3.53248h-3.73674V168.9542h-3.53125Z"/><path class="cls-1" d="M621.11469,168.9542h-3.53125V145.52831h3.53125Z"/><path class="cls-1" d="M630.8608,145.247a5.60229,5.60229,0,0,1,5.61306,5.61184v12.77953a5.6002,5.6002,0,0,1-5.61306,5.61184,5.34133,5.34133,0,0,1-3.94835-1.64392,5.43789,5.43789,0,0,1-1.62435-3.96792V150.85883a5.60029,5.60029,0,0,1,5.5727-5.61184Zm1.92769,5.54579a1.99448,1.99448,0,0,0-2.017-2.01454,1.97822,1.97822,0,0,0-1.43232.58344,1.9252,1.9252,0,0,0-.5969,1.4311V163.6139a1.93218,1.93218,0,0,0,.5969,1.42375,1.96558,1.96558,0,0,0,1.43232.59078,2.00668,2.00668,0,0,0,2.017-2.01453Z"/><path class="cls-1" d="M644.5895,145.52831l4.6749,15.73346V145.52831h3.53248V168.9542h-3.78322l-4.86083-15.00079V168.9542h-3.53125V145.52831Z"/><path class="cls-1" d="M656.27553,165.4364h3.53125v3.53125h-3.53125Z"/></svg>