<svg id="Layer_1" data-name="Layer 1" xmlns="http://www.w3.org/2000/svg" xmlns:xlink="http://www.w3.org/1999/xlink" width="64.25" height="90.10714" viewBox="0 0 64.25 90.10714"><defs><style>.cls-1{fill:url(#New_Gradient_Swatch_1);}.cls-2{fill:#fff;}.cls-3{fill:#ba9544;}</style><linearGradient id="New_Gradient_Swatch_1" x1="3.58863" y1="29.58588" x2="60.51965" y2="29.58588" gradientUnits="userSpaceOnUse"><stop offset="0" stop-color="#a88a34"/><stop offset="0.49324" stop-color="#caaf67"/><stop offset="1" stop-color="#957f2e"/></linearGradient></defs><title>earthy</title><polygon class="cls-1" points="54.834 9.867 26.367 0 3.589 19.718 9.277 49.304 37.741 59.172 60.52 39.453 54.834 9.867"/><path class="cls-2" d="M39.20631,36.50684a6.66574,6.66574,0,0,0-3.32951-3.07929,3.26651,3.26651,0,0,0-2.49366.2447,6.96084,6.96084,0,0,0-1.3032-.33543c.176-1.49015,1.317-3.46968,2.76862-5.45472.07148.00275.1402.00275.209.00275.26942.00274.5361.00549.80007.00549,3.09852,0,5.84512-.40965,5.98809-6.00734a8.62215,8.62215,0,0,1,1.16572-2.62289l.42614-.69833h-.81928a8.86655,8.86655,0,0,0-8.85571,8.85843v.41789c-.33541.48115-.6516.95954-.943,1.43242A11.36192,11.36192,0,0,0,21.49216,18.56178h-.81932l.42614.69833A11.23388,11.23388,0,0,1,22.6304,22.7298c.18144,7.13459,3.6869,7.657,7.64322,7.657.33817,0,.67907-.00274,1.02-.00825.29693-.00275.59659-.0055.899-.0055a8.7707,8.7707,0,0,0-1.02825,2.88408,4.14928,4.14928,0,0,0-3.9426,2.183,5.2007,5.2007,0,0,0-4.23949.2282c-1.229.77531-1.88335,2.27922-1.95206,4.46771l-.01376.47289h21.9289l.08524-.35192a2.76692,2.76692,0,0,0-.46189-2.10326,4.64515,4.64515,0,0,0-3.36245-1.64687"/><path class="cls-3" d="M0,90.10714V79.24093l7.98926-.00781v2.03027H2.1748v2.31934H6.53223v2.02246H2.1748v2.47168H7.97461v2.03027Z"/><path class="cls-3" d="M9.60645,90.10714l4.3496-10.874h2.17481l4.3418,10.86719-2.3125.00683-.65235-1.667H12.57812l-.65234,1.667Zm5.49414-7.97461-1.65235,4.13282H16.71Z"/><path class="cls-3" d="M28.6416,85.36593l2.71192,4.74121H28.85938L26.25684,85.613H24.27051v4.49414H22.0957v-10.874h4.74121q3.80567,0,3.80567,3.13184A2.81161,2.81161,0,0,1,28.6416,85.36593Zm-4.37109-1.7832h3.04492q1.311-.022,1.34863-1.19629-.03661-1.07226-1.32715-1.11621h-3.0664Z"/><path class="cls-3" d="M41.35742,79.23312v2.03027h-3.624v8.84375H35.55859V81.26339h-3.625V79.23312Z"/><path class="cls-3" d="M42.97363,90.10714v-10.874h2.17481v4.34961h5.06738V79.22628h2.1748v10.874l-2.1748.00683V85.613H45.14844v4.49414Z"/><path class="cls-3" d="M54.10156,79.23312h2.55176l2.52246,3.55176,2.58106-3.55176H64.25l-3.98633,5.4375v5.43652h-2.1748V84.67062Z"/></svg>