<svg xmlns="http://www.w3.org/2000/svg" xmlns:xlink="http://www.w3.org/1999/xlink" width="970" height="250" viewBox="0 0 970 250"><defs><style>.cls-1{fill:none;}.cls-2{fill:url(#New_Gradient_Swatch_2);}.cls-3{isolation:isolate;}.cls-4{clip-path:url(#clip-path);}.cls-5{clip-path:url(#clip-path-2);}.cls-6{clip-path:url(#clip-path-3);}.cls-7{clip-path:url(#clip-path-4);}.cls-8{opacity:0.65882;}.cls-9{clip-path:url(#clip-path-5);}.cls-10{clip-path:url(#clip-path-6);}.cls-11{clip-path:url(#clip-path-7);}.cls-12{clip-path:url(#clip-path-8);}.cls-13{clip-path:url(#clip-path-9);}.cls-14{clip-path:url(#clip-path-10);}.cls-15{mix-blend-mode:multiply;}.cls-16{clip-path:url(#clip-path-11);}.cls-17{fill:url(#New_Gradient_Swatch_1);}.cls-18{fill:url(#linear-gradient);}.cls-19{fill:url(#linear-gradient-2);}.cls-20{fill:url(#linear-gradient-3);}.cls-21{fill:url(#linear-gradient-4);}.cls-22{fill:url(#linear-gradient-5);}.cls-23{fill:url(#linear-gradient-6);}.cls-24{fill:url(#linear-gradient-7);}.cls-25{fill:url(#New_Gradient_Swatch_2-2);}.cls-26{fill:#a89255;}.cls-27{clip-path:url(#clip-path-12);}.cls-28{fill:#fff;}</style><linearGradient id="New_Gradient_Swatch_2" x1="765.9135" y1="208.04058" x2="972" y2="208.04058" gradientUnits="userSpaceOnUse"><stop offset="0" stop-color="#a88a34"/><stop offset="0.1878" stop-color="#caaf67"/><stop offset="0.46098" stop-color="#a08a4a"/><stop offset="0.76341" stop-color="#caaf67"/><stop offset="1" stop-color="#957f2e"/></linearGradient><clipPath id="clip-path"><rect class="cls-1" x="-2" y="586.64614" width="974" height="251.03093"/></clipPath><clipPath id="clip-path-2"><rect class="cls-1" x="-17.21661" y="191.22969" width="994.73176" height="663.15451"/></clipPath><clipPath id="clip-path-3"><rect class="cls-1" x="-2" y="287.48396" width="974" height="251.03093"/></clipPath><clipPath id="clip-path-4"><rect class="cls-1" x="-17.21661" y="-107.9325" width="994.73176" height="663.15451"/></clipPath><clipPath id="clip-path-5"><path class="cls-1" d="M1064.61007-2.11321V158.70368l123.07415-42.6657,86.9724,9.84593,55.79361-90.25438-1.641-37.74274Z"/></clipPath><clipPath id="clip-path-6"><rect class="cls-1" x="965.79452" y="-189.30576" width="294.81185" height="442.21777" transform="translate(578.16965 1008.51635) rotate(-62.92309)"/></clipPath><clipPath id="clip-path-7"><path class="cls-1" d="M1064.61007,285.88621V446.7031l123.07415-42.6657,86.9724,9.84593,55.79361-90.25438-1.641-37.74274Z"/></clipPath><clipPath id="clip-path-8"><rect class="cls-1" x="965.79452" y="98.69366" width="294.81185" height="442.21777" transform="translate(321.73603 1165.42242) rotate(-62.92309)"/></clipPath><clipPath id="clip-path-9"><path class="cls-1" d="M-1.657,445.66581l67.9261,11.933,36.92443,16.78281,34.85591-3.48559,60.41691-1.16186L228.6748,492.9714,217.726,501.65894l11.933,34.881S-7.89635,543.69719-4.41076,540.21159-1.657,445.66581-1.657,445.66581Z"/></clipPath><clipPath id="clip-path-10"><polygon class="cls-1" points="369.101 366.295 486.821 326.447 495.819 325.559 511.068 319.315 498.74 304.154 492.467 286.097 404.664 286.097 369.101 366.295"/></clipPath><clipPath id="clip-path-11"><rect class="cls-1" x="442.98586" y="62.51336" width="273.70769" height="410.64051" transform="matrix(0.06672, -0.99777, 0.99777, 0.06672, 273.91403, 828.51036)"/></clipPath><linearGradient id="New_Gradient_Swatch_1" x1="804.12459" y1="67.61636" x2="904.73261" y2="67.61636" gradientUnits="userSpaceOnUse"><stop offset="0" stop-color="#a88a34"/><stop offset="0.49324" stop-color="#caaf67"/><stop offset="1" stop-color="#957f2e"/></linearGradient><linearGradient id="linear-gradient" x1="906.25894" y1="284.84178" x2="906.25894" y2="116.09421" gradientUnits="userSpaceOnUse"><stop offset="0" stop-color="#a88a34"/><stop offset="0.49894" stop-color="#caaf67"/><stop offset="1" stop-color="#957f2e"/></linearGradient><linearGradient id="linear-gradient-2" x1="859.51504" y1="196.99287" x2="859.51504" y2="72.39458" xlink:href="#linear-gradient"/><linearGradient id="linear-gradient-3" x1="875.34752" y1="239.72747" x2="875.34752" y2="75.7565" xlink:href="#linear-gradient"/><linearGradient id="linear-gradient-4" x1="890.75967" y1="243.46306" x2="890.75967" y2="99.93538" xlink:href="#linear-gradient"/><linearGradient id="linear-gradient-5" x1="803.89729" y1="142.84156" x2="803.89729" y2="4.1649" xlink:href="#linear-gradient"/><linearGradient id="linear-gradient-6" x1="840.74126" y1="177.87528" x2="840.74126" y2="54.00298" xlink:href="#linear-gradient"/><linearGradient id="linear-gradient-7" x1="821.92341" y1="159.37608" x2="821.92341" y2="34.7782" xlink:href="#linear-gradient"/><linearGradient id="New_Gradient_Swatch_2-2" x1="912.92895" y1="115.75132" x2="919.8598" y2="115.75132" xlink:href="#New_Gradient_Swatch_2"/><clipPath id="clip-path-12"><polygon class="cls-2" points="778.174 189.65 765.914 208.039 778.174 226.431 972 226.431 972 189.65 778.174 189.65"/></clipPath></defs><title>logo</title><g class="cls-3"><g id="BG"><g class="cls-4"><g id="Background_LO.psd"><g class="cls-5"><g id="background"><image id="GettyImages-909407598" width="1266" height="1899" transform="translate(977.51516 191.22969) rotate(90) scale(0.52382)" xlink:href="logo1.png"/></g></g></g></g><g class="cls-6"><g id="Background_LO.psd-2" data-name="Background_LO.psd"><g class="cls-7"><g id="background-2" data-name="background"><image id="GettyImages-909407598-2" data-name="GettyImages-909407598" width="1266" height="1899" transform="translate(977.51516 -107.9325) rotate(90) scale(0.52382)" xlink:href="logo2.png"/><image id="Layer_27" data-name="Layer 27" class="cls-8" width="1015" height="1469" transform="translate(977.51516 23.546) rotate(90) scale(0.52382)" xlink:href="logo3.png"/></g></g></g></g></g><g id="Terpenes"><g class="cls-9"><g id="Oranges_1_GettyImages-501548078.psd" data-name="Oranges#1_GettyImages-501548078.psd"><g class="cls-10"><image id="Oranges_1" data-name="Oranges #1" width="3146" height="1965" transform="translate(989.21606 -169.53896) rotate(27.07691) scale(0.12796)" xlink:href="logo4.png"/></g></g></g><g class="cls-11"><g id="Oranges_1_GettyImages-501548078.psd-2" data-name="Oranges#1_GettyImages-501548078.psd"><g class="cls-12"><image id="Oranges_1-2" data-name="Oranges #1" width="3146" height="1965" transform="translate(989.21606 118.46046) rotate(27.07691) scale(0.12796)" xlink:href="logo5.png"/></g></g></g><g class="cls-14"><g id="Spices_GettyImages-966502372.psd" class="cls-15"><g class="cls-16"><image id="Shadow" class="cls-15" width="838" height="792" transform="matrix(0.15759, 0.01054, -0.01054, 0.15759, 397.08851, 245.40279)" xlink:href="logo6.png"/><image id="Spices_-_pepper_only" data-name="Spices - pepper only" width="792" height="759" transform="matrix(0.15759, 0.01054, -0.01054, 0.15759, 400.3346, 246.56961)" xlink:href="logo7.png"/></g></g></g></g><g id="Content"><path class="cls-17" d="M848.31256,101.33453c1.09335-.32247,3.07662,1.53143,3.20551,1.53143a2.36585,2.36585,0,0,0,.66117-1.52682c0-.65456-.4672-1.92773-.55479-2.69821a12.834,12.834,0,0,0-.466-2.23222c-.17059-.50729-1.35615-.7284-1.99234-1.121a10.39193,10.39193,0,0,1-1.60526-1.11134,5.07768,5.07768,0,0,1-.68249-2.329,9.15563,9.15563,0,0,0-.38294-2.37074c-.2215-.41508-.79093-.70835-1.176-1.09343a1.65569,1.65569,0,0,1-.3967-1.01912c.29534-.09222.38755.66872.7288.73341s.31825.34578.85307.53021c.53522.18434.5536.43839.62282.93653s.66873,2.1813.86692,2.8684c.19859.68751.40585,1.20435,1.0842,1.22726.67788.023.58567.37339,1.38328.30918a4.46613,4.46613,0,0,1,1.91437.3687c.42884.15228.96868.166,1.153-.13343.18443-.29995-.12929-1.50851-.12929-1.50851-.27656,0-.32294-.37331-.42884-.71917-.106-.34626.0646-.37379.0646-.37379a1.46171,1.46171,0,1,1,2.7859,0s.17058.02753.0646.37379c-.10637.34586-.15228.71917-.42924.71917,0,0-.31332,1.20856-.12889,1.50851.18435.29947.72418.28571,1.153.13343a4.46539,4.46539,0,0,1,1.914-.3687c.798.06421.7058-.28619,1.38368-.30918.67835-.02291.88569-.53975,1.08381-1.22726.19859-.6871.798-2.37034.86731-2.8684s.0876-.75219.62282-.93653c.53482-.18443.51183-.46553.85307-.53021s.43386-.82563.7288-.73341a1.65844,1.65844,0,0,1-.3967,1.01912c-.38509.38508-.95452.67835-1.176,1.09343a9.15649,9.15649,0,0,0-.38294,2.37074,5.07768,5.07768,0,0,1-.68249,2.329,10.39589,10.39589,0,0,1-1.60526,1.11134c-.63658.39256-1.82175.61367-1.99233,1.121a12.78123,12.78123,0,0,0-.466,2.23222c-.0876.77048-.5548,2.04365-.5548,2.69821a2.36585,2.36585,0,0,0,.66117,1.52682c.12889,0,2.11256-1.8539,3.20551-1.53143,1.093.32334.6595,1.85429-.47515,2.98854a4.85944,4.85944,0,0,1-2.35076,1.46595,12.72978,12.72978,0,0,1,1.78467.33369,19.10441,19.10441,0,0,1,5.09768,2.9089,18.52206,18.52206,0,0,0,4.54543,2.654,3.88015,3.88015,0,0,0,.43974.09643c.156-.13065.97361-.60245.97361-.60245a18.2923,18.2923,0,0,0,2.05416.879l-5.23421-4.03607,10.37532,4.51663c.17059.07383.342.14186.51271.20272l6.27115.11179c1.64615.03007,3.27186-.04209,4.78109-.15889-1.21636-.75052-2.53384-1.49976-3.94592-2.19013l-5.50233-2.69074c-.18316-.02331-.37045-.04089-.56068-.05211l-11.99387-.72044,7.79342-1.35456-5.05224-1.64441,8.6465-.05672a29.35231,29.35231,0,0,0,5.90293-.64916l-8.17231-1.55641,11.97677-.53188a11.75265,11.75265,0,0,0,2.0049-.25571l-.9094.11011,7.90442-3.70858a70.63145,70.63145,0,0,0,7.32034-4.024,77.24373,77.24373,0,0,0-8.56224-.51851l-8.984.02045,1.00075-.32748a11.2524,11.2524,0,0,0-2.12.65409l-10.48082,4.36816,6.3426-4.72564-.04838.008-.1448-1.0897-1.15263-1.901a37.977,37.977,0,0,0,8.63616-8.91559l-8.47385,4.05692,8.634-7.19106a14.22062,14.22062,0,0,0,2.74158-2.97231c1.1134-1.68284,2.14716-3.407,3.09-5.15241l-2.67618,2.64276,3.208-6.97831a92.1588,92.1588,0,0,0,4.74648-13.1231A111.70873,111.70873,0,0,0,887.77,60.42l-6.28086,4.75985,2.00324-3.12165c-1.62484,1.38169-3.19589,2.84008-4.69517,4.35893a13.76175,13.76175,0,0,0-2.31186,3.23972l-4.5876,8.7863,1.62945-8.01955a37.91466,37.91466,0,0,0-3.63435,4.34684l-.79969,1.11547-.73293-.50307a2.0924,2.0924,0,0,0-.11346.19063l-6.30122,11.94924,3.71606-12.98754a41.22715,41.22715,0,0,0,1.23267-16.29862L862.555,66.30123l2.10165-9.70159a15.794,15.794,0,0,0,.32828-4.84116,78.15829,78.15829,0,0,0-1.6674-9.79372l-.5719,4.76184-1.88389-6.94234a118.12473,118.12473,0,0,0-6.43306-17.412,118.00591,118.00591,0,0,0-6.43314,17.412L846.112,46.7266l-.5723-4.76184a78.23136,78.23136,0,0,0-1.6674,9.79372A15.80239,15.80239,0,0,0,844.20059,56.6l2.09919,9.70453L841.963,58.23785a41.22089,41.22089,0,0,0,1.23267,16.29734l3.71654,12.98833-6.3017-11.95a2.00669,2.00669,0,0,0-.11345-.19063l-.73294.50307-.79968-1.11547A37.91988,37.91988,0,0,0,835.33,70.42362l1.62985,8.01955-4.588-8.7863a13.77028,13.77028,0,0,0-2.31146-3.23972c-1.49634-1.516-3.06532-2.97231-4.68848-4.35225l2.00777,3.12412-6.29248-4.769A111.6538,111.6538,0,0,0,808.368,52.22528a92.14507,92.14507,0,0,0,4.7464,13.1231l3.20806,6.97831-2.67618-2.64276c.94282,1.74545,1.977,3.46957,3.09039,5.15241a14.20691,14.20691,0,0,0,2.74118,2.97231l8.634,7.19106L819.638,80.94279a37.96744,37.96744,0,0,0,8.63615,8.91559l-1.15263,1.901-.1448,1.0897-.04877-.008,6.34339,4.726-10.48122-4.36856a11.32132,11.32132,0,0,0-2.11916-.65409l1.00035.32748-8.98449-.02045a77.24977,77.24977,0,0,0-8.56224.51851,70.63061,70.63061,0,0,0,7.32035,4.024l7.90441,3.70819-.909-.11012a11.702,11.702,0,0,0,2.0045.25611l11.97669.53188-8.17215,1.55641a29.35472,29.35472,0,0,0,5.90286.64916l8.66941.05672-5.06975,1.64529,7.78881,1.35368-11.99419.72044q-.28606.01683-.56115.05211l-5.50321,2.69074c-1.41121.69037-2.72861,1.43961-3.94505,2.19013,1.50971.1168,3.13494.18849,4.7811.15889l6.27122-.11179c.17059-.06086.342-.12889.5131-.20272l10.37485-4.51663-5.23421,4.03607a18.2923,18.2923,0,0,0,2.05416-.879s.81679.471.97282.602a3.82684,3.82684,0,0,0,.44006-.096,18.515,18.515,0,0,0,4.5459-2.654,19.10685,19.10685,0,0,1,5.09768-2.9089,12.72771,12.72771,0,0,1,1.78468-.33369,4.8595,4.8595,0,0,1-2.35077-1.46595C847.65306,103.18882,847.21921,101.65787,848.31256,101.33453Z"/><polygon class="cls-18" points="912.273 122.537 912.273 119.481 900.245 119.491 900.245 135.853 912.252 135.853 912.252 132.797 903.52 132.797 903.52 129.075 910.079 129.075 910.079 126.029 903.52 126.029 903.52 122.537 912.273 122.537"/><path class="cls-19" d="M857.88326,119.48052l-6.549,16.37234h3.4924l.98243-2.51041h7.42218l.98243,2.51041,3.482-.01117L861.158,119.48052Zm-.76383,10.58758,2.48882-6.222,2.42284,6.222Z"/><path class="cls-20" d="M879.87732,127.39384a8.11884,8.11884,0,0,0-3.7657-1.36413,4.31587,4.31587,0,0,1-2.51052-.98281,1.27747,1.27747,0,0,1,0-1.58278q.54622-.92725,2.51052-.92731a3.76,3.76,0,0,1,3.05656,1.30949l2.18254-2.18307a7.638,7.638,0,0,0-2.3465-1.63731,9.13738,9.13738,0,0,0-3.53674-.54567,6.55353,6.55353,0,0,0-3.82541,1.31527,4.07387,4.07387,0,0,0-1.861,3.4875,3.62282,3.62282,0,0,0,1.637,3.38362,8.79829,8.79829,0,0,0,3.60217,1.2006q2.18256.2184,2.72323,1.146a1.72972,1.72972,0,0,1,0,1.856q-.54008.92733-2.72323.92731a5.18531,5.18531,0,0,1-3.71112-1.528l-2.18346,2.18335a8.2618,8.2618,0,0,0,2.61979,1.74631,9.69556,9.69556,0,0,0,3.80954.65451,6.6117,6.6117,0,0,0,4.20754-1.41877,4.19664,4.19664,0,0,0,1.80673-3.38356A4.09806,4.09806,0,0,0,879.87732,127.39384Z"/><polygon class="cls-21" points="883.665 122.537 889.122 122.537 889.122 135.853 892.397 135.853 892.397 122.537 897.855 122.537 897.855 119.48 883.665 119.48 883.665 122.537"/><polygon class="cls-22" points="807.936 129.74 797.676 119.481 796.584 119.481 796.584 135.853 799.859 135.853 799.859 125.702 810.01 135.853 811.21 135.853 811.21 119.481 807.936 119.481 807.936 129.74"/><polygon class="cls-23" points="840.736 127.557 833.641 119.481 832.55 119.481 832.55 135.853 835.824 135.853 835.824 126.357 840.736 131.814 845.647 126.357 845.659 135.853 848.933 135.853 848.933 119.481 847.842 119.481 840.736 127.557"/><path class="cls-24" d="M820.29171,119.48052l-6.54907,16.37234h3.49251l.98243-2.51041h7.42218l.98286,2.51041,3.48156-.01117L823.566,119.48052Zm-.76383,10.58758,2.48833-6.222,2.423,6.222Z"/><path class="cls-25" d="M914.62489,114.53059v2.97188h-.5903v-2.97188H912.929v-.53041h2.80648v.53041Zm4.68942,2.97188-.00489-2.61664-1.10564,2.25122h-.38539l-1.10564-2.25122v2.61664h-.55527v-3.50229h.7003l1.15575,2.32658,1.15086-2.32658h.69541v3.50229Z"/><path class="cls-26" d="M824.135,147.59364a2.3102,2.3102,0,0,1-1.32337,4.29555l-4.57758-.00542v-8.13009h4.31724q2.056.11972,2.16947,2.39184A1.70266,1.70266,0,0,1,824.135,147.59364Zm-4.26843-.58033h2.278a.91811.91811,0,0,0,1.0088-1.01423q-.02673-.59622-.99253-.62914h-2.29422Zm0,3.60132h2.6576a1.06173,1.06173,0,0,0,1.17152-1.17694q-.02673-.781-1.15525-.81355h-2.67387Z"/><path class="cls-26" d="M826.413,143.74826h1.90913l1.88744,2.6576,1.93082-2.6576h1.86575l-2.983,4.06775v4.06776H829.396V147.816Z"/><path class="cls-26" d="M845.385,151.88377h-6.51383l.00542-.54237,3.79115-6.07451h-3.79115l-.00542-1.51863H845.385v.5966l-3.80742,6.02028H845.385Z"/><path class="cls-26" d="M847.42892,151.88377v-8.13009l5.97689-.00542v1.51863H849.056v1.73557h3.25963v1.51321H849.056v1.84947H853.395v1.51863Z"/><path class="cls-26" d="M855.04376,151.88377v-8.13551h.54236l5.09826,5.09825v-5.09825h1.6271v8.13551h-.59661l-5.044-5.044v5.044Z"/><path class="cls-26" d="M863.56977,151.88377l3.2542-8.13551h1.6271l3.248,8.13008-1.72938.00543-.48813-1.24745h-3.6881l-.48813,1.24745Zm4.11114-5.966-1.2366,3.09149H868.885Z"/><path class="cls-26" d="M878.691,147.59364a2.31045,2.31045,0,0,1-1.32338,4.29555l-4.57758-.00542v-8.13009h4.31724q2.0548.11972,2.16947,2.39184A1.70693,1.70693,0,0,1,878.691,147.59364Zm-4.26921-.58033h2.27794a.91743.91743,0,0,0,1.00881-1.01423c-.01705-.39748-.34867-.60745-.99176-.62914h-2.295Zm0,3.60132h2.6576a1.061,1.061,0,0,0,1.17151-1.17694q-.02556-.781-1.15446-.81355h-2.67465Z"/><path class="cls-26" d="M881.44619,143.74283h1.6209v8.14094h-1.6209Z"/><path class="cls-26" d="M889.10442,144.01944a3.77673,3.77673,0,0,1,1.16531.81355l-1.08473,1.08474a1.86708,1.86708,0,0,0-1.51863-.65084q-.97626,0-1.24745.461a.63748.63748,0,0,0,0,.78643,2.1453,2.1453,0,0,0,1.24745.48813,4.0361,4.0361,0,0,1,1.87194.678,2.03881,2.03881,0,0,1,.83989,1.81693,2.08667,2.08667,0,0,1-.89723,1.68134,3.28509,3.28509,0,0,1-2.09043.70508,4.82247,4.82247,0,0,1-1.89364-.32542,4.1225,4.1225,0,0,1-1.30168-.86779l1.08473-1.08474a2.579,2.579,0,0,0,1.84405.75932q1.08551,0,1.35282-.461a.85563.85563,0,0,0,0-.922q-.26731-.4614-1.35282-.56948a4.37088,4.37088,0,0,1-1.78981-.59661,1.79978,1.79978,0,0,1-.81355-1.68134,2.0232,2.0232,0,0,1,.92512-1.73247,3.25582,3.25582,0,0,1,1.90139-.65394A4.55121,4.55121,0,0,1,889.10442,144.01944Z"/><rect class="cls-26" x="796.5841" y="147.69943" width="14.62637" height="1.78096"/><rect class="cls-26" x="897.64666" y="147.69943" width="14.62637" height="1.78096"/><polygon class="cls-2" points="778.174 189.65 765.914 208.039 778.174 226.431 972 226.431 972 189.65 778.174 189.65"/><path class="cls-28" d="M799.80371,202.33691v9.22168h6.04688v2.11621h-8.31446V202.33691Z"/><path class="cls-28" d="M807.6875,213.6748V202.34473l8.33008-.00782v2.11621h-6.0625v2.41895h4.543v2.1084h-4.543v2.57812H816.002v2.11621Z"/><path class="cls-28" d="M817.70312,213.6748l4.53516-11.33789h2.26758L829.0332,213.667l-2.41113.00781-.68066-1.73828h-5.13965l-.68067,1.73828Zm5.72852-8.31445L821.709,209.669h3.40137Z"/><path class="cls-28" d="M837.55176,208.73145l2.82715,4.94335h-2.60059l-2.71289-4.68652h-2.07129v4.68652h-2.26758V202.33691h4.94336q3.96826,0,3.96778,3.26563A2.93134,2.93134,0,0,1,837.55176,208.73145Zm-4.55762-1.85938H836.169q1.36815-.022,1.40527-1.24707-.03663-1.11914-1.38281-1.16406h-3.19727Z"/><path class="cls-28" d="M841.55762,213.6748V202.33691h.75586l7.10547,7.10547v-7.10547h2.26757V213.6748h-.832l-7.02929-7.02929v7.02929Z"/><path class="cls-28" d="M859.32812,213.6748V202.33691h.75586l4.91309,5.59375,4.9209-5.59375h.75586V213.6748h-2.26758l-.00781-6.57617-3.40137,3.7793-3.40137-3.7793v6.57617Z"/><path class="cls-28" d="M873.98438,212.0459a5.83929,5.83929,0,1,1,4.04394,1.6289A5.49027,5.49027,0,0,1,873.98438,212.0459Zm4.05175-.48731a3.18657,3.18657,0,0,0,2.44825-1.0205,3.86423,3.86423,0,0,0,0-5.06446,3.4669,3.4669,0,0,0-4.91309,0,3.86723,3.86723,0,0,0,0,5.06446A3.20512,3.20512,0,0,0,878.03613,211.55859Z"/><path class="cls-28" d="M892.208,208.73145l2.82715,4.94335h-2.60059l-2.71289-4.68652h-2.07129v4.68652h-2.26758V202.33691h4.94336q3.96826,0,3.96778,3.26563A2.93134,2.93134,0,0,1,892.208,208.73145Zm-4.55762-1.85938h3.17481q1.36815-.022,1.40527-1.24707-.03663-1.11914-1.38281-1.16406h-3.19727Z"/><path class="cls-28" d="M896.18359,213.6748V202.34473l8.33008-.00782v2.11621h-6.0625v2.41895h4.543v2.1084h-4.543v2.57812h6.04688v2.11621Z"/></g></g></svg>