<svg id="Layer_1" data-name="Layer 1" xmlns="http://www.w3.org/2000/svg" width="160" height="600" viewBox="0 0 160 600"><defs><style>.cls-1{fill:#ab9555;}</style></defs><title>frame4</title><path class="cls-1" d="M19.552,296.00586V279.084h3.81933a4.8619,4.8619,0,0,1,2.72559.79639,3.70178,3.70178,0,0,1,1.48437,2.09131,5.887,5.887,0,0,1,.24317,1.79492,3.97267,3.97267,0,0,1-.9043,2.72559,2.567,2.567,0,0,1-.89062.66162,2.96356,2.96356,0,0,1,1.44433,1.28174,4.98844,4.98844,0,0,1,.58008,1.67334,6.71469,6.71469,0,0,1,.09473,1.17382,5.65689,5.65689,0,0,1-.60743,2.72608,3.91012,3.91012,0,0,1-3.26562,1.99707Zm2.75293-10.0127h1.0664a1.56367,1.56367,0,0,0,1.59278-1.16064,3.31723,3.31723,0,0,0,.14843-1.06592,2.2298,2.2298,0,0,0-.51367-1.59228,1.61135,1.61135,0,0,0-1.22754-.49952H22.305Zm0,7.48926h1.0664a1.81025,1.81025,0,0,0,1.79492-1.33594,2.94993,2.94993,0,0,0,.17481-1.05273,3.20831,3.20831,0,0,0-.53906-2.06445,1.74078,1.74078,0,0,0-1.43067-.59375H22.305Z"/><path class="cls-1" d="M32.62723,296.00586V279.084H39.888v2.564h-4.71v4.61523h3.44141v2.56348H35.178v4.61523h4.71v2.564Z"/><path class="cls-1" d="M56.011,279.09766a3.88379,3.88379,0,0,1,2.96875,1.17382,4.07282,4.07282,0,0,1,1.02539,2.86084v2.45606a3.933,3.933,0,0,1-1.167,2.86084,3.81876,3.81876,0,0,1-2.82715,1.1875h-1.4707v6.36914H51.98954v-16.9082Zm1.52539,4.07519a1.45306,1.45306,0,0,0-.39844-1.06592,1.41839,1.41839,0,0,0-1.05957-.40527H54.54032v5.41162H56.0784a1.39274,1.39274,0,0,0,1.03223-.43213,1.425,1.425,0,0,0,.42578-1.03906Z"/><path class="cls-1" d="M68.344,279.09766a3.88776,3.88776,0,0,1,3.12988,1.17382,4.26044,4.26044,0,0,1,.87695,2.86084v2.45606a3.94629,3.94629,0,0,1-1.36328,3.03613l1.89063,7.38135H70.11942l-1.5459-6.36914H66.87333v6.36914H64.32254v-16.9082Zm1.52441,4.07519a1.29414,1.29414,0,0,0-1.457-1.47119H66.87333v5.41162h1.53808a1.3943,1.3943,0,0,0,1.03223-.43213,1.42794,1.42794,0,0,0,.4248-1.03906Z"/><path class="cls-1" d="M77.34305,296.00586V279.084h7.25977v2.564h-4.709v4.61523h3.44043v2.56348H79.89383v4.61523h4.709v2.564Z"/><path class="cls-1" d="M97.07157,291.79541a4.75737,4.75737,0,0,1-.918,3.02295,3.30762,3.30762,0,0,1-1.75391,1.20117,4.80367,4.80367,0,0,1-1.417.189,4.011,4.011,0,0,1-2.4834-.74219,4.15321,4.15321,0,0,1-1.30176-1.65332,6.6624,6.6624,0,0,1-.56054-2.395l2.42871-.17578a3.69217,3.69217,0,0,0,.7832,2.14306,1.30365,1.30365,0,0,0,1.05274.4751,1.58294,1.58294,0,0,0,1.33593-.82422,2.04544,2.04544,0,0,0,.25586-1.1206,3.11262,3.11262,0,0,0-.958-2.09375q-.75585-.71557-2.2666-2.14746a9.6724,9.6724,0,0,1-1.79492-2.20166,5.08915,5.08915,0,0,1-.56641-2.377,4.1337,4.1337,0,0,1,1.55176-3.49853,3.856,3.856,0,0,1,2.375-.71582,4.31553,4.31553,0,0,1,2.334.60742,3.51209,3.51209,0,0,1,1.22168,1.32227,4.88536,4.88536,0,0,1,.55957,1.957l-2.44239.44531a2.94531,2.94531,0,0,0-.59375-1.61963,1.24848,1.24848,0,0,0-1.01171-.418,1.16685,1.16685,0,0,0-1.06641.62061,2.38991,2.38991,0,0,0-.29688,1.24121,3.72511,3.72511,0,0,0,.999,2.36181A8.35762,8.35762,0,0,0,93.6702,286.479q.89063.74195,1.1748,1.03907a8.67731,8.67731,0,0,1,1.457,1.8623,7.21833,7.21833,0,0,1,.3916.7959A4.67175,4.67175,0,0,1,97.07157,291.79541Z"/><path class="cls-1" d="M101.469,296.00586V279.084h7.25976v2.564h-4.709v4.61523h3.44043v2.56348h-3.44043v4.61523h4.709v2.564Z"/><path class="cls-1" d="M115.62528,279.084,119.01,290.45654V279.084h2.55079v16.92188h-2.73926l-3.50879-10.83594v10.83594H112.762V279.084Z"/><path class="cls-1" d="M128.60477,281.66162h-2.71289v-2.564h7.96191v2.564h-2.69921v14.34424h-2.54981Z"/><path class="cls-1" d="M137.888,293.46875h2.55078v2.55078H137.888Z"/></svg>