<svg id="Content" xmlns="http://www.w3.org/2000/svg" xmlns:xlink="http://www.w3.org/1999/xlink" viewBox="0 0 728 360"><defs><style>.cls-1{fill:none;}.cls-2{fill:#fff;}.cls-3{fill:url(#New_Gradient_Swatch_1);}.cls-4{fill:#ba9544;}.cls-5{clip-path:url(#clip-path);}</style><linearGradient id="New_Gradient_Swatch_1" x1="479.52" y1="188.21" x2="538.69" y2="188.21" gradientUnits="userSpaceOnUse"><stop offset="0" stop-color="#a88a34"/><stop offset="0.49" stop-color="#caaf67"/><stop offset="1" stop-color="#957f2e"/></linearGradient><clipPath id="clip-path"><rect class="cls-1" x="381.76" y="-134.34" width="208.13" height="92"/></clipPath></defs><title>minty</title><path class="cls-2" d="M497.32,180.71a2.94,2.94,0,0,1,.48-.19,5.42,5.42,0,0,1,.53-.14h0l5.19-1.14a1.69,1.69,0,0,1,1.11.17l.87.86-1.82,1.9-5.79,1.27-.6-2.72m18,14.48-2.86-13a1.94,1.94,0,0,0-2.16-1.5l1.53-1.61.42.4.64-.67a.41.41,0,0,0,0-.58l-3.07-2.91a.43.43,0,0,0-.59,0l-.63.67.51.48-2,2.14-1-1-.07,0a3.88,3.88,0,0,0-2.9-.55l-5.14,1.13a9.26,9.26,0,0,0-.91.24,3.13,3.13,0,0,0-1.66,1.1,1.83,1.83,0,0,0-.27,1.4c.16.72.72,3.25,1,4.77,0,0,0,.07,0,.1l2.85,13a1.93,1.93,0,0,0,2.31,1.47l12.52-2.75a2,2,0,0,0,1.49-2.31"/><polygon class="cls-3" points="530.71 208.13 506.04 217.6 483.26 204.22 479.52 178.06 497.64 158.82 523.97 161 538.69 182.94 530.71 208.13"/><path class="cls-2" d="M521.62,197.53a10.47,10.47,0,0,0-4.2-8.68,4.08,4.08,0,0,1,2-.24,6.9,6.9,0,0,0-4-3.61,3.12,3.12,0,0,1,1.57-.19s-2.32-3.81-8.32-5.46a4.94,4.94,0,0,1,1.52-.19s-6.21-3.44-12.12.42c0,0,5,2.65,7,5.38,0,0-6.87-4.39-7.87-4.32,0,0-3.09,7.35,4.77,13.77a3.39,3.39,0,0,1-.19-1.52s3.12,3.77,6.17,4.78a3.65,3.65,0,0,1,0-1.48,9.21,9.21,0,0,0,4.36,2.48,3.34,3.34,0,0,1-.14-2s5.05,3,9.46.86"/><path class="cls-4" d="M484.51,245.58V234.7h.72l4.72,5.37,4.72-5.37h.72v10.88h-2.17v-6.31L490,242.89l-3.27-3.62v6.31Z"/><path class="cls-4" d="M497.56,234.7h2.17v10.88h-2.17Z"/><path class="cls-4" d="M501.91,245.58V234.7h.72l6.82,6.82V234.7h2.17v10.88h-.8l-6.74-6.75v6.75Z"/><path class="cls-4" d="M522.75,234.7v2h-3.62v8.85H517v-8.85h-3.62v-2Z"/><path class="cls-4" d="M523.73,234.7h2.55l2.52,3.55,2.58-3.55h2.5l-4,5.44v5.44h-2.17v-5.44Z"/><g class="cls-5"><image id="SmallTopDown-8342SensiStar.psd" width="1500" height="1261" transform="translate(363.32 -154.62) scale(0.13)" xlink:href="../../../../../../Dropbox%20(Revolution%20Strategy)/Rocio%20Ugarte/Clients/Namaste/Digital%20Ads/_Flight%202:Phase%202%20Terpene/1.%20Animated%20w:%20Packaging/8.%20Expandable%20Unit%20728%20x%2090:728%20x%20360/728%20x%2090_728%20x%20360V2_Folder/Links/SmallTopDown-8342SensiStar.png"/></g></svg>