<svg id="Layer_1" data-name="Layer 1" xmlns="http://www.w3.org/2000/svg" width="320" height="50" viewBox="0 0 320 50"><defs><style>.cls-1{fill:#ab9555;}</style></defs><title>frame4</title><path class="cls-1" d="M107.313,17.49643h3.62087a5.07973,5.07973,0,0,1,2.029.36427,3.83509,3.83509,0,0,1,1.3728.97215,3.63625,3.63625,0,0,1,.76571,1.39733,5.83248,5.83248,0,0,1,.23058,1.64017V22.502a5.5284,5.5284,0,0,1-.10916,1.19087,2.8515,2.8515,0,0,1-.32827.85035,2.71317,2.71317,0,0,1-.53434.64388,4.6431,4.6431,0,0,1-.72892.52247,2.67815,2.67815,0,0,1,1.28778,1.22726,4.84146,4.84146,0,0,1,.41291,2.1749v.97215a5.02523,5.02523,0,0,1-1.10545,3.49906,4.56867,4.56867,0,0,1-3.53584,1.215H107.313Zm2.47864,7.09541h1.11771a1.89379,1.89379,0,0,0,1.66469-.61976,3.19792,3.19792,0,0,0,.42517-1.81024,2.73135,2.73135,0,0,0-.47382-1.74933,2.10843,2.10843,0,0,0-1.71334-.58337H109.7916Zm0,7.72743h1.06906a2.61193,2.61193,0,0,0,1.17861-.21871,1.506,1.506,0,0,0,.64389-.6075,2.28258,2.28258,0,0,0,.26736-.92351q.04866-.53394.04865-1.16635a7.794,7.794,0,0,0-.07277-1.14184,1.88091,1.88091,0,0,0-.30375-.81435,1.43271,1.43271,0,0,0-.64389-.49794,2.92884,2.92884,0,0,0-1.09358-.17007H109.7916Z"/><path class="cls-1" d="M119.28458,17.49643h7.3873v2.33271h-4.90865v5.07871h4.27663v2.33271h-4.27663v5.07871h4.90865v2.47865h-7.3873Z"/><path class="cls-1" d="M136.03513,17.49643h3.71777a5.52246,5.52246,0,0,1,1.79838.26737,3.45611,3.45611,0,0,1,1.40959.94763,3.71077,3.71077,0,0,1,.87446,1.59153,9.96368,9.96368,0,0,1,.24324,2.46638,12.34051,12.34051,0,0,1-.13368,1.95618,4.12071,4.12071,0,0,1-.57111,1.51875,3.61686,3.61686,0,0,1-1.361,1.32456,4.58222,4.58222,0,0,1-2.23541.47382h-1.26364v6.75527h-2.47865Zm2.47865,8.21312h1.19087a2.53253,2.53253,0,0,0,1.16635-.21872,1.39224,1.39224,0,0,0,.6075-.59524,2.31644,2.31644,0,0,0,.23058-.91125q.0368-.53392.03679-1.19048,0-.6075-.03679-1.15448a2.70861,2.70861,0,0,0-.21871-.94764,1.391,1.391,0,0,0-.57072-.63163,2.21426,2.21426,0,0,0-1.1181-.231h-1.28777Z"/><path class="cls-1" d="M146.7352,17.49643h3.98513q4.37412,0,4.37393,5.07872a6.41621,6.41621,0,0,1-.47382,2.58781,3.66173,3.66173,0,0,1-1.6643,1.73746l2.67284,7.8975h-2.62419l-2.30858-7.38729h-1.48236v7.38729H146.7352Zm2.47865,7.72743h1.40959a2.49393,2.49393,0,0,0,1.04453-.18232,1.34388,1.34388,0,0,0,.59564-.52247,2.2309,2.2309,0,0,0,.27922-.83848,9.14131,9.14131,0,0,0,0-2.30858,2.08423,2.08423,0,0,0-.30375-.85034,1.376,1.376,0,0,0-.64388-.52246,2.92744,2.92744,0,0,0-1.09358-.17007h-1.28777Z"/><path class="cls-1" d="M158.70682,17.49643h7.3873v2.33271h-4.90865v5.07871h4.27663v2.33271h-4.27663v5.07871h4.90865v2.47865h-7.3873Z"/><path class="cls-1" d="M177.33643,22.47785h-2.47865V21.919a2.64574,2.64574,0,0,0-.40065-1.4701,1.48292,1.48292,0,0,0-1.34868-.61976,1.62914,1.62914,0,0,0-.83848.19419,1.43765,1.43765,0,0,0-.5102.49834,2.08646,2.08646,0,0,0-.2551.7048,4.67358,4.67358,0,0,0-.07317.83808,8.51292,8.51292,0,0,0,.03678.863,1.5327,1.5327,0,0,0,.18193.6075,1.38955,1.38955,0,0,0,.42557.44929,3.84082,3.84082,0,0,0,.76531.38879l1.89527.75344a4.71445,4.71445,0,0,1,1.33642.74118,3.00921,3.00921,0,0,1,.78983.99629,4.23208,4.23208,0,0,1,.37692,1.31229,13.16946,13.16946,0,0,1,.0969,1.68882,8.89453,8.89453,0,0,1-.21872,2.029,4.27519,4.27519,0,0,1-.71666,1.60379,3.44476,3.44476,0,0,1-1.32455,1.05719,4.72326,4.72326,0,0,1-2.0167.38878,4.41341,4.41341,0,0,1-1.67656-.316,3.99057,3.99057,0,0,1-2.22354-2.16263,4.0321,4.0321,0,0,1-.32827-1.62831V29.9138h2.47865v.77756a2.02286,2.02286,0,0,0,.401,1.22687,1.56143,1.56143,0,0,0,1.34868.547,2.17528,2.17528,0,0,0,.984-.18233,1.25388,1.25388,0,0,0,.53472-.51021,2.106,2.106,0,0,0,.231-.81435q.048-.48528.04825-1.06906a10.58764,10.58764,0,0,0-.04825-1.1177,1.78037,1.78037,0,0,0-.20685-.7048,1.262,1.262,0,0,0-.43743-.43743,5.82582,5.82582,0,0,0-.74119-.36426l-1.77385-.72932a3.92912,3.92912,0,0,1-2.15037-1.73746,5.97215,5.97215,0,0,1-.5466-2.70923,6.283,6.283,0,0,1,.267-1.847,4.315,4.315,0,0,1,.78983-1.50649A3.77374,3.77374,0,0,1,171.3346,17.727a4.36243,4.36243,0,0,1,1.87114-.37652,4.11637,4.11637,0,0,1,1.68882.34014,4.1997,4.1997,0,0,1,1.3119.89938,3.98787,3.98787,0,0,1,.83848,1.25139,3.62547,3.62547,0,0,1,.29149,1.42145Z"/><path class="cls-1" d="M180.80305,17.49643h7.3873v2.33271H183.2817v5.07871h4.27663v2.33271H183.2817v5.07871h4.90865v2.47865h-7.3873Z"/><path class="cls-1" d="M191.31644,17.49643h2.38136l3.74229,10.4244h.04865V17.49643h2.47865V34.79792h-2.33271l-3.79094-10.40027h-.04865V34.79792h-2.47865Z"/><path class="cls-1" d="M205.45071,19.82914h-2.86744V17.49643h8.21312v2.33271H207.929V34.79792h-2.47825Z"/><path class="cls-1" d="M211.93822,32.31927h2.47865v2.47865h-2.47865Z"/></svg>