<svg id="Layer_1" data-name="Layer 1" xmlns="http://www.w3.org/2000/svg" width="300" height="250" viewBox="0 0 300 250"><defs><style>.cls-1{fill:#fff;}</style></defs><title>newyear2</title><path class="cls-1" d="M67.56,143l3.2,10.77V143h2.42v16H70.59l-3.33-10.26v10.26H64.85V143Z"/><path class="cls-1" d="M76.34,159.05V143h6.88v2.42H78.76v4.39H82v2.42H78.76v4.39h4.46v2.41Z"/><path class="cls-1" d="M94.82,143h2.53l-2.51,16H92.52l-1.36-8.74-1.28,8.74H87.56l-2.68-16h2.54l1.26,8.59L89.84,143h2.53l1.27,8.59Z"/><path class="cls-1" d="M105.56,152.34,102.33,143H105l1.8,5.76,1.78-5.76h2.67L108,152.34v6.71h-2.42Z"/><path class="cls-1" d="M113.16,159.05V143H120v2.42h-4.46v4.39h3.26v2.42h-3.26v4.39H120v2.41Z"/><path class="cls-1" d="M124.8,155.37l-.58,3.68H121.7l2.72-16h3.33l2.68,16H127.9l-.57-3.68Zm1.27-8.67-.9,6.31H127Z"/><path class="cls-1" d="M136.27,143a3.66,3.66,0,0,1,3,1.12,4.05,4.05,0,0,1,.83,2.7v2.33a3.74,3.74,0,0,1-1.29,2.88l1.79,7H138L136.49,153h-1.6v6h-2.42V143Zm1.45,3.87a1.23,1.23,0,0,0-1.38-1.4h-1.45v5.13h1.45a1.33,1.33,0,0,0,1-.41,1.39,1.39,0,0,0,.4-1Z"/><path class="cls-1" d="M142.23,156.64h2.42v2.42h-2.42Z"/></svg>