<svg id="Layer_1" data-name="Layer 1" xmlns="http://www.w3.org/2000/svg" width="728" height="90" viewBox="0 0 728 90"><defs><style>.cls-1,.cls-2{fill:#ab9555;}.cls-1{opacity:0.5;}</style></defs><title>frame3</title><path class="cls-1" d="M165.31494,58.22845a4.21045,4.21045,0,0,1-4.23828-4.22363V40.26947h2.62207v13.707a1.46547,1.46547,0,0,0,.45361,1.084,1.49911,1.49911,0,0,0,1.09131.44629,1.52378,1.52378,0,0,0,1.53076-1.53027v-13.707h2.79248V54.00482a4.03761,4.03761,0,0,1-1.24707,3.00488A4.14574,4.14574,0,0,1,165.31494,58.22845Z"/><path class="cls-1" d="M176.55225,40.25579l3.55517,11.94532V40.25579h2.6792V58.03021h-2.87744l-3.68555-11.38184V58.03021h-2.67871V40.25579Z"/><path class="cls-1" d="M191.002,40.26947a4.08162,4.08162,0,0,1,3.11866,1.2334,4.27872,4.27872,0,0,1,1.07714,3.00488v2.58008a4.13059,4.13059,0,0,1-1.22607,3.00488,4.01158,4.01158,0,0,1-2.96973,1.24707H189.457v6.69043h-2.67871V40.26947Zm1.60205,4.28125a1.52876,1.52876,0,0,0-.41845-1.12012,1.49028,1.49028,0,0,0-1.11231-.42481H189.457v5.6836h1.61621a1.46531,1.46531,0,0,0,1.084-.45313,1.50142,1.50142,0,0,0,.44677-1.09179Z"/><path class="cls-1" d="M206.2334,58.03021h-7.29981V40.26947h2.67871v15.0957h4.6211Z"/><path class="cls-1" d="M213.91064,58.22845a4.21045,4.21045,0,0,1-4.23828-4.22363V40.26947h2.62207v13.707a1.46544,1.46544,0,0,0,.45362,1.084,1.49908,1.49908,0,0,0,1.09131.44629,1.52378,1.52378,0,0,0,1.53076-1.53027v-13.707h2.79248V54.00482a4.03765,4.03765,0,0,1-1.24707,3.00488A4.14576,4.14576,0,0,1,213.91064,58.22845Z"/><path class="cls-1" d="M226.35059,58.25677a4.24612,4.24612,0,0,1-4.25245-4.23828V44.32415a4.24514,4.24514,0,1,1,8.49024,0v2.02637h-2.77783v-2.084a1.5496,1.5496,0,0,0-1.54541-1.54492,1.46328,1.46328,0,0,0-1.084.4541,1.49921,1.49921,0,0,0-.44677,1.09082v9.72363a1.52459,1.52459,0,0,0,1.53076,1.53125,1.50317,1.50317,0,0,0,1.09179-.44531,1.459,1.459,0,0,0,.45362-1.08106V50.50384h-1.48877V47.81048h4.2666v6.208a4.23441,4.23441,0,0,1-4.23779,4.23828Z"/><path class="cls-1" d="M234.02783,55.36517h2.67871v2.67969h-2.67871Z"/><path class="cls-1" d="M254.32324,58.03021h-7.2998V40.26947h2.67871v15.0957h4.62109Z"/><path class="cls-1" d="M262.00049,40.0429a4.24609,4.24609,0,0,1,4.25195,4.252v9.69531a4.24514,4.24514,0,1,1-8.49023,0V44.29486a4.24612,4.24612,0,0,1,4.23828-4.252ZM263.46,44.23822a1.52378,1.52378,0,0,0-1.53076-1.53028,1.4991,1.4991,0,0,0-1.09131.44629,1.46544,1.46544,0,0,0-.45361,1.084v9.72363a1.466,1.466,0,0,0,.45361,1.085,1.4991,1.4991,0,0,0,1.09131.44629A1.52379,1.52379,0,0,0,263.46,53.96185Z"/><path class="cls-1" d="M274.398,40.0429a4.24609,4.24609,0,0,1,4.252,4.252v9.69531a4.24514,4.24514,0,1,1-8.49023,0V44.29486a4.24612,4.24612,0,0,1,4.23828-4.252Zm1.45947,4.19532a1.52378,1.52378,0,0,0-1.53076-1.53028,1.49911,1.49911,0,0,0-1.09131.44629,1.46547,1.46547,0,0,0-.45361,1.084v9.72363a1.46608,1.46608,0,0,0,.45361,1.085,1.49911,1.49911,0,0,0,1.09131.44629,1.52379,1.52379,0,0,0,1.53076-1.53125Z"/><path class="cls-1" d="M285.27783,52.39642v5.63379h-2.67871V40.25579h2.67871v6.33594l3.27442-6.33594h2.856l-3.667,7.25,4.30029,10.52442h-3.14892l-2.813-7.2168Z"/><path class="cls-1" d="M303.15527,58.22845a4.21045,4.21045,0,0,1-4.23828-4.22363V40.26947h2.62207v13.707a1.46544,1.46544,0,0,0,.45362,1.084,1.49907,1.49907,0,0,0,1.0913.44629,1.52378,1.52378,0,0,0,1.53077-1.53027v-13.707h2.79248V54.00482a4.03765,4.03765,0,0,1-1.24707,3.00488A4.14578,4.14578,0,0,1,303.15527,58.22845Z"/><path class="cls-1" d="M315.60889,40.26947a4.08158,4.08158,0,0,1,3.11865,1.2334,4.27872,4.27872,0,0,1,1.07715,3.00488v2.58008a4.13056,4.13056,0,0,1-1.22608,3.00488,4.01157,4.01157,0,0,1-2.96972,1.24707H314.064v6.69043h-2.67871V40.26947Zm1.60205,4.28125a1.52877,1.52877,0,0,0-.41846-1.12012,1.49026,1.49026,0,0,0-1.1123-.42481H314.064v5.6836h1.61622a1.46529,1.46529,0,0,0,1.084-.45313,1.50143,1.50143,0,0,0,.44678-1.09179Z"/><path class="cls-1" d="M323.24365,55.36517h2.67871v2.67969h-2.67871Z"/><path class="cls-2" d="M336.23975,58.03021V40.25579H340.251a5.10839,5.10839,0,0,1,2.86328.83594,3.894,3.894,0,0,1,1.55908,2.19727,6.19175,6.19175,0,0,1,.25537,1.88476A4.17188,4.17188,0,0,1,343.979,48.037a2.698,2.698,0,0,1-.93554.69532,3.1109,3.1109,0,0,1,1.5166,1.3457,5.24749,5.24749,0,0,1,.60937,1.75781,7.03555,7.03555,0,0,1,.09912,1.2334,5.93351,5.93351,0,0,1-.63769,2.86328,3.8226,3.8226,0,0,1-1.40332,1.47364,3.8629,3.8629,0,0,1-2.02686.624Zm2.8916-10.51758H340.251a1.64062,1.64062,0,0,0,1.67236-1.21875,3.47765,3.47765,0,0,0,.15625-1.12012,2.34191,2.34191,0,0,0-.53857-1.67187,1.69557,1.69557,0,0,0-1.29-.52442h-1.11963Zm0,7.86719H340.251a1.90087,1.90087,0,0,0,1.88525-1.40332,3.0864,3.0864,0,0,0,.18408-1.10547,3.36752,3.36752,0,0,0-.56689-2.16895,1.82822,1.82822,0,0,0-1.50244-.624h-1.11963Z"/><path class="cls-2" d="M353.41309,40.26947a4.08424,4.08424,0,0,1,3.28857,1.2334,4.48177,4.48177,0,0,1,.92139,3.00488v2.58008a4.15106,4.15106,0,0,1-1.43164,3.18945l1.98437,7.75293h-2.897l-1.62451-6.69043h-1.78614v6.69043h-2.67871V40.26947Zm1.602,4.28125a1.35918,1.35918,0,0,0-1.53076-1.54493h-1.61622v5.6836h1.61622a1.46529,1.46529,0,0,0,1.084-.45313,1.50143,1.50143,0,0,0,.44678-1.09179Z"/><path class="cls-2" d="M362.06836,58.03021V40.25579h7.626v2.69336h-4.94727v4.84766h3.61523v2.69238h-3.61523v4.84766h4.94727v2.69336Z"/><path class="cls-2" d="M376.57324,53.94818l-.65039,4.082h-2.79l3.01953-17.76074h3.68555l2.97656,17.76074h-2.81738l-.627-4.082Zm1.40723-9.61035-.99219,7.002h1.98438Z"/><path class="cls-2" d="M387.00488,42.96283h-2.84961V40.26947h8.36328v2.69336h-2.835V58.03021h-2.67871Z"/><path class="cls-2" d="M398.94922,50.50384v7.52637h-2.67969V40.26947h2.67969v7.541h3.23144v-7.541h2.67871V58.03021h-2.67871V50.50384Z"/><path class="cls-2" d="M408.85059,58.03021V40.25579h7.626v2.69336h-4.94629v4.84766h3.61426v2.69238h-3.61426v4.84766h4.94629v2.69336Z"/><path class="cls-2" d="M426.03613,58.03021h-2.67968V40.26947h2.67968Z"/><path class="cls-2" d="M433.0332,40.25579l3.55567,11.94532V40.25579h2.67871V58.03021h-2.87793l-3.68457-11.38184V58.03021h-2.67969V40.25579Z"/><path class="cls-2" d="M442.70605,55.36517h2.67969v2.67969h-2.67969Z"/></svg>