<svg id="Layer_1" data-name="Layer 1" xmlns="http://www.w3.org/2000/svg" xmlns:xlink="http://www.w3.org/1999/xlink" width="36.16602" height="50.72007" viewBox="0 0 36.16602 50.72007"><defs><style>.cls-1{fill:url(#New_Gradient_Swatch_1);}.cls-2{fill:#fff;}.cls-3{fill:#ba9544;}</style><linearGradient id="New_Gradient_Swatch_1" x1="2.01971" y1="16.65348" x2="34.0654" y2="16.65348" gradientUnits="userSpaceOnUse"><stop offset="0" stop-color="#a88a34"/><stop offset="0.49324" stop-color="#caaf67"/><stop offset="1" stop-color="#957f2e"/></linearGradient></defs><title>earthy</title><polygon class="cls-1" points="30.865 5.554 14.841 0 2.02 11.099 5.222 27.753 21.244 33.307 34.065 22.208 30.865 5.554"/><path class="cls-2" d="M22.06842,20.5492a3.75212,3.75212,0,0,0-1.87414-1.73329,1.83868,1.83868,0,0,0-1.40365.13774,3.91774,3.91774,0,0,0-.73355-.18881,7.66456,7.66456,0,0,1,1.55841-3.07039c.04024.00155.07892.00155.11763.00155.15165.00154.30176.00309.45034.00309,1.74412,0,3.29014-.23059,3.37062-3.38145a4.85321,4.85321,0,0,1,.65616-1.47639l.23988-.39308H23.989a4.99087,4.99087,0,0,0-4.98476,4.98629v.23522c-.18879.27084-.36677.54011-.53082.80629a6.39547,6.39547,0,0,0-6.376-6.0278h-.46119l.23988.39308a6.32345,6.32345,0,0,1,.862,1.953c.10213,4.016,2.07531,4.31,4.30226,4.31.19036,0,.38224-.00154.57416-.00464.16714-.00155.33581-.0031.506-.0031A4.93679,4.93679,0,0,0,17.54175,18.72a2.33557,2.33557,0,0,0-2.21924,1.22878,2.92741,2.92741,0,0,0-2.38635.12845A2.87052,2.87052,0,0,0,11.83737,22.592l-.00775.26618H24.1731l.048-.19808a1.55742,1.55742,0,0,0-.26-1.1839,2.61467,2.61467,0,0,0-1.89267-.927"/><path class="cls-3" d="M0,50.72007V44.60288L4.49707,44.599v1.14258H1.22461v1.30566H3.67676v1.13868H1.22461v1.3916H4.48926v1.14258Z"/><path class="cls-3" d="M5.40723,50.72007,7.85547,44.599H9.0791l2.44434,6.11719-1.30176.00391-.36719-.93848H7.08008l-.36719.93848ZM8.5,46.23081,7.56934,48.557H9.40625Z"/><path class="cls-3" d="M16.12207,48.05112l1.52637,2.669h-1.4043L14.7793,48.18979H13.66113v2.53028H12.4375V44.599h2.669q2.14159,0,2.1416,1.7627A1.58219,1.58219,0,0,1,16.12207,48.05112Zm-2.46094-1.00391H15.375q.73974-.01172.75977-.67285-.02052-.605-.74707-.6289H13.66113Z"/><path class="cls-3" d="M23.2793,44.599v1.14258h-2.04v4.97852H20.01562V45.74155h-2.041V44.599Z"/><path class="cls-3" d="M24.18945,50.72007V44.599h1.22364v2.44824h2.85253V44.59507h1.22461v6.12109l-1.22461.00391V48.18979H25.41309v2.53028Z"/><path class="cls-3" d="M30.45312,44.599h1.43653l1.41992,2,1.45313-2H36.166l-2.24414,3.06055v3.06055H32.69727V47.65952Z"/></svg>