<svg xmlns="http://www.w3.org/2000/svg" width="727.99955" height="90" viewBox="0 0 727.99955 90"><defs><style>.cls-1{fill:#fff;stroke:#ba9544;stroke-miterlimit:10;stroke-width:0.5px;}.cls-2{fill:#ba9544;}</style></defs><title>THC - MK Ultra</title><g id="Content"><polygon class="cls-1" points="359.055 21.185 228.126 20.689 221.517 30.22 228.126 39.582 359.055 39.359 365.003 30.273 359.055 21.185"/><polygon class="cls-2" points="228.222 20.689 221.613 30.22 228.222 39.582 248.287 39.582 248.355 20.689 228.222 20.689"/><path class="cls-2" d="M303.063,27.0962v1.19727h-2.13672v5.21289h-1.28222V28.29347h-2.13672V27.0962Z"/><path class="cls-2" d="M304.01514,33.50636V27.0962h1.28223v2.56446h2.9873V27.0923h1.28223v6.41015l-1.28223.00391V30.85792h-2.9873v2.64844Z"/><path class="cls-2" d="M311.55518,32.58644a3.20762,3.20762,0,0,1,2.28027-5.49024,3.46478,3.46478,0,0,1,2.35449.85547l-.85449.93555a2.36249,2.36249,0,0,0-1.5-.51269,1.88383,1.88383,0,0,0-1.39062.53808,1.86256,1.86256,0,0,0-.52832,1.36719,1.92567,1.92567,0,0,0,.53418,1.41992,1.897,1.897,0,0,0,1.39355.52539,2.29837,2.29837,0,0,0,1.49121-.50879l.85449.93653a3.4592,3.4592,0,0,1-2.35449.85351A3.11826,3.11826,0,0,1,311.55518,32.58644Z"/><path class="cls-2" d="M317.62647,29.41945a.61643.61643,0,0,1,.46191-.17285.63935.63935,0,0,1,.47852.17285.58539.58539,0,0,1,.1709.42871.577.577,0,0,1-.1709.42773.73233.73233,0,0,1-.94043,0,.577.577,0,0,1-.1709-.42773A.58535.58535,0,0,1,317.62647,29.41945Zm0,3.05957a.62017.62017,0,0,1,.46191-.17285.64315.64315,0,0,1,.47852.17285.58607.58607,0,0,1,.1709.42968.58008.58008,0,0,1-.1709.42774.73557.73557,0,0,1-.94043,0,.58.58,0,0,1-.1709-.42774A.586.586,0,0,1,317.62647,32.479Z"/><path class="cls-2" d="M324.45069,27.0962v-.0039H325.729v6.41406h-1.27832V28.80617l-.8545.85449-.85449-.85449Z"/><path class="cls-2" d="M327.00635,30.39113a3.88293,3.88293,0,0,1,.66211-2.40821,2.16852,2.16852,0,0,1,1.77344-.88281,2.69383,2.69383,0,0,1,1.79492.6377l-.64063.85449a2.25982,2.25982,0,0,0-1.09863-.25586,1.13587,1.13587,0,0,0-.88476.36328,1.7217,1.7217,0,0,0-.36719,1.08984,1.98777,1.98777,0,0,1,1.28222-.55664,2.14435,2.14435,0,0,1,1.64551.57715,2.20978,2.20978,0,0,1,.53418,1.55957,2.104,2.104,0,0,1-.59863,1.51758,2.26753,2.26753,0,0,1-1.71.61914,2.14105,2.14105,0,0,1-1.83692-.86719A3.96955,3.96955,0,0,1,327.00635,30.39113Zm1.41016.9834q.04248.89208,1.02539.93164.98291-.03956,1.02636-.85059a.96844.96844,0,0,0-1.06933-1.06836A.95162.95162,0,0,0,328.41651,31.37453Z"/><path class="cls-2" d="M332.86084,31.79347v-.85059h2.64942v.85059Z"/><path class="cls-2" d="M338.92432,27.0962a2.42075,2.42075,0,0,1,1.541.47266,1.6815,1.6815,0,0,1,.60059,1.4082,2.93819,2.93819,0,0,1-.85254,2.03418,5.91956,5.91956,0,0,1-1.4082,1.21387h2.30762v1.28125h-4.32032V32.22511q.42627,0,1.624-1.06836a6.15737,6.15737,0,0,0,1.38867-1.51758,1.0441,1.0441,0,0,0-.02149-.89746q-.21385-.44825-1.02539-.44824a1.46952,1.46952,0,0,0-1.19726.5127l-.85449-.8545a3.54521,3.54521,0,0,1,.833-.6416A3.22478,3.22478,0,0,1,338.92432,27.0962Z"/><path class="cls-2" d="M342.95459,32.58644a4.39775,4.39775,0,0,1,0-4.57129,2.05131,2.05131,0,0,1,3.4209,0,4.41271,4.41271,0,0,1,0,4.57324,2.05132,2.05132,0,0,1-3.4209-.00195Zm1.71387-.27637q.42335,0,.74316-.57715a3.35945,3.35945,0,0,0,0-2.86328q-.32079-.57714-.752-.57617-.42335,0-.74316.57617a3.35028,3.35028,0,0,0,0,2.86328Q344.23584,32.31008,344.66846,32.31007Z"/><path class="cls-2" d="M348.54053,29.80128a1.65011,1.65011,0,1,1,1.14551.46192A1.5535,1.5535,0,0,1,348.54053,29.80128Zm1.13184-.29883a.76135.76135,0,0,0,.58593-.24414.92228.92228,0,0,0,0-1.21093.77147.77147,0,0,0-.58984-.24121.76108.76108,0,0,0-.58106.24121.92231.92231,0,0,0,0,1.21093A.76073.76073,0,0,0,349.67237,29.50245Zm-.3418,4.00391,3.63281-6.41016h1.043l-3.624,6.41016Zm3.18457-.42187a1.64213,1.64213,0,1,1,1.13672.457A1.54387,1.54387,0,0,1,352.51514,33.08449Zm1.11523-.3125a.74921.74921,0,0,0,.57227-.23731.8926.8926,0,0,0,0-1.17969.75547.75547,0,0,0-.57715-.2373.74511.74511,0,0,0-.56836.2373.89556.89556,0,0,0,0,1.17969A.75132.75132,0,0,0,353.63037,32.772Z"/></g></svg>