<svg id="Layer_1" data-name="Layer 1" xmlns="http://www.w3.org/2000/svg" width="142.6055" height="15.5146" viewBox="0 0 142.6055 15.5146"><defs><style>.cls-1{fill:#ac9655;}</style></defs><title>frame3</title><path class="cls-1" d="M3.61,15.49a3.48,3.48,0,0,1-2.56-1.0507A3.4682,3.4682,0,0,1,0,11.8926V.1924H2.2344V11.8682a1.2469,1.2469,0,0,0,.3857.9238,1.28,1.28,0,0,0,.93.38,1.2988,1.2988,0,0,0,1.3047-1.3037V.1924H7.2324v11.7a3.44,3.44,0,0,1-1.0625,2.56A3.5284,3.5284,0,0,1,3.61,15.49Z"/><path class="cls-1" d="M14.8828.1807l3.0283,10.1757V.1807h2.2813V15.3213h-2.45l-3.14-9.6953v9.6953H12.32V.1807Z"/><path class="cls-1" d="M28.8789,15.5146a3.6077,3.6077,0,0,1-3.6221-3.61V3.6455A3.48,3.48,0,0,1,26.3193,1.08a3.6213,3.6213,0,0,1,5.1192.0058,3.5109,3.5109,0,0,1,1.0508,2.56V5.3721H30.1221V3.5977a1.3189,1.3189,0,0,0-1.3155-1.3165,1.2479,1.2479,0,0,0-.9238.3868,1.2761,1.2761,0,0,0-.38.93V11.88a1.2988,1.2988,0,0,0,1.3037,1.3047,1.277,1.277,0,0,0,.93-.3809,1.2488,1.2488,0,0,0,.3858-.9238V9.791h2.3672v2.1133a3.6074,3.6074,0,0,1-3.61,3.61Z"/><path class="cls-1" d="M40.9941,0A3.48,3.48,0,0,1,43.56,1.0625a3.4957,3.4957,0,0,1,1.0566,2.56V11.88a3.6162,3.6162,0,1,1-7.2324,0V3.6221a3.4858,3.4858,0,0,1,1.0625-2.5664A3.4863,3.4863,0,0,1,40.9941,0Zm1.2442,3.5732A1.2988,1.2988,0,0,0,40.9336,2.27a1.28,1.28,0,0,0-.93.38,1.2469,1.2469,0,0,0-.3857.9238v8.2832a1.2432,1.2432,0,0,0,.3857.9229,1.277,1.277,0,0,0,.93.3809,1.3,1.3,0,0,0,1.3047-1.3038Z"/><path class="cls-1" d="M51.95,15.3213,49.2461.1924h2.3916l1.8994,11.793L55.4492.1924h2.3936L55.09,15.3213Z"/><path class="cls-1" d="M62.81,15.3213V.1807h6.4961V2.4746H65.0918V6.6035H68.17V8.8984H65.0918v4.1289h4.2139v2.294Z"/><path class="cls-1" d="M77.5332.1924A3.48,3.48,0,0,1,80.334,1.2432a3.8149,3.8149,0,0,1,.7851,2.56V6a3.53,3.53,0,0,1-1.2207,2.7168L81.59,15.3213H79.1211L77.7383,9.6221H76.2168v5.6992H73.9346V.1924Zm1.3633,3.6465a1.1569,1.1569,0,0,0-1.3027-1.3155h-1.377V7.3643h1.377a1.2486,1.2486,0,0,0,.9238-.3858,1.2831,1.2831,0,0,0,.3789-.93Z"/><path class="cls-1" d="M97.7588,15.3213H95.4775V.1807H98.752l2.1269,10.8759L102.92.1807h3.1465V15.3213h-2.2822V5.8066l-1.98,9.5147H99.9688l-2.21-9.49Z"/><path class="cls-1" d="M114.74,0a3.482,3.482,0,0,1,2.5664,1.0625,3.4984,3.4984,0,0,1,1.0557,2.56V11.88a3.6157,3.6157,0,1,1-7.2314,0V3.6221a3.482,3.482,0,0,1,1.0625-2.5664A3.4841,3.4841,0,0,1,114.74,0Zm1.2442,3.5732A1.2988,1.2988,0,0,0,114.6807,2.27a1.2784,1.2784,0,0,0-.93.38,1.2479,1.2479,0,0,0-.3867.9238v8.2832a1.2441,1.2441,0,0,0,.3867.9229,1.2754,1.2754,0,0,0,.93.3809,1.3,1.3,0,0,0,1.3037-1.3038Z"/><path class="cls-1" d="M127.0371.1924a3.48,3.48,0,0,1,2.8008,1.0508,3.8149,3.8149,0,0,1,.7851,2.56V6a3.5324,3.5324,0,0,1-1.22,2.7168l1.69,6.6045H128.626l-1.3838-5.6992h-1.5215v5.6992H123.44V.1924Zm1.3643,3.6465a1.1576,1.1576,0,0,0-1.3037-1.3155h-1.377V7.3643h1.377a1.247,1.247,0,0,0,.9238-.3858,1.28,1.28,0,0,0,.38-.93Z"/><path class="cls-1" d="M136.11,15.3213V.1807h6.4951V2.4746h-4.2139V6.6035h3.0791V8.8984h-3.0791v4.1289h4.2139v2.294Z"/></svg>