<svg id="Layer_1" data-name="Layer 1" xmlns="http://www.w3.org/2000/svg" width="131.4023" height="15.5146" viewBox="0 0 131.4023 15.5146"><defs><style>.cls-1{fill:#ac9655;}</style></defs><title>frame4</title><path class="cls-1" d="M2.5615.1807,5.59,10.3564V.1807H7.8721V15.3213H5.4209L2.2822,5.626v9.6953H0V.1807Z"/><path class="cls-1" d="M15.77,11.8438l-.5537,3.4775H12.8389L15.4111.1924H18.55l2.5361,15.1289H18.6865l-.5342-3.4775Zm1.1993-8.1856L16.123,9.6221h1.6905Z"/><path class="cls-1" d="M28.3477,15.3213H26.0654V.1807H29.34l2.127,10.8759L33.5078.1807h3.1465V15.3213H34.3721V5.8066l-1.98,9.5147h-1.836l-2.2089-9.49Z"/><path class="cls-1" d="M44.5518,11.8438l-.5538,3.4775H41.6211L44.1934.1924H47.332l2.5362,15.1289H47.4688l-.5342-3.4775ZM45.751,3.6582l-.8457,5.9639h1.69Z"/><path class="cls-1" d="M61.7061,11.5547a4.26,4.26,0,0,1-.8213,2.7041,2.9573,2.9573,0,0,1-1.5694,1.0742,4.2628,4.2628,0,0,1-1.2685.169,3.5822,3.5822,0,0,1-2.2207-.6641,3.708,3.708,0,0,1-1.166-1.4785,5.9892,5.9892,0,0,1-.501-2.1436L56.333,11.06a3.304,3.304,0,0,0,.7,1.917,1.165,1.165,0,0,0,.9414.4248,1.4145,1.4145,0,0,0,1.1953-.7373,1.8259,1.8259,0,0,0,.23-1.003,2.7817,2.7817,0,0,0-.8574-1.873q-.6753-.64-2.0283-1.9209a8.6488,8.6488,0,0,1-1.6055-1.9707,4.5557,4.5557,0,0,1-.5068-2.127A3.7017,3.7017,0,0,1,55.7891.64,3.4541,3.4541,0,0,1,57.9141,0a3.8594,3.8594,0,0,1,2.0888.543,3.1317,3.1317,0,0,1,1.0928,1.1836,4.3581,4.3581,0,0,1,.501,1.75l-2.1846.3984a2.6387,2.6387,0,0,0-.5312-1.4482,1.1168,1.1168,0,0,0-.9063-.375,1.0424,1.0424,0,0,0-.9531.5556,2.1362,2.1362,0,0,0-.2656,1.1114,3.3288,3.3288,0,0,0,.8925,2.1123,7.5517,7.5517,0,0,0,1.0147.9658q.7968.665,1.0508.93a7.7457,7.7457,0,0,1,1.3037,1.666,6.3139,6.3139,0,0,1,.35.7129A4.1568,4.1568,0,0,1,61.7061,11.5547Z"/><path class="cls-1" d="M68.7617,2.4863H66.335V.1924h7.123V2.4863H71.0439v12.835H68.7617Z"/><path class="cls-1" d="M78.3535,15.3213V.1807h6.4951V2.4746H80.6348V6.6035h3.0791V8.8984H80.6348v4.1289h4.2138v2.294Z"/><path class="cls-1" d="M89.48,13.0518h2.2812V15.333H89.48Z"/><path class="cls-1" d="M100.0127,15.5146a3.606,3.606,0,0,1-3.6221-3.61V3.6455A3.48,3.48,0,0,1,97.4531,1.08a3.6213,3.6213,0,0,1,5.1192.0058,3.51,3.51,0,0,1,1.05,2.56V5.3721h-2.3662V3.5977A1.3189,1.3189,0,0,0,99.94,2.2812a1.2464,1.2464,0,0,0-.9238.3868,1.277,1.277,0,0,0-.3809.93V11.88A1.3,1.3,0,0,0,99.94,13.1846a1.2784,1.2784,0,0,0,.93-.3809,1.2488,1.2488,0,0,0,.3858-.9238V9.791h2.3662v2.1133a3.6074,3.6074,0,0,1-3.6094,3.61Z"/><path class="cls-1" d="M112.127,0a3.4823,3.4823,0,0,1,2.5664,1.0625,3.4983,3.4983,0,0,1,1.0556,2.56V11.88a3.6157,3.6157,0,1,1-7.2314,0V3.6221A3.482,3.482,0,0,1,109.58,1.0557,3.4841,3.4841,0,0,1,112.127,0Zm1.2441,3.5732A1.2988,1.2988,0,0,0,112.0674,2.27a1.2784,1.2784,0,0,0-.93.38,1.2479,1.2479,0,0,0-.3867.9238v8.2832a1.2441,1.2441,0,0,0,.3867.9229,1.2754,1.2754,0,0,0,.93.3809,1.3,1.3,0,0,0,1.3037-1.3038Z"/><path class="cls-1" d="M123.0947,15.3213h-2.2812V.1807h3.2744l2.1269,10.8759L128.2559.1807h3.1464V15.3213H129.12V5.8066L127.14,15.3213h-1.8349l-2.21-9.49Z"/></svg>