<svg xmlns="http://www.w3.org/2000/svg" width="640" height="100" viewBox="0 0 640 100"><defs><style>.cls-1{isolation:isolate;}.cls-2{fill:#ba9544;}.cls-3{mix-blend-mode:multiply;}</style></defs><title>Frame1 - Ultra Sour</title><g class="cls-1"><g id="Content"><path class="cls-2" d="M214.16718,40.08105V57.35938c0,1.60058.7041,2.17675,1.82324,2.17675,1.12109,0,1.82422-.57617,1.82422-2.17675V40.08105h3.32812V57.13574c0,3.584-1.792,5.63184-5.248,5.63184-3.45508,0-5.24707-2.04785-5.24707-5.63184V40.08105Z"/><path class="cls-2" d="M226.93573,40.08105h3.51953V59.2793h5.791v3.20019h-9.31055Z"/><path class="cls-2" d="M240.15058,40.08105h10.87988v3.2002h-3.67969V62.47949h-3.52051V43.28125h-3.67968Z"/><path class="cls-2" d="M263.31757,62.47949a6.88611,6.88611,0,0,1-.31934-2.752V56.208c0-2.08008-.70507-2.84766-2.30468-2.84766H259.4787v9.11914h-3.52051V40.08105h5.31153c3.64844,0,5.21582,1.69629,5.21582,5.15137v1.75977c0,2.30469-.73535,3.80859-2.30371,4.54394,1.75976.73633,2.33593,2.43164,2.33593,4.76758v3.45606a6.5869,6.5869,0,0,0,.38379,2.71972ZM259.4787,43.28125v6.87891h1.375c1.3125,0,2.11231-.57618,2.11231-2.36719V45.585c0-1.60058-.54395-2.30371-1.792-2.30371Z"/><path class="cls-2" d="M283.60566,62.47949h-3.55274L279.4455,58.416h-4.31934l-.6084,4.06347h-3.23144l3.583-22.39844h5.15234ZM275.57441,55.376H278.965l-1.69531-11.32715Z"/><path class="cls-2" d="M301.718,39.8252c3.42383,0,5.18359,2.04785,5.18359,5.63183v.7041h-3.32714v-.92871c0-1.59961-.64063-2.207-1.76075-2.207s-1.75976.60742-1.75976,2.207c0,4.6084,6.87988,5.47168,6.87988,11.8711,0,3.584-1.792,5.63183-5.24805,5.63183-3.45507,0-5.248-2.04785-5.248-5.63183v-1.376h3.32812v1.60058c0,1.59961.7041,2.17579,1.82422,2.17579,1.11914,0,1.82422-.57618,1.82422-2.17579,0-4.60839-6.87988-5.47167-6.87988-11.87109C296.53437,41.87305,298.29413,39.8252,301.718,39.8252Z"/><path class="cls-2" d="M312.0539,45.457c0-3.584,1.88769-5.63183,5.34375-5.63183s5.34375,2.04785,5.34375,5.63183V57.10352c0,3.584-1.8877,5.63183-5.34375,5.63183s-5.34375-2.04785-5.34375-5.63183Zm3.52051,11.87109c0,1.59961.70312,2.208,1.82324,2.208s1.82324-.6084,1.82324-2.208V45.23242c0-1.59961-.70313-2.207-1.82324-2.207s-1.82324.60742-1.82324,2.207Z"/><path class="cls-2" d="M331.76581,40.08105V57.35938c0,1.60058.7041,2.17675,1.82422,2.17675,1.11914,0,1.82422-.57617,1.82422-2.17675V40.08105h3.32715V57.13574c0,3.584-1.792,5.63184-5.24707,5.63184-3.457,0-5.248-2.04785-5.248-5.63184V40.08105Z"/><path class="cls-2" d="M351.89276,62.47949a6.8978,6.8978,0,0,1-.32031-2.752V56.208c0-2.08008-.70312-2.84766-2.30273-2.84766h-1.2168v9.11914h-3.51953V40.08105h5.3125c3.64648,0,5.21484,1.69629,5.21484,5.15137v1.75977c0,2.30469-.73632,3.80859-2.30468,4.54394,1.76171.73633,2.33593,2.43164,2.33593,4.76758v3.45606a6.60262,6.60262,0,0,0,.38477,2.71972Zm-3.83984-19.19824v6.87891h1.377c1.31055,0,2.11133-.57618,2.11133-2.36719V45.585c0-1.60058-.54492-2.30371-1.793-2.30371Z"/></g></g></svg>