<svg id="Content" xmlns="http://www.w3.org/2000/svg" viewBox="0 0 640 1136"><defs><style>.cls-1{fill:#fff;stroke:#ba9544;stroke-miterlimit:10;stroke-width:0.96px;}.cls-2{fill:#ba9544;}</style></defs><title>THC - Durga Mata</title><polygon class="cls-1" points="500.74 690.2 144.86 688.85 126.9 714.75 144.86 740.2 500.74 739.6 516.91 714.9 500.74 690.2"/><polygon class="cls-2" points="145.12 688.85 127.16 714.75 145.12 740.2 180.73 740.2 180.34 688.85 145.12 688.85"/><path class="cls-2" d="M348.55,706.27v3.25h-5.8v14.17h-3.49V709.52h-5.81v-3.25Z"/><path class="cls-2" d="M351.14,723.69V706.27h3.49v7h8.12v-7h3.48v17.42h-3.48v-7.2h-8.12v7.2Z"/><path class="cls-2" d="M371.64,721.19a8.72,8.72,0,0,1,6.2-14.92,9.43,9.43,0,0,1,6.4,2.32l-2.33,2.54a6.39,6.39,0,0,0-4.07-1.39,5.13,5.13,0,0,0-3.78,1.46,5.07,5.07,0,0,0-1.44,3.72,5.25,5.25,0,0,0,1.45,3.86,5.17,5.17,0,0,0,3.79,1.43,6.17,6.17,0,0,0,4.05-1.39l2.33,2.55a9.41,9.41,0,0,1-6.4,2.32A8.48,8.48,0,0,1,371.64,721.19Z"/><path class="cls-2" d="M388.14,712.58a1.71,1.71,0,0,1,1.26-.47,1.77,1.77,0,0,1,1.3.47,1.71,1.71,0,0,1,0,2.33,2,2,0,0,1-2.56,0,1.71,1.71,0,0,1,0-2.33Zm0,8.32a1.67,1.67,0,0,1,1.26-.47,1.73,1.73,0,0,1,1.3.47,1.71,1.71,0,0,1,0,2.33,2,2,0,0,1-2.56,0,1.71,1.71,0,0,1,0-2.33Z"/><path class="cls-2" d="M410.34,706.28v0h3.47v10.12h2.35v3.48h-2.35v3.83h-3.47v-3.83h-7.91v-3.48h.11l-.1-.11Zm0,10.1v-5.55l-4.24,5.55Z"/><path class="cls-2" d="M418.82,719v-2.31H426V719Z"/><path class="cls-2" d="M438.87,714.86l.57.23c1.2.55,1.8,1.71,1.8,3.49a4.48,4.48,0,0,1-1.69,3.89,8.37,8.37,0,0,1-8.7,0,4.46,4.46,0,0,1-1.69-3.89c0-1.78.6-2.94,1.8-3.49l.57-.23-.34-.17a3.44,3.44,0,0,1-1.57-3.31,4.77,4.77,0,0,1,1.52-3.78,6.86,6.86,0,0,1,8.12,0,4.77,4.77,0,0,1,1.51,3.78,3.44,3.44,0,0,1-1.57,3.31Zm-3.67-1.58c1,0,1.68-.3,2-.8a1.84,1.84,0,0,0,0-2,2.47,2.47,0,0,0-3.94,0,1.84,1.84,0,0,0,0,2C433.52,713,434.17,713.25,435.2,713.28Zm0,3.2a2.57,2.57,0,0,0-2,1,1.84,1.84,0,0,0,0,2,2.47,2.47,0,0,0,3.94,0,1.84,1.84,0,0,0,0-2A2.59,2.59,0,0,0,435.2,716.48Z"/><path class="cls-2" d="M445.29,713.62a4.37,4.37,0,0,1,3.11-7.48,4.37,4.37,0,1,1,0,8.73A4.21,4.21,0,0,1,445.29,713.62Zm3.08-.81a2,2,0,0,0,1.59-.67,2.49,2.49,0,0,0,0-3.29,2.08,2.08,0,0,0-1.6-.66,2.05,2.05,0,0,0-1.58.66,2.49,2.49,0,0,0,0,3.29A2,2,0,0,0,448.37,712.81Zm-.93,10.88,9.87-17.42h2.84l-9.85,17.42Zm8.65-1.15a4.33,4.33,0,0,1,3.09-7.42,4.33,4.33,0,1,1-3.09,7.42Zm3-.85a2,2,0,0,0,1.55-.64,2.29,2.29,0,0,0,.61-1.61,2.26,2.26,0,0,0-.61-1.6,2,2,0,0,0-1.57-.64,2,2,0,0,0-1.54.64,2.25,2.25,0,0,0-.6,1.6,2.28,2.28,0,0,0,.6,1.61A2,2,0,0,0,459.13,721.69Z"/></svg>