<svg id="Layer_1" data-name="Layer 1" xmlns="http://www.w3.org/2000/svg" xmlns:xlink="http://www.w3.org/1999/xlink" width="32.58371" height="48.27566" viewBox="0 0 32.58371 48.27566"><defs><style>.cls-1{fill:url(#New_Gradient_Swatch_1);}.cls-2{fill:#fff;}.cls-3{fill:#ba9544;}</style><linearGradient id="New_Gradient_Swatch_1" y1="15.9181" x2="32.58371" y2="15.9181" gradientUnits="userSpaceOnUse"><stop offset="0" stop-color="#a88a34"/><stop offset="0.49324" stop-color="#caaf67"/><stop offset="1" stop-color="#957f2e"/></linearGradient></defs><title>lemon</title><polygon class="cls-1" points="5.012 28.218 0 12.3 11.281 0 27.573 3.618 32.584 19.538 21.304 31.836 5.012 28.218"/><path class="cls-2" d="M23.07457,14.10172c-.89175-2.17276-3.46308-3.6616-6.78194-3.63368C13.02185,10.496,10.421,11.97083,9.534,14.10172c-.79559.3536-1.72146,1.10732-1.72146,1.81607,0,.70254.91812,1.46866,1.74007,1.81451.8778,2.103,3.46,3.63678,6.74007,3.63678,3.28938,0,5.86383-1.554,6.78194-3.63678.85917-.37066,1.69664-1.12128,1.69664-1.813,0-.7103-.83592-1.447-1.69664-1.81762"/><path class="cls-3" d="M1.98759,42.14187v4.98828H5.25907v1.14551H.761V42.14187Z"/><path class="cls-3" d="M6.25224,48.27566V42.14577l4.50683-.0039V43.2864H7.4788V44.595h2.458v1.14063H7.4788v1.39453h3.27148v1.14551Z"/><path class="cls-3" d="M11.99345,48.27566V42.14187h.40918l2.6582,3.02539,2.66211-3.02539h.4082v6.13379H16.90458L16.90067,44.718,15.06083,46.762,13.22,44.718v3.55762Z"/><path class="cls-3" d="M19.92216,47.39382a3.15781,3.15781,0,1,1,2.1875.88184A2.97,2.97,0,0,1,19.92216,47.39382Zm2.1914-.26367a1.72231,1.72231,0,0,0,1.3252-.55176,2.09008,2.09008,0,0,0,0-2.74023,1.87666,1.87666,0,0,0-2.6582,0,2.09308,2.09308,0,0,0,0,2.74023A1.732,1.732,0,0,0,22.11356,47.13015Z"/><path class="cls-3" d="M26.08915,48.27566V42.14187h.40918l3.84375,3.84375V42.14187h1.22656v6.13379h-.45019l-3.80274-3.80274v3.80274Z"/></svg>