<svg xmlns="http://www.w3.org/2000/svg" xmlns:xlink="http://www.w3.org/1999/xlink" width="727.99955" height="90" viewBox="0 0 727.99955 90"><defs><style>.cls-1{fill:#ba9544;}.cls-2{fill:#fff;stroke:#ba9544;stroke-miterlimit:10;stroke-width:0.5px;}.cls-3{clip-path:url(#clip-path);}</style><clipPath id="clip-path"><polygon class="cls-1" points="221.661 59.938 228.27 69.3 228.4 69.311 228.4 50.41 228.27 50.405 221.661 59.938"/></clipPath></defs><title>CBD - Ultra Sour</title><g id="Content"><polygon class="cls-2" points="359.055 50.88 228.126 50.384 221.517 59.915 228.126 69.277 359.055 69.054 365.004 59.968 359.055 50.88"/><polygon class="cls-1" points="221.661 59.938 228.27 69.3 228.4 69.311 228.4 50.41 228.27 50.405 221.661 59.938"/><g class="cls-3"><rect class="cls-1" x="220.19895" y="48.94418" width="9.65938" height="21.82796"/></g><path class="cls-1" d="M298.43709,63.06007a3.20665,3.20665,0,0,1,2.28027-5.48926,3.4687,3.4687,0,0,1,2.35449.8545l-.85449.93652a2.3625,2.3625,0,0,0-1.5-.5127,1.8275,1.8275,0,0,0-1.91894,1.90528,1.92178,1.92178,0,0,0,.53418,1.41894,1.89308,1.89308,0,0,0,1.39355.52539,2.2976,2.2976,0,0,0,1.49121-.50781l.85449.93555a3.45351,3.45351,0,0,1-2.35449.85449A3.11909,3.11909,0,0,1,298.43709,63.06007Z"/><path class="cls-1" d="M309.00447,60.60109a1.82057,1.82057,0,0,1-1.043,3.38476l-3.60644-.00488V57.57472h3.40136q1.62012.09522,1.709,1.88477A1.34166,1.34166,0,0,1,309.00447,60.60109Zm-3.36328-.458h1.79492a.72325.72325,0,0,0,.79492-.79883q-.022-.47021-.78222-.49512h-1.80762Zm0,2.83789h2.09375a.836.836,0,0,0,.92285-.92676q-.0205-.61522-.91016-.6416h-2.10644Z"/><path class="cls-1" d="M311.17537,63.981V57.56691h2.4707q2.99121,0,2.99121,3.209,0,3.20508-2.99121,3.20508Zm2.4707-1.27734q1.70508-.00439,1.709-1.92774-.00439-1.92333-1.709-1.92285H312.4576v3.85059Z"/><path class="cls-1" d="M321.06013,59.89308a.62023.62023,0,0,1,.46192-.17285.64315.64315,0,0,1,.47851.17285.5876.5876,0,0,1,.1709.42969.58.58,0,0,1-.1709.42773.73233.73233,0,0,1-.94043,0,.58005.58005,0,0,1-.17089-.42773A.58763.58763,0,0,1,321.06013,59.89308Zm0,3.06055a.62019.62019,0,0,1,.46192-.17285.64311.64311,0,0,1,.47851.17285.586.586,0,0,1,.1709.42968.57628.57628,0,0,1-.1709.42676.73233.73233,0,0,1-.94043,0,.57631.57631,0,0,1-.17089-.42676A.58606.58606,0,0,1,321.06013,62.95363Z"/><path class="cls-1" d="M330.231,59.4087l-2.47949,1.36719,2.47949,1.36817v.98242l-4.05175-2.22656v-.27735l4.05175-2.19726Z"/><path class="cls-1" d="M335.78181,57.57081v-.0039h1.27832V63.981h-1.27832V59.28078l-.85449.85449-.85449-.85449Z"/></g></svg>