<svg id="Content" xmlns="http://www.w3.org/2000/svg" width="320" height="50" viewBox="0 0 320 50"><defs><style>.cls-1{fill:#ba9544;}</style></defs><title>Frame1 - Shiskkaberry</title><path class="cls-1" d="M123.57915,22.634c1.57813,0,2.39063.94433,2.39063,2.59716v.32422h-1.53516v-.42773c0-.7378-.29492-1.01807-.81152-1.01807s-.81152.28027-.81152,1.01807c0,2.125,3.17187,2.523,3.17187,5.47412,0,1.65283-.82617,2.59717-2.41992,2.59717s-2.41992-.94434-2.41992-2.59717v-.63428h1.53515v.73779c0,.7378.32422,1.00342.84082,1.00342s.84082-.26562.84082-1.00342c0-2.125-3.17187-2.52343-3.17187-5.47412C121.18853,23.57835,122.00005,22.634,123.57915,22.634Z"/><path class="cls-1" d="M130.10064,33.08079h-1.62305V22.75218h1.62305v4.42676h1.84375V22.75218h1.65332V33.08079h-1.65332V28.654h-1.84375Z"/><path class="cls-1" d="M136.34283,22.75218h1.623V33.08079h-1.623Z"/><path class="cls-1" d="M142.89361,22.634c1.5791,0,2.39062.94433,2.39062,2.59716v.32422h-1.53515v-.42773c0-.7378-.29493-1.01807-.81055-1.01807-.51758,0-.8125.28027-.8125,1.01807,0,2.125,3.17285,2.523,3.17285,5.47412,0,1.65283-.82617,2.59717-2.41992,2.59717s-2.41992-.94434-2.41992-2.59717v-.63428h1.53418v.73779c0,.7378.32519,1.00342.84179,1.00342.51563,0,.84082-.26562.84082-1.00342,0-2.125-3.17285-2.52343-3.17285-5.47412C140.503,23.57835,141.31548,22.634,142.89361,22.634Z"/><path class="cls-1" d="M149.41509,33.08079H147.792V22.75218h1.62305v4.42676h1.84473V22.75218h1.65332V33.08079h-1.65332V28.654h-1.84473Z"/><path class="cls-1" d="M157.78228,28.96409l-.50195.94434v3.17236h-1.62305V22.75218h1.62305v4.50049l2.125-4.50049h1.623l-2.25781,4.60351,2.25781,5.7251h-1.668Z"/><path class="cls-1" d="M168.58306,33.08079h-1.63867l-.2793-1.874H164.6729l-.28027,1.874h-1.49121l1.65332-10.32861h2.376Zm-3.70312-3.27588h1.56347l-.78222-5.22314Z"/><path class="cls-1" d="M175.754,25.12767v.36914a2.02891,2.02891,0,0,1-1.04785,2.08008,2.08808,2.08808,0,0,1,1.21,2.21338v.8413a2.19539,2.19539,0,0,1-2.46387,2.44922h-2.55273V22.75218h2.44922C175.03033,22.75218,175.754,23.53392,175.754,25.12767Zm-3.23145-.8999v2.72949h.63477c.60449,0,.97363-.26563.97363-1.0918v-.57519c0-.7378-.251-1.0625-.82715-1.0625Zm0,4.20507v3.17237h.92969c.5459,0,.84082-.251.84082-1.01807v-.8999c0-.95947-.30957-1.2544-1.04785-1.2544Z"/><path class="cls-1" d="M180.0772,27.10472h2.22852V28.5803H180.0772v3.02491h2.80274v1.47558h-4.42579V22.75218h4.42579v1.47559H180.0772Z"/><path class="cls-1" d="M188.84283,33.08079a3.16247,3.16247,0,0,1-.14844-1.269v-1.623c0-.959-.32422-1.313-1.0625-1.313h-.56055v4.20508h-1.62305V22.75218h2.44922c1.68262,0,2.40625.78174,2.40625,2.37549v.81152a2.05952,2.05952,0,0,1-1.0625,2.09522c.81055.33935,1.07618,1.12158,1.07618,2.19873V31.8264a3.04534,3.04534,0,0,0,.17773,1.25439Zm-1.77149-8.853v3.17236h.63477c.60547,0,.97461-.26563.97461-1.0918V25.29027c0-.7378-.252-1.0625-.82715-1.0625Z"/><path class="cls-1" d="M196.33794,33.08079a3.17043,3.17043,0,0,1-.14746-1.269v-1.623c0-.959-.32422-1.313-1.0625-1.313h-.56054v4.20508h-1.62305V22.75218h2.44922c1.68164,0,2.40527.78174,2.40527,2.37549v.81152a2.05806,2.05806,0,0,1-1.0625,2.09522c.81152.33935,1.07715,1.12158,1.07715,2.19873V31.8264a3.0293,3.0293,0,0,0,.17773,1.25439Zm-1.7705-8.853v3.17236h.63476c.60449,0,.97363-.26563.97363-1.0918V25.29027c0-.7378-.251-1.0625-.82714-1.0625Z"/><path class="cls-1" d="M201.96,29.65745l-2.05078-6.90527h1.69629l1.23926,4.707,1.24023-4.707h1.54883l-2.05078,6.90527v3.42334H201.96Z"/></svg>