<svg id="Layer_1" data-name="Layer 1" xmlns="http://www.w3.org/2000/svg" width="728" height="90" viewBox="0 0 728 90"><defs><style>.cls-1{fill:#fff;}</style></defs><title>self-care</title><path class="cls-1" d="M341.17432,56.77756h-2.81983V38.07443h4.04l2.625,13.41211L347.542,38.07443h3.88623V56.77756H348.6084v-11.751l-2.437,11.751H343.9082l-2.73388-11.72022Z"/><path class="cls-1" d="M359.19971,37.84885a4.47283,4.47283,0,0,1,4.481,4.481V52.53244a4.472,4.472,0,0,1-4.481,4.481,4.26556,4.26556,0,0,1-3.15283-1.3125,4.34157,4.34157,0,0,1-1.29737-3.16846V42.3298a4.47292,4.47292,0,0,1,4.4502-4.48095Zm1.53808,4.42822a1.59239,1.59239,0,0,0-1.60986-1.6084,1.57783,1.57783,0,0,0-1.14355.46631,1.53671,1.53671,0,0,0-.47657,1.14209V52.5134a1.5429,1.5429,0,0,0,.47657,1.1372,1.57074,1.57074,0,0,0,1.14355.4712,1.6005,1.6005,0,0,0,1.60986-1.6084Z"/><path class="cls-1" d="M371.45215,38.07443a4.27076,4.27076,0,0,1,3.45508,1.30225,4.70527,4.70527,0,0,1,.97461,3.1582v2.71729a4.35035,4.35035,0,0,1-1.50489,3.353l2.08887,8.17237h-3.041l-1.71972-7.06494c-.082.00683-.167.01025-.25586.01025H369.832v7.05469h-2.82031V38.07443Zm1.68164,4.51172a1.43016,1.43016,0,0,0-1.60547-1.63037H369.832v5.978h1.69629a1.53056,1.53056,0,0,0,1.13965-.47657,1.57934,1.57934,0,0,0,.46582-1.14355Z"/><path class="cls-1" d="M379.72656,56.77756V38.07443h8.02832v2.81983h-5.209v5.127h3.80371V48.841H382.5459v5.1167h5.209v2.81983Z"/><path class="cls-1" d="M405.40918,52.13254a5.24213,5.24213,0,0,1-1.01563,3.34277,3.60565,3.60565,0,0,1-1.9375,1.32276,5.18232,5.18232,0,0,1-1.56835.21533,4.43186,4.43186,0,0,1-2.748-.82032,4.675,4.675,0,0,1-1.43555-1.83056,7.19077,7.19077,0,0,1-.61523-2.66065l2.67578-.18457a4.06073,4.06073,0,0,0,.87109,2.3584,1.42927,1.42927,0,0,0,1.15918.523,1.75733,1.75733,0,0,0,1.47656-.90234,2.26666,2.26666,0,0,0,.28711-1.24073,3.45784,3.45784,0,0,0-1.05566-2.32763q-.84228-.78955-2.5127-2.36865a10.3857,10.3857,0,0,1-1.97949-2.43018,5.63138,5.63138,0,0,1-.625-2.625,4.56753,4.56753,0,0,1,1.71289-3.86572,4.257,4.257,0,0,1,2.625-.78955,4.76149,4.76149,0,0,1,2.584.67675,3.89633,3.89633,0,0,1,1.34277,1.46094,5.53,5.53,0,0,1,.626,2.15869l-2.707.49219a3.17346,3.17346,0,0,0-.65625-1.78418,1.36961,1.36961,0,0,0-1.11817-.47168,1.29758,1.29758,0,0,0-1.17871.687,2.6459,2.6459,0,0,0-.32812,1.374,4.13069,4.13069,0,0,0,1.10742,2.61474,9.85642,9.85642,0,0,0,1.25,1.18946q.98438.8203,1.30273,1.14843a9.92652,9.92652,0,0,1,1.60938,2.061,7.55148,7.55148,0,0,1,.43164.88183A5.25939,5.25939,0,0,1,405.40918,52.13254Z"/><path class="cls-1" d="M408.58789,56.77756V38.07443h8.02832v2.81983h-5.209v5.127h3.80371V48.841h-3.80371v5.1167h5.209v2.81983Z"/><path class="cls-1" d="M427.084,56.77756h-7.68945V38.07443h2.81934V53.97824H427.084Z"/><path class="cls-1" d="M432.67188,56.77756h-2.81934V38.07443h8.02832v2.81983h-5.209v5.127h3.80371V48.841h-3.80371Z"/><path class="cls-1" d="M440.56641,47.04562h7.55273v2.56983h-7.55273Z"/><path class="cls-1" d="M455.20508,57.0134a4.44547,4.44547,0,0,1-4.4707-4.46045V42.3093a4.46535,4.46535,0,1,1,8.93066,0v2.13281h-2.92285V42.258a1.628,1.628,0,0,0-1.62989-1.63038,1.53844,1.53844,0,0,0-1.13769.47706A1.57572,1.57572,0,0,0,453.502,42.258V52.52219a1.61212,1.61212,0,0,0,1.61035,1.62011,1.57863,1.57863,0,0,0,1.15332-.47168,1.55243,1.55243,0,0,0,.47657-1.14843V49.94846H459.665V52.553a4.4553,4.4553,0,0,1-4.46,4.46045Z"/><path class="cls-1" d="M465.73438,52.48117l-.6875,4.29639h-2.93165l3.168-18.70313h3.88672l3.127,18.70313h-2.95313l-.666-4.29639Zm1.47656-10.1206-1.0459,7.37255h2.0918Z"/><path class="cls-1" d="M479.95508,38.07443a4.27076,4.27076,0,0,1,3.45508,1.30225,4.70527,4.70527,0,0,1,.97461,3.1582v2.71729a4.35035,4.35035,0,0,1-1.50489,3.353l2.08887,8.17237h-3.041L480.208,49.71262c-.082.00683-.167.01025-.25586.01025H478.335v7.05469h-2.81934V38.07443Zm1.68164,4.51172a1.42986,1.42986,0,0,0-1.60449-1.63037H478.335v5.978h1.69727a1.53363,1.53363,0,0,0,1.13965-.47657,1.58238,1.58238,0,0,0,.46484-1.14355Z"/><path class="cls-1" d="M488.22949,56.77756V38.07443h8.02832v2.81983h-5.209v5.127h3.80371V48.841h-3.80371v5.1167h5.209v2.81983Z"/><path class="cls-1" d="M499.03711,53.968h2.81934v2.81982h-2.81934Z"/></svg>