<?xml version="1.0" encoding="utf-8"?>
<!-- Generator: Adobe Illustrator 22.1.0, SVG Export Plug-In . SVG Version: 6.00 Build 0)  -->
<svg version="1.1" id="Layer_1" xmlns="http://www.w3.org/2000/svg" xmlns:xlink="http://www.w3.org/1999/xlink" x="0px" y="0px"
	 viewBox="0 0 138 15.5" style="enable-background:new 0 0 138 15.5;" xml:space="preserve">
<style type="text/css">
	.st0{fill:#D3B372;}
</style>
<title>frame3</title>
<path class="st0" d="M3.6,15.5c-1,0-1.9-0.4-2.6-1.1c-0.7-0.7-1.1-1.6-1-2.5V0.2h2.2v11.7c0,0.3,0.1,0.7,0.4,0.9
	c0.2,0.2,0.6,0.4,0.9,0.4c0.7,0,1.3-0.6,1.3-1.3c0,0,0,0,0,0V0.2h2.4v11.7c0,1-0.4,1.9-1.1,2.6C5.5,15.1,4.6,15.5,3.6,15.5z"/>
<path class="st0" d="M14.9,0.2l3,10.2V0.2h2.3v15.1h-2.5l-3.1-9.7v9.7h-2.3V0.2H14.9z"/>
<path class="st0" d="M28.9,15.5c-2,0-3.6-1.6-3.6-3.6c0,0,0,0,0,0V3.6c0-1,0.4-1.9,1.1-2.6c1.4-1.4,3.7-1.4,5.1,0
	c0.7,0.7,1.1,1.6,1,2.6v1.7h-2.4V3.6c0-0.7-0.6-1.3-1.3-1.3c-0.3,0-0.7,0.1-0.9,0.4c-0.2,0.2-0.4,0.6-0.4,0.9v8.3
	c0,0.7,0.6,1.3,1.3,1.3c0,0,0,0,0,0c0.3,0,0.7-0.1,0.9-0.4c0.3-0.2,0.4-0.6,0.4-0.9V9.8h2.4v2.1C32.5,13.9,30.9,15.5,28.9,15.5
	C28.9,15.5,28.9,15.5,28.9,15.5L28.9,15.5z"/>
<path class="st0" d="M41,0c1,0,1.9,0.4,2.6,1.1c0.7,0.7,1.1,1.6,1.1,2.6v8.3c0,2-1.6,3.6-3.6,3.6c-2,0-3.6-1.6-3.6-3.6c0,0,0,0,0,0
	V3.6c0-1,0.4-1.9,1.1-2.6C39.1,0.4,40,0,41,0z M42.2,3.6c0-0.7-0.6-1.3-1.3-1.3c0,0,0,0,0,0c-0.3,0-0.7,0.1-0.9,0.4
	c-0.3,0.2-0.4,0.6-0.4,0.9v8.3c0,0.3,0.1,0.7,0.4,0.9c0.2,0.2,0.6,0.4,0.9,0.4c0.7,0,1.3-0.6,1.3-1.3c0,0,0,0,0,0V3.6z"/>
<path class="st0" d="M52,15.3L49.2,0.2h2.4L53.5,12l1.9-11.8h2.4l-2.8,15.1H52z"/>
<path class="st0" d="M62.8,15.3V0.2h6.5v2.3h-4.2v4.1h3.1v2.3h-3.1V13h4.2v2.3H62.8z"/>
<path class="st0" d="M77.5,0.2c1-0.1,2.1,0.3,2.8,1.1c0.6,0.7,0.8,1.6,0.8,2.6V6c0,1-0.4,2-1.2,2.7l1.7,6.6h-2.5l-1.4-5.7h-1.5v5.7
	h-2.3V0.2H77.5z M78.9,3.8c0.1-0.6-0.3-1.2-1-1.3c-0.1,0-0.2,0-0.3,0h-1.4v4.8h1.4c0.3,0,0.7-0.1,0.9-0.4c0.2-0.2,0.4-0.6,0.4-0.9
	L78.9,3.8z"/>
<path class="st0" d="M93.1,15.3h-2.3V0.2h3.3l2.1,10.9l2-10.9h3.1v15.1h-2.3V5.8l-2,9.5h-1.8l-2.2-9.5V15.3z"/>
<path class="st0" d="M110.1,0c1,0,1.9,0.4,2.6,1.1c0.7,0.7,1.1,1.6,1.1,2.6v8.3c0,2-1.6,3.6-3.6,3.6c-2,0-3.6-1.6-3.6-3.6
	c0,0,0,0,0,0V3.6c0-1,0.4-1.9,1.1-2.6C108.2,0.4,109.2,0,110.1,0z M111.4,3.6c0-0.7-0.6-1.3-1.3-1.3c0,0,0,0,0,0
	c-0.3,0-0.7,0.1-0.9,0.4c-0.3,0.2-0.4,0.6-0.4,0.9v8.3c0,0.3,0.1,0.7,0.4,0.9c0.2,0.2,0.6,0.4,0.9,0.4c0.7,0,1.3-0.6,1.3-1.3
	c0,0,0,0,0,0L111.4,3.6z"/>
<path class="st0" d="M122.4,0.2c1-0.1,2.1,0.3,2.8,1.1c0.6,0.7,0.8,1.6,0.8,2.6V6c0,1-0.4,2-1.2,2.7l1.7,6.6H124l-1.4-5.7h-1.5v5.7
	h-2.3V0.2H122.4z M123.8,3.8c0.1-0.6-0.3-1.2-1-1.3c-0.1,0-0.2,0-0.3,0h-1.4v4.8h1.4c0.3,0,0.7-0.1,0.9-0.4c0.2-0.2,0.4-0.6,0.4-0.9
	L123.8,3.8z"/>
<path class="st0" d="M131.5,15.3V0.2h6.5v2.3h-4.2v4.1h3.1v2.3h-3.1V13h4.2v2.3H131.5z"/>
</svg>
