<svg id="Content" xmlns="http://www.w3.org/2000/svg" viewBox="0 0 728 90"><defs><style>.cls-1{fill:#ba9544;}</style></defs><title>Frame1 - Daytime CBD</title><path class="cls-1" d="M261.26,32.53h6.61c4.18,0,6.23,2.32,6.23,6.57V52.55c0,4.26-2.05,6.57-6.23,6.57h-6.61Zm4.18,3.8v19h2.35c1.33,0,2.13-.69,2.13-2.59V38.91c0-1.9-.8-2.58-2.13-2.58Z"/><path class="cls-1" d="M293.55,59.12h-4.21l-.73-4.82h-5.12l-.73,4.82h-3.83l4.25-26.59h6.12ZM284,50.69h4l-2-13.45Z"/><path class="cls-1" d="M299.64,50.31l-5.29-17.78h4.37l3.2,12.12,3.19-12.12h4l-5.29,17.78v8.81h-4.17Z"/><path class="cls-1" d="M311.3,32.53h12.92v3.8h-4.37V59.12h-4.18V36.33H311.3Z"/><path class="cls-1" d="M329.31,32.53h4.18V59.12h-4.18Z"/><path class="cls-1" d="M349.41,51.41l2.85-18.88h5.82V59.12h-4V40.05l-2.88,19.07h-3.95l-3.12-18.8v18.8h-3.65V32.53h5.82Z"/><path class="cls-1" d="M369.33,43.74h5.73v3.8h-5.73v7.79h7.21v3.79H365.15V32.53h11.39v3.8h-7.21Z"/><path class="cls-1" d="M405.2,49.21v3.53c0,4.26-2.13,6.69-6.23,6.69s-6.24-2.43-6.24-6.69V38.91c0-4.25,2.13-6.69,6.24-6.69s6.23,2.44,6.23,6.69V41.5h-3.95V38.65c0-1.9-.84-2.63-2.17-2.63s-2.17.73-2.17,2.63V53c0,1.9.84,2.58,2.17,2.58s2.17-.68,2.17-2.58v-3.8Z"/><path class="cls-1" d="M424.27,38.65v1c0,2.73-.83,4.48-2.7,5.35,2.25.88,3.12,2.89,3.12,5.7v2.17c0,4.1-2.17,6.3-6.35,6.3h-6.57V32.53h6.31C422.41,32.53,424.27,34.54,424.27,38.65ZM416,36.33v7h1.63c1.56,0,2.51-.69,2.51-2.81V39.06c0-1.9-.64-2.73-2.13-2.73Zm0,10.83v8.17h2.39c1.41,0,2.17-.65,2.17-2.63V50.39c0-2.47-.8-3.23-2.7-3.23Z"/><path class="cls-1" d="M431.23,32.53h6.61c4.18,0,6.23,2.32,6.23,6.57V52.55c0,4.26-2.05,6.57-6.23,6.57h-6.61Zm4.18,3.8v19h2.35c1.33,0,2.13-.69,2.13-2.59V38.91c0-1.9-.8-2.58-2.13-2.58Z"/></svg>