<svg id="Layer_1" data-name="Layer 1" xmlns="http://www.w3.org/2000/svg" xmlns:xlink="http://www.w3.org/1999/xlink" width="47.33772" height="69.40194" viewBox="0 0 47.33772 69.40194"><defs><style>.cls-1{fill:url(#New_Gradient_Swatch_1);}.cls-2{fill:#fff;}.cls-3{fill:#ba9544;}</style><linearGradient id="New_Gradient_Swatch_1" y1="23.5105" x2="47.33772" y2="23.5105" gradientUnits="userSpaceOnUse"><stop offset="0" stop-color="#a88a34"/><stop offset="0.49324" stop-color="#caaf67"/><stop offset="1" stop-color="#957f2e"/></linearGradient></defs><title>minty</title><polygon class="cls-1" points="40.955 39.446 21.219 47.021 2.994 36.314 0 15.388 14.495 0 35.562 1.738 47.338 19.294 40.955 39.446"/><path class="cls-2" d="M33.68212,30.9666a8.386,8.386,0,0,0-3.35864-6.946,3.2347,3.2347,0,0,1,1.59244-.19356,5.47973,5.47973,0,0,0-3.20248-2.88355,2.45,2.45,0,0,1,1.25591-.154,11.53352,11.53352,0,0,0-6.6579-4.37262,3.97433,3.97433,0,0,1,1.21413-.14956s-4.96648-2.74719-9.69762.34092c0,0,4.00751,2.11372,5.59334,4.30223,0,0-5.49435-3.51041-6.295-3.45542,0,0-2.47225,5.87487,3.81394,11.01512a2.76479,2.76479,0,0,1-.14957-1.21413s2.49644,3.01112,4.9335,3.81834a2.84856,2.84856,0,0,1,.01539-1.18333,7.34072,7.34072,0,0,0,3.484,1.98835,2.65742,2.65742,0,0,1-.11-1.60124s4.03608,2.39526,7.56849.68844"/><path class="cls-3" d="M3.9913,69.40194V60.70272h.58008l3.76953,4.292,3.77539-4.292h.58008v8.69922H10.95663l-.00586-5.04589L8.34091,67.25644,5.731,64.35605v5.04589Z"/><path class="cls-3" d="M14.43026,60.69687h1.73389v8.70507H14.43026Z"/><path class="cls-3" d="M17.90975,69.40194V60.70272h.58008L23.942,66.1539V60.70272h1.73828v8.69922h-.63672l-5.394-5.39355v5.39355Z"/><path class="cls-3" d="M34.58261,60.70272v1.624H31.68319v7.07519H29.943V62.32675H27.04354v-1.624Z"/><path class="cls-3" d="M35.36581,60.70272h2.041l2.01855,2.8418,2.06445-2.8418H43.485L40.2955,65.05233v4.34961H38.55526V65.05233Z"/></svg>