<svg xmlns="http://www.w3.org/2000/svg" xmlns:xlink="http://www.w3.org/1999/xlink" width="970" height="250" viewBox="0 0 970 250"><defs><style>.cls-1{fill:none;}.cls-2{clip-path:url(#clip-path);}.cls-3{clip-path:url(#clip-path-2);}.cls-4{clip-path:url(#clip-path-3);}.cls-5{clip-path:url(#clip-path-4);}.cls-6{clip-path:url(#clip-path-5);}.cls-7{fill:#fff;stroke:#ba9544;stroke-miterlimit:10;stroke-width:0.5px;}.cls-8{fill:#ba9544;}.cls-9{clip-path:url(#clip-path-6);}.cls-10{clip-path:url(#clip-path-7);}</style><clipPath id="clip-path"><rect class="cls-1" x="-2" y="-589.16275" width="170.77483" height="153.04906"/></clipPath><clipPath id="clip-path-2"><rect class="cls-1" x="-153.55264" y="-640.15394" width="598.84548" height="708.41343" transform="translate(305.8987 -7.67623) rotate(-56.92989)"/></clipPath><clipPath id="clip-path-3"><rect class="cls-1" x="-2" y="-301.16333" width="170.77483" height="153.04906"/></clipPath><clipPath id="clip-path-4"><rect class="cls-1" x="-153.55264" y="-352.15452" width="598.84548" height="708.41343" transform="translate(64.55417 123.17204) rotate(-56.92989)"/></clipPath><clipPath id="clip-path-5"><polygon class="cls-1" points="1391.085 -49.053 1116.618 -49.671 1116.618 -141.778 1279.701 -110.837 1391.085 -49.053"/></clipPath><clipPath id="clip-path-6"><rect class="cls-1" x="17.24025" y="-299.16219" width="383.03219" height="250.51546"/></clipPath><clipPath id="clip-path-7"><rect class="cls-1" x="2.56702" y="-306.41002" width="399.55191" height="335.80187"/></clipPath></defs><title>THC - Ultra Sour</title><g id="Terpenes"><g class="cls-2"><g id="Variety_2_GettyImages-639528520.psd" data-name="Variety#2_GettyImages-639528520.psd"><g class="cls-3"><image id="Variety_2-orange_slice_Variety_2-lemon_with_leaf_Variety_2-lemon_bunch_half" data-name="Variety#2-orange+slice + Variety#2-lemon with leaf + Variety#2-lemon bunch+half" width="4425" height="3804" transform="translate(12.42809 -730.14269) rotate(33.07011) scale(0.15743)" xlink:href="THC%20-%20Ultra%20Sour1.png"/></g></g></g><g class="cls-4"><g id="Variety_2_GettyImages-639528520.psd-2" data-name="Variety#2_GettyImages-639528520.psd"><g class="cls-5"><image id="Variety_2-orange_slice_Variety_2-lemon_with_leaf_Variety_2-lemon_bunch_half-2" data-name="Variety#2-orange+slice + Variety#2-lemon with leaf + Variety#2-lemon bunch+half" width="4425" height="3804" transform="translate(12.42809 -442.14327) rotate(33.07011) scale(0.15743)" xlink:href="THC%20-%20Ultra%20Sour2.png"/></g></g></g></g><g id="Content"><polygon class="cls-7" points="640.868 98.727 408.265 97.846 396.523 114.779 408.265 131.411 640.868 131.014 651.436 114.872 640.868 98.727"/><polygon class="cls-8" points="408.435 97.846 396.693 114.779 408.435 131.411 452.679 131.411 452.679 97.846 408.435 97.846"/><path class="cls-8" d="M541.3963,109.229v2.126h-3.7959v9.2627h-2.27735V111.355h-3.79687v-2.126Z"/><path class="cls-8" d="M543.08966,120.61769V109.229H545.368v4.55566h5.30664v-4.5625H552.952v11.3877l-2.27734.00781v-4.707H545.368v4.707Z"/><path class="cls-8" d="M556.48516,118.982A5.697,5.697,0,0,1,560.536,109.229a6.16429,6.16429,0,0,1,4.18359,1.51855l-1.51856,1.66309a4.19969,4.19969,0,0,0-2.665-.91113,3.34678,3.34678,0,0,0-2.47168.95605,3.31309,3.31309,0,0,0-.9375,2.42969,3.41107,3.41107,0,0,0,.94921,2.52051,3.36176,3.36176,0,0,0,2.47559.93457,4.08629,4.08629,0,0,0,2.64941-.90332l1.51856,1.6621a6.14207,6.14207,0,0,1-4.18359,1.51856A5.54379,5.54379,0,0,1,556.48516,118.982Z"/><path class="cls-8" d="M572.58477,113.356a1.10108,1.10108,0,0,1,.82032-.30762,1.14293,1.14293,0,0,1,.85058.30762,1.10584,1.10584,0,0,1,0,1.52246,1.30094,1.30094,0,0,1-1.6709,0,1.10584,1.10584,0,0,1,0-1.52246Zm0,5.43555a1.10108,1.10108,0,0,1,.82032-.30762,1.14293,1.14293,0,0,1,.85058.30762,1.04565,1.04565,0,0,1,.30371.76367,1.0298,1.0298,0,0,1-.30371.75879,1.30094,1.30094,0,0,1-1.6709,0,1.02984,1.02984,0,0,1-.30371-.75879A1.04569,1.04569,0,0,1,572.58477,118.79152Z"/><path class="cls-8" d="M584.70977,109.229v-.00684h2.27051v11.39551h-2.27051v-8.35156l-1.51855,1.51855-1.51856-1.51855Z"/><path class="cls-8" d="M595.38458,114.84718q.20508.07617.37207.15235a2.232,2.232,0,0,1,1.17676,2.27734,2.92293,2.92293,0,0,1-1.10547,2.54394,5.47079,5.47079,0,0,1-5.68653,0,2.92483,2.92483,0,0,1-1.10449-2.54394,2.232,2.232,0,0,1,1.17676-2.27734q.167-.07618.37207-.15235c-.08105-.04-.1543-.07812-.21973-.11328a2.25177,2.25177,0,0,1-1.02539-2.16406,3.11594,3.11594,0,0,1,.99121-2.46778,4.46844,4.46844,0,0,1,5.30664,0,3.11912,3.11912,0,0,1,.99122,2.46778,2.25176,2.25176,0,0,1-1.0254,2.16406C595.53888,114.76906,595.46466,114.80714,595.38458,114.84718Zm-2.39942-1.03223q1.002-.03075,1.291-.52343a1.217,1.217,0,0,0,0-1.291,1.46056,1.46056,0,0,0-1.291-.63769,1.439,1.439,0,0,0-1.2832.63769,1.19313,1.19313,0,0,0,0,1.291Q591.98321,113.78517,592.98516,113.815Zm0,2.0879a1.69406,1.69406,0,0,0-1.2832.65332,1.19145,1.19145,0,0,0,0,1.29,1.43694,1.43694,0,0,0,1.2832.6377,1.4584,1.4584,0,0,0,1.291-.6377,1.21526,1.21526,0,0,0,0-1.29A1.72225,1.72225,0,0,0,592.98516,115.90285Z"/><path class="cls-8" d="M598.92266,117.57277V116.062h4.707v1.51074Z"/><path class="cls-8" d="M609.6961,109.229a4.30161,4.30161,0,0,1,2.73731.83886,2.98987,2.98987,0,0,1,1.0664,2.502,5.21661,5.21661,0,0,1-1.51465,3.61426,10.53659,10.53659,0,0,1-2.50195,2.15625h4.09961v2.27734H605.907v-2.27734q.76026,0,2.88574-1.89844a10.85515,10.85515,0,0,0,2.4668-2.69531,1.85027,1.85027,0,0,0-.03711-1.59375q-.38086-.79834-1.82227-.79786a2.61431,2.61431,0,0,0-2.126.91114l-1.51856-1.51856a6.28925,6.28925,0,0,1,1.48047-1.13867A5.70073,5.70073,0,0,1,609.6961,109.229Z"/><path class="cls-8" d="M623.02813,109.229v2.126h-4.707v1.59473h.91113a5.10909,5.10909,0,0,1,3.44629,1.02441,4.15746,4.15746,0,0,1,1.17676,3.0752,3.3163,3.3163,0,0,1-1.14258,2.50586,3.97672,3.97672,0,0,1-2.8125,1.0625,6.74217,6.74217,0,0,1-2.64941-.45508,5.74288,5.74288,0,0,1-1.82227-1.21484l1.51856-1.51856a3.18554,3.18554,0,0,0,2.42969.98633q2.04932,0,2.23925-1.50293a1.69805,1.69805,0,0,0-.69824-1.41211,4.55091,4.55091,0,0,0-2.44531-.4248h-2.42871V109.229Z"/><path class="cls-8" d="M626.17071,114.03566a2.936,2.936,0,1,1,2.03516.81933A2.76695,2.76695,0,0,1,626.17071,114.03566Zm2.0127-.53223a1.35451,1.35451,0,0,0,1.04-.43262,1.64042,1.64042,0,0,0,0-2.15234,1.37151,1.37151,0,0,0-1.04786-.42871,1.35411,1.35411,0,0,0-1.0332.42871,1.64042,1.64042,0,0,0,0,2.15234A1.35518,1.35518,0,0,0,628.18341,113.50343Zm-.60743,7.11426,6.45313-11.38867h1.85254l-6.43848,11.38867Zm5.65625-.75195a2.91611,2.91611,0,1,1,2.01954.8125A2.73942,2.73942,0,0,1,633.23223,119.86574Zm1.98145-.55371a1.32829,1.32829,0,0,0,1.0166-.42188,1.58453,1.58453,0,0,0,0-2.09473,1.338,1.338,0,0,0-1.02441-.42187,1.32078,1.32078,0,0,0-1.00977.42187,1.58748,1.58748,0,0,0,0,2.09473A1.33043,1.33043,0,0,0,635.21368,119.312Z"/><g class="cls-9"><g id="SmallTopDown-8351-UltraSour.psd"><g class="cls-10"><image id="SmallTopDown-8351-UltraSour" width="4124" height="3466" transform="translate(2.56702 -306.41002) scale(0.09688)" xlink:href="THC%20-%20Ultra%20Sour3.png"/></g></g></g></g></svg>