<?xml version="1.0" encoding="utf-8"?>
<!-- Generator: Adobe Illustrator 23.0.1, SVG Export Plug-In . SVG Version: 6.00 Build 0)  -->
<svg version="1.1" id="Layer_2" xmlns="http://www.w3.org/2000/svg" xmlns:xlink="http://www.w3.org/1999/xlink" x="0px" y="0px"
	 viewBox="0 0 728 90" enable-background="new 0 0 728 90" xml:space="preserve">
<g>
	<path fill="#BA9544" d="M290.74,34.91h5.57c3.52,0,5.25,1.95,5.25,5.54v11.33c0,3.58-1.73,5.54-5.25,5.54h-5.57V34.91z
		 M294.26,38.11v16h1.98c1.12,0,1.79-0.58,1.79-2.18V40.28c0-1.6-0.67-2.18-1.79-2.18H294.26z"/>
	<path fill="#BA9544" d="M310.55,34.91v17.28c0,1.6,0.7,2.18,1.82,2.18c1.12,0,1.82-0.58,1.82-2.18V34.91h3.33v17.05
		c0,3.58-1.79,5.63-5.25,5.63c-3.46,0-5.25-2.05-5.25-5.63V34.91H310.55z"/>
	<path fill="#BA9544" d="M330.68,57.31c-0.19-0.58-0.32-0.93-0.32-2.75v-3.52c0-2.08-0.7-2.85-2.3-2.85h-1.22v9.12h-3.52v-22.4h5.31
		c3.65,0,5.22,1.7,5.22,5.15v1.76c0,2.3-0.74,3.81-2.3,4.54c1.76,0.74,2.34,2.43,2.34,4.77v3.46c0,1.09,0.03,1.89,0.38,2.72H330.68z
		 M326.84,38.11v6.88h1.38c1.31,0,2.11-0.58,2.11-2.37v-2.21c0-1.6-0.54-2.3-1.79-2.3H326.84z"/>
	<path fill="#BA9544" d="M344.86,44.83h4.93v7.1c0,3.58-1.79,5.63-5.25,5.63c-3.46,0-5.25-2.05-5.25-5.63V40.28
		c0-3.58,1.79-5.63,5.25-5.63c3.46,0,5.25,2.05,5.25,5.63v2.18h-3.33v-2.4c0-1.6-0.7-2.21-1.82-2.21c-1.12,0-1.82,0.61-1.82,2.21
		v12.1c0,1.6,0.7,2.18,1.82,2.18c1.12,0,1.82-0.58,1.82-2.18v-4.13h-1.6V44.83z"/>
	<path fill="#BA9544" d="M366.84,57.31h-3.55l-0.61-4.06h-4.32l-0.61,4.06h-3.23l3.58-22.4h5.15L366.84,57.31z M358.81,50.2h3.39
		l-1.7-11.33L358.81,50.2z"/>
	<path fill="#BA9544" d="M387.67,50.81l2.4-15.9h4.9v22.4h-3.33V41.24l-2.43,16.06h-3.33l-2.62-15.84v15.84h-3.07v-22.4h4.9
		L387.67,50.81z"/>
	<path fill="#BA9544" d="M412.31,57.31h-3.55l-0.61-4.06h-4.32l-0.61,4.06h-3.23l3.58-22.4h5.15L412.31,57.31z M404.28,50.2h3.39
		l-1.7-11.33L404.28,50.2z"/>
	<path fill="#BA9544" d="M416.31,34.91h10.88v3.2h-3.68v19.2h-3.52v-19.2h-3.68V34.91z"/>
	<path fill="#BA9544" d="M443.51,57.31h-3.55l-0.61-4.06h-4.32l-0.61,4.06h-3.23l3.58-22.4h5.15L443.51,57.31z M435.48,50.2h3.39
		l-1.7-11.33L435.48,50.2z"/>
	<path fill="#BA9544" d="M462.04,37.85c-1.12,0-1.82,0.61-1.82,2.21v2.4h-3.33v-2.18c0-3.58,1.79-5.63,5.25-5.63
		c3.46,0,5.25,2.05,5.25,5.63c0,7.04-7.01,9.66-7.01,13.34c0,0.16,0,0.32,0.03,0.48h6.66v3.2h-10.17v-2.75
		c0-6.59,6.98-7.68,6.98-14.14C463.86,38.4,463.16,37.85,462.04,37.85z"/>
</g>
<g>
</g>
<g>
</g>
<g>
</g>
<g>
</g>
<g>
</g>
<g>
</g>
<g>
</g>
<g>
</g>
<g>
</g>
<g>
</g>
<g>
</g>
<g>
</g>
<g>
</g>
<g>
</g>
<g>
</g>
</svg>
