<svg xmlns="http://www.w3.org/2000/svg" width="727.99955" height="90" viewBox="0 0 727.99955 90"><defs><style>.cls-1{fill:#ba9544;}</style></defs><title>Frame1 - Sensi Star</title><g id="Content"><path class="cls-1" d="M227.2367,34.65137c3.42383,0,5.18359,2.04785,5.18359,5.63183v.7041h-3.32715v-.92871c0-1.59961-.63965-2.207-1.76074-2.207-1.11914,0-1.75977.60742-1.75977,2.207,0,4.6084,6.87989,5.47168,6.87989,11.8711,0,3.584-1.792,5.63183-5.24707,5.63183-3.45606,0-5.24805-2.04785-5.24805-5.63183v-1.376h3.32813V52.1543c0,1.59961.70312,2.17578,1.82421,2.17578,1.11914,0,1.82325-.57617,1.82325-2.17578,0-4.6084-6.87989-5.47168-6.87989-11.8711C222.0531,36.69922,223.81287,34.65137,227.2367,34.65137Z"/><path class="cls-1" d="M241.38123,44.34668h4.832V47.5459h-4.832v6.55957h6.08008v3.20019H237.8617V34.90723h9.59961v3.20019h-6.08008Z"/><path class="cls-1" d="M256.16443,41.083V57.30566h-3.167V34.90723h4.415l3.61621,13.40722V34.90723h3.13574V57.30566H260.5492Z"/><path class="cls-1" d="M274.82068,34.65137c3.42383,0,5.1836,2.04785,5.1836,5.63183v.7041h-3.32813v-.92871c0-1.59961-.64062-2.207-1.75977-2.207-1.12011,0-1.75976.60742-1.75976,2.207,0,4.6084,6.87891,5.47168,6.87891,11.8711,0,3.584-1.791,5.63183-5.248,5.63183-3.45508,0-5.24707-2.04785-5.24707-5.63183v-1.376h3.32715V52.1543c0,1.59961.70507,2.17578,1.82422,2.17578,1.12011,0,1.82421-.57617,1.82421-2.17578,0-4.6084-6.8789-5.47168-6.8789-11.8711C269.63709,36.69922,271.39685,34.65137,274.82068,34.65137Z"/><path class="cls-1" d="M285.44373,34.90723h3.52051V57.30566h-3.52051Z"/><path class="cls-1" d="M308.00428,34.65137c3.42382,0,5.18359,2.04785,5.18359,5.63183v.7041h-3.32813v-.92871c0-1.59961-.64062-2.207-1.75976-2.207-1.12012,0-1.75977.60742-1.75977,2.207,0,4.6084,6.87891,5.47168,6.87891,11.8711,0,3.584-1.791,5.63183-5.248,5.63183-3.45508,0-5.24707-2.04785-5.24707-5.63183v-1.376h3.32715V52.1543c0,1.59961.70508,2.17578,1.82422,2.17578,1.12012,0,1.82422-.57617,1.82422-2.17578,0-4.6084-6.87891-5.47168-6.87891-11.8711C302.82068,36.69922,304.58045,34.65137,308.00428,34.65137Z"/><path class="cls-1" d="M317.60388,34.90723h10.87891v3.20019H324.8031V57.30566h-3.51953V38.10742h-3.67969Z"/><path class="cls-1" d="M344.8031,57.30566h-3.55273l-.60742-4.06347h-4.31934l-.6084,4.06347h-3.23144l3.583-22.39843h5.15234Zm-8.03125-7.10351h3.39063L338.46717,38.875Z"/><path class="cls-1" d="M357.18689,57.30566a6.87839,6.87839,0,0,1-.32031-2.752V51.03418c0-2.08008-.7041-2.84766-2.30371-2.84766h-1.21582v9.11914h-3.52051V34.90723h5.3125c3.64746,0,5.21582,1.69629,5.21582,5.15136v1.75977c0,2.30469-.73633,3.80859-2.30469,4.54394,1.75977.73633,2.33594,2.43165,2.33594,4.76758v3.45606a6.60316,6.60316,0,0,0,.38379,2.71972Zm-3.83984-19.19824v6.87891h1.376c1.31152,0,2.11132-.57617,2.11132-2.36719v-2.208c0-1.60058-.54394-2.30371-1.792-2.30371Z"/></g></svg>