<svg id="Layer_1" data-name="Layer 1" xmlns="http://www.w3.org/2000/svg" xmlns:xlink="http://www.w3.org/1999/xlink" width="33.30719" height="48.83169" viewBox="0 0 33.30719 48.83169"><defs><style>.cls-1{fill:url(#New_Gradient_Swatch_1);}.cls-2{fill:#fff;}.cls-3{fill:#ba9544;}</style><linearGradient id="New_Gradient_Swatch_1" y1="16.54217" x2="33.30719" y2="16.54217" gradientUnits="userSpaceOnUse"><stop offset="0" stop-color="#a88a34"/><stop offset="0.49324" stop-color="#caaf67"/><stop offset="1" stop-color="#957f2e"/></linearGradient></defs><title>minty</title><polygon class="cls-1" points="28.816 27.754 14.93 33.084 2.106 25.551 0 10.827 10.199 0 25.021 1.223 33.307 13.575 28.816 27.754"/><path class="cls-2" d="M23.699,21.78834a5.90045,5.90045,0,0,0-2.36317-4.88728,2.27589,2.27589,0,0,1,1.12045-.13619A3.8556,3.8556,0,0,0,20.203,14.736a1.72392,1.72392,0,0,1,.88367-.10833A8.1151,8.1151,0,0,0,16.40212,11.551a2.79633,2.79633,0,0,1,.85427-.10523,7.0085,7.0085,0,0,0-6.82332.23987,14.17344,14.17344,0,0,1,3.93551,3.02709s-3.86586-2.47-4.42919-2.43126c0,0-1.73949,4.13361,2.68352,7.75032a1.9453,1.9453,0,0,1-.10524-.85427,9.92444,9.92444,0,0,0,3.47125,2.68662,2.00431,2.00431,0,0,1,.01082-.83261,5.165,5.165,0,0,0,2.45138,1.399,1.86976,1.86976,0,0,1-.07737-1.12664s2.83982,1.68532,5.32526.48439"/><path class="cls-3" d="M2.80728,48.83169V42.7106h.4082l2.65235,3.01953L8.52408,42.7106h.4082v6.12109H7.70767l-.0039-3.55078-1.83594,2.041-1.83594-2.041v3.55078Z"/><path class="cls-3" d="M10.152,42.70669h1.21972v6.125H10.152Z"/><path class="cls-3" d="M12.60025,48.83169V42.7106h.4082l3.83594,3.83594V42.7106H18.068v6.12109h-.44921l-3.794-3.79492v3.79492Z"/><path class="cls-3" d="M24.3317,42.7106v1.14258h-2.04v4.97851H21.068V43.85318H19.027V42.7106Z"/><path class="cls-3" d="M24.88248,42.7106H26.319l1.41992,1.999,1.45313-1.999h1.40332l-2.24414,3.06055v3.06054H27.12662V45.77115Z"/></svg>