<svg id="Content" xmlns="http://www.w3.org/2000/svg" xmlns:xlink="http://www.w3.org/1999/xlink" width="320" height="50" viewBox="0 0 320 50"><defs><style>.cls-1{fill:url(#New_Gradient_Swatch_1);}.cls-2{fill:#fff;}.cls-3{fill:#ba9544;}</style><linearGradient id="New_Gradient_Swatch_1" x1="165.37278" y1="19.24961" x2="184.6002" y2="19.24961" gradientUnits="userSpaceOnUse"><stop offset="0" stop-color="#a88a34"/><stop offset="0.49324" stop-color="#caaf67"/><stop offset="1" stop-color="#957f2e"/></linearGradient></defs><title>earthy</title><polygon class="cls-1" points="182.68 12.59 173.066 9.258 165.373 15.917 167.294 25.909 176.907 29.242 184.6 22.582 182.68 12.59"/><path class="cls-2" d="M177.402,21.587a2.25128,2.25128,0,0,0-1.12449-1.04,1.10319,1.10319,0,0,0-.84219.08264,2.3503,2.3503,0,0,0-.44013-.11328,4.5989,4.5989,0,0,1,.935-1.84224c.02415.00093.04736.00093.07058.00093.091.00093.18106.00186.2702.00186,1.04648,0,1.97409-.13835,2.02237-2.02887a2.91214,2.91214,0,0,1,.3937-.88584l.14393-.23585h-.2767a2.99452,2.99452,0,0,0-2.99086,2.99178v.14113c-.11327.1625-.22006.32407-.31849.48378a3.83728,3.83728,0,0,0-3.82561-3.61669h-.27671l.14393.23585a3.79406,3.79406,0,0,1,.5172,1.17183c.06128,2.40958,1.24519,2.586,2.58136,2.586.11421,0,.22935-.00093.34449-.00279.10029-.00093.20149-.00186.30363-.00186a2.962,2.962,0,0,0-.34726.974,1.40135,1.40135,0,0,0-1.33155.73727,1.75641,1.75641,0,0,0-1.43181.07707,1.72234,1.72234,0,0,0-.65927,1.50889l-.00465.1597h7.40609l.02879-.11885a.93448.93448,0,0,0-.156-.71034,1.5688,1.5688,0,0,0-1.1356-.5562"/><path class="cls-3" d="M164.16162,39.68945V36.01953l2.69776-.002v.68554H164.896v.78321h1.47119V38.169H164.896v.835h1.95849v.68554Z"/><path class="cls-3" d="M167.40576,39.68945l1.46875-3.67187h.73438l1.46679,3.66992-.78125.002-.22021-.5625h-1.665l-.22022.5625Zm1.85547-2.69336-.55811,1.39649h1.10157Z"/><path class="cls-3" d="M173.835,38.08887l.91553,1.60058h-.84229l-.8789-1.51757h-.6709v1.51757H171.624V36.01758h1.60108q1.28539,0,1.28515,1.05762A.95005.95005,0,0,1,173.835,38.08887Zm-1.47656-.60254h1.02832q.44312-.00732.45557-.4043-.01246-.36182-.44825-.377H172.3584Z"/><path class="cls-3" d="M178.12891,36.01758v.68554h-1.22412v2.98633h-.73438V36.70312h-1.22412v-.68554Z"/><path class="cls-3" d="M178.6748,39.68945V36.01758h.73438v1.46875h1.71143V36.01465h.73437V39.6875l-.73437.002V38.17188h-1.71143v1.51757Z"/><path class="cls-3" d="M182.43262,36.01758h.86181l.852,1.19922.87159-1.19922h.84228l-1.34619,1.83594v1.83593h-.73486V37.85352Z"/><image width="1500" height="1261" transform="translate(189.6998 -91.26917) scale(0.07651)" xlink:href="../../../../../Dropbox%20(Revolution%20Strategy)/Rocio%20Ugarte/Clients/Namaste/Digital%20Ads/_Flight%202:Phase%202%20Terpene/1.%20Animated%20w:%20Packaging/6.%20Mobile%20Banner%20320%20x%2050/320%20x%2050_Folder/Links/SmallTopDown-8297-DurgaMata2.png"/></svg>