<svg id="Content" xmlns="http://www.w3.org/2000/svg" width="300" height="600" viewBox="0 0 300 600"><defs><style>.cls-1{fill:#fff;stroke:#ba9544;stroke-miterlimit:10;stroke-width:0.5px;}.cls-2{fill:#ba9544;}</style></defs><title>THC - Ultra Sour</title><polygon class="cls-1" points="242.819 265.768 56.736 265.063 47.343 278.609 56.736 291.914 242.819 291.597 251.273 278.684 242.819 265.768"/><polygon class="cls-2" points="56.872 265.063 47.479 278.609 56.872 291.914 92.268 291.914 92.268 265.063 56.872 265.063"/><path class="cls-2" d="M163.24219,274.16886V275.87h-3.03711v7.41016h-1.82227V275.87H155.3457v-1.70117Z"/><path class="cls-2" d="M164.59668,283.28019v-9.11133H166.419v3.64453h4.24511V274.163h1.82227v9.11133l-1.82227.00586v-3.76563H166.419v3.76563Z"/><path class="cls-2" d="M175.31348,281.97159a4.55777,4.55777,0,0,1,3.24023-7.80273,4.93581,4.93581,0,0,1,3.34668,1.21484l-1.21484,1.33008a3.36111,3.36111,0,0,0-2.13184-.72851,2.59732,2.59732,0,0,0-2.72656,2.709,2.73136,2.73136,0,0,0,.75879,2.0166,2.6893,2.6893,0,0,0,1.98047.74707,3.26006,3.26006,0,0,0,2.11914-.72265l1.21484,1.33007a4.9106,4.9106,0,0,1-3.34668,1.21485A4.4346,4.4346,0,0,1,175.31348,281.97159Z"/><path class="cls-2" d="M188.19336,277.47062a.88087.88087,0,0,1,.65625-.2461.91251.91251,0,0,1,.67969.2461.835.835,0,0,1,.24316.61035.82368.82368,0,0,1-.24316.60742,1.039,1.039,0,0,1-1.33594,0,.82368.82368,0,0,1-.24316-.60742A.835.835,0,0,1,188.19336,277.47062Zm0,4.34863a.88086.88086,0,0,1,.65625-.24609.9125.9125,0,0,1,.67969.24609.83415.83415,0,0,1,.24316.61133.82144.82144,0,0,1-.24316.60644,1.039,1.039,0,0,1-1.33594,0,.82144.82144,0,0,1-.24316-.60644A.83415.83415,0,0,1,188.19336,281.81925Z"/><path class="cls-2" d="M197.89355,274.16886V274.163H199.71v9.11719h-1.81641v-6.68164l-1.21484,1.21484-1.21484-1.21484Z"/><path class="cls-2" d="M206.43359,278.664c.10938.04.208.08105.29786.12207a1.78609,1.78609,0,0,1,.9414,1.82226,2.33809,2.33809,0,0,1-.88379,2.03418,4.37651,4.37651,0,0,1-4.5498,0,2.33809,2.33809,0,0,1-.88379-2.03418,1.78608,1.78608,0,0,1,.94141-1.82226c.08984-.041.18847-.082.29785-.12207q-.09669-.04834-.17578-.09082a1.80107,1.80107,0,0,1-.82032-1.73047,2.49248,2.49248,0,0,1,.793-1.97461,3.57122,3.57122,0,0,1,4.24512,0,2.49248,2.49248,0,0,1,.793,1.97461,1.80108,1.80108,0,0,1-.82031,1.73047Q206.53027,278.61564,206.43359,278.664Zm-1.91894-.8252q.80127-.0249,1.03223-.41992a.97014.97014,0,0,0,0-1.03223,1.171,1.171,0,0,0-1.03223-.51074,1.156,1.156,0,0,0-1.02735.51074.95432.95432,0,0,0,0,1.03223Q203.7129,277.81436,204.51465,277.83878Zm0,1.66992a1.35415,1.35415,0,0,0-1.02735.52149.956.956,0,0,0,0,1.0332,1.1491,1.1491,0,0,0,1.02735.50977,1.164,1.164,0,0,0,1.03223-.50977.97182.97182,0,0,0,0-1.0332A1.37524,1.37524,0,0,0,204.51465,279.5087Z"/><path class="cls-2" d="M209.26465,280.84464v-1.209h3.76562v1.209Z"/><path class="cls-2" d="M217.88379,274.16886a3.43777,3.43777,0,0,1,2.18945.67187,2.39165,2.39165,0,0,1,.85254,2.002,4.17212,4.17212,0,0,1-1.21094,2.89062,8.41651,8.41651,0,0,1-2.002,1.72461h3.28027v1.82227h-6.14062v-1.82227q.6079,0,2.30762-1.51758a8.74873,8.74873,0,0,0,1.97461-2.15625,1.48794,1.48794,0,0,0-.03028-1.27636q-.30468-.63721-1.458-.6377a2.09508,2.09508,0,0,0-1.70117.72852l-1.21386-1.21485a5.01305,5.01305,0,0,1,1.18359-.91015A4.55007,4.55007,0,0,1,217.88379,274.16886Z"/><path class="cls-2" d="M228.54883,274.16886V275.87H224.7832v1.27539h.72852a4.08513,4.08513,0,0,1,2.75781.82031,3.328,3.328,0,0,1,.94141,2.46,2.65864,2.65864,0,0,1-.91406,2.00488,3.18515,3.18515,0,0,1-2.251.84961,5.38931,5.38931,0,0,1-2.11914-.36426,4.59794,4.59794,0,0,1-1.458-.97168l1.21484-1.21484a2.5475,2.5475,0,0,0,1.94336.78906q1.64063,0,1.792-1.20215a1.35746,1.35746,0,0,0-.5586-1.12988,3.64553,3.64553,0,0,0-1.95605-.33985h-1.94336v-4.67773Z"/><path class="cls-2" d="M231.06348,278.01456a2.34608,2.34608,0,1,1,1.62793.65625A2.211,2.211,0,0,1,231.06348,278.01456Zm1.60937-.42578a1.086,1.086,0,0,0,.832-.3457,1.31217,1.31217,0,0,0,0-1.72266,1.09757,1.09757,0,0,0-.83789-.34277,1.08075,1.08075,0,0,0-.82617.34277,1.31217,1.31217,0,0,0,0,1.72266A1.08457,1.08457,0,0,0,232.67285,277.58878Zm-.48633,5.69141,5.16309-9.11133h1.48144l-5.15039,9.11133Zm4.52539-.60156a2.33212,2.33212,0,1,1,1.61524.65039A2.19253,2.19253,0,0,1,236.71191,282.67863Zm1.585-.44336a1.06726,1.06726,0,0,0,.81445-.33692,1.27187,1.27187,0,0,0,0-1.67676,1.07346,1.07346,0,0,0-.82031-.33593,1.056,1.056,0,0,0-.80762.33593,1.26891,1.26891,0,0,0,0,1.67676A1.06367,1.06367,0,0,0,238.29688,282.23527Z"/></svg>