<svg xmlns="http://www.w3.org/2000/svg" xmlns:xlink="http://www.w3.org/1999/xlink" width="970" height="250" viewBox="0 0 970 250"><defs><style>.cls-1{fill:none;}.cls-2{isolation:isolate;}.cls-3{clip-path:url(#clip-path);}.cls-4{clip-path:url(#clip-path-2);}.cls-5{clip-path:url(#clip-path-3);}.cls-6{clip-path:url(#clip-path-4);}.cls-7{opacity:0.65882;}.cls-8{clip-path:url(#clip-path-5);}.cls-9{clip-path:url(#clip-path-6);}.cls-10{clip-path:url(#clip-path-7);}.cls-11{clip-path:url(#clip-path-8);}.cls-12{clip-path:url(#clip-path-9);}.cls-13{mix-blend-mode:multiply;}.cls-14{mix-blend-mode:color;}.cls-15{fill:#ba9544;}</style><clipPath id="clip-path"><rect class="cls-1" x="-2" y="586.64614" width="974" height="251.03093"/></clipPath><clipPath id="clip-path-2"><rect class="cls-1" x="-17.21661" y="191.22969" width="994.73176" height="663.15451"/></clipPath><clipPath id="clip-path-3"><rect class="cls-1" x="-2" y="287.48396" width="974" height="251.03093"/></clipPath><clipPath id="clip-path-4"><rect class="cls-1" x="-17.21661" y="-107.9325" width="994.73176" height="663.15451"/></clipPath><clipPath id="clip-path-5"><rect class="cls-1" x="-3.29437" y="585.16046" width="174.72189" height="166.77998"/></clipPath><clipPath id="clip-path-6"><path class="cls-1" d="M197.27,287.59866c-2.1928,3.28919,4.6982,51.298,4.6982,51.298l3.28919,18.63876,19.73515,5.482,30.69913-13.15677L284.198,367.403l16.446,8.77118,13.3953-.83332,22.78582-9.03426,87.71179,2.19279-9.89263-80.44138Z"/></clipPath><clipPath id="clip-path-7"><polygon class="cls-1" points="270.902 538.109 -3.565 537.491 -3.565 445.384 159.517 476.324 270.902 538.109"/></clipPath><clipPath id="clip-path-8"><rect class="cls-1" x="-3.29437" y="285.99827" width="174.72189" height="166.77998"/></clipPath><clipPath id="clip-path-9"><rect class="cls-1" x="-312.29926" y="-33.43122" width="520.87156" height="488.60709" transform="translate(-248.33819 118.38101) rotate(-78.60858)"/></clipPath></defs><title>Frame1 - Sensi Star</title><g class="cls-2"><g id="BG"><g class="cls-3"><g id="Background_LO.psd"><g class="cls-4"><g id="background"><image id="GettyImages-909407598" width="1266" height="1899" transform="translate(977.51516 191.22969) rotate(90) scale(0.52382)" xlink:href="Frame1%20-%20Sensi%20Star1.png"/></g></g></g></g><g class="cls-5"><g id="Background_LO.psd-2" data-name="Background_LO.psd"><g class="cls-6"><g id="background-2" data-name="background"><image id="GettyImages-909407598-2" data-name="GettyImages-909407598" width="1266" height="1899" transform="translate(977.51516 -107.9325) rotate(90) scale(0.52382)" xlink:href="Frame1%20-%20Sensi%20Star2.png"/><image id="Layer_27" data-name="Layer 27" class="cls-7" width="1015" height="1469" transform="translate(977.51516 23.546) rotate(90) scale(0.52382)" xlink:href="Frame1%20-%20Sensi%20Star3.png"/></g></g></g></g></g><g id="Terpenes"><g class="cls-11"><g id="Variety_3_GettyImages-674327808.psd-2" data-name="Variety#3_GettyImages-674327808.psd"><g class="cls-12"><g id="Variety_3-lemon_lime_with_leaves" data-name="Variety#3-lemon+lime with leaves"><image id="Lemon_lime_with_leaves_shadow" data-name="Lemon+lime with leaves shadow" class="cls-13" width="2625" height="1490" transform="translate(-275.336 96.77428) rotate(11.39142) scale(0.10791)" xlink:href="Frame1%20-%20Sensi%20Star4.png"/></g><g id="Variety_3-grapefruit" data-name="Variety#3-grapefruit"><image id="Grapefruit_shadow" data-name="Grapefruit shadow" class="cls-13" width="1834" height="2677" transform="translate(-10.75648 152.17309) rotate(11.39142) scale(0.10791)" xlink:href="Frame1%20-%20Sensi%20Star5.png"/><image id="Variety_3-grapefruit-2" data-name="Variety#3-grapefruit" width="1718" height="2637" transform="translate(-8.06616 150.29345) rotate(11.39142) scale(0.10791)" xlink:href="Frame1%20-%20Sensi%20Star6.png"/><image id="Layer_1" data-name="Layer 1" class="cls-14" width="1047" height="641" transform="translate(17.30026 155.51434) rotate(11.39142) scale(0.10791)" xlink:href="Frame1%20-%20Sensi%20Star7.png"/><image id="Layer_2" data-name="Layer 2" width="1020" height="598" transform="translate(17.3421 155.853) rotate(11.39142) scale(0.10791)" xlink:href="Frame1%20-%20Sensi%20Star8.png"/></g></g></g></g></g><g id="Content"><path class="cls-15" d="M423.52794,117.28662c5.23047,0,7.918,3.12793,7.918,8.60156v1.07471h-5.083v-1.417c0-2.44336-.97754-3.37207-2.68848-3.37207-1.71,0-2.6875.92871-2.6875,3.37207,0,7.03808,10.50781,8.35742,10.50781,18.13183,0,5.47364-2.73632,8.60157-8.01562,8.60157-5.27832,0-8.01563-3.12793-8.01563-8.60157v-2.10156h5.084v2.44336c0,2.44434,1.07422,3.32422,2.78516,3.32422s2.78613-.87988,2.78613-3.32422c0-7.03711-10.50879-8.35742-10.50879-18.13135C415.61,120.41455,418.29942,117.28662,423.52794,117.28662Z"/><path class="cls-15" d="M445.1295,132.09473h7.37891v4.88769H445.1295V147.001h9.28516v4.88769H439.75255V117.67725h14.66211v4.88769H445.1295Z"/><path class="cls-15" d="M467.70763,127.10938v24.77929h-4.8379V117.67725h6.74415l5.52343,20.478v-20.478h4.78907v34.21142h-5.52247Z"/><path class="cls-15" d="M496.19981,117.28662c5.22949,0,7.918,3.12793,7.918,8.60156v1.07471h-5.084v-1.417c0-2.44336-.97657-3.37207-2.6875-3.37207s-2.6875.92871-2.6875,3.37207c0,7.03808,10.50781,8.35742,10.50781,18.13183,0,5.47364-2.73731,8.60157-8.01563,8.60157-5.27929,0-8.01562-3.12793-8.01562-8.60157v-2.10156h5.083v2.44336c0,2.44434,1.07519,3.32422,2.78613,3.32422s2.78516-.87988,2.78516-3.32422c0-7.03711-10.50782-8.35742-10.50782-18.13135C488.28184,120.41455,490.97032,117.28662,496.19981,117.28662Z"/><path class="cls-15" d="M512.42442,117.67725h5.377v34.21142h-5.377Z"/><path class="cls-15" d="M546.8795,117.28662c5.22949,0,7.917,3.12793,7.917,8.60156v1.07471h-5.082v-1.417c0-2.44336-.97754-3.37207-2.68848-3.37207s-2.68847.92871-2.68847,3.37207c0,7.03808,10.50781,8.35742,10.50781,18.13183,0,5.47364-2.73633,8.60157-8.01465,8.60157s-8.01562-3.12793-8.01562-8.60157v-2.10156h5.083v2.44336c0,2.44434,1.0752,3.32422,2.78614,3.32422,1.71,0,2.78515-.87988,2.78515-3.32422,0-7.03711-10.50781-8.35742-10.50781-18.13135C538.96153,120.41455,541.65,117.28662,546.8795,117.28662Z"/><path class="cls-15" d="M561.53966,117.67725h16.61718v4.88769h-5.62011v29.32373h-5.376V122.56494h-5.62109Z"/><path class="cls-15" d="M603.08165,151.88867h-5.42578l-.92871-6.207H590.1295l-.92871,6.207h-4.93555l5.47364-34.21142H597.607Zm-12.26758-10.84961h5.18066l-2.59082-17.30127Z"/><path class="cls-15" d="M621.99473,151.88867a10.50276,10.50276,0,0,1-.48925-4.20312v-5.376c0-3.17676-1.0752-4.34961-3.51856-4.34961H616.1295v13.92871h-5.376V117.67725h8.11328c5.57129,0,7.96583,2.59033,7.96583,7.86865v2.68848c0,3.51855-1.124,5.81542-3.51856,6.93945,2.6875,1.124,3.56738,3.71484,3.56738,7.28222v5.27833a10.06565,10.06565,0,0,0,.58692,4.15429Zm-5.86523-29.32373v10.50733h2.10156c2.00391,0,3.22559-.87989,3.22559-3.61622v-3.373c0-2.44287-.83106-3.51807-2.73633-3.51807Z"/></g></g></svg>