<svg xmlns="http://www.w3.org/2000/svg" xmlns:xlink="http://www.w3.org/1999/xlink" width="970" height="250" viewBox="0 0 970 250"><defs><style>.cls-1{fill:none;}.cls-2{isolation:isolate;}.cls-3{clip-path:url(#clip-path);}.cls-4{clip-path:url(#clip-path-2);}.cls-5{mix-blend-mode:multiply;}.cls-6{fill:#fff;stroke:#ba9544;stroke-miterlimit:10;stroke-width:0.5px;}.cls-7{fill:#ba9544;}.cls-8{clip-path:url(#clip-path-3);}.cls-9{clip-path:url(#clip-path-4);}</style><clipPath id="clip-path"><polygon class="cls-1" points="270.902 -49.053 -3.565 -49.671 -3.565 -141.778 159.517 -110.837 270.902 -49.053"/></clipPath><clipPath id="clip-path-2"><rect class="cls-1" x="-76.03832" y="-336.20375" width="317.55181" height="538.64228" transform="translate(30.59439 25.85292) rotate(-21.70084)"/></clipPath><clipPath id="clip-path-3"><rect class="cls-1" x="17.24025" y="-299.16219" width="383.03219" height="250.51546"/></clipPath><clipPath id="clip-path-4"><rect class="cls-1" x="2.56702" y="-306.41002" width="399.55191" height="335.80187"/></clipPath></defs><title>THC - Sensi Star</title><g class="cls-2"><g id="Terpenes"><g class="cls-3"><g id="Oranges_2_GettyImages-660287312.psd" data-name="Oranges#2_GettyImages-660287312.psd"><g class="cls-4"><image id="Shadow" class="cls-5" width="2830" height="2610" transform="translate(170.34931 -206.6647) rotate(68.29916) scale(0.08858)" xlink:href="THC%20-%20Sensi%20Star1.png"/><image id="Oranges_2" data-name="Oranges #2" width="2682" height="2541" transform="translate(161.11071 -200.41403) rotate(68.29916) scale(0.08858)" xlink:href="THC%20-%20Sensi%20Star2.png"/></g></g></g></g><g id="Content"><polygon class="cls-6" points="640.868 98.632 408.265 97.751 396.523 114.684 408.265 131.316 640.868 130.919 651.436 114.777 640.868 98.632"/><polygon class="cls-7" points="408.435 97.751 396.693 114.684 408.435 131.316 444.082 131.316 444.202 97.751 408.435 97.751"/><path class="cls-7" d="M541.39708,109.32667v2.126h-3.7959v9.2627h-2.27734v-9.2627H531.527v-2.126Z"/><path class="cls-7" d="M543.09044,120.71535V109.32667h2.27832v4.55567h5.30664v-4.5625h2.27734v11.38769l-2.27734.00782v-4.707h-5.30664v4.707Z"/><path class="cls-7" d="M556.48692,119.0796a5.697,5.697,0,0,1,4.05078-9.75293,6.16434,6.16434,0,0,1,4.1836,1.51856l-1.51856,1.66308a4.1997,4.1997,0,0,0-2.665-.91113,3.3468,3.3468,0,0,0-2.47168.95606,3.31308,3.31308,0,0,0-.9375,2.42968,3.41108,3.41108,0,0,0,.94922,2.52051,3.36172,3.36172,0,0,0,2.47559.93457,4.08629,4.08629,0,0,0,2.64941-.90332l1.51856,1.66211a6.14208,6.14208,0,0,1-4.1836,1.51856A5.54383,5.54383,0,0,1,556.48692,119.0796Z"/><path class="cls-7" d="M567.2711,113.45363a1.10108,1.10108,0,0,1,.82031-.30762,1.14294,1.14294,0,0,1,.85059.30762,1.10584,1.10584,0,0,1,0,1.52246,1.30094,1.30094,0,0,1-1.6709,0,1.10584,1.10584,0,0,1,0-1.52246Zm0,5.43554a1.10111,1.10111,0,0,1,.82031-.30761,1.143,1.143,0,0,1,.85059.30761,1.04565,1.04565,0,0,1,.30371.76368,1.02976,1.02976,0,0,1-.30371.75878,1.30091,1.30091,0,0,1-1.6709,0,1.02976,1.02976,0,0,1-.30371-.75878A1.04565,1.04565,0,0,1,567.2711,118.88917Z"/><path class="cls-7" d="M579.3961,109.32667v-.00683h2.27051v11.39551H579.3961v-8.35157l-1.51855,1.51856-1.51856-1.51856Z"/><path class="cls-7" d="M583.93614,115.18019a6.88652,6.88652,0,0,1,1.17676-4.27734,3.84586,3.84586,0,0,1,3.15039-1.56836,4.77762,4.77762,0,0,1,3.18945,1.13183l-1.13965,1.51758a4.011,4.011,0,0,0-1.95117-.45508,2.015,2.015,0,0,0-1.57129.64551,3.05467,3.05467,0,0,0-.65332,1.93555,3.54148,3.54148,0,0,1,2.27832-.98633,3.80039,3.80039,0,0,1,2.92285,1.02441,3.91934,3.91934,0,0,1,.94922,2.77149,3.734,3.734,0,0,1-1.06347,2.69531,4.02615,4.02615,0,0,1-3.03614,1.10059,3.81128,3.81128,0,0,1-3.26464-1.541A7.06321,7.06321,0,0,1,583.93614,115.18019Zm2.50488,1.74707q.07617,1.58643,1.82227,1.6543,1.74609-.06739,1.82226-1.51075a1.71972,1.71972,0,0,0-1.89746-1.89746A1.69172,1.69172,0,0,0,586.441,116.92726Z"/><path class="cls-7" d="M594.33751,117.67042v-1.51074h4.707v1.51074Z"/><path class="cls-7" d="M605.111,109.32667a4.30156,4.30156,0,0,1,2.7373.83887,2.98984,2.98984,0,0,1,1.06641,2.502A5.21664,5.21664,0,0,1,607.4,116.28175a10.53612,10.53612,0,0,1-2.502,2.15625h4.09961v2.27735h-7.67578V118.438q.76026,0,2.88575-1.89844a10.85485,10.85485,0,0,0,2.46679-2.69531,1.85024,1.85024,0,0,0-.03711-1.59375q-.38085-.79833-1.82226-.79785a2.61434,2.61434,0,0,0-2.126.91113l-1.51855-1.51855a6.28942,6.28942,0,0,1,1.48046-1.13867A5.70075,5.70075,0,0,1,605.111,109.32667Z"/><path class="cls-7" d="M612.27013,119.0796a7.80757,7.80757,0,0,1,0-8.12011,3.64461,3.64461,0,0,1,6.07812,0,7.83579,7.83579,0,0,1,0,8.123,3.64281,3.64281,0,0,1-6.07812-.00293Zm3.04492-.49023q.75145,0,1.32129-1.02442a5.966,5.966,0,0,0,0-5.08691q-.56984-1.02538-1.33692-1.02539-.75146,0-1.32031,1.02539a5.966,5.966,0,0,0,0,5.08691Q614.54748,118.58888,615.31505,118.58937Z"/><path class="cls-7" d="M622.193,114.13331a2.936,2.936,0,1,1,2.03515.81934A2.76692,2.76692,0,0,1,622.193,114.13331Zm2.01269-.53222a1.35451,1.35451,0,0,0,1.04-.43262,1.64042,1.64042,0,0,0,0-2.15234,1.37144,1.37144,0,0,0-1.04785-.42871,1.35406,1.35406,0,0,0-1.0332.42871,1.64039,1.64039,0,0,0,0,2.15234A1.35517,1.35517,0,0,0,624.20567,113.60109Zm-.60742,7.11426,6.45313-11.38868h1.85253l-6.43847,11.38868Zm5.65625-.752a2.9161,2.9161,0,1,1,2.01953.8125A2.73938,2.73938,0,0,1,629.2545,119.96339Zm1.98145-.55371a1.32831,1.32831,0,0,0,1.0166-.42187,1.58456,1.58456,0,0,0,0-2.09473,1.338,1.338,0,0,0-1.02442-.42188,1.32077,1.32077,0,0,0-1.00976.42188,1.58748,1.58748,0,0,0,0,2.09473A1.33041,1.33041,0,0,0,631.236,119.40968Z"/><g class="cls-8"><g id="SmallTopDown-8342SensiStar.psd"><g class="cls-9"><image id="SmallTopDown-8342SensiStar" width="4124" height="3466" transform="translate(2.56702 -306.41002) scale(0.09688)" xlink:href="THC%20-%20Sensi%20Star3.png"/></g></g></g></g></g></svg>