<svg id="Content" xmlns="http://www.w3.org/2000/svg" xmlns:xlink="http://www.w3.org/1999/xlink" width="320" height="568" viewBox="0 0 320 568"><defs><style>.cls-1{fill:url(#New_Gradient_Swatch_1);}.cls-2{fill:#fff;}.cls-3{fill:#ba9544;}</style><linearGradient id="New_Gradient_Swatch_1" x1="202.75417" y1="266.66089" x2="243.28409" y2="266.66089" gradientUnits="userSpaceOnUse"><stop offset="0" stop-color="#a88a34"/><stop offset="0.49324" stop-color="#caaf67"/><stop offset="1" stop-color="#957f2e"/></linearGradient></defs><title>citrus</title><polygon class="cls-1" points="233.151 249.111 212.887 249.111 202.754 266.66 212.887 284.21 233.151 284.21 243.284 266.66 233.151 249.111"/><path class="cls-2" d="M231.30834,269.146a8.90944,8.90944,0,0,1-13.50558-11.57916l-.82479-.70805a9.99508,9.99508,0,0,0,15.15516,12.99526Z"/><path class="cls-2" d="M216.81187,263.87107a8.09665,8.09665,0,0,0,2.51394,5.02411l4.78871-5.58527Z"/><path class="cls-2" d="M219.87943,269.369a8.09976,8.09976,0,0,0,5.27079,1.72115l-.55363-7.22168Z"/><path class="cls-2" d="M218.398,258.07716a8.09586,8.09586,0,0,0-1.63454,5.06742l6.92415-.53291Z"/><path class="cls-2" d="M230.71159,268.63513l-5.37249-4.606.53669,7.00324a8.093,8.093,0,0,0,4.8358-2.39719"/><path class="cls-2" d="M224.08119,262.00813c.03578-.45382.29-.74194.57811-.76454.28623-.02448.499.2241.46323.67792a1.54336,1.54336,0,0,1-.58563.86434.99862.99862,0,0,1-.45571-.77772"/><path class="cls-2" d="M225.9579,262.44123c.44063-.12992.73062.0226.76641.30695.03578.28247-.19585.58942-.6346.71935a1.01617,1.01617,0,0,1-.86435-.2787s.29189-.61766.73254-.7476"/><path class="cls-2" d="M226.77233,276.47728a.94025.94025,0,1,1-1.87934.06592c-.017-.51786.88694-1.54415.88694-1.54415s.97544.96039.9924,1.47823"/><path class="cls-2" d="M226.43771,275.8649a.26387.26387,0,0,1-.226.29377l-.78149.02824a.26494.26494,0,0,1-.24479-.27681,2.82841,2.82841,0,0,0,.08473-1.49895c-.29942-.8907-2.38588-1.59121-2.256-1.595l4.29723-.3013a3.10754,3.10754,0,0,0-1.15622,1.89063,1.96009,1.96009,0,0,0,.28247,1.4594"/><path class="cls-3" d="M204.60742,307.04492a3.72547,3.72547,0,0,1,2.64893-6.37793,4.02994,4.02994,0,0,1,2.73584.99317l-.99317,1.08789a2.7443,2.7443,0,0,0-1.74267-.59571,2.187,2.187,0,0,0-1.61621.625,2.16444,2.16444,0,0,0-.61328,1.58887,2.23227,2.23227,0,0,0,.6206,1.64844,2.19828,2.19828,0,0,0,1.61865.61133,2.67178,2.67178,0,0,0,1.73291-.59082l.99317,1.08691a4.01856,4.01856,0,0,1-2.73584.99316A3.6217,3.6217,0,0,1,204.60742,307.04492Z"/><path class="cls-3" d="M211.5957,300.66211h1.48438v7.45312H211.5957Z"/><path class="cls-3" d="M220.65186,300.667v1.39063h-2.48243v6.05761h-1.48974v-6.05761h-2.48242V300.667Z"/><path class="cls-3" d="M226.24268,304.86816l1.85693,3.24707h-1.708l-1.78222-3.07812h-1.36084v3.07812h-1.48926V300.667h3.24707q2.60668,0,2.60693,2.14551A1.92617,1.92617,0,0,1,226.24268,304.86816Zm-2.99414-1.22168H225.334q.8987-.01464.92383-.81933-.0249-.73389-.90869-.76465h-2.10058Z"/><path class="cls-3" d="M230.24951,300.667v4.32031a1.49412,1.49412,0,0,0,.49658,1.24122,2.13755,2.13755,0,0,0,2.48291,0,1.49409,1.49409,0,0,0,.49659-1.24122V300.667h1.48925v4.71778a2.47,2.47,0,0,1-.91845,1.93652,3.75411,3.75411,0,0,1-4.61768,0,2.47,2.47,0,0,1-.91846-1.93652V300.667Z"/><path class="cls-3" d="M240.85547,300.916a3.46018,3.46018,0,0,1,1.06738.74414l-.99316.99316a1.70908,1.70908,0,0,0-1.39014-.5957q-.89355,0-1.14209.42187a.58057.58057,0,0,0,0,.71973,1.96084,1.96084,0,0,0,1.14209.44726,3.69869,3.69869,0,0,1,1.71289.6211,1.86338,1.86338,0,0,1,.76953,1.66308,1.9101,1.9101,0,0,1-.82177,1.53907,3.00679,3.00679,0,0,1-1.91407.6455,4.415,4.415,0,0,1-1.73242-.29785,3.74754,3.74754,0,0,1-1.19189-.79492l.99316-.99219a2.35938,2.35938,0,0,0,1.688.69434q.99317,0,1.23877-.42188a.78475.78475,0,0,0,0-.84375q-.24537-.42187-1.23877-.52148a4.01006,4.01006,0,0,1-1.63867-.5459,1.649,1.649,0,0,1-.74463-1.53906,1.85449,1.85449,0,0,1,.84668-1.58692,2.98559,2.98559,0,0,1,1.74023-.59863A4.14512,4.14512,0,0,1,240.85547,300.916Z"/></svg>