<svg id="Content" xmlns="http://www.w3.org/2000/svg" xmlns:xlink="http://www.w3.org/1999/xlink" width="320" height="568" viewBox="0 0 320 568"><defs><style>.cls-1{fill:url(#New_Gradient_Swatch_1);}.cls-2{fill:#fff;}.cls-3{fill:#ba9544;}</style><linearGradient id="New_Gradient_Swatch_1" x1="139.61857" y1="267.59499" x2="179.94087" y2="267.59499" gradientUnits="userSpaceOnUse"><stop offset="0" stop-color="#a88a34"/><stop offset="0.49324" stop-color="#caaf67"/><stop offset="1" stop-color="#957f2e"/></linearGradient></defs><title>diesel</title><polygon class="cls-1" points="174.504 254.021 157.693 247.569 142.168 256.689 139.619 274.514 151.965 287.621 169.91 286.141 179.941 271.187 174.504 254.021"/><path class="cls-2" d="M154.39686,262.78694a1.7207,1.7207,0,0,1,.32412-.133,3.11679,3.11679,0,0,1,.36159-.09181l.02061-.00749,3.53724-.77752a1.1448,1.1448,0,0,1,.755.11615l.59579.58268-1.23842,1.29649-3.94755.86745c-.15738-.71194-.32037-1.45387-.40842-1.85293m12.27543,9.86792-1.94286-8.83748a1.32468,1.32468,0,0,0-1.47261-1.02482l1.04169-1.09415.28665.27166.43279-.459a.28113.28113,0,0,0-.01125-.3972l-2.09461-1.97846a.28113.28113,0,0,0-.39718.01125l-.4328.459.34473.326-1.39016,1.45762-.68947-.67261-.0487-.03746a2.63428,2.63428,0,0,0-1.98034-.37284l-3.49977.77a5.11932,5.11932,0,0,0-.61827.15925,2.10642,2.10642,0,0,0-1.13161.755,1.22212,1.22212,0,0,0-.1836.95364c.10866.48712.48711,2.21265.71568,3.24871.00375.02248.00749.045.01312.06745l1.94285,8.83935a1.31665,1.31665,0,0,0,1.57378,1.00047l8.52647-1.87541a1.32353,1.32353,0,0,0,1.01547-1.57"/><path class="cls-3" d="M141.45508,308.83887v-7.415h2.85547q3.45849,0,3.458,3.71,0,3.7046-3.458,3.70508Zm2.85547-1.47754q1.97167-.00439,1.97558-2.22754-.0044-2.22217-1.97558-2.22266H142.9375v4.4502Z"/><path class="cls-3" d="M149.35938,301.42383h1.47753v7.415h-1.47753Z"/><path class="cls-3" d="M152.30371,308.83887v-7.40528l5.44336-.00488v1.38379h-3.96094v1.58008h2.96875v1.3789h-2.96875v1.68457h3.95117v1.38282Z"/><path class="cls-3" d="M163.251,301.67578a3.45472,3.45472,0,0,1,1.06152.74121l-.9873.98828a1.70256,1.70256,0,0,0-1.38379-.59277q-.88917,0-1.13575.41992a.57634.57634,0,0,0,0,.71582,1.9502,1.9502,0,0,0,1.13575.44434,3.68135,3.68135,0,0,1,1.7041.61816,1.85449,1.85449,0,0,1,.7666,1.6543,1.90052,1.90052,0,0,1-.81836,1.53125,2.99043,2.99043,0,0,1-1.9043.64258,4.37324,4.37324,0,0,1-1.72363-.29688,3.73371,3.73371,0,0,1-1.18555-.79l.98731-.98828a2.35173,2.35173,0,0,0,1.67969.69238q.98877,0,1.23242-.41992a.782.782,0,0,0,0-.83984q-.24316-.4204-1.23242-.51856a3.98556,3.98556,0,0,1-1.62989-.54394,1.63853,1.63853,0,0,1-.74121-1.53125,1.844,1.844,0,0,1,.84278-1.57813,2.963,2.963,0,0,1,1.73144-.5957A4.14591,4.14591,0,0,1,163.251,301.67578Z"/><path class="cls-3" d="M165.71582,308.83887v-7.40528l5.44336-.00488v1.38379h-3.96094v1.58008H170.167v1.3789h-2.96875v1.68457h3.95117v1.38282Z"/><path class="cls-3" d="M174.14844,301.42871v6.02734h3.95215v1.38282H172.666v-7.41016Z"/></svg>