<svg id="Content" xmlns="http://www.w3.org/2000/svg" xmlns:xlink="http://www.w3.org/1999/xlink" width="320" height="50" viewBox="0 0 320 50"><defs><style>.cls-1{fill:url(#New_Gradient_Swatch_1);}.cls-2{fill:#fff;}.cls-3{fill:#ba9544;}</style><linearGradient id="New_Gradient_Swatch_1" x1="102.95711" y1="19.24897" x2="122.49167" y2="19.24897" gradientUnits="userSpaceOnUse"><stop offset="0" stop-color="#a88a34"/><stop offset="0.49324" stop-color="#caaf67"/><stop offset="1" stop-color="#957f2e"/></linearGradient></defs><title>berry</title><polygon class="cls-1" points="111.072 9.257 102.957 18.628 109.362 29.241 121.435 26.429 122.492 14.079 111.072 9.257"/><path class="cls-2" d="M115.56422,20.3024a.17828.17828,0,1,1-.03807-.24978.17989.17989,0,0,1,.03807.24978m-1.066-2.261a.22471.22471,0,1,1,.22378-.22471.22549.22549,0,0,1-.22378.22471m-.22377,2.70854a.22471.22471,0,1,1,.2247-.22471.2259.2259,0,0,1-.2247.22471m-.03436-1.6528a.17968.17968,0,1,1-.18014.17921.17992.17992,0,0,1,.18014-.17921m-.47727,2.91747a.19631.19631,0,1,1-.07335-.26835.19473.19473,0,0,1,.07335.26835m-.922-2.93975a.19778.19778,0,1,1,.19778-.19778.19676.19676,0,0,1-.19778.19778m-.05757,1.50794a.17967.17967,0,1,1,.17921-.17921.18071.18071,0,0,1-.17921.17921m-.58219.805a.17921.17921,0,1,1,.17921-.1792.18071.18071,0,0,1-.17921.1792m-.20335-1.42158a.22364.22364,0,1,1-.026-.31571.22452.22452,0,0,1,.026.31571m-.559-1.85151a.19732.19732,0,1,1,.19685.19778.19815.19815,0,0,1-.19685-.19778m2.87661-1.19317a4.69137,4.69137,0,0,0,1.00561-.77346,2.68558,2.68558,0,0,0-1.27488.13,1.847,1.847,0,0,0,.19684-.98147,1.00306,1.00306,0,0,0-.7354.585,1.82876,1.82876,0,0,0-.25534-.86354,1.1084,1.1084,0,0,0-.40856.99725,1.04379,1.04379,0,0,0-.77069-.649,1.8514,1.8514,0,0,0,.17735.94153,2.609,2.609,0,0,0-1.34452-.1597,4.55866,4.55866,0,0,0,1.06039.80225,1.983,1.983,0,0,0-1.80507,2.06228c0,1.68343,2.12635,4.46719,3.05024,4.46719,1,0,3.05024-2.78376,3.05024-4.46719a2.01416,2.01416,0,0,0-1.94621-2.09107"/><path class="cls-3" d="M106.60742,37.75293a1.04305,1.04305,0,0,1-.59668,1.93945l-2.0664-.00293V36.01953h1.94824q.92871.05419.97949,1.08008A.7676.7676,0,0,1,106.60742,37.75293Zm-1.92676-.26172H105.709a.41508.41508,0,0,0,.45606-.458q-.01319-.26952-.44824-.28418h-1.03614Zm0,1.626h1.2002a.47945.47945,0,0,0,.52832-.53125q-.01172-.353-.52148-.36719h-1.207Z"/><path class="cls-3" d="M107.8418,39.68945V36.01953l2.69824-.002v.68555h-1.96387v.7832h1.47168V38.169h-1.47168v.835h1.959v.68554Z"/><path class="cls-3" d="M113.49023,38.08887l.916,1.60058h-.84277l-.87891-1.51757h-.6709v1.51757h-.73437V36.01758h1.60156q1.28466,0,1.28516,1.05762A.94942.94942,0,0,1,113.49023,38.08887Zm-1.47656-.60254H113.042c.2959-.00488.44727-.13965.45606-.4043q-.01319-.36182-.44825-.377h-1.03613Z"/><path class="cls-3" d="M116.999,38.08887l.916,1.60058h-.84277l-.87891-1.51757h-.6709v1.51757h-.73437V36.01758h1.60156q1.28466,0,1.28515,1.05762A.94941.94941,0,0,1,116.999,38.08887Zm-1.47656-.60254h1.02832c.2959-.00488.44727-.13965.45606-.4043q-.01318-.36182-.44825-.377h-1.03613Z"/><path class="cls-3" d="M118.082,36.01758h.86133l.85254,1.19922.87109-1.19922h.84278l-1.34668,1.83594v1.83593h-.73438V37.85352Z"/></svg>