<svg id="Content" xmlns="http://www.w3.org/2000/svg" xmlns:xlink="http://www.w3.org/1999/xlink" width="320" height="50" viewBox="0 0 320 50"><defs><style>.cls-1{fill:#ba9544;}.cls-2{fill:#fff;stroke:#ba9544;stroke-miterlimit:10;stroke-width:0.5px;}.cls-3{clip-path:url(#clip-path);}</style><clipPath id="clip-path"><polygon class="cls-1" points="100.866 33.995 104.832 39.612 104.91 39.619 104.91 28.278 104.832 28.275 100.866 33.995"/></clipPath></defs><title>CBD - Sensi Star</title><polygon class="cls-2" points="183.303 28.56 104.746 28.262 100.78 33.981 104.746 39.598 183.303 39.465 186.872 34.013 183.303 28.56"/><polygon class="cls-1" points="100.866 33.995 104.832 39.612 104.91 39.619 104.91 28.278 104.832 28.275 100.866 33.995"/><g class="cls-3"><rect class="cls-1" x="99.98922" y="27.39849" width="5.79563" height="13.09678"/></g><path class="cls-1" d="M146.93262,35.86914a1.92437,1.92437,0,0,1,1.36816-3.29394,2.08314,2.08314,0,0,1,1.41309.51367l-.5127.56152a1.419,1.419,0,0,0-.90039-.30762,1.12811,1.12811,0,0,0-.834.32227,1.11667,1.11667,0,0,0-.31739.82129,1.15035,1.15035,0,0,0,.32129.85058,1.132,1.132,0,0,0,.83594.31543,1.37912,1.37912,0,0,0,.89453-.30468l.5127.56152a2.07534,2.07534,0,0,1-1.41309.5127A1.87307,1.87307,0,0,1,146.93262,35.86914Z"/><path class="cls-1" d="M153.27246,34.39355a1.09237,1.09237,0,0,1-.625,2.03125l-2.16406-.00292V32.57812h2.041q.9712.05714,1.02539,1.13086A.80247.80247,0,0,1,153.27246,34.39355Zm-2.01758-.27441H152.332a.43434.43434,0,0,0,.47656-.47949c-.00879-.1875-.165-.28711-.46875-.29688h-1.085Zm0,1.70313h1.25586a.5033.5033,0,0,0,.55469-.55665c-.00879-.24609-.19141-.375-.54688-.38476h-1.26367Z"/><path class="cls-1" d="M154.5752,36.42188V32.57324h1.48242q1.79444,0,1.79492,1.92578,0,1.92334-1.79492,1.92286Zm1.48242-.76661q1.02246-.00293,1.02539-1.15625-.00294-1.1543-1.02539-1.15429h-.71289v2.31054Z"/><path class="cls-1" d="M160.50586,33.96973a.37258.37258,0,0,1,.27734-.1045.3852.3852,0,0,1,.28711.1045.37292.37292,0,0,1,0,.51367.43966.43966,0,0,1-.56445,0,.37292.37292,0,0,1,0-.51367Zm0,1.83593a.37261.37261,0,0,1,.27734-.10449.38524.38524,0,0,1,.28711.10449.37293.37293,0,0,1,0,.51368.43966.43966,0,0,1-.56445,0,.37293.37293,0,0,1,0-.51368Z"/><path class="cls-1" d="M166.00879,33.67871l-1.48731.82031,1.48731.82032v.58984l-2.43067-1.33594v-.167l2.43067-1.31738Z"/><path class="cls-1" d="M169.33984,32.5752v-.002h.76661v3.84864h-.76661V33.60156l-.51269.5127-.51367-.5127Z"/></svg>