<svg id="Content" xmlns="http://www.w3.org/2000/svg" width="320" height="50" viewBox="0 0 320 50"><defs><style>.cls-1{fill:#fff;stroke:#ba9544;stroke-miterlimit:10;stroke-width:0.5px;}.cls-2{fill:#ba9544;}</style></defs><title>THC - Daytime CBD</title><polygon class="cls-1" points="182.435 10.816 103.878 10.519 99.912 16.237 103.878 21.855 182.435 21.721 186.004 16.269 182.435 10.816"/><polygon class="cls-2" points="103.935 10.519 99.97 16.237 103.935 21.855 108.867 21.855 108.867 10.519 103.935 10.519"/><path class="cls-2" d="M148.84131,14.14941v.71778h-1.28223v3.12793h-.76953V14.86719h-1.28174v-.71778Z"/><path class="cls-2" d="M149.41309,17.99512V14.14941h.769V15.6875h1.79248v-1.541h.769v3.84571l-.769.00293V16.40527h-1.79248v1.58985Z"/><path class="cls-2" d="M153.9375,17.44238a1.92317,1.92317,0,0,1,1.36816-3.293,2.08107,2.08107,0,0,1,1.4126.5127l-.51269.56152a1.41859,1.41859,0,0,0-.89991-.30761,1.09481,1.09481,0,0,0-1.15136,1.14355,1.15165,1.15165,0,0,0,.32031.85059,1.13277,1.13277,0,0,0,.83594.31543,1.3805,1.3805,0,0,0,.895-.30469l.51269.56152a2.075,2.075,0,0,1-1.4126.5127A1.86992,1.86992,0,0,1,153.9375,17.44238Z"/><path class="cls-2" d="M157.57959,15.543a.37143.37143,0,0,1,.27686-.10449.38517.38517,0,0,1,.2871.10449.37164.37164,0,0,1,0,.51367.439.439,0,0,1-.564,0,.37292.37292,0,0,1,0-.51367Zm0,1.83594a.37143.37143,0,0,1,.27686-.1045.38518.38518,0,0,1,.2871.1045.37164.37164,0,0,1,0,.51367.439.439,0,0,1-.564,0,.37292.37292,0,0,1,0-.51367Z"/><path class="cls-2" d="M163.17432,16.0459c.04638.01758.08838.03515.126.05176a.7547.7547,0,0,1,.39746.76953.98749.98749,0,0,1-.42431.79492,1.55856,1.55856,0,0,1-.98877.333,2.27952,2.27952,0,0,1-.895-.1543,1.93959,1.93959,0,0,1-.61524-.41016l.5127-.51269a1.22,1.22,0,0,0,.87207.35937c.3418,0,.55518-.07324.63965-.21777a.40765.40765,0,0,0,0-.43652c-.08447-.14453-.38233-.22657-.89356-.24317V15.6875q.76685.05127.89356-.167a.406.406,0,0,0,0-.43555q-.12671-.21827-.63965-.21777a.91327.91327,0,0,0-.74365.30761l-.5127-.51269a1.78074,1.78074,0,0,1,.55127-.38477,2.13527,2.13527,0,0,1,.83057-.12793,1.35362,1.35362,0,0,1,.9375.333,1.03142,1.03142,0,0,1,.373.79492.76089.76089,0,0,1-.34619.73047C163.22656,16.01953,163.20166,16.0332,163.17432,16.0459Z"/><path class="cls-2" d="M164.32324,16.9668V16.457h1.58985v.50977Z"/><path class="cls-2" d="M167.06445,17.99512l.00244-.25684,1.20264-2.87109h-1.64648l-.00244-.71778h2.62548v.28125l-1.4331,3.56446Z"/><path class="cls-2" d="M170.08984,15.77246a.9927.9927,0,1,1,.687.27637A.93394.93394,0,0,1,170.08984,15.77246Zm.67969-.17969a.45731.45731,0,0,0,.35108-.14648.51353.51353,0,0,0,.13574-.36426.50715.50715,0,0,0-.13574-.3623.46344.46344,0,0,0-.354-.14551.45758.45758,0,0,0-.34863.14551.50926.50926,0,0,0-.13574.3623.51568.51568,0,0,0,.13574.36426A.45763.45763,0,0,0,170.76953,15.59277Zm-.20557,2.40235,2.17969-3.84571h.62549l-2.17432,3.84571Zm1.91065-.25391a.98442.98442,0,1,1,.68213.27441A.92429.92429,0,0,1,172.47461,17.74121Zm.66894-.1875a.45.45,0,0,0,.34375-.1416.50044.50044,0,0,0,.13331-.35547.495.495,0,0,0-.13331-.35254.45318.45318,0,0,0-.34619-.14258.44663.44663,0,0,0-.34082.14258.495.495,0,0,0-.1333.35254.50047.50047,0,0,0,.1333.35547A.44893.44893,0,0,0,173.14355,17.55371Z"/></svg>