<svg id="Content" xmlns="http://www.w3.org/2000/svg" xmlns:xlink="http://www.w3.org/1999/xlink" width="320" height="480" viewBox="0 0 320 480"><defs><style>.cls-1{fill:#ba9544;}.cls-2{fill:#fff;stroke:#ba9544;stroke-miterlimit:10;stroke-width:0.5px;}.cls-3{clip-path:url(#clip-path);}</style><clipPath id="clip-path"><polygon class="cls-1" points="58.24 285.077 67.633 298.382 67.818 298.399 67.818 271.535 67.633 271.528 58.24 285.077"/></clipPath></defs><title>CBD - Shishkaberry</title><polygon class="cls-2" points="253.511 272.204 67.428 271.498 58.035 285.045 67.428 298.35 253.511 298.033 261.965 285.119 253.511 272.204"/><polygon class="cls-1" points="58.24 285.077 67.633 298.382 67.818 298.399 67.818 271.535 67.633 271.528 58.24 285.077"/><g class="cls-3"><rect class="cls-1" x="56.16191" y="269.45187" width="13.72837" height="31.02293"/></g><path class="cls-1" d="M167.36035,289.51562a4.55777,4.55777,0,0,1,3.24024-7.80273,4.93585,4.93585,0,0,1,3.34668,1.21484l-1.21485,1.33008a3.3611,3.3611,0,0,0-2.13183-.72851,2.59732,2.59732,0,0,0-2.72657,2.709,2.73144,2.73144,0,0,0,.75879,2.0166,2.68932,2.68932,0,0,0,1.98047.74707,3.26,3.26,0,0,0,2.11914-.72265l1.21485,1.33008a4.91064,4.91064,0,0,1-3.34668,1.21484A4.43464,4.43464,0,0,1,167.36035,289.51562Z"/><path class="cls-1" d="M182.37793,286.01953a2.58717,2.58717,0,0,1-1.48242,4.81055l-5.126-.00586v-9.10449h4.835q2.30127.13329,2.42969,2.67871A1.90582,1.90582,0,0,1,182.37793,286.01953Zm-4.78027-.64941h2.55078a1.02873,1.02873,0,0,0,1.12988-1.13574q-.03077-.668-1.11133-.70508h-2.56933Zm0,4.03222h2.97656a1.189,1.189,0,0,0,1.31152-1.31738q-.03077-.87451-1.29394-.91113h-2.99414Z"/><path class="cls-1" d="M185.46289,290.82422V281.707h3.51074q4.251,0,4.252,4.5625,0,4.55419-4.252,4.55469Zm3.51074-1.81641q2.42286-.00585,2.42969-2.73828-.00587-2.73339-2.42969-2.73437h-1.68847v5.47265Z"/><path class="cls-1" d="M195.25977,285.01465a.88086.88086,0,0,1,.65625-.2461.91248.91248,0,0,1,.67968.2461.835.835,0,0,1,.24317.61035.82369.82369,0,0,1-.24317.60742,1.039,1.039,0,0,1-1.33593,0,.82369.82369,0,0,1-.24317-.60742A.835.835,0,0,1,195.25977,285.01465Zm0,4.34863a.88085.88085,0,0,1,.65625-.24609.91248.91248,0,0,1,.67968.24609.83416.83416,0,0,1,.24317.61133.82144.82144,0,0,1-.24317.60644,1.039,1.039,0,0,1-1.33593,0,.82144.82144,0,0,1-.24317-.60644A.83416.83416,0,0,1,195.25977,289.36328Z"/><path class="cls-1" d="M208.29492,284.3252l-3.52344,1.94433,3.52344,1.94336v1.39649l-5.75781-3.16407v-.39453l5.75781-3.123Z"/><path class="cls-1" d="M216.18457,281.71289V281.707H218.001v9.11719h-1.81641v-6.68164l-1.21484,1.21484-1.21485-1.21484Z"/></svg>