<svg id="Layer_1" data-name="Layer 1" xmlns="http://www.w3.org/2000/svg" xmlns:xlink="http://www.w3.org/1999/xlink" width="47.438" height="72.08193" viewBox="0 0 47.438 72.08193"><defs><style>.cls-1{fill:url(#New_Gradient_Swatch_1);}.cls-2{fill:#fff;}.cls-3{fill:#ba9544;}</style><linearGradient id="New_Gradient_Swatch_1" y1="23.5603" x2="47.438" y2="23.5603" gradientUnits="userSpaceOnUse"><stop offset="0" stop-color="#a88a34"/><stop offset="0.49324" stop-color="#caaf67"/><stop offset="1" stop-color="#957f2e"/></linearGradient></defs><title>diesel</title><polygon class="cls-1" points="41.042 7.591 21.264 0 3 10.73 0 31.7 14.525 47.121 35.637 45.379 47.438 27.786 41.042 7.591"/><path class="cls-2" d="M17.38622,17.90377a2.02345,2.02345,0,0,1,.38132-.1565,3.66712,3.66712,0,0,1,.4254-.108l.02425-.00881,4.16146-.91473a1.34683,1.34683,0,0,1,.88828.13665l.70093.68551-1.457,1.52528-4.64418,1.02052c-.18515-.83757-.37691-1.71043-.4805-2.17991M31.82791,29.51308l-2.28572-10.397a1.55843,1.55843,0,0,0-1.73248-1.20567l1.22551-1.28723.33724.31959.50917-.54a.33074.33074,0,0,0-.01324-.46729l-2.46425-2.3276a.33073.33073,0,0,0-.46727.01324l-.50917.54.40556.38353-1.63548,1.71484-.81114-.7913-.0573-.04408a3.09925,3.09925,0,0,0-2.32981-.43864l-4.11737.90592a6.02823,6.02823,0,0,0-.72738.18735,2.47825,2.47825,0,0,0-1.33131.88828,1.43784,1.43784,0,0,0-.216,1.12193c.12784.57308.57307,2.60311.842,3.822.0044.02645.00881.0529.01544.07935l2.2857,10.39924a1.549,1.549,0,0,0,1.85151,1.177l10.03114-2.20636a1.5571,1.5571,0,0,0,1.19467-1.8471"/><path class="cls-3" d="M2.16005,72.08193V63.35829H5.51942q4.06788,0,4.06788,4.36524,0,4.35791-4.06788,4.3584Zm3.35937-1.73731q2.31885-.00585,2.32471-2.62109-.00585-2.61621-2.32471-2.61524H3.9037v5.23633Z"/><path class="cls-3" d="M11.45888,63.35829h1.73779v8.72364H11.45888Z"/><path class="cls-3" d="M14.92226,72.08193V63.37l6.40478-.00586v1.627H16.66591v1.86035h3.49316v1.62109H16.66591V70.455h4.64941v1.627Z"/><path class="cls-3" d="M27.80067,63.65517a4.05931,4.05931,0,0,1,1.25.87109l-1.1621,1.16309a2.00412,2.00412,0,0,0-1.62793-.69824q-1.04591,0-1.33643.49414a.67973.67973,0,0,0,0,.84277,2.29672,2.29672,0,0,0,1.33643.52344,4.32533,4.32533,0,0,1,2.00585.72656,2.183,2.183,0,0,1,.9004,1.94629,2.23247,2.23247,0,0,1-.96192,1.80176,3.52129,3.52129,0,0,1-2.24023.75586,5.16141,5.16141,0,0,1-2.02832-.34864,4.38951,4.38951,0,0,1-1.395-.92968L23.704,69.64052a2.76069,2.76069,0,0,0,1.97559.81445q1.16308,0,1.4502-.49414a.92226.92226,0,0,0,0-.98828q-.28712-.49365-1.4502-.61035a4.68136,4.68136,0,0,1-1.91748-.63867A1.92931,1.92931,0,0,1,22.89,65.92177a2.1701,2.1701,0,0,1,.99121-1.85742,3.48878,3.48878,0,0,1,2.03662-.7002A4.84991,4.84991,0,0,1,27.80067,63.65517Z"/><path class="cls-3" d="M30.70107,72.08193V63.37l6.40429-.00586v1.627H32.44521v1.86035h3.49218v1.62109H32.44521V70.455h4.64941v1.627Z"/><path class="cls-3" d="M40.622,63.36415V70.455h4.64942v1.627H38.8788V63.36415Z"/></svg>