<svg id="Layer_1" data-name="Layer 1" xmlns="http://www.w3.org/2000/svg" xmlns:xlink="http://www.w3.org/1999/xlink" width="375" height="132" viewBox="0 0 375 132"><defs><style>.cls-1{fill:url(#linear-gradient);}.cls-2{fill:url(#linear-gradient-2);}.cls-3{fill:#fff;}.cls-4{fill:url(#linear-gradient-3);}</style><linearGradient id="linear-gradient" x1="194.67713" y1="100.96368" x2="194.67713" y2="115.51872" gradientUnits="userSpaceOnUse"><stop offset="0" stop-color="#ceb467"/><stop offset="1" stop-color="#997f2f"/></linearGradient><linearGradient id="linear-gradient-2" x1="163.0683" y1="100.94206" x2="163.0683" y2="115.54035" xlink:href="#linear-gradient"/><linearGradient id="linear-gradient-3" x1="159.4847" y1="107.84356" x2="191.54769" y2="108.12856" gradientUnits="userSpaceOnUse"><stop offset="0" stop-color="#ad8f35"/><stop offset="0.1878" stop-color="#ceb467"/><stop offset="0.46098" stop-color="#a58f4b"/><stop offset="0.76341" stop-color="#ceb467"/><stop offset="1" stop-color="#997f2f"/></linearGradient></defs><title>learnmore</title><path class="cls-1" d="M216.43046,115.51872H168.9662l4.12238-7.27738-4.12238-7.27766h47.46426l3.9576,7.27766Zm-46.53775-.54h46.21661l3.66387-6.7374-3.66387-6.73767H169.89271l3.81654,6.73767Z"/><path class="cls-2" d="M167.3676,115.54035l-8.67085-.04325-3.93571-7.29716,4.00795-7.25788,8.67086.04324,3.93571,7.29717Zm-8.3476-.58165,8.02962.04008,3.71055-6.71948-3.64357-6.7556-8.02963-.04007-3.71054,6.71947Z"/><path class="cls-3" d="M180.21866,106.65439v2.58123h1.69261v.59242h-2.32734v-3.17365Z"/><path class="cls-3" d="M182.59872,109.828v-3.17153l2.33157-.00212v.59242h-1.69684v.677H184.505v.5903h-1.27157v.72147h1.69261v.59242Z"/><path class="cls-3" d="M185.57542,109.828l1.26946-3.17365h.63472l1.26735,3.17153-.67493.00212-.19042-.48663h-1.43872l-.19042.48663Zm1.60375-2.32734-.4824,1.206h.9521Z"/><path class="cls-3" d="M191.30473,108.44433l.79129,1.38371h-.72782l-.75956-1.31178h-.57972V109.828h-.63473v-3.17365h1.38371q1.11078,0,1.11078.914A.82069.82069,0,0,1,191.30473,108.44433Zm-1.27581-.52048h.88862q.383-.00635.39353-.3491-.01057-.31314-.38718-.32583h-.895Z"/><path class="cls-3" d="M192.5994,109.828v-3.17365h.21157l1.98882,1.98882v-1.98882h.63473V109.828h-.23273l-1.96766-1.96766V109.828Z"/><path class="cls-3" d="M197.92019,109.828v-3.17365h.21157l1.37525,1.56567,1.37736-1.56567h.21158V109.828h-.63473l-.00212-1.84072-.95209,1.05788-.95209-1.05788V109.828Z"/><path class="cls-3" d="M202.196,109.37209a1.6344,1.6344,0,1,1,1.13193.456A1.53747,1.53747,0,0,1,202.196,109.37209Zm1.13405-.13647a.89146.89146,0,0,0,.6855-.28563,1.082,1.082,0,0,0,0-1.41756.97051.97051,0,0,0-1.37524,0,1.082,1.082,0,0,0,0,1.41756A.89644.89644,0,0,0,203.33,109.23562Z"/><path class="cls-3" d="M207.47039,108.44433l.79129,1.38371h-.72782l-.75956-1.31178h-.57972V109.828h-.63473v-3.17365h1.38371q1.11078,0,1.11078.914A.82069.82069,0,0,1,207.47039,108.44433Zm-1.27581-.52048h.88862q.383-.00635.39354-.3491-.01059-.31314-.38719-.32583h-.895Z"/><path class="cls-3" d="M208.7566,109.828v-3.17153l2.33157-.00212v.59242h-1.69685v.677h1.27158v.5903h-1.27158v.72147h1.69261v.59242Z"/><path class="cls-4" d="M165.91356,110.05719l.08693-.02851a.97736.97736,0,0,0-.18411.05686l-.91038.37942.55092-.41048-.00421.00071-.01254-.09469-.10011-.16516a3.29821,3.29821,0,0,0,.75013-.77436l-.736.35234.74992-.62459a1.239,1.239,0,0,0,.23812-.25814c.09669-.14621.18646-.296.2684-.44753l-.23249.22957.27866-.6062a8.00582,8.00582,0,0,0,.41226-1.13988,9.71634,9.71634,0,0,0-1.10475.7118l-.54557.41347.174-.27111c-.14115.12-.27759.24667-.40784.37856a1.1991,1.1991,0,0,0-.20086.28144l-.39843.76317.14157-.69662a3.29423,3.29423,0,0,0-.31571.37763l-.0694.0969-.0637-.04375-.00983.0166-.54735,1.03792.32277-1.12812a3.58068,3.58068,0,0,0,.10708-1.41576l-.37691.70054.18254-.84269a1.37234,1.37234,0,0,0,.0285-.42052,6.79641,6.79641,0,0,0-.14478-.85067l-.04973.41369-.1636-.60307a10.255,10.255,0,0,0-.55882-1.51245,10.25429,10.25429,0,0,0-.55875,1.51245l-.16366.60307-.04967-.41369a6.78363,6.78363,0,0,0-.14478.85067,1.37126,1.37126,0,0,0,.02851.42059l.18232.84291-.3767-.70069a3.57988,3.57988,0,0,0,.107,1.41562l.32284,1.12819-.54735-1.038-.00991-.0166-.06363.04375-.06946-.0969a3.29224,3.29224,0,0,0-.31565-.37763l.14158.69662-.39851-.76317a1.19845,1.19845,0,0,0-.20078-.28144c-.13-.13168-.26634-.25815-.40728-.37806l.17443.27139-.54664-.41425a9.70928,9.70928,0,0,0-1.10475-.7118,7.9986,7.9986,0,0,0,.41233,1.13988l.27866.6062-.23249-.22957c.08187.15155.17172.30132.26841.44753a1.23639,1.23639,0,0,0,.23805.25814l.75.62459-.736-.35234a3.29683,3.29683,0,0,0,.75013.77436l-.10011.16516-.01253.09469-.00428-.00071.551.41048-.91044-.37942a.9753.9753,0,0,0-.184-.05686l.08685.02851-.78034-.00179a6.70529,6.70529,0,0,0-.74372.045,6.12119,6.12119,0,0,0,.63585.34949l.68657.32213-.07895-.00955a1.02546,1.02546,0,0,0,.17407.02223l1.04041.04617-.70988.13524a2.55545,2.55545,0,0,0,.51273.05635l.753.00492-.44033.14293.67652.11757-1.04183.06255q-.0249.0015-.04873.00449l-.47795.23378c-.12263.05992-.23706.125-.34272.19024.1311.01012.27232.01639.41532.01375l.54464-.00969c.01482-.00527.02972-.01119.04461-.0176l.90118-.39231-.45466.35056a1.57891,1.57891,0,0,0,.17842-.07631s.071.0409.0845.0523a.34021.34021,0,0,0,.03819-.00834,1.60916,1.60916,0,0,0,.39488-.23057,1.66108,1.66108,0,0,1,.44275-.25265,1.10312,1.10312,0,0,1,.155-.02893.42358.42358,0,0,1-.20413-.12733c-.09861-.09854-.13623-.23156-.04125-.25964s.26719.133.27837.133a.20533.20533,0,0,0,.0575-.1326c0-.05686-.04068-.16751-.04823-.23434a1.11834,1.11834,0,0,0-.04055-.194c-.01482-.0441-.1177-.06327-.173-.09733a.90609.90609,0,0,1-.13944-.09654.44085.44085,0,0,1-.05928-.20229.7977.7977,0,0,0-.03328-.206c-.01923-.03605-.06869-.06148-.10217-.095a.144.144,0,0,1-.03442-.0885c.02566-.008.03371.05807.06335.0637s.02757.03007.0741.0461.048.038.054.0813.05815.18953.07539.24916.0352.1046.09412.1066.05088.03249.1202.02686a.38722.38722,0,0,1,.16623.03206c.03726.01318.08415.01439.10018-.01161s-.01119-.131-.01119-.131c-.02408,0-.02814-.03241-.03733-.06248s.0057-.03242.0057-.03242a.12695.12695,0,1,1,.24189,0s.01483.00235.00564.03242-.01318.06248-.03727.06248c0,0-.02722.105-.01126.131s.06292.02479.10025.01161a.38682.38682,0,0,1,.16623-.03206c.06926.00563.06128-.02487.12013-.02686s.077-.04689.09419-.1066.06926-.20591.07532-.24916.00762-.06534.05408-.0813.04446-.04047.0741-.0461.03769-.07175.06334-.0637a.1438.1438,0,0,1-.03448.0885c-.03342.03349-.08294.05892-.10211.095a.79172.79172,0,0,0-.03327.206.44083.44083,0,0,1-.05929.20229.913.913,0,0,1-.13943.09654c-.05529.03406-.15825.05323-.17307.09733a1.11151,1.11151,0,0,0-.04047.194c-.00762.06683-.04824.17748-.04824.23434a.205.205,0,0,0,.0575.1326c.01119,0,.18347-.1611.27838-.133s.05735.1611-.04125.25964a.42308.42308,0,0,1-.20414.12733,1.1,1.1,0,0,1,.155.02893,1.66112,1.66112,0,0,1,.44276.25265,1.61125,1.61125,0,0,0,.3948.23057.35.35,0,0,0,.03826.00834c.01354-.01133.08458-.0523.08458-.0523a1.57875,1.57875,0,0,0,.17841.07631l-.45466-.35056.90112.39231c.01489.00641.02978.01233.0446.0176l.54472.00969c.143.00264.28414-.00363.41532-.01375-.10567-.0652-.22017-.13032-.34279-.19024l-.47795-.23378c-.01582-.002-.03214-.00349-.04867-.00449l-1.04176-.06255.677-.11764-.4389-.14286.75106-.00492a2.55583,2.55583,0,0,0,.51272-.05635l-.70987-.13524,1.04033-.04617a1.02526,1.02526,0,0,0,.17414-.02223l-.079.00955.68658-.32213a6.12235,6.12235,0,0,0,.63591-.34949,6.70616,6.70616,0,0,0-.74371-.045Z"/></svg>