<svg id="Content" xmlns="http://www.w3.org/2000/svg" width="320" height="480" viewBox="0 0 320 480"><defs><style>.cls-1{fill:#ba9544;}</style></defs><title>Frame1 - MK Ultra</title><path class="cls-1" d="M108.15674,359.52393l2.34717-15.5542H115.292V365.877h-3.25488V350.1665L109.65869,365.877h-3.25488l-2.56592-15.49121V365.877H100.8335V343.96973h4.78808Z"/><path class="cls-1" d="M125.61523,357.14551l-1.064,2.00293V365.877h-3.44238V343.96973h3.44238v9.54541l4.50684-9.54541h3.44238l-4.78809,9.76465,4.78809,12.14257h-3.53662Z"/><path class="cls-1" d="M148.83154,343.96973v16.8999c0,1.56494.68848,2.12793,1.78369,2.12793s1.7837-.563,1.7837-2.12793v-16.8999h3.25488v16.68066c0,3.50537-1.75244,5.5083-5.13233,5.5083s-5.13281-2.00293-5.13281-5.5083V343.96973Z"/><path class="cls-1" d="M161.31494,343.96973h3.44238v18.77783h5.66456V365.877h-9.10694Z"/><path class="cls-1" d="M174.2373,343.96973h10.64063v3.12988h-3.59912V365.877h-3.44238V347.09961H174.2373Z"/><path class="cls-1" d="M196.8916,365.877a6.74338,6.74338,0,0,1-.313-2.6914v-3.44239c0-2.03418-.68847-2.78564-2.25293-2.78564h-1.18945V365.877h-3.44238V343.96973h5.19482c3.56787,0,5.10156,1.65869,5.10156,5.03857V350.73c0,2.25293-.72021,3.72412-2.25341,4.44385,1.72119.71972,2.28466,2.37842,2.28466,4.66308v3.37989a6.45156,6.45156,0,0,0,.37549,2.66015Zm-3.75537-18.77734v6.72851h1.3457c1.28321,0,2.06543-.56347,2.06543-2.31591V349.353c0-1.56494-.53174-2.25342-1.75244-2.25342Z"/><path class="cls-1" d="M216.73,365.877h-3.47363l-.59473-3.97461h-4.2251l-.59472,3.97461h-3.16065l3.50537-21.90722h5.03858Zm-7.855-6.94775h3.31738l-1.65869-11.07861Z"/></svg>