<svg id="Content" xmlns="http://www.w3.org/2000/svg" xmlns:xlink="http://www.w3.org/1999/xlink" width="300" height="250" viewBox="0 0 300 250"><defs><style>.cls-1{fill:#ba9544;}</style></defs><title>Frame1 - Sensi Star</title><path class="cls-1" d="M186.18359,141.55759c2.78223,0,4.21289,1.66406,4.21289,4.57617v.57227h-2.7041v-.75391c0-1.2998-.5205-1.79394-1.43066-1.79394s-1.42969.49414-1.42969,1.79394c0,3.74414,5.58985,4.44629,5.58985,9.64649,0,2.91211-1.45606,4.57617-4.26368,4.57617-2.80859,0-4.26465-1.66406-4.26465-4.57617v-1.11817h2.70411v1.29981c0,1.30078.57226,1.76855,1.48242,1.76855s1.48144-.46777,1.48144-1.76855c0-3.74414-5.58984-4.44531-5.58984-9.64649C181.97168,143.22165,183.40137,141.55759,186.18359,141.55759Z"/><path class="cls-1" d="M196.63574,149.4365h3.92578v2.59961h-3.92578v5.33008h4.93946v2.60058h-7.79981V141.76658h7.79981v2.59961h-4.93946Z"/><path class="cls-1" d="M207.60742,146.78415v13.18262H205.0332V141.76658h3.58789l2.93848,10.89355V141.76658h2.54785v18.20019h-2.9375Z"/><path class="cls-1" d="M221.72461,141.55759c2.78223,0,4.21289,1.66406,4.21289,4.57617v.57227h-2.7041v-.75391c0-1.2998-.52051-1.79394-1.43067-1.79394s-1.42968.49414-1.42968,1.79394c0,3.74414,5.58984,4.44629,5.58984,9.64649,0,2.91211-1.456,4.57617-4.26367,4.57617-2.8086,0-4.26465-1.66406-4.26465-4.57617v-1.11817h2.7041v1.29981c0,1.30078.57227,1.76855,1.48242,1.76855s1.48145-.46777,1.48145-1.76855c0-3.74414-5.58984-4.44531-5.58984-9.64649C217.5127,143.22165,218.94238,141.55759,221.72461,141.55759Z"/><path class="cls-1" d="M229.31641,141.76658h2.86035v18.20019h-2.86035Z"/><path class="cls-1" d="M247.64551,141.55759c2.78222,0,4.21289,1.66406,4.21289,4.57617v.57227h-2.7041v-.75391c0-1.2998-.52051-1.79394-1.43067-1.79394s-1.42968.49414-1.42968,1.79394c0,3.74414,5.58984,4.44629,5.58984,9.64649,0,2.91211-1.45606,4.57617-4.26367,4.57617-2.8086,0-4.26465-1.66406-4.26465-4.57617v-1.11817h2.7041v1.29981c0,1.30078.57227,1.76855,1.48242,1.76855s1.48145-.46777,1.48145-1.76855c0-3.74414-5.58985-4.44531-5.58985-9.64649C243.43359,143.22165,244.86328,141.55759,247.64551,141.55759Z"/><path class="cls-1" d="M252.8457,141.76658h8.83985v2.59961h-2.99024v15.60058h-2.85937V144.36619H252.8457Z"/><path class="cls-1" d="M272.3457,159.96677H269.459l-.49316-3.30176h-3.51074l-.49414,3.30176h-2.626l2.91211-18.20019h4.18652Zm-6.52636-5.77246h2.75586l-1.37793-9.2041Z"/><path class="cls-1" d="M280.84766,159.96677a5.586,5.586,0,0,1-.26075-2.23633v-2.86035c0-1.68945-.57129-2.31347-1.87207-2.31347h-.9873v7.41015h-2.86035V141.76658h4.3164c2.96387,0,4.23731,1.37793,4.23731,4.18554v1.42969c0,1.87305-.59766,3.09473-1.87207,3.69238,1.43066.59864,1.89844,1.97657,1.89844,3.874v2.80859a5.357,5.357,0,0,0,.3125,2.21Zm-3.12012-15.60058V149.956h1.11719c1.0664,0,1.71679-.46777,1.71679-1.92383v-1.79394c0-1.29981-.44238-1.87207-1.456-1.87207Z"/><image width="1500" height="1429" transform="translate(288.96119 -218.19176) scale(0.16637)" xlink:href="../../../../../Dropbox%20(Revolution%20Strategy)/Rocio%20Ugarte/Clients/Namaste/Digital%20Ads/_Flight%202:Phase%202%20Terpene/1.%20Animated%20w:%20Packaging/5.%20Big%20Box%20300%20x%20250/300%20x%20250_Folder/Links/LargeTopDown-8145-UltraSour.png"/><image width="1500" height="1429" transform="translate(288.96119 54.16968) scale(0.16637)" xlink:href="../../../../../Dropbox%20(Revolution%20Strategy)/Rocio%20Ugarte/Clients/Namaste/Digital%20Ads/_Flight%202:Phase%202%20Terpene/1.%20Animated%20w:%20Packaging/5.%20Big%20Box%20300%20x%20250/300%20x%20250_Folder/Links/LargeTopDown-8154-SensiStar.png"/></svg>