<svg id="Content" xmlns="http://www.w3.org/2000/svg" width="300" height="600" viewBox="0 0 300 600"><defs><style>.cls-1{fill:#fff;stroke:#ba9544;stroke-miterlimit:10;stroke-width:0.5px;}.cls-2{fill:#ba9544;}</style></defs><title>THC - MK Ultra</title><polygon class="cls-1" points="242.818 265.768 56.737 265.063 47.343 278.609 56.737 291.914 242.818 291.598 251.273 278.684 242.818 265.768"/><polygon class="cls-2" points="56.873 265.063 47.479 278.609 56.873 291.914 85.391 291.914 85.486 265.063 56.873 265.063"/><path class="cls-2" d="M163.24121,274.16929v1.70117h-3.03613v7.41016h-1.82227v-7.41016H155.3457v-1.70117Z"/><path class="cls-2" d="M164.5957,283.28062v-9.11133H166.418v3.64453h4.24609v-3.65039h1.82129v9.11133l-1.82129.00586V279.515H166.418v3.76563Z"/><path class="cls-2" d="M175.31348,281.972a4.55777,4.55777,0,0,1,3.24023-7.80274,4.93581,4.93581,0,0,1,3.34668,1.21484l-1.21484,1.33008a3.36111,3.36111,0,0,0-2.13184-.72851,2.67782,2.67782,0,0,0-1.97754.76562,2.64894,2.64894,0,0,0-.75,1.94336,2.732,2.732,0,0,0,.75977,2.0166,2.68853,2.68853,0,0,0,1.97949.74707,3.26272,3.26272,0,0,0,2.12012-.72265l1.21484,1.33008a4.91236,4.91236,0,0,1-3.34668,1.21484A4.43149,4.43149,0,0,1,175.31348,281.972Z"/><path class="cls-2" d="M183.94141,277.47105a.877.877,0,0,1,.65527-.24609.91332.91332,0,0,1,.68066.24609.835.835,0,0,1,.24317.61035.82369.82369,0,0,1-.24317.60742,1.039,1.039,0,0,1-1.33593,0,.82369.82369,0,0,1-.24317-.60742A.835.835,0,0,1,183.94141,277.47105Zm0,4.34863a.877.877,0,0,1,.65527-.24609.91332.91332,0,0,1,.68066.24609.83416.83416,0,0,1,.24317.61133.82148.82148,0,0,1-.24317.60645,1.039,1.039,0,0,1-1.33593,0,.82148.82148,0,0,1-.24317-.60645A.83416.83416,0,0,1,183.94141,281.81968Z"/><path class="cls-2" d="M193.64062,274.16929v-.00586H195.457v9.11719h-1.81641V276.599l-1.21484,1.21484-1.21484-1.21484Z"/><path class="cls-2" d="M197.27246,278.85288a5.516,5.516,0,0,1,.94141-3.42187,3.078,3.078,0,0,1,2.52051-1.25488,3.82723,3.82723,0,0,1,2.55175.90527l-.91113,1.21484a3.211,3.211,0,0,0-1.56152-.36523,1.6099,1.6099,0,0,0-1.25684.5166,2.43867,2.43867,0,0,0-.52246,1.54883,2.82924,2.82924,0,0,1,1.82227-.79,3.03849,3.03849,0,0,1,2.33789.82031,3.13141,3.13141,0,0,1,.75976,2.2168,2.98831,2.98831,0,0,1-.85058,2.15625,3.21939,3.21939,0,0,1-2.42969.88086,3.04975,3.04975,0,0,1-2.61133-1.23242A5.6539,5.6539,0,0,1,197.27246,278.85288Zm2.00488,1.39649q.06006,1.27,1.457,1.32422,1.39746-.05419,1.458-1.209a1.37539,1.37539,0,0,0-1.51855-1.51757A1.35189,1.35189,0,0,0,199.27734,280.24937Z"/><path class="cls-2" d="M205.59375,280.84507v-1.209h3.76563v1.209Z"/><path class="cls-2" d="M214.21191,274.16929a3.43585,3.43585,0,0,1,2.18946.67188,2.39077,2.39077,0,0,1,.85351,2.002,4.169,4.169,0,0,1-1.21191,2.89062,8.39729,8.39729,0,0,1-2.001,1.72461h3.28028v1.82227h-6.14063v-1.82227q.60645,0,2.30762-1.51757a8.71606,8.71606,0,0,0,1.97363-2.15625,1.48117,1.48117,0,0,0-.03027-1.27637q-.30322-.63721-1.457-.6377a2.09377,2.09377,0,0,0-1.70118.72852l-1.21484-1.21485a5.0364,5.0364,0,0,1,1.18457-.91015A4.548,4.548,0,0,1,214.21191,274.16929Z"/><path class="cls-2" d="M219.93945,281.972a6.245,6.245,0,0,1,0-6.4961,2.915,2.915,0,0,1,4.86231,0,6.26744,6.26744,0,0,1,0,6.499,2.91445,2.91445,0,0,1-4.86231-.00293Zm2.43555-.39258q.60205,0,1.05762-.81934a4.776,4.776,0,0,0,0-4.06933q-.45556-.82032-1.06934-.82032-.60206,0-1.05664.82032a4.76685,4.76685,0,0,0,0,4.06933Q221.76221,281.579,222.375,281.57945Z"/><path class="cls-2" d="M227.87793,278.015a2.34729,2.34729,0,1,1,1.62793.65625A2.214,2.214,0,0,1,227.87793,278.015Zm1.61035-.42578a1.086,1.086,0,0,0,.832-.3457,1.31519,1.31519,0,0,0,0-1.72266,1.09825,1.09825,0,0,0-.83886-.34277,1.0801,1.0801,0,0,0-.8252.34277,1.31217,1.31217,0,0,0,0,1.72266A1.08312,1.08312,0,0,0,229.48828,277.58921Zm-.48633,5.69141,5.16309-9.11133h1.48144l-5.15039,9.11133Zm4.52539-.60156a2.3309,2.3309,0,1,1,1.61524.65039A2.19253,2.19253,0,0,1,233.52734,282.67906Zm1.585-.44336a1.06367,1.06367,0,0,0,.81348-.33692,1.2689,1.2689,0,0,0,0-1.67675,1.154,1.154,0,0,0-1.62793,0,1.27186,1.27186,0,0,0,0,1.67675A1.06726,1.06726,0,0,0,235.1123,282.2357Z"/></svg>