<svg id="Layer_1" data-name="Layer 1" xmlns="http://www.w3.org/2000/svg" width="300" height="600" viewBox="0 0 300 600"><defs><style>.cls-1{fill:#ab9555;}</style></defs><title>frame2</title><path class="cls-1" d="M74.72585,308.43652a6.0129,6.0129,0,0,1-1.15918,3.81836,4.176,4.176,0,0,1-2.21582,1.5166,6.04161,6.04161,0,0,1-1.79.23926,5.06427,5.06427,0,0,1-3.13574-.9375,5.24664,5.24664,0,0,1-1.64551-2.08886,8.42347,8.42347,0,0,1-.707-3.0254l3.06836-.22168a4.66053,4.66053,0,0,0,.98828,2.707,1.64446,1.64446,0,0,0,1.3291.59961,1.99615,1.99615,0,0,0,1.6875-1.04,2.586,2.586,0,0,0,.32422-1.416,3.93157,3.93157,0,0,0-1.21-2.64453q-.95508-.90381-2.86426-2.71289a12.25869,12.25869,0,0,1-2.2666-2.78076,6.42508,6.42508,0,0,1-.71582-3.00244,5.22314,5.22314,0,0,1,1.96-4.41895,4.87229,4.87229,0,0,1,3-.9043,5.45612,5.45612,0,0,1,2.94922.76709,4.43311,4.43311,0,0,1,1.542,1.67041,6.18567,6.18567,0,0,1,.708,2.47168l-3.08594.5625a3.725,3.725,0,0,0-.749-2.04541,1.5793,1.5793,0,0,0-1.2793-.52832,1.47157,1.47157,0,0,0-1.3457.78418,3.01357,3.01357,0,0,0-.375,1.56787,4.70443,4.70443,0,0,0,1.26074,2.98291A10.66413,10.66413,0,0,0,70.43,301.7207q1.125.9375,1.4834,1.3125a10.943,10.943,0,0,1,1.84082,2.35254,9.06766,9.06766,0,0,1,.49414,1.00488A5.872,5.872,0,0,1,74.72585,308.43652Z"/><path class="cls-1" d="M85.36062,292.397a4.90721,4.90721,0,0,1,3.75,1.48291,5.14606,5.14606,0,0,1,1.29589,3.61377v3.10205a4.97,4.97,0,0,1-1.4746,3.61328,4.8239,4.8239,0,0,1-3.57129,1.5h-1.8584v8.0459H80.28151V292.397Zm1.92578,5.14746a1.83408,1.83408,0,0,0-.50293-1.34619,1.79,1.79,0,0,0-1.33789-.51172H83.50222v6.835h1.94336a1.76391,1.76391,0,0,0,1.30468-.54492,1.807,1.807,0,0,0,.53614-1.3125Z"/><path class="cls-1" d="M99.08034,313.75488h-3.2207V292.397h3.2207Z"/><path class="cls-1" d="M109.92116,292.397a4.91117,4.91117,0,0,1,3.9541,1.48291,5.38639,5.38639,0,0,1,1.1084,3.61377v3.10205a4.98986,4.98986,0,0,1-1.72168,3.835l2.38575,9.32422h-3.4834l-1.95313-8.0459h-2.14844v8.0459h-3.2207V292.397Zm1.92578,5.14746a1.63467,1.63467,0,0,0-1.84082-1.85791h-1.94336v6.835h1.94336a1.764,1.764,0,0,0,1.30469-.54492,1.807,1.807,0,0,0,.53613-1.3125Z"/><path class="cls-1" d="M124.51,313.75488h-3.2207V292.397H124.51Z"/><path class="cls-1" d="M133.40847,295.63574h-3.42578V292.397h10.05664v3.23877h-3.40918v18.11914h-3.22168Z"/><path class="cls-1" d="M150.58913,313.99316a5.06155,5.06155,0,0,1-5.0957-5.0791V292.397h3.15332v16.48291a1.76332,1.76332,0,0,0,.54492,1.30371,1.80246,1.80246,0,0,0,1.3125.53711,1.83385,1.83385,0,0,0,1.84082-1.84082V292.397h3.3584v16.51709a4.85352,4.85352,0,0,1-1.5,3.61328A4.9837,4.9837,0,0,1,150.58913,313.99316Z"/><path class="cls-1" d="M164.93581,308.8457l-.78223,4.90918h-3.35449L164.43,292.397h4.43164l3.5791,21.35791H169.053l-.75391-4.90918Zm1.69238-11.55664-1.19336,8.41992h2.38672Z"/><path class="cls-1" d="M186.80886,313.75488h-8.77832V292.397h3.2207V310.5498h5.55762Z"/><path class="cls-1" d="M195.12526,313.75488h-3.2207V292.397h3.2207Z"/><path class="cls-1" d="M204.02273,295.63574h-3.42579V292.397h10.05664v3.23877h-3.40917v18.11914h-3.22168Z"/><path class="cls-1" d="M220.06179,304.80566l-4.3125-12.42578h3.54492l2.38672,7.67041,2.36914-7.67041h3.5625l-4.33008,12.42578v8.94922h-3.2207Z"/><path class="cls-1" d="M232.70827,310.5498H235.929v3.22168h-3.22071Z"/></svg>