<svg id="Content" xmlns="http://www.w3.org/2000/svg" xmlns:xlink="http://www.w3.org/1999/xlink" viewBox="0 0 640 1136"><defs><style>.cls-1{fill:url(#New_Gradient_Swatch_1);}.cls-2{fill:#fff;}.cls-3{fill:#ba9544;}</style><linearGradient id="New_Gradient_Swatch_1" x1="416.48" y1="517.48" x2="507.67" y2="517.48" gradientUnits="userSpaceOnUse"><stop offset="0" stop-color="#a88a34"/><stop offset="0.49" stop-color="#caaf67"/><stop offset="1" stop-color="#957f2e"/></linearGradient></defs><title>citrus</title><polygon class="cls-1" points="484.87 477.99 439.28 477.99 416.48 517.48 439.28 556.96 484.87 556.96 507.67 517.48 484.87 477.99"/><path class="cls-2" d="M480.73,523.07A20,20,0,0,1,450.34,497l-1.86-1.6a22.49,22.49,0,0,0,34.1,29.24Z"/><path class="cls-2" d="M448.11,511.2a18.2,18.2,0,0,0,5.66,11.3l10.77-12.56Z"/><path class="cls-2" d="M455,523.57a18.2,18.2,0,0,0,11.86,3.87l-1.24-16.25Z"/><path class="cls-2" d="M451.68,498.16A18.27,18.27,0,0,0,448,509.57l15.58-1.2Z"/><path class="cls-2" d="M479.39,521.92,467.3,511.56l1.2,15.75a18.2,18.2,0,0,0,10.89-5.39"/><path class="cls-2" d="M464.47,507c.08-1,.65-1.67,1.3-1.72s1.12.5,1,1.52a3.52,3.52,0,0,1-1.32,1.95,2.25,2.25,0,0,1-1-1.75"/><path class="cls-2" d="M468.69,508c1-.29,1.64,0,1.72.69S470,510,469,510.29a2.3,2.3,0,0,1-1.95-.62s.66-1.39,1.65-1.69"/><path class="cls-2" d="M470.52,539.56a2.12,2.12,0,1,1-4.23.15c0-1.16,2-3.47,2-3.47s2.19,2.16,2.23,3.32"/><path class="cls-2" d="M469.77,538.19a.6.6,0,0,1-.51.66l-1.76.06a.59.59,0,0,1-.55-.62,6.3,6.3,0,0,0,.19-3.37c-.67-2-5.37-3.58-5.07-3.59l9.66-.68a7,7,0,0,0-2.6,4.25,4.46,4.46,0,0,0,.64,3.29"/><path class="cls-3" d="M420.65,608.34a8.39,8.39,0,0,1,6-14.35,9.09,9.09,0,0,1,6.16,2.24l-2.24,2.44a6.21,6.21,0,0,0-3.92-1.34,5,5,0,0,0-3.64,1.41,4.87,4.87,0,0,0-1.38,3.58A5.07,5.07,0,0,0,423,606a5,5,0,0,0,3.64,1.37,6,6,0,0,0,3.9-1.33l2.24,2.45a9,9,0,0,1-6.16,2.23A8.14,8.14,0,0,1,420.65,608.34Z"/><path class="cls-3" d="M436.37,594h3.34v16.77h-3.34Z"/><path class="cls-3" d="M456.75,594v3.13h-5.58v13.63h-3.36V597.12h-5.58V594Z"/><path class="cls-3" d="M469.33,603.44l4.18,7.31h-3.84l-4-6.93h-3.07v6.93h-3.35V594h7.31q5.86,0,5.86,4.83C472.41,601.24,471.39,602.78,469.33,603.44Zm-6.74-2.74h4.7c1.34,0,2-.64,2.07-1.85s-.72-1.67-2-1.72h-4.73Z"/><path class="cls-3" d="M478.35,594v9.72a3.39,3.39,0,0,0,1.11,2.8,4.83,4.83,0,0,0,5.59,0,3.39,3.39,0,0,0,1.12-2.8V594h3.35v10.62a5.54,5.54,0,0,1-2.07,4.35,8.43,8.43,0,0,1-10.39,0,5.54,5.54,0,0,1-2.07-4.35V594Z"/><path class="cls-3" d="M502.21,594.55a7.7,7.7,0,0,1,2.4,1.68l-2.23,2.23a3.87,3.87,0,0,0-3.13-1.34c-1.34,0-2.2.32-2.57,1a1.31,1.31,0,0,0,0,1.62,4.43,4.43,0,0,0,2.57,1,8.33,8.33,0,0,1,3.85,1.39,4.2,4.2,0,0,1,1.73,3.75A4.28,4.28,0,0,1,503,609.3a6.73,6.73,0,0,1-4.3,1.45,9.85,9.85,0,0,1-3.9-.67,8.4,8.4,0,0,1-2.68-1.79l2.23-2.23a5.34,5.34,0,0,0,3.8,1.56c1.49,0,2.42-.31,2.79-1a1.76,1.76,0,0,0,0-1.9q-.56-.94-2.79-1.17a9.06,9.06,0,0,1-3.69-1.23,3.71,3.71,0,0,1-1.67-3.46,4.17,4.17,0,0,1,1.9-3.57,6.71,6.71,0,0,1,3.92-1.35A9.39,9.39,0,0,1,502.21,594.55Z"/></svg>