<svg id="Content" xmlns="http://www.w3.org/2000/svg" viewBox="0 0 640 1136"><defs><style>.cls-1{fill:#ba9544;}</style></defs><title>Frame2 - Sensi Star</title><path class="cls-1" d="M182.39,351.15c7.37,0,11.15,4.4,11.15,12.11v1.51h-7.15v-2c0-3.44-1.38-4.75-3.79-4.75s-3.78,1.31-3.78,4.75c0,9.91,14.79,11.77,14.79,25.53,0,7.71-3.85,12.11-11.28,12.11S171,396,171,388.31v-3h7.16v3.44c0,3.44,1.51,4.68,3.92,4.68s3.92-1.24,3.92-4.68c0-9.91-14.8-11.77-14.8-25.53C171.24,355.55,175,351.15,182.39,351.15Z"/><path class="cls-1" d="M212.81,372H223.2v6.88H212.81V393h13.08v6.88H205.24V351.7h20.65v6.88H212.81Z"/><path class="cls-1" d="M244.6,365v34.89h-6.81V351.7h9.5l7.77,28.83V351.7h6.75v48.17H254Z"/><path class="cls-1" d="M284.72,351.15c7.37,0,11.15,4.4,11.15,12.11v1.51h-7.16v-2c0-3.44-1.37-4.75-3.78-4.75s-3.78,1.31-3.78,4.75c0,9.91,14.79,11.77,14.79,25.53,0,7.71-3.85,12.11-11.28,12.11s-11.29-4.4-11.29-12.11v-3h7.16v3.44c0,3.44,1.51,4.68,3.92,4.68s3.92-1.24,3.92-4.68c0-9.91-14.79-11.77-14.79-25.53C273.58,355.55,277.36,351.15,284.72,351.15Z"/><path class="cls-1" d="M307.57,351.7h7.57v48.17h-7.57Z"/><path class="cls-1" d="M356.08,351.15c7.37,0,11.15,4.4,11.15,12.11v1.51h-7.15v-2c0-3.44-1.38-4.75-3.79-4.75s-3.78,1.31-3.78,4.75c0,9.91,14.79,11.77,14.79,25.53,0,7.71-3.85,12.11-11.28,12.11s-11.29-4.4-11.29-12.11v-3h7.16v3.44c0,3.44,1.51,4.68,3.92,4.68s3.92-1.24,3.92-4.68c0-9.91-14.79-11.77-14.79-25.53C344.94,355.55,348.72,351.15,356.08,351.15Z"/><path class="cls-1" d="M376.73,351.7h23.4v6.88h-7.92v41.29h-7.56V358.58h-7.92Z"/><path class="cls-1" d="M435.23,399.87h-7.64l-1.31-8.74H417l-1.31,8.74h-6.95l7.71-48.17h11.08ZM418,384.59h7.3l-3.65-24.36Z"/><path class="cls-1" d="M461.86,399.87c-.42-1.24-.69-2-.69-5.92v-7.57c0-4.47-1.51-6.12-5-6.12H453.6v19.61H446V351.7h11.42c7.85,0,11.22,3.65,11.22,11.08v3.78c0,5-1.58,8.19-4.95,9.78,3.78,1.58,5,5.22,5,10.25V394a14.14,14.14,0,0,0,.83,5.85Zm-8.26-41.29v14.8h3c2.82,0,4.54-1.24,4.54-5.1v-4.75c0-3.44-1.17-4.95-3.85-4.95Z"/></svg>