<svg id="Content" xmlns="http://www.w3.org/2000/svg" xmlns:xlink="http://www.w3.org/1999/xlink" width="640" height="1136" viewBox="0 0 640 1136"><defs><style>.cls-1{fill:url(#New_Gradient_Swatch_1);}.cls-2{fill:#fff;}.cls-3{fill:#ba9544;}</style><linearGradient id="New_Gradient_Swatch_1" x1="423.66796" y1="457.33384" x2="521.22756" y2="457.33384" gradientUnits="userSpaceOnUse"><stop offset="0" stop-color="#a88a34"/><stop offset="0.49324" stop-color="#caaf67"/><stop offset="1" stop-color="#957f2e"/></linearGradient></defs><title>citrus</title><polygon class="cls-1" points="496.837 415.09 448.059 415.09 423.668 457.332 448.059 499.577 496.837 499.577 521.228 457.332 496.837 415.09"/><path class="cls-2" d="M492.40073,463.31578a21.44594,21.44594,0,0,1-32.50931-27.8722l-1.98535-1.70434a24.05918,24.05918,0,0,0,36.48,31.28089Z"/><path class="cls-2" d="M457.50626,450.61848a19.48954,19.48954,0,0,0,6.05129,12.09354l11.52693-13.4443Z"/><path class="cls-2" d="M464.89019,463.85247a19.49677,19.49677,0,0,0,12.68731,4.143l-1.33264-17.38331Z"/><path class="cls-2" d="M461.32425,436.672a19.4876,19.4876,0,0,0-3.9345,12.19779l16.66714-1.28277Z"/><path class="cls-2" d="M490.96428,462.086l-12.93212-11.08722,1.29187,16.8575a19.48037,19.48037,0,0,0,11.64025-5.77028"/><path class="cls-2" d="M475.00425,446.13419c.08611-1.09239.698-1.78591,1.39157-1.84031.689-.05893,1.20119.53942,1.115,1.63181a3.71515,3.71515,0,0,1-1.40969,2.08056,2.40382,2.40382,0,0,1-1.09692-1.87206"/><path class="cls-2" d="M479.52166,447.17672c1.06065-.31273,1.7587.0544,1.84485.73885.08611.67993-.47143,1.41879-1.52755,1.73155a2.44607,2.44607,0,0,1-2.08059-.67086s.70261-1.48678,1.76329-1.79954"/><path class="cls-2" d="M481.48208,480.9629a2.26326,2.26326,0,1,1-4.52374.15867c-.04081-1.24653,2.135-3.71692,2.135-3.71692s2.348,2.31174,2.38879,3.55825"/><path class="cls-2" d="M480.67662,479.48884a.63515.63515,0,0,1-.54395.70713l-1.88112.068a.63778.63778,0,0,1-.58925-.66632,6.80832,6.80832,0,0,0,.204-3.60812c-.72074-2.144-5.74306-3.83021-5.4303-3.83929l10.34386-.72525a7.48014,7.48014,0,0,0-2.78314,4.55094,4.71816,4.71816,0,0,0,.67993,3.51292"/><path class="cls-3" d="M428.12793,554.5402a8.9676,8.9676,0,0,1,6.376-15.35254,9.70068,9.70068,0,0,1,6.58593,2.39063l-2.39062,2.61719a6.60992,6.60992,0,0,0-4.19531-1.43457,5.265,5.265,0,0,0-3.88965,1.50683,5.21086,5.21086,0,0,0-1.47656,3.82422,5.37342,5.37342,0,0,0,1.49414,3.96777,5.291,5.291,0,0,0,3.89648,1.46973,6.42252,6.42252,0,0,0,4.1709-1.42187l2.39062,2.61718a9.6727,9.6727,0,0,1-6.58593,2.39063A8.72168,8.72168,0,0,1,428.12793,554.5402Z"/><path class="cls-3" d="M444.9502,539.17595h3.57421V557.1154H444.9502Z"/><path class="cls-3" d="M466.75,539.18766v3.34668h-5.97559V557.1154h-3.58593V542.53434h-5.97559v-3.34668Z"/><path class="cls-3" d="M480.208,549.299l4.46972,7.81641h-4.11132l-4.291-7.41016H473.001v7.41016H469.415V539.18766h7.81641q6.27538,0,6.27539,5.16309Q483.50684,548.23551,480.208,549.299Zm-7.207-2.94043h5.01953q2.16357-.03514,2.22265-1.97168-.05859-1.76806-2.18652-1.84082H473.001Z"/><path class="cls-3" d="M489.85254,539.18766V549.5861a3.59453,3.59453,0,0,0,1.19531,2.98731,5.14819,5.14819,0,0,0,5.97656,0,3.59689,3.59689,0,0,0,1.19434-2.98731V539.18766h3.58594v11.3545a5.94181,5.94181,0,0,1-2.21094,4.66113,9.03276,9.03276,0,0,1-11.11523,0,5.93878,5.93878,0,0,1-2.21094-4.66113v-11.3545Z"/><path class="cls-3" d="M515.38184,539.78532a8.35137,8.35137,0,0,1,2.56933,1.793l-2.38965,2.39062a4.11483,4.11483,0,0,0-3.34668-1.43457q-2.15186,0-2.749,1.01563a1.39892,1.39892,0,0,0,0,1.7334,4.7221,4.7221,0,0,0,2.749,1.07519,8.9055,8.9055,0,0,1,4.12305,1.49414,4.48838,4.48838,0,0,1,1.85254,4.00391,4.59725,4.59725,0,0,1-1.97754,3.70508,7.24322,7.24322,0,0,1-4.60742,1.55371,10.63126,10.63126,0,0,1-4.17188-.7168,9.06736,9.06736,0,0,1-2.86816-1.91211l2.39062-2.39062a5.681,5.681,0,0,0,4.06348,1.67285q2.39063,0,2.98242-1.01563a1.89654,1.89654,0,0,0,0-2.03222q-.59179-1.01514-2.98242-1.25489a9.64148,9.64148,0,0,1-3.94433-1.31445,3.96623,3.96623,0,0,1-1.793-3.70508,4.46249,4.46249,0,0,1,2.03808-3.81836,7.179,7.179,0,0,1,4.18946-1.44043A9.99969,9.99969,0,0,1,515.38184,539.78532Z"/></svg>