<svg id="Content" xmlns="http://www.w3.org/2000/svg" xmlns:xlink="http://www.w3.org/1999/xlink" width="640" height="1136" viewBox="0 0 640 1136"><defs><style>.cls-1{fill:url(#New_Gradient_Swatch_1);}.cls-2{fill:#fff;}.cls-3{fill:#ba9544;}</style><linearGradient id="New_Gradient_Swatch_1" x1="127.28271" y1="465.27951" x2="219.90166" y2="465.27951" gradientUnits="userSpaceOnUse"><stop offset="0" stop-color="#a88a34"/><stop offset="0.49324" stop-color="#caaf67"/><stop offset="1" stop-color="#957f2e"/></linearGradient></defs><title>lemon</title><polygon class="cls-1" points="141.53 500.242 127.283 454.995 159.349 420.032 205.658 430.317 219.902 475.569 187.84 510.527 141.53 500.242"/><path class="cls-2" d="M192.872,460.11647c-2.53481-6.17606-9.84381-10.40806-19.27762-10.3287-9.29717.07935-16.68993,4.27167-19.2115,10.3287-2.26147,1.00511-4.89323,3.14755-4.89323,5.16216,0,1.997,2.60973,4.17468,4.94613,5.15774,2.49513,5.97769,9.835,10.33753,19.1586,10.33753,9.35,0,16.66787-4.41715,19.27762-10.33753,2.44218-1.05359,4.82268-3.18722,4.82268-5.15333,0-2.019-2.37609-4.113-4.82268-5.16657"/><path class="cls-3" d="M132.93183,539.81852v14.18067h9.29883v3.25488H129.4455V539.81852Z"/><path class="cls-3" d="M145.05487,557.25407V539.83024l12.80957-.01172v3.25489h-9.32226v3.71972h6.98633v3.24317h-6.98633v3.96289H157.841v3.25488Z"/><path class="cls-3" d="M161.37421,557.25407V539.81852h1.16211l7.55566,8.60157,7.56641-8.60157h1.16309v17.43555h-3.48731l-.01172-10.1123-5.23047,5.81152-5.23047-5.81152v10.1123Z"/><path class="cls-3" d="M183.91132,554.74919a8.97952,8.97952,0,1,1,6.21875,2.50488A8.44721,8.44721,0,0,1,183.91132,554.74919Zm6.23047-.75a4.8966,4.8966,0,0,0,3.7666-1.56934,5.94584,5.94584,0,0,0,0-7.78711,5.33179,5.33179,0,0,0-7.55566,0,5.94281,5.94281,0,0,0,0,7.78711A4.92206,4.92206,0,0,0,190.14179,553.99919Z"/><path class="cls-3" d="M201.43964,557.25407V539.81852h1.16211l10.92676,10.92676V539.81852h3.48632v17.43555h-1.27832L204.92694,546.4445v10.80957Z"/></svg>