<?xml version="1.0" encoding="utf-8"?>
<!-- Generator: Adobe Illustrator 22.1.0, SVG Export Plug-In . SVG Version: 6.00 Build 0)  -->
<svg version="1.1" id="Layer_1" xmlns="http://www.w3.org/2000/svg" xmlns:xlink="http://www.w3.org/1999/xlink" x="0px" y="0px"
	 viewBox="0 0 233.6 39.9" style="enable-background:new 0 0 233.6 39.9;" xml:space="preserve">
<style type="text/css">
	.st0{fill:#D3B372;}
</style>
<title>frame1</title>
<path class="st0" d="M24.8,15.5c-2,0-3.6-1.6-3.6-3.6c0,0,0,0,0,0V3.6c0-1,0.4-1.9,1.1-2.6c1.4-1.4,3.7-1.4,5.1,0
	c0.7,0.7,1.1,1.6,1,2.6v1.7H26V3.6c0-0.7-0.6-1.3-1.3-1.3c-0.3,0-0.7,0.1-0.9,0.4c-0.2,0.2-0.4,0.6-0.4,0.9v8.3
	c0,0.7,0.6,1.3,1.3,1.3c0,0,0,0,0,0c0.3,0,0.7-0.1,0.9-0.4c0.3-0.2,0.4-0.6,0.4-0.9V9.8h2.4v2.1C28.4,13.9,26.8,15.5,24.8,15.5
	C24.8,15.5,24.8,15.5,24.8,15.5L24.8,15.5z"/>
<path class="st0" d="M35.7,11.8l-0.6,3.5h-2.4l2.6-15.1h3.1L41,15.3h-2.4L38,11.8H35.7z M36.9,3.7l-0.8,6h1.7L36.9,3.7z"/>
<path class="st0" d="M48.5,0.2l3,10.2V0.2h2.3v15.1h-2.5l-3.1-9.7v9.7H46V0.2H48.5z"/>
<path class="st0" d="M61.5,0.2l3,10.2V0.2h2.3v15.1h-2.5l-3.1-9.7v9.7h-2.3V0.2H61.5z"/>
<path class="st0" d="M74.7,11.8l-0.6,3.5h-2.4l2.6-15.1h3.1L80,15.3h-2.4l-0.5-3.5H74.7z M75.9,3.7l-0.8,6h1.7L75.9,3.7z"/>
<path class="st0" d="M84.3,15.3V0.2h3.4c0.9,0,1.7,0.2,2.4,0.7c0.7,0.4,1.1,1.1,1.3,1.9c0.2,0.5,0.2,1.1,0.2,1.6
	c0,0.9-0.2,1.8-0.8,2.4c-0.2,0.3-0.5,0.5-0.8,0.6c0.5,0.2,1,0.6,1.3,1.1c0.3,0.5,0.4,1,0.5,1.5c0.1,0.3,0.1,0.7,0.1,1.1
	c0,0.8-0.2,1.7-0.5,2.4c-0.3,0.5-0.7,1-1.2,1.3c-0.5,0.3-1.1,0.5-1.7,0.5H84.3z M86.8,6.4h1c0.7,0,1.3-0.4,1.4-1
	c0.1-0.3,0.1-0.6,0.1-1c0-0.5-0.1-1-0.5-1.4c-0.3-0.3-0.7-0.5-1.1-0.4h-1L86.8,6.4z M86.8,13.1h1c0.7,0,1.4-0.5,1.6-1.2
	c0.1-0.3,0.2-0.6,0.2-0.9c0.1-0.7-0.1-1.3-0.5-1.8c-0.3-0.4-0.8-0.6-1.3-0.5h-1L86.8,13.1z"/>
<path class="st0" d="M98.7,15.3h-2.3V0.2h2.3V15.3z"/>
<path class="st0" d="M110.5,11.6c0,1-0.2,1.9-0.8,2.7c-0.4,0.5-0.9,0.9-1.6,1.1c-0.4,0.1-0.8,0.2-1.3,0.2c-0.8,0-1.6-0.2-2.2-0.7
	c-0.5-0.4-0.9-0.9-1.2-1.5c-0.3-0.7-0.5-1.4-0.5-2.1l2.2-0.2c0,0.7,0.3,1.4,0.7,1.9c0.2,0.3,0.6,0.4,0.9,0.4c0.5,0,1-0.3,1.2-0.7
	c0.2-0.3,0.3-0.7,0.2-1c0-0.7-0.3-1.4-0.9-1.9c-0.5-0.4-1.1-1.1-2-1.9c-0.6-0.6-1.2-1.2-1.6-2c-0.3-0.7-0.5-1.4-0.5-2.1
	c-0.1-1.2,0.4-2.4,1.4-3.1c0.6-0.4,1.4-0.7,2.1-0.6c0.7,0,1.5,0.2,2.1,0.5c0.5,0.3,0.8,0.7,1.1,1.2c0.3,0.5,0.5,1.1,0.5,1.8
	l-2.2,0.4c0-0.5-0.2-1-0.5-1.4c-0.2-0.3-0.6-0.4-0.9-0.4c-0.4,0-0.8,0.2-1,0.6c-0.2,0.3-0.3,0.7-0.3,1.1c0,0.8,0.4,1.5,0.9,2.1
	c0.3,0.4,0.6,0.7,1,1c0.5,0.4,0.9,0.8,1.1,0.9c0.5,0.5,0.9,1.1,1.3,1.7c0.1,0.2,0.2,0.5,0.3,0.7C110.4,10.6,110.5,11.1,110.5,11.6z"
	/>
<path class="st0" d="M126.7,8.9v6.4h-2.3V0.2h2.3v6.4h2.8V0.2h2.3v15.1h-2.3V8.9H126.7z"/>
<path class="st0" d="M139.6,11.8l-0.6,3.5h-2.4l2.6-15.1h3.1l2.5,15.1h-2.4l-0.5-3.5H139.6z M140.8,3.7l-0.8,6h1.7L140.8,3.7z"/>
<path class="st0" d="M156.7,11.6c0,1-0.2,1.9-0.8,2.7c-0.4,0.5-0.9,0.9-1.6,1.1c-0.4,0.1-0.8,0.2-1.3,0.2c-0.8,0-1.6-0.2-2.2-0.7
	c-0.5-0.4-0.9-0.9-1.2-1.5c-0.3-0.7-0.5-1.4-0.5-2.1l2.2-0.2c0,0.7,0.3,1.4,0.7,1.9c0.2,0.3,0.6,0.4,0.9,0.4c0.5,0,1-0.3,1.2-0.7
	c0.2-0.3,0.2-0.7,0.2-1c0-0.7-0.3-1.4-0.9-1.9c-0.5-0.4-1.1-1.1-2-1.9c-0.6-0.6-1.2-1.2-1.6-2c-0.3-0.7-0.5-1.4-0.5-2.1
	c-0.1-1.2,0.4-2.4,1.4-3.1c0.6-0.4,1.4-0.7,2.1-0.6c0.7,0,1.5,0.2,2.1,0.5c0.5,0.3,0.8,0.7,1.1,1.2c0.3,0.5,0.5,1.1,0.5,1.8
	l-2.2,0.4c0-0.5-0.2-1-0.5-1.4c-0.2-0.3-0.6-0.4-0.9-0.4c-0.4,0-0.8,0.2-1,0.6c-0.2,0.3-0.3,0.7-0.3,1.1c0,0.8,0.4,1.5,0.9,2.1
	c0.3,0.4,0.6,0.7,1,1c0.5,0.4,0.9,0.8,1.1,0.9c0.5,0.5,0.9,1.1,1.3,1.7c0.1,0.2,0.2,0.5,0.4,0.7C156.6,10.6,156.7,11.1,156.7,11.6z"
	/>
<path class="st0" d="M170.6,15.3V0.2h3.4c0.9,0,1.7,0.2,2.4,0.7c0.7,0.4,1.1,1.1,1.3,1.9c0.2,0.5,0.2,1.1,0.2,1.6
	c0,0.9-0.2,1.8-0.8,2.4c-0.2,0.3-0.5,0.5-0.8,0.6c0.5,0.2,1,0.6,1.3,1.1c0.3,0.5,0.4,1,0.5,1.5c0.1,0.3,0.1,0.7,0.1,1.1
	c0,0.8-0.2,1.7-0.5,2.4c-0.3,0.5-0.7,1-1.2,1.3c-0.5,0.3-1.1,0.5-1.7,0.5L170.6,15.3z M173.1,6.4h1c0.7,0,1.3-0.4,1.4-1
	c0.1-0.3,0.1-0.6,0.1-1c0-0.5-0.1-1-0.5-1.4c-0.3-0.3-0.7-0.5-1.1-0.4h-1L173.1,6.4z M173.1,13.1h1c0.7,0,1.4-0.5,1.6-1.2
	c0.1-0.3,0.2-0.6,0.2-0.9c0.1-0.7-0.1-1.3-0.5-1.8c-0.3-0.4-0.8-0.6-1.3-0.5h-1V13.1z"/>
<path class="st0" d="M182.7,15.3V0.2h6.5v2.3h-4.2v4.1h3.1v2.3h-3.1V13h4.2v2.3H182.7z"/>
<path class="st0" d="M193.5,15.3V0.2h6.5v2.3h-4.2v4.1h3.1v2.3h-3.1V13h4.2v2.3H193.5z"/>
<path class="st0" d="M207.1,0.2l3,10.2V0.2h2.3v15.1H210l-3.1-9.7v9.7h-2.3V0.2H207.1z"/>
<path class="st0" d="M3.6,39.9c-1,0-1.9-0.4-2.6-1.1c-0.7-0.7-1.1-1.6-1-2.5V24.6h2.2v11.7c0,0.3,0.1,0.7,0.4,0.9
	c0.2,0.2,0.6,0.4,0.9,0.4c0.7,0,1.3-0.6,1.3-1.3c0,0,0,0,0,0V24.6h2.4v11.7c0,1-0.4,1.9-1.1,2.6C5.5,39.5,4.6,39.9,3.6,39.9z"/>
<path class="st0" d="M18.7,36c0,1-0.2,1.9-0.8,2.7c-0.4,0.5-0.9,0.9-1.6,1.1c-0.4,0.1-0.8,0.2-1.3,0.2c-0.8,0-1.6-0.2-2.2-0.7
	c-0.5-0.4-0.9-0.9-1.2-1.5c-0.3-0.7-0.5-1.4-0.5-2.1l2.2-0.2c0,0.7,0.3,1.4,0.7,1.9c0.2,0.3,0.6,0.4,0.9,0.4c0.5,0,1-0.3,1.2-0.7
	c0.2-0.3,0.3-0.7,0.2-1c0-0.7-0.3-1.4-0.9-1.9c-0.5-0.4-1.1-1.1-2-1.9c-0.6-0.6-1.2-1.2-1.6-2c-0.3-0.7-0.5-1.4-0.5-2.1
	c-0.1-1.2,0.4-2.4,1.4-3.1c0.6-0.4,1.4-0.7,2.1-0.6c0.7,0,1.5,0.2,2.1,0.5c0.5,0.3,0.8,0.7,1.1,1.2c0.3,0.5,0.5,1.1,0.5,1.8
	l-2.2,0.4c0-0.5-0.2-1-0.5-1.4c-0.2-0.3-0.6-0.4-0.9-0.4c-0.4,0-0.8,0.2-1,0.6c-0.2,0.3-0.3,0.7-0.3,1.1c0,0.8,0.4,1.5,0.9,2.1
	c0.3,0.4,0.6,0.7,1,1c0.5,0.4,0.9,0.8,1.1,0.9c0.5,0.5,0.9,1.1,1.3,1.7c0.1,0.2,0.2,0.5,0.4,0.7C18.6,35,18.7,35.5,18.7,36z"/>
<path class="st0" d="M22.6,39.7V24.6h6.5v2.3h-4.2V31H28v2.3h-3.1v4.1h4.2v2.3H22.6z"/>
<path class="st0" d="M40.3,36.1c0,1-0.4,1.9-1,2.6c-0.7,0.7-1.6,1.1-2.5,1.1h-3.6V24.6h3.6c1,0,1.9,0.4,2.5,1.1
	c0.7,0.7,1.1,1.6,1,2.5V36.1z M35.4,37.5h1.4c0.3,0,0.7-0.1,0.9-0.4c0.2-0.2,0.4-0.6,0.4-0.9v-7.9c0-0.3-0.1-0.7-0.4-0.9
	c-0.2-0.3-0.6-0.4-0.9-0.4h-1.4L35.4,37.5z"/>
<path class="st0" d="M56.7,36.2l-0.6,3.5h-2.4l2.6-15.1h3.1l2.5,15.1h-2.4l-0.5-3.5H56.7z M57.9,28.1l-0.8,6h1.7L57.9,28.1z"/>
<path class="st0" d="M72.5,36c0,1-0.2,1.9-0.8,2.7c-0.4,0.5-0.9,0.9-1.6,1.1c-0.4,0.1-0.8,0.2-1.3,0.2c-0.8,0-1.6-0.2-2.2-0.7
	c-0.5-0.4-0.9-0.9-1.2-1.5c-0.3-0.7-0.5-1.4-0.5-2.1l2.2-0.2c0,0.7,0.3,1.4,0.7,1.9c0.2,0.3,0.6,0.4,0.9,0.4c0.5,0,1-0.3,1.2-0.7
	c0.2-0.3,0.3-0.7,0.2-1c0-0.7-0.3-1.4-0.9-1.9l-2-1.9c-0.6-0.6-1.2-1.2-1.6-2c-0.3-0.7-0.5-1.4-0.5-2.1c-0.1-1.2,0.4-2.4,1.4-3.1
	c0.6-0.4,1.4-0.7,2.1-0.6c0.7,0,1.5,0.2,2.1,0.5c0.5,0.3,0.8,0.7,1.1,1.2c0.3,0.5,0.5,1.1,0.5,1.8l-2.2,0.4c0-0.5-0.2-1-0.5-1.4
	c-0.2-0.3-0.6-0.4-0.9-0.4c-0.4,0-0.8,0.2-1,0.6c-0.2,0.3-0.3,0.7-0.3,1.1c0,0.8,0.4,1.5,0.9,2.1c0.3,0.4,0.6,0.7,1,1
	c0.5,0.4,0.9,0.8,1.1,0.9c0.5,0.5,0.9,1.1,1.3,1.7c0.1,0.2,0.2,0.5,0.3,0.7C72.4,35,72.5,35.5,72.5,36z"/>
<path class="st0" d="M89.3,36.2l-0.6,3.5h-2.4L89,24.6h3.1l2.5,15.1h-2.4l-0.5-3.5H89.3z M90.5,28.1l-0.8,6h1.7L90.5,28.1z"/>
<path class="st0" d="M116.1,36c0,1-0.2,1.9-0.8,2.7c-0.4,0.5-0.9,0.9-1.6,1.1c-0.4,0.1-0.8,0.2-1.3,0.2c-0.8,0-1.6-0.2-2.2-0.7
	c-0.5-0.4-0.9-0.9-1.2-1.5c-0.3-0.7-0.5-1.4-0.5-2.1l2.2-0.2c0,0.7,0.3,1.4,0.7,1.9c0.2,0.3,0.6,0.4,0.9,0.4c0.5,0,1-0.3,1.2-0.7
	c0.2-0.3,0.3-0.7,0.2-1c0-0.7-0.3-1.4-0.9-1.9c-0.5-0.4-1.1-1.1-2-1.9c-0.6-0.6-1.2-1.2-1.6-2c-0.3-0.7-0.5-1.4-0.5-2.1
	c-0.1-1.2,0.4-2.4,1.4-3.1c0.6-0.4,1.4-0.7,2.1-0.6c0.7,0,1.5,0.2,2.1,0.5c0.5,0.3,0.8,0.7,1.1,1.2c0.3,0.5,0.5,1.1,0.5,1.8
	l-2.2,0.4c0-0.5-0.2-1-0.5-1.4c-0.2-0.3-0.6-0.4-0.9-0.4c-0.4,0-0.8,0.2-1,0.6c-0.2,0.3-0.3,0.7-0.3,1.1c0,0.8,0.4,1.5,0.9,2.1
	c0.3,0.4,0.6,0.7,1,1c0.5,0.4,0.9,0.8,1.1,0.9c0.5,0.5,0.9,1.1,1.3,1.7c0.1,0.2,0.2,0.5,0.3,0.7C116,35,116.1,35.5,116.1,36z"/>
<path class="st0" d="M123.6,24.6c1,0,2,0.3,2.7,1.1c0.6,0.7,1,1.6,0.9,2.6v2.2c0,1-0.4,1.9-1,2.6c-0.7,0.7-1.6,1.1-2.5,1.1h-1.3v5.7
	H120V24.6H123.6z M125,28.2c0-0.4-0.1-0.7-0.4-1c-0.3-0.2-0.6-0.4-0.9-0.4h-1.4v4.8h1.4c0.3,0,0.7-0.1,0.9-0.4
	c0.2-0.2,0.4-0.6,0.4-0.9L125,28.2z"/>
<path class="st0" d="M133.4,39.7h-2.3V24.6h2.3V39.7z"/>
<path class="st0" d="M141.7,24.6c1-0.1,2.1,0.3,2.8,1.1c0.6,0.7,0.8,1.6,0.8,2.6v2.2c0,1-0.4,2-1.2,2.7l1.7,6.6h-2.5l-1.4-5.7h-1.5
	v5.7h-2.3V24.6H141.7z M143.1,28.2c0.1-0.6-0.3-1.2-1-1.3c-0.1,0-0.2,0-0.3,0h-1.4v4.8h1.4c0.3,0,0.7-0.1,0.9-0.4
	c0.2-0.2,0.4-0.6,0.4-0.9L143.1,28.2z"/>
<path class="st0" d="M152.4,39.7h-2.3V24.6h2.3V39.7z"/>
<path class="st0" d="M159,26.9h-2.4v-2.3h7.1v2.3h-2.4v12.8H159L159,26.9z"/>
<path class="st0" d="M171.6,39.9c-2,0-3.6-1.6-3.6-3.6c0,0,0,0,0,0V24.6h2.2v11.7c0,0.3,0.1,0.7,0.4,0.9c0.2,0.2,0.6,0.4,0.9,0.4
	c0.7,0,1.3-0.6,1.3-1.3c0,0,0,0,0,0V24.6h2.4v11.7c0,1-0.4,1.9-1.1,2.6C173.4,39.5,172.5,39.9,171.6,39.9z"/>
<path class="st0" d="M182.1,36.2l-0.6,3.5h-2.4l2.6-15.1h3.1l2.5,15.1H185l-0.5-3.5H182.1z M183.3,28.1l-0.8,6h1.7L183.3,28.1z"/>
<path class="st0" d="M197.9,39.7h-6.2V24.6h2.3v12.9h3.9L197.9,39.7z"/>
<path class="st0" d="M210.1,36.2l-0.6,3.5h-2.4l2.6-15.1h3.1l2.5,15.1H213l-0.5-3.5H210.1z M211.3,28.1l-0.8,6h1.7L211.3,28.1z"/>
<path class="st0" d="M221.6,39.7h-2.3V24.6h2.3V39.7z"/>
<path class="st0" d="M233.6,36.1c0,1-0.4,1.9-1.1,2.6c-0.7,0.7-1.6,1.1-2.5,1.1h-3.6V24.6h3.6c1,0,1.9,0.4,2.5,1.1
	c0.7,0.7,1.1,1.6,1,2.5L233.6,36.1z M228.7,37.5h1.4c0.3,0,0.7-0.1,0.9-0.4c0.2-0.2,0.4-0.6,0.4-0.9v-7.9c0-0.3-0.1-0.7-0.4-0.9
	c-0.2-0.3-0.6-0.4-0.9-0.4h-1.4L228.7,37.5z"/>
</svg>
