<svg id="Layer_1" data-name="Layer 1" xmlns="http://www.w3.org/2000/svg" xmlns:xlink="http://www.w3.org/1999/xlink" width="144.8857" height="111.4217" viewBox="0 0 144.8857 111.4217"><defs><style>.cls-1{fill:#ac9655;}.cls-2{fill:url(#New_Gradient_Swatch_1);}.cls-3{fill:url(#New_Gradient_Swatch_1-2);}</style><linearGradient id="New_Gradient_Swatch_1" x1="47.1025" y1="27.8043" x2="103.7933" y2="27.8043" gradientUnits="userSpaceOnUse"><stop offset="0" stop-color="#ac8e34"/><stop offset="0.1878" stop-color="#ceb367"/><stop offset="0.461" stop-color="#a48e4a"/><stop offset="0.7634" stop-color="#ceb367"/><stop offset="1" stop-color="#997f2e"/></linearGradient><linearGradient id="New_Gradient_Swatch_1-2" x1="110.8055" y1="42.0404" x2="101.1977" y2="49.1952" xlink:href="#New_Gradient_Swatch_1"/></defs><title>frame3</title><path class="cls-1" d="M3.61,111.3972a3.4789,3.4789,0,0,1-2.56-1.0507A3.4644,3.4644,0,0,1,0,107.8v-11.7H2.2334v11.6758a1.2479,1.2479,0,0,0,.3867.9238,1.2786,1.2786,0,0,0,.93.38,1.2971,1.2971,0,0,0,1.3037-1.3037V96.0994H7.2324v11.7a3.44,3.44,0,0,1-1.0625,2.56A3.53,3.53,0,0,1,3.61,111.3972Z"/><path class="cls-1" d="M14.8818,96.0877,17.91,106.2634V96.0877h2.2822v15.1406H17.7412l-3.1387-9.6953v9.6953H12.32V96.0877Z"/><path class="cls-1" d="M28.8779,111.4217a3.6077,3.6077,0,0,1-3.622-3.61V99.5525a3.6162,3.6162,0,1,1,7.2324,0v1.7266H30.1221V99.5047a1.32,1.32,0,0,0-1.3164-1.3164,1.2481,1.2481,0,0,0-.9239.3867,1.28,1.28,0,0,0-.38.93v8.2822a1.2986,1.2986,0,0,0,1.3037,1.3047,1.2771,1.2771,0,0,0,.93-.3809,1.2463,1.2463,0,0,0,.3867-.9238V105.698h2.3662v2.1133a3.6076,3.6076,0,0,1-3.61,3.61Z"/><path class="cls-1" d="M40.9941,95.907a3.6175,3.6175,0,0,1,3.6221,3.6221v8.2578a3.6162,3.6162,0,1,1-7.2324,0V99.5291a3.616,3.616,0,0,1,3.61-3.6221ZM42.2373,99.48a1.2971,1.2971,0,0,0-1.3037-1.3037,1.2784,1.2784,0,0,0-.93.38,1.2479,1.2479,0,0,0-.3867.9238v8.2832a1.2441,1.2441,0,0,0,.3867.9229,1.2754,1.2754,0,0,0,.93.3809,1.2988,1.2988,0,0,0,1.3037-1.3038Z"/><path class="cls-1" d="M51.95,111.2283,49.2461,96.0994h2.3916l1.8984,11.793,1.9131-11.793h2.3926l-2.7529,15.1289Z"/><path class="cls-1" d="M62.8086,111.2283V96.0877h6.4961v2.2939H65.0908v4.1289H68.17v2.2949H65.0908v4.1289h4.2139v2.294Z"/><path class="cls-1" d="M77.5322,96.0994A3.48,3.48,0,0,1,80.333,97.15a3.8149,3.8149,0,0,1,.7852,2.56v2.1973a3.5325,3.5325,0,0,1-1.22,2.7168l1.6905,6.6045H79.1211l-1.3838-5.6992h-1.52v5.6992H73.9346V96.0994Zm1.3643,3.6465A1.1576,1.1576,0,0,0,77.5928,98.43h-1.376v4.8409h1.376a1.2433,1.2433,0,0,0,.9228-.3858,1.277,1.277,0,0,0,.3809-.93Z"/><path class="cls-1" d="M93.13,111.2283H90.8486V96.0877H94.123l2.127,10.8759,2.041-10.8759h3.1465v15.1406H99.1553v-9.5147l-1.98,9.5147H95.34l-2.21-9.49Z"/><path class="cls-1" d="M110.11,95.907a3.6158,3.6158,0,0,1,3.622,3.6221v8.2578a3.6157,3.6157,0,1,1-7.2314,0V99.5291A3.616,3.616,0,0,1,110.11,95.907Zm1.2441,3.5732a1.2988,1.2988,0,0,0-1.3037-1.3037,1.2784,1.2784,0,0,0-.93.38,1.2479,1.2479,0,0,0-.3867.9238v8.2832a1.2441,1.2441,0,0,0,.3867.9229,1.2754,1.2754,0,0,0,.93.3809,1.3,1.3,0,0,0,1.3037-1.3038Z"/><path class="cls-1" d="M122.4062,96.0994A3.48,3.48,0,0,1,125.207,97.15a3.8144,3.8144,0,0,1,.7852,2.56v2.1973a3.5327,3.5327,0,0,1-1.22,2.7168l1.69,6.6045h-2.4678l-1.3838-5.6992H121.09v5.6992h-2.2812V96.0994Zm1.3643,3.6465a1.1576,1.1576,0,0,0-1.3037-1.3155H121.09v4.8409h1.377a1.247,1.247,0,0,0,.9238-.3858,1.28,1.28,0,0,0,.38-.93Z"/><path class="cls-1" d="M131.4805,111.2283V96.0877h6.4951v2.2939h-4.2139v4.1289h3.0791v2.2949h-3.0791v4.1289h4.2139v2.294Z"/><path class="cls-1" d="M142.6045,108.9588h2.2812V111.24h-2.2812Z"/><path class="cls-2" d="M47.1025,47.5857h.5348l5.0278,5.0276V47.5857H54.27v8.023h-.5881l-4.9746-4.9742v4.9742H47.1025Zm13.2219,0,3.2039,8.0175-1.7061.0055-.4817-1.23h-3.637l-.4814,1.23H55.5106l3.2093-8.023Zm.4278,5.1883-1.1873-3.049-1.2193,3.049Zm4.5092-5.1883h-.5348v8.023h1.6047V50.9554L68.7382,53.63l2.4066-2.6743.0055,4.6533h1.6045v-8.023H72.22l-3.4819,3.9579Zm13.4841,0,3.2037,8.0175-1.7063.0055-.4814-1.23H76.1244l-.4814,1.23H73.9316l3.2092-8.023Zm.4278,5.1883-1.1872-3.049-1.22,3.049Zm6.3651,1.337a2.5415,2.5415,0,0,1-1.8185-.7488l-1.07,1.07a4.0486,4.0486,0,0,0,1.2838.8557,4.749,4.749,0,0,0,1.8668.3208,3.24,3.24,0,0,0,2.0618-.6953,2.0566,2.0566,0,0,0,.8853-1.658,2.0083,2.0083,0,0,0-.8291-1.7918,3.98,3.98,0,0,0-1.8453-.6685,2.1145,2.1145,0,0,1-1.23-.4816.626.626,0,0,1,0-.7755q.2677-.4545,1.23-.4545a1.8428,1.8428,0,0,1,1.4978.6417l1.07-1.07a3.7431,3.7431,0,0,0-1.15-.8024,4.4788,4.4788,0,0,0-1.7331-.2674,3.2112,3.2112,0,0,0-1.8745.6446,1.996,1.996,0,0,0-.9119,1.7089,1.7752,1.7752,0,0,0,.8021,1.6581,4.3122,4.3122,0,0,0,1.7652.5883q1.07.1071,1.3344.5616a.8471.8471,0,0,1,0,.9094Q86.6082,54.111,85.5384,54.111Zm8.515,1.4976V49.0833h2.6744V47.5857H89.7744v1.4976h2.6742v6.5253Zm9.74-6.5253V47.5857l-5.8942.0054v8.0176h5.8837V54.1111h-4.279V52.2872h3.2146V50.7949H99.5038V49.0833ZM95.9025,34.5368l-4.4024.01.49-.16a5.51,5.51,0,0,0-1.0389.32l-5.1359,2.1405,3.1081-2.3157-.0237.0039-.071-.534-.5648-.9315a18.6089,18.6089,0,0,0,4.2319-4.3689l-4.1524,1.988,4.2309-3.5238a6.9678,6.9678,0,0,0,1.3435-1.4565c.5456-.8247,1.0522-1.6695,1.5141-2.5248l-1.3113,1.295,1.572-3.42a45.1662,45.1662,0,0,0,2.3259-6.4307,54.7448,54.7448,0,0,0-6.2328,4.0157l-3.0778,2.3324.9816-1.53c-.7962.6771-1.566,1.3917-2.3007,2.136a6.7422,6.7422,0,0,0-1.1329,1.5876l-2.2481,4.3055.7985-3.93a18.5751,18.5751,0,0,0-1.7809,2.13l-.3919.5466-.3591-.2465a1.0384,1.0384,0,0,0-.0557.0934l-3.0877,5.8554,1.821-6.3642a20.2042,20.2042,0,0,0,.604-7.9868L79.43,21.5264l1.03-4.754A7.7432,7.7432,0,0,0,80.6208,14.4a38.31,38.31,0,0,0-.8171-4.7992l-.28,2.3334L78.6,8.5324A57.8933,57.8933,0,0,0,75.4479,0a57.8138,57.8138,0,0,0-3.1524,8.5324l-.923,3.4019-.28-2.3334A38.3278,38.3278,0,0,0,70.275,14.4a7.7461,7.7461,0,0,0,.1609,2.3725l1.0286,4.7554-2.1251-3.9529a20.2012,20.2012,0,0,0,.604,7.9862l1.8212,6.3646L68.6766,26.07a.9734.9734,0,0,0-.0556-.0934l-.3591.2465-.3919-.5466a18.5788,18.5788,0,0,0-1.7809-2.13l.7986,3.93L64.64,23.1708a6.7494,6.7494,0,0,0-1.1327-1.5876c-.7333-.7428-1.5021-1.4565-2.2975-2.1327l.9839,1.5309L59.11,18.6445a54.7173,54.7173,0,0,0-6.2328-4.0157A45.1555,45.1555,0,0,0,55.2028,21.06l1.572,3.42-1.3114-1.295c.462.8553.9688,1.7,1.5144,2.5248a6.9631,6.9631,0,0,0,1.3432,1.4565l4.231,3.5238L58.4,28.7012a18.6073,18.6073,0,0,0,4.232,4.3689l-.5648.9315-.071.534-.0239-.0039L65.08,36.8476l-5.136-2.1407a5.5461,5.5461,0,0,0-1.0385-.32l.49.16-4.4026-.01a37.8622,37.8622,0,0,0-4.1958.2541,34.638,34.638,0,0,0,3.5872,1.9719L58.2581,38.58l-.4455-.054a5.7392,5.7392,0,0,0,.9823.1255l5.8689.2606-4.0046.7627a14.3806,14.3806,0,0,0,2.8926.3181l4.2483.0278-2.4844.8063,3.8168.6633-5.8775.353q-.14.0084-.275.0256l-2.6967,1.3185c-.6916.3383-1.3371.7055-1.9332,1.0732.74.0573,1.5362.0924,2.3429.0779l3.073-.0548c.0836-.03.1676-.0631.2515-.0993l5.0839-2.2133-2.5649,1.9778a8.9569,8.9569,0,0,0,1.0066-.4307s.4.2308.4767.2949a1.866,1.866,0,0,0,.2157-.047,9.0711,9.0711,0,0,0,2.2276-1.3,9.3593,9.3593,0,0,1,2.498-1.4254,6.2248,6.2248,0,0,1,.8745-.1636,2.3815,2.3815,0,0,1-1.1519-.7183c-.556-.5558-.7686-1.3061-.2328-1.4645s1.5076.75,1.5707.75a1.159,1.159,0,0,0,.324-.7481c0-.3208-.2289-.9447-.2718-1.3222a6.2922,6.2922,0,0,0-.2284-1.0939c-.0836-.2486-.6645-.3569-.9763-.5493a5.1,5.1,0,0,1-.7866-.5445,2.4875,2.4875,0,0,1-.3344-1.1413A4.4846,4.4846,0,0,0,71.56,32.883c-.1085-.2034-.3876-.3471-.5763-.5358a.8116.8116,0,0,1-.1944-.4994c.1448-.0451.19.3277.3572.3594s.1559.1695.418.26.2713.2149.3052.459.3277,1.0689.4248,1.4056.1989.59.5313.6014.287.1829.6778.1515a2.1864,2.1864,0,0,1,.9381.1807c.21.0746.4747.0813.5651-.0655s-.0634-.7391-.0634-.7391c-.1355,0-.1582-.183-.21-.3525s.0317-.1831.0317-.1831a.7163.7163,0,1,1,1.3652,0s.0836.0135.0316.1831-.0746.3525-.21.3525c0,0-.1535.5922-.0632.7391s.3549.14.565.0655a2.1868,2.1868,0,0,1,.9379-.1807c.3911.0314.3459-.14.6781-.1515s.434-.2645.5311-.6014.391-1.1615.425-1.4056.0429-.3686.3052-.459.2508-.2281.418-.26.2126-.4045.3571-.3594a.8123.8123,0,0,1-.1944.4994c-.1886.1887-.4677.3324-.5762.5358a4.4846,4.4846,0,0,0-.1877,1.1618,2.4887,2.4887,0,0,1-.3344,1.1413,5.1,5.1,0,0,1-.7866.5445c-.312.1924-.8927.3007-.9763.5493a6.2552,6.2552,0,0,0-.2284,1.0939c-.0429.3775-.2719,1.0014-.2719,1.3222a1.16,1.16,0,0,0,.324.7481c.0632,0,1.0352-.9084,1.5708-.75s.3232.9087-.2328,1.4645a2.3815,2.3815,0,0,1-1.1519.7183,6.2248,6.2248,0,0,1,.8745.1636,9.3593,9.3593,0,0,1,2.498,1.4254,9.0741,9.0741,0,0,0,2.2274,1.3,1.88,1.88,0,0,0,.2154.0473c.0765-.064.4772-.2952.4772-.2952a8.9632,8.9632,0,0,0,1.0065.4307L81.7944,41.971l5.0841,2.2133c.0836.0362.1677.0695.2513.0993l3.073.0548c.8067.0147,1.6033-.0206,2.3429-.0779-.5961-.3677-1.2416-.7349-1.9336-1.0732l-2.6963-1.3185c-.09-.0114-.1816-.02-.2748-.0256l-5.8773-.353,3.819-.6637-2.4757-.8059,4.237-.0278a14.379,14.379,0,0,0,2.8926-.3181l-4.0047-.7627,5.869-.2606a5.7621,5.7621,0,0,0,.9824-.1253l-.4456.054,3.8734-1.8173a34.638,34.638,0,0,0,3.5872-1.9719A37.8607,37.8607,0,0,0,95.9025,34.5368Z"/><path class="cls-3" d="M104.9458,45.16v1.4563h-.2893V45.16h-.5418V44.9H105.49v.26Zm2.2979,1.4563-.0024-1.2822L106.7,46.4374h-.1888l-.5418-1.1032v1.2822h-.2721V44.9h.3431l.5664,1.14.5639-1.14h.3408v1.7162Z"/></svg>