<svg id="Layer_1" data-name="Layer 1" xmlns="http://www.w3.org/2000/svg" xmlns:xlink="http://www.w3.org/1999/xlink" width="131.4023" height="111.4217" viewBox="0 0 131.4023 111.4217"><defs><style>.cls-1{fill:#ac9655;}.cls-2{fill:url(#New_Gradient_Swatch_1);}.cls-3{fill:url(#New_Gradient_Swatch_1-2);}</style><linearGradient id="New_Gradient_Swatch_1" x1="40.3603" y1="27.8043" x2="97.0511" y2="27.8043" gradientUnits="userSpaceOnUse"><stop offset="0" stop-color="#ac8e34"/><stop offset="0.1878" stop-color="#ceb367"/><stop offset="0.461" stop-color="#a48e4a"/><stop offset="0.7634" stop-color="#ceb367"/><stop offset="1" stop-color="#997f2e"/></linearGradient><linearGradient id="New_Gradient_Swatch_1-2" x1="104.0633" y1="42.0404" x2="94.4555" y2="49.1952" xlink:href="#New_Gradient_Swatch_1"/></defs><title>frame4</title><path class="cls-1" d="M2.5615,96.0877,5.59,106.2634V96.0877H7.8711v15.1406h-2.45l-3.14-9.6953v9.6953H0V96.0877Z"/><path class="cls-1" d="M15.77,107.7508l-.5547,3.4775H12.8389l2.5722-15.1289H18.55l2.5361,15.1289h-2.4l-.5332-3.4775Zm1.1993-8.1856-.8458,5.9639h1.6905Z"/><path class="cls-1" d="M28.3477,111.2283H26.0645V96.0877H29.34l2.127,10.8759,2.041-10.8759h3.1465v15.1406H34.3721v-9.5147l-1.98,9.5147h-1.836l-2.2089-9.49Z"/><path class="cls-1" d="M44.5518,107.7508l-.5538,3.4775H41.6211l2.5723-15.1289H47.332l2.5352,15.1289H47.4688l-.5352-3.4775ZM45.75,99.5652l-.8447,5.9639h1.69Z"/><path class="cls-1" d="M61.7051,107.4617a4.2583,4.2583,0,0,1-.82,2.7041,2.96,2.96,0,0,1-1.57,1.0742,4.2524,4.2524,0,0,1-1.2676.169,3.5816,3.5816,0,0,1-2.2207-.6641,3.6908,3.6908,0,0,1-1.166-1.4785,5.9682,5.9682,0,0,1-.501-2.1436l2.1728-.1562a3.3039,3.3039,0,0,0,.7012,1.917,1.165,1.165,0,0,0,.9414.4248,1.4143,1.4143,0,0,0,1.1953-.7373,1.8338,1.8338,0,0,0,.23-1.003,2.7862,2.7862,0,0,0-.8574-1.873q-.6753-.64-2.0283-1.9209a8.6488,8.6488,0,0,1-1.6055-1.9707,4.5565,4.5565,0,0,1-.5078-2.127,3.6994,3.6994,0,0,1,1.3887-3.13,3.4535,3.4535,0,0,1,2.125-.64,3.8616,3.8616,0,0,1,2.0888.543,3.14,3.14,0,0,1,1.0928,1.1836,4.3742,4.3742,0,0,1,.501,1.75l-2.1846.3984a2.6387,2.6387,0,0,0-.5312-1.4482,1.1168,1.1168,0,0,0-.9063-.375,1.0424,1.0424,0,0,0-.9531.5556,2.1362,2.1362,0,0,0-.2656,1.1114,3.3288,3.3288,0,0,0,.8925,2.1123,7.5517,7.5517,0,0,0,1.0147.9658q.7968.6649,1.05.93a7.7528,7.7528,0,0,1,1.3047,1.666,6.3139,6.3139,0,0,1,.35.7129A4.1309,4.1309,0,0,1,61.7051,107.4617Z"/><path class="cls-1" d="M68.7617,98.3933H66.334V96.0994h7.124v2.2939H71.043v12.835H68.7617Z"/><path class="cls-1" d="M78.3535,111.2283V96.0877h6.4951v2.2939H80.6348v4.1289h3.0791v2.2949H80.6348v4.1289h4.2138v2.294Z"/><path class="cls-1" d="M89.48,108.9588h2.2812V111.24H89.48Z"/><path class="cls-1" d="M100.0127,111.4217a3.6062,3.6062,0,0,1-3.6221-3.61V99.5525a3.6158,3.6158,0,1,1,7.2315,0v1.7266h-2.3662V99.5047A1.3188,1.3188,0,0,0,99.94,98.1883a1.2463,1.2463,0,0,0-.9238.3867,1.277,1.277,0,0,0-.3809.93v8.2822a1.3,1.3,0,0,0,1.3047,1.3047,1.2784,1.2784,0,0,0,.93-.3809,1.2488,1.2488,0,0,0,.3858-.9238V105.698h2.3662v2.1133a3.6076,3.6076,0,0,1-3.6094,3.61Z"/><path class="cls-1" d="M112.127,95.907a3.6158,3.6158,0,0,1,3.622,3.6221v8.2578a3.6157,3.6157,0,1,1-7.2314,0V99.5291a3.616,3.616,0,0,1,3.6094-3.6221Zm1.2441,3.5732a1.2988,1.2988,0,0,0-1.3037-1.3037,1.2784,1.2784,0,0,0-.93.38,1.2479,1.2479,0,0,0-.3867.9238v8.2832a1.2441,1.2441,0,0,0,.3867.9229,1.2754,1.2754,0,0,0,.93.3809,1.3,1.3,0,0,0,1.3037-1.3038Z"/><path class="cls-1" d="M123.0947,111.2283h-2.2812V96.0877h3.2744l2.1269,10.8759,2.0411-10.8759h3.1464v15.1406H129.12v-9.5147l-1.9805,9.5147h-1.8349l-2.21-9.49Z"/><path class="cls-2" d="M40.36,47.5857h.5349l5.0277,5.0276V47.5857h1.6047v8.023H46.94l-4.9746-4.9742v4.9742H40.36Zm13.2219,0,3.2039,8.0175-1.7061.0055-.4816-1.23H50.9613l-.4814,1.23H48.7685l3.2092-8.023ZM54.01,52.774l-1.1873-3.049-1.2193,3.049Zm4.5092-5.1883h-.5348v8.023h1.6047V50.9554L61.996,53.63l2.4066-2.6743.0056,4.6533h1.6045v-8.023h-.5348L61.996,51.5436Zm13.4841,0,3.2037,8.0175-1.7063.0055-.4814-1.23H69.3822l-.4814,1.23H67.1894l3.2092-8.023Zm.4279,5.1883-1.1873-3.049-1.22,3.049Zm6.365,1.337a2.5415,2.5415,0,0,1-1.8185-.7488l-1.07,1.07a4.0486,4.0486,0,0,0,1.2838.8557,4.749,4.749,0,0,0,1.8668.3208,3.24,3.24,0,0,0,2.0618-.6953,2.0566,2.0566,0,0,0,.8853-1.658,2.0083,2.0083,0,0,0-.8291-1.7918,3.98,3.98,0,0,0-1.8453-.6685,2.1138,2.1138,0,0,1-1.23-.4816.6257.6257,0,0,1,0-.7755q.2676-.4545,1.23-.4545a1.8427,1.8427,0,0,1,1.4978.6417l1.07-1.07a3.7431,3.7431,0,0,0-1.15-.8024,4.4785,4.4785,0,0,0-1.7331-.2674,3.2114,3.2114,0,0,0-1.8745.6446,1.996,1.996,0,0,0-.9119,1.7089,1.7752,1.7752,0,0,0,.8021,1.6581,4.3122,4.3122,0,0,0,1.7652.5883q1.07.1071,1.3345.5616a.8475.8475,0,0,1,0,.9094Q79.866,54.111,78.7962,54.111Zm8.515,1.4976V49.0833h2.6744V47.5857H83.0322v1.4976h2.6743v6.5253Zm9.74-6.5253V47.5857l-5.8941.0054v8.0176h5.8836V54.1111H92.7617V52.2872h3.2145V50.7949H92.7617V49.0833ZM89.16,34.5368l-4.4024.01.49-.16a5.5121,5.5121,0,0,0-1.0389.32l-5.1358,2.1405,3.108-2.3157-.0237.0039-.071-.534-.5648-.9315a18.6089,18.6089,0,0,0,4.2319-4.3689l-4.1524,1.988,4.231-3.5238a6.97,6.97,0,0,0,1.3434-1.4565c.5456-.8247,1.0522-1.6695,1.5142-2.5248l-1.3114,1.295,1.572-3.42a45.1662,45.1662,0,0,0,2.3259-6.4307,54.7448,54.7448,0,0,0-6.2328,4.0157l-3.0778,2.3324.9817-1.53c-.7963.6771-1.5661,1.3917-2.3008,2.136a6.7451,6.7451,0,0,0-1.1329,1.5876l-2.248,4.3055.7984-3.93a18.5853,18.5853,0,0,0-1.7809,2.13l-.3919.5466-.3591-.2465a1.0166,1.0166,0,0,0-.0556.0934l-3.0878,5.8554,1.821-6.3642a20.2042,20.2042,0,0,0,.604-7.9868l-2.1264,3.9519,1.03-4.754A7.74,7.74,0,0,0,73.8786,14.4a38.2913,38.2913,0,0,0-.8171-4.7992l-.28,2.3334-.9232-3.4019A57.8706,57.8706,0,0,0,68.7057,0a57.8138,57.8138,0,0,0-3.1524,8.5324L64.63,11.9343l-.28-2.3334A38.3461,38.3461,0,0,0,63.5328,14.4a7.7461,7.7461,0,0,0,.1609,2.3725l1.0286,4.7554-2.1251-3.9529a20.1993,20.1993,0,0,0,.6041,7.9862l1.8211,6.3646L61.9344,26.07a.9734.9734,0,0,0-.0556-.0934l-.3591.2465-.3919-.5466a18.5788,18.5788,0,0,0-1.7809-2.13l.7987,3.93-2.2483-4.3055a6.7465,6.7465,0,0,0-1.1327-1.5876c-.7332-.7428-1.5021-1.4565-2.2975-2.1327l.9839,1.5309-3.0835-2.3369a54.7173,54.7173,0,0,0-6.2328-4.0157A45.1555,45.1555,0,0,0,48.4606,21.06l1.572,3.42-1.3114-1.295c.462.8553.9688,1.7,1.5144,2.5248a6.9611,6.9611,0,0,0,1.3433,1.4565L55.81,30.6892l-4.1524-1.988A18.6049,18.6049,0,0,0,55.8893,33.07l-.5648.9315-.071.534-.0239-.0039,3.1085,2.3159L53.202,34.7069a5.5461,5.5461,0,0,0-1.0385-.32l.49.16-4.4026-.01a37.8637,37.8637,0,0,0-4.1958.2541,34.638,34.638,0,0,0,3.5872,1.9719L51.5159,38.58l-.4454-.054a5.7367,5.7367,0,0,0,.9822.1255l5.8689.2606-4.0046.7627a14.3806,14.3806,0,0,0,2.8926.3181l4.2483.0278-2.4843.8063L62.39,41.49l-5.8775.353q-.14.0084-.275.0256l-2.6967,1.3185c-.6916.3383-1.3371.7055-1.9332,1.0732.74.0573,1.5362.0924,2.3429.0779l3.073-.0548c.0836-.03.1677-.0631.2515-.0993l5.0839-2.2133-2.5648,1.9778a8.9632,8.9632,0,0,0,1.0065-.4307s.4.2308.4767.2949a1.866,1.866,0,0,0,.2157-.047,9.0711,9.0711,0,0,0,2.2276-1.3,9.3593,9.3593,0,0,1,2.498-1.4254,6.2248,6.2248,0,0,1,.8745-.1636,2.3815,2.3815,0,0,1-1.1519-.7183c-.556-.5558-.7686-1.3061-.2328-1.4645s1.5076.75,1.5707.75a1.1589,1.1589,0,0,0,.3241-.7481c0-.3208-.229-.9447-.2719-1.3222a6.2922,6.2922,0,0,0-.2284-1.0939c-.0836-.2486-.6645-.3569-.9763-.5493a5.1,5.1,0,0,1-.7866-.5445,2.4887,2.4887,0,0,1-.3344-1.1413,4.4846,4.4846,0,0,0-.1877-1.1618c-.1085-.2034-.3876-.3471-.5762-.5358a.8113.8113,0,0,1-.1945-.4994c.1448-.0451.19.3277.3572.3594s.1559.1695.418.26.2713.2149.3052.459.3277,1.0689.4248,1.4056.1989.59.5313.6014.287.1829.6779.1515a2.1863,2.1863,0,0,1,.938.1807c.21.0746.4747.0813.5651-.0655s-.0634-.7391-.0634-.7391c-.1355,0-.1582-.183-.21-.3525s.0316-.1831.0316-.1831a.7163.7163,0,1,1,1.3652,0s.0836.0135.0316.1831-.0746.3525-.21.3525c0,0-.1535.5922-.0632.7391s.3549.14.5651.0655a2.1859,2.1859,0,0,1,.9378-.1807c.3911.0314.3459-.14.6781-.1515s.434-.2645.5311-.6014.3911-1.1615.425-1.4056.0429-.3686.3052-.459.2508-.2281.418-.26.2126-.4045.3572-.3594a.813.813,0,0,1-.1944.4994c-.1887.1887-.4678.3324-.5763.5358a4.4846,4.4846,0,0,0-.1877,1.1618,2.4875,2.4875,0,0,1-.3344,1.1413,5.1,5.1,0,0,1-.7866.5445c-.312.1924-.8927.3007-.9763.5493a6.2644,6.2644,0,0,0-.2284,1.0939c-.0429.3775-.2719,1.0014-.2719,1.3222a1.1589,1.1589,0,0,0,.3241.7481c.0631,0,1.0351-.9084,1.5707-.75s.3232.9087-.2328,1.4645a2.3815,2.3815,0,0,1-1.1519.7183,6.2248,6.2248,0,0,1,.8745.1636,9.3593,9.3593,0,0,1,2.498,1.4254,9.0741,9.0741,0,0,0,2.2274,1.3,1.8777,1.8777,0,0,0,.2155.0473c.0764-.064.4771-.2952.4771-.2952a8.9632,8.9632,0,0,0,1.0065.4307L75.0522,41.971l5.0841,2.2133c.0837.0362.1677.0695.2513.0993l3.073.0548c.8067.0147,1.6033-.0206,2.3429-.0779-.5961-.3677-1.2416-.7349-1.9336-1.0732l-2.6963-1.3185c-.09-.0114-.1816-.02-.2748-.0256l-5.8773-.353,3.819-.6637-2.4757-.8059,4.237-.0278a14.379,14.379,0,0,0,2.8926-.3181L79.49,38.912l5.8689-.2606a5.7621,5.7621,0,0,0,.9824-.1253l-.4456.054,3.8734-1.8173a34.638,34.638,0,0,0,3.5872-1.9719A37.8592,37.8592,0,0,0,89.16,34.5368Z"/><path class="cls-3" d="M98.2036,45.16v1.4563h-.2893V45.16h-.5418V44.9h1.3753v.26Zm2.2979,1.4563-.0024-1.2822-.5418,1.1032h-.1888l-.5418-1.1032v1.2822h-.2721V44.9h.3431l.5664,1.14.564-1.14h.3407v1.7162Z"/></svg>