<?xml version="1.0" encoding="utf-8"?>
<!-- Generator: Adobe Illustrator 23.0.1, SVG Export Plug-In . SVG Version: 6.00 Build 0)  -->
<svg version="1.1" id="Layer_2" xmlns="http://www.w3.org/2000/svg" xmlns:xlink="http://www.w3.org/1999/xlink" x="0px" y="0px"
	 viewBox="0 0 728 90" enable-background="new 0 0 728 90" xml:space="preserve">
<g>
	<g>
		<polygon fill="#FFFFFF" stroke="#BA9544" stroke-width="0.5" stroke-miterlimit="10" points="424.63,51.1 293.7,50.6 
			287.09,60.13 293.7,69.49 424.63,69.27 430.58,60.18 		"/>
		<g>
			<defs>
				<polygon id="SVGID_1_" points="287.24,60.15 293.84,69.52 293.97,69.53 293.97,50.63 293.84,50.62 				"/>
			</defs>
			<use xlink:href="#SVGID_1_"  overflow="visible" fill="#BA9544"/>
			<clipPath id="SVGID_2_">
				<use xlink:href="#SVGID_1_"  overflow="visible"/>
			</clipPath>
			<g clip-path="url(#SVGID_2_)">
				<defs>
					<rect id="SVGID_3_" x="285.77" y="49.16" width="9.66" height="21.83"/>
				</defs>
				<use xlink:href="#SVGID_3_"  overflow="visible" fill="#BA9544"/>
				<clipPath id="SVGID_4_">
					<use xlink:href="#SVGID_3_"  overflow="visible"/>
				</clipPath>
			</g>
		</g>
	</g>
	<g>
		<path fill="#BA9544" d="M364.01,63.28c-0.61-0.61-0.92-1.38-0.92-2.3c0-0.9,0.31-1.66,0.92-2.27c0.61-0.61,1.37-0.92,2.28-0.92
			c0.92,0,1.7,0.29,2.35,0.85l-0.85,0.94c-0.44-0.34-0.94-0.51-1.5-0.51c-0.58,0-1.04,0.18-1.39,0.54
			c-0.35,0.36-0.53,0.81-0.53,1.37c0,0.6,0.18,1.07,0.53,1.42s0.82,0.53,1.39,0.53s1.07-0.17,1.49-0.51l0.85,0.94
			c-0.65,0.57-1.44,0.85-2.35,0.85C365.39,64.19,364.63,63.89,364.01,63.28z"/>
		<path fill="#BA9544" d="M374.58,60.82c0.56,0.38,0.86,0.86,0.89,1.47c-0.06,1.21-0.7,1.85-1.94,1.92l-3.61,0v-6.41h3.4
			c1.08,0.06,1.65,0.69,1.71,1.88C375.02,60.25,374.87,60.63,374.58,60.82z M371.22,60.36h1.79c0.52-0.01,0.78-0.27,0.79-0.8
			c-0.01-0.31-0.28-0.48-0.78-0.5h-1.81V60.36z M371.22,63.2h2.09c0.6-0.01,0.91-0.32,0.92-0.93c-0.01-0.41-0.32-0.62-0.91-0.64
			h-2.11V63.2z"/>
		<path fill="#BA9544" d="M376.75,64.2v-6.41h2.47c1.99,0,2.99,1.07,2.99,3.21c0,2.14-1,3.21-2.99,3.21H376.75z M379.22,62.92
			c1.14,0,1.71-0.65,1.71-1.93c0-1.28-0.57-1.92-1.71-1.92h-1.19v3.85H379.22z"/>
		<path fill="#BA9544" d="M386.63,60.11c0.11-0.12,0.27-0.17,0.46-0.17c0.21,0,0.36,0.06,0.48,0.17c0.11,0.12,0.17,0.26,0.17,0.43
			s-0.06,0.31-0.17,0.43s-0.27,0.17-0.47,0.17c-0.2,0-0.36-0.06-0.47-0.17s-0.17-0.26-0.17-0.43S386.52,60.23,386.63,60.11z
			 M386.63,63.17c0.11-0.12,0.27-0.17,0.46-0.17c0.21,0,0.36,0.06,0.48,0.17s0.17,0.26,0.17,0.43s-0.06,0.31-0.17,0.43
			c-0.11,0.11-0.27,0.17-0.47,0.17c-0.2,0-0.36-0.06-0.47-0.17c-0.11-0.11-0.17-0.26-0.17-0.43S386.52,63.29,386.63,63.17z"/>
		<path fill="#BA9544" d="M395.81,59.63l-2.48,1.37l2.48,1.37v0.98l-4.05-2.23v-0.28l4.05-2.2V59.63z"/>
		<path fill="#BA9544" d="M401.36,57.79L401.36,57.79l1.28,0v6.41h-1.28v-4.7l-0.85,0.85l-0.85-0.85L401.36,57.79z"/>
	</g>
</g>
<g>
</g>
<g>
</g>
<g>
</g>
<g>
</g>
<g>
</g>
<g>
</g>
<g>
</g>
<g>
</g>
<g>
</g>
<g>
</g>
<g>
</g>
<g>
</g>
<g>
</g>
<g>
</g>
<g>
</g>
</svg>
