<svg id="Content" xmlns="http://www.w3.org/2000/svg" width="300" height="250" viewBox="0 0 300 250"><defs><style>.cls-1{fill:#ba9544;}</style></defs><title>Frame1 - Ultra Sour</title><path class="cls-1" d="M138.06836,147.92685v15.84472c0,1.46778.64551,1.9961,1.67236,1.9961s1.67237-.52832,1.67237-1.9961V147.92685h3.05175v15.63964c0,3.28614-1.64306,5.16407-4.812,5.16407s-4.8125-1.87793-4.8125-5.16407V147.92685Z"/><path class="cls-1" d="M151.06445,147.92685H154.293v17.60546h5.31055v2.93458h-8.53907Z"/><path class="cls-1" d="M164.47168,147.92685h9.97656v2.93457h-3.374v17.60547h-3.22754V150.86142h-3.375Z"/><path class="cls-1" d="M187.00586,168.46689a6.298,6.298,0,0,1-.294-2.52344v-3.22754c0-1.90723-.6455-2.61133-2.1123-2.61133h-1.11523v8.36231h-3.22754v-20.54h4.87109c3.34473,0,4.78223,1.55566,4.78223,4.72461v1.61328c0,2.11328-.67481,3.49218-2.11231,4.167,1.61426.6748,2.1416,2.23047,2.1416,4.37207v3.16894a6.03948,6.03948,0,0,0,.35254,2.49415Zm-3.52148-17.60547V157.17h1.26171c1.20313,0,1.93653-.52832,1.93653-2.17187v-2.02442c0-1.4668-.499-2.1123-1.64258-2.1123Z"/><path class="cls-1" d="M206.89746,168.46689h-3.25781l-.55762-3.72657h-3.96094l-.55761,3.72657h-2.96289l3.28613-20.54h4.72363Zm-7.36523-6.51368h3.11035l-1.55567-10.38769Z"/><path class="cls-1" d="M226.085,147.69247c3.13965,0,4.75293,1.87793,4.75293,5.16406v.64551h-3.05078v-.85058c0-1.46778-.58691-2.02442-1.61426-2.02442s-1.61426.55664-1.61426,2.02442c0,4.2246,6.3086,5.01757,6.3086,10.88574,0,3.28613-1.64258,5.16406-4.81153,5.16406s-4.8125-1.87793-4.8125-5.16406v-1.26172h3.05176v1.4668c0,1.46777.64551,1.99609,1.67285,1.99609,1.02637,0,1.67188-.52832,1.67188-1.99609,0-4.22461-6.3086-5.01758-6.3086-10.88575C221.33105,149.5704,222.94531,147.69247,226.085,147.69247Z"/><path class="cls-1" d="M236.85156,152.85653c0-3.28613,1.73145-5.16406,4.90039-5.16406s4.90039,1.87793,4.90039,5.16406V163.5372c0,3.28613-1.73144,5.16406-4.90039,5.16406s-4.90039-1.87793-4.90039-5.16406Zm3.22852,10.88575c0,1.46777.64551,2.02539,1.67187,2.02539,1.02735,0,1.67285-.55762,1.67285-2.02539V152.65146c0-1.46778-.6455-2.02442-1.67285-2.02442-1.02636,0-1.67187.55664-1.67187,2.02442Z"/><path class="cls-1" d="M256.21582,147.92685v15.84472c0,1.46778.64551,1.9961,1.67188,1.9961,1.02734,0,1.67285-.52832,1.67285-1.9961V147.92685h3.05175v15.63964c0,3.28614-1.64355,5.16407-4.8125,5.16407s-4.81152-1.87793-4.81152-5.16407V147.92685Z"/><path class="cls-1" d="M275.96191,168.46689a6.29826,6.29826,0,0,1-.29394-2.52344v-3.22754c0-1.90723-.64551-2.61133-2.11231-2.61133h-1.11523v8.36231h-3.22754v-20.54H274.084c3.34473,0,4.78223,1.55566,4.78223,4.72461v1.61328c0,2.11328-.6748,3.49218-2.1123,4.167,1.61328.6748,2.1416,2.23047,2.1416,4.37207v3.16894a6.03931,6.03931,0,0,0,.35254,2.49415Zm-3.52148-17.60547V157.17h1.26172c1.20312,0,1.93652-.52832,1.93652-2.17187v-2.02442c0-1.4668-.499-2.1123-1.64258-2.1123Z"/></svg>