<svg id="Layer_1" data-name="Layer 1" xmlns="http://www.w3.org/2000/svg" width="300" height="250" viewBox="0 0 300 250"><defs><style>.cls-1{fill:#ab9555;}</style></defs><title>frame2</title><path class="cls-1" d="M194.17108,160.76621a7.12858,7.12858,0,0,1-7.15953-7.14594V130.28776h4.43782v23.284a2.48571,2.48571,0,0,0,.76681,1.83065,2.52445,2.52445,0,0,0,1.84036.75905,2.5784,2.5784,0,0,0,2.59164-2.5897v-23.284H201.383v23.33251a6.82562,6.82562,0,0,1-2.11214,5.08233A7.03609,7.03609,0,0,1,194.17108,160.76621Z"/><path class="cls-1" d="M226.60416,155.86442H231.141v4.53682h-4.53683Z"/><path class="cls-1" d="M93.01192,160.75871H80.47855V130.27756h4.59459v25.92h7.93878Z"/><path class="cls-1" d="M109.5658,129.90992a7.28971,7.28971,0,0,1,7.30376,7.30375v16.62662a7.28971,7.28971,0,0,1-7.30376,7.30376,6.9526,6.9526,0,0,1-5.13721-2.139,7.08173,7.08173,0,0,1-2.11544-5.16473V137.21367a7.28985,7.28985,0,0,1,7.25265-7.30375Zm2.50667,7.21725a2.59486,2.59486,0,0,0-2.62267-2.62267,2.56943,2.56943,0,0,0-1.86378.76085,2.50669,2.50669,0,0,0-.77658,1.86182v16.68167a2.51732,2.51732,0,0,0,.77658,1.85395,2.55927,2.55927,0,0,0,1.86378.76675,2.60459,2.60459,0,0,0,2.62267-2.6207Z"/><path class="cls-1" d="M134.24326,129.90992a7.28969,7.28969,0,0,1,7.30179,7.30375v16.62662a7.27731,7.27731,0,1,1-14.55443,0V137.21367a7.28985,7.28985,0,0,1,7.25264-7.30375Zm2.50668,7.21725a2.59814,2.59814,0,0,0-2.62464-2.62267,2.57267,2.57267,0,0,0-1.86379.76085,2.50672,2.50672,0,0,0-.77657,1.86182v16.68167a2.51735,2.51735,0,0,0,.77657,1.85395,2.56249,2.56249,0,0,0,1.86379.76675,2.60791,2.60791,0,0,0,2.62464-2.6207Z"/><path class="cls-1" d="M156.32951,151.13309v9.62562H151.733V130.27756h4.59655v10.86225l5.58153-10.86225h4.91308l-6.28339,12.46652,7.3529,18.01463H162.495l-4.81282-12.35053Z"/><path class="cls-1" d="M193.81559,161.14405a7.21934,7.21934,0,0,1-7.25068-7.23691V130.27756h4.49432V153.858a2.51736,2.51736,0,0,0,.77658,1.85395,2.55658,2.55658,0,0,0,1.86378.76872,2.61123,2.61123,0,0,0,2.62464-2.62267V130.27756h4.79512v23.62958a6.91251,6.91251,0,0,1-2.139,5.147A7.12569,7.12569,0,0,1,193.81559,161.14405Z"/><path class="cls-1" d="M218.59529,130.27756a6.97466,6.97466,0,0,1,5.34757,2.1233,7.316,7.316,0,0,1,1.85592,5.147v4.42747a7.078,7.078,0,0,1-2.10364,5.147,6.87223,6.87223,0,0,1-5.08806,2.139h-2.65216v11.49727h-4.59458V130.27756Zm2.74063,7.35291a2.6513,2.6513,0,0,0-.70777-1.93063,2.54518,2.54518,0,0,0-1.907-.72743h-2.76619V144.716h2.76619a2.49678,2.49678,0,0,0,1.85592-.77658,2.5787,2.5787,0,0,0,.75889-1.86378Z"/></svg>