<svg id="Content" xmlns="http://www.w3.org/2000/svg" width="320" height="50" viewBox="0 0 320 50"><defs><style>.cls-1{fill:#fff;stroke:#ba9544;stroke-miterlimit:10;stroke-width:0.5px;}.cls-2{fill:#ba9544;}</style></defs><title>THC - MK Ultra</title><polygon class="cls-1" points="183.04 10.711 104.483 10.413 100.517 16.132 104.483 21.749 183.04 21.615 186.609 16.164 183.04 10.711"/><polygon class="cls-2" points="104.54 10.413 100.575 16.132 104.54 21.749 116.58 21.749 116.62 10.413 104.54 10.413"/><path class="cls-2" d="M149.4458,14.25879v.71777h-1.28223v3.12793H147.394V14.97656H146.1123v-.71777Z"/><path class="cls-2" d="M150.01758,18.10449v-3.8457h.769v1.53809h1.79248v-1.541h.769v3.8457l-.769.00293V16.51465h-1.79248v1.58984Z"/><path class="cls-2" d="M154.542,17.55176a1.92318,1.92318,0,0,1,1.36817-3.293,2.08108,2.08108,0,0,1,1.41259.51269l-.51269.56153a1.41857,1.41857,0,0,0-.8999-.30762,1.09484,1.09484,0,0,0-1.15137,1.14356,1.15164,1.15164,0,0,0,.32031.85058,1.13275,1.13275,0,0,0,.83594.31543,1.38045,1.38045,0,0,0,.895-.30469l.51269.56153a2.075,2.075,0,0,1-1.41259.51269A1.8699,1.8699,0,0,1,154.542,17.55176Z"/><path class="cls-2" d="M158.18408,15.65234a.37148.37148,0,0,1,.27686-.10449.38525.38525,0,0,1,.28711.10449.37167.37167,0,0,1,0,.51368.439.439,0,0,1-.564,0,.37293.37293,0,0,1,0-.51368Zm0,1.83594a.37148.37148,0,0,1,.27686-.10449.38525.38525,0,0,1,.28711.10449.37166.37166,0,0,1,0,.51367.439.439,0,0,1-.564,0,.37292.37292,0,0,1,0-.51367Z"/><path class="cls-2" d="M162.27881,14.25879v-.00293h.7666v3.84863h-.7666V15.28418l-.5127.5127-.51269-.5127Z"/><path class="cls-2" d="M163.8125,16.23535A2.32947,2.32947,0,0,1,164.21,14.79a1.29954,1.29954,0,0,1,1.064-.5293,1.61744,1.61744,0,0,1,1.07666.38184l-.38428.51269a1.35535,1.35535,0,0,0-.65918-.15332.68038.68038,0,0,0-.53076.21778,1.03261,1.03261,0,0,0-.22022.65429,1.19284,1.19284,0,0,1,.769-.334,1.2821,1.2821,0,0,1,.9873.34668,1.32417,1.32417,0,0,1,.32031.93555,1.26048,1.26048,0,0,1-.35888.91015,1.35908,1.35908,0,0,1-1.02588.37207,1.28562,1.28562,0,0,1-1.10254-.52051A2.38586,2.38586,0,0,1,163.8125,16.23535Zm.84619.58985c.01709.35742.22217.543.61524.55859q.58959-.02345.61523-.50977a.581.581,0,0,0-.64111-.6416A.57151.57151,0,0,0,164.65869,16.8252Z"/><path class="cls-2" d="M167.3252,17.07617v-.50976H168.915v.50976Z"/><path class="cls-2" d="M170.96387,14.25879a1.4472,1.4472,0,0,1,.92431.2832,1.00857,1.00857,0,0,1,.35987.84473,1.7625,1.7625,0,0,1-.51123,1.2207,3.55275,3.55275,0,0,1-.84473.72754h1.38428v.76953h-2.59229V17.335q.25635,0,.97461-.64062a3.66251,3.66251,0,0,0,.833-.91016.62667.62667,0,0,0-.0127-.53906q-.12818-.26806-.61523-.26856a.88379.88379,0,0,0-.71826.30762l-.5127-.5127a2.10632,2.10632,0,0,1,.5-.38476A1.9205,1.9205,0,0,1,170.96387,14.25879Z"/><path class="cls-2" d="M173.38184,17.55176a2.3407,2.3407,0,0,1-.38477-1.37012,2.34068,2.34068,0,0,1,.38477-1.37207,1.23169,1.23169,0,0,1,2.05273,0,2.34726,2.34726,0,0,1,.3833,1.37207,2.344,2.344,0,0,1-.3833,1.37109,1.22989,1.22989,0,0,1-2.05273-.001Zm1.02832-.165q.25341,0,.4458-.34668a2.01345,2.01345,0,0,0,0-1.71777q-.1919-.34571-.45117-.34571-.25342,0-.44629.34571a2.018,2.018,0,0,0,0,1.71777Q174.15112,17.3872,174.41016,17.38672Z"/><path class="cls-2" d="M176.73291,15.88184a.99272.99272,0,1,1,.687.27636A.934.934,0,0,1,176.73291,15.88184Zm.67969-.17969a.45731.45731,0,0,0,.35107-.14649.51351.51351,0,0,0,.13574-.36425.50717.50717,0,0,0-.13574-.36231.46342.46342,0,0,0-.354-.14551.45758.45758,0,0,0-.34863.14551.50924.50924,0,0,0-.13575.36231.51562.51562,0,0,0,.13575.36425A.45762.45762,0,0,0,177.4126,15.70215Zm-.20557,2.40234,2.17969-3.8457h.62549l-2.17432,3.8457Zm1.91065-.2539a.98442.98442,0,1,1,.68212.27441A.9243.9243,0,0,1,179.11768,17.85059Zm.66894-.1875a.45.45,0,0,0,.34375-.14161.50039.50039,0,0,0,.1333-.35546.49494.49494,0,0,0-.1333-.35254.45316.45316,0,0,0-.34619-.14258.4466.4466,0,0,0-.34082.14258.49494.49494,0,0,0-.1333.35254.50039.50039,0,0,0,.1333.35546A.44892.44892,0,0,0,179.78662,17.66309Z"/></svg>