<?xml version="1.0" encoding="utf-8"?>
<!-- Generator: Adobe Illustrator 23.0.1, SVG Export Plug-In . SVG Version: 6.00 Build 0)  -->
<svg version="1.1" id="Layer_1" xmlns="http://www.w3.org/2000/svg" xmlns:xlink="http://www.w3.org/1999/xlink" x="0px" y="0px"
	 viewBox="0 0 970 250" enable-background="new 0 0 970 250" xml:space="preserve">
<g>
	<g>
		<polygon fill="#FFFFFF" stroke="#BA9544" stroke-width="0.5" stroke-miterlimit="10" points="612.27,98.89 379.67,98.01 
			367.92,114.94 379.67,131.57 612.27,131.18 622.84,115.03 		"/>
		<polygon fill="#BA9544" points="379.84,98.01 368.09,114.94 379.84,131.57 408.6,131.57 408.6,98.01 		"/>
	</g>
	<g>
		<path fill="#BA9544" d="M512.8,109.39v2.13H509v9.26h-2.28v-9.26h-3.8v-2.13H512.8z"/>
		<path fill="#BA9544" d="M514.49,120.78v-11.39h2.28v4.56h5.31v-4.56h2.28v11.39l-2.28,0.01v-4.71h-5.31v4.71H514.49z"/>
		<path fill="#BA9544" d="M527.89,119.15c-1.09-1.09-1.64-2.45-1.64-4.08c0-1.6,0.55-2.94,1.64-4.04c1.09-1.09,2.44-1.64,4.05-1.64
			c1.63,0,3.02,0.51,4.18,1.52l-1.52,1.66c-0.77-0.61-1.66-0.91-2.67-0.91c-1.02,0-1.85,0.32-2.47,0.96
			c-0.63,0.63-0.94,1.44-0.94,2.43c0,1.06,0.32,1.9,0.95,2.52c0.63,0.62,1.45,0.93,2.48,0.93c1.02,0,1.91-0.3,2.65-0.9l1.52,1.66
			c-1.16,1.01-2.55,1.52-4.18,1.52C530.33,120.78,528.98,120.23,527.89,119.15z"/>
		<path fill="#BA9544" d="M538.67,113.52c0.2-0.21,0.48-0.31,0.82-0.31c0.36,0,0.65,0.1,0.85,0.31c0.2,0.21,0.3,0.46,0.3,0.76
			s-0.1,0.56-0.3,0.76c-0.2,0.2-0.48,0.3-0.83,0.3c-0.35,0-0.63-0.1-0.84-0.3c-0.2-0.2-0.3-0.46-0.3-0.76
			S538.47,113.73,538.67,113.52z M538.67,118.96c0.2-0.21,0.48-0.31,0.82-0.31c0.36,0,0.65,0.1,0.85,0.31
			c0.2,0.21,0.3,0.46,0.3,0.76s-0.1,0.56-0.3,0.76c-0.2,0.2-0.48,0.3-0.83,0.3c-0.35,0-0.63-0.1-0.84-0.3
			c-0.2-0.2-0.3-0.46-0.3-0.76S538.47,119.16,538.67,118.96z"/>
		<path fill="#BA9544" d="M550.8,109.39L550.8,109.39l2.27-0.01v11.4h-2.27v-8.35l-1.52,1.52l-1.52-1.52L550.8,109.39z"/>
		<path fill="#BA9544" d="M560.37,109.4v-0.01h2.27v6.62h1.53v2.27h-1.53v2.51h-2.27v-2.51h-5.17v-2.27h0.08l-0.07-0.08
			L560.37,109.4z M560.37,116.01v-3.63l-2.77,3.63H560.37z"/>
		<path fill="#BA9544" d="M565.92,117.74v-1.51h4.71v1.51H565.92z"/>
		<path fill="#BA9544" d="M575.53,109.39L575.53,109.39l2.27-0.01v11.4h-2.27v-8.35l-1.52,1.52l-1.52-1.52L575.53,109.39z"/>
		<path fill="#BA9544" d="M586.21,115.01c0.14,0.05,0.26,0.1,0.37,0.15c0.78,0.35,1.18,1.11,1.18,2.28s-0.37,2.01-1.11,2.54
			c-0.74,0.53-1.69,0.8-2.85,0.8c-1.15,0-2.1-0.27-2.84-0.8c-0.74-0.53-1.1-1.38-1.1-2.54s0.39-1.92,1.18-2.28
			c0.11-0.05,0.24-0.1,0.37-0.15c-0.08-0.04-0.15-0.08-0.22-0.11c-0.68-0.38-1.03-1.1-1.03-2.16c0-1.06,0.33-1.89,0.99-2.47
			c0.66-0.58,1.55-0.87,2.66-0.87c1.1,0,1.99,0.29,2.65,0.87s0.99,1.41,0.99,2.47c0,1.06-0.34,1.78-1.03,2.16
			C586.36,114.93,586.29,114.97,586.21,115.01z M583.81,113.98c0.67-0.02,1.1-0.19,1.29-0.52c0.25-0.43,0.25-0.86,0-1.29
			c-0.23-0.39-0.66-0.61-1.29-0.64c-0.63,0.03-1.06,0.24-1.28,0.64c-0.25,0.43-0.25,0.86,0,1.29
			C582.71,113.79,583.14,113.96,583.81,113.98z M583.81,116.07c-0.67,0.11-1.1,0.32-1.28,0.65c-0.25,0.43-0.25,0.86,0,1.29
			c0.23,0.4,0.66,0.61,1.28,0.64c0.63-0.03,1.06-0.24,1.29-0.64c0.25-0.43,0.25-0.86,0-1.29
			C584.91,116.39,584.48,116.17,583.81,116.07z"/>
		<path fill="#BA9544" d="M590.41,114.2c-0.55-0.55-0.82-1.23-0.82-2.04s0.27-1.49,0.82-2.04c0.55-0.55,1.23-0.82,2.04-0.82
			s1.49,0.27,2.03,0.82c0.55,0.55,0.82,1.23,0.82,2.04s-0.27,1.49-0.82,2.04c-0.55,0.55-1.22,0.82-2.03,0.82
			S590.95,114.75,590.41,114.2z M592.42,113.67c0.42,0,0.77-0.14,1.04-0.43c0.27-0.29,0.4-0.65,0.4-1.08c0-0.43-0.13-0.79-0.4-1.07
			c-0.27-0.29-0.62-0.43-1.05-0.43c-0.42,0-0.76,0.14-1.03,0.43c-0.27,0.29-0.4,0.64-0.4,1.07c0,0.43,0.13,0.79,0.4,1.08
			C591.65,113.52,591.99,113.67,592.42,113.67z M591.81,120.78l6.45-11.39h1.85l-6.44,11.39H591.81z M597.47,120.03
			c-0.54-0.54-0.81-1.21-0.81-2.02s0.27-1.48,0.81-2.02c0.54-0.54,1.21-0.81,2.02-0.81c0.8,0,1.48,0.27,2.02,0.81
			c0.54,0.54,0.81,1.21,0.81,2.02s-0.27,1.48-0.81,2.02c-0.54,0.54-1.21,0.81-2.02,0.81C598.68,120.84,598.01,120.57,597.47,120.03z
			 M599.45,119.48c0.42,0,0.75-0.14,1.02-0.42c0.26-0.28,0.4-0.63,0.4-1.05c0-0.42-0.13-0.76-0.4-1.04
			c-0.26-0.28-0.6-0.42-1.02-0.42c-0.41,0-0.75,0.14-1.01,0.42c-0.26,0.28-0.39,0.63-0.39,1.04c0,0.42,0.13,0.77,0.39,1.05
			C598.7,119.34,599.04,119.48,599.45,119.48z"/>
	</g>
</g>
<g>
</g>
<g>
</g>
<g>
</g>
<g>
</g>
<g>
</g>
<g>
</g>
<g>
</g>
<g>
</g>
<g>
</g>
<g>
</g>
<g>
</g>
<g>
</g>
<g>
</g>
<g>
</g>
<g>
</g>
</svg>
