<svg id="Layer_1" data-name="Layer 1" xmlns="http://www.w3.org/2000/svg" width="728" height="90" viewBox="0 0 728 90"><defs><style>.cls-1{fill:#fff;}</style></defs><title>quality-time</title><path class="cls-1" d="M326.76123,54.33523h-2.81982V35.63211h4.04l2.625,13.41211,2.52246-13.41211h3.88623V54.33523h-2.81983v-11.751l-2.437,11.751h-2.26318L326.76123,42.6155Z"/><path class="cls-1" d="M344.78662,35.40652a4.47285,4.47285,0,0,1,4.481,4.48145V50.09011a4.47285,4.47285,0,0,1-4.481,4.48145,4.26559,4.26559,0,0,1-3.15283-1.3125,4.34265,4.34265,0,0,1-1.29736-3.16895V39.888a4.47293,4.47293,0,0,1,4.45019-4.48145Zm1.53809,4.42871a1.59158,1.59158,0,0,0-1.60987-1.6084,1.57941,1.57941,0,0,0-1.14355.46582,1.53705,1.53705,0,0,0-.47656,1.14258V50.07156a1.54265,1.54265,0,0,0,.47656,1.13672,1.56933,1.56933,0,0,0,1.14355.47168,1.6013,1.6013,0,0,0,1.60987-1.6084Z"/><path class="cls-1" d="M357.03906,35.63211a4.27206,4.27206,0,0,1,3.45557,1.30273,4.70514,4.70514,0,0,1,.97412,3.1582v2.7168a4.34974,4.34974,0,0,1-1.50488,3.35352l2.08935,8.17187h-3.041L357.292,47.27078c-.082.00683-.167.00976-.25586.00976H355.419v7.05469h-2.81983V35.63211Zm1.68164,4.51171a1.42966,1.42966,0,0,0-1.605-1.62988H355.419v5.97754h1.69677a1.53212,1.53212,0,0,0,1.13965-.47656,1.5809,1.5809,0,0,0,.46533-1.14356Z"/><path class="cls-1" d="M365.31348,54.33523V35.63211h8.02929v2.82031h-5.209v5.127h3.8037v2.81934h-3.8037V51.5159h5.209v2.81933Z"/><path class="cls-1" d="M390.60742,50.09011a4.43448,4.43448,0,0,1-.59472,2.2461,1.32731,1.32731,0,0,0,1.0664.43066v2.625a3.06148,3.06148,0,0,1-2.89161-1.333,4.16593,4.16593,0,0,1-2.04.5127,4.46288,4.46288,0,0,1-4.4707-4.48145V39.888a4.47284,4.47284,0,0,1,4.4707-4.48145,4.26456,4.26456,0,0,1,3.16309,1.32324,4.35518,4.35518,0,0,1,1.29687,3.15821Zm-2.92285-10.25488a1.5334,1.5334,0,0,0-.47656-1.14258,1.58894,1.58894,0,0,0-1.15332-.46582,1.55822,1.55822,0,0,0-1.1377.46582,1.5409,1.5409,0,0,0-.47265,1.14258V50.07156a1.61208,1.61208,0,0,0,1.61035,1.6084,1.57871,1.57871,0,0,0,1.15332-.47168,1.53892,1.53892,0,0,0,.47656-1.13672Z"/><path class="cls-1" d="M398.31738,54.57156a4.42958,4.42958,0,0,1-4.44922-4.44043v-14.499H396.626V50.10086a1.54323,1.54323,0,0,0,.47656,1.13769,1.56933,1.56933,0,0,0,1.14355.47168,1.60214,1.60214,0,0,0,1.61036-1.60937V35.63211h2.94238v14.499a4.2406,4.2406,0,0,1-1.3125,3.1582A4.37164,4.37164,0,0,1,398.31738,54.57156Z"/><path class="cls-1" d="M409.19629,50.03933l-.6875,4.2959h-2.93164l3.168-18.70312h3.88672l3.12695,18.70312h-2.95313l-.666-4.2959Zm1.47656-10.12109-1.0459,7.373h2.0918Z"/><path class="cls-1" d="M426.667,54.33523h-7.68945V35.63211h2.81934V51.5364H426.667Z"/><path class="cls-1" d="M432.25684,54.33523h-2.81935V35.63211h2.81935Z"/><path class="cls-1" d="M438.35742,38.45242h-2.99414V35.63211h8.79688v2.82031h-2.9834V54.33523h-2.81934Z"/><path class="cls-1" d="M450.71094,46.50125l-3.77345-10.86914h3.09571l2.09766,6.71679,2.07617-6.71679h3.11719l-3.794,10.86914v7.834h-2.81933Z"/><path class="cls-1" d="M466.2832,38.45242h-2.99414V35.63211h8.79688v2.82031h-2.9834V54.33523H466.2832Z"/><path class="cls-1" d="M478.0127,54.33523h-2.81934V35.63211h2.81934Z"/><path class="cls-1" d="M484.19531,54.33523H481.376V35.63211H485.415l2.625,13.41211,2.52344-13.41211h3.88574V54.33523h-2.81934v-11.751l-2.4375,11.751h-2.26269L484.19531,42.6155Z"/><path class="cls-1" d="M497.82227,54.33523V35.63211h8.02832v2.82031h-5.209v5.127h3.80371v2.81934H500.6416V51.5159h5.209v2.81933Z"/><path class="cls-1" d="M508.62891,51.52566h2.81933V54.346h-2.81933Z"/></svg>