<?xml version="1.0" encoding="utf-8"?>
<!-- Generator: Adobe Illustrator 23.0.1, SVG Export Plug-In . SVG Version: 6.00 Build 0)  -->
<svg version="1.1" id="Layer_1" xmlns="http://www.w3.org/2000/svg" xmlns:xlink="http://www.w3.org/1999/xlink" x="0px" y="0px"
	 viewBox="0 0 970 250" enable-background="new 0 0 970 250" xml:space="preserve">
<g>
	<g>
		<polygon fill="#FFFFFF" stroke="#BA9544" stroke-width="0.5" stroke-miterlimit="10" points="612.27,151.64 379.67,150.76 
			367.93,167.7 379.67,184.33 612.27,183.93 622.84,167.79 		"/>
		<g>
			<defs>
				<polygon id="SVGID_1_" points="368.18,167.74 379.92,184.37 408.75,184.39 408.75,150.81 379.92,150.8 				"/>
			</defs>
			<use xlink:href="#SVGID_1_"  overflow="visible" fill="#BA9544"/>
			<clipPath id="SVGID_2_">
				<use xlink:href="#SVGID_1_"  overflow="visible"/>
			</clipPath>
			<g clip-path="url(#SVGID_2_)">
				<defs>
					<rect id="SVGID_3_" x="365.58" y="148.2" width="17.16" height="38.78"/>
				</defs>
				<use xlink:href="#SVGID_3_"  overflow="visible" fill="#BA9544"/>
				<clipPath id="SVGID_4_">
					<use xlink:href="#SVGID_3_"  overflow="visible"/>
				</clipPath>
			</g>
		</g>
	</g>
	<g>
		<path fill="#BA9544" d="M504.58,173.28c-1.09-1.09-1.64-2.45-1.64-4.08c0-1.6,0.55-2.94,1.64-4.04c1.09-1.09,2.44-1.64,4.05-1.64
			c1.63,0,3.02,0.51,4.18,1.52l-1.52,1.66c-0.77-0.61-1.66-0.91-2.67-0.91c-1.02,0-1.85,0.32-2.47,0.96
			c-0.63,0.63-0.94,1.44-0.94,2.43c0,1.06,0.32,1.9,0.95,2.52c0.63,0.62,1.45,0.93,2.48,0.93c1.02,0,1.91-0.3,2.65-0.9l1.52,1.66
			c-1.16,1.01-2.55,1.52-4.18,1.52C507.02,174.91,505.67,174.37,504.58,173.28z"/>
		<path fill="#BA9544" d="M523.35,168.91c1,0.67,1.53,1.54,1.59,2.6c-0.1,2.15-1.25,3.28-3.44,3.41l-6.41-0.01v-11.38h6.04
			c1.92,0.11,2.93,1.23,3.04,3.35C524.14,167.9,523.86,168.57,523.35,168.91z M517.38,168.1h3.19c0.92-0.02,1.39-0.49,1.41-1.42
			c-0.03-0.56-0.49-0.85-1.39-0.88h-3.21V168.1z M517.38,173.14h3.72c1.07-0.02,1.61-0.56,1.64-1.65c-0.03-0.73-0.56-1.11-1.62-1.14
			h-3.74V173.14z"/>
		<path fill="#BA9544" d="M527.21,174.92v-11.4h4.39c3.54,0,5.31,1.9,5.31,5.7c0,3.8-1.77,5.69-5.31,5.69H527.21z M531.6,172.65
			c2.02,0,3.03-1.15,3.04-3.42c-0.01-2.28-1.02-3.42-3.04-3.42h-2.11v6.84H531.6z"/>
		<path fill="#BA9544" d="M539.46,167.66c0.2-0.21,0.48-0.31,0.82-0.31c0.36,0,0.65,0.1,0.85,0.31c0.2,0.21,0.3,0.46,0.3,0.76
			s-0.1,0.56-0.3,0.76c-0.2,0.2-0.48,0.3-0.83,0.3c-0.35,0-0.63-0.1-0.84-0.3c-0.2-0.2-0.3-0.46-0.3-0.76
			S539.25,167.86,539.46,167.66z M539.46,173.09c0.2-0.21,0.48-0.31,0.82-0.31c0.36,0,0.65,0.1,0.85,0.31
			c0.2,0.21,0.3,0.46,0.3,0.76s-0.1,0.56-0.3,0.76c-0.2,0.2-0.48,0.3-0.83,0.3c-0.35,0-0.63-0.1-0.84-0.3
			c-0.2-0.2-0.3-0.46-0.3-0.76S539.25,173.3,539.46,173.09z"/>
		<path fill="#BA9544" d="M556.86,168.58c-0.03,2.42-0.49,4.11-1.37,5.05s-1.98,1.36-3.29,1.25c-1.31-0.16-2.33-0.64-3.06-1.44
			l1.28-1.4c0.53,0.36,1.16,0.57,1.9,0.65c0.65,0.07,1.19-0.1,1.63-0.49c0.43-0.39,0.71-1.01,0.84-1.86
			c-0.83,0.58-1.62,0.83-2.36,0.76c-1.31-0.13-2.25-0.57-2.81-1.31c-0.56-0.74-0.79-1.69-0.67-2.85c0.11-1.06,0.55-1.92,1.33-2.58
			s1.82-0.92,3.13-0.79c1.15,0.2,2,0.7,2.56,1.51C556.52,165.88,556.82,167.05,556.86,168.58z M554.58,167.33
			c-0.05-1.06-0.66-1.61-1.82-1.66c-1.16,0.04-1.77,0.55-1.82,1.51c0.05,1.27,0.68,1.9,1.9,1.9
			C553.9,169.03,554.48,168.44,554.58,167.33z"/>
		<path fill="#BA9544" d="M558.88,171.87v-1.51h4.71v1.51H558.88z"/>
		<path fill="#BA9544" d="M568.5,163.53L568.5,163.53l2.27-0.01v11.4h-2.27v-8.35l-1.52,1.52l-1.52-1.52L568.5,163.53z"/>
		<path fill="#BA9544" d="M580.13,169.15c0.14,0.05,0.26,0.1,0.37,0.15c0.78,0.35,1.18,1.11,1.18,2.28c0,0.91-0.42,1.7-1.26,2.35
			c-0.84,0.66-1.81,0.99-2.93,0.99c-1.06,0-1.94-0.15-2.65-0.46c-0.71-0.3-1.32-0.71-1.82-1.21l1.52-1.52
			c0.51,0.61,1.37,0.96,2.58,1.06c1.01,0,1.64-0.21,1.89-0.65c0.25-0.43,0.25-0.86,0-1.29c-0.25-0.43-1.13-0.67-2.65-0.72v-2.05
			c1.51,0.1,2.4-0.06,2.65-0.49c0.25-0.43,0.25-0.86,0-1.29c-0.25-0.43-0.88-0.65-1.89-0.65c-0.96,0-1.7,0.3-2.2,0.91l-1.52-1.52
			c0.51-0.51,1.05-0.89,1.63-1.14c0.58-0.25,1.4-0.38,2.46-0.38c1.11,0,2.04,0.33,2.78,0.99s1.1,1.44,1.1,2.35
			c0,1.06-0.34,1.78-1.02,2.16C580.28,169.07,580.21,169.11,580.13,169.15z"/>
		<path fill="#BA9544" d="M584.19,168.34c-0.55-0.55-0.82-1.23-0.82-2.04s0.27-1.49,0.82-2.03c0.55-0.55,1.23-0.82,2.04-0.82
			s1.49,0.27,2.03,0.82c0.55,0.55,0.82,1.22,0.82,2.03s-0.27,1.49-0.82,2.04c-0.55,0.55-1.22,0.82-2.03,0.82
			S584.73,168.88,584.19,168.34z M586.2,167.8c0.42,0,0.77-0.14,1.04-0.43c0.27-0.29,0.4-0.65,0.4-1.08c0-0.43-0.13-0.79-0.4-1.07
			c-0.27-0.29-0.62-0.43-1.05-0.43c-0.42,0-0.76,0.14-1.03,0.43c-0.27,0.29-0.4,0.64-0.4,1.07c0,0.43,0.13,0.79,0.4,1.08
			C585.43,167.66,585.77,167.8,586.2,167.8z M585.59,174.92l6.45-11.39h1.85l-6.44,11.39H585.59z M591.25,174.17
			c-0.54-0.54-0.81-1.21-0.81-2.02s0.27-1.48,0.81-2.02c0.54-0.54,1.21-0.81,2.02-0.81c0.8,0,1.48,0.27,2.02,0.81
			c0.54,0.54,0.81,1.21,0.81,2.02s-0.27,1.48-0.81,2.02c-0.54,0.54-1.21,0.81-2.02,0.81C592.46,174.98,591.79,174.71,591.25,174.17z
			 M593.23,173.61c0.42,0,0.75-0.14,1.02-0.42c0.26-0.28,0.4-0.63,0.4-1.05c0-0.42-0.13-0.76-0.4-1.04
			c-0.26-0.28-0.6-0.42-1.02-0.42c-0.41,0-0.75,0.14-1.01,0.42c-0.26,0.28-0.39,0.63-0.39,1.04c0,0.42,0.13,0.77,0.39,1.05
			C592.48,173.47,592.82,173.61,593.23,173.61z"/>
	</g>
</g>
<g>
</g>
<g>
</g>
<g>
</g>
<g>
</g>
<g>
</g>
<g>
</g>
<g>
</g>
<g>
</g>
<g>
</g>
<g>
</g>
<g>
</g>
<g>
</g>
<g>
</g>
<g>
</g>
<g>
</g>
</svg>
