<svg id="Content" xmlns="http://www.w3.org/2000/svg" xmlns:xlink="http://www.w3.org/1999/xlink" width="300" height="250" viewBox="0 0 300 250"><defs><style>.cls-1{fill:url(#New_Gradient_Swatch_1);}.cls-2{fill:#fff;}.cls-3{fill:#ba9544;}</style><linearGradient id="New_Gradient_Swatch_1" x1="164.05015" y1="156.11856" x2="192.91186" y2="156.11856" gradientUnits="userSpaceOnUse"><stop offset="0" stop-color="#a88a34"/><stop offset="0.49324" stop-color="#caaf67"/><stop offset="1" stop-color="#957f2e"/></linearGradient></defs><title>sweet</title><polygon class="cls-1" points="176.039 170.881 164.05 157.036 173.513 141.356 191.351 145.51 192.912 163.757 176.039 170.881"/><path class="cls-2" d="M185.63719,151.11859a.71664.71664,0,0,1-.71613-.71612,1.15868,1.15868,0,0,0-1.15924-1.15924h-.37865a.78134.78134,0,0,0-.782.7806v2.70535a3.8103,3.8103,0,0,0-5.01285.33063l-.72574.72572a3.81031,3.81031,0,0,0-.33062,5.01287h-2.70535a.78046.78046,0,0,0-.78061.782v.37864a1.15869,1.15869,0,0,0,1.15925,1.15925.71663.71663,0,0,1,.71613.71612,1.15867,1.15867,0,0,0,1.15924,1.15924h.37864a.78132.78132,0,0,0,.782-.7806v-2.70536a3.81032,3.81032,0,0,0,5.01288-.33062l.72571-.72573a3.81024,3.81024,0,0,0,.33062-5.01286h2.70536a.78133.78133,0,0,0,.7806-.782v-.37864a1.15867,1.15867,0,0,0-1.15922-1.15924"/><path class="cls-3" d="M166.67775,179.7002a2.53865,2.53865,0,0,1,.77832.543l-.72363.72364a1.24453,1.24453,0,0,0-1.0127-.43457q-.65186,0-.832.30761a.42171.42171,0,0,0,0,.52442,1.42765,1.42765,0,0,0,.832.32519,2.705,2.705,0,0,1,1.24805.45215,1.36091,1.36091,0,0,1,.56055,1.21192,1.3919,1.3919,0,0,1-.59864,1.12109,2.18854,2.18854,0,0,1-1.39453.4707,3.21937,3.21937,0,0,1-1.26269-.21679,2.73192,2.73192,0,0,1-.86817-.57911l.72364-.72363a1.71969,1.71969,0,0,0,1.22949.50684q.72363,0,.90234-.30762a.57023.57023,0,0,0,0-.61523q-.17871-.30762-.90234-.37989a2.91381,2.91381,0,0,1-1.19336-.39746,1.20112,1.20112,0,0,1-.543-1.12109,1.35155,1.35155,0,0,1,.61719-1.15625,2.17591,2.17591,0,0,1,1.26758-.43555A3.03622,3.03622,0,0,1,166.67775,179.7002Z"/><path class="cls-3" d="M171.79689,180.9668l-1.085,3.97851H169.626l-1.45019-5.42578H169.333l.94434,3.68945.97656-3.68945h1.1211l.94043,3.68945.9414-3.68945h1.15723l-1.44727,5.42578h-1.085Z"/><path class="cls-3" d="M176.20314,184.94531v-5.42187l3.98633-.00391v1.0127H177.2881v1.15722h2.17383v1.00977H177.2881v1.2334h2.89356v1.01269Z"/><path class="cls-3" d="M181.26759,184.94531v-5.42187l3.98633-.00391v1.0127h-2.90137v1.15722h2.17383v1.00977h-2.17383v1.2334h2.89356v1.01269Z"/><path class="cls-3" d="M190.77345,179.51953v1.0127h-1.80859v4.41308h-1.085v-4.41308h-1.8086v-1.0127Z"/></svg>