<svg id="Content" xmlns="http://www.w3.org/2000/svg" width="320" height="568" viewBox="0 0 320 568"><defs><style>.cls-1{fill:#b89344;}</style></defs><title>Frame2 - Shishkaberry</title><path class="cls-1" d="M75.16406,309.78711c3.34864,0,5.07032,2.00293,5.07032,5.50781v.68848H76.97949v-.9082c0-1.56446-.626-2.15918-1.72168-2.15918-1.09472,0-1.7207.59472-1.7207,2.15918,0,4.50683,6.72851,5.35156,6.72851,11.61132,0,3.50489-1.75292,5.50782-5.13281,5.50782S70,330.19141,70,326.68652v-1.3457h3.25488v1.56445c0,1.56543.68848,2.12793,1.78418,2.12793s1.78418-.5625,1.78418-2.12793c0-4.50683-6.72949-5.35156-6.72949-11.61035C70.09375,311.79,71.81543,309.78711,75.16406,309.78711Z"/><path class="cls-1" d="M88.99414,331.94434H85.55176V310.03711h3.44238v9.38867h3.91211v-9.38867h3.50488v21.90723H92.90625v-9.38868H88.99414Z"/><path class="cls-1" d="M102.22852,310.03711h3.44238v21.90723h-3.44238Z"/><path class="cls-1" d="M116.12207,309.78711c3.34863,0,5.06934,2.00293,5.06934,5.50781v.68848h-3.25489v-.9082c0-1.56446-.626-2.15918-1.7207-2.15918-1.0957,0-1.72168.59472-1.72168,2.15918,0,4.50683,6.72852,5.35156,6.72852,11.61132,0,3.50489-1.752,5.50782-5.13184,5.50782-3.38086,0-5.13281-2.00293-5.13281-5.50782v-1.3457h3.25488v1.56445c0,1.56543.68848,2.12793,1.7832,2.12793,1.09571,0,1.78418-.5625,1.78418-2.12793,0-4.50683-6.72851-5.35156-6.72851-11.61035C111.05176,311.79,112.77344,309.78711,116.12207,309.78711Z"/><path class="cls-1" d="M129.95117,331.94434h-3.44238V310.03711h3.44238v9.38867h3.91211v-9.38867h3.50488v21.90723h-3.50488v-9.38868h-3.91211Z"/><path class="cls-1" d="M147.69238,323.21289l-1.06445,2.00293v6.72852h-3.44238V310.03711h3.44238V319.582l4.50684-9.54492h3.44238l-4.78809,9.76465,4.78809,12.14258H151.041Z"/><path class="cls-1" d="M170.59668,331.94434h-3.47363l-.59473-3.97461h-4.22461l-.59473,3.97461h-3.16113l3.50586-21.90723h5.03809Zm-7.85449-6.94825h3.31738L164.40039,313.918Z"/><path class="cls-1" d="M185.80371,315.0752v.7832c0,2.25293-.68848,3.69238-2.22168,4.41211,1.8457.71972,2.56641,2.3789,2.56641,4.69433V326.749c0,3.37989-1.78418,5.19532-5.22656,5.19532h-5.41407V310.03711h5.19434C184.27051,310.03711,185.80371,311.69531,185.80371,315.0752ZM178.9502,313.167v5.78906h1.3457c1.2832,0,2.06543-.56347,2.06543-2.31543v-1.2207c0-1.56445-.53223-2.25293-1.75293-2.25293Zm0,8.91895v6.72851h1.97168c1.15722,0,1.7832-.53222,1.7832-2.15918v-1.90918c0-2.03418-.65723-2.66015-2.22168-2.66015Z"/><path class="cls-1" d="M194.96973,319.26953h4.72558v3.12891h-4.72558v6.416H200.916v3.12989h-9.38868V310.03711H200.916V313.167h-5.94629Z"/><path class="cls-1" d="M213.55664,331.94434a6.74136,6.74136,0,0,1-.31348-2.69141v-3.44238c0-2.03418-.68847-2.78614-2.25293-2.78614h-1.18945v8.91993H206.3584V310.03711h5.19531c3.56738,0,5.10156,1.6582,5.10156,5.03809v1.72168c0,2.25292-.7207,3.7246-2.2539,4.44433,1.72168.71973,2.28515,2.37793,2.28515,4.66309v3.37988a6.46126,6.46126,0,0,0,.375,2.66016ZM209.80078,313.167v6.72852h1.3457c1.28321,0,2.06543-.56348,2.06543-2.31641v-2.15918c0-1.56445-.53125-2.25293-1.75195-2.25293Z"/><path class="cls-1" d="M229.45117,331.94434a6.7492,6.7492,0,0,1-.3125-2.69141v-3.44238c0-2.03418-.68847-2.78614-2.25293-2.78614h-1.18945v8.91993h-3.44238V310.03711h5.19433c3.56836,0,5.10156,1.6582,5.10156,5.03809v1.72168c0,2.25292-.71972,3.7246-2.25292,4.44433,1.7207.71973,2.28417,2.37793,2.28417,4.66309v3.37988a6.44446,6.44446,0,0,0,.376,2.66016ZM225.69629,313.167v6.72852h1.3457c1.28321,0,2.06543-.56348,2.06543-2.31641v-2.15918c0-1.56445-.53222-2.25293-1.75293-2.25293Z"/><path class="cls-1" d="M241.37109,324.68359l-4.34961-14.64648h3.59864l2.6289,9.9834,2.62891-9.9834h3.28613l-4.34961,14.64648v7.26075h-3.44336Z"/></svg>