<svg id="Layer_1" data-name="Layer 1" xmlns="http://www.w3.org/2000/svg" width="300" height="250" viewBox="0 0 300 250"><defs><style>.cls-1{fill:#ab9555;}</style></defs><title>frame1</title><path class="cls-1" d="M115.75928,162.15137a4.00873,4.00873,0,0,1-4.03516-4.02149V145.05469h2.49658v13.04883a1.39571,1.39571,0,0,0,.43164,1.03222,1.42873,1.42873,0,0,0,1.03907.42481,1.45045,1.45045,0,0,0,1.45752-1.457V145.05469h2.65869v13.07519a3.84346,3.84346,0,0,1-1.1875,2.86133A3.94709,3.94709,0,0,1,115.75928,162.15137Z"/><path class="cls-1" d="M127.21729,145.041l3.38476,11.37207V145.041h2.55029v16.92187h-2.73925l-3.5083-10.83594v10.83594H124.354V145.041Z"/><path class="cls-1" d="M141.73389,145.05469a3.88348,3.88348,0,0,1,2.96875,1.17383,4.07429,4.07429,0,0,1,1.0249,2.86035v2.45605a3.93642,3.93642,0,0,1-1.1665,2.86133,3.8206,3.8206,0,0,1-2.82715,1.1875h-1.47071v6.36914H137.7124v-16.9082Zm1.5249,4.07519a1.45511,1.45511,0,0,0-.398-1.0664,1.421,1.421,0,0,0-1.05957-.40528h-1.53809v5.41211h1.53809a1.394,1.394,0,0,0,1.03223-.43261,1.42489,1.42489,0,0,0,.42529-1.03907Z"/><path class="cls-1" d="M156.99512,161.96289h-6.9502v-16.9082h2.55078v14.37109h4.39942Z"/><path class="cls-1" d="M165.06445,162.15137a4.00789,4.00789,0,0,1-4.03515-4.02149V145.05469h2.49707v13.04883a1.39382,1.39382,0,0,0,.43164,1.03222,1.42634,1.42634,0,0,0,1.03906.42481,1.45043,1.45043,0,0,0,1.457-1.457V145.05469h2.6582v13.07519a3.84159,3.84159,0,0,1-1.1875,2.86133A3.94434,3.94434,0,0,1,165.06445,162.15137Z"/><path class="cls-1" d="M177.667,162.17871a4.04273,4.04273,0,0,1-4.04883-4.03516v-9.22949a4.04153,4.04153,0,1,1,8.083,0v1.92969h-2.64453v-1.98437a1.47372,1.47372,0,0,0-1.4707-1.47071,1.396,1.396,0,0,0-1.03223.43164,1.42658,1.42658,0,0,0-.42578,1.03907v9.25781a1.45208,1.45208,0,0,0,1.458,1.457,1.43252,1.43252,0,0,0,1.03906-.42383,1.39109,1.39109,0,0,0,.43164-1.0293v-3.32421h-1.417V152.2334h4.06152v5.91015a4.031,4.031,0,0,1-4.03418,4.03516Z"/><path class="cls-1" d="M185.73438,159.42578h2.55078v2.55078h-2.55078Z"/></svg>