<svg id="Layer_1" data-name="Layer 1" xmlns="http://www.w3.org/2000/svg" width="300" height="250" viewBox="0 0 300 250"><defs><style>.cls-1{fill:#ab9555;}</style></defs><title>frame2</title><path class="cls-1" d="M114.72363,161.96281h-6.9497V145.0546h2.55078v14.3711h4.39892Z"/><path class="cls-1" d="M122.79248,144.83878a4.04354,4.04354,0,0,1,4.04834,4.04785v9.23047a4.04177,4.04177,0,1,1-8.0835,0v-9.23047a4.04273,4.04273,0,0,1,4.03516-4.04785Zm1.38965,3.99414a1.45045,1.45045,0,0,0-1.45752-1.457,1.42869,1.42869,0,0,0-1.03906.42481,1.39567,1.39567,0,0,0-.43164,1.03222v9.25684a1.39784,1.39784,0,0,0,.43164,1.0332,1.42869,1.42869,0,0,0,1.03906.42481,1.45046,1.45046,0,0,0,1.45752-1.458Z"/><path class="cls-1" d="M135.35547,144.83878a4.04354,4.04354,0,0,1,4.04834,4.04785v9.23047a4.04177,4.04177,0,1,1-8.0835,0v-9.23047a4.04273,4.04273,0,0,1,4.03516-4.04785Zm1.38965,3.99414a1.45045,1.45045,0,0,0-1.45752-1.457,1.42869,1.42869,0,0,0-1.03906.42481,1.39568,1.39568,0,0,0-.43165,1.03222v9.25684a1.39785,1.39785,0,0,0,.43165,1.0332,1.42869,1.42869,0,0,0,1.03906.42481,1.45046,1.45046,0,0,0,1.45752-1.458Z"/><path class="cls-1" d="M146.47363,156.59952v5.36329h-2.55029V145.04093h2.55029v6.03223l3.11719-6.03223h2.71875l-3.49023,6.90234,4.09375,10.01954H149.915l-2.67774-6.87012Z"/><path class="cls-1" d="M169.04688,162.15226a4.0079,4.0079,0,0,1-4.03516-4.02149V145.0546h2.49707v13.04883a1.39232,1.39232,0,0,0,.43164,1.03223,1.42341,1.42341,0,0,0,1.03906.42578,1.45207,1.45207,0,0,0,1.457-1.458V145.0546h2.65821v13.07617a3.83949,3.83949,0,0,1-1.1875,2.86036A3.94137,3.94137,0,0,1,169.04688,162.15226Z"/><path class="cls-1" d="M181.66309,145.0546a3.887,3.887,0,0,1,2.96875,1.17383,4.07322,4.07322,0,0,1,1.02539,2.86133v2.456a3.93116,3.93116,0,0,1-1.167,2.86036,3.81691,3.81691,0,0,1-2.82714,1.1875h-1.47071v6.36914H177.6416V145.0546Zm1.52441,4.0752a1.456,1.456,0,0,0-.39746-1.06543,1.418,1.418,0,0,0-1.05957-.40528h-1.53809v5.41114h1.53809a1.39236,1.39236,0,0,0,1.03223-.43164,1.42956,1.42956,0,0,0,.4248-1.03907Z"/><path class="cls-1" d="M189.69141,159.4257h2.55078v2.55078h-2.55078Z"/></svg>