<svg id="Layer_1" data-name="Layer 1" xmlns="http://www.w3.org/2000/svg" width="300" height="250" viewBox="0 0 300 250"><defs><style>.cls-1{fill:#ab9555;}</style></defs><title>frame3</title><path class="cls-1" d="M92.219,161.96334V145.04147h3.81885a4.86692,4.86692,0,0,1,2.72607.79589,3.707,3.707,0,0,1,1.48438,2.0918,5.88569,5.88569,0,0,1,.24268,1.79492,3.97327,3.97327,0,0,1-.90381,2.72559,2.56561,2.56561,0,0,1-.89063.66113,2.96379,2.96379,0,0,1,1.44385,1.28223,4.98551,4.98551,0,0,1,.58008,1.67285,6.66782,6.66782,0,0,1,.09472,1.17383,5.65328,5.65328,0,0,1-.60742,2.72656,3.643,3.643,0,0,1-1.33594,1.40332,3.682,3.682,0,0,1-1.92968.59375Zm2.75293-10.01269h1.06592a1.56283,1.56283,0,0,0,1.59277-1.16114,3.31164,3.31164,0,0,0,.14844-1.06543,2.231,2.231,0,0,0-.51318-1.59277,1.61279,1.61279,0,0,0-1.228-.499H94.9719Zm0,7.48925h1.06592a1.80986,1.80986,0,0,0,1.79492-1.33593,2.94088,2.94088,0,0,0,.1753-1.05274,3.20513,3.20513,0,0,0-.53956-2.06445,1.73867,1.73867,0,0,0-1.43066-.59375H94.9719Z"/><path class="cls-1" d="M109.32884,145.05514a3.88769,3.88769,0,0,1,3.13086,1.17383,4.26764,4.26764,0,0,1,.877,2.86035v2.45605a3.95164,3.95164,0,0,1-1.36279,3.03613l1.88867,7.38184h-2.75782l-1.54638-6.36914h-1.7002v6.36914h-2.55078v-16.9082Zm1.5249,4.07519a1.29483,1.29483,0,0,0-1.45752-1.47168h-1.53809v5.41211h1.53809a1.394,1.394,0,0,0,1.03223-.43261,1.42489,1.42489,0,0,0,.42529-1.03907Z"/><path class="cls-1" d="M118.32884,161.96334V145.04147h7.26025v2.56347h-4.70947v4.61524h3.44092v2.56347h-3.44092v4.61524h4.70947v2.56445Z"/><path class="cls-1" d="M132.89817,158.07662l-.61963,3.88672h-2.65576l2.87451-16.9082h3.5083l2.834,16.9082h-2.68164l-.59668-3.88672Zm1.33985-9.14941-.94483,6.667h1.88965Z"/><path class="cls-1" d="M143.58958,147.61861h-2.7124v-2.56347h7.96142v2.56347h-2.69922v14.34473h-2.5498Z"/><path class="cls-1" d="M155.72044,154.79733v7.166h-2.55078v-16.9082h2.55078v7.17871h3.07617v-7.17871h2.55078v16.9082h-2.55078v-7.166Z"/><path class="cls-1" d="M165.90794,161.96334V145.04147h7.25976v2.56347h-4.709v4.61524h3.44043v2.56347h-3.44043v4.61524h4.709v2.56445Z"/><path class="cls-1" d="M187.82005,161.96334h-2.55078v-16.9082h2.55078Z"/><path class="cls-1" d="M195.2429,145.04147l3.38476,11.37207V145.04147h2.55079v16.92187h-2.73926L194.9304,151.1274v10.83594h-2.55078V145.04147Z"/><path class="cls-1" d="M205.21263,159.42623h2.55078V161.977h-2.55078Z"/></svg>