<svg xmlns="http://www.w3.org/2000/svg" width="320" height="480" viewBox="0 0 320 480"><defs><style>.cls-1{fill:#ba9544;}</style></defs><title>Frame1 - Shishkaberry</title><g id="Content"><path class="cls-1" d="M73.3374,219.59961c5.52832,0,8.36963,3.30664,8.36963,9.09277v1.13672H76.334v-1.49805c0-2.584-1.0332-3.56543-2.84179-3.56543-1.80811,0-2.8418.98145-2.8418,3.56543,0,7.43946,11.1084,8.835,11.1084,19.168,0,5.78711-2.89307,9.09375-8.47315,9.09375s-8.47314-3.30664-8.47314-9.09375v-2.22168h5.37305v2.583c0,2.584,1.13672,3.51367,2.94531,3.51367,1.8081,0,2.94482-.92968,2.94482-3.51367,0-7.43945-11.10839-8.835-11.10839-19.168C64.96729,222.90625,67.80908,219.59961,73.3374,219.59961Z"/><path class="cls-1" d="M96.17236,256.17871h-5.6831v-36.166h5.6831v15.5h6.458v-15.5H108.417v36.166h-5.78662v-15.5h-6.458Z"/><path class="cls-1" d="M118.02441,220.0127h5.6836v36.166h-5.6836Z"/><path class="cls-1" d="M140.96338,219.59961c5.52832,0,8.36963,3.30664,8.36963,9.09277v1.13672H143.96v-1.49805c0-2.584-1.0332-3.56543-2.8418-3.56543-1.8081,0-2.84179.98145-2.84179,3.56543,0,7.43946,11.1084,8.835,11.1084,19.168,0,5.78711-2.89307,9.09375-8.47315,9.09375s-8.47314-3.30664-8.47314-9.09375v-2.22168h5.373v2.583c0,2.584,1.13672,3.51367,2.94532,3.51367,1.8081,0,2.94482-.92968,2.94482-3.51367,0-7.43945-11.1084-8.835-11.1084-19.168C132.59326,222.90625,135.43506,219.59961,140.96338,219.59961Z"/><path class="cls-1" d="M163.79785,256.17871h-5.68359v-36.166h5.68359v15.5h6.458v-15.5h5.78662v36.166h-5.78662v-15.5h-6.458Z"/><path class="cls-1" d="M193.09082,241.76367l-1.75684,3.30664v11.1084h-5.68359v-36.166H191.334v15.75781l7.44-15.75781h5.6831l-7.90478,16.12011,7.90478,20.0459h-5.83838Z"/><path class="cls-1" d="M230.90869,256.17871h-5.73486l-.98194-6.56152H217.2168l-.98145,6.56152h-5.21826l5.78662-36.166h8.31836ZM217.94043,244.709H223.417l-2.73828-18.29Z"/><path class="cls-1" d="M238.75977,235.5127h10.33349v5.166H238.75977Z"/><path class="cls-1" d="M114.3833,278.33105v1.291c0,3.7207-1.13672,6.09668-3.66846,7.28516,3.04834,1.18847,4.23682,3.92675,4.23682,7.75v2.94531c0,5.58008-2.94531,8.57617-8.62842,8.57617H97.38477v-36.166h8.57666C111.85156,270.0127,114.3833,272.751,114.3833,278.33105Zm-11.31494-3.15136v9.55761H105.29c2.11816,0,3.40967-.92968,3.40967-3.82324v-2.01465c0-2.584-.87793-3.71972-2.89307-3.71972Zm0,14.72461v11.1084h3.25488c1.91162,0,2.94483-.87891,2.94483-3.56543V294.2959c0-3.3584-1.085-4.3916-3.668-4.3916Z"/><path class="cls-1" d="M129.52,285.25391h7.80176v5.167H129.52v10.5918h9.81641v5.166H123.83691v-36.166h15.49952v5.167H129.52Z"/><path class="cls-1" d="M160.208,306.17871c-.30957-.92969-.5166-1.49805-.5166-4.44336v-5.68262c0-3.35839-1.13672-4.59863-3.71973-4.59863H154.0083v14.72461h-5.6831v-36.166h8.57617c5.89013,0,8.42187,2.73828,8.42187,8.31835v2.8418c0,3.71973-1.18847,6.14746-3.72021,7.33594,2.84179,1.18848,3.772,3.92676,3.772,7.69824v5.58008a10.64856,10.64856,0,0,0,.61963,4.3916Zm-6.19971-30.999v11.10742H156.23c2.11816,0,3.40967-.92969,3.40967-3.82324v-3.56446c0-2.584-.87793-3.71972-2.89307-3.71972Z"/><path class="cls-1" d="M186.45312,306.17871c-.30957-.92969-.5166-1.49805-.5166-4.44336v-5.68262c0-3.35839-1.13672-4.59863-3.71972-4.59863h-1.96338v14.72461h-5.68311v-36.166h8.57617c5.89014,0,8.42188,2.73828,8.42188,8.31835v2.8418c0,3.71973-1.18848,6.14746-3.72022,7.33594,2.8418,1.18848,3.772,3.92676,3.772,7.69824v5.58008a10.64856,10.64856,0,0,0,.61963,4.3916Zm-6.1997-30.999v11.10742h2.22168c2.11816,0,3.40967-.92969,3.40967-3.82324v-3.56446c0-2.584-.87793-3.71972-2.89307-3.71972Z"/><path class="cls-1" d="M206.13623,294.19238l-7.18164-24.17968h5.94189l4.33985,16.48144,4.33984-16.48144H219.001l-7.18116,24.17968v11.98633h-5.68359Z"/></g></svg>