<svg xmlns="http://www.w3.org/2000/svg" width="320" height="480" viewBox="0 0 320 480"><defs><style>.cls-1{fill:#ba9544;}</style></defs><title>Frame1 - Ultra Sour</title><g id="Content"><path class="cls-1" d="M104.67041,220.0127v27.89941c0,2.584,1.13672,3.51367,2.94482,3.51367,1.8086,0,2.94483-.92969,2.94483-3.51367V220.0127h5.37353v27.53808c0,5.78613-2.89355,9.09277-8.47314,9.09277-5.58008,0-8.47363-3.30664-8.47363-9.09277V220.0127Z"/><path class="cls-1" d="M125.28418,220.0127h5.68311v31h9.35156v5.166H125.28418Z"/><path class="cls-1" d="M146.62012,220.0127H164.187v5.167h-5.94189v30.999H152.562v-30.999h-5.94189Z"/><path class="cls-1" d="M184.0249,256.17871c-.31006-.92969-.5166-1.49805-.5166-4.44336v-5.68262c0-3.35839-1.13672-4.59863-3.71973-4.59863H177.8252v14.72461h-5.6836v-36.166h8.57666c5.89014,0,8.42188,2.73828,8.42188,8.31835v2.8418c0,3.71973-1.18848,6.14746-3.72022,7.33594,2.8418,1.18848,3.772,3.92676,3.772,7.69824v5.58008a10.64856,10.64856,0,0,0,.61963,4.3916Zm-6.1997-30.999v11.10742h2.22168c2.11816,0,3.40966-.92969,3.40966-3.82324v-3.56446c0-2.584-.87793-3.71972-2.89306-3.71972Z"/><path class="cls-1" d="M216.77979,256.17871h-5.73487l-.98193-6.56152h-6.9751l-.98144,6.56152h-5.21827l5.78662-36.166h8.31836ZM203.81152,244.709h5.47657l-2.73829-18.29Z"/><path class="cls-1" d="M118.20605,269.59961c5.52833,0,8.36963,3.30664,8.36963,9.09277v1.13672h-5.373v-1.498c0-2.584-1.03321-3.56543-2.8418-3.56543-1.80811,0-2.84131.98145-2.84131,3.56543,0,7.43946,11.10791,8.835,11.10791,19.168,0,5.78711-2.89306,9.09375-8.47314,9.09375s-8.47315-3.30664-8.47315-9.09375v-2.22168h5.373v2.583c0,2.584,1.13672,3.51367,2.94482,3.51367,1.8086,0,2.94532-.92968,2.94532-3.51367,0-7.43945-11.1084-8.835-11.1084-19.168C109.83594,272.90625,112.67773,269.59961,118.20605,269.59961Z"/><path class="cls-1" d="M134.89258,278.69238c0-5.78613,3.04834-9.09277,8.62842-9.09277s8.62841,3.30664,8.62841,9.09277V297.499c0,5.78711-3.04834,9.09375-8.62841,9.09375s-8.62842-3.30664-8.62842-9.09375Zm5.68359,19.168c0,2.584,1.13623,3.56543,2.94483,3.56543,1.8081,0,2.94482-.98144,2.94482-3.56543v-19.5293c0-2.584-1.13672-3.56543-2.94482-3.56543-1.8086,0-2.94483.98145-2.94483,3.56543Z"/><path class="cls-1" d="M166.71729,270.0127v27.89941c0,2.584,1.13671,3.51367,2.94482,3.51367,1.80859,0,2.94482-.92969,2.94482-3.51367V270.0127h5.37354v27.53808c0,5.78613-2.89356,9.09277-8.47315,9.09277-5.58007,0-8.47363-3.30664-8.47363-9.09277V270.0127Z"/><path class="cls-1" d="M199.21387,306.17871c-.30957-.92969-.5166-1.49805-.5166-4.44336v-5.68262c0-3.35839-1.13672-4.59863-3.71973-4.59863h-1.96338v14.72461h-5.68311v-36.166h8.57618c5.89013,0,8.42187,2.73828,8.42187,8.31835v2.8418c0,3.71973-1.18848,6.14746-3.72021,7.33594,2.84179,1.18848,3.772,3.92676,3.772,7.69824v5.58008a10.64856,10.64856,0,0,0,.61963,4.3916Zm-6.19971-30.999v11.10742h2.22168c2.11816,0,3.40967-.92969,3.40967-3.82324v-3.56446c0-2.584-.87793-3.71972-2.89307-3.71972Z"/></g></svg>