<svg id="Layer_1" data-name="Layer 1" xmlns="http://www.w3.org/2000/svg" xmlns:xlink="http://www.w3.org/1999/xlink" width="970" height="250" viewBox="0 0 970 250"><defs><style>.cls-1{fill:url(#linear-gradient);}.cls-2{fill:url(#linear-gradient-2);}.cls-3{fill:#231f20;}</style><linearGradient id="linear-gradient" x1="675.42523" y1="115.02871" x2="907.00677" y2="115.02871" gradientTransform="matrix(1, 0, 0, -1, 0, 252)" gradientUnits="userSpaceOnUse"><stop offset="0" stop-color="#cab272"/><stop offset="0.20527" stop-color="#cdb36c"/><stop offset="0.4882" stop-color="#d4b75a"/><stop offset="0.50029" stop-color="#d4b759"/><stop offset="0.74962" stop-color="#d4b563"/><stop offset="1" stop-color="#d3b372"/></linearGradient><linearGradient id="linear-gradient-2" x1="691.00494" y1="100.01912" x2="691.00519" y2="100.01912" xlink:href="#linear-gradient"/></defs><title>button</title><path class="cls-1" d="M907.00677,136.97328l-12.96356-22.45381-205.65429-.004-12.96369,22.45365,12.96369,22.45379,205.65429.0042Zm-194.67645-7.67151-.00012-.00015h.00012Z"/><path class="cls-2" d="M691.00519,151.981h-.00025l.00025-.00024Z"/><path class="cls-3" d="M720.82861,142.63651V131.306h.75537l7.10041,7.10043V131.306h2.26611v11.33051h-.83087l-7.0249-7.02491v7.02491Z"/><path class="cls-3" d="M734.55908,142.63651l4.53223-11.33048h2.26611l4.52466,11.32224-2.40961.00824-.67981-1.73734h-5.13653l-.67981,1.73734Zm5.72565-8.309-1.72223,4.30559h3.39917Z"/><path class="cls-3" d="M749.43091,142.63651V131.306h.75537l4.90985,5.58971,4.91742-5.58971h.75537v11.33051h-2.26611l-.00757-6.57169-3.39917,3.77682-3.39917-3.77682v6.57169Z"/><path class="cls-3" d="M764.28687,142.63651,768.819,131.306h2.26611l4.52466,11.32223-2.40961.00824-.67981-1.73733h-5.13647l-.67981,1.73733Zm5.72564-8.309-1.72223,4.30559h3.39917Z"/><path class="cls-3" d="M785.2915,131.6837a5.2601,5.2601,0,0,1,1.624,1.13306l-1.51074,1.51072a2.6011,2.6011,0,0,0-2.115-.90643q-1.35974,0-1.73736.64275a.88235.88235,0,0,0,0,1.09459,2.98622,2.98622,0,0,0,1.73736.67982,5.60641,5.60641,0,0,1,2.606.9449,2.83366,2.83366,0,0,1,1.17084,2.52979,2.90669,2.90669,0,0,1-1.24976,2.34164,4.57738,4.57738,0,0,1-2.91229.982,6.71043,6.71043,0,0,1-2.63623-.45322,5.70234,5.70234,0,0,1-1.81286-1.20859l1.51074-1.51073a3.58832,3.58832,0,0,0,2.56823,1.05751q1.511,0,1.88428-.64274a1.191,1.191,0,0,0,0-1.28275q-.37288-.64274-1.88428-.79382a6.08567,6.08567,0,0,1-2.49273-.8309,2.50651,2.50651,0,0,1-1.133-2.34163,2.81826,2.81826,0,0,1,1.28827-2.413,4.5338,4.5338,0,0,1,2.64722-.91055A6.329,6.329,0,0,1,785.2915,131.6837Z"/><path class="cls-3" d="M800.19214,131.306v2.115h-3.7768v9.21545h-2.26611V133.421h-3.77545v-2.115Z"/><path class="cls-3" d="M803.70386,142.63651V131.31425l8.3255-.00823v2.115H805.97v2.41718h4.54047V137.945H805.97v2.57647h6.04291v2.115Z"/><path class="cls-3" d="M816.2251,140.8195a1.099,1.099,0,0,1,.81579-.30626,1.137,1.137,0,0,1,.846.30626,1.03764,1.03764,0,0,1,.30213.75949,1.02378,1.02378,0,0,1-.30213.75538,1.29361,1.29361,0,0,1-1.6618,0,1.02907,1.02907,0,0,1-.30213-.75538A1.043,1.043,0,0,1,816.2251,140.8195Z"/><path class="cls-3" d="M823.47937,141.009a5.66748,5.66748,0,0,1,4.02954-9.703,6.13561,6.13561,0,0,1,4.16272,1.51073l-1.51074,1.65356a4.1822,4.1822,0,0,0-2.652-.90643,3.32482,3.32482,0,0,0-2.45837.95312,3.29036,3.29036,0,0,0-.93256,2.41718,3.3946,3.3946,0,0,0,.94354,2.50781,3.34949,3.34949,0,0,0,2.46247.92842,4.06584,4.06584,0,0,0,2.6369-.89819l1.51074,1.65356a6.1159,6.1159,0,0,1-4.16272,1.51073A5.51569,5.51569,0,0,1,823.47937,141.009Z"/><path class="cls-3" d="M837.01825,141.009a5.8365,5.8365,0,1,1,4.04187,1.62747A5.491,5.491,0,0,1,837.01825,141.009Zm4.04877-.48755a3.1855,3.1855,0,0,0,2.44738-1.019,3.86683,3.86683,0,0,0,0-5.06232,3.46654,3.46654,0,0,0-4.9024-.00748l-.00745.00748a3.86274,3.86274,0,0,0,0,5.06232,3.2041,3.2041,0,0,0,2.46247,1.01908Z"/><path class="cls-3" d="M850.26459,142.63651V131.306H851.02l4.91125,5.58971L860.848,131.306h.75537v11.33051h-2.26611l-.00824-6.57169-3.39777,3.77682-3.40051-3.77682v6.57169Z"/></svg>