<svg id="Layer_1" data-name="Layer 1" xmlns="http://www.w3.org/2000/svg" width="728" height="90" viewBox="0 0 728 90"><defs><style>.cls-1{fill:#fff;}</style></defs><title>rest</title><path class="cls-1" d="M366.41309,54.58217h-2.82032V35.879h4.04l2.625,13.41211L372.78027,35.879H376.667V54.58217h-2.82031v-11.751l-2.43652,11.751h-2.26368l-2.73339-11.72071Z"/><path class="cls-1" d="M384.43749,35.65346a4.47285,4.47285,0,0,1,4.48146,4.48046V50.33705a4.47118,4.47118,0,0,1-4.48146,4.48047,4.26448,4.26448,0,0,1-3.15233-1.3125,4.34,4.34,0,0,1-1.29688-3.168V40.13392a4.47292,4.47292,0,0,1,4.44921-4.48046Zm1.53907,4.42773a1.594,1.594,0,0,0-1.61035-1.6084,1.5764,1.5764,0,0,0-1.14355.4668,1.5364,1.5364,0,0,0-.47657,1.1416V50.31752a1.5432,1.5432,0,0,0,.47657,1.13769,1.57225,1.57225,0,0,0,1.14355.47071,1.60049,1.60049,0,0,0,1.61035-1.6084Z"/><path class="cls-1" d="M396.69043,35.879a4.27059,4.27059,0,0,1,3.45508,1.30176,4.70527,4.70527,0,0,1,.97461,3.1582v2.71778a4.34937,4.34937,0,0,1-1.50489,3.35254l2.08887,8.17285h-3.041l-1.71973-7.06543c-.082.00683-.167.01074-.25587.01074h-1.61718v7.05469H392.251V35.879Zm1.68164,4.51172a1.43021,1.43021,0,0,0-1.60449-1.63086h-1.69727v5.97852h1.69727a1.53363,1.53363,0,0,0,1.13965-.47657,1.58238,1.58238,0,0,0,.46484-1.14355Z"/><path class="cls-1" d="M404.96484,54.58217V35.879h8.02832v2.81934h-5.209v5.127h3.80371v2.82031h-3.80371v5.11621h5.209v2.82032Z"/><path class="cls-1" d="M425.7666,35.879a4.27059,4.27059,0,0,1,3.45508,1.30176,4.70527,4.70527,0,0,1,.97461,3.1582v2.71778a4.34936,4.34936,0,0,1-1.50488,3.35254l2.08886,8.17285h-3.041l-1.71973-7.06543c-.082.00683-.167.01074-.25586.01074h-1.61719v7.05469h-2.81933V35.879Zm1.68164,4.51172a1.43021,1.43021,0,0,0-1.60449-1.63086h-1.69727v5.97852h1.69727a1.53363,1.53363,0,0,0,1.13965-.47657,1.58238,1.58238,0,0,0,.46484-1.14355Z"/><path class="cls-1" d="M434.041,54.58217V35.879h8.02832v2.81934h-5.209v5.127h3.80371v2.82031h-3.80371v5.11621h5.209v2.82032Z"/><path class="cls-1" d="M454.168,49.93666a5.24213,5.24213,0,0,1-1.01563,3.34277,3.6063,3.6063,0,0,1-1.9375,1.32324,5.1828,5.1828,0,0,1-1.56836.21485,4.43191,4.43191,0,0,1-2.748-.82031,4.67346,4.67346,0,0,1-1.43555-1.83008,7.19339,7.19339,0,0,1-.61523-2.66113l2.67578-.18458a4.06066,4.06066,0,0,0,.87109,2.3584,1.42976,1.42976,0,0,0,1.15918.52344,1.75733,1.75733,0,0,0,1.47656-.90234,2.26848,2.26848,0,0,0,.28711-1.24121,3.45677,3.45677,0,0,0-1.05566-2.32715q-.84228-.78955-2.5127-2.36914a10.38448,10.38448,0,0,1-1.97949-2.42969,5.63138,5.63138,0,0,1-.625-2.625,4.56849,4.56849,0,0,1,1.71289-3.86621,4.25675,4.25675,0,0,1,2.625-.78906,4.76149,4.76149,0,0,1,2.584.67675,3.89633,3.89633,0,0,1,1.34277,1.46094,5.52776,5.52776,0,0,1,.626,2.1582l-2.707.49219a3.17339,3.17339,0,0,0-.65624-1.78418,1.36961,1.36961,0,0,0-1.11817-.47168,1.298,1.298,0,0,0-1.17871.6875,2.6459,2.6459,0,0,0-.32812,1.374,4.12952,4.12952,0,0,0,1.10742,2.61425,9.85642,9.85642,0,0,0,1.25,1.18946q.98438.82031,1.30273,1.14843a9.92844,9.92844,0,0,1,1.60938,2.06153,7.55148,7.55148,0,0,1,.43164.88183A5.257,5.257,0,0,1,454.168,49.93666Z"/><path class="cls-1" d="M459.94043,38.69838h-2.99414V35.879h8.79687v2.81934h-2.98339V54.58217h-2.81934Z"/><path class="cls-1" d="M468.52246,51.7726h2.81934v2.81933h-2.81934Z"/></svg>