<svg id="Content" xmlns="http://www.w3.org/2000/svg" xmlns:xlink="http://www.w3.org/1999/xlink" width="320" height="568" viewBox="0 0 320 568"><defs><style>.cls-1{fill:#ba9544;}.cls-2{fill:#fff;stroke:#ba9544;stroke-miterlimit:10;stroke-width:0.5px;}.cls-3{clip-path:url(#clip-path);}</style><clipPath id="clip-path"><polygon class="cls-1" points="58.969 353.773 68.362 367.079 68.547 367.095 68.547 340.231 68.362 340.225 58.969 353.773"/></clipPath></defs><title>CBD - Ultra Sour</title><polygon class="cls-2" points="254.24 340.9 68.157 340.195 58.764 353.741 68.157 367.047 254.24 366.73 262.694 353.816 254.24 340.9"/><polygon class="cls-1" points="58.969 353.773 68.362 367.079 68.547 367.095 68.547 340.231 68.362 340.225 58.969 353.773"/><g class="cls-3"><rect class="cls-1" x="56.89099" y="338.14846" width="13.72836" height="31.0229"/></g><path class="cls-1" d="M168.08789,358.21a4.55728,4.55728,0,0,1,3.24023-7.80176,4.931,4.931,0,0,1,3.34668,1.21485L173.46,352.95312a3.36111,3.36111,0,0,0-2.13184-.72851,2.59732,2.59732,0,0,0-2.72656,2.709,2.73148,2.73148,0,0,0,.75879,2.01661,2.68934,2.68934,0,0,0,1.98047.74707,3.26544,3.26544,0,0,0,2.11914-.72266l1.21484,1.33008a4.91528,4.91528,0,0,1-3.34668,1.21484A4.43164,4.43164,0,0,1,168.08789,358.21Z"/><path class="cls-1" d="M183.10547,354.71484a2.58715,2.58715,0,0,1-1.48242,4.81055l-5.126-.00586V350.415h4.835q2.30127.13331,2.42969,2.67773A1.90662,1.90662,0,0,1,183.10547,354.71484Zm-4.78027-.64941H180.876a1.02873,1.02873,0,0,0,1.12988-1.13574q-.03077-.66943-1.11133-.70508H178.3252Zm0,4.03223h2.97656a1.18905,1.18905,0,0,0,1.31152-1.31739q-.03077-.8745-1.29394-.91113H178.3252Z"/><path class="cls-1" d="M186.19043,359.51953v-9.11719h3.51074q4.251,0,4.252,4.56153,0,4.55567-4.252,4.55566Zm3.51074-1.81641q2.42286-.00585,2.42969-2.73925-.00587-2.73341-2.42969-2.7334H188.0127v5.47265Z"/><path class="cls-1" d="M200.23926,353.71a.88086.88086,0,0,1,.65625-.24609.9125.9125,0,0,1,.67969.24609.83351.83351,0,0,1,.24316.61035.8237.8237,0,0,1-.24316.60742,1.039,1.039,0,0,1-1.33594,0,.82367.82367,0,0,1-.24317-.60742A.83348.83348,0,0,1,200.23926,353.71Zm0,4.34863a.88086.88086,0,0,1,.65625-.24609.9125.9125,0,0,1,.67969.24609.83353.83353,0,0,1,.24316.61036.82372.82372,0,0,1-.24316.60742,1.039,1.039,0,0,1-1.33594,0,.82369.82369,0,0,1-.24317-.60742A.8335.8335,0,0,1,200.23926,358.05859Z"/><path class="cls-1" d="M213.27441,353.02051l-3.52343,1.94336,3.52343,1.94336v1.39746l-5.75781-3.165v-.39453l5.75781-3.12207Z"/><path class="cls-1" d="M221.16406,350.4082v-.00586h1.81641v9.11719h-1.81641v-6.68164l-1.21484,1.21484-1.21484-1.21484Z"/></svg>