<svg id="Content" xmlns="http://www.w3.org/2000/svg" xmlns:xlink="http://www.w3.org/1999/xlink" width="320" height="568" viewBox="0 0 320 568"><defs><style>.cls-1{fill:url(#New_Gradient_Swatch_1);}.cls-2{fill:#fff;}.cls-3{fill:#ba9544;}</style><linearGradient id="New_Gradient_Swatch_1" x1="77.77388" y1="269.74747" x2="117.13693" y2="269.74747" gradientUnits="userSpaceOnUse"><stop offset="0" stop-color="#a88a34"/><stop offset="0.49324" stop-color="#caaf67"/><stop offset="1" stop-color="#957f2e"/></linearGradient></defs><title>lemon</title><polygon class="cls-1" points="83.829 284.607 77.774 265.377 91.402 250.517 111.084 254.888 117.137 274.12 103.511 288.977 83.829 284.607"/><path class="cls-2" d="M105.64933,267.55318c-1.07729-2.62483-4.18361-4.42343-8.193-4.3897-3.95129.03372-7.09321,1.81546-8.16488,4.3897-.96113.42716-2.07963,1.3377-2.07963,2.19391,0,.84871,1.10914,1.77424,2.10211,2.192,1.06043,2.54052,4.17986,4.39345,8.1424,4.39345,3.97377,0,7.08385-1.87729,8.193-4.39345,1.03793-.44777,2.04964-1.35457,2.04964-2.19017,0-.85808-1.00984-1.748-2.04964-2.19578"/><path class="cls-3" d="M80.17578,301.42676v6.02734h3.95215v1.38281H78.69336v-7.41015Z"/><path class="cls-3" d="M85.32812,308.83691v-7.40527l5.44336-.00488v1.38379H86.81055v1.58007H89.7793v1.37891H86.81055v1.68457h3.95117v1.38281Z"/><path class="cls-3" d="M92.26367,308.83691v-7.41015h.49414l3.21094,3.65527,3.21582-3.65527h.49414v7.41015H98.19727l-.00586-4.29785-2.22266,2.46973-2.22266-2.46973v4.29785Z"/><path class="cls-3" d="M101.8418,307.77246a3.81616,3.81616,0,1,1,2.64355,1.06445A3.59,3.59,0,0,1,101.8418,307.77246Zm2.64843-.31836a2.0833,2.0833,0,0,0,1.60059-.667,2.52828,2.52828,0,0,0,0-3.31055,2.268,2.268,0,0,0-3.21094,0,2.52528,2.52528,0,0,0,0,3.31055A2.09288,2.09288,0,0,0,104.49023,307.4541Z"/><path class="cls-3" d="M109.291,308.83691v-7.41015h.49414l4.64355,4.64355v-4.64355h1.48242v7.41015h-.54394l-4.59375-4.59375v4.59375Z"/></svg>