<svg id="Layer_1" data-name="Layer 1" xmlns="http://www.w3.org/2000/svg" width="160" height="600" viewBox="0 0 160 600"><defs><style>.cls-1{fill:#ab9555;}</style></defs><title>frame1</title><path class="cls-1" d="M45.75928,296.19482a4.00871,4.00871,0,0,1-4.03516-4.02148V279.09766H44.2207v13.04882a1.39494,1.39494,0,0,0,.43164,1.03223,1.42727,1.42727,0,0,0,1.03907.42529,1.45126,1.45126,0,0,0,1.45752-1.45752V279.09766h2.65869v13.07568a3.84238,3.84238,0,0,1-1.1875,2.86084A3.94556,3.94556,0,0,1,45.75928,296.19482Z"/><path class="cls-1" d="M57.21729,279.084l3.38476,11.37256V279.084h2.55029v16.92188H60.41309l-3.5083-10.83594v10.83594H54.354V279.084Z"/><path class="cls-1" d="M71.73389,279.09766a3.88527,3.88527,0,0,1,2.96875,1.17382,4.07282,4.07282,0,0,1,1.02539,2.86084v2.45606a3.933,3.933,0,0,1-1.167,2.86084,3.81879,3.81879,0,0,1-2.82715,1.1875H70.26318v6.36914H67.7124v-16.9082Zm1.52441,4.07519a1.4564,1.4564,0,0,0-.39746-1.06592,1.41991,1.41991,0,0,0-1.05957-.40527H70.26318v5.41162h1.53809a1.39277,1.39277,0,0,0,1.03223-.43213,1.42794,1.42794,0,0,0,.4248-1.03906Z"/><path class="cls-1" d="M86.99512,296.00586H80.04541v-16.9082H82.5957v14.37109h4.39942Z"/><path class="cls-1" d="M95.06348,296.19482a4.00789,4.00789,0,0,1-4.03516-4.02148V279.09766h2.49707v13.04882a1.3931,1.3931,0,0,0,.43164,1.03223,1.42489,1.42489,0,0,0,1.03906.42529,1.45124,1.45124,0,0,0,1.457-1.45752V279.09766h2.65821v13.07568a3.84055,3.84055,0,0,1-1.1875,2.86084A3.94285,3.94285,0,0,1,95.06348,296.19482Z"/><path class="cls-1" d="M107.666,296.22168a4.04272,4.04272,0,0,1-4.04883-4.03467v-9.23a4.04153,4.04153,0,1,1,8.083,0v1.92969h-2.64454v-1.98389a1.47372,1.47372,0,0,0-1.4707-1.4707,1.39416,1.39416,0,0,0-1.03223.43164,1.42578,1.42578,0,0,0-.42578,1.03906v9.25733a1.45208,1.45208,0,0,0,1.458,1.457,1.43058,1.43058,0,0,0,1.03906-.42383,1.39031,1.39031,0,0,0,.43164-1.0293v-3.32373h-1.417v-2.564h4.06153V292.187a4.031,4.031,0,0,1-4.03418,4.03467Z"/><path class="cls-1" d="M115.7334,293.46875h2.55078v2.55078H115.7334Z"/></svg>