<svg id="Content" xmlns="http://www.w3.org/2000/svg" width="320" height="480" viewBox="0 0 320 480"><defs><style>.cls-1{fill:#fff;stroke:#ba9544;stroke-miterlimit:10;stroke-width:0.5px;}.cls-2{fill:#ba9544;}</style></defs><title>THC - Daytime CBD</title><polygon class="cls-1" points="253.51 230.249 67.429 229.544 58.035 243.09 67.429 256.395 253.51 256.078 261.965 243.165 253.51 230.249"/><polygon class="cls-2" points="67.565 229.544 58.171 243.09 67.565 256.395 79.246 256.395 79.246 229.544 67.565 229.544"/><path class="cls-2" d="M173.93457,238.14307v1.70068h-3.03711v7.41016H169.0752v-7.41016h-3.03614v-1.70068Z"/><path class="cls-2" d="M175.28906,247.25391v-9.11084h1.82227v3.64453h4.24512v-3.65039h1.82226v9.11084l-1.82226.00586v-3.76563h-4.24512v3.76563Z"/><path class="cls-2" d="M186.00586,245.94482a4.557,4.557,0,0,1,3.24023-7.80175,4.92928,4.92928,0,0,1,3.34668,1.21484l-1.21484,1.33008a3.35829,3.35829,0,0,0-2.13184-.72852,2.59663,2.59663,0,0,0-2.72656,2.709,2.73107,2.73107,0,0,0,.75879,2.01611,2.6893,2.6893,0,0,0,1.98047.74707,3.2627,3.2627,0,0,0,2.11914-.72266l1.21484,1.33008a4.91294,4.91294,0,0,1-3.34668,1.21485A4.4331,4.4331,0,0,1,186.00586,245.94482Z"/><path class="cls-2" d="M194.63379,241.44434a.88083.88083,0,0,1,.65625-.2461.911.911,0,0,1,.67969.2461.83424.83424,0,0,1,.24316.61035.82291.82291,0,0,1-.24316.60742,1.039,1.039,0,0,1-1.33594,0,.82291.82291,0,0,1-.24317-.60742A.83425.83425,0,0,1,194.63379,241.44434Zm0,4.34863a.88245.88245,0,0,1,.65625-.24561.91266.91266,0,0,1,.67969.24561.83458.83458,0,0,1,.24316.61084.82257.82257,0,0,1-.24316.60693,1.039,1.039,0,0,1-1.33594,0,.82257.82257,0,0,1-.24317-.60693A.83459.83459,0,0,1,194.63379,245.793Z"/><path class="cls-2" d="M207.88672,242.6377c.10937.04052.208.08105.29785.12158a1.787,1.787,0,0,1,.94141,1.82226,2.33711,2.33711,0,0,1-1.00586,1.88282,3.67958,3.67958,0,0,1-2.34082.78955,5.4,5.4,0,0,1-2.12012-.36426,4.59412,4.59412,0,0,1-1.458-.97217l1.21485-1.21436a2.88941,2.88941,0,0,0,2.06543.8501q1.21436,0,1.51562-.51611a.963.963,0,0,0,0-1.03272q-.30176-.51635-2.11719-.57714V241.7876q1.81641.12158,2.11719-.395a.9621.9621,0,0,0,0-1.03223q-.30176-.51636-1.51562-.5166a2.16377,2.16377,0,0,0-1.76172.729l-1.21485-1.21484a4.26089,4.26089,0,0,1,1.30567-.91113,5.093,5.093,0,0,1,1.96875-.30371,3.2077,3.2077,0,0,1,2.21972.79,2.44381,2.44381,0,0,1,.88379,1.88281,1.80141,1.80141,0,0,1-.82031,1.731Q207.98341,242.58936,207.88672,242.6377Z"/><path class="cls-2" d="M210.60742,244.81836v-1.2085h3.76563v1.2085Z"/><path class="cls-2" d="M217.10059,247.25391l.00586-.60743,2.84863-6.80273h-3.89942l-.00586-1.70068h6.21973v.66845l-3.39551,8.44239Z"/><path class="cls-2" d="M224.26758,241.98779a2.34729,2.34729,0,1,1,1.62793.65625A2.20838,2.20838,0,0,1,224.26758,241.98779Zm1.60937-.4248a1.08638,1.08638,0,0,0,.832-.34619,1.31151,1.31151,0,0,0,0-1.72217,1.09791,1.09791,0,0,0-.83789-.34326,1.084,1.084,0,0,0-.82617.34326,1.31154,1.31154,0,0,0,0,1.72217A1.08641,1.08641,0,0,0,225.877,241.563Zm-.48535,5.69092,5.16211-9.11084h1.48242l-5.15039,9.11084Zm4.52442-.60108a2.33338,2.33338,0,1,1,1.61523.6499A2.19277,2.19277,0,0,1,229.916,246.65283Zm1.585-.44385a1.06725,1.06725,0,0,0,.81445-.33691,1.27122,1.27122,0,0,0,0-1.67627,1.07422,1.07422,0,0,0-.82031-.33691,1.05679,1.05679,0,0,0-.80762.33691,1.27122,1.27122,0,0,0,0,1.67627A1.06368,1.06368,0,0,0,231.501,246.209Z"/></svg>