<svg xmlns="http://www.w3.org/2000/svg" width="320" height="480" viewBox="0 0 320 480"><defs><style>.cls-1{fill:#ba9544;}</style></defs><title>Frame1 - MK Ultra</title><g id="Content"><path class="cls-1" d="M143.96094,245.69092l3.875-25.67822h7.90478v36.1665h-5.373V230.24268l-3.92676,25.93652h-5.37354l-4.23633-25.57471V256.1792h-4.96V220.0127h7.90479Z"/><path class="cls-1" d="M172.78809,241.76416l-1.75635,3.30664v11.1084h-5.68311V220.0127h5.68311V235.771l7.43994-15.7583h5.68311L176.25,236.13281l7.90479,20.04639h-5.83838Z"/><path class="cls-1" d="M104.67041,270.0127v27.8999c0,2.58349,1.13672,3.51318,2.94482,3.51318,1.8086,0,2.94483-.92969,2.94483-3.51318V270.0127h5.37353v27.53808c0,5.78662-2.89355,9.09326-8.47314,9.09326-5.58008,0-8.47363-3.30664-8.47363-9.09326V270.0127Z"/><path class="cls-1" d="M125.28418,270.0127h5.68311v31h9.35156v5.1665H125.28418Z"/><path class="cls-1" d="M146.62012,270.0127H164.187v5.167h-5.94189V306.1792H152.562V275.17969h-5.94189Z"/><path class="cls-1" d="M184.0249,306.1792c-.31006-.93018-.5166-1.49854-.5166-4.44336v-5.68311c0-3.35839-1.13672-4.59863-3.71973-4.59863H177.8252v14.7251h-5.6836V270.0127h8.57666c5.89014,0,8.42188,2.73828,8.42188,8.31835v2.8418c0,3.71973-1.18848,6.148-3.72022,7.33643,2.8418,1.18847,3.772,3.92676,3.772,7.69824v5.58008a10.64983,10.64983,0,0,0,.61963,4.3916Zm-6.1997-30.99951V286.2876h2.22168c2.11816,0,3.40966-.92969,3.40966-3.82324v-3.565c0-2.58349-.87793-3.71972-2.89306-3.71972Z"/><path class="cls-1" d="M216.77979,306.1792h-5.73487l-.98193-6.56152h-6.9751l-.98144,6.56152h-5.21827l5.78662-36.1665h8.31836Zm-12.96827-11.46973h5.47657l-2.73829-18.29Z"/></g></svg>