<svg id="Layer_1" data-name="Layer 1" xmlns="http://www.w3.org/2000/svg" width="300" height="600" viewBox="0 0 300 600"><defs><style>.cls-1{fill:#ab9555;}</style></defs><title>frame2</title><path class="cls-1" d="M107.75218,309.51953H98.97386V288.16162h3.22071v18.15283h5.55761Z"/><path class="cls-1" d="M117.94359,287.88867a5.10633,5.10633,0,0,1,5.11426,5.11377v11.65869a5.105,5.105,0,1,1-10.21,0V293.00244a5.10717,5.10717,0,0,1,5.0957-5.11377Zm1.75586,5.04541a1.83385,1.83385,0,0,0-1.84082-1.84082,1.8044,1.8044,0,0,0-1.3125.53711,1.76179,1.76179,0,0,0-.54492,1.30371V304.627a1.764,1.764,0,0,0,.54492,1.30469,1.80544,1.80544,0,0,0,1.3125.53613,1.8322,1.8322,0,0,0,1.84082-1.84082Z"/><path class="cls-1" d="M133.81175,287.88867a5.10633,5.10633,0,0,1,5.11426,5.11377v11.65869a5.105,5.105,0,1,1-10.21,0V293.00244a5.10717,5.10717,0,0,1,5.0957-5.11377Zm1.75586,5.04541a1.83385,1.83385,0,0,0-1.84082-1.84082,1.8044,1.8044,0,0,0-1.3125.53711,1.76179,1.76179,0,0,0-.54492,1.30371V304.627a1.764,1.764,0,0,0,.54492,1.30469,1.80544,1.80544,0,0,0,1.3125.53613,1.8322,1.8322,0,0,0,1.84082-1.84082Z"/><path class="cls-1" d="M147.8557,302.74414v6.77539H144.635v-21.375h3.22071v7.61914l3.9375-7.61914h3.43554l-4.41015,8.71826,5.1709,12.65674h-3.78711l-3.38184-8.67822Z"/><path class="cls-1" d="M171.75511,309.75781a5.06155,5.06155,0,0,1-5.0957-5.0791V288.16162h3.15332v16.48291a1.76334,1.76334,0,0,0,.54492,1.30371,1.80246,1.80246,0,0,0,1.3125.53711,1.83385,1.83385,0,0,0,1.84082-1.84082V288.16162h3.3584v16.51709a4.85352,4.85352,0,0,1-1.5,3.61328A4.9837,4.9837,0,0,1,171.75511,309.75781Z"/><path class="cls-1" d="M187.69164,288.16162a4.90724,4.90724,0,0,1,3.75,1.48291,5.14606,5.14606,0,0,1,1.29589,3.61377v3.102a4.97109,4.97109,0,0,1-1.47461,3.61377,4.82341,4.82341,0,0,1-3.57128,1.49951h-1.8584v8.0459h-3.22071V288.16162Zm1.92578,5.14746a1.83412,1.83412,0,0,0-.50293-1.34619,1.79,1.79,0,0,0-1.33789-.51172h-1.94336v6.83545h1.94336a1.76251,1.76251,0,0,0,1.30468-.54541,1.80541,1.80541,0,0,0,.53614-1.3125Z"/><path class="cls-1" d="M197.83324,306.31445h3.2207v3.22168h-3.2207Z"/></svg>