<svg id="Layer_1" data-name="Layer 1" xmlns="http://www.w3.org/2000/svg" width="300" height="600" viewBox="0 0 300 600"><defs><style>.cls-1{fill:#ab9555;}</style></defs><title>frame1</title><path class="cls-1" d="M106.751,309.75781a5.06157,5.06157,0,0,1-5.09571-5.0791V288.16162h3.15332v16.48291a1.76331,1.76331,0,0,0,.54493,1.30371,1.80244,1.80244,0,0,0,1.3125.53711,1.83385,1.83385,0,0,0,1.84082-1.84082V288.16162h3.35839v16.51709a4.85352,4.85352,0,0,1-1.5,3.61328A4.98368,4.98368,0,0,1,106.751,309.75781Z"/><path class="cls-1" d="M121.22461,288.14453,125.5,302.50977V288.14453h3.22168v21.375h-3.46L120.8291,295.832v13.6875h-3.2207v-21.375Z"/><path class="cls-1" d="M139.56152,288.16162a4.90721,4.90721,0,0,1,3.75,1.48291,5.14606,5.14606,0,0,1,1.2959,3.61377v3.102a4.97113,4.97113,0,0,1-1.47461,3.61377,4.82345,4.82345,0,0,1-3.57129,1.49951h-1.8584v8.0459h-3.2207V288.16162Zm1.92578,5.14746a1.83411,1.83411,0,0,0-.50292-1.34619,1.79,1.79,0,0,0-1.3379-.51172h-1.94336v6.83545h1.94336a1.76255,1.76255,0,0,0,1.30469-.54541,1.80544,1.80544,0,0,0,.53613-1.3125Z"/><path class="cls-1" d="M158.83887,309.51953h-8.77832V288.16162h3.2207v18.15283h5.55762Z"/><path class="cls-1" d="M169.03027,309.75781a5.06155,5.06155,0,0,1-5.0957-5.0791V288.16162h3.15332v16.48291a1.76334,1.76334,0,0,0,.54492,1.30371,1.80246,1.80246,0,0,0,1.3125.53711,1.83385,1.83385,0,0,0,1.84082-1.84082V288.16162h3.3584v16.51709a4.85352,4.85352,0,0,1-1.5,3.61328A4.9837,4.9837,0,0,1,169.03027,309.75781Z"/><path class="cls-1" d="M184.95117,309.792a5.10633,5.10633,0,0,1-5.11328-5.09668V293.03662a5.105,5.105,0,1,1,10.21,0v2.4375H186.707v-2.50586a1.863,1.863,0,0,0-1.8584-1.85791,1.76224,1.76224,0,0,0-1.30371.54541,1.80246,1.80246,0,0,0-.53711,1.3125v11.69287a1.83385,1.83385,0,0,0,1.84082,1.84082,1.803,1.803,0,0,0,1.3125-.53515,1.7547,1.7547,0,0,0,.5459-1.30078v-4.19776h-1.79V297.23h5.13086v7.46533a5.093,5.093,0,0,1-5.09668,5.09668Z"/><path class="cls-1" d="M195.14355,306.31445h3.22071v3.22168h-3.22071Z"/></svg>