<svg id="Layer_1" data-name="Layer 1" xmlns="http://www.w3.org/2000/svg" xmlns:xlink="http://www.w3.org/1999/xlink" width="320" height="480" viewBox="0 0 320 480"><defs><style>.cls-1{fill:url(#linear-gradient);}.cls-2{fill:url(#linear-gradient-2);}.cls-3{fill:url(#linear-gradient-3);}.cls-4{fill:#fff;}</style><linearGradient id="linear-gradient" x1="175.31558" y1="366.55843" x2="175.31558" y2="398.55629" gradientUnits="userSpaceOnUse"><stop offset="0" stop-color="#ceb467"/><stop offset="1" stop-color="#997f2f"/></linearGradient><linearGradient id="linear-gradient-2" x1="105.82661" y1="366.5109" x2="105.82661" y2="398.60382" xlink:href="#linear-gradient"/><linearGradient id="linear-gradient-3" x1="97.94842" y1="381.68317" x2="168.43582" y2="382.30973" gradientUnits="userSpaceOnUse"><stop offset="0" stop-color="#ad8f35"/><stop offset="0.1878" stop-color="#ceb467"/><stop offset="0.46098" stop-color="#a58f4b"/><stop offset="0.76341" stop-color="#ceb467"/><stop offset="1" stop-color="#997f2f"/></linearGradient></defs><title>link</title><path class="cls-1" d="M223.13818,398.55629H118.79257l9.06267-15.99864-9.06267-15.99922H223.13818l8.7004,15.99922Zm-102.30875-1.1871H222.43218l8.05468-14.81154-8.05468-14.81212H120.82943l8.39029,14.81212Z"/><path class="cls-2" d="M115.27822,398.60382l-19.062-.09506L87.5639,382.46665,96.375,366.5109l19.062.09506,8.65228,16.04211Zm-18.3514-1.27868,17.65235.0881,8.15727-14.77212-8.01-14.85153-17.65235-.08811L88.91678,382.4736Z"/><path class="cls-3" d="M112.08165,386.54962l.19109-.06266a2.14877,2.14877,0,0,0-.40475.125l-2.00137.8341,1.21113-.9024-.00924.00157-.02757-.20817-.22008-.36309a7.25093,7.25093,0,0,0,1.6491-1.70235l-1.61808.77457,1.64862-1.37309a2.72427,2.72427,0,0,0,.52349-.5675c.21255-.32142.40992-.65068.59006-.98385l-.51111.50469.6126-1.33268a17.60045,17.60045,0,0,0,.90632-2.50591,21.35814,21.35814,0,0,0-2.42869,1.56482l-1.19938.909.38252-.596c-.31031.26379-.61027.54229-.8966.83223a2.63629,2.63629,0,0,0-.44157.61872l-.87592,1.67776.31124-1.53146a7.24454,7.24454,0,0,0-.69407.83019l-.15257.213-.14-.09618a.35412.35412,0,0,0-.02162.0365l-1.2033,2.28175.70958-2.48006a7.87161,7.87161,0,0,0,.23543-3.11241l-.82862,1.54007.4013-1.85256a3.01722,3.01722,0,0,0,.06266-.92448,14.94308,14.94308,0,0,0-.31828-1.87011l-.10934.90945-.35964-1.3258a22.54906,22.54906,0,0,0-1.22852-3.325,22.54391,22.54391,0,0,0-1.22836,3.325l-.3598,1.3258-.10918-.90945a14.91206,14.91206,0,0,0-.31829,1.87011,3.015,3.015,0,0,0,.06266.92463l.40084,1.853-.82815-1.54038a7.87021,7.87021,0,0,0,.23527,3.11209l.70973,2.48022-1.2033-2.28191a.37956.37956,0,0,0-.02177-.0365l-.13988.09618-.15272-.213a7.23888,7.23888,0,0,0-.69391-.83019l.31124,1.53146-.87608-1.67776a2.635,2.635,0,0,0-.44141-.61872c-.2857-.28947-.58551-.56751-.89535-.83113l.38345.59664-1.20173-.9107a21.34394,21.34394,0,0,0-2.42868-1.56482,17.58315,17.58315,0,0,0,.90647,2.50591l.61261,1.33268-.51111-.50469c.18.33317.3775.66243.59006.98385a2.71887,2.71887,0,0,0,.52333.5675l1.64878,1.37309-1.61808-.77457a7.24777,7.24777,0,0,0,1.6491,1.70235l-.22009.36309-.02756.20817-.0094-.00157,1.21128.9024-2.00153-.8341a2.14273,2.14273,0,0,0-.40459-.125l.191.06266-1.71551-.00392a14.73537,14.73537,0,0,0-1.635.099,13.46411,13.46411,0,0,0,1.39785.76832l1.50937.70816-.17356-.021a2.25508,2.25508,0,0,0,.38267.04887l2.28724.1015-1.56059.29731a5.61772,5.61772,0,0,0,1.12716.12389l1.65536.01081-.968.31422,1.48729.25845-2.29037.13753q-.05475.00329-.10714.00987l-1.05073.51393c-.26958.13173-.52114.2749-.75343.41822.28821.02225.59866.036.913.03023l1.19734-.0213c.03259-.01158.06533-.02459.09807-.03869l1.98116-.86245-.99952.77066a3.4677,3.4677,0,0,0,.39223-.16776s.156.08992.18577.115a.74448.74448,0,0,0,.084-.01833,3.53706,3.53706,0,0,0,.86809-.50689,3.65286,3.65286,0,0,1,.97335-.55543,2.42541,2.42541,0,0,1,.34085-.0636.93117.93117,0,0,1-.44877-.27991c-.21679-.21663-.29949-.50907-.09069-.5708.20864-.06171.5874.29245.612.29245a.45142.45142,0,0,0,.12641-.2915c0-.125-.08945-.36826-.106-.51518a2.45838,2.45838,0,0,0-.08913-.42638c-.03258-.09695-.25876-.1391-.38032-.214a1.9911,1.9911,0,0,1-.30654-.21225.96905.96905,0,0,1-.13032-.4447,1.75393,1.75393,0,0,0-.07315-.45284c-.04229-.07926-.151-.13518-.22462-.2088a.31651.31651,0,0,1-.07566-.19455c.05639-.0177.07409.12766.13925.14s.06062.0661.16291.10134c.10213.03509.10557.08365.11873.17873s.12782.41666.16573.54776c.03774.13127.07737.22995.20691.23434.12939.00438.11184.07143.26426.05905a.8513.8513,0,0,1,.36544.07048c.08191.029.185.03165.22022-.02552.03525-.05734-.02459-.28807-.02459-.28807-.05294,0-.06187-.07126-.08208-.13736-.02-.0661.01254-.07128.01254-.07128a.27908.27908,0,1,1,.53178,0s.03258.00518.01238.07128c-.02036.0661-.029.13736-.08192.13736,0,0-.05984.23073-.02475.28807.0354.05717.13831.0545.22038.02552a.85027.85027,0,0,1,.36544-.07048c.15226.01238.13471-.05467.2641-.05905.12954-.00439.16916-.10307.20707-.23434.03791-.1311.15226-.45268.16557-.54776.01315-.09508.01676-.14364.11889-.17873s.09774-.089.1629-.10134c.06532-.01238.08286-.15774.13925-.14a.316.316,0,0,1-.0758.19455c-.07348.07362-.18233.12954-.22447.2088a1.74012,1.74012,0,0,0-.07315.45284.969.969,0,0,1-.13033.4447,2.00666,2.00666,0,0,1-.30654.21225c-.12155.07486-.34789.117-.38047.214a2.44378,2.44378,0,0,0-.089.42638c-.01676.14692-.10605.39018-.10605.51518a.45065.45065,0,0,0,.12641.2915c.02459,0,.40335-.35416.612-.29245.20881.06173.1261.35417-.09069.5708a.93.93,0,0,1-.44876.27991,2.41819,2.41819,0,0,1,.34068.0636,3.65255,3.65255,0,0,1,.97335.55543,3.54254,3.54254,0,0,0,.86794.50689.7705.7705,0,0,0,.08411.01833c.02977-.02491.18594-.115.18594-.115a3.46754,3.46754,0,0,0,.39222.16776l-.99951-.77066,1.981.86245c.03274.0141.06547.02711.09805.03869l1.19751.0213c.31437.00581.62467-.008.913-.03023-.23229-.14332-.484-.28649-.75358-.41822l-1.05074-.51393c-.03478-.00439-.07064-.00768-.107-.00987l-2.29021-.13753,1.48822-.25861-.96489-.31406,1.65113-.01081a5.61909,5.61909,0,0,0,1.12717-.12389l-1.56059-.29731,2.28708-.1015a2.25465,2.25465,0,0,0,.38282-.04887l-.1737.021,1.50937-.70816a13.467,13.467,0,0,0,1.398-.76832,14.73778,14.73778,0,0,0-1.635-.099Z"/><path class="cls-4" d="M136.07063,386.7127v-7.56279h.50419l4.73934,4.73935v-4.73935h1.51256v7.56279h-.5546l-4.68893-4.68893v4.68893Z"/><path class="cls-4" d="M144.20315,386.7127l3.02512-7.56279h1.51256l3.02007,7.55775-1.60835.005-.45377-1.15963h-3.42847l-.45376,1.15963Zm3.82173-5.546-1.14954,2.87386h2.26884Z"/><path class="cls-4" d="M153.097,386.7127v-7.56279h.50419l3.27721,3.731,3.28225-3.731h.50419v7.56279h-1.51256l-.005-4.38642-2.26884,2.52093-2.26884-2.52093v4.38642Z"/><path class="cls-4" d="M161.97991,386.7127l3.02512-7.56279h1.51256l3.02007,7.55775-1.60835.005-.45377-1.15963h-3.42846l-.45377,1.15963Zm3.82173-5.546-1.14954,2.87386h2.26884Z"/><path class="cls-4" d="M174.96775,379.402a3.52163,3.52163,0,0,1,1.084.75628l-1.00837,1.00837a1.73631,1.73631,0,0,0-1.41172-.605q-.90754,0-1.15963.42855a.59.59,0,0,0,0,.73107,1.99263,1.99263,0,0,0,1.15963.45377,3.75381,3.75381,0,0,1,1.73944.63024,1.89326,1.89326,0,0,1,.78149,1.689,1.93926,1.93926,0,0,1-.83443,1.563,3.05579,3.05579,0,0,1-1.94364.65544,4.47913,4.47913,0,0,1-1.75961-.30251,3.815,3.815,0,0,1-1.21-.8067l1.00838-1.00837a2.39667,2.39667,0,0,0,1.71423.70586q1.00838,0,1.25794-.42856a.79827.79827,0,0,0,0-.85712q-.24957-.42855-1.25794-.52939a4.06674,4.06674,0,0,1-1.66381-.55461,1.67332,1.67332,0,0,1-.75628-1.563,1.88218,1.88218,0,0,1,.85963-1.61087,3.02786,3.02786,0,0,1,1.76718-.60754A4.21961,4.21961,0,0,1,174.96775,379.402Z"/><path class="cls-4" d="M183.88176,379.14991v1.41172h-2.52093v6.15107h-1.51256v-6.15107h-2.52093v-1.41172Z"/><path class="cls-4" d="M185.19264,386.7127V379.155l5.55613-.005v1.41172H186.7052V382.175h3.03016v1.40668H186.7052V385.301h4.03349v1.41172Z"/><path class="cls-4" d="M192.51763,385.50013a.73069.73069,0,0,1,.54452-.2042.75794.75794,0,0,1,.56469.2042.69249.69249,0,0,1,.20167.50671.68405.68405,0,0,1-.20167.50418.8634.8634,0,0,1-1.10921,0,.68406.68406,0,0,1-.20168-.50418A.6925.6925,0,0,1,192.51763,385.50013Z"/><path class="cls-4" d="M196.32675,385.62618a3.78279,3.78279,0,0,1,2.68984-6.47627,4.09158,4.09158,0,0,1,2.77806,1.00837l-1.00837,1.10417a2.78847,2.78847,0,0,0-1.76969-.605,2.15583,2.15583,0,0,0-2.2638,2.24867,2.2679,2.2679,0,0,0,.63023,1.6739,2.23236,2.23236,0,0,0,1.64365.62015,2.71012,2.71012,0,0,0,1.75961-.6l1.00837,1.10417a4.0796,4.0796,0,0,1-2.77806,1.00837A3.67957,3.67957,0,0,1,196.32675,385.62618Z"/><path class="cls-4" d="M204.33071,385.62618a3.8948,3.8948,0,1,1,2.69739,1.08652A3.66377,3.66377,0,0,1,204.33071,385.62618Zm2.70244-.3252a2.12443,2.12443,0,0,0,1.63356-.68065,2.57842,2.57842,0,0,0,0-3.37805,2.31271,2.31271,0,0,0-3.27721,0,2.57842,2.57842,0,0,0,0,3.37805A2.13628,2.13628,0,0,0,207.03315,385.301Z"/><path class="cls-4" d="M212.14055,386.7127v-7.56279h.50419l3.27721,3.731,3.28225-3.731h.50419v7.56279h-1.51256l-.005-4.38642-2.26884,2.52093-2.26884-2.52093v4.38642Z"/></svg>