<svg id="Layer_1" data-name="Layer 1" xmlns="http://www.w3.org/2000/svg" width="271.2406" height="20.9912" viewBox="0 0 271.2406 20.9912"><defs><style>.cls-1{fill:#ac9655;}</style></defs><title>frame2</title><path class="cls-1" d="M10.21,15.6328A5.7591,5.7591,0,0,1,9.0986,19.292a4,4,0,0,1-2.1235,1.4541,5.7971,5.7971,0,0,1-1.7153.2285,4.8571,4.8571,0,0,1-3.0059-.8984,5.0275,5.0275,0,0,1-1.5762-2.001A8.0619,8.0619,0,0,1,0,15.1758l2.94-.2129a4.4707,4.4707,0,0,0,.9478,2.5947,1.5756,1.5756,0,0,0,1.2739.5742,1.9128,1.9128,0,0,0,1.6172-.997,2.4767,2.4767,0,0,0,.3106-1.3565,3.7711,3.7711,0,0,0-1.16-2.5351q-.9156-.8658-2.7446-2.6A11.7058,11.7058,0,0,1,1.0127,7.9785a6.1594,6.1594,0,0,1-.686-2.8769A5.0062,5.0062,0,0,1,2.2051.8662,4.671,4.671,0,0,1,5.08,0,5.2245,5.2245,0,0,1,7.9062.7354,4.2483,4.2483,0,0,1,9.3843,2.3359a5.93,5.93,0,0,1,.6782,2.3692l-2.957.539a3.5688,3.5688,0,0,0-.7188-1.9609,1.5107,1.5107,0,0,0-1.2251-.5059,1.41,1.41,0,0,0-1.29.751,2.8971,2.8971,0,0,0-.3594,1.5029A4.5071,4.5071,0,0,0,4.7207,7.89,10.1445,10.1445,0,0,0,6.0928,9.1973q1.078.8979,1.4214,1.2578A10.4911,10.4911,0,0,1,9.2783,12.709a8.7642,8.7642,0,0,1,.4737.9639A5.6226,5.6226,0,0,1,10.21,15.6328Z"/><path class="cls-1" d="M20.001,20.73H16.9141V.2617H20.001Z"/><path class="cls-1" d="M30.3682.2451l4.0966,13.7666V.2451h3.087V20.73H34.2363L29.9893,7.6123V20.73H26.9014V.2451Z"/><path class="cls-1" d="M49.3037,20.9912a4.8814,4.8814,0,0,1-4.9-4.8848V4.9336a4.715,4.715,0,0,1,1.4375-3.4717A4.7367,4.7367,0,0,1,49.3037.0332a4.6862,4.6862,0,0,1,3.4639,1.4375,4.7471,4.7471,0,0,1,1.4209,3.4629V7.27H50.9863V4.8682a1.7838,1.7838,0,0,0-1.78-1.78,1.6884,1.6884,0,0,0-1.25.5225,1.7284,1.7284,0,0,0-.5137,1.2578v11.206a1.7557,1.7557,0,0,0,1.7637,1.7637,1.7257,1.7257,0,0,0,1.2578-.5147,1.6849,1.6849,0,0,0,.5224-1.249V13.248h3.2022v2.8584a4.8813,4.8813,0,0,1-4.8848,4.8848Z"/><path class="cls-1" d="M60.8594,20.73V.2451h8.789V3.3486H63.9473V8.9355h4.165v3.1036h-4.165V17.626h5.7011V20.73Z"/><path class="cls-1" d="M86.14,16.0254,85.39,20.73H82.1748L85.6543.2617h4.2471L93.332,20.73H90.0859l-.7226-4.7041ZM87.7617,4.9492l-1.1435,8.07h2.2871Z"/><path class="cls-1" d="M103.5352.2451l4.0966,13.7666V.2451h3.087V20.73h-3.3155L103.1562,7.6123V20.73h-3.0878V.2451Z"/><path class="cls-1" d="M122.4707,20.9912a4.8814,4.8814,0,0,1-4.9-4.8848V4.9336a4.715,4.715,0,0,1,1.4375-3.4717A4.7367,4.7367,0,0,1,122.4707.0332a4.6862,4.6862,0,0,1,3.4639,1.4375,4.7471,4.7471,0,0,1,1.4209,3.4629V7.27h-3.2022V4.8682a1.7838,1.7838,0,0,0-1.78-1.78,1.6887,1.6887,0,0,0-1.25.5225,1.7287,1.7287,0,0,0-.5136,1.2578v11.206a1.7555,1.7555,0,0,0,1.7636,1.7637,1.7258,1.7258,0,0,0,1.2579-.5147,1.6849,1.6849,0,0,0,.5224-1.249V13.248h3.2022v2.8584a4.8813,4.8813,0,0,1-4.8848,4.8848Z"/><path class="cls-1" d="M137.1138,20.73h-3.0874V.2617h3.0874Z"/><path class="cls-1" d="M144.0151,20.73V.2451h8.7891V3.3486H147.103V8.9355h4.1651v3.1036H147.103V17.626h5.7012V20.73Z"/><path class="cls-1" d="M162.5337.2451,166.63,14.0117V.2451h3.0869V20.73h-3.3154L162.1548,7.6123V20.73h-3.0879V.2451Z"/><path class="cls-1" d="M179.6235,3.3652H176.34V.2617h9.6377V3.3652h-3.2666V20.73h-3.0879Z"/><path class="cls-1" d="M201.7876,3.3652h-3.2832V.2617h9.6377V3.3652h-3.2666V20.73h-3.0879Z"/><path class="cls-1" d="M217.8521,20.73h-3.0879V.2617h3.0879Z"/><path class="cls-1" d="M227.84,20.73h-3.0879V.2451h4.4307L232.06,14.96,234.8228.2451h4.2558V20.73h-3.0869V7.8574L233.313,20.73H230.83L227.84,7.89Z"/><path class="cls-1" d="M245.978,20.73V.2451h8.7891V3.3486h-5.7012V8.9355h4.1651v3.1036h-4.1651V17.626h5.7012V20.73Z"/><path class="cls-1" d="M271.24,15.6328a5.7564,5.7564,0,0,1-1.1113,3.6592,3.9971,3.9971,0,0,1-2.123,1.4541,5.7968,5.7968,0,0,1-1.7158.2285,4.8559,4.8559,0,0,1-3.0049-.8984,5.0244,5.0244,0,0,1-1.5772-2.001,8.0723,8.0723,0,0,1-.6777-2.8994l2.94-.2129a4.4708,4.4708,0,0,0,.9473,2.5947,1.5766,1.5766,0,0,0,1.2744.5742,1.9141,1.9141,0,0,0,1.6172-.997,2.4768,2.4768,0,0,0,.31-1.3565,3.7694,3.7694,0,0,0-1.16-2.5351q-.9141-.8658-2.7442-2.6a11.7119,11.7119,0,0,1-2.1728-2.6651,6.1639,6.1639,0,0,1-.6856-2.8769,5.0072,5.0072,0,0,1,1.878-4.2354A4.6741,4.6741,0,0,1,266.11,0a5.2224,5.2224,0,0,1,2.8261.7354,4.2455,4.2455,0,0,1,1.4786,1.6005,5.9233,5.9233,0,0,1,.6777,2.3692l-2.9561.539a3.5764,3.5764,0,0,0-.7187-1.9609,1.5125,1.5125,0,0,0-1.2256-.5059,1.41,1.41,0,0,0-1.29.751,2.8922,2.8922,0,0,0-.3594,1.5029,4.5076,4.5076,0,0,0,1.208,2.8584,10.1968,10.1968,0,0,0,1.373,1.3077q1.0782.8979,1.4209,1.2578a10.4883,10.4883,0,0,1,1.7637,2.2539,8.4838,8.4838,0,0,1,.4736.9639A5.5864,5.5864,0,0,1,271.24,15.6328Z"/></svg>