<?xml version="1.0" encoding="utf-8"?>
<!-- Generator: Adobe Illustrator 22.1.0, SVG Export Plug-In . SVG Version: 6.00 Build 0)  -->
<svg version="1.1" id="Layer_1" xmlns="http://www.w3.org/2000/svg" xmlns:xlink="http://www.w3.org/1999/xlink" x="0px" y="0px"
	 viewBox="0 0 593.6 21" style="enable-background:new 0 0 593.6 21;" xml:space="preserve">
<style type="text/css">
	.st0{fill:#D3B372;}
</style>
<title>frame1</title>
<path class="st0" d="M4.9,21c-1.3,0-2.6-0.5-3.5-1.4C0.5,18.7,0,17.4,0,16.1V4.9c0-1.3,0.5-2.6,1.4-3.5C2.3,0.5,3.6,0,4.9,0
	c1.3,0,2.6,0.5,3.5,1.4c0.9,0.9,1.4,2.2,1.4,3.5v2.3H6.6V4.9c0-1-0.8-1.8-1.8-1.8c-0.5,0-0.9,0.2-1.2,0.5C3.2,3.9,3,4.4,3,4.9v11.2
	c0,1,0.8,1.8,1.8,1.8c0,0,0,0,0,0c0.5,0,0.9-0.2,1.3-0.5c0.3-0.3,0.5-0.8,0.5-1.2v-2.8h3.2v2.9c0,1.3-0.5,2.6-1.4,3.5
	C7.4,20.5,6.2,21,4.9,21z"/>
<path class="st0" d="M19.7,16l-0.8,4.7h-3.2l3.5-20.5h4.2l3.4,20.5h-3.2L22.9,16H19.7z M21.3,4.9L20.1,13h2.3L21.3,4.9z"/>
<path class="st0" d="M37,0.2L41.1,14V0.2h3.1v20.5h-3.3L36.7,7.6v13.1h-3.1V0.2H37z"/>
<path class="st0" d="M54.6,0.2L58.7,14V0.2h3.1v20.5h-3.3L54.2,7.6v13.1h-3.1V0.2H54.6z"/>
<path class="st0" d="M72.5,16l-0.8,4.7h-3.2L72,0.3h4.2l3.4,20.5h-3.2L75.7,16H72.5z M74.1,4.9L72.9,13h2.3L74.1,4.9z"/>
<path class="st0" d="M85.5,20.7V0.2h4.6c1.2,0,2.3,0.3,3.3,1c0.9,0.6,1.5,1.5,1.8,2.5c0.2,0.7,0.3,1.4,0.3,2.2
	c0.1,1.2-0.3,2.4-1.1,3.3c-0.3,0.3-0.7,0.6-1.1,0.8c0.7,0.3,1.4,0.9,1.7,1.6c0.4,0.6,0.6,1.3,0.7,2c0.1,0.5,0.1,0.9,0.1,1.4
	c0,1.1-0.2,2.3-0.7,3.3c-0.8,1.4-2.3,2.4-4,2.4L85.5,20.7z M88.8,8.6h1.3c0.9,0,1.7-0.5,1.9-1.4c0.1-0.4,0.2-0.9,0.2-1.3
	C92.3,5.2,92,4.5,91.6,4c-0.4-0.4-0.9-0.6-1.5-0.6h-1.3V8.6z M88.8,17.7h1.3c1,0,1.9-0.6,2.2-1.6c0.1-0.4,0.2-0.8,0.2-1.3
	c0.1-0.9-0.2-1.8-0.7-2.5c-0.4-0.5-1.1-0.8-1.7-0.7h-1.3V17.7z"/>
<path class="st0" d="M104.9,20.7h-3.1V0.3h3.1V20.7z"/>
<path class="st0" d="M120.9,15.6c0.1,1.3-0.3,2.6-1.1,3.7c-0.5,0.7-1.3,1.2-2.1,1.5c-0.6,0.2-1.1,0.2-1.7,0.2c-1.1,0-2.1-0.3-3-0.9
	c-0.7-0.5-1.2-1.2-1.6-2c-0.4-0.9-0.6-1.9-0.7-2.9l2.9-0.2c0,0.9,0.4,1.9,0.9,2.6c0.3,0.4,0.8,0.6,1.3,0.6c0.7,0,1.3-0.4,1.6-1
	c0.2-0.4,0.3-0.9,0.3-1.4c0-1-0.5-1.9-1.2-2.5c-0.6-0.6-1.5-1.4-2.7-2.6C113,9.9,112.3,9,111.7,8c-0.5-0.9-0.7-1.9-0.7-2.9
	c-0.1-1.6,0.6-3.2,1.9-4.2c0.8-0.6,1.8-0.9,2.9-0.9c1,0,2,0.2,2.8,0.7c0.6,0.4,1.1,0.9,1.5,1.6c0.4,0.7,0.6,1.5,0.7,2.4l-3,0.5
	c0-0.7-0.3-1.4-0.7-2c-0.3-0.3-0.8-0.5-1.2-0.5c-0.5,0-1,0.3-1.3,0.8c-0.3,0.5-0.4,1-0.4,1.5c0.1,1.1,0.5,2.1,1.2,2.9
	c0.4,0.5,0.9,0.9,1.4,1.3c0.7,0.6,1.2,1,1.4,1.3c0.7,0.7,1.3,1.4,1.8,2.3c0.2,0.3,0.3,0.6,0.5,1C120.7,14.3,120.9,15,120.9,15.6z"/>
<path class="st0" d="M142.8,12.1v8.7h-3.1V0.3h3.1V9h3.7V0.3h3.1v20.5h-3.1v-8.7H142.8z"/>
<path class="st0" d="M160.3,16l-0.8,4.7h-3.2l3.5-20.5h4.2l3.4,20.5h-3.2l-0.7-4.7H160.3z M161.9,4.9l-1.1,8.1h2.3L161.9,4.9z"/>
<path class="st0" d="M183.5,15.6c0.1,1.3-0.3,2.6-1.1,3.7c-0.5,0.7-1.3,1.2-2.1,1.5c-0.6,0.2-1.1,0.2-1.7,0.2c-1.1,0-2.1-0.3-3-0.9
	c-0.7-0.5-1.2-1.2-1.6-2c-0.4-0.9-0.6-1.9-0.7-2.9l2.9-0.2c0,0.9,0.4,1.9,0.9,2.6c0.3,0.4,0.8,0.6,1.3,0.6c0.7,0,1.3-0.4,1.6-1
	c0.2-0.4,0.3-0.9,0.3-1.4c0-1-0.5-1.9-1.2-2.5c-0.6-0.6-1.5-1.4-2.7-2.6c-0.9-0.8-1.6-1.7-2.2-2.7c-0.5-0.9-0.7-1.9-0.7-2.9
	c-0.1-1.6,0.6-3.2,1.9-4.2c0.8-0.6,1.8-0.9,2.9-0.9c1,0,2,0.2,2.8,0.7c0.6,0.4,1.1,0.9,1.5,1.6c0.4,0.7,0.6,1.5,0.7,2.4l-3,0.5
	c0-0.7-0.3-1.4-0.7-2c-0.3-0.3-0.8-0.5-1.2-0.5c-0.5,0-1,0.3-1.3,0.8c-0.3,0.5-0.4,1-0.4,1.5c0.1,1.1,0.5,2.1,1.2,2.9
	c0.4,0.5,0.9,0.9,1.4,1.3c0.7,0.6,1.2,1,1.4,1.3c0.7,0.7,1.3,1.4,1.8,2.3c0.2,0.3,0.3,0.6,0.5,1C183.3,14.3,183.4,15,183.5,15.6z"/>
<path class="st0" d="M202.3,20.7V0.2h4.6c1.2,0,2.3,0.3,3.3,1c0.9,0.6,1.5,1.5,1.8,2.5c0.2,0.7,0.3,1.4,0.3,2.2
	c0.1,1.2-0.3,2.4-1.1,3.3c-0.3,0.3-0.7,0.6-1.1,0.8c0.7,0.3,1.4,0.9,1.7,1.6c0.4,0.6,0.6,1.3,0.7,2c0.1,0.5,0.1,0.9,0.1,1.4
	c0,1.1-0.2,2.3-0.7,3.3c-0.8,1.4-2.3,2.4-4,2.4L202.3,20.7z M205.6,8.6h1.3c0.9,0,1.7-0.5,1.9-1.4c0.1-0.4,0.2-0.9,0.2-1.3
	c0.1-0.7-0.2-1.4-0.6-1.9c-0.4-0.4-0.9-0.6-1.5-0.6h-1.3L205.6,8.6z M205.6,17.7h1.3c1,0,1.9-0.6,2.2-1.6c0.1-0.4,0.2-0.8,0.2-1.3
	c0.1-0.9-0.2-1.8-0.7-2.5c-0.4-0.5-1.1-0.8-1.7-0.7h-1.3L205.6,17.7z"/>
<path class="st0" d="M218.5,20.7V0.2h8.8v3.1h-5.7v5.6h4.2V12h-4.2v5.6h5.7v3.1H218.5z"/>
<path class="st0" d="M233.1,20.7V0.2h8.8v3.1h-5.7v5.6h4.2V12h-4.2v5.6h5.7v3.1H233.1z"/>
<path class="st0" d="M251.6,0.2l4.1,13.8V0.2h3.1v20.5h-3.3l-4.2-13.1v13.1h-3.1V0.2H251.6z"/>
<path class="st0" d="M282.5,21c-2.7,0-4.9-2.1-4.9-4.8c0,0,0,0,0,0V0.3h3v15.8c0,0.5,0.2,0.9,0.5,1.2c0.3,0.3,0.8,0.5,1.3,0.5
	c1,0,1.8-0.8,1.8-1.7c0,0,0,0,0,0V0.3h3.2v15.8c0,1.3-0.5,2.6-1.4,3.5C285.1,20.5,283.8,21,282.5,21z"/>
<path class="st0" d="M302.9,15.6c0.1,1.3-0.3,2.6-1.1,3.7c-0.5,0.7-1.3,1.2-2.1,1.5c-0.6,0.2-1.1,0.2-1.7,0.2c-1.1,0-2.1-0.3-3-0.9
	c-0.7-0.5-1.2-1.2-1.6-2c-0.4-0.9-0.6-1.9-0.7-2.9l2.9-0.2c0,0.9,0.4,1.9,0.9,2.6c0.3,0.4,0.8,0.6,1.3,0.6c0.7,0,1.3-0.4,1.6-1
	c0.2-0.4,0.3-0.9,0.3-1.4c0-1-0.5-1.9-1.2-2.5c-0.6-0.6-1.5-1.4-2.7-2.6c-0.9-0.8-1.6-1.7-2.2-2.7c-0.5-0.9-0.7-1.9-0.7-2.9
	c-0.1-1.6,0.6-3.2,1.9-4.2c0.8-0.6,1.8-0.9,2.9-0.9c1,0,2,0.2,2.8,0.7c0.6,0.4,1.1,0.9,1.5,1.6c0.4,0.7,0.6,1.5,0.7,2.4l-3,0.5
	c0-0.7-0.3-1.4-0.7-2c-0.3-0.3-0.8-0.5-1.2-0.5c-0.5,0-1,0.3-1.3,0.8c-0.3,0.5-0.4,1-0.4,1.5c0.1,1.1,0.5,2.1,1.2,2.9
	c0.4,0.5,0.9,0.9,1.4,1.3c0.7,0.6,1.2,1,1.4,1.3c0.7,0.7,1.3,1.4,1.8,2.3c0.2,0.3,0.3,0.6,0.5,1C302.7,14.3,302.9,15,302.9,15.6z"/>
<path class="st0" d="M308.3,20.7V0.2h8.8v3.1h-5.7v5.6h4.2V12h-4.2v5.6h5.7v3.1H308.3z"/>
<path class="st0" d="M332.1,15.8c0,1.3-0.5,2.6-1.4,3.5c-0.9,0.9-2.1,1.5-3.4,1.4h-4.9V0.2h4.9c1.3,0,2.5,0.5,3.4,1.4
	c0.9,0.9,1.4,2.2,1.4,3.4V15.8z M325.5,17.7h1.9c0.5,0,0.9-0.2,1.2-0.5c0.3-0.3,0.5-0.8,0.5-1.2V5.2c0-0.5-0.2-0.9-0.5-1.3
	c-0.3-0.3-0.8-0.5-1.2-0.5h-1.9V17.7z"/>
<path class="st0" d="M354.4,16l-0.8,4.7h-3.2l3.5-20.5h4.2l3.4,20.5h-3.2l-0.7-4.7L354.4,16z M356,4.9l-1.1,8.1h2.3L356,4.9z"/>
<path class="st0" d="M375.8,15.6c0.1,1.3-0.3,2.6-1.1,3.7c-0.5,0.7-1.3,1.2-2.1,1.5c-0.6,0.2-1.1,0.2-1.7,0.2c-1.1,0-2.1-0.3-3-0.9
	c-0.7-0.5-1.2-1.2-1.6-2c-0.4-0.9-0.6-1.9-0.7-2.9l2.9-0.2c0,0.9,0.4,1.9,0.9,2.6c0.3,0.4,0.8,0.6,1.3,0.6c0.7,0,1.3-0.4,1.6-1
	c0.2-0.4,0.3-0.9,0.3-1.4c0-1-0.5-1.9-1.2-2.5c-0.6-0.6-1.5-1.4-2.7-2.6c-0.9-0.8-1.6-1.7-2.2-2.7c-0.5-0.9-0.7-1.9-0.7-2.9
	c-0.1-1.6,0.6-3.2,1.9-4.2c0.8-0.6,1.8-0.9,2.9-0.9c1,0,2,0.2,2.8,0.7c0.6,0.4,1.1,0.9,1.5,1.6c0.4,0.7,0.6,1.5,0.7,2.4l-3,0.5
	c0-0.7-0.3-1.4-0.7-2c-0.3-0.3-0.8-0.5-1.2-0.5c-0.5,0-1,0.3-1.3,0.8c-0.3,0.5-0.4,1-0.4,1.5c0.1,1.1,0.5,2.1,1.2,2.9
	c0.4,0.5,0.9,0.9,1.4,1.3c0.7,0.6,1.2,1,1.4,1.3c0.7,0.7,1.3,1.4,1.8,2.3c0.2,0.3,0.3,0.6,0.5,1C375.6,14.3,375.7,15,375.8,15.6z"/>
<path class="st0" d="M398.5,16l-0.8,4.7h-3.2L398,0.3h4.2l3.4,20.5h-3.2l-0.7-4.7L398.5,16z M400.1,4.9L399,13h2.3L400.1,4.9z"/>
<path class="st0" d="M434.7,15.6c0.1,1.3-0.3,2.6-1.1,3.7c-0.5,0.7-1.3,1.2-2.1,1.5c-0.6,0.2-1.1,0.2-1.7,0.2c-1.1,0-2.1-0.3-3-0.9
	c-0.7-0.5-1.2-1.2-1.6-2c-0.4-0.9-0.6-1.9-0.7-2.9l2.9-0.2c0,0.9,0.4,1.9,0.9,2.6c0.3,0.4,0.8,0.6,1.3,0.6c0.7,0,1.3-0.4,1.6-1
	c0.2-0.4,0.3-0.9,0.3-1.4c0-1-0.5-1.9-1.2-2.5c-0.6-0.6-1.5-1.4-2.7-2.6c-0.9-0.8-1.6-1.7-2.2-2.7c-0.5-0.9-0.7-1.9-0.7-2.9
	c-0.1-1.6,0.6-3.2,1.9-4.2c0.8-0.6,1.8-0.9,2.9-0.9c1,0,2,0.2,2.8,0.7c0.6,0.4,1.1,0.9,1.5,1.6c0.4,0.7,0.6,1.5,0.7,2.4l-3,0.5
	c0-0.7-0.3-1.4-0.7-2c-0.3-0.3-0.8-0.5-1.2-0.5c-0.5,0-1,0.3-1.3,0.8C428.1,4,428,4.5,428,5c0.1,1.1,0.5,2.1,1.2,2.9
	c0.4,0.5,0.9,0.9,1.4,1.3c0.7,0.6,1.2,1,1.4,1.3c0.7,0.7,1.3,1.4,1.8,2.3c0.2,0.3,0.3,0.6,0.5,1C434.5,14.3,434.7,15,434.7,15.6z"/>
<path class="st0" d="M444.9,0.3c1.3-0.1,2.7,0.5,3.6,1.4c0.8,1,1.3,2.2,1.2,3.5v3c0,1.3-0.5,2.5-1.4,3.5c-0.9,0.9-2.1,1.5-3.4,1.4
	h-1.8v7.7H440V0.3H444.9z M446.7,5.2c0-0.5-0.2-0.9-0.5-1.3c-0.3-0.3-0.8-0.5-1.3-0.5h-1.9V10h1.9c0.5,0,0.9-0.2,1.2-0.5
	c0.3-0.3,0.5-0.8,0.5-1.3V5.2z"/>
<path class="st0" d="M458,20.7h-3.1V0.3h3.1V20.7z"/>
<path class="st0" d="M469.4,0.3c1.4-0.1,2.8,0.4,3.8,1.4c0.8,1,1.1,2.2,1.1,3.5v3c0,1.4-0.6,2.8-1.6,3.7l2.3,8.9h-3.3l-1.9-7.7h-2.1
	v7.7h-3.1V0.3H469.4z M471.2,5.2c0.1-0.9-0.5-1.7-1.3-1.8c-0.1,0-0.3,0-0.4,0h-1.9V10h1.9c0.5,0,0.9-0.2,1.2-0.5
	c0.3-0.3,0.5-0.8,0.5-1.3L471.2,5.2z"/>
<path class="st0" d="M483.8,20.7h-3.1V0.3h3.1L483.8,20.7z"/>
<path class="st0" d="M492.8,3.4h-3.3V0.3h9.6v3.1h-3.3v17.4h-3.1L492.8,3.4z"/>
<path class="st0" d="M509.7,21c-2.7,0-4.9-2.1-4.9-4.8c0,0,0,0,0,0V0.3h3v15.8c0,0.5,0.2,0.9,0.5,1.2c0.3,0.3,0.8,0.5,1.3,0.5
	c1,0,1.8-0.8,1.8-1.7c0,0,0,0,0,0V0.3h3.2v15.8c0,1.3-0.5,2.6-1.4,3.5C512.3,20.5,511,21,509.7,21z"/>
<path class="st0" d="M523.9,16l-0.8,4.7H520l3.5-20.5h4.2l3.4,20.5h-3.2l-0.7-4.7L523.9,16z M525.5,4.9l-1.1,8.1h2.3L525.5,4.9z"/>
<path class="st0" d="M545.4,20.7h-8.4V0.3h3.1v17.4h5.3V20.7z"/>
<path class="st0" d="M561.8,16l-0.8,4.7h-3.2l3.5-20.5h4.2l3.4,20.5h-3.2l-0.7-4.7L561.8,16z M563.5,4.9l-1.1,8.1h2.3L563.5,4.9z"/>
<path class="st0" d="M577.5,20.7h-3.1V0.3h3.1V20.7z"/>
<path class="st0" d="M593.6,15.8c0,1.3-0.5,2.6-1.4,3.5c-0.9,0.9-2.1,1.5-3.4,1.4h-4.9V0.2h4.9c1.3,0,2.5,0.5,3.4,1.4
	c0.9,0.9,1.4,2.2,1.4,3.4L593.6,15.8z M587,17.7h1.9c0.5,0,0.9-0.2,1.2-0.5c0.3-0.3,0.5-0.8,0.5-1.2V5.2c0-0.5-0.2-0.9-0.5-1.3
	c-0.3-0.3-0.8-0.5-1.2-0.5H587V17.7z"/>
</svg>
