<svg id="Layer_1" data-name="Layer 1" xmlns="http://www.w3.org/2000/svg" width="300" height="250" viewBox="0 0 300 250"><defs><style>.cls-1{fill:#ab9555;}</style></defs><title>frame4</title><path class="cls-1" d="M54.56154,130.994H60.8186a8.77831,8.77831,0,0,1,3.50614.62946,6.62746,6.62746,0,0,1,2.37228,1.67994,6.28355,6.28355,0,0,1,1.32317,2.41466,10.078,10.078,0,0,1,.39846,2.8343v1.09148a9.55347,9.55347,0,0,1-.18863,2.05789,4.92727,4.92727,0,0,1-.56727,1.46944,4.68849,4.68849,0,0,1-.92336,1.11267,8.025,8.025,0,0,1-1.25961.90285,4.628,4.628,0,0,1,2.22534,2.12077,8.36612,8.36612,0,0,1,.71353,3.75833v1.67994a8.68386,8.68386,0,0,1-1.91026,6.04655q-1.912,2.10061-6.11012,2.09959H54.56154Zm4.28323,12.26123h1.93145a3.27256,3.27256,0,0,0,2.87668-1.071,5.52629,5.52629,0,0,0,.73472-3.12818,4.71987,4.71987,0,0,0-.81879-3.02294,3.64348,3.64348,0,0,0-2.96074-1.0081H58.84477Zm0,13.3534h1.84739a4.51347,4.51347,0,0,0,2.0367-.37795,2.60241,2.60241,0,0,0,1.11267-1.04979,3.94423,3.94423,0,0,0,.462-1.59587q.08406-.92268.08407-2.01552a13.46928,13.46928,0,0,0-.12576-1.97314,3.25012,3.25012,0,0,0-.5249-1.40724,2.47573,2.47573,0,0,0-1.11267-.86048,5.06135,5.06135,0,0,0-1.88976-.29388H58.84477Z"/><path class="cls-1" d="M75.24913,130.994H88.01476v4.031h-8.4824v8.77629h7.39023v4.031H79.53236v8.77628h8.4824v4.28324H75.24913Z"/><path class="cls-1" d="M104.19494,130.994h6.4245a9.54335,9.54335,0,0,1,3.10769.462,5.97207,5.97207,0,0,1,2.43584,1.63756,6.41252,6.41252,0,0,1,1.51113,2.75024,17.21867,17.21867,0,0,1,.42032,4.262,21.325,21.325,0,0,1-.231,3.38038,7.12125,7.12125,0,0,1-.98692,2.62448,6.25,6.25,0,0,1-2.35178,2.2889,7.91849,7.91849,0,0,1-3.8629.81878h-2.18365v11.67347h-4.28323Zm4.28323,14.19269h2.05789a4.37625,4.37625,0,0,0,2.01552-.378,2.406,2.406,0,0,0,1.04979-1.0286,4.0031,4.0031,0,0,0,.39846-1.57469q.06355-.92267.06356-2.05721,0-1.04979-.06356-1.995a4.68116,4.68116,0,0,0-.37795-1.63757,2.40365,2.40365,0,0,0-.98623-1.09148,3.8264,3.8264,0,0,0-1.93214-.39914h-2.22534Z"/><path class="cls-1" d="M122.68521,130.994h6.88652q7.55871,0,7.55837,8.77628a11.08737,11.08737,0,0,1-.81879,4.47187,6.32767,6.32767,0,0,1-2.876,3.00243l4.61881,13.64729h-4.53474L129.53,148.12623h-2.5616v12.76563h-4.28323Zm4.28323,13.3534h2.43585a4.30963,4.30963,0,0,0,1.805-.31507,2.32224,2.32224,0,0,0,1.02929-.90285,3.85536,3.85536,0,0,0,.48252-1.44893,15.79688,15.79688,0,0,0,0-3.98935,3.602,3.602,0,0,0-.5249-1.46943,2.37766,2.37766,0,0,0-1.11267-.90285,5.05889,5.05889,0,0,0-1.88976-.29389h-2.22534Z"/><path class="cls-1" d="M143.3728,130.994h12.76563v4.031H147.656v8.77629h7.39023v4.031H147.656v8.77628h8.4824v4.28324H143.3728Z"/><path class="cls-1" d="M175.56572,139.60214h-4.28323v-.96573a4.572,4.572,0,0,0-.69234-2.54041,2.56262,2.56262,0,0,0-2.3306-1.071,2.81523,2.81523,0,0,0-1.44893.33558,2.48436,2.48436,0,0,0-.88166.86116,3.6058,3.6058,0,0,0-.44083,1.21792,8.0772,8.0772,0,0,0-.12644,1.44825,14.71083,14.71083,0,0,0,.06356,1.4913,2.64892,2.64892,0,0,0,.31439,1.04979,2.401,2.401,0,0,0,.73541.77641,6.63761,6.63761,0,0,0,1.32249.67184l3.27513,1.302a8.14627,8.14627,0,0,1,2.3094,1.2808,5.20005,5.20005,0,0,1,1.36487,1.72163,7.313,7.313,0,0,1,.65133,2.26771,22.757,22.757,0,0,1,.16745,2.91837,15.37042,15.37042,0,0,1-.37795,3.50614,7.38806,7.38806,0,0,1-1.23843,2.77142,5.95267,5.95267,0,0,1-2.2889,1.82688,8.16191,8.16191,0,0,1-3.48495.67184,7.62656,7.62656,0,0,1-2.89718-.54608,6.89584,6.89584,0,0,1-3.8424-3.73715,6.96786,6.96786,0,0,1-.56727-2.8138v-1.59519h4.28323v1.34368a3.49558,3.49558,0,0,0,.693,2.12009,2.69822,2.69822,0,0,0,2.33059.94522,3.75891,3.75891,0,0,0,1.70044-.31507,2.16684,2.16684,0,0,0,.924-.88166,3.63934,3.63934,0,0,0,.39914-1.40724q.083-.8386.08338-1.84739a18.29323,18.29323,0,0,0-.08338-1.93145,3.07634,3.07634,0,0,0-.35745-1.21793,2.18058,2.18058,0,0,0-.75591-.7559,10.0636,10.0636,0,0,0-1.2808-.62946l-3.06531-1.2603a6.7899,6.7899,0,0,1-3.716-3.00243,10.32032,10.32032,0,0,1-.94454-4.68169,10.85715,10.85715,0,0,1,.46134-3.19175,7.45658,7.45658,0,0,1,1.36486-2.60329,6.52109,6.52109,0,0,1,2.28891-1.74282,7.53852,7.53852,0,0,1,3.23343-.65065,7.11323,7.11323,0,0,1,2.91837.58778,7.25737,7.25737,0,0,1,2.267,1.55418,6.891,6.891,0,0,1,1.44893,2.16246,6.26509,6.26509,0,0,1,.50371,2.45635Z"/><path class="cls-1" d="M181.55623,130.994h12.76563v4.031h-8.4824v8.77629h7.39023v4.031h-7.39023v8.77628h8.4824v4.28324H181.55623Z"/><path class="cls-1" d="M199.72391,130.994h4.1151l6.46688,18.0139H210.39V130.994h4.28323v29.89787h-4.031l-6.55095-17.97221h-.08406v17.97221h-4.28323Z"/><path class="cls-1" d="M224.14864,135.025h-4.95507v-4.031h14.19269v4.031h-4.95507v25.86684h-4.28255Z"/><path class="cls-1" d="M235.3594,156.60862h4.28324v4.28324H235.3594Z"/></svg>