<svg id="Content" xmlns="http://www.w3.org/2000/svg" width="320" height="568" viewBox="0 0 320 568"><defs><style>.cls-1{fill:#b89344;}</style></defs><title>Frame2 - Ultra Sour</title><path class="cls-1" d="M92.15332,310.03711v16.89941c0,1.56543.68848,2.12793,1.78418,2.12793,1.09473,0,1.7832-.5625,1.7832-2.12793V310.03711h3.25489v16.68066c0,3.50489-1.752,5.50782-5.13184,5.50782s-5.13281-2.00293-5.13281-5.50782V310.03711Z"/><path class="cls-1" d="M104.6377,310.03711h3.44238v18.77734h5.66406v3.12989H104.6377Z"/><path class="cls-1" d="M117.55957,310.03711H128.2002V313.167h-3.59961v18.77735H121.1582V313.167h-3.59863Z"/><path class="cls-1" d="M140.21387,331.94434a6.7492,6.7492,0,0,1-.3125-2.69141v-3.44238c0-2.03418-.68848-2.78614-2.25293-2.78614H136.459v8.91993H133.0166V310.03711h5.19434c3.56836,0,5.10156,1.6582,5.10156,5.03809v1.72168c0,2.25292-.71973,3.7246-2.25293,4.44433,1.7207.71973,2.28418,2.37793,2.28418,4.66309v3.37988a6.44446,6.44446,0,0,0,.376,2.66016ZM136.459,313.167v6.72852h1.34571c1.2832,0,2.06543-.56348,2.06543-2.31641v-2.15918c0-1.56445-.53223-2.25293-1.75293-2.25293Z"/><path class="cls-1" d="M160.05176,331.94434h-3.47364l-.59472-3.97461h-4.22461l-.59473,3.97461h-3.16113l3.50586-21.90723h5.03809Zm-7.85449-6.94825h3.31738L153.85547,313.918Z"/><path class="cls-1" d="M177.76074,309.78711c3.34864,0,5.06934,2.00293,5.06934,5.50781v.68848H179.5752v-.9082c0-1.56446-.626-2.15918-1.72071-2.15918-1.0957,0-1.72168.59472-1.72168,2.15918,0,4.50683,6.72852,5.35156,6.72852,11.61132,0,3.50489-1.752,5.50782-5.13184,5.50782-3.38086,0-5.13281-2.00293-5.13281-5.50782v-1.3457h3.25488v1.56445c0,1.56543.68848,2.12793,1.78321,2.12793,1.0957,0,1.78418-.5625,1.78418-2.12793,0-4.50683-6.72852-5.35156-6.72852-11.61035C172.69043,311.79,174.41211,309.78711,177.76074,309.78711Z"/><path class="cls-1" d="M187.86621,315.29492c0-3.50488,1.8457-5.50781,5.22656-5.50781,3.37989,0,5.22559,2.00293,5.22559,5.50781v11.3916c0,3.50489-1.8457,5.50782-5.22559,5.50782-3.38086,0-5.22656-2.00293-5.22656-5.50782Zm3.44238,11.61035c0,1.56543.68848,2.15918,1.78418,2.15918,1.09473,0,1.78321-.59375,1.78321-2.15918V315.0752c0-1.56446-.68848-2.15918-1.78321-2.15918-1.0957,0-1.78418.59472-1.78418,2.15918Z"/><path class="cls-1" d="M207.1416,310.03711v16.89941c0,1.56543.68848,2.12793,1.7832,2.12793,1.09571,0,1.78418-.5625,1.78418-2.12793V310.03711h3.25489v16.68066c0,3.50489-1.75293,5.50782-5.13282,5.50782s-5.13281-2.00293-5.13281-5.50782V310.03711Z"/><path class="cls-1" d="M226.82227,331.94434a6.7492,6.7492,0,0,1-.3125-2.69141v-3.44238c0-2.03418-.68848-2.78614-2.25293-2.78614h-1.18946v8.91993H219.625V310.03711h5.19434c3.56836,0,5.10156,1.6582,5.10156,5.03809v1.72168c0,2.25292-.71973,3.7246-2.25293,4.44433,1.7207.71973,2.28418,2.37793,2.28418,4.66309v3.37988a6.44463,6.44463,0,0,0,.376,2.66016ZM223.06738,313.167v6.72852h1.34571c1.2832,0,2.06543-.56348,2.06543-2.31641v-2.15918c0-1.56445-.53223-2.25293-1.75293-2.25293Z"/></svg>