<svg id="Content" xmlns="http://www.w3.org/2000/svg" xmlns:xlink="http://www.w3.org/1999/xlink" width="320" height="568" viewBox="0 0 320 568"><defs><style>.cls-1{fill:url(#New_Gradient_Swatch_1);}.cls-2{fill:#fff;}.cls-3{fill:#b89344;}</style><linearGradient id="New_Gradient_Swatch_1" x1="204.67504" y1="397.31816" x2="243.38773" y2="397.31816" gradientUnits="userSpaceOnUse"><stop offset="0" stop-color="#a68834"/><stop offset="0.49324" stop-color="#c8ad67"/><stop offset="1" stop-color="#937f2e"/></linearGradient></defs><title>pine</title><polygon class="cls-1" points="239.522 410.727 220.164 417.436 204.675 404.028 208.543 383.91 227.899 377.2 243.388 390.608 239.522 410.727"/><path class="cls-2" d="M230.4699,403.39923l-6.47238-15.44992-6.4032,15.44992,6.07976,1.21708v1.72746a.3573.3573,0,0,0,.71418,0v-1.72746Z"/><path class="cls-3" d="M212.18848,436.3252v-7.39454h3.22363q2.58838,0,2.58789,2.12989,0,2.209-2.583,2.208h-1.75v3.05665Zm1.47851-4.43653h2.07031q.89209-.01464.917-.81347-.0249-.7295-.90235-.75879h-2.085Z"/><path class="cls-3" d="M219.08984,428.92578h1.47364v7.39942h-1.47364Z"/><path class="cls-3" d="M222.04785,436.3252v-7.39454h.49317l4.63378,4.63379v-4.63379h1.47852v7.39454h-.542l-4.585-4.584v4.584Z"/><path class="cls-3" d="M230.167,436.3252v-7.38965l5.43164-.00489v1.38086h-3.95312v1.57715h2.96289v1.375h-2.96289v1.68164h3.94336v1.37989Z"/></svg>