<svg id="Content" xmlns="http://www.w3.org/2000/svg" width="320" height="568" viewBox="0 0 320 568"><defs><style>.cls-1{fill:#fff;stroke:#ba9544;stroke-miterlimit:10;stroke-width:0.5px;}.cls-2{fill:#ba9544;}</style></defs><title>THC - Daytime CBD</title><polygon class="cls-1" points="254.24 298.946 68.158 298.24 58.765 311.787 68.158 325.092 254.24 324.775 262.694 311.861 254.24 298.946"/><polygon class="cls-2" points="68.294 298.24 58.901 311.787 68.294 325.092 79.976 325.092 79.976 298.24 68.294 298.24"/><path class="cls-2" d="M174.66406,306.83984V308.54H171.627v7.41016h-1.82226V308.54h-3.03614v-1.7002Z"/><path class="cls-2" d="M176.01855,315.9502v-9.11036h1.82227v3.64454h4.24512V306.834h1.82226v9.11036l-1.82226.00586v-3.76563h-4.24512v3.76563Z"/><path class="cls-2" d="M186.73535,314.6416a4.55681,4.55681,0,0,1,3.24024-7.80176,4.92933,4.92933,0,0,1,3.34668,1.21485l-1.21485,1.33008a3.35546,3.35546,0,0,0-2.13183-.72852,2.59592,2.59592,0,0,0-2.72657,2.709,2.73069,2.73069,0,0,0,.75879,2.01563,2.68932,2.68932,0,0,0,1.98047.74707,3.26,3.26,0,0,0,2.11914-.72266l1.21485,1.33008a4.9106,4.9106,0,0,1-3.34668,1.21485A4.43464,4.43464,0,0,1,186.73535,314.6416Z"/><path class="cls-2" d="M195.36328,310.14062a.88086.88086,0,0,1,.65625-.24609.911.911,0,0,1,.67969.24609.83507.83507,0,0,1,.24316.61036.82213.82213,0,0,1-.24316.60742,1.039,1.039,0,0,1-1.33594,0,.82213.82213,0,0,1-.24316-.60742A.83507.83507,0,0,1,195.36328,310.14062Zm0,4.34864a.88407.88407,0,0,1,.65625-.24512.91432.91432,0,0,1,.67969.24512.8357.8357,0,0,1,.24316.61133.82145.82145,0,0,1-.24316.60644,1.039,1.039,0,0,1-1.33594,0,.82145.82145,0,0,1-.24316-.60644A.8357.8357,0,0,1,195.36328,314.48926Z"/><path class="cls-2" d="M208.61621,311.334c.10938.041.208.08106.29785.12207a1.7861,1.7861,0,0,1,.94141,1.82227,2.33775,2.33775,0,0,1-1.00586,1.88281,3.67912,3.67912,0,0,1-2.34082.78907,5.39115,5.39115,0,0,1-2.12012-.36426,4.59292,4.59292,0,0,1-1.458-.97168l1.21485-1.21485a2.88756,2.88756,0,0,0,2.06543.85059q1.21436,0,1.51562-.5166a.9621.9621,0,0,0,0-1.03223q-.30176-.51708-2.11718-.57715v-1.63964q1.8164.12158,2.11718-.39551a.9621.9621,0,0,0,0-1.03223q-.30176-.51562-1.51562-.5166a2.16261,2.16261,0,0,0-1.76172.72949l-1.21484-1.21484a4.24423,4.24423,0,0,1,1.30566-.91114,5.09315,5.09315,0,0,1,1.96875-.30371,3.20779,3.20779,0,0,1,2.21973.79,2.44314,2.44314,0,0,1,.88378,1.88282,1.80105,1.80105,0,0,1-.82031,1.73046Q208.7129,311.28564,208.61621,311.334Z"/><path class="cls-2" d="M211.33691,313.51465v-1.208h3.76563v1.208Z"/><path class="cls-2" d="M217.83008,315.9502l.00586-.60743,2.84863-6.80273h-3.89941l-.00586-1.7002H222.999v.668l-3.3955,8.44239Z"/><path class="cls-2" d="M224.99707,310.68457a2.34729,2.34729,0,1,1,1.62793.65625A2.20949,2.20949,0,0,1,224.99707,310.68457Zm1.60938-.4248a1.08683,1.08683,0,0,0,.832-.34668,1.31089,1.31089,0,0,0,0-1.72168,1.0983,1.0983,0,0,0-.83789-.34375,1.08444,1.08444,0,0,0-.82618.34375,1.31089,1.31089,0,0,0,0,1.72168A1.08684,1.08684,0,0,0,226.60645,310.25977Zm-.48536,5.69043,5.16211-9.11036h1.48242l-5.15039,9.11036Zm4.52442-.60059a2.33465,2.33465,0,1,1,1.61523.64941A2.19388,2.19388,0,0,1,230.64551,315.34961Zm1.585-.44434a1.06725,1.06725,0,0,0,.81445-.33691,1.27057,1.27057,0,0,0,0-1.67578,1.07421,1.07421,0,0,0-.82031-.33692,1.0568,1.0568,0,0,0-.80762.33692,1.27057,1.27057,0,0,0,0,1.67578A1.06368,1.06368,0,0,0,232.23047,314.90527Z"/></svg>