<svg id="Content" xmlns="http://www.w3.org/2000/svg" width="320" height="568" viewBox="0 0 320 568"><defs><style>.cls-1{fill:#fff;stroke:#ba9544;stroke-miterlimit:10;stroke-width:0.5px;}.cls-2{fill:#ba9544;}</style></defs><title>THC - MK Ultra</title><polygon class="cls-1" points="253.818 298.696 67.737 297.991 58.343 311.537 67.737 324.842 253.818 324.526 262.273 311.612 253.818 298.696"/><polygon class="cls-2" points="67.873 297.991 58.479 311.537 67.873 324.842 96.391 324.842 96.486 297.991 67.873 297.991"/><path class="cls-2" d="M174.24121,307.09766v1.70117h-3.03662V316.209h-1.82227v-7.41015H166.3457v-1.70117Z"/><path class="cls-2" d="M175.5957,316.209v-9.11132H177.418v3.64453h4.2456V307.0918h1.82178v9.11132l-1.82178.00586v-3.76562H177.418V316.209Z"/><path class="cls-2" d="M186.313,314.89941a4.55728,4.55728,0,0,1,3.24023-7.80175,4.93016,4.93016,0,0,1,3.34668,1.21484l-1.21484,1.33008a3.36112,3.36112,0,0,0-2.13184-.72852,2.67672,2.67672,0,0,0-1.97705.76563,2.64739,2.64739,0,0,0-.75,1.94336,2.73175,2.73175,0,0,0,.75928,2.0166,2.68891,2.68891,0,0,0,1.98.74707,3.26672,3.26672,0,0,0,2.11963-.72266l1.21484,1.33008a4.91617,4.91617,0,0,1-3.34668,1.21484A4.43,4.43,0,0,1,186.313,314.89941Z"/><path class="cls-2" d="M194.94092,310.39941a.879.879,0,0,1,.65576-.24609.91218.91218,0,0,1,.68018.24609.83353.83353,0,0,1,.24316.61036.82372.82372,0,0,1-.24316.60742,1.039,1.039,0,0,1-1.33594,0,.82369.82369,0,0,1-.24317-.60742A.8335.8335,0,0,1,194.94092,310.39941Zm0,4.34864a.87892.87892,0,0,1,.65576-.2461.91215.91215,0,0,1,.68018.2461.8335.8335,0,0,1,.24316.61035.82372.82372,0,0,1-.24316.60742,1.039,1.039,0,0,1-1.33594,0,.82369.82369,0,0,1-.24317-.60742A.83346.83346,0,0,1,194.94092,314.74805Z"/><path class="cls-2" d="M204.64014,307.09766v-.00586h1.8164V316.209h-1.8164v-6.68164l-1.21485,1.21485-1.21435-1.21485Z"/><path class="cls-2" d="M208.27246,311.78125a5.51791,5.51791,0,0,1,.94141-3.42285,3.07391,3.07391,0,0,1,2.52051-1.25391,3.82941,3.82941,0,0,1,2.55126.9043l-.91113,1.21484a3.21969,3.21969,0,0,0-1.561-.36425,1.61166,1.61166,0,0,0-1.25733.5166,2.44218,2.44218,0,0,0-.52246,1.54882,2.8313,2.8313,0,0,1,1.82227-.79,3.04035,3.04035,0,0,1,2.33838.82031,3.13336,3.13336,0,0,1,.75927,2.2168,2.98789,2.98789,0,0,1-.85009,2.15624,3.2231,3.2231,0,0,1-2.42969.88086,3.05127,3.05127,0,0,1-2.61182-1.23339A5.65052,5.65052,0,0,1,208.27246,311.78125Zm2.0044,1.39648q.06078,1.27,1.45752,1.32422,1.39746-.05419,1.458-1.209a1.37561,1.37561,0,0,0-1.51855-1.51758A1.35228,1.35228,0,0,0,210.27686,313.17773Z"/><path class="cls-2" d="M216.59326,313.77344v-1.209h3.76563v1.209Z"/><path class="cls-2" d="M225.21191,307.09766a3.43685,3.43685,0,0,1,2.18946.67187,2.3902,2.3902,0,0,1,.85351,2.001,4.17339,4.17339,0,0,1-1.21191,2.8916,8.42063,8.42063,0,0,1-2.001,1.72461h3.27979V316.209h-6.14063v-1.82226q.60718,0,2.30811-1.51856a8.691,8.691,0,0,0,1.97363-2.15625,1.48078,1.48078,0,0,0-.03027-1.27539q-.304-.6372-1.45752-.63769a2.09276,2.09276,0,0,0-1.70069.72851l-1.21484-1.21484a5.059,5.059,0,0,1,1.18457-.91113A4.56318,4.56318,0,0,1,225.21191,307.09766Z"/><path class="cls-2" d="M230.93945,314.89941a6.24322,6.24322,0,0,1,0-6.49511,2.915,2.915,0,0,1,4.86231,0,6.27031,6.27031,0,0,1,0,6.499,2.91384,2.91384,0,0,1-4.86231-.00391Zm2.43555-.3916q.60132,0,1.05713-.81933a4.77141,4.77141,0,0,0,0-4.06934q-.45557-.82031-1.06934-.82031-.60132,0-1.05664.82031a4.77151,4.77151,0,0,0,0,4.06934Q232.76171,314.50733,233.375,314.50781Z"/><path class="cls-2" d="M238.87793,310.94238a2.34729,2.34729,0,1,1,1.62793.65625A2.20876,2.20876,0,0,1,238.87793,310.94238Zm1.60986-.4248a1.086,1.086,0,0,0,.832-.3457,1.31368,1.31368,0,0,0,0-1.72266,1.09787,1.09787,0,0,0-.83837-.34277,1.08186,1.08186,0,0,0-.82569.34277,1.3122,1.3122,0,0,0,0,1.72266A1.0846,1.0846,0,0,0,240.48779,310.51758Zm-.48584,5.6914,5.1626-9.11132h1.48193l-5.15039,9.11132Zm4.52491-.60156a2.3315,2.3315,0,1,1,1.61523.65039A2.19206,2.19206,0,0,1,244.52686,315.60742Zm1.585-.44336a1.06546,1.06546,0,0,0,.814-.33691,1.27038,1.27038,0,0,0,0-1.67676,1.07241,1.07241,0,0,0-.81982-.33691,1.05858,1.05858,0,0,0-.80811.33691,1.27186,1.27186,0,0,0,0,1.67676A1.06548,1.06548,0,0,0,246.11182,315.16406Z"/></svg>