<svg id="Layer_1" data-name="Layer 1" xmlns="http://www.w3.org/2000/svg" width="320" height="50" viewBox="0 0 320 50"><defs><style>.cls-1{fill:#ab9555;}</style></defs><title>frame3</title><path class="cls-1" d="M130.87012,20.11929l1.4248,4.78808V20.11929h1.07422v7.125h-1.15332l-1.47754-4.5625v4.5625h-1.07422v-7.125Z"/><path class="cls-1" d="M136.60547,25.60757l-.26074,1.63672h-1.11817l1.21094-7.11914h1.47656l1.19336,7.11914h-1.1289l-.252-1.63672Zm.56445-3.85156-.39746,2.80664h.79492Z"/><path class="cls-1" d="M142.044,27.24429h-1.07422v-7.125h1.541l1.001,5.11816.96094-5.11816h1.48046v7.125h-1.07421V22.76675l-.93164,4.47754H143.084l-1.04-4.46582Z"/><path class="cls-1" d="M149.18945,25.60757l-.26074,1.63672h-1.11816l1.21093-7.11914h1.47657l1.19336,7.11914H150.5625l-.25195-1.63672Zm.56446-3.85156-.39746,2.80664h.79492Z"/><path class="cls-1" d="M156.7832,25.47183a2.01,2.01,0,0,1-.38672,1.27246,1.399,1.399,0,0,1-.73828.50586,2.03051,2.03051,0,0,1-.59668.0791,1.68468,1.68468,0,0,1-1.0459-.3125,1.736,1.736,0,0,1-.54785-.69531,2.79951,2.79951,0,0,1-.23632-1.00879l1.02246-.07422a1.55341,1.55341,0,0,0,.33007.90234.55008.55008,0,0,0,.44336.2002.66772.66772,0,0,0,.5625-.34668.87055.87055,0,0,0,.10743-.47266,1.308,1.308,0,0,0-.40332-.88086q-.31788-.30176-.95411-.9043a4.06567,4.06567,0,0,1-.75586-.92675,2.1464,2.1464,0,0,1-.23828-1.001,1.74252,1.74252,0,0,1,.65332-1.47363,1.626,1.626,0,0,1,1-.30078,1.813,1.813,0,0,1,.98243.25586,1.47047,1.47047,0,0,1,.51464.55664,2.05088,2.05088,0,0,1,.23536.82324l-1.02833.1875a1.23859,1.23859,0,0,0-.25-.68164.5249.5249,0,0,0-.42578-.17578.49152.49152,0,0,0-.44922.26074,1.01319,1.01319,0,0,0-.125.52344,1.56991,1.56991,0,0,0,.4209.99414,3.48555,3.48555,0,0,0,.47657.4541q.375.31347.49511.4375a3.7061,3.7061,0,0,1,.61328.78418,3.00823,3.00823,0,0,1,.165.33594A1.96357,1.96357,0,0,1,156.7832,25.47183Z"/><path class="cls-1" d="M159.62305,21.20425h-1.14258v-1.0791H161.833v1.0791h-1.13672v6.04h-1.07324Z"/><path class="cls-1" d="M163.65723,27.24429v-7.125h3.05664v1.0791h-1.98242v1.94336h1.44824v1.08008h-1.44824v1.94336h1.98242v1.0791Z"/><path class="cls-1" d="M168.41211,26.17593h1.07422v1.07422h-1.07422Z"/><path class="cls-1" d="M172.88965,27.33511a1.69714,1.69714,0,0,1-1.70508-1.69922V21.75015a1.70167,1.70167,0,1,1,3.40332,0v.8125h-1.11328v-.835a.62184.62184,0,0,0-.61914-.62012.58344.58344,0,0,0-.43457.18262.59779.59779,0,0,0-.17969.4375v3.89746a.61184.61184,0,0,0,.61426.61328.60234.60234,0,0,0,.4375-.17871.58779.58779,0,0,0,.18164-.43457v-.9834h1.11328v.99414a1.69709,1.69709,0,0,1-1.69824,1.69922Z"/><path class="cls-1" d="M178.10938,20.03433a1.70211,1.70211,0,0,1,1.7041,1.7041v3.88672a1.70167,1.70167,0,1,1-3.40332,0V21.73843a1.70211,1.70211,0,0,1,1.69922-1.7041Zm.585,1.68164a.6102.6102,0,0,0-.61329-.61328.60078.60078,0,0,0-.4375.17871.58624.58624,0,0,0-.18164.43457v3.89746a.58624.58624,0,0,0,.18164.43457.60168.60168,0,0,0,.4375.17969.61185.61185,0,0,0,.61329-.61426Z"/><path class="cls-1" d="M182.791,27.24429H181.7168v-7.125h1.541l1.001,5.11816.96094-5.11816h1.48047v7.125H185.626V22.76675l-.93164,4.47754h-.86329l-1.04-4.46582Z"/></svg>