<svg id="Layer_1" data-name="Layer 1" xmlns="http://www.w3.org/2000/svg" width="320" height="50" viewBox="0 0 320 50"><defs><style>.cls-1{fill:#ab9555;}</style></defs><title>frame1</title><path class="cls-1" d="M77.38574,27.335a1.698,1.698,0,0,1-1.70459-1.69873V21.75049a1.70191,1.70191,0,1,1,3.40381,0v.8125H77.97119v-.835a.62269.62269,0,0,0-.61963-.62012.585.585,0,0,0-.43457.18262.60075.60075,0,0,0-.17871.4375v3.89746a.61018.61018,0,0,0,.61328.61279.60075.60075,0,0,0,.4375-.17871.58455.58455,0,0,0,.18213-.43408v-.9834H79.085v.99414A1.69709,1.69709,0,0,1,77.38574,27.335Z"/><path class="cls-1" d="M82.0376,25.60791l-.26123,1.63623H80.6582l1.21045-7.11865h1.477l1.19336,7.11865H83.40967l-.251-1.63623Zm.564-3.85156-.398,2.80664h.7959Z"/><path class="cls-1" d="M87.60742,20.11963l1.42529,4.78808V20.11963h1.07374v7.12451H88.95312l-1.477-4.562v4.562H86.40186V20.11963Z"/><path class="cls-1" d="M93.23242,20.11963l1.42529,4.78808V20.11963h1.07374v7.12451H94.57812l-1.477-4.562v4.562H92.02686V20.11963Z"/><path class="cls-1" d="M98.96875,25.60791l-.26123,1.63623H97.58936l1.21044-7.11865h1.47706l1.19335,7.11865h-1.12939l-.251-1.63623Zm.564-3.85156L99.13477,24.563h.79589Z"/><path class="cls-1" d="M103.333,27.24414V20.11963h1.60791a2.04665,2.04665,0,0,1,1.14795.335,1.56232,1.56232,0,0,1,.625.88086,2.47456,2.47456,0,0,1,.10205.75586,1.67335,1.67335,0,0,1-.38037,1.14746,1.079,1.079,0,0,1-.375.27832,1.25052,1.25052,0,0,1,.60791.54,2.09422,2.09422,0,0,1,.24414.7041,2.83218,2.83218,0,0,1,.04.49512,2.37842,2.37842,0,0,1-.25586,1.147,1.64648,1.64648,0,0,1-1.375.84082Zm1.15918-4.21533h.44873a.65862.65862,0,0,0,.6709-.48828,1.40571,1.40571,0,0,0,.0625-.44922.94013.94013,0,0,0-.21631-.6709.68027.68027,0,0,0-.51709-.21h-.44873Zm0,3.15283h.44873a.7616.7616,0,0,0,.75586-.562,1.23412,1.23412,0,0,0,.07373-.44336,1.35034,1.35034,0,0,0-.22705-.86914.73226.73226,0,0,0-.60254-.25h-.44873Z"/><path class="cls-1" d="M109.918,27.24414h-1.07422V20.12549H109.918Z"/><path class="cls-1" d="M115.32715,25.47217a1.99962,1.99962,0,0,1-.38623,1.272,1.39462,1.39462,0,0,1-.73877.50586,2.02362,2.02362,0,0,1-.59668.0791,1.68412,1.68412,0,0,1-1.04541-.3125,1.74942,1.74942,0,0,1-.54834-.69531,2.81705,2.81705,0,0,1-.23584-1.0083l1.02295-.07422a1.55037,1.55037,0,0,0,.32959.90185.54915.54915,0,0,0,.44287.2002.667.667,0,0,0,.5625-.34619.86145.86145,0,0,0,.1084-.47266,1.311,1.311,0,0,0-.40381-.88086q-.31788-.30176-.95459-.90429a4.07454,4.07454,0,0,1-.75537-.92676,2.14676,2.14676,0,0,1-.23877-1.001,1.74249,1.74249,0,0,1,.65332-1.47363,1.62891,1.62891,0,0,1,1-.30078,1.81236,1.81236,0,0,1,.98291.25586,1.46172,1.46172,0,0,1,.51416.55664,2.05114,2.05114,0,0,1,.23584.82324l-1.02832.1875a1.24238,1.24238,0,0,0-.25-.68164.52593.52593,0,0,0-.42627-.17578.49128.49128,0,0,0-.44873.26074,1.00835,1.00835,0,0,0-.125.52344,1.5691,1.5691,0,0,0,.42041.99414,3.503,3.503,0,0,0,.47754.4541q.375.31347.49414.4375a3.67814,3.67814,0,0,1,.61377.78418,3.00008,3.00008,0,0,1,.16455.33594A1.94217,1.94217,0,0,1,115.32715,25.47217Z"/><path class="cls-1" d="M122.23438,24.228v3.01611h-1.07422V20.12549h1.07422V23.148h1.29541V20.12549h1.07373v7.11865h-1.07373V24.228Z"/><path class="cls-1" d="M127.83984,25.60791l-.26074,1.63623h-1.11816l1.21094-7.11865h1.47656l1.19336,7.11865h-1.12891l-.25195-1.63623Zm.56446-3.85156-.39746,2.80664h.79492Z"/><path class="cls-1" d="M135.43262,25.47217a2.00862,2.00862,0,0,1-.38672,1.272,1.399,1.399,0,0,1-.73828.50586,2.03055,2.03055,0,0,1-.59668.0791,1.68462,1.68462,0,0,1-1.0459-.3125,1.7358,1.7358,0,0,1-.54785-.69531,2.79661,2.79661,0,0,1-.23633-1.0083l1.02246-.07422a1.55034,1.55034,0,0,0,.33008.90185.55006.55006,0,0,0,.44336.2002.66824.66824,0,0,0,.5625-.34619.87056.87056,0,0,0,.10742-.47266,1.308,1.308,0,0,0-.40332-.88086q-.31787-.30176-.9541-.90429a4.06536,4.06536,0,0,1-.75586-.92676,2.14637,2.14637,0,0,1-.23828-1.001,1.74249,1.74249,0,0,1,.65332-1.47363,1.62591,1.62591,0,0,1,1-.30078,1.813,1.813,0,0,1,.98242.25586,1.4705,1.4705,0,0,1,.51465.55664,2.05087,2.05087,0,0,1,.23535.82324l-1.02832.1875a1.23862,1.23862,0,0,0-.25-.68164.52492.52492,0,0,0-.42578-.17578.49151.49151,0,0,0-.44922.26074,1.01312,1.01312,0,0,0-.125.52344,1.56986,1.56986,0,0,0,.4209.99414,3.486,3.486,0,0,0,.47656.4541q.375.31347.49512.4375a3.70635,3.70635,0,0,1,.61328.78418,3.00823,3.00823,0,0,1,.165.33594A1.96412,1.96412,0,0,1,135.43262,25.47217Z"/><path class="cls-1" d="M141.10645,27.24414V20.11963h1.60839a2.04618,2.04618,0,0,1,1.14746.335,1.56,1.56,0,0,1,.625.88086,2.47361,2.47361,0,0,1,.10254.75586,1.67113,1.67113,0,0,1-.38086,1.14746,1.08794,1.08794,0,0,1-.375.27832,1.24748,1.24748,0,0,1,.60743.54,2.10427,2.10427,0,0,1,.24511.7041,2.83637,2.83637,0,0,1,.03907.49512,2.38408,2.38408,0,0,1-.25489,1.147,1.64648,1.64648,0,0,1-1.375.84082Zm1.15917-4.21533h.44922a.65753.65753,0,0,0,.66993-.48828,1.39207,1.39207,0,0,0,.0625-.44922.9378.9378,0,0,0-.21582-.6709.68067.68067,0,0,0-.51661-.21h-.44922Zm0,3.15283h.44922a.76238.76238,0,0,0,.75586-.562,1.24492,1.24492,0,0,0,.07325-.44336,1.34428,1.34428,0,0,0-.22754-.86914.73026.73026,0,0,0-.60157-.25h-.44922Z"/><path class="cls-1" d="M146.61133,27.24414V20.11963H149.668v1.0791h-1.98242v1.94336h1.44824v1.08008h-1.44824V26.165H149.668v1.0791Z"/><path class="cls-1" d="M151.36621,27.24414V20.11963h3.05664v1.0791h-1.98242v1.94336h1.44824v1.08008h-1.44824V26.165h1.98242v1.0791Z"/><path class="cls-1" d="M157.32715,20.11963l1.4248,4.78808V20.11963h1.07422v7.12451h-1.15332l-1.47754-4.562v4.562h-1.07422V20.11963Z"/><path class="cls-1" d="M168.31836,27.32324a1.68718,1.68718,0,0,1-1.69922-1.69189V20.12549h1.05176v5.49414a.5844.5844,0,0,0,.18164.43408.60075.60075,0,0,0,.4375.17871.61018.61018,0,0,0,.61328-.61279V20.12549h1.11914v5.50586a1.61435,1.61435,0,0,1-.5,1.20361A1.65762,1.65762,0,0,1,168.31836,27.32324Z"/><path class="cls-1" d="M175.41992,25.47217a2.00856,2.00856,0,0,1-.38672,1.272,1.399,1.399,0,0,1-.73828.50586,2.03055,2.03055,0,0,1-.59668.0791,1.68462,1.68462,0,0,1-1.0459-.3125,1.73589,1.73589,0,0,1-.54785-.69531,2.79682,2.79682,0,0,1-.23633-1.0083l1.02246-.07422a1.55041,1.55041,0,0,0,.33008.90185.55008.55008,0,0,0,.44336.2002.66822.66822,0,0,0,.5625-.34619.87056.87056,0,0,0,.10742-.47266,1.308,1.308,0,0,0-.40332-.88086q-.31786-.30176-.9541-.90429a4.06563,4.06563,0,0,1-.75586-.92676,2.14637,2.14637,0,0,1-.23828-1.001,1.74252,1.74252,0,0,1,.65332-1.47363,1.62593,1.62593,0,0,1,1-.30078,1.813,1.813,0,0,1,.98242.25586,1.47042,1.47042,0,0,1,.51465.55664,2.05071,2.05071,0,0,1,.23535.82324l-1.02832.1875a1.23862,1.23862,0,0,0-.25-.68164.5249.5249,0,0,0-.42578-.17578.49152.49152,0,0,0-.44922.26074,1.01322,1.01322,0,0,0-.125.52344,1.56991,1.56991,0,0,0,.4209.99414,3.486,3.486,0,0,0,.47656.4541q.375.31347.49512.4375a3.70635,3.70635,0,0,1,.61328.78418,3.00823,3.00823,0,0,1,.165.33594A1.9639,1.9639,0,0,1,175.41992,25.47217Z"/><path class="cls-1" d="M177.27148,27.24414V20.11963h3.05664v1.0791H178.3457v1.94336H179.794v1.08008H178.3457V26.165h1.98242v1.0791Z"/><path class="cls-1" d="M185.40137,25.54053a1.651,1.651,0,0,1-.49414,1.20361,1.61772,1.61772,0,0,1-1.19336.5h-1.6875V20.11963h1.6875a1.61645,1.61645,0,0,1,1.19629.5,1.65174,1.65174,0,0,1,.49121,1.19922Zm-2.30078.64111h.64746a.57364.57364,0,0,0,.43164-.18408.60985.60985,0,0,0,.17676-.43457V21.83545a.59937.59937,0,0,0-.17969-.4375.57956.57956,0,0,0-.42871-.18164h-.64746Z"/><path class="cls-1" d="M194.36816,25.47217a2.00862,2.00862,0,0,1-.38671,1.272,1.399,1.399,0,0,1-.73829.50586,2.03046,2.03046,0,0,1-.59668.0791,1.68459,1.68459,0,0,1-1.04589-.3125,1.73582,1.73582,0,0,1-.54786-.69531,2.79682,2.79682,0,0,1-.23632-1.0083l1.02246-.07422a1.55034,1.55034,0,0,0,.33008.90185.55.55,0,0,0,.44335.2002.66822.66822,0,0,0,.5625-.34619.87055.87055,0,0,0,.10743-.47266,1.308,1.308,0,0,0-.40332-.88086q-.31788-.30176-.95411-.90429a4.06554,4.06554,0,0,1-.75585-.92676,2.14638,2.14638,0,0,1-.23829-1.001,1.74252,1.74252,0,0,1,.65332-1.47363,1.626,1.626,0,0,1,1-.30078,1.813,1.813,0,0,1,.98243.25586,1.4704,1.4704,0,0,1,.51464.55664,2.05088,2.05088,0,0,1,.23536.82324l-1.02832.1875a1.23877,1.23877,0,0,0-.25-.68164.52494.52494,0,0,0-.42579-.17578.49149.49149,0,0,0-.44921.26074,1.01312,1.01312,0,0,0-.125.52344,1.5699,1.5699,0,0,0,.42089.99414,3.48555,3.48555,0,0,0,.47657.4541q.375.31347.49511.4375a3.70675,3.70675,0,0,1,.61329.78418,3.00977,3.00977,0,0,1,.165.33594A1.96367,1.96367,0,0,1,194.36816,25.47217Z"/><path class="cls-1" d="M197.91309,20.12549a1.63788,1.63788,0,0,1,1.25.49414,1.713,1.713,0,0,1,.43164,1.2041v1.03418a1.65865,1.65865,0,0,1-.49121,1.20508,1.60971,1.60971,0,0,1-1.19043.5H197.294v2.68115h-1.07422V20.12549Zm.6416,1.71582a.61583.61583,0,0,0-.167-.44922.59992.59992,0,0,0-.44629-.16992H197.294v2.27832h.64746a.58626.58626,0,0,0,.43457-.18164.60236.60236,0,0,0,.17871-.4375Z"/><path class="cls-1" d="M202.48633,27.24414h-1.07422V20.12549h1.07422Z"/><path class="cls-1" d="M206.09961,20.12549a1.63886,1.63886,0,0,1,1.31836.49414,1.79689,1.79689,0,0,1,.36914,1.2041v1.03418a1.66156,1.66156,0,0,1-.57422,1.27832l.7959,3.10791h-1.16113l-.65137-2.68115h-.71582v2.68115h-1.07422V20.12549Zm.6416,1.71582a.54441.54441,0,0,0-.61328-.61914h-.64746v2.27832h.64746a.58624.58624,0,0,0,.43457-.18164.60236.60236,0,0,0,.17871-.4375Z"/><path class="cls-1" d="M210.96289,27.24414h-1.07422V20.12549h1.07422Z"/><path class="cls-1" d="M213.92871,21.20459h-1.14258v-1.0791h3.35254v1.0791H215.002v6.03955h-1.07324Z"/><path class="cls-1" d="M219.65527,27.32324a1.6872,1.6872,0,0,1-1.69922-1.69189V20.12549h1.05176v5.49414a.5844.5844,0,0,0,.18164.43408.60077.60077,0,0,0,.4375.17871.61018.61018,0,0,0,.61328-.61279V20.12549h1.11915v5.50586a1.61439,1.61439,0,0,1-.5,1.20361A1.65765,1.65765,0,0,1,219.65527,27.32324Z"/><path class="cls-1" d="M224.43652,25.60791l-.26074,1.63623h-1.11816l1.21093-7.11865h1.47657l1.19336,7.11865h-1.12891l-.252-1.63623Zm.56446-3.85156-.39746,2.80664h.79492Z"/><path class="cls-1" d="M231.72852,27.24414h-2.92676V20.12549H229.876v6.05029h1.85254Z"/><path class="cls-1" d="M236.35352,27.24414h-2.92676V20.12549H234.501v6.05029h1.85254Z"/><path class="cls-1" d="M238.16016,24.26123l-1.4375-4.1416h1.18164l.7959,2.55664.79-2.55664h1.1875l-1.44335,4.1416v2.98291h-1.07422Z"/></svg>