<svg id="Layer_1" data-name="Layer 1" xmlns="http://www.w3.org/2000/svg" xmlns:xlink="http://www.w3.org/1999/xlink" width="300" height="600" viewBox="0 0 300 600"><defs><style>.cls-1{fill:url(#linear-gradient);}.cls-2{fill:url(#linear-gradient-2);}.cls-3{fill:url(#linear-gradient-3);}.cls-4{fill:#fff;}</style><linearGradient id="linear-gradient" x1="166.47686" y1="444.49877" x2="166.47686" y2="476.49663" gradientUnits="userSpaceOnUse"><stop offset="0" stop-color="#ceb467"/><stop offset="1" stop-color="#997f2f"/></linearGradient><linearGradient id="linear-gradient-2" x1="96.98789" y1="444.45124" x2="96.98789" y2="476.54416" xlink:href="#linear-gradient"/><linearGradient id="linear-gradient-3" x1="89.10971" y1="459.62351" x2="159.5971" y2="460.25006" gradientUnits="userSpaceOnUse"><stop offset="0" stop-color="#ad8f35"/><stop offset="0.1878" stop-color="#ceb467"/><stop offset="0.46098" stop-color="#a58f4b"/><stop offset="0.76341" stop-color="#ceb467"/><stop offset="1" stop-color="#997f2f"/></linearGradient></defs><title>link</title><path class="cls-1" d="M214.29947,476.49663H109.95386l9.06267-15.99864-9.06267-15.99922H214.29947l8.70039,15.99922Zm-102.30876-1.1871H213.59346l8.05468-14.81154-8.05468-14.81212H111.99071L120.381,460.498Z"/><path class="cls-2" d="M106.4395,476.54416l-19.062-.09506L78.72518,460.407l8.8111-15.95575,19.062.09506,8.65229,16.04211Zm-18.3514-1.27868,17.65235.0881,8.15728-14.77212-8.01-14.85153-17.65235-.08811-8.15727,14.77212Z"/><path class="cls-3" d="M103.24293,464.49l.1911-.06266a2.14792,2.14792,0,0,0-.40476.125l-2.00136.8341,1.21113-.9024-.00925.00156-.02756-.20817-.22008-.36308a7.25108,7.25108,0,0,0,1.64909-1.70235l-1.61808.77457,1.64863-1.37309a2.7242,2.7242,0,0,0,.52348-.5675c.21256-.32142.40992-.65068.59006-.98385l-.51111.50469.6126-1.33268a17.59922,17.59922,0,0,0,.90632-2.50591,21.359,21.359,0,0,0-2.42869,1.56482l-1.19937.909.38251-.596c-.3103.26379-.61026.54229-.8966.83223a2.63659,2.63659,0,0,0-.44157.61872l-.87592,1.67775.31124-1.53145a7.24443,7.24443,0,0,0-.69407.83018l-.15257.213-.14-.09618a.35324.35324,0,0,0-.02161.03649l-1.2033,2.28176.70957-2.48006a7.87161,7.87161,0,0,0,.23543-3.11241l-.82861,1.54007.4013-1.85256a3.01784,3.01784,0,0,0,.06266-.92448,14.9431,14.9431,0,0,0-.31829-1.87011l-.10933.90945-.35965-1.3258a22.54864,22.54864,0,0,0-1.22852-3.325,22.54391,22.54391,0,0,0-1.22836,3.325l-.3598,1.3258-.10918-.90945a14.912,14.912,0,0,0-.31828,1.87011,3.01433,3.01433,0,0,0,.06266.92463l.40083,1.853-.82815-1.54038a7.87,7.87,0,0,0,.23528,3.11209l.70973,2.48022-1.2033-2.28192a.38249.38249,0,0,0-.02178-.03649l-.13988.09618-.15272-.213a7.23861,7.23861,0,0,0-.69391-.83018l.31124,1.53145-.87608-1.67775a2.6347,2.6347,0,0,0-.44141-.61872c-.2857-.28947-.58551-.56751-.89534-.83113l.38345.59664L90.621,458.293a21.34314,21.34314,0,0,0-2.42869-1.56482,17.58438,17.58438,0,0,0,.90647,2.50591l.61261,1.33268-.51111-.50469c.18.33317.37751.66243.59006.98385a2.71866,2.71866,0,0,0,.52334.5675l1.64877,1.37309-1.61808-.77457a7.24815,7.24815,0,0,0,1.6491,1.70235l-.22008.36308-.02757.20817-.00939-.00156,1.21128.9024-2.00153-.8341a2.14247,2.14247,0,0,0-.40459-.125l.19094.06266L89.017,464.486a14.73519,14.73519,0,0,0-1.635.099,13.46288,13.46288,0,0,0,1.39784.76832l1.50937.70816-.17356-.021a2.25521,2.25521,0,0,0,.38267.04887l2.28724.1015-1.56059.2973a5.61711,5.61711,0,0,0,1.12717.1239l1.65535.01081-.968.31422,1.48728.25845-2.29037.13753q-.05473.00329-.10714.00987l-1.05073.51393c-.26958.13173-.52114.2749-.75343.41822.28821.02225.59867.036.913.03023l1.19735-.0213c.03258-.01159.06532-.02459.09806-.03869l1.98116-.86245-.99951.77066a3.46832,3.46832,0,0,0,.39222-.16776s.156.08992.18577.115a.74448.74448,0,0,0,.084-.01833,3.53706,3.53706,0,0,0,.86809-.50689,3.65274,3.65274,0,0,1,.97336-.55543,2.425,2.425,0,0,1,.34084-.0636.93119.93119,0,0,1-.44876-.27991c-.2168-.21663-.29949-.50907-.09069-.5708.20863-.06171.58739.29245.612.29245a.45142.45142,0,0,0,.12641-.2915c0-.125-.08945-.36826-.106-.51518a2.45817,2.45817,0,0,0-.08913-.42638c-.03258-.09695-.25876-.1391-.38031-.214a1.99111,1.99111,0,0,1-.30655-.21224.96909.96909,0,0,1-.13032-.4447,1.75393,1.75393,0,0,0-.07315-.45284c-.04229-.07926-.151-.13518-.22462-.2088a.31651.31651,0,0,1-.07566-.19455c.0564-.0177.07409.12766.13926.14s.06061.0661.1629.10134c.10213.03509.10557.08365.11873.17873s.12782.41666.16573.54776c.03774.13127.07737.22995.20692.23434.12938.00438.11184.07143.26425.059a.85143.85143,0,0,1,.36544.07049c.08191.029.185.03165.22022-.02552.03525-.05734-.02459-.28807-.02459-.28807-.05294,0-.06187-.07126-.08207-.13736-.02-.0661.01253-.07128.01253-.07128a.27908.27908,0,1,1,.53178,0s.03258.00518.01238.07128c-.02036.0661-.029.13736-.08192.13736,0,0-.05984.23073-.02475.28807.0354.05717.13831.0545.22039.02552a.85035.85035,0,0,1,.36543-.07049c.15226.01239.13471-.05466.2641-.059s.16917-.10307.20707-.23434c.03791-.1311.15226-.45269.16557-.54776.01316-.09508.01676-.14364.1189-.17873s.09773-.089.1629-.10134.08286-.15774.13924-.14a.316.316,0,0,1-.0758.19455c-.07347.07362-.18233.12954-.22447.2088a1.74055,1.74055,0,0,0-.07315.45284.96908.96908,0,0,1-.13033.4447,2.00583,2.00583,0,0,1-.30653.21224c-.12156.07487-.3479.117-.38048.214a2.44451,2.44451,0,0,0-.089.42638c-.01676.14692-.106.39018-.106.51518a.45065.45065,0,0,0,.12641.2915c.02459,0,.40335-.35416.612-.29245.2088.06173.12609.35417-.09069.5708a.93.93,0,0,1-.44877.27991,2.41863,2.41863,0,0,1,.34069.0636,3.65286,3.65286,0,0,1,.97335.55543,3.54233,3.54233,0,0,0,.86793.50689.77022.77022,0,0,0,.08412.01833c.02976-.02491.18593-.115.18593-.115a3.46692,3.46692,0,0,0,.39223.16776l-.99952-.77066,1.981.86245c.03274.0141.06547.0271.09805.03869l1.19751.0213c.31437.00581.62467-.008.913-.03023-.23229-.14332-.484-.28649-.75358-.41822l-1.05073-.51393c-.03478-.00439-.07065-.00768-.107-.00987l-2.2902-.13753,1.48822-.25861-.96489-.31406,1.65113-.01081a5.61846,5.61846,0,0,0,1.12717-.1239l-1.5606-.2973,2.28709-.1015a2.25491,2.25491,0,0,0,.38282-.04887l-.17371.021,1.50937-.70816a13.467,13.467,0,0,0,1.398-.76832,14.73775,14.73775,0,0,0-1.635-.099Z"/><path class="cls-4" d="M127.23191,464.653v-7.5628h.50419l4.73935,4.73935v-4.73935H133.988v7.5628h-.55461l-4.68893-4.68893V464.653Z"/><path class="cls-4" d="M135.36443,464.653l3.02512-7.5628h1.51256l3.02007,7.55775-1.60835.005-.45377-1.15963H137.4316l-.45377,1.15963Zm3.82173-5.546-1.14954,2.87386h2.26884Z"/><path class="cls-4" d="M144.25828,464.653v-7.5628h.50418l3.27721,3.731,3.28225-3.731h.50419v7.5628h-1.51256l-.005-4.38642-2.26884,2.52093-2.26883-2.52093V464.653Z"/><path class="cls-4" d="M153.1412,464.653l3.02511-7.5628h1.51256L160.699,464.648l-1.60836.005-.45376-1.15963h-3.42847l-.45377,1.15963Zm3.82173-5.546-1.14955,2.87386h2.26884Z"/><path class="cls-4" d="M166.129,457.34234a3.52152,3.52152,0,0,1,1.084.75628l-1.00837,1.00837a1.73629,1.73629,0,0,0-1.41172-.605q-.90754,0-1.15963.42855a.59.59,0,0,0,0,.73107,1.9927,1.9927,0,0,0,1.15963.45377,3.75391,3.75391,0,0,1,1.73944.63023,1.89328,1.89328,0,0,1,.78149,1.689,1.9392,1.9392,0,0,1-.83443,1.563,3.0557,3.0557,0,0,1-1.94364.65545,4.47916,4.47916,0,0,1-1.75961-.30251,3.81488,3.81488,0,0,1-1.21-.8067l1.00837-1.00837a2.39667,2.39667,0,0,0,1.71423.70586q1.00838,0,1.25795-.42856a.79831.79831,0,0,0,0-.85712q-.24958-.42855-1.25795-.52939a4.06674,4.06674,0,0,1-1.66381-.55461,1.67332,1.67332,0,0,1-.75628-1.563,1.88217,1.88217,0,0,1,.85964-1.61087,3.02785,3.02785,0,0,1,1.76717-.60755A4.21958,4.21958,0,0,1,166.129,457.34234Z"/><path class="cls-4" d="M175.043,457.09024V458.502h-2.52093V464.653h-1.51256V458.502h-2.52093v-1.41173Z"/><path class="cls-4" d="M176.35393,464.653v-7.55775l5.55613-.005V458.502h-4.04358v1.61339h3.03016V461.522h-3.03016v1.71928H181.9V464.653Z"/><path class="cls-4" d="M183.67891,463.44047a.73071.73071,0,0,1,.54452-.2042.75794.75794,0,0,1,.56469.2042.69249.69249,0,0,1,.20167.50671.68405.68405,0,0,1-.20167.50418.8634.8634,0,0,1-1.10921,0,.68405.68405,0,0,1-.20167-.50418A.69249.69249,0,0,1,183.67891,463.44047Z"/><path class="cls-4" d="M187.488,463.56652a3.7828,3.7828,0,0,1,2.68983-6.47628,4.09159,4.09159,0,0,1,2.77806,1.00838l-1.00837,1.10416a2.7885,2.7885,0,0,0-1.76969-.605,2.15583,2.15583,0,0,0-2.2638,2.24867,2.26787,2.26787,0,0,0,.63024,1.6739,2.23232,2.23232,0,0,0,1.64364.62015,2.71017,2.71017,0,0,0,1.75961-.6l1.00837,1.10416a4.07956,4.07956,0,0,1-2.77806,1.00838A3.67954,3.67954,0,0,1,187.488,463.56652Z"/><path class="cls-4" d="M195.492,463.56652a3.8948,3.8948,0,1,1,2.6974,1.08652A3.66377,3.66377,0,0,1,195.492,463.56652Zm2.70244-.3252a2.12437,2.12437,0,0,0,1.63356-.68066,2.57841,2.57841,0,0,0,0-3.378,2.31271,2.31271,0,0,0-3.27721,0,2.57841,2.57841,0,0,0,0,3.378A2.13627,2.13627,0,0,0,198.19443,463.24132Z"/><path class="cls-4" d="M203.30183,464.653v-7.5628h.50419l3.27721,3.731,3.28225-3.731h.50419v7.5628h-1.51256l-.005-4.38642-2.26884,2.52093-2.26884-2.52093V464.653Z"/></svg>