<?xml version="1.0" encoding="utf-8"?>
<!-- Generator: Adobe Illustrator 22.1.0, SVG Export Plug-In . SVG Version: 6.00 Build 0)  -->
<svg version="1.1" id="Layer_1" xmlns="http://www.w3.org/2000/svg" xmlns:xlink="http://www.w3.org/1999/xlink" x="0px" y="0px"
	 viewBox="0 0 77.3 9.1" style="enable-background:new 0 0 77.3 9.1;" xml:space="preserve">
<style type="text/css">
	.st0{fill:#D3B372;}
</style>
<title>frame4</title>
<path class="st0" d="M1.5,0.1l1.8,6v-6h1.3V9H3.2L1.3,3.3V9H0V0.1H1.5z"/>
<path class="st0" d="M9.3,7L8.9,9H7.6l1.5-8.9h1.8L12.4,9H11l-0.3-2L9.3,7z M10,2.2L9.5,5.7h1L10,2.2z"/>
<path class="st0" d="M16.7,9h-1.3V0.1h1.9l1.3,6.4l1.2-6.4h1.9V9h-1.3V3.4L19.1,9H18l-1.3-5.6L16.7,9z"/>
<path class="st0" d="M26.2,7l-0.3,2h-1.4L26,0.1h1.8L29.3,9h-1.4l-0.3-2L26.2,7z M26.9,2.2l-0.5,3.5h1L26.9,2.2z"/>
<path class="st0" d="M36.3,6.8c0,0.6-0.1,1.1-0.5,1.6c-0.2,0.3-0.6,0.5-0.9,0.6c-0.2,0.1-0.5,0.1-0.7,0.1c-0.5,0-0.9-0.1-1.3-0.4
	c-0.3-0.2-0.5-0.5-0.7-0.9C32,7.5,31.9,7,31.9,6.6l1.3-0.1c0,0.4,0.2,0.8,0.4,1.1c0.1,0.2,0.3,0.3,0.6,0.2c0.3,0,0.6-0.2,0.7-0.4
	c0.1-0.2,0.1-0.4,0.1-0.6c0-0.4-0.2-0.8-0.5-1.1c-0.3-0.3-0.7-0.6-1.2-1.1c-0.4-0.3-0.7-0.7-0.9-1.2C32.1,3.1,32,2.7,32,2.2
	c0-0.7,0.3-1.4,0.8-1.8C33.2,0.1,33.6,0,34.1,0c0.4,0,0.9,0.1,1.2,0.3c0.3,0.2,0.5,0.4,0.6,0.7c0.2,0.3,0.3,0.7,0.3,1l-1.3,0.2
	c0-0.3-0.1-0.6-0.3-0.9c-0.1-0.2-0.3-0.2-0.5-0.2c-0.2,0-0.5,0.1-0.6,0.3c-0.1,0.2-0.2,0.4-0.2,0.7c0,0.5,0.2,0.9,0.5,1.2
	c0.2,0.2,0.4,0.4,0.6,0.6c0.3,0.3,0.5,0.4,0.6,0.5c0.3,0.3,0.6,0.6,0.8,1C36,5.7,36,5.8,36.1,5.9C36.2,6.2,36.3,6.5,36.3,6.8z"/>
<path class="st0" d="M40.4,1.5H39V0.1h4.2v1.4h-1.4V9h-1.3V1.5z"/>
<path class="st0" d="M46.1,9V0.1h3.8v1.4h-2.5v2.4h1.8v1.3h-1.8v2.4h2.5V9L46.1,9z"/>
<path class="st0" d="M52.6,7.7H54V9h-1.3V7.7z"/>
<path class="st0" d="M58.8,9.1c-1.2,0-2.1-0.9-2.1-2.1c0,0,0,0,0,0V2.1c0-0.6,0.2-1.1,0.6-1.5C57.7,0.2,58.3,0,58.8,0
	c0.6,0,1.1,0.2,1.5,0.6C60.7,1,61,1.6,61,2.1v1h-1.4v-1c0-0.4-0.3-0.8-0.8-0.8c-0.2,0-0.4,0.1-0.5,0.2C58.1,1.7,58,1.9,58,2.1V7
	c0,0.4,0.3,0.8,0.8,0.8c0,0,0,0,0,0c0.2,0,0.4-0.1,0.5-0.2c0.1-0.1,0.2-0.3,0.2-0.5V5.8H61V7C61,8.2,60,9.1,58.8,9.1
	C58.8,9.1,58.8,9.1,58.8,9.1z"/>
<path class="st0" d="M66,0c0.6,0,1.1,0.2,1.5,0.6c0.4,0.4,0.6,0.9,0.6,1.5V7c0,1.2-0.9,2.1-2.1,2.1c-1.2,0-2.1-0.9-2.1-2.1
	c0,0,0,0,0,0V2.1c0-0.6,0.2-1.1,0.6-1.5C64.9,0.2,65.4,0,66,0z M66.7,2.1c0-0.4-0.3-0.8-0.8-0.8c0,0,0,0,0,0c-0.2,0-0.4,0.1-0.5,0.2
	c-0.1,0.1-0.2,0.3-0.2,0.5V7c0,0.2,0.1,0.4,0.2,0.5c0.1,0.1,0.3,0.2,0.5,0.2c0.4,0,0.8-0.3,0.8-0.8c0,0,0,0,0,0V2.1z"/>
<path class="st0" d="M72.4,9h-1.3V0.1H73l1.3,6.4l1.2-6.4h1.9V9H76V3.4L74.8,9h-1.1l-1.3-5.6L72.4,9z"/>
</svg>
