<svg id="Layer_1" data-name="Layer 1" xmlns="http://www.w3.org/2000/svg" xmlns:xlink="http://www.w3.org/1999/xlink" width="970" height="250" viewBox="0 0 970 250"><defs><style>.cls-1{fill:url(#New_Gradient_Swatch_2);}.cls-2{fill:url(#New_Gradient_Swatch_2-2);}.cls-3{fill:url(#New_Gradient_Swatch_2-3);}.cls-4{fill:url(#New_Gradient_Swatch_2-4);}.cls-5{fill:url(#New_Gradient_Swatch_2-5);}.cls-6{fill:url(#New_Gradient_Swatch_2-6);}.cls-7{fill:url(#New_Gradient_Swatch_2-7);}.cls-8{fill:url(#New_Gradient_Swatch_2-8);}.cls-9{fill:url(#New_Gradient_Swatch_2-9);}.cls-10{fill:#ab9555;}.cls-11{fill:url(#New_Gradient_Swatch_2-10);}.cls-12{fill:url(#linear-gradient);}.cls-13{fill:url(#linear-gradient-2);}.cls-14{fill:url(#linear-gradient-3);}.cls-15{fill:url(#linear-gradient-4);}.cls-16{fill:url(#linear-gradient-5);}.cls-17{fill:url(#linear-gradient-6);}.cls-18{fill:url(#linear-gradient-7);}.cls-19{fill:url(#linear-gradient-8);}.cls-20{fill:url(#linear-gradient-9);}.cls-21{fill:url(#linear-gradient-10);}.cls-22{fill:url(#linear-gradient-11);}</style><linearGradient id="New_Gradient_Swatch_2" x1="513.59409" y1="87.92958" x2="522.06979" y2="87.92958" gradientUnits="userSpaceOnUse"><stop offset="0" stop-color="#ab8d34"/><stop offset="0.1878" stop-color="#cdb267"/><stop offset="0.46098" stop-color="#a38d4a"/><stop offset="0.76341" stop-color="#cdb267"/><stop offset="1" stop-color="#987f2e"/></linearGradient><linearGradient id="New_Gradient_Swatch_2-2" x1="479.129" y1="87.92958" x2="490.65819" y2="87.92958" xlink:href="#New_Gradient_Swatch_2"/><linearGradient id="New_Gradient_Swatch_2-3" x1="491.66584" y1="87.92941" x2="500.43426" y2="87.92941" xlink:href="#New_Gradient_Swatch_2"/><linearGradient id="New_Gradient_Swatch_2-4" x1="445.86245" y1="45.61479" x2="516.7564" y2="45.61479" xlink:href="#New_Gradient_Swatch_2"/><linearGradient id="New_Gradient_Swatch_2-5" x1="501.91082" y1="87.92952" x2="511.90974" y2="87.92952" xlink:href="#New_Gradient_Swatch_2"/><linearGradient id="New_Gradient_Swatch_2-6" x1="440.549" y1="87.92958" x2="450.85554" y2="87.92958" xlink:href="#New_Gradient_Swatch_2"/><linearGradient id="New_Gradient_Swatch_2-7" x1="465.8923" y1="87.92958" x2="477.43686" y2="87.92958" xlink:href="#New_Gradient_Swatch_2"/><linearGradient id="New_Gradient_Swatch_2-8" x1="452.63985" y1="87.92958" x2="464.1691" y2="87.92958" xlink:href="#New_Gradient_Swatch_2"/><linearGradient id="New_Gradient_Swatch_2-9" x1="522.53199" y1="79.53334" x2="527.41585" y2="79.53334" xlink:href="#New_Gradient_Swatch_2"/><linearGradient id="New_Gradient_Swatch_2-10" x1="443.32341" y1="251.87204" x2="525.08103" y2="170.11441" xlink:href="#New_Gradient_Swatch_2"/><linearGradient id="linear-gradient" x1="441.77244" y1="210.99322" x2="447.44681" y2="210.99322" gradientUnits="userSpaceOnUse"><stop offset="0" stop-color="#231f20"/><stop offset="0.23973" stop-color="#171415"/><stop offset="0.67302" stop-color="#060505"/><stop offset="1"/></linearGradient><linearGradient id="linear-gradient-2" x1="449.57569" y1="210.99322" x2="455.42465" y2="210.99322" xlink:href="#linear-gradient"/><linearGradient id="linear-gradient-3" x1="457.17458" y1="210.99322" x2="462.84895" y2="210.99322" xlink:href="#linear-gradient"/><linearGradient id="linear-gradient-4" x1="464.64173" y1="210.99322" x2="471.18907" y2="210.99322" xlink:href="#linear-gradient"/><linearGradient id="linear-gradient-5" x1="472.47553" y1="210.99322" x2="479.02288" y2="210.99322" xlink:href="#linear-gradient"/><linearGradient id="linear-gradient-6" x1="480.80852" y1="210.99322" x2="485.61943" y2="210.99322" xlink:href="#linear-gradient"/><linearGradient id="linear-gradient-7" x1="487.65188" y1="210.99322" x2="493.22625" y2="210.99322" xlink:href="#linear-gradient"/><linearGradient id="linear-gradient-8" x1="498.3927" y1="210.99322" x2="504.94481" y2="210.99322" xlink:href="#linear-gradient"/><linearGradient id="linear-gradient-9" x1="506.63284" y1="210.99322" x2="513.18018" y2="210.99322" xlink:href="#linear-gradient"/><linearGradient id="linear-gradient-10" x1="514.86821" y1="210.99322" x2="520.44258" y2="210.99322" xlink:href="#linear-gradient"/><linearGradient id="linear-gradient-11" x1="521.8211" y1="210.99322" x2="526.63201" y2="210.99322" xlink:href="#linear-gradient"/></defs><title>background</title><polygon class="cls-1" points="522.07 84.315 522.07 82.161 513.594 82.169 513.594 93.698 522.055 93.698 522.055 91.544 515.902 91.544 515.902 88.922 520.524 88.922 520.524 86.776 515.902 86.776 515.902 84.315 522.07 84.315"/><path class="cls-2" d="M486.05132,82.16114h-2.30755L479.129,93.698h2.46094l.69229-1.769h5.23008l.69228,1.769,2.4536-.00791Zm-2.84577,7.4606,1.75375-4.38435,1.70727,4.38435Z"/><path class="cls-3" d="M499.242,87.73731a5.72078,5.72078,0,0,0-2.65353-.96123,3.04127,3.04127,0,0,1-1.769-.69256.90015.90015,0,0,1,0-1.11529q.3849-.65343,1.769-.65343a2.64951,2.64951,0,0,1,2.15383.92271l1.538-1.5383a5.382,5.382,0,0,0-1.65351-1.15375,6.43892,6.43892,0,0,0-2.49218-.38449,4.61809,4.61809,0,0,0-2.69557.9268,2.87064,2.87064,0,0,0-1.31135,2.45747,2.55289,2.55289,0,0,0,1.15353,2.38431,6.20046,6.20046,0,0,0,2.53831.846q1.538.1539,1.91892.8075a1.21879,1.21879,0,0,1,0,1.30781q-.38054.65343-1.91892.65343a3.65388,3.65388,0,0,1-2.61507-1.07671l-1.53857,1.53852a5.82168,5.82168,0,0,0,1.846,1.23055,6.832,6.832,0,0,0,2.68442.46119,4.659,4.659,0,0,0,2.96486-.99974,2.95723,2.95723,0,0,0,1.27311-2.38425A2.88767,2.88767,0,0,0,499.242,87.73731Z"/><path class="cls-4" d="M476.99972,69.37447c.77044-.22723,2.168,1.07913,2.25878,1.07913a1.66706,1.66706,0,0,0,.4659-1.07587c0-.46125-.32921-1.35839-.39094-1.90132a9.04309,9.04309,0,0,0-.32837-1.57294c-.1202-.35747-.95562-.51327-1.40391-.78989a7.32325,7.32325,0,0,1-1.13115-.78311,3.578,3.578,0,0,1-.48092-1.64112,6.45212,6.45212,0,0,0-.26984-1.67055c-.15608-.29249-.55734-.49914-.82869-.77049a1.16673,1.16673,0,0,1-.27954-.71813c.20812-.065.27309.47122.51355.5168s.22426.24366.60113.37361c.37714.12991.39009.30892.43887.65994s.47122,1.53706.61088,2.02123c.13993.48446.286.84865.764.8648.47767.0162.41269.26311.97473.21786a3.147,3.147,0,0,1,1.349.25981c.30219.1073.68258.117.81248-.094.13-.21137-.0911-1.063-.0911-1.063-.19488,0-.22757-.263-.30219-.50676-.07468-.244.04553-.26339.04553-.26339a1.03,1.03,0,1,1,1.96309,0s.1202.0194.04553.26339c-.075.24371-.10731.50676-.30247.50676,0,0-.22078.85162-.09083,1.063.12991.211.5103.20132.81249.094a3.14649,3.14649,0,0,1,1.34869-.25981c.56232.04525.49734-.20166.975-.21786.478-.01615.62411-.38034.76371-.8648.13994-.48417.56233-1.67027.61116-2.02123s.06173-.53.43887-.65994c.37687-.12995.36066-.328.60112-.37361s.30572-.58178.51355-.5168a1.16862,1.16862,0,0,1-.27953.71813c-.27136.27135-.67261.478-.82869.77049a6.45212,6.45212,0,0,0-.26984,1.67055,3.57814,3.57814,0,0,1-.48092,1.64112,7.3254,7.3254,0,0,1-1.13116.78311c-.44857.27662-1.2837.43242-1.4039.78989a9.00609,9.00609,0,0,0-.32837,1.57294c-.06173.54293-.39094,1.44007-.39094,1.90132a1.66712,1.66712,0,0,0,.46589,1.07587c.09083,0,1.48863-1.30636,2.25878-1.07913.77016.22785.46472,1.30664-.33481,2.1059a3.42426,3.42426,0,0,1-1.65648,1.033,8.96953,8.96953,0,0,1,1.25758.23514,13.462,13.462,0,0,1,3.5921,2.04977,13.05173,13.05173,0,0,0,3.203,1.87014,2.73478,2.73478,0,0,0,.30987.06795c.10994-.09206.68606-.42452.68606-.42452a12.8895,12.8895,0,0,0,1.44747.6194l-3.68831-2.844,7.311,3.18267c.12021.052.241.1.36128.14285l4.419.07877c1.16.02119,2.30554-.02966,3.369-.112-.85711-.52886-1.78548-1.05682-2.78051-1.54329l-3.87725-1.896c-.12906-.01643-.261-.02882-.39508-.03672l-8.45155-.50766,5.49168-.9545-3.56009-1.15874,6.0928-.04a20.68337,20.68337,0,0,0,4.15953-.45743l-5.75865-1.09674,8.43948-.37479a8.28209,8.28209,0,0,0,1.41277-.18019l-.64081.0776,5.56988-2.61328a49.77017,49.77017,0,0,0,5.15832-2.83551,54.4305,54.4305,0,0,0-6.03343-.36537l-6.33062.0144.70518-.23076a7.92979,7.92979,0,0,0-1.4939.46091l-7.38536,3.078,4.46934-3.32995-.03409.00561-.102-.76786-.81221-1.33955a26.76033,26.76033,0,0,0,6.08551-6.28241l-5.97114,2.85873,6.084-5.06722a10.02058,10.02058,0,0,0,1.93187-2.09445c.78456-1.18582,1.513-2.40073,2.17737-3.63068L508.16111,48.934l2.26052-4.9173a64.94,64.94,0,0,0,3.34463-9.24726,78.71745,78.71745,0,0,0-8.96268,5.77446l-4.42584,3.35406,1.41159-2.19969c-1.14494.97362-2.252,2.00128-3.30847,3.07155a9.69713,9.69713,0,0,0-1.62906,2.28288L493.61912,53.244l1.1482-5.651a26.71542,26.71542,0,0,0-2.561,3.063l-.56351.786-.51646-.35449a1.4735,1.4735,0,0,0-.07995.13433l-4.44019,8.42009,2.61854-9.15173a29.05092,29.05092,0,0,0,.86861-11.48491l-3.0577,5.6828,1.48094-6.83627a11.12934,11.12934,0,0,0,.23133-3.41135,55.07321,55.07321,0,0,0-1.175-6.90119l-.403,3.35545-1.32749-4.892a83.23636,83.23636,0,0,0-4.53309-12.26947,83.15355,83.15355,0,0,0-4.53314,12.26947l-1.32721,4.892-.40328-3.35545a55.12616,55.12616,0,0,0-1.17494,6.90119,11.13566,11.13566,0,0,0,.23132,3.41163l1.47921,6.83834-3.056-5.68425a29.04669,29.04669,0,0,0,.8686,11.484l2.61889,9.15229-4.44053-8.42065a1.412,1.412,0,0,0-.07995-.13433l-.51646.35449-.56351-.786a26.71967,26.71967,0,0,0-2.561-3.063L469,53.244l-3.233-6.19131a9.70339,9.70339,0,0,0-1.62878-2.28288c-1.0544-1.06826-2.16-2.09446-3.30377-3.06684l1.41479,2.20143-4.434-3.36051a78.67762,78.67762,0,0,0-8.96268-5.77446,64.92808,64.92808,0,0,0,3.34458,9.24726l2.26057,4.9173L452.572,47.07171c.66436,1.22995,1.39308,2.44486,2.17765,3.63068a10.0109,10.0109,0,0,0,1.93159,2.09445l6.084,5.06722-5.97114-2.85873a26.75385,26.75385,0,0,0,6.08552,6.28241l-.81221,1.33955-.102.76786-.03436-.00561,4.4699,3.33023-7.38565-3.07833a7.97772,7.97772,0,0,0-1.49327-.46091l.7049.23076-6.331-.0144a54.43458,54.43458,0,0,0-6.03343.36537,49.77017,49.77017,0,0,0,5.15832,2.83551l5.56988,2.613-.64053-.0776a8.24658,8.24658,0,0,0,1.41248.18047l8.43944.37479-5.75855,1.09674a20.685,20.685,0,0,0,4.15948.45743l6.10894.04-3.57242,1.15936,5.48842.95388-8.45176.50766q-.20158.01185-.39542.03672l-3.87787,1.896c-.99441.48647-1.92273,1.01443-2.77989,1.54329,1.06382.0823,2.20905.13282,3.369.112l4.419-.07877c.1202-.04289.241-.09083.36156-.14285l7.31069-3.18267-3.68831,2.844a12.89029,12.89029,0,0,0,1.44747-.6194s.57556.3319.6855.42418a2.69681,2.69681,0,0,0,.31009-.06761,13.04674,13.04674,0,0,0,3.2033-1.87014,13.46349,13.46349,0,0,1,3.5921-2.04977,8.96814,8.96814,0,0,1,1.25758-.23514,3.42426,3.42426,0,0,1-1.65648-1.033C476.535,70.68111,476.22929,69.60232,476.99972,69.37447Z"/><polygon class="cls-5" points="501.911 84.315 505.756 84.315 505.756 93.698 508.064 93.698 508.064 84.315 511.91 84.315 511.91 82.161 501.911 82.161 501.911 84.315"/><polygon class="cls-6" points="448.548 89.391 441.318 82.161 440.549 82.161 440.549 93.698 442.856 93.698 442.856 86.545 450.01 93.698 450.856 93.698 450.856 82.161 448.548 82.161 448.548 89.391"/><polygon class="cls-7" points="471.661 87.852 466.661 82.161 465.892 82.161 465.892 93.698 468.2 93.698 468.2 87.007 471.661 90.852 475.122 87.007 475.13 93.698 477.437 93.698 477.437 82.161 476.668 82.161 471.661 87.852"/><path class="cls-8" d="M459.562,82.16114h-2.30727L452.63985,93.698h2.461l.69229-1.769h5.23008l.69256,1.769,2.45332-.00791Zm-2.84549,7.4606,1.75342-4.38435,1.70733,4.38435Z"/><path class="cls-9" d="M523.72705,78.67315V80.7673h-.416V78.67315h-.7791v-.37376h1.9776v.37376Zm3.30442,2.09415-.00344-1.84383-.7791,1.58633h-.27157l-.7791-1.58633V80.7673H524.807V78.29939h.49347l.81441,1.63943.811-1.63943h.49V80.7673Z"/><path class="cls-10" d="M459.9629,101.97119a1.62789,1.62789,0,0,1-.93252,3.02688l-3.22562-.00382V99.26534h3.04217q1.44875.08436,1.52873,1.68543A1.19982,1.19982,0,0,1,459.9629,101.97119Zm-3.00777-.40893h1.60516a.647.647,0,0,0,.71086-.71468q-.01884-.42013-.69939-.44333h-1.61663Zm0,2.53768h1.87269a.74814.74814,0,0,0,.82551-.82933q-.01882-.55033-.814-.57327h-1.88416Z"/><path class="cls-10" d="M461.56806,99.26152h1.34528l1.33,1.87269,1.36056-1.87269h1.31471l-2.102,2.86637v2.86636h-1.14655v-2.86636Z"/><path class="cls-10" d="M474.93678,104.99425h-4.59l.00382-.38218,2.67145-4.28044H470.3506l-.00382-1.07011h4.59v.4204l-2.68291,4.24222h2.68291Z"/><path class="cls-10" d="M476.37706,104.99425V99.26534l4.21165-.00382v1.07011h-3.0651v1.223h2.29691v1.06629h-2.29691v1.30324h3.05745v1.07011Z"/><path class="cls-10" d="M481.7429,104.99425V99.26152h.38218l3.59251,3.59251V99.26152h1.14654v5.73273h-.4204L482.88944,101.44v3.55429Z"/><path class="cls-10" d="M487.75079,104.99425l2.29309-5.73273h1.14655l2.28872,5.72891-1.21861.00382-.344-.879h-2.59884l-.344.879Zm2.89694-4.204-.87137,2.17844h1.71982Z"/><path class="cls-10" d="M498.406,101.97119a1.62807,1.62807,0,0,1-.93252,3.02688l-3.22562-.00382V99.26534h3.04217q1.44792.08436,1.52873,1.68543A1.20279,1.20279,0,0,1,498.406,101.97119Zm-3.00831-.40893h1.60516a.64647.64647,0,0,0,.71086-.71468c-.012-.28009-.24569-.428-.69885-.44333h-1.61717Zm0,2.53768h1.87269a.74767.74767,0,0,0,.82551-.82933q-.018-.55033-.8135-.57327h-1.8847Z"/><path class="cls-10" d="M500.34751,99.2577h1.14217v5.73655h-1.14217Z"/><path class="cls-10" d="M505.74391,99.45261a2.66134,2.66134,0,0,1,.82115.57328l-.76437.76436a1.31563,1.31563,0,0,0-1.0701-.45862q-.68793,0-.879.32486a.44918.44918,0,0,0,0,.55416,1.51169,1.51169,0,0,0,.879.344,2.84412,2.84412,0,0,1,1.31907.47773,1.43666,1.43666,0,0,1,.59183,1.28031,1.47037,1.47037,0,0,1-.63223,1.18476,2.31487,2.31487,0,0,1-1.473.49684,3.39813,3.39813,0,0,1-1.33436-.22931,2.90494,2.90494,0,0,1-.91724-.61149l.76437-.76436a1.8173,1.8173,0,0,0,1.29941.535q.76491,0,.95327-.32485a.60291.60291,0,0,0,0-.64971q-.18835-.32512-.95327-.40129a3.08005,3.08005,0,0,1-1.2612-.4204,1.26824,1.26824,0,0,1-.57327-1.18477,1.42568,1.42568,0,0,1,.65189-1.2208,2.29428,2.29428,0,0,1,1.33982-.4608A3.207,3.207,0,0,1,505.74391,99.45261Z"/><rect class="cls-10" x="440.549" y="102.04574" width="10.30655" height="1.25496"/><rect class="cls-10" x="511.76325" y="102.04574" width="10.30655" height="1.25496"/><rect class="cls-11" x="417.98346" y="195.45437" width="132.43753" height="31.07771"/><path class="cls-12" d="M443.08191,207.71955V211.517a1.314,1.314,0,0,0,.43649,1.09123,1.87964,1.87964,0,0,0,2.18245,0,1.314,1.314,0,0,0,.43649-1.09123v-3.79746h1.30947v4.14665a2.16875,2.16875,0,0,1-.80751,1.70231,3.29854,3.29854,0,0,1-4.05935,0,2.16875,2.16875,0,0,1-.80751-1.70231v-4.14665Z"/><path class="cls-13" d="M449.57569,214.2669v-6.54735h.43649l4.103,4.103v-4.103h1.30947v6.54735h-.47934l-4.06015-4.05936v4.05936Z"/><path class="cls-14" d="M458.115,213.32646a3.275,3.275,0,0,1,2.32847-5.60691,3.54357,3.54357,0,0,1,2.40546.873l-.873.95591a2.41676,2.41676,0,0,0-1.53248-.52378,1.866,1.866,0,0,0-1.95944,1.94674,1.95984,1.95984,0,0,0,.54521,1.44915,1.93262,1.93262,0,0,0,1.423.53688,2.34766,2.34766,0,0,0,1.52375-.51942l.873.95591a3.53221,3.53221,0,0,1-2.40546.873A3.1857,3.1857,0,0,1,458.115,213.32646Z"/><path class="cls-15" d="M465.58058,213.32646a3.37209,3.37209,0,1,1,2.33562.94044A3.17429,3.17429,0,0,1,465.58058,213.32646Zm2.33958-.28173a1.83836,1.83836,0,0,0,1.41423-.58927,2.23342,2.23342,0,0,0,0-2.92448,2.00218,2.00218,0,0,0-2.83718,0,2.231,2.231,0,0,0,0,2.92448A1.849,1.849,0,0,0,467.92016,213.04473Z"/><path class="cls-16" d="M473.8723,207.71955l1.86024,4.797,1.89357-4.797h1.39677l-2.61418,6.54735h-1.30947l-2.6237-6.54735Z"/><path class="cls-17" d="M480.80852,214.2669v-6.543l4.81091-.00437v1.22217H482.118v1.39677h2.6237v1.21781H482.118v1.48843h3.49191v1.22217Z"/><path class="cls-18" d="M491.59378,211.41225l1.63247,2.85465h-1.50152l-1.5666-2.70624h-1.19678v2.70624h-1.30947v-6.54735h2.85544q2.29038,0,2.29117,1.88564A1.69329,1.69329,0,0,1,491.59378,211.41225Zm-2.63243-1.07376h1.83326q.79044-.0131.81266-.72021-.02262-.64581-.79917-.67219h-1.84675Z"/><path class="cls-19" d="M498.3927,214.2669v-6.54735h.43649l2.838,3.23,2.84115-3.23h.43649v6.54735h-1.30947l-.00476-3.79746-1.96341,2.18245-1.965-2.18245v3.79746Z"/><path class="cls-20" d="M507.57169,213.32646a3.37209,3.37209,0,1,1,2.33562.94044A3.17429,3.17429,0,0,1,507.57169,213.32646Zm2.33958-.28173a1.83836,1.83836,0,0,0,1.41423-.58927,2.23342,2.23342,0,0,0,0-2.92448,2.00218,2.00218,0,0,0-2.83718,0,2.231,2.231,0,0,0,0,2.92448A1.849,1.849,0,0,0,509.91127,213.04473Z"/><path class="cls-21" d="M518.81011,211.41225l1.63247,2.85465h-1.50152l-1.56661-2.70624h-1.19677v2.70624h-1.30947v-6.54735h2.85544q2.29038,0,2.29117,1.88564A1.69329,1.69329,0,0,1,518.81011,211.41225Zm-2.63243-1.07376h1.83326q.79044-.0131.81266-.72021-.02262-.64581-.79917-.67219h-1.84675Z"/><path class="cls-22" d="M521.8211,214.2669v-6.543l4.81091-.00437v1.22217h-3.50145v1.39677h2.6237v1.21781h-2.6237v1.48843h3.49192v1.22217Z"/></svg>