<svg id="Content" xmlns="http://www.w3.org/2000/svg" xmlns:xlink="http://www.w3.org/1999/xlink" width="300" height="250" viewBox="0 0 300 250"><defs><style>.cls-1{fill:#ba9544;}.cls-2{fill:#fff;stroke:#ba9544;stroke-miterlimit:10;stroke-width:0.5px;}.cls-3{clip-path:url(#clip-path);}</style><clipPath id="clip-path"><polygon class="cls-1" points="162.334 175.34 167.967 183.319 181.796 183.329 181.796 167.22 167.967 167.216 162.334 175.34"/></clipPath></defs><title>CBD - Daytime CBD</title><polygon class="cls-2" points="279.428 167.621 167.844 167.198 162.211 175.321 167.844 183.3 279.428 183.109 284.498 175.366 279.428 167.621"/><polygon class="cls-1" points="162.334 175.34 167.967 183.319 181.796 183.329 181.796 167.22 167.967 167.216 162.334 175.34"/><g class="cls-3"><rect class="cls-1" x="161.08804" y="165.97068" width="8.2322" height="18.60287"/></g><path class="cls-1" d="M227.76663,177.99512a2.732,2.732,0,0,1,1.94336-4.67774,2.95284,2.95284,0,0,1,2.00684.72852l-.72852.79687a2.01551,2.01551,0,0,0-1.27832-.43652,1.5565,1.5565,0,0,0-1.63476,1.624,1.63132,1.63132,0,0,0,.45508,1.209,1.61079,1.61079,0,0,0,1.1875.44824,1.95513,1.95513,0,0,0,1.2705-.43359l.72852.79785a2.9471,2.9471,0,0,1-2.00684.72851A2.65579,2.65579,0,0,1,227.76663,177.99512Z"/><path class="cls-1" d="M236.77249,175.89941a1.55163,1.55163,0,0,1-.88867,2.88477l-3.07422-.00391v-5.46H235.709q1.37988.08056,1.456,1.60645A1.14232,1.14232,0,0,1,236.77249,175.89941Zm-2.86621-.38964h1.5293a.61768.61768,0,0,0,.67773-.68165c-.01269-.2666-.23437-.40722-.667-.42187h-1.54Zm0,2.418h1.78418a.71318.71318,0,0,0,.78711-.79q-.019-.52441-.77637-.5459h-1.79492Z"/><path class="cls-1" d="M238.62308,178.78027v-5.46679h2.10449q2.5503,0,2.54981,2.73535,0,2.73193-2.54981,2.73144Zm2.10449-1.08886q1.45313-.00439,1.457-1.64258-.00293-1.63917-1.457-1.63867h-1.01172v3.28125Z"/><path class="cls-1" d="M244.4971,175.29688a.52808.52808,0,0,1,.39356-.14747.54784.54784,0,0,1,.4082.14747.49987.49987,0,0,1,.14551.36621.4932.4932,0,0,1-.14551.36328.62179.62179,0,0,1-.80176,0,.4932.4932,0,0,1-.14551-.36328A.49987.49987,0,0,1,244.4971,175.29688Zm0,2.60742a.52807.52807,0,0,1,.39356-.14746.54784.54784,0,0,1,.4082.14746.503.503,0,0,1,.14551.36621.497.497,0,0,1-.14551.36426.625.625,0,0,1-.80176,0,.497.497,0,0,1-.14551-.36426A.503.503,0,0,1,244.4971,177.9043Z"/><path class="cls-1" d="M252.84476,175.73926a3.6179,3.6179,0,0,1-.65723,2.42187,1.84913,1.84913,0,0,1-1.5791.59766,2.2772,2.2772,0,0,1-1.46777-.69238l.61523-.66993a1.92051,1.92051,0,0,0,.91113.30957.96163.96163,0,0,0,.7793-.23339,1.47112,1.47112,0,0,0,.4043-.89258,1.70393,1.70393,0,0,1-1.13281.36426,1.827,1.827,0,0,1-1.34766-.62793,1.87513,1.87513,0,0,1-.32031-1.36719,1.796,1.796,0,0,1,.63574-1.23731,1.92635,1.92635,0,0,1,1.502-.37988,1.78051,1.78051,0,0,1,1.22949.72461A3.074,3.074,0,0,1,252.84476,175.73926Zm-1.09278-.60156q-.03662-.76026-.874-.79395-.83788.03369-.874.72559a.82509.82509,0,0,0,.91015.91015A.8108.8108,0,0,0,251.752,175.1377Z"/><path class="cls-1" d="M253.81351,177.31934v-.72461h2.25879v.72461Z"/><path class="cls-1" d="M258.42874,173.31738v-.0039h1.08887v5.46679h-1.08887v-4.00586l-.72851.72754-.72852-.72754Z"/><path class="cls-1" d="M264.00882,176.0127c.06543.02343.125.04785.17871.07226a1.07117,1.07117,0,0,1,.56445,1.09277,1.39919,1.39919,0,0,1-.60351,1.12891,2.20587,2.20587,0,0,1-1.40332.47363,3.2391,3.2391,0,0,1-1.27149-.21875,2.76588,2.76588,0,0,1-.874-.582l.72852-.72851a1.73384,1.73384,0,0,0,1.23828.50976q.728,0,.90918-.30957a.577.577,0,0,0,0-.61914q-.18165-.31055-1.26953-.34668v-.9834q1.08837.07325,1.26953-.23633a.577.577,0,0,0,0-.61914q-.18165-.30908-.90918-.30957a1.29709,1.29709,0,0,0-1.05664.4375l-.72754-.72851a2.54,2.54,0,0,1,.78222-.54688,3.05782,3.05782,0,0,1,1.18067-.18164,1.92029,1.92029,0,0,1,1.331.47364,1.46338,1.46338,0,0,1,.53028,1.1289,1.08072,1.08072,0,0,1-.49219,1.03809C264.083,175.97461,264.04788,175.99316,264.00882,176.0127Z"/><path class="cls-1" d="M265.95706,175.62207a1.4072,1.4072,0,1,1,.97559.39355A1.32152,1.32152,0,0,1,265.95706,175.62207Zm.96485-.25488a.64924.64924,0,0,0,.499-.207.73.73,0,0,0,.19336-.51758.72128.72128,0,0,0-.19336-.51465.656.656,0,0,0-.50293-.20605.64775.64775,0,0,0-.49512.20605.7206.7206,0,0,0-.19238.51465.72936.72936,0,0,0,.19238.51758A.64926.64926,0,0,0,266.92191,175.36719Zm-.291,3.41308,3.0957-5.46289h.88868l-3.08887,5.46289Zm2.71289-.36035a1.39908,1.39908,0,1,1,.96875.38965A1.31566,1.31566,0,0,1,269.34378,178.41992Zm.95117-.26562a.63655.63655,0,0,0,.48731-.20215.76228.76228,0,0,0,0-1.00586.64209.64209,0,0,0-.49121-.20215.63453.63453,0,0,0-.48438.20215.76228.76228,0,0,0,0,1.00586A.63865.63865,0,0,0,270.29495,178.1543Z"/></svg>