<svg id="Layer_1" data-name="Layer 1" xmlns="http://www.w3.org/2000/svg" width="728" height="90" viewBox="0 0 728 90"><defs><style>.cls-1{fill:#fff;}</style></defs><title>gratitude</title><path class="cls-1" d="M341.59619,54.96h-2.81982V36.25732h4.04l2.625,13.41163,2.52246-13.41163h3.88623V54.96h-2.81983V43.20947L346.59326,54.96h-2.26318l-2.73389-11.71973Z"/><path class="cls-1" d="M359.62158,36.03174a4.47285,4.47285,0,0,1,4.481,4.481V50.71484a4.47285,4.47285,0,0,1-4.481,4.48145,4.26559,4.26559,0,0,1-3.15283-1.3125,4.34269,4.34269,0,0,1-1.29736-3.16895V40.5127a4.47293,4.47293,0,0,1,4.45019-4.481ZM361.15967,40.46a1.59239,1.59239,0,0,0-1.60987-1.6084,1.5779,1.5779,0,0,0-1.14355.46631,1.53674,1.53674,0,0,0-.47656,1.14209V50.69629a1.54265,1.54265,0,0,0,.47656,1.13672,1.56933,1.56933,0,0,0,1.14355.47168,1.6013,1.6013,0,0,0,1.60987-1.6084Z"/><path class="cls-1" d="M371.874,36.25732a4.273,4.273,0,0,1,3.45606,1.30225,4.705,4.705,0,0,1,.97363,3.1582v2.71729a4.34714,4.34714,0,0,1-1.50488,3.353L376.88867,54.96h-3.041L372.127,47.89551c-.082.00683-.167.00976-.25586.00976h-1.61718V54.96h-2.81934V36.25732Zm1.68164,4.51172a1.42986,1.42986,0,0,0-1.60449-1.63037h-1.69726v5.978h1.69726a1.53366,1.53366,0,0,0,1.13965-.47656,1.58242,1.58242,0,0,0,.46484-1.14356Z"/><path class="cls-1" d="M380.14844,54.96V36.25732h8.02832v2.81983h-5.209V44.2041h3.80371v2.81934h-3.80371v5.11718h5.209V54.96Z"/><path class="cls-1" d="M398.2041,55.19629a4.46282,4.46282,0,0,1-4.4707-4.46094V40.49219a4.46535,4.46535,0,1,1,8.93066,0V42.625h-2.92285V40.44092a1.62792,1.62792,0,0,0-1.62988-1.63037,1.53844,1.53844,0,0,0-1.1377.477,1.57573,1.57573,0,0,0-.47265,1.15332V50.70508a1.61211,1.61211,0,0,0,1.61035,1.62012,1.57871,1.57871,0,0,0,1.15332-.47168,1.55246,1.55246,0,0,0,.47656-1.14844V47.02344h-1.56836V44.2041h4.49121v6.53125a4.45612,4.45612,0,0,1-4.46,4.46094Z"/><path class="cls-1" d="M410.38477,36.25732a4.27076,4.27076,0,0,1,3.45507,1.30225,4.70522,4.70522,0,0,1,.97461,3.1582v2.71729a4.35039,4.35039,0,0,1-1.50488,3.353L415.39844,54.96h-3.041l-1.71972-7.06445c-.082.00683-.167.00976-.25586.00976h-1.61719V54.96h-2.81934V36.25732Zm1.68164,4.51172a1.42987,1.42987,0,0,0-1.6045-1.63037h-1.69726v5.978h1.69726a1.53364,1.53364,0,0,0,1.13965-.47656,1.58243,1.58243,0,0,0,.46485-1.14356Z"/><path class="cls-1" d="M422.124,50.66406l-.6875,4.2959h-2.93164l3.168-18.70264h3.88672L428.68652,54.96H425.7334l-.666-4.2959Zm1.47657-10.1206-1.0459,7.37256h2.09179Z"/><path class="cls-1" d="M432.26465,39.07715h-2.99414V36.25732h8.79687v2.81983H435.084V54.96h-2.81933Z"/><path class="cls-1" d="M443.99414,54.96H441.1748V36.25732h2.81934Z"/><path class="cls-1" d="M450.0957,39.07715h-2.99414V36.25732h8.79688v2.81983H452.915V54.96H450.0957Z"/><path class="cls-1" d="M463.44531,55.19629a4.42958,4.42958,0,0,1-4.44922-4.44043V36.25732h2.75782V50.72559a1.54323,1.54323,0,0,0,.47656,1.13769,1.56933,1.56933,0,0,0,1.14355.47168,1.60214,1.60214,0,0,0,1.61036-1.60937V36.25732h2.94238V50.75586a4.2406,4.2406,0,0,1-1.3125,3.1582A4.37164,4.37164,0,0,1,463.44531,55.19629Z"/><path class="cls-1" d="M480.12891,50.48926a4.323,4.323,0,0,1-1.30274,3.1582,4.24872,4.24872,0,0,1-3.12695,1.3125h-4.42969V36.25732h4.42969a4.23618,4.23618,0,0,1,3.13672,1.3125,4.32883,4.32883,0,0,1,1.293,3.148Zm-6.04,1.68164h1.69726a1.49628,1.49628,0,0,0,1.13379-.48731,1.6097,1.6097,0,0,0,.46094-1.14257V40.75879a1.56961,1.56961,0,0,0-.4707-1.14307,1.52239,1.52239,0,0,0-1.124-.47705h-1.69726Z"/><path class="cls-1" d="M483.43945,54.96V36.25732h8.02832v2.81983h-5.209V44.2041h3.8037v2.81934h-3.8037v5.11718h5.209V54.96Z"/><path class="cls-1" d="M494.24609,52.15039h2.81934V54.9707h-2.81934Z"/></svg>