<svg xmlns="http://www.w3.org/2000/svg" xmlns:xlink="http://www.w3.org/1999/xlink" width="970" height="250" viewBox="0 0 970 250"><defs><style>.cls-1{fill:none;}.cls-2{isolation:isolate;}.cls-3{clip-path:url(#clip-path);}.cls-4{clip-path:url(#clip-path-2);}.cls-5{clip-path:url(#clip-path-3);}.cls-6{clip-path:url(#clip-path-4);}.cls-7{opacity:0.65882;}.cls-8{clip-path:url(#clip-path-5);}.cls-9{clip-path:url(#clip-path-6);}.cls-10{clip-path:url(#clip-path-7);}.cls-11{clip-path:url(#clip-path-8);}.cls-12{clip-path:url(#clip-path-9);}.cls-13{clip-path:url(#clip-path-10);}.cls-14{mix-blend-mode:multiply;}.cls-15{mix-blend-mode:color;}.cls-16{fill:#ba9544;}</style><clipPath id="clip-path"><rect class="cls-1" x="-2" y="586.64614" width="974" height="251.03093"/></clipPath><clipPath id="clip-path-2"><rect class="cls-1" x="-17.21661" y="191.22969" width="994.73176" height="663.15451"/></clipPath><clipPath id="clip-path-3"><rect class="cls-1" x="-2" y="287.48396" width="974" height="251.03093"/></clipPath><clipPath id="clip-path-4"><rect class="cls-1" x="-17.21661" y="-107.9325" width="994.73176" height="663.15451"/></clipPath><clipPath id="clip-path-5"><rect class="cls-1" x="-2" y="285.99827" width="170.77483" height="153.04906"/></clipPath><clipPath id="clip-path-6"><rect class="cls-1" x="-153.55264" y="235.00708" width="598.84548" height="708.41343" transform="translate(-427.48932 389.9402) rotate(-56.92989)"/></clipPath><clipPath id="clip-path-7"><rect class="cls-1" x="1116.88942" y="585.16046" width="174.72189" height="166.77998"/></clipPath><clipPath id="clip-path-8"><polygon class="cls-1" points="1391.085 538.109 1116.618 537.491 1116.618 445.384 1279.701 476.324 1391.085 538.109"/></clipPath><clipPath id="clip-path-9"><rect class="cls-1" x="1116.88942" y="285.99827" width="174.72189" height="166.77998"/></clipPath><clipPath id="clip-path-10"><rect class="cls-1" x="807.88453" y="-33.43122" width="520.87156" height="488.60709" transform="translate(650.5975 1216.49804) rotate(-78.60858)"/></clipPath></defs><title>Frame1 - Ultra Sour</title><g class="cls-2"><g id="BG"><g class="cls-3"><g id="Background_LO.psd"><g class="cls-4"><g id="background"><image id="GettyImages-909407598" width="1266" height="1899" transform="translate(977.51516 191.22969) rotate(90) scale(0.52382)" xlink:href="Frame1%20-%20Ultra%20Sour1.png"/></g></g></g></g><g class="cls-5"><g id="Background_LO.psd-2" data-name="Background_LO.psd"><g class="cls-6"><g id="background-2" data-name="background"><image id="GettyImages-909407598-2" data-name="GettyImages-909407598" width="1266" height="1899" transform="translate(977.51516 -107.9325) rotate(90) scale(0.52382)" xlink:href="Frame1%20-%20Ultra%20Sour2.png"/><image id="Layer_27" data-name="Layer 27" class="cls-7" width="1015" height="1469" transform="translate(977.51516 23.546) rotate(90) scale(0.52382)" xlink:href="Frame1%20-%20Ultra%20Sour3.png"/></g></g></g></g></g><g id="Terpenes"><g class="cls-8"><g id="Variety_2_GettyImages-639528520.psd" data-name="Variety#2_GettyImages-639528520.psd"><g class="cls-9"><image id="Variety_2-orange_slice_Variety_2-lemon_with_leaf_Variety_2-lemon_bunch_half" data-name="Variety#2-orange+slice + Variety#2-lemon with leaf + Variety#2-lemon bunch+half" width="4425" height="3804" transform="translate(12.42809 145.01834) rotate(33.07011) scale(0.15743)" xlink:href="Frame1%20-%20Ultra%20Sour4.png"/></g></g></g><g class="cls-12"><g id="Variety_3_GettyImages-674327808.psd-2" data-name="Variety#3_GettyImages-674327808.psd"><g class="cls-13"><g id="Variety_3-lemon_lime_with_leaves" data-name="Variety#3-lemon+lime with leaves"><image id="Lemon_lime_with_leaves_shadow" data-name="Lemon+lime with leaves shadow" class="cls-14" width="2625" height="1490" transform="translate(844.84779 96.77428) rotate(11.39142) scale(0.10791)" xlink:href="Frame1%20-%20Ultra%20Sour5.png"/><image id="Variety_3-lemon_lime_with_leaves-2" data-name="Variety#3-lemon+lime with leaves" width="2532" height="1482" transform="translate(847.8357 93.96392) rotate(11.39142) scale(0.10791)" xlink:href="Frame1%20-%20Ultra%20Sour6.png"/><image id="Layer_3" data-name="Layer 3" class="cls-15" width="1068" height="1338" transform="translate(847.8357 93.96392) rotate(11.39142) scale(0.10791)" xlink:href="Frame1%20-%20Ultra%20Sour7.png"/><image id="Layer_4" data-name="Layer 4" width="1075" height="1338" transform="translate(847.8357 93.96392) rotate(11.39142) scale(0.10791)" xlink:href="Frame1%20-%20Ultra%20Sour8.png"/></g></g></g></g></g><g id="Content"><path class="cls-16" d="M416.5379,117.67725v26.39111c0,2.44434,1.07519,3.32422,2.78613,3.32422,1.71,0,2.78516-.87988,2.78516-3.32422V117.67725h5.083v26.04931c0,5.47364-2.73633,8.60156-8.01465,8.60156s-8.01563-3.12792-8.01563-8.60156V117.67725Z"/><path class="cls-16" d="M436.0379,117.67725h5.376V147.001h8.8457v4.88769H436.0379Z"/><path class="cls-16" d="M456.22149,117.67725h16.61719v4.88769h-5.62109v29.32373h-5.376V122.56494h-5.62012Z"/><path class="cls-16" d="M491.6043,151.88867a10.52215,10.52215,0,0,1-.48925-4.20312v-5.376c0-3.17676-1.0752-4.34961-3.51856-4.34961h-1.85742v13.92871h-5.376V117.67725h8.11329c5.57128,0,7.96679,2.59033,7.96679,7.86865v2.68848c0,3.51855-1.125,5.81542-3.51953,6.93945,2.68848,1.124,3.56836,3.71484,3.56836,7.28222v5.27833a10.08244,10.08244,0,0,0,.58594,4.15429Zm-5.86523-29.32373v10.50733h2.10156c2.00391,0,3.22559-.87989,3.22559-3.61622v-3.373c0-2.44287-.83008-3.51807-2.73633-3.51807Z"/><path class="cls-16" d="M522.58966,151.88867h-5.42578l-.92872-6.207h-6.59765l-.92871,6.207h-4.93653l5.47461-34.21142h7.86817Zm-12.26758-10.84961h5.18066l-2.59082-17.30127Z"/><path class="cls-16" d="M550.25079,117.28662c5.22949,0,7.917,3.12793,7.917,8.60156v1.07471h-5.082v-1.417c0-2.44336-.97754-3.37207-2.68848-3.37207s-2.68847.92871-2.68847,3.37207c0,7.03808,10.50781,8.35742,10.50781,18.13183,0,5.47364-2.73633,8.60157-8.01465,8.60157s-8.01562-3.12793-8.01562-8.60157v-2.10156h5.083v2.44336c0,2.44434,1.0752,3.32422,2.78614,3.32422,1.71,0,2.78515-.87988,2.78515-3.32422,0-7.03711-10.50781-8.35742-10.50781-18.13135C542.33282,120.41455,545.0213,117.28662,550.25079,117.28662Z"/><path class="cls-16" d="M566.035,125.88818c0-5.47363,2.88379-8.60156,8.16211-8.60156s8.16211,3.12793,8.16211,8.60156v17.78955c0,5.47364-2.88379,8.60157-8.16211,8.60157s-8.16211-3.12793-8.16211-8.60157Zm5.37695,18.13135c0,2.44434,1.0752,3.37305,2.78516,3.37305,1.71094,0,2.78613-.92871,2.78613-3.37305V125.5459c0-2.44336-1.07519-3.37207-2.78613-3.37207-1.71,0-2.78516.92871-2.78516,3.37207Z"/><path class="cls-16" d="M596.14044,117.67725v26.39111c0,2.44434,1.07519,3.32422,2.78515,3.32422,1.71094,0,2.78614-.87988,2.78614-3.32422V117.67725h5.083v26.04931c0,5.47364-2.7373,8.60156-8.01562,8.60156s-8.01465-3.12792-8.01465-8.60156V117.67725Z"/><path class="cls-16" d="M626.88165,151.88867a10.50249,10.50249,0,0,1-.48926-4.20312v-5.376c0-3.17676-1.07519-4.34961-3.51855-4.34961h-1.85743v13.92871h-5.376V117.67725h8.11328c5.57129,0,7.96582,2.59033,7.96582,7.86865v2.68848c0,3.51855-1.124,5.81542-3.51856,6.93945,2.68848,1.124,3.56739,3.71484,3.56739,7.28222v5.27833a10.06582,10.06582,0,0,0,.58691,4.15429Zm-5.86524-29.32373v10.50733H623.118c2.0039,0,3.22558-.87989,3.22558-3.61622v-3.373c0-2.44287-.83105-3.51807-2.73633-3.51807Z"/></g></g></svg>