<svg id="Layer_1" data-name="Layer 1" xmlns="http://www.w3.org/2000/svg" width="320" height="50" viewBox="0 0 320 50"><defs><style>.cls-1{fill:#ab9555;}</style></defs><title>frame2</title><path class="cls-1" d="M141.06445,31.84284H137.041V22.05378h1.47656v8.32031h2.54687Z"/><path class="cls-1" d="M145.2959,21.92878a2.34062,2.34062,0,0,1,2.34375,2.34375v5.34375a2.33986,2.33986,0,1,1-4.67969,0V24.27253a2.3406,2.3406,0,0,1,2.33594-2.34375Zm.80469,2.3125a.84025.84025,0,0,0-.84375-.84375.82642.82642,0,0,0-.60157.24609.8061.8061,0,0,0-.25.59766v5.35937a.80608.80608,0,0,0,.25.59766.82642.82642,0,0,0,.60157.24609.84025.84025,0,0,0,.84375-.84375Z"/><path class="cls-1" d="M152.12891,21.92878a2.34062,2.34062,0,0,1,2.34375,2.34375v5.34375a2.33986,2.33986,0,1,1-4.67969,0V24.27253a2.3406,2.3406,0,0,1,2.33594-2.34375Zm.80468,2.3125a.84023.84023,0,0,0-.84375-.84375.82642.82642,0,0,0-.60156.24609.8061.8061,0,0,0-.25.59766v5.35937a.80608.80608,0,0,0,.25.59766.82642.82642,0,0,0,.60156.24609.84023.84023,0,0,0,.84375-.84375Z"/><path class="cls-1" d="M158.12646,28.73737v3.10547H156.6499V22.046h1.47656v3.49218l1.80469-3.49218h1.57471l-2.02148,3.99609,2.37011,5.80078h-1.73584l-1.55029-3.97754Z"/><path class="cls-1" d="M169.876,31.95222A2.32071,2.32071,0,0,1,167.54,29.62409V22.05378h1.44531v7.55469a.80607.80607,0,0,0,.25.59765.82559.82559,0,0,0,.60156.2461.84025.84025,0,0,0,.84375-.84375V22.05378h1.53907v7.57031a2.22632,2.22632,0,0,1-.6875,1.65625A2.28446,2.28446,0,0,1,169.876,31.95222Z"/><path class="cls-1" d="M176.74023,22.05378a2.2491,2.2491,0,0,1,1.71875.67969,2.35937,2.35937,0,0,1,.59375,1.65625v1.42187a2.27859,2.27859,0,0,1-.67578,1.65625,2.21086,2.21086,0,0,1-1.63672.6875h-.85156v3.6875h-1.47656V22.05378Zm.88282,2.35937a.84411.84411,0,0,0-.23047-.61718.82127.82127,0,0,0-.61328-.23438h-.89063V26.6944h.89063a.806.806,0,0,0,.59765-.25.82715.82715,0,0,0,.2461-.60156Z"/><path class="cls-1" d="M180.94824,30.37409h1.47656v1.47656h-1.47656Z"/></svg>