<svg id="Layer_1" data-name="Layer 1" xmlns="http://www.w3.org/2000/svg" width="320" height="50" viewBox="0 0 320 50"><defs><style>.cls-1{fill:#ab9555;}</style></defs><title>frame3</title><path class="cls-1" d="M128.69531,31.84222V22.04535h2.21094a2.81381,2.81381,0,0,1,1.57813.46093,2.14693,2.14693,0,0,1,.85937,1.21094,3.41115,3.41115,0,0,1,.14063,1.03906,2.30069,2.30069,0,0,1-.52344,1.57813,1.48657,1.48657,0,0,1-.51563.38281,1.7153,1.7153,0,0,1,.83594.74219,2.89909,2.89909,0,0,1,.33594.96875,3.89524,3.89524,0,0,1,.05469.67969,3.27152,3.27152,0,0,1-.35157,1.57812,2.26364,2.26364,0,0,1-1.89062,1.15625Zm1.59375-5.79687h.61719a.90442.90442,0,0,0,.92187-.67188,1.92094,1.92094,0,0,0,.08594-.61719,1.2909,1.2909,0,0,0-.29687-.92187.93605.93605,0,0,0-.71094-.28906h-.61719Zm0,4.33593h.61719a1.04782,1.04782,0,0,0,1.03906-.77343,1.703,1.703,0,0,0,.10157-.60938,1.85788,1.85788,0,0,0-.3125-1.19531,1.0071,1.0071,0,0,0-.82813-.34375h-.61719Z"/><path class="cls-1" d="M138.16113,22.05316a2.252,2.252,0,0,1,1.8125.67969,2.47074,2.47074,0,0,1,.50782,1.65625V25.811a2.28894,2.28894,0,0,1-.78907,1.75781l1.09375,4.27344h-1.59668l-.8955-3.6875h-.98438v3.6875H135.833V22.05316Zm.88282,2.35937a.74938.74938,0,0,0-.84375-.85156h-.89063v3.13281h.89063a.806.806,0,0,0,.59765-.25.82719.82719,0,0,0,.2461-.60156Z"/><path class="cls-1" d="M142.93164,31.84222V22.04535h4.20313v1.48437H144.4082V26.2016h1.99219V27.686H144.4082v2.67188h2.72657v1.48437Z"/><path class="cls-1" d="M150.92725,29.59222l-.35889,2.25h-1.5376l1.66406-9.78906h2.03125l1.64063,9.78906H152.814l-.34521-2.25Zm.77539-5.29687-.54688,3.85937h1.09375Z"/><path class="cls-1" d="M156.67627,23.53753H155.106V22.05316h4.60937v1.48437h-1.5625v8.30469h-1.47656Z"/><path class="cls-1" d="M163.25977,27.69378v4.14844H161.7832V22.05316h1.47657v4.15625H165.041V22.05316h1.47656v9.78906H165.041V27.69378Z"/><path class="cls-1" d="M168.71777,31.84222V22.04535h4.20313v1.48437h-2.72656V26.2016h1.99218V27.686h-1.99218v2.67188h2.72656v1.48437Z"/><path class="cls-1" d="M180.084,31.84222h-1.47656V22.05316H180.084Z"/><path class="cls-1" d="M183.94238,22.04535l1.959,6.584v-6.584h1.47656v9.79687H185.792l-2.03125-6.27344v6.27344h-1.47656V22.04535Z"/><path class="cls-1" d="M189.27441,30.37347H190.751V31.85h-1.47657Z"/></svg>