<svg id="Layer_1" data-name="Layer 1" xmlns="http://www.w3.org/2000/svg" width="320" height="50" viewBox="0 0 320 50"><defs><style>.cls-1{fill:#ab9555;}</style></defs><title>frame2</title><path class="cls-1" d="M183.79009,34.91928A4.12521,4.12521,0,0,1,179.647,30.784V17.28182h2.5681V30.75594a1.43842,1.43842,0,0,0,.44375,1.05937,1.46085,1.46085,0,0,0,1.065.43926,1.4921,1.4921,0,0,0,1.49974-1.49863V17.28182h2.74V30.784a3.94988,3.94988,0,0,1-1.22227,2.94107A4.07169,4.07169,0,0,1,183.79009,34.91928Z"/><path class="cls-1" d="M202.55867,32.08268h2.6254v2.6254h-2.6254Z"/><path class="cls-1" d="M125.25066,34.91494h-7.25289v-17.639h2.65882V32.27546h4.59407Z"/><path class="cls-1" d="M134.83016,17.06317a4.21846,4.21846,0,0,1,4.22659,4.22658v9.6216a4.21847,4.21847,0,0,1-4.22659,4.22659,4.02338,4.02338,0,0,1-2.97283-1.23783,4.09808,4.09808,0,0,1-1.22417-2.98876v-9.6216a4.21852,4.21852,0,0,1,4.197-4.22658Zm1.45058,4.17652a1.50161,1.50161,0,0,0-1.5177-1.5177,1.48689,1.48689,0,0,0-1.07855.44029,1.4506,1.4506,0,0,0-.44939,1.07741v9.65346a1.45673,1.45673,0,0,0,.44939,1.07285,1.481,1.481,0,0,0,1.07855.44371,1.50726,1.50726,0,0,0,1.5177-1.51656Z"/><path class="cls-1" d="M149.11068,17.06317a4.21843,4.21843,0,0,1,4.22544,4.22658v9.6216a4.21128,4.21128,0,1,1-8.42245,0v-9.6216a4.21854,4.21854,0,0,1,4.197-4.22658Zm1.45057,4.17652a1.50349,1.50349,0,0,0-1.51884-1.5177,1.48873,1.48873,0,0,0-1.07854.44029,1.45061,1.45061,0,0,0-.4494,1.07741v9.65346a1.45674,1.45674,0,0,0,.4494,1.07285,1.48284,1.48284,0,0,0,1.07854.44371,1.50916,1.50916,0,0,0,1.51884-1.51656Z"/><path class="cls-1" d="M161.89169,29.34473v5.57021h-2.66v-17.639h2.66v6.28583l3.23-6.28583h2.84314l-3.63612,7.2142,4.255,10.42482h-3.12415l-2.78511-7.14708Z"/><path class="cls-1" d="M183.58437,35.13794A4.17775,4.17775,0,0,1,179.3885,30.95V17.27592h2.6008V30.92159a1.45675,1.45675,0,0,0,.4494,1.07286,1.47945,1.47945,0,0,0,1.07855.44484,1.51108,1.51108,0,0,0,1.51884-1.5177V17.27592H187.811V30.95a4.00018,4.00018,0,0,1-1.23783,2.97852A4.12353,4.12353,0,0,1,183.58437,35.13794Z"/><path class="cls-1" d="M197.924,17.27592a4.03612,4.03612,0,0,1,3.09457,1.22872,4.23364,4.23364,0,0,1,1.074,2.97852v2.56212a4.0959,4.0959,0,0,1-1.21735,2.97852,3.97686,3.97686,0,0,1-2.94439,1.23783H196.3961v6.65331h-2.65882v-17.639Zm1.586,4.255a1.53425,1.53425,0,0,0-.40958-1.11723,1.47284,1.47284,0,0,0-1.10357-.421H196.3961v5.63849h1.60076a1.44485,1.44485,0,0,0,1.074-.4494A1.49222,1.49222,0,0,0,199.51,24.1033Z"/></svg>