<?xml version="1.0" encoding="utf-8"?>
<!-- Generator: Adobe Illustrator 23.0.1, SVG Export Plug-In . SVG Version: 6.00 Build 0)  -->
<svg version="1.1" id="Layer_1" xmlns="http://www.w3.org/2000/svg" xmlns:xlink="http://www.w3.org/1999/xlink" x="0px" y="0px"
	 viewBox="0 0 970 250" enable-background="new 0 0 970 250" xml:space="preserve">
<g>
	<g>
		<polygon fill="#FFFFFF" stroke="#BA9544" stroke-width="0.5" stroke-miterlimit="10" points="611.83,152.64 379.22,151.76 
			367.48,168.7 379.22,185.33 611.83,184.93 622.39,168.79 		"/>
		<g>
			<defs>
				<polygon id="SVGID_1_" points="367.74,168.74 379.48,185.37 379.71,185.39 379.71,151.81 379.48,151.8 				"/>
			</defs>
			<use xlink:href="#SVGID_1_"  overflow="visible" fill="#BA9544"/>
			<clipPath id="SVGID_2_">
				<use xlink:href="#SVGID_1_"  overflow="visible"/>
			</clipPath>
			<g clip-path="url(#SVGID_2_)">
				<defs>
					<rect id="SVGID_3_" x="365.14" y="149.21" width="17.16" height="38.78"/>
				</defs>
				<use xlink:href="#SVGID_3_"  overflow="visible" fill="#BA9544"/>
				<clipPath id="SVGID_4_">
					<use xlink:href="#SVGID_3_"  overflow="visible"/>
				</clipPath>
			</g>
		</g>
	</g>
	<g>
		<path fill="#BA9544" d="M504.13,174.28c-1.09-1.09-1.63-2.45-1.63-4.08c0-1.6,0.55-2.94,1.64-4.04c1.09-1.09,2.44-1.64,4.05-1.64
			c1.63,0,3.02,0.51,4.18,1.52l-1.52,1.66c-0.78-0.61-1.66-0.91-2.67-0.91c-1.02,0-1.85,0.32-2.47,0.96
			c-0.63,0.63-0.94,1.44-0.94,2.43c0,1.06,0.32,1.9,0.95,2.52c0.63,0.62,1.45,0.93,2.47,0.93s1.91-0.3,2.65-0.9l1.52,1.66
			c-1.16,1.01-2.55,1.52-4.18,1.52C506.58,175.91,505.23,175.37,504.13,174.28z"/>
		<path fill="#BA9544" d="M522.91,169.91c1,0.67,1.53,1.54,1.59,2.6c-0.1,2.15-1.25,3.28-3.44,3.41l-6.41-0.01v-11.38h6.04
			c1.92,0.11,2.93,1.23,3.04,3.35C523.69,168.9,523.42,169.57,522.91,169.91z M516.93,169.1h3.19c0.92-0.02,1.39-0.49,1.41-1.42
			c-0.03-0.56-0.49-0.85-1.39-0.88h-3.21V169.1z M516.93,174.14h3.72c1.07-0.02,1.62-0.56,1.64-1.65c-0.03-0.73-0.56-1.11-1.62-1.14
			h-3.74V174.14z"/>
		<path fill="#BA9544" d="M526.76,175.92v-11.4h4.39c3.54,0,5.31,1.9,5.31,5.7c0,3.8-1.77,5.69-5.31,5.69H526.76z M531.15,173.65
			c2.02,0,3.03-1.15,3.04-3.42c-0.01-2.28-1.02-3.42-3.04-3.42h-2.11v6.84H531.15z"/>
		<path fill="#BA9544" d="M539.01,168.66c0.2-0.21,0.48-0.31,0.82-0.31c0.37,0,0.65,0.1,0.85,0.31c0.2,0.21,0.3,0.46,0.3,0.76
			s-0.1,0.56-0.3,0.76c-0.2,0.2-0.48,0.3-0.84,0.3s-0.63-0.1-0.84-0.3c-0.2-0.2-0.3-0.46-0.3-0.76S538.81,168.86,539.01,168.66z
			 M539.01,174.09c0.2-0.21,0.48-0.31,0.82-0.31c0.37,0,0.65,0.1,0.85,0.31c0.2,0.21,0.3,0.46,0.3,0.76s-0.1,0.56-0.3,0.76
			c-0.2,0.2-0.48,0.3-0.84,0.3s-0.63-0.1-0.84-0.3c-0.2-0.2-0.3-0.46-0.3-0.76S538.81,174.3,539.01,174.09z"/>
		<path fill="#BA9544" d="M555.3,167.79l-4.4,2.43l4.4,2.43v1.75l-7.2-3.96v-0.49l7.2-3.9V167.79z"/>
		<path fill="#BA9544" d="M565.17,164.53L565.17,164.53l2.27-0.01v11.4h-2.27v-8.35l-1.52,1.52l-1.52-1.52L565.17,164.53z"/>
	</g>
</g>
<g>
</g>
<g>
</g>
<g>
</g>
<g>
</g>
<g>
</g>
<g>
</g>
<g>
</g>
<g>
</g>
<g>
</g>
<g>
</g>
<g>
</g>
<g>
</g>
<g>
</g>
<g>
</g>
<g>
</g>
</svg>
