<?xml version="1.0" encoding="utf-8"?>
<!-- Generator: Adobe Illustrator 23.0.1, SVG Export Plug-In . SVG Version: 6.00 Build 0)  -->
<svg version="1.1" id="Layer_1" xmlns="http://www.w3.org/2000/svg" xmlns:xlink="http://www.w3.org/1999/xlink" x="0px" y="0px"
	 viewBox="0 0 970 250" enable-background="new 0 0 970 250" xml:space="preserve">
<g>
	<path fill="#BA9544" d="M413.96,140.97l3.67-24.29h7.48v34.21h-5.08v-24.53l-3.71,24.53h-5.08l-4.01-24.19v24.19h-4.69v-34.21H410
		L413.96,140.97z"/>
	<path fill="#BA9544" d="M441.23,137.25l-1.66,3.13v10.51h-5.38v-34.21h5.38v14.91l7.04-14.91h5.38l-7.48,15.25l7.48,18.96h-5.52
		L441.23,137.25z"/>
	<path fill="#BA9544" d="M477.49,116.68v26.39c0,2.44,1.08,3.32,2.79,3.32s2.79-0.88,2.79-3.32v-26.39h5.08v26.05
		c0,5.47-2.74,8.6-8.01,8.6s-8.02-3.13-8.02-8.6v-26.05H477.49z"/>
	<path fill="#BA9544" d="M496.99,116.68h5.38V146h8.85v4.89h-14.22V116.68z"/>
	<path fill="#BA9544" d="M517.17,116.68h16.62v4.89h-5.62v29.32h-5.38v-29.32h-5.62V116.68z"/>
	<path fill="#BA9544" d="M552.56,150.89c-0.29-0.88-0.49-1.42-0.49-4.2v-5.38c0-3.18-1.08-4.35-3.52-4.35h-1.86v13.93h-5.38v-34.21
		h8.11c5.57,0,7.97,2.59,7.97,7.87v2.69c0,3.52-1.12,5.82-3.52,6.94c2.69,1.12,3.57,3.71,3.57,7.28v5.28c0,1.66,0.05,2.88,0.59,4.15
		H552.56z M546.69,121.57v10.51h2.1c2,0,3.23-0.88,3.23-3.62v-3.37c0-2.44-0.83-3.52-2.74-3.52H546.69z"/>
	<path fill="#BA9544" d="M583.54,150.89h-5.43l-0.93-6.21h-6.6l-0.93,6.21h-4.94l5.47-34.21h7.87L583.54,150.89z M571.27,140.04
		h5.18l-2.59-17.3L571.27,140.04z"/>
</g>
<g>
	<g>
		<path fill="#FFFFFF" d="M799.36,126.8v9.22h6.05v2.12h-8.31V126.8H799.36z"/>
		<path fill="#FFFFFF" d="M807.24,138.13V126.8l8.33-0.01v2.12h-6.06v2.42h4.54v2.11h-4.54v2.58h6.05v2.12H807.24z"/>
		<path fill="#FFFFFF" d="M817.26,138.13l4.54-11.34h2.27l4.53,11.33l-2.41,0.01l-0.68-1.74h-5.14l-0.68,1.74H817.26z
			 M822.99,129.82l-1.72,4.31h3.4L822.99,129.82z"/>
		<path fill="#FFFFFF" d="M837.11,133.19l2.83,4.94h-2.6l-2.71-4.69h-2.07v4.69h-2.27V126.8h4.94c2.65,0,3.97,1.09,3.97,3.27
			C839.19,131.7,838.5,132.74,837.11,133.19z M832.55,131.33h3.17c0.91-0.01,1.38-0.43,1.41-1.25c-0.02-0.75-0.49-1.13-1.38-1.16
			h-3.2V131.33z"/>
		<path fill="#FFFFFF" d="M841.11,138.13V126.8h0.76l7.11,7.11v-7.11h2.27v11.34h-0.83l-7.03-7.03v7.03H841.11z"/>
		<path fill="#FFFFFF" d="M858.88,138.13V126.8h0.76l4.91,5.59l4.92-5.59h0.76v11.34h-2.27l-0.01-6.58l-3.4,3.78l-3.4-3.78v6.58
			H858.88z"/>
		<path fill="#FFFFFF" d="M873.54,136.5c-1.08-1.09-1.63-2.43-1.63-4.04c0-1.61,0.54-2.96,1.63-4.04c1.08-1.08,2.43-1.63,4.04-1.63
			s2.96,0.54,4.04,1.63c1.08,1.08,1.63,2.43,1.63,4.04s-0.54,2.96-1.63,4.04c-1.08,1.08-2.43,1.63-4.04,1.63
			S874.62,137.59,873.54,136.5z M877.59,136.02c1,0,1.82-0.34,2.45-1.02c0.63-0.68,0.95-1.52,0.95-2.53s-0.32-1.85-0.95-2.53
			s-1.45-1.02-2.46-1.02c-1,0-1.82,0.34-2.45,1.02s-0.94,1.52-0.94,2.53s0.31,1.85,0.94,2.53
			C875.76,135.68,876.58,136.02,877.59,136.02z"/>
		<path fill="#FFFFFF" d="M891.76,133.19l2.83,4.94h-2.6l-2.71-4.69h-2.07v4.69h-2.27V126.8h4.94c2.65,0,3.97,1.09,3.97,3.27
			C893.85,131.7,893.15,132.74,891.76,133.19z M887.21,131.33h3.17c0.91-0.01,1.38-0.43,1.41-1.25c-0.02-0.75-0.49-1.13-1.38-1.16
			h-3.2V131.33z"/>
		<path fill="#FFFFFF" d="M895.74,138.13V126.8l8.33-0.01v2.12h-6.06v2.42h4.54v2.11h-4.54v2.58h6.05v2.12H895.74z"/>
	</g>
</g>
<g>
</g>
<g>
</g>
<g>
</g>
<g>
</g>
<g>
</g>
<g>
</g>
<g>
</g>
<g>
</g>
<g>
</g>
<g>
</g>
<g>
</g>
<g>
</g>
<g>
</g>
<g>
</g>
<g>
</g>
</svg>
