<svg id="Layer_1" data-name="Layer 1" xmlns="http://www.w3.org/2000/svg" xmlns:xlink="http://www.w3.org/1999/xlink" width="300" height="600" viewBox="0 0 300 600"><defs><style>.cls-1{fill:url(#New_Gradient_Swatch_2);}.cls-2{fill:url(#New_Gradient_Swatch_2-2);}.cls-3{fill:url(#New_Gradient_Swatch_2-3);}.cls-4{fill:url(#New_Gradient_Swatch_2-4);}.cls-5{fill:url(#New_Gradient_Swatch_2-5);}.cls-6{fill:url(#New_Gradient_Swatch_2-6);}.cls-7{fill:url(#New_Gradient_Swatch_2-7);}.cls-8{fill:url(#New_Gradient_Swatch_2-8);}.cls-9{fill:url(#New_Gradient_Swatch_2-9);}.cls-10{fill:#ab9555;}.cls-11{fill:url(#New_Gradient_Swatch_2-10);}.cls-12{fill:url(#linear-gradient);}.cls-13{fill:url(#linear-gradient-2);}.cls-14{fill:url(#linear-gradient-3);}.cls-15{fill:url(#linear-gradient-4);}.cls-16{fill:url(#linear-gradient-5);}.cls-17{fill:url(#linear-gradient-6);}.cls-18{fill:url(#linear-gradient-7);}.cls-19{fill:url(#linear-gradient-8);}.cls-20{fill:url(#linear-gradient-9);}.cls-21{fill:url(#linear-gradient-10);}.cls-22{fill:url(#linear-gradient-11);}</style><linearGradient id="New_Gradient_Swatch_2" x1="191.00484" y1="150.5044" x2="202.16914" y2="150.5044" gradientUnits="userSpaceOnUse"><stop offset="0" stop-color="#ab8d34"/><stop offset="0.1878" stop-color="#cdb267"/><stop offset="0.46098" stop-color="#a38d4a"/><stop offset="0.76341" stop-color="#cdb267"/><stop offset="1" stop-color="#987f2e"/></linearGradient><linearGradient id="New_Gradient_Swatch_2-2" x1="145.607" y1="150.5044" x2="160.7934" y2="150.5044" xlink:href="#New_Gradient_Swatch_2"/><linearGradient id="New_Gradient_Swatch_2-3" x1="162.12068" y1="150.50418" x2="173.67055" y2="150.50418" xlink:href="#New_Gradient_Swatch_2"/><linearGradient id="New_Gradient_Swatch_2-4" x1="101.78791" y1="94.76685" x2="195.17027" y2="94.76685" xlink:href="#New_Gradient_Swatch_2"/><linearGradient id="New_Gradient_Swatch_2-5" x1="175.6155" y1="150.50432" x2="188.7862" y2="150.50432" xlink:href="#New_Gradient_Swatch_2"/><linearGradient id="New_Gradient_Swatch_2-6" x1="94.78897" y1="150.5044" x2="108.36487" y2="150.5044" xlink:href="#New_Gradient_Swatch_2"/><linearGradient id="New_Gradient_Swatch_2-7" x1="128.17147" y1="150.5044" x2="143.3781" y2="150.5044" xlink:href="#New_Gradient_Swatch_2"/><linearGradient id="New_Gradient_Swatch_2-8" x1="110.71518" y1="150.5044" x2="125.90165" y2="150.5044" xlink:href="#New_Gradient_Swatch_2"/><linearGradient id="New_Gradient_Swatch_2-9" x1="202.77795" y1="139.44477" x2="209.21103" y2="139.44477" xlink:href="#New_Gradient_Swatch_2"/><linearGradient id="New_Gradient_Swatch_2-10" x1="103.60114" y1="476.31181" x2="196.39886" y2="383.5141" xlink:href="#New_Gradient_Swatch_2"/><linearGradient id="linear-gradient" x1="101.84074" y1="429.91296" x2="108.28134" y2="429.91296" gradientUnits="userSpaceOnUse"><stop offset="0" stop-color="#231f20"/><stop offset="0.23973" stop-color="#171415"/><stop offset="0.67302" stop-color="#060505"/><stop offset="1"/></linearGradient><linearGradient id="linear-gradient-2" x1="110.69769" y1="429.91296" x2="117.33646" y2="429.91296" xlink:href="#linear-gradient"/><linearGradient id="linear-gradient-3" x1="119.32269" y1="429.91296" x2="125.76329" y2="429.91296" xlink:href="#linear-gradient"/><linearGradient id="linear-gradient-4" x1="127.79816" y1="429.91296" x2="135.22963" y2="429.91296" xlink:href="#linear-gradient"/><linearGradient id="linear-gradient-5" x1="136.6898" y1="429.91296" x2="144.12126" y2="429.91296" xlink:href="#linear-gradient"/><linearGradient id="linear-gradient-6" x1="146.14802" y1="429.91296" x2="151.60857" y2="429.91296" xlink:href="#linear-gradient"/><linearGradient id="linear-gradient-7" x1="153.91548" y1="429.91296" x2="160.24258" y2="429.91296" xlink:href="#linear-gradient"/><linearGradient id="linear-gradient-8" x1="166.10668" y1="429.91296" x2="173.54355" y2="429.91296" xlink:href="#linear-gradient"/><linearGradient id="linear-gradient-9" x1="175.45952" y1="429.91296" x2="182.89098" y2="429.91296" xlink:href="#linear-gradient"/><linearGradient id="linear-gradient-10" x1="184.80695" y1="429.91296" x2="191.13405" y2="429.91296" xlink:href="#linear-gradient"/><linearGradient id="linear-gradient-11" x1="192.69871" y1="429.91296" x2="198.15926" y2="429.91296" xlink:href="#linear-gradient"/></defs><title>background</title><polygon class="cls-1" points="202.169 145.743 202.169 142.906 191.005 142.916 191.005 158.103 202.149 158.103 202.149 155.266 194.044 155.266 194.044 151.811 200.133 151.811 200.133 148.985 194.044 148.985 194.044 145.743 202.169 145.743"/><path class="cls-2" d="M154.72518,142.90614h-3.03954L145.607,158.10266h3.24159l.91189-2.33015h6.88912l.91189,2.33015,3.23191-.01042Zm-3.74849,9.8272,2.31006-5.77512,2.24884,5.77512Z"/><path class="cls-3" d="M172.10008,150.25113a7.53555,7.53555,0,0,0-3.49526-1.26613,4.00611,4.00611,0,0,1-2.33022-.91226,1.18568,1.18568,0,0,1,0-1.46907q.507-.8607,2.33022-.86071a3.49,3.49,0,0,1,2.83705,1.21541l2.02582-2.02626a7.08943,7.08943,0,0,0-2.178-1.51974,8.48139,8.48139,0,0,0-3.28273-.50645,6.083,6.083,0,0,0-3.55064,1.22079,3.78126,3.78126,0,0,0-1.72732,3.237,3.36269,3.36269,0,0,0,1.51943,3.14064,8.1676,8.1676,0,0,0,3.3435,1.11438q2.02582.20271,2.52762,1.06364a1.60539,1.60539,0,0,1,0,1.72267q-.50124.8607-2.52762.86071a4.81293,4.81293,0,0,1-3.4446-1.41827l-2.02663,2.02656a7.66845,7.66845,0,0,0,2.43162,1.6209,8.99922,8.99922,0,0,0,3.53595.60748,6.13686,6.13686,0,0,0,3.90534-1.31687,3.89526,3.89526,0,0,0,1.677-3.14056A3.80369,3.80369,0,0,0,172.10008,150.25113Z"/><path class="cls-4" d="M142.8023,126.06339c1.01483-.29931,2.85566,1.42144,2.97529,1.42144a2.19589,2.19589,0,0,0,.61369-1.41716c0-.60755-.43364-1.78928-.51495-2.50443a11.91195,11.91195,0,0,0-.43253-2.0719c-.15833-.47086-1.25875-.67608-1.84925-1.04045a9.64539,9.64539,0,0,1-1.49-1.03152,4.71306,4.71306,0,0,1-.63347-2.1617,8.49866,8.49866,0,0,0-.35544-2.20047c-.20559-.38527-.73413-.65748-1.09156-1.0149a1.53679,1.53679,0,0,1-.36821-.94593c.27413-.08559.35972.6207.67646.68073s.29539.32095.7918.49213c.49678.17111.51384.40691.57809.86928s.6207,2.02463.80466,2.66239c.18432.63813.3767,1.11785,1.00633,1.13912.6292.02134.5436.34657,1.28394.287a4.14521,4.14521,0,0,1,1.77687.34222c.39805.14134.89911.15412,1.07022-.12385.17118-.27841-.12-1.40017-.12-1.40017-.25669,0-.29975-.3465-.398-.66752-.09837-.32139.06-.34694.06-.34694a1.35673,1.35673,0,1,1,2.58582,0s.15833.02555.06.34694c-.09873.321-.14134.66752-.39841.66752,0,0-.29082,1.12176-.11964,1.40017.17111.278.67217.26519,1.07022.12385a4.14459,4.14459,0,0,1,1.7765-.34222c.74071.0596.65512-.26563,1.28431-.287.62963-.02127.82208-.501,1.006-1.13912.18433-.63776.74071-2.2001.805-2.66239s.08131-.69817.57809-.86928c.49641-.17118.47507-.43209.7918-.49213s.4027-.76632.67646-.68073a1.53934,1.53934,0,0,1-.36821.94593c-.35743.35742-.886.62963-1.09156,1.0149a8.4983,8.4983,0,0,0-.35543,2.20047,4.71317,4.71317,0,0,1-.63348,2.1617,9.64935,9.64935,0,0,1-1.49,1.03152c-.59086.36437-1.69091.56959-1.84925,1.04045a11.86475,11.86475,0,0,0-.43253,2.0719c-.08131.71515-.51495,1.89688-.51495,2.50443a2.19589,2.19589,0,0,0,.61369,1.41716c.11963,0,1.96083-1.72075,2.97529-1.42144,1.01446.30012.61213,1.72112-.441,2.77391a4.51048,4.51048,0,0,1-2.18193,1.36066,11.81585,11.81585,0,0,1,1.6565.30972,17.73232,17.73232,0,0,1,4.73156,2.7,17.19153,17.19153,0,0,0,4.219,2.46337,3.59906,3.59906,0,0,0,.40816.08951c.14482-.12126.90369-.55918.90369-.55918a16.9779,16.9779,0,0,0,1.90662.81588l-4.85828-3.7462,9.63017,4.19224c.15833.06853.31747.13168.47588.18817l5.82075.10376c1.52793.02791,3.03688-.03907,4.43772-.14748-1.129-.69661-2.35186-1.39205-3.66253-2.03283l-5.10715-2.49749c-.17-.02164-.34384-.038-.52041-.04837l-11.13248-.6687,7.23371-1.25728-4.6894-1.5263,8.02551-.05266a27.24359,27.24359,0,0,0,5.479-.60253l-7.58538-1.44463,11.1166-.49368a10.90933,10.90933,0,0,0,1.86091-.23735l-.84409.10221,7.33673-3.44224a65.55656,65.55656,0,0,0,6.79459-3.735,71.69548,71.69548,0,0,0-7.9473-.48127l-8.33877.019.92886-.304a10.445,10.445,0,0,0-1.96777.60711l-9.72809,4.05444,5.88707-4.38624-.0449.00738-.1344-1.01143-1.06985-1.76447a35.24938,35.24938,0,0,0,8.01591-8.27527l-7.86526,3.76555,8.01392-6.67459a13.19964,13.19964,0,0,0,2.54468-2.75884c1.03344-1.562,1.993-3.16228,2.86806-4.78237l-2.484,2.453,2.97758-6.47713a85.53951,85.53951,0,0,0,4.4056-12.18061,103.687,103.687,0,0,0-11.80575,7.6062l-5.82977,4.418,1.85936-2.89745c-1.50814,1.28245-2.96635,2.6361-4.358,4.04587a12.77339,12.77339,0,0,0-2.14582,3.00705l-4.25812,8.15526L166.206,97.3725a35.19057,35.19057,0,0,0-3.37334,4.03465l-.74225,1.03536-.6803-.46695a1.94677,1.94677,0,0,0-.10531.17694l-5.84867,11.091,3.44918-12.05477a38.2663,38.2663,0,0,0,1.14414-15.12806l-4.02764,7.48545,1.95072-9.00481a14.66,14.66,0,0,0,.3047-4.49348,72.5442,72.5442,0,0,0-1.54765-9.09033l-.53082,4.41985-1.74859-6.44375a109.64046,109.64046,0,0,0-5.971-16.16149A109.53018,109.53018,0,0,0,142.508,68.93365l-1.74823,6.44375-.53119-4.41985a72.61178,72.61178,0,0,0-1.54765,9.09033,14.66764,14.66764,0,0,0,.3047,4.49385l1.94843,9.00755-4.02535-7.48738a38.26052,38.26052,0,0,0,1.14414,15.12688l3.44962,12.05551-5.84911-11.09179a1.865,1.865,0,0,0-.10531-.17694l-.6803.46695-.74225-1.03536a35.19609,35.19609,0,0,0-3.37333-4.03465l1.51279,7.44358-4.25849-8.15526a12.78127,12.78127,0,0,0-2.14545-3.00705c-1.38888-1.40711-2.84517-2.75884-4.35176-4.03967l1.86357,2.89974-5.84054-4.42649a103.63856,103.63856,0,0,0-11.80576-7.6062,85.52526,85.52526,0,0,0,4.40552,12.18061l2.97766,6.47713-2.484-2.453c.87511,1.62009,1.835,3.22039,2.86843,4.78237a13.18721,13.18721,0,0,0,2.54431,2.75884l8.01392,6.67459-7.86526-3.76555a35.24068,35.24068,0,0,0,8.01591,8.27527l-1.06985,1.76447-.1344,1.01143-.04527-.00738,5.88781,4.38661-9.72846-4.05481a10.50871,10.50871,0,0,0-1.967-.60711l.9285.304-8.33922-.019a71.70107,71.70107,0,0,0-7.9473.48127,65.55572,65.55572,0,0,0,6.7946,3.735l7.33672,3.44187-.84372-.10221a10.86239,10.86239,0,0,0,1.86054.23772l11.11652.49368-7.58522,1.44463a27.24574,27.24574,0,0,0,5.47891.60253l8.04678.05266-4.70564,1.52711,7.22942,1.25647-11.13277.6687q-.26553.01561-.52086.04837l-5.108,2.49749c-1.30986.64078-2.53265,1.33622-3.66172,2.03283,1.40128.10841,2.90979.17495,4.43772.14748l5.82083-.10376c.15833-.05649.31747-.11964.47625-.18817L136.458,132.271l-4.85828,3.7462a16.9779,16.9779,0,0,0,1.90662-.81588s.75813.43718.903.55874a3.54989,3.54989,0,0,0,.40846-.08907,17.18508,17.18508,0,0,0,4.21942-2.46337,17.7346,17.7346,0,0,1,4.73156-2.7,11.81362,11.81362,0,0,1,1.6565-.30972,4.51048,4.51048,0,0,1-2.18193-1.36066C142.19017,127.78451,141.78747,126.36351,142.8023,126.06339Z"/><polygon class="cls-5" points="175.616 145.743 180.681 145.743 180.681 158.103 183.72 158.103 183.72 145.743 188.786 145.743 188.786 142.906 175.616 142.906 175.616 145.743"/><polygon class="cls-6" points="105.325 152.429 95.802 142.906 94.789 142.906 94.789 158.103 97.828 158.103 97.828 148.681 107.251 158.103 108.365 158.103 108.365 142.906 105.325 142.906 105.325 152.429"/><polygon class="cls-7" points="135.77 150.403 129.184 142.906 128.171 142.906 128.171 158.103 131.211 158.103 131.211 149.289 135.77 154.354 140.328 149.289 140.339 158.103 143.378 158.103 143.378 142.906 142.365 142.906 135.77 150.403"/><path class="cls-8" d="M119.83306,142.90614h-3.03917l-6.07871,15.19652h3.24167l.91188-2.33015h6.88913l.91225,2.33015,3.23154-.01042Zm-3.74812,9.8272,2.30962-5.77512,2.24892,5.77512Z"/><path class="cls-9" d="M204.35209,138.31171v2.75844h-.5479v-2.75844H202.778v-.49232h2.60492v.49232Zm4.35263,2.75844-.00454-2.42871-1.02624,2.08953h-.3577L206.29,138.64144v2.42871h-.51539v-3.25076h.65l1.07275,2.15949,1.06821-2.15949h.64546v3.25076Z"/><path class="cls-10" d="M120.36119,169.00018a2.14428,2.14428,0,0,1-1.22833,3.987l-4.24882-.005V165.436h4.00718q1.9083.11112,2.01366,2.22006A1.58039,1.58039,0,0,1,120.36119,169.00018Zm-3.96187-.53865h2.11434a.85216.85216,0,0,0,.93635-.94139q-.02481-.55339-.92125-.584h-2.12944Zm0,3.34267h2.46673a.98548.98548,0,0,0,1.08738-1.09241q-.02481-.72492-1.07228-.75512h-2.48183Z"/><path class="cls-10" d="M122.47553,165.431h1.772l1.75189,2.46673,1.79215-2.46673h1.73175l-2.76878,3.77561v3.77561h-1.51025v-3.77561Z"/><path class="cls-10" d="M140.085,172.98219h-6.046l.005-.50342,3.51887-5.63824H134.044l-.005-1.40956h6.046v.55376l-3.534,5.5879h3.534Z"/><path class="cls-10" d="M141.98213,172.98219V165.436l5.54762-.005v1.40956h-4.03738v1.61093h3.02552V169.856h-3.02552v1.71665h4.02731v1.40956Z"/><path class="cls-10" d="M149.05006,172.98219V165.431h.50342l4.7321,4.7321V165.431h1.51024v7.55122h-.55376l-4.68175-4.68176v4.68176Z"/><path class="cls-10" d="M156.96374,172.98219l3.02049-7.55122h1.51024l3.01473,7.54618-1.60517.005-.45307-1.15786h-3.42322l-.45307,1.15786Zm3.81588-5.53756-1.14778,2.86946h2.26536Z"/><path class="cls-10" d="M170.99894,169.00018a2.14452,2.14452,0,0,1-1.22834,3.987l-4.24881-.005V165.436H169.529q1.90722.11112,2.01365,2.22006A1.58438,1.58438,0,0,1,170.99894,169.00018Zm-3.9626-.53865h2.11435a.85153.85153,0,0,0,.93635-.94139c-.01583-.36893-.32363-.56382-.92053-.584h-2.13017Zm0,3.34267h2.46674a.98485.98485,0,0,0,1.08737-1.09241q-.02373-.72492-1.07155-.75512h-2.48256Z"/><path class="cls-10" d="M173.55628,165.42594h1.50449v7.55625h-1.50449Z"/><path class="cls-10" d="M180.66449,165.68268a3.50517,3.50517,0,0,1,1.08163.75512l-1.00683,1.00683a1.733,1.733,0,0,0-1.40956-.6041q-.90615,0-1.15786.4279a.5917.5917,0,0,0,0,.73,1.99128,1.99128,0,0,0,1.15786.45308,3.74628,3.74628,0,0,1,1.7375.62927,1.89237,1.89237,0,0,1,.77957,1.68643,1.93684,1.93684,0,0,1-.83279,1.56059,3.0492,3.0492,0,0,1-1.94031.65444,4.47606,4.47606,0,0,1-1.75763-.30205,3.82668,3.82668,0,0,1-1.2082-.80546l1.00683-1.00683a2.39387,2.39387,0,0,0,1.71161.70478q1.00755,0,1.25566-.42791a.79416.79416,0,0,0,0-.8558q-.24812-.42826-1.25566-.52859a4.05687,4.05687,0,0,1-1.66127-.55375,1.67054,1.67054,0,0,1-.75512-1.56059,1.87791,1.87791,0,0,1,.85868-1.60805,3.02205,3.02205,0,0,1,1.76483-.607A4.22416,4.22416,0,0,1,180.66449,165.68268Z"/><rect class="cls-10" x="94.78897" y="169.09837" width="13.57591" height="1.65305"/><rect class="cls-10" x="188.59323" y="169.09837" width="13.57591" height="1.65305"/><rect class="cls-11" x="74.83942" y="412.27582" width="150.32116" height="35.27427"/><path class="cls-12" d="M103.327,426.19722v4.31025a1.49144,1.49144,0,0,0,.49543,1.23858,2.13343,2.13343,0,0,0,2.47716,0,1.49147,1.49147,0,0,0,.49543-1.23858v-4.31025h1.48629v4.7066a2.46163,2.46163,0,0,1-.91655,1.93218,3.744,3.744,0,0,1-4.60751,0,2.46162,2.46162,0,0,1-.91654-1.93218v-4.7066Z"/><path class="cls-13" d="M110.69769,433.62869v-7.43147h.49543l4.65705,4.65706v-4.65706h1.48629v7.43147h-.54407l-4.60841-4.60751v4.60751Z"/><path class="cls-14" d="M120.39012,432.56126a3.71721,3.71721,0,0,1,2.6429-6.364,4.022,4.022,0,0,1,2.73027.99087l-.99086,1.085a2.7431,2.7431,0,0,0-1.73941-.59452,2.118,2.118,0,0,0-2.224,2.20962,2.22447,2.22447,0,0,0,.61883,1.64484,2.1936,2.1936,0,0,0,1.61511.60938,2.66462,2.66462,0,0,0,1.7295-.58957l.99086,1.085a4.00917,4.00917,0,0,1-2.73027.99086A3.61587,3.61587,0,0,1,120.39012,432.56126Z"/><path class="cls-15" d="M128.86379,432.56126a3.82745,3.82745,0,1,1,2.651,1.06743A3.60293,3.60293,0,0,1,128.86379,432.56126Zm2.65551-.31978a2.08662,2.08662,0,0,0,1.6052-.66883,2.535,2.535,0,0,0,0-3.31939,2.27255,2.27255,0,0,0-3.2203,0,2.53224,2.53224,0,0,0,0,3.31939A2.09869,2.09869,0,0,0,131.5193,432.24148Z"/><path class="cls-16" d="M138.27518,426.19722l2.11143,5.44479,2.14927-5.44479h1.58538l-2.96718,7.43147h-1.48629l-2.978-7.43147Z"/><path class="cls-17" d="M146.148,433.62869v-7.42651l5.46055-.005v1.38721h-3.97425v1.58538h2.978v1.38225h-2.978v1.68942h3.96344v1.38721Z"/><path class="cls-18" d="M158.38967,430.38857l1.85291,3.24012H158.5383l-1.77815-3.07167h-1.35838v3.07167h-1.48629v-7.43147h3.241q2.59967,0,2.60056,2.14027A1.92194,1.92194,0,0,1,158.38967,430.38857Zm-2.9879-1.21876h2.08081q.89718-.01486.92241-.81746-.02568-.733-.90709-.763h-2.09613Z"/><path class="cls-19" d="M166.10668,433.62869v-7.43147h.49544l3.2212,3.66619,3.2248-3.66619h.49543v7.43147h-1.48629l-.0054-4.31025-2.22854,2.47715-2.23034-2.47715v4.31025Z"/><path class="cls-20" d="M176.52515,432.56126a3.82745,3.82745,0,1,1,2.651,1.06743A3.60293,3.60293,0,0,1,176.52515,432.56126Zm2.65551-.31978a2.0866,2.0866,0,0,0,1.60519-.66883,2.535,2.535,0,0,0,0-3.31939,2.27255,2.27255,0,0,0-3.2203,0,2.53224,2.53224,0,0,0,0,3.31939A2.09872,2.09872,0,0,0,179.18066,432.24148Z"/><path class="cls-21" d="M189.28114,430.38857l1.85291,3.24012h-1.70428l-1.77815-3.07167h-1.35838v3.07167H184.807v-7.43147h3.241q2.59967,0,2.60056,2.14027A1.922,1.922,0,0,1,189.28114,430.38857Zm-2.9879-1.21876h2.08081q.89718-.01486.9224-.81746-.02567-.733-.90708-.763h-2.09613Z"/><path class="cls-22" d="M192.69871,433.62869v-7.42651l5.46055-.005v1.38721H194.185v1.58538h2.978v1.38225h-2.978v1.68942h3.96344v1.38721Z"/></svg>