<svg id="Layer_1" data-name="Layer 1" xmlns="http://www.w3.org/2000/svg" width="300" height="600" viewBox="0 0 300 600"><defs><style>.cls-1{fill:#ab9555;}</style></defs><title>frame1</title><path class="cls-1" d="M105.31592,273.31689a4.18531,4.18531,0,0,1-4.20313-4.18945v-9.585a4.1968,4.1968,0,1,1,8.39356,0v2.00391h-2.74707v-2.05957a1.53124,1.53124,0,0,0-1.52735-1.52784,1.44746,1.44746,0,0,0-1.07129.44873,1.48022,1.48022,0,0,0-.4414,1.07911v9.6123a1.50708,1.50708,0,0,0,1.51269,1.51367,1.4833,1.4833,0,0,0,1.07911-.4414,1.44917,1.44917,0,0,0,.44824-1.07227V266.6748h2.74707v2.45264a4.18688,4.18688,0,0,1-4.19043,4.18945Z"/><path class="cls-1" d="M116.78662,269.05713l-.64355,4.03564h-2.75684l2.98438-17.55761h3.64355l2.94238,17.55761h-2.78515l-.61914-4.03564Zm1.3916-9.50049-.98047,6.92236h1.96094Z"/><path class="cls-1" d="M130.5249,255.521l3.51465,11.80957V255.521H136.688v17.57177h-2.84473l-3.64258-11.25195v11.25195h-2.64843V255.521Z"/><path class="cls-1" d="M144.397,255.521l3.51465,11.80957V255.521h2.64844v17.57177h-2.84473l-3.64258-11.25195v11.25195h-2.64843V255.521Z"/><path class="cls-1" d="M158.543,269.05713l-.64453,4.03564h-2.75586l2.98437-17.55761h3.64258l2.94336,17.55761h-2.78516l-.61914-4.03564Zm1.39062-9.50049-.98047,6.92236h1.96094Z"/><path class="cls-1" d="M169.30664,273.09277V255.521h3.96484a5.05881,5.05881,0,0,1,2.832.82666,3.85271,3.85271,0,0,1,1.541,2.17187,6.1268,6.1268,0,0,1,.25195,1.86377,4.1195,4.1195,0,0,1-.93945,2.83057,2.64785,2.64785,0,0,1-.92383.68652,3.07247,3.07247,0,0,1,1.49805,1.33154,5.162,5.162,0,0,1,.60352,1.73731,7.02191,7.02191,0,0,1,.09765,1.21924,5.85054,5.85054,0,0,1-.63086,2.83056,3.77022,3.77022,0,0,1-1.38672,1.457,3.81654,3.81654,0,0,1-2.0039.6167Zm2.85938-10.39746h1.10546a1.62206,1.62206,0,0,0,1.6543-1.20508,3.41358,3.41358,0,0,0,.1543-1.10693,2.31262,2.31262,0,0,0-.5332-1.65332,1.67426,1.67426,0,0,0-1.2754-.51855H172.166Zm0,7.77735h1.10546a1.8801,1.8801,0,0,0,1.86524-1.3877,3.052,3.052,0,0,0,.18164-1.09277,3.3333,3.3333,0,0,0-.56055-2.144,1.8093,1.8093,0,0,0-1.48633-.61621H172.166Z"/><path class="cls-1" d="M185.54688,273.09277h-2.64844V255.53516h2.64844Z"/><path class="cls-1" d="M198.88672,268.7207a4.95549,4.95549,0,0,1-.95313,3.13916,3.43411,3.43411,0,0,1-1.82226,1.24707,4.974,4.974,0,0,1-1.47071.1958,4.16361,4.16361,0,0,1-2.57812-.7705,4.31484,4.31484,0,0,1-1.35352-1.71631,6.89023,6.89023,0,0,1-.58007-2.48731l2.52148-.18213a3.82751,3.82751,0,0,0,.8125,2.2251,1.355,1.355,0,0,0,1.09375.49317,1.64287,1.64287,0,0,0,1.38672-.85547,2.123,2.123,0,0,0,.26562-1.16407,3.23514,3.23514,0,0,0-.99414-2.17382q-.78515-.74342-2.35351-2.23a10.08429,10.08429,0,0,1-1.86524-2.28614,5.307,5.307,0,0,1-.58789-2.46875,4.293,4.293,0,0,1,1.61133-3.63232,4.00829,4.00829,0,0,1,2.4668-.74316,4.47949,4.47949,0,0,1,2.42383.63037,3.64054,3.64054,0,0,1,1.26757,1.373,5.07091,5.07091,0,0,1,.582,2.03223l-2.53711.4624a3.05678,3.05678,0,0,0-.61524-1.68164,1.297,1.297,0,0,0-1.05078-.43457,1.21111,1.21111,0,0,0-1.10742.64453,2.49083,2.49083,0,0,0-.3086,1.28906,3.86891,3.86891,0,0,0,1.03711,2.45264,8.74777,8.74777,0,0,0,1.17774,1.12061q.92284.77124,1.21875,1.0791a9.01162,9.01162,0,0,1,1.51367,1.93359,7.595,7.595,0,0,1,.40625.82715A4.82968,4.82968,0,0,1,198.88672,268.7207Z"/><path class="cls-1" d="M73.42432,299.32422v7.44043H70.77588V289.207h2.64844v7.4541h3.19433V289.207h2.64844v17.55762H76.61865v-7.44043Z"/><path class="cls-1" d="M87.24951,302.72949l-.64355,4.03516H83.84912L86.8335,289.207h3.64355l2.94238,17.55762H90.63428l-.61914-4.03516Zm1.3916-9.501-.98047,6.92187h1.96094Z"/><path class="cls-1" d="M105.97412,302.39258a4.9415,4.9415,0,0,1-.95312,3.13867,3.4273,3.4273,0,0,1-1.82129,1.24707,4.96844,4.96844,0,0,1-1.47168.19629,4.16363,4.16363,0,0,1-2.57813-.77051,4.30416,4.30416,0,0,1-1.35254-1.7168A6.90573,6.90573,0,0,1,97.21631,302l2.52148-.18164a3.83586,3.83586,0,0,0,.81348,2.22559,1.35759,1.35759,0,0,0,1.09277.49316,1.64477,1.64477,0,0,0,1.38672-.85645,2.11893,2.11893,0,0,0,.2666-1.16406,3.236,3.236,0,0,0-.99511-2.17383q-.78516-.74266-2.35352-2.22949a10.03834,10.03834,0,0,1-1.86426-2.28613,5.2965,5.2965,0,0,1-.58789-2.46875,4.29457,4.29457,0,0,1,1.61133-3.63281,4.00649,4.00649,0,0,1,2.46582-.74317,4.48977,4.48977,0,0,1,2.42481.63086,3.652,3.652,0,0,1,1.26757,1.37305,5.0888,5.0888,0,0,1,.582,2.03222l-2.5371.46192a3.06,3.06,0,0,0-.61622-1.68164,1.29661,1.29661,0,0,0-1.05078-.4336,1.21125,1.21125,0,0,0-1.10742.64454,2.48954,2.48954,0,0,0-.30762,1.28906,3.86714,3.86714,0,0,0,1.03614,2.45215,8.77707,8.77707,0,0,0,1.17773,1.12109q.92431.7705,1.21875,1.0791a8.96387,8.96387,0,0,1,1.51367,1.9336,7.41006,7.41006,0,0,1,.40625.82617A4.83153,4.83153,0,0,1,105.97412,302.39258Z"/><path class="cls-1" d="M119.96729,306.76465V289.19336h3.96484a5.05292,5.05292,0,0,1,2.83105.82617,3.84994,3.84994,0,0,1,1.541,2.17188,6.126,6.126,0,0,1,.25293,1.86425,4.12383,4.12383,0,0,1-.93945,2.83008,2.65139,2.65139,0,0,1-.92481.68653,3.07793,3.07793,0,0,1,1.499,1.33105,5.16817,5.16817,0,0,1,.60254,1.73828,6.92,6.92,0,0,1,.09864,1.21875,5.861,5.861,0,0,1-.63086,2.83008,3.78005,3.78005,0,0,1-1.38672,1.458,3.82106,3.82106,0,0,1-2.00391.61621Zm2.85839-10.39746h1.10645a1.62282,1.62282,0,0,0,1.6543-1.20508,3.444,3.444,0,0,0,.15332-1.10645,2.31409,2.31409,0,0,0-.53223-1.65429,1.67844,1.67844,0,0,0-1.27539-.51758h-1.10645Zm0,7.77734h1.10645a1.87978,1.87978,0,0,0,1.86426-1.38769,3.05207,3.05207,0,0,0,.18164-1.09278,3.32584,3.32584,0,0,0-.56055-2.14355,1.80642,1.80642,0,0,0-1.48535-.61719h-1.10645Z"/><path class="cls-1" d="M133.54443,306.76465V289.19336h7.53809v2.66211h-4.88965v4.792h3.57324v2.66211h-3.57324v4.793h4.88965v2.66211Z"/><path class="cls-1" d="M145.272,306.76465V289.19336h7.53858v2.66211h-4.89014v4.792h3.57373v2.66211h-3.57373v4.793h4.89014v2.66211Z"/><path class="cls-1" d="M159.97266,289.19336l3.51562,11.80859V289.19336h2.64844v17.57129H163.291l-3.64258-11.252v11.252H157V289.19336Z"/><path class="cls-1" d="M187.082,306.96094a4.16128,4.16128,0,0,1-4.18945-4.17578V289.207h2.5918v13.54981a1.44849,1.44849,0,0,0,.44921,1.07226,1.48265,1.48265,0,0,0,1.07813.44141,1.50712,1.50712,0,0,0,1.51367-1.51367V289.207h2.76172v13.57813a3.99144,3.99144,0,0,1-1.23438,2.9707A4.09623,4.09623,0,0,1,187.082,306.96094Z"/><path class="cls-1" d="M204.5957,302.39258a4.92991,4.92991,0,0,1-.95312,3.13867,3.42845,3.42845,0,0,1-1.82031,1.24707,4.97983,4.97983,0,0,1-1.47266.19629,4.16363,4.16363,0,0,1-2.57813-.77051,4.30216,4.30216,0,0,1-1.35156-1.7168,6.92625,6.92625,0,0,1-.582-2.4873l2.52149-.18164a3.84246,3.84246,0,0,0,.81445,2.22559,1.35573,1.35573,0,0,0,1.09179.49316,1.64354,1.64354,0,0,0,1.38672-.85645,2.1184,2.1184,0,0,0,.26758-1.16406,3.23309,3.23309,0,0,0-.99609-2.17383q-.78516-.74266-2.35352-2.22949a10.00369,10.00369,0,0,1-1.86328-2.28613,5.28462,5.28462,0,0,1-.58789-2.46875,4.29457,4.29457,0,0,1,1.61133-3.63281,4.00154,4.00154,0,0,1,2.46484-.74317,4.49551,4.49551,0,0,1,2.42578.63086,3.65974,3.65974,0,0,1,1.26758,1.37305,5.10452,5.10452,0,0,1,.582,2.03222l-2.53711.46192a3.06031,3.06031,0,0,0-.61718-1.68164,1.2953,1.2953,0,0,0-1.05079-.4336,1.2123,1.2123,0,0,0-1.10742.64454,2.4895,2.4895,0,0,0-.30664,1.28906,3.86551,3.86551,0,0,0,1.03516,2.45215,8.77769,8.77769,0,0,0,1.17773,1.12109q.92578.7705,1.21875,1.0791a8.96394,8.96394,0,0,1,1.51368,1.9336,7.24412,7.24412,0,0,1,.40624.82617A4.83153,4.83153,0,0,1,204.5957,302.39258Z"/><path class="cls-1" d="M209.16406,306.76465V289.19336h7.53711v2.66211H211.8125v4.792h3.57227v2.66211H211.8125v4.793h4.88867v2.66211Z"/><path class="cls-1" d="M229.21484,302.56055a4.07068,4.07068,0,0,1-1.21875,2.9707,3.98559,3.98559,0,0,1-2.94336,1.2334h-4.16015V289.19336h4.16015a3.98709,3.98709,0,0,1,2.95118,1.23242,4.07322,4.07322,0,0,1,1.21093,2.957Zm-5.67382,1.584h1.5957a1.4179,1.4179,0,0,0,1.0664-.456,1.50046,1.50046,0,0,0,.4336-1.07129V293.4248a1.47943,1.47943,0,0,0-.44141-1.0791,1.433,1.433,0,0,0-1.05859-.44824H223.541Z"/><path class="cls-1" d="M97.273,336.06445a4.94155,4.94155,0,0,1-.95313,3.13867,3.42728,3.42728,0,0,1-1.82128,1.24708,4.96879,4.96879,0,0,1-1.47168.19628,4.16362,4.16362,0,0,1-2.57813-.7705,4.30423,4.30423,0,0,1-1.35254-1.7168,6.90573,6.90573,0,0,1-.58105-2.4873l2.52148-.18165a3.83583,3.83583,0,0,0,.81348,2.22559,1.35753,1.35753,0,0,0,1.09277.49316,1.64476,1.64476,0,0,0,1.38672-.85644,2.119,2.119,0,0,0,.2666-1.16406,3.236,3.236,0,0,0-.99512-2.17383q-.78515-.74268-2.35351-2.22949A10.03836,10.03836,0,0,1,89.3833,329.499a5.29647,5.29647,0,0,1-.58789-2.46875,4.29457,4.29457,0,0,1,1.61133-3.63281,4.00647,4.00647,0,0,1,2.46582-.74316,4.48962,4.48962,0,0,1,2.4248.63086,3.6519,3.6519,0,0,1,1.26758,1.373,5.0888,5.0888,0,0,1,.582,2.03223l-2.53711.46191a3.06,3.06,0,0,0-.61621-1.68164,1.2966,1.2966,0,0,0-1.05078-.43359,1.21125,1.21125,0,0,0-1.10742.64453,2.48954,2.48954,0,0,0-.30762,1.28906,3.86718,3.86718,0,0,0,1.03613,2.45215,8.77722,8.77722,0,0,0,1.17774,1.1211q.92432.7705,1.21875,1.0791a8.96407,8.96407,0,0,1,1.51367,1.93359,7.41177,7.41177,0,0,1,.40625.82617A4.83208,4.83208,0,0,1,97.273,336.06445Z"/><path class="cls-1" d="M106.01514,322.87891a4.03344,4.03344,0,0,1,3.082,1.21875,4.22871,4.22871,0,0,1,1.06543,2.9707v2.55078a4.08687,4.08687,0,0,1-1.21192,2.9707,3.96439,3.96439,0,0,1-2.93554,1.23243h-1.52735v6.61425h-2.64843V322.87891Zm1.583,4.23144a1.51116,1.51116,0,0,0-.41308-1.10644,1.47548,1.47548,0,0,0-1.10059-.4209h-1.59668v5.61914h1.59668a1.44762,1.44762,0,0,0,1.07227-.44824,1.4833,1.4833,0,0,0,.4414-1.07911Z"/><path class="cls-1" d="M117.29443,340.43652H114.646V322.87891h2.64843Z"/><path class="cls-1" d="M126.20557,322.87891a4.03946,4.03946,0,0,1,3.251,1.21875,4.43391,4.43391,0,0,1,.91016,2.9707v2.55078a4.10233,4.10233,0,0,1-1.415,3.15234l1.96191,7.665h-2.86425l-1.60547-6.61425h-1.76563v6.61425h-2.64843V322.87891Zm1.583,4.23144a1.344,1.344,0,0,0-1.51367-1.52734h-1.59668v5.61914h1.59668a1.44762,1.44762,0,0,0,1.07227-.44824,1.4833,1.4833,0,0,0,.4414-1.07911Z"/><path class="cls-1" d="M138.19971,340.43652h-2.64844V322.87891h2.64844Z"/><path class="cls-1" d="M145.51318,325.541h-2.8164v-2.66211h8.26758V325.541h-2.80274v14.8955h-2.64844Z"/><path class="cls-1" d="M159.63672,340.63281a4.16128,4.16128,0,0,1-4.18945-4.17578V322.87891h2.59179v13.5498a1.4467,1.4467,0,0,0,.44727,1.07227,1.48707,1.48707,0,0,0,1.08008.4414,1.5071,1.5071,0,0,0,1.51367-1.51367v-13.5498h2.75976V336.457a3.9897,3.9897,0,0,1-1.23242,2.9707A4.09619,4.09619,0,0,1,159.63672,340.63281Z"/><path class="cls-1" d="M171.42969,336.40137l-.64258,4.03515H168.0293l2.98437-17.55761h3.64453l2.94141,17.55761h-2.78516l-.61914-4.03515Zm1.39258-9.501-.98047,6.92188h1.96093Z"/><path class="cls-1" d="M189.41016,340.43652h-7.21485V322.87891h2.64844v14.92285h4.56641Z"/><path class="cls-1" d="M200.81641,340.43652h-7.2168V322.87891h2.64844v14.92285h4.56836Z"/><path class="cls-1" d="M205.27148,333.08008l-3.54492-10.21485h2.91406l1.9629,6.30567,1.94726-6.30567h2.92774l-3.5586,10.21485v7.35644h-2.64844Z"/></svg>