<svg id="Content" xmlns="http://www.w3.org/2000/svg" xmlns:xlink="http://www.w3.org/1999/xlink" width="320" height="480" viewBox="0 0 320 480"><defs><style>.cls-1{fill:#ba9544;}.cls-2{fill:#fff;stroke:#ba9544;stroke-miterlimit:10;stroke-width:0.5px;}.cls-3{clip-path:url(#clip-path);}</style><clipPath id="clip-path"><polygon class="cls-1" points="58.24 284.827 67.634 298.132 90.695 298.149 90.695 271.285 67.634 271.278 58.24 284.827"/></clipPath></defs><title>CBD - Daytime CBD</title><polygon class="cls-2" points="253.51 271.954 67.429 271.249 58.035 284.795 67.429 298.1 253.51 297.783 261.965 284.869 253.51 271.954"/><polygon class="cls-1" points="58.24 284.827 67.634 298.132 90.695 298.149 90.695 271.285 67.634 271.278 58.24 284.827"/><g class="cls-3"><rect class="cls-1" x="56.16242" y="269.20202" width="13.7283" height="31.02277"/></g><path class="cls-1" d="M167.35938,289.25537a4.557,4.557,0,0,1,3.24023-7.80176,4.92933,4.92933,0,0,1,3.34668,1.21485l-1.21484,1.33008a3.35831,3.35831,0,0,0-2.13184-.72852,2.59663,2.59663,0,0,0-2.72656,2.709,2.731,2.731,0,0,0,.75879,2.01612,2.68933,2.68933,0,0,0,1.98046.74707,3.26276,3.26276,0,0,0,2.11915-.72266l1.21484,1.33008a4.913,4.913,0,0,1-3.34668,1.21484A4.43308,4.43308,0,0,1,167.35938,289.25537Z"/><path class="cls-1" d="M182.377,285.76025a2.58686,2.58686,0,0,1-1.48242,4.81006l-5.126-.00586V281.46h4.835q2.30127.1333,2.42968,2.67871A1.90419,1.90419,0,0,1,182.377,285.76025Zm-4.78027-.6499h2.55078a1.02807,1.02807,0,0,0,1.12988-1.13574q-.0293-.668-1.11132-.70459h-2.56934Zm0,4.03272h2.97656a1.189,1.189,0,0,0,1.31153-1.31787q-.03077-.87451-1.29395-.91114h-2.99414Z"/><path class="cls-1" d="M185.46289,290.56445v-9.1167h3.51074q4.251,0,4.251,4.56153,0,4.55493-4.251,4.55517Zm3.51074-1.81591q2.42286-.00587,2.42871-2.73926-.00585-2.73341-2.42871-2.7334h-1.68847v5.47266Z"/><path class="cls-1" d="M195.25977,284.75488a.877.877,0,0,1,.65527-.24609.91332.91332,0,0,1,.68066.24609.83428.83428,0,0,1,.24317.61035.82292.82292,0,0,1-.24317.60743,1.039,1.039,0,0,1-1.33593,0,.82292.82292,0,0,1-.24317-.60743A.83428.83428,0,0,1,195.25977,284.75488Zm0,4.34864a.87862.87862,0,0,1,.65527-.24561.915.915,0,0,1,.68066.24561.83459.83459,0,0,1,.24317.61084.82257.82257,0,0,1-.24317.60693,1.039,1.039,0,0,1-1.33593,0,.82257.82257,0,0,1-.24317-.60693A.83459.83459,0,0,1,195.25977,289.10352Z"/><path class="cls-1" d="M209.17969,285.49268q-.03516,2.90991-1.09571,4.03906a3.07652,3.07652,0,0,1-2.63281.99609,3.79251,3.79251,0,0,1-2.44824-1.15381l1.02637-1.11767a3.18307,3.18307,0,0,0,1.51855.51611,1.60452,1.60452,0,0,0,1.29981-.38867,2.44594,2.44594,0,0,0,.6748-1.48779,2.85208,2.85208,0,0,1-1.88965.60742,3.04861,3.04861,0,0,1-2.24707-1.04785,3.12591,3.12591,0,0,1-.53418-2.28077,2.992,2.992,0,0,1,1.05957-2.062,3.217,3.217,0,0,1,2.50586-.63476,2.97364,2.97364,0,0,1,2.04981,1.209A5.13507,5.13507,0,0,1,209.17969,285.49268Zm-1.82129-1.002q-.06153-1.26929-1.458-1.32422-1.39746.05493-1.458,1.209a1.376,1.376,0,0,0,1.51856,1.51806A1.3528,1.3528,0,0,0,207.3584,284.49072Z"/><path class="cls-1" d="M210.7959,288.12891v-1.2085h3.76562v1.2085Z"/><path class="cls-1" d="M218.49121,281.45361v-.00586h1.81641v9.1167h-1.81641V283.8833l-1.21484,1.21484-1.21485-1.21484Z"/><path class="cls-1" d="M227.7959,285.94824c.10937.04053.209.08106.29785.12158a1.78553,1.78553,0,0,1,.94141,1.82227,2.336,2.336,0,0,1-1.00489,1.88281,3.68412,3.68412,0,0,1-2.34179.78955,5.39484,5.39484,0,0,1-2.11914-.36425,4.583,4.583,0,0,1-1.458-.97217l1.21484-1.21436a2.88507,2.88507,0,0,0,2.06445.8501q1.21582,0,1.51563-.51611a.963.963,0,0,0,0-1.03272q-.3003-.51636-2.11621-.57715v-1.63965q1.81494.12159,2.11621-.395a.96209.96209,0,0,0,0-1.03222q-.3003-.51636-1.51563-.5166a2.16176,2.16176,0,0,0-1.76074.729l-1.21484-1.21484a4.238,4.238,0,0,1,1.30566-.91114,5.08773,5.08773,0,0,1,1.96778-.30371,3.20775,3.20775,0,0,1,2.21972.79,2.44067,2.44067,0,0,1,.88379,1.88281,1.8027,1.8027,0,0,1-.81933,1.731C227.91992,285.88574,227.86133,285.916,227.7959,285.94824Z"/><path class="cls-1" d="M231.0459,285.29834a2.34729,2.34729,0,1,1,1.62793.65625A2.20838,2.20838,0,0,1,231.0459,285.29834Zm1.60937-.4248a1.08639,1.08639,0,0,0,.832-.3462,1.3115,1.3115,0,0,0,0-1.72216,1.09792,1.09792,0,0,0-.83789-.34327,1.08405,1.08405,0,0,0-.82617.34327,1.31153,1.31153,0,0,0,0,1.72216A1.08642,1.08642,0,0,0,232.65527,284.87354Zm-.48535,5.69091,5.16211-9.11084h1.48242l-5.15039,9.11084Zm4.52442-.60107a2.33338,2.33338,0,1,1,1.61523.6499A2.19277,2.19277,0,0,1,236.69434,289.96338Zm1.585-.44385a1.06725,1.06725,0,0,0,.81445-.33691,1.27122,1.27122,0,0,0,0-1.67627,1.07421,1.07421,0,0,0-.82031-.33692,1.0568,1.0568,0,0,0-.80762.33692,1.27122,1.27122,0,0,0,0,1.67627A1.06368,1.06368,0,0,0,238.2793,289.51953Z"/></svg>