<svg id="Content" xmlns="http://www.w3.org/2000/svg" xmlns:xlink="http://www.w3.org/1999/xlink" width="640" height="1136" viewBox="0 0 640 1136"><defs><style>.cls-1{fill:#ba9544;}.cls-2{fill:#fff;stroke:#ba9544;stroke-miterlimit:10;}.cls-3{clip-path:url(#clip-path);}</style><clipPath id="clip-path"><polygon class="cls-1" points="117.127 712.323 135.914 738.934 182.038 738.967 182.038 685.239 135.914 685.227 117.127 712.323"/></clipPath></defs><title>CBD - Daytime CBD</title><polygon class="cls-2" points="507.667 686.577 135.504 685.167 116.717 712.259 135.504 738.87 507.667 738.236 524.576 712.409 507.667 686.577"/><polygon class="cls-1" points="117.127 712.323 135.914 738.934 182.038 738.967 182.038 685.239 135.914 685.227 117.127 712.323"/><g class="cls-3"><rect class="cls-1" x="112.97152" y="681.0737" width="27.4566" height="62.04555"/></g><path class="cls-1" d="M335.36523,721.17985a9.11408,9.11408,0,0,1,6.48047-15.60351,9.86034,9.86034,0,0,1,6.69336,2.42968l-2.42968,2.66016a6.71658,6.71658,0,0,0-4.26368-1.457,5.35273,5.35273,0,0,0-3.9541,1.53027,5.29862,5.29862,0,0,0-1.5,3.8877,5.46263,5.46263,0,0,0,1.51856,4.03222,5.37783,5.37783,0,0,0,3.96,1.49414,6.52808,6.52808,0,0,0,4.23926-1.44531l2.42968,2.66016a9.82764,9.82764,0,0,1-6.69336,2.42969A8.86311,8.86311,0,0,1,335.36523,721.17985Z"/><path class="cls-1" d="M365.40039,714.18962a5.21723,5.21723,0,0,1,2.53809,4.166q-.24317,5.1504-5.50293,5.4541l-10.252-.01171V705.589h9.66895q4.604.26661,4.85937,5.35742Q366.62695,713.37516,365.40039,714.18962Zm-9.56055-1.29981h5.10157a2.057,2.057,0,0,0,2.25976-2.27148q-.06006-1.33595-2.22265-1.40918h-5.13868Zm0,8.06543H361.792a2.37867,2.37867,0,0,0,2.624-2.63574q-.06153-1.749-2.5879-1.82227h-5.98828Z"/><path class="cls-1" d="M371.57129,723.798v-18.2334h7.02148q8.50343,0,8.50293,9.123,0,9.10987-8.50293,9.11036Zm7.02148-3.63184q4.84718-.01172,4.8584-5.47852-.01172-5.4668-4.8584-5.46679h-3.37695v10.94531Z"/><path class="cls-1" d="M391.165,712.17888a1.75788,1.75788,0,0,1,1.31152-.49219,1.82426,1.82426,0,0,1,1.36035.49219,1.66851,1.66851,0,0,1,.48633,1.2207,1.6458,1.6458,0,0,1-.48633,1.21484,2.07805,2.07805,0,0,1-2.67187,0,1.6458,1.6458,0,0,1-.48633-1.21484A1.66851,1.66851,0,0,1,391.165,712.17888Zm0,8.69726a1.76109,1.76109,0,0,1,1.31152-.49121,1.82764,1.82764,0,0,1,1.36035.49121,1.6692,1.6692,0,0,1,.48633,1.22168,1.64515,1.64515,0,0,1-.48633,1.21387,2.07805,2.07805,0,0,1-2.67187,0,1.64515,1.64515,0,0,1-.48633-1.21387A1.6692,1.6692,0,0,1,391.165,720.87614Z"/><path class="cls-1" d="M419.00586,713.65446q-.07178,5.81982-2.19238,8.07813a6.151,6.151,0,0,1-5.26563,1.99218,7.5825,7.5825,0,0,1-4.89551-2.30761l2.05274-2.23535a6.36262,6.36262,0,0,0,3.03711,1.03222,3.21012,3.21012,0,0,0,2.59961-.77734,4.8969,4.8969,0,0,0,1.34863-2.97559,5.7017,5.7017,0,0,1-3.77832,1.21485,6.09719,6.09719,0,0,1-4.49414-2.09571,6.252,6.252,0,0,1-1.06934-4.56152,5.9851,5.9851,0,0,1,2.12012-4.124,6.43154,6.43154,0,0,1,5.01074-1.26954,5.94518,5.94518,0,0,1,4.09961,2.418A10.26964,10.26964,0,0,1,419.00586,713.65446Zm-3.64356-2.0039q-.12158-2.53859-2.916-2.64844-2.79346.10986-2.915,2.418.12158,3.03661,3.03711,3.03613A2.70536,2.70536,0,0,0,415.3623,711.65056Z"/><path class="cls-1" d="M422.2373,718.92692v-2.417h7.53125v2.417Z"/><path class="cls-1" d="M437.62793,705.57634v-.01172h3.63281V723.798h-3.63281V710.43571l-2.42969,2.42969-2.42871-2.42969Z"/><path class="cls-1" d="M456.23828,714.56559q.32813.12159.5957.24317,1.88234.85107,1.88282,3.64453a4.67307,4.67307,0,0,1-2.01075,3.76562,7.36365,7.36365,0,0,1-4.68261,1.57911,10.79467,10.79467,0,0,1-4.23926-.72852,9.17674,9.17674,0,0,1-2.916-1.94434l2.42969-2.42871a5.77447,5.77447,0,0,0,4.12988,1.7002q2.43018,0,3.03125-1.03223a1.92587,1.92587,0,0,0,0-2.06543q-.602-1.03271-4.23339-1.15429v-3.2793q3.63133.24316,4.23339-.79a1.92419,1.92419,0,0,0,0-2.06445q-.602-1.03272-3.03125-1.03321a4.32555,4.32555,0,0,0-3.52246,1.458l-2.42968-2.42969a8.49894,8.49894,0,0,1,2.61132-1.82226,10.1805,10.1805,0,0,1,3.93653-.60742,6.41547,6.41547,0,0,1,4.43945,1.58007,4.88455,4.88455,0,0,1,1.76758,3.76563q0,2.55028-1.63965,3.46191C456.48535,714.44059,456.36816,714.50114,456.23828,714.56559Z"/><path class="cls-1" d="M462.7373,713.26579a4.69458,4.69458,0,1,1,3.25586,1.3125A4.41974,4.41974,0,0,1,462.7373,713.26579Zm3.21973-.84961a2.17281,2.17281,0,0,0,1.66406-.69238,2.626,2.626,0,0,0,0-3.44434,2.19653,2.19653,0,0,0-1.67675-.68652,2.1645,2.1645,0,0,0-1.65137.68652,2.62306,2.62306,0,0,0,0,3.44434A2.16993,2.16993,0,0,0,465.957,712.41618Zm-.97168,11.38184,10.3252-18.22168h2.96386L467.97363,723.798Zm9.04981-1.20215a4.66554,4.66554,0,1,1,3.23046,1.2998A4.3864,4.3864,0,0,1,474.03516,722.59587Zm3.16992-.8877a2.13094,2.13094,0,0,0,1.62793-.67383,2.53948,2.53948,0,0,0,0-3.35253,2.14484,2.14484,0,0,0-1.63965-.67383,2.11717,2.11717,0,0,0-1.61621.67383,2.54242,2.54242,0,0,0,0,3.35253A2.13094,2.13094,0,0,0,477.20508,721.70817Z"/></svg>