<?xml version="1.0" encoding="utf-8"?>
<!-- Generator: Adobe Illustrator 23.0.1, SVG Export Plug-In . SVG Version: 6.00 Build 0)  -->
<svg version="1.1" id="Content" xmlns="http://www.w3.org/2000/svg" xmlns:xlink="http://www.w3.org/1999/xlink" x="0px" y="0px"
	 viewBox="0 0 640 1136" style="enable-background:new 0 0 640 1136;" xml:space="preserve">
<style type="text/css">
	.st0{fill:#B89344;}
</style>
<title>Frame2 - Durga Mata</title>
<path class="st0" d="M125.9,617.7h12.2c7.8,0,11.6,4.3,11.6,12.2v24.9c0,7.9-3.8,12.2-11.6,12.2h-12.2V617.7z M133.6,624.7v35.2h4.4
	c2.5,0,3.9-1.3,3.9-4.8v-25.6c0-3.5-1.5-4.8-3.9-4.8L133.6,624.7z"/>
<path class="st0" d="M169.4,617.7v38c0,3.5,1.6,4.8,4,4.8s4-1.3,4-4.8v-38h7.3v37.5c0,7.9-3.9,12.4-11.6,12.4s-11.6-4.5-11.6-12.4
	v-37.5H169.4z"/>
<path class="st0" d="M213.7,667c-0.4-1.3-0.7-2-0.7-6.1v-7.7c0-4.6-1.6-6.3-5.1-6.3h-2.7V667h-7.7v-49.3h11.7
	c8,0,11.5,3.7,11.5,11.3v3.9c0,5.1-1.6,8.4-5.1,10c3.9,1.6,5.1,5.3,5.1,10.5v7.6c-0.1,2,0.1,4.1,0.9,6H213.7z M205.3,624.8v15.1h3
	c2.9,0,4.6-1.3,4.6-5.2v-4.9c0-3.5-1.2-5.1-4-5.1H205.3z"/>
<path class="st0" d="M244.9,639.5h10.8v15.6c0,7.9-3.9,12.4-11.6,12.4s-11.5-4.5-11.5-12.4v-25.6c0-7.9,3.9-12.4,11.5-12.4
	s11.6,4.5,11.6,12.4v4.8h-7.3V629c0-3.5-1.6-4.9-4-4.9s-4,1.3-4,4.9v26.6c0,3.5,1.6,4.8,4,4.8s4-1.3,4-4.8v-9.1h-3.5L244.9,639.5z"
	/>
<path class="st0" d="M293.3,667h-7.8l-1.3-9h-9.5l-1.3,9h-7.1l7.9-49.3h11.3L293.3,667z M275.6,651.4h7.5l-3.7-24.9L275.6,651.4z"/>
<path class="st0" d="M339.1,652.7l5.3-35h10.8V667h-7.3v-35.4l-5.4,35.4h-7.3l-5.8-34.9V667h-6.8v-49.3h10.8L339.1,652.7z"/>
<path class="st0" d="M393.3,667h-7.8l-1.3-9h-9.5l-1.3,9h-7.1l7.9-49.3h11.3L393.3,667z M375.6,651.4h7.5l-3.7-24.9L375.6,651.4z"/>
<path class="st0" d="M402.1,617.7h23.9v7H418V667h-7.7v-42.3h-8.1L402.1,617.7z"/>
<path class="st0" d="M462,667h-7.8l-1.4-9h-9.5l-1.3,9h-7.1l7.9-49.3h11.3L462,667z M444.3,651.4h7.5l-3.8-25L444.3,651.4z"/>
<path class="st0" d="M502.7,624.1c-2.5,0-4,1.3-4,4.9v5.3h-7.3v-4.8c0-7.9,3.9-12.4,11.5-12.4s11.5,4.5,11.5,12.4
	c0,15.5-15.4,21.3-15.4,29.4c0,0.4,0,0.7,0.1,1.1h14.6v7h-22.4v-6.1c0-14.5,15.4-16.9,15.4-31.1
	C506.7,625.3,505.2,624.1,502.7,624.1z"/>
</svg>
