<svg id="Content" xmlns="http://www.w3.org/2000/svg" xmlns:xlink="http://www.w3.org/1999/xlink" width="320" height="50" viewBox="0 0 320 50"><defs><style>.cls-1{fill:url(#New_Gradient_Swatch_1);}.cls-2{fill:#fff;}.cls-3{fill:#ba9544;}</style><linearGradient id="New_Gradient_Swatch_1" x1="164.67109" y1="19.13772" x2="185.2642" y2="19.13772" gradientUnits="userSpaceOnUse"><stop offset="0" stop-color="#a88a34"/><stop offset="0.49324" stop-color="#caaf67"/><stop offset="1" stop-color="#957f2e"/></linearGradient></defs><title>citrus</title><polygon class="cls-1" points="180.116 10.221 169.82 10.221 164.671 19.137 169.82 28.055 180.116 28.055 185.264 19.137 180.116 10.221"/><path class="cls-2" d="M179.17937,20.4004a4.52686,4.52686,0,0,1-6.86214-5.88333l-.41908-.35976a5.07847,5.07847,0,0,0,7.70029,6.60285Z"/><path class="cls-2" d="M171.81376,17.72022a4.1139,4.1139,0,0,0,1.27732,2.55274l2.43313-2.83786Z"/><path class="cls-2" d="M173.37238,20.51368a4.11537,4.11537,0,0,0,2.67806.87452l-.28129-3.66931Z"/><path class="cls-2" d="M172.61967,14.77636a4.11342,4.11342,0,0,0-.8305,2.57473l3.51814-.27077Z"/><path class="cls-2" d="M178.87616,20.14082l-2.72975-2.34031.27269,3.55832a4.11193,4.11193,0,0,0,2.45706-1.218"/><path class="cls-2" d="M175.50728,16.77367c.01817-.23059.14734-.377.29373-.38846.14543-.01244.25355.11386.23537.34445a.7842.7842,0,0,1-.29756.43917.5074.5074,0,0,1-.23154-.39516"/><path class="cls-2" d="M176.46082,16.99373c.22389-.066.37123.01148.38942.156.01817.14352-.09951.29948-.32244.3655a.51633.51633,0,0,1-.43918-.14161s.14831-.31383.3722-.37985"/><path class="cls-2" d="M176.87463,24.1254a.47773.47773,0,1,1-.95488.03349c-.00861-.26312.45065-.78458.45065-.78458s.49562.488.50423.75109"/><path class="cls-2" d="M176.70461,23.81425a.13407.13407,0,0,1-.11481.14926l-.39708.01435a.13463.13463,0,0,1-.12438-.14065,1.43709,1.43709,0,0,0,.04306-.76161c-.15214-.45256-1.21226-.80849-1.14624-.81041l2.1834-.15308a1.57892,1.57892,0,0,0-.58747.96062.996.996,0,0,0,.14352.74152"/><path class="cls-3" d="M165.61377,39.65625a1.89313,1.89313,0,0,1,1.3457-3.24121,2.0447,2.0447,0,0,1,1.39014.50488l-.5044.55274a1.394,1.394,0,0,0-.88574-.30274,1.07793,1.07793,0,0,0-1.13281,1.125,1.13319,1.13319,0,0,0,.31543.83692,1.11664,1.11664,0,0,0,.82227.31054,1.357,1.357,0,0,0,.88085-.2998l.5044.55273a2.04335,2.04335,0,0,1-1.39014.50391A1.839,1.839,0,0,1,165.61377,39.65625Z"/><path class="cls-3" d="M169.16455,36.41309h.75391v3.78613h-.75391Z"/><path class="cls-3" d="M173.76611,36.415v.707h-1.26172v3.07715h-.75683V37.12207h-1.26123v-.707Z"/><path class="cls-3" d="M176.60645,38.5498l.94335,1.64942h-.86767l-.90576-1.56348h-.69092v1.56348h-.75684V36.415h1.64991q1.32422,0,1.32421,1.08984A.97928.97928,0,0,1,176.60645,38.5498Zm-1.521-.62109H176.145q.4563-.00732.46924-.416-.01319-.37355-.46192-.38868h-1.06689Z"/><path class="cls-3" d="M178.64258,36.415v2.19531a.76.76,0,0,0,.25195.63086,1.08976,1.08976,0,0,0,1.26172,0,.76.76,0,0,0,.25195-.63086V36.415h.75684v2.39648a1.25418,1.25418,0,0,1-.46631.98438,1.90769,1.90769,0,0,1-2.34619,0,1.25319,1.25319,0,0,1-.4668-.98438V36.415Z"/><path class="cls-3" d="M184.03125,36.541a1.78692,1.78692,0,0,1,.54248.3789l-.50488.50488a.8669.8669,0,0,0-.70606-.30273q-.45409,0-.58056.21387a.29607.29607,0,0,0,0,.36621.99773.99773,0,0,0,.58056.22656,1.88276,1.88276,0,0,1,.87012.31543.9475.9475,0,0,1,.39111.8457.96774.96774,0,0,1-.41748.78125,1.52859,1.52859,0,0,1-.97265.32813,2.22848,2.22848,0,0,1-.88037-.15137,1.90477,1.90477,0,0,1-.60547-.40332l.50439-.50488a1.20081,1.20081,0,0,0,.85791.35351q.50464,0,.6294-.21484a.3982.3982,0,0,0,0-.42871c-.083-.14258-.293-.23145-.6294-.26465a2.0436,2.0436,0,0,1-.83252-.27734.83714.83714,0,0,1-.37842-.78223.94057.94057,0,0,1,.43018-.80566,1.51257,1.51257,0,0,1,.88428-.30469A2.11332,2.11332,0,0,1,184.03125,36.541Z"/></svg>