<svg id="Layer_1" data-name="Layer 1" xmlns="http://www.w3.org/2000/svg" width="89.0957" height="112.0205" viewBox="0 0 89.0957 112.0205"><defs><style>.cls-1{fill:#ac9655;}</style></defs><title>frame1</title><path class="cls-1" d="M5.9092,14.6025a3.2871,3.2871,0,0,1-2.4151-.9941A3.2738,3.2738,0,0,1,2.5,11.2051V3.4326a3.2774,3.2774,0,0,1,1-2.415A3.2911,3.2911,0,0,1,5.9092.0234a3.256,3.256,0,0,1,2.4082,1,3.3021,3.3021,0,0,1,.9892,2.4092v1.625H7.0791V3.3867A1.24,1.24,0,0,0,5.8408,2.1484a1.174,1.174,0,0,0-.8691.3633,1.2,1.2,0,0,0-.3584.875v7.7959a1.222,1.222,0,0,0,1.2275,1.2266,1.2049,1.2049,0,0,0,.875-.3574,1.1758,1.1758,0,0,0,.3633-.8692V9.2168H9.3066v1.9883a3.2618,3.2618,0,0,1-1,2.4092A3.2891,3.2891,0,0,1,5.9092,14.6025Z"/><path class="cls-1" d="M16.1719,11.1484,15.65,14.4209H13.4141L15.834.1826h2.9551l2.3857,14.2383H18.917l-.5029-3.2725ZM17.3,3.4434l-.7949,5.6142h1.5908Z"/><path class="cls-1" d="M28.2725.1709l2.85,9.5771V.1709h2.1484v14.25H30.9629l-2.9541-9.125v9.125H25.8613V.1709Z"/><path class="cls-1" d="M40.4824.1709l2.85,9.5771V.1709h2.1485v14.25H43.1729l-2.9541-9.125v9.125H38.0713V.1709Z"/><path class="cls-1" d="M52.9131,11.1484l-.5215,3.2725H50.1553L52.5762.1826H55.53L57.917,14.4209H55.6582l-.502-3.2725Zm1.1289-7.705-.7959,5.6142h1.5908Z"/><path class="cls-1" d="M61.97,14.4209V.1709h3.2158a4.0935,4.0935,0,0,1,2.2959.6709,3.1217,3.1217,0,0,1,1.25,1.7607,4.9573,4.9573,0,0,1,.2032,1.5118,3.3507,3.3507,0,0,1-.76,2.2949,2.1674,2.1674,0,0,1-.75.5576A2.4953,2.4953,0,0,1,68.64,8.0459a4.1539,4.1539,0,0,1,.4883,1.4092,5.6332,5.6332,0,0,1,.08.9883,4.7485,4.7485,0,0,1-.5117,2.2959,3.2932,3.2932,0,0,1-2.749,1.6816Zm2.3184-8.4316h.8974a1.3153,1.3153,0,0,0,1.3409-.9776,2.7648,2.7648,0,0,0,.125-.8974A1.876,1.876,0,0,0,66.22,2.7734a1.3594,1.3594,0,0,0-1.0342-.4209h-.8974Zm0,6.3066h.8974a1.5241,1.5241,0,0,0,1.5118-1.125,2.4684,2.4684,0,0,0,.1474-.8867,2.7,2.7,0,0,0-.4541-1.7383,1.4686,1.4686,0,0,0-1.2051-.5h-.8974Z"/><path class="cls-1" d="M75.457,14.4209H73.3086V.1826H75.457Z"/><path class="cls-1" d="M86.5967,10.875a4.001,4.001,0,0,1-.7725,2.5459,2.7835,2.7835,0,0,1-1.4775,1.0117,4.0442,4.0442,0,0,1-1.1934.1592,3.3806,3.3806,0,0,1-2.0908-.625,3.5134,3.5134,0,0,1-1.0967-1.3926,5.6349,5.6349,0,0,1-.4717-2.0166l2.0459-.1484a3.1079,3.1079,0,0,0,.6592,1.8047,1.0987,1.0987,0,0,0,.8858.4A1.3342,1.3342,0,0,0,84.21,11.92a1.7157,1.7157,0,0,0,.2168-.9433,2.6226,2.6226,0,0,0-.8077-1.7637q-.6357-.6021-1.9091-1.8076a8.15,8.15,0,0,1-1.5108-1.8545,4.286,4.286,0,0,1-.4775-2.002A3.4812,3.4812,0,0,1,81.0283.6035a3.2467,3.2467,0,0,1,2-.6035,3.6334,3.6334,0,0,1,1.9658.5117A2.9524,2.9524,0,0,1,86.0225,1.625a4.1155,4.1155,0,0,1,.4716,1.6484l-2.0566.375a2.4817,2.4817,0,0,0-.5-1.3642,1.0518,1.0518,0,0,0-.8525-.3516.9816.9816,0,0,0-.8975.5225,2.0117,2.0117,0,0,0-.25,1.0449,3.1388,3.1388,0,0,0,.8408,1.9893,7.0607,7.0607,0,0,0,.9551.9091q.75.6242.9883.875a7.2857,7.2857,0,0,1,1.2275,1.5684,6.0557,6.0557,0,0,1,.3291.67A3.8977,3.8977,0,0,1,86.5967,10.875Z"/><path class="cls-1" d="M5.251,32.7871v6.0342H3.1035V24.583H5.251v6.0449H7.8418V24.583H9.9893V38.8213H7.8418V32.7871Z"/><path class="cls-1" d="M17.4229,35.5488l-.5215,3.2725H14.665l2.42-14.2383H20.04l2.3858,14.2383H20.168l-.503-3.2725Zm1.1279-7.705-.7949,5.6142h1.5908Z"/><path class="cls-1" d="M33.5664,35.2754a4.001,4.001,0,0,1-.7725,2.5459,2.7841,2.7841,0,0,1-1.4775,1.0117,4.0419,4.0419,0,0,1-1.1924.1592,3.3837,3.3837,0,0,1-2.0918-.625,3.5026,3.5026,0,0,1-1.0957-1.3926,5.5956,5.5956,0,0,1-.4717-2.0166L28.51,34.81a3.1075,3.1075,0,0,0,.6591,1.8047,1.1,1.1,0,0,0,.8868.4,1.3339,1.3339,0,0,0,1.125-.6943,1.7249,1.7249,0,0,0,.2158-.9433,2.6252,2.6252,0,0,0-.8067-1.7637q-.6372-.6021-1.9091-1.8076a8.1613,8.1613,0,0,1-1.5118-1.8545,4.286,4.286,0,0,1-.4775-2.002,3.48,3.48,0,0,1,1.3076-2.9453,3.2426,3.2426,0,0,1,2-.6035,3.6379,3.6379,0,0,1,1.9658.5117,2.9675,2.9675,0,0,1,1.0284,1.1133,4.1479,4.1479,0,0,1,.4716,1.6484l-2.0576.375a2.4735,2.4735,0,0,0-.5-1.3642,1.0483,1.0483,0,0,0-.8515-.3516.9821.9821,0,0,0-.8985.5225,2.0212,2.0212,0,0,0-.25,1.0449A3.1348,3.1348,0,0,0,29.749,29.89a7.0366,7.0366,0,0,0,.9541.9092q.75.624.9883.875a7.2825,7.2825,0,0,1,1.2275,1.5684,6.0766,6.0766,0,0,1,.33.67A3.8941,3.8941,0,0,1,33.5664,35.2754Z"/><path class="cls-1" d="M46.6377,38.8213v-14.25h3.2158a4.0938,4.0938,0,0,1,2.2959.6709,3.1222,3.1222,0,0,1,1.25,1.7607,4.9864,4.9864,0,0,1,.2041,1.5117,3.3468,3.3468,0,0,1-.7607,2.295,2.1674,2.1674,0,0,1-.75.5576,2.498,2.498,0,0,1,1.2158,1.0791,4.2018,4.2018,0,0,1,.4883,1.4092,5.6481,5.6481,0,0,1,.0791.9883,4.7584,4.7584,0,0,1-.5108,2.2958,3.2928,3.2928,0,0,1-2.75,1.6817ZM48.9561,30.39h.8974a1.315,1.315,0,0,0,1.3408-.9775,2.765,2.765,0,0,0,.125-.8975,1.8758,1.8758,0,0,0-.4316-1.3408,1.36,1.36,0,0,0-1.0342-.4209h-.8974Zm0,6.3067h.8974a1.524,1.524,0,0,0,1.5117-1.125,2.4662,2.4662,0,0,0,.1475-.8867,2.7007,2.7007,0,0,0-.4541-1.7383,1.4686,1.4686,0,0,0-1.2051-.5h-.8974Z"/><path class="cls-1" d="M57.9619,38.8213v-14.25h6.1133v2.1592H60.1094v3.8867h2.8974v2.1582H60.1094v3.8867h3.9658v2.1592Z"/><path class="cls-1" d="M68.1123,38.8213v-14.25h6.1133v2.1592H70.2607v3.8867h2.8965v2.1582H70.2607v3.8867h3.9649v2.1592Z"/><path class="cls-1" d="M80.9941,24.5713l2.8506,9.5771V24.5713h2.1475v14.25H83.6855l-2.9541-9.125v9.125H78.583v-14.25Z"/><path class="cls-1" d="M3.3975,63.38a3.2814,3.2814,0,0,1-2.4092-.9883A3.266,3.266,0,0,1,0,59.9932V48.9824H2.1016V59.9707a1.1712,1.1712,0,0,0,.3642.8691,1.2,1.2,0,0,0,.875.3584,1.222,1.222,0,0,0,1.2266-1.2275V48.9824H6.8066V59.9932a3.2368,3.2368,0,0,1-1,2.4091A3.3237,3.3237,0,0,1,3.3975,63.38Z"/><path class="cls-1" d="M17.61,59.6748a4.0129,4.0129,0,0,1-.7725,2.5459A2.7874,2.7874,0,0,1,15.36,63.2324a4.0494,4.0494,0,0,1-1.1934.1592,3.3806,3.3806,0,0,1-2.0908-.625A3.5037,3.5037,0,0,1,10.98,61.374a5.6328,5.6328,0,0,1-.4717-2.0166l2.0459-.1484a3.1072,3.1072,0,0,0,.6592,1.8047,1.0984,1.0984,0,0,0,.8857.4,1.334,1.334,0,0,0,1.125-.6944,1.724,1.724,0,0,0,.2159-.9433,2.6211,2.6211,0,0,0-.8067-1.7637q-.6357-.6021-1.9092-1.8076a8.1519,8.1519,0,0,1-1.5107-1.8545,4.2848,4.2848,0,0,1-.4775-2.002,3.4812,3.4812,0,0,1,1.3066-2.9453,3.2447,3.2447,0,0,1,2-.6035,3.6358,3.6358,0,0,1,1.9658.5117,2.9593,2.9593,0,0,1,1.0283,1.1133,4.114,4.114,0,0,1,.4717,1.6484l-2.0566.375a2.4833,2.4833,0,0,0-.5-1.3642,1.052,1.052,0,0,0-.8526-.3516.9805.9805,0,0,0-.8974.5225,2.0117,2.0117,0,0,0-.25,1.0449,3.1382,3.1382,0,0,0,.8408,1.9893,7.1039,7.1039,0,0,0,.9541.9091q.75.6242.9893.875a7.2888,7.2888,0,0,1,1.2275,1.5684,6.0735,6.0735,0,0,1,.3291.67A3.9224,3.9224,0,0,1,17.61,59.6748Z"/><path class="cls-1" d="M21.3115,63.2207v-14.25h6.1133V51.13H23.459v3.8867h2.8974v2.1582H23.459v3.8867h3.9658v2.1592Z"/><path class="cls-1" d="M37.8916,59.8115a3.3026,3.3026,0,0,1-.9883,2.4092,3.2333,3.2333,0,0,1-2.3867,1h-3.375v-14.25h3.375a3.2292,3.2292,0,0,1,2.3926,1,3.3028,3.3028,0,0,1,.9824,2.3975Zm-4.6025,1.2842H34.585a1.1459,1.1459,0,0,0,.8632-.3691,1.2163,1.2163,0,0,0,.3526-.8692V52.4023a1.202,1.202,0,0,0-.3584-.875,1.1609,1.1609,0,0,0-.8574-.3632H33.2891Z"/><path class="cls-1" d="M53.4,59.9482l-.5215,3.2725H50.6426l2.4209-14.2383h2.9541l2.3867,14.2383H56.1455l-.5019-3.2725Zm1.1289-7.705-.7959,5.6142h1.5908Z"/><path class="cls-1" d="M68.2637,59.6748a4.001,4.001,0,0,1-.7725,2.5459,2.7835,2.7835,0,0,1-1.4775,1.0117,4.0419,4.0419,0,0,1-1.1924.1592,3.3837,3.3837,0,0,1-2.0918-.625,3.5017,3.5017,0,0,1-1.0957-1.3926,5.593,5.593,0,0,1-.4717-2.0166l2.0449-.1484a3.1079,3.1079,0,0,0,.6592,1.8047,1.1,1.1,0,0,0,.8867.4,1.334,1.334,0,0,0,1.125-.6944,1.724,1.724,0,0,0,.2159-.9433,2.6256,2.6256,0,0,0-.8067-1.7637q-.6372-.6021-1.9092-1.8076a8.16,8.16,0,0,1-1.5117-1.8545,4.286,4.286,0,0,1-.4775-2.002,3.4792,3.4792,0,0,1,1.3076-2.9453,3.2426,3.2426,0,0,1,2-.6035,3.6382,3.6382,0,0,1,1.9658.5117A2.9579,2.9579,0,0,1,67.69,50.4248a4.1155,4.1155,0,0,1,.4716,1.6484l-2.0566.375a2.4756,2.4756,0,0,0-.5-1.3642,1.0486,1.0486,0,0,0-.8516-.3516.982.982,0,0,0-.8984.5225,2.0215,2.0215,0,0,0-.25,1.0449,3.135,3.135,0,0,0,.8418,1.9893,7.043,7.043,0,0,0,.9541.9091q.75.6242.9883.875a7.2888,7.2888,0,0,1,1.2275,1.5684,6.0557,6.0557,0,0,1,.3291.67A3.8977,3.8977,0,0,1,68.2637,59.6748Z"/><path class="cls-1" d="M84.0928,59.9482,83.57,63.2207H81.334l2.4209-14.2383H86.709l2.3867,14.2383H86.8369l-.5019-3.2725Zm1.1279-7.705-.7959,5.6142h1.5918Z"/><path class="cls-1" d="M9.6064,84.0752a4,4,0,0,1-.7724,2.5459,2.784,2.784,0,0,1-1.4776,1.0117,4.0412,4.0412,0,0,1-1.1923.1592,3.3837,3.3837,0,0,1-2.0918-.625,3.5017,3.5017,0,0,1-1.0957-1.3926,5.5915,5.5915,0,0,1-.4717-2.0166L4.55,83.6094a3.1072,3.1072,0,0,0,.6592,1.8047,1.1,1.1,0,0,0,.8867.4,1.3342,1.3342,0,0,0,1.125-.6944,1.7241,1.7241,0,0,0,.2158-.9433A2.6255,2.6255,0,0,0,6.63,82.4131q-.6372-.6021-1.9092-1.8076A8.16,8.16,0,0,1,3.209,78.751a4.2848,4.2848,0,0,1-.4776-2.002,3.4793,3.4793,0,0,1,1.3077-2.9453,3.2426,3.2426,0,0,1,2-.6035,3.6382,3.6382,0,0,1,1.9658.5117,2.9673,2.9673,0,0,1,1.0283,1.1133,4.148,4.148,0,0,1,.4717,1.6484l-2.0576.375a2.475,2.475,0,0,0-.5-1.3642,1.0486,1.0486,0,0,0-.8516-.3516.9819.9819,0,0,0-.8984.5225,2.02,2.02,0,0,0-.25,1.0449A3.1347,3.1347,0,0,0,5.7891,78.69a7.043,7.043,0,0,0,.9541.9091q.75.624.9882.875A7.2864,7.2864,0,0,1,8.959,82.042a6.0945,6.0945,0,0,1,.33.67A3.8937,3.8937,0,0,1,9.6064,84.0752Z"/><path class="cls-1" d="M16.6943,73.3828a3.2721,3.2721,0,0,1,2.5.9883,3.4311,3.4311,0,0,1,.8633,2.4092v2.0683a3.3166,3.3166,0,0,1-.9824,2.4092,3.22,3.22,0,0,1-2.3809,1H15.4551v5.3633H13.3076V73.3828Zm1.2842,3.4317a1.2237,1.2237,0,0,0-.3359-.8975,1.1938,1.1938,0,0,0-.8916-.3418H15.4551v4.5576H16.751a1.1714,1.1714,0,0,0,.8691-.3642,1.204,1.204,0,0,0,.3584-.875Z"/><path class="cls-1" d="M25.8418,87.6211H23.6943V73.3828h2.1475Z"/><path class="cls-1" d="M33.7139,73.3828a3.2746,3.2746,0,0,1,2.6367.9883,3.5948,3.5948,0,0,1,.7383,2.4092v2.0683a3.3284,3.3284,0,0,1-1.1475,2.5567l1.5908,6.2158H35.21l-1.3028-5.3633H32.4756v5.3633H30.3281V73.3828Zm1.2841,3.4317a1.09,1.09,0,0,0-1.2275-1.2393H32.4756v4.5576h1.2949a1.1734,1.1734,0,0,0,.87-.3642,1.2031,1.2031,0,0,0,.3574-.875Z"/><path class="cls-1" d="M43.7646,87.6211H41.6172V73.3828h2.1474Z"/><path class="cls-1" d="M50.0225,75.542H47.7383V73.3828h6.7051V75.542H52.17V87.6211H50.0225Z"/><path class="cls-1" d="M61.7979,87.78A3.3744,3.3744,0,0,1,58.4,84.3936V73.3828H60.502V84.3711a1.1709,1.1709,0,0,0,.3642.8691,1.2,1.2,0,0,0,.875.3584,1.222,1.222,0,0,0,1.2266-1.2275V73.3828H65.207V84.3936a3.2372,3.2372,0,0,1-1,2.4091A3.3237,3.3237,0,0,1,61.7979,87.78Z"/><path class="cls-1" d="M71.6816,84.3486l-.5224,3.2725H68.9229l2.4209-14.2383h2.9541l2.3867,14.2383H74.4258l-.502-3.2725Zm1.128-7.705-.7959,5.6142h1.5918Z"/><path class="cls-1" d="M86.59,87.6211H80.7373V73.3828h2.1484V85.4844H86.59Z"/><path class="cls-1" d="M34.8672,108.748l-.5215,3.2725H32.1094l2.42-14.2383h2.9551L39.87,112.0205H37.6123l-.5029-3.2725Zm1.1279-7.705L35.2,106.6572H36.791Z"/><path class="cls-1" d="M45.751,112.0205H43.6035V97.7822H45.751Z"/><path class="cls-1" d="M56.9863,108.6113a3.3026,3.3026,0,0,1-.9883,2.4092,3.233,3.233,0,0,1-2.3867,1h-3.375v-14.25h3.375a3.2291,3.2291,0,0,1,2.3926,1,3.3028,3.3028,0,0,1,.9824,2.3975Zm-4.6025,1.2842H53.68a1.1462,1.1462,0,0,0,.8633-.3691,1.2167,1.2167,0,0,0,.3525-.8692v-7.4551a1.2016,1.2016,0,0,0-.3584-.875,1.1609,1.1609,0,0,0-.8574-.3632H52.3838Z"/></svg>