<svg id="Layer_1" data-name="Layer 1" xmlns="http://www.w3.org/2000/svg" width="76.7905" height="38.9922" viewBox="0 0 76.7905 38.9922"><defs><style>.cls-1{fill:#ac9655;}</style></defs><title>frame3</title><path class="cls-1" d="M3.3975,14.58a3.2822,3.2822,0,0,1-2.4092-.9883A3.2679,3.2679,0,0,1,0,11.1934V.1826H2.1021V11.1709a1.1723,1.1723,0,0,0,.3637.8691,1.2,1.2,0,0,0,.875.3584,1.2228,1.2228,0,0,0,1.2271-1.2275V.1826H6.8066V11.1934a3.2353,3.2353,0,0,1-1,2.4091A3.3229,3.3229,0,0,1,3.3975,14.58Z"/><path class="cls-1" d="M14.0068.1709l2.85,9.5771V.1709h2.148v14.25H16.6978l-2.9546-9.125v9.125H11.5957V.1709Z"/><path class="cls-1" d="M27.18,14.6025a3.3941,3.3941,0,0,1-3.4092-3.3974V3.4326a3.2774,3.2774,0,0,1,1-2.415A3.2919,3.2919,0,0,1,27.18.0234a3.2571,3.2571,0,0,1,2.4087,1,3.3016,3.3016,0,0,1,.9887,2.4092v1.625H28.35V3.3867a1.2412,1.2412,0,0,0-1.2388-1.2383,1.174,1.174,0,0,0-.8691.3633,1.202,1.202,0,0,0-.3584.875v7.7959a1.222,1.222,0,0,0,1.2275,1.2266,1.2041,1.2041,0,0,0,.875-.3574,1.1762,1.1762,0,0,0,.3638-.8692V9.2168h2.227v1.9883A3.3941,3.3941,0,0,1,27.18,14.6025Z"/><path class="cls-1" d="M38.5825,0a3.2813,3.2813,0,0,1,2.4151,1,3.2962,3.2962,0,0,1,.9941,2.4092v7.7734a3.4033,3.4033,0,1,1-6.8066,0V3.4092a3.2768,3.2768,0,0,1,1-2.4141A3.2791,3.2791,0,0,1,38.5825,0Zm1.17,3.3643a1.2228,1.2228,0,0,0-1.227-1.2276,1.2,1.2,0,0,0-.875.3584,1.1726,1.1726,0,0,0-.3638.8692v7.7949a1.1763,1.1763,0,0,0,.3638.87,1.2031,1.2031,0,0,0,.875.3574,1.2211,1.2211,0,0,0,1.227-1.2275Z"/><path class="cls-1" d="M48.8945,14.4209,46.3491.1826H48.6l1.7876,11.0986,1.8-11.0986H54.44L51.8491,14.4209Z"/><path class="cls-1" d="M59.1152,14.4209V.1709H65.229V2.33H61.2632V6.2168h2.8974V8.375H61.2632v3.8867H65.229v2.1592Z"/><path class="cls-1" d="M72.9722.1826a3.2758,3.2758,0,0,1,2.6367.9883A3.5948,3.5948,0,0,1,76.3472,3.58V5.6484A3.3284,3.3284,0,0,1,75.2,8.2051l1.5908,6.2158H74.4673L73.1655,9.0576H71.7339v5.3633H69.5854V.1826Zm1.2841,3.4317A1.09,1.09,0,0,0,73.0288,2.375H71.7339V6.9326h1.2949a1.1712,1.1712,0,0,0,.8691-.3642,1.2,1.2,0,0,0,.3584-.875Z"/><path class="cls-1" d="M18.3652,38.8213H16.2178v-14.25H19.3l2.0015,10.2363,1.9214-10.2363h2.9609v14.25h-2.148V29.8672l-1.8632,8.9541H20.4453l-2.08-8.9317Z"/><path class="cls-1" d="M34.3477,24.4A3.4041,3.4041,0,0,1,37.7568,27.81V35.583a3.4033,3.4033,0,1,1-6.8066,0V27.81A3.4059,3.4059,0,0,1,34.3477,24.4Zm1.17,3.3642a1.2228,1.2228,0,0,0-1.2271-1.2275,1.2,1.2,0,0,0-.875.3584,1.1725,1.1725,0,0,0-.3638.8691V35.56a1.1763,1.1763,0,0,0,.3638.87,1.2031,1.2031,0,0,0,.875.3574A1.2211,1.2211,0,0,0,35.5181,35.56Z"/><path class="cls-1" d="M45.92,24.583a3.2739,3.2739,0,0,1,2.6362.9883,3.5923,3.5923,0,0,1,.7388,2.4092v2.0683a3.3274,3.3274,0,0,1-1.1479,2.5567l1.5908,6.2158H47.416L46.1138,33.458H44.6816v5.3633H42.5342V24.583Zm1.2842,3.4316a1.09,1.09,0,0,0-1.2275-1.2392H44.6816V31.333h1.2955a1.1725,1.1725,0,0,0,.87-.3642,1.2035,1.2035,0,0,0,.3579-.875Z"/><path class="cls-1" d="M54.46,38.8213v-14.25h6.1132v2.1592H56.6074v3.8867h2.898v2.1582h-2.898v3.8867h3.9658v2.1592Z"/></svg>