<svg id="Layer_1" data-name="Layer 1" xmlns="http://www.w3.org/2000/svg" width="72.2109" height="63.3916" viewBox="0 0 72.2109 63.3916"><defs><style>.cls-1{fill:#ac9655;}</style></defs><title>frame2</title><path class="cls-1" d="M18.9819,10.875a4.0063,4.0063,0,0,1-.7724,2.5459,2.7857,2.7857,0,0,1-1.4776,1.0117,4.0447,4.0447,0,0,1-1.1928.1592,3.3822,3.3822,0,0,1-2.0913-.625,3.5018,3.5018,0,0,1-1.0962-1.3926,5.6118,5.6118,0,0,1-.4717-2.0166l2.0454-.1484a3.1065,3.1065,0,0,0,.6592,1.8047,1.0994,1.0994,0,0,0,.8862.4,1.3342,1.3342,0,0,0,1.125-.6944,1.7241,1.7241,0,0,0,.2158-.9433,2.6232,2.6232,0,0,0-.8066-1.7637q-.6364-.6021-1.9092-1.8076a8.1562,8.1562,0,0,1-1.5112-1.8545,4.2848,4.2848,0,0,1-.4776-2.002A3.48,3.48,0,0,1,13.4141.6035a3.2437,3.2437,0,0,1,2-.6035A3.637,3.637,0,0,1,17.38.5117,2.9633,2.9633,0,0,1,18.4082,1.625,4.1317,4.1317,0,0,1,18.88,3.2734l-2.0571.375a2.4794,2.4794,0,0,0-.5-1.3642,1.05,1.05,0,0,0-.8521-.3516.9812.9812,0,0,0-.8979.5225,2.0156,2.0156,0,0,0-.25,1.0449,3.1364,3.1364,0,0,0,.8413,1.9893,7.0673,7.0673,0,0,0,.9541.9091q.75.6242.9887.875a7.2864,7.2864,0,0,1,1.2276,1.5684,6.084,6.084,0,0,1,.33.67A3.9067,3.9067,0,0,1,18.9819,10.875Z"/><path class="cls-1" d="M25.793,14.4209H23.6455V.1826H25.793Z"/><path class="cls-1" d="M33.0049.1709l2.85,9.5771V.1709h2.1479v14.25H35.6958l-2.9546-9.125v9.125H30.5938V.1709Z"/><path class="cls-1" d="M46.1787,14.6025A3.3943,3.3943,0,0,1,42.77,11.2051V3.4326a3.2774,3.2774,0,0,1,1-2.415A3.2913,3.2913,0,0,1,46.1787.0234a3.256,3.256,0,0,1,2.4082,1,3.3022,3.3022,0,0,1,.9893,2.4092v1.625H47.3486V3.3867A1.24,1.24,0,0,0,46.11,2.1484a1.174,1.174,0,0,0-.8692.3633,1.2,1.2,0,0,0-.3584.875v7.7959A1.222,1.222,0,0,0,46.11,12.4092a1.2051,1.2051,0,0,0,.875-.3574,1.176,1.176,0,0,0,.3632-.8692V9.2168h2.2276v1.9883a3.3941,3.3941,0,0,1-3.3975,3.3974Z"/><path class="cls-1" d="M54.2168,14.4209V.1709h6.1143V2.33H56.3643V6.2168h2.8984V8.375H56.3643v3.8867h3.9668v2.1592Z"/><path class="cls-1" d="M2.7578,35.5488l-.5215,3.2725H0L2.42,24.583H5.375L7.7612,38.8213H5.5029l-.5024-3.2725Zm1.1284-7.705L3.0908,33.458H4.6816Z"/><path class="cls-1" d="M14.8584,24.5713l2.85,9.5771V24.5713h2.1479v14.25H17.5493l-2.9546-9.125v9.125H12.4473v-14.25Z"/><path class="cls-1" d="M28.0317,39.0029a3.3941,3.3941,0,0,1-3.4091-3.3974V27.833a3.4033,3.4033,0,1,1,6.8066,0v1.625H29.2021V27.7871a1.2411,1.2411,0,0,0-1.2387-1.2383,1.1742,1.1742,0,0,0-.8692.3633,1.2024,1.2024,0,0,0-.3584.875V35.583A1.2222,1.2222,0,0,0,27.9634,36.81a1.204,1.204,0,0,0,.875-.3575,1.1757,1.1757,0,0,0,.3637-.8691V33.6172h2.2271v1.9883a3.3942,3.3942,0,0,1-3.3975,3.3974Z"/><path class="cls-1" d="M38.2188,38.8213h-2.148V24.583h2.148Z"/><path class="cls-1" d="M43.0186,38.8213v-14.25h6.1132v2.1592H45.166v3.8867h2.8985v2.1582H45.166v3.8867h3.9658v2.1592Z"/><path class="cls-1" d="M55.9,24.5713l2.8506,9.5771V24.5713h2.1474v14.25H58.5918l-2.9551-9.125v9.125H53.4893v-14.25Z"/><path class="cls-1" d="M67.79,26.7422H65.5059V24.583h6.705v2.1592H69.9385V38.8213H67.79Z"/><path class="cls-1" d="M13.09,51.1416H10.8057V48.9824H17.51v2.1592h-2.273V63.2207H13.09Z"/><path class="cls-1" d="M24.2646,63.2207H22.1172V48.9824h2.1474Z"/><path class="cls-1" d="M31.2129,63.2207H29.0654v-14.25h3.0821L34.1489,59.207,36.07,48.9707h2.9609v14.25H36.8833V54.2666L35.02,63.2207H33.293l-2.08-8.9316Z"/><path class="cls-1" d="M43.832,63.2207v-14.25h6.1133V51.13H45.98v3.8867h2.8984v2.1582H45.98v3.8867h3.9658v2.1592Z"/><path class="cls-1" d="M61.4053,59.6748a4.001,4.001,0,0,1-.7725,2.5459,2.7835,2.7835,0,0,1-1.4775,1.0117,4.0489,4.0489,0,0,1-1.1934.1592,3.3806,3.3806,0,0,1-2.0908-.625,3.5046,3.5046,0,0,1-1.0967-1.3926,5.6349,5.6349,0,0,1-.4717-2.0166l2.0459-.1484a3.1079,3.1079,0,0,0,.6592,1.8047,1.0985,1.0985,0,0,0,.8858.4,1.3342,1.3342,0,0,0,1.125-.6944,1.7157,1.7157,0,0,0,.2168-.9433,2.6226,2.6226,0,0,0-.8077-1.7637q-.6357-.6021-1.9091-1.8076a8.15,8.15,0,0,1-1.5108-1.8545,4.286,4.286,0,0,1-.4775-2.002,3.4812,3.4812,0,0,1,1.3066-2.9453,3.2447,3.2447,0,0,1,2-.6035,3.6355,3.6355,0,0,1,1.9658.5117,2.9524,2.9524,0,0,1,1.0284,1.1133,4.1155,4.1155,0,0,1,.4716,1.6484l-2.0566.375a2.4825,2.4825,0,0,0-.5-1.3642,1.0519,1.0519,0,0,0-.8525-.3516.9806.9806,0,0,0-.8975.5225,2.0117,2.0117,0,0,0-.25,1.0449,3.1388,3.1388,0,0,0,.8408,1.9893,7.1039,7.1039,0,0,0,.9541.9091q.7515.6242.9893.875a7.2888,7.2888,0,0,1,1.2275,1.5684,6.0557,6.0557,0,0,1,.3291.67A3.8977,3.8977,0,0,1,61.4053,59.6748Z"/></svg>