<svg id="Layer_1" data-name="Layer 1" xmlns="http://www.w3.org/2000/svg" xmlns:xlink="http://www.w3.org/1999/xlink" width="64.208" height="59.1063" viewBox="0 0 64.208 59.1063"><defs><style>.cls-1{fill:url(#New_Gradient_Swatch_1);}.cls-2{fill:url(#New_Gradient_Swatch_1-2);}</style><linearGradient id="New_Gradient_Swatch_1" y1="29.5531" x2="60.2565" y2="29.5531" gradientUnits="userSpaceOnUse"><stop offset="0" stop-color="#ac8e34"/><stop offset="0.1878" stop-color="#ceb367"/><stop offset="0.461" stop-color="#a48e4a"/><stop offset="0.7634" stop-color="#ceb367"/><stop offset="1" stop-color="#997f2e"/></linearGradient><linearGradient id="New_Gradient_Swatch_1-2" x1="67.7097" y1="44.6846" x2="57.4976" y2="52.2894" xlink:href="#New_Gradient_Swatch_1"/></defs><title>logo</title><path class="cls-1" d="M0,50.5787H.5685l5.344,5.3438V50.5787H7.6181v8.5276H6.993L1.7055,53.8192v5.2871H0Zm14.0535,0L17.4589,59.1l-1.8134.0059-.5119-1.3076H11.2678l-.5117,1.3076H8.937l3.4111-8.5276Zm.4548,5.5146-1.262-3.2407L11.95,56.0933Zm4.7927-5.5146h-.5684v8.5276h1.7057V54.16l2.5582,2.8424,2.558-2.8424.0059,4.9459h1.7054V50.5787h-.5684l-3.7009,4.2068Zm14.3323,0L37.0385,59.1l-1.8137.0059-.5117-1.3076H30.8473l-.5117,1.3076h-1.819l3.411-8.5276Zm.4547,5.5146-1.2619-3.2407L31.53,56.0933Zm6.7654,1.4211a2.7007,2.7007,0,0,1-1.9329-.7959l-1.1372,1.1372a4.3024,4.3024,0,0,0,1.3645.91,5.051,5.051,0,0,0,1.9842.3409,3.4436,3.4436,0,0,0,2.1914-.739,2.1859,2.1859,0,0,0,.9411-1.7623A2.1345,2.1345,0,0,0,43.3832,54.7a4.2283,4.2283,0,0,0-1.9614-.7105,2.2479,2.2479,0,0,1-1.3076-.5119.6656.6656,0,0,1,0-.8244q.2846-.483,1.3076-.483a1.9581,1.9581,0,0,1,1.592.6821l1.1368-1.1371a3.9776,3.9776,0,0,0-1.2222-.8528,4.76,4.76,0,0,0-1.8421-.2842,3.4136,3.4136,0,0,0-1.9924.6851,2.1218,2.1218,0,0,0-.9693,1.8164,1.887,1.887,0,0,0,.8526,1.7624,4.5835,4.5835,0,0,0,1.8762.6253q1.1369.1139,1.4184.5969a.901.901,0,0,1,0,.9667Q41.9906,57.5144,40.8534,57.5144Zm9.0506,1.5919V52.1705h2.8426V50.5787H45.3559v1.5918h2.8424v6.9358Zm10.3525-6.9358V50.5787l-6.2649.0057v8.5219h6.2537V57.5145h-4.548V55.5759H59.114V53.99H55.6973V52.1705ZM51.8694,36.7091,47.19,36.72l.5212-.1705a5.86,5.86,0,0,0-1.1042.3406L41.1482,39.165l3.3035-2.4614-.0252.0042-.0754-.5676-.6-.99a19.78,19.78,0,0,0,4.4981-4.6437l-4.4136,2.113,4.497-3.7454a7.4077,7.4077,0,0,0,1.428-1.5481c.58-.8765,1.1183-1.7745,1.6094-2.6836l-1.3939,1.3764,1.6709-3.6346a48.0164,48.0164,0,0,0,2.4722-6.8352,58.1858,58.1858,0,0,0-6.6248,4.2682l-3.2714,2.4792L45.2661,20.67c-.8463.72-1.6646,1.4792-2.4455,2.27a7.169,7.169,0,0,0-1.2042,1.6874L39.227,29.2045l.8487-4.177a19.76,19.76,0,0,0-1.8929,2.2641l-.4165.5809-.3818-.262a1.087,1.087,0,0,0-.0591.0993l-3.282,6.2237,1.9355-6.7645A21.4731,21.4731,0,0,0,36.621,18.68l-2.26,4.2005,1.0947-5.0531a8.2272,8.2272,0,0,0,.171-2.5215,40.7214,40.7214,0,0,0-.8685-5.1011l-.2979,2.48-.9812-3.616A61.5264,61.5264,0,0,0,30.1283,0a61.4622,61.4622,0,0,0-3.3507,9.069l-.981,3.616-.2981-2.48a40.7579,40.7579,0,0,0-.8685,5.1011,8.2333,8.2333,0,0,0,.171,2.5217l1.0934,5.0546-2.2589-4.2015a21.47,21.47,0,0,0,.6421,8.4884l1.9357,6.765L22.9311,27.71a1.0432,1.0432,0,0,0-.0591-.0993l-.3818.262-.4165-.5809a19.7429,19.7429,0,0,0-1.8929-2.2641l.8489,4.177-2.39-4.5764a7.1732,7.1732,0,0,0-1.204-1.6874c-.7794-.79-1.5965-1.5481-2.442-2.2668L16.04,22.3011l-3.2775-2.484a58.1584,58.1584,0,0,0-6.6248-4.2682A48.0058,48.0058,0,0,0,8.61,22.3841l1.6709,3.6346L8.8868,24.6423c.4911.9091,1.03,1.8071,1.61,2.6836a7.401,7.401,0,0,0,1.4278,1.5481l4.497,3.7454-4.4136-2.113A19.7758,19.7758,0,0,0,16.5057,35.15l-.6.99-.0754.5676-.0254-.0042,3.3039,2.4616L13.6494,36.89a5.8989,5.8989,0,0,0-1.1038-.3406l.521.1705-4.6795-.0106a40.24,40.24,0,0,0-4.46.27A36.773,36.773,0,0,0,7.74,39.075l4.117,1.9314-.4735-.0573a6.1062,6.1062,0,0,0,1.044.1334l6.2381.277-4.2565.8107a15.2924,15.2924,0,0,0,3.0745.338l4.5155.03-2.6406.8569,4.0568.7051-6.2472.3753q-.1489.0087-.2922.0271L14.01,45.9037c-.735.36-1.4212.75-2.0548,1.1407.7864.0608,1.6329.0982,2.49.0828l3.2663-.0583q.1333-.0476.2673-.1056l5.4037-2.3524L20.6564,46.713a9.5068,9.5068,0,0,0,1.07-.4578s.4254.2453.5067.3135a1.9945,1.9945,0,0,0,.2292-.05A9.6437,9.6437,0,0,0,24.83,45.1365a9.9476,9.9476,0,0,1,2.6552-1.5151,6.6247,6.6247,0,0,1,.93-.1739A2.5315,2.5315,0,0,1,27.19,42.684c-.591-.5908-.817-1.3882-.2475-1.5566s1.6025.7977,1.67.7977a1.2325,1.2325,0,0,0,.3444-.7953c0-.3409-.2434-1.004-.289-1.4053a6.6737,6.6737,0,0,0-.2427-1.1627c-.0889-.2642-.7064-.3794-1.0377-.5838a5.4188,5.4188,0,0,1-.8361-.5789,2.644,2.644,0,0,1-.3555-1.213,4.7708,4.7708,0,0,0-.1994-1.2348c-.1154-.2162-.412-.369-.6125-.57a.8623.8623,0,0,1-.2067-.5308c.1538-.048.2019.3483.38.382s.1658.18.4443.2761.2884.2284.3244.4878.3483,1.1362.4515,1.494.2114.6273.5648.6392.305.1945.72.1611a2.3254,2.3254,0,0,1,.9971.192c.2234.0793.5046.0865.6006-.0695s-.0674-.7857-.0674-.7857c-.144,0-.1681-.1944-.2233-.3746s.0337-.1946.0337-.1946a.7613.7613,0,1,1,1.451,0s.0888.0143.0336.1946-.0793.3746-.2236.3746c0,0-.1631.63-.0671.7857s.3772.1488.6006.0695a2.3249,2.3249,0,0,1,.9968-.192c.4157.0334.3677-.1491.7208-.1611s.4612-.2811.5644-.6392.4157-1.2346.4518-1.494.0456-.3917.3244-.4878.2666-.2425.4443-.2761.226-.43.38-.382a.864.864,0,0,1-.2066.5308c-.2006.2-.4972.3533-.6126.57a4.7708,4.7708,0,0,0-.1994,1.2348,2.644,2.644,0,0,1-.3555,1.213,5.4188,5.4188,0,0,1-.8361.5789c-.3315.2044-.9488.32-1.0377.5838a6.6552,6.6552,0,0,0-.2427,1.1627c-.0456.4013-.289,1.0644-.289,1.4053a1.2325,1.2325,0,0,0,.3444.7953c.0671,0,1.1-.9656,1.67-.7977s.3435.9658-.2475,1.5566a2.5311,2.5311,0,0,1-1.2244.7635,6.6291,6.6291,0,0,1,.93.1739,9.9487,9.9487,0,0,1,2.6551,1.5151,9.6484,9.6484,0,0,0,2.3675,1.3823,2.016,2.016,0,0,0,.229.05c.0813-.068.5071-.3138.5071-.3138a9.5146,9.5146,0,0,0,1.07.4578l-2.7262-2.1021,5.4039,2.3524c.0889.0385.1782.0739.2671.1056l3.2663.0583c.8574.0156,1.7042-.022,2.49-.0828-.6336-.3909-1.32-.7811-2.0553-1.1407L43.38,44.5022q-.1431-.0182-.292-.0271L36.8413,44.1l4.0592-.7055-2.6315-.8565,4.5036-.03a15.29,15.29,0,0,0,3.0745-.338L41.5906,41.36l6.2381-.277a6.1316,6.1316,0,0,0,1.0442-.1332l-.4737.0573,4.117-1.9316a36.7853,36.7853,0,0,0,3.8129-2.0959A40.2407,40.2407,0,0,0,51.8694,36.7091Z"/><path class="cls-2" d="M61.4814,48.0006v1.5479H61.174V48.0006h-.5759v-.2763H62.06v.2763Zm2.4425,1.5479-.0025-1.3629-.5759,1.1725h-.2007l-.5759-1.1725v1.3629H62.28V47.7243h.3647l.602,1.2118.5994-1.2118h.3622v1.8242Z"/></svg>