<svg id="Content" xmlns="http://www.w3.org/2000/svg" xmlns:xlink="http://www.w3.org/1999/xlink" width="320" height="50" viewBox="0 0 320 50"><defs><style>.cls-1{fill:url(#New_Gradient_Swatch_1);}.cls-2{fill:url(#linear-gradient);}.cls-3{fill:url(#linear-gradient-2);}.cls-4{fill:url(#linear-gradient-3);}.cls-5{fill:url(#linear-gradient-4);}.cls-6{fill:url(#linear-gradient-5);}.cls-7{fill:url(#linear-gradient-6);}.cls-8{fill:url(#linear-gradient-7);}.cls-9{fill:url(#New_Gradient_Swatch_2);}.cls-10{fill:#a69055;}.cls-11{fill:url(#New_Gradient_Swatch_2-2);}.cls-12{fill:#fff;}</style><linearGradient id="New_Gradient_Swatch_1" x1="43.27825" y1="18.81688" x2="75.15588" y2="18.81688" gradientUnits="userSpaceOnUse"><stop offset="0" stop-color="#a68834"/><stop offset="0.49324" stop-color="#c8ad67"/><stop offset="1" stop-color="#937f2e"/></linearGradient><linearGradient id="linear-gradient" x1="75.6395" y1="87.64473" x2="75.6395" y2="34.17708" gradientUnits="userSpaceOnUse"><stop offset="0" stop-color="#a68834"/><stop offset="0.49894" stop-color="#c8ad67"/><stop offset="1" stop-color="#937f2e"/></linearGradient><linearGradient id="linear-gradient-2" x1="60.8287" y1="59.80981" x2="60.8287" y2="20.33086" xlink:href="#linear-gradient"/><linearGradient id="linear-gradient-3" x1="65.84522" y1="73.35026" x2="65.84522" y2="21.39608" xlink:href="#linear-gradient"/><linearGradient id="linear-gradient-4" x1="70.72856" y1="74.53388" x2="70.72856" y2="29.05716" xlink:href="#linear-gradient"/><linearGradient id="linear-gradient-5" x1="43.20623" y1="42.65198" x2="43.20623" y2="-1.28771" xlink:href="#linear-gradient"/><linearGradient id="linear-gradient-6" x1="54.88023" y1="53.7524" x2="54.88023" y2="14.50348" xlink:href="#linear-gradient"/><linearGradient id="linear-gradient-7" x1="48.9178" y1="47.89094" x2="48.9178" y2="8.41211" xlink:href="#linear-gradient"/><linearGradient id="New_Gradient_Swatch_2" x1="77.75289" y1="34.06844" x2="79.94893" y2="34.06844" gradientUnits="userSpaceOnUse"><stop offset="0" stop-color="#a68834"/><stop offset="0.1878" stop-color="#c8ad67"/><stop offset="0.46098" stop-color="#9e884a"/><stop offset="0.76341" stop-color="#c8ad67"/><stop offset="1" stop-color="#937f2e"/></linearGradient><linearGradient id="New_Gradient_Swatch_2-2" x1="215.24799" y1="34.20767" x2="371.15202" y2="12.17412" xlink:href="#New_Gradient_Swatch_2"/></defs><title>CTA1</title><path class="cls-1" d="M57.2792,29.50048c.34643-.10218.97482.48523,1.01566.48523a.74961.74961,0,0,0,.20949-.48377c0-.2074-.148-.6108-.17578-.85493a4.06656,4.06656,0,0,0-.14765-.70728c-.05405-.16073-.4297-.23079-.63127-.35517a3.29279,3.29279,0,0,1-.50863-.35213,1.609,1.609,0,0,1-.21625-.73793,2.90139,2.90139,0,0,0-.12133-.75117c-.07018-.13152-.25061-.22444-.37262-.34645a.52459.52459,0,0,1-.1257-.32291c.09358-.02922.1228.21188.23092.23238s.10084.10956.2703.168.17541.13891.19734.29675.21188.69114.27468.90885.12859.38159.34353.38885.18557.11831.43829.098a1.415,1.415,0,0,1,.60657.11682c.13588.04825.30692.05261.36533-.04228s-.041-.478-.041-.478c-.08763,0-.10233-.11828-.13588-.22787s.02047-.11843.02047-.11843a.46314.46314,0,1,1,.88271,0s.05405.00872.02047.11843-.04825.22787-.136.22787c0,0-.09928.38293-.04084.478s.22945.09053.36533.04228a1.41477,1.41477,0,0,1,.60644-.11682c.25285.02034.22364-.09068.43842-.098.21494-.00726.28063-.171.3434-.38885.06293-.21771.25286-.751.27481-.90885s.02776-.23834.19734-.29675.16218-.1475.2703-.168.13747-.2616.23092-.23238a.52548.52548,0,0,1-.1257.32291c-.122.122-.30243.21493-.37262.34645a2.90139,2.90139,0,0,0-.12133.75117,1.609,1.609,0,0,1-.21625.73793,3.29378,3.29378,0,0,1-.50863.35213c-.2017.12438-.57722.19444-.63127.35517a4.05082,4.05082,0,0,0-.14765.70728c-.02775.24413-.17578.64753-.17578.85493a.74961.74961,0,0,0,.20949.48377c.04084,0,.66936-.58741,1.01566-.48523.3463.10245.209.58753-.15055.94692a1.53965,1.53965,0,0,1-.74484.46448,4.03449,4.03449,0,0,1,.56548.10573,6.05335,6.05335,0,0,1,1.61519.92168,5.86851,5.86851,0,0,0,1.44022.84092,1.228,1.228,0,0,0,.13933.03055c.04944-.04139.30849-.19088.30849-.19088a5.798,5.798,0,0,0,.65086.27851l-1.65846-1.27883,3.28742,1.4311c.05405.02339.10838.04494.16245.06423l1.987.03542c.52158.00953,1.03669-.01334,1.51489-.05034-.38541-.23781-.80285-.4752-1.25027-.694l-1.74341-.85256c-.058-.00738-.11738-.013-.17765-.01651l-3.80026-.22827,2.46935-.42919-1.60081-.521,2.73965-.018a9.3,9.3,0,0,0,1.87034-.20568L66.19,29.64165l3.79484-.16852a3.72467,3.72467,0,0,0,.63526-.081l-.28815.03489,2.50451-1.17506a22.37939,22.37939,0,0,0,2.31945-1.275,24.475,24.475,0,0,0-2.71294-.16429l-2.84658.00648.31708-.10376a3.56626,3.56626,0,0,0-.67173.20724l-3.32085,1.38406,2.00965-1.49732-.01532.00252-.04588-.34527-.36521-.60233a12.0331,12.0331,0,0,0,2.73636-2.8249l-2.68494,1.28543,2.73569-2.27848a4.50579,4.50579,0,0,0,.86867-.94178c.35278-.53321.68032-1.0795.97906-1.63254l-.848.83736,1.01645-2.21108a29.20022,29.20022,0,0,0,1.50392-4.158,35.39408,35.39408,0,0,0-4.03009,2.5965l-1.99009,1.50816.63473-.9891c-.51483.43779-1.01262.89988-1.48767,1.38113a4.36051,4.36051,0,0,0-.73251,1.02651l-1.45358,2.78393.51629-2.541a12.01188,12.01188,0,0,0-1.15154,1.3773l-.25338.35343-.23223-.1594a.66046.66046,0,0,0-.03595.06041L61.5988,25.12421l1.17743-4.1151a13.06274,13.06274,0,0,0,.39057-5.16421l-1.3749,2.55528.66591-3.07394a5.00407,5.00407,0,0,0,.104-1.53393,24.76305,24.76305,0,0,0-.52831-3.10314L61.8523,12.198l-.59691-2.19968a37.42694,37.42694,0,0,0-2.03831-5.517,37.38922,37.38922,0,0,0-2.03834,5.517L56.582,12.198l-.18133-1.50879a24.7868,24.7868,0,0,0-.52831,3.10314,5.00679,5.00679,0,0,0,.104,1.534l.66513,3.07488L55.26733,15.8453a13.06077,13.06077,0,0,0,.39057,5.16381l1.17759,4.11535-1.9967-3.78636a.63422.63422,0,0,0-.03595-.06041l-.23223.1594-.25338-.35343a12.01381,12.01381,0,0,0-1.15154-1.3773l.51642,2.541L52.2284,19.46342a4.36307,4.36307,0,0,0-.73239-1.02651c-.47411-.48034-.97124-.94178-1.48554-1.379l.63616.98988-1.99377-1.51106a35.3776,35.3776,0,0,0-4.03009-2.5965,29.19511,29.19511,0,0,0,1.5039,4.158l1.01647,2.21108-.848-.83736c.29874.553.62641,1.09933.97919,1.63254a4.50142,4.50142,0,0,0,.86854.94178l2.73569,2.27848-2.68494-1.28543A12.03014,12.03014,0,0,0,50.93,25.86426l-.36521.60233-.04588.34527-.01545-.00252,2.0099,1.49744-3.321-1.38418a3.58676,3.58676,0,0,0-.67146-.20724l.317.10376-2.84673-.00648a24.477,24.477,0,0,0-2.71294.16429,22.37939,22.37939,0,0,0,2.31945,1.275l2.50451,1.17494-.288-.03489a3.70919,3.70919,0,0,0,.63513.08115l3.79481.16852-2.58934.49315a9.30067,9.30067,0,0,0,1.87032.20568l2.7469.018-1.60635.5213,2.46788.42892-3.80035.22827q-.09065.00534-.17781.01651l-1.74369.85256c-.44714.21875-.86456.45614-1.25.694.47835.037.99331.05972,1.51489.05034l1.987-.03542c.05405-.01929.10838-.04084.16258-.06423l3.28727-1.4311L53.455,32.89839a5.79725,5.79725,0,0,0,.65086-.27851s.2588.14924.30823.19073a1.2143,1.2143,0,0,0,.13944-.0304,5.86631,5.86631,0,0,0,1.44037-.84092,6.054,6.054,0,0,1,1.6152-.92168,4.03321,4.03321,0,0,1,.56547-.10573,1.53965,1.53965,0,0,1-.74484-.46448C57.07024,30.088,56.93277,29.60293,57.2792,29.50048Z"/><polygon class="cls-2" points="77.545 36.218 77.545 35.25 73.734 35.253 73.734 40.438 77.538 40.438 77.538 39.469 74.772 39.469 74.772 38.29 76.85 38.29 76.85 37.325 74.772 37.325 74.772 36.218 77.545 36.218"/><path class="cls-3" d="M60.31167,35.25l-2.075,5.18758H59.3432l.31129-.79543H62.0062l.31129.79543,1.10328-.00354-2.0715-5.184Zm-.242,3.35468.78858-1.97143.76767,1.97143Z"/><path class="cls-4" d="M67.28049,37.75737a2.57243,2.57243,0,0,0-1.19316-.43223,1.36747,1.36747,0,0,1-.79546-.3114.40476.40476,0,0,1,0-.5015q.17307-.2938.79546-.29382a1.19133,1.19133,0,0,1,.96847.41491l.69153-.69171a2.42007,2.42007,0,0,0-.74348-.51878A2.8953,2.8953,0,0,0,65.88323,35.25a2.07648,2.07648,0,0,0-1.21208.41674,1.2908,1.2908,0,0,0-.58965,1.105,1.14788,1.14788,0,0,0,.51869,1.0721,2.78766,2.78766,0,0,0,1.14135.38041q.69154.06921.86286.3631a.54808.54808,0,0,1,0,.58806q-.17112.29382-.86286.29382a1.643,1.643,0,0,1-1.17587-.48414l-.69182.69179a2.61775,2.61775,0,0,0,.83008.55332,3.07208,3.07208,0,0,0,1.207.20738,2.09491,2.09491,0,0,0,1.33316-.44954,1.32971,1.32971,0,0,0,.57246-1.07208A1.29844,1.29844,0,0,0,67.28049,37.75737Z"/><polygon class="cls-5" points="68.481 36.218 70.21 36.218 70.21 40.438 71.247 40.438 71.247 36.218 72.977 36.218 72.977 35.25 68.481 35.25 68.481 36.218"/><polygon class="cls-6" points="44.486 38.501 41.235 35.25 40.889 35.25 40.889 40.438 41.927 40.438 41.927 37.221 45.143 40.438 45.523 40.438 45.523 35.25 44.486 35.25 44.486 38.501"/><polygon class="cls-7" points="54.879 37.809 52.631 35.25 52.285 35.25 52.285 40.438 53.322 40.438 53.322 37.429 54.879 39.158 56.435 37.429 56.438 40.438 57.476 40.438 57.476 35.25 57.13 35.25 54.879 37.809"/><path class="cls-8" d="M48.4008,35.25l-2.07508,5.18758h1.10661l.31128-.79543h2.35171l.31142.79543,1.10313-.00354L49.43826,35.25Zm-.242,3.35468.78842-1.97143.76772,1.97143Z"/><path class="cls-9" d="M78.29025,33.68165v.94164h-.187v-.94164h-.35033v-.16806h.88924v.16806Zm1.48584.94164-.00154-.82908-.35033.71329h-.12211l-.35032-.71329v.82908h-.17594v-1.1097h.22189l.3662.73717.36465-.73717h.22034v1.1097Z"/><path class="cls-10" d="M49.61855,44.15767a.732.732,0,0,1-.41931,1.361L47.74883,45.517V42.941h1.36792q.65143.03793.6874.75785A.53952.53952,0,0,1,49.61855,44.15767Zm-1.35245-.18388h.72176a.29089.29089,0,0,0,.31964-.32136q-.00846-.18891-.31448-.19934H48.2661Zm0,1.14108h.84206a.33641.33641,0,0,0,.37119-.37291q-.00846-.24747-.366-.25778H48.2661Z"/><path class="cls-10" d="M50.34032,42.93926h.6049l.598.84206.61178-.84206h.59116L51.801,44.22813V45.517h-.51555V44.22813Z"/><path class="cls-10" d="M56.35159,45.517h-2.0639l.00171-.17185,1.20123-1.92471H54.2894l-.00171-.48118h2.0639v.189l-1.20638,1.90752h1.20638Z"/><path class="cls-10" d="M56.99922,45.517V42.941l1.89377-.00172v.48118H57.51476v.54992h1.03282v.47945H57.51476v.586h1.3748V45.517Z"/><path class="cls-10" d="M59.412,45.517V42.93926h.17185l1.61538,1.61538V42.93926h.51554V45.517h-.189l-1.5982-1.5982V45.517Z"/><path class="cls-10" d="M62.11344,45.517l1.0311-2.57774h.51554l1.02913,2.576-.548.00172-.15466-.39526H62.818l-.15466.39526Zm1.30262-1.89034-.39182.97954h.77332Z"/><path class="cls-10" d="M66.90459,44.15767a.73206.73206,0,0,1-.41931,1.361l-1.4504-.00171V42.941h1.36791q.65106.03793.6874.75785A.54085.54085,0,0,1,66.90459,44.15767Zm-1.35269-.18388h.72176a.29068.29068,0,0,0,.31964-.32136c-.0054-.12594-.11047-.19247-.31424-.19934H65.5519Zm0,1.14108H66.394a.33619.33619,0,0,0,.37119-.37291q-.0081-.24747-.36579-.25778H65.5519Z"/><path class="cls-10" d="M67.77759,42.93754h.51358V45.517h-.51358Z"/><path class="cls-10" d="M70.20409,43.02519a1.19648,1.19648,0,0,1,.36923.25777l-.3437.3437a.59157.59157,0,0,0-.48117-.20622q-.30933,0-.39526.14607a.202.202,0,0,0,0,.24918.67977.67977,0,0,0,.39526.15467,1.27875,1.27875,0,0,1,.59312.21481.646.646,0,0,1,.26612.57569.66114.66114,0,0,1-.28429.53273,1.04086,1.04086,0,0,1-.66235.22341,1.528,1.528,0,0,1-.6-.10311,1.30635,1.30635,0,0,1-.41244-.275l.3437-.3437a.81718.81718,0,0,0,.58429.24059q.34394,0,.42864-.14607a.27114.27114,0,0,0,0-.29215q-.0847-.14619-.42864-.18044a1.38485,1.38485,0,0,1-.5671-.189.57027.57027,0,0,1-.25778-.53273.64106.64106,0,0,1,.29313-.54894,1.03164,1.03164,0,0,1,.60245-.2072A1.442,1.442,0,0,1,70.20409,43.02519Z"/><rect class="cls-10" x="40.88904" y="44.19119" width="4.63436" height="0.5643"/><rect class="cls-10" x="72.9107" y="44.19119" width="4.63436" height="0.5643"/><polygon class="cls-11" points="324.117 13.825 240.43 13.825 233.157 24.734 240.43 35.645 324.117 35.645 324.117 13.825"/><path class="cls-12" d="M246.63916,26.2373a2.46957,2.46957,0,0,1,1.75635-4.228,2.67107,2.67107,0,0,1,1.81347.6582l-.6582.72119a1.8195,1.8195,0,0,0-1.15527-.395,1.40677,1.40677,0,0,0-1.478,1.46778,1.47872,1.47872,0,0,0,.41113,1.09277,1.45808,1.45808,0,0,0,1.07325.40527,1.76969,1.76969,0,0,0,1.14892-.39209l.6582.72119a2.6623,2.6623,0,0,1-1.81347.65821A2.40172,2.40172,0,0,1,246.63916,26.2373Z"/><path class="cls-12" d="M252.26953,22.00928V26.0249h2.6333v.92188h-3.62109v-4.9375Z"/><path class="cls-12" d="M255.71582,22.00586h.98438v4.94092h-.98438Z"/><path class="cls-12" d="M258.15674,26.2373a2.46957,2.46957,0,0,1,1.75635-4.228,2.67107,2.67107,0,0,1,1.81347.6582l-.6582.72119a1.8195,1.8195,0,0,0-1.15527-.395,1.40677,1.40677,0,0,0-1.478,1.46778,1.47872,1.47872,0,0,0,.41113,1.09277,1.45805,1.45805,0,0,0,1.07324.40527,1.7697,1.7697,0,0,0,1.14893-.39209l.6582.72119a2.6623,2.6623,0,0,1-1.81347.65821A2.4017,2.4017,0,0,1,258.15674,26.2373Z"/><path class="cls-12" d="M262.79932,22.00928h.98779v1.9751l1.64551-1.9751H266.542l-1.93213,2.3042,2.33741,2.6333h-1.28418l-1.876-2.13282v2.13282h-.98779Z"/><path class="cls-12" d="M273.876,22.00928v.92187H272.23v4.01563h-.9873V22.93115h-1.646v-.92187Z"/><path class="cls-12" d="M275.06738,26.2373a2.54274,2.54274,0,1,1,1.76123.70948A2.39135,2.39135,0,0,1,275.06738,26.2373Zm1.76465-.2124a1.38669,1.38669,0,0,0,1.06641-.44433,1.68392,1.68392,0,0,0,0-2.20508,1.51005,1.51005,0,0,0-2.13965,0,1.68241,1.68241,0,0,0,0,2.20508A1.39422,1.39422,0,0,0,276.832,26.0249Z"/><path class="cls-12" d="M282.32227,26.94678V22.0127l3.62744-.00342v.92187h-2.63965v1.05323h1.978v.91845h-1.978V26.0249h2.6333v.92188Z"/><path class="cls-12" d="M288.56982,24.376l-1.728-2.3667h1.15869l1.15234,1.57031,1.15186-1.57031h1.15869l-1.728,2.3667,1.88623,2.5708h-1.17187l-1.29688-1.77442L287.856,26.94678h-1.17188Z"/><path class="cls-12" d="M292.26318,26.94678v-4.9375H294.416q1.72851,0,1.728,1.42187,0,1.4751-1.72461,1.47461H293.251v2.041Zm.9878-2.9624h1.38232q.59545-.01026.61231-.54346-.01685-.48707-.60254-.50684H293.251Z"/><path class="cls-12" d="M296.61182,26.94678l1.97461-4.9375h.98779l1.97168,4.93408-1.05029.00342-.2959-.75733h-2.23828l-.29639.75733Zm2.49511-3.62061-.75048,1.876h1.481Z"/><path class="cls-12" d="M302.2832,26.94678v-4.9375h.3291l3.09424,3.09424V22.00928h.9878v4.9375H306.332l-3.061-3.061v3.061Z"/><path class="cls-12" d="M307.71777,26.94678V22.00586h1.90284q2.30419,0,2.30419,2.47217,0,2.469-2.30419,2.46875Zm1.90284-.98438q1.31322-.00292,1.3164-1.48437-.00292-1.481-1.3164-1.48145h-.915V25.9624Z"/></svg>