<svg id="Content" xmlns="http://www.w3.org/2000/svg" xmlns:xlink="http://www.w3.org/1999/xlink" width="320" height="568" viewBox="0 0 320 568"><defs><style>.cls-1{fill:url(#New_Gradient_Swatch_1);}.cls-2{fill:#fff;}.cls-3{fill:#ba9544;}</style><linearGradient id="New_Gradient_Swatch_1" x1="136.30632" y1="227.469" x2="183.74432" y2="227.469" gradientUnits="userSpaceOnUse"><stop offset="0" stop-color="#a88a34"/><stop offset="0.49324" stop-color="#caaf67"/><stop offset="1" stop-color="#957f2e"/></linearGradient></defs><title>diesel</title><polygon class="cls-1" points="177.348 211.5 157.57 203.909 139.306 214.639 136.306 235.609 150.832 251.029 171.943 249.288 183.744 231.694 177.348 211.5"/><path class="cls-2" d="M153.69254,221.81247a2.02439,2.02439,0,0,1,.38131-.15649,3.6651,3.6651,0,0,1,.42541-.108l.02425-.00881,4.16146-.91473a1.34679,1.34679,0,0,1,.88828.13665l.70092.6855-1.457,1.52528-4.64417,1.02053c-.18515-.83758-.37691-1.71044-.4805-2.17992m14.44169,11.60932-2.28573-10.397a1.55845,1.55845,0,0,0-1.73248-1.20567l1.22552-1.28723.33723.3196.50917-.54a.33075.33075,0,0,0-.01323-.4673l-2.46425-2.32759a.33074.33074,0,0,0-.46728.01323l-.50917.54.40557.38353-1.63549,1.71484-.81114-.7913-.05729-.04407a3.09923,3.09923,0,0,0-2.32982-.43864l-4.11737.90592a6.02423,6.02423,0,0,0-.72737.18735,2.4781,2.4781,0,0,0-1.33131.88828,1.43782,1.43782,0,0,0-.216,1.12192c.12784.57309.57307,2.60312.842,3.822.00441.02645.00882.05289.01544.07934l2.28571,10.39924a1.549,1.549,0,0,0,1.8515,1.177l10.03114-2.20637a1.5571,1.5571,0,0,0,1.19468-1.84709"/><path class="cls-3" d="M138.46582,275.99023V267.2666h3.35938q4.06787,0,4.06835,4.36524,0,4.3579-4.06835,4.35839Zm3.35938-1.7373q2.31884-.00587,2.32519-2.62109-.00587-2.61621-2.32519-2.61524H140.21v5.23633Z"/><path class="cls-3" d="M147.76465,267.2666h1.73828v8.72363h-1.73828Z"/><path class="cls-3" d="M151.22852,275.99023v-8.71191l6.40429-.00586v1.62695h-4.66113v1.86036h3.49316v1.62109h-3.49316v1.98242h4.64941v1.627Z"/><path class="cls-3" d="M164.10645,267.56348a4.05955,4.05955,0,0,1,1.25.87109l-1.16211,1.16309a2.00413,2.00413,0,0,0-1.62793-.69825q-1.04591,0-1.33594.49414a.6784.6784,0,0,0,0,.84278,2.29335,2.29335,0,0,0,1.33594.52344,4.32529,4.32529,0,0,1,2.00586.72656,2.183,2.183,0,0,1,.90039,1.94629,2.23247,2.23247,0,0,1-.96192,1.80176,3.52128,3.52128,0,0,1-2.24023.75585,5.16328,5.16328,0,0,1-2.02832-.34863,4.38723,4.38723,0,0,1-1.39453-.92969l1.16211-1.16308a2.76158,2.76158,0,0,0,1.97558.81445q1.16308,0,1.4502-.49414a.92226.92226,0,0,0,0-.98828q-.28712-.49365-1.4502-.61035a4.67916,4.67916,0,0,1-1.917-.63867,1.92835,1.92835,0,0,1-.87207-1.80176,2.16894,2.16894,0,0,1,.99121-1.85742,3.48738,3.48738,0,0,1,2.03613-.7002A4.85,4.85,0,0,1,164.10645,267.56348Z"/><path class="cls-3" d="M167.00684,275.99023v-8.71191l6.40429-.00586v1.62695H168.751v1.86036h3.49218v1.62109H168.751v1.98242h4.64941v1.627Z"/><path class="cls-3" d="M176.92773,267.27246v7.09082h4.64942v1.627h-6.39258v-8.71777Z"/></svg>