<?xml version="1.0" encoding="utf-8"?>
<!-- Generator: Adobe Illustrator 23.0.1, SVG Export Plug-In . SVG Version: 6.00 Build 0)  -->
<svg version="1.1" id="Layer_1" xmlns="http://www.w3.org/2000/svg" xmlns:xlink="http://www.w3.org/1999/xlink" x="0px" y="0px"
	 viewBox="0 0 970 250" enable-background="new 0 0 970 250" xml:space="preserve">
<g>
	<g>
		<polygon fill="#FFFFFF" stroke="#BA9544" stroke-width="0.5" stroke-miterlimit="10" points="611.83,99.89 379.22,99.01 
			367.48,115.94 379.22,132.57 611.83,132.18 622.39,116.03 		"/>
		<polygon fill="#BA9544" points="379.39,99.01 367.65,115.94 379.39,132.57 415.04,132.57 415.16,99.01 		"/>
	</g>
	<g>
		<path fill="#BA9544" d="M512.35,110.39v2.13h-3.79v9.26h-2.28v-9.26h-3.8v-2.13H512.35z"/>
		<path fill="#BA9544" d="M514.05,121.78v-11.39h2.28v4.56h5.31v-4.56h2.28v11.39l-2.28,0.01v-4.71h-5.31v4.71H514.05z"/>
		<path fill="#BA9544" d="M527.44,120.14c-1.09-1.09-1.64-2.45-1.64-4.08c0.01-1.6,0.55-2.94,1.64-4.04s2.44-1.64,4.05-1.64
			c1.63,0,3.02,0.51,4.18,1.52l-1.52,1.66c-0.77-0.61-1.66-0.91-2.66-0.91c-1.02,0-1.85,0.32-2.47,0.96
			c-0.63,0.63-0.94,1.44-0.94,2.43c0.01,1.06,0.32,1.9,0.95,2.52c0.63,0.62,1.45,0.93,2.48,0.93c1.02,0,1.9-0.3,2.65-0.9l1.52,1.66
			c-1.16,1.01-2.55,1.52-4.18,1.52C529.88,121.77,528.53,121.23,527.44,120.14z"/>
		<path fill="#BA9544" d="M538.23,114.52c0.2-0.21,0.47-0.31,0.82-0.31c0.36,0,0.65,0.1,0.85,0.31s0.3,0.46,0.3,0.76
			s-0.1,0.56-0.3,0.76c-0.2,0.2-0.48,0.3-0.83,0.3c-0.36,0-0.63-0.1-0.84-0.3c-0.2-0.2-0.3-0.46-0.3-0.76
			S538.03,114.72,538.23,114.52z M538.23,119.95c0.2-0.21,0.47-0.31,0.82-0.31c0.36,0,0.65,0.1,0.85,0.31s0.3,0.46,0.3,0.76
			s-0.1,0.56-0.3,0.76s-0.48,0.3-0.83,0.3c-0.36,0-0.63-0.1-0.84-0.3s-0.3-0.46-0.3-0.76S538.03,120.16,538.23,119.95z"/>
		<path fill="#BA9544" d="M550.35,110.39L550.35,110.39l2.27-0.01v11.4h-2.27v-8.35l-1.52,1.52l-1.52-1.52L550.35,110.39z"/>
		<path fill="#BA9544" d="M554.89,116.24c0-1.83,0.39-3.25,1.18-4.28c0.78-1.03,1.83-1.55,3.15-1.57c1.32,0.03,2.38,0.41,3.19,1.13
			l-1.14,1.52c-0.56-0.3-1.21-0.46-1.95-0.46c-0.66,0-1.18,0.21-1.57,0.65c-0.39,0.43-0.61,1.08-0.65,1.94
			c0.77-0.66,1.53-0.99,2.28-0.99c1.31,0,2.29,0.34,2.92,1.02s0.95,1.61,0.95,2.77c0,1.06-0.35,1.96-1.06,2.7
			c-0.71,0.73-1.72,1.1-3.04,1.1c-1.52-0.05-2.61-0.56-3.26-1.54C555.22,119.26,554.89,117.93,554.89,116.24z M557.4,117.99
			c0.05,1.06,0.66,1.61,1.82,1.65c1.16-0.04,1.77-0.55,1.82-1.51c-0.05-1.26-0.68-1.9-1.9-1.9
			C558.08,116.29,557.5,116.87,557.4,117.99z"/>
		<path fill="#BA9544" d="M565.29,118.73v-1.51H570v1.51H565.29z"/>
		<path fill="#BA9544" d="M576.07,110.39c1.11,0,2.03,0.28,2.74,0.84c0.71,0.56,1.07,1.39,1.07,2.5c0,1.32-0.5,2.52-1.51,3.61
			c-1.01,1.09-1.84,1.81-2.5,2.16h4.1v2.28h-7.68v-2.28c0.51,0,1.47-0.63,2.88-1.9s2.24-2.16,2.47-2.7
			c0.23-0.53,0.22-1.06-0.04-1.59c-0.25-0.53-0.86-0.8-1.82-0.8c-0.91,0-1.62,0.3-2.13,0.91l-1.52-1.52c0.51-0.51,1-0.89,1.48-1.14
			S574.91,110.39,576.07,110.39z"/>
		<path fill="#BA9544" d="M583.23,120.14c-0.76-1.09-1.14-2.44-1.14-4.06c0-1.62,0.38-2.97,1.14-4.06c0.76-1.09,1.77-1.63,3.04-1.63
			c1.27,0,2.29,0.54,3.04,1.63c0.76,1.09,1.13,2.44,1.13,4.06c0,1.62-0.38,2.97-1.13,4.06c-0.76,1.09-1.77,1.63-3.04,1.63
			C585,121.78,583.99,121.23,583.23,120.14z M586.27,119.65c0.5,0,0.94-0.34,1.32-1.02c0.38-0.68,0.57-1.53,0.57-2.54
			c0-1.01-0.19-1.86-0.57-2.54c-0.38-0.68-0.83-1.03-1.34-1.03c-0.5,0-0.94,0.34-1.32,1.03c-0.38,0.68-0.57,1.53-0.57,2.54
			c0,1.01,0.19,1.86,0.57,2.54C585.31,119.31,585.76,119.65,586.27,119.65z"/>
		<path fill="#BA9544" d="M593.15,115.2c-0.55-0.55-0.82-1.23-0.82-2.04s0.27-1.49,0.82-2.03c0.55-0.55,1.22-0.82,2.04-0.82
			c0.81,0,1.49,0.27,2.03,0.82c0.55,0.55,0.82,1.22,0.82,2.03s-0.27,1.49-0.82,2.04c-0.54,0.55-1.22,0.82-2.03,0.82
			C594.38,116.02,593.7,115.74,593.15,115.2z M595.16,114.67c0.43,0,0.77-0.14,1.04-0.43c0.27-0.29,0.4-0.65,0.4-1.08
			c0-0.43-0.13-0.79-0.4-1.07c-0.27-0.29-0.62-0.43-1.05-0.43c-0.42,0-0.76,0.14-1.03,0.43c-0.27,0.29-0.4,0.64-0.4,1.07
			c0,0.43,0.13,0.79,0.4,1.08C594.39,114.52,594.74,114.67,595.16,114.67z M594.55,121.78l6.45-11.39h1.85l-6.44,11.39H594.55z
			 M600.21,121.03c-0.54-0.54-0.81-1.21-0.81-2.02s0.27-1.48,0.81-2.02c0.54-0.54,1.21-0.81,2.02-0.81s1.48,0.27,2.02,0.81
			c0.54,0.54,0.81,1.21,0.81,2.02s-0.27,1.48-0.81,2.02c-0.54,0.54-1.21,0.81-2.02,0.81S600.75,121.57,600.21,121.03z
			 M602.19,120.47c0.41,0,0.75-0.14,1.02-0.42c0.26-0.28,0.4-0.63,0.4-1.05c0-0.42-0.13-0.76-0.4-1.04
			c-0.26-0.28-0.6-0.42-1.02-0.42c-0.41,0-0.75,0.14-1.01,0.42c-0.26,0.28-0.39,0.63-0.39,1.04c0,0.42,0.13,0.77,0.39,1.05
			C601.44,120.33,601.78,120.47,602.19,120.47z"/>
	</g>
</g>
<g>
</g>
<g>
</g>
<g>
</g>
<g>
</g>
<g>
</g>
<g>
</g>
<g>
</g>
<g>
</g>
<g>
</g>
<g>
</g>
<g>
</g>
<g>
</g>
<g>
</g>
<g>
</g>
<g>
</g>
</svg>
