<svg id="Content" xmlns="http://www.w3.org/2000/svg" xmlns:xlink="http://www.w3.org/1999/xlink" width="300" height="250" viewBox="0 0 300 250"><defs><style>.cls-1{fill:#ba9544;}</style></defs><title>Frame1 - Ultra Sour</title><path class="cls-1" d="M178.749,142.40634v14.04c0,1.2998.57227,1.76855,1.48145,1.76855.91015,0,1.48242-.46875,1.48242-1.76855v-14.04H184.418v13.8584c0,2.91211-1.457,4.57617-4.26465,4.57617s-4.26465-1.66406-4.26465-4.57617v-13.8584Z"/><path class="cls-1" d="M189.12305,142.40634h2.85937V158.006h4.707v2.60058h-7.5664Z"/><path class="cls-1" d="M195.752,142.40634h8.83985V145.006h-2.99024v15.60058h-2.85937V145.006H195.752Z"/><path class="cls-1" d="M213.76953,160.60653a5.61335,5.61335,0,0,1-.25976-2.23632v-2.86036c0-1.68945-.57227-2.31347-1.8711-2.31347h-.98828v7.41015H207.79V142.40634h4.31543c2.96484,0,4.23828,1.37793,4.23828,4.18555v1.42968c0,1.87305-.59766,3.09473-1.87109,3.69239,1.42968.59863,1.89843,1.97656,1.89843,3.874v2.80859a5.37441,5.37441,0,0,0,.31055,2.21ZM210.65039,145.006v5.58984h1.11719c1.0664,0,1.7168-.46777,1.7168-1.92383V146.878c0-1.29981-.44141-1.87207-1.45606-1.87207Z"/><path class="cls-1" d="M228.92773,160.60653H226.042l-.49316-3.30175h-3.51074l-.49414,3.30175h-2.626l2.91211-18.20019h4.18554Zm-6.52539-5.77246h2.75586l-1.3789-9.2041Z"/><path class="cls-1" d="M242.24023,142.19735c2.78125,0,4.21094,1.66407,4.21094,4.57618v.57226h-2.70312v-.7539c0-1.29981-.51953-1.79395-1.42969-1.79395s-1.43066.49414-1.43066,1.79395c0,3.74414,5.59082,4.44628,5.59082,9.64648,0,2.91211-1.457,4.57617-4.26465,4.57617s-4.26465-1.66406-4.26465-4.57617v-1.11816h2.70508V156.42c0,1.30078.57129,1.76855,1.48144,1.76855s1.48145-.46777,1.48145-1.76855c0-3.74414-5.58985-4.44531-5.58985-9.64648C238.02734,143.86142,239.457,142.19735,242.24023,142.19735Z"/><path class="cls-1" d="M249.36328,146.77353c0-2.91211,1.5332-4.57618,4.3418-4.57618s4.3418,1.66407,4.3418,4.57618v9.46484c0,2.91211-1.53321,4.57617-4.3418,4.57617s-4.3418-1.66406-4.3418-4.57617Zm2.85938,9.64648c0,1.30078.57226,1.79492,1.48242,1.79492s1.48242-.49414,1.48242-1.79492v-9.82812c0-1.29981-.57227-1.79395-1.48242-1.79395s-1.48242.49414-1.48242,1.79395Z"/><path class="cls-1" d="M264.28711,142.40634v14.04c0,1.2998.57227,1.76855,1.48242,1.76855s1.48242-.46875,1.48242-1.76855v-14.04h2.70313v13.8584c0,2.91211-1.45508,4.57617-4.26367,4.57617s-4.26368-1.66406-4.26368-4.57617v-13.8584Z"/><path class="cls-1" d="M280.64062,160.60653a5.59408,5.59408,0,0,1-.25976-2.23632v-2.86036c0-1.68945-.57227-2.31347-1.87207-2.31347h-.98731v7.41015h-2.86132V142.40634h4.3164c2.96485,0,4.23828,1.37793,4.23828,4.18555v1.42968c0,1.87305-.59765,3.09473-1.87207,3.69239,1.43067.59863,1.89746,1.97656,1.89746,3.874v2.80859a5.3735,5.3735,0,0,0,.3125,2.21ZM277.52148,145.006v5.58984h1.11719c1.06641,0,1.7168-.46777,1.7168-1.92383V146.878c0-1.29981-.44336-1.87207-1.457-1.87207Z"/><image width="1500" height="1429" transform="translate(288.96119 -219.49492) scale(0.16637)" xlink:href="../../../../../Dropbox%20(Revolution%20Strategy)/Rocio%20Ugarte/Clients/Namaste/Digital%20Ads/_Flight%202:Phase%202%20Terpene/1.%20Animated%20w:%20Packaging/5.%20Big%20Box%20300%20x%20250/300%20x%20250_Folder/Links/LargeTopDown-8220-MKUltra.png"/><image width="1500" height="1429" transform="translate(288.96119 54.16968) scale(0.16637)" xlink:href="../../../../../Dropbox%20(Revolution%20Strategy)/Rocio%20Ugarte/Clients/Namaste/Digital%20Ads/_Flight%202:Phase%202%20Terpene/1.%20Animated%20w:%20Packaging/5.%20Big%20Box%20300%20x%20250/300%20x%20250_Folder/Links/LargeTopDown-8145-UltraSour.png"/></svg>