<svg id="Content" xmlns="http://www.w3.org/2000/svg" xmlns:xlink="http://www.w3.org/1999/xlink" viewBox="0 0 640 1136"><defs><style>.cls-1{fill:#ba9544;}.cls-2{fill:#fff;stroke:#ba9544;stroke-miterlimit:10;stroke-width:0.96px;}.cls-3{clip-path:url(#clip-path);}</style><clipPath id="clip-path"><polygon class="cls-1" points="127.94 795.53 145.91 820.98 146.26 821.01 146.26 769.63 145.91 769.62 127.94 795.53"/></clipPath></defs><title>CBD - Shishkaberry</title><polygon class="cls-2" points="501.4 770.91 145.52 769.56 127.55 795.47 145.52 820.92 501.4 820.31 517.57 795.61 501.4 770.91"/><polygon class="cls-1" points="127.94 795.53 145.91 820.98 146.26 821.01 146.26 769.63 145.91 769.62 127.94 795.53"/><g class="cls-3"><rect class="cls-1" x="123.97" y="765.65" width="26.26" height="59.33"/></g><path class="cls-1" d="M336.64,804a8.71,8.71,0,0,1,6.19-14.92,9.46,9.46,0,0,1,6.4,2.32L346.91,794a6.41,6.41,0,0,0-4.08-1.4,5.13,5.13,0,0,0-3.78,1.47,5.07,5.07,0,0,0-1.43,3.71,5,5,0,0,0,5.24,5.29,6.25,6.25,0,0,0,4.05-1.38l2.32,2.54a9.37,9.37,0,0,1-6.4,2.32A8.42,8.42,0,0,1,336.64,804Z"/><path class="cls-1" d="M365.36,797.34a5,5,0,0,1,2.42,4c-.15,3.28-1.91,5-5.26,5.22l-9.8,0V789.11H362q4.41.25,4.65,5.12C366.56,795.78,366.14,796.82,365.36,797.34Zm-9.15-1.25h4.88a2,2,0,0,0,2.16-2.17c0-.85-.74-1.3-2.12-1.35h-4.92Zm0,7.72h5.7a2.28,2.28,0,0,0,2.51-2.52c0-1.12-.87-1.7-2.48-1.75h-5.73Z"/><path class="cls-1" d="M371.26,806.52V789.09H378q8.13,0,8.13,8.72T378,806.52Zm6.71-3.47c3.09,0,4.64-1.75,4.65-5.24s-1.56-5.22-4.65-5.22h-3.23v10.46Z"/><path class="cls-1" d="M390,795.41a1.71,1.71,0,0,1,1.26-.47,1.75,1.75,0,0,1,1.3.47,1.61,1.61,0,0,1,.46,1.17,1.56,1.56,0,0,1-.46,1.16,2,2,0,0,1-2.56,0,1.56,1.56,0,0,1-.46-1.16A1.61,1.61,0,0,1,390,795.41Zm0,8.32a1.71,1.71,0,0,1,1.26-.47,1.75,1.75,0,0,1,1.3.47,1.71,1.71,0,0,1,0,2.33,2,2,0,0,1-2.56,0,1.71,1.71,0,0,1,0-2.33Z"/><path class="cls-1" d="M414.92,794.09l-6.74,3.72,6.74,3.72v2.67l-11-6.05v-.76l11-6Z"/><path class="cls-1" d="M430,789.1h3.47v17.43H430V793.75l-2.32,2.32-2.33-2.32Z"/></svg>