<svg id="Layer_1" data-name="Layer 1" xmlns="http://www.w3.org/2000/svg" width="300" height="250" viewBox="0 0 300 250"><defs><style>.cls-1{fill:#ab9555;}</style></defs><title>frame3</title><path class="cls-1" d="M59.13029,161.12915V132.247h6.507a8.29909,8.29909,0,0,1,4.65535,1.36176,6.339,6.339,0,0,1,2.53352,3.5637,10.15577,10.15577,0,0,1,.4117,3.07,6.83169,6.83169,0,0,1-1.535,4.6572,4.57478,4.57478,0,0,1-1.52011,1.12332,5.07137,5.07137,0,0,1,2.45341,2.18516,8.28554,8.28554,0,0,1,.99851,2.85021,11.819,11.819,0,0,1,.15834,2.01192,9.69918,9.69918,0,0,1-1.03017,4.65348,6.68013,6.68013,0,0,1-5.57374,3.40535Zm4.687-17.08636h1.82a2.67431,2.67431,0,0,0,2.72354-1.97838,5.677,5.677,0,0,0,.25335-1.8219,3.8263,3.8263,0,0,0-.87-2.72354,2.764,2.764,0,0,0-2.10692-.8532h-1.82Zm0,12.77937h1.82a3.09594,3.09594,0,0,0,3.0719-2.28016,4.91576,4.91576,0,0,0,.30178-1.78837,5.42933,5.42933,0,0,0-.93516-3.532,2.95361,2.95361,0,0,0-2.43852-1.01341h-1.82Z"/><path class="cls-1" d="M87.4708,132.247q3.6438,0,5.33716,2.01191a7.26332,7.26332,0,0,1,1.50334,4.877v4.19521a6.72325,6.72325,0,0,1-2.323,5.17881l3.22651,12.61917H90.51847l-2.65647-10.909c-.12667.00931-.25894.0149-.39493.0149H84.969v10.89414H80.61539V132.247Zm2.59686,6.96718A2.20824,2.20824,0,0,0,87.59,136.69558H84.969V145.928H87.59a2.367,2.367,0,0,0,1.76043-.73584,2.44171,2.44171,0,0,0,.71721-1.766Z"/><path class="cls-1" d="M103.38843,161.12915V132.247h12.39935v4.35542h-8.04393v7.91725h5.87367v4.35355h-5.87367v7.90049h8.04393v4.35542Z"/><path class="cls-1" d="M130.20649,154.49356l-1.06,6.63559h-4.52867l4.89193-28.88213H135.512l4.82859,28.88213h-4.56033l-1.02831-6.63559Zm2.28017-15.62772-1.61512,11.38407h3.23024Z"/><path class="cls-1" d="M150.40573,136.60244h-4.62368V132.247h13.586v4.35542h-4.60691v24.52671h-4.35542Z"/><path class="cls-1" d="M170.2608,148.90491v12.22424h-4.35542V132.247h4.35542v12.27267h5.22352V132.247h4.35542v28.88213h-4.35542V148.90491Z"/><path class="cls-1" d="M188.20525,161.12915V132.247h12.39749v4.35542h-8.04393v7.91725h5.87367v4.35355h-5.87367v7.90049h8.04393v4.35542Z"/><path class="cls-1" d="M221.2167,161.12915h-4.35356V132.247h4.35356Z"/><path class="cls-1" d="M233.04275,132.247l5.76376,19.39633V132.247h4.35542v28.88213h-4.66466l-5.99289-18.4947v18.4947h-4.35356V132.247Z"/><path class="cls-1" d="M250.59041,156.79049H254.944v4.35356h-4.35355Z"/></svg>