<svg id="Layer_1" data-name="Layer 1" xmlns="http://www.w3.org/2000/svg" width="970" height="250" viewBox="0 0 970 250"><defs><style>.cls-1{fill:#ab9555;}</style></defs><title>frame1</title><path class="cls-1" d="M242.60889,160.69922a5.09223,5.09223,0,0,1-5.11377-5.09668V143.94336a5.10525,5.10525,0,1,1,10.21045,0v2.4375h-3.34131V143.876a1.863,1.863,0,0,0-1.85791-1.8584,1.759,1.759,0,0,0-1.30371.5459,1.80281,1.80281,0,0,0-.53711,1.3125v11.69238a1.83386,1.83386,0,0,0,1.84082,1.8418,1.80555,1.80555,0,0,0,1.3125-.53711,1.76255,1.76255,0,0,0,.54541-1.30469v-2.94824h3.34131v2.98242a5.09128,5.09128,0,0,1-5.09668,5.09668Z"/><path class="cls-1" d="M256.563,155.51758l-.78272,4.90918h-3.35449l3.63086-21.3584h4.43164l3.5791,21.3584h-3.3872l-.75342-4.90918Zm1.69238-11.55664-1.19336,8.41992h2.38672Z"/><path class="cls-1" d="M273.27441,139.05176,277.5498,153.417V139.05176h3.22168v21.375H277.311l-4.43165-13.6875v13.6875h-3.22168v-21.375Z"/><path class="cls-1" d="M290.14893,139.05176l4.27539,14.36523V139.05176H297.646v21.375h-3.46045l-4.43164-13.6875v13.6875h-3.22168v-21.375Z"/><path class="cls-1" d="M307.35547,155.51758l-.78272,4.90918h-3.35449l3.63086-21.3584h4.43164l3.5791,21.3584h-3.3872l-.75342-4.90918Zm1.69238-11.55664-1.19336,8.41992h2.38672Z"/><path class="cls-1" d="M320.4502,160.42676v-21.375h4.82373a6.14019,6.14019,0,0,1,3.44336,1.00586,4.67893,4.67893,0,0,1,1.875,2.6416,7.44673,7.44673,0,0,1,.30664,2.26758,5.01993,5.01993,0,0,1-1.14209,3.44336,3.23711,3.23711,0,0,1-1.125.835,3.74324,3.74324,0,0,1,1.82421,1.61914,6.31187,6.31187,0,0,1,.73291,2.11328,8.47552,8.47552,0,0,1,.11915,1.4834,7.1345,7.1345,0,0,1-.76709,3.44336,4.93943,4.93943,0,0,1-4.125,2.52246Zm3.47753-12.64746h1.3462a1.97383,1.97383,0,0,0,2.01171-1.46582,4.19758,4.19758,0,0,0,.1875-1.34668,2.81815,2.81815,0,0,0-.64794-2.01172,2.041,2.041,0,0,0-1.55127-.63086h-1.3462Zm0,9.46h1.3462a2.28558,2.28558,0,0,0,2.26709-1.6875,3.70678,3.70678,0,0,0,.22168-1.3291,4.05376,4.05376,0,0,0-.68165-2.6084,2.19922,2.19922,0,0,0-1.80712-.75h-1.3462Z"/><path class="cls-1" d="M340.20459,160.42676h-3.22168v-21.3584h3.22168Z"/><path class="cls-1" d="M356.43164,155.1084a6.00523,6.00523,0,0,1-1.15918,3.81836,4.17036,4.17036,0,0,1-2.21582,1.5166,6.0359,6.0359,0,0,1-1.78955.23926,5.06477,5.06477,0,0,1-3.13623-.9375,5.24234,5.24234,0,0,1-1.645-2.08789,8.42351,8.42351,0,0,1-.70752-3.02637l3.06836-.2207a4.66388,4.66388,0,0,0,.98828,2.707,1.65186,1.65186,0,0,0,1.32959.59961,1.9984,1.9984,0,0,0,1.6875-1.041,2.58593,2.58593,0,0,0,.32422-1.416,3.93422,3.93422,0,0,0-1.21045-2.64454q-.95508-.9038-2.86377-2.71289a12.23771,12.23771,0,0,1-2.26709-2.78027,6.43723,6.43723,0,0,1-.71582-3.00293,5.22154,5.22154,0,0,1,1.96045-4.41894,4.87229,4.87229,0,0,1,3-.9043,5.45028,5.45028,0,0,1,2.94873.76758,4.42916,4.42916,0,0,1,1.54248,1.66992,6.18306,6.18306,0,0,1,.70752,2.47168l-3.085.5625a3.72206,3.72206,0,0,0-.75-2.04492,1.57606,1.57606,0,0,0-1.27881-.5293,1.47231,1.47231,0,0,0-1.34619.78418,3.02016,3.02016,0,0,0-.375,1.56836,4.70479,4.70479,0,0,0,1.26123,2.9834,10.66712,10.66712,0,0,0,1.43164,1.36328q1.125.9375,1.48291,1.3125a10.94419,10.94419,0,0,1,1.84082,2.35254,9.00169,9.00169,0,0,1,.49463,1.00586A5.85443,5.85443,0,0,1,356.43164,155.1084Z"/><path class="cls-1" d="M377.15576,151.376v9.05078h-3.2207v-21.3584h3.2207v9.06836h3.88672v-9.06836h3.22168v21.3584h-3.22168V151.376Z"/><path class="cls-1" d="M393.97412,155.51758l-.78223,4.90918H389.8374l3.63086-21.3584h4.43164l3.5791,21.3584h-3.38769l-.75391-4.90918Zm1.69238-11.55664-1.19336,8.41992h2.38672Z"/><path class="cls-1" d="M416.75146,155.1084a6.011,6.011,0,0,1-1.15917,3.81836,4.176,4.176,0,0,1-2.21583,1.5166,6.04149,6.04149,0,0,1-1.79.23926,5.06724,5.06724,0,0,1-3.13672-.9375,5.24133,5.24133,0,0,1-1.64453-2.08789,8.41345,8.41345,0,0,1-.707-3.02637l3.06739-.2207a4.66045,4.66045,0,0,0,.98926,2.707,1.6503,1.6503,0,0,0,1.3291.59961,1.99719,1.99719,0,0,0,1.6875-1.041,2.58593,2.58593,0,0,0,.32422-1.416,3.93342,3.93342,0,0,0-1.21-2.64454q-.95506-.9038-2.86425-2.71289a12.21987,12.21987,0,0,1-2.2666-2.78027,6.4313,6.4313,0,0,1-.71583-3.00293,5.22252,5.22252,0,0,1,1.96-4.41894,4.87229,4.87229,0,0,1,3-.9043,5.452,5.452,0,0,1,2.94921.76758,4.428,4.428,0,0,1,1.542,1.66992,6.18333,6.18333,0,0,1,.708,2.47168l-3.08593.5625a3.71455,3.71455,0,0,0-.75-2.04492,1.57372,1.57372,0,0,0-1.27832-.5293,1.473,1.473,0,0,0-1.34668.78418,3.02491,3.02491,0,0,0-.375,1.56836,4.70826,4.70826,0,0,0,1.26172,2.9834,10.66712,10.66712,0,0,0,1.43164,1.36328q1.125.9375,1.48339,1.3125a10.99058,10.99058,0,0,1,1.84083,2.35254,8.99179,8.99179,0,0,1,.49414,1.00586A5.86691,5.86691,0,0,1,416.75146,155.1084Z"/><path class="cls-1" d="M433.7749,160.42676v-21.375h4.82324a6.14017,6.14017,0,0,1,3.44336,1.00586,4.67893,4.67893,0,0,1,1.875,2.6416,7.46166,7.46166,0,0,1,.30664,2.26758,5.022,5.022,0,0,1-1.1416,3.44336,3.246,3.246,0,0,1-1.125.835,3.74141,3.74141,0,0,1,1.82325,1.61914,6.29072,6.29072,0,0,1,.73339,2.11328,8.47558,8.47558,0,0,1,.11914,1.4834,7.14563,7.14563,0,0,1-.7666,3.44336,4.93943,4.93943,0,0,1-4.125,2.52246Zm3.47656-12.64746h1.34668a1.97348,1.97348,0,0,0,2.01172-1.46582,4.18423,4.18423,0,0,0,.1875-1.34668,2.818,2.818,0,0,0-.64746-2.01172,2.04206,2.04206,0,0,0-1.55176-.63086h-1.34668Zm0,9.46h1.34668a2.28691,2.28691,0,0,0,2.26758-1.6875,3.70678,3.70678,0,0,0,.22168-1.3291,4.04763,4.04763,0,0,0-.68261-2.6084,2.19761,2.19761,0,0,0-1.80665-.75h-1.34668Z"/><path class="cls-1" d="M450.29053,160.42676v-21.375h9.16992V142.29h-5.94922v5.83008h4.34668v3.23828h-4.34668v5.83008h5.94922v3.23828Z"/><path class="cls-1" d="M464.55811,160.42676v-21.375H473.728V142.29h-5.94922v5.83008h4.34668v3.23828h-4.34668v5.83008H473.728v3.23828Z"/><path class="cls-1" d="M482.44092,139.05176,486.7168,153.417V139.05176h3.22168v21.375h-3.46l-4.43311-13.6875v13.6875h-3.2207v-21.375Z"/><path class="cls-1" d="M515.417,160.665a5.06155,5.06155,0,0,1-5.0957-5.0791V139.06836h3.15332v16.4834a1.76024,1.76024,0,0,0,.54492,1.30371,1.80246,1.80246,0,0,0,1.3125.53711,1.83385,1.83385,0,0,0,1.84082-1.84082v-16.4834h3.3584v16.51758a4.852,4.852,0,0,1-1.5,3.61328A4.9837,4.9837,0,0,1,515.417,160.665Z"/><path class="cls-1" d="M536.72363,155.1084a6.011,6.011,0,0,1-1.15918,3.81836,4.176,4.176,0,0,1-2.21582,1.5166,6.04161,6.04161,0,0,1-1.79.23926,5.06721,5.06721,0,0,1-3.13671-.9375,5.24135,5.24135,0,0,1-1.64454-2.08789,8.41345,8.41345,0,0,1-.707-3.02637l3.06739-.2207a4.66045,4.66045,0,0,0,.98925,2.707,1.65031,1.65031,0,0,0,1.3291.59961,1.99716,1.99716,0,0,0,1.6875-1.041,2.58584,2.58584,0,0,0,.32422-1.416,3.93345,3.93345,0,0,0-1.21-2.64454q-.95508-.9038-2.86426-2.71289a12.22042,12.22042,0,0,1-2.2666-2.78027,6.43129,6.43129,0,0,1-.71582-3.00293,5.22251,5.22251,0,0,1,1.96-4.41894,4.87229,4.87229,0,0,1,3-.9043,5.452,5.452,0,0,1,2.94922.76758,4.428,4.428,0,0,1,1.542,1.66992,6.18334,6.18334,0,0,1,.708,2.47168l-3.08593.5625a3.71471,3.71471,0,0,0-.75-2.04492,1.57374,1.57374,0,0,0-1.27833-.5293,1.473,1.473,0,0,0-1.34667.78418,3.02491,3.02491,0,0,0-.375,1.56836,4.70824,4.70824,0,0,0,1.26171,2.9834,10.66773,10.66773,0,0,0,1.43164,1.36328q1.125.9375,1.4834,1.3125a10.99051,10.99051,0,0,1,1.84082,2.35254,8.99179,8.99179,0,0,1,.49414,1.00586A5.86717,5.86717,0,0,1,536.72363,155.1084Z"/><path class="cls-1" d="M542.2793,160.42676v-21.375h9.16992V142.29H545.5v5.83008h4.34668v3.23828H545.5v5.83008h5.94922v3.23828Z"/><path class="cls-1" d="M566.67188,155.31348a4.95492,4.95492,0,0,1-1.4834,3.61328,4.84882,4.84882,0,0,1-3.5791,1.5h-5.0625v-21.375h5.0625a4.84349,4.84349,0,0,1,3.58789,1.5,4.95152,4.95152,0,0,1,1.47461,3.59668Zm-6.9043,1.92578h1.94336a1.72212,1.72212,0,0,0,1.2959-.55371,1.82992,1.82992,0,0,0,.52832-1.30469V144.19922a1.804,1.804,0,0,0-.53711-1.3125,1.74233,1.74233,0,0,0-1.28711-.54492h-1.94336Z"/><path class="cls-1" d="M593.57227,155.1084a6.01106,6.01106,0,0,1-1.15918,3.81836,4.176,4.176,0,0,1-2.21582,1.5166,6.04161,6.04161,0,0,1-1.79.23926,5.06724,5.06724,0,0,1-3.13672-.9375,5.24133,5.24133,0,0,1-1.64453-2.08789,8.41324,8.41324,0,0,1-.707-3.02637l3.06738-.2207a4.66045,4.66045,0,0,0,.98926,2.707,1.6503,1.6503,0,0,0,1.3291.59961,1.99716,1.99716,0,0,0,1.6875-1.041,2.58593,2.58593,0,0,0,.32422-1.416,3.93345,3.93345,0,0,0-1.21-2.64454q-.95508-.9038-2.86426-2.71289a12.22014,12.22014,0,0,1-2.2666-2.78027,6.43129,6.43129,0,0,1-.71582-3.00293,5.22251,5.22251,0,0,1,1.96-4.41894,4.87229,4.87229,0,0,1,3-.9043,5.452,5.452,0,0,1,2.94922.76758,4.428,4.428,0,0,1,1.542,1.66992,6.18334,6.18334,0,0,1,.708,2.47168l-3.08594.5625a3.71455,3.71455,0,0,0-.75-2.04492,1.57372,1.57372,0,0,0-1.27832-.5293,1.473,1.473,0,0,0-1.34668.78418,3.02491,3.02491,0,0,0-.375,1.56836,4.70826,4.70826,0,0,0,1.26172,2.9834,10.66712,10.66712,0,0,0,1.43164,1.36328q1.125.9375,1.4834,1.3125a10.99082,10.99082,0,0,1,1.84082,2.35254,8.99179,8.99179,0,0,1,.49414,1.00586A5.86717,5.86717,0,0,1,593.57227,155.1084Z"/><path class="cls-1" d="M604.207,139.06836a4.9093,4.9093,0,0,1,3.75,1.4834,5.14483,5.14483,0,0,1,1.2959,3.61328v3.10254a4.96843,4.96843,0,0,1-1.47461,3.61328,4.82022,4.82022,0,0,1-3.57129,1.5h-1.8584v8.0459h-3.2207v-21.3584Zm1.92578,5.14844a1.83525,1.83525,0,0,0-.50293-1.34668,1.79188,1.79188,0,0,0-1.33789-.51172h-1.94336v6.835H604.292a1.764,1.764,0,0,0,1.30469-.54492,1.80385,1.80385,0,0,0,.53613-1.3125Z"/><path class="cls-1" d="M617.92676,160.42676h-3.22071v-21.3584h3.22071Z"/><path class="cls-1" d="M628.76758,139.06836a4.913,4.913,0,0,1,3.9541,1.4834,5.385,5.385,0,0,1,1.1084,3.61328v3.10254a4.98986,4.98986,0,0,1-1.72168,3.835l2.38574,9.32422h-3.4834l-1.95312-8.0459h-2.14844v8.0459h-3.2207v-21.3584Zm1.92578,5.14844a1.635,1.635,0,0,0-1.84082-1.8584h-1.94336v6.835h1.94336a1.764,1.764,0,0,0,1.30469-.54492,1.80385,1.80385,0,0,0,.53613-1.3125Z"/><path class="cls-1" d="M643.35645,160.42676h-3.22071v-21.3584h3.22071Z"/><path class="cls-1" d="M652.25488,142.30762H648.8291v-3.23926h10.05664v3.23926h-3.40918v18.11914h-3.22168Z"/><path class="cls-1" d="M669.43555,160.665a5.06157,5.06157,0,0,1-5.09571-5.0791V139.06836h3.15332v16.4834a1.76021,1.76021,0,0,0,.54493,1.30371,1.80244,1.80244,0,0,0,1.3125.53711,1.83385,1.83385,0,0,0,1.84082-1.84082v-16.4834h3.35839v16.51758a4.852,4.852,0,0,1-1.5,3.61328A4.98368,4.98368,0,0,1,669.43555,160.665Z"/><path class="cls-1" d="M683.78223,155.51758,683,160.42676h-3.35449l3.63086-21.3584H687.708l3.5791,21.3584h-3.3877l-.7539-4.90918Zm1.69238-11.55664-1.19336,8.41992H686.668Z"/><path class="cls-1" d="M705.65527,160.42676H696.877v-21.3584h3.22071v18.1543h5.55761Z"/><path class="cls-1" d="M719.5293,160.42676H710.751v-21.3584h3.2207v18.1543h5.55762Z"/><path class="cls-1" d="M724.94824,151.47754l-4.3125-12.42578h3.54492l2.38672,7.6709,2.36914-7.6709h3.5625L728.169,151.47754v8.94922h-3.22071Z"/></svg>