<svg id="Layer_1" data-name="Layer 1" xmlns="http://www.w3.org/2000/svg" width="970" height="250" viewBox="0 0 970 250"><defs><style>.cls-1{fill:#ab9555;}</style></defs><title>frame2</title><path class="cls-1" d="M362.01172,155.10781a6.00523,6.00523,0,0,1-1.15918,3.81836,4.17036,4.17036,0,0,1-2.21582,1.5166,6.0359,6.0359,0,0,1-1.78955.23926,5.06477,5.06477,0,0,1-3.13623-.9375,5.24234,5.24234,0,0,1-1.645-2.08789,8.42351,8.42351,0,0,1-.70752-3.02637l3.06836-.2207a4.66385,4.66385,0,0,0,.98828,2.707,1.65183,1.65183,0,0,0,1.32959.59961,1.99839,1.99839,0,0,0,1.6875-1.041,2.586,2.586,0,0,0,.32422-1.416,3.9342,3.9342,0,0,0-1.21045-2.64453q-.95508-.90381-2.86377-2.71289a12.23771,12.23771,0,0,1-2.26709-2.78027,6.43729,6.43729,0,0,1-.71582-3.00293,5.22156,5.22156,0,0,1,1.96045-4.41895,4.87229,4.87229,0,0,1,3-.9043,5.45028,5.45028,0,0,1,2.94873.76758,4.42916,4.42916,0,0,1,1.54248,1.66992,6.18306,6.18306,0,0,1,.70752,2.47168l-3.085.5625a3.72206,3.72206,0,0,0-.75-2.04492,1.57606,1.57606,0,0,0-1.27881-.5293,1.47231,1.47231,0,0,0-1.34619.78418,3.02016,3.02016,0,0,0-.375,1.56836,4.70479,4.70479,0,0,0,1.26123,2.9834,10.66712,10.66712,0,0,0,1.43164,1.36328q1.125.9375,1.48291,1.3125A10.94419,10.94419,0,0,1,361.04,152.057a9.00169,9.00169,0,0,1,.49463,1.00586A5.85443,5.85443,0,0,1,362.01172,155.10781Z"/><path class="cls-1" d="M370.78857,160.42617h-3.2207v-21.3584h3.2207Z"/><path class="cls-1" d="M380.1665,139.05117l4.27539,14.36524V139.05117h3.22168v21.375h-3.46l-4.43261-13.6875v13.6875h-3.22071v-21.375Z"/><path class="cls-1" d="M398.48584,160.69863a5.09139,5.09139,0,0,1-5.11328-5.09668V143.94277a5.105,5.105,0,1,1,10.21,0v2.4375H400.2417v-2.50488a1.86385,1.86385,0,0,0-1.8584-1.8584,1.759,1.759,0,0,0-1.30371.5459,1.80087,1.80087,0,0,0-.53711,1.3125v11.69238a1.83386,1.83386,0,0,0,1.84082,1.8418,1.80475,1.80475,0,0,0,1.3125-.53711,1.76485,1.76485,0,0,0,.5459-1.30469v-2.94824h3.34082v2.98242a5.09128,5.09128,0,0,1-5.09668,5.09668Z"/><path class="cls-1" d="M409.104,160.42617v-21.375h9.16993v3.23828h-5.94922v5.83008h4.34668v3.23828h-4.34668v5.83008h5.94922v3.23828Z"/><path class="cls-1" d="M437.69971,155.517l-.78223,4.90918H433.563l3.63086-21.3584h4.43164l3.5791,21.3584h-3.3877l-.7539-4.90918Zm1.69238-11.55664-1.19336,8.41992h2.38672Z"/><path class="cls-1" d="M454.41064,139.05117l4.2754,14.36524V139.05117h3.22167v21.375h-3.46l-4.43261-13.6875v13.6875h-3.22071v-21.375Z"/><path class="cls-1" d="M472.73,160.69863a5.09139,5.09139,0,0,1-5.11328-5.09668V143.94277a5.105,5.105,0,1,1,10.21,0v2.4375h-3.34082v-2.50488a1.86385,1.86385,0,0,0-1.8584-1.8584,1.759,1.759,0,0,0-1.30371.5459,1.80087,1.80087,0,0,0-.53711,1.3125v11.69238a1.83386,1.83386,0,0,0,1.84082,1.8418,1.80475,1.80475,0,0,0,1.3125-.53711,1.76485,1.76485,0,0,0,.5459-1.30469v-2.94824h3.34082v2.98242a5.09128,5.09128,0,0,1-5.09668,5.09668Z"/><path class="cls-1" d="M486.56934,160.42617h-3.2212v-21.3584h3.2212Z"/><path class="cls-1" d="M492.33105,160.42617v-21.375H501.501v3.23828h-5.94922v5.83008h4.34668v3.23828h-4.34668v5.83008H501.501v3.23828Z"/><path class="cls-1" d="M510.21289,139.05117l4.27539,14.36524V139.05117H517.71v21.375h-3.46l-4.43262-13.6875v13.6875h-3.2207v-21.375Z"/><path class="cls-1" d="M526.60742,142.307h-3.42578v-3.23926h10.05664V142.307H529.8291v18.11914h-3.22168Z"/><path class="cls-1" d="M551.95117,142.307h-3.42578v-3.23926H558.582V142.307h-3.40918v18.11914h-3.22168Z"/><path class="cls-1" d="M567.27344,160.42617h-3.22071v-21.3584h3.22071Z"/><path class="cls-1" d="M576.25488,160.42617h-3.2207v-21.375h4.62305l3.00195,15.3545,2.88184-15.3545h4.4414v21.375h-3.22168V146.99453l-2.79492,13.43164H579.375l-3.12012-13.39746Z"/><path class="cls-1" d="M593.74414,160.42617v-21.375h9.16992v3.23828h-5.94922v5.83008h4.34668v3.23828h-4.34668v5.83008h5.94922v3.23828Z"/><path class="cls-1" d="M618.66406,155.10781a6.01106,6.01106,0,0,1-1.15918,3.81836,4.176,4.176,0,0,1-2.21582,1.5166,6.04161,6.04161,0,0,1-1.79.23926,5.06724,5.06724,0,0,1-3.13672-.9375,5.24142,5.24142,0,0,1-1.64453-2.08789,8.41324,8.41324,0,0,1-.707-3.02637l3.06738-.2207a4.66049,4.66049,0,0,0,.98926,2.707,1.65027,1.65027,0,0,0,1.3291.59961,1.99715,1.99715,0,0,0,1.6875-1.041,2.586,2.586,0,0,0,.32422-1.416,3.93343,3.93343,0,0,0-1.21-2.64453q-.95508-.90381-2.86426-2.71289a12.22014,12.22014,0,0,1-2.2666-2.78027,6.43135,6.43135,0,0,1-.71582-3.00293,5.22253,5.22253,0,0,1,1.96-4.41895,4.87229,4.87229,0,0,1,3-.9043,5.452,5.452,0,0,1,2.94922.76758,4.428,4.428,0,0,1,1.542,1.66992,6.18334,6.18334,0,0,1,.708,2.47168l-3.08594.5625a3.71455,3.71455,0,0,0-.75-2.04492,1.57372,1.57372,0,0,0-1.27832-.5293,1.47305,1.47305,0,0,0-1.34668.78418,3.02491,3.02491,0,0,0-.375,1.56836,4.70826,4.70826,0,0,0,1.26172,2.9834,10.66773,10.66773,0,0,0,1.43164,1.36328q1.125.9375,1.4834,1.3125a10.99051,10.99051,0,0,1,1.84082,2.35254,8.99179,8.99179,0,0,1,.49414,1.00586A5.86717,5.86717,0,0,1,618.66406,155.10781Z"/></svg>