<svg id="Content" xmlns="http://www.w3.org/2000/svg" xmlns:xlink="http://www.w3.org/1999/xlink" viewBox="0 0 640 1136"><defs><style>.cls-1{fill:url(#New_Gradient_Swatch_1);}.cls-2{fill:#fff;}.cls-3{fill:#ba9544;}</style><linearGradient id="New_Gradient_Swatch_1" x1="276.84" y1="522.35" x2="365.97" y2="522.35" gradientUnits="userSpaceOnUse"><stop offset="0" stop-color="#a88a34"/><stop offset="0.49" stop-color="#caaf67"/><stop offset="1" stop-color="#957f2e"/></linearGradient></defs><title>fruity</title><polygon class="cls-1" points="313.86 567.94 276.84 525.18 306.06 476.75 361.15 489.58 365.98 545.94 313.86 567.94"/><path class="cls-2" d="M339.37,510.13c3.05-.93,3.91-3.39,5.7-4.24-3.55-1.46-5.63-1.83-7.74-.83A5.28,5.28,0,0,0,334.2,509a5.45,5.45,0,0,0,5.17,1.16"/><path class="cls-2" d="M332.8,515.27a16.43,16.43,0,0,0-4-12.39.28.28,0,0,0-.4,0v0l-.83.85a.28.28,0,0,0,0,.38A14.88,14.88,0,0,1,331,515.33c-7.32-4.29-15,.4-14.65,8.18a20.8,20.8,0,0,0,.61,4,34.37,34.37,0,0,0,15.62,7.08,4.09,4.09,0,0,1,2,1,3,3,0,0,1,.94,2.08l0,.77a4.12,4.12,0,0,1-.19,1.35,6,6,0,0,1-.27.85c6.11.3,11.89-9.4,12.24-17.13s-7.26-12.42-14.54-8.24"/><path class="cls-2" d="M333.15,537.15a2,2,0,0,0-1-.47c-12.34-2.46-22.73-9.49-27-24a3.11,3.11,0,0,0-.43-.83,1.9,1.9,0,0,1-.29-1.12l.1-2.76a.75.75,0,0,0-.72-.77h-1.5a.75.75,0,0,0-.74.75.19.19,0,0,0,0,.08l.34,3a1.84,1.84,0,0,1-.4,1.19,4.78,4.78,0,0,0-.49,2.49c-.29,23.18,15.37,29.93,29.83,26.37,1.84-.45,2-.75,2.17-1a3.41,3.41,0,0,0,.29-.83,1.89,1.89,0,0,0,.11-.71l0-.76a.87.87,0,0,0-.26-.59"/><path class="cls-3" d="M278.71,610.75V594H290.5v3.13h-8.43v3.58h6.22v3.11h-6.22v6.94Z"/><path class="cls-3" d="M303,603.44l4.18,7.31h-3.84l-4-6.93h-3.06v6.93h-3.35V594h7.3q5.86,0,5.87,4.83Q306.11,602.45,303,603.44Zm-6.73-2.74H301c1.35,0,2-.64,2.08-1.85s-.72-1.67-2.05-1.72h-4.72Z"/><path class="cls-3" d="M312,594v9.72a3.36,3.36,0,0,0,1.12,2.8,4.82,4.82,0,0,0,5.58,0,3.36,3.36,0,0,0,1.12-2.8V594h3.35v10.62a5.54,5.54,0,0,1-2.07,4.35,8.43,8.43,0,0,1-10.39,0,5.56,5.56,0,0,1-2.06-4.35V594Z"/><path class="cls-3" d="M326.83,594h3.34v16.77h-3.34Z"/><path class="cls-3" d="M347.21,594v3.13h-5.59v13.63h-3.35V597.12h-5.59V594Z"/><path class="cls-3" d="M348.71,594h3.94l3.89,5.48,4-5.48h3.85l-6.15,8.38v8.38h-3.35v-8.38Z"/></svg>