<svg id="Content" xmlns="http://www.w3.org/2000/svg" xmlns:xlink="http://www.w3.org/1999/xlink" width="300" height="250" viewBox="0 0 300 250"><defs><style>.cls-1{fill:#ba9544;}</style></defs><title>Frame1 - Durga Mata</title><path class="cls-1" d="M151.55273,141.6404h4.52442c2.85937,0,4.26367,1.58593,4.26367,4.498v9.2041c0,2.91211-1.4043,4.498-4.26367,4.498h-4.52442Zm2.86036,2.5996v13h1.61132c.91016,0,1.45606-.46777,1.45606-1.76757v-9.46485c0-1.2998-.5459-1.76758-1.45606-1.76758Z"/><path class="cls-1" d="M167.126,141.6404v14.04c0,1.29981.57226,1.76856,1.48242,1.76856s1.48242-.46875,1.48242-1.76856v-14.04h2.7041v13.85839c0,2.91211-1.45605,4.57618-4.26465,4.57618-2.80761,0-4.26367-1.66407-4.26367-4.57618V141.6404Z"/><path class="cls-1" d="M182.96094,159.84059a5.58614,5.58614,0,0,1-.26074-2.23633v-2.86035c0-1.68945-.57129-2.31348-1.87208-2.31348h-.9873v7.41016h-2.86035V141.6404h4.31641c2.96386,0,4.2373,1.37792,4.2373,4.18554v1.42969c0,1.87305-.59766,3.09473-1.87207,3.69238,1.43066.59864,1.89844,1.97656,1.89844,3.874v2.80859a5.357,5.357,0,0,0,.3125,2.21ZM179.84082,144.24v5.58985H180.958c1.0664,0,1.71679-.46778,1.71679-1.92383v-1.794c0-1.2998-.44238-1.87207-1.45605-1.87207Z"/><path class="cls-1" d="M192.918,149.7h4.00391v5.77246c0,2.91211-1.45606,4.57617-4.26368,4.57617-2.80859,0-4.26465-1.66406-4.26465-4.57617v-9.46485c0-2.91211,1.45606-4.57617,4.26465-4.57617,2.80762,0,4.26368,1.66406,4.26368,4.57617v1.76856h-2.70411v-1.9502c0-1.2998-.57226-1.79394-1.48144-1.79394-.91016,0-1.48242.49414-1.48242,1.79394v9.82813c0,1.30078.57226,1.76855,1.48242,1.76855.90918,0,1.48144-.46777,1.48144-1.76855v-3.35352H192.918Z"/><path class="cls-1" d="M209.21973,159.84059H206.334l-.49414-3.30176h-3.50976l-.49414,3.30176H199.21l2.91211-18.20019h4.18555Zm-6.52637-5.77246h2.75684l-1.37793-9.2041Z"/><path class="cls-1" d="M225.44336,154.56227l1.95019-12.92187h3.97852v18.20019H228.668V146.78786l-1.97656,13.05273H223.9873l-2.13183-12.87012v12.87012h-2.49609V141.6404h3.97851Z"/><path class="cls-1" d="M244.18945,159.84059h-2.88672l-.49316-3.30176h-3.51074l-.49414,3.30176h-2.626l2.91211-18.20019h4.18652Zm-6.52636-5.77246H240.419L239.041,144.864Z"/><path class="cls-1" d="M245.125,141.6404h8.84082V144.24h-2.99023v15.60059h-2.86036V144.24H245.125Z"/><path class="cls-1" d="M264.91113,159.84059h-2.88574l-.49414-3.30176h-3.50977l-.49414,3.30176h-2.626l2.91211-18.20019H261.999Zm-6.52636-5.77246h2.75683l-1.37793-9.2041Z"/><path class="cls-1" d="M279.49707,144.032c-.91016,0-1.48242.49414-1.48242,1.79394v1.9502h-2.7041v-1.76856c0-2.91211,1.45605-4.57617,4.26465-4.57617,2.80761,0,4.26367,1.66406,4.26367,4.57617,0,5.72071-5.69434,7.85254-5.69434,10.84278a1.9372,1.9372,0,0,0,.02637.38964h5.4082v2.60059h-8.26855v-2.23633c0-5.35644,5.66894-6.24023,5.66894-11.49219C280.97949,144.47438,280.40723,144.032,279.49707,144.032Z"/><image width="1500" height="1429" transform="translate(288.96119 -215.58543) scale(0.16637)" xlink:href="../../../../../Dropbox%20(Revolution%20Strategy)/Rocio%20Ugarte/Clients/Namaste/Digital%20Ads/_Flight%202:Phase%202%20Terpene/1.%20Animated%20w:%20Packaging/5.%20Big%20Box%20300%20x%20250/300%20x%20250_Folder/Links/LargeTopDown-8195-DaytimeCBD.png"/><image width="1500" height="1429" transform="translate(288.96119 54.16968) scale(0.16637)" xlink:href="../../../../../Dropbox%20(Revolution%20Strategy)/Rocio%20Ugarte/Clients/Namaste/Digital%20Ads/_Flight%202:Phase%202%20Terpene/1.%20Animated%20w:%20Packaging/5.%20Big%20Box%20300%20x%20250/300%20x%20250_Folder/Links/LargeTopDown-8282-DurgaMata2.png"/></svg>