<svg id="Content" xmlns="http://www.w3.org/2000/svg" width="300" height="250" viewBox="0 0 300 250"><defs><style>.cls-1{fill:#fff;stroke:#ba9544;stroke-miterlimit:10;stroke-width:0.5px;}.cls-2{fill:#ba9544;}</style></defs><title>THC - Durga Mata</title><polygon class="cls-1" points="279.428 142.307 167.844 141.884 162.211 150.007 167.844 157.986 279.428 157.796 284.498 150.052 279.428 142.307"/><polygon class="cls-2" points="167.925 141.884 162.293 150.007 167.925 157.986 179.089 157.986 178.966 141.884 167.925 141.884"/><path class="cls-2" d="M231.71,147.34547V148.365H229.8887v4.44336h-1.09277V148.365h-1.82129v-1.01953Z"/><path class="cls-2" d="M232.52249,152.80836v-5.46289h1.09278V149.53h2.54589v-2.18847h1.0918v5.46289l-1.0918.0039v-2.25781h-2.54589v2.25781Z"/><path class="cls-2" d="M238.94827,152.02321a2.732,2.732,0,0,1,1.94336-4.67774,2.95282,2.95282,0,0,1,2.00684.72852l-.72852.79687a2.01551,2.01551,0,0,0-1.27832-.43652,1.5565,1.5565,0,0,0-1.63476,1.624,1.63132,1.63132,0,0,0,.45508,1.209,1.61079,1.61079,0,0,0,1.1875.44824,1.95513,1.95513,0,0,0,1.2705-.43359l.72852.79785a2.94708,2.94708,0,0,1-2.00684.72851A2.65579,2.65579,0,0,1,238.94827,152.02321Z"/><path class="cls-2" d="M244.1221,149.325a.52808.52808,0,0,1,.39356-.14747.54784.54784,0,0,1,.4082.14747.49987.49987,0,0,1,.14551.36621.4932.4932,0,0,1-.14551.36328.62179.62179,0,0,1-.80176,0,.4932.4932,0,0,1-.14551-.36328A.49987.49987,0,0,1,244.1221,149.325Zm0,2.60742a.52807.52807,0,0,1,.39356-.14746.54784.54784,0,0,1,.4082.14746.503.503,0,0,1,.14551.36621.497.497,0,0,1-.14551.36426.625.625,0,0,1-.80176,0,.497.497,0,0,1-.14551-.36426A.503.503,0,0,1,244.1221,151.93239Z"/><path class="cls-2" d="M251.08206,147.3484v-.00683h1.08887v3.17578h.73633v1.08887h-.73633v1.20214h-1.08887v-1.20214h-2.48047v-1.08887h.03711l-.0332-.03613Zm0,3.16895v-1.74121l-1.3291,1.74121Z"/><path class="cls-2" d="M253.74027,151.34743v-.72461h2.25879v.72461Z"/><path class="cls-2" d="M260.02738,150.04079c.06543.02343.125.04785.17871.07226a1.07119,1.07119,0,0,1,.56445,1.09277,1.40065,1.40065,0,0,1-.53027,1.21973,2.62062,2.62062,0,0,1-2.72754,0,1.40063,1.40063,0,0,1-.53028-1.21973,1.07118,1.07118,0,0,1,.56446-1.09277c.05371-.02441.11328-.04883.17871-.07226-.03906-.01954-.07422-.03809-.10547-.05469a1.0807,1.0807,0,0,1-.49219-1.03809,1.49291,1.49291,0,0,1,.47559-1.18359,2.14335,2.14335,0,0,1,2.5459,0,1.49614,1.49614,0,0,1,.47558,1.18359,1.0807,1.0807,0,0,1-.49219,1.03809C260.10159,150.0027,260.06644,150.02125,260.02738,150.04079Zm-1.15137-.4961c.32129-.00976.52734-.09277.61914-.251a.581.581,0,0,0,0-.61915.69861.69861,0,0,0-.61914-.30566.69027.69027,0,0,0-.61524.30566.573.573,0,0,0,0,.61915C258.35062,149.45192,258.5557,149.53493,258.876,149.54469Zm0,1.002a.81005.81005,0,0,0-.61524.31347.573.573,0,0,0,0,.61914.69026.69026,0,0,0,.61524.30567.69859.69859,0,0,0,.61914-.30567.58093.58093,0,0,0,0-.61914A.82124.82124,0,0,0,258.876,150.54665Z"/><path class="cls-2" d="M262.042,149.65016a1.40717,1.40717,0,1,1,.97559.39356A1.32152,1.32152,0,0,1,262.042,149.65016Zm.96485-.25488a.64924.64924,0,0,0,.499-.207.73.73,0,0,0,.19336-.51758.72128.72128,0,0,0-.19336-.51465.656.656,0,0,0-.50293-.20605.64775.64775,0,0,0-.49512.20605.7206.7206,0,0,0-.19238.51465.72936.72936,0,0,0,.19238.51758A.64926.64926,0,0,0,263.00687,149.39528Zm-.291,3.41308,3.09571-5.46289h.88867l-3.08887,5.46289Zm2.71289-.36035a1.39908,1.39908,0,1,1,.96875.38965A1.31566,1.31566,0,0,1,265.42874,152.448Zm.95117-.26562a.63655.63655,0,0,0,.48731-.20215.76228.76228,0,0,0,0-1.00586.64209.64209,0,0,0-.49121-.20215.63453.63453,0,0,0-.48438.20215.76228.76228,0,0,0,0,1.00586A.63867.63867,0,0,0,266.37991,152.18239Z"/></svg>