<svg id="Layer_1" data-name="Layer 1" xmlns="http://www.w3.org/2000/svg" width="728" height="90" viewBox="0 0 728 90"><defs><style>.cls-1{fill:#ab9555;}</style></defs><title>frame4</title><path class="cls-1" d="M285.50326,31.65844h5.90679a8.28686,8.28686,0,0,1,3.30987.59423,6.25639,6.25639,0,0,1,2.23948,1.5859,5.93184,5.93184,0,0,1,1.2491,2.27948,9.5141,9.5141,0,0,1,.37615,2.67564v1.03038a9.018,9.018,0,0,1-.17807,1.94269,4.65138,4.65138,0,0,1-.53551,1.38718,4.42557,4.42557,0,0,1-.87167,1.05038,7.57532,7.57532,0,0,1-1.1891.85231,4.369,4.369,0,0,1,2.10077,2.00205,7.89784,7.89784,0,0,1,.67358,3.54794v1.5859a8.19777,8.19777,0,0,1-1.80332,5.70807q-1.805,1.983-5.76808,1.98205h-5.51Zm4.04346,11.57486h1.82333a3.08939,3.08939,0,0,0,2.71564-1.011,5.21689,5.21689,0,0,0,.69359-2.95307,4.4557,4.4557,0,0,0-.773-2.85371,3.43951,3.43951,0,0,0-2.795-.95167h-1.66461Zm0,12.60588h1.744a4.261,4.261,0,0,0,1.92269-.35679,2.45683,2.45683,0,0,0,1.05038-.991,3.72361,3.72361,0,0,0,.43616-1.50654q.07935-.871.07936-1.90269a12.71452,12.71452,0,0,0-.11872-1.86268,3.0683,3.0683,0,0,0-.49551-1.32847,2.33722,2.33722,0,0,0-1.05039-.8123,4.77794,4.77794,0,0,0-1.784-.27744h-1.784Z"/><path class="cls-1" d="M305.03277,31.65844h12.051v3.80538h-8.00756v8.285h6.97653v3.80538h-6.97653v8.285h8.00756v4.04346h-12.051Z"/><path class="cls-1" d="M332.3582,31.65844h6.06486a9.00893,9.00893,0,0,1,2.93372.43616,5.63791,5.63791,0,0,1,2.29949,1.54589,6.05349,6.05349,0,0,1,1.42653,2.59628,16.25429,16.25429,0,0,1,.3968,4.02345,20.13129,20.13129,0,0,1-.21808,3.19116,6.72267,6.72267,0,0,1-.93167,2.47756,5.9003,5.9003,0,0,1-2.22012,2.16077,7.47535,7.47535,0,0,1-3.64666.77294h-2.06141v11.02H332.3582Zm4.04346,13.39819h1.94269a4.13128,4.13128,0,0,0,1.90269-.3568,2.27131,2.27131,0,0,0,.991-.971,3.77892,3.77892,0,0,0,.37615-1.48654q.06-.871.06-1.942,0-.991-.06-1.88334a4.41887,4.41887,0,0,0-.35679-1.54589,2.269,2.269,0,0,0-.931-1.03038,3.61216,3.61216,0,0,0-1.824-.3768h-2.10076Z"/><path class="cls-1" d="M349.81339,31.65844h6.501q7.13557,0,7.13525,8.285a10.46682,10.46682,0,0,1-.77295,4.22153,5.97346,5.97346,0,0,1-2.715,2.83436L364.322,59.88264h-4.2809l-3.766-12.051h-2.4182v12.051h-4.04346Zm4.04346,12.60589h2.29949a4.06839,4.06839,0,0,0,1.704-.29744,2.19206,2.19206,0,0,0,.97167-.85231,3.63933,3.63933,0,0,0,.45551-1.36782,14.91152,14.91152,0,0,0,0-3.766,3.40049,3.40049,0,0,0-.49551-1.38718,2.24457,2.24457,0,0,0-1.05038-.8523,4.77564,4.77564,0,0,0-1.784-.27744h-2.10077Z"/><path class="cls-1" d="M369.3429,31.65844h12.051v3.80538h-8.00756v8.285h6.97653v3.80538h-6.97653v8.285h8.00756v4.04346h-12.051Z"/><path class="cls-1" d="M399.73367,39.78471h-4.04346v-.91166a4.316,4.316,0,0,0-.65358-2.3982,2.41915,2.41915,0,0,0-2.20013-1.011,2.65759,2.65759,0,0,0-1.36782.31679,2.34535,2.34535,0,0,0-.83231.81295,3.404,3.404,0,0,0-.41615,1.14975,7.62441,7.62441,0,0,0-.11936,1.36717,13.88669,13.88669,0,0,0,.06,1.40782,2.50054,2.50054,0,0,0,.29679.991,2.26661,2.26661,0,0,0,.69424.73294,6.26621,6.26621,0,0,0,1.24846.63423l3.09179,1.22911a7.69052,7.69052,0,0,1,2.18012,1.2091A4.90887,4.90887,0,0,1,398.96072,46.94a6.90382,6.90382,0,0,1,.61488,2.14077,21.48549,21.48549,0,0,1,.15807,2.755,14.50946,14.50946,0,0,1-.3568,3.30986,6.97429,6.97429,0,0,1-1.16909,2.61628,5.61964,5.61964,0,0,1-2.16077,1.72462,7.705,7.705,0,0,1-3.28987.63423,7.19951,7.19951,0,0,1-2.735-.51552,6.50984,6.50984,0,0,1-3.62731-3.52794,6.57781,6.57781,0,0,1-.53551-2.65628V51.91509h4.04345v1.26846a3.29992,3.29992,0,0,0,.65423,2.0014,2.54721,2.54721,0,0,0,2.20013.89231,3.54837,3.54837,0,0,0,1.60525-.29744,2.04539,2.04539,0,0,0,.87231-.8323,3.43539,3.43539,0,0,0,.3768-1.32847q.07839-.79166.07871-1.744a17.2696,17.2696,0,0,0-.07871-1.82333,2.904,2.904,0,0,0-.33744-1.14974,2.0585,2.0585,0,0,0-.71359-.71359,9.50194,9.50194,0,0,0-1.2091-.59423l-2.89372-1.18974a6.40971,6.40971,0,0,1-3.50794-2.83436,9.74252,9.74252,0,0,1-.89166-4.41961,10.24917,10.24917,0,0,1,.43551-3.01307,7.03891,7.03891,0,0,1,1.28846-2.45756,6.156,6.156,0,0,1,2.16077-1.64526,7.11659,7.11659,0,0,1,3.05243-.61423,6.71537,6.71537,0,0,1,2.755.55487,6.85143,6.85143,0,0,1,2.14012,1.46719,6.50515,6.50515,0,0,1,1.36782,2.0414,5.91431,5.91431,0,0,1,.47551,2.31884Z"/><path class="cls-1" d="M405.38883,31.65844h12.051v3.80538h-8.00755v8.285h6.97653v3.80538h-6.97653v8.285h8.00755v4.04346h-12.051Z"/><path class="cls-1" d="M422.53949,31.65844h3.88474l6.10486,17.00549h.07936V31.65844h4.04346v28.2242h-3.80538l-6.18422-16.96613H426.583V59.88264h-4.04346Z"/><path class="cls-1" d="M445.59694,35.46382h-4.67769V31.65844h13.39819v3.80538h-4.67769V59.88264h-4.04281Z"/><path class="cls-1" d="M456.18012,55.83918h4.04346v4.04346h-4.04346Z"/></svg>