<svg id="Layer_1" data-name="Layer 1" xmlns="http://www.w3.org/2000/svg" width="728" height="90" viewBox="0 0 728 90"><defs><style>.cls-1{fill:#ab9555;}</style></defs><title>frame1</title><path class="cls-1" d="M306.293,60.91032a6.73109,6.73109,0,0,1-6.76057-6.74591V32.138h4.19031V54.1186a2.34654,2.34654,0,0,0,.72389,1.72817,2.38163,2.38163,0,0,0,1.73733.71655,2.43249,2.43249,0,0,0,2.44564-2.44472V32.138h4.4707V54.16441a6.44009,6.44009,0,0,1-1.9939,4.79782A6.64309,6.64309,0,0,1,306.293,60.91032Z"/><path class="cls-1" d="M327.45711,32.138l5.67015,19.08134V32.138H337.411V60.55112h-4.5889l-5.89465-18.19434V60.55112h-4.28377V32.138Z"/><path class="cls-1" d="M353.7306,32.138a6.5028,6.5028,0,0,1,4.98475,1.97924,6.819,6.819,0,0,1,1.72908,4.79782v4.12709a6.59689,6.59689,0,0,1-1.96,4.79782,6.40453,6.40453,0,0,1-4.74285,1.9939h-2.47221V60.55112H346.9856V32.138Zm2.55468,6.854a2.47136,2.47136,0,0,0-.65975-1.79964,2.37322,2.37322,0,0,0-1.77856-.67807h-2.57759v9.08251H353.847a2.32856,2.32856,0,0,0,1.73183-.72389,2.40287,2.40287,0,0,0,.70648-1.73733Z"/><path class="cls-1" d="M381.29517,60.55112H369.614V32.138h4.28286V56.29942h7.39832Z"/><path class="cls-1" d="M396.72591,60.91032a6.72954,6.72954,0,0,1-6.75874-6.74591V32.138h4.18939V54.1186a2.34658,2.34658,0,0,0,.72389,1.72817,2.38315,2.38315,0,0,0,1.73733.71655,2.434,2.434,0,0,0,2.44656-2.44472V32.138h4.46979V54.16441a6.44352,6.44352,0,0,1-1.9939,4.79782A6.6422,6.6422,0,0,1,396.72591,60.91032Z"/><path class="cls-1" d="M419.80787,60.91032a6.77945,6.77945,0,0,1-6.79172-6.77706V38.57057a6.7835,6.7835,0,1,1,13.567,0v3.24009h-4.44046V38.4936a2.47464,2.47464,0,0,0-2.47588-2.47772,2.33839,2.33839,0,0,0-1.72817.72573,2.39708,2.39708,0,0,0-.71839,1.752v15.592a2.45279,2.45279,0,0,0,2.44656,2.463,2.39708,2.39708,0,0,0,1.752-.71839,2.35575,2.35575,0,0,0,.72388-1.74466V48.49426h-2.38241V44.2114h6.82287v9.92186a6.77,6.77,0,0,1-6.77523,6.77706Z"/><path class="cls-1" d="M435.2716,56.28293h4.28285v4.28286H435.2716Z"/></svg>