<?xml version="1.0" encoding="utf-8"?>
<!-- Generator: Adobe Illustrator 23.0.1, SVG Export Plug-In . SVG Version: 6.00 Build 0)  -->
<svg version="1.1" id="Layer_1" xmlns="http://www.w3.org/2000/svg" xmlns:xlink="http://www.w3.org/1999/xlink" x="0px" y="0px"
	 viewBox="0 0 970 250" enable-background="new 0 0 970 250" xml:space="preserve">
<g>
	<path fill="#BA9544" d="M387.28,116.68v26.39c0,2.44,1.08,3.32,2.79,3.32s2.79-0.88,2.79-3.32v-26.39h5.08v26.05
		c0,5.47-2.74,8.6-8.02,8.6s-8.02-3.13-8.02-8.6v-26.05H387.28z"/>
	<path fill="#BA9544" d="M406.78,116.68h5.38V146h8.85v4.89h-14.22V116.68z"/>
	<path fill="#BA9544" d="M426.97,116.68h16.62v4.89h-5.62v29.32h-5.38v-29.32h-5.62V116.68z"/>
	<path fill="#BA9544" d="M462.35,150.89c-0.29-0.88-0.49-1.42-0.49-4.2v-5.38c0-3.18-1.08-4.35-3.52-4.35h-1.86v13.93h-5.38v-34.21
		h8.11c5.57,0,7.97,2.59,7.97,7.87v2.69c0,3.52-1.12,5.82-3.52,6.94c2.69,1.12,3.57,3.71,3.57,7.28v5.28c0,1.66,0.05,2.88,0.59,4.15
		H462.35z M456.49,121.57v10.51h2.1c2,0,3.23-0.88,3.23-3.62v-3.37c0-2.44-0.83-3.52-2.74-3.52H456.49z"/>
	<path fill="#BA9544" d="M493.34,150.89h-5.43l-0.93-6.21h-6.6l-0.93,6.21h-4.94l5.47-34.21h7.87L493.34,150.89z M481.07,140.04
		h5.18l-2.59-17.3L481.07,140.04z"/>
	<path fill="#BA9544" d="M521,116.29c5.23,0,7.92,3.13,7.92,8.6v1.08h-5.08v-1.42c0-2.44-0.98-3.37-2.69-3.37s-2.69,0.93-2.69,3.37
		c0,7.04,10.51,8.36,10.51,18.13c0,5.47-2.74,8.6-8.01,8.6s-8.02-3.13-8.02-8.6v-2.1h5.08v2.44c0,2.44,1.08,3.32,2.79,3.32
		c1.71,0,2.79-0.88,2.79-3.32c0-7.04-10.51-8.36-10.51-18.13C513.08,119.42,515.77,116.29,521,116.29z"/>
	<path fill="#BA9544" d="M536.78,124.89c0-5.47,2.88-8.6,8.16-8.6s8.16,3.13,8.16,8.6v17.79c0,5.47-2.88,8.6-8.16,8.6
		s-8.16-3.13-8.16-8.6V124.89z M542.16,143.02c0,2.44,1.08,3.37,2.79,3.37c1.71,0,2.79-0.93,2.79-3.37v-18.47
		c0-2.44-1.08-3.37-2.79-3.37c-1.71,0-2.79,0.93-2.79,3.37V143.02z"/>
	<path fill="#BA9544" d="M566.89,116.68v26.39c0,2.44,1.08,3.32,2.79,3.32c1.71,0,2.79-0.88,2.79-3.32v-26.39h5.08v26.05
		c0,5.47-2.74,8.6-8.02,8.6s-8.01-3.13-8.01-8.6v-26.05H566.89z"/>
	<path fill="#BA9544" d="M597.63,150.89c-0.29-0.88-0.49-1.42-0.49-4.2v-5.38c0-3.18-1.08-4.35-3.52-4.35h-1.86v13.93h-5.38v-34.21
		h8.11c5.57,0,7.97,2.59,7.97,7.87v2.69c0,3.52-1.12,5.82-3.52,6.94c2.69,1.12,3.57,3.71,3.57,7.28v5.28c0,1.66,0.05,2.88,0.59,4.15
		H597.63z M591.76,121.57v10.51h2.1c2,0,3.23-0.88,3.23-3.62v-3.37c0-2.44-0.83-3.52-2.74-3.52H591.76z"/>
</g>
<g>
</g>
<g>
</g>
<g>
</g>
<g>
</g>
<g>
</g>
<g>
</g>
<g>
</g>
<g>
</g>
<g>
</g>
<g>
</g>
<g>
</g>
<g>
</g>
<g>
</g>
<g>
</g>
<g>
</g>
</svg>
