<?xml version="1.0" encoding="utf-8"?>
<!-- Generator: Adobe Illustrator 23.0.1, SVG Export Plug-In . SVG Version: 6.00 Build 0)  -->
<svg version="1.1" id="Layer_1" xmlns="http://www.w3.org/2000/svg" xmlns:xlink="http://www.w3.org/1999/xlink" x="0px" y="0px"
	 viewBox="0 0 728 90" enable-background="new 0 0 728 90" xml:space="preserve">
<g>
	<g>
		<polygon fill="#FFFFFF" stroke="#BA9544" stroke-width="0.5" stroke-miterlimit="10" points="446.07,21.36 315.14,20.86 
			308.53,30.4 315.14,39.76 446.07,39.53 452.02,30.45 		"/>
		<polygon fill="#BA9544" points="315.24,20.86 308.63,30.4 315.24,39.76 323.46,39.76 323.46,20.86 		"/>
	</g>
	<g>
		<path fill="#BA9544" d="M390.08,26.92v1.2h-2.14v5.21h-1.28v-5.21h-2.14v-1.2H390.08z"/>
		<path fill="#BA9544" d="M391.03,33.33v-6.41h1.28v2.56h2.99v-2.57h1.28v6.41l-1.28,0v-2.65h-2.99v2.65H391.03z"/>
		<path fill="#BA9544" d="M398.57,32.4c-0.61-0.61-0.92-1.38-0.92-2.3c0-0.9,0.31-1.66,0.92-2.27c0.61-0.61,1.37-0.92,2.28-0.92
			c0.92,0,1.7,0.28,2.35,0.85l-0.85,0.94c-0.44-0.34-0.94-0.51-1.5-0.51c-0.58,0-1.04,0.18-1.39,0.54
			c-0.35,0.36-0.53,0.81-0.53,1.37c0,0.6,0.18,1.07,0.53,1.42c0.35,0.35,0.82,0.53,1.39,0.53s1.07-0.17,1.49-0.51l0.85,0.94
			c-0.65,0.57-1.44,0.85-2.35,0.85C399.95,33.32,399.19,33.02,398.57,32.4z"/>
		<path fill="#BA9544" d="M404.64,29.24c0.11-0.12,0.27-0.17,0.46-0.17c0.21,0,0.36,0.06,0.48,0.17c0.11,0.12,0.17,0.26,0.17,0.43
			s-0.06,0.31-0.17,0.43c-0.11,0.11-0.27,0.17-0.47,0.17c-0.2,0-0.36-0.06-0.47-0.17c-0.11-0.11-0.17-0.26-0.17-0.43
			S404.53,29.35,404.64,29.24z M404.64,32.3c0.11-0.12,0.27-0.17,0.46-0.17c0.21,0,0.36,0.06,0.48,0.17s0.17,0.26,0.17,0.43
			s-0.06,0.31-0.17,0.43s-0.27,0.17-0.47,0.17c-0.2,0-0.36-0.06-0.47-0.17s-0.17-0.26-0.17-0.43S404.53,32.41,404.64,32.3z"/>
		<path fill="#BA9544" d="M413.97,30.08c0.08,0.03,0.15,0.06,0.21,0.09c0.44,0.2,0.66,0.63,0.66,1.28c0,0.51-0.24,0.95-0.71,1.32
			c-0.47,0.37-1.02,0.56-1.65,0.56c-0.6,0-1.09-0.09-1.49-0.26c-0.4-0.17-0.74-0.4-1.03-0.68l0.85-0.85
			c0.29,0.34,0.77,0.54,1.45,0.6c0.57,0,0.93-0.12,1.07-0.36c0.14-0.24,0.14-0.48,0-0.73s-0.64-0.38-1.49-0.41v-1.15
			c0.85,0.06,1.35-0.04,1.49-0.28s0.14-0.48,0-0.73s-0.5-0.36-1.07-0.36c-0.54,0-0.95,0.17-1.24,0.51l-0.85-0.85
			c0.29-0.28,0.59-0.5,0.92-0.64c0.33-0.14,0.79-0.21,1.38-0.21c0.63,0,1.15,0.19,1.56,0.56c0.42,0.37,0.62,0.81,0.62,1.33
			c0,0.6-0.19,1-0.58,1.22C414.06,30.03,414.02,30.05,413.97,30.08z"/>
		<path fill="#BA9544" d="M415.88,31.61v-0.85h2.65v0.85H415.88z"/>
		<path fill="#BA9544" d="M420.45,33.33l0-0.43l2-4.79h-2.74l0-1.2h4.38v0.47l-2.39,5.94H420.45z"/>
		<path fill="#BA9544" d="M425.5,29.62c-0.31-0.31-0.46-0.69-0.46-1.15c0-0.46,0.15-0.84,0.46-1.15s0.69-0.46,1.15-0.46
			c0.46,0,0.84,0.15,1.14,0.46s0.46,0.69,0.46,1.15c0,0.46-0.15,0.84-0.46,1.15s-0.69,0.46-1.14,0.46
			C426.18,30.08,425.8,29.93,425.5,29.62z M426.63,29.32c0.24,0,0.43-0.08,0.59-0.24c0.15-0.16,0.23-0.36,0.23-0.61
			s-0.08-0.44-0.23-0.6s-0.35-0.24-0.59-0.24c-0.24,0-0.43,0.08-0.58,0.24s-0.23,0.36-0.23,0.6s0.08,0.44,0.23,0.61
			C426.19,29.24,426.39,29.32,426.63,29.32z M426.29,33.33l3.63-6.41h1.04l-3.62,6.41H426.29z M429.47,32.9
			c-0.31-0.31-0.46-0.68-0.46-1.14c0-0.45,0.15-0.83,0.46-1.14c0.3-0.3,0.68-0.46,1.14-0.46c0.45,0,0.83,0.15,1.14,0.46
			c0.3,0.31,0.46,0.68,0.46,1.14c0,0.45-0.15,0.83-0.46,1.14c-0.31,0.3-0.68,0.46-1.14,0.46C430.15,33.36,429.77,33.21,429.47,32.9z
			 M430.58,32.59c0.23,0,0.42-0.08,0.57-0.24s0.22-0.36,0.22-0.59c0-0.23-0.07-0.43-0.22-0.59s-0.34-0.24-0.58-0.24
			c-0.23,0-0.42,0.08-0.57,0.24c-0.15,0.16-0.22,0.35-0.22,0.59c0,0.24,0.07,0.43,0.22,0.59C430.16,32.51,430.35,32.59,430.58,32.59
			z"/>
	</g>
</g>
<g>
</g>
<g>
</g>
<g>
</g>
<g>
</g>
<g>
</g>
<g>
</g>
<g>
</g>
<g>
</g>
<g>
</g>
<g>
</g>
<g>
</g>
<g>
</g>
<g>
</g>
<g>
</g>
<g>
</g>
</svg>
