<svg xmlns="http://www.w3.org/2000/svg" width="320" height="480" viewBox="0 0 320 480"><defs><style>.cls-1{fill:#ba9544;}</style></defs><title>Frame1 - Durga Mata</title><g id="Content"><path class="cls-1" d="M96.584,220.0127h8.99024c5.6831,0,8.47314,3.15185,8.47314,8.93847v18.28955c0,5.78662-2.79,8.93848-8.47314,8.93848H96.584Zm5.6836,5.167v25.833h3.20312c1.8086,0,2.89356-.93018,2.89356-3.51368V228.69287c0-2.58349-1.085-3.51318-2.89356-3.51318Z"/><path class="cls-1" d="M128.564,220.0127v27.8999c0,2.58349,1.13672,3.51318,2.94483,3.51318,1.80859,0,2.94482-.92969,2.94482-3.51318V220.0127h5.37354v27.53808c0,5.78662-2.89356,9.09326-8.47315,9.09326-5.58007,0-8.47363-3.30664-8.47363-9.09326V220.0127Z"/><path class="cls-1" d="M161.06006,256.1792c-.31006-.93018-.5166-1.49854-.5166-4.44336v-5.68311c0-3.35839-1.13672-4.59863-3.71973-4.59863h-1.96338v14.7251h-5.68359V220.0127h8.57666c5.89013,0,8.42187,2.73828,8.42187,8.31835v2.8418c0,3.71973-1.18847,6.14795-3.72021,7.33643,2.8418,1.18847,3.772,3.92676,3.772,7.69824v5.58008a10.64983,10.64983,0,0,0,.61963,4.3916Zm-6.19971-30.99951V236.2876H157.082c2.11817,0,3.40967-.92969,3.40967-3.82324v-3.565c0-2.58349-.87793-3.71972-2.89307-3.71972Z"/><path class="cls-1" d="M183.94727,236.0293h7.95654V247.499c0,5.78711-2.89356,9.09375-8.47363,9.09375-5.57959,0-8.47315-3.30664-8.47315-9.09375V228.69287c0-5.78662,2.89356-9.09326,8.47315-9.09326,5.58007,0,8.47363,3.30664,8.47363,9.09326v3.51318h-5.37354v-3.875c0-2.58349-1.13672-3.56494-2.94482-3.56494-1.80859,0-2.94483.98145-2.94483,3.56494v19.52979c0,2.5835,1.13624,3.51318,2.94483,3.51318,1.8081,0,2.94482-.92968,2.94482-3.51318v-6.665h-2.583Z"/><path class="cls-1" d="M219.44043,256.1792h-5.73486l-.98194-6.56152h-6.97509l-.98145,6.56152h-5.21826l5.78662-36.1665h8.31836Zm-12.96826-11.46973h5.47656l-2.73828-18.29Z"/><path class="cls-1" d="M99.24609,295.69092l3.875-25.67822h7.90479v36.1665h-5.37305V280.24268l-3.92676,25.93652H96.35254l-4.23633-25.57471V306.1792h-4.96V270.0127H95.061Z"/><path class="cls-1" d="M139.02686,306.1792H133.292l-.98193-6.56152H125.335l-.98144,6.56152h-5.21827l5.78663-36.1665h8.31835Zm-12.96827-11.46973h5.47657l-2.73828-18.29Z"/><path class="cls-1" d="M145.4834,270.0127h17.5664v5.167h-5.94189V306.1792H151.4248V275.17969h-5.9414Z"/><path class="cls-1" d="M189.398,306.1792h-5.73486l-.98194-6.56152h-6.9751l-.98144,6.56152h-5.21826l5.78662-36.1665h8.31836Zm-12.96826-11.46973h5.47656l-2.73828-18.29Z"/><path class="cls-1" d="M219.31006,274.76611c-1.80811,0-2.94483.98145-2.94483,3.56494v3.875h-5.373v-3.51318c0-5.78662,2.89306-9.09326,8.47314-9.09326,5.57959,0,8.47315,3.30664,8.47315,9.09326,0,11.3667-11.31494,15.603-11.31494,21.54492a3.90345,3.90345,0,0,0,.05175.77491h10.74659v5.1665H210.99219v-4.44336c0-10.64307,11.26318-12.3999,11.26318-22.83643C222.25537,275.64453,221.11865,274.76611,219.31006,274.76611Z"/></g></svg>