<svg id="Layer_1" data-name="Layer 1" xmlns="http://www.w3.org/2000/svg" width="300" height="250" viewBox="0 0 300 250"><defs><style>.cls-1{fill:#ab9555;}</style></defs><title>frame4</title><path class="cls-1" d="M93.73192,161.96289V145.041h3.81933a4.86534,4.86534,0,0,1,2.72559.79589,3.70926,3.70926,0,0,1,1.48438,2.0918,5.88508,5.88508,0,0,1,.24316,1.79492,3.97351,3.97351,0,0,1-.9043,2.72559,2.56557,2.56557,0,0,1-.89062.66113,2.9629,2.9629,0,0,1,1.44336,1.28223,4.94282,4.94282,0,0,1,.58008,1.67285,6.61729,6.61729,0,0,1,.0957,1.17383,5.659,5.659,0,0,1-.60742,2.72656,3.91015,3.91015,0,0,1-3.26563,1.99707Zm2.75293-10.01269h1.0664a1.56172,1.56172,0,0,0,1.5918-1.16114,3.285,3.285,0,0,0,.14844-1.06543,2.23087,2.23087,0,0,0-.5127-1.59277,1.61244,1.61244,0,0,0-1.22754-.499h-1.0664Zm0,7.48925h1.0664a1.811,1.811,0,0,0,1.79493-1.33593,2.95192,2.95192,0,0,0,.1748-1.05274,3.20207,3.20207,0,0,0-.54-2.06445,1.7373,1.7373,0,0,0-1.42969-.59375h-1.0664Z"/><path class="cls-1" d="M106.04735,161.96289V145.041h7.25976v2.56347h-4.709v4.61524h3.44141v2.56347h-3.44141v4.61524h4.709v2.56445Z"/><path class="cls-1" d="M127.15086,145.05469a3.88347,3.88347,0,0,1,2.96875,1.17383,4.07235,4.07235,0,0,1,1.02539,2.86035v2.45605a3.93492,3.93492,0,0,1-1.167,2.86133,3.82057,3.82057,0,0,1-2.82715,1.1875h-1.4707v6.36914h-2.55078v-16.9082Zm1.52539,4.07519a1.45348,1.45348,0,0,0-.39843-1.0664,1.4218,1.4218,0,0,0-1.05957-.40528h-1.53809v5.41211h1.53809a1.39321,1.39321,0,0,0,1.03222-.43261,1.42724,1.42724,0,0,0,.42578-1.03907Z"/><path class="cls-1" d="M138.72313,145.05469a3.887,3.887,0,0,1,3.13086,1.17383,4.26506,4.26506,0,0,1,.87695,2.86035v2.45605a3.95117,3.95117,0,0,1-1.3623,3.03613l1.88867,7.38184H140.4995l-1.5459-6.36914h-1.70117v6.36914h-2.55078v-16.9082Zm1.52539,4.07519a1.29488,1.29488,0,0,0-1.457-1.47168h-1.53906v5.41211h1.53906a1.3926,1.3926,0,0,0,1.03125-.43261,1.42341,1.42341,0,0,0,.42578-1.03907Z"/><path class="cls-1" d="M146.96336,161.96289V145.041h7.25977v2.56347h-4.709v4.61524h3.43945v2.56347h-3.43945v4.61524h4.709v2.56445Z"/><path class="cls-1" d="M165.93211,157.752a4.76552,4.76552,0,0,1-.918,3.02344,3.31673,3.31673,0,0,1-1.75391,1.20117,4.83237,4.83237,0,0,1-1.418.18848,4.00685,4.00685,0,0,1-2.48242-.74219,4.16369,4.16369,0,0,1-1.30274-1.65332,6.69793,6.69793,0,0,1-.56054-2.39453l2.42968-.17578a3.68391,3.68391,0,0,0,.78321,2.14258,1.30434,1.30434,0,0,0,1.05273.47558,1.58647,1.58647,0,0,0,1.33594-.82422,2.05476,2.05476,0,0,0,.25586-1.12109,3.11509,3.11509,0,0,0-.959-2.09375q-.75585-.71484-2.26562-2.14746a9.64481,9.64481,0,0,1-1.79492-2.20117,5.07728,5.07728,0,0,1-.56641-2.377,4.134,4.134,0,0,1,1.55078-3.499,3.85908,3.85908,0,0,1,2.375-.71582,4.31757,4.31757,0,0,1,2.334.60742,3.518,3.518,0,0,1,1.22265,1.32227,4.88927,4.88927,0,0,1,.5586,1.957l-2.44141.44531a2.94361,2.94361,0,0,0-.59375-1.61914,1.24982,1.24982,0,0,0-1.01172-.418,1.16524,1.16524,0,0,0-1.0664.62012,2.3817,2.3817,0,0,0-.29688,1.24121,3.72366,3.72366,0,0,0,.99805,2.36231,8.38911,8.38911,0,0,0,1.13281,1.0791q.89063.74266,1.17578,1.03906a8.68913,8.68913,0,0,1,1.457,1.8623,7.284,7.284,0,0,1,.39063.7959A4.6775,4.6775,0,0,1,165.93211,157.752Z"/><path class="cls-1" d="M169.56883,161.96289V145.041h7.25977v2.56347h-4.709v4.61524H175.561v2.56347h-3.44141v4.61524h4.709v2.56445Z"/><path class="cls-1" d="M182.96532,145.041l3.38476,11.37207V145.041h2.55078v16.92187h-2.73828L182.65282,151.127v10.83594H180.102V145.041Z"/><path class="cls-1" d="M195.186,147.61816h-2.71289v-2.56347h7.96094v2.56347h-2.69922v14.34473H195.186Z"/><path class="cls-1" d="M203.7075,159.42578h2.55079v2.55078H203.7075Z"/></svg>