<svg id="Content" xmlns="http://www.w3.org/2000/svg" viewBox="0 0 728 90"><defs><style>.cls-1{fill:#ba9544;}</style></defs><title>Frame1 - Daytime CBD</title><path class="cls-1" d="M202.05,35.73h5.57c3.52,0,5.24,2,5.24,5.53V52.59c0,3.58-1.72,5.53-5.24,5.53h-5.57Zm3.52,3.2v16h2c1.12,0,1.79-.57,1.79-2.17V41.1c0-1.6-.67-2.17-1.79-2.17Z"/><path class="cls-1" d="M229.25,58.12H225.7l-.61-4.06h-4.32l-.61,4.06h-3.23l3.58-22.39h5.15Zm-8-7.1h3.39l-1.7-11.33Z"/><path class="cls-1" d="M234.37,50.7l-4.45-15h3.68l2.69,10.2L239,35.73h3.36l-4.45,15v7.42h-3.52Z"/><path class="cls-1" d="M244.19,35.73h10.88v3.2h-3.68V58.12h-3.52V38.93h-3.68Z"/><path class="cls-1" d="M259.36,35.73h3.52V58.12h-3.52Z"/><path class="cls-1" d="M276.29,51.63l2.4-15.9h4.89V58.12h-3.33V42.06l-2.43,16.06H274.5l-2.63-15.83V58.12H268.8V35.73h4.9Z"/><path class="cls-1" d="M293.06,45.17h4.83v3.19h-4.83v6.56h6.07v3.2h-9.59V35.73h9.59v3.2h-6.07Z"/><path class="cls-1" d="M323.26,49.77v3c0,3.58-1.79,5.63-5.25,5.63s-5.24-2.05-5.24-5.63V41.1c0-3.58,1.79-5.63,5.24-5.63s5.25,2.05,5.25,5.63v2.18h-3.33v-2.4c0-1.6-.7-2.21-1.82-2.21s-1.82.61-1.82,2.21V53c0,1.6.7,2.18,1.82,2.18s1.82-.58,1.82-2.18v-3.2Z"/><path class="cls-1" d="M339.33,40.88v.8c0,2.3-.71,3.77-2.28,4.51,1.89.73,2.63,2.43,2.63,4.8v1.82c0,3.46-1.83,5.31-5.35,5.31H328.8V35.73h5.31C337.76,35.73,339.33,37.42,339.33,40.88Zm-7-2v5.91h1.37c1.32,0,2.12-.57,2.12-2.36V41.23c0-1.6-.55-2.3-1.8-2.3Zm0,9.11v6.88h2c1.19,0,1.83-.54,1.83-2.2v-2c0-2.08-.67-2.72-2.27-2.72Z"/><path class="cls-1" d="M345.18,35.73h5.57c3.52,0,5.25,2,5.25,5.53V52.59c0,3.58-1.73,5.53-5.25,5.53h-5.57Zm3.52,3.2v16h2c1.12,0,1.79-.57,1.79-2.17V41.1c0-1.6-.67-2.17-1.79-2.17Z"/></svg>