<svg id="Content" xmlns="http://www.w3.org/2000/svg" xmlns:xlink="http://www.w3.org/1999/xlink" viewBox="0 0 728 360"><defs><style>.cls-1{fill:url(#New_Gradient_Swatch_1);}.cls-2{fill:#fff;}.cls-3{fill:#ba9544;}</style><linearGradient id="New_Gradient_Swatch_1" x1="570.03" y1="188.21" x2="626.96" y2="188.21" gradientUnits="userSpaceOnUse"><stop offset="0" stop-color="#a88a34"/><stop offset="0.49" stop-color="#caaf67"/><stop offset="1" stop-color="#957f2e"/></linearGradient></defs><title>pine</title><polygon class="cls-1" points="621.27 207.93 592.81 217.8 570.03 198.08 575.72 168.49 604.18 158.63 626.96 178.34 621.27 207.93"/><path class="cls-2" d="M608,197.16l-9.52-22.73L589,197.16l8.94,1.78v2.55a.53.53,0,0,0,1,0v-2.55Z"/><path class="cls-3" d="M581.08,245.58V234.7h4.74c2.54,0,3.81,1.05,3.81,3.13s-1.27,3.25-3.8,3.25h-2.58v4.5Zm2.17-6.53h3q1.31,0,1.35-1.2c0-.71-.47-1.08-1.33-1.11h-3.07Z"/><path class="cls-3" d="M591.23,234.69h2.17v10.89h-2.17Z"/><path class="cls-3" d="M595.58,245.58V234.7h.72l6.82,6.82V234.7h2.17v10.88h-.8l-6.74-6.75v6.75Z"/><path class="cls-3" d="M607.52,245.58V234.71h8v2h-5.81v2.32h4.36v2h-4.36v2.48h5.8v2Z"/></svg>