<svg id="Content" xmlns="http://www.w3.org/2000/svg" xmlns:xlink="http://www.w3.org/1999/xlink" viewBox="0 0 728 360"><defs><style>.cls-1{fill:none;}.cls-2{fill:url(#New_Gradient_Swatch_1);}.cls-3{fill:#fff;}.cls-4{fill:#ba9544;}.cls-5{clip-path:url(#clip-path);}</style><linearGradient id="New_Gradient_Swatch_1" x1="388.43" y1="186.76" x2="445.05" y2="186.76" gradientUnits="userSpaceOnUse"><stop offset="0" stop-color="#a88a34"/><stop offset="0.49" stop-color="#caaf67"/><stop offset="1" stop-color="#957f2e"/></linearGradient><clipPath id="clip-path"><rect class="cls-1" x="381.76" y="-134.34" width="208.13" height="92"/></clipPath></defs><title>sweet</title><polygon class="cls-2" points="411.95 215.72 388.43 188.56 406.99 157.8 441.99 165.95 445.05 201.75 411.95 215.72"/><path class="cls-3" d="M430.78,177a1.44,1.44,0,0,1-1-.41,1.42,1.42,0,0,1-.41-1,2.27,2.27,0,0,0-2.27-2.28h-.74a1.54,1.54,0,0,0-1.54,1.53v5.31a7.47,7.47,0,0,0-9.83.65l-1.43,1.42a7.47,7.47,0,0,0-.64,9.84h-5.31a1.52,1.52,0,0,0-1.53,1.53v.74a2.27,2.27,0,0,0,2.27,2.28,1.36,1.36,0,0,1,1,.41,1.38,1.38,0,0,1,.42,1,2.27,2.27,0,0,0,2.27,2.28h.74a1.54,1.54,0,0,0,1.54-1.53v-5.31a7.47,7.47,0,0,0,9.83-.65l1.42-1.42a7.46,7.46,0,0,0,.65-9.84h5.31a1.52,1.52,0,0,0,1.53-1.53v-.74a2.28,2.28,0,0,0-2.27-2.28"/><path class="cls-4" d="M393.58,233a4.83,4.83,0,0,1,1.53,1.07l-1.42,1.42a2.45,2.45,0,0,0-2-.86c-.85,0-1.39.2-1.63.61a.82.82,0,0,0,0,1,2.83,2.83,0,0,0,1.63.63,5.3,5.3,0,0,1,2.45.89,2.68,2.68,0,0,1,1.1,2.38,2.74,2.74,0,0,1-1.17,2.2,4.36,4.36,0,0,1-2.74.92,6.23,6.23,0,0,1-2.48-.43,5.32,5.32,0,0,1-1.7-1.13l1.42-1.42a3.34,3.34,0,0,0,2.41,1q1.42,0,1.77-.6a1.11,1.11,0,0,0,0-1.21c-.23-.4-.82-.65-1.77-.74a5.89,5.89,0,0,1-2.34-.78,2.36,2.36,0,0,1-1.06-2.2,2.65,2.65,0,0,1,1.21-2.27,4.22,4.22,0,0,1,2.48-.85A5.87,5.87,0,0,1,393.58,233Z"/><path class="cls-4" d="M403.62,235.51l-2.12,7.8h-2.13l-2.85-10.64h2.27l1.85,7.23,1.92-7.23h2.2l1.85,7.23,1.84-7.23h2.27l-2.84,10.64h-2.13Z"/><path class="cls-4" d="M412.27,243.31V232.67h7.82v2H414.4v2.27h4.26v2H414.4v2.42h5.67v2Z"/><path class="cls-4" d="M422.2,243.31V232.67H430v2h-5.69v2.27h4.27v2h-4.27v2.42H430v2Z"/><path class="cls-4" d="M440.85,232.67v2H437.3v8.66h-2.12v-8.66h-3.55v-2Z"/><g class="cls-5"><image id="SmallTopDown-8383-DaytimeCBD.psd" width="1500" height="1261" transform="translate(363.32 -154.62) scale(0.13)" xlink:href="../../../../../../Dropbox%20(Revolution%20Strategy)/Rocio%20Ugarte/Clients/Namaste/Digital%20Ads/_Flight%202:Phase%202%20Terpene/1.%20Animated%20w:%20Packaging/8.%20Expandable%20Unit%20728%20x%2090:728%20x%20360/728%20x%2090_728%20x%20360V2_Folder/Links/SmallTopDown-8383-DaytimeCBD.png"/></g></svg>