<svg xmlns="http://www.w3.org/2000/svg" xmlns:xlink="http://www.w3.org/1999/xlink" width="727.99955" height="90" viewBox="0 0 727.99955 90"><defs><style>.cls-1{fill:#ba9544;}.cls-2{fill:#fff;stroke:#ba9544;stroke-miterlimit:10;stroke-width:0.5px;}.cls-3{clip-path:url(#clip-path);}</style><clipPath id="clip-path"><polygon class="cls-1" points="221.661 59.938 228.27 69.3 228.4 69.311 228.4 50.41 228.27 50.405 221.661 59.938"/></clipPath></defs><title>CBD - Shishkaberry</title><g id="Content"><polygon class="cls-2" points="359.055 50.88 228.126 50.384 221.517 59.915 228.126 69.277 359.055 69.054 365.004 59.968 359.055 50.88"/><polygon class="cls-1" points="221.661 59.938 228.27 69.3 228.4 69.311 228.4 50.41 228.27 50.405 221.661 59.938"/><g class="cls-3"><rect class="cls-1" x="220.19889" y="48.94419" width="9.65939" height="21.82797"/></g><path class="cls-1" d="M298.43866,63.06105a3.20617,3.20617,0,0,1,2.27929-5.48926,3.46647,3.46647,0,0,1,2.35547.85449l-.85547.93555a2.36246,2.36246,0,0,0-1.5-.5127,1.88542,1.88542,0,0,0-1.39062.53809A1.86647,1.86647,0,0,0,298.8,60.75538a1.9174,1.9174,0,0,0,.53321,1.41895,1.89778,1.89778,0,0,0,1.39453.52539,2.29572,2.29572,0,0,0,1.49023-.50879l.85547.93652a3.4607,3.4607,0,0,1-2.35547.8545A3.11913,3.11913,0,0,1,298.43866,63.06105Z"/><path class="cls-1" d="M309.00506,60.60109a1.82057,1.82057,0,0,1-1.043,3.38476l-3.60547-.0039V57.5757h3.4004q1.6201.09375,1.709,1.88476A1.33956,1.33956,0,0,1,309.00506,60.60109Zm-3.36328-.457h1.79492a.7237.7237,0,0,0,.79492-.79883c-.01367-.31348-.27539-.47852-.78125-.4961h-1.80859Zm0,2.83789h2.09375a.83748.83748,0,0,0,.92383-.92774c-.01367-.41015-.31836-.624-.91016-.64062h-2.10742Z"/><path class="cls-1" d="M311.17694,63.982v-6.415h2.4707q2.99121,0,2.99023,3.21,0,3.20508-2.99023,3.20508Zm2.4707-1.27832q1.70508-.00439,1.709-1.92676-.00585-1.92335-1.709-1.92383h-1.18945v3.85059Z"/><path class="cls-1" d="M318.06952,59.89406a.62247.62247,0,0,1,.46289-.17286.64465.64465,0,0,1,.47851.17286.58911.58911,0,0,1,.16992.42968.57927.57927,0,0,1-.16992.42676.73366.73366,0,0,1-.9414,0,.57924.57924,0,0,1-.16993-.42676A.58908.58908,0,0,1,318.06952,59.89406Zm0,3.05957a.62247.62247,0,0,1,.46289-.17285.64465.64465,0,0,1,.47851.17285.58911.58911,0,0,1,.16992.42968.58307.58307,0,0,1-.16992.42774.73366.73366,0,0,1-.9414,0,.583.583,0,0,1-.16993-.42774A.58908.58908,0,0,1,318.06952,62.95363Z"/><path class="cls-1" d="M327.24139,59.4087l-2.48047,1.36817,2.48047,1.36719v.98339l-4.05273-2.22656v-.27832l4.05273-2.19629Z"/><path class="cls-1" d="M332.79217,57.57179v-.00488h1.27735v6.415h-1.27735V59.28078l-.85547.85449-.85351-.85449Z"/></g></svg>