<svg id="Content" xmlns="http://www.w3.org/2000/svg" xmlns:xlink="http://www.w3.org/1999/xlink" width="320" height="568" viewBox="0 0 320 568"><defs><style>.cls-1{fill:url(#New_Gradient_Swatch_1);}.cls-2{fill:#fff;}.cls-3{fill:#ba9544;}</style><linearGradient id="New_Gradient_Swatch_1" x1="211.7401" y1="226.02881" x2="260.5199" y2="226.02881" gradientUnits="userSpaceOnUse"><stop offset="0" stop-color="#a88a34"/><stop offset="0.49324" stop-color="#caaf67"/><stop offset="1" stop-color="#957f2e"/></linearGradient></defs><title>citrus</title><polygon class="cls-1" points="248.324 204.907 223.936 204.907 211.74 226.028 223.936 247.151 248.324 247.151 260.52 226.028 248.324 204.907"/><path class="cls-2" d="M246.10649,229.01977a10.723,10.723,0,0,1-16.25466-13.9361l-.99268-.85216a12.02959,12.02959,0,0,0,18.24,15.64044Z"/><path class="cls-2" d="M228.65925,222.67112a9.74473,9.74473,0,0,0,3.02565,6.04677l5.76346-6.72215Z"/><path class="cls-2" d="M232.35122,229.28812a9.74838,9.74838,0,0,0,6.34365,2.07149l-.66632-8.69165Z"/><path class="cls-2" d="M230.56824,215.69786a9.74383,9.74383,0,0,0-1.96724,6.09889l8.33357-.64138Z"/><path class="cls-2" d="M245.38826,228.4049l-6.46606-5.54361.64593,8.42875a9.74017,9.74017,0,0,0,5.82013-2.88514"/><path class="cls-2" d="M237.40824,220.429c.04306-.5462.349-.893.69579-.92016.34449-.02946.60059.26971.55752.81591a1.8576,1.8576,0,0,1-.70484,1.04028,1.20193,1.20193,0,0,1-.54847-.936"/><path class="cls-2" d="M239.667,220.95024c.53033-.15636.87935.0272.92242.36943.04306.34-.23571.70939-.76377.86577a1.223,1.223,0,0,1-1.0403-.33543s.35131-.74339.88165-.89977"/><path class="cls-2" d="M240.64716,237.84334a1.13163,1.13163,0,1,1-2.26187.07933c-.02041-.62327,1.06747-1.85846,1.06747-1.85846s1.174,1.15587,1.1944,1.77913"/><path class="cls-2" d="M240.24443,237.1063a.31758.31758,0,0,1-.272.35357l-.94055.034a.31888.31888,0,0,1-.29463-.33316,3.40413,3.40413,0,0,0,.102-1.80406c-.36036-1.072-2.87153-1.9151-2.71514-1.91964l5.17192-.36263a3.74006,3.74006,0,0,0-1.39156,2.27548,2.359,2.359,0,0,0,.34,1.75645"/><path class="cls-3" d="M213.9707,274.63184a4.48356,4.48356,0,0,1,3.1875-7.67579,4.84857,4.84857,0,0,1,3.293,1.19532L219.25586,269.46a3.30264,3.30264,0,0,0-2.09766-.71777,2.63667,2.63667,0,0,0-1.94531.7539,2.60394,2.60394,0,0,0-.7373,1.91211,2.68556,2.68556,0,0,0,.74707,1.9834,2.64191,2.64191,0,0,0,1.94726.73535,3.21622,3.21622,0,0,0,2.08594-.71093l1.19531,1.30859a4.83464,4.83464,0,0,1-3.293,1.19531A4.36014,4.36014,0,0,1,213.9707,274.63184Z"/><path class="cls-3" d="M222.38184,266.9502H224.168v8.96972h-1.78613Z"/><path class="cls-3" d="M233.28223,266.95605v1.67286H230.294v7.291h-1.793v-7.291h-2.98731v-1.67286Z"/><path class="cls-3" d="M240.01074,272.01172l2.23535,3.9082h-2.05566l-2.14551-3.70508h-1.63769v3.70508h-1.792v-8.96387h3.90821q3.13623,0,3.13672,2.58106A2.31854,2.31854,0,0,1,240.01074,272.01172Zm-3.60351-1.4707H238.918q1.081-.01758,1.11133-.98536-.03077-.88476-1.09375-.92089h-2.52832Z"/><path class="cls-3" d="M244.834,266.95605v5.19922a1.79686,1.79686,0,0,0,.59766,1.49317,2.57046,2.57046,0,0,0,2.98731,0,1.79689,1.79689,0,0,0,.59765-1.49317v-5.19922h1.793v5.67676a2.971,2.971,0,0,1-1.10547,2.33106,4.5164,4.5164,0,0,1-5.55762,0,2.97106,2.97106,0,0,1-1.10546-2.33106v-5.67676Z"/><path class="cls-3" d="M257.59863,267.25488a4.17372,4.17372,0,0,1,1.28418.89649l-1.19531,1.19531a2.05675,2.05675,0,0,0-1.67285-.71777q-1.0752,0-1.375.50781a.70017.70017,0,0,0,0,.86719,2.36817,2.36817,0,0,0,1.375.53711,4.45608,4.45608,0,0,1,2.06152.74707,2.24613,2.24613,0,0,1,.92676,2.00195,2.29785,2.29785,0,0,1-.98926,1.85254,3.61922,3.61922,0,0,1-2.30371.77734,5.32288,5.32288,0,0,1-2.08594-.3584,4.52861,4.52861,0,0,1-1.43359-.956l1.19434-1.19531a2.84153,2.84153,0,0,0,2.03222.83593q1.19532,0,1.49121-.50781a.94544.94544,0,0,0,0-1.01562q-.29589-.50831-1.49121-.62793a4.81408,4.81408,0,0,1-1.97168-.65723,1.98262,1.98262,0,0,1-.89648-1.85254,2.23085,2.23085,0,0,1,1.01855-1.90918,3.59449,3.59449,0,0,1,2.09473-.71973A5.00754,5.00754,0,0,1,257.59863,267.25488Z"/></svg>