<svg id="Content" xmlns="http://www.w3.org/2000/svg" width="320" height="50" viewBox="0 0 320 50"><defs><style>.cls-1{fill:#ba9544;}</style></defs><title>Frame1 - Daytime CBD</title><path class="cls-1" d="M143.17383,22.48486h2.25683c1.42676,0,2.12745.79151,2.12745,2.24414v4.59131c0,1.45264-.70069,2.24365-2.12745,2.24365h-2.25683Zm1.42676,1.29737v6.48486h.8042c.4541,0,.72656-.2334.72656-.88232V24.66406c0-.64844-.27246-.88183-.72656-.88183Z"/><path class="cls-1" d="M154.20068,31.564h-1.43994l-.24609-1.647h-1.751l-.24658,1.647H149.207l1.45264-9.0791h2.08838Zm-3.25537-2.87939h1.37451l-.6875-4.59131Z"/><path class="cls-1" d="M156.27783,28.55469l-1.80273-6.06983h1.4917l1.08935,4.1377,1.08936-4.1377h1.3623l-1.80322,6.06983V31.564h-1.42676Z"/><path class="cls-1" d="M160.26172,22.48486h4.41016v1.29737h-1.4917V31.564h-1.42676V23.78223h-1.4917Z"/><path class="cls-1" d="M166.41211,22.48486h1.42627V31.564h-1.42627Z"/><path class="cls-1" d="M173.27441,28.93115l.97266-6.44629h1.98438V31.564h-1.34913V25.05322L173.897,31.564h-1.34912L171.48438,25.144V31.564h-1.24512v-9.0791h1.98437Z"/><path class="cls-1" d="M180.07324,26.311h1.9585v1.29687h-1.9585v2.65918h2.46436V31.564h-3.89112v-9.0791h3.89112v1.29737h-2.46436Z"/><path class="cls-1" d="M192.3208,28.17871v1.20606c0,1.45312-.72656,2.2832-2.12695,2.2832-1.40088,0-2.12744-.83008-2.12744-2.2832V24.66406c0-1.45263.72656-2.28271,2.12744-2.28271,1.40039,0,2.12695.83008,2.12695,2.28271v.88184h-1.34912v-.97266c0-.64844-.28516-.895-.73926-.895-.45361,0-.73926.24658-.73926.895v4.90235c0,.64892.28565.88232.73926.88232.4541,0,.73926-.2334.73926-.88232V28.17871Z"/><path class="cls-1" d="M198.83447,24.57324v.32422a1.78355,1.78355,0,0,1-.9209,1.82861,1.83624,1.83624,0,0,1,1.06348,1.94581v.73925a1.92992,1.92992,0,0,1-2.166,2.15283h-2.24366v-9.0791h2.15283C198.19873,22.48486,198.83447,23.17236,198.83447,24.57324Zm-2.84082-.791v2.39941h.55811c.53174,0,.856-.23389.856-.96v-.50586c0-.64844-.2207-.93359-.72656-.93359Zm0,3.69629v2.78857h.81739c.48,0,.73925-.2207.73925-.895v-.791c0-.84326-.27246-1.10253-.9209-1.10253Z"/><path class="cls-1" d="M201.21,22.48486h2.25635c1.42676,0,2.12744.79151,2.12744,2.24414v4.59131c0,1.45264-.70068,2.24365-2.12744,2.24365H201.21Zm1.42627,1.29737v6.48486h.8042c.4541,0,.72656-.2334.72656-.88232V24.66406c0-.64844-.27246-.88183-.72656-.88183Z"/></svg>