<svg id="Content" xmlns="http://www.w3.org/2000/svg" width="300" height="600" viewBox="0 0 300 600"><defs><style>.cls-1{fill:#fff;stroke:#ba9544;stroke-miterlimit:10;stroke-width:0.5px;}.cls-2{fill:#ba9544;}</style></defs><title>THC - Sensi Star</title><polygon class="cls-1" points="242.819 265.692 56.736 264.987 47.343 278.533 56.736 291.838 242.819 291.522 251.273 278.608 242.819 265.692"/><polygon class="cls-2" points="56.872 264.987 47.479 278.533 56.872 291.839 85.39 291.839 85.486 264.987 56.872 264.987"/><path class="cls-2" d="M163.24219,274.2476v1.70019h-3.03711V283.358h-1.82227v-7.41016H155.3457V274.2476Z"/><path class="cls-2" d="M164.59668,283.358V274.2476H166.419v3.64453h4.24511v-3.65039h1.82227v9.11035l-1.82227.00586v-3.76563H166.419V283.358Z"/><path class="cls-2" d="M175.31348,282.04935a4.55728,4.55728,0,0,1,3.24023-7.80175,4.931,4.931,0,0,1,3.34668,1.21484l-1.21484,1.33008a3.36112,3.36112,0,0,0-2.13184-.72852,2.59585,2.59585,0,0,0-2.72656,2.708,2.73216,2.73216,0,0,0,.75879,2.01758,2.6887,2.6887,0,0,0,1.98047.74609,3.26,3.26,0,0,0,2.11914-.72266l1.21484,1.33008a4.9106,4.9106,0,0,1-3.34668,1.21485A4.43078,4.43078,0,0,1,175.31348,282.04935Z"/><path class="cls-2" d="M183.94141,277.54935a.88086.88086,0,0,1,.65625-.24609.91248.91248,0,0,1,.67968.24609.83283.83283,0,0,1,.24317.60938.82214.82214,0,0,1-.24317.60742,1.03584,1.03584,0,0,1-1.33593,0,.82214.82214,0,0,1-.24317-.60742A.83283.83283,0,0,1,183.94141,277.54935Zm0,4.34766a.88407.88407,0,0,1,.65625-.24512.91583.91583,0,0,1,.67968.24512.83571.83571,0,0,1,.24317.61133.82524.82524,0,0,1-.24317.60742,1.04223,1.04223,0,0,1-1.33593,0,.82524.82524,0,0,1-.24317-.60742A.83571.83571,0,0,1,183.94141,281.897Z"/><path class="cls-2" d="M193.6416,274.2476v-.00586H195.458V283.358H193.6416v-6.68067l-1.21484,1.21485-1.21485-1.21485Z"/><path class="cls-2" d="M197.27441,278.93021a5.51358,5.51358,0,0,1,.94141-3.42187,3.07322,3.07322,0,0,1,2.52051-1.25391,3.81914,3.81914,0,0,1,2.55078.9043l-.91113,1.21484a3.20682,3.20682,0,0,0-1.56055-.36426,1.61061,1.61061,0,0,0-1.25781.51661,2.44566,2.44566,0,0,0-.52246,1.54882,2.82422,2.82422,0,0,1,1.82226-.79,3.04556,3.04556,0,0,1,2.33887.81934,3.137,3.137,0,0,1,.75879,2.2168,2.9811,2.9811,0,0,1-.85059,2.15625,3.21788,3.21788,0,0,1-2.42969.88086,3.04857,3.04857,0,0,1-2.61132-1.23243A5.65186,5.65186,0,0,1,197.27441,278.93021Zm2.00391,1.39746q.06006,1.27,1.458,1.32422,1.396-.05419,1.457-1.209a1.37527,1.37527,0,0,0-1.51856-1.51856A1.35326,1.35326,0,0,0,199.27832,280.32767Z"/><path class="cls-2" d="M205.5957,280.9224v-1.208h3.76563v1.208Z"/><path class="cls-2" d="M214.21484,274.2476a3.43738,3.43738,0,0,1,2.18946.67089,2.39291,2.39291,0,0,1,.85254,2.002,4.17212,4.17212,0,0,1-1.21094,2.89062,8.39788,8.39788,0,0,1-2.00195,1.72461h3.28027V283.358h-6.14063v-1.82227q.60792,0,2.30762-1.51758a8.71316,8.71316,0,0,0,1.97461-2.15625,1.48579,1.48579,0,0,0-.03027-1.27539q-.3047-.63867-1.458-.63867a2.09573,2.09573,0,0,0-1.70117.72949l-1.21387-1.21484a5.01959,5.01959,0,0,1,1.18359-.91113A4.56831,4.56831,0,0,1,214.21484,274.2476Z"/><path class="cls-2" d="M219.94141,282.04935a6.24491,6.24491,0,0,1,0-6.49609,2.91624,2.91624,0,0,1,4.8623,0,6.26917,6.26917,0,0,1,0,6.5,2.915,2.915,0,0,1-4.8623-.00391Zm2.43554-.3916q.60206,0,1.05664-.81933a4.769,4.769,0,0,0,0-4.07032q-.45557-.82031-1.06836-.82031-.602,0-1.05664.82031a4.76906,4.76906,0,0,0,0,4.07032Q221.76416,281.65726,222.377,281.65775Z"/><path class="cls-2" d="M227.87988,278.09232a2.34609,2.34609,0,1,1,1.62793.65625A2.20882,2.20882,0,0,1,227.87988,278.09232Zm1.60938-.4248a1.08678,1.08678,0,0,0,.832-.34668,1.31089,1.31089,0,0,0,0-1.72168,1.09754,1.09754,0,0,0-.83789-.34278,1.0807,1.0807,0,0,0-.82617.34278,1.31086,1.31086,0,0,0,0,1.72168A1.08531,1.08531,0,0,0,229.48926,277.66752Zm-.48633,5.69043,5.16309-9.11035h1.48144l-5.15039,9.11035Zm4.52539-.60059a2.33466,2.33466,0,1,1,1.61523.64941A2.19317,2.19317,0,0,1,233.52832,282.75736Zm1.585-.44434a1.06647,1.06647,0,0,0,.81445-.33593,1.27186,1.27186,0,0,0,0-1.67676,1.07419,1.07419,0,0,0-.82031-.33691,1.05682,1.05682,0,0,0-.80762.33691,1.26893,1.26893,0,0,0,0,1.67676A1.06293,1.06293,0,0,0,235.11328,282.313Z"/></svg>