<svg id="Content" xmlns="http://www.w3.org/2000/svg" width="300" height="600" viewBox="0 0 300 600"><defs><style>.cls-1{fill:#ba9544;}</style></defs><title>Frame1 - Ultra Sour</title><path class="cls-1" d="M82.2124,368.85636v16.90039c0,1.56445.68848,2.12695,1.78369,2.12695s1.7837-.5625,1.7837-2.12695V368.85636h3.25488V385.537c0,3.50489-1.75244,5.50879-5.13233,5.50879s-5.13281-2.0039-5.13281-5.50879V368.85636Z"/><path class="cls-1" d="M94.69629,368.85636h3.44238V387.6337h5.66455v3.12989H94.69629Z"/><path class="cls-1" d="M107.61816,368.85636h10.64063v3.12988h-3.59912v18.77735h-3.44238V371.98624h-3.59913Z"/><path class="cls-1" d="M130.273,390.76359a6.74169,6.74169,0,0,1-.313-2.69141V384.6298c0-2.03418-.68848-2.78516-2.25293-2.78516h-1.18945v8.91895H123.0752V368.85636H128.27c3.56787,0,5.10156,1.6582,5.10156,5.03906v1.72071c0,2.2539-.72021,3.7246-2.25342,4.44433,1.7212.71973,2.28467,2.37793,2.28467,4.66309v3.37988a6.45285,6.45285,0,0,0,.37549,2.66016Zm-3.75537-18.77735v6.72852h1.3457c1.2832,0,2.06543-.56348,2.06543-2.31543v-2.16016c0-1.56445-.53174-2.25293-1.75244-2.25293Z"/><path class="cls-1" d="M150.11084,390.76359h-3.47363l-.59473-3.97461h-4.2251l-.59472,3.97461H138.062l3.50537-21.90723H146.606Zm-7.855-6.94825h3.31738l-1.65869-11.07812Z"/><path class="cls-1" d="M167.81934,368.60636c3.34863,0,5.06933,2.00293,5.06933,5.50781v.68848h-3.2539v-.90723c0-1.56445-.627-2.16015-1.72168-2.16015s-1.72168.5957-1.72168,2.16015c0,4.50586,6.72851,5.35156,6.72851,11.61035,0,3.50489-1.75195,5.50879-5.13183,5.50879s-5.13282-2.0039-5.13282-5.50879v-1.3457h3.25489v1.56543c0,1.56445.68847,2.12695,1.7832,2.12695,1.0957,0,1.78516-.5625,1.78516-2.12695,0-4.50781-6.7295-5.35156-6.7295-11.61133C162.749,370.60929,164.4707,368.60636,167.81934,368.60636Z"/><path class="cls-1" d="M177.9248,374.11417c0-3.50488,1.84668-5.50781,5.22657-5.50781s5.22558,2.00293,5.22558,5.50781v11.3916c0,3.50489-1.8457,5.50879-5.22558,5.50879s-5.22657-2.0039-5.22657-5.50879Zm3.44239,11.61133c0,1.56445.68847,2.1582,1.78418,2.1582,1.09472,0,1.78418-.59375,1.78418-2.1582V373.89542c0-1.56445-.68946-2.16015-1.78418-2.16015-1.09571,0-1.78418.5957-1.78418,2.16015Z"/><path class="cls-1" d="M197.2002,368.85636v16.90039c0,1.56445.68847,2.12695,1.78418,2.12695,1.09472,0,1.7832-.5625,1.7832-2.12695V368.85636h3.25488V385.537c0,3.50489-1.75293,5.50879-5.13184,5.50879-3.38085,0-5.13281-2.0039-5.13281-5.50879V368.85636Z"/><path class="cls-1" d="M216.88086,390.76359a6.74561,6.74561,0,0,1-.3125-2.69141V384.6298c0-2.03418-.68848-2.78516-2.25293-2.78516H213.126v8.91895h-3.44239V368.85636h5.19532c3.56738,0,5.10156,1.6582,5.10156,5.03906v1.72071c0,2.2539-.7207,3.7246-2.25391,4.44433,1.72071.71973,2.28516,2.37793,2.28516,4.66309v3.37988a6.46126,6.46126,0,0,0,.375,2.66016ZM213.126,371.98624v6.72852h1.3457c1.2832,0,2.06543-.56348,2.06543-2.31543v-2.16016c0-1.56445-.53125-2.25293-1.752-2.25293Z"/></svg>