<?xml version="1.0" encoding="utf-8"?>
<!-- Generator: Adobe Illustrator 22.1.0, SVG Export Plug-In . SVG Version: 6.00 Build 0)  -->
<svg version="1.1" id="Layer_1" xmlns="http://www.w3.org/2000/svg" xmlns:xlink="http://www.w3.org/1999/xlink" x="0px" y="0px"
	 viewBox="0 0 72.2 63.4" style="enable-background:new 0 0 72.2 63.4;" xml:space="preserve">
<style type="text/css">
	.st0{fill:#D3B372;}
</style>
<title>frame2</title>
<path class="st0" d="M19,10.9c0,0.9-0.2,1.8-0.8,2.5c-0.4,0.5-0.9,0.8-1.5,1c-0.4,0.1-0.8,0.2-1.2,0.2c-0.7,0-1.5-0.2-2.1-0.6
	c-0.5-0.4-0.9-0.8-1.1-1.4c-0.3-0.6-0.4-1.3-0.5-2l2-0.1c0,0.7,0.3,1.3,0.7,1.8c0.2,0.3,0.5,0.4,0.9,0.4c0.5,0,0.9-0.3,1.1-0.7
	c0.2-0.3,0.2-0.6,0.2-0.9c0-0.7-0.3-1.3-0.8-1.8c-0.4-0.4-1.1-1-1.9-1.8c-0.6-0.5-1.1-1.2-1.5-1.9c-0.3-0.6-0.5-1.3-0.5-2
	c-0.1-1.1,0.4-2.2,1.3-2.9C14,0.2,14.7,0,15.4,0c0.7,0,1.4,0.2,2,0.5c0.4,0.3,0.8,0.7,1,1.1c0.3,0.5,0.4,1.1,0.5,1.6l-2.1,0.4
	c0-0.5-0.2-1-0.5-1.4c-0.2-0.2-0.5-0.4-0.9-0.4c-0.4,0-0.7,0.2-0.9,0.5c-0.2,0.3-0.3,0.7-0.2,1c0,0.7,0.3,1.4,0.8,2
	c0.3,0.3,0.6,0.6,1,0.9c0.5,0.4,0.8,0.7,1,0.9c0.5,0.5,0.9,1,1.2,1.6c0.1,0.2,0.2,0.4,0.3,0.7C18.9,9.9,19,10.4,19,10.9z"/>
<path class="st0" d="M25.8,14.4h-2.1V0.2h2.1V14.4z"/>
<path class="st0" d="M33,0.2l2.8,9.6V0.2H38v14.2h-2.3l-3-9.1v9.1h-2.1V0.2H33z"/>
<path class="st0" d="M46.2,14.6c-1.9,0-3.4-1.5-3.4-3.4c0,0,0,0,0,0V3.4c0-0.9,0.3-1.8,1-2.4c0.6-0.6,1.5-1,2.4-1
	c0.9,0,1.8,0.3,2.4,1c0.6,0.6,1,1.5,1,2.4v1.6h-2.2V3.4c0-0.7-0.6-1.2-1.2-1.2c-0.3,0-0.6,0.1-0.9,0.4c-0.2,0.2-0.4,0.5-0.4,0.9v7.8
	c0,0.7,0.5,1.2,1.2,1.2c0,0,0,0,0,0c0.3,0,0.6-0.1,0.9-0.4c0.2-0.2,0.4-0.5,0.4-0.9v-2h2.2v2C49.6,13.1,48.1,14.6,46.2,14.6
	C46.2,14.6,46.2,14.6,46.2,14.6L46.2,14.6z"/>
<path class="st0" d="M54.2,14.4V0.2h6.1v2.2h-4v3.9h2.9v2.2h-2.9v3.9h4v2.2L54.2,14.4z"/>
<path class="st0" d="M2.8,35.5l-0.5,3.3H0l2.4-14.2h3l2.4,14.2H5.5L5,35.5H2.8z M3.9,27.8l-0.8,5.6h1.6L3.9,27.8z"/>
<path class="st0" d="M14.9,24.6l2.9,9.6v-9.6h2.1v14.2h-2.3l-3-9.1v9.1h-2.1V24.6H14.9z"/>
<path class="st0" d="M28,39c-1.9,0-3.4-1.5-3.4-3.4c0,0,0,0,0,0v-7.8c0-1.9,1.5-3.4,3.4-3.4c1.9,0,3.4,1.5,3.4,3.4v1.6h-2.2v-1.7
	c0-0.7-0.6-1.2-1.2-1.2c-0.3,0-0.6,0.1-0.9,0.4c-0.2,0.2-0.4,0.5-0.4,0.9v7.8c0,0.7,0.5,1.2,1.2,1.2c0,0,0,0,0,0
	c0.3,0,0.6-0.1,0.9-0.4c0.2-0.2,0.4-0.5,0.4-0.9v-2h2.2v2C31.4,37.5,29.9,39,28,39C28,39,28,39,28,39z"/>
<path class="st0" d="M38.2,38.8h-2.1V24.6h2.1V38.8z"/>
<path class="st0" d="M43,38.8V24.6h6.1v2.2h-4v3.9h2.9v2.2h-2.9v3.9h4v2.2H43z"/>
<path class="st0" d="M55.9,24.6l2.9,9.6v-9.6h2.1v14.2h-2.3l-3-9.1v9.1h-2.1V24.6H55.9z"/>
<path class="st0" d="M67.8,26.7h-2.3v-2.2h6.7v2.2h-2.3v12.1h-2.1V26.7z"/>
<path class="st0" d="M13.1,51.1h-2.3V49h6.7v2.2h-2.3v12.1h-2.1V51.1z"/>
<path class="st0" d="M24.3,63.2h-2.1V49h2.1V63.2z"/>
<path class="st0" d="M31.2,63.2h-2.1V49h3.1l2,10.2L36.1,49h3v14.2h-2.1v-9l-1.9,9h-1.7l-2.1-8.9L31.2,63.2z"/>
<path class="st0" d="M43.8,63.2V49h6.1v2.2h-4V55h2.9v2.2H46v3.9h4v2.2L43.8,63.2z"/>
<path class="st0" d="M61.4,59.7c0,0.9-0.2,1.8-0.8,2.5c-0.4,0.5-0.9,0.8-1.5,1c-0.4,0.1-0.8,0.2-1.2,0.2c-0.7,0-1.5-0.2-2.1-0.6
	c-0.5-0.4-0.9-0.8-1.1-1.4c-0.3-0.6-0.4-1.3-0.5-2l2-0.1c0,0.7,0.3,1.3,0.7,1.8c0.2,0.3,0.5,0.4,0.9,0.4c0.5,0,0.9-0.3,1.1-0.7
	c0.2-0.3,0.2-0.6,0.2-0.9c0-0.7-0.3-1.3-0.8-1.8c-0.4-0.4-1.1-1-1.9-1.8c-0.6-0.5-1.1-1.2-1.5-1.9c-0.3-0.6-0.5-1.3-0.5-2
	c-0.1-1.1,0.4-2.2,1.3-2.9c0.6-0.4,1.3-0.6,2-0.6c0.7,0,1.4,0.2,2,0.5c0.4,0.3,0.8,0.7,1,1.1c0.3,0.5,0.4,1.1,0.5,1.6l-2.1,0.4
	c0-0.5-0.2-1-0.5-1.4c-0.2-0.2-0.5-0.4-0.9-0.4c-0.4,0-0.7,0.2-0.9,0.5c-0.2,0.3-0.3,0.7-0.2,1c0,0.7,0.3,1.4,0.8,2
	c0.3,0.3,0.6,0.6,1,0.9c0.5,0.4,0.8,0.7,1,0.9c0.5,0.5,0.9,1,1.2,1.6c0.1,0.2,0.2,0.4,0.3,0.7C61.3,58.7,61.4,59.2,61.4,59.7z"/>
</svg>
