<?xml version="1.0" encoding="utf-8"?>
<!-- Generator: Adobe Illustrator 22.1.0, SVG Export Plug-In . SVG Version: 6.00 Build 0)  -->
<svg version="1.1" id="Layer_1" xmlns="http://www.w3.org/2000/svg" xmlns:xlink="http://www.w3.org/1999/xlink" x="0px" y="0px"
	 viewBox="0 0 76.8 39" style="enable-background:new 0 0 76.8 39;" xml:space="preserve">
<style type="text/css">
	.st0{fill:#D3B372;}
</style>
<title>frame3</title>
<path class="st0" d="M3.4,14.6c-0.9,0-1.8-0.3-2.4-1c-0.6-0.6-1-1.5-1-2.4v-11h2.1v11c0,0.3,0.1,0.6,0.4,0.9
	c0.2,0.2,0.5,0.4,0.9,0.4c0.7,0,1.2-0.5,1.2-1.2c0,0,0,0,0,0v-11h2.2v11c0,0.9-0.3,1.8-1,2.4C5.2,14.2,4.3,14.6,3.4,14.6z"/>
<path class="st0" d="M14,0.2l2.9,9.6V0.2H19v14.2h-2.3l-3-9.1v9.1h-2.1V0.2H14z"/>
<path class="st0" d="M27.2,14.6c-1.9,0-3.4-1.5-3.4-3.4c0,0,0,0,0,0V3.4c0-0.9,0.3-1.8,1-2.4c0.6-0.6,1.5-1,2.4-1
	c0.9,0,1.8,0.3,2.4,1c0.6,0.6,1,1.5,1,2.4v1.6h-2.2V3.4c0-0.7-0.6-1.2-1.2-1.2c-0.3,0-0.6,0.1-0.9,0.4c-0.2,0.2-0.4,0.5-0.4,0.9v7.8
	c0,0.7,0.5,1.2,1.2,1.2c0,0,0,0,0,0c0.3,0,0.6-0.1,0.9-0.4c0.2-0.2,0.4-0.5,0.4-0.9v-2h2.2v2C30.6,13.1,29.1,14.6,27.2,14.6
	C27.2,14.6,27.2,14.6,27.2,14.6z"/>
<path class="st0" d="M38.6,0c0.9,0,1.8,0.3,2.4,1c0.6,0.6,1,1.5,1,2.4v7.8c0,1.9-1.5,3.4-3.4,3.4c-1.9,0-3.4-1.5-3.4-3.4
	c0,0,0,0,0,0V3.4c0-0.9,0.3-1.8,1-2.4C36.8,0.3,37.7,0,38.6,0z M39.8,3.4c0-0.7-0.5-1.2-1.2-1.2c0,0,0,0,0,0c-0.3,0-0.6,0.1-0.9,0.4
	c-0.2,0.2-0.4,0.5-0.4,0.9v7.8c0,0.3,0.1,0.6,0.4,0.9c0.2,0.2,0.5,0.4,0.9,0.4c0.7,0,1.2-0.5,1.2-1.2c0,0,0,0,0,0V3.4z"/>
<path class="st0" d="M48.9,14.4L46.3,0.2h2.3l1.8,11.1l1.8-11.1h2.3l-2.6,14.2H48.9z"/>
<path class="st0" d="M59.1,14.4V0.2h6.1v2.2h-4v3.9h2.9v2.2h-2.9v3.9h4v2.2L59.1,14.4z"/>
<path class="st0" d="M73,0.2c1-0.1,2,0.3,2.6,1c0.5,0.7,0.8,1.5,0.7,2.4v2.1c0,1-0.4,1.9-1.1,2.6l1.6,6.2h-2.3l-1.3-5.4h-1.4v5.4
	h-2.1V0.2H73z M74.3,3.6c0.1-0.6-0.3-1.1-0.9-1.2c-0.1,0-0.2,0-0.3,0h-1.3v4.6H73c0.3,0,0.6-0.1,0.9-0.4c0.2-0.2,0.4-0.5,0.4-0.9
	V3.6z"/>
<path class="st0" d="M18.4,38.8h-2.1V24.6h3.1l2,10.2l1.9-10.2h3v14.2H24v-9l-1.9,9h-1.7l-2.1-8.9L18.4,38.8z"/>
<path class="st0" d="M34.3,24.4c1.9,0,3.4,1.5,3.4,3.4c0,0,0,0,0,0v7.8c0,1.9-1.5,3.4-3.4,3.4c-1.9,0-3.4-1.5-3.4-3.4v-7.8
	C30.9,25.9,32.5,24.4,34.3,24.4z M35.5,27.8c0-0.7-0.5-1.2-1.2-1.2c0,0,0,0,0,0c-0.3,0-0.6,0.1-0.9,0.4c-0.2,0.2-0.4,0.5-0.4,0.9
	v7.8c0,0.3,0.1,0.6,0.4,0.9c0.2,0.2,0.5,0.4,0.9,0.4c0.7,0,1.2-0.5,1.2-1.2c0,0,0,0,0,0L35.5,27.8z"/>
<path class="st0" d="M45.9,24.6c1-0.1,2,0.3,2.6,1c0.5,0.7,0.8,1.5,0.7,2.4V30c0,1-0.4,1.9-1.1,2.6l1.6,6.2h-2.3l-1.3-5.4h-1.4v5.4
	h-2.1V24.6H45.9z M47.2,28c0.1-0.6-0.3-1.1-0.9-1.2c-0.1,0-0.2,0-0.3,0h-1.3v4.6H46c0.3,0,0.6-0.1,0.9-0.4c0.2-0.2,0.4-0.5,0.4-0.9
	L47.2,28z"/>
<path class="st0" d="M54.5,38.8V24.6h6.1v2.2h-4v3.9h2.9v2.2h-2.9v3.9h4v2.2H54.5z"/>
</svg>
