<svg id="Content" xmlns="http://www.w3.org/2000/svg" xmlns:xlink="http://www.w3.org/1999/xlink" width="728" height="360" viewBox="0 0 728 360"><defs><style>.cls-1{fill:url(#New_Gradient_Swatch_1);}.cls-2{fill:#fff;}.cls-3{fill:#ba9544;}</style><linearGradient id="New_Gradient_Swatch_1" x1="193.3789" y1="174.91755" x2="252.67639" y2="174.91755" gradientUnits="userSpaceOnUse"><stop offset="0" stop-color="#a88a34"/><stop offset="0.49324" stop-color="#caaf67"/><stop offset="1" stop-color="#957f2e"/></linearGradient></defs><title>diesel</title><polygon class="cls-1" points="244.681 154.956 219.958 145.467 197.129 158.88 193.379 185.093 211.536 204.368 237.925 202.191 252.676 180.199 244.681 154.956"/><path class="cls-2" d="M215.11168,167.84689a2.5298,2.5298,0,0,1,.47664-.19562,4.58234,4.58234,0,0,1,.53175-.135l.03032-.011,5.20182-1.14341a1.68363,1.68363,0,0,1,1.11035.17081l.87616.85689-1.8212,1.9066-5.80522,1.27565c-.23144-1.047-.47114-2.138-.60062-2.72489m18.0521,14.51165-2.85715-12.9963a1.94805,1.94805,0,0,0-2.1656-1.50709l1.53189-1.609.42155.3995.63646-.675a.41343.41343,0,0,0-.01655-.58412l-3.0803-2.9095a.41343.41343,0,0,0-.5841.01655l-.63646.675.50695.47941-2.04435,2.14355-1.01393-.98912-.07162-.05509a3.874,3.874,0,0,0-2.91227-.5483l-5.14671,1.13239a7.53371,7.53371,0,0,0-.90922.23419,3.09773,3.09773,0,0,0-1.66413,1.11035,1.79725,1.79725,0,0,0-.27,1.40241c.1598.71636.71634,3.25389,1.05248,4.77751.0055.03307.011.06612.01929.09919l2.85714,12.99905a1.93624,1.93624,0,0,0,2.31438,1.47128l12.53892-2.758a1.94636,1.94636,0,0,0,1.49334-2.30886"/><path class="cls-3" d="M196.07923,235.56952v-10.9043h4.19922q5.08448,0,5.085,5.45606,0,5.44774-5.085,5.44824Zm4.19922-2.17187q2.89893-.00733,2.90527-3.27637-.00732-3.26954-2.90527-3.26953h-2.01953v6.5459Z"/><path class="cls-3" d="M207.70228,224.66522h2.17187v10.9043h-2.17187Z"/><path class="cls-3" d="M212.03138,235.56952V224.67987l8.00586-.00781v2.03418h-5.82617v2.32519h4.36621v2.02637h-4.36621v2.47754h5.81152v2.03418Z"/><path class="cls-3" d="M228.131,225.03534a5.07733,5.07733,0,0,1,1.56152,1.08984l-1.45312,1.45313a2.50216,2.50216,0,0,0-2.03418-.87207q-1.30811,0-1.6709.61816a.849.849,0,0,0,0,1.05274,2.86868,2.86868,0,0,0,1.6709.65429,5.40833,5.40833,0,0,1,2.50684.90821,2.72813,2.72813,0,0,1,1.126,2.43359,2.79582,2.79582,0,0,1-1.20215,2.25195,4.40248,4.40248,0,0,1-2.80078.94434,6.46018,6.46018,0,0,1-2.53515-.43555,5.50029,5.50029,0,0,1-1.74414-1.16308l1.45312-1.45215a3.45276,3.45276,0,0,0,2.46973,1.0166q1.45313,0,1.8125-.61719a1.14886,1.14886,0,0,0,0-1.23535q-.35889-.61669-1.8125-.76269a5.86577,5.86577,0,0,1-2.39746-.79883,2.41094,2.41094,0,0,1-1.08887-2.252,2.71142,2.71142,0,0,1,1.23828-2.32128,4.36,4.36,0,0,1,2.5459-.876A6.08386,6.08386,0,0,1,228.131,225.03534Z"/><path class="cls-3" d="M231.755,235.56952V224.67987l8.00586-.00781v2.03418H233.9347v2.32519h4.36621v2.02637H233.9347v2.47754h5.81152v2.03418Z"/><path class="cls-3" d="M244.15638,224.67206v8.86328h5.81152v2.03418h-7.99121V224.67206Z"/></svg>