<svg id="Content" xmlns="http://www.w3.org/2000/svg" xmlns:xlink="http://www.w3.org/1999/xlink" viewBox="0 0 728 360"><defs><style>.cls-1{fill:url(#New_Gradient_Swatch_1);}.cls-2{fill:#fff;}.cls-3{fill:#ba9544;}</style><linearGradient id="New_Gradient_Swatch_1" x1="384.94" y1="185.05" x2="442.78" y2="185.05" gradientUnits="userSpaceOnUse"><stop offset="0" stop-color="#a88a34"/><stop offset="0.49" stop-color="#caaf67"/><stop offset="1" stop-color="#957f2e"/></linearGradient></defs><title>berry</title><polygon class="cls-1" points="408.97 155.47 384.94 183.21 403.9 214.64 439.65 206.31 442.78 169.74 408.97 155.47"/><path class="cls-2" d="M422.27,188.17a.53.53,0,1,1-.11-.74.54.54,0,0,1,.11.74m-3.16-6.69a.67.67,0,1,1,.67-.67.67.67,0,0,1-.67.67m-.66,8a.67.67,0,0,1-.66-.67.67.67,0,0,1,1.33,0,.68.68,0,0,1-.67.67m-.1-4.9a.53.53,0,0,1,.53.53.54.54,0,0,1-.53.54.55.55,0,0,1-.54-.54.54.54,0,0,1,.54-.53m-1.41,8.64a.58.58,0,1,1-1-.58.59.59,0,0,1,.79-.21.58.58,0,0,1,.22.79m-2.73-8.7a.59.59,0,0,1-.59-.59.59.59,0,1,1,.59.59M414,189a.53.53,0,1,1,.54-.53.53.53,0,0,1-.54.53m-1.72,2.39a.54.54,0,1,1,.53-.54.54.54,0,0,1-.53.54m-.6-4.21a.67.67,0,0,1-.94.07.66.66,0,0,1,.86-1,.68.68,0,0,1,.08.94m-1.66-5.49a.59.59,0,0,1,.59-.58.59.59,0,0,1,0,1.17.59.59,0,0,1-.59-.59m8.52-3.53a14,14,0,0,0,3-2.29,7.93,7.93,0,0,0-3.78.39,5.46,5.46,0,0,0,.59-2.91,3,3,0,0,0-2.18,1.73,5.4,5.4,0,0,0-.76-2.56,3.32,3.32,0,0,0-1.21,3,3,3,0,0,0-2.28-1.92,5.44,5.44,0,0,0,.53,2.78,7.72,7.72,0,0,0-4-.47,13.24,13.24,0,0,0,3.14,2.38c-3.15.68-5.35,2.43-5.35,6.1,0,5,6.3,13.23,9,13.23,3,0,9-8.24,9-13.23,0-3.83-2.38-5.59-5.76-6.19"/><path class="cls-3" d="M395.75,239.84a3.13,3.13,0,0,1,1.51,2.49,3.08,3.08,0,0,1-3.28,3.25h-6.12V234.71h5.77c1.83.11,2.8,1.17,2.9,3.2A2.25,2.25,0,0,1,395.75,239.84Zm-5.71-.77h3a1.23,1.23,0,0,0,1.34-1.36q0-.79-1.32-.84H390Zm0,4.81h3.55a1.42,1.42,0,0,0,1.57-1.57c0-.7-.54-1.06-1.54-1.09H390Z"/><path class="cls-3" d="M399.4,245.58V234.71h8v2h-5.81v2.32h4.35v2h-4.35v2.48h5.8v2Z"/><path class="cls-3" d="M416.12,240.83l2.71,4.75h-2.49l-2.6-4.5h-2v4.5h-2.17V234.7h4.74c2.54,0,3.81,1.05,3.81,3.13A2.81,2.81,0,0,1,416.12,240.83Zm-4.37-1.78h3.05q1.31,0,1.35-1.2c0-.71-.47-1.08-1.33-1.11h-3.07Z"/><path class="cls-3" d="M426.51,240.83l2.71,4.75h-2.49l-2.6-4.5h-2v4.5H420V234.7h4.74c2.54,0,3.8,1.05,3.8,3.13A2.8,2.8,0,0,1,426.51,240.83Zm-4.37-1.78h3.05c.87,0,1.32-.41,1.34-1.2s-.46-1.08-1.32-1.11h-3.07Z"/><path class="cls-3" d="M429.72,234.7h2.55l2.52,3.55,2.58-3.55h2.49l-4,5.44v5.44H433.7v-5.44Z"/><image id="SmallTopDown-8342SensiStar.psd" width="1500" height="1261" transform="translate(378.12 -154.62) scale(0.13)" xlink:href="../../../../../../Dropbox%20(Revolution%20Strategy)/Rocio%20Ugarte/Clients/Namaste/Digital%20Ads/_Flight%202:Phase%202%20Terpene/1.%20Animated%20w:%20Packaging/8.%20Expandable%20Unit%20728%20x%2090:728%20x%20360/728%20x%2090_728%20x%20360V2_Folder/Links/SmallTopDown-8268-Shishkaberry.png"/></svg>