<svg id="Content" xmlns="http://www.w3.org/2000/svg" xmlns:xlink="http://www.w3.org/1999/xlink" width="728" height="360" viewBox="0 0 728 360"><defs><style>.cls-1{fill:#ba9544;}.cls-2{fill:#fff;stroke:#ba9544;stroke-miterlimit:10;stroke-width:0.5px;}.cls-3{clip-path:url(#clip-path);}</style><clipPath id="clip-path"><polygon class="cls-1" points="377.206 219.371 388.948 236.003 389.179 236.024 389.179 202.443 388.948 202.435 377.206 219.371"/></clipPath></defs><title>CBD - Shishkaberry</title><polygon class="cls-2" points="621.295 203.279 388.693 202.398 376.95 219.331 388.693 235.963 621.295 235.567 631.863 219.424 621.295 203.279"/><polygon class="cls-1" points="377.206 219.371 388.948 236.003 389.179 236.024 389.179 202.443 388.948 202.435 377.206 219.371"/><g class="cls-3"><rect class="cls-1" x="374.60939" y="199.83983" width="17.16046" height="38.77866"/></g><path class="cls-1" d="M513.60646,224.91913a5.697,5.697,0,0,1,4.05078-9.75293,6.16438,6.16438,0,0,1,4.1836,1.51855l-1.51856,1.66309a4.1997,4.1997,0,0,0-2.665-.91113,3.34683,3.34683,0,0,0-2.47168.95605,3.31309,3.31309,0,0,0-.9375,2.42969,3.4111,3.4111,0,0,0,.94922,2.52051,3.36176,3.36176,0,0,0,2.47559.93457,4.08629,4.08629,0,0,0,2.64941-.90332l1.51856,1.66211a6.14212,6.14212,0,0,1-4.1836,1.51855A5.54378,5.54378,0,0,1,513.60646,224.91913Z"/><path class="cls-1" d="M532.37892,220.549a3.23423,3.23423,0,0,1-1.85254,6.01367l-6.4082-.00781V215.174h6.04395q2.87694.167,3.0371,3.34864A2.38261,2.38261,0,0,1,532.37892,220.549Zm-5.97461-.81152h3.18848a1.28634,1.28634,0,0,0,1.41211-1.41992q-.03809-.835-1.38965-.88086h-3.21094Zm0,5.041H530.124a1.4866,1.4866,0,0,0,1.63965-1.64746q-.03809-1.09424-1.61719-1.13867h-3.74219Z"/><path class="cls-1" d="M536.23537,226.55487V215.15936H540.624q5.31445,0,5.31445,5.70118,0,5.69384-5.31445,5.69433Zm4.38867-2.27051q3.02929-.00732,3.03711-3.42382-.00879-3.416-3.03711-3.416h-2.11035v6.83984Z"/><path class="cls-1" d="M548.48146,219.29315a1.10107,1.10107,0,0,1,.82031-.30761,1.143,1.143,0,0,1,.85059.30761,1.10584,1.10584,0,0,1,0,1.52246,1.30094,1.30094,0,0,1-1.6709,0,1.10584,1.10584,0,0,1,0-1.52246Zm0,5.43555a1.10108,1.10108,0,0,1,.82031-.30762,1.143,1.143,0,0,1,.85059.30762,1.04565,1.04565,0,0,1,.30371.76367,1.0298,1.0298,0,0,1-.30371.75879,1.30094,1.30094,0,0,1-1.6709,0,1.0298,1.0298,0,0,1-.30371-.75879A1.04565,1.04565,0,0,1,548.48146,224.7287Z"/><path class="cls-1" d="M564.77443,218.43085l-4.40332,2.42969,4.40332,2.42968v1.7461l-7.19727-3.95508v-.49414l7.19727-3.90235Z"/><path class="cls-1" d="M574.63673,215.1662v-.00684h2.27051v11.39551h-2.27051v-8.35156l-1.51855,1.51855-1.51855-1.51855Z"/></svg>