<svg id="Content" xmlns="http://www.w3.org/2000/svg" width="728" height="90" viewBox="0 0 728 90"><defs><style>.cls-1{fill:#ba9544;}</style></defs><title>Frame1 - Shishkaberry</title><path class="cls-1" d="M205.42873,35.47021c3.42383,0,5.18359,2.04786,5.18359,5.63184v.7041H207.2842v-.92871c0-1.59961-.63965-2.207-1.75977-2.207-1.11914,0-1.75977.60742-1.75977,2.207,0,4.6084,6.87891,5.47217,6.87891,11.87158,0,3.584-1.791,5.63184-5.24707,5.63184s-5.24707-2.04785-5.24707-5.63184v-1.376h3.32715v1.60058c0,1.59961.7041,2.17578,1.82422,2.17578s1.82324-.57617,1.82324-2.17578c0-4.6084-6.87891-5.47168-6.87891-11.87158C200.24513,37.51807,202.0049,35.47021,205.42873,35.47021Z"/><path class="cls-1" d="M219.57326,58.125h-3.52051V35.72607h3.52051v9.59961h3.999V35.72607h3.584V58.125h-3.584V48.52539h-3.999Z"/><path class="cls-1" d="M233.10841,35.72607H236.628V58.125h-3.51954Z"/><path class="cls-1" d="M247.31545,35.47021c3.42382,0,5.18359,2.04786,5.18359,5.63184v.7041h-3.32813v-.92871c0-1.59961-.63964-2.207-1.75976-2.207-1.11914,0-1.75977.60742-1.75977,2.207,0,4.6084,6.87891,5.47217,6.87891,11.87158,0,3.584-1.791,5.63184-5.24707,5.63184s-5.24707-2.04785-5.24707-5.63184v-1.376h3.32715v1.60058c0,1.59961.7041,2.17578,1.82422,2.17578s1.82324-.57617,1.82324-2.17578c0-4.6084-6.87891-5.47168-6.87891-11.87158C242.13185,37.51807,243.89162,35.47021,247.31545,35.47021Z"/><path class="cls-1" d="M261.46,58.125h-3.52051V35.72607H261.46v9.59961h3.999V35.72607h3.584V58.125h-3.584V48.52539H261.46Z"/><path class="cls-1" d="M279.60256,49.19727l-1.0879,2.04785V58.125h-3.51953V35.72607h3.51953v9.75977l4.60743-9.75977h3.5205l-4.8955,9.9834,4.8955,12.41553h-3.61621Z"/><path class="cls-1" d="M303.02638,58.125h-3.55273l-.60742-4.06348h-4.31934l-.6084,4.06348h-3.23144l3.583-22.39893h5.15234Zm-8.03125-7.10352h3.39063l-1.69531-11.32763Z"/><path class="cls-1" d="M318.57814,40.87744v.79981c0,2.30468-.7041,3.77636-2.27246,4.5122,1.88867.73633,2.625,2.43262,2.625,4.79981v1.82422c0,3.45605-1.82422,5.31152-5.34375,5.31152H308.0508V35.72607h5.31152C317.01076,35.72607,318.57814,37.42236,318.57814,40.87744Zm-7.00683-1.95117v5.91894h1.375c1.3125,0,2.1123-.57617,2.1123-2.36718V41.23c0-1.60059-.54395-2.30371-1.792-2.30371Zm0,9.11963v6.8789h2.01562c1.18359,0,1.82324-.54394,1.82324-2.207V50.76562c0-2.08007-.67187-2.71972-2.27148-2.71972Z"/><path class="cls-1" d="M327.95412,45.16553h4.832v3.1997h-4.832V54.9248h6.08008V58.125h-9.59961V35.72607h9.59961v3.2002h-6.08008Z"/><path class="cls-1" d="M346.96193,58.125a6.87839,6.87839,0,0,1-.32031-2.752V51.85352c0-2.08008-.7041-2.84766-2.30371-2.84766h-1.21582V58.125h-3.51953V35.72607h5.31054c3.64844,0,5.2168,1.69629,5.2168,5.15137v1.75977c0,2.30468-.73633,3.80908-2.30469,4.54443,1.75977.73633,2.33594,2.43164,2.33594,4.76758v3.45605a6.58659,6.58659,0,0,0,.38476,2.71973Zm-3.83984-19.19873v6.87891h1.376c1.31153,0,2.11231-.57618,2.11231-2.36719V41.23c0-1.60059-.54492-2.30371-1.793-2.30371Z"/><path class="cls-1" d="M363.21779,58.125a6.87839,6.87839,0,0,1-.32031-2.752V51.85352c0-2.08008-.7041-2.84766-2.30371-2.84766H359.378V58.125h-3.51954V35.72607h5.31153c3.64746,0,5.21582,1.69629,5.21582,5.15137v1.75977c0,2.30468-.73633,3.80908-2.30469,4.54443,1.76074.73633,2.33594,2.43164,2.33594,4.76758v3.45605a6.603,6.603,0,0,0,.38379,2.71973ZM359.378,38.92627v6.87891h1.376c1.31153,0,2.11133-.57618,2.11133-2.36719V41.23c0-1.60059-.54394-2.30371-1.792-2.30371Z"/><path class="cls-1" d="M375.4092,50.70117l-4.44727-14.9751h3.67969l2.6875,10.207,2.68847-10.207H383.377l-4.44727,14.9751V58.125h-3.5205Z"/></svg>