<svg id="Layer_1" data-name="Layer 1" xmlns="http://www.w3.org/2000/svg" width="160" height="600" viewBox="0 0 160 600"><defs><style>.cls-1{fill:#ab9555;}</style></defs><title>frame2</title><path class="cls-1" d="M31.42334,276.3335a3.75239,3.75239,0,0,1-.72461,2.38671,2.6071,2.6071,0,0,1-1.38477.94825,3.76677,3.76677,0,0,1-1.11816.14941,3.167,3.167,0,0,1-1.96094-.58594,3.2842,3.2842,0,0,1-1.02734-1.30566,5.23232,5.23232,0,0,1-.44239-1.89063l1.917-.13867a2.92663,2.92663,0,0,0,.61816,1.69239,1.02968,1.02968,0,0,0,.83105.374A1.2465,1.2465,0,0,0,29.186,277.313a1.61633,1.61633,0,0,0,.20215-.88477,2.45575,2.45575,0,0,0-.75586-1.65234q-.59766-.56542-1.79-1.69531a7.66032,7.66032,0,0,1-1.417-1.73828,4.02531,4.02531,0,0,1-.44727-1.877,3.26278,3.26278,0,0,1,1.22559-2.76172,3.042,3.042,0,0,1,1.875-.56543,3.41138,3.41138,0,0,1,1.84277.4795,2.77594,2.77594,0,0,1,.96387,1.04394,3.87019,3.87019,0,0,1,.44238,1.54492l-1.92871.35157a2.322,2.322,0,0,0-.46875-1.27832.98538.98538,0,0,0-.79883-.33008.92071.92071,0,0,0-.84179.49023,1.88689,1.88689,0,0,0-.23438.97949,2.93621,2.93621,0,0,0,.78906,1.86426,6.55547,6.55547,0,0,0,.89454.85254q.70313.58594.92675.82031a6.81119,6.81119,0,0,1,1.15039,1.47071,5.769,5.769,0,0,1,.30957.62793A3.66586,3.66586,0,0,1,31.42334,276.3335Z"/><path class="cls-1" d="M36.90869,279.65771H34.895V266.30908h2.01367Z"/><path class="cls-1" d="M42.77,266.29834l2.67187,8.97852v-8.97852h2.01367v13.35937H45.29345L42.523,271.103v8.55468H40.50927V266.29834Z"/><path class="cls-1" d="M54.22021,279.82861a3.18253,3.18253,0,0,1-3.19629-3.18554V269.356a3.19045,3.19045,0,1,1,6.38086,0v1.52343H55.31689V269.313a1.16364,1.16364,0,0,0-1.16113-1.16113,1.10256,1.10256,0,0,0-.81446.34082,1.125,1.125,0,0,0-.33593.82031v7.30859a1.147,1.147,0,0,0,1.15039,1.15039,1.125,1.125,0,0,0,.82031-.33593,1.0989,1.0989,0,0,0,.34082-.81446v-1.84277h2.08789v1.86426a3.18413,3.18413,0,0,1-3.18457,3.18554Z"/><path class="cls-1" d="M60.856,279.65771V266.29834H66.5874v2.02441H62.86963v3.64356h2.71679v2.02344H62.86963v3.64355H66.5874v2.02441Z"/><path class="cls-1" d="M75.54248,276.58936l-.48926,3.06835H72.95654l2.26953-13.34863H77.9956l2.23731,13.34863H78.11572l-.4707-3.06835Zm1.05761-7.22266-.74511,5.26269h1.49121Z"/><path class="cls-1" d="M85.98779,266.29834l2.67187,8.97852v-8.97852h2.01368v13.35937H88.51025L85.74072,271.103v8.55468H83.72705V266.29834Z"/><path class="cls-1" d="M97.437,279.82861a3.18419,3.18419,0,0,1-3.19629-3.18554V269.356a3.19093,3.19093,0,1,1,6.38183,0v1.52343H98.53466V269.313a1.16364,1.16364,0,0,0-1.16113-1.16113,1.10315,1.10315,0,0,0-.81543.34082,1.1288,1.1288,0,0,0-.33594.82031v7.30859a1.147,1.147,0,0,0,1.15137,1.15039,1.125,1.125,0,0,0,.82031-.33593,1.10256,1.10256,0,0,0,.34082-.81446v-1.84277h2.08789v1.86426a3.18413,3.18413,0,0,1-3.18554,3.18554Z"/><path class="cls-1" d="M106.0874,279.65771h-2.01367V266.30908h2.01367Z"/><path class="cls-1" d="M109.687,279.65771V266.29834h5.73144v2.02441h-3.71777v3.64356h2.7168v2.02344h-2.7168v3.64355h3.71777v2.02441Z"/><path class="cls-1" d="M120.86377,266.29834l2.67187,8.97852v-8.97852h2.01367v13.35937H123.3872l-2.7705-8.55468v8.55468H118.603V266.29834Z"/><path class="cls-1" d="M131.11084,268.3335h-2.14161v-2.02442h6.28516v2.02442h-2.13086v11.32421h-2.01269Z"/><path class="cls-1" d="M60.22119,293.93311h-2.1416v-2.02442h6.28515v2.02442H62.23388v11.32373H60.22119Z"/><path class="cls-1" d="M69.79736,305.25684H67.78369V291.90869h2.01367Z"/><path class="cls-1" d="M75.41162,305.25684H73.398V291.898h2.88964l1.877,9.59619,1.80078-9.59619H82.7417v13.35889H80.728v-8.394l-1.74707,8.394H77.36181l-1.95019-8.37354Z"/><path class="cls-1" d="M86.3413,305.25684V291.898h5.73145v2.02441H88.355v3.64356h2.71679v2.02344H88.355v3.64306h3.71777v2.02442Z"/><path class="cls-1" d="M101.9165,301.93262a3.75238,3.75238,0,0,1-.72461,2.38672,2.60711,2.60711,0,0,1-1.38476.94824,3.76688,3.76688,0,0,1-1.11817.14941,3.167,3.167,0,0,1-1.96094-.58594,3.28429,3.28429,0,0,1-1.02734-1.30566,5.23205,5.23205,0,0,1-.44238-1.89062l1.917-.13868a2.92669,2.92669,0,0,0,.61816,1.69239,1.0297,1.0297,0,0,0,.83106.374,1.24652,1.24652,0,0,0,1.05469-.65039,1.61643,1.61643,0,0,0,.20214-.88477,2.45468,2.45468,0,0,0-.75586-1.65185q-.59764-.56543-1.79-1.69531a7.66069,7.66069,0,0,1-1.417-1.73829,4.02523,4.02523,0,0,1-.44726-1.877,3.26277,3.26277,0,0,1,1.22558-2.76172,3.042,3.042,0,0,1,1.875-.56543,3.41141,3.41141,0,0,1,1.84278.4795,2.77576,2.77576,0,0,1,.96386,1.04394,3.87035,3.87035,0,0,1,.44239,1.54492l-1.92871.35156a2.32209,2.32209,0,0,0-.46875-1.27832.98541.98541,0,0,0-.79883-.33007.92072.92072,0,0,0-.8418.49023,1.88689,1.88689,0,0,0-.23437.97949,2.93617,2.93617,0,0,0,.78906,1.86426,6.5553,6.5553,0,0,0,.89453.85254q.70313.58593.92676.82031a6.81119,6.81119,0,0,1,1.15039,1.47071,5.769,5.769,0,0,1,.30957.62793A3.66126,3.66126,0,0,1,101.9165,301.93262Z"/></svg>