<svg id="Layer_1" data-name="Layer 1" xmlns="http://www.w3.org/2000/svg" width="970" height="250" viewBox="0 0 970 250"><defs><style>.cls-1{fill:#fff;}</style></defs><title>frame2</title><path class="cls-1" d="M382.4668,152.42244H367.08594V115.01619h5.63965v31.80762h9.74121Z"/><path class="cls-1" d="M399.42285,114.565a8.944,8.944,0,0,1,8.96192,8.96192v20.40527a8.94568,8.94568,0,0,1-8.96192,8.96191,8.5327,8.5327,0,0,1-6.30566-2.625,8.687,8.687,0,0,1-2.59473-6.33691V123.52694a8.94418,8.94418,0,0,1,8.90039-8.96192Zm3.07617,8.85645a3.18476,3.18476,0,0,0-3.21972-3.2168,3.152,3.152,0,0,0-2.28614.93262,3.07067,3.07067,0,0,0-.9541,2.28418v20.47168a3.08,3.08,0,0,0,.9541,2.27441,3.13487,3.13487,0,0,0,2.28614.94336,3.2026,3.2026,0,0,0,3.21972-3.21777Z"/><path class="cls-1" d="M426.3457,114.565a8.94569,8.94569,0,0,1,8.96192,8.96192v20.40527a8.94568,8.94568,0,0,1-8.96192,8.96191,8.53487,8.53487,0,0,1-6.30664-2.625,8.68609,8.68609,0,0,1-2.59375-6.33691V123.52694a8.94418,8.94418,0,0,1,8.90039-8.96192Zm3.07618,8.85645a3.18639,3.18639,0,0,0-3.21973-3.2168,3.15417,3.15417,0,0,0-2.28711.93262,3.0698,3.0698,0,0,0-.95313,2.28418v20.47168a3.079,3.079,0,0,0,.95313,2.27441,3.137,3.137,0,0,0,2.28711.94336,3.20427,3.20427,0,0,0,3.21973-3.21777Z"/><path class="cls-1" d="M450.08984,140.60994v11.8125H444.4502V115.01619h5.63964v13.33008l6.84961-13.33008h6.0293L455.25781,130.315l9.02344,22.10742h-6.624L451.751,137.26717Z"/><path class="cls-1" d="M491.89453,152.89412a8.8575,8.8575,0,0,1-8.90039-8.87988V115.01619h5.5166v28.93653a3.08485,3.08485,0,0,0,.95313,2.27636,3.137,3.137,0,0,0,2.28711.94336,3.20426,3.20426,0,0,0,3.21972-3.21972V115.01619h5.88575v28.99805a8.48126,8.48126,0,0,1-2.625,6.31641A8.74016,8.74016,0,0,1,491.89453,152.89412Z"/><path class="cls-1" d="M518.94043,115.01619a8.56244,8.56244,0,0,1,6.5625,2.6045,8.98134,8.98134,0,0,1,2.27637,6.3164v5.43457a8.688,8.688,0,0,1-2.58008,6.31641,8.431,8.431,0,0,1-6.24414,2.625H515.7002v14.10937h-5.63965V115.01619Zm3.36328,9.02344a3.25155,3.25155,0,0,0-.86914-2.36914,3.11653,3.11653,0,0,0-2.34082-.8916H515.7002v11.956h3.39355a3.06149,3.06149,0,0,0,2.2793-.9541,3.158,3.158,0,0,0,.93066-2.28613Z"/><path class="cls-1" d="M535.85449,146.8033h5.63965V152.443h-5.63965Z"/></svg>