<svg id="Content" xmlns="http://www.w3.org/2000/svg" xmlns:xlink="http://www.w3.org/1999/xlink" width="300" height="250" viewBox="0 0 300 250"><defs><style>.cls-1{fill:#ba9544;}.cls-2{fill:#fff;stroke:#ba9544;stroke-miterlimit:10;stroke-width:0.5px;}.cls-3{clip-path:url(#clip-path);}</style><clipPath id="clip-path"><polygon class="cls-1" points="162.334 175.334 167.967 183.313 168.077 183.323 168.077 167.214 167.967 167.21 162.334 175.334"/></clipPath></defs><title>CBD - Sensi Star</title><polygon class="cls-2" points="279.428 167.615 167.844 167.192 162.211 175.315 167.844 183.294 279.428 183.104 284.498 175.36 279.428 167.615"/><polygon class="cls-1" points="162.334 175.334 167.967 183.313 168.077 183.323 168.077 167.214 167.967 167.21 162.334 175.334"/><g class="cls-3"><rect class="cls-1" x="161.08804" y="165.96511" width="8.2322" height="18.60287"/></g><path class="cls-1" d="M227.76663,177.99607a2.73157,2.73157,0,0,1,1.94336-4.67774,2.95284,2.95284,0,0,1,2.00684.72852l-.72852.79687a2.0164,2.0164,0,0,0-1.27832-.4375,1.60568,1.60568,0,0,0-1.18554.459,1.58955,1.58955,0,0,0-.44922,1.166,1.63286,1.63286,0,0,0,.45508,1.209,1.61016,1.61016,0,0,0,1.1875.44726,1.95513,1.95513,0,0,0,1.2705-.43359l.72852.79883a2.95184,2.95184,0,0,1-2.00684.72851A2.65579,2.65579,0,0,1,227.76663,177.99607Z"/><path class="cls-1" d="M236.77249,175.90037a1.5516,1.5516,0,0,1-.88867,2.88476l-3.07422-.00391v-5.46093H235.709q1.37988.082,1.456,1.60742A1.145,1.145,0,0,1,236.77249,175.90037Zm-2.86621-.39063h1.5293a.61766.61766,0,0,0,.67773-.68164c-.01269-.26563-.23437-.40625-.667-.42188h-1.54Zm0,2.418h1.78418a.712.712,0,0,0,.78711-.78906c-.01269-.34961-.27148-.53321-.77637-.54688h-1.79492Z"/><path class="cls-1" d="M238.62308,178.78122v-5.46679h2.10449q2.5503,0,2.54981,2.73437,0,2.73341-2.54981,2.73242Zm2.10449-1.08984q1.45313-.00293,1.457-1.64258-.00293-1.63769-1.457-1.63867h-1.01172v3.28125Z"/><path class="cls-1" d="M247.04691,175.29685a.53128.53128,0,0,1,.39355-.14648.55122.55122,0,0,1,.4082.14648.50214.50214,0,0,1,.14551.36719.49631.49631,0,0,1-.14551.36328.62178.62178,0,0,1-.80175,0,.49631.49631,0,0,1-.14551-.36328A.50214.50214,0,0,1,247.04691,175.29685Zm0,2.60742a.53132.53132,0,0,1,.39355-.14648.55126.55126,0,0,1,.4082.14648.50529.50529,0,0,1,.14551.36719.49631.49631,0,0,1-.14551.36328.62178.62178,0,0,1-.80175,0,.49631.49631,0,0,1-.14551-.36328A.50529.50529,0,0,1,247.04691,177.90427Z"/><path class="cls-1" d="M254.86429,174.88279l-2.11328,1.166,2.11328,1.166v.83789l-3.45313-1.89844v-.23633l3.45313-1.87109Z"/><path class="cls-1" d="M259.59573,173.31833v-.0039h1.08887v5.46679h-1.08887v-4.00585l-.72851.72656-.72852-.72656Z"/></svg>