<svg id="Layer_1" data-name="Layer 1" xmlns="http://www.w3.org/2000/svg" xmlns:xlink="http://www.w3.org/1999/xlink" width="46.30947" height="68.61089" viewBox="0 0 46.30947 68.61089"><defs><style>.cls-1{fill:url(#New_Gradient_Swatch_1);}.cls-2{fill:#fff;}.cls-3{fill:#ba9544;}</style><linearGradient id="New_Gradient_Swatch_1" y1="22.62353" x2="46.30947" y2="22.62353" gradientUnits="userSpaceOnUse"><stop offset="0" stop-color="#a88a34"/><stop offset="0.49324" stop-color="#caaf67"/><stop offset="1" stop-color="#957f2e"/></linearGradient></defs><title>lemon</title><polygon class="cls-1" points="7.124 40.105 0 17.481 16.033 0 39.188 5.142 46.309 27.768 30.279 45.247 7.124 40.105"/><path class="cls-2" d="M32.79465,20.042c-1.2674-3.088-4.9219-5.204-9.63881-5.16435-4.64858.03968-8.345,2.13584-9.60575,5.16435-1.13073.50256-2.44661,1.57378-2.44661,2.58108,0,.99849,1.30486,2.08734,2.47307,2.57888,1.24756,2.98884,4.91747,5.16876,9.57929,5.16876,4.675,0,8.33394-2.20858,9.63881-5.16876,1.22109-.5268,2.41134-1.59362,2.41134-2.57667,0-1.00951-1.188-2.05649-2.41134-2.58329"/><path class="cls-3" d="M2.82476,59.89311v7.09082H7.47417v1.627H1.0816V59.89311Z"/><path class="cls-3" d="M8.88628,68.61089V59.899l6.40479-.00586v1.627H10.62994v1.86035H14.1231v1.62109H10.62994v1.98242h4.64941v1.627Z"/><path class="cls-3" d="M17.046,68.61089V59.89311H17.627l3.77783,4.30078,3.7832-4.30078h.58154v8.71778H24.02593l-.00586-5.05664L21.40484,66.4605,18.7896,63.55425v5.05664Z"/><path class="cls-3" d="M28.31451,67.35893a4.48975,4.48975,0,1,1,3.10937,1.252A4.22438,4.22438,0,0,1,28.31451,67.35893Zm3.11523-.375a2.4487,2.4487,0,0,0,1.8833-.78515,2.97291,2.97291,0,0,0,0-3.89356,2.66474,2.66474,0,0,0-3.77783,0,2.97143,2.97143,0,0,0,0,3.89356A2.46143,2.46143,0,0,0,31.42974,66.98393Z"/><path class="cls-3" d="M37.07867,68.61089V59.89311h.581L43.1231,65.356V59.89311h1.74316v8.71778H44.2271l-5.40478-5.40528v5.40528Z"/></svg>