<?xml version="1.0" encoding="utf-8"?>
<!-- Generator: Adobe Illustrator 23.0.1, SVG Export Plug-In . SVG Version: 6.00 Build 0)  -->
<svg version="1.1" id="Layer_3" xmlns="http://www.w3.org/2000/svg" xmlns:xlink="http://www.w3.org/1999/xlink" x="0px" y="0px"
	 viewBox="0 0 37 52" style="enable-background:new 0 0 37 52;" xml:space="preserve">
<style type="text/css">
	.st0{fill:url(#SVGID_1_);}
	.st1{fill:#FFFFFF;}
	.st2{fill:#BA9544;}
</style>
<g>
	<g>
		<linearGradient id="SVGID_1_" gradientUnits="userSpaceOnUse" x1="1.0771" y1="17.3398" x2="34.4549" y2="17.3398">
			<stop  offset="0" style="stop-color:#A88A34"/>
			<stop  offset="0.4932" style="stop-color:#CAAF67"/>
			<stop  offset="1" style="stop-color:#957F2E"/>
		</linearGradient>
		<polygon class="st0" points="29.95,6.1 16.04,0.76 3.19,8.31 1.08,23.07 11.3,33.92 26.15,32.69 34.45,20.31 		"/>
		<path class="st1" d="M13.31,13.36c0.05-0.03,0.14-0.07,0.27-0.11c0.16-0.05,0.3-0.08,0.3-0.08l0.02-0.01l2.93-0.64
			c0.29-0.06,0.54,0.05,0.63,0.1l0.49,0.48l-1.03,1.07l-3.27,0.72C13.52,14.3,13.38,13.69,13.31,13.36 M23.47,21.53l-1.61-7.32
			c-0.12-0.56-0.66-0.93-1.22-0.85l0.86-0.91l0.24,0.22l0.36-0.38c0.09-0.09,0.08-0.24-0.01-0.33l-1.73-1.64
			c-0.09-0.09-0.24-0.08-0.33,0.01l-0.36,0.38L19.96,11l-1.15,1.21l-0.57-0.56l-0.04-0.03c-0.07-0.05-0.75-0.5-1.64-0.31l-2.9,0.64
			c-0.07,0.01-0.27,0.05-0.51,0.13c-0.45,0.15-0.75,0.36-0.94,0.62c-0.16,0.24-0.21,0.51-0.15,0.79c0.09,0.4,0.4,1.83,0.59,2.69
			c0,0.02,0.01,0.04,0.01,0.06l1.61,7.32c0.13,0.59,0.71,0.96,1.3,0.83l7.06-1.55C23.22,22.7,23.6,22.12,23.47,21.53"/>
	</g>
	<g>
		<path class="st2" d="M2.6,51.48v-6.14h2.36c1.91,0,2.86,1.02,2.86,3.07c0,2.04-0.95,3.07-2.86,3.07H2.6z M4.96,50.26
			c1.09,0,1.63-0.62,1.64-1.84c0-1.23-0.55-1.84-1.64-1.84H3.82v3.68H4.96z"/>
		<path class="st2" d="M9.14,45.34h1.22v6.14H9.14V45.34z"/>
		<path class="st2" d="M11.58,51.48v-6.13l4.51,0v1.14H12.8v1.31h2.46v1.14H12.8v1.39h3.27v1.15H11.58z"/>
		<path class="st2" d="M20.64,45.55c0.31,0.14,0.61,0.34,0.88,0.61l-0.82,0.82c-0.27-0.33-0.65-0.49-1.14-0.49
			c-0.49,0-0.8,0.12-0.94,0.35c-0.14,0.23-0.14,0.43,0,0.59c0.14,0.16,0.45,0.29,0.94,0.37c0.52,0.05,0.99,0.22,1.41,0.51
			c0.42,0.29,0.63,0.74,0.63,1.37c0,0.49-0.23,0.91-0.68,1.27c-0.45,0.35-0.98,0.53-1.58,0.53c-0.57,0-1.05-0.08-1.43-0.25
			c-0.38-0.16-0.71-0.38-0.98-0.65l0.82-0.82c0.27,0.33,0.74,0.52,1.39,0.57c0.54,0,0.88-0.12,1.02-0.35c0.13-0.23,0.13-0.46,0-0.69
			c-0.14-0.23-0.48-0.38-1.02-0.43c-0.49-0.05-0.94-0.21-1.35-0.45s-0.61-0.67-0.61-1.27c0-0.54,0.23-0.98,0.7-1.31
			c0.46-0.33,0.94-0.49,1.43-0.49C19.88,45.35,20.32,45.41,20.64,45.55z"/>
		<path class="st2" d="M22.68,51.48v-6.13l4.51,0v1.14h-3.28v1.31h2.46v1.14h-2.46v1.39h3.27v1.15H22.68z"/>
		<path class="st2" d="M29.66,45.35v4.99h3.27v1.15h-4.5v-6.13H29.66z"/>
	</g>
</g>
<g>
</g>
<g>
</g>
<g>
</g>
<g>
</g>
<g>
</g>
<g>
</g>
<g>
</g>
<g>
</g>
<g>
</g>
<g>
</g>
<g>
</g>
<g>
</g>
<g>
</g>
<g>
</g>
<g>
</g>
</svg>
