<?xml version="1.0" encoding="utf-8"?>
<!-- Generator: Adobe Illustrator 23.0.1, SVG Export Plug-In . SVG Version: 6.00 Build 0)  -->
<svg version="1.1" id="Layer_2" xmlns="http://www.w3.org/2000/svg" xmlns:xlink="http://www.w3.org/1999/xlink" x="0px" y="0px"
	 viewBox="0 0 37 52" style="enable-background:new 0 0 37 52;" xml:space="preserve">
<style type="text/css">
	.st0{fill:url(#SVGID_1_);}
	.st1{fill:#FFFFFF;}
	.st2{fill:#BA9544;}
</style>
<g>
	<linearGradient id="SVGID_1_" gradientUnits="userSpaceOnUse" x1="1.8837" y1="19.1215" x2="34.4674" y2="19.1215">
		<stop  offset="0" style="stop-color:#A88A34"/>
		<stop  offset="0.4932" style="stop-color:#CAAF67"/>
		<stop  offset="1" style="stop-color:#957F2E"/>
	</linearGradient>
	<polygon class="st0" points="6.9,31.42 1.88,15.5 13.16,3.2 29.46,6.82 34.47,22.74 23.19,35.04 	"/>
	<path class="st1" d="M24.96,17.31c-0.89-2.17-3.46-3.66-6.78-3.63c-3.27,0.03-5.87,1.5-6.76,3.63c-0.8,0.35-1.72,1.11-1.72,1.82
		c0,0.7,0.92,1.47,1.74,1.81c0.88,2.1,3.46,3.64,6.74,3.64c3.29,0,5.86-1.55,6.78-3.64c0.86-0.37,1.7-1.12,1.7-1.81
		C26.65,18.41,25.82,17.68,24.96,17.31"/>
	<g>
		<path class="st2" d="M3.87,45.34v4.99h3.27v1.14h-4.5v-6.13H3.87z"/>
		<path class="st2" d="M8.14,51.48v-6.13l4.51,0v1.15H9.36v1.31h2.46v1.14H9.36v1.39h3.27v1.14H8.14z"/>
		<path class="st2" d="M13.88,51.48v-6.13h0.41l2.66,3.03l2.66-3.03h0.41v6.13h-1.23l0-3.56l-1.84,2.04l-1.84-2.04v3.56H13.88z"/>
		<path class="st2" d="M21.81,50.6c-0.59-0.59-0.88-1.32-0.88-2.19c0-0.87,0.29-1.6,0.88-2.19c0.59-0.59,1.32-0.88,2.19-0.88
			c0.87,0,1.6,0.29,2.19,0.88c0.59,0.59,0.88,1.31,0.88,2.19c0,0.87-0.29,1.6-0.88,2.19c-0.59,0.59-1.32,0.88-2.19,0.88
			C23.12,51.48,22.39,51.18,21.81,50.6z M24,50.33c0.54,0,0.98-0.18,1.33-0.55c0.34-0.37,0.51-0.83,0.51-1.37
			c0-0.55-0.17-1-0.51-1.37s-0.79-0.55-1.33-0.55c-0.54,0-0.98,0.18-1.33,0.55s-0.51,0.82-0.51,1.37c0,0.54,0.17,1,0.51,1.37
			C23.01,50.15,23.45,50.33,24,50.33z"/>
		<path class="st2" d="M27.97,51.48v-6.13h0.41l3.84,3.84v-3.84h1.23v6.13H33l-3.8-3.8v3.8H27.97z"/>
	</g>
</g>
<g>
</g>
<g>
</g>
<g>
</g>
<g>
</g>
<g>
</g>
<g>
</g>
<g>
</g>
<g>
</g>
<g>
</g>
<g>
</g>
<g>
</g>
<g>
</g>
<g>
</g>
<g>
</g>
<g>
</g>
</svg>
