<?xml version="1.0" encoding="utf-8"?>
<!-- Generator: Adobe Illustrator 23.0.1, SVG Export Plug-In . SVG Version: 6.00 Build 0)  -->
<svg version="1.1" id="Layer_2" xmlns="http://www.w3.org/2000/svg" xmlns:xlink="http://www.w3.org/1999/xlink" x="0px" y="0px"
	 viewBox="0 0 728 90" enable-background="new 0 0 728 90" xml:space="preserve">
<g>
	<g>
		<polygon fill="#FFFFFF" stroke="#BA9544" stroke-width="0.5" stroke-miterlimit="10" points="445.76,21.35 314.83,20.85 
			308.22,30.38 314.83,39.74 445.76,39.52 451.71,30.43 		"/>
		<polygon fill="#BA9544" points="314.93,20.85 308.32,30.38 314.93,39.74 339.83,39.74 339.83,20.85 		"/>
	</g>
	<g>
		<path fill="#BA9544" d="M389.77,27.26v1.2h-2.14v5.21h-1.28v-5.21h-2.14v-1.2H389.77z"/>
		<path fill="#BA9544" d="M390.72,33.67v-6.41H392v2.56h2.99v-2.57h1.28v6.41l-1.28,0v-2.65H392v2.65H390.72z"/>
		<path fill="#BA9544" d="M398.26,32.75c-0.61-0.61-0.92-1.38-0.92-2.3c0-0.9,0.31-1.66,0.92-2.27c0.61-0.61,1.37-0.92,2.28-0.92
			c0.91,0,1.7,0.28,2.35,0.85l-0.85,0.94c-0.44-0.34-0.94-0.51-1.5-0.51c-0.58,0-1.04,0.18-1.39,0.54
			c-0.35,0.36-0.53,0.81-0.53,1.37c0,0.6,0.18,1.07,0.54,1.42c0.35,0.35,0.82,0.53,1.39,0.53c0.58,0,1.07-0.17,1.49-0.51l0.85,0.94
			c-0.65,0.57-1.44,0.85-2.35,0.85C399.64,33.67,398.88,33.36,398.26,32.75z"/>
		<path fill="#BA9544" d="M407.32,29.58c0.12-0.12,0.27-0.17,0.46-0.17c0.21,0,0.36,0.06,0.48,0.17c0.11,0.12,0.17,0.26,0.17,0.43
			s-0.06,0.31-0.17,0.43c-0.12,0.11-0.27,0.17-0.47,0.17s-0.36-0.06-0.47-0.17c-0.11-0.11-0.17-0.26-0.17-0.43
			S407.21,29.7,407.32,29.58z M407.32,32.64c0.12-0.12,0.27-0.17,0.46-0.17c0.21,0,0.36,0.06,0.48,0.17
			c0.11,0.12,0.17,0.26,0.17,0.43s-0.06,0.31-0.17,0.43c-0.12,0.11-0.27,0.17-0.47,0.17s-0.36-0.06-0.47-0.17
			c-0.11-0.11-0.17-0.26-0.17-0.43S407.21,32.76,407.32,32.64z"/>
		<path fill="#BA9544" d="M414.15,27.26L414.15,27.26l1.28,0v6.41h-1.28v-4.7l-0.85,0.85l-0.86-0.85L414.15,27.26z"/>
		<path fill="#BA9544" d="M420.16,30.42c0.08,0.03,0.15,0.06,0.21,0.09c0.44,0.2,0.66,0.63,0.66,1.28s-0.21,1.13-0.62,1.43
			c-0.42,0.3-0.95,0.45-1.61,0.45c-0.65,0-1.18-0.15-1.6-0.45s-0.62-0.78-0.62-1.43s0.22-1.08,0.66-1.28
			c0.06-0.03,0.13-0.06,0.21-0.09c-0.05-0.02-0.09-0.04-0.13-0.06c-0.38-0.21-0.58-0.62-0.58-1.22c0-0.6,0.19-1.06,0.56-1.39
			c0.37-0.33,0.87-0.49,1.5-0.49c0.62,0,1.12,0.16,1.49,0.49s0.56,0.79,0.56,1.39c0,0.6-0.19,1-0.58,1.22
			C420.24,30.38,420.2,30.4,420.16,30.42z M418.81,29.84c0.38-0.01,0.62-0.11,0.73-0.29c0.14-0.24,0.14-0.48,0-0.73
			c-0.13-0.22-0.37-0.34-0.73-0.36c-0.35,0.02-0.59,0.14-0.72,0.36c-0.14,0.24-0.14,0.48,0,0.73
			C418.19,29.73,418.43,29.83,418.81,29.84z M418.81,31.02c-0.38,0.06-0.62,0.18-0.72,0.37c-0.14,0.24-0.14,0.48,0,0.73
			c0.13,0.22,0.37,0.34,0.72,0.36c0.35-0.02,0.6-0.14,0.73-0.36c0.14-0.24,0.14-0.48,0-0.73C419.43,31.2,419.18,31.07,418.81,31.02z
			"/>
		<path fill="#BA9544" d="M422.15,31.96V31.1h2.65v0.85H422.15z"/>
		<path fill="#BA9544" d="M428.21,27.26c0.63,0,1.14,0.16,1.54,0.47s0.6,0.78,0.6,1.41c0,0.74-0.29,1.42-0.85,2.03
			c-0.57,0.62-1.04,1.02-1.41,1.21h2.31v1.28h-4.32v-1.28c0.28,0,0.83-0.36,1.62-1.07c0.8-0.71,1.26-1.22,1.39-1.52
			c0.13-0.3,0.12-0.6-0.02-0.9c-0.14-0.3-0.48-0.45-1.03-0.45c-0.51,0-0.91,0.17-1.2,0.51L426,28.11c0.29-0.28,0.56-0.5,0.83-0.64
			C427.1,27.33,427.56,27.26,428.21,27.26z"/>
		<path fill="#BA9544" d="M435.72,27.26v1.2h-2.65v0.9h0.51c0.85,0,1.5,0.19,1.94,0.58c0.44,0.44,0.66,1.02,0.66,1.73
			c0,0.54-0.21,1.01-0.64,1.41c-0.43,0.4-0.96,0.6-1.58,0.6c-0.6,0-1.09-0.09-1.49-0.26c-0.4-0.17-0.74-0.4-1.03-0.68l0.86-0.85
			c0.29,0.34,0.74,0.53,1.37,0.56c0.77,0,1.19-0.28,1.26-0.85c-0.02-0.36-0.15-0.63-0.39-0.79c-0.13-0.14-0.59-0.22-1.38-0.24h-1.37
			v-3.29H435.72z"/>
		<path fill="#BA9544" d="M437.49,29.96c-0.31-0.31-0.46-0.69-0.46-1.15c0-0.46,0.15-0.84,0.46-1.15c0.31-0.31,0.69-0.46,1.15-0.46
			c0.46,0,0.84,0.15,1.14,0.46c0.31,0.31,0.46,0.69,0.46,1.15c0,0.46-0.15,0.84-0.46,1.15c-0.31,0.31-0.69,0.46-1.14,0.46
			C438.18,30.43,437.79,30.27,437.49,29.96z M438.62,29.66c0.24,0,0.43-0.08,0.59-0.24c0.15-0.16,0.23-0.36,0.23-0.61
			c0-0.24-0.08-0.44-0.23-0.6c-0.15-0.16-0.35-0.24-0.59-0.24c-0.24,0-0.43,0.08-0.58,0.24c-0.15,0.16-0.23,0.36-0.23,0.6
			c0,0.24,0.08,0.44,0.23,0.61C438.19,29.58,438.38,29.66,438.62,29.66z M438.28,33.67l3.63-6.41h1.04l-3.63,6.41H438.28z
			 M441.46,33.25c-0.3-0.31-0.46-0.68-0.46-1.14c0-0.45,0.15-0.83,0.46-1.14c0.3-0.3,0.68-0.46,1.14-0.46s0.83,0.15,1.14,0.46
			c0.3,0.31,0.46,0.68,0.46,1.14c0,0.45-0.15,0.83-0.46,1.14c-0.3,0.3-0.68,0.46-1.14,0.46S441.77,33.55,441.46,33.25z
			 M442.58,32.93c0.23,0,0.42-0.08,0.57-0.24s0.22-0.36,0.22-0.59c0-0.23-0.07-0.43-0.22-0.59s-0.34-0.24-0.58-0.24
			c-0.23,0-0.42,0.08-0.57,0.24s-0.22,0.35-0.22,0.59c0,0.24,0.07,0.43,0.22,0.59S442.34,32.93,442.58,32.93z"/>
	</g>
</g>
<g>
</g>
<g>
</g>
<g>
</g>
<g>
</g>
<g>
</g>
<g>
</g>
<g>
</g>
<g>
</g>
<g>
</g>
<g>
</g>
<g>
</g>
<g>
</g>
<g>
</g>
<g>
</g>
<g>
</g>
</svg>
