<svg xmlns="http://www.w3.org/2000/svg" xmlns:xlink="http://www.w3.org/1999/xlink" width="727.99955" height="90" viewBox="0 0 727.99955 90"><defs><style>.cls-1{fill:#ba9544;}.cls-2{fill:#fff;stroke:#ba9544;stroke-miterlimit:10;stroke-width:0.5px;}.cls-3{clip-path:url(#clip-path);}</style><clipPath id="clip-path"><polygon class="cls-1" points="221.661 59.762 228.271 69.124 244.497 69.136 244.497 50.234 228.271 50.229 221.661 59.762"/></clipPath></defs><title>CBD - Daytime CBD</title><g id="Content"><polygon class="cls-2" points="359.055 50.704 228.127 50.208 221.517 59.739 228.127 69.101 359.055 68.878 365.003 59.792 359.055 50.704"/><polygon class="cls-1" points="221.661 59.762 228.271 69.124 244.497 69.136 244.497 50.234 228.271 50.229 221.661 59.762"/><g class="cls-3"><rect class="cls-1" x="220.19936" y="48.76835" width="9.65934" height="21.82787"/></g><path class="cls-1" d="M298.43825,62.87843a3.20665,3.20665,0,0,1,2.28028-5.48926,3.46873,3.46873,0,0,1,2.35449.8545l-.85449.93554a2.36255,2.36255,0,0,0-1.5-.51269,1.88072,1.88072,0,0,0-1.39063.53906,1.85945,1.85945,0,0,0-.52832,1.36719,1.92178,1.92178,0,0,0,.53418,1.41894,1.89311,1.89311,0,0,0,1.39355.52539,2.293,2.293,0,0,0,1.49122-.50879l.85449.93653a3.46,3.46,0,0,1-2.35449.85449A3.11911,3.11911,0,0,1,298.43825,62.87843Z"/><path class="cls-1" d="M309.00563,60.41945a1.82,1.82,0,0,1-1.043,3.38379l-3.60645-.00391V57.39308h3.40137q1.62012.09375,1.709,1.88477A1.34166,1.34166,0,0,1,309.00563,60.41945Zm-3.36328-.458h1.79493a.72326.72326,0,0,0,.79492-.79883q-.022-.47022-.78223-.49609h-1.80762Zm0,2.83789h2.09375a.83633.83633,0,0,0,.92285-.92773q-.0205-.61524-.91015-.64063h-2.10645Z"/><path class="cls-1" d="M311.17653,63.79933v-6.415h2.47071q2.99121,0,2.99121,3.21,0,3.20508-2.99121,3.20508Zm2.47071-1.27734q1.70506-.0044,1.709-1.92774-.00439-1.92333-1.709-1.92285h-1.18848V62.522Z"/><path class="cls-1" d="M318.07009,59.71144a.62019.62019,0,0,1,.46191-.17285.64315.64315,0,0,1,.47852.17285.586.586,0,0,1,.1709.42969.58.58,0,0,1-.1709.42773.73233.73233,0,0,1-.94043,0,.58.58,0,0,1-.1709-.42773A.586.586,0,0,1,318.07009,59.71144Zm0,3.06055a.617.617,0,0,1,.46191-.17383.63984.63984,0,0,1,.47852.17383.62194.62194,0,0,1,0,.85644.73233.73233,0,0,1-.94043,0,.62194.62194,0,0,1,0-.85644Z"/><path class="cls-1" d="M327.865,60.231a4.25116,4.25116,0,0,1-.77148,2.8418,2.16623,2.16623,0,0,1-1.85254.70117,2.67041,2.67041,0,0,1-1.72266-.8125l.72266-.78613a2.2415,2.2415,0,0,0,1.06836.36328,1.128,1.128,0,0,0,.91406-.27344,1.72479,1.72479,0,0,0,.47461-1.04687,2.00618,2.00618,0,0,1-1.3291.42675,2.14259,2.14259,0,0,1-1.58106-.73633,2.1984,2.1984,0,0,1-.376-1.60546,2.10331,2.10331,0,0,1,.74512-1.4502,2.26492,2.26492,0,0,1,1.7627-.44726,2.088,2.088,0,0,1,1.44238.85058A3.6142,3.6142,0,0,1,327.865,60.231Zm-1.28223-.70508q-.04393-.89355-1.02636-.93164-.98292.03808-1.02539.85059a.96817.96817,0,0,0,1.06835,1.06836A.9524.9524,0,0,0,326.58278,59.52589Z"/><path class="cls-1" d="M329.00075,62.08546v-.85058h2.64942v.85058Z"/><path class="cls-1" d="M334.41481,57.38917v-.00488h1.27832v6.415h-1.27832V59.09816l-.85449.85547-.85449-.85547Z"/><path class="cls-1" d="M340.96169,60.55128c.07715.02832.14648.05762.21.08594a1.25642,1.25642,0,0,1,.66211,1.28223,1.64446,1.64446,0,0,1-.707,1.32422,2.59367,2.59367,0,0,1-1.64746.55566,3.80157,3.80157,0,0,1-1.49219-.25684,3.23428,3.23428,0,0,1-1.02539-.68359l.85449-.85449a2.03566,2.03566,0,0,0,1.45313.59863q.85546,0,1.0664-.36328a.67836.67836,0,0,0,0-.72656q-.21093-.36329-1.48926-.40625V59.95363q1.27735.085,1.48926-.27832a.67838.67838,0,0,0,0-.72657q-.21093-.36327-1.0664-.36328a1.52239,1.52239,0,0,0-1.23926.5127l-.85449-.85449a2.97906,2.97906,0,0,1,.91894-.64063,3.57188,3.57188,0,0,1,1.38477-.21387,2.25791,2.25791,0,0,1,1.56152.55567,1.71636,1.71636,0,0,1,.62207,1.32422,1.26859,1.26859,0,0,1-.57715,1.21875C341.0486,60.50734,341.00759,60.52882,340.96169,60.55128Z"/><path class="cls-1" d="M343.2488,60.09425a1.65011,1.65011,0,1,1,1.14551.46192A1.55573,1.55573,0,0,1,343.2488,60.09425Zm1.13183-.29883a.76476.76476,0,0,0,.58594-.24414.92231.92231,0,0,0,0-1.21093.77223.77223,0,0,0-.58984-.24219.76187.76187,0,0,0-.58106.24219.92231.92231,0,0,0,0,1.21093A.76412.76412,0,0,0,344.38063,59.79542Zm-.34179,4.00391,3.63281-6.41016h1.043l-3.624,6.41016Zm3.18457-.42285a1.64213,1.64213,0,1,1,1.13672.457A1.54011,1.54011,0,0,1,347.22341,63.37648Zm1.11523-.3125a.74918.74918,0,0,0,.57227-.23731.89133.89133,0,0,0,0-1.17871.75547.75547,0,0,0-.57715-.2373.74511.74511,0,0,0-.56836.2373.89425.89425,0,0,0,0,1.17871A.74984.74984,0,0,0,348.33864,63.064Z"/></g></svg>