<svg xmlns="http://www.w3.org/2000/svg" width="727.99955" height="90" viewBox="0 0 727.99955 90"><defs><style>.cls-1{fill:#fff;stroke:#ba9544;stroke-miterlimit:10;stroke-width:0.5px;}.cls-2{fill:#ba9544;}</style></defs><title>THC - Shishkaberry</title><g id="Content"><polygon class="cls-1" points="359.055 21.185 228.126 20.689 221.517 30.22 228.126 39.582 359.055 39.359 365.004 30.273 359.055 21.185"/><polygon class="cls-2" points="228.222 20.689 221.612 30.22 228.222 39.582 244.411 39.582 244.411 20.689 228.222 20.689"/><path class="cls-2" d="M303.06561,27.09816v1.19629h-2.13672v5.21386h-1.2832V28.29445H297.509V27.09816Z"/><path class="cls-2" d="M304.01678,33.50831V27.09816H305.3v2.56347h2.98633V27.09328h1.28321v6.41015l-1.28321.00488V30.8589H305.3v2.64941Z"/><path class="cls-2" d="M311.5578,32.58742a3.20617,3.20617,0,0,1,2.27929-5.48926,3.46647,3.46647,0,0,1,2.35547.85449l-.85547.93555a2.36246,2.36246,0,0,0-1.5-.5127,1.88542,1.88542,0,0,0-1.39062.53809,1.86646,1.86646,0,0,0-.52735,1.36816,1.91741,1.91741,0,0,0,.53321,1.419,1.89778,1.89778,0,0,0,1.39453.52539,2.29572,2.29572,0,0,0,1.49023-.50879l.85547.93652a3.46069,3.46069,0,0,1-2.35547.85449A3.11912,3.11912,0,0,1,311.5578,32.58742Z"/><path class="cls-2" d="M317.62811,29.42042a.62252.62252,0,0,1,.46289-.17285.64471.64471,0,0,1,.47852.17285.58913.58913,0,0,1,.16992.42969.57927.57927,0,0,1-.16992.42676.73367.73367,0,0,1-.94141,0,.57927.57927,0,0,1-.16992-.42676A.58913.58913,0,0,1,317.62811,29.42042Zm0,3.05957a.62252.62252,0,0,1,.46289-.17285.64471.64471,0,0,1,.47852.17285.58913.58913,0,0,1,.16992.42969.58307.58307,0,0,1-.16992.42774.73371.73371,0,0,1-.94141,0,.58307.58307,0,0,1-.16992-.42774A.58913.58913,0,0,1,317.62811,32.48Z"/><path class="cls-2" d="M324.45233,27.09816v-.00488h1.27929v6.415h-1.27929V28.80714l-.85352.85449-.85547-.85449Z"/><path class="cls-2" d="M329.841,27.10206v-.00878h1.2793v3.72656h.86328v1.27832h-.86328v1.41015H329.841V32.09816h-2.91016V30.81984h.043l-.03906-.043Zm0,3.71778v-2.043l-1.55859,2.043Z"/><path class="cls-2" d="M332.96209,31.79445v-.85059h2.64844v.85059Z"/><path class="cls-2" d="M338.37616,27.09816v-.00488h1.27929v6.415h-1.27929V28.80714l-.85352.85449-.85547-.85449Z"/><path class="cls-2" d="M344.38592,30.26027c.07617.02832.14649.05664.209.085a1.25727,1.25727,0,0,1,.66211,1.28222,1.64549,1.64549,0,0,1-.6211,1.43165,3.07611,3.07611,0,0,1-3.20117,0,1.64659,1.64659,0,0,1-.62305-1.43165,1.25549,1.25549,0,0,1,.66407-1.28222c.0625-.02832.13085-.05664.209-.085-.04688-.02246-.08789-.04395-.125-.06446a1.26641,1.26641,0,0,1-.57617-1.21777,1.75342,1.75342,0,0,1,.55664-1.38867,2.518,2.518,0,0,1,2.98828,0,1.75346,1.75346,0,0,1,.55664,1.38867,1.26642,1.26642,0,0,1-.57617,1.21777Q344.45331,30.22657,344.38592,30.26027Zm-1.35156-.58106q.56543-.01758.72656-.29492a.67836.67836,0,0,0,0-.72656.82133.82133,0,0,0-.72656-.35938.81177.81177,0,0,0-.72266.35938.67054.67054,0,0,0,0,.72656C342.41717,29.56886,342.65936,29.66749,343.03436,29.67921Zm0,1.17481a.9543.9543,0,0,0-.72266.36816.66889.66889,0,0,0,0,.72559.80967.80967,0,0,0,.72266.35937.81919.81919,0,0,0,.72656-.35937.67669.67669,0,0,0,0-.72559A.96366.96366,0,0,0,343.03436,30.854Z"/><path class="cls-2" d="M346.7492,29.80324a1.65146,1.65146,0,1,1,1.14453.46093A1.55281,1.55281,0,0,1,346.7492,29.80324Zm1.13086-.29981a.76254.76254,0,0,0,.58594-.24316.92363.92363,0,0,0,0-1.21192.77008.77008,0,0,0-.58984-.24121.75753.75753,0,0,0-.58008.24121.92363.92363,0,0,0,0,1.21192A.76121.76121,0,0,0,347.88006,29.50343Zm-.34179,4.00488,3.63281-6.41015h1.043l-3.623,6.41015Zm3.18554-.42285a1.64213,1.64213,0,1,1,1.13672.457A1.54091,1.54091,0,0,1,350.72381,33.08546Zm1.11524-.3125a.75065.75065,0,0,0,.57226-.2373.8926.8926,0,0,0,0-1.17969.75468.75468,0,0,0-.57812-.2373.74511.74511,0,0,0-.56836.2373.89853.89853,0,0,0,0,1.17969A.752.752,0,0,0,351.83905,32.773Z"/></g></svg>