<svg id="Content" xmlns="http://www.w3.org/2000/svg" xmlns:xlink="http://www.w3.org/1999/xlink" viewBox="0 0 640 1136"><defs><style>.cls-1{fill:#ba9544;}.cls-2{fill:#fff;stroke:#ba9544;stroke-miterlimit:10;stroke-width:0.96px;}.cls-3{clip-path:url(#clip-path);}</style><clipPath id="clip-path"><polygon class="cls-1" points="127.24 795.68 145.2 821.12 145.55 821.16 145.55 769.78 145.2 769.77 127.24 795.68"/></clipPath></defs><title>CBD - Sensi Star</title><polygon class="cls-2" points="500.69 771.06 144.81 769.71 126.84 795.62 144.81 821.06 500.69 820.46 516.86 795.76 500.69 771.06"/><polygon class="cls-1" points="127.24 795.68 145.2 821.12 145.55 821.16 145.55 769.78 145.2 769.77 127.24 795.68"/><g class="cls-3"><rect class="cls-1" x="123.26" y="765.8" width="26.26" height="59.33"/></g><path class="cls-1" d="M335.93,804.17a8.71,8.71,0,0,1,6.19-14.92,9.41,9.41,0,0,1,6.4,2.32l-2.32,2.54a6.4,6.4,0,0,0-4.08-1.39,5,5,0,0,0-5.21,5.18,5.25,5.25,0,0,0,1.45,3.86,5.15,5.15,0,0,0,3.79,1.42,6.25,6.25,0,0,0,4.05-1.38l2.32,2.55a9.42,9.42,0,0,1-6.4,2.32A8.48,8.48,0,0,1,335.93,804.17Z"/><path class="cls-1" d="M364.65,797.48a5,5,0,0,1,2.43,4c-.16,3.28-1.91,5-5.27,5.21H352V789.26h9.25c2.93.17,4.48,1.87,4.64,5.12C365.85,795.93,365.43,797,364.65,797.48Zm-9.14-1.24h4.88a2,2,0,0,0,2.16-2.17q-.06-1.29-2.13-1.35h-4.91Zm0,7.71h5.69a2.27,2.27,0,0,0,2.51-2.52c0-1.12-.87-1.7-2.48-1.74h-5.72Z"/><path class="cls-1" d="M370.55,806.67V789.23h6.71q8.13,0,8.14,8.73t-8.14,8.71Zm6.71-3.47q4.64,0,4.65-5.24t-4.65-5.23H374V803.2Z"/><path class="cls-1" d="M397.42,795.56a1.66,1.66,0,0,1,1.25-.47,1.72,1.72,0,0,1,1.3.47,1.68,1.68,0,0,1,0,2.33,2,2,0,0,1-2.55,0,1.68,1.68,0,0,1,0-2.33Zm0,8.32a1.66,1.66,0,0,1,1.25-.47,1.72,1.72,0,0,1,1.3.47,1.58,1.58,0,0,1,.47,1.16,1.57,1.57,0,0,1-.47,1.16,2,2,0,0,1-2.55,0A1.57,1.57,0,0,1,397,805,1.58,1.58,0,0,1,397.42,803.88Z"/><path class="cls-1" d="M422.34,794.24,415.61,798l6.73,3.71v2.68l-11-6.06v-.75l11-6Z"/><path class="cls-1" d="M437.43,789.25v0h3.48v17.44h-3.48V793.89l-2.32,2.33-2.32-2.33Z"/></svg>