<svg id="Content" xmlns="http://www.w3.org/2000/svg" xmlns:xlink="http://www.w3.org/1999/xlink" width="320" height="50" viewBox="0 0 320 50"><defs><style>.cls-1{fill:#ba9544;}.cls-2{fill:#fff;stroke:#ba9544;stroke-miterlimit:10;stroke-width:0.5px;}.cls-3{clip-path:url(#clip-path);}</style><clipPath id="clip-path"><polygon class="cls-1" points="100.604 33.963 104.57 39.58 104.647 39.587 104.647 28.246 104.57 28.243 100.604 33.963"/></clipPath></defs><title>CBD - MK Ultra</title><polygon class="cls-2" points="183.04 28.528 104.483 28.23 100.517 33.949 104.483 39.566 183.04 39.432 186.609 33.981 183.04 28.528"/><polygon class="cls-1" points="100.604 33.963 104.57 39.58 104.647 39.587 104.647 28.246 104.57 28.243 100.604 33.963"/><g class="cls-3"><rect class="cls-1" x="99.7268" y="27.36642" width="5.79561" height="13.09673"/></g><path class="cls-1" d="M146.66992,35.83691a1.92317,1.92317,0,0,1,1.36817-3.293,2.081,2.081,0,0,1,1.41259.51269l-.51269.56152a1.41864,1.41864,0,0,0-.8999-.30761,1.09481,1.09481,0,0,0-1.15137,1.14355,1.15165,1.15165,0,0,0,.32031.85059,1.13279,1.13279,0,0,0,.83594.31543,1.3805,1.3805,0,0,0,.895-.30469l.51269.56152a2.07494,2.07494,0,0,1-1.41259.5127A1.86991,1.86991,0,0,1,146.66992,35.83691Z"/><path class="cls-1" d="M153.00977,34.36133a1.09257,1.09257,0,0,1-.626,2.03125l-2.16406-.00293V32.5459h2.041q.97192.05712,1.02588,1.13086A.80507.80507,0,0,1,153.00977,34.36133Zm-2.01807-.27442h1.07666a.434.434,0,0,0,.477-.47949c-.0083-.1875-.165-.28711-.46924-.29687H150.9917Zm0,1.70313h1.25635a.50258.50258,0,0,0,.55371-.55664c-.0083-.2461-.19043-.375-.5459-.38477H150.9917Z"/><path class="cls-1" d="M154.312,36.38965V32.541H155.794q1.79516,0,1.79492,1.92578,0,1.92333-1.79492,1.92285Zm1.48194-.7666q1.02318-.00294,1.02587-1.15625-.00293-1.15429-1.02587-1.1543h-.7129v2.31055Z"/><path class="cls-1" d="M158.44775,33.9375a.37144.37144,0,0,1,.27686-.10449.3852.3852,0,0,1,.28711.10449.37164.37164,0,0,1,0,.51367.439.439,0,0,1-.564,0,.37292.37292,0,0,1,0-.51367Zm0,1.83594a.37144.37144,0,0,1,.27686-.10449.3852.3852,0,0,1,.28711.10449.37164.37164,0,0,1,0,.51367.439.439,0,0,1-.564,0,.37292.37292,0,0,1,0-.51367Z"/><path class="cls-1" d="M163.9502,33.64648l-1.48682.82032,1.48682.82031V35.877L161.51953,34.541v-.167l2.43067-1.31738Z"/><path class="cls-1" d="M167.28125,32.544V32.541h.7666v3.84863h-.7666V33.56934l-.5127.51269-.51269-.51269Z"/></svg>