<svg id="Layer_1" data-name="Layer 1" xmlns="http://www.w3.org/2000/svg" width="160" height="600" viewBox="0 0 160 600"><defs><style>.cls-1{fill:#ab9555;}</style></defs><title>frame3</title><path class="cls-1" d="M24.1745,296.00586V279.084h3.81934a4.8619,4.8619,0,0,1,2.72559.79639,3.70178,3.70178,0,0,1,1.48437,2.09131,5.887,5.887,0,0,1,.24317,1.79492,3.97267,3.97267,0,0,1-.9043,2.72559,2.5669,2.5669,0,0,1-.89063.66162,2.96354,2.96354,0,0,1,1.44434,1.28174,4.98844,4.98844,0,0,1,.58008,1.67334,6.71474,6.71474,0,0,1,.09472,1.17382,5.65689,5.65689,0,0,1-.60742,2.72608,3.91015,3.91015,0,0,1-3.26562,1.99707Zm2.75293-10.0127h1.06641a1.56365,1.56365,0,0,0,1.59277-1.16064,3.31693,3.31693,0,0,0,.14844-1.06592,2.2298,2.2298,0,0,0-.51367-1.59228,1.61135,1.61135,0,0,0-1.22754-.49952H26.92743Zm0,7.48926h1.06641a1.81025,1.81025,0,0,0,1.79492-1.33594,2.94993,2.94993,0,0,0,.17481-1.05273,3.20824,3.20824,0,0,0-.53907-2.06445,1.74074,1.74074,0,0,0-1.43066-.59375H26.92743Z"/><path class="cls-1" d="M41.28486,279.09766a3.89,3.89,0,0,1,3.13086,1.17382,4.27078,4.27078,0,0,1,.877,2.86084v2.45606a3.95284,3.95284,0,0,1-1.36328,3.03613l1.88867,7.38135H43.06025l-1.5459-6.36914h-1.7002v6.36914H37.26337v-16.9082Zm1.52441,4.07519a1.29414,1.29414,0,0,0-1.457-1.47119H39.81415v5.41162h1.53809a1.3943,1.3943,0,0,0,1.03223-.43213,1.42794,1.42794,0,0,0,.4248-1.03906Z"/><path class="cls-1" d="M50.28486,296.00586V279.084h7.25976v2.564h-4.709v4.61523h3.44043v2.56348H52.83564v4.61523h4.709v2.564Z"/><path class="cls-1" d="M64.85419,292.11963l-.62012,3.88623H61.5788l2.874-16.9082h3.50879l2.834,16.9082H68.114l-.59668-3.88623Zm1.33985-9.14942-.94532,6.66651h1.88965Z"/><path class="cls-1" d="M75.5456,281.66162H72.83271v-2.564h7.96191v2.564H78.0954v14.34424H75.5456Z"/><path class="cls-1" d="M87.67646,288.84033v7.16553H85.12568v-16.9082h2.55078v7.17871h3.07617v-7.17871h2.55078v16.9082H90.75263v-7.16553Z"/><path class="cls-1" d="M97.863,296.00586V279.084h7.25977v2.564h-4.709v4.61523h3.44043v2.56348h-3.44043v4.61523h4.709v2.564Z"/><path class="cls-1" d="M117.26142,296.00586h-2.55078v-16.9082h2.55078Z"/><path class="cls-1" d="M124.68525,279.084,128.07,290.45654V279.084h2.55078v16.92188h-2.73925l-3.50879-10.83594v10.83594H121.822V279.084Z"/><path class="cls-1" d="M134.655,293.46875h2.55078v2.55078H134.655Z"/></svg>