<svg id="Content" xmlns="http://www.w3.org/2000/svg" xmlns:xlink="http://www.w3.org/1999/xlink" width="300" height="250" viewBox="0 0 300 250"><defs><style>.cls-1{fill:url(#New_Gradient_Swatch_1);}.cls-2{fill:#fff;}.cls-3{fill:#ba9544;}</style><linearGradient id="New_Gradient_Swatch_1" x1="256.41981" y1="157.4565" x2="284.82741" y2="157.4565" gradientUnits="userSpaceOnUse"><stop offset="0" stop-color="#a88a34"/><stop offset="0.49324" stop-color="#caaf67"/><stop offset="1" stop-color="#957f2e"/></linearGradient></defs><title>pine</title><polygon class="cls-1" points="281.99 167.296 267.786 172.219 256.42 162.38 259.258 147.617 273.461 142.694 284.827 152.533 281.99 167.296"/><path class="cls-2" d="M275.34824,161.91883l-4.74947-11.33725-4.69871,11.33725,4.46136.89309v1.26762a.26219.26219,0,0,0,.52407,0v-1.26762Z"/><path class="cls-3" d="M261.93361,186.08037v-5.42578h2.36523q1.89992,0,1.89942,1.5625,0,1.62012-1.89551,1.61914h-1.28418v2.24414Zm1.085-3.25586h1.51953q.65333-.01172.67285-.59766-.019-.53321-.66211-.55664h-1.53027Z"/><path class="cls-3" d="M266.99806,180.65068h1.08106v5.42969h-1.08106Z"/><path class="cls-3" d="M269.168,186.08037v-5.42578h.36133l3.40039,3.40039v-3.40039h1.085v5.42578h-.39746l-3.36425-3.36524v3.36524Z"/><path class="cls-3" d="M275.125,186.08037v-5.42188l3.98632-.0039v1.01172H276.21v1.1582h2.17382v1.00977H276.21v1.23242h2.89355v1.01367Z"/></svg>