<svg id="Layer_1" data-name="Layer 1" xmlns="http://www.w3.org/2000/svg" xmlns:xlink="http://www.w3.org/1999/xlink" width="34.30022" height="50.66788" viewBox="0 0 34.30022 50.66788"><defs><style>.cls-1{fill:url(#New_Gradient_Swatch_1);}.cls-2{fill:#fff;}.cls-3{fill:#ba9544;}</style><linearGradient id="New_Gradient_Swatch_1" x1="0.75176" y1="17.16013" x2="34.30022" y2="17.16013" gradientUnits="userSpaceOnUse"><stop offset="0" stop-color="#a88a34"/><stop offset="0.49324" stop-color="#caaf67"/><stop offset="1" stop-color="#957f2e"/></linearGradient></defs><title>sweet</title><polygon class="cls-1" points="14.688 34.32 0.752 18.227 11.752 0 32.485 4.829 34.3 26.039 14.688 34.32"/><path class="cls-2" d="M25.84423,11.34823a.833.833,0,0,1-.83241-.83241,1.34684,1.34684,0,0,0-1.34749-1.34748H23.2242a.90822.90822,0,0,0-.909.90736v3.14467a4.429,4.429,0,0,0-5.82687.38431l-.84358.84357a4.429,4.429,0,0,0-.38431,5.82689H12.1158a.90718.90718,0,0,0-.90736.909v.44013a1.34685,1.34685,0,0,0,1.34749,1.34749.833.833,0,0,1,.83241.83241,1.34683,1.34683,0,0,0,1.34749,1.34748H15.176a.90819.90819,0,0,0,.90894-.90736V21.09957a4.429,4.429,0,0,0,5.8269-.38431l.84356-.84357a4.429,4.429,0,0,0,.38431-5.82689h3.14467a.9082.9082,0,0,0,.90736-.909v-.44013a1.34682,1.34682,0,0,0-1.34747-1.34749"/><path class="cls-3" d="M3.80518,44.5712a2.92544,2.92544,0,0,1,.90429.63086l-.84082.84082A1.44763,1.44763,0,0,0,2.69092,45.538q-.75661,0-.9668.35743a.49157.49157,0,0,0,0,.60937,1.655,1.655,0,0,0,.9668.37891,3.13014,3.13014,0,0,1,1.45068.52539,1.57967,1.57967,0,0,1,.65186,1.40918,1.61676,1.61676,0,0,1-.6958,1.30273,2.54985,2.54985,0,0,1-1.6211.54688,3.739,3.739,0,0,1-1.46728-.252A3.19335,3.19335,0,0,1,0,49.74307l.84131-.84082a1.99819,1.99819,0,0,0,1.4292.58789q.84081,0,1.04931-.35742a.66446.66446,0,0,0,0-.71387q-.208-.35742-1.04931-.44238A3.38862,3.38862,0,0,1,.8833,47.51456a1.3963,1.3963,0,0,1-.63086-1.30371,1.57031,1.57031,0,0,1,.7168-1.34375,2.53025,2.53025,0,0,1,1.47363-.50586A3.51,3.51,0,0,1,3.80518,44.5712Z"/><path class="cls-3" d="M9.75537,46.04288l-1.26172,4.625H7.23242l-1.686-6.30664H6.8916l1.09766,4.28808,1.13525-4.28808h1.30322L11.521,48.64932l1.09326-4.28808H13.96l-1.68213,6.30664H11.0166Z"/><path class="cls-3" d="M14.87646,50.66788V44.36514l4.63331-.0039V45.538H16.1377V46.8837h2.52685v1.17285H16.1377v1.43359h3.36376v1.17774Z"/><path class="cls-3" d="M20.76318,50.66788V44.36514l4.6333-.0039V45.538H22.02441V46.8837h2.52686v1.17285H22.02441v1.43359h3.36377v1.17774Z"/><path class="cls-3" d="M31.813,44.36124V45.538h-2.102v5.12989H28.44922V45.538H26.34717V44.36124Z"/></svg>