<svg id="Content" xmlns="http://www.w3.org/2000/svg" xmlns:xlink="http://www.w3.org/1999/xlink" width="728" height="360" viewBox="0 0 728 360"><defs><style>.cls-1{fill:none;}.cls-2{fill:url(#New_Gradient_Swatch_1);}.cls-3{fill:#fff;}.cls-4{fill:#ba9544;}.cls-5{clip-path:url(#clip-path);}</style><linearGradient id="New_Gradient_Swatch_1" x1="284.83181" y1="175.05363" x2="341.76284" y2="175.05363" gradientUnits="userSpaceOnUse"><stop offset="0" stop-color="#a88a34"/><stop offset="0.49324" stop-color="#caaf67"/><stop offset="1" stop-color="#957f2e"/></linearGradient><clipPath id="clip-path"><rect class="cls-1" x="461.86539" y="-134.33868" width="208.12648" height="92"/></clipPath></defs><title>earthy</title><polygon class="cls-2" points="336.077 155.335 307.61 145.468 284.832 165.186 290.52 194.772 318.984 204.64 341.763 184.921 336.077 155.335"/><path class="cls-3" d="M320.4495,181.97459a6.66582,6.66582,0,0,0-3.32951-3.07928,3.26649,3.26649,0,0,0-2.49367.2447,6.96015,6.96015,0,0,0-1.30319-.33543c.17594-1.49015,1.317-3.46969,2.76861-5.45472.07149.00274.14021.00274.209.00274.26941.00275.5361.0055.80006.0055,3.09853,0,5.84512-.40965,5.98809-6.00734a8.62244,8.62244,0,0,1,1.16572-2.6229l.42615-.69833h-.81928a8.86655,8.86655,0,0,0-8.85571,8.85843v.4179c-.33541.48115-.6516.95953-.943,1.43242a11.36193,11.36193,0,0,0-11.32736-10.70875H301.916l.42615.69833a11.23363,11.23363,0,0,1,1.53141,3.4697c.18144,7.13459,3.68691,7.657,7.64322,7.657.33818,0,.67908-.00275,1.02-.00825.29694-.00275.5966-.0055.899-.0055a8.77089,8.77089,0,0,0-1.02824,2.88408,4.14927,4.14927,0,0,0-3.9426,2.183,5.2007,5.2007,0,0,0-4.23949.2282c-1.229.77531-1.88335,2.27922-1.95207,4.46771l-.01376.47288h21.9289l.08525-.35191a2.76692,2.76692,0,0,0-.46189-2.10326,4.64519,4.64519,0,0,0-3.36245-1.64688"/><path class="cls-4" d="M281.24259,235.57538V224.70917l7.98926-.00781v2.03027h-5.81446V229.051h4.35742v2.02246h-4.35742v2.47168h5.79981v2.03027Z"/><path class="cls-4" d="M290.849,235.57538l4.34961-10.874h2.17481l4.34179,10.86718-2.3125.00684-.65234-1.667h-4.92969l-.65234,1.667Zm5.49414-7.97461-1.65234,4.13281h3.26172Z"/><path class="cls-4" d="M309.88517,230.83417l2.71191,4.74121h-2.49414l-2.60254-4.49414h-1.98633v4.49414h-2.1748v-10.874h4.74121q3.80566,0,3.80566,3.13183A2.81164,2.81164,0,0,1,309.88517,230.83417Zm-4.3711-1.7832H308.559q1.311-.022,1.34864-1.19629-.03663-1.07228-1.32715-1.11621h-3.06641Z"/><path class="cls-4" d="M322.601,224.70136v2.03027h-3.624v8.84375h-2.1748v-8.84375h-3.625v-2.03027Z"/><path class="cls-4" d="M324.2172,235.57538v-10.874h2.1748V229.051h5.06739v-4.35645h2.1748v10.874l-2.1748.00684v-4.49414H326.392v4.49414Z"/><path class="cls-4" d="M335.34513,224.70136h2.55176l2.52246,3.55175,2.58105-3.55175h2.49316l-3.98632,5.4375v5.43652h-2.17481v-5.43652Z"/><g class="cls-5"><image id="SmallTopDown-8297-DurgaMata2.psd" width="1500" height="1261" transform="translate(443.42939 -154.61789) scale(0.12656)" xlink:href="../../../../../Dropbox%20(Revolution%20Strategy)/Rocio%20Ugarte/Clients/Namaste/Digital%20Ads/_Flight%202:Phase%202%20Terpene/1.%20Animated%20w:%20Packaging/8.%20Expandable%20Unit%20728%20x%2090:728%20x%20360/728%20x%2090_728%20x%20360_Folder/Links/SmallTopDown-8297-DurgaMata2.png"/></g></svg>