<svg id="Content" xmlns="http://www.w3.org/2000/svg" width="728" height="90" viewBox="0 0 728 90"><defs><style>.cls-1{fill:#ba9544;}</style></defs><title>Frame1 - Durga Mata</title><path class="cls-1" d="M301.71329,35.72607h5.56738c3.51954,0,5.24805,1.95215,5.24805,5.53614V52.58887c0,3.583-1.72851,5.53515-5.24805,5.53515h-5.56738Zm3.51953,3.2002V54.92383h1.98438c1.11914,0,1.791-.5752,1.791-2.17578v-11.646c0-1.60059-.67187-2.17578-1.791-2.17578Z"/><path class="cls-1" d="M321.52091,35.72607V53.00391c0,1.60058.7041,2.17675,1.82324,2.17675,1.12012,0,1.82422-.57617,1.82422-2.17675V35.72607h3.32812v17.0542c0,3.584-1.792,5.63184-5.248,5.63184s-5.24707-2.04785-5.24707-5.63184V35.72607Z"/><path class="cls-1" d="M341.64786,58.124a6.90566,6.90566,0,0,1-.31933-2.752V51.85254c0-2.08008-.70411-2.84766-2.30372-2.84766H337.809V58.124h-3.5205v-22.398H339.6c3.64844,0,5.21582,1.69629,5.21582,5.15137v1.75977c0,2.30468-.73535,3.8081-2.30371,4.54345,1.75977.73633,2.33594,2.43164,2.33594,4.76758V55.4043a6.603,6.603,0,0,0,.38379,2.71972ZM337.809,38.92627v6.87891h1.376c1.31152,0,2.11133-.57618,2.11133-2.36719V41.23c0-1.60059-.54395-2.30371-1.792-2.30371Z"/><path class="cls-1" d="M355.82364,45.645h4.92774v7.103c0,3.584-1.792,5.63183-5.24707,5.63183-3.45606,0-5.248-2.04785-5.248-5.63183v-11.646c0-3.584,1.792-5.63184,5.248-5.63184,3.45508,0,5.24707,2.04786,5.24707,5.63184v2.17578h-3.32813V40.87744c0-1.59961-.70312-2.207-1.82324-2.207s-1.82422.60742-1.82422,2.207V52.97266c0,1.59961.7041,2.17578,1.82422,2.17578s1.82324-.57617,1.82324-2.17578V48.84473h-1.59961Z"/><path class="cls-1" d="M377.807,58.124h-3.55176l-.60742-4.06347h-4.31933l-.6084,4.06347h-3.23145l3.583-22.398H374.224Zm-8.03125-7.10351h3.3916l-1.69531-11.32666Z"/><path class="cls-1" d="M398.64,51.62891l2.39941-15.90284H405.935V58.124h-3.32715V42.062l-2.43164,16.062h-3.32812l-2.624-15.83838V58.124h-3.07129v-22.398h4.89551Z"/><path class="cls-1" d="M423.27872,58.124H419.727l-.60742-4.06347h-4.31933l-.6084,4.06347h-3.23145l3.583-22.398h5.15234Zm-8.03125-7.10351h3.3916l-1.69531-11.32666Z"/><path class="cls-1" d="M427.2797,35.72607h10.87988v3.2002h-3.67969V58.124h-3.5205V38.92627H427.2797Z"/><path class="cls-1" d="M454.47794,58.124h-3.55176l-.60742-4.06347h-4.31934L445.391,58.124h-3.23145l3.583-22.398h5.15234Zm-8.03125-7.10351h3.3916L448.143,39.69385Z"/><path class="cls-1" d="M473.00626,38.67041c-1.12012,0-1.82422.60742-1.82422,2.207v2.40039h-3.32715V41.10205c0-3.584,1.791-5.63184,5.24707-5.63184s5.248,2.04786,5.248,5.63184c0,7.03857-7.00781,9.6626-7.00781,13.34229a2.39588,2.39588,0,0,0,.03222.47949h6.65528V58.124H467.85489v-2.752c0-6.5918,6.97559-7.67969,6.97559-14.14209C474.83048,39.21436,474.12638,38.67041,473.00626,38.67041Z"/></svg>