<?xml version="1.0" encoding="utf-8"?>
<!-- Generator: Adobe Illustrator 23.0.1, SVG Export Plug-In . SVG Version: 6.00 Build 0)  -->
<svg version="1.1" id="Content" xmlns="http://www.w3.org/2000/svg" xmlns:xlink="http://www.w3.org/1999/xlink" x="0px" y="0px"
	 viewBox="0 0 728 360" style="enable-background:new 0 0 728 360;" xml:space="preserve">
<style type="text/css">
	.st0{display:none;fill:#FFFFFF;stroke:#BA9544;stroke-width:0.5;stroke-miterlimit:10;}
	.st1{display:none;fill:#BA9544;}
	.st2{display:none;}
	.st3{display:inline;}
	.st4{display:inline;clip-path:url(#SVGID_2_);}
	.st5{fill:#BA9544;}
	.st6{fill:#FFFFFF;stroke:#BA9544;stroke-width:0.5;stroke-miterlimit:10;}
</style>
<title>THC - Durga Mata</title>
<polygon class="st0" points="635.3,223.3 402.7,222.5 390.9,239.4 402.7,256 635.3,255.6 645.8,239.5 "/>
<polygon class="st1" points="391.2,239.4 402.9,256.1 431.8,256.1 431.8,222.5 402.9,222.5 "/>
<g class="st2">
	<defs>
		<polygon id="SVGID_1_" points="391.2,239.4 402.9,256.1 431.8,256.1 431.8,222.5 402.9,222.5 		"/>
	</defs>
	<clipPath id="SVGID_2_" class="st3">
		<use xlink:href="#SVGID_1_"  style="overflow:visible;"/>
	</clipPath>
	<g class="st4">
		<rect x="388.6" y="219.9" class="st5" width="17.2" height="38.8"/>
	</g>
</g>
<polygon class="st6" points="635.3,170.6 402.7,169.7 390.9,186.6 402.7,203.3 635.3,202.9 645.8,186.7 "/>
<polygon class="st5" points="402.8,169.7 391.1,186.6 402.8,203.3 426.1,203.3 425.9,169.7 "/>
<path class="st5" d="M535.8,181.1v2.1H532v9.3h-2.3v-9.3h-3.8v-2.1H535.8z"/>
<path class="st5" d="M537.5,192.5v-11.4h2.3v4.6h5.3v-4.6h2.3v11.4h-2.3v-4.7h-5.3v4.7L537.5,192.5z"/>
<path class="st5" d="M550.9,190.8c-2.2-2.2-2.3-5.8,0-8.1c1.1-1.1,2.6-1.7,4.1-1.7c1.5,0,3,0.5,4.2,1.5l-1.5,1.7
	c-0.8-0.6-1.7-0.9-2.7-0.9c-1.8-0.1-3.3,1.3-3.4,3.1c0,0.1,0,0.2,0,0.3c0,0.9,0.3,1.9,1,2.5c0.7,0.6,1.6,1,2.5,0.9
	c1,0,1.9-0.3,2.7-0.9l1.5,1.7c-1.2,1-2.7,1.6-4.2,1.5C553.5,192.5,552,191.9,550.9,190.8z"/>
<path class="st5" d="M561.7,185.2c0.2-0.2,0.5-0.3,0.8-0.3c0.3,0,0.6,0.1,0.8,0.3c0.4,0.4,0.4,1.1,0,1.5c-0.5,0.4-1.2,0.4-1.7,0
	C561.3,186.3,561.3,185.6,561.7,185.2z M561.7,190.6c0.2-0.2,0.5-0.3,0.8-0.3c0.3,0,0.6,0.1,0.8,0.3c0.2,0.2,0.3,0.5,0.3,0.8
	c0,0.3-0.1,0.6-0.3,0.8c-0.5,0.4-1.2,0.4-1.7,0c-0.2-0.2-0.3-0.5-0.3-0.8C561.4,191.1,561.5,190.9,561.7,190.6z"/>
<path class="st5" d="M576.2,181.1L576.2,181.1h2.3v6.6h1.5v2.3h-1.5v2.5h-2.3V190H571v-2.3h0.1l-0.1-0.1L576.2,181.1z M576.2,187.7
	v-3.6l-2.8,3.6H576.2z"/>
<path class="st5" d="M581.7,189.4v-1.5h4.7v1.5H581.7z"/>
<path class="st5" d="M594.8,186.7l0.4,0.1c0.8,0.4,1.3,1.3,1.2,2.3c0.1,1-0.3,1.9-1.1,2.5c-1.7,1.1-3.9,1.1-5.7,0
	c-0.8-0.6-1.2-1.6-1.1-2.5c-0.1-0.9,0.3-1.8,1.2-2.3l0.4-0.1l-0.2-0.1c-0.7-0.5-1.1-1.3-1-2.2c0-0.9,0.3-1.8,1-2.5
	c1.6-1.2,3.7-1.2,5.3,0c0.7,0.6,1,1.5,1,2.5c0.1,0.9-0.3,1.7-1,2.2L594.8,186.7z M592.4,185.7c0.5,0.1,1-0.1,1.3-0.5
	c0.2-0.4,0.2-0.9,0-1.3c-0.3-0.4-0.8-0.7-1.3-0.6c-0.5,0-1,0.2-1.3,0.6c-0.3,0.4-0.3,0.9,0,1.3C591.3,185.5,591.8,185.7,592.4,185.7
	L592.4,185.7z M592.4,187.8c-0.5,0-1,0.3-1.3,0.7c-0.3,0.4-0.3,0.9,0,1.3c0.3,0.4,0.8,0.7,1.3,0.6c0.5,0,1-0.2,1.3-0.6
	c0.2-0.4,0.2-0.9,0-1.3C593.4,188,592.9,187.8,592.4,187.8L592.4,187.8z"/>
<path class="st5" d="M599,185.9c-0.5-0.5-0.8-1.3-0.8-2c0-1.5,1.2-2.8,2.7-2.9c0,0,0.1,0,0.1,0c1.5,0,2.8,1.2,2.8,2.7
	c0,0,0,0.1,0,0.1c0,1.5-1.2,2.8-2.7,2.9c0,0-0.1,0-0.1,0C600.3,186.8,599.5,186.5,599,185.9z M601,185.4c0.4,0,0.7-0.2,1-0.4
	c0.3-0.3,0.4-0.7,0.4-1.1c0-0.4-0.1-0.8-0.4-1.1c-0.3-0.3-0.7-0.4-1-0.4c-0.4,0-0.7,0.1-1,0.4c-0.3,0.3-0.4,0.7-0.4,1.1
	c0,0.4,0.1,0.8,0.4,1.1C600.2,185.2,600.6,185.4,601,185.4L601,185.4z M600.4,192.5l6.5-11.4h1.9l-6.4,11.4H600.4z M606,191.7
	c-1.2-1.1-1.2-3-0.1-4.1c1.1-1.2,3-1.2,4.1-0.1c1.2,1.1,1.2,3,0.1,4.1c-0.6,0.6-1.3,0.9-2.1,0.9C607.3,192.5,606.6,192.3,606,191.7
	L606,191.7z M608,191.2c0.4,0,0.7-0.1,1-0.4c0.5-0.6,0.5-1.5,0-2.1c-0.5-0.6-1.4-0.6-2,0c0,0,0,0,0,0c-0.5,0.6-0.5,1.5,0,2.1
	C607.3,191,607.7,191.2,608,191.2L608,191.2z"/>
<path class="st1" d="M527.6,245c-2.2-2.2-2.3-5.8,0-8.1c1.1-1.1,2.5-1.7,4-1.7c1.5,0,3,0.5,4.2,1.5l-1.5,1.7
	c-0.8-0.6-1.7-0.9-2.7-0.9c-1.8-0.1-3.3,1.3-3.4,3.1c0,0.1,0,0.2,0,0.3c0,0.9,0.3,1.9,1,2.5c0.7,0.6,1.6,1,2.5,0.9
	c1,0,1.9-0.3,2.7-0.9l1.5,1.7c-1.2,1-2.6,1.6-4.2,1.5C530.1,246.7,528.6,246.1,527.6,245z"/>
<path class="st1" d="M546.4,240.6c0.9,0.6,1.5,1.5,1.6,2.6c0.1,1.8-1.3,3.3-3,3.4c-0.1,0-0.3,0-0.4,0h-6.4v-11.4h6
	c1.9,0.1,2.9,1.2,3,3.4C547.2,239.3,546.9,240.1,546.4,240.6z M540.4,239.8h3.2c0.7,0.1,1.3-0.4,1.4-1.1c0-0.1,0-0.2,0-0.3
	c0-0.6-0.5-0.9-1.4-0.9h-3.2V239.8z M540.4,244.8h3.7c0.8,0.1,1.5-0.5,1.6-1.3c0-0.1,0-0.2,0-0.4c0-0.7-0.6-1.1-1.6-1.1h-3.8V244.8z
	"/>
<path class="st1" d="M550.2,246.6v-11.4h4.4c3.5,0,5.3,1.9,5.3,5.7c0,3.8-1.8,5.7-5.3,5.7H550.2z M554.6,244.3c2,0,3-1.1,3-3.4
	c0-2.3-1-3.4-3-3.4h-2.1v6.8H554.6z"/>
<path class="st1" d="M562.5,239.4c0.2-0.2,0.5-0.3,0.8-0.3c0.3,0,0.6,0.1,0.8,0.3c0.2,0.2,0.3,0.5,0.3,0.8c0,0.3-0.1,0.6-0.3,0.8
	c-0.5,0.4-1.2,0.4-1.7,0c-0.2-0.2-0.3-0.5-0.3-0.8C562.1,239.8,562.3,239.6,562.5,239.4z M562.5,244.8c0.2-0.2,0.5-0.3,0.8-0.3
	c0.3,0,0.6,0.1,0.8,0.3c0.2,0.2,0.3,0.5,0.3,0.8c0,0.3-0.1,0.6-0.3,0.8c-0.5,0.4-1.2,0.4-1.7,0c-0.2-0.2-0.3-0.5-0.3-0.8
	C562.2,245.3,562.3,245,562.5,244.8z"/>
<path class="st1" d="M579.9,240.3c0,2.4-0.5,4.1-1.4,5.1c-0.8,0.9-2.1,1.4-3.3,1.2c-1.2-0.1-2.3-0.6-3.1-1.4l1.3-1.4
	c0.6,0.4,1.2,0.6,1.9,0.6c0.6,0.1,1.2-0.1,1.6-0.5c0.5-0.5,0.8-1.2,0.8-1.9c-0.7,0.5-1.5,0.8-2.4,0.8c-1.1,0-2.1-0.5-2.8-1.3
	c-0.6-0.8-0.8-1.8-0.7-2.9c0.1-1,0.6-1.9,1.3-2.6c0.9-0.7,2-1,3.1-0.8c1,0.1,2,0.7,2.6,1.5C579.6,237.8,579.9,239,579.9,240.3z
	 M577.6,239c-0.1-1.1-0.7-1.6-1.8-1.7s-1.8,0.6-1.8,1.5c0,1,0.9,1.8,1.9,1.8C576.7,240.6,577.5,239.9,577.6,239L577.6,239z"/>
<path class="st1" d="M581.9,243.6v-1.5h4.7v1.5H581.9z"/>
<path class="st1" d="M591.5,235.2h2.3v11.4h-2.3v-8.4l-1.5,1.5l-1.5-1.5L591.5,235.2z"/>
<path class="st1" d="M603.1,240.9l0.4,0.1c0.8,0.4,1.3,1.3,1.2,2.3c0,0.9-0.5,1.8-1.3,2.4c-0.8,0.7-1.9,1-2.9,1
	c-0.9,0-1.8-0.1-2.7-0.5c-0.7-0.3-1.3-0.7-1.8-1.2l1.5-1.5c0.7,0.7,1.6,1.1,2.6,1.1c1,0,1.6-0.2,1.9-0.6c0.3-0.4,0.3-0.9,0-1.3
	c-0.2-0.4-1.1-0.7-2.7-0.7v-2.1c1.5,0.1,2.4-0.1,2.7-0.5c0.3-0.4,0.3-0.9,0-1.3c-0.2-0.4-0.9-0.6-1.9-0.6c-0.8-0.1-1.7,0.3-2.2,0.9
	l-1.5-1.5c0.5-0.5,1-0.9,1.6-1.1c0.8-0.3,1.6-0.4,2.5-0.4c1,0,2,0.3,2.8,1c0.7,0.6,1.1,1.4,1.1,2.4c0.1,0.9-0.3,1.7-1,2.2
	L603.1,240.9z"/>
<path class="st1" d="M607.2,240c-0.5-0.5-0.8-1.3-0.8-2c0-1.5,1.2-2.8,2.7-2.9c0,0,0.1,0,0.1,0c1.5,0,2.8,1.2,2.8,2.7
	c0,0,0,0.1,0,0.1c0,1.5-1.2,2.8-2.7,2.9c0,0-0.1,0-0.1,0C608.5,240.9,607.7,240.6,607.2,240z M609.2,239.5c0.4,0,0.7-0.2,1-0.4
	c0.3-0.3,0.4-0.7,0.4-1.1c0-0.4-0.1-0.8-0.4-1.1c-0.3-0.3-0.6-0.4-1-0.4c-0.4,0-0.7,0.1-1,0.4c-0.3,0.3-0.4,0.7-0.4,1.1
	c0,0.4,0.1,0.8,0.4,1.1C608.4,239.3,608.8,239.5,609.2,239.5L609.2,239.5z M608.6,246.6l6.5-11.4h1.8l-6.4,11.4H608.6z M614.2,245.8
	c-0.5-0.5-0.8-1.2-0.8-2c0-0.8,0.3-1.5,0.8-2c1.1-1.1,2.9-1.1,4,0c0.5,0.5,0.8,1.2,0.8,2c0,1.6-1.3,2.8-2.9,2.8
	C615.4,246.6,614.7,246.3,614.2,245.8L614.2,245.8z M616.2,245.3c0.4,0,0.7-0.1,1-0.4c0.3-0.3,0.4-0.6,0.4-1c0-0.4-0.1-0.7-0.4-1
	c-0.5-0.6-1.4-0.6-2,0c0,0,0,0,0,0c-0.3,0.3-0.4,0.6-0.4,1c0,0.4,0.1,0.7,0.4,1C615.5,245.1,615.9,245.3,616.2,245.3L616.2,245.3z"
	/>
</svg>
