<?xml version="1.0" encoding="utf-8"?>
<!-- Generator: Adobe Illustrator 23.0.1, SVG Export Plug-In . SVG Version: 6.00 Build 0)  -->
<svg version="1.1" id="Layer_1" xmlns="http://www.w3.org/2000/svg" xmlns:xlink="http://www.w3.org/1999/xlink" x="0px" y="0px"
	 viewBox="0 0 970 250" enable-background="new 0 0 970 250" xml:space="preserve">
<g>
	<g>
		<polygon fill="#FFFFFF" stroke="#BA9544" stroke-width="0.5" stroke-miterlimit="10" points="612.67,99.2 380.07,98.32 
			368.32,115.25 380.07,131.88 612.67,131.49 623.23,115.35 		"/>
		<polygon fill="#BA9544" points="380.23,98.32 368.49,115.25 380.23,131.88 394.84,131.88 394.84,98.32 		"/>
	</g>
	<g>
		<path fill="#BA9544" d="M513.2,109.07v2.13h-3.8v9.26h-2.28v-9.26h-3.8v-2.13H513.2z"/>
		<path fill="#BA9544" d="M514.89,120.46v-11.39h2.28v4.56h5.31v-4.56h2.28v11.39l-2.28,0.01v-4.71h-5.31v4.71H514.89z"/>
		<path fill="#BA9544" d="M528.29,118.82c-1.09-1.09-1.64-2.45-1.64-4.08c0-1.6,0.55-2.94,1.64-4.04c1.09-1.09,2.44-1.64,4.05-1.64
			c1.63,0,3.02,0.51,4.18,1.52l-1.52,1.66c-0.77-0.61-1.66-0.91-2.67-0.91c-1.02,0-1.85,0.32-2.47,0.96
			c-0.63,0.63-0.94,1.44-0.94,2.43c0,1.06,0.32,1.9,0.95,2.52c0.63,0.62,1.45,0.93,2.48,0.93c1.02,0,1.91-0.3,2.65-0.9l1.52,1.66
			c-1.16,1.01-2.55,1.52-4.18,1.52C530.73,120.45,529.38,119.91,528.29,118.82z"/>
		<path fill="#BA9544" d="M539.07,113.2c0.2-0.21,0.48-0.31,0.82-0.31c0.36,0,0.65,0.1,0.85,0.31c0.2,0.21,0.3,0.46,0.3,0.76
			s-0.1,0.56-0.3,0.76c-0.2,0.2-0.48,0.3-0.83,0.3c-0.35,0-0.63-0.1-0.84-0.3c-0.2-0.2-0.3-0.46-0.3-0.76S538.87,113.4,539.07,113.2
			z M539.07,118.63c0.2-0.21,0.48-0.31,0.82-0.31c0.36,0,0.65,0.1,0.85,0.31c0.2,0.21,0.3,0.46,0.3,0.76s-0.1,0.56-0.3,0.76
			c-0.2,0.2-0.48,0.3-0.83,0.3c-0.35,0-0.63-0.1-0.84-0.3c-0.2-0.2-0.3-0.46-0.3-0.76S538.87,118.84,539.07,118.63z"/>
		<path fill="#BA9544" d="M555.64,114.69c0.14,0.05,0.26,0.1,0.37,0.15c0.78,0.35,1.18,1.11,1.18,2.28c0,0.91-0.42,1.7-1.26,2.35
			c-0.84,0.66-1.81,0.99-2.93,0.99c-1.06,0-1.94-0.15-2.65-0.46c-0.71-0.3-1.32-0.71-1.82-1.21l1.52-1.52
			c0.51,0.61,1.37,0.96,2.58,1.06c1.01,0,1.64-0.21,1.89-0.65c0.25-0.43,0.25-0.86,0-1.29c-0.25-0.43-1.13-0.67-2.65-0.72v-2.05
			c1.51,0.1,2.4-0.06,2.65-0.49c0.25-0.43,0.25-0.86,0-1.29c-0.25-0.43-0.88-0.65-1.89-0.65c-0.96,0-1.7,0.3-2.2,0.91l-1.52-1.52
			c0.51-0.51,1.05-0.89,1.63-1.14c0.58-0.25,1.4-0.38,2.46-0.38c1.11,0,2.04,0.33,2.78,0.99s1.1,1.44,1.1,2.35
			c0,1.06-0.34,1.78-1.02,2.16C555.79,114.61,555.72,114.65,555.64,114.69z"/>
		<path fill="#BA9544" d="M559.04,117.41v-1.51h4.71v1.51H559.04z"/>
		<path fill="#BA9544" d="M567.16,120.46l0.01-0.76l3.56-8.5h-4.87l-0.01-2.13h7.77v0.84l-4.24,10.55H567.16z"/>
		<path fill="#BA9544" d="M576.11,113.88c-0.55-0.55-0.82-1.23-0.82-2.04s0.27-1.49,0.82-2.03c0.55-0.55,1.23-0.82,2.04-0.82
			s1.49,0.27,2.03,0.82c0.55,0.55,0.82,1.22,0.82,2.03s-0.27,1.49-0.82,2.04c-0.55,0.55-1.22,0.82-2.03,0.82
			S576.66,114.42,576.11,113.88z M578.13,113.34c0.42,0,0.77-0.14,1.04-0.43c0.27-0.29,0.4-0.65,0.4-1.08c0-0.43-0.13-0.79-0.4-1.07
			c-0.27-0.29-0.62-0.43-1.05-0.43c-0.42,0-0.76,0.14-1.03,0.43c-0.27,0.29-0.4,0.64-0.4,1.07c0,0.43,0.13,0.79,0.4,1.08
			C577.35,113.2,577.7,113.34,578.13,113.34z M577.52,120.46l6.45-11.39h1.85l-6.44,11.39H577.52z M583.17,119.71
			c-0.54-0.54-0.81-1.21-0.81-2.02s0.27-1.48,0.81-2.02c0.54-0.54,1.21-0.81,2.02-0.81c0.81,0,1.48,0.27,2.02,0.81
			c0.54,0.54,0.81,1.21,0.81,2.02s-0.27,1.48-0.81,2.02c-0.54,0.54-1.21,0.81-2.02,0.81C584.39,120.52,583.72,120.25,583.17,119.71z
			 M585.16,119.15c0.42,0,0.75-0.14,1.02-0.42c0.26-0.28,0.4-0.63,0.4-1.05c0-0.42-0.13-0.76-0.4-1.04
			c-0.26-0.28-0.6-0.42-1.02-0.42c-0.41,0-0.75,0.14-1.01,0.42c-0.26,0.28-0.39,0.63-0.39,1.04c0,0.42,0.13,0.77,0.39,1.05
			C584.4,119.01,584.74,119.15,585.16,119.15z"/>
	</g>
</g>
<g>
</g>
<g>
</g>
<g>
</g>
<g>
</g>
<g>
</g>
<g>
</g>
<g>
</g>
<g>
</g>
<g>
</g>
<g>
</g>
<g>
</g>
<g>
</g>
<g>
</g>
<g>
</g>
<g>
</g>
</svg>
