<svg id="Content" xmlns="http://www.w3.org/2000/svg" xmlns:xlink="http://www.w3.org/1999/xlink" viewBox="0 0 640 1136"><defs><style>.cls-1{fill:#fff;}.cls-2{fill:url(#New_Gradient_Swatch_1);}.cls-3{fill:#ba9544;}</style><linearGradient id="New_Gradient_Swatch_1" x1="281.41" y1="525.27" x2="371.95" y2="525.27" gradientUnits="userSpaceOnUse"><stop offset="0" stop-color="#a88a34"/><stop offset="0.49" stop-color="#caaf67"/><stop offset="1" stop-color="#957f2e"/></linearGradient></defs><title>minty</title><path class="cls-1" d="M308.65,513.8a3.5,3.5,0,0,1,.73-.3,7.72,7.72,0,0,1,.81-.21l.05,0,7.94-1.74a2.55,2.55,0,0,1,1.69.26l1.34,1.31L318.43,516l-8.86,2c-.36-1.6-.72-3.27-.92-4.16M336.21,536l-4.36-19.84a3,3,0,0,0-3.31-2.3l2.34-2.46.65.61,1-1a.62.62,0,0,0,0-.89l-4.7-4.44a.63.63,0,0,0-.89,0l-1,1,.77.74-3.12,3.27L322,509.15l-.11-.09a5.9,5.9,0,0,0-4.44-.83L309.6,510a10.3,10.3,0,0,0-1.39.35,4.71,4.71,0,0,0-2.54,1.7,2.71,2.71,0,0,0-.41,2.14l1.6,7.29,0,.15,4.36,19.85a3,3,0,0,0,3.54,2.25l19.14-4.21a3,3,0,0,0,2.28-3.53"/><polygon class="cls-2" points="359.74 555.75 322 570.24 287.14 549.76 281.42 509.74 309.14 480.31 349.43 483.63 371.95 517.21 359.74 555.75"/><path class="cls-1" d="M345.83,539.53a16,16,0,0,0-6.42-13.28s2-.74,3-.37a10.49,10.49,0,0,0-6.12-5.52,4.7,4.7,0,0,1,2.4-.29s-3.56-5.83-12.73-8.37a7.53,7.53,0,0,1,2.32-.28s-9.5-5.26-18.55.65c0,0,7.67,4,10.7,8.23,0,0-10.51-6.71-12-6.61,0,0-4.73,11.24,7.3,21.07a5.29,5.29,0,0,1-.29-2.33s4.77,5.76,9.43,7.31a5.54,5.54,0,0,1,0-2.27s3.24,3.33,6.67,3.81c0,0-.74-2-.21-3.07,0,0,7.72,4.59,14.47,1.32"/><path class="cls-3" d="M289.05,613V596.4h1.11l7.21,8.21,7.22-8.21h1.11V613h-3.33v-9.65l-5,5.55-5-5.55V613Z"/><path class="cls-3" d="M309,596.39h3.32V613H309Z"/><path class="cls-3" d="M315.67,613V596.4h1.11l10.42,10.43V596.4h3.33V613h-1.22L319,602.72V613Z"/><path class="cls-3" d="M347.56,596.4v3.11H342V613h-3.33V599.51h-5.54V596.4Z"/><path class="cls-3" d="M349.06,596.4H353l3.86,5.44,3.95-5.44h3.81l-6.1,8.32V613h-3.32v-8.32Z"/></svg>