<svg id="Content" xmlns="http://www.w3.org/2000/svg" xmlns:xlink="http://www.w3.org/1999/xlink" width="320" height="568" viewBox="0 0 320 568"><defs><style>.cls-1{fill:url(#New_Gradient_Swatch_1);}.cls-2{fill:#fff;}.cls-3{fill:#ba9544;}</style><linearGradient id="New_Gradient_Swatch_1" x1="63.50008" y1="227.57611" x2="109.77245" y2="227.57611" gradientUnits="userSpaceOnUse"><stop offset="0" stop-color="#a88a34"/><stop offset="0.49324" stop-color="#caaf67"/><stop offset="1" stop-color="#957f2e"/></linearGradient></defs><title>berry</title><polygon class="cls-1" points="82.721 203.908 63.5 226.105 78.672 251.245 107.269 244.585 109.772 215.329 82.721 203.908"/><path class="cls-2" d="M93.36311,230.07141a.42231.42231,0,1,1-.09018-.59166.42612.42612,0,0,1,.09018.59166m-2.525-5.3557a.53228.53228,0,1,1,.53007-.53227.53412.53412,0,0,1-.53007.53227m-.53007,6.41584a.53227.53227,0,1,1,.53227-.53227.53511.53511,0,0,1-.53227.53227m-.08138-3.91505a.4256.4256,0,1,1-.4267.4245.42618.42618,0,0,1,.4267-.4245m-1.13053,6.91072a.465.465,0,1,1-.17376-.63564.46125.46125,0,0,1,.17376.63564m-2.18407-6.96351a.46849.46849,0,1,1,.46849-.46848.46607.46607,0,0,1-.46849.46848m-.13637,3.57194a.4256.4256,0,1,1,.4245-.4245.42806.42806,0,0,1-.4245.4245m-1.37906,1.90693a.4245.4245,0,1,1,.4245-.4245.42807.42807,0,0,1-.4245.4245m-.48168-3.36737a.52974.52974,0,1,1-.06159-.74782.53184.53184,0,0,1,.06159.74782m-1.32408-4.38574a.46739.46739,0,1,1,.46628.46848.46937.46937,0,0,1-.46628-.46848m6.814-2.82632a11.11263,11.11263,0,0,0,2.382-1.83214,6.36172,6.36172,0,0,0-3.01986.30792,4.37525,4.37525,0,0,0,.46629-2.32485,2.37594,2.37594,0,0,0-1.742,1.38568,4.33205,4.33205,0,0,0-.60485-2.04551,2.6255,2.6255,0,0,0-.96777,2.36223,2.47249,2.47249,0,0,0-1.82556-1.53743,4.38564,4.38564,0,0,0,.4201,2.23026,6.17993,6.17993,0,0,0-3.18482-.3783,10.79846,10.79846,0,0,0,2.51179,1.90034c-2.51839.54327-4.27576,1.94873-4.27576,4.885,0,3.98763,5.03677,10.58163,7.22524,10.58163,2.36882,0,7.22524-6.594,7.22524-10.58163.0154-3.06606-1.90693-4.47371-4.61007-4.9532"/><path class="cls-3" d="M72.14551,271.4082a2.47008,2.47008,0,0,1-1.415,4.59278l-4.89453-.00586v-8.69336h4.61621q2.19873.12744,2.31933,2.55762A1.82024,1.82024,0,0,1,72.14551,271.4082Zm-4.56348-.62109h2.43555a.98189.98189,0,0,0,1.07812-1.084q-.02929-.63867-1.06054-.67285H67.582Zm0,3.85059h2.8418a1.135,1.135,0,0,0,1.252-1.25782q-.0293-.835-1.23535-.87011H67.582Z"/><path class="cls-3" d="M75.06836,275.99512v-8.69336l6.39062-.00586v1.624H76.80859v1.85547H80.294v1.61816H76.80859v1.97754h4.63868v1.624Z"/><path class="cls-3" d="M88.44727,272.20215l2.16992,3.793h-1.9961l-2.082-3.59571H84.95117v3.59571H83.21094V267.2959h3.793q3.04393,0,3.04492,2.50586A2.24949,2.24949,0,0,1,88.44727,272.20215Zm-3.4961-1.42676h2.43555q1.04883-.01758,1.07812-.957-.02929-.85693-1.06054-.89258H84.95117Z"/><path class="cls-3" d="M96.75781,272.20215l2.16992,3.793H96.93164l-2.082-3.59571H93.26172v3.59571H91.52148V267.2959h3.793q3.044,0,3.04493,2.50586A2.24948,2.24948,0,0,1,96.75781,272.20215Zm-3.49609-1.42676h2.43555q1.04881-.01758,1.07812-.957-.0293-.85693-1.06055-.89258H93.26172Z"/><path class="cls-3" d="M99.32227,267.2959h2.041l2.01758,2.8418,2.06445-2.8418h1.9961l-3.19043,4.34961v4.34961h-1.73926v-4.34961Z"/></svg>