<svg id="Content" xmlns="http://www.w3.org/2000/svg" width="320" height="480" viewBox="0 0 320 480"><defs><style>.cls-1{fill:#ba9544;}</style></defs><title>Frame1 - Sensi Star</title><path class="cls-1" d="M95.6875,343.71973c3.34863,0,5.06982,2.00293,5.06982,5.50781v.68848H97.50244v-.90821c0-1.56445-.626-2.1582-1.72119-2.1582s-1.72119.59375-1.72119,2.1582c0,4.50781,6.72851,5.35157,6.72851,11.61133,0,3.50586-1.75244,5.50781-5.13232,5.50781-3.38037,0-5.13281-2.002-5.13281-5.50781v-1.3457h3.25488v1.56445c0,1.56543.68848,2.12891,1.78369,2.12891,1.0957,0,1.78418-.56348,1.78418-2.12891,0-4.50586-6.729-5.35156-6.729-11.61035C90.61719,345.72266,92.33887,343.71973,95.6875,343.71973Z"/><path class="cls-1" d="M109.51709,353.20215h4.72559V356.332h-4.72559v6.416h5.94629v3.1289h-9.38867V343.96973h9.38867v3.12988h-5.94629Z"/><path class="cls-1" d="M123.97266,350.00977V365.877h-3.09815V343.96973h4.31885l3.53613,13.11328V343.96973h3.0669V365.877h-3.53614Z"/><path class="cls-1" d="M142.21484,343.71973c3.34864,0,5.06983,2.00293,5.06983,5.50781v.68848h-3.25488v-.90821c0-1.56445-.626-2.1582-1.7212-2.1582s-1.72119.59375-1.72119,2.1582c0,4.50781,6.72852,5.35157,6.72852,11.61133,0,3.50586-1.75244,5.50781-5.13233,5.50781-3.38037,0-5.13281-2.002-5.13281-5.50781v-1.3457h3.25488v1.56445c0,1.56543.68848,2.12891,1.7837,2.12891,1.0957,0,1.78418-.56348,1.78418-2.12891,0-4.50586-6.729-5.35156-6.729-11.61035C137.14453,345.72266,138.86621,343.71973,142.21484,343.71973Z"/><path class="cls-1" d="M152.60156,343.96973H156.044V365.877h-3.44239Z"/><path class="cls-1" d="M174.66113,343.71973c3.34864,0,5.06983,2.00293,5.06983,5.50781v.68848h-3.25489v-.90821c0-1.56445-.626-2.1582-1.72119-2.1582s-1.72119.59375-1.72119,2.1582c0,4.50781,6.72852,5.35157,6.72852,11.61133,0,3.50586-1.75244,5.50781-5.13233,5.50781-3.38037,0-5.13281-2.002-5.13281-5.50781v-1.3457H172.752v1.56445c0,1.56543.68848,2.12891,1.78369,2.12891,1.09571,0,1.78418-.56348,1.78418-2.12891,0-4.50586-6.729-5.35156-6.729-11.61035C169.59082,345.72266,171.3125,343.71973,174.66113,343.71973Z"/><path class="cls-1" d="M184.04688,343.96973H194.6875v3.12988h-3.59912V365.877H187.646V347.09961h-3.59912Z"/><path class="cls-1" d="M210.645,365.877h-3.47363l-.59473-3.97461h-4.2251l-.59472,3.97461h-3.16065l3.50537-21.90722h5.03858Zm-7.855-6.94726h3.31738l-1.65869-11.0791Z"/><path class="cls-1" d="M222.75293,365.877a6.74517,6.74517,0,0,1-.313-2.6914v-3.44239c0-2.03418-.68848-2.78613-2.25293-2.78613h-1.18945V365.877h-3.44238V343.96973H220.75c3.56787,0,5.10156,1.65918,5.10156,5.03808v1.72266c0,2.25195-.72021,3.72363-2.25342,4.44336,1.7212.71972,2.28467,2.3789,2.28467,4.66308v3.37989a6.45031,6.45031,0,0,0,.37549,2.66015Zm-3.75537-18.77734v6.72851h1.3457c1.2832,0,2.06543-.56347,2.06543-2.3164v-2.1582c0-1.56543-.53174-2.25391-1.75244-2.25391Z"/></svg>