<svg id="Content" xmlns="http://www.w3.org/2000/svg" xmlns:xlink="http://www.w3.org/1999/xlink" width="728" height="360" viewBox="0 0 728 360"><defs><style>.cls-1{fill:#ba9544;}.cls-2{fill:#fff;stroke:#ba9544;stroke-miterlimit:10;stroke-width:0.475px;}.cls-3{clip-path:url(#clip-path);}</style><clipPath id="clip-path"><polygon class="cls-1" points="383.567 217.748 394.722 233.548 422.108 233.568 422.108 201.667 394.722 201.659 383.567 217.748"/></clipPath></defs><title>CBD - Daytime CBD</title><polygon class="cls-2" points="615.45 202.461 394.479 201.624 383.324 217.71 394.479 233.51 615.45 233.134 625.49 217.799 615.45 202.461"/><polygon class="cls-1" points="383.567 217.748 394.722 233.548 422.108 233.568 422.108 201.667 394.722 201.659 383.567 217.748"/><g class="cls-3"><rect class="cls-1" x="381.0996" y="199.19341" width="16.30236" height="36.83954"/></g><path class="cls-1" d="M513.14746,223.007a5.41133,5.41133,0,0,1,3.84766-9.26465,5.85162,5.85162,0,0,1,3.97363,1.44336l-1.44238,1.5791a3.9861,3.9861,0,0,0-2.53125-.86523,3.08293,3.08293,0,0,0-3.23828,3.2168,3.23944,3.23944,0,0,0,.90136,2.39453,3.19478,3.19478,0,0,0,2.35157.88672,3.8766,3.8766,0,0,0,2.5166-.8584l1.44238,1.58007a5.83332,5.83332,0,0,1-3.97363,1.44239A5.26,5.26,0,0,1,513.14746,223.007Z"/><path class="cls-1" d="M530.97949,218.85663a3.07177,3.07177,0,0,1-1.75976,5.71191l-6.08692-.00683V213.75018H528.874q2.7334.15821,2.88477,3.18067A2.26369,2.26369,0,0,1,530.97949,218.85663Zm-5.67578-.77148h3.0293a1.22068,1.22068,0,0,0,1.34082-1.34864q-.03516-.79394-1.31934-.83691h-3.05078Zm0,4.78906h3.53418a1.4129,1.4129,0,0,0,1.55762-1.56543q-.03663-1.03857-1.53613-1.082h-3.55567Z"/><path class="cls-1" d="M534.64355,224.56171V213.73554h4.16895q5.04931,0,5.04883,5.417,0,5.40966-5.04883,5.40918Zm4.16895-2.15625q2.87842-.00734,2.88574-3.25293-.00732-3.24609-2.88574-3.2461h-2.00488v6.499Z"/><path class="cls-1" d="M546.27734,217.66327a1.04421,1.04421,0,0,1,.7793-.293,1.08132,1.08132,0,0,1,.80762.293.98882.98882,0,0,1,.28906.72461.97677.97677,0,0,1-.28906.7207,1.23351,1.23351,0,0,1-1.58692,0,.976.976,0,0,1-.28808-.7207A.988.988,0,0,1,546.27734,217.66327Zm0,5.16406a1.04363,1.04363,0,0,1,.7793-.292,1.08084,1.08084,0,0,1,.80762.292,1.04908,1.04908,0,0,1,0,1.44629,1.23672,1.23672,0,0,1-1.58692,0,1.05166,1.05166,0,0,1,0-1.44629Z"/><path class="cls-1" d="M562.80859,218.53925q-.04248,3.45557-1.30175,4.7959a3.65357,3.65357,0,0,1-3.126,1.18359,4.50406,4.50406,0,0,1-2.90723-1.37109l1.21875-1.32715a3.779,3.779,0,0,0,1.80371.61328,1.906,1.906,0,0,0,1.543-.46094,2.90989,2.90989,0,0,0,.80078-1.76758,3.38319,3.38319,0,0,1-2.24316.72168,3.61987,3.61987,0,0,1-2.668-1.24414,3.71033,3.71033,0,0,1-.63476-2.709,3.55123,3.55123,0,0,1,1.25781-2.44825,3.81763,3.81763,0,0,1,2.97558-.7539,3.52694,3.52694,0,0,1,2.43457,1.43555A6.09521,6.09521,0,0,1,562.80859,218.53925Zm-2.16308-1.19043q-.07324-1.50733-1.73145-1.57227-1.6582.06593-1.73047,1.43555a1.633,1.633,0,0,0,1.80274,1.80273A1.60655,1.60655,0,0,0,560.64551,217.34882Z"/><path class="cls-1" d="M564.72754,221.66913v-1.43457h4.47168v1.43457Z"/><path class="cls-1" d="M573.86523,213.74237v-.00683h2.15723v10.82617h-2.15723v-7.9336l-1.44238,1.44239-1.44238-1.44239Z"/><path class="cls-1" d="M584.915,219.08026c.12988.04785.24805.09571.35351.14453a2.11937,2.11937,0,0,1,1.11817,2.16309,2.77424,2.77424,0,0,1-1.19434,2.23633,4.372,4.372,0,0,1-2.78027.9375,6.41114,6.41114,0,0,1-2.5166-.43262,5.44748,5.44748,0,0,1-1.73145-1.1543l1.44239-1.44238a3.42627,3.42627,0,0,0,2.45214,1.00977q1.44288,0,1.79981-.61328a1.14,1.14,0,0,0,0-1.22559q-.35742-.61377-2.51367-.68555V218.0705q2.15625.14355,2.51367-.46875a1.14167,1.14167,0,0,0,0-1.22657q-.35742-.6123-1.79981-.61328a2.5699,2.5699,0,0,0-2.09179.86621l-1.44239-1.44238a5.03507,5.03507,0,0,1,1.55079-1.082,6.0378,6.0378,0,0,1,2.33691-.36133,3.8133,3.8133,0,0,1,2.63672.93848,2.90119,2.90119,0,0,1,1.04883,2.23535,2.13857,2.13857,0,0,1-.97364,2.05566C585.06152,219.006,584.99219,219.04218,584.915,219.08026Z"/><path class="cls-1" d="M588.77344,218.30878a2.78978,2.78978,0,1,1,1.93359.77832A2.62847,2.62847,0,0,1,588.77344,218.30878Zm1.91211-.50488a1.28938,1.28938,0,0,0,.9873-.41114,1.44866,1.44866,0,0,0,.38281-1.02441,1.43262,1.43262,0,0,0-.38281-1.02051,1.30153,1.30153,0,0,0-.99512-.40723,1.28413,1.28413,0,0,0-.98046.40723,1.43259,1.43259,0,0,0-.38282,1.02051,1.44863,1.44863,0,0,0,.38282,1.02441A1.29,1.29,0,0,0,590.68555,217.8039Zm-.57715,6.75781,6.13086-10.81934H597.999l-6.11621,10.81934Zm5.37305-.71387a2.77107,2.77107,0,1,1,1.91894.77148A2.6047,2.6047,0,0,1,595.48145,223.84784Zm1.88281-.52637a1.2655,1.2655,0,0,0,.96582-.40039,1.50913,1.50913,0,0,0,0-1.99121,1.27377,1.27377,0,0,0-.97363-.40039,1.258,1.258,0,0,0-.959.40039,1.50913,1.50913,0,0,0,0,1.99121A1.26616,1.26616,0,0,0,597.36426,223.32147Z"/></svg>