<svg id="Content" xmlns="http://www.w3.org/2000/svg" xmlns:xlink="http://www.w3.org/1999/xlink" viewBox="0 0 728 360"><defs><style>.cls-1{fill:url(#New_Gradient_Swatch_1);}.cls-2{fill:#fff;}.cls-3{fill:#ba9544;}</style><linearGradient id="New_Gradient_Swatch_1" x1="478.32" y1="187.16" x2="534.94" y2="187.16" gradientUnits="userSpaceOnUse"><stop offset="0" stop-color="#a88a34"/><stop offset="0.49" stop-color="#caaf67"/><stop offset="1" stop-color="#957f2e"/></linearGradient></defs><title>fruity</title><polygon class="cls-1" points="501.84 216.12 478.32 188.96 496.89 158.2 531.88 166.35 534.95 202.14 501.84 216.12"/><path class="cls-2" d="M518.05,179.4c1.94-.59,2.48-2.16,3.62-2.7-2.26-.92-3.58-1.15-4.92-.52a3.34,3.34,0,0,0-2,2.48,3.46,3.46,0,0,0,3.29.74"/><path class="cls-2" d="M513.87,182.66a10.43,10.43,0,0,0-2.55-7.87.18.18,0,0,0-.25,0h0l-.53.54a.18.18,0,0,0,0,.25,9.42,9.42,0,0,1,2.22,7.12c-4.65-2.72-9.54.25-9.31,5.2a12.1,12.1,0,0,0,.39,2.54,21.78,21.78,0,0,0,9.92,4.5,2.68,2.68,0,0,1,1.27.63,1.91,1.91,0,0,1,.6,1.32v.49a2.78,2.78,0,0,1-.11.86,5.6,5.6,0,0,1-.17.54c3.87.19,7.54-6,7.77-10.88s-4.61-7.89-9.24-5.24"/><path class="cls-2" d="M514.09,196.56a1.25,1.25,0,0,0-.61-.3c-7.84-1.56-14.44-6-17.17-15.26a2.2,2.2,0,0,0-.27-.53,1.21,1.21,0,0,1-.19-.71l.06-1.76a.47.47,0,0,0-.46-.49h-.94a.46.46,0,0,0-.47.47v.06l.22,1.88a1.2,1.2,0,0,1-.26.75,3.11,3.11,0,0,0-.31,1.59c-.18,14.72,9.77,19,18.95,16.74,1.17-.28,1.28-.47,1.38-.61a2.37,2.37,0,0,0,.18-.53,1.15,1.15,0,0,0,.07-.45v-.48a.52.52,0,0,0-.17-.38"/><path class="cls-3" d="M479.51,243.31V232.67H487v2h-5.36v2.27h4v2h-4v4.41Z"/><path class="cls-3" d="M495,238.67l2.65,4.64h-2.44l-2.55-4.4h-1.94v4.4h-2.13V232.67h4.64c2.48,0,3.73,1,3.73,3.06A2.76,2.76,0,0,1,495,238.67Zm-4.28-1.75h3q1.27,0,1.32-1.17c0-.7-.46-1.06-1.3-1.09h-3Z"/><path class="cls-3" d="M500.68,232.67v6.17a2.13,2.13,0,0,0,.71,1.77,2.77,2.77,0,0,0,1.78.57,2.72,2.72,0,0,0,1.77-.57,2.13,2.13,0,0,0,.71-1.77v-6.17h2.13v6.74a3.51,3.51,0,0,1-1.31,2.76,5.35,5.35,0,0,1-6.6,0,3.49,3.49,0,0,1-1.32-2.76v-6.74Z"/><path class="cls-3" d="M510.08,232.66h2.12v10.65h-2.12Z"/><path class="cls-3" d="M523,232.67v2h-3.55v8.66h-2.12v-8.66H513.8v-2Z"/><path class="cls-3" d="M524,232.67h2.5l2.47,3.47,2.52-3.47h2.45L530,238v5.32h-2.13V238Z"/></svg>