<svg id="Content" xmlns="http://www.w3.org/2000/svg" xmlns:xlink="http://www.w3.org/1999/xlink" width="728" height="360" viewBox="0 0 728 360"><defs><style>.cls-1{fill:none;}.cls-2{fill:#fff;stroke:#ba9544;stroke-miterlimit:10;stroke-width:0.475px;}.cls-3{fill:#ba9544;}.cls-4{clip-path:url(#clip-path);}</style><clipPath id="clip-path"><rect class="cls-1" x="461.86539" y="-134.33868" width="208.12648" height="92"/></clipPath></defs><title>THC - Daytime CBD</title><polygon class="cls-2" points="615.45 152.937 394.479 152.099 383.324 168.185 394.479 183.986 615.45 183.609 625.49 168.274 615.45 152.937"/><polygon class="cls-3" points="394.64 152.099 383.485 168.185 394.64 183.986 408.512 183.986 408.512 152.099 394.64 152.099"/><path class="cls-3" d="M520.95508,162.30975v2.01954h-3.60645v8.7998h-2.16406v-8.7998h-3.60645v-2.01954Z"/><path class="cls-3" d="M522.5625,173.12909V162.30975h2.16406v4.32813h5.042v-4.335h2.16309v10.81933l-2.16309.00684v-4.47168h-5.042v4.47168Z"/><path class="cls-3" d="M535.29,171.5744a5.41133,5.41133,0,0,1,3.84766-9.26465,5.85164,5.85164,0,0,1,3.97363,1.44336l-1.44238,1.57911a3.98614,3.98614,0,0,0-2.53125-.86524,3.083,3.083,0,0,0-3.23829,3.2168,3.23948,3.23948,0,0,0,.90137,2.39453,3.19474,3.19474,0,0,0,2.35156.88672,3.87657,3.87657,0,0,0,2.51661-.8584l1.44238,1.58008a5.83336,5.83336,0,0,1-3.97363,1.44238A5.26,5.26,0,0,1,535.29,171.5744Z"/><path class="cls-3" d="M545.53418,166.23065a1.0442,1.0442,0,0,1,.7793-.293,1.08129,1.08129,0,0,1,.80761.293.98879.98879,0,0,1,.28907.72461.97677.97677,0,0,1-.28907.72071,1.23353,1.23353,0,0,1-1.58691,0,.976.976,0,0,1-.28809-.72071A.988.988,0,0,1,545.53418,166.23065Zm0,5.16407a1.04358,1.04358,0,0,1,.7793-.292,1.08078,1.08078,0,0,1,.80761.292,1.049,1.049,0,0,1,0,1.44628,1.23671,1.23671,0,0,1-1.58691,0,1.05163,1.05163,0,0,1,0-1.44628Z"/><path class="cls-3" d="M561.27246,167.64765c.12988.04785.248.0957.35352.14453a2.11936,2.11936,0,0,1,1.11816,2.16308,2.77424,2.77424,0,0,1-1.19434,2.23633,4.37194,4.37194,0,0,1-2.78027.9375,6.41114,6.41114,0,0,1-2.5166-.43262,5.44762,5.44762,0,0,1-1.73145-1.15429l1.44239-1.44239a3.42627,3.42627,0,0,0,2.45215,1.00977q1.44286,0,1.7998-.61328a1.14,1.14,0,0,0,0-1.22559q-.35742-.61377-2.51367-.68554v-1.94727q2.15625.14355,2.51367-.46875a1.14165,1.14165,0,0,0,0-1.22656q-.35742-.61231-1.7998-.61328a2.56988,2.56988,0,0,0-2.0918.86621l-1.44238-1.44239a5.03509,5.03509,0,0,1,1.55078-1.082,6.0378,6.0378,0,0,1,2.33691-.36133,3.8133,3.8133,0,0,1,2.63672.93848,2.90119,2.90119,0,0,1,1.04883,2.23535,2.1386,2.1386,0,0,1-.97363,2.05567C561.419,167.57343,561.34961,167.60956,561.27246,167.64765Z"/><path class="cls-3" d="M564.50391,170.23651v-1.43457h4.47168v1.43457Z"/><path class="cls-3" d="M572.21387,173.12909l.00683-.72168,3.38282-8.07812h-4.62989l-.00781-2.01954h7.38574v.79395l-4.03125,10.02539Z"/><path class="cls-3" d="M580.72461,166.87616a2.78978,2.78978,0,1,1,1.93359.77832A2.62846,2.62846,0,0,1,580.72461,166.87616Zm1.91211-.50488a1.2894,1.2894,0,0,0,.9873-.41113,1.44867,1.44867,0,0,0,.38282-1.02442,1.4326,1.4326,0,0,0-.38282-1.02051,1.3015,1.3015,0,0,0-.99511-.40722,1.28413,1.28413,0,0,0-.98047.40722,1.4326,1.4326,0,0,0-.38282,1.02051,1.44867,1.44867,0,0,0,.38282,1.02442A1.29007,1.29007,0,0,0,582.63672,166.37128Zm-.57715,6.75781,6.13086-10.81934h1.75977L583.834,173.12909Zm5.37305-.71387a2.771,2.771,0,1,1,1.91894.77149A2.60469,2.60469,0,0,1,587.43262,172.41522Zm1.88281-.52636a1.2655,1.2655,0,0,0,.96582-.40039,1.50914,1.50914,0,0,0,0-1.99122,1.27377,1.27377,0,0,0-.97363-.40039,1.258,1.258,0,0,0-.959.40039,1.50914,1.50914,0,0,0,0,1.99122A1.26616,1.26616,0,0,0,589.31543,171.88886Z"/><g class="cls-4"><image id="SmallTopDown-8383-DaytimeCBD.psd" width="1500" height="1261" transform="translate(443.42939 -154.61789) scale(0.12656)" xlink:href="../../../../../Dropbox%20(Revolution%20Strategy)/Rocio%20Ugarte/Clients/Namaste/Digital%20Ads/_Flight%202:Phase%202%20Terpene/1.%20Animated%20w:%20Packaging/8.%20Expandable%20Unit%20728%20x%2090:728%20x%20360/728%20x%2090_728%20x%20360_Folder/Links/SmallTopDown-8383-DaytimeCBD.png"/></g></svg>