<svg id="Layer_1" data-name="Layer 1" xmlns="http://www.w3.org/2000/svg" width="728" height="90" viewBox="0 0 728 90"><defs><style>.cls-1,.cls-2{fill:#ab9555;}.cls-1{opacity:0.5;}</style></defs><title>frame4</title><path class="cls-1" d="M165.31494,58.22944a4.21045,4.21045,0,0,1-4.23828-4.22364V40.27045h2.62207v13.707a1.46547,1.46547,0,0,0,.45361,1.084,1.49911,1.49911,0,0,0,1.09131.44629,1.52378,1.52378,0,0,0,1.53076-1.53028v-13.707h2.79248V54.0058a4.03763,4.03763,0,0,1-1.24707,3.00489A4.14574,4.14574,0,0,1,165.31494,58.22944Z"/><path class="cls-1" d="M176.55225,40.25678l3.55517,11.94531V40.25678h2.6792V58.03119h-2.87744l-3.68555-11.38183V58.03119h-2.67871V40.25678Z"/><path class="cls-1" d="M191.002,40.27045a4.08162,4.08162,0,0,1,3.11866,1.2334,4.27873,4.27873,0,0,1,1.07714,3.00488v2.58008a4.13056,4.13056,0,0,1-1.22607,3.00488,4.01154,4.01154,0,0,1-2.96973,1.24707H189.457v6.69043h-2.67871V40.27045ZM192.604,44.5517a1.52878,1.52878,0,0,0-.41845-1.12012,1.49028,1.49028,0,0,0-1.11231-.4248H189.457v5.68359h1.61621a1.4653,1.4653,0,0,0,1.084-.45312,1.50144,1.50144,0,0,0,.44677-1.0918Z"/><path class="cls-1" d="M206.2334,58.03119h-7.29981V40.27045h2.67871v15.0957h4.6211Z"/><path class="cls-1" d="M213.91064,58.22944a4.21045,4.21045,0,0,1-4.23828-4.22364V40.27045h2.62207v13.707a1.46545,1.46545,0,0,0,.45362,1.084,1.49908,1.49908,0,0,0,1.09131.44629,1.52378,1.52378,0,0,0,1.53076-1.53028v-13.707h2.79248V54.0058a4.03767,4.03767,0,0,1-1.24707,3.00489A4.14576,4.14576,0,0,1,213.91064,58.22944Z"/><path class="cls-1" d="M226.35059,58.25776a4.24612,4.24612,0,0,1-4.25245-4.23828V44.32514a4.24514,4.24514,0,1,1,8.49024,0v2.02637h-2.77783v-2.084a1.5496,1.5496,0,0,0-1.54541-1.54492,1.46332,1.46332,0,0,0-1.084.4541,1.49924,1.49924,0,0,0-.44677,1.09082v9.72363a1.52458,1.52458,0,0,0,1.53076,1.53125,1.50313,1.50313,0,0,0,1.09179-.44531,1.459,1.459,0,0,0,.45362-1.081V50.50483h-1.48877V47.81147h4.2666v6.208a4.23441,4.23441,0,0,1-4.23779,4.23828Z"/><path class="cls-1" d="M234.02783,55.36615h2.67871v2.67969h-2.67871Z"/><path class="cls-1" d="M254.32324,58.03119h-7.2998V40.27045h2.67871v15.0957h4.62109Z"/><path class="cls-1" d="M262.00049,40.04389a4.24609,4.24609,0,0,1,4.25195,4.252v9.69531a4.24514,4.24514,0,1,1-8.49023,0V44.29584a4.2461,4.2461,0,0,1,4.23828-4.252ZM263.46,44.2392a1.52378,1.52378,0,0,0-1.53076-1.53027,1.4991,1.4991,0,0,0-1.09131.44629,1.46543,1.46543,0,0,0-.45361,1.084v9.72363a1.46606,1.46606,0,0,0,.45361,1.085,1.49909,1.49909,0,0,0,1.09131.44628A1.52377,1.52377,0,0,0,263.46,53.96283Z"/><path class="cls-1" d="M274.398,40.04389a4.24609,4.24609,0,0,1,4.252,4.252v9.69531a4.24514,4.24514,0,1,1-8.49023,0V44.29584a4.2461,4.2461,0,0,1,4.23828-4.252Zm1.45947,4.19531a1.52378,1.52378,0,0,0-1.53076-1.53027,1.49911,1.49911,0,0,0-1.09131.44629,1.46547,1.46547,0,0,0-.45361,1.084v9.72363a1.4661,1.4661,0,0,0,.45361,1.085,1.4991,1.4991,0,0,0,1.09131.44628,1.52377,1.52377,0,0,0,1.53076-1.53125Z"/><path class="cls-1" d="M285.27783,52.3974v5.63379h-2.67871V40.25678h2.67871v6.33594l3.27442-6.33594h2.856l-3.667,7.25,4.30029,10.52441h-3.14892l-2.813-7.21679Z"/><path class="cls-1" d="M303.15527,58.22944A4.21045,4.21045,0,0,1,298.917,54.0058V40.27045h2.62207v13.707a1.46545,1.46545,0,0,0,.45362,1.084,1.49907,1.49907,0,0,0,1.0913.44629,1.52378,1.52378,0,0,0,1.53077-1.53028v-13.707h2.79248V54.0058a4.03767,4.03767,0,0,1-1.24707,3.00489A4.14578,4.14578,0,0,1,303.15527,58.22944Z"/><path class="cls-1" d="M315.60889,40.27045a4.08158,4.08158,0,0,1,3.11865,1.2334,4.27874,4.27874,0,0,1,1.07715,3.00488v2.58008a4.13053,4.13053,0,0,1-1.22608,3.00488,4.01154,4.01154,0,0,1-2.96972,1.24707H314.064v6.69043h-2.67871V40.27045Zm1.60205,4.28125a1.52879,1.52879,0,0,0-.41846-1.12012,1.49025,1.49025,0,0,0-1.1123-.4248H314.064v5.68359h1.61622a1.46528,1.46528,0,0,0,1.084-.45312,1.50145,1.50145,0,0,0,.44678-1.0918Z"/><path class="cls-1" d="M323.24365,55.36615h2.67871v2.67969h-2.67871Z"/><path class="cls-1" d="M336.23975,58.03119V40.25678H340.251a5.10831,5.10831,0,0,1,2.86328.83594A3.894,3.894,0,0,1,344.67334,43.29a6.19186,6.19186,0,0,1,.25537,1.88477A4.1719,4.1719,0,0,1,343.979,48.038a2.698,2.698,0,0,1-.93554.69531,3.11092,3.11092,0,0,1,1.5166,1.34571,5.24741,5.24741,0,0,1,.60937,1.75781,7.03547,7.03547,0,0,1,.09912,1.2334,5.93351,5.93351,0,0,1-.63769,2.86328,3.8225,3.8225,0,0,1-1.40332,1.47363,3.86281,3.86281,0,0,1-2.02686.624Zm2.8916-10.51757H340.251a1.64062,1.64062,0,0,0,1.67236-1.21875,3.47774,3.47774,0,0,0,.15625-1.12012,2.34192,2.34192,0,0,0-.53857-1.67188,1.69556,1.69556,0,0,0-1.29-.52441h-1.11963Zm0,7.86718H340.251a1.90086,1.90086,0,0,0,1.88525-1.40332,3.08636,3.08636,0,0,0,.18408-1.10547,3.36749,3.36749,0,0,0-.56689-2.16894,1.82819,1.82819,0,0,0-1.50244-.624h-1.11963Z"/><path class="cls-1" d="M353.41309,40.27045a4.08424,4.08424,0,0,1,3.28857,1.2334,4.48179,4.48179,0,0,1,.92139,3.00488v2.58008a4.151,4.151,0,0,1-1.43164,3.18945l1.98437,7.75293h-2.897l-1.62451-6.69043h-1.78614v6.69043h-2.67871V40.27045Zm1.602,4.28125a1.35918,1.35918,0,0,0-1.53076-1.54492h-1.61622v5.68359h1.61622a1.46528,1.46528,0,0,0,1.084-.45312,1.50145,1.50145,0,0,0,.44678-1.0918Z"/><path class="cls-1" d="M362.06836,58.03119V40.25678h7.626v2.69336h-4.94727V47.7978h3.61523v2.69238h-3.61523v4.84765h4.94727v2.69336Z"/><path class="cls-1" d="M376.57324,53.94916l-.65039,4.082h-2.79l3.01953-17.76074h3.68555l2.97656,17.76074h-2.81738l-.627-4.082Zm1.40723-9.61035-.99219,7.002h1.98438Z"/><path class="cls-1" d="M387.00488,42.96381h-2.84961V40.27045h8.36328v2.69336h-2.835V58.03119h-2.67871Z"/><path class="cls-1" d="M398.94922,50.50483v7.52636h-2.67969V40.27045h2.67969v7.541h3.23144v-7.541h2.67872V58.03119h-2.67872V50.50483Z"/><path class="cls-1" d="M408.85059,58.03119V40.25678h7.626v2.69336h-4.94629V47.7978h3.61426v2.69238h-3.61426v4.84765h4.94629v2.69336Z"/><path class="cls-1" d="M426.03613,58.03119h-2.67968V40.27045h2.67968Z"/><path class="cls-1" d="M433.0332,40.25678l3.55567,11.94531V40.25678h2.67871V58.03119h-2.87793l-3.68457-11.38183V58.03119h-2.67969V40.25678Z"/><path class="cls-1" d="M442.70605,55.36615h2.67969v2.67969h-2.67969Z"/><path class="cls-2" d="M455.70312,58.03119V40.25678h4.01172a5.10712,5.10712,0,0,1,2.86328.83594A3.89694,3.89694,0,0,1,464.1377,43.29a6.19281,6.19281,0,0,1,.25488,1.88477,4.17213,4.17213,0,0,1-.9502,2.86328,2.69357,2.69357,0,0,1-.93554.69531,3.10472,3.10472,0,0,1,1.5166,1.34571,5.24689,5.24689,0,0,1,.61035,1.75781,7.08559,7.08559,0,0,1,.09863,1.2334,5.93912,5.93912,0,0,1-.63769,2.86328,3.8225,3.8225,0,0,1-1.40332,1.47363,3.86571,3.86571,0,0,1-2.02735.624Zm2.89161-10.51757h1.12011a1.64229,1.64229,0,0,0,1.67286-1.21875,3.49353,3.49353,0,0,0,.15527-1.12012,2.344,2.344,0,0,0-.53809-1.67188,1.69553,1.69553,0,0,0-1.29-.52441h-1.12011Zm0,7.86718h1.12011a1.90031,1.90031,0,0,0,1.88477-1.40332,3.07542,3.07542,0,0,0,.18457-1.10547,3.37352,3.37352,0,0,0-.56641-2.16894,1.82984,1.82984,0,0,0-1.50293-.624h-1.12011Z"/><path class="cls-2" d="M468.63867,58.03119V40.25678h7.626v2.69336h-4.94629V47.7978h3.61426v2.69238h-3.61426v4.84765h4.94629v2.69336Z"/><path class="cls-2" d="M487.36816,40.27045a4.082,4.082,0,0,1,3.11817,1.2334,4.27874,4.27874,0,0,1,1.07715,3.00488v2.58008a4.134,4.134,0,0,1-1.22559,3.00488,4.01387,4.01387,0,0,1-2.96973,1.24707h-1.54492v6.69043h-2.67969V40.27045Zm1.60157,4.28125a1.53046,1.53046,0,0,0-.418-1.12012,1.49329,1.49329,0,0,0-1.11328-.4248h-1.61524v5.68359h1.61524a1.46745,1.46745,0,0,0,1.085-.45312,1.5049,1.5049,0,0,0,.44629-1.0918Z"/><path class="cls-2" d="M499.52441,40.27045a4.08316,4.08316,0,0,1,3.28809,1.2334,4.48191,4.48191,0,0,1,.92188,3.00488v2.58008a4.15265,4.15265,0,0,1-1.43165,3.18945l1.9834,7.75293h-2.89648l-1.625-6.69043h-1.78516v6.69043H495.2998V40.27045ZM501.126,44.5517a1.35952,1.35952,0,0,0-1.53125-1.54492h-1.61524v5.68359h1.61524a1.46745,1.46745,0,0,0,1.085-.45312,1.5049,1.5049,0,0,0,.44629-1.0918Z"/><path class="cls-2" d="M508.17871,58.03119V40.25678h7.626v2.69336H510.8584V47.7978h3.61426v2.69238H510.8584v4.84765h4.94629v2.69336Z"/><path class="cls-2" d="M528.10254,53.60834a5.001,5.001,0,0,1-.96387,3.17578,3.47661,3.47661,0,0,1-1.84277,1.26172,5.03491,5.03491,0,0,1-1.48828.19824,4.21021,4.21021,0,0,1-2.6084-.78027,4.35343,4.35343,0,0,1-1.36719-1.73633,6.9863,6.9863,0,0,1-.58887-2.51562l2.55176-.18457a3.87371,3.87371,0,0,0,.82227,2.251,1.36874,1.36874,0,0,0,1.10547.499,1.66174,1.66174,0,0,0,1.40332-.86524,2.14935,2.14935,0,0,0,.26953-1.17773,3.26791,3.26791,0,0,0-1.00684-2.19824q-.79394-.75294-2.38086-2.25586a10.202,10.202,0,0,1-1.88574-2.3125,5.35418,5.35418,0,0,1-.59473-2.49707,4.34242,4.34242,0,0,1,1.62989-3.67481,4.051,4.051,0,0,1,2.49414-.752,4.5346,4.5346,0,0,1,2.45215.63769,3.68734,3.68734,0,0,1,1.2832,1.38965,5.12306,5.12306,0,0,1,.58789,2.05469l-2.56543.46777a3.08924,3.08924,0,0,0-.62305-1.70019,1.3109,1.3109,0,0,0-1.06347-.43945,1.22548,1.22548,0,0,0-1.12012.65136,2.51563,2.51563,0,0,0-.31152,1.30469,3.9133,3.9133,0,0,0,1.04882,2.48047,8.84878,8.84878,0,0,0,1.19043,1.13379q.936.77929,1.2334,1.09082a9.12766,9.12766,0,0,1,1.53125,1.956,7.59792,7.59792,0,0,1,.41113.83692A4.88026,4.88026,0,0,1,528.10254,53.60834Z"/><path class="cls-2" d="M531.92383,58.03119V40.25678h7.626v2.69336h-4.94628V47.7978h3.61425v2.69238h-3.61425v4.84765h4.94628v2.69336Z"/><path class="cls-2" d="M545.99707,40.25678l3.55566,11.94531V40.25678h2.67872V58.03119h-2.87793L545.669,46.64936V58.03119h-2.67969V40.25678Z"/><path class="cls-2" d="M558.83105,42.96381h-2.8496V40.27045h8.36328v2.69336h-2.835V58.03119h-2.67872Z"/><path class="cls-2" d="M567.7832,55.36615h2.67969v2.67969H567.7832Z"/></svg>