<svg xmlns="http://www.w3.org/2000/svg" xmlns:xlink="http://www.w3.org/1999/xlink" width="970" height="250" viewBox="0 0 970 250"><defs><style>.cls-1{fill:none;}.cls-2{fill:#ba9544;}.cls-3{clip-path:url(#clip-path);}.cls-4{clip-path:url(#clip-path-2);}.cls-5{clip-path:url(#clip-path-3);}.cls-6{clip-path:url(#clip-path-4);}.cls-7{clip-path:url(#clip-path-5);}.cls-8{fill:#fff;stroke:#ba9544;stroke-miterlimit:10;stroke-width:0.5px;}.cls-9{clip-path:url(#clip-path-6);}.cls-10{clip-path:url(#clip-path-7);}.cls-11{clip-path:url(#clip-path-8);}</style><clipPath id="clip-path"><rect class="cls-1" x="1105.34661" y="-589.16275" width="170.77483" height="153.04906"/></clipPath><clipPath id="clip-path-2"><rect class="cls-1" x="953.79396" y="-640.15394" width="598.84548" height="708.41343" transform="translate(809.0052 920.28412) rotate(-56.92989)"/></clipPath><clipPath id="clip-path-3"><rect class="cls-1" x="1105.34661" y="-301.16333" width="170.77483" height="153.04906"/></clipPath><clipPath id="clip-path-4"><rect class="cls-1" x="953.79396" y="-352.15452" width="598.84548" height="708.41343" transform="translate(567.66067 1051.13238) rotate(-56.92989)"/></clipPath><clipPath id="clip-path-5"><rect class="cls-1" x="68.38427" y="-92.10755" width="81.83695" height="45.99836"/></clipPath><clipPath id="clip-path-6"><polygon class="cls-2" points="396.779 169.574 408.521 186.206 408.752 186.227 408.752 152.647 408.521 152.639 396.779 169.574"/></clipPath><clipPath id="clip-path-7"><rect class="cls-1" x="17.24025" y="-299.16219" width="383.03219" height="250.51546"/></clipPath><clipPath id="clip-path-8"><rect class="cls-1" x="2.56702" y="-306.41002" width="399.55191" height="335.80187"/></clipPath></defs><title>CBD - MK Ultra</title><g id="Terpenes"><g class="cls-3"><g id="Variety_2_GettyImages-639528520.psd" data-name="Variety#2_GettyImages-639528520.psd"><g class="cls-4"><image id="Variety_2-orange_slice_Variety_2-lemon_with_leaf_Variety_2-lemon_bunch_half" data-name="Variety#2-orange+slice + Variety#2-lemon with leaf + Variety#2-lemon bunch+half" width="4425" height="3804" transform="translate(1119.7747 -730.14269) rotate(33.07011) scale(0.15743)" xlink:href="CBD%20-%20MK%20Ultra1.png"/></g></g></g><g class="cls-5"><g id="Variety_2_GettyImages-639528520.psd-2" data-name="Variety#2_GettyImages-639528520.psd"><g class="cls-6"><image id="Variety_2-orange_slice_Variety_2-lemon_with_leaf_Variety_2-lemon_bunch_half-2" data-name="Variety#2-orange+slice + Variety#2-lemon with leaf + Variety#2-lemon bunch+half" width="4425" height="3804" transform="translate(1119.7747 -442.14327) rotate(33.07011) scale(0.15743)" xlink:href="CBD%20-%20MK%20Ultra2.png"/></g></g></g></g><g id="Content"><polygon class="cls-8" points="640.867 153.483 408.265 152.601 396.523 169.534 408.265 186.166 640.867 185.77 651.435 169.627 640.867 153.483"/><polygon class="cls-2" points="396.779 169.574 408.521 186.206 408.752 186.227 408.752 152.647 408.521 152.639 396.779 169.574"/><g class="cls-9"><rect class="cls-2" x="394.18239" y="150.04314" width="17.16039" height="38.77851"/></g><path class="cls-2" d="M533.17747,175.12062a5.697,5.697,0,0,1,4.05078-9.75293,6.16436,6.16436,0,0,1,4.1836,1.51855l-1.51856,1.66309a4.1997,4.1997,0,0,0-2.665-.91113,3.34367,3.34367,0,0,0-2.47168.957,3.30924,3.30924,0,0,0-.9375,2.42871,3.4111,3.4111,0,0,0,.94922,2.52051,3.36176,3.36176,0,0,0,2.47559.93457,4.08629,4.08629,0,0,0,2.64941-.90332l1.51856,1.66211a6.14212,6.14212,0,0,1-4.1836,1.51855A5.54378,5.54378,0,0,1,533.17747,175.12062Z"/><path class="cls-2" d="M551.94993,170.7505a3.23423,3.23423,0,0,1-1.85253,6.01367l-6.40821-.00781V165.3755h6.04395q2.877.167,3.03711,3.34863A2.38264,2.38264,0,0,1,551.94993,170.7505Zm-5.97461-.81152h3.18848a1.28634,1.28634,0,0,0,1.41211-1.41992q-.03809-.835-1.38965-.88086h-3.21094Zm0,5.041h3.71973a1.4866,1.4866,0,0,0,1.63965-1.64746q-.03809-1.09423-1.61719-1.13867h-3.74219Z"/><path class="cls-2" d="M555.80638,176.75636V165.36085h4.38867q5.31445,0,5.31445,5.70118,0,5.69384-5.31445,5.69433Zm4.38867-2.27051q3.02929-.00732,3.03711-3.42382-.00879-3.416-3.03711-3.416H558.0847v6.83984Z"/><path class="cls-2" d="M568.05247,169.49464a1.10108,1.10108,0,0,1,.82032-.30761,1.14293,1.14293,0,0,1,.85058.30761,1.10584,1.10584,0,0,1,0,1.52246,1.30094,1.30094,0,0,1-1.6709,0,1.10584,1.10584,0,0,1,0-1.52246Zm0,5.43555a1.10108,1.10108,0,0,1,.82032-.30762,1.14293,1.14293,0,0,1,.85058.30762,1.04565,1.04565,0,0,1,.30371.76367,1.0298,1.0298,0,0,1-.30371.75879,1.30094,1.30094,0,0,1-1.6709,0,1.0298,1.0298,0,0,1-.30371-.75879A1.04565,1.04565,0,0,1,568.05247,174.93019Z"/><path class="cls-2" d="M584.34544,168.63234l-4.40332,2.42969,4.40332,2.42968v1.7461l-7.19726-3.95508v-.49414l7.19726-3.90235Z"/><path class="cls-2" d="M594.20775,165.36769v-.00684h2.2705v11.39551h-2.2705V168.4048l-1.51856,1.51855-1.51855-1.51855Z"/><g class="cls-10"><g id="SmallTopDown-8307-MKUltra.psd"><g class="cls-11"><image id="SmallTopDown-8307-MKUltra" width="4124" height="3466" transform="translate(2.56702 -306.41002) scale(0.09688)" xlink:href="CBD%20-%20MK%20Ultra3.png"/></g></g></g></g></svg>