<svg xmlns="http://www.w3.org/2000/svg" xmlns:xlink="http://www.w3.org/1999/xlink" width="970" height="250" viewBox="0 0 970 250"><defs><style>.cls-1{fill:none;}.cls-2{isolation:isolate;}.cls-3{clip-path:url(#clip-path);}.cls-4{clip-path:url(#clip-path-2);}.cls-5{clip-path:url(#clip-path-3);}.cls-6{clip-path:url(#clip-path-4);}.cls-7{opacity:0.65882;}.cls-8{clip-path:url(#clip-path-5);}.cls-9{clip-path:url(#clip-path-6);}.cls-10{clip-path:url(#clip-path-7);}.cls-11{mix-blend-mode:multiply;}.cls-12{clip-path:url(#clip-path-8);}.cls-13{fill:#ba9544;}</style><clipPath id="clip-path"><rect class="cls-1" x="-2" y="586.64614" width="974" height="251.03093"/></clipPath><clipPath id="clip-path-2"><rect class="cls-1" x="-17.21661" y="191.22969" width="994.73176" height="663.15451"/></clipPath><clipPath id="clip-path-3"><rect class="cls-1" x="-2" y="287.48396" width="974" height="251.03093"/></clipPath><clipPath id="clip-path-4"><rect class="cls-1" x="-17.21661" y="-107.9325" width="994.73176" height="663.15451"/></clipPath><clipPath id="clip-path-5"><rect class="cls-1" x="1105.34661" y="285.99827" width="170.77483" height="153.04906"/></clipPath><clipPath id="clip-path-6"><rect class="cls-1" x="953.79396" y="235.00708" width="598.84548" height="708.41343" transform="translate(75.61719 1317.90055) rotate(-56.92989)"/></clipPath><clipPath id="clip-path-7"><rect class="cls-1" x="43.03466" y="287.48396" width="123.84123" height="57.09999"/></clipPath><clipPath id="clip-path-8"><rect class="cls-1" x="21.15132" y="220.54569" width="178.64625" height="129.22756"/></clipPath></defs><title>Frame1 - MK Ultra</title><g class="cls-2"><g id="BG"><g class="cls-3"><g id="Background_LO.psd"><g class="cls-4"><g id="background"><image id="GettyImages-909407598" width="1266" height="1899" transform="translate(977.51516 191.22969) rotate(90) scale(0.52382)" xlink:href="Frame1%20-%20MK%20Ultra1.png"/></g></g></g></g><g class="cls-5"><g id="Background_LO.psd-2" data-name="Background_LO.psd"><g class="cls-6"><g id="background-2" data-name="background"><image id="GettyImages-909407598-2" data-name="GettyImages-909407598" width="1266" height="1899" transform="translate(977.51516 -107.9325) rotate(90) scale(0.52382)" xlink:href="Frame1%20-%20MK%20Ultra2.png"/><image id="Layer_27" data-name="Layer 27" class="cls-7" width="1015" height="1469" transform="translate(977.51516 23.546) rotate(90) scale(0.52382)" xlink:href="Frame1%20-%20MK%20Ultra3.png"/></g></g></g></g></g><g id="Terpenes"><g class="cls-8"><g id="Variety_2_GettyImages-639528520.psd" data-name="Variety#2_GettyImages-639528520.psd"><g class="cls-9"><image id="Variety_2-orange_slice_Variety_2-lemon_with_leaf_Variety_2-lemon_bunch_half" data-name="Variety#2-orange+slice + Variety#2-lemon with leaf + Variety#2-lemon bunch+half" width="4425" height="3804" transform="translate(1119.7747 145.01834) rotate(33.07011) scale(0.15743)" xlink:href="Frame1%20-%20MK%20Ultra4.png"/></g></g></g><g class="cls-10"><g id="Grapes_GettyImages-173907616.psd" class="cls-11"><g class="cls-12"><image id="Shadow" class="cls-11" width="2729" height="2316" transform="translate(54.5657 243.17826) scale(0.0409 0.04438)" xlink:href="Frame1%20-%20MK%20Ultra5.png"/><image id="Grapes" width="2618" height="2154" transform="translate(50.803 235.50094) scale(0.0409 0.04438)" xlink:href="Frame1%20-%20MK%20Ultra6.png"/></g></g></g></g><g id="Content"><path class="cls-13" d="M443.00267,141.9668l3.665-24.28955h7.47851v34.21142h-5.084V127.35449l-3.71387,24.53418h-5.083l-4.00781-24.19238v24.19238h-4.6914V117.67725h7.47753Z"/><path class="cls-13" d="M470.2722,138.25293l-1.66113,3.12793v10.50781h-5.377V117.67725h5.377V132.584l7.03711-14.90673h5.37695l-7.47852,15.24853,7.47852,18.96289h-5.52344Z"/><path class="cls-13" d="M506.5349,117.67725v26.39111c0,2.44434,1.07519,3.32422,2.78515,3.32422,1.71094,0,2.78613-.87988,2.78613-3.32422V117.67725h5.083v26.04931c0,5.47364-2.73633,8.60156-8.01562,8.60156-5.27735,0-8.01563-3.12792-8.01563-8.60156V117.67725Z"/><path class="cls-13" d="M526.03392,117.67725h5.376V147.001h8.84667v4.88769H526.03392Z"/><path class="cls-13" d="M546.21751,117.67725H562.8347v4.88769h-5.62012v29.32373h-5.376V122.56494h-5.6211Z"/><path class="cls-13" d="M581.6013,151.88867a10.50268,10.50268,0,0,1-.48926-4.20312v-5.376c0-3.17676-1.07519-4.34961-3.51855-4.34961h-1.85742v13.92871h-5.376V117.67725h8.11328c5.57129,0,7.96582,2.59033,7.96582,7.86865v2.68848c0,3.51855-1.124,5.81542-3.51855,6.93945,2.6875,1.124,3.56738,3.71484,3.56738,7.28222v5.27833a10.06582,10.06582,0,0,0,.58691,4.15429Zm-5.86523-29.32373v10.50733h2.10156c2.00391,0,3.22559-.87989,3.22559-3.61622v-3.373c0-2.44287-.83106-3.51807-2.73633-3.51807Z"/><path class="cls-13" d="M612.58568,151.88867H607.1599l-.92872-6.207h-6.59765l-.92871,6.207h-4.93555l5.47363-34.21142h7.86817ZM600.3181,141.03906h5.18066l-2.59082-17.30127Z"/></g></g></svg>