<svg xmlns="http://www.w3.org/2000/svg" xmlns:xlink="http://www.w3.org/1999/xlink" width="970" height="250" viewBox="0 0 970 250"><defs><style>.cls-1{fill:none;}.cls-2{clip-path:url(#clip-path);}.cls-3{clip-path:url(#clip-path-2);}.cls-4{clip-path:url(#clip-path-3);}.cls-5{clip-path:url(#clip-path-4);}.cls-6{clip-path:url(#clip-path-5);}.cls-7{fill:#fff;stroke:#ba9544;stroke-miterlimit:10;stroke-width:0.5px;}.cls-8{fill:#ba9544;}.cls-9{clip-path:url(#clip-path-6);}.cls-10{clip-path:url(#clip-path-7);}</style><clipPath id="clip-path"><rect class="cls-1" x="1105.34661" y="-589.16275" width="170.77483" height="153.04906"/></clipPath><clipPath id="clip-path-2"><rect class="cls-1" x="953.79396" y="-640.15394" width="598.84548" height="708.41343" transform="translate(809.0052 920.28412) rotate(-56.92989)"/></clipPath><clipPath id="clip-path-3"><rect class="cls-1" x="1105.34661" y="-301.16333" width="170.77483" height="153.04906"/></clipPath><clipPath id="clip-path-4"><rect class="cls-1" x="953.79396" y="-352.15452" width="598.84548" height="708.41343" transform="translate(567.66067 1051.13238) rotate(-56.92989)"/></clipPath><clipPath id="clip-path-5"><rect class="cls-1" x="68.38427" y="-92.10755" width="81.83695" height="45.99836"/></clipPath><clipPath id="clip-path-6"><rect class="cls-1" x="17.24025" y="-299.16219" width="383.03219" height="250.51546"/></clipPath><clipPath id="clip-path-7"><rect class="cls-1" x="2.56702" y="-306.41002" width="399.55191" height="335.80187"/></clipPath></defs><title>THC - MK Ultra</title><g id="Terpenes"><g class="cls-2"><g id="Variety_2_GettyImages-639528520.psd" data-name="Variety#2_GettyImages-639528520.psd"><g class="cls-3"><image id="Variety_2-orange_slice_Variety_2-lemon_with_leaf_Variety_2-lemon_bunch_half" data-name="Variety#2-orange+slice + Variety#2-lemon with leaf + Variety#2-lemon bunch+half" width="4425" height="3804" transform="translate(1119.7747 -730.14269) rotate(33.07011) scale(0.15743)" xlink:href="THC%20-%20MK%20Ultra1.png"/></g></g></g><g class="cls-4"><g id="Variety_2_GettyImages-639528520.psd-2" data-name="Variety#2_GettyImages-639528520.psd"><g class="cls-5"><image id="Variety_2-orange_slice_Variety_2-lemon_with_leaf_Variety_2-lemon_bunch_half-2" data-name="Variety#2-orange+slice + Variety#2-lemon with leaf + Variety#2-lemon bunch+half" width="4425" height="3804" transform="translate(1119.7747 -442.14327) rotate(33.07011) scale(0.15743)" xlink:href="THC%20-%20MK%20Ultra2.png"/></g></g></g></g><g id="Content"><polygon class="cls-7" points="640.867 100.727 408.265 99.846 396.523 116.779 408.265 133.411 640.867 133.014 651.435 116.872 640.867 100.727"/><polygon class="cls-8" points="408.435 99.846 396.693 116.779 408.435 133.411 444.083 133.411 444.203 99.846 408.435 99.846"/><path class="cls-8" d="M541.39622,111.229v2.126h-3.7959v9.2627H535.323V113.355h-3.79687v-2.126Z"/><path class="cls-8" d="M543.08958,122.61769V111.229h2.27832v4.55566h5.30664v-4.5625h2.27735v11.3877l-2.27735.00781v-4.707H545.3679v4.707Z"/><path class="cls-8" d="M556.48509,120.982a5.697,5.697,0,0,1,4.05078-9.75293,6.16433,6.16433,0,0,1,4.1836,1.51855l-1.51856,1.66309a4.19972,4.19972,0,0,0-2.665-.91113,3.34363,3.34363,0,0,0-2.47168.957,3.30924,3.30924,0,0,0-.9375,2.42871,3.41107,3.41107,0,0,0,.94922,2.52051,3.36176,3.36176,0,0,0,2.47559.93457,4.08629,4.08629,0,0,0,2.64941-.90332l1.51856,1.6621a6.1421,6.1421,0,0,1-4.1836,1.51856A5.54378,5.54378,0,0,1,556.48509,120.982Z"/><path class="cls-8" d="M567.27025,115.356a1.101,1.101,0,0,1,.82031-.30762,1.143,1.143,0,0,1,.85059.30762,1.10584,1.10584,0,0,1,0,1.52246,1.30094,1.30094,0,0,1-1.6709,0,1.10584,1.10584,0,0,1,0-1.52246Zm0,5.43555a1.101,1.101,0,0,1,.82031-.30762,1.143,1.143,0,0,1,.85059.30762,1.04569,1.04569,0,0,1,.30371.76367,1.02984,1.02984,0,0,1-.30371.75879,1.30094,1.30094,0,0,1-1.6709,0,1.0298,1.0298,0,0,1-.30371-.75879A1.04565,1.04565,0,0,1,567.27025,120.79152Z"/><path class="cls-8" d="M579.39525,111.229v-.00684h2.2705v11.39551h-2.2705v-8.35156l-1.51856,1.51855-1.51855-1.51855Z"/><path class="cls-8" d="M583.93529,117.08253a6.88853,6.88853,0,0,1,1.17675-4.27734,3.84591,3.84591,0,0,1,3.15039-1.56836,4.77767,4.77767,0,0,1,3.18946,1.13184l-1.13965,1.51757a4.011,4.011,0,0,0-1.95117-.45507,2.015,2.015,0,0,0-1.57129.6455,3.05467,3.05467,0,0,0-.65332,1.93555,3.54146,3.54146,0,0,1,2.27832-.98633,3.80035,3.80035,0,0,1,2.92285,1.02442,3.91936,3.91936,0,0,1,.94922,2.77148,3.734,3.734,0,0,1-1.06348,2.69531,4.02613,4.02613,0,0,1-3.03613,1.10059,3.81125,3.81125,0,0,1-3.26465-1.541A7.06329,7.06329,0,0,1,583.93529,117.08253Zm2.50488,1.74707q.07617,1.58643,1.82226,1.6543,1.74611-.06738,1.82227-1.51074a1.71972,1.71972,0,0,0-1.89746-1.89746A1.6917,1.6917,0,0,0,586.44017,118.8296Z"/><path class="cls-8" d="M594.33665,119.57277V118.062h4.707v1.51074Z"/><path class="cls-8" d="M605.11009,111.229a4.30161,4.30161,0,0,1,2.73731.83886,2.98987,2.98987,0,0,1,1.0664,2.502,5.21661,5.21661,0,0,1-1.51465,3.61426,10.53659,10.53659,0,0,1-2.50195,2.15625h4.09961v2.27734H601.321v-2.27734q.76025,0,2.88574-1.89844a10.85515,10.85515,0,0,0,2.4668-2.69531,1.85027,1.85027,0,0,0-.03711-1.59375q-.38086-.79834-1.82227-.79786a2.6143,2.6143,0,0,0-2.126.91114l-1.51856-1.51856a6.28925,6.28925,0,0,1,1.48047-1.13867A5.70073,5.70073,0,0,1,605.11009,111.229Z"/><path class="cls-8" d="M612.26927,120.982a7.80764,7.80764,0,0,1,0-8.12012,3.64463,3.64463,0,0,1,6.07813,0,7.83761,7.83761,0,0,1,0,8.124,3.64343,3.64343,0,0,1-6.07813-.0039Zm3.04492-.49024q.75147,0,1.32129-1.02441a5.966,5.966,0,0,0,0-5.08692q-.56982-1.02539-1.33691-1.02539-.75147,0-1.32032,1.02539a5.96607,5.96607,0,0,0,0,5.08692Q614.54662,120.49123,615.31419,120.49171Z"/><path class="cls-8" d="M622.19212,116.03566a2.936,2.936,0,1,1,2.03516.81933A2.76695,2.76695,0,0,1,622.19212,116.03566Zm2.0127-.53223a1.35451,1.35451,0,0,0,1.04-.43262,1.64042,1.64042,0,0,0,0-2.15234,1.37151,1.37151,0,0,0-1.04786-.42871,1.35411,1.35411,0,0,0-1.0332.42871,1.64042,1.64042,0,0,0,0,2.15234A1.35518,1.35518,0,0,0,624.20482,115.50343Zm-.60742,7.11426,6.45312-11.38867h1.85254l-6.43848,11.38867Zm5.65625-.75195a2.91488,2.91488,0,1,1,2.01953.8125A2.73938,2.73938,0,0,1,629.25365,121.86574Zm1.98144-.55371a1.32829,1.32829,0,0,0,1.0166-.42188,1.58453,1.58453,0,0,0,0-2.09473,1.338,1.338,0,0,0-1.02441-.42187,1.32078,1.32078,0,0,0-1.00977.42187,1.58748,1.58748,0,0,0,0,2.09473A1.33043,1.33043,0,0,0,631.23509,121.312Z"/><g class="cls-9"><g id="SmallTopDown-8307-MKUltra.psd"><g class="cls-10"><image id="SmallTopDown-8307-MKUltra" width="4124" height="3466" transform="translate(2.56702 -306.41002) scale(0.09688)" xlink:href="THC%20-%20MK%20Ultra3.png"/></g></g></g></g></svg>