<svg id="Content" xmlns="http://www.w3.org/2000/svg" width="320" height="50" viewBox="0 0 320 50"><defs><style>.cls-1{fill:#ba9544;}</style></defs><title>Frame1 - MK Ultra</title><path class="cls-1" d="M153.50781,28.93115l.97266-6.44629h1.98437V31.564h-1.34912V25.05322l-.98535,6.51074h-1.34912L151.71777,25.144V31.564h-1.24511v-9.0791H152.457Z"/><path class="cls-1" d="M160.74756,27.94531l-.44092.83008V31.564h-1.42627v-9.0791h1.42627v3.95606l1.86768-3.95606h1.42675l-1.98437,4.04688,1.98437,5.03222h-1.46533Z"/><path class="cls-1" d="M170.37549,22.48486v7.00391c0,.64844.28515.88184.73926.88184.45361,0,.73925-.2334.73925-.88184V22.48486h1.34864V29.398c0,1.45264-.72608,2.28271-2.127,2.28271s-2.12695-.83007-2.12695-2.28271V22.48486Z"/><path class="cls-1" d="M175.55322,22.48486h1.42627v7.78223h2.34766V31.564h-3.77393Z"/><path class="cls-1" d="M180.91162,22.48486h4.40967v1.29737h-1.4917V31.564h-1.42676V23.78223h-1.49121Z"/><path class="cls-1" d="M190.3042,31.564a2.78322,2.78322,0,0,1-.12988-1.11523V29.022c0-.84326-.28516-1.15429-.9336-1.15429h-.49316V31.564H187.3208v-9.0791h2.15332c1.47852,0,2.11426.6875,2.11426,2.08838v.71338a1.81011,1.81011,0,0,1-.93408,1.8418c.71338.29834.94677.98535.94677,1.93213v1.40088a2.67619,2.67619,0,0,0,.15577,1.10253Zm-1.55664-7.78173v2.78808h.5581c.53174,0,.856-.2334.856-.95947v-.895c0-.64844-.2207-.93359-.72656-.93359Z"/><path class="cls-1" d="M198.52979,31.564h-1.43995l-.24609-1.647h-1.751l-.24658,1.647h-1.31006l1.45264-9.0791h2.08838Zm-3.25538-2.87939h1.37452l-.6875-4.59131Z"/></svg>