<svg id="Layer_1" data-name="Layer 1" xmlns="http://www.w3.org/2000/svg" xmlns:xlink="http://www.w3.org/1999/xlink" width="59.60075" height="89.59422" viewBox="0 0 59.60075 89.59422"><defs><style>.cls-1{fill:url(#New_Gradient_Swatch_1);}.cls-2{fill:#fff;}.cls-3{fill:#ba9544;}</style><linearGradient id="New_Gradient_Swatch_1" y1="30.48596" x2="59.60075" y2="30.48596" gradientUnits="userSpaceOnUse"><stop offset="0" stop-color="#a88a34"/><stop offset="0.49324" stop-color="#caaf67"/><stop offset="1" stop-color="#957f2e"/></linearGradient></defs><title>fruity</title><polygon class="cls-1" points="24.758 60.972 0 32.381 19.542 0 56.377 8.578 59.601 46.26 24.758 60.972"/><path class="cls-2" d="M41.81429,22.315c2.03976-.61759,2.6092-2.2664,3.81039-2.83583-2.37406-.97455-3.7679-1.21819-5.1759-.5496a3.52107,3.52107,0,0,0-2.09359,2.612,3.63285,3.63285,0,0,0,3.4591.7734"/><path class="cls-2" d="M37.41577,25.75116a10.96681,10.96681,0,0,0-2.68569-8.28371.18468.18468,0,0,0-.26347-.0085l-.0085.0085-.5581.57227a.18776.18776,0,0,0-.00566.255,9.93347,9.93347,0,0,1,2.32872,7.499c-4.89259-2.867-10.03733.2663-9.79936,5.47053a13.542,13.542,0,0,0,.41362,2.67435,22.96155,22.96155,0,0,0,10.44246,4.73678,2.73268,2.73268,0,0,1,1.33718.66576,1.97335,1.97335,0,0,1,.62892,1.391l.017.51278a2.80573,2.80573,0,0,1-.12465.90656,3.98335,3.98335,0,0,1-.17849.5666c4.07953.20115,7.94375-6.28644,8.18172-11.45383.238-5.1759-4.85576-8.30354-9.7257-5.513"/><path class="cls-2" d="M37.65318,40.38476a1.34409,1.34409,0,0,0-.64876-.3173c-8.25254-1.64031-15.19907-6.34593-18.07174-16.0688a2.21954,2.21954,0,0,0-.289-.5581,1.31177,1.31177,0,0,1-.19548-.74791l.06516-1.84429a.49843.49843,0,0,0-.48161-.51844H18.012l-.97738.0085a.49755.49755,0,0,0-.49578.50144.32458.32458,0,0,0,.00284.05383L16.7711,22.874A1.23119,1.23119,0,0,1,16.502,23.67a3.17009,3.17009,0,0,0-.323,1.66581c-.19831,15.49653,10.27531,20.01234,19.94435,17.62979,1.22952-.30314,1.34568-.50145,1.4505-.64876a2.20393,2.20393,0,0,0,.19264-.55244,1.2977,1.2977,0,0,0,.07366-.47594l-.01416-.50994a.56129.56129,0,0,0-.17281-.39379"/><path class="cls-3" d="M1.25345,89.59422V78.38914H9.13431v2.0918H3.49466v2.39063H7.65579v2.084H3.49466v4.63867Z"/><path class="cls-3" d="M17.50833,84.70848l2.793,4.88574H17.732l-2.68164-4.63086H13.00345v4.63086H10.76321V78.38914H15.648q3.92139,0,3.92187,3.22754A2.89659,2.89659,0,0,1,17.50833,84.70848Zm-4.50488-1.83691h3.13769q1.35206-.022,1.38965-1.23243-.03808-1.10595-1.3672-1.15039H13.00345Z"/><path class="cls-3" d="M23.53665,78.38914v6.499a2.24729,2.24729,0,0,0,.74707,1.86719,3.21558,3.21558,0,0,0,3.73438,0,2.24732,2.24732,0,0,0,.74707-1.86719v-6.499h2.24121v7.09668a3.71359,3.71359,0,0,1-1.38184,2.91309,5.12115,5.12115,0,0,1-3.47363,1.19531,5.12115,5.12115,0,0,1-3.47363-1.19531,3.71359,3.71359,0,0,1-1.38184-2.91309V78.38914Z"/><path class="cls-3" d="M33.4263,78.38231h2.2334V89.59422H33.4263Z"/><path class="cls-3" d="M47.0513,78.38914v2.0918H43.31692v9.11328H41.07571V80.48094H37.34036v-2.0918Z"/><path class="cls-3" d="M48.06009,78.38914H50.689l2.5996,3.66016,2.65919-3.66016h2.56934l-4.1084,5.60254v5.60254H52.16849V83.99168Z"/></svg>