<svg id="Layer_1" data-name="Layer 1" xmlns="http://www.w3.org/2000/svg" xmlns:xlink="http://www.w3.org/1999/xlink" width="56.93043" height="86.94895" viewBox="0 0 56.93043 86.94895"><defs><style>.cls-1{fill:url(#New_Gradient_Swatch_1);}.cls-2{fill:#fff;}.cls-3{fill:#ba9544;}</style><linearGradient id="New_Gradient_Swatch_1" y1="29.58557" x2="56.93043" y2="29.58557" gradientUnits="userSpaceOnUse"><stop offset="0" stop-color="#a88a34"/><stop offset="0.49324" stop-color="#caaf67"/><stop offset="1" stop-color="#957f2e"/></linearGradient></defs><title>pine</title><polygon class="cls-1" points="51.245 49.304 22.778 59.171 0 39.453 5.688 9.867 34.152 0 56.93 19.718 51.245 49.304"/><path class="cls-2" d="M37.93362,38.52832l-9.5182-22.72048L18.999,38.52832l8.94082,1.78982v2.54038a.52545.52545,0,0,0,1.05026,0V40.31814Z"/><path class="cls-3" d="M11.04944,86.949v-10.874h4.74121q3.80567,0,3.80566,3.13184,0,3.24756-3.79883,3.248H13.22424V86.949Zm2.1748-6.52442h3.04492q1.311-.022,1.34766-1.19629Q17.58166,78.156,16.29065,78.112H13.22424Z"/><path class="cls-3" d="M21.19787,76.06809h2.168V86.949h-2.168Z"/><path class="cls-3" d="M25.54748,86.949v-10.874h.72461l6.81446,6.81446V76.07492h2.1748V86.949h-.79687l-6.74219-6.74219V86.949Z"/><path class="cls-3" d="M37.48694,86.949V76.08274l7.98925-.00782V78.1052H39.66174v2.31933h4.35742V82.447H39.66174v2.47266h5.79981V86.949Z"/></svg>