<svg id="Layer_1" data-name="Layer 1" xmlns="http://www.w3.org/2000/svg" width="320" height="50" viewBox="0 0 320 50"><defs><style>.cls-1{fill:#ab9555;}</style></defs><title>frame1</title><path class="cls-1" d="M122.681,34.78a4.12618,4.12618,0,0,1-4.14424-4.13526V17.14252h2.56866V30.61665a1.43843,1.43843,0,0,0,.44375,1.05937,1.45994,1.45994,0,0,0,1.065.43925,1.49111,1.49111,0,0,0,1.49918-1.49862V17.14252h2.74055V30.64473a3.94779,3.94779,0,0,1-1.22227,2.94108A4.07224,4.07224,0,0,1,122.681,34.78Z"/><path class="cls-1" d="M135.65462,17.14252l3.47581,11.6969V17.14252h2.626V34.5598h-2.813L135.33,23.40663V34.5598h-2.626V17.14252Z"/><path class="cls-1" d="M151.76032,17.14252A3.98622,3.98622,0,0,1,154.816,18.3558a4.18006,4.18006,0,0,1,1.05993,2.94108v2.52991a4.04389,4.04389,0,0,1-1.20148,2.94107,3.926,3.926,0,0,1-2.90737,1.22227h-1.51547V34.5598h-2.626V17.14252Zm1.566,4.20154a1.515,1.515,0,0,0-.40443-1.10318,1.45479,1.45479,0,0,0-1.09027-.41566h-1.58006v5.56759h1.58006a1.42743,1.42743,0,0,0,1.06162-.44374,1.473,1.473,0,0,0,.43308-1.065Z"/><path class="cls-1" d="M168.65746,34.5598h-7.16059V17.14252h2.6254v14.811h4.53519Z"/><path class="cls-1" d="M178.11653,34.78a4.12523,4.12523,0,0,1-4.14312-4.13526V17.14252h2.56811V30.61665a1.43846,1.43846,0,0,0,.44374,1.05937,1.46086,1.46086,0,0,0,1.065.43925A1.49208,1.49208,0,0,0,179.55,30.61665V17.14252h2.74V30.64473a3.94987,3.94987,0,0,1-1.22226,2.94108A4.0717,4.0717,0,0,1,178.11653,34.78Z"/><path class="cls-1" d="M192.26582,34.78a4.15583,4.15583,0,0,1-4.16334-4.15435v-9.54a4.1583,4.1583,0,1,1,8.31657,0v1.98618h-2.722V21.03849a1.517,1.517,0,0,0-1.51772-1.51884,1.43345,1.43345,0,0,0-1.05937.44487,1.46938,1.46938,0,0,0-.44037,1.074v9.55794a1.50355,1.50355,0,0,0,1.49974,1.50985,1.4694,1.4694,0,0,0,1.074-.44037,1.44408,1.44408,0,0,0,.44374-1.06948V27.16892h-1.46042v-2.6254h4.18243v6.08212A4.15,4.15,0,0,1,192.26582,34.78Z"/><path class="cls-1" d="M201.74512,31.94339h2.6254v2.6254h-2.6254Z"/></svg>