<svg id="Layer_1" data-name="Layer 1" xmlns="http://www.w3.org/2000/svg" width="593.647" height="20.9912" viewBox="0 0 593.647 20.9912"><defs><style>.cls-1{fill:#ac9655;}</style></defs><title>frame1</title><path class="cls-1" d="M4.9,20.9912a4.7249,4.7249,0,0,1-3.4712-1.43A4.7063,4.7063,0,0,1,0,16.1064V4.9336A4.7131,4.7131,0,0,1,1.4375,1.4619,4.7351,4.7351,0,0,1,4.9.0332,4.6824,4.6824,0,0,1,8.3633,1.4707,4.7456,4.7456,0,0,1,9.7847,4.9336V7.27H6.583V4.8682a1.7846,1.7846,0,0,0-1.7808-1.78A1.6868,1.6868,0,0,0,3.5527,3.61a1.7276,1.7276,0,0,0-.5146,1.2578v11.206a1.7572,1.7572,0,0,0,1.7641,1.7637A1.7258,1.7258,0,0,0,6.06,17.3232a1.6854,1.6854,0,0,0,.5229-1.249V13.248H9.7847v2.8584a4.6859,4.6859,0,0,1-1.4375,3.4629A4.7265,4.7265,0,0,1,4.9,20.9912Z"/><path class="cls-1" d="M19.6538,16.0254l-.75,4.7041H15.689L19.1685.2617h4.247l3.43,20.4678H23.5991l-.7221-4.7041ZM21.2754,4.9492l-1.1436,8.07h2.2871Z"/><path class="cls-1" d="M37.0483.2451l4.0972,13.7666V.2451h3.0874V20.73H40.917L36.6694,7.6123V20.73H33.5825V.2451Z"/><path class="cls-1" d="M54.5991.2451l4.0972,13.7666V.2451h3.0874V20.73H58.4678L54.22,7.6123V20.73H51.1333V.2451Z"/><path class="cls-1" d="M72.47,16.0254,71.7192,20.73H68.5049L71.9844.2617h4.247l3.43,20.4678H76.415l-.7221-4.7041ZM74.0913,4.9492l-1.1435,8.07h2.2871Z"/><path class="cls-1" d="M85.4883,20.73V.2451h4.6225a5.886,5.886,0,0,1,3.3.9639,4.4877,4.4877,0,0,1,1.7969,2.5322,7.1356,7.1356,0,0,1,.294,2.1719,4.8085,4.8085,0,0,1-1.0943,3.3,3.111,3.111,0,0,1-1.0781.8008,3.5866,3.5866,0,0,1,1.7476,1.5517,6.041,6.041,0,0,1,.7026,2.0254,8.0819,8.0819,0,0,1,.1143,1.4209,6.8408,6.8408,0,0,1-.7349,3.3,4.7327,4.7327,0,0,1-3.9531,2.418ZM88.82,8.6084h1.29a1.8914,1.8914,0,0,0,1.9278-1.4043,4.0126,4.0126,0,0,0,.18-1.291,2.7,2.7,0,0,0-.6206-1.9268,1.9531,1.9531,0,0,0-1.4869-.6045H88.82Zm0,9.0664h1.29a2.1914,2.1914,0,0,0,2.1729-1.6172,3.5613,3.5613,0,0,0,.2124-1.2744,3.8792,3.8792,0,0,0-.6538-2.499,2.106,2.106,0,0,0-1.7315-.7188H88.82Z"/><path class="cls-1" d="M104.876,20.73h-3.0869V.2617h3.0869Z"/><path class="cls-1" d="M120.8892,15.6328a5.76,5.76,0,0,1-1.1109,3.6592,4,4,0,0,1-2.1235,1.4541,5.7971,5.7971,0,0,1-1.7153.2285,4.8571,4.8571,0,0,1-3.0059-.8984,5.0275,5.0275,0,0,1-1.5762-2.001,8.0619,8.0619,0,0,1-.6777-2.8994l2.94-.2129a4.4707,4.4707,0,0,0,.9478,2.5947,1.5756,1.5756,0,0,0,1.2739.5742,1.9128,1.9128,0,0,0,1.6172-.997,2.4768,2.4768,0,0,0,.3105-1.3565,3.7709,3.7709,0,0,0-1.16-2.5351q-.9156-.8658-2.7447-2.6a11.7076,11.7076,0,0,1-2.1723-2.6651,6.16,6.16,0,0,1-.6861-2.8769A5.0062,5.0062,0,0,1,112.8848.8662,4.671,4.671,0,0,1,115.76,0a5.2245,5.2245,0,0,1,2.8261.7354,4.2483,4.2483,0,0,1,1.4781,1.6005,5.9316,5.9316,0,0,1,.6782,2.3692l-2.957.539a3.5688,3.5688,0,0,0-.7188-1.9609,1.5107,1.5107,0,0,0-1.2251-.5059,1.41,1.41,0,0,0-1.2905.751,2.8971,2.8971,0,0,0-.3594,1.5029A4.5066,4.5066,0,0,0,115.4,7.89a10.1445,10.1445,0,0,0,1.3721,1.3077q1.0781.8979,1.4213,1.2578a10.4918,10.4918,0,0,1,1.7642,2.2539,8.7442,8.7442,0,0,1,.4736.9639A5.6207,5.6207,0,0,1,120.8892,15.6328Z"/><path class="cls-1" d="M142.7656,12.0557V20.73h-3.0869V.2617h3.0869v8.69H146.49V.2617h3.0874V20.73H146.49V12.0557Z"/><path class="cls-1" d="M160.2637,16.0254l-.75,4.7041h-3.2144l3.48-20.4678h4.2471l3.43,20.4678H164.209l-.7222-4.7041Zm1.6216-11.0762-1.1436,8.07h2.2871Z"/><path class="cls-1" d="M183.4707,15.6328a5.751,5.751,0,0,1-1.1113,3.6592,3.9938,3.9938,0,0,1-2.1226,1.4541,5.7971,5.7971,0,0,1-1.7153.2285,4.8571,4.8571,0,0,1-3.0059-.8984,5.0273,5.0273,0,0,1-1.5761-2.001,8.0619,8.0619,0,0,1-.6778-2.8994l2.94-.2129a4.47,4.47,0,0,0,.9477,2.5947,1.5756,1.5756,0,0,0,1.2739.5742,1.9128,1.9128,0,0,0,1.6172-.997,2.4759,2.4759,0,0,0,.3106-1.3565,3.7706,3.7706,0,0,0-1.16-2.5351q-.9154-.8658-2.7446-2.6a11.7058,11.7058,0,0,1-2.1724-2.6651,6.1594,6.1594,0,0,1-.686-2.8769A5.0064,5.0064,0,0,1,175.4668.8662,4.671,4.671,0,0,1,178.3418,0a5.2251,5.2251,0,0,1,2.8262.7354,4.262,4.262,0,0,1,1.4785,1.6005,5.9378,5.9378,0,0,1,.6777,2.3692l-2.957.539a3.5688,3.5688,0,0,0-.7188-1.9609,1.5107,1.5107,0,0,0-1.2251-.5059,1.41,1.41,0,0,0-1.2905.751,2.8981,2.8981,0,0,0-.3594,1.5029,4.5071,4.5071,0,0,0,1.209,2.8584,10.1445,10.1445,0,0,0,1.3721,1.3077q1.0781.8979,1.4214,1.2578a10.4565,10.4565,0,0,1,1.7632,2.2539,8.3708,8.3708,0,0,1,.4746.9639A5.5652,5.5652,0,0,1,183.4707,15.6328Z"/><path class="cls-1" d="M202.2607,20.73V.2451h4.6231a5.8877,5.8877,0,0,1,3.3.9639,4.4854,4.4854,0,0,1,1.7969,2.5322,7.12,7.12,0,0,1,.2939,2.1719,4.8087,4.8087,0,0,1-1.0947,3.3,3.1036,3.1036,0,0,1-1.0781.8008,3.5873,3.5873,0,0,1,1.748,1.5517,6.0434,6.0434,0,0,1,.7022,2.0254,8.0868,8.0868,0,0,1,.1152,1.4209,6.8339,6.8339,0,0,1-.7354,3.3,4.7323,4.7323,0,0,1-3.9531,2.418Zm3.3331-12.1211h1.29a1.8916,1.8916,0,0,0,1.9277-1.4043,4.0238,4.0238,0,0,0,.18-1.291,2.6969,2.6969,0,0,0-.6211-1.9268,1.9516,1.9516,0,0,0-1.4863-.6045h-1.29Zm0,9.0664h1.29a2.1909,2.1909,0,0,0,2.1728-1.6172,3.5506,3.5506,0,0,0,.212-1.2744,3.8787,3.8787,0,0,0-.6534-2.499,2.1045,2.1045,0,0,0-1.7314-.7188h-1.29Z"/><path class="cls-1" d="M218.5381,20.73V.2451h8.789V3.3486H221.626V8.9355h4.165v3.1036h-4.165V17.626h5.7011V20.73Z"/><path class="cls-1" d="M233.13,20.73V.2451h8.789V3.3486h-5.7011V8.9355h4.165v3.1036h-4.165V17.626h5.7011V20.73Z"/><path class="cls-1" d="M251.6484.2451l4.0967,13.7666V.2451h3.0869V20.73h-3.3154L251.27,7.6123V20.73h-3.0879V.2451Z"/><path class="cls-1" d="M282.5059,20.958a4.8532,4.8532,0,0,1-4.8848-4.8682V.2617h3.0225V16.0576a1.6887,1.6887,0,0,0,.5224,1.25,1.73,1.73,0,0,0,1.2578.5147,1.7573,1.7573,0,0,0,1.7647-1.7647V.2617h3.2177V16.09a4.6528,4.6528,0,0,1-1.4374,3.4639A4.7776,4.7776,0,0,1,282.5059,20.958Z"/><path class="cls-1" d="M302.9351,15.6328a5.757,5.757,0,0,1-1.1114,3.6592,3.9967,3.9967,0,0,1-2.123,1.4541,5.7964,5.7964,0,0,1-1.7158.2285,4.8554,4.8554,0,0,1-3.0044-.8984,5.0244,5.0244,0,0,1-1.5772-2.001,8.0723,8.0723,0,0,1-.6777-2.8994l2.94-.2129a4.4708,4.4708,0,0,0,.9473,2.5947,1.5763,1.5763,0,0,0,1.2739.5742,1.9141,1.9141,0,0,0,1.6172-.997,2.4768,2.4768,0,0,0,.3105-1.3565,3.7694,3.7694,0,0,0-1.16-2.5351q-.9141-.8658-2.7437-2.6a11.7119,11.7119,0,0,1-2.1728-2.6651,6.1639,6.1639,0,0,1-.6856-2.8769,5.0072,5.0072,0,0,1,1.878-4.2354A4.6741,4.6741,0,0,1,297.8057,0a5.2216,5.2216,0,0,1,2.8256.7354A4.2455,4.2455,0,0,1,302.11,2.3359a5.9233,5.9233,0,0,1,.6777,2.3692l-2.9561.539a3.5757,3.5757,0,0,0-.7187-1.9609,1.5125,1.5125,0,0,0-1.2256-.5059,1.4094,1.4094,0,0,0-1.29.751,2.8922,2.8922,0,0,0-.3594,1.5029,4.5076,4.5076,0,0,0,1.208,2.8584,10.188,10.188,0,0,0,1.3725,1.3077q1.0782.8979,1.4209,1.2578a10.4852,10.4852,0,0,1,1.7637,2.2539,8.5027,8.5027,0,0,1,.4737.9639A5.5909,5.5909,0,0,1,302.9351,15.6328Z"/><path class="cls-1" d="M308.2554,20.73V.2451h8.789V3.3486h-5.7011V8.9355h4.165v3.1036h-4.165V17.626h5.7011V20.73Z"/><path class="cls-1" d="M332.09,15.8291a4.7467,4.7467,0,0,1-1.4209,3.4629,4.6487,4.6487,0,0,1-3.4306,1.4375h-4.8516V.2451h4.8516a4.64,4.64,0,0,1,3.4384,1.4375A4.74,4.74,0,0,1,332.09,5.1289Zm-6.6152,1.8457h1.8623a1.6488,1.6488,0,0,0,1.2412-.5312,1.7512,1.7512,0,0,0,.5059-1.2491V5.1787a1.7286,1.7286,0,0,0-.5137-1.2578,1.6719,1.6719,0,0,0-1.2334-.5234h-1.8623Z"/><path class="cls-1" d="M354.3853,16.0254l-.75,4.7041H350.42L353.9.2617h4.2471L361.5776,20.73h-3.2461l-.7226-4.7041Zm1.622-11.0762-1.1435,8.07h2.2871Z"/><path class="cls-1" d="M375.7505,15.6328a5.7564,5.7564,0,0,1-1.1113,3.6592,3.997,3.997,0,0,1-2.1231,1.4541,5.7959,5.7959,0,0,1-1.7158.2285,4.8561,4.8561,0,0,1-3.0049-.8984,5.025,5.025,0,0,1-1.5771-2.001,8.0723,8.0723,0,0,1-.6778-2.8994l2.94-.2129a4.47,4.47,0,0,0,.9472,2.5947,1.5766,1.5766,0,0,0,1.2744.5742,1.9141,1.9141,0,0,0,1.6172-.997,2.4759,2.4759,0,0,0,.3106-1.3565,3.7691,3.7691,0,0,0-1.16-2.5351q-.9141-.8658-2.7441-2.6a11.71,11.71,0,0,1-2.1729-2.6651,6.1651,6.1651,0,0,1-.6855-2.8769A5.0074,5.0074,0,0,1,367.7456.8662,4.6741,4.6741,0,0,1,370.6206,0a5.2227,5.2227,0,0,1,2.8262.7354,4.2461,4.2461,0,0,1,1.4785,1.6005,5.92,5.92,0,0,1,.6777,2.3692l-2.956.539a3.5765,3.5765,0,0,0-.7188-1.9609,1.5125,1.5125,0,0,0-1.2256-.5059,1.41,1.41,0,0,0-1.29.751,2.8932,2.8932,0,0,0-.3594,1.5029,4.5082,4.5082,0,0,0,1.208,2.8584,10.1925,10.1925,0,0,0,1.3731,1.3077q1.0781.8979,1.4209,1.2578a10.4876,10.4876,0,0,1,1.7636,2.2539,8.5027,8.5027,0,0,1,.4737.9639A5.5909,5.5909,0,0,1,375.7505,15.6328Z"/><path class="cls-1" d="M398.5044,16.0254l-.75,4.7041H394.54L398.019.2617h4.2471L405.6968,20.73h-3.2461l-.7227-4.7041Zm1.6221-11.0762-1.1436,8.07H401.27Z"/><path class="cls-1" d="M434.6958,15.6328a5.7564,5.7564,0,0,1-1.1113,3.6592,3.997,3.997,0,0,1-2.1231,1.4541,5.7959,5.7959,0,0,1-1.7158.2285,4.8561,4.8561,0,0,1-3.0049-.8984,5.025,5.025,0,0,1-1.5771-2.001,8.0744,8.0744,0,0,1-.6778-2.8994l2.9405-.2129a4.4708,4.4708,0,0,0,.9472,2.5947,1.5768,1.5768,0,0,0,1.2744.5742,1.9139,1.9139,0,0,0,1.6172-.997,2.4759,2.4759,0,0,0,.3106-1.3565,3.7691,3.7691,0,0,0-1.16-2.5351q-.914-.8658-2.7441-2.6a11.71,11.71,0,0,1-2.1729-2.6651,6.1651,6.1651,0,0,1-.6855-2.8769A5.0074,5.0074,0,0,1,426.6909.8662,4.6743,4.6743,0,0,1,429.5659,0a5.2227,5.2227,0,0,1,2.8262.7354,4.2461,4.2461,0,0,1,1.4785,1.6005,5.92,5.92,0,0,1,.6777,2.3692l-2.956.539a3.5765,3.5765,0,0,0-.7188-1.9609,1.5123,1.5123,0,0,0-1.2256-.5059,1.41,1.41,0,0,0-1.29.751,2.8932,2.8932,0,0,0-.3594,1.5029,4.5082,4.5082,0,0,0,1.208,2.8584A10.1925,10.1925,0,0,0,430.58,9.1973q1.078.8979,1.4209,1.2578a10.4915,10.4915,0,0,1,1.7637,2.2539,8.5007,8.5007,0,0,1,.4736.9639A5.5887,5.5887,0,0,1,434.6958,15.6328Z"/><path class="cls-1" d="M444.8843.2617a4.705,4.705,0,0,1,3.5937,1.4209,4.9321,4.9321,0,0,1,1.2412,3.4629V8.1191a4.7606,4.7606,0,0,1-1.413,3.4629,4.6205,4.6205,0,0,1-3.4219,1.4375h-1.78v7.71h-3.0879V.2617ZM446.73,5.1943a1.7594,1.7594,0,0,0-.4815-1.29,1.7158,1.7158,0,0,0-1.2822-.49H443.104V9.9648h1.8623a1.6874,1.6874,0,0,0,1.249-.5234,1.7239,1.7239,0,0,0,.5147-1.2578Z"/><path class="cls-1" d="M458.0347,20.73h-3.0879V.2617h3.0879Z"/><path class="cls-1" d="M469.35.2617a4.7094,4.7094,0,0,1,3.79,1.4209,5.17,5.17,0,0,1,1.0616,3.4629V8.1191a4.782,4.782,0,0,1-1.6495,3.6748l2.2862,8.9356H471.5l-1.8721-7.71H467.57v7.71h-3.0879V.2617Zm1.8457,4.9326a1.5664,1.5664,0,0,0-1.7637-1.78H467.57V9.9648h1.8623a1.6878,1.6878,0,0,0,1.2491-.5234,1.7242,1.7242,0,0,0,.5146-1.2578Z"/><path class="cls-1" d="M483.7983,20.73H480.71V.2617h3.0879Z"/><path class="cls-1" d="M492.7925,3.3652h-3.2832V.2617h9.6377V3.3652H495.88V20.73h-3.0879Z"/><path class="cls-1" d="M509.72,20.958a4.8532,4.8532,0,0,1-4.8848-4.8682V.2617h3.0225V16.0576a1.6884,1.6884,0,0,0,.5225,1.25,1.7293,1.7293,0,0,0,1.2578.5147,1.7572,1.7572,0,0,0,1.7646-1.7647V.2617h3.2178V16.09a4.6529,4.6529,0,0,1-1.4375,3.4639A4.7776,4.7776,0,0,1,509.72,20.958Z"/><path class="cls-1" d="M523.9282,16.0254l-.75,4.7041h-3.2148l3.48-20.4678h4.247L531.1206,20.73h-3.2461l-.7226-4.7041ZM525.55,4.9492l-1.1436,8.07h2.2871Z"/><path class="cls-1" d="M545.36,20.73h-8.4131V.2617h3.0879V17.6582H545.36Z"/><path class="cls-1" d="M561.85,16.0254,561.1,20.73h-3.2148L561.3647.2617h4.2471L569.0425,20.73h-3.2461l-.7227-4.7041Zm1.6221-11.0762-1.1436,8.07h2.2871Z"/><path class="cls-1" d="M577.4966,20.73h-3.0879V.2617h3.0879Z"/><path class="cls-1" d="M593.647,15.8291a4.7471,4.7471,0,0,1-1.4209,3.4629,4.6489,4.6489,0,0,1-3.4307,1.4375h-4.8516V.2451h4.8516a4.64,4.64,0,0,1,3.4385,1.4375,4.74,4.74,0,0,1,1.4131,3.4463Zm-6.6153,1.8457h1.8623a1.649,1.649,0,0,0,1.2413-.5312,1.7512,1.7512,0,0,0,.5058-1.2491V5.1787a1.7286,1.7286,0,0,0-.5137-1.2578,1.6717,1.6717,0,0,0-1.2334-.5234h-1.8623Z"/></svg>