<?xml version="1.0" encoding="utf-8"?>
<!-- Generator: Adobe Illustrator 23.0.1, SVG Export Plug-In . SVG Version: 6.00 Build 0)  -->
<svg version="1.1" id="Content" xmlns="http://www.w3.org/2000/svg" xmlns:xlink="http://www.w3.org/1999/xlink" x="0px" y="0px"
	 viewBox="0 0 320 568" style="enable-background:new 0 0 320 568;" xml:space="preserve">
<style type="text/css">
	.st0{fill:#BA9544;}
</style>
<title>Frame2 - Ultra Sour</title>
<path class="st0" d="M92.6,192.7v16.5c0,1.5,0.7,2.1,1.7,2.1s1.7-0.6,1.7-2.1v-16.5h3.2V209c0,3.4-1.7,5.4-5,5.4c-3.3,0-5-2-5-5.4
	v-16.3H92.6z"/>
<path class="st0" d="M104.8,192.7h3.4V211h5.5v3.1h-8.9V192.7z"/>
<path class="st0" d="M117.5,192.7h10.4v3.1h-3.5v18.3H121v-18.3h-3.5V192.7z"/>
<path class="st0" d="M139.6,214.1c-0.3-0.8-0.4-1.7-0.3-2.6v-3.4c0-2-0.7-2.7-2.2-2.7h-1.2v8.7h-3.4v-21.4h5.1c3.5,0,5,1.6,5,4.9
	v1.7c0,2.2-0.7,3.6-2.2,4.3c1.7,0.7,2.2,2.3,2.2,4.6v3.3c-0.1,0.9,0.1,1.8,0.4,2.6H139.6z M135.9,195.8v6.6h1.3c1.3,0,2-0.6,2-2.3
	V198c0-1.5-0.5-2.2-1.7-2.2H135.9z"/>
<path class="st0" d="M159,214.1h-3.4l-0.6-3.9h-4.1l-0.6,3.9h-3.1l3.4-21.4h4.9L159,214.1z M151.3,207.3h3.2l-1.6-10.8L151.3,207.3z
	"/>
<path class="st0" d="M176.3,192.5c3.3,0,5,2,5,5.4v0.7h-3.2v-0.9c0-1.5-0.6-2.1-1.7-2.1s-1.7,0.6-1.7,2.1c0,4.4,6.6,5.2,6.6,11.3
	c0,3.4-1.7,5.4-5,5.4c-3.3,0-5-2-5-5.4v-1.3h3.2v1.5c0,1.5,0.7,2.1,1.7,2.1s1.7-0.6,1.7-2.1c0-4.4-6.6-5.2-6.6-11.3
	C171.3,194.4,173,192.5,176.3,192.5z"/>
<path class="st0" d="M186.2,197.8c0-3.4,1.8-5.4,5.1-5.4s5.1,2,5.1,5.4V209c0,3.4-1.8,5.4-5.1,5.4s-5.1-2-5.1-5.4V197.8z
	 M189.5,209.2c0,1.5,0.7,2.1,1.7,2.1s1.7-0.6,1.7-2.1v-11.6c0-1.5-0.7-2.1-1.7-2.1s-1.7,0.6-1.7,2.1V209.2z"/>
<path class="st0" d="M205,192.7v16.5c0,1.5,0.7,2.1,1.7,2.1s1.7-0.6,1.7-2.1v-16.5h3.2V209c0,3.4-1.7,5.4-5,5.4s-5-2-5-5.4v-16.3
	H205z"/>
<path class="st0" d="M224.3,214.1c-0.3-0.8-0.4-1.7-0.3-2.6v-3.4c0-2-0.7-2.7-2.2-2.7h-1.2v8.7h-3.4v-21.4h5.1c3.5,0,5,1.6,5,4.9
	v1.7c0,2.2-0.7,3.6-2.2,4.3c1.7,0.7,2.2,2.3,2.2,4.6v3.3c-0.1,0.9,0.1,1.8,0.4,2.6H224.3z M220.6,195.8v6.6h1.3c1.3,0,2-0.6,2-2.3
	V198c0-1.5-0.5-2.2-1.7-2.2H220.6z"/>
</svg>
