<svg id="Content" xmlns="http://www.w3.org/2000/svg" width="320" height="50" viewBox="0 0 320 50"><defs><style>.cls-1{fill:#ba9544;}</style></defs><title>Frame1 - Sensi Star</title><path class="cls-1" d="M123.55273,20.23145c1.71289,0,2.59278,1.02441,2.59278,2.81689v.35254h-1.665v-.46436c0-.80029-.31934-1.10449-.87988-1.10449-.55957,0-.87989.3042-.87989,1.10449,0,2.30469,3.44141,2.73731,3.44141,5.93848,0,1.79248-.89649,2.81689-2.625,2.81689s-2.625-1.02441-2.625-2.81689v-.68848h1.66406v.8003c0,.80029.35156,1.08838.91211,1.08838s.91211-.28809.91211-1.08838c0-2.30469-3.44141-2.73682-3.44141-5.93848C120.959,21.25586,121.83984,20.23145,123.55273,20.23145Z"/><path class="cls-1" d="M130.624,25.08154h2.417v1.60059h-2.417v3.28125h3.042V31.564h-4.80274V20.35938H133.666V21.96h-3.042Z"/><path class="cls-1" d="M138.0166,23.44873V31.564h-1.585V20.35938h2.209l1.8086,6.70654V20.35938h1.56836V31.564H140.209Z"/><path class="cls-1" d="M147.34473,20.23145c1.71191,0,2.59277,1.02441,2.59277,2.81689v.35254h-1.66406v-.46436c0-.80029-.32032-1.10449-.88086-1.10449s-.88086.3042-.88086,1.10449c0,2.30469,3.4414,2.73731,3.4414,5.93848,0,1.79248-.89648,2.81689-2.625,2.81689s-2.625-1.02441-2.625-2.81689v-.68848h1.665v.8003c0,.80029.35254,1.08838.91309,1.08838.55957,0,.91211-.28809.91211-1.08838,0-2.30469-3.44141-2.73682-3.44141-5.93848C144.752,21.25586,145.63184,20.23145,147.34473,20.23145Z"/><path class="cls-1" d="M152.65625,20.35938H154.416V31.564h-1.75977Z"/><path class="cls-1" d="M163.93555,20.23145c1.71289,0,2.59375,1.02441,2.59375,2.81689v.35254h-1.665v-.46436c0-.80029-.31934-1.10449-.87988-1.10449s-.88086.3042-.88086,1.10449c0,2.30469,3.4414,2.73731,3.4414,5.93848,0,1.79248-.89648,2.81689-2.625,2.81689s-2.625-1.02441-2.625-2.81689v-.68848H162.959v.8003c0,.80029.35254,1.08838.91309,1.08838.55957,0,.91211-.28809.91211-1.08838,0-2.30469-3.44141-2.73682-3.44141-5.93848C161.34277,21.25586,162.22266,20.23145,163.93555,20.23145Z"/><path class="cls-1" d="M168.73438,20.35938h5.44335V21.96h-1.84179v9.604h-1.75977V21.96h-1.84179Z"/><path class="cls-1" d="M182.33691,31.564h-1.77636l-.30469-2.03271H178.0957L177.791,31.564H176.1748l1.792-11.20458h2.57812Zm-4.01757-3.55322h1.69628l-.84765-5.6665Z"/><path class="cls-1" d="M188.5293,31.564a3.43261,3.43261,0,0,1-.16016-1.37646V28.42676c0-1.04053-.35254-1.42481-1.15234-1.42481h-.60938v4.562h-1.75976V20.35938h2.65625c1.82519,0,2.60937.84863,2.60937,2.57714v.88037a2.234,2.234,0,0,1-1.15234,2.27295c.88086.36817,1.168,1.21631,1.168,2.38477v1.729a3.30369,3.30369,0,0,0,.19238,1.36035Zm-1.92188-9.604v3.44141h.68946c.65624,0,1.05566-.28809,1.05566-1.18457V23.1123c0-.80029-.27246-1.15234-.89551-1.15234Z"/></svg>