<?xml version="1.0" encoding="utf-8"?>
<!-- Generator: Adobe Illustrator 23.0.1, SVG Export Plug-In . SVG Version: 6.00 Build 0)  -->
<svg version="1.1" id="Content" xmlns="http://www.w3.org/2000/svg" xmlns:xlink="http://www.w3.org/1999/xlink" x="0px" y="0px"
	 viewBox="0 0 320 568" style="enable-background:new 0 0 320 568;" xml:space="preserve">
<style type="text/css">
	.st0{fill:#BA9544;}
</style>
<title>Frame2 - Sensi Star</title>
<path class="st0" d="M97,192.5c3.3,0,5,2,5,5.4v0.7h-3.2v-0.9c0-1.5-0.6-2.1-1.7-2.1s-1.7,0.6-1.7,2.1c0,4.4,6.6,5.2,6.6,11.3
	c0,3.4-1.7,5.4-5,5.4c-3.3,0-5-2-5-5.4v-1.3h3.2v1.5c0,1.5,0.7,2.1,1.7,2.1s1.7-0.6,1.7-2.1c0-4.4-6.6-5.2-6.6-11.3
	C92,194.4,93.7,192.5,97,192.5z"/>
<path class="st0" d="M110.5,201.7h4.6v3.1h-4.6v6.3h5.8v3.1h-9.2v-21.4h9.2v3.1h-5.8V201.7z"/>
<path class="st0" d="M124.6,198.6v15.5h-3v-21.4h4.2l3.5,12.8v-12.8h3v21.4h-3.5L124.6,198.6z"/>
<path class="st0" d="M142.5,192.5c3.3,0,5,2,5,5.4v0.7h-3.2v-0.9c0-1.5-0.6-2.1-1.7-2.1s-1.7,0.6-1.7,2.1c0,4.4,6.6,5.2,6.6,11.3
	c0,3.4-1.7,5.4-5,5.4s-5-2-5-5.4v-1.3h3.2v1.5c0,1.5,0.7,2.1,1.7,2.1s1.7-0.6,1.7-2.1c0-4.4-6.6-5.2-6.6-11.3
	C137.5,194.4,139.2,192.5,142.5,192.5z"/>
<path class="st0" d="M152.6,192.7h3.4v21.4h-3.4V192.7z"/>
<path class="st0" d="M174.2,192.5c3.3,0,5,2,5,5.4v0.7H176v-0.9c0-1.5-0.6-2.1-1.7-2.1s-1.7,0.6-1.7,2.1c0,4.4,6.6,5.2,6.6,11.3
	c0,3.4-1.7,5.4-5,5.4c-3.3,0-5-2-5-5.4v-1.3h3.2v1.5c0,1.5,0.7,2.1,1.7,2.1s1.7-0.6,1.7-2.1c0-4.4-6.6-5.2-6.6-11.3
	C169.2,194.4,170.9,192.5,174.2,192.5z"/>
<path class="st0" d="M183.4,192.7h10.4v3.1h-3.5v18.3h-3.4v-18.3h-3.5V192.7z"/>
<path class="st0" d="M209.4,214.1H206l-0.6-3.9h-4.1l-0.6,3.9h-3.1l3.4-21.4h4.9L209.4,214.1z M201.7,207.3h3.2l-1.6-10.8
	L201.7,207.3z"/>
<path class="st0" d="M221.2,214.1c-0.3-0.8-0.4-1.7-0.3-2.6v-3.4c0-2-0.7-2.7-2.2-2.7h-1.2v8.7h-3.4v-21.4h5.1c3.5,0,5,1.6,5,4.9
	v1.7c0,2.2-0.7,3.6-2.2,4.3c1.7,0.7,2.2,2.3,2.2,4.6v3.3c-0.1,0.9,0.1,1.8,0.4,2.6H221.2z M217.5,195.8v6.6h1.3c1.3,0,2-0.6,2-2.3
	V198c0-1.5-0.5-2.2-1.7-2.2H217.5z"/>
</svg>
