<svg id="Content" xmlns="http://www.w3.org/2000/svg" xmlns:xlink="http://www.w3.org/1999/xlink" width="320" height="568" viewBox="0 0 320 568"><defs><style>.cls-1{fill:#fff;}.cls-2{fill:url(#New_Gradient_Swatch_1);}.cls-3{fill:#ba9544;}</style><linearGradient id="New_Gradient_Swatch_1" x1="139.16468" y1="230.10437" x2="186.5024" y2="230.10437" gradientUnits="userSpaceOnUse"><stop offset="0" stop-color="#a88a34"/><stop offset="0.49324" stop-color="#caaf67"/><stop offset="1" stop-color="#957f2e"/></linearGradient></defs><title>minty</title><path class="cls-1" d="M153.40577,224.10421a2.01979,2.01979,0,0,1,.38051-.15616,3.6566,3.6566,0,0,1,.4245-.10779l.0242-.00879,4.15267-.91279a1.34393,1.34393,0,0,1,.8864.13636l.69944.68405-1.45388,1.52206-4.63436,1.01837c-.18476-.83581-.37611-1.70682-.47948-2.17531M167.81693,235.689l-2.2809-10.37506a1.55513,1.55513,0,0,0-1.72881-1.20312l1.22292-1.28451.33653.31892.50809-.53887a.33.33,0,0,0-.01321-.46631l-2.459-2.32267a.33.33,0,0,0-.46629.0132l-.50809.53887.40471.38272-1.632,1.71122-.80943-.78963-.05717-.044a3.0926,3.0926,0,0,0-2.32489-.43771l-4.10866.904a6.0109,6.0109,0,0,0-.72585.187,2.4729,2.4729,0,0,0-1.32849.8864,1.43479,1.43479,0,0,0-.21555,1.11955c.12757.57187.57186,2.59761.8402,3.81393.0044.0264.0088.05279.01541.07918l2.28087,10.37726a1.54573,1.54573,0,0,0,1.8476,1.17454l10.00993-2.2017a1.55382,1.55382,0,0,0,1.19215-1.84319"/><polygon class="cls-2" points="180.119 246.04 160.383 253.615 142.158 242.908 139.165 221.982 153.659 206.594 174.726 208.331 186.502 225.888 180.119 246.04"/><path class="cls-1" d="M172.8468,237.56047a8.386,8.386,0,0,0-3.35864-6.946,3.2347,3.2347,0,0,1,1.59244-.19356,5.47973,5.47973,0,0,0-3.20248-2.88355,2.45,2.45,0,0,1,1.25591-.154,11.53352,11.53352,0,0,0-6.6579-4.37262,3.97433,3.97433,0,0,1,1.21413-.14956s-4.96649-2.74719-9.69762.34092c0,0,4.00751,2.11372,5.59334,4.30223,0,0-5.49435-3.51041-6.295-3.45542,0,0-2.47225,5.87488,3.81394,11.01512a2.76479,2.76479,0,0,1-.14957-1.21413s2.49644,3.01112,4.9335,3.81834a2.84837,2.84837,0,0,1,.01539-1.18333,7.34072,7.34072,0,0,0,3.484,1.98835,2.65748,2.65748,0,0,1-.11-1.60124s4.03609,2.39526,7.5685.68844"/><path class="cls-3" d="M143.15625,275.99609v-8.69921h.58008l3.76953,4.292,3.77539-4.292h.58008v8.69921h-1.74024l-.00586-5.04589-2.60937,2.90039-2.61035-2.90039v5.04589Z"/><path class="cls-3" d="M153.59473,267.291h1.73437v8.70507h-1.73437Z"/><path class="cls-3" d="M157.07422,275.99609v-8.69921h.58008l5.45215,5.45117v-5.45117h1.73828v8.69921H164.208l-5.39356-5.39355v5.39355Z"/><path class="cls-3" d="M173.74707,267.29688v1.624h-2.89941v7.07519h-1.74024V268.9209H166.208v-1.624Z"/><path class="cls-3" d="M174.53027,267.29688h2.041l2.01855,2.84179,2.06446-2.84179h1.99511l-3.18945,4.3496v4.34961h-1.74023v-4.34961Z"/></svg>