<?xml version="1.0" encoding="utf-8"?>
<!-- Generator: Adobe Illustrator 23.0.1, SVG Export Plug-In . SVG Version: 6.00 Build 0)  -->
<svg version="1.1" id="Content" xmlns="http://www.w3.org/2000/svg" xmlns:xlink="http://www.w3.org/1999/xlink" x="0px" y="0px"
	 viewBox="0 0 640 1136" style="enable-background:new 0 0 640 1136;" xml:space="preserve">
<style type="text/css">
	.st0{fill:url(#SVGID_1_);}
	.st1{fill:#FFFFFF;}
	.st2{fill:#B89344;}
</style>
<title>diesel</title>
<linearGradient id="SVGID_1_" gradientUnits="userSpaceOnUse" x1="278" y1="361.3" x2="368.72" y2="361.3" gradientTransform="matrix(1 0 0 -1 0 1136)">
	<stop  offset="0" style="stop-color:#A68834"/>
	<stop  offset="0.49" style="stop-color:#C8AD67"/>
	<stop  offset="1" style="stop-color:#937F2E"/>
</linearGradient>
<polygon class="st0" points="356.5,744.2 318.7,729.6 283.7,750.2 278,790.3 305.8,819.8 346.1,816.4 368.7,782.8 "/>
<path class="st1" d="M311.2,763.9c0.2-0.1,0.5-0.2,0.7-0.3c0.3-0.1,0.5-0.2,0.8-0.2l0,0l8-1.8c0.6-0.1,1.2,0,1.7,0.3l1.3,1.3
	l-2.8,2.9l-8.9,2C311.8,766.5,311.4,764.8,311.2,763.9 M338.9,786.1l-4.4-19.9c-0.3-1.5-1.8-2.5-3.3-2.3l2.4-2.5l0.6,0.6l1-1
	c0.2-0.2,0.2-0.6,0-0.9l-4.7-4.5c-0.2-0.2-0.7-0.2-0.9,0l-1,1l0.8,0.7l-3.1,3.3l-1.6-1.5l-0.1-0.1c-1.3-0.9-2.9-1.2-4.5-0.8
	l-7.9,1.7c-0.5,0.1-0.9,0.2-1.4,0.3c-1,0.3-1.9,0.9-2.5,1.7c-0.4,0.6-0.6,1.4-0.4,2.2c0.2,1.1,1.1,5,1.6,7.3v0.2l4.4,19.9
	c0.4,1.6,1.9,2.6,3.5,2.2l19.2-4.2C338.1,789.2,339.2,787.7,338.9,786.1"/>
<path class="st2" d="M282.1,867.5v-16.7h6.4c5.2,0,7.8,2.8,7.8,8.3s-2.6,8.3-7.8,8.3H282.1z M288.6,864.2c3,0,4.4-1.7,4.5-5
	c0-3.3-1.5-5-4.5-5h-3.1v10H288.6z"/>
<path class="st2" d="M299.9,850.8h3.3v16.7h-3.3V850.8z"/>
<path class="st2" d="M306.5,867.5v-16.7h12.2v3.1h-8.9v3.6h6.7v3.1h-6.7v3.8h8.9v3.1L306.5,867.5z"/>
<path class="st2" d="M331.2,851.4c0.9,0.4,1.7,1,2.4,1.7l-2.2,2.2c-0.8-0.9-1.9-1.4-3.1-1.3c-1.3,0-2.2,0.3-2.5,1
	c-0.4,0.5-0.4,1.1,0,1.6c0.7,0.6,1.6,0.9,2.5,1c1.4,0.1,2.7,0.6,3.8,1.4c1.2,0.9,1.8,2.3,1.7,3.7c0,1.4-0.7,2.7-1.8,3.5
	c-1.2,1-2.7,1.5-4.3,1.4c-1.3,0-2.6-0.2-3.9-0.7c-1-0.4-1.9-1-2.7-1.8l2.2-2.2c1,1,2.4,1.6,3.8,1.6c1.5,0,2.4-0.3,2.8-1
	c0.4-0.6,0.4-1.3,0-1.9c-0.4-0.6-1.3-1-2.8-1.2c-1.3-0.1-2.5-0.6-3.7-1.2c-1.2-0.7-1.8-2.1-1.7-3.5c0-1.4,0.7-2.8,1.9-3.5
	c1.1-0.8,2.5-1.3,3.9-1.3C328.8,850.8,330,851,331.2,851.4z"/>
<path class="st2" d="M336.7,867.5v-16.7H349v3.1h-8.9v3.6h6.7v3.1h-6.7v3.8h8.9v3.1L336.7,867.5z"/>
<path class="st2" d="M355.7,850.8v13.6h8.9v3.1h-12.2v-16.7H355.7z"/>
</svg>
