<svg id="Content" xmlns="http://www.w3.org/2000/svg" xmlns:xlink="http://www.w3.org/1999/xlink" width="728" height="360" viewBox="0 0 728 360"><defs><style>.cls-1{fill:url(#New_Gradient_Swatch_1);}.cls-2{fill:#fff;}.cls-3{fill:#ba9544;}</style><linearGradient id="New_Gradient_Swatch_1" x1="284.45731" y1="174.06552" x2="342.38332" y2="174.06552" gradientUnits="userSpaceOnUse"><stop offset="0" stop-color="#a88a34"/><stop offset="0.49324" stop-color="#caaf67"/><stop offset="1" stop-color="#957f2e"/></linearGradient></defs><title>citrus</title><polygon class="cls-1" points="327.901 148.983 298.939 148.983 284.457 174.064 298.939 199.148 327.901 199.148 342.383 174.064 327.901 148.983"/><path class="cls-2" d="M325.2674,177.6173A12.73353,12.73353,0,0,1,305.965,161.06818l-1.1788-1.012a14.28514,14.28514,0,0,0,21.66,18.573Z"/><path class="cls-2" d="M304.5488,170.07827a11.572,11.572,0,0,0,3.593,7.18055l6.84411-7.98256Z"/><path class="cls-2" d="M308.933,177.936a11.57623,11.57623,0,0,0,7.53309,2.4599l-.79125-10.32134Z"/><path class="cls-2" d="M306.81573,161.79752a11.57075,11.57075,0,0,0-2.3361,7.24244l9.89611-.76164Z"/><path class="cls-2" d="M324.4145,176.88714l-7.67844-6.583.767,10.00914a11.56646,11.56646,0,0,0,6.9114-3.4261"/><path class="cls-2" d="M314.93823,167.41573c.05113-.64861.41447-1.06039.82625-1.09269.40908-.035.7132.32028.66206.96889a2.20587,2.20587,0,0,1-.837,1.23533,1.42726,1.42726,0,0,1-.6513-1.11153"/><path class="cls-2" d="M317.62045,168.03473c.62976-.18568,1.04423.0323,1.09537.43869.05113.40371-.27991.84241-.907,1.02811a1.45234,1.45234,0,0,1-1.23535-.39833s.41718-.88277,1.047-1.06847"/><path class="cls-2" d="M318.78445,188.09528a1.34382,1.34382,0,1,1-2.686.09421c-.02423-.74013,1.26763-2.20692,1.26763-2.20692s1.39412,1.37259,1.41835,2.11271"/><path class="cls-2" d="M318.3062,187.22a.37711.37711,0,0,1-.323.41986l-1.11691.04037a.37869.37869,0,0,1-.34987-.39563,4.04241,4.04241,0,0,0,.12111-2.14232c-.42794-1.273-3.40994-2.27419-3.22424-2.27958l6.14166-.43062a4.44132,4.44132,0,0,0-1.65248,2.70213,2.80139,2.80139,0,0,0,.4037,2.08579"/><path class="cls-3" d="M287.106,231.78046a5.32417,5.32417,0,0,1,3.78613-9.11524,5.76153,5.76153,0,0,1,3.90967,1.41895l-1.41895,1.55469a3.92168,3.92168,0,0,0-2.49072-.85157,3.12716,3.12716,0,0,0-2.31006.89356,3.09582,3.09582,0,0,0-.87646,2.27148,3.19134,3.19134,0,0,0,.8872,2.35547,3.14079,3.14079,0,0,0,2.31348.87305,3.81257,3.81257,0,0,0,2.47656-.84473l1.41895,1.55469a5.74016,5.74016,0,0,1-3.90967,1.41894A5.18063,5.18063,0,0,1,287.106,231.78046Z"/><path class="cls-3" d="M297.09424,222.65839h2.12158v10.65136h-2.12158Z"/><path class="cls-3" d="M310.0376,222.66522v1.98731h-3.54785v8.65722h-2.12891v-8.65722H300.8125v-1.98731Z"/><path class="cls-3" d="M318.02832,228.66913l2.6543,4.64062h-2.44141l-2.54736-4.39941h-1.94434v4.39941h-2.1289V222.66522h4.64062q3.72583,0,3.72559,3.06543A2.75352,2.75352,0,0,1,318.02832,228.66913Zm-4.27881-1.74609H316.73q1.28394-.022,1.31982-1.1709-.03588-1.0503-1.29882-1.09278h-3.00147Z"/><path class="cls-3" d="M323.75488,222.66522v6.17383a2.13637,2.13637,0,0,0,.71,1.77442,3.05681,3.05681,0,0,0,3.54786,0,2.13637,2.13637,0,0,0,.71-1.77442v-6.17383h2.1289v6.74121a3.5268,3.5268,0,0,1-1.313,2.76758,5.36153,5.36153,0,0,1-6.59961,0,3.5253,3.5253,0,0,1-1.313-2.76758v-6.74121Z"/><path class="cls-3" d="M338.91309,223.01972a4.97782,4.97782,0,0,1,1.52539,1.06445l-1.419,1.41992a2.44261,2.44261,0,0,0-1.9873-.85156q-1.27736,0-1.63184.60254a.83006.83006,0,0,0,0,1.02929,2.79848,2.79848,0,0,0,1.63184.63868,5.2917,5.2917,0,0,1,2.44824.88671,2.6653,2.6653,0,0,1,1.1001,2.37793,2.72778,2.72778,0,0,1-1.17432,2.19922,4.3005,4.3005,0,0,1-2.73584.92285,6.29719,6.29719,0,0,1-2.47656-.42578,5.36408,5.36408,0,0,1-1.70313-1.13574l1.41944-1.41894a3.374,3.374,0,0,0,2.41259.99316q1.41944,0,1.77051-.60254a1.1239,1.1239,0,0,0,0-1.207q-.35156-.60205-1.77051-.74512a5.724,5.724,0,0,1-2.34179-.78027,2.35583,2.35583,0,0,1-1.06446-2.2002,2.64715,2.64715,0,0,1,1.21-2.2666,4.26073,4.26073,0,0,1,2.48731-.85547A5.94575,5.94575,0,0,1,338.91309,223.01972Z"/></svg>