<svg id="Content" xmlns="http://www.w3.org/2000/svg" viewBox="0 0 728 90"><defs><style>.cls-1{fill:#ba9544;}</style></defs><title>Frame1 - Ultra Sour</title><path class="cls-1" d="M210.21,35.73V53c0,1.61.7,2.18,1.82,2.18s1.83-.57,1.83-2.18V35.73h3.32V52.78c0,3.59-1.79,5.63-5.24,5.63s-5.25-2-5.25-5.63V35.73Z"/><path class="cls-1" d="M223,35.73h3.52V54.92h5.79v3.2H223Z"/><path class="cls-1" d="M236.19,35.73h10.88v3.2h-3.68V58.12h-3.52V38.93h-3.68Z"/><path class="cls-1" d="M259.36,58.12a6.87,6.87,0,0,1-.32-2.75V51.85c0-2.08-.7-2.84-2.3-2.84h-1.22v9.11H252V35.73h5.31c3.65,0,5.22,1.69,5.22,5.15v1.76c0,2.3-.74,3.81-2.31,4.54,1.76.74,2.34,2.43,2.34,4.77v3.46a6.6,6.6,0,0,0,.38,2.71Zm-3.84-19.19v6.88h1.38c1.31,0,2.11-.58,2.11-2.37V41.23c0-1.6-.55-2.3-1.79-2.3Z"/><path class="cls-1" d="M279.65,58.12h-3.56l-.6-4.06h-4.32l-.61,4.06h-3.23l3.58-22.39h5.15Zm-8-7.1H275l-1.7-11.33Z"/><path class="cls-1" d="M297.76,35.47c3.42,0,5.18,2.05,5.18,5.63v.71h-3.32v-.93c0-1.6-.64-2.21-1.77-2.21s-1.76.61-1.76,2.21c0,4.61,6.88,5.47,6.88,11.87,0,3.58-1.79,5.63-5.24,5.63s-5.25-2.05-5.25-5.63V51.37h3.33V53c0,1.6.7,2.18,1.82,2.18s1.83-.58,1.83-2.18c0-4.6-6.88-5.47-6.88-11.87C292.58,37.52,294.34,35.47,297.76,35.47Z"/><path class="cls-1" d="M308.09,41.1c0-3.58,1.89-5.63,5.35-5.63s5.34,2.05,5.34,5.63V52.75c0,3.58-1.88,5.63-5.34,5.63s-5.35-2.05-5.35-5.63ZM311.62,53c0,1.6.7,2.21,1.82,2.21s1.82-.61,1.82-2.21V40.88c0-1.6-.7-2.21-1.82-2.21s-1.82.61-1.82,2.21Z"/><path class="cls-1" d="M327.81,35.73V53c0,1.61.7,2.18,1.82,2.18s1.83-.57,1.83-2.18V35.73h3.32V52.78c0,3.59-1.79,5.63-5.24,5.63s-5.25-2-5.25-5.63V35.73Z"/><path class="cls-1" d="M347.93,58.12a6.87,6.87,0,0,1-.32-2.75V51.85c0-2.08-.7-2.84-2.3-2.84h-1.22v9.11h-3.51V35.73h5.31c3.64,0,5.21,1.69,5.21,5.15v1.76c0,2.3-.73,3.81-2.3,4.54,1.76.74,2.33,2.43,2.33,4.77v3.46a6.59,6.59,0,0,0,.39,2.71Zm-3.84-19.19v6.88h1.38c1.31,0,2.11-.58,2.11-2.37V41.23c0-1.6-.54-2.3-1.79-2.3Z"/></svg>