<svg id="Layer_1" data-name="Layer 1" xmlns="http://www.w3.org/2000/svg" width="300" height="250" viewBox="0 0 300 250"><defs><style>.cls-1{fill:#fff;}</style></defs><title>rest</title><path class="cls-1" d="M153.71145,159.053h-2.417V143.02173h3.46289l2.25,11.4961,2.16211-11.4961h3.33105V159.053h-2.417V148.98072L157.99465,159.053H156.0552l-2.34375-10.04589Z"/><path class="cls-1" d="M168.44192,142.82838a3.83435,3.83435,0,0,1,3.84082,3.84082v8.74511a3.83267,3.83267,0,0,1-3.84082,3.84082,3.65626,3.65626,0,0,1-2.70215-1.125,3.72324,3.72324,0,0,1-1.1123-2.71582V146.6692a3.83441,3.83441,0,0,1,3.81445-3.84082Zm1.31836,3.79589a1.364,1.364,0,0,0-1.37989-1.3789,1.35374,1.35374,0,0,0-.98046.39941,1.32026,1.32026,0,0,0-.40821.97949v8.77344a1.32182,1.32182,0,0,0,.40821.97461,1.34665,1.34665,0,0,0,.98046.4043,1.37209,1.37209,0,0,0,1.37989-1.37891Z"/><path class="cls-1" d="M178.22414,143.02173a3.66159,3.66159,0,0,1,2.96192,1.11622,4.033,4.033,0,0,1,.835,2.707v2.3291a3.72668,3.72668,0,0,1-1.29,2.874l1.791,7.00488h-2.60645l-1.47461-6.05566c-.07031.00586-.14355.00879-.21875.00879h-1.38672V159.053h-2.417V143.02173Zm1.44141,3.86719a1.22592,1.22592,0,0,0-1.376-1.39746h-1.4541v5.124h1.4541a1.31591,1.31591,0,0,0,.97754-.4082,1.35677,1.35677,0,0,0,.39844-.98047Z"/><path class="cls-1" d="M184.59622,159.053V143.02173h6.88183v2.417h-4.46484v4.39453H190.274v2.417h-3.26074V156.636h4.46484v2.417Z"/><path class="cls-1" d="M201.92825,143.02173a3.66158,3.66158,0,0,1,2.96191,1.11622,4.033,4.033,0,0,1,.835,2.707v2.3291a3.72668,3.72668,0,0,1-1.29,2.874l1.791,7.00488h-2.60645l-1.47461-6.05566c-.07031.00586-.14355.00879-.21875.00879h-1.38672V159.053h-2.417V143.02173Zm1.4414,3.86719a1.22591,1.22591,0,0,0-1.376-1.39746h-1.45411v5.124h1.45411a1.31594,1.31594,0,0,0,.97754-.4082,1.3568,1.3568,0,0,0,.39843-.98047Z"/><path class="cls-1" d="M208.30032,159.053V143.02173h6.88183v2.417h-4.46484v4.39453h3.26074v2.417h-3.26074V156.636h4.46484v2.417Z"/><path class="cls-1" d="M224.83254,155.07154a4.493,4.493,0,0,1-.87011,2.86523,3.09163,3.09163,0,0,1-1.66114,1.13379,4.44082,4.44082,0,0,1-1.34472.18457,3.80044,3.80044,0,0,1-2.35547-.70312,4.01928,4.01928,0,0,1-1.23047-1.56934,6.19225,6.19225,0,0,1-.52734-2.28027l2.29394-.1582a3.4806,3.4806,0,0,0,.74707,2.02148,1.22429,1.22429,0,0,0,.99317.44824,1.50628,1.50628,0,0,0,1.26562-.77344,1.94286,1.94286,0,0,0,.24609-1.06347,2.96066,2.96066,0,0,0-.90527-1.99512q-.7207-.67676-2.15332-2.03027a8.89882,8.89882,0,0,1-1.69629-2.083,4.82725,4.82725,0,0,1-.53613-2.25,3.917,3.917,0,0,1,1.46777-3.31348,3.65226,3.65226,0,0,1,2.25-.67675,4.07728,4.07728,0,0,1,2.21485.58007,3.33727,3.33727,0,0,1,1.15136,1.252,4.73,4.73,0,0,1,.53614,1.85058l-2.32032.42188a2.7078,2.7078,0,0,0-.5625-1.5293,1.17194,1.17194,0,0,0-.958-.4043,1.11373,1.11373,0,0,0-1.01075.58887,2.2761,2.2761,0,0,0-.28125,1.17774,3.54062,3.54062,0,0,0,.94922,2.24121,8.46581,8.46581,0,0,0,1.07227,1.01953q.84375.70313,1.11621.98437a8.5112,8.5112,0,0,1,1.37988,1.7666,6.3286,6.3286,0,0,1,.36914.75586A4.48989,4.48989,0,0,1,224.83254,155.07154Z"/><path class="cls-1" d="M229.06008,145.43873h-2.5664v-2.417h7.541v2.417h-2.55762V159.053h-2.417Z"/><path class="cls-1" d="M235.69582,156.64478h2.417v2.417h-2.417Z"/></svg>