<svg id="Content" xmlns="http://www.w3.org/2000/svg" xmlns:xlink="http://www.w3.org/1999/xlink" width="320" height="480" viewBox="0 0 320 480"><defs><style>.cls-1{fill:url(#New_Gradient_Swatch_1);}.cls-2{fill:url(#linear-gradient);}.cls-3{fill:url(#linear-gradient-2);}.cls-4{fill:url(#linear-gradient-3);}.cls-5{fill:url(#linear-gradient-4);}.cls-6{fill:url(#linear-gradient-5);}.cls-7{fill:url(#linear-gradient-6);}.cls-8{fill:url(#linear-gradient-7);}.cls-9{fill:url(#New_Gradient_Swatch_2);}.cls-10{fill:#a89255;}.cls-11{stroke:#fff;stroke-miterlimit:10;fill:url(#New_Gradient_Swatch_2-2);}.cls-12{fill:#fff;}</style><linearGradient id="New_Gradient_Swatch_1" x1="212.15377" y1="54.25213" x2="287.04569" y2="54.25213" gradientUnits="userSpaceOnUse"><stop offset="0" stop-color="#a88a34"/><stop offset="0.49324" stop-color="#caaf67"/><stop offset="1" stop-color="#957f2e"/></linearGradient><linearGradient id="linear-gradient" x1="288.18188" y1="215.95323" x2="288.18188" y2="90.33871" gradientUnits="userSpaceOnUse"><stop offset="0" stop-color="#a88a34"/><stop offset="0.49894" stop-color="#caaf67"/><stop offset="1" stop-color="#957f2e"/></linearGradient><linearGradient id="linear-gradient-2" x1="253.38604" y1="150.55911" x2="253.38604" y2="57.809" xlink:href="#linear-gradient"/><linearGradient id="linear-gradient-3" x1="265.17163" y1="182.37045" x2="265.17163" y2="60.31159" xlink:href="#linear-gradient"/><linearGradient id="linear-gradient-4" x1="276.64433" y1="185.1512" x2="276.64433" y2="78.31019" xlink:href="#linear-gradient"/><linearGradient id="linear-gradient-5" x1="211.98457" y1="110.24925" x2="211.98457" y2="7.01931" xlink:href="#linear-gradient"/><linearGradient id="linear-gradient-6" x1="239.41097" y1="136.32811" x2="239.41097" y2="44.11843" xlink:href="#linear-gradient"/><linearGradient id="linear-gradient-7" x1="225.40309" y1="122.55743" x2="225.40309" y2="29.80764" xlink:href="#linear-gradient"/><linearGradient id="New_Gradient_Swatch_2" x1="293.14699" y1="90.08347" x2="298.30627" y2="90.08347" gradientUnits="userSpaceOnUse"><stop offset="0" stop-color="#a88a34"/><stop offset="0.1878" stop-color="#caaf67"/><stop offset="0.46098" stop-color="#a08a4a"/><stop offset="0.76341" stop-color="#caaf67"/><stop offset="1" stop-color="#957f2e"/></linearGradient><linearGradient id="New_Gradient_Swatch_2-2" x1="84.41772" y1="429.09819" x2="235.58228" y2="429.09819" xlink:href="#New_Gradient_Swatch_2"/></defs><title>CTA</title><path class="cls-1" d="M245.047,79.3517c.81389-.24,2.29022,1.14,2.38616,1.14a1.76109,1.76109,0,0,0,.49217-1.13655c0-.48725-.34777-1.435-.413-2.00854a9.5528,9.5528,0,0,0-.34689-1.66164c-.127-.37763-1.00951-.54222-1.48308-.83444a7.73536,7.73536,0,0,1-1.19494-.82727,3.7798,3.7798,0,0,1-.508-1.73366,6.81584,6.81584,0,0,0-.285-1.76476c-.16489-.309-.58877-.52729-.87542-.81395a1.23246,1.23246,0,0,1-.2953-.75863c.21984-.06864.28849.4978.54251.54595s.2369.2574.635.39468c.39841.13723.4121.32634.46362.69715s.4978,1.62375.64533,2.13522c.14783.51178.30211.89651.80707.91356.50461.01712.436.27795,1.02971.23016a3.32456,3.32456,0,0,1,1.425.27445c.31923.11336.72107.12361.8583-.09932.13729-.22328-.09624-1.12293-.09624-1.12293-.20587,0-.2404-.27789-.31923-.53534-.07889-.25775.04809-.27825.04809-.27825a1.08808,1.08808,0,1,1,2.0738,0s.127.0205.04809.27825c-.07918.25745-.11335.53534-.31952.53534,0,0-.23323.89965-.09595,1.12293.13723.22293.53908.21268.85831.09932a3.32407,3.32407,0,0,1,1.42474-.27445c.594.04779.5254-.213,1.03-.23016.505-.01705.65931-.40178.80678-.91356.14783-.51147.594-1.76446.64562-2.13522s.06521-.55992.46362-.69715c.39812-.13728.381-.34653.635-.39468s.323-.61459.54251-.54595a1.23453,1.23453,0,0,1-.2953.75863c-.28666.28666-.71054.505-.87542.81395a6.81533,6.81533,0,0,0-.28506,1.76476,3.77981,3.77981,0,0,1-.508,1.73366,7.73849,7.73849,0,0,1-1.195.82727c-.47386.29222-1.3561.45681-1.48308.83444a9.514,9.514,0,0,0-.34688,1.66164c-.06521.57355-.413,1.52129-.413,2.00854a1.76114,1.76114,0,0,0,.49217,1.13655c.09595,0,1.57257-1.38,2.38616-1.14.81359.2407.49093,1.38033-.3537,2.22465a3.61728,3.61728,0,0,1-1.74989,1.09124,9.47637,9.47637,0,0,1,1.3285.2484,14.22116,14.22116,0,0,1,3.79467,2.16536,13.78766,13.78766,0,0,0,3.38359,1.97561,2.887,2.887,0,0,0,.32734.07178c.11614-.09725.72475-.44846.72475-.44846a13.6164,13.6164,0,0,0,1.5291.65433l-3.89631-3.00442,7.72332,3.36215c.127.055.25462.1056.38166.1509l4.6682.08322c1.22538.02238,2.43555-.03133,3.559-.11828-.90545-.55868-1.88617-1.11641-2.93732-1.63031l-4.0959-2.003c-.13633-.01735-.27575-.03044-.41736-.03879l-8.92816-.5363,5.80138-1.00832-3.76086-1.22409,6.43639-.04222A21.849,21.849,0,0,0,272.065,80.842l-6.08341-1.15858,8.91542-.39593a8.74873,8.74873,0,0,0,1.49244-.19035l-.677.082,5.884-2.76065a52.57705,52.57705,0,0,0,5.44921-2.99541,57.49756,57.49756,0,0,0-6.37367-.386l-6.68764.01522.745-.24377a8.37668,8.37668,0,0,0-1.57814.48689L265.34934,76.547l4.72138-3.51773-.036.00592-.1078-.81116-.858-1.41509a28.26976,28.26976,0,0,0,6.42869-6.63669l-6.30787,3.01993,6.42709-5.353a10.58568,10.58568,0,0,0,2.04082-2.21257c.82881-1.25269,1.59833-2.53612,2.30016-3.83542l-1.99213,1.96726,2.388-5.19461a68.60284,68.60284,0,0,0,3.53325-9.76875,83.15627,83.15627,0,0,0-9.46812,6.10011l-4.67543,3.5432,1.4912-2.32373c-1.20952,1.02852-2.379,2.11413-3.495,3.24476a10.244,10.244,0,0,0-1.72094,2.41163l-3.415,6.54045,1.213-5.96969a28.22283,28.22283,0,0,0-2.70539,3.23576l-.59528.83034-.54559-.37448a1.55951,1.55951,0,0,0-.08446.1419l-4.69059,8.89493,2.76622-9.66783a30.68926,30.68926,0,0,0,.91759-12.13258l-3.23013,6.00328,1.56445-7.2218a11.75693,11.75693,0,0,0,.24437-3.60373,58.18035,58.18035,0,0,0-1.2412-7.29037l-.42572,3.54468-1.40235-5.16783a87.931,87.931,0,0,0-4.78873-12.96139A87.84323,87.84323,0,0,0,244.811,33.53411l-1.40206,5.16783-.426-3.54468a58.23334,58.23334,0,0,0-1.24121,7.29037,11.76351,11.76351,0,0,0,.24437,3.604l1.56262,7.224-3.22829-6.00481a30.68444,30.68444,0,0,0,.91759,12.13163l2.76657,9.66842-4.69095-8.89552a1.49353,1.49353,0,0,0-.08445-.1419l-.54559.37448-.59529-.83034a28.2248,28.2248,0,0,0-2.70538-3.23576l1.21324,5.96969-3.41527-6.54045a10.25013,10.25013,0,0,0-1.72064-2.41163c-1.11386-1.1285-2.2818-2.21257-3.49007-3.23979l1.49457,2.32557-4.68407-3.55a83.1182,83.1182,0,0,0-9.46812-6.10011,68.59183,68.59183,0,0,0,3.53319,9.76875l2.388,5.19461-1.99212-1.96726c.70183,1.2993,1.47165,2.58273,2.30046,3.83542a10.57581,10.57581,0,0,0,2.04051,2.21257l6.4271,5.353-6.30788-3.01993a28.26289,28.26289,0,0,0,6.4287,6.63669l-.858,1.41509-.10779.81116-.03631-.00592,4.722,3.518-7.80215-3.25193a8.42739,8.42739,0,0,0-1.57748-.48689l.74465.24377-6.688-.01522a57.50228,57.50228,0,0,0-6.37368.386,52.57725,52.57725,0,0,0,5.44922,2.99541l5.884,2.76035-.67666-.082a8.71093,8.71093,0,0,0,1.49215.19065l8.91536.39593L227.13454,80.842a21.85069,21.85069,0,0,0,4.394.48323l6.45345.04222-3.77388,1.22474,5.79793,1.00767-8.92839.5363q-.21294.01252-.41772.03879l-4.09655,2.003c-1.05049.5139-2.03116,1.07163-2.93666,1.63031,1.12381.087,2.33362.14031,3.559.11828l4.66826-.08322c.127-.0453.25461-.09594.382-.1509l7.723-3.36215-3.89631,3.00442a13.61561,13.61561,0,0,0,1.5291-.65433s.608.35062.72416.4481a2.84737,2.84737,0,0,0,.32758-.07142,13.78234,13.78234,0,0,0,3.38394-1.97561,14.223,14.223,0,0,1,3.79468-2.16536,9.47469,9.47469,0,0,1,1.3285-.2484,3.61726,3.61726,0,0,1-1.7499-1.09124C244.55607,80.732,244.23311,79.5924,245.047,79.3517Z"/><polygon class="cls-2" points="292.659 95.134 292.659 92.859 283.705 92.867 283.705 105.047 292.643 105.047 292.643 102.772 286.143 102.772 286.143 100.001 291.026 100.001 291.026 97.734 286.143 97.734 286.143 95.134 292.659 95.134"/><path class="cls-3" d="M252.17136,92.85946l-4.875,12.18745h2.59973l.73131-1.86873h5.525l.73131,1.86873,2.592-.00832L254.609,92.85946Zm-.56859,7.88132,1.85266-4.63159,1.80354,4.63159Z"/><path class="cls-4" d="M268.54358,98.75007a6.04371,6.04371,0,0,0-2.80316-1.01545,3.2126,3.2126,0,0,1-1.86881-.73159.95094.95094,0,0,1,0-1.17821q.40661-.69024,1.86881-.69028a2.79885,2.79885,0,0,1,2.27528.97477l1.62467-1.62507a5.6858,5.6858,0,0,0-1.74672-1.2188,6.80188,6.80188,0,0,0-2.63272-.40618,4.87841,4.87841,0,0,0-2.84761.97907,3.03255,3.03255,0,0,0-1.3853,2.59607,2.6968,2.6968,0,0,0,1.2186,2.51874,6.54935,6.54935,0,0,0,2.68143.89372q1.62468.16258,2.02715.853a1.28761,1.28761,0,0,1,0,1.38157q-.402.6903-2.02715.69028a3.85991,3.85991,0,0,1-2.76253-1.13742l-1.62535,1.62527a6.15,6.15,0,0,0,1.95015,1.29994,7.21734,7.21734,0,0,0,2.8358.48721,4.9217,4.9217,0,0,0,3.13206-1.05612,3.12395,3.12395,0,0,0,1.34491-2.5187A3.05057,3.05057,0,0,0,268.54358,98.75007Z"/><polygon class="cls-5" points="271.363 95.134 275.425 95.134 275.425 105.047 277.863 105.047 277.863 95.134 281.926 95.134 281.926 92.859 271.363 92.859 271.363 95.134"/><polygon class="cls-6" points="214.991 100.497 207.353 92.859 206.541 92.859 206.541 105.047 208.978 105.047 208.978 97.491 216.535 105.047 217.428 105.047 217.428 92.859 214.991 92.859 214.991 100.497"/><polygon class="cls-7" points="239.407 98.872 234.126 92.859 233.313 92.859 233.313 105.047 235.751 105.047 235.751 97.978 239.407 102.041 243.063 97.978 243.071 105.047 245.509 105.047 245.509 92.859 244.696 92.859 239.407 98.872"/><path class="cls-8" d="M224.18847,92.85946l-4.87509,12.18745h2.59981l.73131-1.86873h5.525l.73163,1.86873,2.59165-.00832-4.867-12.17913Zm-.56859,7.88132,1.85229-4.63159,1.80363,4.63159Z"/><path class="cls-9" d="M294.40944,89.17476V91.387H293.97V89.17476h-.823v-.39484h2.08912v.39484Zm3.49077,2.21225-.00364-1.94781-.823,1.67579h-.28688l-.823-1.67579V91.387h-.41334V88.77992h.5213l.86033,1.73189.8567-1.73189h.51766V91.387Z"/><path class="cls-10" d="M227.0494,113.78667a1.71969,1.71969,0,0,1-.98511,3.19757l-3.40752-.004v-6.052h3.21373q1.53044.0891,1.61494,1.78047A1.26748,1.26748,0,0,1,227.0494,113.78667Zm-3.17739-.432h1.69569a.68342.68342,0,0,0,.75094-.755q-.01989-.44382-.73883-.46833H223.872Zm0,2.6808h1.9783a.79035.79035,0,0,0,.87207-.87611q-.0199-.58137-.86-.6056H223.872Z"/><path class="cls-10" d="M228.74509,110.92419h1.42114l1.405,1.9783,1.43729-1.9783h1.38885l-2.22054,3.028v3.028h-1.2112v-3.028Z"/><path class="cls-10" d="M242.86772,116.98021h-4.84885l.004-.40374,2.82211-4.52182H238.0229l-.004-1.13046h4.84885v.44411l-2.83422,4.48145h2.83422Z"/><path class="cls-10" d="M244.38922,116.98021v-6.052l4.44915-.004v1.13046h-3.23795v1.292h2.42645V114.473h-2.42645v1.37673h3.22988v1.13046Z"/><path class="cls-10" d="M250.05765,116.98021v-6.056h.40373l3.79511,3.7951v-3.7951h1.2112v6.056h-.44411l-3.75473-3.75473v3.75473Z"/><path class="cls-10" d="M256.40435,116.98021l2.42241-6.056h1.2112l2.4178,6.052-1.28734.004-.36336-.92859h-2.74539l-.36337.92859Zm3.06031-4.44108-.92051,2.30128h1.8168Z"/><path class="cls-10" d="M267.66047,113.78667a1.71988,1.71988,0,0,1-.98511,3.19757l-3.40752-.004v-6.052h3.21372q1.52958.0891,1.61494,1.78047A1.27064,1.27064,0,0,1,267.66047,113.78667Zm-3.178-.432h1.69569a.68291.68291,0,0,0,.75094-.755c-.01269-.29588-.25954-.45218-.73825-.46833H264.4825Zm0,2.6808h1.9783a.78985.78985,0,0,0,.87207-.87611q-.019-.58137-.85938-.6056h-1.991Z"/><path class="cls-10" d="M269.71144,110.92015H270.918v6.06006h-1.20659Z"/><path class="cls-10" d="M275.41217,111.12606a2.81116,2.81116,0,0,1,.86745.6056l-.80747.80747a1.38983,1.38983,0,0,0-1.13045-.48448q-.72672,0-.92859.34317a.47453.47453,0,0,0,0,.58542,1.597,1.597,0,0,0,.92859.36336,3.00454,3.00454,0,0,1,1.39346.50466,1.51769,1.51769,0,0,1,.62521,1.35251,1.5533,1.5533,0,0,1-.66789,1.25158,2.44539,2.44539,0,0,1-1.55611.52486,3.58977,3.58977,0,0,1-1.40961-.24224,3.06883,3.06883,0,0,1-.969-.646l.80747-.80747a1.9198,1.9198,0,0,0,1.37269.56523q.808,0,1.007-.34317a.63693.63693,0,0,0,0-.68635q-.199-.34347-1.007-.42392a3.2536,3.2536,0,0,1-1.33232-.44411A1.33974,1.33974,0,0,1,272,112.70062a1.50606,1.50606,0,0,1,.68865-1.28964,2.42362,2.42362,0,0,1,1.41538-.48679A3.38776,3.38776,0,0,1,275.41217,111.12606Z"/><rect class="cls-10" x="206.54068" y="113.86542" width="10.88777" height="1.32573"/><rect class="cls-10" x="281.77096" y="113.86542" width="10.88777" height="1.32573"/><polygon class="cls-11" points="225.033 413.275 210.93 413.275 109.07 413.275 94.967 413.275 84.418 429.097 94.967 444.922 109.07 444.922 210.93 444.922 225.033 444.922 235.582 429.1 225.033 413.275"/><path class="cls-12" d="M115.75537,424.19043V432.125h5.20313v1.82129h-7.1543v-9.75586Z"/><path class="cls-12" d="M122.53857,433.94629v-9.749l7.167-.00684v1.82129h-5.21582v2.081h3.90869v1.81446h-3.90869V432.125h5.20263v1.82129Z"/><path class="cls-12" d="M131.15576,433.94629l3.90235-9.75586h1.95117l3.89551,9.749-2.07471.00684-.58545-1.49609h-4.42236l-.58545,1.49609Zm4.92969-7.1543-1.48291,3.707h2.92676Z"/><path class="cls-12" d="M148.23438,429.69336l2.43212,4.25293h-2.2373l-2.33447-4.03223H144.3125v4.03223h-1.95117v-9.75586h4.25342q3.41454,0,3.41455,2.80957A2.52411,2.52411,0,0,1,148.23438,429.69336Zm-3.92188-1.60059H147.044q1.177-.019,1.21-1.07324-.033-.9624-1.19043-1.001h-2.751Z"/><path class="cls-12" d="M151.68115,433.94629v-9.75586h.65039l6.11377,6.11426v-6.11426H160.396v9.75586h-.71534l-6.04834-6.04883v6.04883Z"/><path class="cls-12" d="M166.9707,433.94629v-9.75586h.65039l4.22852,4.81348,4.2334-4.81348h.65039v9.75586h-1.95117l-.00684-5.6582L171.84961,431.54l-2.92773-3.25195v5.6582Z"/><path class="cls-12" d="M179.582,432.54492a5.02413,5.02413,0,1,1,3.47949,1.40137A4.72455,4.72455,0,0,1,179.582,432.54492Zm3.48633-.41992a2.73735,2.73735,0,0,0,2.10644-.87793,3.32431,3.32431,0,0,0,0-4.35742,2.98357,2.98357,0,0,0-4.22753,0,3.32734,3.32734,0,0,0,0,4.35742A2.756,2.756,0,0,0,183.06836,432.125Z"/><path class="cls-12" d="M195.26172,429.69336l2.43262,4.25293H195.457l-2.334-4.03223h-1.78321v4.03223h-1.95117v-9.75586h4.25391q3.41455,0,3.41406,2.80957A2.52361,2.52361,0,0,1,195.26172,429.69336Zm-3.92188-1.60059h2.73243q1.17627-.019,1.209-1.07324-.03222-.9624-1.18945-1.001h-2.752Z"/><path class="cls-12" d="M198.68359,433.94629v-9.749l7.166-.00684v1.82129h-5.21484v2.081h3.9082v1.81446h-3.9082V432.125h5.20214v1.82129Z"/></svg>