<svg id="Content" xmlns="http://www.w3.org/2000/svg" width="300" height="600" viewBox="0 0 300 600"><defs><style>.cls-1{fill:#ba9544;}</style></defs><title>Frame1 - Sensi Star</title><path class="cls-1" d="M101.01807,255.36771c5.52832,0,8.36963,3.30664,8.36963,9.09375v1.13672h-5.373v-1.49805c0-2.584-1.0332-3.56543-2.8418-3.56543-1.8081,0-2.84131.98145-2.84131,3.56543,0,7.43946,11.10791,8.834,11.10791,19.168,0,5.78711-2.89306,9.09375-8.47314,9.09375s-8.47315-3.30664-8.47315-9.09375v-2.22168h5.373v2.583c0,2.584,1.13672,3.51367,2.94483,3.51367,1.80859,0,2.94531-.92968,2.94531-3.51367,0-7.43945-11.1084-8.835-11.1084-19.168C92.648,258.67435,95.48975,255.36771,101.01807,255.36771Z"/><path class="cls-1" d="M123.853,271.023h7.80176v5.167H123.853v10.59179h9.8164v5.166h-15.5v-36.166h15.5v5.166H123.853Z"/><path class="cls-1" d="M147.72119,265.75248v26.19531h-5.11474v-36.166h7.12988l5.83789,21.64844V255.78177h5.06348v36.166h-5.83887Z"/><path class="cls-1" d="M177.84082,255.36771c5.52832,0,8.36914,3.30664,8.36914,9.09375v1.13672h-5.37305v-1.49805c0-2.584-1.0332-3.56543-2.84179-3.56543-1.80762,0-2.8418.98145-2.8418,3.56543,0,7.43946,11.1084,8.834,11.1084,19.168,0,5.78711-2.89258,9.09375-8.47266,9.09375s-8.47363-3.30664-8.47363-9.09375v-2.22168h5.37305v2.583c0,2.584,1.13672,3.51367,2.94531,3.51367s2.94531-.92968,2.94531-3.51367c0-7.43945-11.1084-8.835-11.1084-19.168C169.4707,258.67435,172.3125,255.36771,177.84082,255.36771Z"/><path class="cls-1" d="M194.99121,255.78177h5.68359v36.166h-5.68359Z"/><path class="cls-1" d="M108.76709,305.36771c5.52832,0,8.36963,3.30664,8.36963,9.09375v1.13672h-5.373v-1.49805c0-2.584-1.0332-3.56543-2.84179-3.56543-1.80811,0-2.84131.98145-2.84131,3.56543,0,7.43946,11.10791,8.834,11.10791,19.168,0,5.78711-2.89307,9.09375-8.47315,9.09375s-8.47314-3.30664-8.47314-9.09375v-2.22168h5.373v2.583c0,2.584,1.13672,3.51367,2.94483,3.51367,1.80859,0,2.94531-.92968,2.94531-3.51367,0-7.43945-11.1084-8.835-11.1084-19.168C100.397,308.67435,103.23877,305.36771,108.76709,305.36771Z"/><path class="cls-1" d="M124.26514,305.78177H141.832v5.166h-5.94189v31H130.207v-31h-5.94189Z"/><path class="cls-1" d="M168.17969,341.94779h-5.73535l-.98145-6.56152H154.4873l-.98144,6.56152h-5.21777l5.78613-36.166h8.31836Zm-12.96875-11.46973h5.47656l-2.73828-18.29Z"/><path class="cls-1" d="M188.17285,341.94779c-.31055-.92969-.5166-1.498-.5166-4.44336v-5.68359c0-3.35742-1.13672-4.59766-3.71973-4.59766h-1.96386v14.72461h-5.6836v-36.166h8.57715c5.88965,0,8.42188,2.73829,8.42188,8.31836v2.8418c0,3.71875-1.18848,6.14746-3.72071,7.33594,2.8418,1.18848,3.77246,3.92676,3.77246,7.69824v5.58008a10.65134,10.65134,0,0,0,.61914,4.3916Zm-6.20019-31v11.1084h2.22168c2.11816,0,3.41015-.92969,3.41015-3.82324v-3.56446c0-2.584-.87793-3.7207-2.89355-3.7207Z"/></svg>