<?xml version="1.0" encoding="utf-8"?>
<!-- Generator: Adobe Illustrator 22.1.0, SVG Export Plug-In . SVG Version: 6.00 Build 0)  -->
<svg version="1.1" id="Layer_1" xmlns="http://www.w3.org/2000/svg" xmlns:xlink="http://www.w3.org/1999/xlink" x="0px" y="0px"
	 viewBox="0 0 209.7 15.5" style="enable-background:new 0 0 209.7 15.5;" xml:space="preserve">
<style type="text/css">
	.st0{fill:#D3B372;}
</style>
<title>frame2</title>
<path class="st0" d="M7.5,11.6c0,1-0.2,1.9-0.8,2.7c-0.4,0.5-0.9,0.9-1.6,1.1c-0.4,0.1-0.8,0.2-1.3,0.2c-0.8,0-1.6-0.2-2.2-0.7
	c-0.5-0.4-0.9-0.9-1.2-1.5C0.2,12.7,0,12,0,11.2l2.2-0.2c0,0.7,0.3,1.4,0.7,1.9c0.2,0.3,0.6,0.4,0.9,0.4c0.5,0,1-0.3,1.2-0.7
	c0.2-0.3,0.3-0.7,0.2-1c0-0.7-0.3-1.4-0.9-1.9c-0.5-0.4-1.1-1.1-2-1.9c-0.6-0.6-1.2-1.2-1.6-2C0.4,5.2,0.2,4.5,0.2,3.8
	C0.2,2.6,0.7,1.4,1.6,0.6C2.2,0.2,3,0,3.8,0c0.7,0,1.5,0.2,2.1,0.5c0.5,0.3,0.8,0.7,1.1,1.2c0.3,0.5,0.5,1.1,0.5,1.8L5.3,3.9
	c0-0.5-0.2-1-0.5-1.4C4.5,2.2,4.2,2,3.8,2.1C3.4,2,3,2.3,2.9,2.6C2.7,2.9,2.6,3.3,2.6,3.7c0,0.8,0.4,1.5,0.9,2.1
	c0.3,0.4,0.6,0.7,1,1C5,7.2,5.4,7.6,5.6,7.7c0.5,0.5,0.9,1.1,1.3,1.7C7,9.6,7.1,9.9,7.2,10.1C7.4,10.6,7.5,11.1,7.5,11.6z"/>
<path class="st0" d="M14.8,15.3h-2.3V0.2h2.3V15.3z"/>
<path class="st0" d="M22.4,0.2l3,10.2V0.2h2.3v15.1h-2.5l-3.1-9.7v9.7h-2.3V0.2H22.4z"/>
<path class="st0" d="M36.4,15.5c-2,0-3.6-1.6-3.6-3.6c0,0,0,0,0,0V3.6c0-1,0.4-1.9,1.1-2.6c1.4-1.4,3.7-1.4,5.1,0
	c0.7,0.7,1.1,1.6,1,2.6v1.7h-2.4V3.6c0-0.7-0.6-1.3-1.3-1.3c-0.3,0-0.7,0.1-0.9,0.4c-0.2,0.2-0.4,0.6-0.4,0.9v8.3
	c0,0.7,0.6,1.3,1.3,1.3c0,0,0,0,0,0c0.3,0,0.7-0.1,0.9-0.4c0.3-0.2,0.4-0.6,0.4-0.9V9.8h2.4v2.1C40.1,13.9,38.4,15.5,36.4,15.5
	C36.4,15.5,36.4,15.5,36.4,15.5L36.4,15.5z"/>
<path class="st0" d="M45,15.3V0.2h6.5v2.3h-4.2v4.1h3.1v2.3h-3.1V13h4.2v2.3H45z"/>
<path class="st0" d="M68.3,11.8l-0.6,3.5h-2.4l2.6-15.1h3.1l2.5,15.1h-2.4l-0.5-3.5H68.3z M69.5,3.7l-0.8,6h1.7L69.5,3.7z"/>
<path class="st0" d="M81.2,0.2l3,10.2V0.2h2.3v15.1H84l-3.1-9.7v9.7h-2.3V0.2H81.2z"/>
<path class="st0" d="M95.2,15.5c-2,0-3.6-1.6-3.6-3.6c0,0,0,0,0,0V3.6c0-1,0.4-1.9,1.1-2.6c1.4-1.4,3.7-1.4,5.1,0
	c0.7,0.7,1.1,1.6,1.1,2.6v1.7h-2.4V3.6c0-0.7-0.6-1.3-1.3-1.3c-0.3,0-0.7,0.1-0.9,0.4c-0.2,0.2-0.4,0.6-0.4,0.9v8.3
	c0,0.7,0.6,1.3,1.3,1.3c0,0,0,0,0,0c0.3,0,0.7-0.1,0.9-0.4c0.3-0.2,0.4-0.6,0.4-0.9V9.8h2.4v2.1C98.8,13.9,97.1,15.5,95.2,15.5
	C95.2,15.5,95.2,15.5,95.2,15.5L95.2,15.5z"/>
<path class="st0" d="M106,15.3h-2.3V0.2h2.3V15.3z"/>
<path class="st0" d="M111.1,15.3V0.2h6.5v2.3h-4.2v4.1h3.1v2.3h-3.1V13h4.2v2.3H111.1z"/>
<path class="st0" d="M124.8,0.2l3,10.2V0.2h2.3v15.1h-2.5l-3.1-9.7v9.7h-2.3V0.2H124.8z"/>
<path class="st0" d="M137.4,2.5H135V0.2h7.1v2.3h-2.4v12.8h-2.3V2.5z"/>
<path class="st0" d="M158.4,2.5H156V0.2h7.1v2.3h-2.4v12.8h-2.3L158.4,2.5z"/>
<path class="st0" d="M170.3,15.3H168V0.2h2.3V15.3z"/>
<path class="st0" d="M177.7,15.3h-2.3V0.2h3.3l2.1,10.9l2-10.9h3.1v15.1h-2.3V5.8l-2,9.5h-1.8l-2.2-9.5L177.7,15.3z"/>
<path class="st0" d="M191.1,15.3V0.2h6.5v2.3h-4.2v4.1h3.1v2.3h-3.1V13h4.2v2.3H191.1z"/>
<path class="st0" d="M209.7,11.6c0,1-0.2,1.9-0.8,2.7c-0.4,0.5-0.9,0.9-1.6,1.1c-0.4,0.1-0.8,0.2-1.3,0.2c-0.8,0-1.6-0.2-2.2-0.7
	c-0.5-0.4-0.9-0.9-1.2-1.5c-0.3-0.7-0.5-1.4-0.5-2.1l2.2-0.2c0,0.7,0.3,1.4,0.7,1.9c0.2,0.3,0.6,0.4,0.9,0.4c0.5,0,1-0.3,1.2-0.7
	c0.2-0.3,0.2-0.7,0.2-1c0-0.7-0.3-1.4-0.9-1.9c-0.5-0.4-1.1-1.1-2-1.9c-0.6-0.6-1.2-1.2-1.6-2c-0.3-0.7-0.5-1.4-0.5-2.1
	c-0.1-1.2,0.4-2.4,1.4-3.1c0.6-0.4,1.4-0.7,2.1-0.6c0.7,0,1.5,0.2,2.1,0.5c0.5,0.3,0.8,0.7,1.1,1.2c0.3,0.5,0.5,1.1,0.5,1.8
	l-2.2,0.4c0-0.5-0.2-1-0.5-1.4c-0.2-0.3-0.6-0.4-0.9-0.4c-0.4,0-0.8,0.2-1,0.6c-0.2,0.3-0.3,0.7-0.3,1.1c0,0.8,0.4,1.5,0.9,2.1
	c0.3,0.4,0.6,0.7,1,1c0.5,0.4,0.9,0.8,1.1,0.9c0.5,0.5,0.9,1.1,1.3,1.7c0.1,0.2,0.2,0.5,0.4,0.7C209.6,10.6,209.7,11.1,209.7,11.6z"
	/>
</svg>
