<svg id="Layer_1" data-name="Layer 1" xmlns="http://www.w3.org/2000/svg" width="300" height="250" viewBox="0 0 300 250"><defs><style>.cls-1{fill:#231f20;}.cls-2{fill:#d3b372;}</style></defs><title>frame1</title><rect class="cls-1" width="300" height="250"/><path class="cls-2" d="M57.9658,116.1357a3.6075,3.6075,0,0,1-3.622-3.61v-8.2588a3.6162,3.6162,0,1,1,7.2324,0v1.7266H59.21v-1.7744a1.32,1.32,0,0,0-1.3159-1.3165,1.2476,1.2476,0,0,0-.9239.3868,1.2779,1.2779,0,0,0-.38.93v8.2822a1.2988,1.2988,0,0,0,1.3038,1.3047,1.2767,1.2767,0,0,0,.93-.3809,1.2474,1.2474,0,0,0,.3863-.9238v-2.0889h2.3667v2.1133a3.6074,3.6074,0,0,1-3.61,3.61Z"/><path class="cls-2" d="M68.8706,112.4648l-.5542,3.4776H65.94l2.5723-15.1289h3.1387l2.5356,15.1289H71.7871l-.5342-3.4776Zm1.1987-8.1855-.8452,5.9639h1.69Z"/><path class="cls-2" d="M81.728,100.8018l3.0283,10.1757V100.8018h2.2818v15.1406H84.5874l-3.1392-9.6953v9.6953H79.166V100.8018Z"/><path class="cls-2" d="M94.7,100.8018l3.0283,10.1757V100.8018H100.01v15.1406H97.56L94.42,106.2471v9.6953H92.1382V100.8018Z"/><path class="cls-2" d="M107.9082,112.4648l-.5542,3.4776h-2.3765l2.5723-15.1289h3.1387l2.5356,15.1289h-2.3994l-.5342-3.4776Zm1.1987-8.1855-.8452,5.9639h1.69Z"/><path class="cls-2" d="M117.53,115.9424V100.8018h3.417a4.3541,4.3541,0,0,1,2.4389.7119,3.3183,3.3183,0,0,1,1.3282,1.872,5.2714,5.2714,0,0,1,.2172,1.6055,3.5547,3.5547,0,0,1-.809,2.4395,2.2814,2.2814,0,0,1-.7969.5908,2.6529,2.6529,0,0,1,1.292,1.1474,4.47,4.47,0,0,1,.519,1.4971,5.9411,5.9411,0,0,1,.085,1.0508,5.0528,5.0528,0,0,1-.5435,2.4385,3.2512,3.2512,0,0,1-1.1953,1.2558,3.29,3.29,0,0,1-1.7266.5313Zm2.4634-8.959h.9536a1.3976,1.3976,0,0,0,1.4248-1.0381,2.9687,2.9687,0,0,0,.1328-.9541,1.9939,1.9939,0,0,0-.459-1.4248,1.4433,1.4433,0,0,0-1.0986-.4463h-.9536Zm0,6.7012h.9536a1.6192,1.6192,0,0,0,1.6059-1.1953,2.628,2.628,0,0,0,.1568-.9414,2.8705,2.8705,0,0,0-.4829-1.8477,1.556,1.556,0,0,0-1.28-.5313h-.9536Z"/><path class="cls-2" d="M131.8613,115.9424h-2.2822V100.8135h2.2822Z"/><path class="cls-2" d="M143.6968,112.1758a4.2559,4.2559,0,0,1-.8213,2.7041,2.9551,2.9551,0,0,1-1.5693,1.0742,4.2607,4.2607,0,0,1-1.2681.1689,3.5837,3.5837,0,0,1-2.2212-.664,3.7027,3.7027,0,0,1-1.1655-1.4785,5.9688,5.9688,0,0,1-.501-2.1436l2.1733-.1562a3.304,3.304,0,0,0,.7,1.917,1.1661,1.1661,0,0,0,.9419.4248,1.4145,1.4145,0,0,0,1.1953-.7373,1.8294,1.8294,0,0,0,.23-1.003,2.7839,2.7839,0,0,0-.8574-1.873l-2.0283-1.9209a8.6667,8.6667,0,0,1-1.606-1.9707,4.556,4.556,0,0,1-.5068-2.127,3.7007,3.7007,0,0,1,1.3882-3.13,3.4533,3.4533,0,0,1,2.125-.64,3.8613,3.8613,0,0,1,2.0888.543,3.1389,3.1389,0,0,1,1.0928,1.1836,4.3742,4.3742,0,0,1,.501,1.75l-2.1851.3984a2.6348,2.6348,0,0,0-.5312-1.4482,1.115,1.115,0,0,0-.9058-.375,1.0432,1.0432,0,0,0-.9536.5556,2.1409,2.1409,0,0,0-.2656,1.1113,3.3292,3.3292,0,0,0,.893,2.1123,7.5451,7.5451,0,0,0,1.0147.9659q.7968.6649,1.05.93a7.7426,7.7426,0,0,1,1.3037,1.666,6.324,6.324,0,0,1,.35.7129A4.1438,4.1438,0,0,1,143.6968,112.1758Z"/><path class="cls-2" d="M159.8662,109.5312v6.4112H157.585V100.8135h2.2812v6.4238h2.7529v-6.4238h2.2823v15.1289h-2.2823v-6.4112Z"/><path class="cls-2" d="M172.8,112.4648l-.5547,3.4776h-2.376l2.5713-15.1289h3.14l2.5351,15.1289h-2.3994l-.5342-3.4776Zm1.1982-8.1855-.8447,5.9639h1.69Z"/><path class="cls-2" d="M189.9531,112.1758a4.2583,4.2583,0,0,1-.8213,2.7041,2.9566,2.9566,0,0,1-1.5693,1.0742,4.2614,4.2614,0,0,1-1.2676.1689,3.5836,3.5836,0,0,1-2.2217-.664,3.6982,3.6982,0,0,1-1.165-1.4785,5.9521,5.9521,0,0,1-.501-2.1436l2.1729-.1562a3.304,3.304,0,0,0,.7,1.917,1.1656,1.1656,0,0,0,.9424.4248,1.4146,1.4146,0,0,0,1.1953-.7373,1.8352,1.8352,0,0,0,.2285-1.003,2.7848,2.7848,0,0,0-.8565-1.873q-.6766-.64-2.0283-1.9209a8.6838,8.6838,0,0,1-1.6064-1.9707,4.5561,4.5561,0,0,1-.5069-2.127,3.7,3.7,0,0,1,1.3887-3.13,3.45,3.45,0,0,1,2.125-.64,3.8643,3.8643,0,0,1,2.0889.543,3.1476,3.1476,0,0,1,1.0928,1.1836,4.3886,4.3886,0,0,1,.5009,1.75l-2.1855.3984a2.631,2.631,0,0,0-.5313-1.4482,1.1157,1.1157,0,0,0-.9052-.375,1.0428,1.0428,0,0,0-.9541.5556,2.1351,2.1351,0,0,0-.2657,1.1113,3.33,3.33,0,0,0,.8936,2.1123,7.5273,7.5273,0,0,0,1.0137.9659q.7968.6649,1.0507.93a7.7394,7.7394,0,0,1,1.3037,1.666,6.3,6.3,0,0,1,.3506.7129A4.1532,4.1532,0,0,1,189.9531,112.1758Z"/><path class="cls-2" d="M203.8428,115.9424V100.8018h3.417a4.3525,4.3525,0,0,1,2.4384.7119,3.316,3.316,0,0,1,1.3282,1.872,5.286,5.286,0,0,1,.2177,1.6055,3.5574,3.5574,0,0,1-.81,2.4395,2.29,2.29,0,0,1-.7969.5908,2.6572,2.6572,0,0,1,1.292,1.1474,4.48,4.48,0,0,1,.5195,1.4971,6.0426,6.0426,0,0,1,.084,1.0508,5.0528,5.0528,0,0,1-.543,2.4385,3.2578,3.2578,0,0,1-1.1953,1.2558,3.2915,3.2915,0,0,1-1.7265.5313Zm2.4629-8.959h.9541a1.3965,1.3965,0,0,0,1.4238-1.0381,2.9522,2.9522,0,0,0,.1328-.9541,1.996,1.996,0,0,0-.458-1.4248,1.4447,1.4447,0,0,0-1.0986-.4463h-.9541Zm0,6.7012h.9541a1.619,1.619,0,0,0,1.6054-1.1953,2.6278,2.6278,0,0,0,.1573-.9414,2.8673,2.8673,0,0,0-.4834-1.8477,1.5569,1.5569,0,0,0-1.2793-.5313h-.9541Z"/><path class="cls-2" d="M215.875,115.9424V100.8018H222.37v2.2939h-4.2139v4.1289h3.0792V109.52h-3.0792v4.1289H222.37v2.294Z"/><path class="cls-2" d="M226.66,115.9424V100.8018h6.4951v2.2939h-4.2139v4.1289h3.0791V109.52h-3.0791v4.1289h4.2139v2.294Z"/><path class="cls-2" d="M240.3467,100.8018l3.0283,10.1757V100.8018h2.2822v15.1406h-2.4511l-3.14-9.6953v9.6953h-2.2812V100.8018Z"/><path class="cls-2" d="M70.7739,140.5117a3.5878,3.5878,0,0,1-3.61-3.5976v-11.7h2.2339V136.89a1.2475,1.2475,0,0,0,.3862.9239,1.2792,1.2792,0,0,0,.93.38,1.298,1.298,0,0,0,1.3042-1.3038V125.2139H74.396v11.7a3.44,3.44,0,0,1-1.0625,2.56A3.5293,3.5293,0,0,1,70.7739,140.5117Z"/><path class="cls-2" d="M85.8745,136.5762a4.2561,4.2561,0,0,1-.8213,2.7041,2.9547,2.9547,0,0,1-1.5693,1.0742,4.26,4.26,0,0,1-1.2681.1689,3.5839,3.5839,0,0,1-2.2212-.664,3.7033,3.7033,0,0,1-1.1655-1.4785,5.9729,5.9729,0,0,1-.501-2.1436l2.1734-.1562a3.302,3.302,0,0,0,.7,1.9169,1.1658,1.1658,0,0,0,.9419.4249,1.4145,1.4145,0,0,0,1.1953-.7374,1.83,1.83,0,0,0,.23-1.0029,2.7841,2.7841,0,0,0-.8575-1.873q-.6759-.64-2.0283-1.9209a8.668,8.668,0,0,1-1.6059-1.9707,4.5561,4.5561,0,0,1-.5069-2.127,3.7007,3.7007,0,0,1,1.3882-3.13,3.4535,3.4535,0,0,1,2.125-.64,3.861,3.861,0,0,1,2.0889.543,3.1391,3.1391,0,0,1,1.0927,1.1835,4.3719,4.3719,0,0,1,.501,1.75l-2.185.3985a2.6349,2.6349,0,0,0-.5313-1.4483,1.1149,1.1149,0,0,0-.9057-.375,1.0434,1.0434,0,0,0-.9537.5557,2.1409,2.1409,0,0,0-.2656,1.1113,3.3294,3.3294,0,0,0,.8931,2.1123,7.5557,7.5557,0,0,0,1.0146.9659q.797.6649,1.05.93a7.7422,7.7422,0,0,1,1.3037,1.6661,6.29,6.29,0,0,1,.35.7129A4.1438,4.1438,0,0,1,85.8745,136.5762Z"/><path class="cls-2" d="M89.8071,140.3428V125.2021h6.4961v2.294H92.0894v4.1289H95.168V133.92H92.0894v4.1289h4.2138v2.294Z"/><path class="cls-2" d="M107.4243,136.7207a3.5087,3.5087,0,0,1-1.05,2.56,3.4365,3.4365,0,0,1-2.5356,1.0625h-3.586V125.2021h3.586a3.431,3.431,0,0,1,2.5415,1.0625,3.5052,3.5052,0,0,1,1.0444,2.5479Zm-4.89,1.3643h1.3764a1.2192,1.2192,0,0,0,.9175-.3926,1.2943,1.2943,0,0,0,.374-.9238v-7.92a1.2781,1.2781,0,0,0-.38-.93,1.2346,1.2346,0,0,0-.9117-.3867h-1.3764Z"/><path class="cls-2" d="M124.23,136.5762a4.2561,4.2561,0,0,1-.8213,2.7041,2.9551,2.9551,0,0,1-1.5693,1.0742,4.26,4.26,0,0,1-1.2681.1689,3.5837,3.5837,0,0,1-2.2212-.664,3.7033,3.7033,0,0,1-1.1655-1.4785,5.9688,5.9688,0,0,1-.501-2.1436l2.1733-.1562a3.3033,3.3033,0,0,0,.7,1.9169,1.1659,1.1659,0,0,0,.9419.4249,1.4143,1.4143,0,0,0,1.1953-.7374,1.829,1.829,0,0,0,.23-1.0029,2.7839,2.7839,0,0,0-.8574-1.873q-.6761-.64-2.0283-1.9209a8.6715,8.6715,0,0,1-1.606-1.9707,4.5572,4.5572,0,0,1-.5068-2.127,3.7007,3.7007,0,0,1,1.3882-3.13,3.4535,3.4535,0,0,1,2.125-.64,3.861,3.861,0,0,1,2.0889.543,3.14,3.14,0,0,1,1.0927,1.1835,4.3719,4.3719,0,0,1,.501,1.75l-2.1851.3985a2.6349,2.6349,0,0,0-.5312-1.4483,1.115,1.115,0,0,0-.9058-.375,1.0433,1.0433,0,0,0-.9536.5557,2.1409,2.1409,0,0,0-.2656,1.1113,3.3294,3.3294,0,0,0,.8931,2.1123,7.5435,7.5435,0,0,0,1.0146.9659q.7969.6649,1.05.93a7.7422,7.7422,0,0,1,1.3037,1.6661,6.324,6.324,0,0,1,.35.7129A4.1438,4.1438,0,0,1,124.23,136.5762Z"/><path class="cls-2" d="M132.7827,125.2139a3.4777,3.4777,0,0,1,2.6563,1.0507,3.643,3.643,0,0,1,.9174,2.56v2.1973a3.519,3.519,0,0,1-1.0444,2.56,3.413,3.413,0,0,1-2.5293,1.0625h-1.3159v5.6992h-2.2822V125.2139Zm1.3643,3.6465a1.3039,1.3039,0,0,0-.356-.9542,1.2707,1.2707,0,0,0-.9477-.3613h-1.3765v4.8408h1.3765a1.2458,1.2458,0,0,0,.9233-.3857,1.2765,1.2765,0,0,0,.38-.93Z"/><path class="cls-2" d="M143.5215,140.3428h-2.2822V125.2139h2.2822Z"/><path class="cls-2" d="M152.22,125.2139a3.48,3.48,0,0,1,2.8008,1.0507,3.8154,3.8154,0,0,1,.7852,2.56v2.1973a3.5359,3.5359,0,0,1-1.22,2.7168l1.6895,6.6045h-2.4668l-1.3838-5.6992h-1.5215v5.6992h-2.2822V125.2139Zm1.3643,3.6465a1.1576,1.1576,0,0,0-1.3037-1.3155h-1.377v4.8408h1.377a1.2447,1.2447,0,0,0,.9228-.3857,1.277,1.277,0,0,0,.3809-.93Z"/><path class="cls-2" d="M163.5742,140.3428H161.293V125.2139h2.2812Z"/><path class="cls-2" d="M170.8965,127.5078H168.47v-2.2939h7.1231v2.2939h-2.4151v12.835h-2.2812Z"/><path class="cls-2" d="M184.0859,140.5117a3.5861,3.5861,0,0,1-3.6093-3.5976v-11.7H182.71V136.89a1.2479,1.2479,0,0,0,.3867.9239,1.2784,1.2784,0,0,0,.93.38A1.2988,1.2988,0,0,0,185.33,136.89V125.2139h2.3779v11.7a3.4363,3.4363,0,0,1-1.0625,2.56A3.5285,3.5285,0,0,1,184.0859,140.5117Z"/><path class="cls-2" d="M195.2686,136.8652l-.5547,3.4776h-2.376l2.5713-15.1289h3.14l2.5352,15.1289h-2.3994l-.5342-3.4776Zm1.1982-8.1855-.8447,5.9639h1.6894Z"/><path class="cls-2" d="M211.7822,140.3428h-6.2177V125.2139h2.2812v12.8593h3.9365Z"/><path class="cls-2" d="M222.6289,140.3428h-6.2178V125.2139h2.2813v12.8593h3.9365Z"/><path class="cls-2" d="M227.4883,134.0039l-3.0547-8.8018h2.5107l1.6905,5.4336,1.6787-5.4336h2.5234l-3.0674,8.8018v6.3389h-2.2812Z"/></svg>