<svg id="Content" xmlns="http://www.w3.org/2000/svg" width="300" height="250" viewBox="0 0 300 250"><defs><style>.cls-1{fill:#ba9544;}</style></defs><title>Frame1 - Shishkaberry</title><path class="cls-1" d="M102.36328,147.69267c3.13965,0,4.75342,1.87793,4.75342,5.16407v.6455h-3.05176v-.85058c0-1.46778-.58691-2.02442-1.61377-2.02442s-1.61377.55664-1.61377,2.02442c0,4.22461,6.3086,5.01758,6.3086,10.88574,0,3.28613-1.64307,5.16406-4.812,5.16406-3.16943,0-4.8125-1.87793-4.8125-5.16406v-1.26172h3.05176v1.4668c0,1.46777.64551,1.99609,1.67237,1.99609,1.02734,0,1.67285-.52832,1.67285-1.99609,0-4.22461-6.30908-5.01758-6.30908-10.88574C97.60938,149.5706,99.22363,147.69267,102.36328,147.69267Z"/><path class="cls-1" d="M116.62158,168.46709H113.394v-20.54h3.22754v8.80273h3.668v-8.80273h3.28613v20.54h-3.28613v-8.80274h-3.668Z"/><path class="cls-1" d="M130.32227,147.92705h3.22753v20.54h-3.22753Z"/><path class="cls-1" d="M144.64014,147.69267c3.13965,0,4.75341,1.87793,4.75341,5.16407v.6455H146.3418v-.85058c0-1.46778-.58692-2.02442-1.61377-2.02442s-1.61377.55664-1.61377,2.02442c0,4.22461,6.30859,5.01758,6.30859,10.88574,0,3.28613-1.64306,5.16406-4.812,5.16406-3.16943,0-4.8125-1.87793-4.8125-5.16406v-1.26172h3.05176v1.4668c0,1.46777.64551,1.99609,1.67236,1.99609,1.02734,0,1.67285-.52832,1.67285-1.99609,0-4.22461-6.30908-5.01758-6.30908-10.88574C139.88623,149.5706,141.50049,147.69267,144.64014,147.69267Z"/><path class="cls-1" d="M158.89844,168.46709H155.6709v-20.54h3.22754v8.80273h3.668v-8.80273h3.28613v20.54h-3.28613v-8.80274h-3.668Z"/><path class="cls-1" d="M176.8252,160.28056l-.99805,1.87793v6.3086h-3.22754v-20.54h3.22754v8.94922l4.22558-8.94922h3.22754l-4.48925,9.15527,4.48925,11.38477h-3.31543Z"/><path class="cls-1" d="M199.59277,168.46709H196.335l-.55762-3.72656h-3.96093l-.55762,3.72656H188.2959l3.28613-20.54h4.72363Zm-7.36523-6.51367h3.11035l-1.55566-10.3877Z"/><path class="cls-1" d="M215.14258,152.65166v.7334c0,2.1123-.64551,3.46191-2.083,4.13769,1.73145.67481,2.40625,2.22949,2.40625,4.40137V163.596c0,3.16895-1.67285,4.8711-4.90039,4.8711h-5.07617v-20.54h4.87109C213.70508,147.92705,215.14258,149.48271,215.14258,152.65166Zm-6.42578-1.79v5.42871h1.26172c1.20312,0,1.93652-.52832,1.93652-2.17188v-1.14453c0-1.46679-.499-2.1123-1.64258-2.1123Zm0,8.3623v6.3086h1.84863c1.08594,0,1.67285-.49805,1.67285-2.02442v-1.79c0-1.90722-.61621-2.49414-2.084-2.49414Z"/><path class="cls-1" d="M225.02832,156.5833H229.459v2.93457h-4.43066v6.01465h5.5752v2.93457h-8.80274v-20.54h8.80274v2.93457h-5.5752Z"/><path class="cls-1" d="M243.74805,168.46709a6.298,6.298,0,0,1-.29395-2.52344v-3.22754c0-1.90723-.64551-2.61133-2.1123-2.61133h-1.11524v8.36231H236.999v-20.54h4.8711c3.34472,0,4.78222,1.55566,4.78222,4.72461v1.61328c0,2.11328-.6748,3.49219-2.1123,4.167,1.61426.67481,2.1416,2.23047,2.1416,4.37207V165.973a6.03946,6.03946,0,0,0,.35254,2.49414Zm-3.52149-17.60547v6.30859h1.26172c1.20313,0,1.93652-.52832,1.93652-2.17187v-2.02442c0-1.46679-.499-2.1123-1.64257-2.1123Z"/><path class="cls-1" d="M259.94238,168.46709a6.298,6.298,0,0,1-.29394-2.52344v-3.22754c0-1.90723-.64551-2.61133-2.11231-2.61133H256.4209v8.36231h-3.22754v-20.54h4.87109c3.34473,0,4.78223,1.55566,4.78223,4.72461v1.61328c0,2.11328-.6748,3.49219-2.1123,4.167,1.61328.67481,2.1416,2.23047,2.1416,4.37207V165.973a6.03929,6.03929,0,0,0,.35254,2.49414Zm-3.52148-17.60547v6.30859h1.26172c1.20312,0,1.93652-.52832,1.93652-2.17187v-2.02442c0-1.46679-.499-2.1123-1.64258-2.1123Z"/><path class="cls-1" d="M272.41113,161.65947l-4.0791-13.73242h3.375l2.46485,9.36035,2.46386-9.36035h3.08106l-4.07813,13.73242v6.80762h-3.22754Z"/></svg>