<svg id="Layer_1" data-name="Layer 1" xmlns="http://www.w3.org/2000/svg" width="320" height="480" viewBox="0 0 320 480"><defs><style>.cls-1{fill:#fff;}</style></defs><title>newyear</title><path class="cls-1" d="M106.961,228.62228l4.47891,15.07266V228.62228h3.38379V251.066h-3.62461l-4.65645-14.37188V251.066h-3.38379V228.62228Z"/><path class="cls-1" d="M118.85844,251.066V228.62228H128.493v3.3832h-6.25078v6.15235h4.565v3.38437h-4.565v6.13945H128.493V251.066Z"/><path class="cls-1" d="M145.73129,228.62228H149.275L145.76821,251.066h-3.24844l-1.90723-12.24375L138.81606,251.066h-3.23613L131.827,228.62228h3.54375l1.77187,12.02109,1.62422-12.02109h3.54375l1.77187,12.02109Z"/><path class="cls-1" d="M160.47,241.66525l-4.52812-13.043h3.716l2.5166,8.059,2.4914-8.059h3.74063l-4.55274,13.043V251.066H160.47Z"/><path class="cls-1" d="M172.10961,251.066V228.62228h9.63457v3.3832H175.4934v6.15235h4.565v3.38437h-4.565v6.13945h6.25078V251.066Z"/><path class="cls-1" d="M189.42114,245.90978l-.82442,5.15625h-3.51914l3.80215-22.44375h4.66348l3.75293,22.44375h-3.54375l-.79981-5.15625Zm1.77187-12.14414-1.25508,8.84648h2.51016Z"/><path class="cls-1" d="M206.48657,228.62228a5.126,5.126,0,0,1,4.14668,1.56211,5.64619,5.64619,0,0,1,1.16894,3.78984v3.26133a5.2173,5.2173,0,0,1-1.80586,4.02305l2.50723,9.80742h-3.64922l-2.06426-8.47852c-.09844.00821-.20039.01289-.307.01289h-1.94062V251.066h-3.38379V228.62228Zm2.018,5.41406a1.71642,1.71642,0,0,0-1.926-1.957h-2.03613v7.17422h2.03613a1.83854,1.83854,0,0,0,1.36758-.57188,1.89706,1.89706,0,0,0,.55839-1.37226Z"/><path class="cls-1" d="M215.83754,247.69454h3.38379v3.38321h-3.38379Z"/></svg>