<svg id="Layer_1" data-name="Layer 1" xmlns="http://www.w3.org/2000/svg" xmlns:xlink="http://www.w3.org/1999/xlink" width="57.84045" height="90.11616" viewBox="0 0 57.84045 90.11616"><defs><style>.cls-1{fill:url(#New_Gradient_Swatch_1);}.cls-2{fill:#fff;}.cls-3{fill:#ba9544;}</style><linearGradient id="New_Gradient_Swatch_1" y1="29.58556" x2="57.84045" y2="29.58556" gradientUnits="userSpaceOnUse"><stop offset="0" stop-color="#a88a34"/><stop offset="0.49324" stop-color="#caaf67"/><stop offset="1" stop-color="#957f2e"/></linearGradient></defs><title>berry</title><polygon class="cls-1" points="24.026 0 0 27.746 18.965 59.171 54.712 50.846 57.84 14.277 24.026 0"/><path class="cls-2" d="M37.32878,32.70469a.52789.52789,0,1,1-.11272-.73957.53263.53263,0,0,1,.11272.73957m-3.15623-6.69462a.66535.66535,0,1,1,.66259-.66533.66765.66765,0,0,1-.66259.66533M33.51,34.02987a.66534.66534,0,1,1,.66534-.66534.66888.66888,0,0,1-.66534.66534m-.10173-4.89381a.532.532,0,1,1-.53337.53062.53271.53271,0,0,1,.53337-.53062m-1.41316,8.6384a.58125.58125,0,1,1-.21719-.79455.57655.57655,0,0,1,.21719.79455M29.265,29.07007a.58561.58561,0,1,1,.58561-.5856.58258.58258,0,0,1-.58561.5856M29.09453,33.535a.532.532,0,1,1,.53062-.53063.53508.53508,0,0,1-.53062.53063M27.3707,35.91866a.53063.53063,0,1,1,.53062-.53062.53508.53508,0,0,1-.53062.53062m-.6021-4.20922a.66218.66218,0,1,1-.077-.93478.66481.66481,0,0,1,.077.93478m-1.65511-5.48217a.58424.58424,0,1,1,.58286.5856.58672.58672,0,0,1-.58286-.5856m8.51744-3.5329a13.89041,13.89041,0,0,0,2.97752-2.29018,7.95209,7.95209,0,0,0-3.77483.38491,5.469,5.469,0,0,0,.58286-2.90606A2.96987,2.96987,0,0,0,31.239,19.61513a5.41492,5.41492,0,0,0-.75607-2.55688,3.28183,3.28183,0,0,0-1.2097,2.95278,3.09062,3.09062,0,0,0-2.282-1.92178,5.48194,5.48194,0,0,0,.52512,2.78782,7.725,7.725,0,0,0-3.981-.47288,13.49774,13.49774,0,0,0,3.13974,2.37542c-3.148.67909-5.3447,2.43592-5.3447,6.10626,0,4.98454,6.296,13.227,9.03155,13.227,2.961,0,9.03156-8.2425,9.03156-13.227.01924-3.83257-2.38367-5.59214-5.7626-6.1915"/><path class="cls-3" d="M10.80775,84.375a3.08785,3.08785,0,0,1-1.76953,5.74121L2.92,90.10932V79.24311H8.69056q2.748.15967,2.89942,3.19629A2.26958,2.26958,0,0,1,10.80775,84.375Zm-5.70508-.77539h3.044a1.228,1.228,0,0,0,1.34863-1.35547q-.03661-.79687-1.32617-.84082H5.10267Zm0,4.81348H8.65443a1.41923,1.41923,0,0,0,1.56543-1.57325q-.03516-1.043-1.544-1.08691H5.10267Z"/><path class="cls-3" d="M14.46107,90.10932V79.24311l7.98926-.00781v2.03027H16.63587v2.31934H20.9933v2.02246H16.63587V88.08h5.79981v2.02929Z"/><path class="cls-3" d="M31.1847,85.36811l2.71094,4.74121H31.40248l-2.60254-4.49414H26.81361v4.49414H24.6388V79.2353H29.38q3.80567,0,3.80567,3.13184A2.81161,2.81161,0,0,1,31.1847,85.36811Zm-4.37109-1.7832h3.04492q1.311-.022,1.34766-1.19629Q31.171,81.31636,29.88,81.27241h-3.0664Z"/><path class="cls-3" d="M41.57337,85.36811l2.71094,4.74121H41.79115l-2.60254-4.49414H37.20228v4.49414h-2.1748V79.2353h4.74121q3.80566,0,3.80566,3.13184A2.81161,2.81161,0,0,1,41.57337,85.36811Zm-4.37109-1.7832H40.2472q1.311-.022,1.34766-1.19629-.03516-1.07226-1.32617-1.11621H37.20228Z"/><path class="cls-3" d="M44.77748,79.2353h2.55175L49.85169,82.788l2.58106-3.55274h2.49316l-3.98632,5.4375v5.43652H48.76478V84.6728Z"/></svg>