<svg xmlns="http://www.w3.org/2000/svg" xmlns:xlink="http://www.w3.org/1999/xlink" width="970" height="250" viewBox="0 0 970 250"><defs><style>.cls-1{fill:none;}.cls-2{fill:#ba9544;}.cls-3{isolation:isolate;}.cls-4{clip-path:url(#clip-path);}.cls-5{clip-path:url(#clip-path-2);}.cls-6{mix-blend-mode:multiply;}.cls-7{clip-path:url(#clip-path-3);}.cls-8{fill:#fff;stroke:#ba9544;stroke-miterlimit:10;stroke-width:0.5px;}.cls-9{clip-path:url(#clip-path-4);}.cls-10{clip-path:url(#clip-path-5);}.cls-11{clip-path:url(#clip-path-6);}</style><clipPath id="clip-path"><path class="cls-1" d="M-1.65026-305.28618-3.4861-186.87446l55.65532,14.66939,49.77634-42.858,8.90912-2.22728,15.591-1.11364,27.841-27.841,30.0683,11.13641,31.18194,15.591,40.09106-4.45457,24.78387-15.25291,14.78134-23.44182,10.54862-21.44186-1.72462-19.34159S.0202-303.61571-1.65026-305.28618Z"/></clipPath><clipPath id="clip-path-2"><polygon class="cls-1" points="212.45 -47.71 264.958 -114.281 286.271 -122.381 297.147 -101.01 324.495 -48.473 212.45 -47.71"/></clipPath><clipPath id="clip-path-3"><rect class="cls-1" x="-79.03413" y="-166.06752" width="425.40438" height="283.54838" transform="translate(33.98399 68.0127) rotate(-32.49853)"/></clipPath><clipPath id="clip-path-4"><polygon class="cls-2" points="396.78 167.262 408.521 183.894 437.349 183.915 437.349 150.334 408.521 150.327 396.78 167.262"/></clipPath><clipPath id="clip-path-5"><rect class="cls-1" x="17.24025" y="-299.16219" width="383.03219" height="250.51546"/></clipPath><clipPath id="clip-path-6"><rect class="cls-1" x="2.56702" y="-306.41002" width="399.55191" height="335.80187"/></clipPath></defs><title>CBD - Daytime CBD</title><g class="cls-3"><g id="Terpenes"><g class="cls-5"><g id="Spices_GettyImages-966502372.psd" class="cls-6"><g class="cls-7"><image id="Shadow" class="cls-6" width="838" height="792" transform="matrix(-0.138, 0.08791, 0.08791, 0.138, 288.62477, -135.51877)" xlink:href="CBD%20-%20Daytime%20CBD1.png"/><image id="Spices_-_pepper_only" data-name="Spices - pepper only" width="792" height="759" transform="matrix(-0.138, 0.08791, 0.08791, 0.138, 286.25431, -132.84473)" xlink:href="CBD%20-%20Daytime%20CBD2.png"/></g></g></g></g><g id="Content"><polygon class="cls-8" points="640.867 151.171 408.266 150.289 396.524 167.222 408.266 183.854 640.867 183.458 651.435 167.315 640.867 151.171"/><polygon class="cls-2" points="396.78 167.262 408.521 183.894 437.349 183.915 437.349 150.334 408.521 150.327 396.78 167.262"/><g class="cls-9"><rect class="cls-2" x="394.18251" y="147.73103" width="17.16038" height="38.77847"/></g><path class="cls-2" d="M533.17871,172.79835a5.697,5.697,0,0,1,4.05078-9.75293,6.16434,6.16434,0,0,1,4.1836,1.51856l-1.51856,1.66308a4.1997,4.1997,0,0,0-2.665-.91113,3.34367,3.34367,0,0,0-2.47168.957,3.30927,3.30927,0,0,0-.9375,2.42871,3.41108,3.41108,0,0,0,.94922,2.52051,3.36172,3.36172,0,0,0,2.47559.93457,4.08629,4.08629,0,0,0,2.64941-.90332l1.51856,1.66211a6.14208,6.14208,0,0,1-4.1836,1.51856A5.54383,5.54383,0,0,1,533.17871,172.79835Z"/><path class="cls-2" d="M551.95117,168.42824a3.23423,3.23423,0,0,1-1.85254,6.01367l-6.4082-.00781V163.05324h6.04395q2.87694.167,3.0371,3.34863A2.38263,2.38263,0,0,1,551.95117,168.42824Zm-5.97461-.81153H549.165a1.28634,1.28634,0,0,0,1.41211-1.41992q-.03809-.835-1.38965-.88086h-3.21094Zm0,5.041h3.71973a1.4866,1.4866,0,0,0,1.63965-1.64746q-.03809-1.09423-1.61719-1.13867h-3.74219Z"/><path class="cls-2" d="M555.80762,174.4341V163.03859h4.38867q5.31445,0,5.31445,5.70117,0,5.69385-5.31445,5.69434Zm4.38867-2.27051q3.0293-.00733,3.03711-3.42383-.00879-3.416-3.03711-3.416h-2.11035v6.83985Z"/><path class="cls-2" d="M568.05371,167.17238a1.10108,1.10108,0,0,1,.82031-.30762,1.143,1.143,0,0,1,.85059.30762,1.10584,1.10584,0,0,1,0,1.52246,1.30094,1.30094,0,0,1-1.6709,0,1.10584,1.10584,0,0,1,0-1.52246Zm0,5.43554a1.10111,1.10111,0,0,1,.82031-.30761,1.143,1.143,0,0,1,.85059.30761,1.04565,1.04565,0,0,1,.30371.76368,1.02976,1.02976,0,0,1-.30371.75878,1.30091,1.30091,0,0,1-1.6709,0,1.02976,1.02976,0,0,1-.30371-.75878A1.04565,1.04565,0,0,1,568.05371,172.60792Z"/><path class="cls-2" d="M585.45508,168.09425q-.04542,3.63722-1.37012,5.04883a3.84588,3.84588,0,0,1-3.291,1.24512,4.73532,4.73532,0,0,1-3.05957-1.44239l1.2832-1.39648a3.981,3.981,0,0,0,1.89746.64551,2.01019,2.01019,0,0,0,1.625-.48633,3.06536,3.06536,0,0,0,.84277-1.86035,3.5634,3.5634,0,0,1-2.36133.75976,3.81222,3.81222,0,0,1-2.80859-1.30957,3.90974,3.90974,0,0,1-.66894-2.85156,3.74167,3.74167,0,0,1,1.32519-2.57715,4.02014,4.02014,0,0,1,3.13184-.793,3.71221,3.71221,0,0,1,2.5625,1.51075A6.412,6.412,0,0,1,585.45508,168.09425Zm-2.27735-1.25195q-.07617-1.5879-1.82226-1.65527-1.74609.06738-1.82227,1.51074a1.71957,1.71957,0,0,0,1.89844,1.89746A1.69066,1.69066,0,0,0,583.17773,166.8423Z"/><path class="cls-2" d="M587.47461,171.38917v-1.51074h4.707v1.51074Z"/><path class="cls-2" d="M597.09375,163.04542v-.00683h2.27051V174.4341h-2.27051v-8.35157l-1.51855,1.51856-1.51856-1.51856Z"/><path class="cls-2" d="M608.72461,168.66359q.20508.07617.37207.15234a2.232,2.232,0,0,1,1.17676,2.27735,2.91867,2.91867,0,0,1-1.25684,2.35351,4.59748,4.59748,0,0,1-2.92676.98731,6.74549,6.74549,0,0,1-2.64941-.45508,5.76493,5.76493,0,0,1-1.82227-1.21485l1.51856-1.51855a3.60705,3.60705,0,0,0,2.582,1.0625q1.51758,0,1.89355-.64551a1.19925,1.19925,0,0,0,0-1.29q-.375-.646-2.6455-.72168v-2.0498q2.2705.15234,2.6455-.49317a1.20092,1.20092,0,0,0,0-1.291q-.375-.64453-1.89355-.64551a2.70333,2.70333,0,0,0-2.20215.91113l-1.51855-1.51855a5.29234,5.29234,0,0,1,1.63281-1.13867,6.35173,6.35173,0,0,1,2.459-.37989,4.009,4.009,0,0,1,2.77539.98731,3.0543,3.0543,0,0,1,1.1045,2.35351,2.25306,2.25306,0,0,1-1.02442,2.16407C608.87891,168.58546,608.80566,168.62355,608.72461,168.66359Z"/><path class="cls-2" d="M612.78613,167.85206a2.936,2.936,0,1,1,2.03516.81934A2.76691,2.76691,0,0,1,612.78613,167.85206Zm2.0127-.53222a1.35454,1.35454,0,0,0,1.04-.43262,1.64042,1.64042,0,0,0,0-2.15234,1.37147,1.37147,0,0,0-1.04785-.42871,1.35264,1.35264,0,0,0-1.03321.42871,1.64042,1.64042,0,0,0,0,2.15234A1.35521,1.35521,0,0,0,614.79883,167.31984Zm-.60742,7.11426,6.45312-11.38868h1.85254l-6.43848,11.38868Zm5.65625-.752a2.91488,2.91488,0,1,1,2.01855.8125A2.73934,2.73934,0,0,1,619.84766,173.68214Zm1.98144-.55371a1.32828,1.32828,0,0,0,1.0166-.42187,1.58453,1.58453,0,0,0,0-2.09473,1.338,1.338,0,0,0-1.02441-.42188,1.32079,1.32079,0,0,0-1.00977.42188,1.58748,1.58748,0,0,0,0,2.09473A1.33042,1.33042,0,0,0,621.8291,173.12843Z"/><g class="cls-10"><g id="SmallTopDown-8383-DaytimeCBD.psd"><g class="cls-11"><image id="SmallTopDown-8383-DaytimeCBD" width="4124" height="3466" transform="translate(2.56702 -306.41002) scale(0.09688)" xlink:href="CBD%20-%20Daytime%20CBD3.png"/></g></g></g></g></g></svg>