<svg xmlns="http://www.w3.org/2000/svg" xmlns:xlink="http://www.w3.org/1999/xlink" width="970" height="250" viewBox="0 0 970 250"><defs><style>.cls-1{fill:#ba9544;}.cls-2{fill:none;}.cls-3{fill:#fff;stroke:#ba9544;stroke-miterlimit:10;stroke-width:0.5px;}.cls-4{clip-path:url(#clip-path);}.cls-5{clip-path:url(#clip-path-2);}.cls-6{clip-path:url(#clip-path-3);}</style><clipPath id="clip-path"><polygon class="cls-1" points="396.779 167.574 408.521 184.206 408.751 184.227 408.751 150.647 408.521 150.639 396.779 167.574"/></clipPath><clipPath id="clip-path-2"><rect class="cls-2" x="17.24025" y="-299.16219" width="383.03219" height="250.51546"/></clipPath><clipPath id="clip-path-3"><rect class="cls-2" x="2.56702" y="-306.41002" width="399.55191" height="335.80187"/></clipPath></defs><title>CBD - Shishkaberry</title><g id="Content"><polygon class="cls-3" points="640.868 151.483 408.265 150.601 396.523 167.534 408.265 184.166 640.868 183.77 651.436 167.628 640.868 151.483"/><polygon class="cls-1" points="396.779 167.574 408.521 184.206 408.751 184.227 408.751 150.647 408.521 150.639 396.779 167.574"/><g class="cls-4"><rect class="cls-1" x="394.18188" y="148.04317" width="17.16046" height="38.77866"/></g><path class="cls-1" d="M533.17912,173.12257a5.697,5.697,0,0,1,4.05078-9.75293,6.16429,6.16429,0,0,1,4.18359,1.51856l-1.51855,1.66308a4.19974,4.19974,0,0,0-2.665-.91113,3.34683,3.34683,0,0,0-2.47168.95605,3.3131,3.3131,0,0,0-.9375,2.42969,3.411,3.411,0,0,0,.94922,2.52051,3.3617,3.3617,0,0,0,2.47558.93457,4.08632,4.08632,0,0,0,2.64942-.90332l1.51855,1.66211a6.14211,6.14211,0,0,1-4.18359,1.51855A5.54377,5.54377,0,0,1,533.17912,173.12257Z"/><path class="cls-1" d="M551.95158,168.75245a3.23424,3.23424,0,0,1-1.85254,6.01368l-6.40821-.00782V163.37745h6.04395q2.877.167,3.03711,3.34864A2.3826,2.3826,0,0,1,551.95158,168.75245Zm-5.97461-.81152h3.18847a1.28634,1.28634,0,0,0,1.41211-1.41992q-.03809-.835-1.38965-.88086H545.977Zm0,5.041h3.71972a1.48661,1.48661,0,0,0,1.63965-1.64746q-.03808-1.09425-1.61719-1.13868H545.977Z"/><path class="cls-1" d="M555.808,174.75831v-11.3955h4.38867q5.31445,0,5.31446,5.70117,0,5.69385-5.31446,5.69433Zm4.38867-2.2705q3.0293-.00733,3.03711-3.42383-.00879-3.416-3.03711-3.416h-2.11035v6.83985Z"/><path class="cls-1" d="M568.05412,167.4966a1.101,1.101,0,0,1,.82031-.30762,1.14292,1.14292,0,0,1,.85058.30762,1.10584,1.10584,0,0,1,0,1.52246,1.30093,1.30093,0,0,1-1.67089,0,1.10581,1.10581,0,0,1,0-1.52246Zm0,5.43554a1.101,1.101,0,0,1,.82031-.30761,1.14291,1.14291,0,0,1,.85058.30761,1.04565,1.04565,0,0,1,.30371.76367,1.02978,1.02978,0,0,1-.30371.75879,1.30093,1.30093,0,0,1-1.67089,0,1.02979,1.02979,0,0,1-.30372-.75879A1.04565,1.04565,0,0,1,568.05412,172.93214Z"/><path class="cls-1" d="M584.34708,166.63429l-4.40332,2.42969,4.40332,2.42969v1.74609l-7.19726-3.95508v-.49414l7.19726-3.90234Z"/><path class="cls-1" d="M594.20939,163.36964v-.00683h2.27051v11.3955h-2.27051v-8.35156l-1.51856,1.51856-1.51855-1.51856Z"/><g class="cls-5"><g id="SmallTopDown-8268-Shishkaberry.psd"><g class="cls-6"><image id="SmallTopDown-8268-Shishkaberry" width="4124" height="3466" transform="translate(2.56702 -306.41002) scale(0.09688)" xlink:href="CBD%20-%20Shishkaberry1.png"/></g></g></g></g></svg>