<svg xmlns="http://www.w3.org/2000/svg" xmlns:xlink="http://www.w3.org/1999/xlink" width="970" height="250" viewBox="0 0 970 250"><defs><style>.cls-1{fill:none;}.cls-2{isolation:isolate;}.cls-3{clip-path:url(#clip-path);}.cls-4,.cls-6{mix-blend-mode:multiply;}.cls-5{clip-path:url(#clip-path-2);}.cls-6{opacity:0.70196;}.cls-7{clip-path:url(#clip-path-3);}.cls-8{clip-path:url(#clip-path-4);}.cls-9{fill:#fff;stroke:#ba9544;stroke-miterlimit:10;stroke-width:0.5px;}.cls-10{fill:#ba9544;}.cls-11{clip-path:url(#clip-path-5);}.cls-12{clip-path:url(#clip-path-6);}</style><clipPath id="clip-path"><path class="cls-1" d="M82.52178-91.65381S91.3522-68.106,93.5598-68.106s26.49126,5.88694,26.49126,5.88694l19.86844,1.47174,5.887-11.77389L131.08908-96.80488Z"/></clipPath><clipPath id="clip-path-2"><rect class="cls-1" x="75.77793" y="-102.1764" width="135.53696" height="127.87199"/></clipPath><clipPath id="clip-path-3"><polygon class="cls-1" points="109.472 -48.543 -2.532 -47.55 -0.546 -183.124 109.472 -183.124 109.472 -48.543"/></clipPath><clipPath id="clip-path-4"><rect class="cls-1" x="-46.61894" y="-135.94763" width="160.95692" height="114.34303" transform="translate(77.30825 -4.85486) rotate(-53.70474)"/></clipPath><clipPath id="clip-path-5"><rect class="cls-1" x="17.24025" y="-299.16219" width="383.03219" height="250.51546"/></clipPath><clipPath id="clip-path-6"><rect class="cls-1" x="2.56702" y="-306.41002" width="399.55191" height="335.80187"/></clipPath></defs><title>THC - Durga Mata</title><g class="cls-2"><g id="Terpenes"><g class="cls-3"><g id="LemonBalm_1_GettyImages-539013226.psd" data-name="LemonBalm#1_GettyImages-539013226.psd" class="cls-4"><g class="cls-5"><g id="Single_upside_down" data-name="Single upside down"><image id="Single_upside_down_shadow" data-name="Single upside down shadow" class="cls-4" width="1532" height="912" transform="translate(83.35804 -10.33823) scale(0.02828)" xlink:href="THC%20-%20Durga%20Mata1.png"/><image id="LemonBalm_1-single_upside_down" data-name="LemonBalm#1-single upside down" width="1423" height="822" transform="translate(84.26313 -10.62107) scale(0.02828)" xlink:href="THC%20-%20Durga%20Mata2.png"/></g><g id="Set_of_4" data-name="Set of 4"><image id="Set_of_4_shadow" data-name="Set of 4 shadow" class="cls-6" width="3085" height="1420" transform="translate(120.38181 -29.93905) scale(0.02828)" xlink:href="THC%20-%20Durga%20Mata3.png"/><image id="LemonBalm_1-set_of_4" data-name="LemonBalm#1-set of 4" width="2950" height="1324" transform="translate(121.96571 -30.05219) scale(0.02828)" xlink:href="THC%20-%20Durga%20Mata4.png"/></g></g></g></g><g class="cls-7"><g id="LemonBalm_3_GettyImages-907844178.psd" data-name="LemonBalm#3_GettyImages-907844178.psd" class="cls-4"><g class="cls-8"><image id="Shadow" class="cls-4" width="4105" height="5787" transform="matrix(0.02154, 0.01582, -0.01582, 0.02154, 33.85004, -172.99749)" xlink:href="THC%20-%20Durga%20Mata5.png"/><image id="Lemon_Balm_3" data-name="Lemon Balm #3" width="3974" height="5704" transform="matrix(0.02154, 0.01582, -0.01582, 0.02154, 35.22607, -172.25217)" xlink:href="THC%20-%20Durga%20Mata6.png"/></g></g></g></g><g id="Content"><polygon class="cls-9" points="640.867 98.727 408.265 97.846 396.523 114.779 408.265 131.411 640.867 131.014 651.435 114.872 640.867 98.727"/><polygon class="cls-10" points="408.435 97.846 396.693 114.779 408.435 131.411 431.707 131.411 431.45 97.846 408.435 97.846"/><path class="cls-10" d="M541.39652,109.229v2.126h-3.7959v9.2627h-2.27734V111.355H531.5264v-2.126Z"/><path class="cls-10" d="M543.08988,120.61769V109.229h2.27832v4.55566h5.30664v-4.5625h2.27735v11.3877l-2.27735.00781v-4.707H545.3682v4.707Z"/><path class="cls-10" d="M556.48539,118.982a5.697,5.697,0,0,1,4.05078-9.75293,6.16429,6.16429,0,0,1,4.18359,1.51855l-1.51855,1.66309a4.19974,4.19974,0,0,0-2.665-.91113,3.34363,3.34363,0,0,0-2.47168.957,3.30924,3.30924,0,0,0-.9375,2.42871,3.41107,3.41107,0,0,0,.94922,2.52051,3.36174,3.36174,0,0,0,2.47558.93457,4.0863,4.0863,0,0,0,2.64942-.90332l1.51855,1.6621a6.14207,6.14207,0,0,1-4.18359,1.51856A5.54377,5.54377,0,0,1,556.48539,118.982Z"/><path class="cls-10" d="M567.27054,113.356a1.10108,1.10108,0,0,1,.82032-.30762,1.14292,1.14292,0,0,1,.85058.30762,1.10584,1.10584,0,0,1,0,1.52246,1.30094,1.30094,0,0,1-1.6709,0,1.10584,1.10584,0,0,1,0-1.52246Zm0,5.43555a1.10108,1.10108,0,0,1,.82032-.30762,1.14292,1.14292,0,0,1,.85058.30762,1.04565,1.04565,0,0,1,.30371.76367,1.0298,1.0298,0,0,1-.30371.75879,1.30094,1.30094,0,0,1-1.6709,0,1.02984,1.02984,0,0,1-.30371-.75879A1.04569,1.04569,0,0,1,567.27054,118.79152Z"/><path class="cls-10" d="M581.77933,109.23683v-.01465h2.27051v6.62012h1.5332v2.26953h-1.5332v2.50586h-2.27051v-2.50586h-5.16992V115.8423h.07617l-.06836-.07617Zm0,6.60547v-3.62891l-2.7705,3.62891Z"/><path class="cls-10" d="M587.32133,117.57277V116.062h4.707v1.51074Z"/><path class="cls-10" d="M600.42582,114.84718c.13672.05078.25976.10156.37207.15235a2.232,2.232,0,0,1,1.17676,2.27734,2.92293,2.92293,0,0,1-1.10547,2.54394,5.47079,5.47079,0,0,1-5.68653,0,2.92483,2.92483,0,0,1-1.10449-2.54394,2.232,2.232,0,0,1,1.17676-2.27734q.167-.07618.37207-.15235c-.08105-.04-.1543-.07812-.21973-.11328a2.25177,2.25177,0,0,1-1.02539-2.16406,3.11594,3.11594,0,0,1,.99121-2.46778,4.46844,4.46844,0,0,1,5.30664,0,3.11912,3.11912,0,0,1,.99122,2.46778,2.25176,2.25176,0,0,1-1.0254,2.16406C600.58012,114.76906,600.5059,114.80714,600.42582,114.84718ZM598.0264,113.815q1.002-.03075,1.291-.52343a1.217,1.217,0,0,0,0-1.291,1.46176,1.46176,0,0,0-1.291-.63769,1.439,1.439,0,0,0-1.2832.63769,1.19313,1.19313,0,0,0,0,1.291Q597.02445,113.78517,598.0264,113.815Zm0,2.0879a1.69406,1.69406,0,0,0-1.2832.65332,1.19145,1.19145,0,0,0,0,1.29,1.43694,1.43694,0,0,0,1.2832.6377,1.45959,1.45959,0,0,0,1.291-.6377,1.21526,1.21526,0,0,0,0-1.29A1.72225,1.72225,0,0,0,598.0264,115.90285Z"/><path class="cls-10" d="M604.62406,114.03566a2.936,2.936,0,1,1,2.03516.81933A2.767,2.767,0,0,1,604.62406,114.03566Zm2.0127-.53223a1.35447,1.35447,0,0,0,1.04-.43262,1.64039,1.64039,0,0,0,0-2.15234,1.37148,1.37148,0,0,0-1.04785-.42871,1.3541,1.3541,0,0,0-1.0332.42871,1.64042,1.64042,0,0,0,0,2.15234A1.35515,1.35515,0,0,0,606.63676,113.50343Zm-.60743,7.11426,6.45313-11.38867H614.335l-6.43848,11.38867Zm5.65625-.75195a2.91489,2.91489,0,1,1,2.01954.8125A2.73942,2.73942,0,0,1,611.68558,119.86574Zm1.98145-.55371a1.32829,1.32829,0,0,0,1.0166-.42188,1.58453,1.58453,0,0,0,0-2.09473,1.338,1.338,0,0,0-1.02441-.42187,1.32078,1.32078,0,0,0-1.00977.42187,1.58748,1.58748,0,0,0,0,2.09473A1.33043,1.33043,0,0,0,613.667,119.312Z"/><g class="cls-11"><g id="SmallTopDown-8297-DurgaMata2.psd"><g class="cls-12"><image id="SmallTopDown-8297-DurgaMata2" width="4124" height="3466" transform="translate(2.56702 -306.41002) scale(0.09688)" xlink:href="THC%20-%20Durga%20Mata7.png"/></g></g></g></g></g></svg>