<svg id="Layer_1" data-name="Layer 1" xmlns="http://www.w3.org/2000/svg" width="728" height="90" viewBox="0 0 728 90"><defs><style>.cls-1{fill:#ab9555;}</style></defs><title>frame2</title><path class="cls-1" d="M401.65829,61.05088a6.72954,6.72954,0,0,1-6.75874-6.74591V32.2786h4.18939V54.25916a2.34658,2.34658,0,0,0,.72389,1.72817,2.38312,2.38312,0,0,0,1.73733.71655,2.434,2.434,0,0,0,2.44656-2.44472V32.2786h4.46978V54.305a6.44352,6.44352,0,0,1-1.9939,4.79783A6.64221,6.64221,0,0,1,401.65829,61.05088Z"/><path class="cls-1" d="M432.27578,56.42349h4.28286v4.28286h-4.28286Z"/><path class="cls-1" d="M306.162,61.0438H294.33023V32.269h4.33738V56.738H306.162Z"/><path class="cls-1" d="M321.78918,31.92191a6.88164,6.88164,0,0,1,6.8949,6.8949V54.51267a6.88164,6.88164,0,0,1-6.8949,6.8949,6.56343,6.56343,0,0,1-4.84963-2.01928,6.68532,6.68532,0,0,1-1.997-4.87562V38.81681a6.88177,6.88177,0,0,1,6.84664-6.8949Zm2.36635,6.81324a2.4496,2.4496,0,0,0-2.47585-2.47586,2.42557,2.42557,0,0,0-1.75945.71826,2.3664,2.3664,0,0,0-.73311,1.7576V54.483a2.37644,2.37644,0,0,0,.73311,1.75017,2.416,2.416,0,0,0,1.75945.72383,2.4588,2.4588,0,0,0,2.47585-2.474Z"/><path class="cls-1" d="M345.08521,31.92191a6.88164,6.88164,0,0,1,6.893,6.8949V54.51267a6.86993,6.86993,0,1,1-13.73968,0V38.81681a6.88176,6.88176,0,0,1,6.84664-6.8949Zm2.36635,6.81324a2.4527,2.4527,0,0,0-2.47771-2.47586,2.42861,2.42861,0,0,0-1.75945.71826,2.36639,2.36639,0,0,0-.7331,1.7576V54.483a2.37643,2.37643,0,0,0,.7331,1.75017,2.419,2.419,0,0,0,1.75945.72383,2.46193,2.46193,0,0,0,2.47771-2.474Z"/><path class="cls-1" d="M365.93508,51.957V61.0438h-4.33924V32.269h4.33924V42.52316L371.20416,32.269h4.638l-5.93165,11.76865,6.9413,17.00617h-5.09647L367.212,49.38465Z"/><path class="cls-1" d="M401.3227,61.40757a6.8152,6.8152,0,0,1-6.84479-6.83179V32.269h4.24273v22.2604a2.37644,2.37644,0,0,0,.73311,1.75017,2.41342,2.41342,0,0,0,1.75945.72568,2.465,2.465,0,0,0,2.47771-2.47585V32.269h4.52669v22.3068a6.52555,6.52555,0,0,1-2.01929,4.8589A6.72674,6.72674,0,0,1,401.3227,61.40757Z"/><path class="cls-1" d="M424.71524,32.269a6.58417,6.58417,0,0,1,5.04821,2.00443,6.90644,6.90644,0,0,1,1.752,4.85891V43.312a6.68171,6.68171,0,0,1-1.98588,4.8589,6.48748,6.48748,0,0,1-4.80323,2.01929h-2.50369V61.0438H417.8853V32.269Zm2.58721,6.94129a2.50286,2.50286,0,0,0-.66815-1.82255A2.40269,2.40269,0,0,0,424.834,36.701h-2.61134v9.19815H424.834a2.357,2.357,0,0,0,1.752-.73311,2.43436,2.43436,0,0,0,.7164-1.75945Z"/></svg>