<svg id="Layer_1" data-name="Layer 1" xmlns="http://www.w3.org/2000/svg" xmlns:xlink="http://www.w3.org/1999/xlink" width="728" height="90" viewBox="0 0 728 90"><defs><style>.cls-1{fill:url(#New_Gradient_Swatch_2);}.cls-2{fill:url(#New_Gradient_Swatch_2-2);}.cls-3{fill:url(#New_Gradient_Swatch_2-3);}.cls-4{fill:url(#New_Gradient_Swatch_2-4);}.cls-5{fill:url(#New_Gradient_Swatch_2-5);}.cls-6{fill:url(#New_Gradient_Swatch_2-6);}.cls-7{fill:url(#New_Gradient_Swatch_2-7);}.cls-8{fill:url(#New_Gradient_Swatch_2-8);}.cls-9{fill:url(#New_Gradient_Swatch_2-9);}.cls-10{fill:#ab9555;}.cls-11{fill:url(#New_Gradient_Swatch_2-10);}.cls-12{fill:url(#linear-gradient);}.cls-13{fill:url(#linear-gradient-2);}.cls-14{fill:url(#linear-gradient-3);}.cls-15{fill:url(#linear-gradient-4);}.cls-16{fill:url(#linear-gradient-5);}.cls-17{fill:url(#linear-gradient-6);}.cls-18{fill:url(#linear-gradient-7);}.cls-19{fill:url(#linear-gradient-8);}.cls-20{fill:url(#linear-gradient-9);}.cls-21{fill:url(#linear-gradient-10);}.cls-22{fill:url(#linear-gradient-11);}</style><linearGradient id="New_Gradient_Swatch_2" x1="88.13573" y1="66.41227" x2="94.56475" y2="66.41227" gradientUnits="userSpaceOnUse"><stop offset="0" stop-color="#ab8d34"/><stop offset="0.1878" stop-color="#cdb267"/><stop offset="0.46098" stop-color="#a38d4a"/><stop offset="0.76341" stop-color="#cdb267"/><stop offset="1" stop-color="#987f2e"/></linearGradient><linearGradient id="New_Gradient_Swatch_2-2" x1="61.99315" y1="66.41227" x2="70.73832" y2="66.41227" xlink:href="#New_Gradient_Swatch_2"/><linearGradient id="New_Gradient_Swatch_2-3" x1="71.50264" y1="66.41214" x2="78.15369" y2="66.41214" xlink:href="#New_Gradient_Swatch_2"/><linearGradient id="New_Gradient_Swatch_2-4" x1="36.7597" y1="34.31552" x2="90.53442" y2="34.31552" xlink:href="#New_Gradient_Swatch_2"/><linearGradient id="New_Gradient_Swatch_2-5" x1="79.2737" y1="66.41223" x2="86.85811" y2="66.41223" xlink:href="#New_Gradient_Swatch_2"/><linearGradient id="New_Gradient_Swatch_2-6" x1="32.72933" y1="66.41227" x2="40.54708" y2="66.41227" xlink:href="#New_Gradient_Swatch_2"/><linearGradient id="New_Gradient_Swatch_2-7" x1="51.95281" y1="66.41227" x2="60.70963" y2="66.41227" xlink:href="#New_Gradient_Swatch_2"/><linearGradient id="New_Gradient_Swatch_2-8" x1="41.90052" y1="66.41227" x2="50.64573" y2="66.41227" xlink:href="#New_Gradient_Swatch_2"/><linearGradient id="New_Gradient_Swatch_2-9" x1="94.91533" y1="60.04353" x2="98.61986" y2="60.04353" xlink:href="#New_Gradient_Swatch_2"/><linearGradient id="New_Gradient_Swatch_2-10" x1="650.73842" y1="76.90915" x2="710.19958" y2="17.44799" xlink:href="#New_Gradient_Swatch_2"/><linearGradient id="linear-gradient" x1="649.61042" y1="47.17857" x2="653.7373" y2="47.17857" gradientUnits="userSpaceOnUse"><stop offset="0" stop-color="#231f20"/><stop offset="0.23973" stop-color="#171415"/><stop offset="0.67302" stop-color="#060505"/><stop offset="1"/></linearGradient><linearGradient id="linear-gradient-2" x1="655.28561" y1="47.17857" x2="659.53948" y2="47.17857" xlink:href="#linear-gradient"/><linearGradient id="linear-gradient-3" x1="660.81217" y1="47.17857" x2="664.93906" y2="47.17857" xlink:href="#linear-gradient"/><linearGradient id="linear-gradient-4" x1="666.24293" y1="47.17857" x2="671.00472" y2="47.17857" xlink:href="#linear-gradient"/><linearGradient id="linear-gradient-5" x1="671.94034" y1="47.17857" x2="676.70213" y2="47.17857" xlink:href="#linear-gradient"/><linearGradient id="linear-gradient-6" x1="678.0008" y1="47.17857" x2="681.49971" y2="47.17857" xlink:href="#linear-gradient"/><linearGradient id="linear-gradient-7" x1="682.97789" y1="47.17857" x2="687.03205" y2="47.17857" xlink:href="#linear-gradient"/><linearGradient id="linear-gradient-8" x1="690.78953" y1="47.17857" x2="695.55479" y2="47.17857" xlink:href="#linear-gradient"/><linearGradient id="linear-gradient-9" x1="696.78247" y1="47.17857" x2="701.54426" y2="47.17857" xlink:href="#linear-gradient"/><linearGradient id="linear-gradient-10" x1="702.77194" y1="47.17857" x2="706.8261" y2="47.17857" xlink:href="#linear-gradient"/><linearGradient id="linear-gradient-11" x1="707.82867" y1="47.17857" x2="711.32758" y2="47.17857" xlink:href="#linear-gradient"/></defs><title>background</title><polygon class="cls-1" points="94.565 63.67 94.565 62.037 88.136 62.043 88.136 70.788 94.553 70.788 94.553 69.154 89.886 69.154 89.886 67.165 93.392 67.165 93.392 65.537 89.886 65.537 89.886 63.67 94.565 63.67"/><path class="cls-2" d="M67.2439,62.03677H65.49357l-3.50042,8.751h1.86669l.52511-1.34183h3.96714l.52511,1.34183,1.86112-.006Zm-2.15859,5.65905,1.33027-3.32564,1.295,3.32564Z"/><path class="cls-3" d="M77.24933,66.26643a4.33932,4.33932,0,0,0-2.01277-.72911,2.307,2.307,0,0,1-1.34187-.52533.68279.68279,0,0,1,0-.846q.292-.49564,1.34187-.49565a2.00972,2.00972,0,0,1,1.63373.6999l1.16658-1.16683a4.08224,4.08224,0,0,0-1.25422-.87515,4.884,4.884,0,0,0-1.89038-.29164,3.50293,3.50293,0,0,0-2.04466.703,2.17745,2.17745,0,0,0-.99468,1.86405,1.93643,1.93643,0,0,0,.875,1.80855,4.70332,4.70332,0,0,0,1.92538.64172q1.16656.11673,1.45554.6125a.92449.92449,0,0,1,0,.992q-.28864.49565-1.45554.49564a2.77151,2.77151,0,0,1-1.98359-.81671l-1.16705,1.167a4.416,4.416,0,0,0,1.40026.93341,5.18235,5.18235,0,0,0,2.03619.34982,3.53388,3.53388,0,0,0,2.24891-.75833,2.24309,2.24309,0,0,0,.96569-1.80851A2.19037,2.19037,0,0,0,77.24933,66.26643Z"/><path class="cls-4" d="M60.37805,52.33779c.5844-.17236,1.64445.81854,1.71334.81854a1.26456,1.26456,0,0,0,.35339-.81607c0-.34987-.24971-1.03037-.29654-1.44219a6.8587,6.8587,0,0,0-.24907-1.19312c-.09118-.27114-.72486-.38932-1.0649-.59915a5.55482,5.55482,0,0,1-.858-.594,2.71418,2.71418,0,0,1-.36479-1.24483,4.89375,4.89375,0,0,0-.20467-1.26715c-.1184-.22186-.42276-.37861-.62858-.58444a.88494.88494,0,0,1-.212-.54472c.15786-.04928.20715.35744.38954.392s.17011.18482.456.28339c.28607.09854.29589.23432.33289.50058s.35743,1.1659.46337,1.53315c.10614.36747.21692.64372.5795.656.36232.01229.313.19957.73936.16526a2.387,2.387,0,0,1,1.02322.19706c.22922.0814.51776.08875.61629-.07131.09858-.16033-.0691-.8063-.0691-.8063-.14782,0-.17262-.19953-.22922-.38439-.05664-.18508.03453-.19979.03453-.19979a.78128.78128,0,1,1,1.48906,0s.09117.01471.03453.19979c-.05686.18486-.0814.38439-.22943.38439,0,0-.16747.646-.06889.8063.09853.16006.38707.15271.61628.07131a2.38676,2.38676,0,0,1,1.023-.19706c.42654.03431.37725-.153.73958-.16526.36257-.01225.4734-.2885.57929-.656.10614-.36725.42654-1.26694.46358-1.53315s.04682-.402.33289-.50058c.28586-.09857.27357-.24882.456-.28339s.23189-.44129.38954-.392a.88646.88646,0,0,1-.212.54472c-.20583.20583-.51019.36258-.62858.58444a4.89411,4.89411,0,0,0-.20468,1.26715,2.71406,2.71406,0,0,1-.36479,1.24483,5.55581,5.55581,0,0,1-.858.594c-.34025.20983-.97372.328-1.06489.59915a6.8318,6.8318,0,0,0-.24908,1.19312c-.04682.41182-.29653,1.09232-.29653,1.44219a1.26451,1.26451,0,0,0,.35339.81607c.06889,0,1.12915-.9909,1.71334-.81854.58418.17283.35249.99111-.254,1.59737a2.59733,2.59733,0,0,1-1.25648.78354,6.80374,6.80374,0,0,1,.95391.17836,10.21111,10.21111,0,0,1,2.72469,1.5548,9.89959,9.89959,0,0,0,2.42952,1.41854,2.072,2.072,0,0,0,.235.05154c.08339-.06982.52039-.322.52039-.322a9.77621,9.77621,0,0,0,1.09794.46983L70.56945,55.9125,76.115,58.32662c.09117.03947.18282.07583.274.10836l3.35191.05975c.87986.01607,1.7488-.0225,2.55548-.08493-.65014-.40115-1.35433-.80161-2.10908-1.17061l-2.941-1.4382c-.09789-.01246-.198-.02186-.29968-.02785L70.536,55.38806l4.16557-.724-2.70042-.87893,4.62153-.03033a15.68744,15.68744,0,0,0,3.15511-.347l-4.36808-.83189,6.40155-.28429A6.28166,6.28166,0,0,0,82.8829,52.155l-.48608.05886,4.22489-1.98223a37.75273,37.75273,0,0,0,3.91271-2.15081,41.288,41.288,0,0,0-4.5765-.27714l-4.80193.01093.5349-.175a6.01436,6.01436,0,0,0-1.13315.34961l-5.602,2.33477,3.3901-2.52584-.02585.00425-.0774-.58244-.61608-1.01607a20.29859,20.29859,0,0,0,4.616-4.76536l-4.52925,2.16841,4.61485-3.8436a7.6007,7.6007,0,0,0,1.46537-1.58869c.59511-.89947,1.14765-1.821,1.65159-2.75395l-1.43041,1.41255,1.71465-3.72989a49.25917,49.25917,0,0,0,2.537-7.01426,59.70868,59.70868,0,0,0-6.79841,4.38006l-3.3571,2.54413,1.07073-1.66851c-.86847.73851-1.70819,1.518-2.50956,2.32984a7.35566,7.35566,0,0,0-1.23568,1.73162l-2.45206,4.69625.87094-4.28643a20.26534,20.26534,0,0,0-1.94256,2.32338l-.42743.59621-.39175-.26889a1.12209,1.12209,0,0,0-.06064.10189l-3.368,6.38684,1.98623-6.9418a22.03586,22.03586,0,0,0,.65886-8.71157l-2.31934,4.31054,1.12333-5.18547a8.442,8.442,0,0,0,.17547-2.58759,41.77537,41.77537,0,0,0-.89123-5.23472L68.09247,23.15l-1.00694-3.71066a63.13733,63.13733,0,0,0-3.43845-9.30668,63.074,63.074,0,0,0-3.4385,9.30668L59.20186,23.15,58.896,20.60481a41.8137,41.8137,0,0,0-.89122,5.23472,8.44639,8.44639,0,0,0,.17546,2.5878l1.122,5.187-2.318-4.31164a22.03233,22.03233,0,0,0,.65886,8.71089l1.98648,6.94222-3.36824-6.38726a1.07336,1.07336,0,0,0-.06065-.10189l-.39175.26889-.42743-.59621A20.26751,20.26751,0,0,0,53.43893,35.816l.87115,4.28643-2.45227-4.69625a7.36043,7.36043,0,0,0-1.23547-1.73162c-.79979-.8103-1.63841-1.5887-2.506-2.32627l1.07314,1.66983-3.36331-2.549a59.67751,59.67751,0,0,0-6.7984-4.38006,49.25139,49.25139,0,0,0,2.53694,7.01426l1.7147,3.72989L41.849,35.42063c.50393.93294,1.05669,1.85448,1.6518,2.75395A7.59385,7.59385,0,0,0,44.966,39.76327l4.61486,3.8436-4.52925-2.16841a20.29361,20.29361,0,0,0,4.616,4.76536l-.61607,1.01607-.0774.58244-.02607-.00425,3.39053,2.526-5.60219-2.335a6.05161,6.05161,0,0,0-1.13268-.34961l.53468.175-4.80218-.01093a41.291,41.291,0,0,0-4.5765.27714,37.75169,37.75169,0,0,0,3.91271,2.15081l4.22488,1.982-.48586-.05885a6.255,6.255,0,0,0,1.07141.13689l6.4015.28429-4.368.83189a15.6887,15.6887,0,0,0,3.15506.347l4.63378.03033-2.70977.87939,4.1631.72354-6.41086.38508q-.15289.009-.29994.02785l-2.94145,1.4382c-.75428.369-1.45843.76946-2.10861,1.17061.80693.06243,1.67561.10075,2.55548.08493l3.352-.05975c.09118-.03253.18282-.06889.27425-.10836l5.54533-2.41412L53.927,58.06976a9.77542,9.77542,0,0,0,1.09794-.46983s.43658.25176.52.32176a2.04547,2.04547,0,0,0,.23521-.05129,9.896,9.896,0,0,0,2.42978-1.41854,10.21233,10.21233,0,0,1,2.72469-1.5548,6.80262,6.80262,0,0,1,.95391-.17836,2.59728,2.59728,0,0,1-1.25648-.78354C60.02555,53.3289,59.79366,52.51062,60.37805,52.33779Z"/><polygon class="cls-5" points="79.274 63.67 82.191 63.67 82.191 70.788 83.941 70.788 83.941 63.67 86.858 63.67 86.858 62.037 79.274 62.037 79.274 63.67"/><polygon class="cls-6" points="38.797 67.521 33.313 62.037 32.729 62.037 32.729 70.788 34.48 70.788 34.48 65.362 39.906 70.788 40.547 70.788 40.547 62.037 38.797 62.037 38.797 67.521"/><polygon class="cls-7" points="56.328 66.354 52.536 62.037 51.953 62.037 51.953 70.788 53.703 70.788 53.703 65.712 56.328 68.629 58.953 65.712 58.96 70.788 60.71 70.788 60.71 62.037 60.126 62.037 56.328 66.354"/><path class="cls-8" d="M47.1511,62.03677H45.401l-3.50045,8.751h1.86673l.52511-1.34183H48.2595l.52532,1.34183,1.86091-.006Zm-2.15838,5.65905,1.33-3.32564,1.29505,3.32564Z"/><path class="cls-9" d="M95.82181,59.39105v1.58846H95.5063V59.39105h-.591v-.28351h1.50006v.28351Zm2.50648,1.58846-.00261-1.39858-.591,1.20326h-.206l-.591-1.20326v1.39858H96.641v-1.872h.3743L97.633,60.3511l.61513-1.24356h.3717v1.872Z"/><path class="cls-10" d="M47.45522,77.06316a1.23479,1.23479,0,0,1-.70734,2.296l-2.4467-.0029V75.01071h2.30755q1.09891.064,1.15958,1.27843A.91008.91008,0,0,1,47.45522,77.06316ZM45.17376,76.753h1.21755a.49072.49072,0,0,0,.53921-.5421q-.01429-.31868-.53051-.33627H45.17376Zm0,1.9249h1.42048a.56749.56749,0,0,0,.62617-.62907q-.01429-.41745-.61747-.43484H45.17376Z"/><path class="cls-10" d="M48.67278,75.00781H49.6932L50.702,76.42829l1.032-1.42048h.99723L51.13687,77.182v2.1742h-.86968V77.182Z"/><path class="cls-10" d="M58.81326,79.35622H55.33164l.0029-.28989,2.02635-3.24681H55.33454l-.0029-.81171h3.48162v.31889l-2.035,3.21782h2.035Z"/><path class="cls-10" d="M59.90575,79.35622V75.01071l3.19463-.0029v.81171h-2.325v.92766h1.74226v.8088H60.77543v.98854h2.31915v.8117Z"/><path class="cls-10" d="M63.97586,79.35622V75.00781h.28989l2.725,2.725v-2.725h.86968v4.34841h-.31888l-2.696-2.696v2.696Z"/><path class="cls-10" d="M68.533,79.35622l1.73936-4.34841H71.142l1.736,4.34551-.92435.0029-.2609-.66676H69.72155l-.2609.66676Zm2.19739-3.18883-.661,1.65239h1.30453Z"/><path class="cls-10" d="M76.61523,77.06316a1.23493,1.23493,0,0,1-.70734,2.296l-2.44671-.0029V75.01071h2.30756q1.09829.064,1.15957,1.27843A.91237.91237,0,0,1,76.61523,77.06316ZM74.33335,76.753H75.5509a.49035.49035,0,0,0,.5392-.5421c-.00911-.21245-.18636-.32468-.53009-.33627H74.33335Zm0,1.9249h1.42048A.56713.56713,0,0,0,76.38,78.0488q-.01366-.41745-.61706-.43484H74.33335Z"/><path class="cls-10" d="M78.08789,75.00491h.86637v4.35131h-.86637Z"/><path class="cls-10" d="M82.18119,75.15276a2.01848,2.01848,0,0,1,.62285.43484l-.57978.57979a.998.998,0,0,0-.81171-.34787q-.52181,0-.66675.24641a.34071.34071,0,0,0,0,.42034,1.14664,1.14664,0,0,0,.66675.26091,2.15726,2.15726,0,0,1,1.00055.36236,1.08973,1.08973,0,0,1,.44892.97115,1.11533,1.11533,0,0,1-.47956.89867,1.7559,1.7559,0,0,1-1.11734.37686,2.57746,2.57746,0,0,1-1.01214-.17394,2.20341,2.20341,0,0,1-.69575-.46383l.57979-.57978a1.37855,1.37855,0,0,0,.98564.40585q.5802,0,.72308-.24641a.45733.45733,0,0,0,0-.49282q-.14288-.24662-.72308-.30439A2.33626,2.33626,0,0,1,80.166,77.182a.962.962,0,0,1-.43484-.89867,1.08142,1.08142,0,0,1,.49448-.926,1.7402,1.7402,0,0,1,1.01628-.34953A2.43267,2.43267,0,0,1,82.18119,75.15276Z"/><rect class="cls-10" x="32.72933" y="77.1197" width="7.81775" height="0.95192"/><rect class="cls-10" x="86.74699" y="77.1197" width="7.81775" height="0.95192"/><rect class="cls-11" x="632.30903" y="35.87738" width="96.31994" height="22.60238"/><path class="cls-12" d="M650.56278,44.79767v2.76184a.95564.95564,0,0,0,.31745.79363,1.367,1.367,0,0,0,1.58726,0,.95565.95565,0,0,0,.31746-.79363V44.79767h.95235v3.0158a1.57731,1.57731,0,0,1-.58728,1.23807,2.399,2.399,0,0,1-2.95231,0,1.57729,1.57729,0,0,1-.58729-1.23807v-3.0158Z"/><path class="cls-13" d="M655.28561,49.55946V44.79767h.31745l2.98406,2.98406V44.79767h.95236v4.76179h-.34862L656.238,46.60715v2.95231Z"/><path class="cls-14" d="M661.49614,48.8755a2.38185,2.38185,0,0,1,1.69347-4.07783,2.57715,2.57715,0,0,1,1.74945.63491l-.6349.69522a1.75768,1.75768,0,0,0-1.11455-.38095,1.35716,1.35716,0,0,0-1.42508,1.41584,1.42534,1.42534,0,0,0,.39653,1.054,1.40555,1.40555,0,0,0,1.0349.39046,1.70742,1.70742,0,0,0,1.1082-.37776l.6349.69522a2.56894,2.56894,0,0,1-1.74945.6349A2.31692,2.31692,0,0,1,661.49614,48.8755Z"/><path class="cls-15" d="M666.92574,48.8755a2.45249,2.45249,0,1,1,1.69866.684A2.30864,2.30864,0,0,1,666.92574,48.8755Zm1.70155-.2049a1.337,1.337,0,0,0,1.02854-.42857,1.62433,1.62433,0,0,0,0-2.12693,1.45616,1.45616,0,0,0-2.06344,0,1.62254,1.62254,0,0,0,0,2.12693A1.34478,1.34478,0,0,0,668.62729,48.6706Z"/><path class="cls-16" d="M672.95619,44.79767l1.35292,3.48881,1.37717-3.48881h1.01585l-1.90125,4.76179h-.95236l-1.90818-4.76179Z"/><path class="cls-17" d="M678.0008,49.55946V44.80085l3.49891-.00318v.88887h-2.54655v1.01585h1.90818v.88569h-1.90818V48.6706h2.53962v.88886Z"/><path class="cls-18" d="M685.84477,47.48332l1.18728,2.07614H685.94l-1.13937-1.9682h-.8704v1.9682h-.95235V44.79767h2.07671q1.66576,0,1.66634,1.3714A1.2315,1.2315,0,0,1,685.84477,47.48332Zm-1.91453-.78093h1.33331q.57487-.00952.591-.5238-.01646-.46968-.58123-.48888h-1.34312Z"/><path class="cls-19" d="M690.78953,49.55946V44.79767h.31746l2.064,2.34915,2.06633-2.34915h.31745v4.76179h-.95236l-.00346-2.76184-1.428,1.58727-1.42912-1.58727v2.76184Z"/><path class="cls-20" d="M697.46528,48.8755a2.45249,2.45249,0,1,1,1.69866.684A2.30864,2.30864,0,0,1,697.46528,48.8755Zm1.70155-.2049a1.337,1.337,0,0,0,1.02854-.42857,1.62433,1.62433,0,0,0,0-2.12693,1.45616,1.45616,0,0,0-2.06344,0,1.62254,1.62254,0,0,0,0,2.12693A1.34478,1.34478,0,0,0,699.16683,48.6706Z"/><path class="cls-21" d="M705.63882,47.48332l1.18728,2.07614h-1.092l-1.13937-1.9682h-.8704v1.9682h-.95235V44.79767h2.07671q1.66576,0,1.66634,1.3714A1.2315,1.2315,0,0,1,705.63882,47.48332Zm-1.91453-.78093h1.33331q.57487-.00952.591-.5238-.01646-.46968-.58123-.48888h-1.34312Z"/><path class="cls-22" d="M707.82867,49.55946V44.80085l3.49891-.00318v.88887H708.781v1.01585h1.90818v.88569H708.781V48.6706h2.53962v.88886Z"/></svg>