<svg id="Layer_1" data-name="Layer 1" xmlns="http://www.w3.org/2000/svg" xmlns:xlink="http://www.w3.org/1999/xlink" width="60.4085" height="55.6087" viewBox="0 0 60.4085 55.6087"><defs><style>.cls-1{fill:url(#New_Gradient_Swatch_1);}.cls-2{fill:url(#New_Gradient_Swatch_1-2);}</style><linearGradient id="New_Gradient_Swatch_1" y1="27.8043" x2="56.6908" y2="27.8043" gradientUnits="userSpaceOnUse"><stop offset="0" stop-color="#ac8e34"/><stop offset="0.1878" stop-color="#ceb367"/><stop offset="0.461" stop-color="#a48e4a"/><stop offset="0.7634" stop-color="#ceb367"/><stop offset="1" stop-color="#997f2e"/></linearGradient><linearGradient id="New_Gradient_Swatch_1-2" x1="63.703" y1="42.0404" x2="54.0952" y2="49.1952" xlink:href="#New_Gradient_Swatch_1"/></defs><title>logo</title><path class="cls-1" d="M0,47.5857H.5349l5.0277,5.0276V47.5857H7.1673v8.023H6.5792L1.6046,50.6345v4.9742H0Zm13.2219,0,3.2039,8.0175-1.7061.0055-.4816-1.23H10.601l-.4814,1.23H8.4082l3.2092-8.023ZM13.65,52.774l-1.1872-3.049-1.2194,3.049Zm4.5092-5.1883h-.5348v8.023h1.6047V50.9554L21.6357,53.63l2.4066-2.6743.0056,4.6533h1.6045v-8.023h-.5348l-3.4819,3.9579Zm13.4841,0,3.2037,8.0175-1.7063.0055-.4814-1.23H29.0219l-.4814,1.23H26.8291l3.2092-8.023Zm.4279,5.1883-1.1873-3.049-1.22,3.049Zm6.365,1.337a2.5415,2.5415,0,0,1-1.8185-.7488l-1.07,1.07a4.0486,4.0486,0,0,0,1.2838.8557,4.7494,4.7494,0,0,0,1.8668.3208,3.24,3.24,0,0,0,2.0618-.6953,2.0566,2.0566,0,0,0,.8853-1.658,2.0083,2.0083,0,0,0-.8291-1.7918,3.98,3.98,0,0,0-1.8453-.6685,2.1138,2.1138,0,0,1-1.23-.4816.6257.6257,0,0,1,0-.7755q.2676-.4545,1.23-.4545a1.8426,1.8426,0,0,1,1.4978.6417l1.0695-1.07a3.7431,3.7431,0,0,0-1.15-.8024,4.4781,4.4781,0,0,0-1.7331-.2674,3.2116,3.2116,0,0,0-1.8745.6446,1.9963,1.9963,0,0,0-.9119,1.7089,1.7754,1.7754,0,0,0,.8021,1.6581,4.3122,4.3122,0,0,0,1.7652.5883q1.0695.1071,1.3345.5616a.8475.8475,0,0,1,0,.9094Q39.5058,54.111,38.4359,54.111Zm8.515,1.4976V49.0833h2.6744V47.5857H42.6719v1.4976h2.6743v6.5253Zm9.74-6.5253V47.5857l-5.8941.0054v8.0176H56.68V54.1111H52.4014V52.2872h3.2145V50.7949H52.4014V49.0833ZM48.8,34.5368l-4.4024.01.49-.16a5.5085,5.5085,0,0,0-1.0388.32l-5.1359,2.1405,3.108-2.3157-.0237.0039-.071-.534-.5648-.9315a18.6113,18.6113,0,0,0,4.232-4.3689l-4.1525,1.988,4.231-3.5238a6.97,6.97,0,0,0,1.3434-1.4565c.5456-.8247,1.0522-1.6695,1.5142-2.5248l-1.3114,1.295,1.572-3.42a45.1662,45.1662,0,0,0,2.3259-6.4307,54.7448,54.7448,0,0,0-6.2328,4.0157l-3.0778,2.3324.9817-1.53c-.7963.6771-1.5661,1.3917-2.3008,2.136a6.7451,6.7451,0,0,0-1.1329,1.5876l-2.248,4.3055.7984-3.93a18.5853,18.5853,0,0,0-1.7809,2.13l-.3919.5466-.3591-.2465a1.0166,1.0166,0,0,0-.0556.0934l-3.0878,5.8554,1.821-6.3642a20.2023,20.2023,0,0,0,.604-7.9868l-2.1264,3.9519,1.03-4.754A7.74,7.74,0,0,0,33.5183,14.4a38.2913,38.2913,0,0,0-.8171-4.7992l-.28,2.3334-.9232-3.4019A57.8706,57.8706,0,0,0,28.3454,0,57.8364,57.8364,0,0,0,25.193,8.5324L24.27,11.9343l-.28-2.3334A38.3461,38.3461,0,0,0,23.1725,14.4a7.7461,7.7461,0,0,0,.1609,2.3725l1.0287,4.7554-2.1252-3.9529a20.1993,20.1993,0,0,0,.6041,7.9862l1.8212,6.3646L21.5742,26.07a1.0166,1.0166,0,0,0-.0556-.0934l-.3592.2465-.3919-.5466a18.5686,18.5686,0,0,0-1.7809-2.13l.7987,3.93L17.537,23.1708a6.7465,6.7465,0,0,0-1.1327-1.5876c-.7332-.7428-1.5021-1.4565-2.2975-2.1327l.9839,1.5309-3.0835-2.3369a54.7173,54.7173,0,0,0-6.2328-4.0157A45.1555,45.1555,0,0,0,8.1,21.06l1.572,3.42L8.361,23.1841c.462.8553.9687,1.7,1.5143,2.5248a6.9638,6.9638,0,0,0,1.3433,1.4565L15.45,30.6892l-4.1524-1.988A18.6049,18.6049,0,0,0,15.529,33.07l-.5648.9315-.0709.534-.024-.0039,3.1085,2.3159-5.1361-2.1407a5.5461,5.5461,0,0,0-1.0385-.32l.49.16-4.4026-.01a37.8637,37.8637,0,0,0-4.1958.2541,34.638,34.638,0,0,0,3.5872,1.9719L11.1556,38.58l-.4454-.054a5.7367,5.7367,0,0,0,.9822.1255l5.869.2606-4.0046.7627a14.3788,14.3788,0,0,0,2.8925.3181l4.2483.0278-2.4843.8063L22.03,41.49l-5.8775.353q-.14.0084-.275.0256l-2.6967,1.3185c-.6915.3383-1.3371.7055-1.9332,1.0732.74.0573,1.5362.0924,2.3429.0779l3.073-.0548c.0837-.03.1677-.0631.2515-.0993l5.0839-2.2133-2.5648,1.9778a8.9632,8.9632,0,0,0,1.0065-.4307s.4.2308.4767.2949a1.866,1.866,0,0,0,.2157-.047,9.0711,9.0711,0,0,0,2.2276-1.3,9.3593,9.3593,0,0,1,2.498-1.4254,6.2248,6.2248,0,0,1,.8745-.1636,2.3819,2.3819,0,0,1-1.1519-.7183c-.556-.5558-.7686-1.3061-.2328-1.4645s1.5076.75,1.5708.75a1.16,1.16,0,0,0,.324-.7481c0-.3208-.229-.9447-.2719-1.3222A6.2837,6.2837,0,0,0,26.743,36.28c-.0837-.2486-.6646-.3569-.9764-.5493a5.1,5.1,0,0,1-.7866-.5445,2.49,2.49,0,0,1-.3344-1.1413,4.4846,4.4846,0,0,0-.1877-1.1618c-.1085-.2034-.3876-.3471-.5762-.5358a.8109.8109,0,0,1-.1944-.4994c.1447-.0451.19.3277.3571.3594s.156.1695.418.26.2713.2149.3052.459.3277,1.0689.4248,1.4056.1989.59.5313.6014.287.1829.6779.1515a2.1871,2.1871,0,0,1,.9381.1807c.21.0746.4746.0813.565-.0655s-.0634-.7391-.0634-.7391c-.1355,0-.1582-.183-.21-.3525s.0316-.1831.0316-.1831a.7163.7163,0,1,1,1.3652,0s.0836.0135.0317.1831-.0747.3525-.21.3525c0,0-.1535.5922-.0632.7391s.3549.14.5651.0655a2.1861,2.1861,0,0,1,.9379-.1807c.391.0314.3458-.14.678-.1515s.434-.2645.5311-.6014.3911-1.1615.425-1.4056.0429-.3686.3052-.459.2508-.2281.418-.26.2126-.4045.3572-.3594a.813.813,0,0,1-.1944.4994c-.1887.1887-.4678.3324-.5763.5358a4.4846,4.4846,0,0,0-.1877,1.1618,2.4875,2.4875,0,0,1-.3344,1.1413,5.1,5.1,0,0,1-.7866.5445c-.312.1924-.8927.3007-.9763.5493a6.2737,6.2737,0,0,0-.2284,1.0939c-.0429.3775-.2718,1.0014-.2718,1.3222a1.159,1.159,0,0,0,.324.7481c.0631,0,1.0352-.9084,1.5707-.75s.3232.9087-.2328,1.4645a2.3815,2.3815,0,0,1-1.1519.7183,6.2248,6.2248,0,0,1,.8745.1636,9.3593,9.3593,0,0,1,2.498,1.4254,9.0741,9.0741,0,0,0,2.2274,1.3,1.8826,1.8826,0,0,0,.2155.0473c.0764-.064.4771-.2952.4771-.2952a8.9569,8.9569,0,0,0,1.0066.4307L34.6919,41.971l5.0842,2.2133c.0836.0362.1676.0695.2512.0993l3.0731.0548c.8066.0147,1.6032-.0206,2.3428-.0779-.5961-.3677-1.2416-.7349-1.9336-1.0732l-2.6963-1.3185q-.1347-.0171-.2748-.0256l-5.8773-.353,3.819-.6637-2.4757-.8059,4.237-.0278a14.379,14.379,0,0,0,2.8926-.3181L39.13,38.912l5.8689-.2606a5.7646,5.7646,0,0,0,.9825-.1253l-.4457.054,3.8734-1.8173a34.638,34.638,0,0,0,3.5872-1.9719A37.8592,37.8592,0,0,0,48.8,34.5368Z"/><path class="cls-2" d="M57.8433,45.16v1.4563H57.554V45.16h-.5418V44.9h1.3753v.26Zm2.2979,1.4563-.0024-1.2822-.5418,1.1032h-.1888l-.5418-1.1032v1.2822h-.2721V44.9h.3432l.5663,1.14.564-1.14h.3407v1.7162Z"/></svg>