<svg id="Layer_1" data-name="Layer 1" xmlns="http://www.w3.org/2000/svg" xmlns:xlink="http://www.w3.org/1999/xlink" width="300" height="250" viewBox="0 0 300 250"><defs><style>.cls-1{fill:url(#linear-gradient);}.cls-2{fill:url(#linear-gradient-2);}.cls-3{fill:url(#linear-gradient-3);}.cls-4{fill:url(#linear-gradient-4);}.cls-5{fill:url(#linear-gradient-5);}.cls-6{fill:url(#linear-gradient-6);}.cls-7{fill:url(#linear-gradient-7);}.cls-8{fill:url(#linear-gradient-8);}.cls-9{fill:url(#New_Gradient_Swatch_2);}.cls-10{fill:#a89255;}</style><linearGradient id="linear-gradient" x1="111.87" y1="46.3" x2="186.76" y2="46.3" gradientUnits="userSpaceOnUse"><stop offset="0" stop-color="#a88a34"/><stop offset="0.49" stop-color="#caaf67"/><stop offset="1" stop-color="#957f2e"/></linearGradient><linearGradient id="linear-gradient-2" x1="187.9" y1="208" x2="187.9" y2="82.38" gradientUnits="userSpaceOnUse"><stop offset="0" stop-color="#a88a34"/><stop offset="0.5" stop-color="#caaf67"/><stop offset="1" stop-color="#957f2e"/></linearGradient><linearGradient id="linear-gradient-3" x1="153.1" y1="142.6" x2="153.1" y2="49.85" xlink:href="#linear-gradient-2"/><linearGradient id="linear-gradient-4" x1="164.89" y1="174.41" x2="164.89" y2="52.35" xlink:href="#linear-gradient-2"/><linearGradient id="linear-gradient-5" x1="176.36" y1="177.19" x2="176.36" y2="70.35" xlink:href="#linear-gradient-2"/><linearGradient id="linear-gradient-6" x1="111.7" y1="102.29" x2="111.7" y2="-0.94" xlink:href="#linear-gradient-2"/><linearGradient id="linear-gradient-7" x1="139.12" y1="128.37" x2="139.12" y2="36.16" xlink:href="#linear-gradient-2"/><linearGradient id="linear-gradient-8" x1="125.12" y1="114.6" x2="125.12" y2="21.85" xlink:href="#linear-gradient-2"/><linearGradient id="New_Gradient_Swatch_2" x1="192.86" y1="82.13" x2="198.02" y2="82.13" gradientUnits="userSpaceOnUse"><stop offset="0" stop-color="#a88a34"/><stop offset="0.19" stop-color="#caaf67"/><stop offset="0.46" stop-color="#a08a4a"/><stop offset="0.76" stop-color="#caaf67"/><stop offset="1" stop-color="#957f2e"/></linearGradient></defs><title>logo</title><path class="cls-1" d="M144.76,71.4c.81-.24,2.29,1.14,2.39,1.14a1.8,1.8,0,0,0,.49-1.14c0-.49-.35-1.44-.41-2a9.76,9.76,0,0,0-.35-1.66c-.13-.38-1-.54-1.48-.84a8.1,8.1,0,0,1-1.2-.82,3.78,3.78,0,0,1-.51-1.74,7.16,7.16,0,0,0-.28-1.76c-.17-.31-.59-.53-.88-.82a1.23,1.23,0,0,1-.29-.75c.22-.07.29.49.54.54s.24.26.63.4.42.32.47.69.5,1.63.64,2.14.31.9.81.91.44.28,1,.23a3.23,3.23,0,0,1,1.43.28c.31.11.72.12.85-.1s-.09-1.13-.09-1.13c-.21,0-.24-.27-.32-.53s.05-.28.05-.28a1.09,1.09,0,1,1,2.07,0s.13,0,.05.28-.12.53-.32.53c0,0-.23.9-.1,1.13s.54.21.86.1a3.2,3.2,0,0,1,1.43-.28c.59,0,.52-.21,1-.23s.66-.4.8-.91.6-1.77.65-2.14.06-.56.46-.69.38-.35.64-.4.32-.61.54-.54a1.2,1.2,0,0,1-.3.75c-.28.29-.71.51-.87.82a6.64,6.64,0,0,0-.29,1.76,3.93,3.93,0,0,1-.5,1.74,8.68,8.68,0,0,1-1.2.82c-.47.3-1.36.46-1.48.84a9.76,9.76,0,0,0-.35,1.66c-.06.57-.41,1.52-.41,2a1.75,1.75,0,0,0,.49,1.14c.1,0,1.57-1.38,2.39-1.14s.49,1.38-.36,2.22a3.6,3.6,0,0,1-1.75,1.09,9.07,9.07,0,0,1,1.33.25,14.58,14.58,0,0,1,3.8,2.16,13.7,13.7,0,0,0,3.38,2,1.68,1.68,0,0,0,.33.07c.11-.1.72-.45.72-.45a13.06,13.06,0,0,0,1.53.66l-3.9-3,7.73,3.37.38.15,4.67.08c1.22,0,2.43,0,3.56-.12-.91-.56-1.89-1.11-2.94-1.63l-4.1-2-.41,0-8.93-.54,5.8-1L161,73.41l6.43,0a22.62,22.62,0,0,0,4.4-.48l-6.08-1.16,8.91-.4a8.53,8.53,0,0,0,1.49-.19l-.67.08,5.88-2.76a52.93,52.93,0,0,0,5.45-3,57.35,57.35,0,0,0-6.37-.39l-6.69,0,.74-.25a8.52,8.52,0,0,0-1.58.49l-7.8,3.25,4.72-3.52h0l-.11-.81-.86-1.42a28.1,28.1,0,0,0,6.43-6.63l-6.31,3,6.43-5.36a10.39,10.39,0,0,0,2-2.21c.83-1.25,1.6-2.54,2.3-3.84l-2,2,2.39-5.19a68.73,68.73,0,0,0,3.53-9.77,82.3,82.3,0,0,0-9.47,6.1l-4.67,3.54L171,42.16q-1.81,1.55-3.5,3.24a10.45,10.45,0,0,0-1.72,2.41l-3.41,6.54,1.21-6a29.13,29.13,0,0,0-2.71,3.23l-.59.83-.55-.37-.08.14-4.69,8.89,2.77-9.66a30.79,30.79,0,0,0,.91-12.14l-3.23,6,1.57-7.23a11.61,11.61,0,0,0,.24-3.6,59,59,0,0,0-1.24-7.29l-.43,3.55-1.4-5.17a87.13,87.13,0,0,0-4.79-13,88.26,88.26,0,0,0-4.79,13l-1.4,5.17-.42-3.55a57.19,57.19,0,0,0-1.24,7.29,11.7,11.7,0,0,0,.24,3.61l1.56,7.22-3.23-6A30.79,30.79,0,0,0,141,51.45l2.77,9.66L139,52.22a.85.85,0,0,0-.09-.14l-.54.37-.6-.83a28,28,0,0,0-2.7-3.23l1.21,6-3.42-6.54a10.15,10.15,0,0,0-1.72-2.41c-1.11-1.13-2.28-2.21-3.49-3.24l1.5,2.33-4.69-3.55a81.37,81.37,0,0,0-9.46-6.1,67.52,67.52,0,0,0,3.53,9.77L121,49.8l-2-2c.7,1.3,1.47,2.59,2.3,3.84a10.39,10.39,0,0,0,2,2.21l6.42,5.36-6.3-3a28.06,28.06,0,0,0,6.42,6.63L129,64.27l-.11.81h0l4.72,3.52-7.8-3.25a8.29,8.29,0,0,0-1.58-.49l.75.25-6.69,0a57.35,57.35,0,0,0-6.37.39,51.9,51.9,0,0,0,5.45,3l5.88,2.76-.68-.08a8.65,8.65,0,0,0,1.5.19l8.91.4-6.08,1.16a22.52,22.52,0,0,0,4.39.48l6.46,0-3.78,1.23,5.8,1-8.93.54-.42,0-4.09,2c-1,.52-2,1.07-2.94,1.63,1.12.09,2.33.14,3.56.12l4.67-.08.38-.15,7.72-3.37-3.89,3a13.06,13.06,0,0,0,1.53-.66s.6.35.72.45a1.87,1.87,0,0,0,.33-.07,13.88,13.88,0,0,0,3.38-2,14.42,14.42,0,0,1,3.8-2.16,8.91,8.91,0,0,1,1.32-.25,3.69,3.69,0,0,1-1.75-1.09C144.27,72.78,144,71.64,144.76,71.4Z"/><polygon class="cls-2" points="192.37 87.18 192.37 84.9 183.42 84.91 183.42 97.09 192.36 97.09 192.36 94.81 185.86 94.81 185.86 92.05 190.74 92.05 190.74 89.78 185.86 89.78 185.86 87.18 192.37 87.18"/><path class="cls-3" d="M151.88,84.9,147,97.09h2.6l.73-1.87h5.53l.73,1.87h2.59L154.32,84.9Zm-.56,7.88,1.85-4.63,1.8,4.63Z"/><path class="cls-4" d="M168.26,90.79a6.07,6.07,0,0,0-2.81-1,3.21,3.21,0,0,1-1.86-.73.93.93,0,0,1,0-1.18q.41-.69,1.86-.69a2.8,2.8,0,0,1,2.28,1l1.62-1.62a5.68,5.68,0,0,0-1.74-1.22A6.85,6.85,0,0,0,165,84.9a4.88,4.88,0,0,0-2.84,1,3,3,0,0,0-1.39,2.6A2.71,2.71,0,0,0,162,91a6.69,6.69,0,0,0,2.68.89c1.08.11,1.76.39,2,.85a1.28,1.28,0,0,1,0,1.38c-.27.47-.95.7-2,.7a3.86,3.86,0,0,1-2.76-1.14l-1.63,1.62a6.28,6.28,0,0,0,1.95,1.3,7.16,7.16,0,0,0,2.84.49A4.88,4.88,0,0,0,168.17,96a3.11,3.11,0,0,0,1.35-2.51A3.06,3.06,0,0,0,168.26,90.79Z"/><polygon class="cls-5" points="171.08 87.18 175.14 87.18 175.14 97.09 177.58 97.09 177.58 87.18 181.64 87.18 181.64 84.9 171.08 84.9 171.08 87.18"/><polygon class="cls-6" points="114.7 92.54 107.07 84.9 106.25 84.9 106.25 97.09 108.69 97.09 108.69 89.53 116.25 97.09 117.14 97.09 117.14 84.9 114.7 84.9 114.7 92.54"/><polygon class="cls-7" points="139.12 90.92 133.84 84.9 133.03 84.9 133.03 97.09 135.46 97.09 135.46 90.02 139.12 94.08 142.78 90.02 142.78 97.09 145.22 97.09 145.22 84.9 144.41 84.9 139.12 90.92"/><path class="cls-8" d="M123.9,84.9,119,97.09h2.6l.73-1.87h5.52l.73,1.87h2.6L126.34,84.9Zm-.57,7.88,1.86-4.63,1.8,4.63Z"/><path class="cls-9" d="M194.12,81.22v2.21h-.44V81.22h-.82v-.4H195v.4Zm3.49,2.21v-2l-.82,1.68h-.29l-.82-1.68v2h-.42V80.82h.53l.86,1.74.85-1.74H198v2.61Z"/><path class="cls-10" d="M126.76,105.83a1.77,1.77,0,0,1,.85,1.38,1.73,1.73,0,0,1-1.83,1.82h-3.41v-6h3.21c1,.06,1.56.65,1.62,1.78A1.28,1.28,0,0,1,126.76,105.83Zm-3.17-.43h1.69a.68.68,0,0,0,.75-.76c0-.29-.26-.45-.74-.47h-1.7Zm0,2.68h2a.8.8,0,0,0,.88-.88c0-.38-.3-.59-.86-.6h-2Z"/><path class="cls-10" d="M128.46,103h1.42l1.4,2,1.44-2h1.39l-2.22,3v3h-1.21v-3Z"/><path class="cls-10" d="M142.58,109h-4.85v-.4l2.82-4.52h-2.82V103h4.85v.44l-2.83,4.48h2.83Z"/><path class="cls-10" d="M144.1,109v-6h4.45v1.13h-3.24v1.29h2.43v1.13h-2.43v1.37h3.23V109Z"/><path class="cls-10" d="M149.77,109v-6h.4l3.8,3.79V103h1.21v6h-.44L151,105.27V109Z"/><path class="cls-10" d="M156.12,109l2.42-6h1.21l2.42,6h-1.29l-.36-.93h-2.75l-.36.93Zm3.06-4.44-.92,2.3h1.81Z"/><path class="cls-10" d="M167.37,105.83a1.77,1.77,0,0,1,.85,1.38,1.73,1.73,0,0,1-1.83,1.82H163v-6h3.22c1,.06,1.55.65,1.61,1.78A1.25,1.25,0,0,1,167.37,105.83Zm-3.17-.43h1.69a.68.68,0,0,0,.75-.76c0-.29-.26-.45-.74-.47h-1.7Zm0,2.68h2a.8.8,0,0,0,.88-.88c0-.38-.3-.59-.86-.6h-2Z"/><path class="cls-10" d="M169.42,103h1.21V109h-1.21Z"/><path class="cls-10" d="M175.13,103.17a2.84,2.84,0,0,1,.86.61l-.8.8a1.4,1.4,0,0,0-1.13-.48c-.49,0-.8.11-.93.34a.46.46,0,0,0,0,.59,1.58,1.58,0,0,0,.93.36,3,3,0,0,1,1.39.5,1.53,1.53,0,0,1,.62,1.36,1.56,1.56,0,0,1-.66,1.25,2.47,2.47,0,0,1-1.56.52,3.64,3.64,0,0,1-1.41-.24,3.15,3.15,0,0,1-1-.64l.81-.81a1.92,1.92,0,0,0,1.37.56c.54,0,.88-.11,1-.34a.66.66,0,0,0,0-.69c-.13-.23-.47-.37-1-.42a3.22,3.22,0,0,1-1.33-.44,1.36,1.36,0,0,1-.61-1.26,1.52,1.52,0,0,1,.69-1.29,2.45,2.45,0,0,1,1.42-.48A3.5,3.5,0,0,1,175.13,103.17Z"/><rect class="cls-10" x="106.25" y="105.91" width="10.89" height="1.33"/><rect class="cls-10" x="181.48" y="105.91" width="10.89" height="1.33"/></svg>