<svg id="Content" xmlns="http://www.w3.org/2000/svg" xmlns:xlink="http://www.w3.org/1999/xlink" width="320" height="568" viewBox="0 0 320 568"><defs><style>.cls-1{fill:url(#New_Gradient_Swatch_1);}.cls-2{fill:#fff;}.cls-3{fill:#b89344;}</style><linearGradient id="New_Gradient_Swatch_1" x1="78.85488" y1="397.23082" x2="118.21793" y2="397.23082" gradientUnits="userSpaceOnUse"><stop offset="0" stop-color="#a68834"/><stop offset="0.49324" stop-color="#c8ad67"/><stop offset="1" stop-color="#937f2e"/></linearGradient></defs><title>lemon</title><polygon class="cls-1" points="84.91 412.09 78.855 392.86 92.483 378.001 112.165 382.372 118.218 401.604 104.592 416.461 84.91 412.09"/><path class="cls-2" d="M106.73033,395.03653c-1.07729-2.62483-4.18361-4.42343-8.193-4.3897-3.95129.03372-7.09321,1.81546-8.16488,4.3897-.96113.42717-2.07963,1.33771-2.07963,2.19391,0,.84872,1.10914,1.77424,2.10211,2.192,1.06043,2.54052,4.17986,4.39345,8.1424,4.39345,3.97377,0,7.08385-1.87728,8.193-4.39345,1.03793-.44777,2.04964-1.35457,2.04964-2.19016,0-.85808-1.00984-1.748-2.04964-2.19579"/><path class="cls-3" d="M81.25684,428.91016v6.02734H85.209v1.38281H79.77441v-7.41015Z"/><path class="cls-3" d="M86.40918,436.32031V428.915l5.44336-.00488V430.294H87.8916V431.874h2.96875v1.37891H87.8916v1.68457h3.95117v1.38281Z"/><path class="cls-3" d="M93.34473,436.32031v-7.41015h.49414l3.21093,3.65527,3.21582-3.65527h.49415v7.41015H99.27832l-.00586-4.29785-2.22266,2.46973-2.22265-2.46973v4.29785Z"/><path class="cls-3" d="M102.92285,435.25586a3.81616,3.81616,0,1,1,2.64356,1.06445A3.59,3.59,0,0,1,102.92285,435.25586Zm2.64844-.31836a2.08335,2.08335,0,0,0,1.60059-.667,2.52831,2.52831,0,0,0,0-3.31055,2.268,2.268,0,0,0-3.21094,0,2.52525,2.52525,0,0,0,0,3.31055A2.0929,2.0929,0,0,0,105.57129,434.9375Z"/><path class="cls-3" d="M110.37207,436.32031v-7.41015h.49414l4.64356,4.64355v-4.64355h1.48242v7.41015h-.54395l-4.59375-4.59375v4.59375Z"/></svg>