<svg id="Content" xmlns="http://www.w3.org/2000/svg" xmlns:xlink="http://www.w3.org/1999/xlink" width="320" height="568" viewBox="0 0 320 568"><defs><style>.cls-1{fill:url(#New_Gradient_Swatch_1);}.cls-2{fill:#fff;}.cls-3{fill:#ba9544;}</style><linearGradient id="New_Gradient_Swatch_1" x1="211.57158" y1="230.10441" x2="257.11592" y2="230.10441" gradientUnits="userSpaceOnUse"><stop offset="0" stop-color="#a88a34"/><stop offset="0.49324" stop-color="#caaf67"/><stop offset="1" stop-color="#957f2e"/></linearGradient></defs><title>pine</title><polygon class="cls-1" points="252.567 245.879 229.794 253.773 211.572 237.998 216.122 214.33 238.893 206.436 257.116 222.211 252.567 245.879"/><path class="cls-2" d="M241.91847,237.25861l-7.61456-18.17638-7.53318,18.17638,7.15266,1.43186v2.0323a.42036.42036,0,0,0,.84021,0v-2.0323Z"/><path class="cls-3" d="M220.41016,275.99512V267.2959h3.793q3.04395,0,3.04493,2.50586,0,2.59716-3.03907,2.59765h-2.05859v3.59571Zm1.74023-5.21973h2.43555q1.04883-.01758,1.07812-.957-.02929-.85693-1.06054-.89258h-2.45313Z"/><path class="cls-3" d="M228.5293,267.29h1.73437v8.70508H228.5293Z"/><path class="cls-3" d="M232.00781,275.99512V267.2959h.58008l5.45313,5.45117V267.2959h1.73828v8.69922h-.63672l-5.39453-5.39356v5.39356Z"/><path class="cls-3" d="M241.56055,275.99512v-8.69336l6.39062-.00586v1.624h-4.65039v1.85547h3.48438v1.61816h-3.48438v1.97754h4.63867v1.624Z"/></svg>