<svg id="Content" xmlns="http://www.w3.org/2000/svg" xmlns:xlink="http://www.w3.org/1999/xlink" width="640" height="1136" viewBox="0 0 640 1136"><defs><style>.cls-1{fill:#ba9544;}.cls-2{fill:#fff;stroke:#ba9544;stroke-miterlimit:10;}.cls-3{clip-path:url(#clip-path);}</style><clipPath id="clip-path"><polygon class="cls-1" points="117.127 711.822 135.914 738.433 136.283 738.467 136.283 684.738 135.914 684.726 117.127 711.822"/></clipPath></defs><title>CBD - MK Ultra</title><polygon class="cls-2" points="507.668 686.076 135.505 684.666 116.717 711.758 135.505 738.369 507.668 737.735 524.577 711.908 507.668 686.076"/><polygon class="cls-1" points="117.127 711.822 135.914 738.433 136.283 738.467 136.283 684.738 135.914 684.726 117.127 711.822"/><g class="cls-3"><rect class="cls-1" x="112.97166" y="680.57288" width="27.45663" height="62.04561"/></g><path class="cls-1" d="M335.36415,720.69645a9.11408,9.11408,0,0,1,6.48047-15.60351,9.86032,9.86032,0,0,1,6.69336,2.42969l-2.42969,2.66015a6.71654,6.71654,0,0,0-4.26367-1.457,5.35275,5.35275,0,0,0-3.9541,1.53027,5.29862,5.29862,0,0,0-1.5,3.8877,5.4627,5.4627,0,0,0,1.51855,4.03223,5.37788,5.37788,0,0,0,3.96,1.49414,6.52807,6.52807,0,0,0,4.23926-1.44532l2.42969,2.66016a9.82764,9.82764,0,0,1-6.69336,2.42969A8.86306,8.86306,0,0,1,335.36415,720.69645Z"/><path class="cls-1" d="M365.39931,713.70622a5.21725,5.21725,0,0,1,2.53808,4.166q-.24316,5.1504-5.50293,5.45411l-10.252-.01172v-18.209h9.66895q4.604.26661,4.85937,5.35645Q366.62587,712.89226,365.39931,713.70622Zm-9.56055-1.29981h5.10156a2.057,2.057,0,0,0,2.25977-2.27148q-.06006-1.33593-2.22266-1.40918h-5.13867Zm0,8.06543h5.95215a2.37867,2.37867,0,0,0,2.624-2.63574q-.06152-1.749-2.58691-1.82226h-5.98926Z"/><path class="cls-1" d="M371.57021,723.31462v-18.2334h7.02148q8.50342,0,8.50293,9.123,0,9.10986-8.50293,9.11035Zm7.02148-3.63184q4.84717-.01171,4.8584-5.47851-.01172-5.46681-4.8584-5.4668h-3.377v10.94531Z"/><path class="cls-1" d="M391.164,711.69548a1.75788,1.75788,0,0,1,1.31152-.49219,1.82426,1.82426,0,0,1,1.36035.49219,1.66851,1.66851,0,0,1,.48633,1.2207,1.6458,1.6458,0,0,1-.48633,1.21484,2.07805,2.07805,0,0,1-2.67187,0,1.6458,1.6458,0,0,1-.48633-1.21484A1.66851,1.66851,0,0,1,391.164,711.69548Zm0,8.69726a1.76109,1.76109,0,0,1,1.31152-.49121,1.82764,1.82764,0,0,1,1.36035.49121,1.6692,1.6692,0,0,1,.48633,1.22168,1.64515,1.64515,0,0,1-.48633,1.21387,2.07805,2.07805,0,0,1-2.67187,0,1.64515,1.64515,0,0,1-.48633-1.21387A1.6692,1.6692,0,0,1,391.164,720.39274Z"/><path class="cls-1" d="M417.23134,710.31657l-7.04492,3.8877,7.04492,3.88671v2.794l-11.51563-6.3291v-.78906l11.51563-6.24414Z"/><path class="cls-1" d="M433.01064,705.09294v-.01172h3.63281v18.2334h-3.63281V709.95231L430.581,712.382l-2.42871-2.42969Z"/></svg>