<svg id="Content" xmlns="http://www.w3.org/2000/svg" xmlns:xlink="http://www.w3.org/1999/xlink" width="640" height="1136" viewBox="0 0 640 1136"><defs><style>.cls-1{stroke:#fff;stroke-miterlimit:10;stroke-width:2.2px;fill:url(#New_Gradient_Swatch_2);}.cls-2{fill:#fff;}.cls-3{fill:url(#New_Gradient_Swatch_1);}.cls-4{fill:url(#linear-gradient);}.cls-5{fill:url(#linear-gradient-2);}.cls-6{fill:url(#linear-gradient-3);}.cls-7{fill:url(#linear-gradient-4);}.cls-8{fill:url(#linear-gradient-5);}.cls-9{fill:url(#linear-gradient-6);}.cls-10{fill:url(#linear-gradient-7);}.cls-11{fill:url(#New_Gradient_Swatch_2-2);}.cls-12{fill:#a89255;}</style><linearGradient id="New_Gradient_Swatch_2" x1="155.90645" y1="998.58194" x2="488.46847" y2="998.58194" gradientUnits="userSpaceOnUse"><stop offset="0" stop-color="#a88a34"/><stop offset="0.1878" stop-color="#caaf67"/><stop offset="0.46098" stop-color="#a08a4a"/><stop offset="0.76341" stop-color="#caaf67"/><stop offset="1" stop-color="#957f2e"/></linearGradient><linearGradient id="New_Gradient_Swatch_1" x1="440.87895" y1="102.53305" x2="590.66278" y2="102.53305" gradientUnits="userSpaceOnUse"><stop offset="0" stop-color="#a88a34"/><stop offset="0.49324" stop-color="#caaf67"/><stop offset="1" stop-color="#957f2e"/></linearGradient><linearGradient id="linear-gradient" x1="592.93515" y1="425.93526" x2="592.93515" y2="174.70621" gradientUnits="userSpaceOnUse"><stop offset="0" stop-color="#a88a34"/><stop offset="0.49894" stop-color="#caaf67"/><stop offset="1" stop-color="#957f2e"/></linearGradient><linearGradient id="linear-gradient-2" x1="523.34348" y1="295.14701" x2="523.34348" y2="109.6468" xlink:href="#linear-gradient"/><linearGradient id="linear-gradient-3" x1="546.91466" y1="358.76969" x2="546.91466" y2="114.65198" xlink:href="#linear-gradient"/><linearGradient id="linear-gradient-4" x1="569.86006" y1="364.33119" x2="569.86006" y2="150.64917" xlink:href="#linear-gradient"/><linearGradient id="linear-gradient-5" x1="440.54055" y1="214.5273" x2="440.54055" y2="8.0674" xlink:href="#linear-gradient"/><linearGradient id="linear-gradient-6" x1="495.39334" y1="266.68501" x2="495.39334" y2="82.26564" xlink:href="#linear-gradient"/><linearGradient id="linear-gradient-7" x1="467.37758" y1="239.14366" x2="467.37758" y2="53.64406" xlink:href="#linear-gradient"/><linearGradient id="New_Gradient_Swatch_2-2" x1="602.86537" y1="174.19573" x2="613.18393" y2="174.19573" xlink:href="#New_Gradient_Swatch_2"/></defs><title>CTA2</title><polygon class="cls-1" points="465.261 963.77 434.233 963.77 210.141 963.77 179.114 963.77 155.906 998.578 179.114 1033.394 210.141 1033.394 434.233 1033.394 465.261 1033.394 488.468 998.586 465.261 963.77"/><path class="cls-2" d="M224.85107,987.7863v17.45605h11.44629v4.00586H220.55811V987.7863Z"/><path class="cls-2" d="M239.77393,1009.24821V987.801l15.7666-.01465v4.00586H244.06592v4.5791h8.59863v3.99121h-8.59863v4.87988h11.44629v4.00586Z"/><path class="cls-2" d="M258.73193,1009.24821l8.585-21.46191h4.292l8.57031,21.44726-4.56445.01465-1.28711-3.291h-9.7295l-1.28808,3.291ZM269.57666,993.509l-3.26172,8.15625h6.43848Z"/><path class="cls-2" d="M296.3042,999.89079l5.35156,9.35742h-4.92187l-5.13672-8.87109h-3.91992v8.87109h-4.293V987.7863h9.35742q7.51172,0,7.51172,6.18066Q300.25342,998.61785,296.3042,999.89079Zm-8.62695-3.51953H293.686q2.58984-.044,2.66113-2.36133-.07178-2.1167-2.61817-2.20312h-6.05175Z"/><path class="cls-2" d="M303.88721,1009.24821V987.7863h1.43066l13.4502,13.44922V987.7863h4.2915v21.46191h-1.57422l-13.30517-13.30664v13.30664Z"/><path class="cls-2" d="M337.52441,1009.24821V987.7863h1.43067l9.30078,10.58789,9.31445-10.58789H359.001v21.46191h-4.293L354.69434,996.8l-6.43848,7.1543L341.81738,996.8v12.44824Z"/><path class="cls-2" d="M365.26855,1006.1652a11.05336,11.05336,0,1,1,7.6543,3.083A10.39528,10.39528,0,0,1,365.26855,1006.1652Zm7.66895-.92285a6.03188,6.03188,0,0,0,4.63574-1.93164,7.31912,7.31912,0,0,0,0-9.58691,6.56365,6.56365,0,0,0-9.30078,0,7.31915,7.31915,0,0,0,0,9.58691A6.06638,6.06638,0,0,0,372.9375,1005.24235Z"/><path class="cls-2" d="M399.76465,999.89079l5.35156,9.35742h-4.92187l-5.13672-8.87109H391.1377v8.87109h-4.293V987.7863h9.35742q7.51172,0,7.51172,6.18066Q403.71387,998.61785,399.76465,999.89079Zm-8.627-3.51953h6.00878q2.58985-.044,2.66114-2.36133-.07177-2.1167-2.61817-2.20312H391.1377Z"/><path class="cls-2" d="M407.291,1009.24821V987.801l15.7666-.01465v4.00586H411.583v4.5791h8.59863v3.99121H411.583v4.87988H423.0293v4.00586Z"/><path class="cls-3" d="M506.66538,152.7322c1.62777-.48009,4.58043,2.28,4.77232,2.28a3.52222,3.52222,0,0,0,.98434-2.2731c0-.97451-.69555-2.87-.826-4.01707a19.1056,19.1056,0,0,0-.69377-3.32329c-.254-.75525-2.019-1.08443-2.96616-1.66887a15.47187,15.47187,0,0,1-2.38989-1.65454,7.55959,7.55959,0,0,1-1.01608-3.46734,13.63176,13.63176,0,0,0-.57011-3.52952c-.32978-.618-1.17754-1.05458-1.75085-1.62788a2.465,2.465,0,0,1-.5906-1.51726c.4397-.13728.577.99559,1.085,1.09189s.47381.5148,1.27005.78937c.79683.27445.82419.65267.92724,1.3943s.99559,3.24748,1.29066,4.27044c.29565,1.02354.60422,1.793,1.61414,1.82712,1.00922.03424.87193.5559,2.05941.46031a6.64928,6.64928,0,0,1,2.85008.5489c.63846.22672,1.44216.24721,1.71661-.19864.27457-.44656-.19249-2.24585-.19249-2.24585-.41173,0-.48079-.55578-.63845-1.07069-.15778-.51551.09618-.55649.09618-.55649a2.17616,2.17616,0,1,1,4.1476,0s.254.041.09619.55649c-.15837.51491-.22672,1.07069-.639,1.07069,0,0-.46647,1.79929-.1919,2.24585.27446.44585,1.07816.42536,1.71661.19864a6.64833,6.64833,0,0,1,2.84949-.5489c1.18807.09559,1.05079-.42607,2.06-.46031,1.00992-.03411,1.31861-.80358,1.61356-1.82712.29565-1.023,1.18807-3.52893,1.29124-4.27044s.13042-1.11985.92725-1.3943c.79623-.27457.762-.69306,1.27-.78937s.64592-1.22917,1.085-1.09189a2.469,2.469,0,0,1-.5906,1.51726c-.57331.5733-1.42107,1.00992-1.75084,1.62788a13.63133,13.63133,0,0,0-.57011,3.52952,7.55984,7.55984,0,0,1-1.01608,3.46734,15.47748,15.47748,0,0,1-2.3899,1.65454c-.94773.58444-2.71219.91362-2.96616,1.66887a19.02973,19.02973,0,0,0-.69377,3.32329c-.13042,1.14709-.826,3.04256-.826,4.01707a3.52227,3.52227,0,0,0,.98434,2.2731c.19189,0,3.14514-2.76006,4.77232-2.28,1.62718.48139.98185,2.76065-.7074,4.4493a7.23471,7.23471,0,0,1-3.49978,2.18248,18.95314,18.95314,0,0,1,2.657.49679c2.33339.65161,4.88721,2.43893,7.58934,4.33073,2.42472,1.69742,4.93259,3.45252,6.76718,3.95121a5.774,5.774,0,0,0,.65468.14356c.23229-.1945,1.4495-.89692,1.4495-.89692a27.232,27.232,0,0,0,3.0582,1.30866l-7.79261-6.00884,15.44663,6.72429c.254.10993.50923.2112.76331.30182l9.3364.16642c2.45077.04478,4.87111-.06266,7.118-.23654-1.8109-1.11736-3.77235-2.23283-5.87464-3.26064l-8.1918-4.00593c-.27267-.03471-.55151-.06089-.83473-.07759l-17.85631-1.07258,11.60275-2.01665-7.52171-2.44817,12.87278-.08446a43.69715,43.69715,0,0,0,8.78821-.96645l-12.16682-2.31716,17.83085-.79185a17.49845,17.49845,0,0,0,2.98487-.38071l-1.35391.16394,11.768-5.52129a105.15429,105.15429,0,0,0,10.89843-5.99084,115.00041,115.00041,0,0,0-12.74735-.77195l-13.37526.03044,1.48989-.48755a16.754,16.754,0,0,0-3.15628.9738l-15.6037,6.50326,9.44277-7.03547-.072.01185-.21559-1.62232-1.716-2.83018a56.53947,56.53947,0,0,0,12.85739-13.2734l-12.61575,6.03988,12.85419-10.70594a21.1713,21.1713,0,0,0,4.08163-4.42514c1.65762-2.50538,3.19667-5.07224,4.60032-7.67084l-3.98425,3.9345,4.776-10.3892a137.20489,137.20489,0,0,0,7.0665-19.5375A166.31293,166.31293,0,0,0,565.409,91.81924l-9.35085,7.0864,2.98239-4.64747c-2.419,2.057-4.758,4.22827-6.9901,6.48952a20.48828,20.48828,0,0,0-3.44186,4.82325l-6.83,13.08091,2.4259-11.93938a56.44735,56.44735,0,0,0-5.41077,6.47151l-1.19056,1.6607-1.09119-.749a3.11806,3.11806,0,0,0-.16891.28381l-9.38117,17.78986,5.53242-19.33566a61.37822,61.37822,0,0,0,1.83518-24.26516l-6.46026,12.00654,3.12891-14.44358a23.51391,23.51391,0,0,0,.48874-7.20746,116.36086,116.36086,0,0,0-2.4824-14.58075l-.85144,7.08936L525.34837,61.097a175.86094,175.86094,0,0,0-9.57745-25.92278A175.6849,175.6849,0,0,0,506.19335,61.097l-2.80412,10.33566-.852-7.08936a116.4668,116.4668,0,0,0-2.4824,14.58075,23.52638,23.52638,0,0,0,.48873,7.20805l3.12524,14.448-6.45659-12.00963a61.36911,61.36911,0,0,0,1.83518,24.26327l5.53314,19.33684-9.38189-17.791a2.98807,2.98807,0,0,0-.16891-.28381l-1.09118.749L492.748,113.184a56.45342,56.45342,0,0,0-5.41078-6.47151l2.42649,11.93938-6.83054-13.08091a20.50114,20.50114,0,0,0-3.44127-4.82325c-2.22773-2.257-4.56361-4.42514-6.98015-6.47957l2.98914,4.65114-9.36815-7.1A166.231,166.231,0,0,0,447.19647,79.619a137.183,137.183,0,0,0,7.06639,19.5375l4.77611,10.3892-3.98426-3.9345c1.40366,2.5986,2.9433,5.16546,4.60092,7.67084a21.15141,21.15141,0,0,0,4.081,4.42514l12.85419,10.70594-12.61574-6.03988a56.525,56.525,0,0,0,12.85739,13.2734l-1.716,2.83018-.21558,1.62232-.07261-.01185,9.444,7.03606-15.6043-6.50385a16.85552,16.85552,0,0,0-3.155-.9738l1.4893.48755-13.376-.03044a115.009,115.009,0,0,0-12.74734.77195,105.1541,105.1541,0,0,0,10.89842,5.99084l11.768,5.5207-1.35332-.16394a17.42372,17.42372,0,0,0,2.98429.3813l17.83072.79185-12.16658,2.31716a43.70073,43.70073,0,0,0,8.78809.96645l12.9069.08446-7.54777,2.44947,11.59588,2.01535L478.72678,162.301q-.4259.02505-.83544.07759l-8.1931,4.00593c-2.101,1.02781-4.06232,2.14328-5.87333,3.26064,2.24763.17388,4.66725.28061,7.118.23654l9.33651-.16642c.254-.09062.50923-.19189.7639-.30182l15.44593-6.72429-7.79262,6.00884a27.232,27.232,0,0,0,3.0582-1.30866s1.216.70124,1.44832.89621a5.69752,5.69752,0,0,0,.65516-.14285c1.83529-.49869,4.34316-2.25379,6.76788-3.95121,2.70225-1.8918,5.25608-3.67912,7.58935-4.33073a18.94978,18.94978,0,0,1,2.657-.49679,7.23469,7.23469,0,0,1-3.49979-2.18248C505.68353,155.49285,505.03762,153.21359,506.66538,152.7322Z"/><polygon class="cls-4" points="601.889 184.298 601.889 179.748 583.981 179.764 583.981 204.123 601.857 204.123 601.857 199.573 588.857 199.573 588.857 194.031 598.623 194.031 598.623 189.498 588.857 189.498 588.857 184.298 601.889 184.298"/><path class="cls-5" d="M520.91412,179.74771l-9.75,24.37491h5.19945l1.46263-3.73747h11.05l1.46263,3.73747,5.184-.01664-9.73338-24.35827Zm-1.13718,15.76264,3.70531-9.26317,3.6071,9.26317Z"/><path class="cls-6" d="M553.65856,191.52893a12.08726,12.08726,0,0,0-5.60632-2.03089q-2.9253-.48817-3.73763-1.46319a1.90187,1.90187,0,0,1,0-2.35642q.81322-1.38048,3.73763-1.38056a5.59773,5.59773,0,0,1,4.55056,1.94955l3.24934-3.25014a11.37126,11.37126,0,0,0-3.49344-2.4376,13.60359,13.60359,0,0,0-5.26544-.81238,9.75677,9.75677,0,0,0-5.69522,1.95816,6.0651,6.0651,0,0,0-2.77061,5.19213q0,3.57466,2.43721,5.03749a13.0986,13.0986,0,0,0,5.36285,1.78743q3.24937.32517,4.05432,1.70609a2.57523,2.57523,0,0,1,0,2.76313q-.80406,1.38062-4.05432,1.38057-3.89982-.32409-5.52506-2.27484l-3.2507,3.25054a12.30034,12.30034,0,0,0,3.90031,2.59988,14.43484,14.43484,0,0,0,5.67159.97442,9.8434,9.8434,0,0,0,6.26413-2.11224,6.24794,6.24794,0,0,0,2.68983-5.03741A6.10114,6.10114,0,0,0,553.65856,191.52893Z"/><polygon class="cls-7" points="559.297 184.297 567.422 184.297 567.422 204.123 572.297 204.123 572.297 184.297 580.423 184.297 580.423 179.748 559.297 179.748 559.297 184.297"/><polygon class="cls-8" points="446.553 195.022 431.278 179.748 429.653 179.748 429.653 204.123 434.528 204.123 434.528 189.01 449.641 204.123 451.428 204.123 451.428 179.748 446.553 179.748 446.553 195.022"/><polygon class="cls-9" points="495.386 191.772 484.823 179.748 483.198 179.748 483.198 204.123 488.073 204.123 488.073 189.985 495.386 198.11 502.697 189.985 502.714 204.123 507.589 204.123 507.589 179.748 505.964 179.748 495.386 191.772"/><path class="cls-10" d="M464.94833,179.74771l-9.75017,24.37491h5.19961l1.46263-3.73747h11.05l1.46327,3.73747,5.1833-.01664-9.73394-24.35827Zm-1.13718,15.76264,3.7046-9.26317,3.60725,9.26317Z"/><path class="cls-11" d="M605.39027,172.37832v4.42449h-.87883v-4.42449h-1.64607v-.78968h4.17825v.78968Zm6.98154,4.42449-.00728-3.89562-1.64607,3.35158h-.57375l-1.64607-3.35158v3.89562H607.672v-5.21417h1.04259l1.72067,3.46378,1.7134-3.46378h1.03531v5.21417Z"/><path class="cls-12" d="M470.6702,221.60213a3.46922,3.46922,0,0,1,1.68761,2.76961q-.16092,3.42425-3.65783,3.62554l-6.815-.00808V215.88525h6.42745q3.06089.17821,3.22988,3.56094A2.53495,2.53495,0,0,1,470.6702,221.60213Zm-6.35478-.864h3.39137a1.36686,1.36686,0,0,0,1.50189-1.51q-.0398-.88764-1.47766-.93667h-3.4156Zm0,5.36159h3.9566a1.58069,1.58069,0,0,0,1.74413-1.75221q-.03979-1.16276-1.71991-1.2112h-3.98082Z"/><path class="cls-12" d="M474.06157,215.87717h2.84229l2.81,3.9566,2.87459-3.9566h2.77769l-4.44107,6.056v6.056h-2.42241v-6.056Z"/><path class="cls-12" d="M502.30683,227.9892h-9.6977l.00807-.80746,5.64421-9.04365H492.6172l-.00807-2.26092h9.6977v.88822l-5.66843,8.9629h5.66843Z"/><path class="cls-12" d="M505.34983,227.9892V215.88525l8.89831-.00808v2.26092h-6.4759v2.5839h4.85289v2.25283h-4.85289v2.75347H514.232v2.26091Z"/><path class="cls-12" d="M516.6867,227.9892v-12.112h.80746l7.59021,7.59021v-7.59021h2.42241v12.112h-.88822l-7.50946-7.50945v7.50945Z"/><path class="cls-12" d="M529.38011,227.9892l4.84481-12.112h2.4224l4.83559,12.104-2.57467.00807-.72672-1.85717h-5.49079l-.72672,1.85717Zm6.12061-8.88215-1.841,4.60257h3.63361Z"/><path class="cls-12" d="M551.89234,221.60213a3.47077,3.47077,0,0,1,1.68645,2.76961q-.15918,3.42425-3.65668,3.62554l-6.815-.00808V215.88525h6.42745q3.05915.17821,3.22987,3.56094A2.54131,2.54131,0,0,1,551.89234,221.60213Zm-6.35594-.864h3.39137a1.36583,1.36583,0,0,0,1.50189-1.51c-.02537-.59176-.51908-.90437-1.47651-.93667H545.5364Zm0,5.36159h3.9566a1.57968,1.57968,0,0,0,1.74413-1.75221q-.03807-1.16276-1.71875-1.2112h-3.982Z"/><path class="cls-12" d="M555.99428,215.8691h2.41318v12.1201h-2.41318Z"/><path class="cls-12" d="M567.39574,216.28091a5.62236,5.62236,0,0,1,1.7349,1.2112l-1.61494,1.61494a2.77968,2.77968,0,0,0-2.26091-.969q-1.45344,0-1.85718.68634a.94905.94905,0,0,0,0,1.17083,3.194,3.194,0,0,0,1.85718.72673,6.00879,6.00879,0,0,1,2.78692,1.00933,3.03534,3.03534,0,0,1,1.25042,2.705,3.10666,3.10666,0,0,1-1.33578,2.50316,4.89082,4.89082,0,0,1-3.11221,1.0497,7.17932,7.17932,0,0,1-2.81922-.48448,6.13745,6.13745,0,0,1-1.93793-1.29195l1.61494-1.61493a3.83966,3.83966,0,0,0,2.74539,1.13045q1.6161,0,2.01406-.68635a1.27384,1.27384,0,0,0,0-1.37269q-.398-.68693-2.01406-.84785a6.50714,6.50714,0,0,1-2.66465-.88821,2.6795,2.6795,0,0,1-1.2112-2.50315,3.01214,3.01214,0,0,1,1.37731-2.57929,4.84721,4.84721,0,0,1,2.83076-.97358A6.77575,6.77575,0,0,1,567.39574,216.28091Z"/><rect class="cls-12" x="429.65276" y="221.75963" width="21.77554" height="2.65147"/><rect class="cls-12" x="580.11331" y="221.75963" width="21.77554" height="2.65147"/></svg>