<svg id="Content" xmlns="http://www.w3.org/2000/svg" xmlns:xlink="http://www.w3.org/1999/xlink" width="640" height="1136" viewBox="0 0 640 1136"><defs><style>.cls-1{fill:url(#New_Gradient_Swatch_1);}.cls-2{fill:#fff;}.cls-3{fill:#ba9544;}</style><linearGradient id="New_Gradient_Swatch_1" x1="272.79963" y1="460.21487" x2="367.67563" y2="460.21487" gradientUnits="userSpaceOnUse"><stop offset="0" stop-color="#a88a34"/><stop offset="0.49324" stop-color="#caaf67"/><stop offset="1" stop-color="#957f2e"/></linearGradient></defs><title>diesel</title><polygon class="cls-1" points="354.883 428.277 315.327 413.094 278.799 434.554 272.8 476.495 301.85 507.335 344.073 503.853 367.676 468.666 354.883 428.277"/><path class="cls-2" d="M307.57208,448.9018a4.04865,4.04865,0,0,1,.76263-.313,7.33,7.33,0,0,1,.85081-.216l.0485-.01762,8.32292-1.82946a2.69375,2.69375,0,0,1,1.77656.2733l1.40185,1.371-2.91392,3.05057-9.28836,2.041c-.37029-1.67515-.75381-3.42086-.961-4.35983m28.88337,23.21864L331.884,451.32636a3.11687,3.11687,0,0,0-3.46495-2.41134l2.451-2.57446.67448.63919,1.01833-1.08a.66148.66148,0,0,0-.02647-.93459L327.60792,440.31a.66148.66148,0,0,0-.93456.02647l-1.01833,1.08.81112.76706-3.271,3.42968-1.62228-1.58259-.11459-.08815a6.19839,6.19839,0,0,0-4.65963-.87728L308.564,444.877a12.05117,12.05117,0,0,0-1.45476.37471,4.95635,4.95635,0,0,0-2.66261,1.77655,2.87562,2.87562,0,0,0-.432,2.24385c.25567,1.14618,1.14614,5.20624,1.684,7.644.00881.0529.01762.10579.03087.1587l4.57142,20.79848a3.098,3.098,0,0,0,3.703,2.354l20.06227-4.41274a3.11419,3.11419,0,0,0,2.38935-3.69418"/><path class="cls-3" d="M277.11933,557.258V539.81071h6.71875q8.13575,0,8.13574,8.72949,0,8.71729-8.13574,8.71778Zm6.71875-3.47559q4.63769-.01171,4.64941-5.24219-.01171-5.231-4.64941-5.23047h-3.23145v10.47266Z"/><path class="cls-3" d="M295.717,539.81071h3.47559V557.258H295.717Z"/><path class="cls-3" d="M302.64374,557.258V539.83415l12.80957-.01172v3.25488h-9.32226V546.797h6.98632v3.24316h-6.98632v3.96289h9.29882V557.258Z"/><path class="cls-3" d="M328.40155,540.40348a8.12854,8.12854,0,0,1,2.499,1.74415l-2.3252,2.32421a4.00161,4.00161,0,0,0-3.2539-1.39453q-2.09327,0-2.67383.98828a1.35969,1.35969,0,0,0,0,1.68555,4.59475,4.59475,0,0,0,2.67383,1.0459,8.65018,8.65018,0,0,1,4.00976,1.45312,4.36394,4.36394,0,0,1,1.80176,3.89356,4.47285,4.47285,0,0,1-1.92383,3.60351,7.04735,7.04735,0,0,1-4.48047,1.51075,10.32636,10.32636,0,0,1-4.05664-.69727,8.78152,8.78152,0,0,1-2.79-1.86035l2.3252-2.32422a5.5207,5.5207,0,0,0,3.95117,1.627q2.3247,0,2.90039-.9873a1.8405,1.8405,0,0,0,0-1.97656q-.57569-.98731-2.90039-1.22071a9.36358,9.36358,0,0,1-3.835-1.27832,3.85654,3.85654,0,0,1-1.74414-3.60351,4.33806,4.33806,0,0,1,1.98242-3.71289,6.97213,6.97213,0,0,1,4.07324-1.40137A9.74512,9.74512,0,0,1,328.40155,540.40348Z"/><path class="cls-3" d="M334.20136,557.258V539.83415l12.80957-.01172v3.25488h-9.32227V546.797H344.675v3.24316h-6.98633v3.96289h9.29883V557.258Z"/><path class="cls-3" d="M354.04218,539.82243v14.18066H363.341V557.258H350.55585V539.82243Z"/></svg>