<svg id="Content" xmlns="http://www.w3.org/2000/svg" xmlns:xlink="http://www.w3.org/1999/xlink" viewBox="0 0 640 1136"><defs><style>.cls-1{fill:#b89344;}.cls-2{fill:none;stroke:#ba9544;stroke-miterlimit:10;stroke-width:0.53px;}</style></defs><title>Frame2 - Sensi Star</title><path class="cls-1" d="M181.59,617.1c7.53,0,11.41,4.51,11.41,12.39V631h-7.33v-2c0-3.52-1.4-4.86-3.87-4.86s-3.87,1.34-3.87,4.86c0,10.14,15.14,12,15.14,26.12,0,7.88-3.95,12.39-11.55,12.39S170,663,170,655.12v-3h7.33v3.52c0,3.52,1.54,4.79,4,4.79s4-1.27,4-4.79c0-10.14-15.14-12-15.14-26.12C170.18,621.61,174.06,617.1,181.59,617.1Z"/><path class="cls-1" d="M212.71,638.43h10.63v7H212.71v14.44h13.37v7H205V617.66h21.12v7H212.71Z"/><path class="cls-1" d="M245.23,631.25V667h-7V617.66H248l8,29.5v-29.5h6.9V667h-7.95Z"/><path class="cls-1" d="M286.28,617.1c7.53,0,11.4,4.51,11.4,12.39V631h-7.32v-2c0-3.52-1.41-4.86-3.87-4.86s-3.87,1.34-3.87,4.86c0,10.14,15.13,12,15.13,26.12,0,7.88-3.94,12.39-11.54,12.39s-11.55-4.51-11.55-12.39v-3H282v3.52c0,3.52,1.55,4.79,4,4.79s4-1.27,4-4.79c0-10.14-15.14-12-15.14-26.12C274.87,621.61,278.74,617.1,286.28,617.1Z"/><path class="cls-1" d="M309.65,617.66h7.74V667h-7.74Z"/><path class="cls-1" d="M359.28,617.1c7.53,0,11.41,4.51,11.41,12.39V631h-7.33v-2c0-3.52-1.4-4.86-3.87-4.86s-3.87,1.34-3.87,4.86c0,10.14,15.14,12,15.14,26.12,0,7.88-3.95,12.39-11.55,12.39s-11.55-4.51-11.55-12.39v-3H355v3.52c0,3.52,1.54,4.79,4,4.79s4-1.27,4-4.79c0-10.14-15.14-12-15.14-26.12C347.87,621.61,351.75,617.1,359.28,617.1Z"/><path class="cls-1" d="M380.4,617.66h23.94v7h-8.1V667H388.5V624.7h-8.1Z"/><path class="cls-1" d="M440.24,667h-7.81L431.09,658h-9.51L420.25,667h-7.11L421,617.66h11.34Zm-17.67-15.63H430l-3.73-24.93Z"/><path class="cls-1" d="M467.49,667c-.42-1.27-.71-2.05-.71-6.06v-7.74c0-4.58-1.55-6.27-5.07-6.27H459V667h-7.75V617.66H463c8,0,11.48,3.73,11.48,11.34v3.87c0,5.07-1.62,8.38-5.07,10,3.87,1.62,5.14,5.35,5.14,10.49V661a14.6,14.6,0,0,0,.84,6ZM459,624.7v15.14h3c2.88,0,4.64-1.27,4.64-5.21v-4.86c0-3.52-1.19-5.07-3.94-5.07Z"/><image width="1500" height="1261" transform="translate(218.58 -174.04) scale(0.15)" xlink:href="../../../../../Dropbox%20(Revolution%20Strategy)/Rocio%20Ugarte/Clients/Namaste/Digital%20Ads/_Flight%202:Phase%202%20Terpene/1.%20Animated%20w:%20Packaging/9.%20Expandable%20Unit%20640%20x%20100:640%20x%201136/640%20x%20100_640%20x%201136V2_Folder/Links/SmallTopDown-8342SensiStar.png"/><rect class="cls-2" x="617.06" y="9.35" width="13.38" height="13.38"/><line class="cls-2" x1="619.04" y1="20.8" x2="628.52" y2="11.55"/><line class="cls-2" x1="619.23" y1="11.55" x2="628.48" y2="21.03"/></svg>