<svg id="Content" xmlns="http://www.w3.org/2000/svg" xmlns:xlink="http://www.w3.org/1999/xlink" viewBox="0 0 640 1136"><defs><style>.cls-1{fill:#b89344;}.cls-2{fill:none;stroke:#ba9544;stroke-miterlimit:10;stroke-width:0.53px;}</style></defs><title>Frame2 - Shishkaberry</title><path class="cls-1" d="M130.29,617.1c7.54,0,11.41,4.51,11.41,12.39V631h-7.32v-2c0-3.52-1.41-4.86-3.88-4.86s-3.87,1.34-3.87,4.86c0,10.14,15.14,12,15.14,26.12,0,7.88-3.94,12.39-11.55,12.39s-11.54-4.51-11.54-12.39v-3H126v3.52c0,3.52,1.55,4.79,4,4.79s4-1.27,4-4.79c0-10.14-15.13-12-15.13-26.12C118.89,621.61,122.76,617.1,130.29,617.1Z"/><path class="cls-1" d="M161.41,667h-7.74V617.66h7.74v21.12h8.8V617.66h7.89V667h-7.89V645.83h-8.8Z"/><path class="cls-1" d="M191.19,617.66h7.74V667h-7.74Z"/><path class="cls-1" d="M222.45,617.1c7.53,0,11.4,4.51,11.4,12.39V631h-7.32v-2c0-3.52-1.41-4.86-3.87-4.86s-3.87,1.34-3.87,4.86c0,10.14,15.13,12,15.13,26.12,0,7.88-3.94,12.39-11.54,12.39s-11.55-4.51-11.55-12.39v-3h7.32v3.52c0,3.52,1.55,4.79,4,4.79s4-1.27,4-4.79c0-10.14-15.14-12-15.14-26.12C211,621.61,214.91,617.1,222.45,617.1Z"/><path class="cls-1" d="M253.56,667h-7.74V617.66h7.74v21.12h8.8V617.66h7.89V667h-7.89V645.83h-8.8Z"/><path class="cls-1" d="M293.48,647.3l-2.39,4.51V667h-7.75V617.66h7.75v21.48l10.13-21.48H309l-10.77,22L309,667h-8Z"/><path class="cls-1" d="M345,667H337.2L335.86,658h-9.5L325,667h-7.11l7.88-49.29h11.34Zm-17.67-15.63h7.47l-3.74-24.93Z"/><path class="cls-1" d="M379.23,629v1.76c0,5.07-1.55,8.31-5,9.93,4.15,1.61,5.77,5.35,5.77,10.56v4c0,7.6-4,11.69-11.75,11.69H356.07V617.66h11.68C375.78,617.66,379.23,621.39,379.23,629Zm-15.42-4.3v13h3c2.88,0,4.64-1.27,4.64-5.21v-2.75c0-3.52-1.19-5.07-3.94-5.07Zm0,20.07v15.14h4.44c2.6,0,4-1.2,4-4.86v-4.3c0-4.57-1.48-6-5-6Z"/><path class="cls-1" d="M399.85,638.43h10.64v7H399.85v14.44h13.38v7H392.11V617.66h21.12v7H399.85Z"/><path class="cls-1" d="M441.67,667c-.42-1.27-.7-2.05-.7-6.06v-7.74c0-4.58-1.55-6.27-5.07-6.27h-2.68V667h-7.74V617.66h11.69c8,0,11.47,3.73,11.47,11.34v3.87c0,5.07-1.62,8.38-5.07,10,3.88,1.62,5.14,5.35,5.14,10.49V661a14.43,14.43,0,0,0,.85,6Zm-8.45-42.25v15.14h3c2.89,0,4.65-1.27,4.65-5.21v-4.86c0-3.52-1.2-5.07-3.94-5.07Z"/><path class="cls-1" d="M477.44,667c-.43-1.27-.71-2.05-.71-6.06v-7.74c0-4.58-1.55-6.27-5.07-6.27H469V667h-7.75V617.66h11.69c8,0,11.48,3.73,11.48,11.34v3.87c0,5.07-1.62,8.38-5.07,10,3.87,1.62,5.14,5.35,5.14,10.49V661a14.6,14.6,0,0,0,.84,6ZM469,624.7v15.14h3c2.88,0,4.64-1.27,4.64-5.21v-4.86c0-3.52-1.19-5.07-3.94-5.07Z"/><path class="cls-1" d="M504.26,650.61l-9.79-33h8.1l5.91,22.46,5.92-22.46h7.39l-9.79,33V667h-7.74Z"/><image width="1500" height="1261" transform="translate(216.73 -172.04) scale(0.15)" xlink:href="../../../../../Dropbox%20(Revolution%20Strategy)/Rocio%20Ugarte/Clients/Namaste/Digital%20Ads/_Flight%202:Phase%202%20Terpene/1.%20Animated%20w:%20Packaging/9.%20Expandable%20Unit%20640%20x%20100:640%20x%201136/640%20x%20100_640%20x%201136V2_Folder/Links/SmallTopDown-8268-Shishkaberry.png"/><rect class="cls-2" x="617.06" y="9.35" width="13.38" height="13.38"/><line class="cls-2" x1="619.04" y1="20.8" x2="628.52" y2="11.55"/><line class="cls-2" x1="619.23" y1="11.55" x2="628.48" y2="21.03"/></svg>