<svg id="Content" xmlns="http://www.w3.org/2000/svg" xmlns:xlink="http://www.w3.org/1999/xlink" viewBox="0 0 640 1136"><defs><style>.cls-1{fill:#b89344;}.cls-2{fill:none;stroke:#ba9544;stroke-miterlimit:10;stroke-width:0.53px;}</style></defs><title>Frame2 - Durga Mata</title><path class="cls-1" d="M125.87,617.66h12.25c7.75,0,11.55,4.3,11.55,12.18v24.93c0,7.88-3.8,12.18-11.55,12.18H125.87Zm7.75,7v35.21H138c2.46,0,3.94-1.27,3.94-4.79V629.49c0-3.52-1.48-4.79-3.94-4.79Z"/><path class="cls-1" d="M169.45,617.66v38c0,3.52,1.55,4.79,4,4.79s4-1.27,4-4.79v-38h7.32v37.53c0,7.88-3.94,12.39-11.55,12.39s-11.55-4.51-11.55-12.39V617.66Z"/><path class="cls-1" d="M213.73,667c-.42-1.27-.7-2.05-.7-6.06v-7.74c0-4.58-1.55-6.27-5.07-6.27h-2.68V667h-7.74V617.66h11.69c8,0,11.47,3.73,11.47,11.34v3.87c0,5.07-1.62,8.38-5.07,10,3.87,1.62,5.14,5.35,5.14,10.49V661a14.43,14.43,0,0,0,.85,6Zm-8.45-42.25v15.14h3c2.89,0,4.65-1.27,4.65-5.21v-4.86c0-3.52-1.2-5.07-4-5.07Z"/><path class="cls-1" d="M244.92,639.49h10.84v15.63c0,7.88-3.94,12.39-11.55,12.39s-11.54-4.51-11.54-12.39V629.49c0-7.88,3.94-12.39,11.54-12.39s11.55,4.51,11.55,12.39v4.79h-7.32V629c0-3.52-1.55-4.86-4-4.86s-4,1.34-4,4.86v26.61c0,3.52,1.55,4.79,4,4.79s4-1.27,4-4.79v-9.08h-3.52Z"/><path class="cls-1" d="M293.28,667h-7.81L284.13,658h-9.5L273.29,667h-7.11l7.89-49.29H285.4Zm-17.67-15.63h7.47l-3.73-24.93Z"/><path class="cls-1" d="M339.12,652.65l5.28-35h10.77V667h-7.32V631.6L342.49,667h-7.32L329.4,632.1V667h-6.76V617.66h10.77Z"/><path class="cls-1" d="M393.32,667h-7.81L384.17,658h-9.5L373.33,667h-7.11l7.88-49.29h11.34Zm-17.67-15.63h7.47l-3.74-24.93Z"/><path class="cls-1" d="M402.12,617.66h23.94v7H418V667h-7.74V624.7h-8.1Z"/><path class="cls-1" d="M462,667h-7.81L452.81,658h-9.5L442,667h-7.11l7.88-49.29h11.34Zm-17.67-15.63h7.47L448,626.39Z"/><path class="cls-1" d="M502.73,624.14c-2.47,0-4,1.34-4,4.86v5.28h-7.32v-4.79c0-7.88,3.94-12.39,11.55-12.39s11.54,4.51,11.54,12.39c0,15.49-15.41,21.26-15.41,29.36a5.45,5.45,0,0,0,.07,1.06h14.64v7H491.39v-6.06c0-14.5,15.35-16.9,15.35-31.12C506.74,625.34,505.19,624.14,502.73,624.14Z"/><image width="1500" height="1261" transform="translate(218.58 -174.04) scale(0.15)" xlink:href="../../../../../Dropbox%20(Revolution%20Strategy)/Rocio%20Ugarte/Clients/Namaste/Digital%20Ads/_Flight%202:Phase%202%20Terpene/1.%20Animated%20w:%20Packaging/9.%20Expandable%20Unit%20640%20x%20100:640%20x%201136/640%20x%20100_640%20x%201136V2_Folder/Links/SmallTopDown-8297-DurgaMata2.png"/><rect class="cls-2" x="617.06" y="9.35" width="13.38" height="13.38"/><line class="cls-2" x1="619.04" y1="20.8" x2="628.52" y2="11.55"/><line class="cls-2" x1="619.23" y1="11.55" x2="628.48" y2="21.03"/></svg>