<svg id="Content" xmlns="http://www.w3.org/2000/svg" xmlns:xlink="http://www.w3.org/1999/xlink" viewBox="0 0 640 1136"><defs><style>.cls-1{fill:#b89344;}.cls-2{fill:none;stroke:#ba9544;stroke-miterlimit:10;stroke-width:0.53px;}</style></defs><title>Frame2 - MK Ultra</title><path class="cls-1" d="M207.44,652.65l5.28-35h10.77V667h-7.32V631.6L210.82,667H203.5l-5.78-34.85V667H191V617.66h10.78Z"/><path class="cls-1" d="M246.72,647.3l-2.39,4.51V667h-7.75V617.66h7.75v21.48l10.14-21.48h7.74l-10.77,22L262.21,667h-7.95Z"/><path class="cls-1" d="M299,617.66v38c0,3.52,1.55,4.79,4,4.79s4-1.27,4-4.79v-38h7.33v37.53c0,7.88-3.94,12.39-11.55,12.39s-11.55-4.51-11.55-12.39V617.66Z"/><path class="cls-1" d="M327.05,617.66h7.74v42.25h12.75v7H327.05Z"/><path class="cls-1" d="M356.12,617.66h23.94v7H372V667h-7.74V624.7h-8.1Z"/><path class="cls-1" d="M407.09,667c-.42-1.27-.7-2.05-.7-6.06v-7.74c0-4.58-1.55-6.27-5.07-6.27h-2.67V667H390.9V617.66h11.69c8,0,11.47,3.73,11.47,11.34v3.87c0,5.07-1.61,8.38-5.06,10,3.87,1.62,5.13,5.35,5.13,10.49V661a14.43,14.43,0,0,0,.85,6Zm-8.44-42.25v15.14h3c2.89,0,4.65-1.27,4.65-5.21v-4.86c0-3.52-1.2-5.07-3.94-5.07Z"/><path class="cls-1" d="M451.73,667h-7.82L442.58,658h-9.51L431.73,667h-7.11l7.89-49.29h11.33Zm-17.67-15.63h7.46l-3.73-24.93Z"/><image width="1500" height="1261" transform="translate(218.58 -174.04) scale(0.15)" xlink:href="../../../../../Dropbox%20(Revolution%20Strategy)/Rocio%20Ugarte/Clients/Namaste/Digital%20Ads/_Flight%202:Phase%202%20Terpene/1.%20Animated%20w:%20Packaging/9.%20Expandable%20Unit%20640%20x%20100:640%20x%201136/640%20x%20100_640%20x%201136V2_Folder/Links/SmallTopDown-8307-MKUltra.png"/><rect class="cls-2" x="617.06" y="9.35" width="13.38" height="13.38"/><line class="cls-2" x1="619.04" y1="20.8" x2="628.52" y2="11.55"/><line class="cls-2" x1="619.23" y1="11.55" x2="628.48" y2="21.03"/></svg>