<?xml version="1.0" encoding="utf-8"?>
<!-- Generator: Adobe Illustrator 23.0.1, SVG Export Plug-In . SVG Version: 6.00 Build 0)  -->
<svg version="1.1" id="Layer_2" xmlns="http://www.w3.org/2000/svg" xmlns:xlink="http://www.w3.org/1999/xlink" x="0px" y="0px"
	 viewBox="0 0 728 90" enable-background="new 0 0 728 90" xml:space="preserve">
<g>
	<path fill="#BA9544" d="M309.12,34.91v17.28c0,1.6,0.7,2.18,1.82,2.18c1.12,0,1.82-0.58,1.82-2.18V34.91h3.33v17.06
		c0,3.58-1.79,5.63-5.25,5.63c-3.46,0-5.25-2.05-5.25-5.63V34.91H309.12z"/>
	<path fill="#BA9544" d="M321.89,34.91h3.52v19.2h5.79v3.2h-9.31V34.91z"/>
	<path fill="#BA9544" d="M335.1,34.91h10.88v3.2h-3.68v19.2h-3.52v-19.2h-3.68V34.91z"/>
	<path fill="#BA9544" d="M358.27,57.31c-0.19-0.58-0.32-0.93-0.32-2.75v-3.52c0-2.08-0.7-2.85-2.3-2.85h-1.22v9.12h-3.52v-22.4h5.31
		c3.65,0,5.22,1.7,5.22,5.15v1.76c0,2.3-0.74,3.81-2.3,4.54c1.76,0.74,2.34,2.43,2.34,4.77v3.46c0,1.09,0.03,1.89,0.38,2.72H358.27z
		 M354.43,38.11v6.88h1.38c1.31,0,2.11-0.58,2.11-2.37v-2.21c0-1.6-0.54-2.3-1.79-2.3H354.43z"/>
	<path fill="#BA9544" d="M378.56,57.31H375l-0.61-4.06h-4.32l-0.61,4.06h-3.23l3.58-22.4h5.15L378.56,57.31z M370.53,50.2h3.39
		l-1.7-11.33L370.53,50.2z"/>
	<path fill="#BA9544" d="M396.67,34.65c3.42,0,5.18,2.05,5.18,5.63v0.7h-3.33v-0.93c0-1.6-0.64-2.21-1.76-2.21s-1.76,0.61-1.76,2.21
		c0,4.61,6.88,5.47,6.88,11.87c0,3.58-1.79,5.63-5.25,5.63s-5.25-2.05-5.25-5.63v-1.38h3.33v1.6c0,1.6,0.7,2.18,1.82,2.18
		c1.12,0,1.82-0.58,1.82-2.18c0-4.61-6.88-5.47-6.88-11.87C391.49,36.7,393.25,34.65,396.67,34.65z"/>
	<path fill="#BA9544" d="M407.01,40.28c0-3.58,1.89-5.63,5.34-5.63s5.34,2.05,5.34,5.63v11.65c0,3.58-1.89,5.63-5.34,5.63
		s-5.34-2.05-5.34-5.63V40.28z M410.53,52.16c0,1.6,0.7,2.21,1.82,2.21s1.82-0.61,1.82-2.21v-12.1c0-1.6-0.7-2.21-1.82-2.21
		s-1.82,0.61-1.82,2.21V52.16z"/>
	<path fill="#BA9544" d="M426.72,34.91v17.28c0,1.6,0.7,2.18,1.82,2.18c1.12,0,1.82-0.58,1.82-2.18V34.91h3.33v17.06
		c0,3.58-1.79,5.63-5.25,5.63s-5.25-2.05-5.25-5.63V34.91H426.72z"/>
	<path fill="#BA9544" d="M446.84,57.31c-0.19-0.58-0.32-0.93-0.32-2.75v-3.52c0-2.08-0.7-2.85-2.3-2.85H443v9.12h-3.52v-22.4h5.31
		c3.65,0,5.22,1.7,5.22,5.15v1.76c0,2.3-0.74,3.81-2.3,4.54c1.76,0.74,2.34,2.43,2.34,4.77v3.46c0,1.09,0.03,1.89,0.38,2.72H446.84z
		 M443,38.11v6.88h1.38c1.31,0,2.11-0.58,2.11-2.37v-2.21c0-1.6-0.54-2.3-1.79-2.3H443z"/>
</g>
<g>
</g>
<g>
</g>
<g>
</g>
<g>
</g>
<g>
</g>
<g>
</g>
<g>
</g>
<g>
</g>
<g>
</g>
<g>
</g>
<g>
</g>
<g>
</g>
<g>
</g>
<g>
</g>
<g>
</g>
</svg>
