<svg id="Layer_1" data-name="Layer 1" xmlns="http://www.w3.org/2000/svg" xmlns:xlink="http://www.w3.org/1999/xlink" width="320" height="50" viewBox="0 0 320 50"><defs><style>.cls-1{fill:url(#linear-gradient);}.cls-2{fill:url(#linear-gradient-2);}.cls-3{fill:url(#linear-gradient-3);}.cls-4{fill:url(#linear-gradient-4);}.cls-5{fill:url(#linear-gradient-5);}.cls-6{fill:url(#linear-gradient-6);}.cls-7{fill:url(#linear-gradient-7);}</style><linearGradient id="linear-gradient" x1="128.80554" y1="24.59585" x2="134.33722" y2="24.59585" gradientTransform="matrix(1, 0, 0, -1, 0, 52)" gradientUnits="userSpaceOnUse"><stop offset="0" stop-color="#cab272"/><stop offset="0.20527" stop-color="#cdb36c"/><stop offset="0.4882" stop-color="#d4b75a"/><stop offset="0.50029" stop-color="#d4b759"/><stop offset="0.74962" stop-color="#d4b563"/><stop offset="1" stop-color="#d3b372"/></linearGradient><linearGradient id="linear-gradient-2" x1="137.23398" y1="24.59195" x2="143.65852" y2="24.59195" xlink:href="#linear-gradient"/><linearGradient id="linear-gradient-3" x1="146.91667" y1="24.59195" x2="153.34122" y2="24.59195" xlink:href="#linear-gradient"/><linearGradient id="linear-gradient-4" x1="156.62932" y1="24.59583" x2="163.76149" y2="24.59583" xlink:href="#linear-gradient"/><linearGradient id="linear-gradient-5" x1="170.49149" y1="24.51081" x2="176.91632" y2="24.51081" xlink:href="#linear-gradient"/><linearGradient id="linear-gradient-6" x1="180.22586" y1="24.59758" x2="186.60058" y2="24.59758" xlink:href="#linear-gradient"/><linearGradient id="linear-gradient-7" x1="189.50255" y1="18.87613" x2="191.53082" y2="18.87613" xlink:href="#linear-gradient"/></defs><title>frame2</title><path class="cls-1" d="M134.33722,34.13065h-5.53168v-13.453h2.02828v11.4395h3.50338Z"/><path class="cls-2" d="M140.43539,20.51536a3.21671,3.21671,0,0,1,3.22312,3.21025q0,.00643,0,.01287v7.33868a3.21728,3.21728,0,0,1-3.21143,3.22312h-.01169a3.06876,3.06876,0,0,1-2.2678-.94407,3.12421,3.12421,0,0,1-.93318-2.279V23.73848a3.21673,3.21673,0,0,1,3.201-3.22312Zm1.10634,3.18519a1.14539,1.14539,0,0,0-1.13376-1.15692q-.01212-.00012-.02424,0a1.13362,1.13362,0,0,0-.82221.33541,1.10437,1.10437,0,0,0-.34314.8215v7.36256a1.10773,1.10773,0,0,0,.34314.818,1.12747,1.12747,0,0,0,.82221.33928,1.15184,1.15184,0,0,0,1.158-1.14563V23.70055Z"/><path class="cls-3" d="M150.1181,20.51536a3.21727,3.21727,0,0,1,3.22312,3.21144v7.35036a3.21728,3.21728,0,0,1-3.21143,3.22312h-.01169a3.0695,3.0695,0,0,1-2.26815-.94407,3.12388,3.12388,0,0,1-.93285-2.279V23.73848A3.21676,3.21676,0,0,1,150.1181,20.51536Zm1.10633,3.18519a1.146,1.146,0,0,0-1.135-1.15692q-.01152-.00011-.023,0a1.1344,1.1344,0,0,0-.82255.33541,1.104,1.104,0,0,0-.34279.8215v7.36256a1.10733,1.10733,0,0,0,.34279.818,1.12824,1.12824,0,0,0,.82255.33928,1.15241,1.15241,0,0,0,1.158-1.14677V23.70055Z"/><path class="cls-4" d="M158.65759,29.88232v4.24833h-2.02827v-13.453h2.02827v4.79412l2.46344-4.79412h2.16843l-2.77322,5.50217,3.24525,7.95086H161.3792l-2.1242-5.45057Z"/><path class="cls-5" d="M173.6925,34.30028a3.18554,3.18554,0,0,1-3.201-3.17007q-.00006-.01176,0-.02354v-10.429h1.984V31.08454a1.10953,1.10953,0,0,0,.34279.81869,1.12823,1.12823,0,0,0,.82256.33927,1.15239,1.15239,0,0,0,1.158-1.14675V20.67762h2.11679V31.10667a3.05023,3.05023,0,0,1-.94407,2.27167A3.14337,3.14337,0,0,1,173.6925,34.30028Z"/><path class="cls-6" d="M183.41946,20.67762a3.07946,3.07946,0,0,1,2.36019.9367,3.23008,3.23008,0,0,1,.81869,2.27167v1.95452a3.12463,3.12463,0,0,1-.92791,2.27168,3.03223,3.03223,0,0,1-2.24569.94407h-1.1706v5.07439h-2.02828v-13.453Zm1.2096,3.24525a1.16935,1.16935,0,0,0-.31258-.852,1.12087,1.12087,0,0,0-.84187-.32067h-1.22047v4.3h1.22047a1.101,1.101,0,0,0,.81973-.34314,1.13577,1.13577,0,0,0,.33472-.8222Z"/><path class="cls-7" d="M189.50255,32.10974h2.02827V34.138h-2.02827Z"/></svg>