<svg id="Layer_1" data-name="Layer 1" xmlns="http://www.w3.org/2000/svg" xmlns:xlink="http://www.w3.org/1999/xlink" width="320" height="50" viewBox="0 0 320 50"><defs><style>.cls-1{fill:none;}.cls-2{clip-path:url(#clip-path);}.cls-3{clip-path:url(#clip-path-2);}.cls-4{fill:url(#linear-gradient);}.cls-5{clip-path:url(#clip-path-3);}.cls-6{fill:url(#linear-gradient-2);}.cls-7{clip-path:url(#clip-path-4);}.cls-8{fill:url(#linear-gradient-3);}.cls-9{clip-path:url(#clip-path-5);}.cls-10{fill:url(#linear-gradient-4);}.cls-11{clip-path:url(#clip-path-6);}.cls-12{fill:url(#linear-gradient-5);}.cls-13{clip-path:url(#clip-path-7);}.cls-14{fill:url(#linear-gradient-6);}.cls-15{clip-path:url(#clip-path-8);}.cls-16{fill:url(#linear-gradient-7);}.cls-17{clip-path:url(#clip-path-9);}.cls-18{fill:url(#linear-gradient-8);}.cls-19{clip-path:url(#clip-path-10);}.cls-20{fill:url(#linear-gradient-9);}.cls-21{clip-path:url(#clip-path-11);}.cls-22{fill:url(#linear-gradient-10);}.cls-23{clip-path:url(#clip-path-12);}.cls-24{fill:url(#linear-gradient-11);}.cls-25{clip-path:url(#clip-path-13);}.cls-26{fill:url(#linear-gradient-12);}.cls-27{clip-path:url(#clip-path-14);}.cls-28{fill:url(#linear-gradient-13);}.cls-29{clip-path:url(#clip-path-15);}.cls-30{fill:url(#linear-gradient-14);}.cls-31{clip-path:url(#clip-path-16);}.cls-32{fill:url(#linear-gradient-15);}.cls-33{clip-path:url(#clip-path-17);}.cls-34{fill:url(#linear-gradient-16);}.cls-35{clip-path:url(#clip-path-18);}.cls-36{fill:url(#linear-gradient-17);}.cls-37{clip-path:url(#clip-path-19);}.cls-38{fill:url(#linear-gradient-18);}.cls-39{clip-path:url(#clip-path-20);}.cls-40{fill:url(#linear-gradient-19);}.cls-41{clip-path:url(#clip-path-21);}.cls-42{fill:url(#linear-gradient-20);}</style><clipPath id="clip-path"><rect class="cls-1" x="11.52318" y="16.32124" width="80.30901" height="18.24838"/></clipPath><clipPath id="clip-path-2"><path class="cls-1" d="M87.49024,20.09131v1.151h-.22862v-1.151h-.42829v-.20546h1.08685v.20546Zm1.81605,1.151-.00182-1.01341-.42813.8718H88.727l-.42829-.8718v1.01341h-.21489v-1.3565H88.355l.44764.90108.44582-.90108h.26932v1.3565Z"/></clipPath><linearGradient id="linear-gradient" x1="-543.27327" y1="346.74176" x2="-542.96029" y2="346.74176" gradientTransform="translate(-5053.84611 3303.37463) rotate(-179.99994) scale(9.46761)" gradientUnits="userSpaceOnUse"><stop offset="0" stop-color="#ad8f35"/><stop offset="0.18781" stop-color="#ceb467"/><stop offset="0.46098" stop-color="#a58f4b"/><stop offset="0.76341" stop-color="#ceb467"/><stop offset="1" stop-color="#997f2f"/></linearGradient><clipPath id="clip-path-3"><polygon class="cls-1" points="35.762 24.747 40.356 29.341 40.9 29.341 40.9 21.931 39.418 21.931 39.418 26.575 34.774 21.931 34.28 21.931 34.28 29.341 35.762 29.341 35.762 24.747"/></clipPath><linearGradient id="linear-gradient-2" x1="-514.66489" y1="414.74641" x2="-514.57508" y2="414.74641" gradientTransform="translate(30913.35194 38336.48928) rotate(90.00001) scale(74.44493)" xlink:href="#linear-gradient"/><clipPath id="clip-path-4"><path class="cls-1" d="M49.45138,29.33667l-2.95932-7.40532H45.01l-2.96411,7.41012H43.6267l.44467-1.136h3.35949l.4445,1.136Zm-4.78712-2.61341,1.12639-2.81589,1.09661,2.81589Z"/></clipPath><linearGradient id="linear-gradient-3" x1="-514.56057" y1="414.74623" x2="-514.46022" y2="414.74623" gradientTransform="translate(30921.50276 38328.32674) rotate(90) scale(74.44493)" xlink:href="#linear-gradient"/><clipPath id="clip-path-5"><polygon class="cls-1" points="57.973 21.931 57.479 21.931 54.263 25.587 51.052 21.931 50.558 21.931 50.558 29.341 52.04 29.341 52.04 25.044 54.263 27.514 56.486 25.044 56.491 29.341 57.973 29.341 57.973 21.931"/></clipPath><linearGradient id="linear-gradient-4" x1="-514.44624" y1="414.74641" x2="-514.34575" y2="414.74641" gradientTransform="translate(30930.03789 38319.80616) rotate(89.99999) scale(74.44493)" xlink:href="#linear-gradient"/><clipPath id="clip-path-6"><path class="cls-1" d="M66.46534,29.33667,63.506,21.93135H62.024l-2.96412,7.41012h1.581l.44466-1.136h3.35932l.44466,1.136Zm-4.78695-2.61341,1.12622-2.81589,1.09662,2.81589Z"/></clipPath><linearGradient id="linear-gradient-5" x1="-514.33204" y1="414.74623" x2="-514.23168" y2="414.74623" gradientTransform="translate(30938.51672 38311.31345) rotate(90) scale(74.44493)" xlink:href="#linear-gradient"/><clipPath id="clip-path-7"><path class="cls-1" d="M68.25112,22.52655a1.84439,1.84439,0,0,0-.84219,1.57867A1.64,1.64,0,0,0,68.15,25.63658a3.98561,3.98561,0,0,0,1.63011.54326q.98784.09925,1.23276.51894a.783.783,0,0,1,0,.83971q-.24467.41985-1.23276.41985a2.34714,2.34714,0,0,1-1.67958-.69165l-.98809.98809a3.73713,3.73713,0,0,0,1.18561.79041,4.38831,4.38831,0,0,0,1.72424.29628,2.994,2.994,0,0,0,1.90441-.642,1.90022,1.90022,0,0,0,.81752-1.53152,1.85518,1.85518,0,0,0-.76558-1.65493,3.67784,3.67784,0,0,0-1.70439-.61737A1.95312,1.95312,0,0,1,69.138,24.4508a.57778.57778,0,0,1,0-.7163q.24715-.41961,1.13632-.41985a1.70186,1.70186,0,0,1,1.3833.59256l.98793-.98793a3.45439,3.45439,0,0,0-1.062-.741,4.13457,4.13457,0,0,0-1.60066-.247,2.96759,2.96759,0,0,0-1.73169.5952"/></clipPath><linearGradient id="linear-gradient-6" x1="-514.22387" y1="414.74642" x2="-514.14734" y2="414.74642" gradientTransform="translate(30945.69634 38304.14794) rotate(90) scale(74.44493)" xlink:href="#linear-gradient"/><clipPath id="clip-path-8"><polygon class="cls-1" points="73.693 21.931 73.693 23.315 76.163 23.315 76.163 29.341 77.645 29.341 77.645 23.315 80.115 23.315 80.115 21.931 73.693 21.931"/></clipPath><linearGradient id="linear-gradient-7" x1="-514.13548" y1="414.74656" x2="-514.04834" y2="414.74656" gradientTransform="translate(30952.68226 38297.17261) rotate(90) scale(74.44493)" xlink:href="#linear-gradient"/><clipPath id="clip-path-9"><polygon class="cls-1" points="81.197 21.936 81.197 29.341 86.631 29.341 86.631 27.958 82.679 27.958 82.679 26.274 85.648 26.274 85.648 24.896 82.679 24.896 82.679 23.315 86.641 23.315 86.641 21.931 81.197 21.936"/></clipPath><linearGradient id="linear-gradient-8" x1="-514.03469" y1="414.74641" x2="-513.96068" y2="414.74641" gradientTransform="translate(30959.69153 38290.15369) rotate(89.99999) scale(74.44493)" xlink:href="#linear-gradient"/><clipPath id="clip-path-10"><path class="cls-1" d="M21.66781,16.32124a23.80039,23.80039,0,0,0-1.29728,3.51151l-.38,1.40017-.11531-.96063a15.75261,15.75261,0,0,0-.33614,1.975,3.17969,3.17969,0,0,0,.06617.97668l.42333,1.95683L19.154,23.554a8.31175,8.31175,0,0,0,.24848,3.2867l.74954,2.61936-1.2708-2.40977a.408.408,0,0,0-.02316-.03871l-.14756.10174-.1613-.22515a7.64388,7.64388,0,0,0-.73284-.87676L18.1449,27.629l-.92506-1.772a2.78843,2.78843,0,0,0-.46618-.65327c-.30173-.30587-.61836-.5995-.94557-.87792l.405.63028-1.26915-.962A22.51455,22.51455,0,0,0,12.379,22.3416a18.57533,18.57533,0,0,0,.95732,2.64633l.647,1.40761-.53978-.53317c.19007.35187.39868.69959.62316,1.039a2.8713,2.8713,0,0,0,.55252.5995l1.74145,1.45L14.65173,28.133a7.66146,7.66146,0,0,0,1.74161,1.79786l-.23242.38329-.02911.21985-.00993-.00149,1.27924.953-2.11382-.881a2.26334,2.26334,0,0,0-.42729-.13184l.20165.066-1.81175-.00413a15.60121,15.60121,0,0,0-1.72673.10455,14.24824,14.24824,0,0,0,1.47627.81158l1.59405.74789-.18329-.02216a2.39688,2.39688,0,0,0,.40414.05161l2.41556.107-1.64815.31415a5.93225,5.93225,0,0,0,1.19041.13085l1.74823.01141-1.02234.33185,1.57073.27279-2.4187.14541q-.05806.00347-.11332.01042l-1.10968.54276c-.2847.13913-.55038.29033-.7957.44153.30438.02365.63226.038.96443.03192L16.86,34.54563c.03441-.01224.06915-.02581.10373-.0407l2.09231-.911L18.0003,34.408a3.65277,3.65277,0,0,0,.41439-.17717s.16477.095.196.12126a.73862.73862,0,0,0,.08884-.01936,3.72471,3.72471,0,0,0,.91679-.53532,3.85517,3.85517,0,0,1,1.028-.5866,2.53877,2.53877,0,0,1,.36-.067.98475.98475,0,0,1-.474-.29562c-.229-.22878-.31629-.5378-.09561-.603.22035-.065.62018.309.646.309a.47587.47587,0,0,0,.13366-.30786c0-.13218-.09462-.38892-.112-.54409a2.59781,2.59781,0,0,0-.09413-.45045c-.03441-.1024-.27328-.14674-.40165-.226a2.09539,2.09539,0,0,1-.32374-.224,1.02421,1.02421,0,0,1-.13764-.46965,1.85417,1.85417,0,0,0-.07725-.47841c-.04467-.08354-.15947-.1426-.23723-.22052a.33359.33359,0,0,1-.0799-.20529c.05956-.01869.07825.13466.14707.14772s.064.06981.172.1072c.10786.03689.1115.08817.1254.18859s.13515.4402.175.57866c.03986.13863.08172.24285.21852.24749.13665.00445.11812.07542.27908.06236a.89754.89754,0,0,1,.38594.07445c.08652.03043.19537.0334.23259-.027s-.02614-.30422-.02614-.30422c-.05575,0-.06534-.07526-.08652-.14508-.02117-.07.01324-.07527.01324-.07527a.29478.29478,0,1,1,.56162,0s.03441.00531.01307.07527c-.0215.06982-.0306.14508-.08652.14508,0,0-.06336.24368-.0263.30422.03755.06039.14607.0574.23292.027a.89527.89527,0,0,1,.38594-.07445c.1608.01306.14227-.0579.27891-.06236.13681-.00463.17866-.10886.21869-.24749.04-.13846.1608-.47825.17486-.57865.0139-.10042.0177-.1517.12556-.18859.10769-.03739.10323-.09413.172-.1072.069-.01306.08751-.16641.14707-.14772a.33311.33311,0,0,1-.08007.20529c-.07758.07792-.19256.137-.23689.22052a1.83116,1.83116,0,0,0-.07742.47841,1.02416,1.02416,0,0,1-.13764.46965,2.12068,2.12068,0,0,1-.32374.224c-.12837.07924-.36741.12358-.40182.226a2.58489,2.58489,0,0,0-.094.45045c-.01786.15517-.112.41192-.112.54409a.476.476,0,0,0,.1335.30786c.0258,0,.426-.374.64632-.309.22051.06518.13317.3742-.09578.603a.98232.98232,0,0,1-.47412.29562,2.5302,2.5302,0,0,1,.36.067,3.8601,3.8601,0,0,1,1.028.5866,3.73025,3.73025,0,0,0,.91663.53532.78074.78074,0,0,0,.08884.01936c.03142-.02614.19636-.12126.19636-.12126a3.66281,3.66281,0,0,0,.41423.17717l-1.05559-.81406,2.09215.911c.03457.01489.069.02846.10356.0407l1.26485.02249c.33184.00613.65955-.00827.9641-.03192-.24532-.1512-.51116-.3024-.79586-.44153l-1.10968-.54276c-.03656-.00463-.07461-.00811-.113-.01042l-2.41869-.14541,1.57171-.273-1.019-.33168L26.56361,32.78a5.93451,5.93451,0,0,0,1.19041-.13085L26.10587,32.335l2.4154-.107a2.3967,2.3967,0,0,0,.4043-.05161l-.18346.02216,1.594-.74789a14.23455,14.23455,0,0,0,1.47644-.81158,15.60364,15.60364,0,0,0-1.72673-.10455l-1.81191.00413.20181-.066a2.26909,2.26909,0,0,0-.42746.13184l-2.11365.88107,1.27908-.953L27.204,30.534l-.02912-.21985-.23242-.38329A7.6643,7.6643,0,0,0,28.68405,28.133l-1.70886.81787,1.74112-1.45a2.8781,2.8781,0,0,0,.55285-.5995c.22448-.33946.43292-.68718.62316-1.039l-.53978.53317.647-1.40761a18.60891,18.60891,0,0,0,.95716-2.64633A22.54531,22.54531,0,0,0,28.39176,23.994l-1.26667.96014.404-.62961c-.32771.27874-.6445.5727-.9469.87907a2.78432,2.78432,0,0,0-.46634.65327L25.19073,27.629l.32871-1.61754a7.66533,7.66533,0,0,0-.733.87676l-.16112.22515-.1479-.10174a.40867.40867,0,0,0-.023.03871L23.18378,29.46l.74938-2.6192a8.31347,8.31347,0,0,0,.24864-3.287l-.87511,1.62664.42382-1.95667a3.18631,3.18631,0,0,0,.06617-.97635,15.78277,15.78277,0,0,0-.33614-1.975l-.11547.96063-.37982-1.40017A23.81308,23.81308,0,0,0,21.66781,16.32124Z"/></clipPath><linearGradient id="linear-gradient-9" x1="-514.97122" y1="414.74606" x2="-514.69651" y2="414.74606" gradientTransform="translate(30897.39484 38352.20104) rotate(90) scale(74.4449)" xlink:href="#linear-gradient"/><clipPath id="clip-path-11"><path class="cls-1" d="M44.81761,33.09186h1.21026q.51067.01464.52275.36824a.48028.48028,0,0,1-.53019.53251H44.81761Zm0-1.473H45.856q.43722.01464.4493.28486a.41558.41558,0,0,1-.45658.45906h-1.0311Zm-.73879-.73152v3.68l2.0718.00231a1.04567,1.04567,0,0,0,.599-1.94426.77066.77066,0,0,0,.265-.65542q-.05136-1.02828-.982-1.08255Z"/></clipPath><linearGradient id="linear-gradient-10" x1="-514.5322" y1="414.74635" x2="-514.48899" y2="414.74635" gradientTransform="translate(30921.42857 38335.4378) rotate(90.00001) scale(74.44493)" xlink:href="#linear-gradient"/><clipPath id="clip-path-12"><polygon class="cls-1" points="50.373 30.885 49.499 32.088 48.645 30.885 47.781 30.885 49.131 32.726 49.131 34.567 49.867 34.567 49.867 32.726 51.217 30.885 50.373 30.885"/></clipPath><linearGradient id="linear-gradient-11" x1="-514.48248" y1="414.74649" x2="-514.43587" y2="414.74649" gradientTransform="translate(30925.27238 38331.60332) rotate(90) scale(74.44493)" xlink:href="#linear-gradient"/><clipPath id="clip-path-13"><polygon class="cls-1" points="53.419 30.885 53.422 31.572 55.138 31.572 53.422 34.322 53.419 34.567 56.367 34.567 56.367 33.88 54.644 33.88 56.367 31.155 56.367 30.885 53.419 30.885"/></clipPath><linearGradient id="linear-gradient-12" x1="-514.40674" y1="414.74641" x2="-514.3667" y2="414.74641" gradientTransform="translate(30930.66068 38326.20924) rotate(90) scale(74.44493)" xlink:href="#linear-gradient"/><clipPath id="clip-path-14"><polygon class="cls-1" points="57.292 30.887 57.292 34.567 59.993 34.567 59.993 33.88 58.029 33.88 58.029 33.043 59.504 33.043 59.504 32.358 58.029 32.358 58.029 31.572 59.997 31.572 59.997 30.885 57.292 30.887"/></clipPath><linearGradient id="linear-gradient-13" x1="-514.35471" y1="414.74641" x2="-514.31794" y2="414.74641" gradientTransform="matrix(0, 74.44493, -74.44493, 0, 30934.41232, 38322.45776)" xlink:href="#linear-gradient"/><clipPath id="clip-path-15"><polygon class="cls-1" points="63.292 30.885 63.292 33.193 60.985 30.885 60.739 30.885 60.739 34.567 61.475 34.567 61.475 32.284 63.758 34.567 64.028 34.567 64.028 30.885 63.292 30.885"/></clipPath><linearGradient id="linear-gradient-14" x1="-514.30842" y1="414.74641" x2="-514.26379" y2="414.74641" gradientTransform="translate(30938.15104 38318.71918) rotate(90) scale(74.44493)" xlink:href="#linear-gradient"/><clipPath id="clip-path-16"><path class="cls-1" d="M66.45856,31.86687l.54492,1.39918H65.89875Zm-.38793-.9818L64.59784,34.5673h.78545l.221-.56477h1.66915l.221.56477.78263-.00265-1.46981-3.67958Z"/></clipPath><linearGradient id="linear-gradient-15" x1="-514.25658" y1="414.74632" x2="-514.20672" y2="414.74632" gradientTransform="translate(30942.19838 38314.66548) rotate(90) scale(74.44493)" xlink:href="#linear-gradient"/><clipPath id="clip-path-17"><path class="cls-1" d="M69.50952,33.09186h1.21059c.33995.00976.51464.1325.52242.36824a.48006.48006,0,0,1-.53019.53251H69.50952Zm0-1.473h1.03871c.291.00976.4412.10471.44881.28486a.41514.41514,0,0,1-.45658.45906H69.50952Zm-.73846-.73152v3.68l2.07164.00231a1.04578,1.04578,0,0,0,.599-1.94426.773.773,0,0,0,.26518-.65542q-.0516-1.02828-.982-1.08255Z"/></clipPath><linearGradient id="linear-gradient-16" x1="-514.20053" y1="414.74635" x2="-514.15733" y2="414.74635" gradientTransform="translate(30946.12579 38310.74267) rotate(90) scale(74.44493)" xlink:href="#linear-gradient"/><clipPath id="clip-path-18"><rect class="cls-1" x="72.68869" y="30.88258" width="0.7335" height="3.68471"/></clipPath><linearGradient id="linear-gradient-17" x1="-514.1479" y1="414.74641" x2="-514.13761" y2="414.74641" gradientTransform="translate(30948.82803 38308.04244) rotate(89.99999) scale(74.44493)" xlink:href="#linear-gradient"/><clipPath id="clip-path-19"><path class="cls-1" d="M74.49879,31.181a.91576.91576,0,0,0-.41836.78413.814.814,0,0,0,.36791.76079,1.97784,1.97784,0,0,0,.81009.27015q.49156.04913.61224.25773a.38724.38724,0,0,1,0,.41737q-.12084.20869-.61224.2086a1.16733,1.16733,0,0,1-.83441-.34359l-.491.49082a1.86065,1.86065,0,0,0,.58908.39289,2.18035,2.18035,0,0,0,.85708.1474,1.48707,1.48707,0,0,0,.94624-.31928.9449.9449,0,0,0,.406-.761.92224.92224,0,0,0-.38032-.82233,1.82468,1.82468,0,0,0-.84715-.30687.97054.97054,0,0,1-.56443-.22084.28807.28807,0,0,1,0-.356q.12282-.20894.56443-.20861a.84434.84434,0,0,1,.68735.29446l.491-.491a1.70807,1.70807,0,0,0-.52739-.36824,2.06,2.06,0,0,0-.79553-.12258,1.47451,1.47451,0,0,0-.86055.29594"/></clipPath><linearGradient id="linear-gradient-18" x1="-514.13119" y1="414.74641" x2="-514.09316" y2="414.74641" gradientTransform="translate(30951.10515 38305.76699) rotate(89.99999) scale(74.44493)" xlink:href="#linear-gradient"/><clipPath id="clip-path-20"><rect class="cls-1" x="34.27993" y="32.67316" width="6.61988" height="0.80612"/></clipPath><linearGradient id="linear-gradient-19" x1="-514.66361" y1="414.74641" x2="-514.57459" y2="414.74641" gradientTransform="translate(30913.3571 38343.85887) rotate(90) scale(74.44493)" xlink:href="#linear-gradient"/><clipPath id="clip-path-21"><rect class="cls-1" x="80.02106" y="32.67316" width="6.62004" height="0.80612"/></clipPath><linearGradient id="linear-gradient-20" x1="-514.0492" y1="414.74641" x2="-513.96018" y2="414.74641" gradientTransform="translate(30959.0983 38298.11945) rotate(90) scale(74.44493)" xlink:href="#linear-gradient"/></defs><title>logo</title><g class="cls-2"><g class="cls-3"><rect class="cls-4" x="86.69392" y="19.21848" width="2.96319" height="2.69126" transform="translate(5.17275 56.73515) rotate(-36.67441)"/></g><g class="cls-5"><rect class="cls-6" x="33.85553" y="22.29368" width="7.46867" height="6.68548" transform="matrix(0.00889, -0.99996, 0.99996, 0.00889, 11.62034, 62.99693)"/></g><g class="cls-7"><rect class="cls-8" x="42.0108" y="21.90088" width="7.47565" height="7.47106" transform="translate(19.70659 71.15536) rotate(-89.49072)"/></g><g class="cls-9"><rect class="cls-10" x="50.52758" y="21.8961" width="7.47574" height="7.48065" transform="matrix(0.00889, -0.99996, 0.99996, 0.00889, 28.14769, 79.67186)"/></g><g class="cls-11"><rect class="cls-12" x="59.02476" y="21.90088" width="7.47565" height="7.47106" transform="translate(36.56932 88.16864) rotate(-89.49072)"/></g><g class="cls-13"><rect class="cls-14" x="66.19842" y="22.78769" width="7.45989" height="5.69743" transform="translate(43.67142 95.33414) rotate(-89.49072)"/></g><g class="cls-15"><rect class="cls-16" x="73.17053" y="22.3926" width="7.46691" height="6.48763" transform="translate(50.58503 102.3095) rotate(-89.49072)"/></g><g class="cls-17"><rect class="cls-18" x="80.18999" y="22.88158" width="7.45822" height="5.50967" transform="translate(57.53776 109.32433) rotate(-89.49071)"/></g><g class="cls-19"><rect class="cls-20" x="12.4516" y="15.22237" width="18.43262" height="20.45084" transform="matrix(0.00889, -0.99996, 0.99996, 0.00889, -3.9715, 46.88862)"/></g><g class="cls-21"><rect class="cls-22" x="43.81552" y="31.12029" width="3.71039" height="3.21641" transform="translate(12.53757 78.1065) rotate(-89.49072)"/></g><g class="cls-23"><rect class="cls-24" x="47.64261" y="30.99151" width="3.71263" height="3.46933" transform="translate(16.33408 81.93226) rotate(-89.49072)"/></g><g class="cls-25"><rect class="cls-26" x="53.03909" y="31.23576" width="3.70829" height="2.98084" transform="translate(21.68043 87.32636) rotate(-89.49072)"/></g><g class="cls-27"><rect class="cls-28" x="56.7918" y="31.35726" width="3.70613" height="2.73784" transform="translate(25.39872 91.07785) rotate(-89.49072)"/></g><g class="cls-29"><rect class="cls-30" x="60.52793" y="31.06521" width="3.71132" height="3.32195" transform="matrix(0.00889, -0.99996, 0.99996, 0.00889, 29.1042, 94.81642)"/></g><g class="cls-31"><rect class="cls-32" x="64.58006" y="30.87027" width="3.71479" height="3.71183" transform="translate(33.12204 98.87013) rotate(-89.49072)"/></g><g class="cls-33"><rect class="cls-34" x="68.50752" y="31.12055" width="3.71038" height="3.2159" transform="translate(37.01009 102.79752) rotate(-89.49072)"/></g><g class="cls-35"><rect class="cls-36" x="71.20989" y="32.34184" width="3.69109" height="0.76622" transform="translate(39.68241 105.48662) rotate(-89.49071)"/></g><g class="cls-37"><rect class="cls-38" x="73.47872" y="31.3107" width="3.70696" height="2.83098" transform="matrix(0.00889, -0.99996, 0.99996, 0.00889, 41.9377, 107.76452)"/></g><g class="cls-39"><rect class="cls-40" x="37.1574" y="29.76284" width="0.86493" height="6.62678" transform="translate(4.18083 70.37062) rotate(-89.49072)"/></g><g class="cls-41"><rect class="cls-42" x="82.89861" y="29.76274" width="0.86493" height="6.62696" transform="translate(49.51548 116.11001) rotate(-89.49072)"/></g></g></svg>