<svg id="Content" xmlns="http://www.w3.org/2000/svg" width="320" height="50" viewBox="0 0 320 50"><defs><style>.cls-1{fill:#ba9544;}</style></defs><title>Frame1 - Ultra Sour</title><path class="cls-1" d="M131.591,22.75213V30.7199c0,.7378.32519,1.00342.84082,1.00342.5166,0,.84179-.26562.84179-1.00342V22.75213h1.53418v7.86426c0,1.65283-.82617,2.59717-2.41992,2.59717s-2.41992-.94434-2.41992-2.59717V22.75213Z"/><path class="cls-1" d="M137.47867,22.75213h1.62305v8.853h2.6709v1.47558h-4.29395Z"/><path class="cls-1" d="M143.57242,22.75213h5.0166v1.47559h-1.69628v8.853h-1.62305v-8.853h-1.69727Z"/><path class="cls-1" d="M154.255,33.08074a3.1897,3.1897,0,0,1-.14746-1.269v-1.623c0-.959-.32422-1.313-1.0625-1.313h-.56055v4.20507h-1.623V22.75213h2.44921c1.68262,0,2.40528.78174,2.40528,2.37549v.81152a2.05806,2.05806,0,0,1-1.0625,2.09522c.81152.33935,1.07715,1.12158,1.07715,2.19873v1.59326a3.02911,3.02911,0,0,0,.17773,1.25439Zm-1.77051-8.853v3.17236h.63477c.60449,0,.97363-.26562.97363-1.0918V25.29022c0-.7378-.251-1.0625-.82617-1.0625Z"/><path class="cls-1" d="M163.61051,33.08074h-1.6377l-.28027-1.874h-1.99219l-.28027,1.874h-1.49024l1.65235-10.32861h2.376Zm-3.70313-3.27587h1.56348l-.78223-5.22315Z"/><path class="cls-1" d="M171.96207,22.634c1.5791,0,2.39063.94433,2.39063,2.59717v.32421h-1.53418v-.42773c0-.73779-.2959-1.01807-.81153-1.01807-.5166,0-.81152.28028-.81152,1.01807,0,2.125,3.17187,2.52295,3.17187,5.47412,0,1.65283-.82617,2.59717-2.41992,2.59717s-2.41992-.94434-2.41992-2.59717v-.63428h1.53516v.7378c0,.73779.32422,1.00341.84082,1.00341s.84082-.26562.84082-1.00341c0-2.125-3.17188-2.52344-3.17188-5.47412C169.57242,23.5783,170.384,22.634,171.96207,22.634Z"/><path class="cls-1" d="M176.72867,25.23114a2.46729,2.46729,0,1,1,4.92774,0v5.3706a2.46729,2.46729,0,1,1-4.92774,0Zm1.62305,5.47412c0,.73779.32422,1.01806.84082,1.01806s.84082-.28027.84082-1.01806V25.12762c0-.73779-.32422-1.01807-.84082-1.01807s-.84082.28028-.84082,1.01807Z"/><path class="cls-1" d="M185.81754,22.75213V30.7199c0,.7378.3252,1.00342.84082,1.00342.5166,0,.8418-.26562.8418-1.00342V22.75213h1.53418v7.86426c0,1.65283-.82618,2.59717-2.41993,2.59717s-2.41992-.94434-2.41992-2.59717V22.75213Z"/><path class="cls-1" d="M195.09879,33.08074a3.1897,3.1897,0,0,1-.14746-1.269v-1.623c0-.959-.32422-1.313-1.0625-1.313h-.56055v4.20507h-1.623V22.75213h2.44921c1.68262,0,2.40528.78174,2.40528,2.37549v.81152a2.05806,2.05806,0,0,1-1.0625,2.09522c.81152.33935,1.07715,1.12158,1.07715,2.19873v1.59326a3.02911,3.02911,0,0,0,.17773,1.25439Zm-1.77051-8.853v3.17236h.63477c.60449,0,.97363-.26562.97363-1.0918V25.29022c0-.7378-.251-1.0625-.82617-1.0625Z"/></svg>