<svg id="Layer_1" data-name="Layer 1" xmlns="http://www.w3.org/2000/svg" width="320" height="50" viewBox="0 0 320 50"><defs><style>.cls-1{fill:#fff;}</style></defs><title>quality-time</title><path class="cls-1" d="M129.2,30.25h-1.41V20.9h2l1.32,6.71,1.26-6.71h1.94v9.35h-1.41V24.38l-1.22,5.87h-1.13l-1.37-5.86Z"/><path class="cls-1" d="M138.22,20.79A2.24,2.24,0,0,1,140.46,23v5.1a2.24,2.24,0,0,1-2.24,2.24,2.13,2.13,0,0,1-1.58-.66,2.16,2.16,0,0,1-.65-1.58V23a2.17,2.17,0,0,1,.66-1.59A2.13,2.13,0,0,1,138.22,20.79ZM139,23a.76.76,0,0,0-.24-.57.74.74,0,0,0-.57-.23.8.8,0,0,0-.81.8v5.12a.78.78,0,0,0,.24.57.81.81,0,0,0,.57.23.8.8,0,0,0,.81-.8Z"/><path class="cls-1" d="M144.34,20.9a2.14,2.14,0,0,1,1.73.65,2.34,2.34,0,0,1,.49,1.58v1.36a2.16,2.16,0,0,1-.75,1.67l1,4.09h-1.52l-.86-3.53h-.94v3.53h-1.41V20.9Zm.84,2.26c0-.55-.26-.82-.8-.82h-.85v3h.85a.75.75,0,0,0,.57-.24.77.77,0,0,0,.23-.57Z"/><path class="cls-1" d="M148.48,30.25V20.9h4v1.41h-2.6v2.56h1.9v1.41h-1.9v2.56h2.6v1.41Z"/><path class="cls-1" d="M161.13,28.13a2.19,2.19,0,0,1-.3,1.12.67.67,0,0,0,.53.22v1.31a1.52,1.52,0,0,1-1.44-.67,2.09,2.09,0,0,1-1,.26,2.24,2.24,0,0,1-2.24-2.24V23a2.17,2.17,0,0,1,.66-1.59,2.23,2.23,0,0,1,3.16,0,2.19,2.19,0,0,1,.65,1.58ZM159.67,23a.76.76,0,0,0-.24-.57.83.83,0,0,0-1.15,0,.75.75,0,0,0-.23.57v5.12a.77.77,0,0,0,.23.57.83.83,0,0,0,1.15,0,.78.78,0,0,0,.24-.57Z"/><path class="cls-1" d="M165,30.37a2.14,2.14,0,0,1-1.57-.65,2.11,2.11,0,0,1-.65-1.57V20.9h1.38v7.23a.78.78,0,0,0,.23.57.81.81,0,0,0,1.15,0,.78.78,0,0,0,.23-.57V20.9h1.47v7.25a2.16,2.16,0,0,1-.65,1.58A2.19,2.19,0,0,1,165,30.37Z"/><path class="cls-1" d="M170.42,28.1l-.34,2.15h-1.47l1.59-9.35h1.94l1.56,9.35h-1.47l-.34-2.15Zm.74-5.06-.52,3.69h1Z"/><path class="cls-1" d="M179.16,30.25h-3.85V20.9h1.41v8h2.44Z"/><path class="cls-1" d="M182,30.25h-1.41V20.9H182Z"/><path class="cls-1" d="M185,22.31h-1.49V20.9h4.39v1.41h-1.49v7.94H185Z"/><path class="cls-1" d="M191.18,26.33l-1.89-5.43h1.55l1,3.36,1-3.36h1.56l-1.9,5.43v3.92h-1.41Z"/><path class="cls-1" d="M199,22.31h-1.5V20.9h4.4v1.41h-1.5v7.94H199Z"/><path class="cls-1" d="M204.83,30.25h-1.41V20.9h1.41Z"/><path class="cls-1" d="M207.92,30.25h-1.41V20.9h2l1.31,6.71,1.27-6.71h1.94v9.35h-1.41V24.38l-1.22,5.87h-1.13l-1.37-5.86Z"/><path class="cls-1" d="M214.73,30.25V20.9h4v1.41h-2.61v2.56h1.91v1.41h-1.91v2.56h2.61v1.41Z"/><path class="cls-1" d="M220.14,28.85h1.41v1.41h-1.41Z"/></svg>