<svg id="Content" xmlns="http://www.w3.org/2000/svg" width="300" height="600" viewBox="0 0 300 600"><defs><style>.cls-1{fill:#ba9544;}</style></defs><title>Frame1 - Daytime CBD</title><path class="cls-1" d="M68.96045,255.78125h8.99023c5.68311,0,8.47315,3.15186,8.47315,8.93848v18.28955c0,5.78662-2.79,8.93847-8.47315,8.93847H68.96045Zm5.68359,5.167v25.833h3.20313c1.80859,0,2.89355-.93018,2.89355-3.51367V264.46143c0-2.5835-1.085-3.51319-2.89355-3.51319Z"/><path class="cls-1" d="M112.875,291.94775h-5.73486l-.98194-6.56152H99.18311l-.98145,6.56152H92.9834L98.77,255.78125h8.31836ZM99.90674,280.478h5.47656l-2.73828-18.29Z"/><path class="cls-1" d="M121.14014,279.96094l-7.18164-24.17969h5.94189l4.33984,16.48145,4.33985-16.48145h5.42529l-7.18164,24.17969v11.98681h-5.68359Z"/><path class="cls-1" d="M137.00049,255.78125h17.56592v5.167H148.625v30.99951h-5.68311V260.94824h-5.9414Z"/><path class="cls-1" d="M161.48828,255.78125h5.6836v36.1665h-5.6836Z"/><path class="cls-1" d="M188.81836,281.45947l3.875-25.67822h7.9043v36.1665h-5.373V266.01123l-3.92676,25.93652H185.9248l-4.23632-25.5747v25.5747h-4.96v-36.1665h7.90429Z"/><path class="cls-1" d="M215.88867,271.023h7.80176v5.1665h-7.80176v10.5918h9.81641v5.1665h-15.5v-36.1665h15.5v5.167h-9.81641Z"/><path class="cls-1" d="M129.09766,328.46289v4.80469c0,5.78711-2.89356,9.09375-8.47364,9.09375-5.57959,0-8.47314-3.30664-8.47314-9.09375V314.46094c0-5.78614,2.89355-9.09278,8.47314-9.09278,5.58008,0,8.47364,3.30664,8.47364,9.09278v3.51367h-5.37354v-3.875c0-2.584-1.13672-3.56445-2.94482-3.56445-1.8086,0-2.94483.98046-2.94483,3.56445v19.5293c0,2.584,1.13623,3.51367,2.94483,3.51367,1.8081,0,2.94482-.92969,2.94482-3.51367v-5.166Z"/><path class="cls-1" d="M155.03223,314.09961v1.291c0,3.72071-1.13672,6.09766-3.66895,7.28516,3.04883,1.18945,4.23731,3.92774,4.23731,7.75v2.94531c0,5.58008-2.94532,8.57618-8.62842,8.57618h-8.93848v-36.166h8.57666C152.5,305.78125,155.03223,308.51953,155.03223,314.09961Zm-11.31494-3.15137v9.55762H145.939c2.11817,0,3.40967-.92969,3.40967-3.82227V314.668c0-2.584-.87793-3.71973-2.89306-3.71973Zm0,14.72461v11.1084h3.25488c1.91162,0,2.94482-.87891,2.94482-3.56445v-3.15235c0-3.3584-1.085-4.3916-3.668-4.3916Z"/><path class="cls-1" d="M164.48438,305.78125h8.99023c5.68359,0,8.47363,3.15234,8.47363,8.93848v18.29c0,5.78613-2.79,8.9375-8.47363,8.9375h-8.99023Zm5.68359,5.167v25.833h3.20312c1.8086,0,2.89356-.92969,2.89356-3.51367V314.46094c0-2.583-1.085-3.5127-2.89356-3.5127Z"/></svg>