<svg id="Content" xmlns="http://www.w3.org/2000/svg" width="300" height="600" viewBox="0 0 300 600"><defs><style>.cls-1{fill:#fff;stroke:#ba9544;stroke-miterlimit:10;stroke-width:0.5px;}.cls-2{fill:#ba9544;}</style></defs><title>THC - Daytime CBD</title><polygon class="cls-1" points="242.818 266.018 56.737 265.312 47.343 278.859 56.737 292.164 242.818 291.847 251.273 278.933 242.818 266.018"/><polygon class="cls-2" points="56.873 265.312 47.479 278.859 56.873 292.164 68.554 292.164 68.554 265.312 56.873 265.312"/><path class="cls-2" d="M163.24219,273.91162v1.70068h-3.03614v7.41016h-1.82226V275.6123h-3.03711v-1.70068Z"/><path class="cls-2" d="M164.59668,283.02246v-9.11084H166.419v3.64453H170.665v-3.65039h1.82129v9.11084l-1.82129.00586v-3.76562H166.419v3.76562Z"/><path class="cls-2" d="M175.31445,281.71338a4.557,4.557,0,0,1,3.24024-7.80176,4.93106,4.93106,0,0,1,3.34668,1.21484l-1.21485,1.33008a3.35825,3.35825,0,0,0-2.13183-.72851,2.67747,2.67747,0,0,0-1.97754.76513,2.64931,2.64931,0,0,0-.75,1.94385,2.7316,2.7316,0,0,0,.75976,2.01611,2.68856,2.68856,0,0,0,1.9795.74708,3.26537,3.26537,0,0,0,2.12011-.72266l1.21485,1.33008a4.9147,4.9147,0,0,1-3.34668,1.21484A4.43,4.43,0,0,1,175.31445,281.71338Z"/><path class="cls-2" d="M183.94238,277.21289a.87709.87709,0,0,1,.65528-.24609.91332.91332,0,0,1,.68066.24609.83426.83426,0,0,1,.24316.61035.82289.82289,0,0,1-.24316.60742,1.039,1.039,0,0,1-1.33594,0,.82289.82289,0,0,1-.24316-.60742A.83426.83426,0,0,1,183.94238,277.21289Zm0,4.34863a.87869.87869,0,0,1,.65528-.2456.915.915,0,0,1,.68066.2456.83461.83461,0,0,1,.24316.61084.82257.82257,0,0,1-.24316.60694,1.039,1.039,0,0,1-1.33594,0,.82257.82257,0,0,1-.24316-.60694A.83461.83461,0,0,1,183.94238,281.56152Z"/><path class="cls-2" d="M197.19434,278.40625c.10937.04053.209.08105.29785.12158a1.78552,1.78552,0,0,1,.9414,1.82227,2.336,2.336,0,0,1-1.00488,1.88281,3.68415,3.68415,0,0,1-2.3418.78955,5.39468,5.39468,0,0,1-2.11914-.36426,4.58283,4.58283,0,0,1-1.458-.97216l1.21484-1.21436a2.885,2.885,0,0,0,2.06445.8501q1.21582,0,1.51563-.51612a.963.963,0,0,0,0-1.03271q-.3003-.51636-2.11621-.57715v-1.63965q1.81494.12159,2.11621-.395a.96213.96213,0,0,0,0-1.03222q-.3003-.51636-1.51563-.51661a2.16176,2.16176,0,0,0-1.76074.729l-1.21484-1.21485a4.238,4.238,0,0,1,1.30566-.91113,5.08748,5.08748,0,0,1,1.96777-.30371,3.20773,3.20773,0,0,1,2.21973.79,2.4407,2.4407,0,0,1,.88379,1.88281,1.80269,1.80269,0,0,1-.81934,1.731C197.31836,278.34375,197.25977,278.374,197.19434,278.40625Z"/><path class="cls-2" d="M199.916,280.58691v-1.20849h3.76562v1.20849Z"/><path class="cls-2" d="M206.4082,283.02246l.00684-.60742,2.84863-6.80274h-3.89941l-.00684-1.70068h6.21973v.66846l-3.39453,8.44238Z"/><path class="cls-2" d="M213.5752,277.75635a2.34728,2.34728,0,1,1,1.62792.65625A2.21133,2.21133,0,0,1,213.5752,277.75635Zm1.61035-.42481a1.08641,1.08641,0,0,0,.832-.34619,1.31453,1.31453,0,0,0,0-1.72217,1.09864,1.09864,0,0,0-.83887-.34326,1.08045,1.08045,0,0,0-.82519.34326,1.31151,1.31151,0,0,0,0,1.72217A1.08349,1.08349,0,0,0,215.18555,277.33154Zm-.48633,5.69092,5.16308-9.11084h1.48145l-5.15039,9.11084Zm4.52539-.60107a2.33217,2.33217,0,1,1,1.61523.6499A2.19364,2.19364,0,0,1,219.22461,282.42139Zm1.585-.44385a1.06369,1.06369,0,0,0,.81348-.33692,1.26827,1.26827,0,0,0,0-1.67626,1.15166,1.15166,0,0,0-1.62793,0,1.2712,1.2712,0,0,0,0,1.67626A1.06725,1.06725,0,0,0,220.80957,281.97754Z"/></svg>