<svg id="Layer_1" data-name="Layer 1" xmlns="http://www.w3.org/2000/svg" width="300" height="250" viewBox="0 0 300 250"><defs><style>.cls-1{fill:#fff;}</style></defs><title>quality-time</title><path class="cls-1" d="M68.97852,175.44739H66.42725V158.52551h3.65527l2.375,12.13477,2.28223-12.13477h3.51611v16.92188H75.70459V164.81555l-2.20508,10.63184H71.45215l-2.47363-10.60352Z"/><path class="cls-1" d="M84.90723,158.32141a4.04607,4.04607,0,0,1,4.0542,4.05371v9.23144a4.04607,4.04607,0,0,1-4.0542,4.05372,3.86009,3.86009,0,0,1-2.853-1.1875,3.92841,3.92841,0,0,1-1.17334-2.86622v-9.23144a4.04614,4.04614,0,0,1,4.02637-4.05371Zm1.3916,4.00683a1.43984,1.43984,0,0,0-1.45654-1.45507,1.4242,1.4242,0,0,0-1.03418.42089,1.389,1.389,0,0,0-.43165,1.03418V171.589a1.392,1.392,0,0,0,.43165,1.02929,1.418,1.418,0,0,0,1.03418.42676,1.4496,1.4496,0,0,0,1.45654-1.45605Z"/><path class="cls-1" d="M95.61279,158.52551a3.86654,3.86654,0,0,1,3.12647,1.17773,4.26082,4.26082,0,0,1,.88135,2.85743v2.459a3.93447,3.93447,0,0,1-1.36133,3.0332l1.89013,7.39454H97.398l-1.55615-6.39258c-.07422.00683-.15137.00976-.23145.00976H94.147v6.38282H91.5957V158.52551Zm1.52149,4.082a1.29336,1.29336,0,0,0-1.45215-1.47461H94.147v5.40821h1.53516a1.38327,1.38327,0,0,0,1.03125-.43165,1.42617,1.42617,0,0,0,.4209-1.03418Z"/><path class="cls-1" d="M102.71924,175.44739V158.52551h7.26416v2.55078h-4.71289V165.715h3.44189v2.55176h-3.44189v4.62988h4.71289v2.55079Z"/><path class="cls-1" d="M126.59766,171.60656a4.01724,4.01724,0,0,1-.53809,2.03223,1.19989,1.19989,0,0,0,.96484.38867v2.375a2.76937,2.76937,0,0,1-2.61621-1.20507,3.77773,3.77773,0,0,1-1.84619.46289,4.03858,4.03858,0,0,1-4.04492-4.05372v-9.23144a4.04606,4.04606,0,0,1,4.04492-4.05371,3.859,3.859,0,0,1,2.86182,1.19629,3.94041,3.94041,0,0,1,1.17383,2.85742Zm-2.64405-9.27832a1.39216,1.39216,0,0,0-.43115-1.03418,1.43851,1.43851,0,0,0-1.04394-.42089,1.44711,1.44711,0,0,0-1.45655,1.45507V171.589a1.45705,1.45705,0,0,0,1.45655,1.45605,1.43215,1.43215,0,0,0,1.04394-.42676,1.39526,1.39526,0,0,0,.43115-1.02929Z"/><path class="cls-1" d="M133.19336,175.66028a4.00534,4.00534,0,0,1-4.02637-4.01661V158.52551h2.49561v13.08984a1.39416,1.39416,0,0,0,.43164,1.03028,1.41806,1.41806,0,0,0,1.03418.42676,1.44959,1.44959,0,0,0,1.45654-1.457V158.52551h2.6626v13.11816a3.8379,3.8379,0,0,1-1.1875,2.85743A3.95321,3.95321,0,0,1,133.19336,175.66028Z"/><path class="cls-1" d="M142.65576,171.56067l-.62158,3.88672h-2.65332l2.8667-16.92188h3.51611l2.82959,16.92188h-2.67187l-.603-3.88672Zm1.33594-9.15723-.94629,6.6709H144.938Z"/><path class="cls-1" d="M158.084,175.44739h-6.958V158.52551h2.55078v14.38867H158.084Z"/><path class="cls-1" d="M162.75977,175.44739H160.208V158.52551h2.55176Z"/><path class="cls-1" d="M167.89746,161.07629h-2.708v-2.55078h7.96v2.55078H170.4502v14.3711h-2.55274Z"/><path class="cls-1" d="M178.69727,168.35949l-3.41407-9.834h2.80274l1.89648,6.07617,1.87891-6.07617h2.82031l-3.43262,9.834v7.0879h-2.55175Z"/><path class="cls-1" d="M193.78027,161.07629h-2.709v-2.55078h7.96094v2.55078H196.332v14.3711h-2.55176Z"/><path class="cls-1" d="M204.0127,175.44739h-2.55176V158.52551h2.55176Z"/><path class="cls-1" d="M209.22656,175.44739H206.6748V158.52551h3.65625l2.375,12.13477,2.28125-12.13477h3.51661v16.92188h-2.55176V164.81555l-2.2041,10.63184H211.7002l-2.47364-10.60352Z"/><path class="cls-1" d="M221.17578,175.44739V158.52551h7.26465v2.55078h-4.71289V165.715h3.44238v2.55176h-3.44238v4.62988h4.71289v2.55079Z"/><path class="cls-1" d="M230.57324,172.90539H233.125v2.55176h-2.55176Z"/></svg>