<svg id="Content" xmlns="http://www.w3.org/2000/svg" xmlns:xlink="http://www.w3.org/1999/xlink" width="300" height="250" viewBox="0 0 300 250"><defs><style>.cls-1{fill:url(#New_Gradient_Swatch_1);}.cls-2{fill:#fff;}.cls-3{fill:#ba9544;}</style><linearGradient id="New_Gradient_Swatch_1" x1="164.06243" y1="155.87951" x2="192.92412" y2="155.87951" gradientUnits="userSpaceOnUse"><stop offset="0" stop-color="#a88a34"/><stop offset="0.49324" stop-color="#caaf67"/><stop offset="1" stop-color="#957f2e"/></linearGradient></defs><title>berry</title><polygon class="cls-1" points="176.051 141.117 164.062 154.962 173.526 170.642 191.363 166.488 192.924 148.241 176.051 141.117"/><path class="cls-2" d="M182.689,157.43592a.26341.26341,0,1,1-.05624-.369.26579.26579,0,0,1,.05624.369m-1.57492-3.34054a.332.332,0,1,1,.33062-.332.33316.33316,0,0,1-.33062.332m-.33062,4.00178a.332.332,0,1,1,.332-.332.33377.33377,0,0,1-.332.332m-.05076-2.44195a.26546.26546,0,1,1-.26615.26477.26581.26581,0,0,1,.26615-.26477m-.70515,4.31046a.29.29,0,1,1-.10838-.39647.2877.2877,0,0,1,.10838.39647m-1.36228-4.34339a.29221.29221,0,1,1,.29221-.29221.2907.2907,0,0,1-.29221.29221m-.08506,2.22794a.26546.26546,0,1,1,.26477-.26477.267.267,0,0,1-.26477.26477m-.86017,1.18943a.26478.26478,0,1,1,.26477-.26478.267.267,0,0,1-.26477.26478m-.30044-2.10036a.33042.33042,0,1,1-.03842-.46644.33172.33172,0,0,1,.03842.46644m-.82588-2.73553a.29153.29153,0,1,1,.29084.29221.29276.29276,0,0,1-.29084-.29221m4.2501-1.76288a6.93115,6.93115,0,0,0,1.48575-1.14277,3.968,3.968,0,0,0-1.8836.19207,2.7289,2.7289,0,0,0,.29084-1.45009,1.48192,1.48192,0,0,0-1.08653.86429,2.702,2.702,0,0,0-.37727-1.27585,1.63761,1.63761,0,0,0-.60363,1.4734,1.54219,1.54219,0,0,0-1.13866-.959,2.73538,2.73538,0,0,0,.262,1.39109,3.85477,3.85477,0,0,0-1.98649-.236,6.73521,6.73521,0,0,0,1.56669,1.18531,2.92987,2.92987,0,0,0-2.66694,3.047c0,2.48722,3.14162,6.60013,4.50664,6.60013,1.47752,0,4.50664-4.11291,4.50664-6.60013.0096-1.91241-1.18943-2.79041-2.87547-3.08949"/><path class="cls-3" d="M169.45607,183.21806a1.54105,1.54105,0,0,1-.88281,2.86524l-3.05274-.00391v-5.42187h2.87891q1.37109.07909,1.44727,1.59472A1.13645,1.13645,0,0,1,169.45607,183.21806Zm-2.84668-.38671H168.128a.61308.61308,0,0,0,.67285-.67676q-.01758-.39845-.66211-.41992h-1.5293Zm0,2.40136h1.77246a.70831.70831,0,0,0,.78125-.78515q-.019-.52-.77051-.542h-1.7832Z"/><path class="cls-3" d="M171.27834,186.07939v-5.42187l3.98632-.00391v1.0127h-2.90039v1.15722h2.17383v1.00977h-2.17383v1.2334h2.89258v1.01269Z"/><path class="cls-3" d="M179.62306,183.71416l1.35352,2.36523h-1.24414l-1.29883-2.24316h-.99121v2.24316h-1.085v-5.42578h2.36523q1.8999,0,1.89942,1.5625A1.40358,1.40358,0,0,1,179.62306,183.71416Zm-2.18066-.89063h1.51953q.65332-.01024.67285-.59668-.019-.53466-.66211-.55664H177.4424Z"/><path class="cls-3" d="M184.80666,183.71416l1.35351,2.36523H184.916l-1.29883-2.24316H182.626v2.24316h-1.085v-5.42578h2.36524q1.8999,0,1.89941,1.5625A1.40358,1.40358,0,0,1,184.80666,183.71416Zm-2.18067-.89063h1.51953q.65333-.01024.67286-.59668-.019-.53466-.66211-.55664H182.626Z"/><path class="cls-3" d="M186.40627,180.65361h1.27246l1.25976,1.77246,1.28711-1.77246h1.24414l-1.98926,2.71289v2.71289h-1.085V183.3665Z"/></svg>