<svg id="Content" xmlns="http://www.w3.org/2000/svg" xmlns:xlink="http://www.w3.org/1999/xlink" width="320" height="50" viewBox="0 0 320 50"><defs><style>.cls-1{fill:url(#New_Gradient_Swatch_1);}.cls-2{fill:#fff;}.cls-3{fill:#ba9544;}</style><linearGradient id="New_Gradient_Swatch_1" x1="165.46766" y1="20.31633" x2="184.69488" y2="20.31633" gradientUnits="userSpaceOnUse"><stop offset="0" stop-color="#a88a34"/><stop offset="0.49324" stop-color="#caaf67"/><stop offset="1" stop-color="#957f2e"/></linearGradient></defs><title>pine</title><polygon class="cls-1" points="182.775 26.976 173.161 30.308 165.468 23.649 167.389 13.657 177.002 10.324 184.695 16.984 182.775 26.976"/><path class="cls-2" d="M178.27905,23.33658l-3.2146-7.67343-3.18024,7.67343,3.0196.60448v.858a.17746.17746,0,0,0,.35471,0v-.858Z"/><path class="cls-3" d="M169.19922,39.68945V36.01758h1.60156q1.28467,0,1.28516,1.05762,0,1.09716-1.28321,1.09668h-.86914v1.51757Zm.73437-2.20312h1.02832c.2959-.00488.44727-.13965.45606-.4043q-.01318-.36182-.44824-.377h-1.03614Z"/><path class="cls-3" d="M172.627,36.01465h.73243v3.6748H172.627Z"/><path class="cls-3" d="M174.0957,39.68945V36.01758h.24512l2.30176,2.30078V36.01758h.73437v3.67187h-.26953l-2.27734-2.27636v2.27636Z"/><path class="cls-3" d="M178.12793,39.68945V36.01953l2.69824-.002v.68555H178.8623v.7832H180.334V38.169H178.8623v.835h1.959v.68554Z"/></svg>