<svg xmlns="http://www.w3.org/2000/svg" width="727.99955" height="90" viewBox="0 0 727.99955 90"><defs><style>.cls-1{fill:#fff;stroke:#ba9544;stroke-miterlimit:10;stroke-width:0.5px;}.cls-2{fill:#ba9544;}</style></defs><title>THC - Durga Mata</title><g id="Content"><polygon class="cls-1" points="359.055 21.185 228.126 20.689 221.517 30.22 228.126 39.582 359.055 39.359 365.003 30.273 359.055 21.185"/><polygon class="cls-2" points="228.222 20.689 221.613 30.22 228.222 39.582 241.321 39.582 241.177 20.689 228.222 20.689"/><path class="cls-2" d="M303.06427,27.0962v1.19629h-2.13672v5.21387h-1.28223V28.29249H297.5086V27.0962Z"/><path class="cls-2" d="M304.01641,33.50636V27.0962h1.28223v2.56348h2.9873V27.09132h1.28223v6.41016l-1.28223.00488V30.857h-2.9873v2.64941Z"/><path class="cls-2" d="M311.55645,32.58546a3.20665,3.20665,0,0,1,2.28028-5.48926,3.464,3.464,0,0,1,2.35449.8545l-.85449.93554a2.36255,2.36255,0,0,0-1.5-.51269,1.88392,1.88392,0,0,0-1.39063.53808,1.86329,1.86329,0,0,0-.52832,1.36817,1.92178,1.92178,0,0,0,.53418,1.41894,1.897,1.897,0,0,0,1.39356.52539,2.29845,2.29845,0,0,0,1.49121-.50878l.85449.93652a3.46,3.46,0,0,1-2.35449.85449A3.123,3.123,0,0,1,311.55645,32.58546Z"/><path class="cls-2" d="M317.62774,29.41847a.62023.62023,0,0,1,.46192-.17285.64318.64318,0,0,1,.47851.17285.586.586,0,0,1,.1709.42969.57629.57629,0,0,1-.1709.42676.73236.73236,0,0,1-.94043,0,.57629.57629,0,0,1-.1709-.42676A.586.586,0,0,1,317.62774,29.41847Zm0,3.05957a.62023.62023,0,0,1,.46192-.17285.64318.64318,0,0,1,.47851.17285.586.586,0,0,1,.1709.42969.58.58,0,0,1-.1709.42773.73233.73233,0,0,1-.94043,0,.58.58,0,0,1-.1709-.42773A.586.586,0,0,1,317.62774,32.478Z"/><path class="cls-2" d="M325.79376,27.10011v-.00879h1.27832v3.72656h.86328V32.0962h-.86328v1.41016h-1.27832V32.0962H322.8836V30.81788h.043l-.03906-.043Zm0,3.71777v-2.043l-1.55957,2.043Z"/><path class="cls-2" d="M328.91387,31.79249v-.85058h2.64942v.85058Z"/><path class="cls-2" d="M336.28985,30.25831c.07715.02832.14649.05664.209.085a1.25727,1.25727,0,0,1,.6621,1.28222,1.64547,1.64547,0,0,1-.62109,1.43164,3.07606,3.07606,0,0,1-3.20117,0,1.646,1.646,0,0,1-.62207-1.43164,1.25638,1.25638,0,0,1,.66308-1.28222c.0625-.02833.13184-.05665.209-.085-.0459-.02246-.08691-.04394-.124-.06445a1.26694,1.26694,0,0,1-.57715-1.21777,1.754,1.754,0,0,1,.55761-1.38867,2.51648,2.51648,0,0,1,2.98731,0,1.75082,1.75082,0,0,1,.55762,1.38867,1.26642,1.26642,0,0,1-.57618,1.21777C336.37677,30.21437,336.33477,30.23585,336.28985,30.25831Zm-1.35058-.58105q.564-.01758.72656-.29492a.68238.68238,0,0,0,0-.72656.82133.82133,0,0,0-.72656-.35938.81177.81177,0,0,0-.72266.35938.67054.67054,0,0,0,0,.72656Q334.37482,29.6592,334.93927,29.67726Zm0,1.1748a.95244.95244,0,0,0-.72266.36817.66887.66887,0,0,0,0,.72558.80966.80966,0,0,0,.72266.35938.81917.81917,0,0,0,.72656-.35938.68068.68068,0,0,0,0-.72558A.96743.96743,0,0,0,334.93927,30.85206Z"/><path class="cls-2" d="M338.65313,29.80128a1.65264,1.65264,0,1,1,1.14551.46094A1.55574,1.55574,0,0,1,338.65313,29.80128Zm1.13184-.2998a.764.764,0,0,0,.58594-.24317.92362.92362,0,0,0,0-1.21191.77155.77155,0,0,0-.58985-.24121.76108.76108,0,0,0-.58105.24121.92359.92359,0,0,0,0,1.21191A.76332.76332,0,0,0,339.785,29.50148Zm-.3418,4.00488L343.076,27.0962h1.043l-3.624,6.41016Zm3.18457-.42285a1.64213,1.64213,0,1,1,1.13672.457A1.54389,1.54389,0,0,1,342.62774,33.08351Zm1.11524-.3125a.74917.74917,0,0,0,.57226-.23731.89258.89258,0,0,0,0-1.17968.75469.75469,0,0,0-.57715-.23633.74428.74428,0,0,0-.56836.23633.89555.89555,0,0,0,0,1.17968A.75131.75131,0,0,0,343.743,32.771Z"/></g></svg>