<svg id="Layer_1" data-name="Layer 1" xmlns="http://www.w3.org/2000/svg" width="300" height="600" viewBox="0 0 300 600"><defs><style>.cls-1{fill:#ab9555;}</style></defs><title>frame1</title><path class="cls-1" d="M80.16,336.8897a7.13024,7.13024,0,0,1-7.16147-7.14594V306.41125h4.43879v23.284a2.48571,2.48571,0,0,0,.76681,1.83065,2.52288,2.52288,0,0,0,1.84036.75905,2.57676,2.57676,0,0,0,2.59067-2.5897v-23.284H87.371v23.33251a6.822,6.822,0,0,1-2.11213,5.08234A7.03707,7.03707,0,0,1,80.16,336.8897Z"/><path class="cls-1" d="M102.57915,306.41125l6.00639,20.21284V306.41125h4.53779v30.098h-4.861l-6.2442-19.27325V336.5092H97.48032v-30.098Z"/><path class="cls-1" d="M130.41063,306.41125a6.88839,6.88839,0,0,1,5.28035,2.09661,7.22334,7.22334,0,0,1,1.83162,5.08233V317.962a6.98806,6.98806,0,0,1-2.07623,5.08233,6.7843,6.7843,0,0,1-5.02409,2.11214h-2.61882V336.5092h-4.53779v-30.098Zm2.70618,7.26047a2.618,2.618,0,0,0-.69887-1.90636,2.51394,2.51394,0,0,0-1.884-.71828h-2.73045v9.6211h2.73045a2.46668,2.46668,0,0,0,1.83453-.76682,2.54539,2.54539,0,0,0,.74837-1.84035Z"/><path class="cls-1" d="M159.60977,336.5092H147.2359v-30.098h4.53683v25.59413h7.837Z"/><path class="cls-1" d="M175.95553,336.8897a7.12858,7.12858,0,0,1-7.15952-7.14594V306.41125h4.43782v23.284a2.48571,2.48571,0,0,0,.76681,1.83065,2.52445,2.52445,0,0,0,1.84036.75905,2.5784,2.5784,0,0,0,2.59164-2.5897v-23.284h4.73483v23.33251a6.82564,6.82564,0,0,1-2.11213,5.08234A7.03613,7.03613,0,0,1,175.95553,336.8897Z"/><path class="cls-1" d="M200.40624,336.8897a7.18147,7.18147,0,0,1-7.19447-7.17894V313.22522a7.18576,7.18576,0,1,1,14.37147,0v3.43222h-4.70378v-3.51375a2.62137,2.62137,0,0,0-2.6227-2.62464,2.47708,2.47708,0,0,0-1.83065.76875,2.5392,2.5392,0,0,0-.761,1.85589v16.5166a2.59824,2.59824,0,0,0,2.59164,2.60911,2.53922,2.53922,0,0,0,1.85589-.761,2.49545,2.49545,0,0,0,.76681-1.84812v-5.92292h-2.52369v-4.53682h7.22747v10.51021a7.17149,7.17149,0,0,1-7.177,7.17894Z"/><path class="cls-1" d="M216.787,331.98791h4.53683v4.53682H216.787Z"/></svg>