<svg id="Content" xmlns="http://www.w3.org/2000/svg" viewBox="0 0 640 1136"><defs><style>.cls-1{fill:#fff;stroke:#ba9544;stroke-miterlimit:10;stroke-width:0.96px;}.cls-2{fill:#ba9544;}</style></defs><title>THC - Ultra Sour</title><polygon class="cls-1" points="501.38 690.2 145.5 688.85 127.53 714.75 145.5 740.2 501.38 739.6 517.55 714.9 501.38 690.2"/><polygon class="cls-2" points="145.75 688.85 127.79 714.75 145.75 740.2 213.45 740.2 213.45 688.85 145.75 688.85"/><path class="cls-2" d="M349.19,706.27v3.25h-5.81v14.17h-3.49V709.52h-5.8v-3.25Z"/><path class="cls-2" d="M351.78,723.69V706.27h3.48v7h8.12v-7h3.49v17.42h-3.49v-7.2h-8.12v7.2Z"/><path class="cls-2" d="M372.27,721.19a8.72,8.72,0,0,1,6.2-14.92,9.41,9.41,0,0,1,6.4,2.32l-2.32,2.54a6.42,6.42,0,0,0-4.08-1.39,5.16,5.16,0,0,0-3.78,1.46,5.06,5.06,0,0,0-1.43,3.72,5.21,5.21,0,0,0,1.45,3.86,5.15,5.15,0,0,0,3.79,1.43,6.2,6.2,0,0,0,4.05-1.39l2.32,2.55a9.37,9.37,0,0,1-6.4,2.32A8.5,8.5,0,0,1,372.27,721.19Z"/><path class="cls-2" d="M396.91,712.58a1.68,1.68,0,0,1,1.25-.47,1.75,1.75,0,0,1,1.3.47,1.68,1.68,0,0,1,0,2.33,2,2,0,0,1-2.55,0,1.68,1.68,0,0,1,0-2.33Zm0,8.32a1.64,1.64,0,0,1,1.25-.47,1.72,1.72,0,0,1,1.3.47,1.68,1.68,0,0,1,0,2.33,2,2,0,0,1-2.55,0,1.68,1.68,0,0,1,0-2.33Z"/><path class="cls-2" d="M415.46,706.27h3.47v17.43h-3.47V710.91l-2.33,2.33-2.32-2.33Z"/><path class="cls-2" d="M431.79,714.86l.57.23c1.2.55,1.8,1.71,1.8,3.49a4.48,4.48,0,0,1-1.69,3.89,8.37,8.37,0,0,1-8.7,0,4.46,4.46,0,0,1-1.69-3.89c0-1.78.6-2.94,1.8-3.49l.57-.23-.34-.17a3.44,3.44,0,0,1-1.57-3.31,4.77,4.77,0,0,1,1.52-3.78,6.86,6.86,0,0,1,8.12,0,4.77,4.77,0,0,1,1.51,3.78,3.46,3.46,0,0,1-1.56,3.31Zm-3.67-1.58c1,0,1.68-.3,2-.8a1.84,1.84,0,0,0,0-2,2.47,2.47,0,0,0-3.94,0,1.84,1.84,0,0,0,0,2C426.44,713,427.09,713.25,428.12,713.28Zm0,3.2a2.57,2.57,0,0,0-2,1,1.84,1.84,0,0,0,0,2,2.47,2.47,0,0,0,3.94,0,1.84,1.84,0,0,0,0-2A2.59,2.59,0,0,0,428.12,716.48Z"/><path class="cls-2" d="M437.2,719v-2.31h7.2V719Z"/><path class="cls-2" d="M453.68,706.27a6.54,6.54,0,0,1,4.19,1.28,4.57,4.57,0,0,1,1.63,3.83,8,8,0,0,1-2.31,5.53,16.28,16.28,0,0,1-3.83,3.3h6.27v3.48H447.89v-3.48q1.16,0,4.41-2.91c2.17-1.93,3.43-3.31,3.78-4.12a2.86,2.86,0,0,0-.06-2.44c-.39-.81-1.32-1.22-2.79-1.22a4,4,0,0,0-3.25,1.39l-2.32-2.32a9.34,9.34,0,0,1,2.26-1.74A8.69,8.69,0,0,1,453.68,706.27Z"/><path class="cls-2" d="M474.08,706.27v3.25h-7.2V712h1.39a7.8,7.8,0,0,1,5.28,1.57,6.36,6.36,0,0,1,1.8,4.7,5.08,5.08,0,0,1-1.75,3.83,6.06,6.06,0,0,1-4.3,1.63,10.27,10.27,0,0,1-4.06-.7,8.74,8.74,0,0,1-2.79-1.86l2.33-2.32a4.87,4.87,0,0,0,3.71,1.51c2.1,0,3.24-.77,3.43-2.3a2.6,2.6,0,0,0-1.07-2.16c-.35-.38-1.6-.6-3.74-.65h-3.72v-8.94Z"/><path class="cls-2" d="M478.89,713.62a4.37,4.37,0,0,1,3.11-7.48,4.37,4.37,0,1,1,0,8.73A4.21,4.21,0,0,1,478.89,713.62Zm3.08-.81a2,2,0,0,0,1.59-.67,2.49,2.49,0,0,0,0-3.29,2.08,2.08,0,0,0-1.6-.66,2.05,2.05,0,0,0-1.58.66,2.49,2.49,0,0,0,0,3.29A2,2,0,0,0,482,712.81ZM481,723.69l9.87-17.42h2.84l-9.85,17.42Zm8.65-1.15a4.47,4.47,0,1,1,3.09,1.24A4.19,4.19,0,0,1,489.69,722.54Zm3-.85a2,2,0,0,0,1.56-.64,2.29,2.29,0,0,0,.61-1.61,2.26,2.26,0,0,0-.61-1.6,2,2,0,0,0-1.57-.64,2,2,0,0,0-1.54.64,2.26,2.26,0,0,0-.61,1.6,2.29,2.29,0,0,0,.61,1.61A2,2,0,0,0,492.72,721.69Z"/></svg>