<svg xmlns="http://www.w3.org/2000/svg" xmlns:xlink="http://www.w3.org/1999/xlink" width="970" height="250" viewBox="0 0 970 250"><defs><style>.cls-1{fill:none;}.cls-2{isolation:isolate;}.cls-3{clip-path:url(#clip-path);}.cls-4{clip-path:url(#clip-path-2);}.cls-5{clip-path:url(#clip-path-3);}.cls-6{clip-path:url(#clip-path-4);}.cls-7{opacity:0.65882;}.cls-8{clip-path:url(#clip-path-5);}.cls-9{clip-path:url(#clip-path-6);}.cls-10{mix-blend-mode:multiply;}.cls-11{fill:#ba9544;}</style><clipPath id="clip-path"><rect class="cls-1" x="-2" y="586.64614" width="974" height="251.03093"/></clipPath><clipPath id="clip-path-2"><rect class="cls-1" x="-17.21661" y="191.22969" width="994.73176" height="663.15451"/></clipPath><clipPath id="clip-path-3"><rect class="cls-1" x="-2" y="287.48396" width="974" height="251.03093"/></clipPath><clipPath id="clip-path-4"><rect class="cls-1" x="-17.21661" y="-107.9325" width="994.73176" height="663.15451"/></clipPath><clipPath id="clip-path-5"><polygon class="cls-1" points="396.894 350.05 409.834 366.225 418.73 373.503 442.992 375.121 456.74 359.755 463.21 343.58 447.035 338.728 440.566 327.405 445.418 318.509 464.019 325.114 470.489 313.657 472.106 296.673 467.254 288.179 257.51 287.806 260.868 323.413 312.785 350.859 326.534 379.973 336.239 391.296 377.484 386.443 381.528 373.503 393.659 362.181 396.894 350.05"/></clipPath><clipPath id="clip-path-6"><polygon class="cls-1" points="-1.299 286.357 14.269 362.845 60.974 387.889 107.679 360.814 133.401 287.71 -1.299 286.357"/></clipPath></defs><title>Frame1 - Shishkaberry</title><g class="cls-2"><g id="BG"><g class="cls-3"><g id="Background_LO.psd"><g class="cls-4"><g id="background"><image id="GettyImages-909407598" width="1266" height="1899" transform="translate(977.51516 191.22969) rotate(90) scale(0.52382)" xlink:href="Frame1%20-%20Shishkaberry1.png"/></g></g></g></g><g class="cls-5"><g id="Background_LO.psd-2" data-name="Background_LO.psd"><g class="cls-6"><g id="background-2" data-name="background"><image id="GettyImages-909407598-2" data-name="GettyImages-909407598" width="1266" height="1899" transform="translate(977.51516 -107.9325) rotate(90) scale(0.52382)" xlink:href="Frame1%20-%20Shishkaberry2.png"/><image id="Layer_27" data-name="Layer 27" class="cls-7" width="1015" height="1469" transform="translate(977.51516 23.546) rotate(90) scale(0.52382)" xlink:href="Frame1%20-%20Shishkaberry3.png"/></g></g></g></g></g><g id="Content"><path class="cls-11" d="M390.00236,117.28662c5.22949,0,7.917,3.12793,7.917,8.60156v1.07471h-5.082v-1.417c0-2.44336-.97852-3.37207-2.68848-3.37207s-2.68847.92871-2.68847,3.37207c0,7.03808,10.50781,8.35742,10.50781,18.13183,0,5.47364-2.73633,8.60157-8.01465,8.60157s-8.01563-3.12793-8.01563-8.60157v-2.10156h5.083v2.44336c0,2.44434,1.0752,3.32422,2.78516,3.32422,1.71094,0,2.78711-.87988,2.78711-3.32422,0-7.03711-10.50879-8.35742-10.50879-18.13135C382.08439,120.41455,384.77287,117.28662,390.00236,117.28662Z"/><path class="cls-11" d="M411.60294,151.88867h-5.376V117.67725h5.376v14.66162h6.10938V117.67725H423.186v34.21142h-5.47363V137.22656h-6.10938Z"/><path class="cls-11" d="M432.27482,117.67725h5.377v34.21142h-5.377Z"/><path class="cls-11" d="M453.974,117.28662c5.22949,0,7.918,3.12793,7.918,8.60156v1.07471h-5.084v-1.417c0-2.44336-.97656-3.37207-2.6875-3.37207s-2.6875.92871-2.6875,3.37207c0,7.03808,10.50781,8.35742,10.50781,18.13183,0,5.47364-2.7373,8.60157-8.01562,8.60157-5.2793,0-8.01563-3.12793-8.01563-8.60157v-2.10156h5.083v2.44336c0,2.44434,1.0752,3.32422,2.78613,3.32422s2.78516-.87988,2.78516-3.32422c0-7.03711-10.50781-8.35742-10.50781-18.13135C446.05607,120.41455,448.74454,117.28662,453.974,117.28662Z"/><path class="cls-11" d="M475.5756,151.88867h-5.377V117.67725h5.377v14.66162H481.685V117.67725h5.47266v34.21142H481.685V137.22656H475.5756Z"/><path class="cls-11" d="M503.28458,138.25293l-1.66113,3.12793v10.50781h-5.376V117.67725h5.376V132.584l7.03809-14.90673h5.376L506.56,132.92578l7.47754,18.96289h-5.52246Z"/><path class="cls-11" d="M539.059,151.88867h-5.42578l-.92871-6.207h-6.59766l-.92871,6.207h-4.93555l5.47363-34.21142h7.86817Zm-12.26758-10.84961h5.18066l-2.59082-17.30127Z"/><path class="cls-11" d="M562.81,125.5459v1.22168c0,3.51953-1.07519,5.76758-3.46972,6.8916,2.88379,1.124,4.00781,3.71387,4.00781,7.33105v2.78516c0,5.27832-2.78613,8.11328-8.16211,8.11328h-8.45508V117.67725h8.11328C560.41544,117.67725,562.81,120.26758,562.81,125.5459Zm-10.70312-2.981v9.04151h2.10156c2.00391,0,3.22559-.87989,3.22559-3.61719V126.083c0-2.44287-.83106-3.51807-2.73633-3.51807Zm0,13.92822V147.001h3.0791c1.80859,0,2.78613-.83008,2.78613-3.37207v-2.98145c0-3.17676-1.02636-4.1543-3.4707-4.1543Z"/><path class="cls-11" d="M577.12931,132.09473h7.37988v4.88769h-7.37988V147.001h9.28613v4.88769H571.75333V117.67725h14.66211v4.88769h-9.28613Z"/><path class="cls-11" d="M606.15958,151.88867a10.50276,10.50276,0,0,1-.48925-4.20312v-5.376c0-3.17676-1.0752-4.34961-3.51856-4.34961h-1.85742v13.92871h-5.376V117.67725h8.11328c5.57129,0,7.96582,2.59033,7.96582,7.86865v2.68848c0,3.51855-1.124,5.81542-3.51855,6.93945,2.68848,1.124,3.56738,3.71484,3.56738,7.28222v5.27833a10.06565,10.06565,0,0,0,.58692,4.15429Zm-5.86523-29.32373v10.50733h2.10156c2.00391,0,3.22559-.87989,3.22559-3.61622v-3.373c0-2.44287-.83106-3.51807-2.73633-3.51807Z"/><path class="cls-11" d="M630.98673,151.88867a10.50268,10.50268,0,0,1-.48926-4.20312v-5.376c0-3.17676-1.07519-4.34961-3.51855-4.34961H625.1215v13.92871h-5.376V117.67725h8.11328c5.57129,0,7.96582,2.59033,7.96582,7.86865v2.68848c0,3.51855-1.124,5.81542-3.51855,6.93945,2.6875,1.124,3.56738,3.71484,3.56738,7.28222v5.27833a10.06565,10.06565,0,0,0,.58692,4.15429Zm-5.86523-29.32373v10.50733h2.10156c2.00391,0,3.22559-.87989,3.22559-3.61622v-3.373c0-2.44287-.83106-3.51807-2.73633-3.51807Z"/><path class="cls-11" d="M649.60587,140.5498l-6.79394-22.87255H648.433l4.10547,15.59033,4.10449-15.59033h5.13184l-6.793,22.87255v11.33887h-5.376Z"/></g></g></svg>