<svg id="Layer_1" data-name="Layer 1" xmlns="http://www.w3.org/2000/svg" width="162.3247" height="18.2529" viewBox="0 0 162.3247 18.2529"><defs><style>.cls-1{fill:#ac9655;}</style></defs><title>frame3</title><path class="cls-1" d="M4.2471,18.2246a4.097,4.097,0,0,1-3.0113-1.2363A4.08,4.08,0,0,1,0,13.9912V.2275H2.6279V13.9629A1.4691,1.4691,0,0,0,3.0825,15.05a1.5039,1.5039,0,0,0,1.0938.4473A1.5272,1.5272,0,0,0,5.71,13.9629V.2275H8.5083V13.9912a4.0445,4.0445,0,0,1-1.25,3.0117A4.1516,4.1516,0,0,1,4.2471,18.2246Z"/><path class="cls-1" d="M17.5088.2129l3.5625,11.9707V.2129h2.6846V18.0254H20.8726L17.1792,6.6191V18.0254H14.4946V.2129Z"/><path class="cls-1" d="M33.9751,18.2529a4.2434,4.2434,0,0,1-4.2612-4.247V4.29a4.0951,4.0951,0,0,1,1.25-3.0185,4.2613,4.2613,0,0,1,6.0234.0068A4.1326,4.1326,0,0,1,38.2217,4.29V6.3213H35.4385V4.2324A1.5521,1.5521,0,0,0,33.89,2.6846a1.4689,1.4689,0,0,0-1.0869.4541,1.5043,1.5043,0,0,0-.4472,1.0937v9.7451A1.5269,1.5269,0,0,0,33.89,15.5107a1.5006,1.5006,0,0,0,1.0933-.4472,1.4681,1.4681,0,0,0,.4551-1.086V11.52h2.7832v2.4864a4.2444,4.2444,0,0,1-4.2466,4.247Z"/><path class="cls-1" d="M48.2285,0a4.0965,4.0965,0,0,1,3.0176,1.25,4.1134,4.1134,0,0,1,1.2432,3.0107v9.7168a4.2544,4.2544,0,1,1-8.5088,0V4.2607a4.0962,4.0962,0,0,1,1.25-3.0175A4.1008,4.1008,0,0,1,48.2285,0Zm1.4629,4.2041A1.5289,1.5289,0,0,0,48.1572,2.67a1.5,1.5,0,0,0-1.0937.4483,1.4639,1.4639,0,0,0-.4551,1.0859v9.7441a1.4649,1.4649,0,0,0,.4551,1.087,1.4992,1.4992,0,0,0,1.0937.4472,1.5271,1.5271,0,0,0,1.5342-1.5342Z"/><path class="cls-1" d="M61.1182,18.0254,57.9365.2275H60.75l2.2344,13.8731L65.2344.2275H68.05L64.8105,18.0254Z"/><path class="cls-1" d="M73.8926,18.0254V.2129h7.6426V2.9121H76.5781V7.77H80.2v2.6993H76.5781v4.8574h4.9571v2.6992Z"/><path class="cls-1" d="M91.2139.2275A4.0938,4.0938,0,0,1,94.51,1.4629a4.4929,4.4929,0,0,1,.9228,3.0117V7.06a4.16,4.16,0,0,1-1.4346,3.1963l1.9883,7.77H93.083l-1.6279-6.7041H89.666v6.7041H86.9805V.2275Zm1.6054,4.2891a1.3621,1.3621,0,0,0-1.5341-1.5478H89.666V8.665h1.6192a1.4641,1.4641,0,0,0,1.0859-.455,1.502,1.502,0,0,0,.4482-1.0938Z"/><path class="cls-1" d="M109.5654,18.0254H106.88V.2129h3.8525l2.502,12.7959L115.6367.2129h3.7012V18.0254h-2.6846V6.832l-2.3291,11.1934H112.165l-2.6-11.165Z"/><path class="cls-1" d="M129.5439,0a4.0984,4.0984,0,0,1,3.0181,1.25,4.1134,4.1134,0,0,1,1.2432,3.0107v9.7168a4.2547,4.2547,0,1,1-8.5093,0V4.2607a4.0962,4.0962,0,0,1,1.25-3.0175A4.1008,4.1008,0,0,1,129.5439,0Zm1.4629,4.2041A1.5287,1.5287,0,0,0,129.4727,2.67a1.5,1.5,0,0,0-1.0938.4483,1.4639,1.4639,0,0,0-.4551,1.0859v9.7441a1.4649,1.4649,0,0,0,.4551,1.087,1.4993,1.4993,0,0,0,1.0938.4472,1.5269,1.5269,0,0,0,1.5341-1.5342Z"/><path class="cls-1" d="M144.0093.2275a4.0938,4.0938,0,0,1,3.2959,1.2354,4.4929,4.4929,0,0,1,.9228,3.0117V7.06a4.16,4.16,0,0,1-1.4345,3.1963l1.9882,7.77h-2.9033l-1.6279-6.7041h-1.7891v6.7041h-2.6855V.2275Zm1.6054,4.2891a1.3621,1.3621,0,0,0-1.5341-1.5478h-1.6192V8.665h1.6192a1.464,1.464,0,0,0,1.0859-.455,1.502,1.502,0,0,0,.4482-1.0938Z"/><path class="cls-1" d="M154.6821,18.0254V.2129h7.6426V2.9121h-4.957V7.77h3.622v2.6993h-3.622v4.8574h4.957v2.6992Z"/></svg>