<svg id="Layer_1" data-name="Layer 1" xmlns="http://www.w3.org/2000/svg" width="171.4575" height="79.0376" viewBox="0 0 171.4575 79.0376"><defs><style>.cls-1{fill:#ac9655;}</style></defs><title>frame1</title><path class="cls-1" d="M10.2192,18.2529a4.2436,4.2436,0,0,1-4.2612-4.247V4.29a4.0951,4.0951,0,0,1,1.25-3.0185A4.1137,4.1137,0,0,1,10.2192.0283a4.0756,4.0756,0,0,1,3.0113,1.25A4.1264,4.1264,0,0,1,14.4663,4.29V6.3213H11.6826V4.2324a1.5513,1.5513,0,0,0-1.5483-1.5478,1.4686,1.4686,0,0,0-1.0869.4541A1.504,1.504,0,0,0,8.6,4.2324v9.7451a1.5271,1.5271,0,0,0,1.5342,1.5332,1.5015,1.5015,0,0,0,1.0937-.4472,1.4672,1.4672,0,0,0,.4546-1.086V11.52h2.7837v2.4864a4.0715,4.0715,0,0,1-1.25,3.0107A4.11,4.11,0,0,1,10.2192,18.2529Z"/><path class="cls-1" d="M23.0483,13.9346l-.6523,4.0908H19.6006L22.6265.2275h3.6928l2.9829,17.7979H26.48l-.6284-4.0908Zm1.41-9.6309-.9941,7.0176h1.9882Z"/><path class="cls-1" d="M38.1748.2129l3.5625,11.9707V.2129h2.6846V18.0254H41.5381L37.8452,6.6191V18.0254H35.1606V.2129Z"/><path class="cls-1" d="M53.4365.2129,56.999,12.1836V.2129h2.6846V18.0254H56.8L53.1074,6.6191V18.0254H50.4219V.2129Z"/><path class="cls-1" d="M68.9756,13.9346l-.6524,4.0908H65.5273L68.5537.2275h3.6924L75.23,18.0254H72.4062l-.6279-4.0908Zm1.41-9.6309-.9941,7.0176H71.38Z"/><path class="cls-1" d="M80.2949,18.0254V.2129h4.02a5.12,5.12,0,0,1,2.8692.8379,3.9006,3.9006,0,0,1,1.5625,2.2021,6.1876,6.1876,0,0,1,.2558,1.8887,4.1775,4.1775,0,0,1-.9521,2.8691,2.6818,2.6818,0,0,1-.9375.6963,3.1261,3.1261,0,0,1,1.52,1.35,5.2553,5.2553,0,0,1,.61,1.7618,7.0087,7.0087,0,0,1,.1,1.2353,5.9405,5.9405,0,0,1-.64,2.8692A3.82,3.82,0,0,1,87.2979,17.4a3.8687,3.8687,0,0,1-2.0313.625Zm2.8985-10.54h1.122a1.6446,1.6446,0,0,0,1.6758-1.2217,3.4729,3.4729,0,0,0,.1563-1.1221,2.3442,2.3442,0,0,0-.54-1.6758,1.6955,1.6955,0,0,0-1.292-.5254h-1.122Zm0,7.8837h1.122a1.9036,1.9036,0,0,0,1.8887-1.4062,3.0931,3.0931,0,0,0,.1846-1.1084,3.3783,3.3783,0,0,0-.5674-2.1729,1.8324,1.8324,0,0,0-1.5059-.625h-1.122Z"/><path class="cls-1" d="M97.1553,18.0254H94.47V.2275h2.6856Z"/><path class="cls-1" d="M111.0776,13.5938a5.0011,5.0011,0,0,1-.9658,3.1816,3.4816,3.4816,0,0,1-1.8467,1.2646,5.0527,5.0527,0,0,1-1.4912.1983,4.2154,4.2154,0,0,1-2.6133-.7813,4.3587,4.3587,0,0,1-1.371-1.74,7.037,7.037,0,0,1-.59-2.52l2.5576-.1856a3.8808,3.8808,0,0,0,.8233,2.2559,1.3725,1.3725,0,0,0,1.1084.5,1.6642,1.6642,0,0,0,1.4062-.8672,2.1543,2.1543,0,0,0,.2695-1.18,3.2769,3.2769,0,0,0-1.0087-2.2041q-.7954-.7528-2.3858-2.26a10.1929,10.1929,0,0,1-1.89-2.3184,5.36,5.36,0,0,1-.5967-2.502A4.3549,4.3549,0,0,1,104.1177.7529a4.063,4.063,0,0,1,2.5-.7529,4.5458,4.5458,0,0,1,2.457.6387,3.7025,3.7025,0,0,1,1.2861,1.3925,5.1465,5.1465,0,0,1,.5889,2.06l-2.57.4688a3.1042,3.1042,0,0,0-.625-1.7051,1.315,1.315,0,0,0-1.0654-.4395,1.2274,1.2274,0,0,0-1.1221.6534,2.5109,2.5109,0,0,0-.3125,1.3066A3.9175,3.9175,0,0,0,106.3052,6.86a8.84,8.84,0,0,0,1.1933,1.1367q.9375.7808,1.2354,1.0937a9.1013,9.1013,0,0,1,1.5342,1.96,7.62,7.62,0,0,1,.4121.8379A4.8649,4.8649,0,0,1,111.0776,13.5938Z"/><path class="cls-1" d="M130.104,10.4824v7.543h-2.6855V.2275h2.6855V7.7842h3.2383V.2275h2.6846V18.0254h-2.6846v-7.543Z"/><path class="cls-1" d="M145.3179,13.9346l-.6524,4.0908H141.87L144.896.2275h3.6924l2.9834,17.7979h-2.8233l-.6279-4.0908Zm1.41-9.6309-.9941,7.0176h1.9883Z"/><path class="cls-1" d="M165.4976,13.5938a5.0018,5.0018,0,0,1-.9659,3.1816,3.4813,3.4813,0,0,1-1.8466,1.2646,5.0538,5.0538,0,0,1-1.4913.1983,4.2151,4.2151,0,0,1-2.6132-.7813,4.3581,4.3581,0,0,1-1.3711-1.74,7.037,7.037,0,0,1-.59-2.52l2.5576-.1856a3.8808,3.8808,0,0,0,.8233,2.2559,1.3726,1.3726,0,0,0,1.1084.5,1.6641,1.6641,0,0,0,1.4062-.8672,2.1543,2.1543,0,0,0,.27-1.18,3.2771,3.2771,0,0,0-1.0088-2.2041q-.7955-.7528-2.3858-2.26a10.1929,10.1929,0,0,1-1.89-2.3184,5.36,5.36,0,0,1-.5967-2.502A4.3549,4.3549,0,0,1,158.5376.7529a4.0633,4.0633,0,0,1,2.5-.7529,4.5455,4.5455,0,0,1,2.457.6387,3.7036,3.7036,0,0,1,1.2862,1.3925,5.1481,5.1481,0,0,1,.5888,2.06l-2.57.4688a3.1042,3.1042,0,0,0-.625-1.7051,1.3149,1.3149,0,0,0-1.0654-.4395,1.2274,1.2274,0,0,0-1.1221.6534,2.5109,2.5109,0,0,0-.3125,1.3066A3.9175,3.9175,0,0,0,160.7251,6.86a8.8361,8.8361,0,0,0,1.1934,1.1367q.9375.7808,1.2353,1.0937a9.1013,9.1013,0,0,1,1.5342,1.96,7.62,7.62,0,0,1,.4121.8379A4.863,4.863,0,0,1,165.4976,13.5938Z"/><path class="cls-1" d="M0,48.4248V30.6123H4.02a5.12,5.12,0,0,1,2.8692.8379,3.9029,3.9029,0,0,1,1.5625,2.2021,6.2031,6.2031,0,0,1,.2558,1.8887A4.18,4.18,0,0,1,7.7559,38.41a2.701,2.701,0,0,1-.9375.6962,3.1239,3.1239,0,0,1,1.5195,1.35,5.2434,5.2434,0,0,1,.6108,1.7617,7.0092,7.0092,0,0,1,.1,1.2353,5.952,5.952,0,0,1-.6391,2.8692A3.8265,3.8265,0,0,1,7.0029,47.8a3.871,3.871,0,0,1-2.0312.625Zm2.8975-10.54H4.02a1.6443,1.6443,0,0,0,1.6758-1.2217,3.4725,3.4725,0,0,0,.1563-1.1221,2.3463,2.3463,0,0,0-.54-1.6758A1.6973,1.6973,0,0,0,4.02,33.34H2.8975Zm0,7.8838H4.02a1.9054,1.9054,0,0,0,1.8892-1.4063,3.0931,3.0931,0,0,0,.1846-1.1084,3.3715,3.3715,0,0,0-.5684-2.1728,1.8307,1.8307,0,0,0-1.5054-.625H2.8975Z"/><path class="cls-1" d="M14.1548,48.4248V30.6123h7.6421v2.6992H16.8394v4.8574h3.622v2.6993h-3.622v4.8574h4.9575v2.6992Z"/><path class="cls-1" d="M26.8433,48.4248V30.6123h7.6421v2.6992H29.5278v4.8574H33.15v2.6993H29.5278v4.8574h4.9576v2.6992Z"/><path class="cls-1" d="M42.9453,30.6123,46.5078,42.583V30.6123h2.6846V48.4248H46.3086L42.6162,37.0186V48.4248H39.9307V30.6123Z"/><path class="cls-1" d="M64.333,48.624a4.2212,4.2212,0,0,1-4.248-4.2334V30.627h2.6279V44.3623a1.4677,1.4677,0,0,0,.4551,1.0869,1.5029,1.5029,0,0,0,1.0937.4473,1.5272,1.5272,0,0,0,1.5342-1.5342V30.627h2.7979V44.3906a4.0463,4.0463,0,0,1-1.25,3.0117A4.1517,4.1517,0,0,1,64.333,48.624Z"/><path class="cls-1" d="M82.0977,43.9932a5.0018,5.0018,0,0,1-.9659,3.1816A3.482,3.482,0,0,1,79.2852,48.44a5.0573,5.0573,0,0,1-1.4913.1982,4.2151,4.2151,0,0,1-2.6132-.7813,4.3574,4.3574,0,0,1-1.3711-1.74,7.037,7.037,0,0,1-.59-2.52l2.5576-.1855a3.8808,3.8808,0,0,0,.8233,2.2558,1.3723,1.3723,0,0,0,1.1084.5,1.664,1.664,0,0,0,1.4062-.8672,2.1541,2.1541,0,0,0,.27-1.18A3.2771,3.2771,0,0,0,78.376,41.915q-.7955-.7529-2.3858-2.26a10.1929,10.1929,0,0,1-1.89-2.3184,5.36,5.36,0,0,1-.5967-2.5019,4.355,4.355,0,0,1,1.6338-3.6827,4.0633,4.0633,0,0,1,2.5-.7529,4.5455,4.5455,0,0,1,2.457.6387,3.7031,3.7031,0,0,1,1.2862,1.3926,5.1471,5.1471,0,0,1,.5888,2.06l-2.57.4688a3.1042,3.1042,0,0,0-.625-1.7051,1.3148,1.3148,0,0,0-1.0654-.4394,1.2273,1.2273,0,0,0-1.1221.6533,2.5109,2.5109,0,0,0-.3125,1.3066A3.9175,3.9175,0,0,0,77.3252,37.26a8.8361,8.8361,0,0,0,1.1934,1.1367q.9375.7807,1.2353,1.0937a9.1013,9.1013,0,0,1,1.5342,1.96,7.62,7.62,0,0,1,.4121.8379A4.8635,4.8635,0,0,1,82.0977,43.9932Z"/><path class="cls-1" d="M86.7246,48.4248V30.6123h7.6426v2.6992H89.41v4.8574h3.622v2.6993H89.41v4.8574h4.957v2.6992Z"/><path class="cls-1" d="M107.45,44.1631a4.1259,4.1259,0,0,1-1.2353,3.0117,4.0442,4.0442,0,0,1-2.9834,1.25H99.0127V30.6123h4.2183a4.0358,4.0358,0,0,1,2.99,1.25,4.1218,4.1218,0,0,1,1.2285,2.9971Zm-5.7515,1.6055h1.6187a1.4333,1.4333,0,0,0,1.0791-.462,1.5205,1.5205,0,0,0,.44-1.0859V34.9023a1.5032,1.5032,0,0,0-.4472-1.0937,1.4513,1.4513,0,0,0-1.0723-.4551h-1.6187Z"/><path class="cls-1" d="M126.8374,44.334l-.6523,4.0908h-2.7959l3.0263-17.7978h3.6924l2.9834,17.7978h-2.8232l-.628-4.0908Zm1.41-9.6309-.9942,7.0176h1.9883Z"/><path class="cls-1" d="M145.4155,43.9932a5.0011,5.0011,0,0,1-.9658,3.1816A3.4823,3.4823,0,0,1,142.603,48.44a5.0566,5.0566,0,0,1-1.4912.1982,4.2154,4.2154,0,0,1-2.6133-.7813,4.3591,4.3591,0,0,1-1.3711-1.74,7.0391,7.0391,0,0,1-.59-2.52l2.5576-.1855a3.8808,3.8808,0,0,0,.8233,2.2558,1.3722,1.3722,0,0,0,1.1084.5,1.664,1.664,0,0,0,1.4062-.8672,2.1541,2.1541,0,0,0,.2695-1.18,3.2766,3.2766,0,0,0-1.0088-2.2041q-.7953-.7529-2.3857-2.26a10.1929,10.1929,0,0,1-1.89-2.3184,5.36,5.36,0,0,1-.5967-2.5019,4.355,4.355,0,0,1,1.6338-3.6827,4.063,4.063,0,0,1,2.5-.7529,4.5458,4.5458,0,0,1,2.457.6387,3.7021,3.7021,0,0,1,1.2861,1.3926,5.1456,5.1456,0,0,1,.5889,2.06l-2.57.4688a3.1042,3.1042,0,0,0-.625-1.7051,1.315,1.315,0,0,0-1.0654-.4394,1.2272,1.2272,0,0,0-1.1221.6533,2.5109,2.5109,0,0,0-.3125,1.3066,3.9175,3.9175,0,0,0,1.0508,2.4854,8.84,8.84,0,0,0,1.1933,1.1367q.9375.7807,1.2354,1.0937a9.1013,9.1013,0,0,1,1.5342,1.96,7.62,7.62,0,0,1,.4121.8379A4.8654,4.8654,0,0,1,145.4155,43.9932Z"/><path class="cls-1" d="M165.2036,44.334l-.6523,4.0908h-2.7959l3.0263-17.7978h3.6924l2.9834,17.7978h-2.8232l-.628-4.0908Zm1.41-9.6309-.9942,7.0176h1.9883Z"/><path class="cls-1" d="M21.0576,74.3931a5.01,5.01,0,0,1-.9658,3.1816,3.4861,3.4861,0,0,1-1.8467,1.2647,5.0625,5.0625,0,0,1-1.4917.1982,4.2179,4.2179,0,0,1-2.6138-.7813,4.3624,4.3624,0,0,1-1.3706-1.74,7.0181,7.0181,0,0,1-.5893-2.52l2.5566-.1855a3.8814,3.8814,0,0,0,.8242,2.2558,1.3709,1.3709,0,0,0,1.108.5,1.664,1.664,0,0,0,1.4062-.8672,2.1541,2.1541,0,0,0,.27-1.18,3.2781,3.2781,0,0,0-1.0083-2.2041q-.7953-.7528-2.3862-2.26a10.1923,10.1923,0,0,1-1.8892-2.3184,5.3551,5.3551,0,0,1-.5966-2.5019,4.3547,4.3547,0,0,1,1.6333-3.6827,4.062,4.062,0,0,1,2.5-.7529,4.5466,4.5466,0,0,1,2.4575.6387A3.6969,3.6969,0,0,1,20.34,62.8306a5.1539,5.1539,0,0,1,.5894,2.06l-2.5713.4688a3.0965,3.0965,0,0,0-.625-1.7051,1.3126,1.3126,0,0,0-1.0649-.4394,1.2275,1.2275,0,0,0-1.1226.6533,2.5206,2.5206,0,0,0-.3125,1.3066A3.921,3.921,0,0,0,16.2847,67.66a8.84,8.84,0,0,0,1.1933,1.1367q.9375.7807,1.2359,1.0937a9.1449,9.1449,0,0,1,1.5341,1.96,7.5934,7.5934,0,0,1,.4117.8379A4.8873,4.8873,0,0,1,21.0576,74.3931Z"/><path class="cls-1" d="M29.9165,61.0269a4.0888,4.0888,0,0,1,3.125,1.2353,4.287,4.287,0,0,1,1.08,3.0117v2.585a4.1443,4.1443,0,0,1-1.2285,3.0117,4.021,4.021,0,0,1-2.9761,1.25H28.3682v6.7041H25.6836V61.0269Zm1.605,4.289a1.532,1.532,0,0,0-.419-1.1221,1.4933,1.4933,0,0,0-1.1152-.4257H28.3682v5.6963h1.6191a1.4661,1.4661,0,0,0,1.0869-.4551,1.5028,1.5028,0,0,0,.4473-1.0938Z"/><path class="cls-1" d="M41.3525,78.8247H38.668V61.0269h2.6845Z"/><path class="cls-1" d="M51.1914,61.0269a4.0938,4.0938,0,0,1,3.2959,1.2353,4.4929,4.4929,0,0,1,.9229,3.0117v2.585a4.16,4.16,0,0,1-1.4346,3.1963l1.9883,7.77H53.0605l-1.6279-6.7041h-1.789v6.7041H46.958V61.0269Zm1.6055,4.289a1.3621,1.3621,0,0,0-1.5342-1.5478H49.6436v5.6963h1.6191a1.4639,1.4639,0,0,0,1.0859-.4551,1.5017,1.5017,0,0,0,.4483-1.0938Z"/><path class="cls-1" d="M63.7559,78.8247H61.07V61.0269h2.6856Z"/><path class="cls-1" d="M71.5771,63.7251H68.7217V61.0269h8.3808v2.6982H74.2617v15.1H71.5771Z"/><path class="cls-1" d="M86.2969,79.0239a4.2213,4.2213,0,0,1-4.2481-4.2334V61.0269h2.628V74.7622a1.4676,1.4676,0,0,0,.455,1.0869,1.5031,1.5031,0,0,0,1.0938.4473A1.5272,1.5272,0,0,0,87.76,74.7622V61.0269h2.7978V74.7905a4.0463,4.0463,0,0,1-1.25,3.0117A4.1513,4.1513,0,0,1,86.2969,79.0239Z"/><path class="cls-1" d="M98.6514,74.7339l-.6524,4.0908H95.2031L98.23,61.0269h3.6919l2.9834,17.7978h-2.8233l-.6274-4.0908Zm1.41-9.6309-.9941,7.0176h1.9883Z"/><path class="cls-1" d="M117.2866,78.8247h-7.3154V61.0269h2.6855V76.1538h4.63Z"/><path class="cls-1" d="M131.6284,74.7339l-.6523,4.0908H128.18l3.0263-17.7978h3.6924l2.9834,17.7978h-2.8232l-.6279-4.0908Zm1.41-9.6309-.9942,7.0176h1.9883Z"/><path class="cls-1" d="M145.2329,78.8247h-2.6855V61.0269h2.6855Z"/><path class="cls-1" d="M159.2759,74.563a4.126,4.126,0,0,1-1.2354,3.0117,4.0439,4.0439,0,0,1-2.9834,1.25h-4.2187V61.0122h4.2187a4.0362,4.0362,0,0,1,2.99,1.25,4.1218,4.1218,0,0,1,1.2285,2.9971Zm-5.752,1.6055h1.6192a1.4335,1.4335,0,0,0,1.0791-.462,1.5205,1.5205,0,0,0,.44-1.0859V65.3022a1.5029,1.5029,0,0,0-.4473-1.0937,1.451,1.451,0,0,0-1.0722-.4551h-1.6192Z"/></svg>