<svg id="Layer_1" data-name="Layer 1" xmlns="http://www.w3.org/2000/svg" width="154.5918" height="18.2529" viewBox="0 0 154.5918 18.2529"><defs><style>.cls-1{fill:#ac9655;}</style></defs><title>frame4</title><path class="cls-1" d="M3.0137.2129,6.5762,12.1836V.2129H9.2607V18.0254H6.3779L2.6846,6.6191V18.0254H0V.2129Z"/><path class="cls-1" d="M18.5527,13.9346,17.9,18.0254H15.1055L18.1309.2275h3.6933l2.9824,17.7979H21.9844l-.6289-4.0908Zm1.41-9.6309-.9941,7.0176H20.957Z"/><path class="cls-1" d="M33.3506,18.0254H30.666V.2129h3.8516L37.02,13.0088,39.4219.2129H43.123V18.0254H40.4385V6.832L38.1094,18.0254H35.95l-2.6-11.165Z"/><path class="cls-1" d="M52.415,13.9346l-.6523,4.0908H48.9668L51.9932.2275h3.6923l2.9834,17.7979H55.8457l-.6279-4.0908Zm1.41-9.6309-.9941,7.0176h1.9882Z"/><path class="cls-1" d="M72.5957,13.5938a5.0017,5.0017,0,0,1-.9658,3.1816A3.4819,3.4819,0,0,1,69.7832,18.04a5.0531,5.0531,0,0,1-1.4912.1983,4.2152,4.2152,0,0,1-2.6133-.7813,4.36,4.36,0,0,1-1.3711-1.74,7.0391,7.0391,0,0,1-.59-2.52l2.5576-.1856a3.8815,3.8815,0,0,0,.8232,2.2559,1.3726,1.3726,0,0,0,1.1084.5,1.6644,1.6644,0,0,0,1.4063-.8672,2.1543,2.1543,0,0,0,.27-1.18,3.2766,3.2766,0,0,0-1.0088-2.2041q-.7953-.7528-2.3857-2.26a10.1965,10.1965,0,0,1-1.89-2.3184,5.3616,5.3616,0,0,1-.5966-2.502A4.3551,4.3551,0,0,1,65.6357.7529,4.0635,4.0635,0,0,1,68.1357,0a4.5461,4.5461,0,0,1,2.4571.6387,3.7033,3.7033,0,0,1,1.2861,1.3925,5.1481,5.1481,0,0,1,.5889,2.06l-2.57.4688a3.1042,3.1042,0,0,0-.625-1.7051A1.3151,1.3151,0,0,0,68.207,2.415a1.2272,1.2272,0,0,0-1.122.6534,2.5109,2.5109,0,0,0-.3125,1.3066A3.9179,3.9179,0,0,0,67.8232,6.86a8.8422,8.8422,0,0,0,1.1934,1.1367q.9375.7808,1.2354,1.0937a9.1006,9.1006,0,0,1,1.5341,1.96,7.6019,7.6019,0,0,1,.4121.8379A4.863,4.863,0,0,1,72.5957,13.5938Z"/><path class="cls-1" d="M80.8975,2.9258H78.042V.2275h8.3809V2.9258H83.582v15.1H80.8975Z"/><path class="cls-1" d="M92.1816,18.0254V.2129h7.6426V2.9121h-4.957V7.77h3.6221v2.6993H94.8672v4.8574h4.957v2.6992Z"/><path class="cls-1" d="M105.2705,15.3545h2.6856V18.04h-2.6856Z"/><path class="cls-1" d="M117.6631,18.2529a4.2443,4.2443,0,0,1-4.2617-4.247V4.29a4.097,4.097,0,0,1,1.25-3.0185,4.2613,4.2613,0,0,1,6.0234.0068A4.13,4.13,0,0,1,121.91,4.29V6.3213H119.126V4.2324a1.55,1.55,0,0,0-1.5479-1.5478,1.4687,1.4687,0,0,0-1.0869.4541,1.5064,1.5064,0,0,0-.4473,1.0937v9.7451a1.5271,1.5271,0,0,0,1.5342,1.5332,1.5025,1.5025,0,0,0,1.0938-.4472,1.4671,1.4671,0,0,0,.4541-1.086V11.52H121.91v2.4864a4.2444,4.2444,0,0,1-4.2471,4.247Z"/><path class="cls-1" d="M131.917,0a4.0966,4.0966,0,0,1,3.0176,1.25,4.1133,4.1133,0,0,1,1.2431,3.0107v9.7168a4.2544,4.2544,0,1,1-8.5088,0V4.2607a4.0962,4.0962,0,0,1,1.25-3.0175A4.101,4.101,0,0,1,131.917,0ZM133.38,4.2041A1.5289,1.5289,0,0,0,131.8457,2.67a1.5,1.5,0,0,0-1.0937.4483,1.4635,1.4635,0,0,0-.4551,1.0859v9.7441a1.4645,1.4645,0,0,0,.4551,1.087,1.4991,1.4991,0,0,0,1.0937.4472,1.5271,1.5271,0,0,0,1.5342-1.5342Z"/><path class="cls-1" d="M144.8193,18.0254h-2.6855V.2129h3.8525l2.502,12.7959L150.8906.2129h3.7012V18.0254h-2.6846V6.832l-2.3291,11.1934h-2.1592l-2.6-11.165Z"/></svg>