<svg id="Content" xmlns="http://www.w3.org/2000/svg" xmlns:xlink="http://www.w3.org/1999/xlink" viewBox="0 0 640 100"><defs><style>.cls-1{fill:url(#New_Gradient_Swatch_1);}.cls-2{fill:url(#linear-gradient);}.cls-3{fill:url(#linear-gradient-2);}.cls-4{fill:url(#linear-gradient-3);}.cls-5{fill:url(#linear-gradient-4);}.cls-6{fill:url(#linear-gradient-5);}.cls-7{fill:url(#linear-gradient-6);}.cls-8{fill:url(#linear-gradient-7);}.cls-9{fill:url(#New_Gradient_Swatch_2);}.cls-10{fill:#a89255;}.cls-11{fill:url(#New_Gradient_Swatch_2-2);}.cls-12{fill:#fff;}</style><linearGradient id="New_Gradient_Swatch_1" x1="87.66" y1="37.16" x2="151.41" y2="37.16" gradientUnits="userSpaceOnUse"><stop offset="0" stop-color="#a88a34"/><stop offset="0.49" stop-color="#caaf67"/><stop offset="1" stop-color="#957f2e"/></linearGradient><linearGradient id="linear-gradient" x1="152.38" y1="174.81" x2="152.38" y2="67.88" gradientUnits="userSpaceOnUse"><stop offset="0" stop-color="#a88a34"/><stop offset="0.5" stop-color="#caaf67"/><stop offset="1" stop-color="#957f2e"/></linearGradient><linearGradient id="linear-gradient-2" x1="122.76" y1="119.14" x2="122.76" y2="40.19" xlink:href="#linear-gradient"/><linearGradient id="linear-gradient-3" x1="132.79" y1="146.22" x2="132.79" y2="42.32" xlink:href="#linear-gradient"/><linearGradient id="linear-gradient-4" x1="142.56" y1="148.59" x2="142.56" y2="57.64" xlink:href="#linear-gradient"/><linearGradient id="linear-gradient-5" x1="87.51" y1="84.83" x2="87.51" y2="-3.05" xlink:href="#linear-gradient"/><linearGradient id="linear-gradient-6" x1="110.86" y1="107.03" x2="110.86" y2="28.53" xlink:href="#linear-gradient"/><linearGradient id="linear-gradient-7" x1="98.93" y1="95.31" x2="98.93" y2="16.35" xlink:href="#linear-gradient"/><linearGradient id="New_Gradient_Swatch_2" x1="156.6" y1="67.66" x2="161" y2="67.66" gradientUnits="userSpaceOnUse"><stop offset="0" stop-color="#a88a34"/><stop offset="0.19" stop-color="#caaf67"/><stop offset="0.46" stop-color="#a08a4a"/><stop offset="0.76" stop-color="#caaf67"/><stop offset="1" stop-color="#957f2e"/></linearGradient><linearGradient id="New_Gradient_Swatch_2-2" x1="428.74" y1="67.94" x2="740.55" y2="23.87" xlink:href="#New_Gradient_Swatch_2"/></defs><title>CTA1</title><path class="cls-1" d="M115.66,58.53c.69-.21,2,1,2,1a1.53,1.53,0,0,0,.42-1c0-.42-.3-1.22-.35-1.71a8.31,8.31,0,0,0-.3-1.42c-.11-.32-.86-.46-1.26-.71a6.49,6.49,0,0,1-1-.7,3.26,3.26,0,0,1-.43-1.48,5.91,5.91,0,0,0-.24-1.5c-.14-.26-.51-.45-.75-.69a1.09,1.09,0,0,1-.25-.65c.19-.06.24.43.46.47s.2.22.54.33.35.28.4.6.42,1.38.55,1.81.25.77.68.78.37.24.88.2a2.8,2.8,0,0,1,1.21.23c.27.1.62.11.73-.08s-.08-1-.08-1c-.17,0-.2-.24-.27-.45s0-.24,0-.24a1,1,0,0,1,.88-1.21,1,1,0,0,1,.89,1.21s.1,0,0,.24-.1.45-.28.45c0,0-.19.77-.08,1s.46.18.73.08a2.84,2.84,0,0,1,1.22-.23c.5,0,.44-.18.87-.2s.56-.34.69-.78.51-1.5.55-1.81.06-.48.39-.6.33-.29.55-.33.27-.53.46-.47a1.09,1.09,0,0,1-.25.65c-.25.24-.61.43-.75.69a5.91,5.91,0,0,0-.24,1.5,3.26,3.26,0,0,1-.43,1.48,7.61,7.61,0,0,1-1,.7c-.41.25-1.16.39-1.26.71a8.31,8.31,0,0,0-.3,1.42c-.06.49-.35,1.29-.35,1.71a1.53,1.53,0,0,0,.42,1c.08,0,1.34-1.18,2-1s.42,1.17-.3,1.89a3.12,3.12,0,0,1-1.49.93,7.16,7.16,0,0,1,1.13.21A12.35,12.35,0,0,1,126,63.4a11.39,11.39,0,0,0,2.88,1.68l.28.07c.1-.09.62-.39.62-.39a10.83,10.83,0,0,0,1.3.56l-3.32-2.56,6.58,2.87a3,3,0,0,0,.32.12l4,.07a29.68,29.68,0,0,0,3-.1,27.78,27.78,0,0,0-2.5-1.38l-3.48-1.71-.36,0-7.6-.46,4.94-.86-3.2-1,5.48,0a18.24,18.24,0,0,0,3.74-.42l-5.18-1,7.59-.34a7.11,7.11,0,0,0,1.27-.16l-.58.07,5-2.35a46.27,46.27,0,0,0,4.64-2.55,48.15,48.15,0,0,0-5.43-.33h-5.69l.64-.21a7.26,7.26,0,0,0-1.35.42l-6.64,2.77,4-3h0l-.09-.69-.73-1.21a24,24,0,0,0,5.47-5.65l-5.37,2.57,5.47-4.55a8.9,8.9,0,0,0,1.74-1.89c.7-1.06,1.36-2.16,2-3.26l-1.7,1.67,2-4.42a58.05,58.05,0,0,0,3-8.32,71.5,71.5,0,0,0-8.06,5.2l-4,3,1.27-2c-1,.87-2,1.8-3,2.76a8.87,8.87,0,0,0-1.47,2.05L130.6,44l1-5.08a23.51,23.51,0,0,0-2.31,2.75l-.5.71-.47-.32a.63.63,0,0,0-.07.12l-4,7.57,2.35-8.23a26.19,26.19,0,0,0,.78-10.33l-2.75,5.11L126,30.18a9.62,9.62,0,0,0,.21-3.07,49.38,49.38,0,0,0-1-6.21l-.37,3-1.19-4.4a74.1,74.1,0,0,0-4.08-11,75.25,75.25,0,0,0-4.07,11l-1.2,4.4-.36-3a51.28,51.28,0,0,0-1.06,6.21,10.24,10.24,0,0,0,.21,3.07l1.33,6.15-2.75-5.12a26.19,26.19,0,0,0,.78,10.33l2.36,8.23-4-7.57a.62.62,0,0,0-.08-.12l-.46.32-.51-.71a23.43,23.43,0,0,0-2.3-2.75l1,5.08-2.9-5.57a8.87,8.87,0,0,0-1.47-2.05c-1-1-1.94-1.89-3-2.76l1.27,2-4-3a70.61,70.61,0,0,0-8.06-5.2,59.29,59.29,0,0,0,3,8.32l2,4.42-1.7-1.67c.6,1.1,1.25,2.2,2,3.26a9.11,9.11,0,0,0,1.73,1.89l5.48,4.55L97.49,45.6A23.85,23.85,0,0,0,103,51.25l-.73,1.21-.09.69h0l4,3-6.65-2.77A7.38,7.38,0,0,0,98.14,53l.63.21H93.08a48,48,0,0,0-5.42.33A47.19,47.19,0,0,0,92.29,56l5,2.35-.57-.07a7.11,7.11,0,0,0,1.27.16l7.59.34-5.18,1a18.24,18.24,0,0,0,3.74.42l5.49,0-3.21,1,4.94.86-7.6.46-.36,0-3.49,1.71c-.89.43-1.73.91-2.5,1.38a29.87,29.87,0,0,0,3,.1l4-.07.32-.12,6.58-2.87L108,65.32a10.83,10.83,0,0,0,1.3-.56s.52.3.62.39l.28-.07a11.57,11.57,0,0,0,2.88-1.68,12.2,12.2,0,0,1,3.23-1.84,7,7,0,0,1,1.13-.21,3.07,3.07,0,0,1-1.49-.93C115.24,59.7,115,58.73,115.66,58.53Z"/><polygon class="cls-2" points="156.19 71.96 156.19 70.02 148.57 70.03 148.57 80.4 156.18 80.4 156.18 78.46 150.64 78.46 150.64 76.1 154.8 76.1 154.8 74.17 150.64 74.17 150.64 71.96 156.19 71.96"/><path class="cls-3" d="M121.72,70,117.57,80.4h2.22l.62-1.59h4.7l.62,1.59h2.21L123.8,70Zm-.48,6.71,1.58-3.94,1.53,3.94Z"/><path class="cls-4" d="M135.66,75a5.16,5.16,0,0,0-2.39-.87,2.65,2.65,0,0,1-1.59-.62.81.81,0,0,1,0-1c.23-.39.76-.59,1.59-.59a2.4,2.4,0,0,1,1.94.83l1.38-1.38a4.81,4.81,0,0,0-1.48-1,5.8,5.8,0,0,0-2.24-.35,4.16,4.16,0,0,0-2.43.84,2.56,2.56,0,0,0-1.18,2.21,2.29,2.29,0,0,0,1,2.14,5.45,5.45,0,0,0,2.28.76c.92.09,1.5.34,1.73.73a1.08,1.08,0,0,1,0,1.17c-.23.4-.81.59-1.73.59a3.26,3.26,0,0,1-2.35-1l-1.38,1.39a5.07,5.07,0,0,0,1.66,1.1,6.05,6.05,0,0,0,2.41.42,4.2,4.2,0,0,0,2.67-.9,2.66,2.66,0,0,0,1.14-2.14A2.61,2.61,0,0,0,135.66,75Z"/><polygon class="cls-5" points="138.06 71.96 141.52 71.96 141.52 80.4 143.59 80.4 143.59 71.96 147.05 71.96 147.05 70.02 138.06 70.02 138.06 71.96"/><polygon class="cls-6" points="90.07 76.53 83.57 70.02 82.88 70.02 82.88 80.4 84.95 80.4 84.95 73.97 91.39 80.4 92.15 80.4 92.15 70.02 90.07 70.02 90.07 76.53"/><polygon class="cls-7" points="110.86 75.14 106.36 70.02 105.67 70.02 105.67 80.4 107.74 80.4 107.74 74.38 110.86 77.84 113.97 74.38 113.97 80.4 116.05 80.4 116.05 70.02 115.36 70.02 110.86 75.14"/><path class="cls-8" d="M97.9,70,93.75,80.4H96l.63-1.59h4.7l.62,1.59h2.21L100,70Zm-.48,6.71L99,72.79l1.54,3.94Z"/><path class="cls-9" d="M157.68,66.89v1.88h-.37V66.89h-.71v-.34h1.78v.34Zm3,1.88V67.11l-.7,1.43h-.25l-.7-1.43v1.66h-.35V66.55h.44l.74,1.48.73-1.48H161v2.22Z"/><path class="cls-10" d="M100.34,87.84a1.44,1.44,0,0,1,.71,1.18,1.46,1.46,0,0,1-1.55,1.54H96.6V85.41h2.73c.87,0,1.33.55,1.38,1.51A1.09,1.09,0,0,1,100.34,87.84Zm-2.71-.37h1.44a.58.58,0,0,0,.64-.64c0-.25-.22-.39-.63-.4H97.63Zm0,2.28h1.69a.67.67,0,0,0,.74-.74c0-.33-.26-.5-.73-.52h-1.7Z"/><path class="cls-10" d="M101.78,85.4H103l1.2,1.69,1.22-1.69h1.18L104.7,88v2.58h-1V88Z"/><path class="cls-10" d="M113.8,90.56h-4.13v-.35l2.4-3.85h-2.4v-1h4.13v.38l-2.41,3.82h2.41Z"/><path class="cls-10" d="M115.1,90.56V85.41h3.78v1h-2.75v1.1h2.06v1h-2.06V89.6h2.75v1Z"/><path class="cls-10" d="M119.92,90.56V85.4h.35l3.23,3.23V85.4h1v5.16h-.38l-3.2-3.2v3.2Z"/><path class="cls-10" d="M125.33,90.56l2.06-5.16h1l2.06,5.15h-1.1l-.31-.79h-2.34l-.3.79Zm2.6-3.78-.78,2h1.54Z"/><path class="cls-10" d="M134.91,87.84a1.46,1.46,0,0,1-.84,2.72h-2.9V85.41h2.73c.87,0,1.33.55,1.38,1.51A1.09,1.09,0,0,1,134.91,87.84Zm-2.71-.37h1.45a.59.59,0,0,0,.64-.64c0-.25-.23-.39-.63-.4H132.2Zm0,2.28h1.69a.67.67,0,0,0,.74-.74c0-.33-.26-.5-.73-.52h-1.7Z"/><path class="cls-10" d="M136.65,85.4h1v5.16h-1Z"/><path class="cls-10" d="M141.51,85.57a2.56,2.56,0,0,1,.74.52l-.69.69a1.17,1.17,0,0,0-1-.42c-.42,0-.68.1-.79.3a.39.39,0,0,0,0,.5,1.32,1.32,0,0,0,.79.3,2.59,2.59,0,0,1,1.18.43,1.3,1.3,0,0,1,.53,1.16,1.33,1.33,0,0,1-.56,1.06,2.1,2.1,0,0,1-1.33.45,3,3,0,0,1-1.2-.21,2.62,2.62,0,0,1-.82-.55l.68-.69a1.64,1.64,0,0,0,1.17.49c.46,0,.75-.1.86-.3a.55.55,0,0,0,0-.58c-.11-.2-.4-.32-.86-.36a2.76,2.76,0,0,1-1.13-.38,1.14,1.14,0,0,1-.52-1.07,1.27,1.27,0,0,1,.59-1.09,2,2,0,0,1,1.2-.42A3,3,0,0,1,141.51,85.57Z"/><rect class="cls-10" x="82.88" y="87.91" width="9.27" height="1.13"/><rect class="cls-10" x="146.92" y="87.91" width="9.27" height="1.13"/><polygon class="cls-11" points="646.48 27.18 479.11 27.18 464.56 48.99 479.11 70.81 646.48 70.81 646.48 27.18"/><path class="cls-12" d="M491.52,52A4.95,4.95,0,0,1,495,43.54a5.33,5.33,0,0,1,3.62,1.32l-1.31,1.44a3.65,3.65,0,0,0-2.31-.79,2.92,2.92,0,0,0-2.15.83,2.88,2.88,0,0,0-.81,2.11,3,3,0,0,0,.82,2.18,2.93,2.93,0,0,0,2.15.81,3.56,3.56,0,0,0,2.3-.78l1.31,1.44A5.3,5.3,0,0,1,495,53.42,4.85,4.85,0,0,1,491.52,52Z"/><path class="cls-12" d="M502.78,43.54v8h5.27v1.85h-7.24V43.54Z"/><path class="cls-12" d="M509.68,43.54h2v9.88h-2Z"/><path class="cls-12" d="M514.56,52a4.94,4.94,0,0,1,3.51-8.46,5.34,5.34,0,0,1,3.63,1.32l-1.32,1.44a3.61,3.61,0,0,0-2.31-.79,3,3,0,1,0,0,5.93,3.54,3.54,0,0,0,2.3-.78l1.32,1.44a5.34,5.34,0,0,1-3.63,1.32A4.81,4.81,0,0,1,514.56,52Z"/><path class="cls-12" d="M523.84,43.54h2v4l3.29-4h2.22l-3.87,4.61,4.68,5.27h-2.57l-3.75-4.27v4.27h-2Z"/><path class="cls-12" d="M546,43.54v1.85h-3.29v8h-2v-8h-3.29V43.54Z"/><path class="cls-12" d="M548.38,52a4.94,4.94,0,0,1,3.52-8.46A4.94,4.94,0,1,1,548.38,52Zm3.53-.43a2.78,2.78,0,0,0,2.13-.88,3.36,3.36,0,0,0,0-4.42,3,3,0,0,0-4.28,0,3.39,3.39,0,0,0,0,4.42A2.8,2.8,0,0,0,551.91,51.57Z"/><path class="cls-12" d="M562.89,53.42V43.55h7.26v1.85h-5.28v2.1h4v1.84h-4v2.24h5.26v1.85Z"/><path class="cls-12" d="M575.39,48.28l-3.46-4.74h2.32l2.3,3.14,2.31-3.14h2.31l-3.45,4.74,3.77,5.14h-2.34l-2.6-3.55L574,53.42h-2.35Z"/><path class="cls-12" d="M582.77,53.42V43.54h4.31q3.45,0,3.45,2.85c0,2-1.15,3-3.45,3h-2.33v4.08Zm2-5.93h2.76c.8,0,1.2-.37,1.23-1.08s-.43-1-1.21-1h-2.78Z"/><path class="cls-12" d="M591.47,53.42l3.95-9.88h2l4,9.87h-2.1l-.59-1.52h-4.48l-.59,1.52Zm5-7.24L595,49.93h3Z"/><path class="cls-12" d="M602.81,53.42V43.54h.66l6.19,6.19V43.54h2v9.88h-.72l-6.12-6.12v6.12Z"/><path class="cls-12" d="M613.68,53.42V43.54h3.81c3.07,0,4.61,1.64,4.61,4.94s-1.54,4.94-4.61,4.94Zm3.81-2c1.75,0,2.63-1,2.63-3s-.88-3-2.63-3h-1.83v5.93Z"/></svg>