<?xml version="1.0" encoding="utf-8"?>
<!-- Generator: Adobe Illustrator 23.0.1, SVG Export Plug-In . SVG Version: 6.00 Build 0)  -->
<svg version="1.1" id="Content" xmlns="http://www.w3.org/2000/svg" xmlns:xlink="http://www.w3.org/1999/xlink" x="0px" y="0px"
	 viewBox="0 0 640 1136" style="enable-background:new 0 0 640 1136;" xml:space="preserve">
<style type="text/css">
	.st0{fill:url(#SVGID_1_);}
	.st1{fill:#FFFFFF;}
	.st2{fill:#B89344;}
</style>
<title>fruity</title>
<linearGradient id="SVGID_1_" gradientUnits="userSpaceOnUse" x1="281.19" y1="359.07" x2="372.38" y2="359.07" gradientTransform="matrix(1 0 0 -1 0 1136)">
	<stop  offset="0" style="stop-color:#A68834"/>
	<stop  offset="0.49" style="stop-color:#C8AD67"/>
	<stop  offset="1" style="stop-color:#937F2E"/>
</linearGradient>
<polygon class="st0" points="319.1,823.6 281.2,779.8 311.1,730.3 367.4,743.4 372.4,801.1 "/>
<path class="st1" d="M345.2,764.4c3.1-1,4-3.5,5.8-4.3c-3.6-1.5-5.8-1.9-7.9-0.8c-1.7,0.7-2.9,2.2-3.2,4
	C341.3,764.5,343.3,765,345.2,764.4"/>
<path class="st1" d="M338.4,769.7c0.4-4.6-1-9.2-4.1-12.7c-0.1-0.1-0.3-0.1-0.4,0l0,0l-0.9,0.9c-0.1,0.1-0.1,0.3,0,0.4
	c2.7,3.2,4,7.3,3.6,11.5c-7.5-4.4-15.4,0.4-15,8.4c0.1,1.4,0.3,2.8,0.6,4.1c4.6,3.7,10.1,6.2,16,7.2c0.7,0.1,1.4,0.5,2,1
	c0.6,0.5,1,1.3,1,2.1v0.8c0,0.5-0.1,0.9-0.2,1.4c-0.1,0.3-0.2,0.6-0.3,0.9c6.2,0.4,12.2-9.6,12.5-17.5S345.9,765.4,338.4,769.7"/>
<path class="st1" d="M338.8,792.1c-0.3-0.3-0.6-0.4-1-0.5c-12.6-2.5-23.2-9.7-27.6-24.6c-0.1-0.3-0.3-0.6-0.5-0.8
	c-0.2-0.3-0.3-0.7-0.3-1.1l0.1-2.8c0-0.4-0.3-0.8-0.7-0.8c0,0,0,0,0,0h-1.5c-0.4,0-0.8,0.3-0.8,0.8c0,0,0,0.1,0,0.1l0.4,3
	c0,0.4-0.1,0.9-0.4,1.2c-0.4,0.8-0.6,1.7-0.5,2.5c-0.3,23.7,15.7,30.6,30.5,27c1.9-0.5,2.1-0.8,2.2-1c0.1-0.3,0.2-0.5,0.3-0.8
	c0.1-0.2,0.1-0.5,0.1-0.7v-0.8C339.1,792.4,339,792.2,338.8,792.1"/>
<path class="st2" d="M283.1,867.4v-17.2h12.1v3.2h-8.6v3.7h6.4v3.2h-6.4v7.1L283.1,867.4z"/>
<path class="st2" d="M308,859.9l4.3,7.5h-3.9l-4.1-7.1h-3.1v7.1h-3.4v-17.2h7.5c4,0,6,1.6,6,4.9C311.1,857.6,310.1,859.2,308,859.9z
	 M301.1,857.1h4.8c1.4,0,2.1-0.7,2.1-1.9s-0.7-1.7-2.1-1.8h-4.8V857.1z"/>
<path class="st2" d="M317.2,850.2v10c-0.1,1.1,0.3,2.1,1.1,2.8c1.7,1.2,4,1.2,5.7,0c0.8-0.7,1.2-1.8,1.1-2.8v-10h3.4v10.9
	c0,1.7-0.8,3.4-2.1,4.5c-3.1,2.4-7.5,2.4-10.6,0c-1.3-1.1-2.1-2.7-2.1-4.5v-10.9H317.2z"/>
<path class="st2" d="M332.3,850.2h3.4v17.2h-3.4V850.2z"/>
<path class="st2" d="M353.2,850.2v3.2h-5.7v14H344v-14h-5.7v-3.2H353.2z"/>
<path class="st2" d="M354.7,850.2h4l4,5.6l4.1-5.6h3.9l-6.3,8.6v8.6H361v-8.6L354.7,850.2z"/>
</svg>
