<svg id="Layer_1" data-name="Layer 1" xmlns="http://www.w3.org/2000/svg" width="300" height="250" viewBox="0 0 300 250"><defs><style>.cls-1{fill:#fff;}</style></defs><title>meditation</title><path class="cls-1" d="M81.0625,175.35014H78.51074V158.42827H82.167L84.542,170.563l2.28125-12.13476h3.5166v16.92187H87.78809V164.7183L85.584,175.35014H83.53613L81.0625,164.74663Z"/><path class="cls-1" d="M96.6123,158.22416a4.04607,4.04607,0,0,1,4.05372,4.05372v9.23144A4.04607,4.04607,0,0,1,96.6123,175.563a3.85964,3.85964,0,0,1-2.85351-1.1875,3.92884,3.92884,0,0,1-1.17383-2.86621v-9.23144a4.04613,4.04613,0,0,1,4.02734-4.05372Zm1.39063,4.00684a1.439,1.439,0,0,0-1.45605-1.45508,1.42421,1.42421,0,0,0-1.03418.4209,1.389,1.389,0,0,0-.43165,1.03418v9.26074a1.392,1.392,0,0,0,.43165,1.0293,1.418,1.418,0,0,0,1.03418.42676,1.44877,1.44877,0,0,0,1.45605-1.45606Z"/><path class="cls-1" d="M106.9375,158.42827a3.86692,3.86692,0,0,1,3.12695,1.17773,4.26321,4.26321,0,0,1,.88086,2.85742v2.459a3.93447,3.93447,0,0,1-1.36133,3.0332l1.89063,7.39453h-2.75195l-1.55567-6.39258c-.07422.00684-.15137.00977-.23242.00977h-1.46289v6.38281h-2.55176V158.42827Zm1.52148,4.082a1.29355,1.29355,0,0,0-1.45214-1.47461h-1.53516v5.4082h1.53516a1.38253,1.38253,0,0,0,1.03125-.43164,1.42816,1.42816,0,0,0,.42089-1.03418Z"/><path class="cls-1" d="M113.66309,175.35014V158.42827h7.26464v2.55078h-4.71289v4.63867h3.44239v2.55176h-3.44239v4.62988h4.71289v2.55078Z"/><path class="cls-1" d="M130.49414,175.35014h-2.55176V158.42827h3.65625l2.375,12.13476,2.28125-12.13476h3.5166v16.92187h-2.55175V164.7183l-2.20411,10.63184h-2.04785l-2.47363-10.60351Z"/><path class="cls-1" d="M142.0625,175.35014V158.42827h7.26465v2.55078h-4.71289v4.63867h3.44238v2.55176h-3.44238v4.62988h4.71289v2.55078Z"/><path class="cls-1" d="M159.0957,171.30522a3.91223,3.91223,0,0,1-1.17773,2.85742,3.842,3.842,0,0,1-2.83008,1.1875h-4.00781V158.42827h4.00781a3.83556,3.83556,0,0,1,2.83984,1.1875,3.91529,3.91529,0,0,1,1.168,2.84765Zm-5.46386,1.52148H155.167a1.35418,1.35418,0,0,0,1.02637-.44043,1.45838,1.45838,0,0,0,.416-1.03418v-8.85156a1.42328,1.42328,0,0,0-.42481-1.03418,1.38146,1.38146,0,0,0-1.01758-.43066h-1.53515Z"/><path class="cls-1" d="M163.88379,175.35014H161.332V158.42827h2.55176Z"/><path class="cls-1" d="M168.64258,160.97905h-2.709v-2.55078h7.96094v2.55078h-2.70019v14.37109h-2.55176Z"/><path class="cls-1" d="M176.89941,171.46342l-.62109,3.88672H173.624l2.86719-16.92187h3.51563l2.83007,16.92187H180.165l-.60352-3.88672Zm1.33594-9.15722-.94629,6.67089h1.89258Z"/><path class="cls-1" d="M185.31348,160.97905h-2.709v-2.55078h7.96094v2.55078h-2.7002v14.37109h-2.55175Z"/><path class="cls-1" d="M195.166,175.35014h-2.55176V158.42827H195.166Z"/><path class="cls-1" d="M201.44629,158.22416A4.04607,4.04607,0,0,1,205.5,162.27788v9.23144a4.04607,4.04607,0,0,1-4.05371,4.05371,3.85964,3.85964,0,0,1-2.85352-1.1875,3.92887,3.92887,0,0,1-1.17382-2.86621v-9.23144a4.04613,4.04613,0,0,1,4.02734-4.05372Zm1.39062,4.00684a1.439,1.439,0,0,0-1.456-1.45508,1.42424,1.42424,0,0,0-1.03418.4209,1.38894,1.38894,0,0,0-.43164,1.03418v9.26074a1.392,1.392,0,0,0,.43164,1.0293,1.41807,1.41807,0,0,0,1.03418.42676,1.44876,1.44876,0,0,0,1.456-1.45606Z"/><path class="cls-1" d="M210.60254,158.42827l3.37695,11.36523V158.42827h2.55078v16.92187h-2.73242l-3.51074-10.83594v10.83594h-2.55176V158.42827Z"/><path class="cls-1" d="M218.28418,172.80815h2.55176v2.55176h-2.55176Z"/></svg>