<svg id="Layer_1" data-name="Layer 1" xmlns="http://www.w3.org/2000/svg" width="970" height="250" viewBox="0 0 970 250"><defs><style>.cls-1{fill:#fff;}</style></defs><title>gratitude</title><path class="cls-1" d="M455.22908,169.54819h-3.591V145.73057H456.783l3.34291,17.07956,3.21233-17.07956h4.94907v23.81762h-3.591V154.58406l-3.10351,14.96413h-2.88214l-3.48158-14.92495Z"/><path class="cls-1" d="M478.18423,145.44329a5.69613,5.69613,0,0,1,5.70645,5.70645v12.99233a5.69613,5.69613,0,0,1-5.70645,5.70708,5.43215,5.43215,0,0,1-4.0151-1.67146,5.53033,5.53033,0,0,1-1.65218-4.03562V151.14974a5.69622,5.69622,0,0,1,5.66728-5.70645Zm1.95873,5.6393a2.02788,2.02788,0,0,0-2.05014-2.04828,2.00943,2.00943,0,0,0-1.45631.59384,1.957,1.957,0,0,0-.60689,1.45444v13.03586a1.9645,1.9645,0,0,0,.60689,1.44759,1.9985,1.9985,0,0,0,1.45631.60068,2.03924,2.03924,0,0,0,2.05014-2.04827Z"/><path class="cls-1" d="M493.78758,145.73057a5.44151,5.44151,0,0,1,4.40125,1.6584,5.99174,5.99174,0,0,1,1.23991,4.02194v3.46043a5.536,5.536,0,0,1-1.91645,4.27l2.6614,10.4068H496.301l-2.19129-8.99651c-.10447.0087-.21267.01244-.32584.01244h-2.05947v8.98407H488.134V145.73057Zm2.14156,5.74563a1.82092,1.82092,0,0,0-2.04331-2.07626h-2.16145v7.613h2.16145a1.95309,1.95309,0,0,0,1.45133-.6069,2.01518,2.01518,0,0,0,.592-1.45631Z"/><path class="cls-1" d="M504.325,169.54819V145.73057h10.224v3.591h-6.63359v6.52912h4.844v3.5904h-4.844v6.51668H514.549v3.5904Z"/><path class="cls-1" d="M527.31866,169.84915a5.68335,5.68335,0,0,1-5.69339-5.681V151.12363a5.68657,5.68657,0,1,1,11.37311,0v2.71611h-3.72222v-2.7814a2.07315,2.07315,0,0,0-2.07564-2.07626,1.95918,1.95918,0,0,0-1.44885.60752,2.00669,2.00669,0,0,0-.60192,1.46874v13.0713a2.053,2.053,0,0,0,2.05077,2.0632,2.01046,2.01046,0,0,0,1.46874-.60068,1.977,1.977,0,0,0,.6069-1.46252v-4.68853h-1.99729v-3.5904h5.71951v8.31748a5.67484,5.67484,0,0,1-5.67972,5.681Z"/><path class="cls-1" d="M542.83061,145.73057a5.43877,5.43877,0,0,1,4.4,1.6584,5.99211,5.99211,0,0,1,1.24115,4.02194v3.46043a5.54017,5.54017,0,0,1-1.91645,4.27l2.66015,10.4068h-3.8727l-2.19-8.99651c-.10447.0087-.21267.01244-.32584.01244h-2.05947v8.98407H537.177V145.73057Zm2.14155,5.74563a1.82091,1.82091,0,0,0-2.0433-2.07626h-2.16145v7.613h2.16145a1.95309,1.95309,0,0,0,1.45133-.6069,2.01518,2.01518,0,0,0,.592-1.45631Z"/><path class="cls-1" d="M557.78043,164.0774l-.87552,5.47079H553.1715l4.03437-23.81762h4.9497l3.98214,23.81762h-3.76077l-.84817-5.47079Zm1.88039-12.88848-1.33194,9.38888h2.66388Z"/><path class="cls-1" d="M570.69442,149.32159h-3.813v-3.591h11.20273v3.591h-3.79933v20.2266h-3.59039Z"/><path class="cls-1" d="M585.6318,169.54819h-3.59039V145.73057h3.59039Z"/><path class="cls-1" d="M593.40208,149.32159h-3.813v-3.591H600.7918v3.591h-3.79933v20.2266h-3.59039Z"/><path class="cls-1" d="M610.40267,169.84915a5.641,5.641,0,0,1-5.666-5.65484V145.73057h3.51205v18.42518a1.96528,1.96528,0,0,0,.6069,1.44885,1.9985,1.9985,0,0,0,1.4563.60068,2.0403,2.0403,0,0,0,2.05077-2.04953V145.73057h3.74709v18.46374a5.40038,5.40038,0,0,1-1.67146,4.02194A5.56722,5.56722,0,0,1,610.40267,169.84915Z"/><path class="cls-1" d="M631.64905,163.85479a5.50527,5.50527,0,0,1-1.659,4.02194,5.4107,5.4107,0,0,1-3.98214,1.67146h-5.64116V145.73057h5.64116a5.39476,5.39476,0,0,1,3.99458,1.67146,5.51272,5.51272,0,0,1,1.64658,4.00888Zm-7.69193,2.14155h2.16145a1.9055,1.9055,0,0,0,1.44387-.62057,2.05,2.05,0,0,0,.587-1.45506V151.46314a1.99883,1.99883,0,0,0-.59944-1.45568,1.93869,1.93869,0,0,0-1.43143-.60752h-2.16145Z"/><path class="cls-1" d="M635.865,169.54819V145.73057h10.224v3.591h-6.63359v6.52912h4.844v3.5904h-4.844v6.51668H646.089v3.5904Z"/><path class="cls-1" d="M649.62714,165.97023h3.5904v3.59164h-3.5904Z"/></svg>