<?xml version="1.0" encoding="utf-8"?>
<!-- Generator: Adobe Illustrator 23.0.1, SVG Export Plug-In . SVG Version: 6.00 Build 0)  -->
<svg version="1.1" id="Content" xmlns="http://www.w3.org/2000/svg" xmlns:xlink="http://www.w3.org/1999/xlink" x="0px" y="0px"
	 viewBox="0 0 320 568" style="enable-background:new 0 0 320 568;" xml:space="preserve">
<style type="text/css">
	.st0{fill:#BA9544;}
</style>
<title>Frame2 - Daytime CBD</title>
<path class="st0" d="M84.8,192.7h5.3c3.4,0,5,1.9,5,5.3v10.8c0,3.4-1.7,5.3-5,5.3h-5.3L84.8,192.7z M88.2,195.8V211h1.9
	c1.1,0,1.7-0.6,1.7-2.1v-11.1c0-1.5-0.6-2.1-1.7-2.1L88.2,195.8z"/>
<path class="st0" d="M110.8,214.1h-3.4l-0.6-3.9h-4.1l-0.6,3.9H99l3.4-21.4h4.9L110.8,214.1z M103.1,207.3h3.2l-1.6-10.8
	L103.1,207.3z"/>
<path class="st0" d="M115.7,207l-4.3-14.3h3.5l2.6,9.8l2.6-9.8h3.2l-4.3,14.3v7.1h-3.4V207z"/>
<path class="st0" d="M125.1,192.7h10.4v3.1H132v18.3h-3.4v-18.3h-3.5V192.7z"/>
<path class="st0" d="M139.6,192.7h3.4v21.4h-3.4V192.7z"/>
<path class="st0" d="M155.8,207.9l2.3-15.2h4.7v21.4h-3.2v-15.4l-2.3,15.4h-3.2l-2.5-15.1v15.1h-2.9v-21.4h4.7L155.8,207.9z"/>
<path class="st0" d="M171.8,201.7h4.6v3.1h-4.6v6.3h5.8v3.1h-9.2v-21.4h9.2v3.1h-5.8V201.7z"/>
<path class="st0" d="M200.7,206.1v2.8c0,3.4-1.7,5.4-5,5.4c-3.3,0-5-2-5-5.4v-11.1c0-3.4,1.7-5.4,5-5.4c3.3,0,5,2,5,5.4v2.1h-3.2
	v-2.3c0-1.5-0.7-2.1-1.7-2.1s-1.7,0.6-1.7,2.1v11.6c0,1.5,0.7,2.1,1.7,2.1s1.7-0.6,1.7-2.1v-3.1L200.7,206.1z"/>
<path class="st0" d="M216,197.6v0.8c0,2.2-0.7,3.6-2.2,4.3c1.8,0.7,2.5,2.3,2.5,4.6v1.7c0,3.3-1.7,5.1-5.1,5.1H206v-21.4h5.1
	C214.5,192.7,216,194.3,216,197.6z M209.3,195.8v5.7h1.3c1.3,0,2-0.6,2-2.3V198c0-1.5-0.5-2.2-1.7-2.2H209.3z M209.3,204.5v6.6h1.9
	c1.1,0,1.7-0.5,1.7-2.1v-1.9c0-2-0.6-2.6-2.2-2.6L209.3,204.5z"/>
<path class="st0" d="M221.6,192.7h5.3c3.4,0,5,1.9,5,5.3v10.8c0,3.4-1.7,5.3-5,5.3h-5.3V192.7z M225,195.8V211h1.9
	c1.1,0,1.7-0.6,1.7-2.1v-11.1c0-1.5-0.6-2.1-1.7-2.1L225,195.8z"/>
</svg>
