<?xml version="1.0" encoding="utf-8"?>
<!-- Generator: Adobe Illustrator 23.0.1, SVG Export Plug-In . SVG Version: 6.00 Build 0)  -->
<svg version="1.1" id="Content" xmlns="http://www.w3.org/2000/svg" xmlns:xlink="http://www.w3.org/1999/xlink" x="0px" y="0px"
	 viewBox="0 0 320 568" style="enable-background:new 0 0 320 568;" xml:space="preserve">
<style type="text/css">
	.st0{fill:#BA9544;}
</style>
<title>Frame2 - Durga Mata</title>
<path class="st0" d="M74.3,192.7h5.3c3.4,0,5,1.9,5,5.3v10.8c0,3.4-1.7,5.3-5,5.3h-5.3V192.7z M77.7,195.8V211h1.9
	c1.1,0,1.7-0.6,1.7-2.1v-11.1c0-1.5-0.6-2.1-1.7-2.1L77.7,195.8z"/>
<path class="st0" d="M92.6,192.7v16.5c0,1.5,0.7,2.1,1.7,2.1s1.7-0.6,1.7-2.1v-16.5h3.2V209c0,3.4-1.7,5.4-5,5.4c-3.3,0-5-2-5-5.4
	v-16.3H92.6z"/>
<path class="st0" d="M111.9,214.1c-0.3-0.8-0.4-1.7-0.3-2.6v-3.4c0-2-0.7-2.7-2.2-2.7h-1.2v8.7h-3.4v-21.4h5.1c3.5,0,5,1.6,5,4.9
	v1.7c0,2.2-0.7,3.6-2.2,4.3c1.7,0.7,2.2,2.3,2.2,4.6v3.3c-0.1,0.9,0.1,1.8,0.4,2.6H111.9z M108.2,195.8v6.6h1.3c1.3,0,2-0.6,2-2.3
	V198c0-1.5-0.5-2.2-1.7-2.2H108.2z"/>
<path class="st0" d="M125.4,202.2h4.7v6.8c0,3.4-1.7,5.4-5,5.4c-3.3,0-5-2-5-5.4v-11.1c0-3.4,1.7-5.4,5-5.4c3.3,0,5,2,5,5.4v2.1H127
	v-2.3c0-1.5-0.7-2.1-1.7-2.1s-1.7,0.6-1.7,2.1v11.6c0,1.5,0.7,2.1,1.7,2.1s1.7-0.6,1.7-2.1v-3.9h-1.5L125.4,202.2z"/>
<path class="st0" d="M146.4,214.1H143l-0.6-3.9h-4.1l-0.6,3.9h-3.1l3.4-21.4h4.9L146.4,214.1z M138.8,207.3h3.2l-1.6-10.8
	L138.8,207.3z"/>
<path class="st0" d="M166.3,207.9l2.3-15.2h4.7v21.4h-3.2v-15.4l-2.3,15.4h-3.2l-2.5-15.1v15.1h-2.9v-21.4h4.7L166.3,207.9z"/>
<path class="st0" d="M189.9,214.1h-3.4l-0.6-3.9h-4.1l-0.6,3.9h-3.1l3.4-21.4h4.9L189.9,214.1z M182.2,207.3h3.2l-1.6-10.8
	L182.2,207.3z"/>
<path class="st0" d="M193.7,192.7h10.4v3.1h-3.5v18.3h-3.4v-18.3h-3.5L193.7,192.7z"/>
<path class="st0" d="M219.7,214.1h-3.4l-0.6-3.9h-4.1l-0.6,3.9h-3.1l3.4-21.4h4.9L219.7,214.1z M212,207.3h3.2l-1.6-10.8L212,207.3z
	"/>
<path class="st0" d="M237.4,195.5c-1.1,0-1.7,0.6-1.7,2.1v2.3h-3.2v-2.1c0-3.4,1.7-5.4,5-5.4c3.3,0,5,2,5,5.4
	c0,6.7-6.7,9.2-6.7,12.8c0,0.2,0,0.3,0,0.5h6.4v3.1h-9.7v-2.6c0-6.3,6.7-7.3,6.7-13.5C239.2,196,238.5,195.5,237.4,195.5z"/>
</svg>
