<?xml version="1.0" encoding="utf-8"?>
<!-- Generator: Adobe Illustrator 23.0.1, SVG Export Plug-In . SVG Version: 6.00 Build 0)  -->
<svg version="1.1" id="Content" xmlns="http://www.w3.org/2000/svg" xmlns:xlink="http://www.w3.org/1999/xlink" x="0px" y="0px"
	 viewBox="0 0 320 568" style="enable-background:new 0 0 320 568;" xml:space="preserve">
<style type="text/css">
	.st0{fill:#FFFFFF;stroke:#BA9544;stroke-width:0.4248;stroke-miterlimit:10;}
	.st1{fill:#BA9544;}
</style>
<title>THC - Durga Mata</title>
<polygon class="st0" points="239.5,343.1 81.3,342.5 73.3,354 81.3,365.3 239.5,365.1 246.7,354.1 "/>
<polygon class="st1" points="81.4,342.5 73.5,354 81.4,365.3 97.3,365.3 97.1,342.5 "/>
<path class="st1" d="M171.9,350.3v1.4h-2.6v6.3h-1.5v-6.3h-2.6v-1.4H171.9z"/>
<path class="st1" d="M173,358v-7.7h1.5v3.1h3.6v-3.1h1.5v7.7l-1.5,0v-3.2h-3.6v3.2H173z"/>
<path class="st1" d="M182.1,356.9c-1.5-1.5-1.5-4,0-5.5c0.7-0.7,1.7-1.2,2.8-1.2c1,0,2.1,0.3,2.8,1l-1,1.1c-0.5-0.4-1.2-0.6-1.8-0.6
	c-1.2-0.1-2.3,0.9-2.3,2.1c0,0.1,0,0.1,0,0.2c0,0.6,0.2,1.3,0.6,1.7c0.5,0.4,1.1,0.7,1.7,0.6c0.7,0,1.3-0.2,1.8-0.6l1,1.1
	c-0.8,0.7-1.8,1.1-2.8,1C183.8,358,182.9,357.6,182.1,356.9z"/>
<path class="st1" d="M189.5,353.1c0.1-0.1,0.4-0.2,0.6-0.2c0.2,0,0.4,0.1,0.6,0.2c0.1,0.1,0.2,0.3,0.2,0.5c0,0.2-0.1,0.4-0.2,0.5
	c-0.3,0.3-0.8,0.3-1.1,0c-0.1-0.1-0.2-0.3-0.2-0.5C189.2,353.4,189.3,353.2,189.5,353.1z M189.5,356.8c0.1-0.1,0.4-0.2,0.6-0.2
	c0.2,0,0.4,0.1,0.6,0.2c0.3,0.3,0.3,0.7,0,1c-0.3,0.3-0.8,0.3-1.1,0C189.2,357.5,189.2,357.1,189.5,356.8z"/>
<path class="st1" d="M199.3,350.3L199.3,350.3l1.5,0v4.5h1v1.5h-1v1.7h-1.5v-1.7h-3.5v-1.5h0.1l0-0.1L199.3,350.3z M199.3,354.8
	v-2.5l-1.9,2.5H199.3z"/>
<path class="st1" d="M203.1,356v-1h3.2v1H203.1z"/>
<path class="st1" d="M212,354.1c0.1,0,0.2,0.1,0.3,0.1c0.6,0.3,0.9,0.9,0.8,1.5c0.1,0.7-0.2,1.3-0.8,1.7c-1.2,0.7-2.7,0.7-3.9,0
	c-0.5-0.4-0.8-1.1-0.8-1.7c-0.1-0.6,0.2-1.3,0.8-1.5c0.1,0,0.2-0.1,0.3-0.1c-0.1,0-0.1-0.1-0.1-0.1c-0.5-0.3-0.8-0.9-0.7-1.5
	c0-0.6,0.2-1.2,0.7-1.7c1.1-0.8,2.5-0.8,3.6,0c0.5,0.4,0.7,1,0.7,1.7c0.1,0.6-0.2,1.2-0.7,1.5C212.1,354,212.1,354.1,212,354.1z
	 M210.4,353.4c0.5,0,0.7-0.1,0.9-0.4c0.2-0.3,0.2-0.6,0-0.9c-0.2-0.3-0.5-0.5-0.9-0.4c-0.3,0-0.7,0.1-0.9,0.4
	c-0.2,0.3-0.2,0.6,0,0.9C209.6,353.3,209.9,353.4,210.4,353.4z M210.4,354.8c-0.3,0-0.7,0.2-0.9,0.4c-0.2,0.3-0.2,0.6,0,0.9
	c0.2,0.3,0.5,0.5,0.9,0.4c0.3,0,0.7-0.1,0.9-0.4c0.2-0.3,0.2-0.6,0-0.9C211,355,210.7,354.8,210.4,354.8z"/>
<path class="st1" d="M214.9,353.5c-0.8-0.8-0.8-2-0.1-2.8s2-0.8,2.8-0.1c0.8,0.8,0.8,2,0.1,2.8c-0.4,0.4-0.9,0.6-1.4,0.6
	C215.7,354.1,215.2,353.9,214.9,353.5z M216.2,353.2c0.3,0,0.5-0.1,0.7-0.3c0.4-0.4,0.4-1,0-1.5c-0.2-0.2-0.4-0.3-0.7-0.3
	c-0.3,0-0.5,0.1-0.7,0.3c-0.4,0.4-0.4,1,0,1.5C215.7,353.1,216,353.2,216.2,353.2z M215.8,358l4.4-7.7h1.3l-4.4,7.7H215.8z
	 M219.7,357.5c-0.8-0.8-0.8-2-0.1-2.8c0.8-0.8,2-0.8,2.8-0.1c0.8,0.8,0.8,2,0.1,2.8c-0.4,0.4-0.9,0.6-1.4,0.6
	C220.5,358.1,220,357.9,219.7,357.5L219.7,357.5z M221,357.1c0.3,0,0.5-0.1,0.7-0.3c0.4-0.4,0.4-1,0-1.4c-0.2-0.2-0.4-0.3-0.7-0.3
	c-0.3,0-0.5,0.1-0.7,0.3c-0.4,0.4-0.4,1,0,1.4C220.5,357,220.7,357.1,221,357.1L221,357.1z"/>
</svg>
