<svg id="Layer_1" data-name="Layer 1" xmlns="http://www.w3.org/2000/svg" width="300" height="600" viewBox="0 0 300 600"><defs><style>.cls-1{fill:#fff;}</style></defs><title>meditation</title><path class="cls-1" d="M54.40225,330.79905H51.01846V308.3553h4.84805l3.15,16.09453,3.027-16.09453h4.66348v22.44375H63.32315V316.69787l-2.92442,14.10118H57.68291L54.40225,316.7342Z"/><path class="cls-1" d="M76.03272,308.08459a5.36742,5.36742,0,0,1,5.37715,5.37656V325.7049a5.36542,5.36542,0,0,1-5.37715,5.37657,5.1187,5.1187,0,0,1-3.7834-1.575,5.20858,5.20858,0,0,1-1.55684-3.80157V313.46115a5.36751,5.36751,0,0,1,5.34024-5.37656Zm1.8457,5.31328a1.91181,1.91181,0,0,0-1.93184-1.93007,1.89163,1.89163,0,0,0-1.37226.56015,1.84371,1.84371,0,0,0-.57188,1.36992v12.2836a1.85186,1.85186,0,0,0,.57188,1.36523,1.88671,1.88671,0,0,0,1.37226.56485,1.91961,1.91961,0,0,0,1.93184-1.93008Z"/><path class="cls-1" d="M90.73623,308.3553a5.12472,5.12472,0,0,1,4.1461,1.5621,5.64636,5.64636,0,0,1,1.16953,3.78985v3.26133a5.21923,5.21923,0,0,1-1.80586,4.023l2.50664,9.80743H93.10342l-2.06367-8.47852c-.09844.0082-.20039.01289-.307.01289H88.79151v8.46563H85.40772V308.3553Zm2.018,5.41406a1.7166,1.7166,0,0,0-1.92656-1.957H88.79151v7.17422h2.03613a1.83673,1.83673,0,0,0,1.36758-.57188,1.89528,1.89528,0,0,0,.559-1.37227Z"/><path class="cls-1" d="M100.66553,330.79905V308.3553h9.634v3.3832h-6.25078v6.15234h4.56446v3.38438h-4.56446v6.13945h6.25078v3.38438Z"/><path class="cls-1" d="M123.6835,330.79905h-3.38321V308.3553h4.84688l3.15,16.09453,3.02812-16.09453h4.6629v22.44375H132.605V316.69787l-2.925,14.10118h-2.71523L123.6835,316.7342Z"/><path class="cls-1" d="M140.03584,330.79905V308.3553h9.634v3.3832H143.419v6.15234h4.56446v3.38438H143.419v6.13945h6.25079v3.38438Z"/><path class="cls-1" d="M163.63506,325.4342a5.18759,5.18759,0,0,1-1.56328,3.78985,5.09848,5.09848,0,0,1-3.75234,1.575h-5.31563V308.3553h5.31563a5.08342,5.08342,0,0,1,3.76406,1.575,5.19327,5.19327,0,0,1,1.55156,3.77695Zm-7.24805,2.018h2.03672a1.79554,1.79554,0,0,0,1.36055-.58477,1.93437,1.93437,0,0,0,.55312-1.37226V313.75647a1.88218,1.88218,0,0,0-.56484-1.3711,1.82741,1.82741,0,0,0-1.34883-.573H156.387Z"/><path class="cls-1" d="M170.99092,330.79905h-3.3832V308.3553h3.3832Z"/><path class="cls-1" d="M178.31279,311.7385h-3.593v-3.3832h10.55625v3.3832H181.696v19.06055h-3.38321Z"/><path class="cls-1" d="M190.27178,325.6428l-.825,5.15625h-3.518l3.80156-22.44375h4.66407l3.75234,22.44375H194.603l-.79922-5.15625Zm1.77187-12.14415-1.25507,8.84649h2.51015Z"/><path class="cls-1" d="M202.4417,311.7385h-3.593v-3.3832H209.405v3.3832H205.8249v19.06055h-3.3832Z"/><path class="cls-1" d="M216.51709,330.79905h-3.3832V308.3553h3.3832Z"/><path class="cls-1" d="M225.85342,308.08459a5.36741,5.36741,0,0,1,5.37773,5.37656V325.7049a5.36542,5.36542,0,0,1-5.37773,5.37657,5.11739,5.11739,0,0,1-3.78281-1.575,5.208,5.208,0,0,1-1.55625-3.80157V313.46115a5.36752,5.36752,0,0,1,5.33906-5.37656Zm1.84687,5.31328a1.91278,1.91278,0,0,0-1.93242-1.93007,1.89163,1.89163,0,0,0-1.37226.56015,1.84371,1.84371,0,0,0-.57188,1.36992v12.2836a1.85186,1.85186,0,0,0,.57188,1.36523,1.88671,1.88671,0,0,0,1.37226.56485,1.92059,1.92059,0,0,0,1.93242-1.93008Z"/><path class="cls-1" d="M239.00654,308.3553l4.47891,15.07265V308.3553h3.38438v22.44375h-3.62461l-4.657-14.37188v14.37188H235.205V308.3553Z"/><path class="cls-1" d="M250.20264,327.42756h3.3832v3.3832h-3.3832Z"/></svg>