<svg id="Layer_1" data-name="Layer 1" xmlns="http://www.w3.org/2000/svg" xmlns:xlink="http://www.w3.org/1999/xlink" width="51.39941" height="72.08824" viewBox="0 0 51.39941 72.08824"><defs><style>.cls-1{fill:url(#New_Gradient_Swatch_1);}.cls-2{fill:#fff;}.cls-3{fill:#ba9544;}</style><linearGradient id="New_Gradient_Swatch_1" x1="2.87058" y1="23.66886" x2="48.41571" y2="23.66886" gradientUnits="userSpaceOnUse"><stop offset="0" stop-color="#a88a34"/><stop offset="0.49324" stop-color="#caaf67"/><stop offset="1" stop-color="#957f2e"/></linearGradient></defs><title>earthy</title><polygon class="cls-1" points="43.867 7.894 21.093 0 2.871 15.775 7.421 39.444 30.193 47.338 48.416 31.563 43.867 7.894"/><path class="cls-2" d="M31.36492,29.20567a5.33259,5.33259,0,0,0-2.66363-2.46344,2.61321,2.61321,0,0,0-1.99494.19576,5.56831,5.56831,0,0,0-1.04256-.26835,10.89324,10.89324,0,0,1,2.21491-4.36381c.05718.0022.11216.0022.16717.0022.21553.0022.42888.0044.64.0044,2.47884,0,4.67613-.32772,4.79051-4.80591a6.89792,6.89792,0,0,1,.93258-2.09833l.34092-.55867H34.0945a7.0933,7.0933,0,0,0-7.08462,7.0868v.33432c-.26832.38492-.52128.76763-.75443,1.14594a9.08961,9.08961,0,0,0-9.06195-8.56706H16.538l.34092.55867A8.98713,8.98713,0,0,1,18.1041,18.184c.14515,5.70771,2.94954,6.12561,6.11462,6.12561.27054,0,.54326-.0022.816-.0066.23755-.0022.47728-.0044.71923-.0044a7.01671,7.01671,0,0,0-.8226,2.30728,3.31941,3.31941,0,0,0-3.1541,1.74641,4.16057,4.16057,0,0,0-3.39162.18256c-.98319.62026-1.50669,1.82339-1.56167,3.5742l-.011.3783H34.35622l.0682-.28153a2.21355,2.21355,0,0,0-.36952-1.68262,3.71615,3.71615,0,0,0-2.69-1.31751"/><path class="cls-3" d="M0,72.08824V63.39488L6.39062,63.389v1.624H1.73926v1.85547H5.22461v1.61817H1.73926v1.97754H6.37891v1.624Z"/><path class="cls-3" d="M7.68359,72.08824l3.4795-8.69922h1.74023L16.377,72.08238l-1.84961.00586-.52246-1.334H10.06152L9.54,72.08824Zm4.39649-6.37988L10.75781,69.015h2.60938Z"/><path class="cls-3" d="M22.91309,68.29527l2.16894,3.793H23.08691l-2.082-3.5957H19.416v3.5957H17.67578V63.389h3.793q3.04541,0,3.04492,2.50586A2.24878,2.24878,0,0,1,22.91309,68.29527ZM19.416,66.86851h2.43554q1.0503-.01758,1.0791-.957-.0293-.85839-1.06152-.89258H19.416Z"/><path class="cls-3" d="M33.085,63.389v1.624H30.18555v7.0752H28.44531V65.013H25.5459V63.389Z"/><path class="cls-3" d="M34.37793,72.08824V63.389h1.74023v3.47949h4.05372V63.38316h1.74023v8.69922l-1.74023.00586v-3.5957H36.11816v3.5957Z"/><path class="cls-3" d="M43.28027,63.389h2.041l2.01855,2.8418L49.4043,63.389h1.99511L48.21,67.73863v4.34961H46.46973V67.73863Z"/></svg>