<svg id="Layer_1" data-name="Layer 1" xmlns="http://www.w3.org/2000/svg" width="300" height="600" viewBox="0 0 300 600"><defs><style>.cls-1{fill:#ab9555;}</style></defs><title>frame1</title><path class="cls-1" d="M82.52585,313.75488v-21.375h9.16993v3.23877H85.74656v5.82959h4.34668v3.23828H85.74656v5.8291h5.94922v3.23926Z"/><path class="cls-1" d="M106.91745,308.64062a4.95711,4.95711,0,0,1-1.48339,3.61426,4.84883,4.84883,0,0,1-3.57911,1.5h-5.0625v-21.375h5.0625a4.8435,4.8435,0,0,1,3.5879,1.5,4.95071,4.95071,0,0,1,1.4746,3.59668Zm-6.90429,1.92676h1.94336a1.71953,1.71953,0,0,0,1.2959-.55468,1.82935,1.82935,0,0,0,.52832-1.30372V297.52783a1.80167,1.80167,0,0,0-.53711-1.3125,1.74142,1.74142,0,0,0-1.28711-.5459h-1.94336Z"/><path class="cls-1" d="M117.70554,313.99316a5.06155,5.06155,0,0,1-5.0957-5.0791V292.397h3.15332v16.48291a1.76332,1.76332,0,0,0,.54492,1.30371,1.80246,1.80246,0,0,0,1.3125.53711,1.83385,1.83385,0,0,0,1.84082-1.84082V292.397h3.3584v16.51709a4.85352,4.85352,0,0,1-1.5,3.61328A4.9837,4.9837,0,0,1,117.70554,313.99316Z"/><path class="cls-1" d="M133.62546,314.02734a5.09139,5.09139,0,0,1-5.11328-5.09668V297.272a5.105,5.105,0,1,1,10.21,0v2.4375h-3.34082v-2.50586a1.863,1.863,0,0,0-1.8584-1.85791,1.76224,1.76224,0,0,0-1.30371.54541,1.80246,1.80246,0,0,0-.53711,1.3125v11.69287a1.83384,1.83384,0,0,0,1.84082,1.84082,1.8009,1.8009,0,0,0,1.3125-.5371,1.76118,1.76118,0,0,0,.5459-1.30372v-2.94824h3.34082v2.98242a5.09294,5.09294,0,0,1-5.09668,5.09668Z"/><path class="cls-1" d="M147.57956,308.8457l-.78222,4.90918h-3.35449L147.0737,292.397h4.43165l3.5791,21.35791h-3.3877l-.7539-4.90918Zm1.69239-11.55664-1.19336,8.41992h2.38672Z"/><path class="cls-1" d="M161.08445,295.63574h-3.42578V292.397h10.05664v3.23877h-3.40918v18.11914h-3.22168Z"/><path class="cls-1" d="M176.40671,313.75488H173.186V292.397h3.2207Z"/><path class="cls-1" d="M187.229,292.124a5.10633,5.10633,0,0,1,5.11426,5.11377v11.65869a5.105,5.105,0,1,1-10.21,0V297.23779a5.10717,5.10717,0,0,1,5.0957-5.11377Zm1.75586,5.04541a1.83385,1.83385,0,0,0-1.84082-1.84082,1.8044,1.8044,0,0,0-1.3125.53711,1.76179,1.76179,0,0,0-.54492,1.30371V308.8623a1.764,1.764,0,0,0,.54492,1.30469,1.80544,1.80544,0,0,0,1.3125.53613,1.8322,1.8322,0,0,0,1.84082-1.84082Z"/><path class="cls-1" d="M201.66941,292.37988l4.27539,14.36524V292.37988h3.22168v21.375h-3.46l-4.43262-13.6875v13.6875h-3.2207v-21.375Z"/><path class="cls-1" d="M214.26218,310.5498h3.2207v3.22168h-3.2207Z"/></svg>