<svg id="Layer_1" data-name="Layer 1" xmlns="http://www.w3.org/2000/svg" width="320" height="480" viewBox="0 0 320 480"><defs><style>.cls-1{fill:#fff;}</style></defs><title>quality-time</title><path class="cls-1" d="M50.794,288.82945H47.41019V266.3857h4.84805l3.15,16.09453,3.02695-16.09453h4.66348v22.44375H59.71488V274.72827l-2.92442,14.10118H54.07464L50.794,274.76577Z"/><path class="cls-1" d="M72.42445,266.115a5.36741,5.36741,0,0,1,5.37715,5.37774v12.24258a5.36741,5.36741,0,0,1-5.37715,5.37773,5.1187,5.1187,0,0,1-3.7834-1.575,5.21121,5.21121,0,0,1-1.55684-3.80273V271.49273a5.36751,5.36751,0,0,1,5.34024-5.37774Zm1.8457,5.31446a1.90989,1.90989,0,0,0-1.93184-1.93008,1.89528,1.89528,0,0,0-1.37226.559,1.84446,1.84446,0,0,0-.57188,1.3711V283.713a1.85114,1.85114,0,0,0,.57188,1.36406,1.88315,1.88315,0,0,0,1.37226.566,1.92157,1.92157,0,0,0,1.93184-1.93008Z"/><path class="cls-1" d="M87.12738,266.3857a5.12645,5.12645,0,0,1,4.14668,1.56328,5.64618,5.64618,0,0,1,1.16894,3.78984V274.999a5.21971,5.21971,0,0,1-1.80586,4.02422l2.50723,9.80625H89.49515l-2.06426-8.47735c-.09843.00821-.20039.01172-.307.01172H85.18324v8.46563H81.79945V266.3857Zm2.018,5.41406a1.71559,1.71559,0,0,0-1.926-1.95586H85.18324v7.173h2.03613a1.83854,1.83854,0,0,0,1.36758-.57188,1.89707,1.89707,0,0,0,.5584-1.37226Z"/><path class="cls-1" d="M97.05667,288.82945V266.3857h9.63516v3.38437h-6.25078v6.15235h4.56444v3.3832h-4.56444v6.14062h6.25078v3.38321Z"/><path class="cls-1" d="M127.40941,283.73531a5.32133,5.32133,0,0,1-.71367,2.69531,1.59278,1.59278,0,0,0,1.27968.5168v3.15a3.67381,3.67381,0,0,1-3.46993-1.59961,4.9992,4.9992,0,0,1-2.448.61523,5.35546,5.35546,0,0,1-5.36485-5.37773V271.49273a5.3674,5.3674,0,0,1,5.36485-5.37774,5.11743,5.11743,0,0,1,3.7957,1.58789,5.22619,5.22619,0,0,1,1.55625,3.78985ZM123.902,271.42945a1.84009,1.84009,0,0,0-.57188-1.3711,1.9067,1.9067,0,0,0-1.384-.559,1.86984,1.86984,0,0,0-1.36524.559,1.8491,1.8491,0,0,0-.56718,1.3711V283.713a1.9345,1.9345,0,0,0,1.93242,1.93008,1.8944,1.8944,0,0,0,1.384-.566,1.8467,1.8467,0,0,0,.57188-1.36406Z"/><path class="cls-1" d="M136.66136,289.113a5.31548,5.31548,0,0,1-5.33906-5.32852V266.3857h3.30937v17.3625a1.85186,1.85186,0,0,0,.57188,1.36523,1.88319,1.88319,0,0,0,1.37226.566,1.92258,1.92258,0,0,0,1.93243-1.93125V266.3857h3.53086v17.39882a5.08874,5.08874,0,0,1-1.575,3.78985A5.246,5.246,0,0,1,136.66136,289.113Z"/><path class="cls-1" d="M149.71605,283.67437l-.825,5.15508h-3.518l3.80156-22.44375h4.66407l3.75234,22.44375H154.0473l-.79922-5.15508Zm1.77187-12.14531-1.25507,8.84765H152.743Z"/><path class="cls-1" d="M170.68089,288.82945h-9.22734V266.3857h3.3832v19.08515h5.84414Z"/><path class="cls-1" d="M177.38871,288.82945h-3.38322V266.3857h3.38322Z"/><path class="cls-1" d="M184.70941,269.77007h-3.593V266.3857h10.55625v3.38437h-3.58008v19.05938h-3.3832Z"/><path class="cls-1" d="M199.53363,279.42867l-4.52814-13.043h3.71486l2.51718,8.06015,2.49141-8.06015h3.74062l-4.55273,13.043v9.40078h-3.3832Z"/><path class="cls-1" d="M218.22035,269.77007h-3.593V266.3857h10.55625v3.38437h-3.58008v19.05938h-3.3832Z"/><path class="cls-1" d="M232.29574,288.82945h-3.38321V266.3857h3.38321Z"/><path class="cls-1" d="M239.71488,288.82945h-3.38321V266.3857h4.84688l3.15,16.09453,3.02812-16.09453h4.66289v22.44375h-3.3832V274.72827l-2.925,14.10118h-2.71523l-3.28125-14.06368Z"/><path class="cls-1" d="M256.06722,288.82945V266.3857h9.634v3.38437h-6.25079v6.15235h4.56446v3.3832h-4.56446v6.14062h6.25079v3.38321Z"/><path class="cls-1" d="M269.03519,285.458h3.3832v3.38438h-3.3832Z"/></svg>