<svg id="Layer_1" data-name="Layer 1" xmlns="http://www.w3.org/2000/svg" width="320" height="50" viewBox="0 0 320 50"><defs><style>.cls-1{fill:#fff;}</style></defs><title>gratitude</title><path class="cls-1" d="M137.66,31h-1.44V21.43h2.07l1.34,6.87,1.29-6.87h2V31h-1.44V25l-1.25,6h-1.16l-1.4-6Z"/><path class="cls-1" d="M146.89,21.32a2.21,2.21,0,0,1,1.63.67,2.24,2.24,0,0,1,.67,1.62v5.23a2.2,2.2,0,0,1-.68,1.62,2.28,2.28,0,0,1-3.23,0,2.24,2.24,0,0,1-.67-1.62V23.61a2.2,2.2,0,0,1,.68-1.62A2.16,2.16,0,0,1,146.89,21.32Zm.79,2.27a.81.81,0,0,0-.24-.59.78.78,0,0,0-.58-.24.82.82,0,0,0-.83.83v5.24a.82.82,0,0,0,.83.82.78.78,0,0,0,.58-.24.8.8,0,0,0,.24-.58Z"/><path class="cls-1" d="M153.17,21.43a2.22,2.22,0,0,1,1.77.67,2.43,2.43,0,0,1,.49,1.62v1.39a2.22,2.22,0,0,1-.77,1.72L155.73,31h-1.55l-.88-3.62h-1V31h-1.45V21.43Zm.86,2.31a.73.73,0,0,0-.82-.83h-.87V26h.87a.78.78,0,0,0,.58-.24.82.82,0,0,0,.24-.59Z"/><path class="cls-1" d="M157.4,31V21.43h4.11v1.45h-2.66V25.5h1.94V27h-1.94v2.62h2.66V31Z"/><path class="cls-1" d="M166.65,31.13a2.27,2.27,0,0,1-2.29-2.28V23.6A2.2,2.2,0,0,1,165,22a2.24,2.24,0,0,1,1.62-.67,2.29,2.29,0,0,1,2.28,2.29v1.1h-1.5V23.58a.81.81,0,0,0-.24-.59.78.78,0,0,0-.59-.25A.76.76,0,0,0,166,23a.82.82,0,0,0-.25.59v5.25a.82.82,0,0,0,.25.59.78.78,0,0,0,.58.24.82.82,0,0,0,.83-.83V27h-.8V25.5h2.3v3.35a2.2,2.2,0,0,1-.67,1.62A2.23,2.23,0,0,1,166.65,31.13Z"/><path class="cls-1" d="M172.88,21.43a2.19,2.19,0,0,1,1.77.67,2.43,2.43,0,0,1,.5,1.62v1.39a2.25,2.25,0,0,1-.77,1.72L175.45,31h-1.56L173,27.39h-1V31h-1.44V21.43Zm.86,2.31a.73.73,0,0,0-.82-.83h-.87V26h.87a.81.81,0,0,0,.59-.24.86.86,0,0,0,.23-.59Z"/><path class="cls-1" d="M178.89,28.81l-.35,2.2H177l1.62-9.58h2l1.6,9.58h-1.51l-.34-2.2Zm.76-5.18-.54,3.77h1.08Z"/><path class="cls-1" d="M184.09,22.88h-1.54V21.43h4.51v1.45h-1.53V31h-1.44Z"/><path class="cls-1" d="M190.09,31h-1.44V21.43h1.44Z"/><path class="cls-1" d="M193.22,22.88h-1.54V21.43h4.51v1.45h-1.53V31h-1.44Z"/><path class="cls-1" d="M200.05,31.13a2.27,2.27,0,0,1-2.28-2.27V21.43h1.41v7.41a.83.83,0,0,0,.25.59.83.83,0,0,0,1.17,0,.82.82,0,0,0,.24-.59V21.43h1.5v7.43a2.17,2.17,0,0,1-.67,1.62A2.27,2.27,0,0,1,200.05,31.13Z"/><path class="cls-1" d="M208.59,28.72a2.23,2.23,0,0,1-.66,1.62,2.18,2.18,0,0,1-1.61.67h-2.26V21.43h2.26a2.29,2.29,0,0,1,2.27,2.29Zm-3.09.86h.87a.76.76,0,0,0,.58-.25.8.8,0,0,0,.24-.58v-5a.83.83,0,0,0-.25-.59.78.78,0,0,0-.57-.24h-.87Z"/><path class="cls-1" d="M210.29,31V21.43h4.11v1.45h-2.67V25.5h2V27h-2v2.62h2.67V31Z"/><path class="cls-1" d="M215.82,29.57h1.44V31h-1.44Z"/></svg>