<svg id="Layer_1" data-name="Layer 1" xmlns="http://www.w3.org/2000/svg" xmlns:xlink="http://www.w3.org/1999/xlink" width="160" height="600" viewBox="0 0 160 600"><defs><style>.cls-1{fill:url(#New_Gradient_Swatch_2);}.cls-2{fill:url(#New_Gradient_Swatch_2-2);}.cls-3{fill:url(#New_Gradient_Swatch_2-3);}.cls-4{fill:url(#New_Gradient_Swatch_2-4);}.cls-5{fill:url(#New_Gradient_Swatch_2-5);}.cls-6{fill:url(#New_Gradient_Swatch_2-6);}.cls-7{fill:url(#New_Gradient_Swatch_2-7);}.cls-8{fill:url(#New_Gradient_Swatch_2-8);}.cls-9{fill:url(#New_Gradient_Swatch_2-9);}.cls-10{fill:#ab9555;}.cls-11{fill:url(#New_Gradient_Swatch_2-10);}.cls-12{fill:url(#linear-gradient);}.cls-13{fill:url(#linear-gradient-2);}.cls-14{fill:url(#linear-gradient-3);}.cls-15{fill:url(#linear-gradient-4);}.cls-16{fill:url(#linear-gradient-5);}.cls-17{fill:url(#linear-gradient-6);}.cls-18{fill:url(#linear-gradient-7);}.cls-19{fill:url(#linear-gradient-8);}.cls-20{fill:url(#linear-gradient-9);}.cls-21{fill:url(#linear-gradient-10);}.cls-22{fill:url(#linear-gradient-11);}</style><linearGradient id="New_Gradient_Swatch_2" x1="107.36147" y1="178.17696" x2="115.1931" y2="178.17696" gradientUnits="userSpaceOnUse"><stop offset="0" stop-color="#ab8d34"/><stop offset="0.1878" stop-color="#cdb267"/><stop offset="0.46098" stop-color="#a38d4a"/><stop offset="0.76341" stop-color="#cdb267"/><stop offset="1" stop-color="#987f2e"/></linearGradient><linearGradient id="New_Gradient_Swatch_2-2" x1="75.51538" y1="178.17696" x2="86.16848" y2="178.17696" xlink:href="#New_Gradient_Swatch_2"/><linearGradient id="New_Gradient_Swatch_2-3" x1="87.09955" y1="178.17681" x2="95.20165" y2="178.17681" xlink:href="#New_Gradient_Swatch_2"/><linearGradient id="New_Gradient_Swatch_2-4" x1="44.77676" y1="139.07768" x2="110.28348" y2="139.07768" xlink:href="#New_Gradient_Swatch_2"/><linearGradient id="New_Gradient_Swatch_2-5" x1="96.56602" y1="178.17691" x2="105.80512" y2="178.17691" xlink:href="#New_Gradient_Swatch_2"/><linearGradient id="New_Gradient_Swatch_2-6" x1="39.86708" y1="178.17696" x2="49.39043" y2="178.17696" xlink:href="#New_Gradient_Swatch_2"/><linearGradient id="New_Gradient_Swatch_2-7" x1="63.28454" y1="178.17696" x2="73.95183" y2="178.17696" xlink:href="#New_Gradient_Swatch_2"/><linearGradient id="New_Gradient_Swatch_2-8" x1="51.03915" y1="178.17696" x2="61.69229" y2="178.17696" xlink:href="#New_Gradient_Swatch_2"/><linearGradient id="New_Gradient_Swatch_2-9" x1="115.62018" y1="170.41876" x2="120.13292" y2="170.41876" xlink:href="#New_Gradient_Swatch_2"/><linearGradient id="New_Gradient_Swatch_2-10" x1="45.98386" y1="430.94251" x2="114.01614" y2="362.91023" xlink:href="#New_Gradient_Swatch_2"/><linearGradient id="linear-gradient" x1="44.69326" y1="396.92637" x2="49.41503" y2="396.92637" gradientUnits="userSpaceOnUse"><stop offset="0" stop-color="#231f20"/><stop offset="0.23973" stop-color="#171415"/><stop offset="0.67302" stop-color="#060505"/><stop offset="1"/></linearGradient><linearGradient id="linear-gradient-2" x1="51.18651" y1="396.92637" x2="56.05356" y2="396.92637" xlink:href="#linear-gradient"/><linearGradient id="linear-gradient-3" x1="57.50971" y1="396.92637" x2="62.23148" y2="396.92637" xlink:href="#linear-gradient"/><linearGradient id="linear-gradient-4" x1="63.72329" y1="396.92637" x2="69.17148" y2="396.92637" xlink:href="#linear-gradient"/><linearGradient id="linear-gradient-5" x1="70.24196" y1="396.92637" x2="75.69015" y2="396.92637" xlink:href="#linear-gradient"/><linearGradient id="linear-gradient-6" x1="77.17602" y1="396.92637" x2="81.17929" y2="396.92637" xlink:href="#linear-gradient"/><linearGradient id="linear-gradient-7" x1="82.87053" y1="396.92637" x2="87.50909" y2="396.92637" xlink:href="#linear-gradient"/><linearGradient id="linear-gradient-8" x1="91.80821" y1="396.92637" x2="97.26036" y2="396.92637" xlink:href="#linear-gradient"/><linearGradient id="linear-gradient-9" x1="98.665" y1="396.92637" x2="104.11319" y2="396.92637" xlink:href="#linear-gradient"/><linearGradient id="linear-gradient-10" x1="105.51783" y1="396.92637" x2="110.15638" y2="396.92637" xlink:href="#linear-gradient"/><linearGradient id="linear-gradient-11" x1="111.30347" y1="396.92637" x2="115.30674" y2="396.92637" xlink:href="#linear-gradient"/></defs><title>background</title><polygon class="cls-1" points="115.193 174.837 115.193 172.847 107.361 172.854 107.361 183.507 115.179 183.507 115.179 181.517 109.494 181.517 109.494 179.094 113.765 179.094 113.765 177.111 109.494 177.111 109.494 174.837 115.193 174.837"/><path class="cls-2" d="M81.91168,172.84687h-2.1322l-4.2641,10.66019h2.27394l.63968-1.63458h4.83264l.63968,1.63458,2.26716-.00731Zm-2.62952,6.89367,1.62048-4.05118,1.57754,4.05118Z"/><path class="cls-3" d="M94.1,177.9993a5.28614,5.28614,0,0,0-2.45189-.88818,2.81024,2.81024,0,0,1-1.63462-.63993.83175.83175,0,0,1,0-1.03054q.35565-.60378,1.63462-.60378a2.44817,2.44817,0,0,1,1.99016.85259l1.42109-1.4214a4.973,4.973,0,0,0-1.52786-1.06607,5.9494,5.9494,0,0,0-2.30279-.35528,4.26709,4.26709,0,0,0-2.49074.85638,2.65249,2.65249,0,0,0-1.2117,2.27072,2.3589,2.3589,0,0,0,1.06587,2.20313,5.72934,5.72934,0,0,0,2.34543.78172q1.42108.1422,1.7731.74614a1.12619,1.12619,0,0,1,0,1.20843q-.35163.60378-1.7731.60378a3.37629,3.37629,0,0,1-2.41635-.9949l-1.42166,1.42161a5.3795,5.3795,0,0,0,1.70575,1.137,6.31279,6.31279,0,0,0,2.48043.42614,4.30492,4.30492,0,0,0,2.73956-.92377,2.7325,2.7325,0,0,0,1.17636-2.20307A2.66823,2.66823,0,0,0,94.1,177.9993Z"/><path class="cls-4" d="M73.54792,161.03186c.71189-.21,2.00321.99713,2.08713.99713a1.54044,1.54044,0,0,0,.43049-.99412c0-.4262-.30419-1.25516-.36123-1.75683a8.35686,8.35686,0,0,0-.30341-1.45342c-.11107-.3303-.883-.47427-1.29723-.72987a6.76581,6.76581,0,0,1-1.0452-.7236,3.30607,3.30607,0,0,1-.44437-1.51641,5.962,5.962,0,0,0-.24934-1.5436c-.14422-.27026-.515-.46121-.76571-.71194a1.078,1.078,0,0,1-.2583-.66356c.1923-.06.25234.43541.47453.47753s.20721.22514.55544.34522c.34849.12.36045.28544.40552.60979s.43542,1.42026.56446,1.86764c.1293.44763.26425.78415.70593.79907.44137.015.38133.24312.90067.20131a2.9081,2.9081,0,0,1,1.24646.24006c.27922.09916.63071.10812.75074-.08687.12008-.1953-.08418-.98221-.08418-.98221-.18007,0-.21027-.24306-.27922-.46825-.069-.22545.04206-.24338.04206-.24338a.95173.95173,0,1,1,1.81392,0s.11107.01793.04206.24338c-.06926.22519-.09915.46825-.27948.46825,0,0-.204.78691-.08392.98221.12.195.47152.186.75074.08687a2.90766,2.90766,0,0,1,1.2462-.24006c.5196.04181.45956-.18634.90093-.20131.44168-.01492.57668-.35144.70567-.79907.12931-.44738.5196-1.54335.56472-1.86764s.057-.48976.40552-.60979c.34823-.12008.33326-.30311.55544-.34522s.28249-.53757.47453-.47753a1.07982,1.07982,0,0,1-.2583.66356c-.25073.25073-.62149.44168-.76571.71194a5.96164,5.96164,0,0,0-.24933,1.5436,3.30618,3.30618,0,0,1-.44438,1.51641,6.76829,6.76829,0,0,1-1.0452.7236c-.41448.2556-1.18616.39957-1.29722.72987a8.32255,8.32255,0,0,0-.30342,1.45342c-.057.50167-.36123,1.33063-.36123,1.75683a1.54044,1.54044,0,0,0,.43049.99412c.08392,0,1.3755-1.20709,2.08714-.99713.71163.21053.4294,1.20735-.30938,1.94587a3.16408,3.16408,0,0,1-1.5306.95449,8.2894,8.2894,0,0,1,1.162.21726,12.4394,12.4394,0,0,1,3.31913,1.894,12.05973,12.05973,0,0,0,2.95957,1.728,2.527,2.527,0,0,0,.28632.06279c.10159-.08507.63393-.39226.63393-.39226a11.91017,11.91017,0,0,0,1.33748.57233l-3.408-2.62792,6.75546,2.94081c.11107.04808.2227.09237.33382.132l4.0832.07279c1.07183.01958,2.13034-.02741,3.113-.10346-.792-.48866-1.6498-.9765-2.56922-1.426l-3.58262-1.752c-.11925-.01518-.2412-.02663-.36506-.03393l-7.80931-.46909,5.07437-.882L87.70685,162.795l5.62981-.03693a19.11154,19.11154,0,0,0,3.84344-.42267l-5.321-1.01339,7.79817-.34632a7.65248,7.65248,0,0,0,1.30541-.16649l-.59212.07169,5.14663-2.41469a45.98881,45.98881,0,0,0,4.76634-2.62,50.29357,50.29357,0,0,0-5.575-.33761l-5.84956.01332.65159-.21323a7.32707,7.32707,0,0,0-1.38037.42588L91.306,158.57863l4.12972-3.0769-.0315.00518L95.31,154.7974l-.75049-1.23776a24.727,24.727,0,0,0,5.62307-5.805l-5.51739,2.64149,5.62168-4.68215a9.25924,9.25924,0,0,0,1.78506-1.9353c.72495-1.09571,1.398-2.2183,2.01192-3.35478l-1.74249,1.72073,2.08874-4.54364a60.00563,60.00563,0,0,0,3.09048-8.54456,72.73623,72.73623,0,0,0-8.28161,5.33566l-4.08951,3.09918,1.30432-2.03253c-1.05794.89963-2.08087,1.8492-3.05706,2.83814a8.96028,8.96028,0,0,0-1.50527,2.10941l-2.987,5.72083,1.061-5.2216a24.68735,24.68735,0,0,0-2.36636,2.83027l-.52068.72629-.47722-.32756a1.36448,1.36448,0,0,0-.07387.12413l-4.10278,7.78024,2.41956-8.45629a26.84329,26.84329,0,0,0,.8026-10.61216l-2.82534,5.251,1.3684-6.31678a10.28352,10.28352,0,0,0,.21375-3.15212,50.88919,50.88919,0,0,0-1.08566-6.37677l-.37237,3.10047L81.71876,120.956a76.91135,76.91135,0,0,0-4.18861-11.33711A76.83378,76.83378,0,0,0,73.34148,120.956l-1.22636,4.52022-.37263-3.10047a50.93668,50.93668,0,0,0-1.08566,6.37677,10.2892,10.2892,0,0,0,.21375,3.15238l1.3668,6.3187-2.82374-5.25232a26.83926,26.83926,0,0,0,.8026,10.61134l2.41987,8.45681L68.533,144.25864a1.30715,1.30715,0,0,0-.07387-.12413l-.47722.32756-.52068-.72629a24.69054,24.69054,0,0,0-2.36636-2.83027l1.06121,5.2216-2.98729-5.72083a8.96582,8.96582,0,0,0-1.505-2.10941c-.97428-.98708-1.99585-1.9353-3.05271-2.83379l1.30728,2.03414-4.09708-3.10514a72.70052,72.70052,0,0,0-8.28161-5.33566,59.99519,59.99519,0,0,0,3.09043,8.54456l2.08879,4.54364-1.74248-1.72073c.61387,1.13648,1.28722,2.25907,2.01217,3.35478a9.25051,9.25051,0,0,0,1.7848,1.9353l5.62168,4.68215-5.51739-2.64149a24.72084,24.72084,0,0,0,5.62307,5.805l-.75049,1.23776-.09428.70951-.03176-.00518,4.13024,3.07716-6.82441-2.84441a7.37161,7.37161,0,0,0-1.3798-.42588l.65133.21323-5.84987-.01332a50.2975,50.2975,0,0,0-5.57495.33761,45.98881,45.98881,0,0,0,4.76634,2.62l5.14663,2.41443-.59186-.07169a7.6195,7.6195,0,0,0,1.30515.16675l7.79812.34632-5.321,1.01339a19.11311,19.11311,0,0,0,3.84339.42267l5.64473.03693-3.30095,1.07126,5.07136.88139-7.80952.46909q-.18626.01095-.36537.03393l-3.58319,1.752c-.91885.44951-1.77662.93735-2.56865,1.426.983.07605,2.04118.12273,3.113.10346l4.08325-.07279c.11107-.03963.2227-.08392.33408-.132l6.75515-2.94081-3.408,2.62792a11.9108,11.9108,0,0,0,1.33747-.57233s.53182.30668.63341.392a2.49354,2.49354,0,0,0,.28653-.06248,12.05518,12.05518,0,0,0,2.95988-1.728,12.44081,12.44081,0,0,1,3.31914-1.894,8.28756,8.28756,0,0,1,1.162-.21726,3.16408,3.16408,0,0,1-1.5306-.95449C73.11851,162.23921,72.836,161.24239,73.54792,161.03186Z"/><polygon class="cls-5" points="96.566 174.837 100.119 174.837 100.119 183.507 102.252 183.507 102.252 174.837 105.805 174.837 105.805 172.847 96.566 172.847 96.566 174.837"/><polygon class="cls-6" points="47.258 179.527 40.578 172.847 39.867 172.847 39.867 183.507 41.999 183.507 41.999 176.898 48.609 183.507 49.39 183.507 49.39 172.847 47.258 172.847 47.258 179.527"/><polygon class="cls-7" points="68.615 178.106 63.995 172.847 63.285 172.847 63.285 183.507 65.417 183.507 65.417 177.324 68.615 180.878 71.813 177.324 71.82 183.507 73.952 183.507 73.952 172.847 73.241 172.847 68.615 178.106"/><path class="cls-8" d="M57.43524,172.84687H55.3033l-4.26415,10.66019h2.274l.63968-1.63458h4.83264l.63994,1.63458,2.26689-.00731ZM54.806,179.74054l1.62017-4.05118,1.57759,4.05118Z"/><path class="cls-9" d="M116.72442,169.62393v1.935h-.38435v-1.935h-.71989v-.34536h1.82732v.34536Zm3.05332,1.935-.00318-1.70371-.71989,1.46578h-.25093l-.7199-1.46578v1.70371h-.36154v-2.28037h.456l.75252,1.51486.74934-1.51486h.45279v2.28037Z"/><path class="cls-10" d="M57.80572,191.15155a1.50419,1.50419,0,0,1-.86166,2.79687l-2.9805-.00353v-5.29357h2.811q1.33866.07794,1.41256,1.55735A1.10864,1.10864,0,0,1,57.80572,191.15155Zm-2.77921-.37786H56.5097a.59778.59778,0,0,0,.65684-.66037q-.0174-.3882-.64625-.40964H55.02651Zm0,2.34485H56.7569a.6913.6913,0,0,0,.76278-.76631q-.0174-.50853-.75219-.52971h-1.741Z"/><path class="cls-10" d="M59.28891,188.64779h1.243l1.22893,1.73039,1.25717-1.73039h1.21481l-1.94227,2.64855v2.64855H61.23118v-2.64855Z"/><path class="cls-10" d="M71.64174,193.94489H67.40053l.00353-.35314,2.46845-3.95517H67.40406l-.00353-.98879h4.24121v.38846l-2.479,3.91985h2.479Z"/><path class="cls-10" d="M72.97257,193.94489v-5.29357l3.8916-.00353v.98879H74.032v1.13h2.12237v.98526H74.032v1.20421h2.82512v.98879Z"/><path class="cls-10" d="M77.93065,193.94489v-5.2971h.35314l3.31952,3.31952v-3.31952h1.05942v5.2971h-.38846l-3.2842-3.2842v3.2842Z"/><path class="cls-10" d="M83.482,193.94489l2.11884-5.2971h1.05942l2.1148,5.29357-1.126.00353-.31783-.81222H84.92988l-.31782.81222Zm2.6768-3.88454-.80516,2.0129h1.58913Z"/><path class="cls-10" d="M93.32755,191.15155a1.50436,1.50436,0,0,1-.86166,2.79687l-2.9805-.00353v-5.29357h2.811q1.3379.07794,1.41256,1.55735A1.11142,1.11142,0,0,1,93.32755,191.15155Zm-2.77972-.37786H92.031a.59734.59734,0,0,0,.65684-.66037c-.0111-.2588-.227-.39551-.64574-.40964H90.54783Zm0,2.34485h1.73039a.69085.69085,0,0,0,.76278-.76631q-.01665-.50853-.75168-.52971H90.54783Z"/><path class="cls-10" d="M95.1215,188.64426h1.05538v5.30063H95.1215Z"/><path class="cls-10" d="M100.10783,188.82436a2.45918,2.45918,0,0,1,.75875.52971l-.70628.70628a1.2157,1.2157,0,0,0-.98879-.42377q-.63565,0-.81223.30017a.41506.41506,0,0,0,0,.51205,1.39684,1.39684,0,0,0,.81223.31783,2.62806,2.62806,0,0,1,1.21883.44142,1.32748,1.32748,0,0,1,.54686,1.183,1.35868,1.35868,0,0,1-.58419,1.09474,2.139,2.139,0,0,1-1.3611.45908,3.13974,3.13974,0,0,1-1.233-.21189,2.684,2.684,0,0,1-.84754-.565l.70628-.70628a1.67926,1.67926,0,0,0,1.20068.4944q.70677,0,.88083-.30017a.55712.55712,0,0,0,0-.60034q-.174-.30042-.88083-.3708a2.84585,2.84585,0,0,1-1.16537-.38845,1.17185,1.17185,0,0,1-.52971-1.09473,1.31733,1.31733,0,0,1,.60236-1.128,2.11986,2.11986,0,0,1,1.238-.42579A2.96336,2.96336,0,0,1,100.10783,188.82436Z"/><rect class="cls-10" x="39.86708" y="191.22043" width="9.52335" height="1.1596"/><rect class="cls-10" x="105.66975" y="191.22043" width="9.52335" height="1.1596"/><rect class="cls-11" x="24.89794" y="383.99615" width="110.20413" height="25.86043"/><path class="cls-12" d="M45.7829,394.20227v3.15995a1.09345,1.09345,0,0,0,.36321.908,1.5641,1.5641,0,0,0,1.81607,0,1.09345,1.09345,0,0,0,.36321-.908v-3.15995H49.415v3.45052a1.80468,1.80468,0,0,1-.672,1.41653,2.7448,2.7448,0,0,1-3.37787,0,1.80465,1.80465,0,0,1-.67195-1.41653v-3.45052Z"/><path class="cls-13" d="M51.18651,399.65046v-5.44819h.36322l3.41419,3.4142v-3.4142h1.08964v5.44819h-.39887l-3.37854-3.37787v3.37787Z"/><path class="cls-14" d="M58.29227,398.86791a2.72518,2.72518,0,0,1,1.93757-4.66564,2.94871,2.94871,0,0,1,2.00164.72643l-.72643.79544a2.011,2.011,0,0,0-1.27521-.43586,1.55277,1.55277,0,0,0-1.63049,1.61993,1.63076,1.63076,0,0,0,.45369,1.20586,1.60812,1.60812,0,0,0,1.18407.44676,1.95349,1.95349,0,0,0,1.26794-.43223l.72643.79544a2.93926,2.93926,0,0,1-2.00164.72642A2.6509,2.6509,0,0,1,58.29227,398.86791Z"/><path class="cls-15" d="M64.50453,398.86791a2.806,2.806,0,1,1,1.94351.78255A2.6414,2.6414,0,0,1,64.50453,398.86791Zm1.94682-.23444a1.52973,1.52973,0,0,0,1.1768-.49034,1.85847,1.85847,0,0,0,0-2.43352,1.66605,1.66605,0,0,0-2.36088,0,1.85646,1.85646,0,0,0,0,2.43352A1.53864,1.53864,0,0,0,66.45135,398.63347Z"/><path class="cls-16" d="M71.40424,394.20227l1.548,3.99171,1.57568-3.99171h1.16228l-2.17531,5.44819H72.4252L70.242,394.20227Z"/><path class="cls-17" d="M77.176,399.65046v-5.44455l4.00327-.00364v1.017H78.26566v1.16228H80.4489v1.01336H78.26566v1.23856h2.9057v1.017Z"/><path class="cls-18" d="M86.15067,397.27505l1.35842,2.37541H86.25964l-1.3036-2.25191h-.99587v2.25191H82.87053v-5.44819h2.37608q1.90587,0,1.90653,1.56908A1.409,1.409,0,0,1,86.15067,397.27505Zm-2.1905-.8935h1.5255q.65774-.01089.67623-.5993-.01883-.53739-.665-.55935H83.96017Z"/><path class="cls-19" d="M91.80821,399.65046v-5.44819h.36321L94.533,396.89l2.36418-2.68778h.36322v5.44819H96.17072l-.004-3.16-1.6338,1.81607-1.63512-1.81607v3.16Z"/><path class="cls-20" d="M99.44624,398.86791a2.806,2.806,0,1,1,1.94351.78255A2.6414,2.6414,0,0,1,99.44624,398.86791Zm1.94681-.23444a1.52974,1.52974,0,0,0,1.17681-.49034,1.85847,1.85847,0,0,0,0-2.43352,1.66605,1.66605,0,0,0-2.36088,0,1.85646,1.85646,0,0,0,0,2.43352A1.53864,1.53864,0,0,0,101.39305,398.63347Z"/><path class="cls-21" d="M108.798,397.27505l1.35841,2.37541h-1.24945l-1.3036-2.25191h-.99586v2.25191h-1.08964v-5.44819h2.37607q1.90587,0,1.90654,1.56908A1.409,1.409,0,0,1,108.798,397.27505Zm-2.1905-.8935H108.133q.65775-.01089.67623-.5993-.01881-.53739-.665-.55935h-1.53672Z"/><path class="cls-22" d="M111.30347,399.65046v-5.44455l4.00327-.00364v1.017h-2.91363v1.16228h2.18324v1.01336h-2.18324v1.23856h2.9057v1.017Z"/></svg>