<?xml version="1.0" encoding="utf-8"?>
<!-- Generator: Adobe Illustrator 23.0.1, SVG Export Plug-In . SVG Version: 6.00 Build 0)  -->
<svg version="1.1" id="Content" xmlns="http://www.w3.org/2000/svg" xmlns:xlink="http://www.w3.org/1999/xlink" x="0px" y="0px"
	 viewBox="0 0 320 568" style="enable-background:new 0 0 320 568;" xml:space="preserve">
<style type="text/css">
	.st0{fill:#FFFFFF;stroke:#BA9544;stroke-width:0.425;stroke-miterlimit:10;}
	.st1{fill:#BA9544;}
	.st2{clip-path:url(#SVGID_2_);}
</style>
<title>CBD - Sensi Star</title>
<polygon class="st0" points="239.5,379.1 81.3,378.5 73.3,390 81.3,401.3 239.5,401 246.7,390.1 "/>
<polygon class="st1" points="73.5,390 81.5,401.3 81.7,401.3 81.7,378.5 81.5,378.5 "/>
<g>
	<defs>
		<polygon id="SVGID_1_" points="73.5,390 81.5,401.3 81.7,401.3 81.7,378.5 81.5,378.5 		"/>
	</defs>
	<clipPath id="SVGID_2_">
		<use xlink:href="#SVGID_1_"  style="overflow:visible;"/>
	</clipPath>
	<g class="st2">
		<rect x="71.8" y="376.7" class="st1" width="11.7" height="26.4"/>
	</g>
</g>
<path class="st1" d="M166.3,393.8c-1.5-1.5-1.5-4,0-5.5c0.7-0.7,1.7-1.2,2.8-1.2c1,0,2.1,0.3,2.8,1l-1,1.1c-0.5-0.4-1.2-0.6-1.8-0.6
	c-1.2-0.1-2.3,0.9-2.3,2.1c0,0.1,0,0.1,0,0.2c0,0.6,0.2,1.3,0.6,1.7c0.5,0.4,1.1,0.7,1.7,0.6c0.7,0,1.3-0.2,1.8-0.6l1,1.1
	c-0.8,0.7-1.8,1.1-2.8,1C168,394.9,167,394.5,166.3,393.8z"/>
<path class="st1" d="M179,390.8c1,0.6,1.4,2,0.8,3c-0.4,0.7-1.2,1.1-2,1.1l-4.4,0v-7.7h4.1c1.3,0.1,2,0.8,2.1,2.3
	C179.6,390,179.4,390.5,179,390.8z M175,390.3h2.2c0.5,0.1,0.9-0.3,1-0.8c0-0.1,0-0.1,0-0.2c0-0.4-0.3-0.6-0.9-0.6H175L175,390.3z
	 M175,393.7h2.5c0.6,0.1,1.1-0.3,1.1-0.9c0-0.1,0-0.2,0-0.2c0-0.5-0.4-0.8-1.1-0.8H175V393.7z"/>
<path class="st1" d="M181.7,394.9v-7.7h3c2.4,0,3.6,1.3,3.6,3.9c0,2.6-1.2,3.9-3.6,3.9L181.7,394.9z M184.6,393.4
	c1.4,0,2.1-0.8,2.1-2.3c0-1.5-0.7-2.3-2.1-2.3h-1.4v4.7H184.6z"/>
<path class="st1" d="M193.6,390c0.1-0.1,0.4-0.2,0.6-0.2c0.2,0,0.4,0.1,0.6,0.2c0.1,0.1,0.2,0.3,0.2,0.5c0,0.2-0.1,0.4-0.2,0.5
	c-0.3,0.3-0.8,0.3-1.1,0c-0.1-0.1-0.2-0.3-0.2-0.5C193.4,390.3,193.5,390.1,193.6,390z M193.6,393.7c0.1-0.1,0.4-0.2,0.6-0.2
	c0.2,0,0.4,0.1,0.6,0.2c0.3,0.3,0.3,0.7,0,1c-0.3,0.3-0.8,0.3-1.1,0C193.3,394.4,193.3,394,193.6,393.7z"/>
<path class="st1" d="M204.7,389.4l-3,1.7l3,1.7v1.2l-4.9-2.7v-0.3l4.9-2.7L204.7,389.4z"/>
<path class="st1" d="M211.4,387.2L211.4,387.2l1.5,0v7.7h-1.5v-5.7l-1,1l-1-1L211.4,387.2z"/>
</svg>
