<svg id="Content" xmlns="http://www.w3.org/2000/svg" xmlns:xlink="http://www.w3.org/1999/xlink" width="640" height="1136" viewBox="0 0 640 1136"><defs><style>.cls-1{fill:url(#New_Gradient_Swatch_1);}.cls-2{fill:#fff;}.cls-3{fill:#ba9544;}</style><linearGradient id="New_Gradient_Swatch_1" x1="419.12482" y1="460.43258" x2="510.21446" y2="460.43258" gradientUnits="userSpaceOnUse"><stop offset="0" stop-color="#a88a34"/><stop offset="0.49324" stop-color="#caaf67"/><stop offset="1" stop-color="#957f2e"/></linearGradient></defs><title>earthy</title><polygon class="cls-1" points="501.117 428.883 455.57 413.095 419.125 444.645 428.226 491.982 473.769 507.77 510.214 476.221 501.117 428.883"/><path class="cls-2" d="M476.11312,471.50612c-.59391-1.05135-2.50745-4.07345-5.32723-4.92685a5.2264,5.2264,0,0,0-3.98986.39151,11.13734,11.13734,0,0,0-2.08511-.53668c.28151-2.38425,2.10713-5.5515,4.42979-8.72756.11438.00439.22432.00439.33434.00439.43106.0044.85776.0088,1.2801.0088,4.95765,0,9.35219-.65544,9.58095-9.61174a13.7956,13.7956,0,0,1,1.86515-4.19664l.68183-1.11733h-1.31084a14.18649,14.18649,0,0,0-14.16915,14.17349v.66863c-.53665.76984-1.04255,1.53526-1.50886,2.29187a18.17908,18.17908,0,0,0-18.12377-17.134h-1.31091l.68184,1.11733c.93261,1.52645,2.41945,4.377,2.45026,5.55152.29031,11.41533,5.899,12.25113,12.22915,12.25113.54108,0,1.08652-.00439,1.632-.0132.4751-.0044.95456-.0088,1.43845-.0088a14.0334,14.0334,0,0,0-1.64519,4.61453,6.63884,6.63884,0,0,0-6.30816,3.4928c-1.3285-.43551-4.3726-1.16133-6.78319.36512-1.96637,1.2405-3.01335,3.64674-3.1233,7.14834l-.022.75661h35.08624l.1364-.56306a4.42708,4.42708,0,0,0-.739-3.36522c-.99859-1.41207-2.81091-2.30068-5.37991-2.635"/><path class="cls-3" d="M413.38243,557.26774V539.881l12.78222-.01171v3.248H416.8629v3.71094h6.9707v3.23633h-6.9707v3.95508h9.27832v3.248Z"/><path class="cls-3" d="M428.75157,557.26774l6.959-17.39843h3.4795l6.94824,17.38671-3.7002.01172-1.04394-2.668h-7.8877l-1.04394,2.668Zm8.792-12.75879-2.64453,6.61133h5.21875Z"/><path class="cls-3" d="M459.20958,549.68181l4.33789,7.58593h-3.99024l-4.16406-7.1914h-3.17773v7.1914h-3.4795V539.86931h7.58594q6.08935,0,6.08887,5.01074Q462.41075,548.65056,459.20958,549.68181Zm-6.99414-2.85352h4.87207q2.09911-.03369,2.15722-1.91309-.05859-1.7168-2.123-1.78613h-4.90625Z"/><path class="cls-3" d="M479.5543,539.86931v3.248h-5.7998v14.15039H470.275V543.11735H464.4752v-3.248Z"/><path class="cls-3" d="M482.14024,557.26774V539.86931h3.47949v6.959h8.10742v-6.9707h3.4795V557.256l-3.4795.01172v-7.1914h-8.10742v7.1914Z"/><path class="cls-3" d="M499.94493,539.86931h4.082l4.03711,5.68359,4.1289-5.68359h3.99024l-6.37988,8.69921v8.69922h-3.4795v-8.69922Z"/></svg>