<svg id="Content" xmlns="http://www.w3.org/2000/svg" width="300" height="250" viewBox="0 0 300 250"><defs><style>.cls-1{fill:#fff;stroke:#ba9544;stroke-miterlimit:10;stroke-width:0.5px;}.cls-2{fill:#ba9544;}</style></defs><title>THC - Daytime CBD</title><polygon class="cls-1" points="279.428 142.612 167.844 142.189 162.211 150.312 167.844 158.291 279.428 158.101 284.498 150.357 279.428 142.612"/><polygon class="cls-2" points="167.925 142.189 162.293 150.312 167.925 158.291 174.93 158.291 174.93 142.189 167.925 142.189"/><path class="cls-2" d="M231.71,147.3457v1.01953H229.8887v4.44336h-1.09277v-4.44336h-1.82129V147.3457Z"/><path class="cls-2" d="M232.52249,152.80859V147.3457h1.09278v2.18457h2.54589V147.3418h1.0918v5.46289l-1.0918.0039v-2.25781h-2.54589v2.25781Z"/><path class="cls-2" d="M238.94827,152.02344a2.732,2.732,0,0,1,1.94336-4.67774,2.95282,2.95282,0,0,1,2.00684.72852l-.72852.79687a2.01551,2.01551,0,0,0-1.27832-.43652,1.5565,1.5565,0,0,0-1.63476,1.624,1.63132,1.63132,0,0,0,.45508,1.209,1.61079,1.61079,0,0,0,1.1875.44824,1.95513,1.95513,0,0,0,1.2705-.43359l.72852.79785a2.94708,2.94708,0,0,1-2.00684.72851A2.65579,2.65579,0,0,1,238.94827,152.02344Z"/><path class="cls-2" d="M244.1221,149.3252a.52808.52808,0,0,1,.39356-.14747.54784.54784,0,0,1,.4082.14747.49987.49987,0,0,1,.14551.36621.4932.4932,0,0,1-.14551.36328.62179.62179,0,0,1-.80176,0,.4932.4932,0,0,1-.14551-.36328A.49987.49987,0,0,1,244.1221,149.3252Zm0,2.60742a.52807.52807,0,0,1,.39356-.14746.54784.54784,0,0,1,.4082.14746.503.503,0,0,1,.14551.36621.497.497,0,0,1-.14551.36426.625.625,0,0,1-.80176,0,.497.497,0,0,1-.14551-.36426A.503.503,0,0,1,244.1221,151.93262Z"/><path class="cls-2" d="M252.06937,150.041c.06543.02343.125.04785.17871.07226a1.07117,1.07117,0,0,1,.56445,1.09277,1.39919,1.39919,0,0,1-.60351,1.12891,2.20587,2.20587,0,0,1-1.40332.47363,3.23906,3.23906,0,0,1-1.27149-.21875,2.76576,2.76576,0,0,1-.874-.582l.72851-.72851a1.73388,1.73388,0,0,0,1.23828.50976q.728,0,.90918-.30957a.57692.57692,0,0,0,0-.61914q-.18164-.31055-1.26953-.34668v-.9834q1.08839.07325,1.26953-.23632a.57694.57694,0,0,0,0-.61915q-.18164-.30908-.90918-.30957a1.29712,1.29712,0,0,0-1.05664.4375l-.72753-.72851a2.5398,2.5398,0,0,1,.78222-.54688,3.05779,3.05779,0,0,1,1.18067-.18164,1.9203,1.9203,0,0,1,1.33105.47364,1.46337,1.46337,0,0,1,.53027,1.1289,1.08071,1.08071,0,0,1-.49218,1.03809C252.14359,150.00293,252.10843,150.02148,252.06937,150.041Z"/><path class="cls-2" d="M253.70023,151.34766v-.72461H255.959v.72461Z"/><path class="cls-2" d="M257.59476,152.80859l.00293-.36425,1.709-4.07911h-2.33886l-.00391-1.01953h3.72949v.40039l-2.03516,5.0625Z"/><path class="cls-2" d="M261.89261,149.65039a1.40717,1.40717,0,1,1,.97559.39356A1.32148,1.32148,0,0,1,261.89261,149.65039Zm.96484-.25488a.64925.64925,0,0,0,.499-.207.73009.73009,0,0,0,.19336-.51758.72132.72132,0,0,0-.19336-.51465.656.656,0,0,0-.50293-.20605.64775.64775,0,0,0-.49512.20605.72055.72055,0,0,0-.19238.51465.72931.72931,0,0,0,.19238.51758A.64924.64924,0,0,0,262.85745,149.39551Zm-.291,3.41308,3.0957-5.46289h.88867l-3.08886,5.46289Zm2.71289-.36035a1.39908,1.39908,0,1,1,.96875.38965A1.31562,1.31562,0,0,1,265.27933,152.44824Zm.95117-.26562a.63655.63655,0,0,0,.48731-.20215.76228.76228,0,0,0,0-1.00586.6421.6421,0,0,0-.49122-.20215.63453.63453,0,0,0-.48437.20215.76228.76228,0,0,0,0,1.00586A.63865.63865,0,0,0,266.2305,152.18262Z"/></svg>