<svg xmlns="http://www.w3.org/2000/svg" xmlns:xlink="http://www.w3.org/1999/xlink" width="970" height="250" viewBox="0 0 970 250"><defs><style>.cls-1{fill:none;}.cls-2{fill:#ba9544;}.cls-3{isolation:isolate;}.cls-4{clip-path:url(#clip-path);}.cls-5,.cls-7{mix-blend-mode:multiply;}.cls-6{clip-path:url(#clip-path-2);}.cls-7{opacity:0.70196;}.cls-8{clip-path:url(#clip-path-3);}.cls-9{clip-path:url(#clip-path-4);}.cls-10{fill:#fff;stroke:#ba9544;stroke-miterlimit:10;stroke-width:0.5px;}.cls-11{clip-path:url(#clip-path-5);}.cls-12{clip-path:url(#clip-path-6);}.cls-13{clip-path:url(#clip-path-7);}</style><clipPath id="clip-path"><path class="cls-1" d="M82.52178-91.65381S91.3522-68.106,93.5598-68.106s26.49126,5.88694,26.49126,5.88694l19.86844,1.47174,5.887-11.77389L131.08908-96.80488Z"/></clipPath><clipPath id="clip-path-2"><rect class="cls-1" x="75.77793" y="-102.1764" width="135.53696" height="127.87199"/></clipPath><clipPath id="clip-path-3"><polygon class="cls-1" points="109.472 -48.543 -2.532 -47.55 -0.546 -183.124 109.472 -183.124 109.472 -48.543"/></clipPath><clipPath id="clip-path-4"><rect class="cls-1" x="-46.61894" y="-135.94763" width="160.95692" height="114.34303" transform="translate(77.30825 -4.85486) rotate(-53.70474)"/></clipPath><clipPath id="clip-path-5"><polygon class="cls-2" points="396.779 167.574 408.521 184.206 437.349 184.227 437.349 150.647 408.521 150.639 396.779 167.574"/></clipPath><clipPath id="clip-path-6"><rect class="cls-1" x="17.24025" y="-299.16219" width="383.03219" height="250.51546"/></clipPath><clipPath id="clip-path-7"><rect class="cls-1" x="2.56702" y="-306.41002" width="399.55191" height="335.80187"/></clipPath></defs><title>CBD - Durga Mata</title><g class="cls-3"><g id="Terpenes"><g class="cls-4"><g id="LemonBalm_1_GettyImages-539013226.psd" data-name="LemonBalm#1_GettyImages-539013226.psd" class="cls-5"><g class="cls-6"><g id="Single_upside_down" data-name="Single upside down"><image id="Single_upside_down_shadow" data-name="Single upside down shadow" class="cls-5" width="1532" height="912" transform="translate(83.35804 -10.33823) scale(0.02828)" xlink:href="CBD%20-%20Durga%20Mata1.png"/><image id="LemonBalm_1-single_upside_down" data-name="LemonBalm#1-single upside down" width="1423" height="822" transform="translate(84.26313 -10.62107) scale(0.02828)" xlink:href="CBD%20-%20Durga%20Mata2.png"/></g><g id="Set_of_4" data-name="Set of 4"><image id="Set_of_4_shadow" data-name="Set of 4 shadow" class="cls-7" width="3085" height="1420" transform="translate(120.38181 -29.93905) scale(0.02828)" xlink:href="CBD%20-%20Durga%20Mata3.png"/><image id="LemonBalm_1-set_of_4" data-name="LemonBalm#1-set of 4" width="2950" height="1324" transform="translate(121.96571 -30.05219) scale(0.02828)" xlink:href="CBD%20-%20Durga%20Mata4.png"/></g></g></g></g><g class="cls-8"><g id="LemonBalm_3_GettyImages-907844178.psd" data-name="LemonBalm#3_GettyImages-907844178.psd" class="cls-5"><g class="cls-9"><image id="Shadow" class="cls-5" width="4105" height="5787" transform="matrix(0.02154, 0.01582, -0.01582, 0.02154, 33.85004, -172.99749)" xlink:href="CBD%20-%20Durga%20Mata5.png"/><image id="Lemon_Balm_3" data-name="Lemon Balm #3" width="3974" height="5704" transform="matrix(0.02154, 0.01582, -0.01582, 0.02154, 35.22607, -172.25217)" xlink:href="CBD%20-%20Durga%20Mata6.png"/></g></g></g></g><g id="Content"><polygon class="cls-10" points="640.867 151.483 408.265 150.601 396.523 167.534 408.265 184.166 640.867 183.77 651.435 167.627 640.867 151.483"/><polygon class="cls-2" points="396.779 167.574 408.521 184.206 437.349 184.227 437.349 150.647 408.521 150.639 396.779 167.574"/><g class="cls-11"><rect class="cls-2" x="394.18239" y="148.04314" width="17.16039" height="38.77851"/></g><path class="cls-2" d="M533.17777,173.12062a5.697,5.697,0,0,1,4.05078-9.75293,6.16438,6.16438,0,0,1,4.1836,1.51855l-1.51856,1.66309a4.1997,4.1997,0,0,0-2.665-.91113,3.34367,3.34367,0,0,0-2.47168.957,3.30924,3.30924,0,0,0-.9375,2.42871,3.4111,3.4111,0,0,0,.94922,2.52051,3.36176,3.36176,0,0,0,2.47559.93457,4.08629,4.08629,0,0,0,2.64941-.90332l1.51856,1.66211a6.14212,6.14212,0,0,1-4.1836,1.51855A5.54378,5.54378,0,0,1,533.17777,173.12062Z"/><path class="cls-2" d="M551.95023,168.7505a3.23423,3.23423,0,0,1-1.85254,6.01367l-6.4082-.00781V163.3755h6.04395q2.87694.167,3.0371,3.34863A2.38263,2.38263,0,0,1,551.95023,168.7505Zm-5.97461-.81152h3.18848a1.28634,1.28634,0,0,0,1.41211-1.41992q-.03808-.835-1.38965-.88086h-3.21094Zm0,5.041h3.71973a1.4866,1.4866,0,0,0,1.63965-1.64746q-.03809-1.09423-1.61719-1.13867h-3.74219Z"/><path class="cls-2" d="M555.80668,174.75636V163.36085h4.38867q5.31446,0,5.31445,5.70118,0,5.69384-5.31445,5.69433Zm4.38867-2.27051q3.0293-.00732,3.03711-3.42382-.00879-3.416-3.03711-3.416H558.085v6.83984Z"/><path class="cls-2" d="M568.05277,167.49464a1.10107,1.10107,0,0,1,.82031-.30761,1.143,1.143,0,0,1,.85059.30761,1.10584,1.10584,0,0,1,0,1.52246,1.30094,1.30094,0,0,1-1.6709,0,1.10584,1.10584,0,0,1,0-1.52246Zm0,5.43555a1.10108,1.10108,0,0,1,.82031-.30762,1.143,1.143,0,0,1,.85059.30762,1.04565,1.04565,0,0,1,.30371.76367,1.0298,1.0298,0,0,1-.30371.75879,1.30094,1.30094,0,0,1-1.6709,0,1.0298,1.0298,0,0,1-.30371-.75879A1.04565,1.04565,0,0,1,568.05277,172.93019Z"/><path class="cls-2" d="M585.45414,168.41652q-.04541,3.6372-1.37012,5.04883a3.84591,3.84591,0,0,1-3.291,1.24511,4.73531,4.73531,0,0,1-3.05957-1.44238l1.2832-1.39648a3.981,3.981,0,0,0,1.89746.6455,2.01022,2.01022,0,0,0,1.625-.48632,3.06537,3.06537,0,0,0,.84277-1.86036,3.56346,3.56346,0,0,1-2.36133.75977,3.81226,3.81226,0,0,1-2.80859-1.30957,3.90975,3.90975,0,0,1-.66894-2.85156,3.74165,3.74165,0,0,1,1.32519-2.57715A4.02415,4.02415,0,0,1,582,163.398a3.71659,3.71659,0,0,1,2.5625,1.51172A6.412,6.412,0,0,1,585.45414,168.41652Zm-2.27735-1.252q-.07617-1.58788-1.82226-1.65527-1.74609.06738-1.82227,1.51074a1.71957,1.71957,0,0,0,1.89844,1.89746A1.69065,1.69065,0,0,0,583.17679,167.16456Z"/><path class="cls-2" d="M587.47367,171.71144V170.2007h4.707v1.51074Z"/><path class="cls-2" d="M597.09281,163.36769v-.00684h2.27051v11.39551h-2.27051V166.4048l-1.51855,1.51855-1.51856-1.51855Z"/><path class="cls-2" d="M608.72367,168.98585q.20508.07617.37207.15235a2.232,2.232,0,0,1,1.17676,2.27734,2.91869,2.91869,0,0,1-1.25684,2.35352,4.59747,4.59747,0,0,1-2.92676.9873,6.74549,6.74549,0,0,1-2.64941-.45508,5.76491,5.76491,0,0,1-1.82227-1.21484l1.51856-1.51856a3.607,3.607,0,0,0,2.582,1.0625q1.51758,0,1.89356-.6455a1.19929,1.19929,0,0,0,0-1.29q-.375-.646-2.64551-.72168v-2.04981q2.2705.15236,2.64551-.49316a1.201,1.201,0,0,0,0-1.291q-.375-.64452-1.89356-.6455a2.70333,2.70333,0,0,0-2.20215.91113l-1.51855-1.51856a5.29234,5.29234,0,0,1,1.63281-1.13867,6.35175,6.35175,0,0,1,2.459-.37988,4.009,4.009,0,0,1,2.77539.9873,3.05433,3.05433,0,0,1,1.1045,2.35352,2.253,2.253,0,0,1-1.02442,2.16406C608.878,168.90773,608.80472,168.94581,608.72367,168.98585Z"/><path class="cls-2" d="M612.78519,168.17433a2.936,2.936,0,1,1,2.03516.81934A2.76695,2.76695,0,0,1,612.78519,168.17433Zm2.0127-.53223a1.35453,1.35453,0,0,0,1.04-.43261,1.64044,1.64044,0,0,0,0-2.15235,1.37151,1.37151,0,0,0-1.04785-.42871,1.35412,1.35412,0,0,0-1.03321.42871,1.64044,1.64044,0,0,0,0,2.15235A1.3552,1.3552,0,0,0,614.79789,167.6421Zm-.60742,7.11426,6.45312-11.38867h1.85254l-6.43848,11.38867Zm5.65625-.75195a2.91488,2.91488,0,1,1,2.01953.8125A2.73937,2.73937,0,0,1,619.84672,174.00441Zm1.98144-.55371a1.32829,1.32829,0,0,0,1.0166-.42188,1.58451,1.58451,0,0,0,0-2.09472,1.338,1.338,0,0,0-1.02441-.42188,1.32079,1.32079,0,0,0-1.00977.42188,1.58747,1.58747,0,0,0,0,2.09472A1.33043,1.33043,0,0,0,621.82816,173.4507Z"/><g class="cls-12"><g id="SmallTopDown-8297-DurgaMata2.psd"><g class="cls-13"><image id="SmallTopDown-8297-DurgaMata2" width="4124" height="3466" transform="translate(2.56702 -306.41002) scale(0.09688)" xlink:href="CBD%20-%20Durga%20Mata7.png"/></g></g></g></g></g></svg>