<svg id="Layer_1" data-name="Layer 1" xmlns="http://www.w3.org/2000/svg" width="320" height="50" viewBox="0 0 320 50"><defs><style>.cls-1{fill:#ab9555;}</style></defs><title>frame3</title><path class="cls-1" d="M104.25035,34.79792V17.55739h3.88424a4.95392,4.95392,0,0,1,2.7789.81288,3.78394,3.78394,0,0,1,1.51233,2.12726,6.06242,6.06242,0,0,1,.24575,1.83259,4.078,4.078,0,0,1-.91629,2.78,2.73071,2.73071,0,0,1-.9074.67054,3.02723,3.02723,0,0,1,1.46451,1.30438,4.94593,4.94593,0,0,1,.596,1.70137,7.05517,7.05517,0,0,1,.09452,1.201,5.7897,5.7897,0,0,1-.61494,2.77779,3.98753,3.98753,0,0,1-3.32712,2.03274Zm2.79781-10.19931h1.08643a1.59636,1.59636,0,0,0,1.62575-1.18095,3.38876,3.38876,0,0,0,.15123-1.08754,2.284,2.284,0,0,0-.5193-1.62575,1.64989,1.64989,0,0,0-1.25768-.5093h-1.08643Zm0,7.62836h1.08643a1.84806,1.84806,0,0,0,1.8337-1.3611,2.93444,2.93444,0,0,0,.18014-1.06752A3.24086,3.24086,0,0,0,109.5902,27.69a1.76308,1.76308,0,0,0-1.45561-.60493h-1.08643Z"/><path class="cls-1" d="M121.16757,17.55739a3.938,3.938,0,0,1,3.1859,1.201,4.33571,4.33571,0,0,1,.89738,2.91123v2.50423a4.01328,4.01328,0,0,1-1.38667,3.09138l1.926,7.53272h-2.80337l-1.58572-6.5119c-.07561.00556-.15457.0089-.23574.0089h-1.4912v6.503h-2.59876V17.55739Zm1.55014,4.1589a1.31816,1.31816,0,0,0-1.479-1.50343h-1.56459V25.724h1.56459a1.41294,1.41294,0,0,0,1.05084-.43924,1.45752,1.45752,0,0,0,.42813-1.05418Z"/><path class="cls-1" d="M130.66924,34.79792V17.55739h7.40151v2.59987h-4.80164v4.726h3.50615V27.482h-3.50615v4.716h4.80164v2.59987Z"/><path class="cls-1" d="M146.67767,30.837l-.63273,3.961h-2.70329l2.92013-17.24053h3.58288L152.727,34.79792h-2.72219l-.61383-3.961Zm1.36109-9.32861-.96411,6.79546h1.92822Z"/><path class="cls-1" d="M158.73514,20.15726h-2.76V17.55739H164.085v2.59987h-2.75V34.79792h-2.59987Z"/><path class="cls-1" d="M170.58717,27.50094v7.297H167.9873V17.55739h2.59987v7.32589h3.11807V17.55739h2.59986V34.79792h-2.59986v-7.297Z"/><path class="cls-1" d="M181.2987,34.79792V17.55739h7.4004v2.59987h-4.80164v4.726h3.50615V27.482h-3.50615v4.716h4.80164v2.59987Z"/><path class="cls-1" d="M201.00413,34.79792h-2.59875V17.55739h2.59875Z"/><path class="cls-1" d="M208.06342,17.55739l3.44055,11.5782V17.55739h2.59986V34.79792h-2.78446l-3.57732-11.04v11.04H205.1433V17.55739Z"/><path class="cls-1" d="M218.5381,32.20806h2.59875v2.59876H218.5381Z"/></svg>