<?xml version="1.0" encoding="utf-8"?>
<!-- Generator: Adobe Illustrator 23.0.1, SVG Export Plug-In . SVG Version: 6.00 Build 0)  -->
<svg version="1.1" id="Content" xmlns="http://www.w3.org/2000/svg" xmlns:xlink="http://www.w3.org/1999/xlink" x="0px" y="0px"
	 viewBox="0 0 640 1136" style="enable-background:new 0 0 640 1136;" xml:space="preserve">
<style type="text/css">
	.st0{fill:url(#SVGID_1_);}
	.st1{fill:#FFFFFF;}
	.st2{fill:#B89344;}
</style>
<title>lemon</title>
<linearGradient id="SVGID_1_" gradientUnits="userSpaceOnUse" x1="138.84" y1="356.455" x2="227.41" y2="356.455" gradientTransform="matrix(1 0 0 -1 0 1136)">
	<stop  offset="0" style="stop-color:#A68834"/>
	<stop  offset="0.49" style="stop-color:#C8AD67"/>
	<stop  offset="1" style="stop-color:#937F2E"/>
</linearGradient>
<polygon class="st0" points="152.5,813 138.8,769.7 169.5,736.3 213.8,746.1 227.4,789.4 196.8,822.8 "/>
<path class="st1" d="M201.6,774.6c-2.4-5.9-9.4-10-18.4-9.9s-16,4.1-18.4,9.9c-2.2,1-4.7,3-4.7,4.9s2.5,4,4.7,4.9
	c2.4,5.7,9.4,9.9,18.3,9.9s15.9-4.2,18.4-9.9c2.3-1,4.6-3,4.6-4.9S203.9,775.6,201.6,774.6"/>
<path class="st2" d="M144.2,850.8v13.6h8.9v3.1h-12.2v-16.7H144.2z"/>
<path class="st2" d="M155.8,867.5v-16.7h12.2v3.1h-8.9v3.5h6.7v3.1h-6.7v3.8h8.9v3.1L155.8,867.5z"/>
<path class="st2" d="M171.4,867.5v-16.7h1.1l7.2,8.2l7.2-8.2h1.1v16.7h-3.3v-9.7l-5,5.5l-5-5.5v9.7H171.4z"/>
<path class="st2" d="M193,865.1c-3.4-3.3-3.5-8.7-0.2-12.1c3.3-3.4,8.7-3.5,12.1-0.2s3.5,8.7,0.2,12.1c-1.6,1.7-3.9,2.6-6.2,2.6
	C196.7,867.6,194.6,866.7,193,865.1z M199,864.4c1.4,0,2.7-0.5,3.6-1.5c1.9-2.1,1.9-5.3,0-7.4c-2-2-5.2-2-7.2,0c0,0,0,0,0,0
	c-1.9,2.1-1.9,5.3,0,7.4C196.3,863.9,197.6,864.4,199,864.4z"/>
<path class="st2" d="M209.8,867.5v-16.7h1.1l10.4,10.5v-10.5h3.3v16.7h-1.2l-10.3-10.3v10.3H209.8z"/>
</svg>
