<svg xmlns="http://www.w3.org/2000/svg" xmlns:xlink="http://www.w3.org/1999/xlink" width="727.99955" height="90" viewBox="0 0 727.99955 90"><defs><style>.cls-1{fill:#ba9544;}.cls-2{fill:#fff;stroke:#ba9544;stroke-miterlimit:10;stroke-width:0.5px;}.cls-3{clip-path:url(#clip-path);}</style><clipPath id="clip-path"><polygon class="cls-1" points="221.661 59.991 228.27 69.353 228.4 69.365 228.4 50.463 228.27 50.459 221.661 59.991"/></clipPath></defs><title>CBD - Sensi Star</title><g id="Content"><polygon class="cls-2" points="359.055 50.934 228.126 50.438 221.517 59.969 228.126 69.331 359.055 69.108 365.004 60.021 359.055 50.934"/><polygon class="cls-1" points="221.661 59.991 228.27 69.353 228.4 69.365 228.4 50.463 228.27 50.459 221.661 59.991"/><g class="cls-3"><rect class="cls-1" x="220.19889" y="48.99763" width="9.65939" height="21.82797"/></g><path class="cls-1" d="M298.43689,63.11378a3.20568,3.20568,0,0,1,2.28028-5.48828,3.46793,3.46793,0,0,1,2.35449.85352l-.85449.93652a2.36249,2.36249,0,0,0-1.5-.51269,1.82755,1.82755,0,0,0-1.91895,1.90625,1.91792,1.91792,0,0,0,.53418,1.418,1.89311,1.89311,0,0,0,1.39355.52539,2.29764,2.29764,0,0,0,1.49122-.50781l.85449.93555a3.45434,3.45434,0,0,1-2.35449.85547A3.12381,3.12381,0,0,1,298.43689,63.11378Z"/><path class="cls-1" d="M309.00428,60.6548a1.82058,1.82058,0,0,1-1.043,3.38476l-3.60645-.0039V57.62941h3.40137q1.62012.09375,1.709,1.88476A1.34089,1.34089,0,0,1,309.00428,60.6548Zm-3.36329-.457h1.79493a.72414.72414,0,0,0,.79492-.79883c-.01465-.31445-.27539-.47852-.78223-.49609H305.641Zm0,2.83789h2.09375a.83721.83721,0,0,0,.92286-.92774q-.02052-.61523-.91016-.64062H305.641Z"/><path class="cls-1" d="M311.17517,64.03566v-6.415h2.47071q2.99121,0,2.99121,3.21,0,3.20508-2.99121,3.20508Zm2.47071-1.27832q1.70508-.0044,1.709-1.92676-.00439-1.9248-1.709-1.92383H312.4574v3.85059Z"/><path class="cls-1" d="M321.05994,59.94777a.62077.62077,0,0,1,.46191-.17383.64364.64364,0,0,1,.47852.17383.62194.62194,0,0,1,0,.85644.73233.73233,0,0,1-.94043,0,.62194.62194,0,0,1,0-.85644Zm0,3.05957a.62019.62019,0,0,1,.46191-.17285.64315.64315,0,0,1,.47852.17285.586.586,0,0,1,.1709.42969.57627.57627,0,0,1-.1709.42675.72913.72913,0,0,1-.94043,0,.57627.57627,0,0,1-.1709-.42675A.586.586,0,0,1,321.05994,63.00734Z"/><path class="cls-1" d="M330.23084,59.46242l-2.47949,1.36816,2.47949,1.36719v.98242l-4.05176-2.22656v-.27735l4.05176-2.19726Z"/><path class="cls-1" d="M335.78162,57.6255v-.00488h1.27832v6.415h-1.27832V59.33449l-.85449.85449-.8545-.85449Z"/></g></svg>