<svg xmlns="http://www.w3.org/2000/svg" width="727.99955" height="90" viewBox="0 0 727.99955 90"><defs><style>.cls-1{fill:#fff;stroke:#ba9544;stroke-miterlimit:10;stroke-width:0.5px;}.cls-2{fill:#ba9544;}</style></defs><title>THC - Sensi Star</title><g id="Content"><polygon class="cls-1" points="359.055 21.132 228.126 20.635 221.517 30.167 228.126 39.529 359.055 39.306 365.004 30.219 359.055 21.132"/><polygon class="cls-2" points="228.222 20.635 221.612 30.167 228.222 39.529 248.287 39.529 248.355 20.635 228.222 20.635"/><path class="cls-2" d="M303.06385,27.15187v1.19629h-2.13672V33.562H299.6449V28.34816h-2.13672V27.15187Z"/><path class="cls-2" d="M304.016,33.562V27.15187h1.28223v2.56348h2.98731V27.147h1.28222v6.41015l-1.28222.00489V30.91261h-2.98731V33.562Z"/><path class="cls-2" d="M311.556,32.64113a3.20665,3.20665,0,0,1,2.28028-5.48926,3.464,3.464,0,0,1,2.35449.85449l-.85449.93555a2.36162,2.36162,0,0,0-1.5-.51172,1.82608,1.82608,0,0,0-1.919,1.90527,1.92185,1.92185,0,0,0,.53418,1.41895,1.897,1.897,0,0,0,1.39356.52539,2.303,2.303,0,0,0,1.49121-.50781l.85449.93554a3.45349,3.45349,0,0,1-2.35449.8545A3.11915,3.11915,0,0,1,311.556,32.64113Z"/><path class="cls-2" d="M317.62732,29.47413a.62023.62023,0,0,1,.46192-.17285.64318.64318,0,0,1,.47851.17285.58761.58761,0,0,1,.1709.42969.57628.57628,0,0,1-.1709.42676.72916.72916,0,0,1-.94043,0,.57628.57628,0,0,1-.1709-.42676A.58761.58761,0,0,1,317.62732,29.47413Zm0,3.05957a.61965.61965,0,0,1,.46192-.17187.6427.6427,0,0,1,.47851.17187.58761.58761,0,0,1,.1709.42969.577.577,0,0,1-.1709.42774.73233.73233,0,0,1-.94043,0,.577.577,0,0,1-.1709-.42774A.58761.58761,0,0,1,317.62732,32.5337Z"/><path class="cls-2" d="M324.45154,27.15187V27.147h1.27832v6.415h-1.27832v-4.7002l-.85449.85352-.85449-.85352Z"/><path class="cls-2" d="M327.0072,30.44679a3.883,3.883,0,0,1,.66211-2.4082,2.16586,2.16586,0,0,1,1.77344-.88281,2.68832,2.68832,0,0,1,1.79492.63671l-.64062.8545a2.27076,2.27076,0,0,0-1.09863-.25586,1.13591,1.13591,0,0,0-.88477.36328,1.7217,1.7217,0,0,0-.36719,1.08984,1.98619,1.98619,0,0,1,1.28223-.55566,2.14074,2.14074,0,0,1,1.64551.57715,2.2081,2.2081,0,0,1,.53418,1.55957,2.10017,2.10017,0,0,1-.59864,1.5166,2.26427,2.26427,0,0,1-1.71.62012,2.14169,2.14169,0,0,1-1.83691-.86817A3.96615,3.96615,0,0,1,327.0072,30.44679Zm1.41016.9834q.04248.8921,1.02539.93164.98292-.03956,1.02637-.85156a.96889.96889,0,0,0-1.06934-1.06836A.95243.95243,0,0,0,328.41736,31.43019Z"/><path class="cls-2" d="M332.8617,31.84816v-.84961h2.64941v.84961Z"/><path class="cls-2" d="M338.92517,27.15187a2.42034,2.42034,0,0,1,1.541.47168,1.684,1.684,0,0,1,.60059,1.4082,2.93871,2.93871,0,0,1-.85254,2.03516A5.91048,5.91048,0,0,1,338.806,32.2798h2.30762V33.562h-4.32031V32.2798q.42627,0,1.624-1.06836a6.12142,6.12142,0,0,0,1.38867-1.51758,1.04185,1.04185,0,0,0-.02148-.89648q-.21387-.44824-1.02539-.44922a1.47025,1.47025,0,0,0-1.19727.51367l-.85449-.85547a3.53826,3.53826,0,0,1,.833-.64062A3.20952,3.20952,0,0,1,338.92517,27.15187Z"/><path class="cls-2" d="M342.95545,32.64113a4.396,4.396,0,0,1,0-4.57032,2.05132,2.05132,0,0,1,3.4209,0,4.411,4.411,0,0,1,0,4.57227,2.05011,2.05011,0,0,1-3.4209-.002Zm1.71386-.27539q.42335,0,.74317-.57715a3.35954,3.35954,0,0,0,0-2.86328q-.32081-.57716-.752-.57715-.42334,0-.74317.57715a3.35028,3.35028,0,0,0,0,2.86328Q344.2367,32.36573,344.66931,32.36574Z"/><path class="cls-2" d="M348.54138,29.857a1.65014,1.65014,0,1,1,1.14551.46191A1.55578,1.55578,0,0,1,348.54138,29.857Zm1.13184-.29981a.76065.76065,0,0,0,.58594-.24316.92363.92363,0,0,0,0-1.21192.77428.77428,0,0,0-.58985-.24023.76379.76379,0,0,0-.58105.24023.92363.92363,0,0,0,0,1.21192A.76.76,0,0,0,349.67322,29.55714Zm-.3418,4.00489,3.63282-6.41016h1.043l-3.624,6.41016Zm3.18457-.42286a1.64213,1.64213,0,1,1,1.13672.457A1.54011,1.54011,0,0,1,352.516,33.13917Zm1.11524-.3125a.74839.74839,0,0,0,.57226-.23632.8926.8926,0,0,0,0-1.17969.7547.7547,0,0,0-.57714-.23828.74586.74586,0,0,0-.56836.23828.89556.89556,0,0,0,0,1.17969A.75053.75053,0,0,0,353.63123,32.82667Z"/></g></svg>