<svg id="Content" xmlns="http://www.w3.org/2000/svg" xmlns:xlink="http://www.w3.org/1999/xlink" width="300" height="600" viewBox="0 0 300 600"><defs><style>.cls-1{fill:#ba9544;}.cls-2{fill:#fff;stroke:#ba9544;stroke-miterlimit:10;stroke-width:0.5px;}.cls-3{clip-path:url(#clip-path);}</style><clipPath id="clip-path"><polygon class="cls-1" points="47.548 320.845 56.941 334.151 57.126 334.167 57.126 307.303 56.941 307.297 47.548 320.845"/></clipPath></defs><title>CBD - Ultra Sour</title><polygon class="cls-2" points="242.819 307.972 56.736 307.267 47.343 320.813 56.736 334.119 242.819 333.802 251.273 320.888 242.819 307.972"/><polygon class="cls-1" points="47.548 320.845 56.941 334.151 57.126 334.167 57.126 307.303 56.941 307.297 47.548 320.845"/><g class="cls-3"><rect class="cls-1" x="45.46999" y="305.22046" width="13.72836" height="31.0229"/></g><path class="cls-1" d="M156.667,325.28214a4.55728,4.55728,0,0,1,3.24024-7.80176,4.93107,4.93107,0,0,1,3.34668,1.21485l-1.21485,1.33008a3.361,3.361,0,0,0-2.13183-.72852,2.59585,2.59585,0,0,0-2.72657,2.708,2.73225,2.73225,0,0,0,.75879,2.01758,2.68872,2.68872,0,0,0,1.98047.74609,3.26,3.26,0,0,0,2.11914-.72266l1.21485,1.33008a4.91059,4.91059,0,0,1-3.34668,1.21484A4.43077,4.43077,0,0,1,156.667,325.28214Z"/><path class="cls-1" d="M171.68457,321.787a2.58656,2.58656,0,0,1-1.48242,4.80957l-5.126-.00586v-9.10351h4.835q2.30127.13184,2.42969,2.67773A1.90662,1.90662,0,0,1,171.68457,321.787Zm-4.78027-.64941h2.55078a1.029,1.029,0,0,0,1.12988-1.13672q-.03077-.668-1.11133-.7041H166.9043Zm0,4.03223h2.97656a1.18948,1.18948,0,0,0,1.31152-1.31739c-.0205-.584-.45117-.88672-1.29394-.91211H166.9043Z"/><path class="cls-1" d="M174.76953,326.59073v-9.11621h3.51074q4.251,0,4.252,4.56153,0,4.55566-4.252,4.55468Zm3.51074-1.81542q2.42286-.00586,2.42969-2.73926-.00587-2.73341-2.42969-2.7334H176.5918v5.47266Z"/><path class="cls-1" d="M188.81836,320.78214a.88086.88086,0,0,1,.65625-.24609.9125.9125,0,0,1,.67969.24609.8328.8328,0,0,1,.24316.60938.82213.82213,0,0,1-.24316.60742,1.03586,1.03586,0,0,1-1.33594,0,.82213.82213,0,0,1-.24316-.60742A.8328.8328,0,0,1,188.81836,320.78214Zm0,4.34766a.88407.88407,0,0,1,.65625-.24512.91586.91586,0,0,1,.67969.24512.8357.8357,0,0,1,.24316.61133.82523.82523,0,0,1-.24316.60742,1.04227,1.04227,0,0,1-1.33594,0,.82523.82523,0,0,1-.24316-.60742A.8357.8357,0,0,1,188.81836,325.1298Z"/><path class="cls-1" d="M201.85352,320.09269l-3.52344,1.94336,3.52344,1.94336v1.39648l-5.75782-3.16406v-.39453l5.75782-3.12207Z"/><path class="cls-1" d="M209.74316,317.48038v-.00586h1.81641v9.11621h-1.81641v-6.68066l-1.21484,1.21484-1.21484-1.21484Z"/></svg>