<svg id="Content" xmlns="http://www.w3.org/2000/svg" xmlns:xlink="http://www.w3.org/1999/xlink" width="300" height="250" viewBox="0 0 300 250"><defs><style>.cls-1{fill:url(#New_Gradient_Swatch_1);}.cls-2{fill:#fff;}.cls-3{fill:#ba9544;}</style><linearGradient id="New_Gradient_Swatch_1" x1="255.08808" y1="154.74513" x2="284.61514" y2="154.74513" gradientUnits="userSpaceOnUse"><stop offset="0" stop-color="#a88a34"/><stop offset="0.49324" stop-color="#caaf67"/><stop offset="1" stop-color="#957f2e"/></linearGradient></defs><title>citrus</title><polygon class="cls-1" points="277.233 141.96 262.47 141.96 255.088 154.744 262.47 167.53 277.233 167.53 284.615 154.744 277.233 141.96"/><path class="cls-2" d="M275.89051,156.5556a6.49076,6.49076,0,0,1-9.83916-8.43571l-.60088-.51582a7.28167,7.28167,0,0,0,11.04092,9.46737Z"/><path class="cls-2" d="M265.32946,152.71268a5.89865,5.89865,0,0,0,1.83147,3.66019l3.4887-4.069Z"/><path class="cls-2" d="M267.56426,156.718a5.90081,5.90081,0,0,0,3.8399,1.25391l-.40333-5.26118Z"/><path class="cls-2" d="M266.485,148.49167a5.8981,5.8981,0,0,0-1.1908,3.69174l5.04442-.38824Z"/><path class="cls-2" d="M275.45575,156.18341l-3.914-3.35562.391,5.102a5.89581,5.89581,0,0,0,3.523-1.74642"/><path class="cls-2" d="M270.62535,151.35548c.02606-.33062.21127-.54052.42116-.557.20853-.01784.36355.16326.33748.49388a1.12439,1.12439,0,0,1-.42665.62969.72751.72751,0,0,1-.332-.56659"/><path class="cls-2" d="M271.99257,151.671c.321-.09465.53228.01646.55836.22362.02606.20578-.14269.4294-.46233.52406a.74032.74032,0,0,1-.6297-.203s.21265-.45.53367-.54464"/><path class="cls-2" d="M272.58591,161.89662a.685.685,0,1,1-1.36915.048c-.01235-.37727.64616-1.12495.64616-1.12495s.71063.69967.723,1.07693"/><path class="cls-2" d="M272.34213,161.45049a.19223.19223,0,0,1-.16463.214l-.56934.02058a.193.193,0,0,1-.17834-.20167,2.06047,2.06047,0,0,0,.06173-1.092c-.21813-.6489-1.73817-1.15924-1.64351-1.162l3.13064-.21951a2.264,2.264,0,0,0-.84234,1.37738,1.428,1.428,0,0,0,.20579,1.06321"/><path class="cls-3" d="M256.43849,184.165a2.714,2.714,0,0,1,1.92969-4.64649,2.93471,2.93471,0,0,1,1.99316.72364l-.72363.792a2.00276,2.00276,0,0,0-1.26953-.43457,1.59464,1.59464,0,0,0-1.17773.456,1.57774,1.57774,0,0,0-.44629,1.15723,1.62566,1.62566,0,0,0,.45214,1.20117,1.599,1.599,0,0,0,1.17872.44532,1.94416,1.94416,0,0,0,1.26269-.43067l.72363.792a2.92771,2.92771,0,0,1-1.99316.72364A2.64045,2.64045,0,0,1,256.43849,184.165Z"/><path class="cls-3" d="M261.53029,179.51465h1.08105v5.42969h-1.08105Z"/><path class="cls-3" d="M268.127,179.51855v1.0127h-1.80859v4.41309h-1.085v-4.41309h-1.80859v-1.0127Z"/><path class="cls-3" d="M272.20021,182.5791l1.35352,2.36524h-1.24414l-1.29883-2.24317h-.99121v2.24317h-1.085v-5.42579h2.36523q1.8999,0,1.89941,1.5625A1.40356,1.40356,0,0,1,272.20021,182.5791Zm-2.18066-.89062h1.51953q.65332-.01026.67285-.59668-.019-.53467-.66211-.55664h-1.53027Z"/><path class="cls-3" d="M275.12013,179.51855V182.665a1.08727,1.08727,0,0,0,.36133.9043,1.55474,1.55474,0,0,0,1.80859,0,1.08724,1.08724,0,0,0,.36133-.9043v-3.14649h1.08594v3.43653a1.79684,1.79684,0,0,1-.66992,1.41015,2.73116,2.73116,0,0,1-3.36328,0,1.79684,1.79684,0,0,1-.66992-1.41015v-3.43653Z"/><path class="cls-3" d="M282.84572,179.69922a2.53869,2.53869,0,0,1,.77832.543l-.72363.72363a1.24454,1.24454,0,0,0-1.0127-.43457q-.65186,0-.832.30762a.4217.4217,0,0,0,0,.52441,1.42771,1.42771,0,0,0,.832.3252,2.705,2.705,0,0,1,1.248.45214,1.36093,1.36093,0,0,1,.56054,1.21192,1.39188,1.39188,0,0,1-.59863,1.12109,2.18851,2.18851,0,0,1-1.39453.47071,3.21933,3.21933,0,0,1-1.26269-.2168,2.73161,2.73161,0,0,1-.86817-.5791l.72363-.72364a1.71973,1.71973,0,0,0,1.2295.50684q.72363,0,.90234-.30762a.57023.57023,0,0,0,0-.61523q-.17871-.30762-.90234-.37988a2.91411,2.91411,0,0,1-1.19336-.39746,1.20114,1.20114,0,0,1-.543-1.1211,1.35156,1.35156,0,0,1,.61719-1.15625,2.17591,2.17591,0,0,1,1.26757-.43555A3.03624,3.03624,0,0,1,282.84572,179.69922Z"/></svg>