<svg id="Content" xmlns="http://www.w3.org/2000/svg" xmlns:xlink="http://www.w3.org/1999/xlink" width="640" height="1136" viewBox="0 0 640 1136"><defs><style>.cls-1{fill:url(#New_Gradient_Swatch_1);}.cls-2{fill:#fff;}.cls-3{fill:#ba9544;}</style><linearGradient id="New_Gradient_Swatch_1" x1="127.18716" y1="460.43012" x2="219.73189" y2="460.43012" gradientUnits="userSpaceOnUse"><stop offset="0" stop-color="#a88a34"/><stop offset="0.49324" stop-color="#caaf67"/><stop offset="1" stop-color="#957f2e"/></linearGradient></defs><title>berry</title><polygon class="cls-1" points="165.629 413.093 127.187 457.487 157.531 507.767 214.726 494.447 219.732 435.937 165.629 413.093"/><path class="cls-2" d="M186.91321,465.42073a.84462.84462,0,1,1-.18035-1.18332.85222.85222,0,0,1,.18035,1.18332m-5.05-10.7114a1.06455,1.06455,0,1,1,1.06014-1.06453,1.06824,1.06824,0,0,1-1.06014,1.06453M180.8031,467.541a1.06455,1.06455,0,1,1,1.06454-1.06454,1.07021,1.07021,0,0,1-1.06454,1.06454m-.16277-7.83009a.8512.8512,0,1,1-.85339.849.85234.85234,0,0,1,.85339-.849m-2.26105,13.82143a.93.93,0,1,1-.34751-1.27128.9225.9225,0,0,1,.34751,1.27128m-4.36814-13.927a.937.937,0,1,1,.937-.937.93213.93213,0,0,1-.937.937m-.27273,7.14387a.85119.85119,0,1,1,.849-.849.85614.85614,0,0,1-.849.849m-2.75813,3.81388a.849.849,0,1,1,.849-.849.85612.85612,0,0,1-.849.849m-.96336-6.73476a1.05948,1.05948,0,1,1-.12317-1.49564,1.06368,1.06368,0,0,1,.12317,1.49564m-2.64816-8.77147a.93478.93478,0,1,1,.93257.937.93875.93875,0,0,1-.93257-.937m13.62789-5.65264a22.22538,22.22538,0,0,0,4.764-3.66428,12.72332,12.72332,0,0,0-6.03973.61585,8.75042,8.75042,0,0,0,.93257-4.6497c-1.50883.1232-2.64815,1.3021-3.48395,2.77135a8.664,8.664,0,0,0-1.20971-4.091c-1.48244.87977-1.92233,2.78893-1.93553,4.72444-.849-1.6056-2.02791-2.95167-3.65111-3.07484a8.771,8.771,0,0,0,.84019,4.46051,12.35991,12.35991,0,0,0-6.36965-.7566,21.59642,21.59642,0,0,0,5.02358,3.80067c-5.03678,1.08654-8.55152,3.89746-8.55152,9.77,0,7.97527,10.07356,21.16327,14.45049,21.16327,4.73765,0,14.45049-13.188,14.45049-21.16327.03079-6.13211-3.81388-8.94742-9.22016-9.9064"/><path class="cls-3" d="M144.47837,548.09294a4.97921,4.97921,0,0,1,2.42383,3.97851q-.23145,4.91748-5.25391,5.208l-9.78906-.01172V539.881h9.23242q4.39746.25489,4.64063,5.11524Q145.65025,547.31657,144.47837,548.09294Zm-9.127-1.24121h4.87109a1.96276,1.96276,0,0,0,2.15625-2.16895c-.03711-.85058-.74609-1.29883-2.12109-1.34472h-4.90625Zm0,7.70215H141.035a2.27108,2.27108,0,0,0,2.50391-2.51758q-.0586-1.66992-2.47071-1.73926h-5.71679Z"/><path class="cls-3" d="M150.32407,557.26774V539.881l12.78321-.01171v3.248h-9.30274v3.71192h6.97071v3.23535h-6.97071v3.95508h9.2793v3.248Z"/><path class="cls-3" d="M177.08384,549.68181l4.33789,7.58593H177.4315l-4.16407-7.1914H170.0897v7.1914h-3.48047V539.86931h7.58594q6.09081,0,6.08984,5.01074Q180.285,548.65056,177.08384,549.68181Zm-6.99414-2.85254h4.87109q2.09766-.03516,2.15821-1.91407-.05861-1.7168-2.12305-1.78613H170.0897Z"/><path class="cls-3" d="M193.70493,549.68181l4.33789,7.58593h-3.99023l-4.16406-7.1914h-3.17774v7.1914h-3.48047V539.86931h7.58594q6.09082,0,6.08984,5.01074Q196.9061,548.65056,193.70493,549.68181Zm-6.99414-2.85254h4.8711q2.09765-.03516,2.1582-1.91407-.05859-1.7168-2.12305-1.78613h-4.90625Z"/><path class="cls-3" d="M198.83189,539.86931h4.082l4.03711,5.68359,4.1289-5.68359h3.99024l-6.38086,8.69921v8.69922h-3.47852v-8.69922Z"/></svg>