<svg id="Content" xmlns="http://www.w3.org/2000/svg" xmlns:xlink="http://www.w3.org/1999/xlink" width="640" height="1136" viewBox="0 0 640 1136"><defs><style>.cls-1{fill:url(#New_Gradient_Swatch_1);}.cls-2{fill:#fff;}.cls-3{fill:#ba9544;}</style><linearGradient id="New_Gradient_Swatch_1" x1="423.33015" y1="465.48673" x2="514.41884" y2="465.48673" gradientUnits="userSpaceOnUse"><stop offset="0" stop-color="#a88a34"/><stop offset="0.49324" stop-color="#caaf67"/><stop offset="1" stop-color="#957f2e"/></linearGradient></defs><title>pine</title><polygon class="cls-1" points="505.322 497.036 459.775 512.824 423.33 481.275 432.432 433.938 477.974 418.15 514.419 449.699 505.322 497.036"/><path class="cls-2" d="M484.024,479.79514l-15.22913-36.35277-15.06635,36.35277,14.30532,2.86371v4.06461a.84071.84071,0,0,0,1.68041,0v-4.06461Z"/><path class="cls-3" d="M441.00767,557.26774V539.86931h7.58593q6.0879,0,6.0879,5.01074,0,5.19726-6.07813,5.19629h-4.11719v7.1914Zm3.47851-10.43847h4.8711q2.10059-.03516,2.1582-1.91407-.05859-1.7168-2.12305-1.78613h-4.90625Z"/><path class="cls-3" d="M457.246,539.85759h3.4668v17.41015H457.246Z"/><path class="cls-3" d="M464.20493,557.26774V539.86931h1.16016l10.90234,10.90332V539.86931H479.746v17.39843h-1.27539l-10.78711-10.78711v10.78711Z"/><path class="cls-3" d="M483.3065,557.26774V539.881l12.7832-.01171v3.248H486.787v3.71192h6.97071v3.23535H486.787v3.95508h9.2793v3.248Z"/></svg>