<svg id="Content" xmlns="http://www.w3.org/2000/svg" width="640" height="1136" viewBox="0 0 640 1136"><defs><style>.cls-1{fill:#fff;stroke:#ba9544;stroke-miterlimit:10;}.cls-2{fill:#ba9544;}</style></defs><title>THC - Sensi Star</title><polygon class="cls-1" points="507.669 602.516 135.504 601.105 116.717 628.198 135.504 654.809 507.669 654.175 524.577 628.347 507.669 602.516"/><polygon class="cls-2" points="135.775 601.105 116.988 628.198 135.775 654.809 192.812 654.809 193.003 601.105 135.775 601.105"/><path class="cls-2" d="M348.51546,619.62712v3.40136h-6.07324V637.8488h-3.64453V623.02848h-6.07325v-3.40136Z"/><path class="cls-2" d="M351.22444,637.8488V619.62712H354.869v7.28906h8.49121V619.6154h3.64355v18.22168l-3.64355.01172v-7.53125H354.869v7.53125Z"/><path class="cls-2" d="M372.659,635.23063a9.11408,9.11408,0,0,1,6.48047-15.60351,9.8603,9.8603,0,0,1,6.69336,2.42969l-2.42871,2.66015a6.72118,6.72118,0,0,0-4.26465-1.457,5.19325,5.19325,0,0,0-5.4541,5.417,5.46345,5.46345,0,0,0,1.51856,4.03321,5.37785,5.37785,0,0,0,3.96,1.49414,6.53258,6.53258,0,0,0,4.24023-1.44532l2.42871,2.66016a9.82589,9.82589,0,0,1-6.69336,2.42969A8.86311,8.86311,0,0,1,372.659,635.23063Z"/><path class="cls-2" d="M389.91487,626.22966a1.75791,1.75791,0,0,1,1.31153-.49219,1.82428,1.82428,0,0,1,1.36035.49219,1.66851,1.66851,0,0,1,.48633,1.2207,1.64735,1.64735,0,0,1-.48633,1.21484,2.07807,2.07807,0,0,1-2.67188,0,1.64734,1.64734,0,0,1-.48632-1.21484A1.6685,1.6685,0,0,1,389.91487,626.22966Zm0,8.69726a1.76113,1.76113,0,0,1,1.31153-.49121,1.82765,1.82765,0,0,1,1.36035.49121,1.6692,1.6692,0,0,1,.48633,1.22168,1.64515,1.64515,0,0,1-.48633,1.21387,2.07807,2.07807,0,0,1-2.67188,0,1.64514,1.64514,0,0,1-.48632-1.21387A1.66919,1.66919,0,0,1,389.91487,634.92692Z"/><path class="cls-2" d="M409.31331,619.62712v-.01172h3.63281v18.2334h-3.63281V624.48649l-2.42969,2.42969-2.42871-2.42969Z"/><path class="cls-2" d="M416.578,628.99333a11.03579,11.03579,0,0,1,1.88281-6.8457,6.153,6.153,0,0,1,5.041-2.50782,7.6495,7.6495,0,0,1,5.10254,1.80957l-1.82227,2.42969a6.41469,6.41469,0,0,0-3.12207-.72851,3.226,3.226,0,0,0-2.51465,1.03222,4.88654,4.88654,0,0,0-1.04492,3.09766,5.66091,5.66091,0,0,1,3.64453-1.5791,6.084,6.084,0,0,1,4.67676,1.63964,6.26834,6.26834,0,0,1,1.51855,4.4336,5.9758,5.9758,0,0,1-1.70019,4.3125,6.44249,6.44249,0,0,1-4.85938,1.76172q-3.64452-.12159-5.22363-2.46582A11.30458,11.30458,0,0,1,416.578,628.99333Zm4.00879,2.79394q.12158,2.53858,2.915,2.64844,2.79492-.10986,2.916-2.418-.12158-3.03661-3.03711-3.03711A2.70618,2.70618,0,0,0,420.58675,631.78727Z"/><path class="cls-2" d="M433.21956,632.9777v-2.417h7.53125v2.417Z"/><path class="cls-2" d="M450.45687,619.62712a6.87317,6.87317,0,0,1,4.3789,1.34277,4.781,4.781,0,0,1,1.707,4.00293,8.34451,8.34451,0,0,1-2.42382,5.78223,16.81813,16.81813,0,0,1-4.002,3.44922h6.55957v3.64453H444.39534v-3.64453q1.21436,0,4.61621-3.03614,3.40137-3.03809,3.94727-4.3125a2.96367,2.96367,0,0,0-.06055-2.55175q-.60644-1.27442-2.915-1.2754a4.18326,4.18326,0,0,0-3.40136,1.458l-2.42969-2.42968a10.0651,10.0651,0,0,1,2.36914-1.82227A9.12632,9.12632,0,0,1,450.45687,619.62712Z"/><path class="cls-2" d="M461.91194,635.23063a12.4882,12.4882,0,0,1,0-12.99121,5.83128,5.83128,0,0,1,9.72461,0,12.54059,12.54059,0,0,1,0,12.99805,5.82827,5.82827,0,0,1-9.72461-.00684Zm4.8711-.7832q1.20264,0,2.11426-1.63965a9.5429,9.5429,0,0,0,0-8.13867q-.91114-1.64062-2.13868-1.64063-1.20263,0-2.11328,1.64063a9.5429,9.5429,0,0,0,0,8.13867Q465.55647,634.447,466.783,634.44743Z"/><path class="cls-2" d="M477.7889,627.31657a4.69458,4.69458,0,1,1,3.25586,1.3125A4.4197,4.4197,0,0,1,477.7889,627.31657Zm3.21972-.84961a2.17281,2.17281,0,0,0,1.66407-.69238,2.62607,2.62607,0,0,0,0-3.44434,2.19657,2.19657,0,0,0-1.67676-.68652,2.1645,2.1645,0,0,0-1.65137.68652,2.62306,2.62306,0,0,0,0,3.44434A2.16989,2.16989,0,0,0,481.00862,626.467Zm-.97168,11.38184,10.3252-18.22168H493.326L483.02523,637.8488Zm9.04981-1.20215a4.66554,4.66554,0,1,1,3.23047,1.2998A4.3864,4.3864,0,0,1,489.08675,636.64665Zm3.16992-.8877a2.131,2.131,0,0,0,1.62793-.67382,2.53947,2.53947,0,0,0,0-3.35254,2.14483,2.14483,0,0,0-1.63965-.67383,2.11863,2.11863,0,0,0-1.61621.67383,2.54243,2.54243,0,0,0,0,3.35254A2.13243,2.13243,0,0,0,492.25667,635.759Z"/></svg>