<svg id="Content" xmlns="http://www.w3.org/2000/svg" xmlns:xlink="http://www.w3.org/1999/xlink" viewBox="0 0 640 1136"><defs><style>.cls-1{fill:#b89344;}.cls-2{fill:none;stroke:#ba9544;stroke-miterlimit:10;stroke-width:0.53px;}</style></defs><title>Frame2 - Daytime CBD</title><path class="cls-1" d="M152.6,617.84h12.25c7.74,0,11.54,4.3,11.54,12.18v24.92c0,7.89-3.8,12.18-11.54,12.18H152.6Zm7.74,7v35.2h4.37c2.46,0,3.94-1.26,3.94-4.78V629.67c0-3.52-1.48-4.79-3.94-4.79Z"/><path class="cls-1" d="M212.44,667.12h-7.82l-1.34-8.94h-9.5l-1.34,8.94h-7.11l7.89-49.28h11.33Zm-17.67-15.63h7.46l-3.73-24.92Z"/><path class="cls-1" d="M223.7,650.79l-9.79-32.95H222l5.91,22.46,5.92-22.46h7.39l-9.79,32.95v16.33H223.7Z"/><path class="cls-1" d="M245.31,617.84h23.94v7h-8.1v42.24h-7.74V624.88h-8.1Z"/><path class="cls-1" d="M278.68,617.84h7.75v49.28h-7.75Z"/><path class="cls-1" d="M315.93,652.83l5.28-35H332v49.28h-7.32V631.78l-5.36,35.34H312l-5.77-34.85v34.85h-6.76V617.84h10.77Z"/><path class="cls-1" d="M352.81,638.61h10.64v7H352.81v14.43h13.38v7H345.07V617.84h21.12v7H352.81Z"/><path class="cls-1" d="M419.27,648.75v6.55c0,7.88-3.94,12.39-11.54,12.39s-11.55-4.51-11.55-12.39V629.67c0-7.89,3.94-12.39,11.55-12.39s11.54,4.5,11.54,12.39v4.79H412v-5.28c0-3.52-1.55-4.86-4-4.86s-4,1.34-4,4.86v26.61c0,3.52,1.55,4.79,4,4.79s4-1.27,4-4.79v-7Z"/><path class="cls-1" d="M454.61,629.18v1.76c0,5.07-1.54,8.3-5,9.92,4.15,1.62,5.77,5.35,5.77,10.56v4c0,7.6-4,11.68-11.76,11.68H431.45V617.84h11.69C451.16,617.84,454.61,621.57,454.61,629.18Zm-15.41-4.3v13h3c2.89,0,4.65-1.27,4.65-5.21V630c0-3.52-1.2-5.07-3.94-5.07Zm0,20.07v15.13h4.43c2.61,0,4-1.19,4-4.85v-4.3c0-4.58-1.47-6-5-6Z"/><path class="cls-1" d="M467.5,617.84h12.25c7.74,0,11.54,4.3,11.54,12.18v24.92c0,7.89-3.8,12.18-11.54,12.18H467.5Zm7.74,7v35.2h4.36c2.47,0,3.95-1.26,3.95-4.78V629.67c0-3.52-1.48-4.79-3.95-4.79Z"/><image width="1500" height="1261" transform="translate(218.58 -174.04) scale(0.15)" xlink:href="../../../../../Dropbox%20(Revolution%20Strategy)/Rocio%20Ugarte/Clients/Namaste/Digital%20Ads/_Flight%202:Phase%202%20Terpene/1.%20Animated%20w:%20Packaging/9.%20Expandable%20Unit%20640%20x%20100:640%20x%201136/640%20x%20100_640%20x%201136V2_Folder/Links/SmallTopDown-8383-DaytimeCBD.png"/><rect class="cls-2" x="617.06" y="9.35" width="13.38" height="13.38"/><line class="cls-2" x1="619.04" y1="20.8" x2="628.52" y2="11.55"/><line class="cls-2" x1="619.23" y1="11.55" x2="628.48" y2="21.03"/></svg>