<svg id="Content" xmlns="http://www.w3.org/2000/svg" width="640" height="1136" viewBox="0 0 640 1136"><defs><style>.cls-1{fill:#fff;stroke:#ba9544;stroke-miterlimit:10;}.cls-2{fill:#ba9544;}</style></defs><title>THC - Daytime CBD</title><polygon class="cls-1" points="507.667 603.167 135.504 601.757 116.717 628.849 135.504 655.46 507.667 654.827 524.576 628.999 507.667 603.167"/><polygon class="cls-2" points="135.776 601.757 116.989 628.849 135.776 655.461 159.139 655.461 159.139 601.757 135.776 601.757"/><path class="cls-2" d="M348.51465,618.95524v3.40137h-6.07324v14.82031h-3.64453V622.35661h-6.07325v-3.40137Z"/><path class="cls-2" d="M351.22363,637.17692V618.95524h3.64453v7.28907h8.49122v-7.30079h3.64355V637.1652l-3.64355.01172v-7.53125h-8.49122v7.53125Z"/><path class="cls-2" d="M372.6582,634.55876a9.11409,9.11409,0,0,1,6.48047-15.60352,9.86035,9.86035,0,0,1,6.69336,2.42969l-2.42969,2.66016a6.71654,6.71654,0,0,0-4.26367-1.457,5.35273,5.35273,0,0,0-3.9541,1.53027,5.29859,5.29859,0,0,0-1.5,3.88769,5.46267,5.46267,0,0,0,1.51855,4.03223,5.37789,5.37789,0,0,0,3.96,1.49414,6.52806,6.52806,0,0,0,4.23925-1.44531l2.42969,2.66015a9.82764,9.82764,0,0,1-6.69336,2.42969A8.86311,8.86311,0,0,1,372.6582,634.55876Z"/><path class="cls-2" d="M389.91406,625.55778a1.75792,1.75792,0,0,1,1.31153-.49219,1.82431,1.82431,0,0,1,1.36035.49219,1.66852,1.66852,0,0,1,.48633,1.2207,1.64583,1.64583,0,0,1-.48633,1.21485,2.07807,2.07807,0,0,1-2.67188,0,1.64583,1.64583,0,0,1-.48633-1.21485A1.66852,1.66852,0,0,1,389.91406,625.55778Zm0,8.69727a1.7611,1.7611,0,0,1,1.31153-.49121,1.82765,1.82765,0,0,1,1.36035.49121,1.66918,1.66918,0,0,1,.48633,1.22168,1.64512,1.64512,0,0,1-.48633,1.21386,2.07807,2.07807,0,0,1-2.67188,0,1.64512,1.64512,0,0,1-.48633-1.21386A1.66918,1.66918,0,0,1,389.91406,634.25505Z"/><path class="cls-2" d="M416.419,627.9445q.32813.12159.5957.24316,1.88232.85108,1.88281,3.64454a4.6731,4.6731,0,0,1-2.01074,3.76562,7.36367,7.36367,0,0,1-4.68262,1.5791,10.79472,10.79472,0,0,1-4.23926-.72851,9.1768,9.1768,0,0,1-2.916-1.94434l2.42969-2.42871a5.77445,5.77445,0,0,0,4.12988,1.7002q2.43018,0,3.03125-1.03223a1.92592,1.92592,0,0,0,0-2.06543q-.60206-1.03272-4.2334-1.1543v-3.27929q3.63135.24315,4.2334-.79a1.92425,1.92425,0,0,0,0-2.06446q-.60206-1.03271-3.03125-1.0332a4.32554,4.32554,0,0,0-3.52246,1.458l-2.42969-2.42969a8.49907,8.49907,0,0,1,2.61133-1.82227,10.18063,10.18063,0,0,1,3.93652-.60742,6.41548,6.41548,0,0,1,4.43945,1.58008,4.88451,4.88451,0,0,1,1.76758,3.76563q0,2.55029-1.63965,3.46191C416.666,627.8195,416.54883,627.88005,416.419,627.9445Z"/><path class="cls-2" d="M421.86133,632.30583v-2.417h7.53125v2.417Z"/><path class="cls-2" d="M434.84668,637.17692l.0127-1.21484,5.69726-13.60547h-7.79883l-.01269-3.40137h12.43945v1.33692l-6.79,16.88476Z"/><path class="cls-2" d="M449.18066,626.6447a4.69458,4.69458,0,1,1,3.25586,1.3125A4.41977,4.41977,0,0,1,449.18066,626.6447Zm3.21973-.84961a2.17279,2.17279,0,0,0,1.66406-.69239,2.626,2.626,0,0,0,0-3.44433,2.19654,2.19654,0,0,0-1.67675-.68653,2.16451,2.16451,0,0,0-1.65137.68653,2.623,2.623,0,0,0,0,3.44433A2.1699,2.1699,0,0,0,452.40039,625.79509Zm-.97168,11.38183,10.3252-18.22168h2.96386L454.417,637.17692Zm9.04981-1.20215a4.66552,4.66552,0,1,1,3.23046,1.29981A4.38637,4.38637,0,0,1,460.47852,635.97477Zm3.16992-.88769a2.13094,2.13094,0,0,0,1.62793-.67383,2.5395,2.5395,0,0,0,0-3.35254,2.14484,2.14484,0,0,0-1.63965-.67383,2.11717,2.11717,0,0,0-1.61621.67383,2.54243,2.54243,0,0,0,0,3.35254A2.13094,2.13094,0,0,0,463.64844,635.08708Z"/></svg>