<svg id="Layer_1" data-name="Layer 1" xmlns="http://www.w3.org/2000/svg" width="233.5874" height="39.9023" viewBox="0 0 233.5874 39.9023"><defs><style>.cls-1{fill:#ac9655;}</style></defs><title>frame1</title><path class="cls-1" d="M24.7593,15.5146a3.6075,3.6075,0,0,1-3.6221-3.61V3.6455A3.4818,3.4818,0,0,1,22.2,1.08a3.6218,3.6218,0,0,1,5.12.0058,3.51,3.51,0,0,1,1.05,2.56V5.3721H26.0029V3.5977A1.32,1.32,0,0,0,24.687,2.2812a1.2479,1.2479,0,0,0-.9238.3868,1.278,1.278,0,0,0-.38.93V11.88a1.2988,1.2988,0,0,0,1.3037,1.3047,1.277,1.277,0,0,0,.93-.3809,1.2477,1.2477,0,0,0,.3862-.9238V9.791H28.37v2.1133a3.6074,3.6074,0,0,1-3.61,3.61Z"/><path class="cls-1" d="M35.6641,11.8438,35.11,15.3213H32.7334L35.3057.1924h3.1386L40.98,15.3213H38.5806l-.5342-3.4775Zm1.1987-8.1856-.8452,5.9639h1.69Z"/><path class="cls-1" d="M48.5215.1807,51.55,10.3564V.1807h2.2817V15.3213H51.3809L48.2417,5.626v9.6953H45.96V.1807Z"/><path class="cls-1" d="M61.4937.1807,64.522,10.3564V.1807h2.2817V15.3213H64.353L61.2139,5.626v9.6953H58.9316V.1807Z"/><path class="cls-1" d="M74.7017,11.8438l-.5542,3.4775H71.771L74.3433.1924h3.1386l2.5357,15.1289H77.6182l-.5342-3.4775ZM75.9,3.6582l-.8452,5.9639h1.69Z"/><path class="cls-1" d="M84.3237,15.3213V.1807h3.417A4.3542,4.3542,0,0,1,90.18.8926a3.3182,3.3182,0,0,1,1.3281,1.872A5.2712,5.2712,0,0,1,91.7251,4.37a3.5542,3.5542,0,0,1-.8091,2.44,2.28,2.28,0,0,1-.7969.5908,2.6527,2.6527,0,0,1,1.292,1.1475,4.4682,4.4682,0,0,1,.5191,1.497,5.9511,5.9511,0,0,1,.0849,1.0508,5.0528,5.0528,0,0,1-.5434,2.4385A3.252,3.252,0,0,1,90.2764,14.79a3.29,3.29,0,0,1-1.7266.5313Zm2.4634-8.959h.9536a1.3976,1.3976,0,0,0,1.4248-1.0381,2.966,2.966,0,0,0,.1328-.9541,1.9944,1.9944,0,0,0-.4589-1.4248,1.4436,1.4436,0,0,0-1.0987-.4463h-.9536Zm0,6.7012h.9536a1.6193,1.6193,0,0,0,1.606-1.1953,2.6281,2.6281,0,0,0,.1567-.9414,2.87,2.87,0,0,0-.4829-1.8477,1.5557,1.5557,0,0,0-1.28-.5312h-.9536Z"/><path class="cls-1" d="M98.6548,15.3213H96.3726V.1924h2.2822Z"/><path class="cls-1" d="M110.49,11.5547a4.2559,4.2559,0,0,1-.8213,2.7041A2.9547,2.9547,0,0,1,108.1,15.333a4.26,4.26,0,0,1-1.2681.169,3.5836,3.5836,0,0,1-2.2211-.6641,3.7029,3.7029,0,0,1-1.1656-1.4785,5.9724,5.9724,0,0,1-.501-2.1436l2.1734-.1562a3.304,3.304,0,0,0,.7,1.917,1.166,1.166,0,0,0,.9419.4248,1.4146,1.4146,0,0,0,1.1953-.7373,1.83,1.83,0,0,0,.23-1.003,2.7844,2.7844,0,0,0-.8574-1.873q-.676-.64-2.0284-1.9209a8.6658,8.6658,0,0,1-1.6059-1.9707,4.5558,4.5558,0,0,1-.5069-2.127A3.7007,3.7007,0,0,1,104.5737.64a3.4535,3.4535,0,0,1,2.125-.64,3.8619,3.8619,0,0,1,2.0889.543A3.14,3.14,0,0,1,109.88,1.7266a4.3725,4.3725,0,0,1,.5009,1.75l-2.185.3984a2.6349,2.6349,0,0,0-.5313-1.4482,1.1148,1.1148,0,0,0-.9057-.375,1.043,1.043,0,0,0-.9536.5556,2.14,2.14,0,0,0-.2657,1.1114,3.33,3.33,0,0,0,.8931,2.1123,7.5517,7.5517,0,0,0,1.0147.9658q.7968.665,1.05.93a7.7433,7.7433,0,0,1,1.3038,1.666,6.324,6.324,0,0,1,.35.7129A4.1457,4.1457,0,0,1,110.49,11.5547Z"/><path class="cls-1" d="M126.66,8.91v6.4111h-2.2813V.1924H126.66V6.6162h2.7529V.1924h2.2822V15.3213h-2.2822V8.91Z"/><path class="cls-1" d="M139.5933,11.8438l-.5547,3.4775h-2.376L139.2339.1924h3.14l2.5352,15.1289h-2.3994l-.5342-3.4775Zm1.1982-8.1856-.8447,5.9639h1.6894Z"/><path class="cls-1" d="M156.7466,11.5547a4.2589,4.2589,0,0,1-.8213,2.7041,2.957,2.957,0,0,1-1.5693,1.0742,4.2612,4.2612,0,0,1-1.2676.169,3.5832,3.5832,0,0,1-2.2217-.6641,3.6973,3.6973,0,0,1-1.165-1.4785,5.9474,5.9474,0,0,1-.501-2.1436l2.1728-.1562a3.304,3.304,0,0,0,.7,1.917,1.1658,1.1658,0,0,0,.9424.4248,1.4145,1.4145,0,0,0,1.1953-.7373,1.8344,1.8344,0,0,0,.2285-1.003,2.7847,2.7847,0,0,0-.8564-1.873q-.6768-.64-2.0283-1.9209a8.6846,8.6846,0,0,1-1.6065-1.9707,4.5557,4.5557,0,0,1-.5068-2.127A3.7,3.7,0,0,1,150.8306.64a3.45,3.45,0,0,1,2.125-.64,3.8637,3.8637,0,0,1,2.0888.543,3.1476,3.1476,0,0,1,1.0928,1.1836,4.3887,4.3887,0,0,1,.501,1.75l-2.1856.3984a2.631,2.631,0,0,0-.5312-1.4482,1.1159,1.1159,0,0,0-.9053-.375,1.0429,1.0429,0,0,0-.9541.5556,2.1362,2.1362,0,0,0-.2656,1.1114,3.33,3.33,0,0,0,.8935,2.1123,7.54,7.54,0,0,0,1.0137.9658q.797.665,1.0508.93a7.7426,7.7426,0,0,1,1.3037,1.666,6.334,6.334,0,0,1,.3506.7129A4.1532,4.1532,0,0,1,156.7466,11.5547Z"/><path class="cls-1" d="M170.6362,15.3213V.1807h3.417a4.3526,4.3526,0,0,1,2.4385.7119,3.3159,3.3159,0,0,1,1.3281,1.872,5.2827,5.2827,0,0,1,.2178,1.6055,3.5569,3.5569,0,0,1-.81,2.44,2.29,2.29,0,0,1-.7968.5908,2.6568,2.6568,0,0,1,1.2919,1.1475,4.479,4.479,0,0,1,.52,1.497,6.0524,6.0524,0,0,1,.084,1.0508,5.0528,5.0528,0,0,1-.543,2.4385,3.2585,3.2585,0,0,1-1.1953,1.2558,3.2915,3.2915,0,0,1-1.7266.5313Zm2.4629-8.959h.9541a1.3967,1.3967,0,0,0,1.4239-1.0381A2.9549,2.9549,0,0,0,175.61,4.37a1.9964,1.9964,0,0,0-.458-1.4248,1.4451,1.4451,0,0,0-1.0987-.4463h-.9541Zm0,6.7012h.9541a1.6191,1.6191,0,0,0,1.6055-1.1953,2.6278,2.6278,0,0,0,.1572-.9414,2.8669,2.8669,0,0,0-.4834-1.8477,1.5567,1.5567,0,0,0-1.2793-.5312h-.9541Z"/><path class="cls-1" d="M182.6685,15.3213V.1807h6.4951V2.4746H184.95V6.6035h3.0791V8.8984H184.95v4.1289h4.2139v2.294Z"/><path class="cls-1" d="M193.4536,15.3213V.1807h6.4951V2.4746h-4.2138V6.6035h3.0791V8.8984h-3.0791v4.1289h4.2138v2.294Z"/><path class="cls-1" d="M207.14.1807l3.0284,10.1757V.1807h2.2822V15.3213H210L206.86,5.626v9.6953h-2.2813V.1807Z"/><path class="cls-1" d="M3.61,39.8906a3.4794,3.4794,0,0,1-2.56-1.0508A3.4661,3.4661,0,0,1,0,36.293v-11.7H2.2339V36.2686a1.2474,1.2474,0,0,0,.3862.9238,1.2792,1.2792,0,0,0,.93.38A1.298,1.298,0,0,0,4.854,36.2686V24.5928H7.2324v11.7a3.44,3.44,0,0,1-1.0625,2.56A3.5292,3.5292,0,0,1,3.61,39.8906Z"/><path class="cls-1" d="M18.7109,35.9551a4.2553,4.2553,0,0,1-.8213,2.7041A2.9547,2.9547,0,0,1,16.32,39.7334a4.26,4.26,0,0,1-1.2681.1689,3.5836,3.5836,0,0,1-2.2211-.664A3.7029,3.7029,0,0,1,11.6655,37.76a5.9708,5.9708,0,0,1-.5009-2.1436l2.1733-.1562a3.304,3.304,0,0,0,.7,1.917,1.166,1.166,0,0,0,.9419.4248,1.4146,1.4146,0,0,0,1.1953-.7373,1.83,1.83,0,0,0,.23-1.003,2.7844,2.7844,0,0,0-.8574-1.873q-.676-.64-2.0284-1.9209a8.6685,8.6685,0,0,1-1.6059-1.9707,4.5561,4.5561,0,0,1-.5069-2.127,3.7007,3.7007,0,0,1,1.3882-3.13,3.4535,3.4535,0,0,1,2.125-.64,3.8619,3.8619,0,0,1,2.0889.543,3.14,3.14,0,0,1,1.0928,1.1836,4.3742,4.3742,0,0,1,.501,1.75l-2.1851.3984a2.6352,2.6352,0,0,0-.5313-1.4483,1.1148,1.1148,0,0,0-.9057-.375,1.0432,1.0432,0,0,0-.9536.5557,2.14,2.14,0,0,0-.2657,1.1113,3.3294,3.3294,0,0,0,.8931,2.1123,7.5514,7.5514,0,0,0,1.0147.9659q.7968.665,1.05.93a7.7457,7.7457,0,0,1,1.3037,1.666,6.324,6.324,0,0,1,.35.7129A4.1457,4.1457,0,0,1,18.7109,35.9551Z"/><path class="cls-1" d="M22.6436,39.7217V24.5811H29.14V26.875H24.9258v4.1289h3.0786v2.2949H24.9258v4.1289H29.14v2.294Z"/><path class="cls-1" d="M40.2607,36.1a3.5087,3.5087,0,0,1-1.05,2.56,3.4363,3.4363,0,0,1-2.5356,1.0625H33.0889V24.5811h3.5859a3.43,3.43,0,0,1,2.5415,1.0625,3.5048,3.5048,0,0,1,1.0444,2.5478Zm-4.89,1.3643h1.3765a1.2189,1.2189,0,0,0,.9174-.3926,1.2938,1.2938,0,0,0,.3741-.9238v-7.92a1.2778,1.2778,0,0,0-.38-.93,1.2339,1.2339,0,0,0-.9116-.3868H35.3711Z"/><path class="cls-1" d="M56.7393,36.2441l-.5542,3.4776H53.8086l2.5723-15.1289H59.52l2.5357,15.1289H59.6558l-.5342-3.4776Zm1.1987-8.1855-.8452,5.9639h1.69Z"/><path class="cls-1" d="M72.5312,35.9551a4.2558,4.2558,0,0,1-.8212,2.7041,2.9554,2.9554,0,0,1-1.5694,1.0742,4.26,4.26,0,0,1-1.268.1689,3.5837,3.5837,0,0,1-2.2212-.664A3.7037,3.7037,0,0,1,65.4858,37.76a5.9708,5.9708,0,0,1-.5009-2.1436l2.1733-.1562a3.304,3.304,0,0,0,.7,1.917,1.166,1.166,0,0,0,.9419.4248,1.4145,1.4145,0,0,0,1.1953-.7373,1.83,1.83,0,0,0,.23-1.003,2.7839,2.7839,0,0,0-.8574-1.873l-2.0283-1.9209a8.6667,8.6667,0,0,1-1.606-1.9707,4.556,4.556,0,0,1-.5068-2.127,3.7009,3.7009,0,0,1,1.3881-3.13,3.4535,3.4535,0,0,1,2.125-.64,3.8619,3.8619,0,0,1,2.0889.543,3.1389,3.1389,0,0,1,1.0928,1.1836,4.3742,4.3742,0,0,1,.501,1.75l-2.1851.3984a2.6352,2.6352,0,0,0-.5312-1.4483,1.1151,1.1151,0,0,0-.9058-.375,1.0432,1.0432,0,0,0-.9536.5557,2.14,2.14,0,0,0-.2656,1.1113,3.3292,3.3292,0,0,0,.893,2.1123,7.5514,7.5514,0,0,0,1.0147.9659q.7968.665,1.05.93a7.7457,7.7457,0,0,1,1.3037,1.666,6.324,6.324,0,0,1,.35.7129A4.1457,4.1457,0,0,1,72.5312,35.9551Z"/><path class="cls-1" d="M89.35,36.2441l-.5542,3.4776H86.4189l2.5723-15.1289H92.13l2.5356,15.1289H92.2661l-.5342-3.4776Zm1.1987-8.1855-.8452,5.9639h1.6905Z"/><path class="cls-1" d="M116.1,35.9551a4.2559,4.2559,0,0,1-.8213,2.7041,2.9551,2.9551,0,0,1-1.5693,1.0742,4.26,4.26,0,0,1-1.2681.1689,3.5837,3.5837,0,0,1-2.2212-.664,3.7027,3.7027,0,0,1-1.1655-1.4785,5.9708,5.9708,0,0,1-.501-2.1436l2.1734-.1562a3.3033,3.3033,0,0,0,.7,1.917,1.1661,1.1661,0,0,0,.9419.4248,1.4146,1.4146,0,0,0,1.1954-.7373,1.83,1.83,0,0,0,.2294-1.003,2.7839,2.7839,0,0,0-.8574-1.873q-.6761-.64-2.0283-1.9209a8.6694,8.6694,0,0,1-1.606-1.9707,4.5572,4.5572,0,0,1-.5068-2.127,3.7007,3.7007,0,0,1,1.3882-3.13,3.4535,3.4535,0,0,1,2.125-.64,3.8619,3.8619,0,0,1,2.0889.543A3.1394,3.1394,0,0,1,115.49,26.127a4.3709,4.3709,0,0,1,.501,1.75l-2.185.3984a2.6352,2.6352,0,0,0-.5313-1.4483,1.115,1.115,0,0,0-.9058-.375,1.0433,1.0433,0,0,0-.9536.5557,2.1409,2.1409,0,0,0-.2656,1.1113,3.3294,3.3294,0,0,0,.8931,2.1123,7.55,7.55,0,0,0,1.0146.9659q.7969.665,1.05.93a7.7394,7.7394,0,0,1,1.3037,1.666,6.324,6.324,0,0,1,.35.7129A4.1438,4.1438,0,0,1,116.1,35.9551Z"/><path class="cls-1" d="M123.63,24.5928a3.478,3.478,0,0,1,2.6562,1.0508,3.6452,3.6452,0,0,1,.918,2.56V30.4a3.5193,3.5193,0,0,1-1.0449,2.56,3.413,3.413,0,0,1-2.5293,1.0625h-1.3155v5.6992h-2.2822V24.5928Zm1.3642,3.6465a1.3038,1.3038,0,0,0-.3564-.9541,1.2679,1.2679,0,0,0-.9473-.3614h-1.376v4.8408h1.376a1.2469,1.2469,0,0,0,.9238-.3857,1.28,1.28,0,0,0,.38-.93Z"/><path class="cls-1" d="M133.35,39.7217h-2.2813V24.5928H133.35Z"/><path class="cls-1" d="M141.7144,24.5928a3.4794,3.4794,0,0,1,2.8007,1.0508,3.8144,3.8144,0,0,1,.7852,2.56V30.4a3.5327,3.5327,0,0,1-1.22,2.7168l1.69,6.6045h-2.4678l-1.3838-5.6992h-1.5215v5.6992h-2.2812V24.5928Zm1.3642,3.6465a1.1576,1.1576,0,0,0-1.3037-1.3155h-1.377v4.8408h1.377a1.2469,1.2469,0,0,0,.9238-.3857,1.28,1.28,0,0,0,.38-.93Z"/><path class="cls-1" d="M152.3931,39.7217h-2.2813V24.5928h2.2813Z"/><path class="cls-1" d="M159.0425,26.8867h-2.4268V24.5928h7.1231v2.2939h-2.4151v12.835h-2.2812Z"/><path class="cls-1" d="M171.5522,39.8906a3.5861,3.5861,0,0,1-3.6093-3.5976v-11.7h2.2334V36.2686a1.2479,1.2479,0,0,0,.3867.9238,1.2784,1.2784,0,0,0,.93.38,1.2988,1.2988,0,0,0,1.3037-1.3037V24.5928h2.3779v11.7a3.4362,3.4362,0,0,1-1.0625,2.56A3.5285,3.5285,0,0,1,171.5522,39.8906Z"/><path class="cls-1" d="M182.0552,36.2441l-.5547,3.4776h-2.376l2.5713-15.1289h3.14l2.5352,15.1289h-2.3994l-.5342-3.4776Zm1.1982-8.1855-.8447,5.9639h1.6894Z"/><path class="cls-1" d="M197.896,39.7217h-6.2178V24.5928H193.96V37.4521h3.9365Z"/><path class="cls-1" d="M210.0854,36.2441l-.5546,3.4776h-2.376l2.5713-15.1289h3.14l2.5352,15.1289h-2.3994l-.5342-3.4776Zm1.1983-8.1855-.8447,5.9639h1.6894Z"/><path class="cls-1" d="M221.6489,39.7217h-2.2812V24.5928h2.2812Z"/><path class="cls-1" d="M233.5874,36.1a3.5091,3.5091,0,0,1-1.0508,2.56,3.437,3.437,0,0,1-2.5351,1.0625h-3.586V24.5811h3.586a3.43,3.43,0,0,1,2.541,1.0625,3.5053,3.5053,0,0,1,1.0449,2.5478Zm-4.8906,1.3643h1.3769a1.2165,1.2165,0,0,0,.917-.3926,1.293,1.293,0,0,0,.375-.9238v-7.92a1.2767,1.2767,0,0,0-.3808-.93,1.2324,1.2324,0,0,0-.9112-.3868h-1.3769Z"/></svg>