<svg id="Layer_1" data-name="Layer 1" xmlns="http://www.w3.org/2000/svg" width="144.8862" height="15.5146" viewBox="0 0 144.8862 15.5146"><defs><style>.cls-1{fill:#ac9655;}</style></defs><title>frame3</title><path class="cls-1" d="M3.61,15.49a3.48,3.48,0,0,1-2.56-1.0507A3.4663,3.4663,0,0,1,0,11.8926V.1924H2.2339V11.8682a1.2474,1.2474,0,0,0,.3862.9238,1.2792,1.2792,0,0,0,.93.38A1.298,1.298,0,0,0,4.854,11.8682V.1924H7.2324v11.7a3.44,3.44,0,0,1-1.0625,2.56A3.5292,3.5292,0,0,1,3.61,15.49Z"/><path class="cls-1" d="M14.8823.1807l3.0283,10.1757V.1807h2.2818V15.3213H17.7417L14.6025,5.626v9.6953H12.32V.1807Z"/><path class="cls-1" d="M28.8784,15.5146a3.6077,3.6077,0,0,1-3.6221-3.61V3.6455A3.4822,3.4822,0,0,1,26.3188,1.08a3.6219,3.6219,0,0,1,5.12.0058,3.51,3.51,0,0,1,1.05,2.56V5.3721H30.1221V3.5977a1.32,1.32,0,0,0-1.3159-1.3165,1.248,1.248,0,0,0-.9239.3868,1.278,1.278,0,0,0-.38.93V11.88a1.2988,1.2988,0,0,0,1.3038,1.3047,1.2767,1.2767,0,0,0,.93-.3809,1.2474,1.2474,0,0,0,.3863-.9238V9.791h2.3667v2.1133a3.6074,3.6074,0,0,1-3.61,3.61Z"/><path class="cls-1" d="M40.9941,0A3.48,3.48,0,0,1,43.56,1.0625a3.4973,3.4973,0,0,1,1.0566,2.56V11.88a3.6162,3.6162,0,1,1-7.2324,0V3.6221a3.4839,3.4839,0,0,1,1.0625-2.5664A3.4855,3.4855,0,0,1,40.9941,0Zm1.2437,3.5732A1.298,1.298,0,0,0,40.9336,2.27a1.2792,1.2792,0,0,0-.93.38,1.2474,1.2474,0,0,0-.3862.9238v8.2832a1.2437,1.2437,0,0,0,.3862.9229,1.2762,1.2762,0,0,0,.93.3809,1.3,1.3,0,0,0,1.3042-1.3038Z"/><path class="cls-1" d="M51.95,15.3213,49.2461.1924h2.3916l1.8989,11.793L55.4492.1924h2.3931L55.0894,15.3213Z"/><path class="cls-1" d="M62.8091,15.3213V.1807h6.4961V2.4746H65.0913V6.6035H68.17V8.8984H65.0913v4.1289h4.2139v2.294Z"/><path class="cls-1" d="M77.5327.1924a3.48,3.48,0,0,1,2.8008,1.0508,3.8149,3.8149,0,0,1,.7852,2.56V6a3.5325,3.5325,0,0,1-1.22,2.7168l1.6905,6.6045H79.1216L77.7378,9.6221h-1.52v5.6992H73.9351V.1924ZM78.897,3.8389a1.1576,1.1576,0,0,0-1.3037-1.3155h-1.376V7.3643h1.376a1.2433,1.2433,0,0,0,.9228-.3858,1.277,1.277,0,0,0,.3809-.93Z"/><path class="cls-1" d="M93.13,15.3213H90.8491V.1807h3.2744l2.127,10.8759L98.2915.1807h3.1465V15.3213H99.1558V5.8066l-1.9805,9.5147H95.34l-2.21-9.49Z"/><path class="cls-1" d="M110.1108,0a3.482,3.482,0,0,1,2.5664,1.0625,3.4984,3.4984,0,0,1,1.0557,2.56V11.88a3.6157,3.6157,0,1,1-7.2314,0V3.6221a3.482,3.482,0,0,1,1.0625-2.5664A3.4841,3.4841,0,0,1,110.1108,0Zm1.2442,3.5732A1.2988,1.2988,0,0,0,110.0513,2.27a1.2784,1.2784,0,0,0-.93.38,1.2479,1.2479,0,0,0-.3867.9238v8.2832a1.2441,1.2441,0,0,0,.3867.9229,1.2754,1.2754,0,0,0,.93.3809,1.3,1.3,0,0,0,1.3037-1.3038Z"/><path class="cls-1" d="M122.4067.1924a3.48,3.48,0,0,1,2.8008,1.0508,3.8144,3.8144,0,0,1,.7852,2.56V6a3.5325,3.5325,0,0,1-1.22,2.7168l1.69,6.6045h-2.4678l-1.3838-5.6992H121.09v5.6992h-2.2812V.1924Zm1.3643,3.6465a1.1576,1.1576,0,0,0-1.3037-1.3155H121.09V7.3643h1.377a1.247,1.247,0,0,0,.9238-.3858,1.28,1.28,0,0,0,.38-.93Z"/><path class="cls-1" d="M131.481,15.3213V.1807h6.4951V2.4746h-4.2139V6.6035h3.0791V8.8984h-3.0791v4.1289h4.2139v2.294Z"/><path class="cls-1" d="M142.605,13.0518h2.2812V15.333H142.605Z"/></svg>