<svg id="Content" xmlns="http://www.w3.org/2000/svg" xmlns:xlink="http://www.w3.org/1999/xlink" viewBox="0 0 728 360"><defs><style>.cls-1{fill:url(#New_Gradient_Swatch_1);}.cls-2{fill:#fff;}.cls-3{fill:#ba9544;}</style><linearGradient id="New_Gradient_Swatch_1" x1="266.9" y1="194.5" x2="324.82" y2="194.5" gradientUnits="userSpaceOnUse"><stop offset="0" stop-color="#a88a34"/><stop offset="0.49" stop-color="#caaf67"/><stop offset="1" stop-color="#957f2e"/></linearGradient></defs><title>citrus</title><polygon class="cls-1" points="310.34 169.41 281.38 169.41 266.9 194.5 281.38 219.58 310.34 219.58 324.82 194.5 310.34 169.41"/><path class="cls-2" d="M307.71,198.05A12.74,12.74,0,0,1,288.4,181.5l-1.18-1a14.28,14.28,0,0,0,21.66,18.57Z"/><path class="cls-2" d="M287,190.51a11.53,11.53,0,0,0,3.59,7.18l6.84-8Z"/><path class="cls-2" d="M291.37,198.37a11.66,11.66,0,0,0,7.53,2.46l-.79-10.33Z"/><path class="cls-2" d="M289.25,182.23a11.56,11.56,0,0,0-2.33,7.24l9.89-.76Z"/><path class="cls-2" d="M306.85,197.32l-7.68-6.59.77,10a11.54,11.54,0,0,0,6.91-3.42"/><path class="cls-2" d="M297.38,187.85c.05-.65.41-1.06.82-1.1s.72.32.67,1A2.25,2.25,0,0,1,298,189s-.7-.47-.65-1.11"/><path class="cls-2" d="M300.06,188.47c.63-.19,1,0,1.09.43s-.28.85-.9,1a1.45,1.45,0,0,1-1.24-.4s.42-.88,1.05-1.06"/><path class="cls-2" d="M301.22,208.53a1.34,1.34,0,1,1-2.68.09c0-.74,1.26-2.21,1.26-2.21s1.4,1.38,1.42,2.12"/><path class="cls-2" d="M300.74,207.65a.37.37,0,0,1-.32.42l-1.12,0a.36.36,0,0,1-.34-.39,4.1,4.1,0,0,0,.12-2.15c-.43-1.27-3.41-2.27-3.23-2.28l6.14-.43a4.47,4.47,0,0,0-1.65,2.7,2.83,2.83,0,0,0,.4,2.09"/><path class="cls-3" d="M269.54,252.21a5.33,5.33,0,0,1,3.79-9.11,5.78,5.78,0,0,1,3.91,1.41l-1.42,1.56a3.89,3.89,0,0,0-2.49-.85,3,3,0,0,0-3.19,3.16,3.21,3.21,0,0,0,.89,2.36,3.15,3.15,0,0,0,2.31.87,3.82,3.82,0,0,0,2.48-.84l1.42,1.55a5.72,5.72,0,0,1-3.91,1.42A5.16,5.16,0,0,1,269.54,252.21Z"/><path class="cls-3" d="M279.53,243.09h2.12v10.65h-2.12Z"/><path class="cls-3" d="M292.48,243.1v2h-3.55v8.66H286.8v-8.66h-3.55v-2Z"/><path class="cls-3" d="M300.47,249.1l2.65,4.64h-2.44l-2.55-4.4h-1.94v4.4h-2.13V243.1h4.64c2.48,0,3.73,1,3.73,3.06A2.76,2.76,0,0,1,300.47,249.1Zm-4.28-1.75h3q1.27,0,1.32-1.17c0-.7-.46-1.06-1.3-1.09h-3Z"/><path class="cls-3" d="M306.19,243.1v6.17a2.13,2.13,0,0,0,.71,1.77,2.77,2.77,0,0,0,1.78.57,2.72,2.72,0,0,0,1.77-.57,2.13,2.13,0,0,0,.71-1.77V243.1h2.13v6.74A3.51,3.51,0,0,1,312,252.6a5.35,5.35,0,0,1-6.6,0,3.49,3.49,0,0,1-1.32-2.76V243.1Z"/><path class="cls-3" d="M321.35,243.45a5.08,5.08,0,0,1,1.53,1.06l-1.42,1.42a2.48,2.48,0,0,0-2-.85c-.85,0-1.39.2-1.63.61a.82.82,0,0,0,0,1,2.83,2.83,0,0,0,1.63.63,5.3,5.3,0,0,1,2.45.89,2.68,2.68,0,0,1,1.1,2.38,2.73,2.73,0,0,1-1.18,2.2,4.31,4.31,0,0,1-2.73.92,6.2,6.2,0,0,1-2.48-.43,5.32,5.32,0,0,1-1.7-1.13l1.42-1.42a3.34,3.34,0,0,0,2.41,1q1.42,0,1.77-.6a1.11,1.11,0,0,0,0-1.21c-.23-.4-.82-.65-1.77-.74a5.89,5.89,0,0,1-2.34-.78,2.36,2.36,0,0,1-1.07-2.2,2.67,2.67,0,0,1,1.21-2.27,4.27,4.27,0,0,1,2.49-.85A5.87,5.87,0,0,1,321.35,243.45Z"/></svg>