<svg id="Content" xmlns="http://www.w3.org/2000/svg" xmlns:xlink="http://www.w3.org/1999/xlink" width="320" height="50" viewBox="0 0 320 50"><defs><style>.cls-1{fill:#ba9544;}.cls-2{fill:#fff;stroke:#ba9544;stroke-miterlimit:10;stroke-width:0.5px;}.cls-3{clip-path:url(#clip-path);}</style><clipPath id="clip-path"><polygon class="cls-1" points="101.063 33.963 105.028 39.58 105.106 39.587 105.106 28.246 105.028 28.243 101.063 33.963"/></clipPath></defs><title>CBD - Ultra Sour</title><polygon class="cls-2" points="183.499 28.528 104.942 28.23 100.976 33.949 104.942 39.566 183.499 39.432 187.068 33.981 183.499 28.528"/><polygon class="cls-1" points="101.063 33.963 105.028 39.58 105.106 39.587 105.106 28.246 105.028 28.243 101.063 33.963"/><g class="cls-3"><rect class="cls-1" x="100.18557" y="27.36643" width="5.79563" height="13.09677"/></g><path class="cls-1" d="M147.12988,35.83691a1.92437,1.92437,0,0,1,1.36817-3.29394,2.08309,2.08309,0,0,1,1.41308.51367l-.51269.56152a1.419,1.419,0,0,0-.90039-.30761,1.1281,1.1281,0,0,0-.834.32226,1.11672,1.11672,0,0,0-.31738.82129,1.15031,1.15031,0,0,0,.32129.85059,1.132,1.132,0,0,0,.83594.31543,1.37917,1.37917,0,0,0,.89453-.30469l.51269.56152a2.07531,2.07531,0,0,1-1.41308.5127A1.87305,1.87305,0,0,1,147.12988,35.83691Z"/><path class="cls-1" d="M153.46973,34.36133a1.09237,1.09237,0,0,1-.625,2.03125l-2.16407-.00293V32.5459h2.041q.97119.05712,1.02539,1.13086A.80252.80252,0,0,1,153.46973,34.36133Zm-2.01758-.27442h1.07715a.43433.43433,0,0,0,.47656-.47949c-.00879-.1875-.165-.28711-.46875-.29687h-1.085Zm0,1.70313H152.708a.50329.50329,0,0,0,.55469-.55664c-.00879-.2461-.19141-.375-.54688-.38477h-1.26367Z"/><path class="cls-1" d="M154.77246,36.38965V32.541h1.48242q1.79443,0,1.79492,1.92578,0,1.92333-1.79492,1.92285Zm1.48242-.7666q1.02246-.00294,1.02539-1.15625-.00292-1.15429-1.02539-1.1543H155.542v2.31055Z"/><path class="cls-1" d="M160.70312,33.9375a.3726.3726,0,0,1,.27735-.10449.3852.3852,0,0,1,.28711.10449.37292.37292,0,0,1,0,.51367.43967.43967,0,0,1-.56446,0,.37295.37295,0,0,1,0-.51367Zm0,1.83594a.3726.3726,0,0,1,.27735-.10449.3852.3852,0,0,1,.28711.10449.37292.37292,0,0,1,0,.51367.43967.43967,0,0,1-.56446,0,.37295.37295,0,0,1,0-.51367Z"/><path class="cls-1" d="M166.20605,33.64648l-1.4873.82032,1.4873.82031V35.877L163.77539,34.541v-.167l2.43066-1.31738Z"/><path class="cls-1" d="M169.53711,32.543V32.541h.7666v3.84863h-.7666V33.56934l-.5127.51269-.51367-.51269Z"/></svg>