<svg id="Content" xmlns="http://www.w3.org/2000/svg" xmlns:xlink="http://www.w3.org/1999/xlink" viewBox="0 0 640 1136"><defs><style>.cls-1{fill:#ba9544;}.cls-2{fill:#fff;stroke:#ba9544;stroke-miterlimit:10;stroke-width:0.96px;}.cls-3{clip-path:url(#clip-path);}</style><clipPath id="clip-path"><polygon class="cls-1" points="127.29 795.53 145.25 820.98 189.36 821.01 189.36 769.63 145.25 769.62 127.29 795.53"/></clipPath></defs><title>CBD - Durga Mata</title><polygon class="cls-2" points="500.74 770.91 144.86 769.56 126.9 795.47 144.86 820.92 500.74 820.31 516.91 795.61 500.74 770.91"/><polygon class="cls-1" points="127.29 795.53 145.25 820.98 189.36 821.01 189.36 769.63 145.25 769.62 127.29 795.53"/><g class="cls-3"><rect class="cls-1" x="123.32" y="765.65" width="26.26" height="59.33"/></g><path class="cls-1" d="M336,804a8.71,8.71,0,0,1,6.2-14.92,9.43,9.43,0,0,1,6.4,2.32L346.25,794a6.4,6.4,0,0,0-4.07-1.4A5.1,5.1,0,0,0,338.4,794a5,5,0,0,0-1.44,3.71,5.24,5.24,0,0,0,1.45,3.86A5.17,5.17,0,0,0,342.2,803a6.25,6.25,0,0,0,4.05-1.38l2.33,2.54a9.41,9.41,0,0,1-6.4,2.32A8.48,8.48,0,0,1,336,804Z"/><path class="cls-1" d="M364.7,797.33a5,5,0,0,1,2.43,4q-.24,4.92-5.26,5.21h-9.81V789.11h9.25q4.4.25,4.64,5.12C365.9,795.78,365.48,796.82,364.7,797.33Zm-9.14-1.24h4.88a2,2,0,0,0,2.16-2.17q-.06-1.27-2.13-1.35h-4.91Zm0,7.71h5.69a2.27,2.27,0,0,0,2.51-2.52c0-1.11-.86-1.69-2.48-1.74h-5.72Z"/><path class="cls-1" d="M370.6,806.52V789.09h6.72q8.13,0,8.13,8.72t-8.13,8.71Zm6.72-3.47c3.08,0,4.63-1.75,4.64-5.24s-1.56-5.23-4.64-5.23h-3.23v10.47Z"/><path class="cls-1" d="M389.34,795.41a1.7,1.7,0,0,1,1.25-.47,1.75,1.75,0,0,1,1.3.47,1.61,1.61,0,0,1,.47,1.17,1.58,1.58,0,0,1-.47,1.16,2,2,0,0,1-2.55,0,1.58,1.58,0,0,1-.47-1.16A1.61,1.61,0,0,1,389.34,795.41Zm0,8.32a1.7,1.7,0,0,1,1.25-.47,1.75,1.75,0,0,1,1.3.47,1.68,1.68,0,0,1,0,2.33,2,2,0,0,1-2.55,0,1.68,1.68,0,0,1,0-2.33Z"/><path class="cls-1" d="M416,796.82c0,3.71-.74,6.29-2.1,7.73a5.88,5.88,0,0,1-5,1.9,7.24,7.24,0,0,1-4.68-2.2l2-2.14a6.11,6.11,0,0,0,2.91,1,3.06,3.06,0,0,0,2.48-.75,4.63,4.63,0,0,0,1.29-2.84,5.44,5.44,0,0,1-3.61,1.16,5.81,5.81,0,0,1-4.3-2,6,6,0,0,1-1-4.36,5.73,5.73,0,0,1,2-3.94,6.17,6.17,0,0,1,4.8-1.22,5.74,5.74,0,0,1,3.92,2.32A9.81,9.81,0,0,1,416,796.82Zm-3.48-1.91c-.08-1.62-1-2.47-2.79-2.54s-2.71.85-2.79,2.32c.08,1.93,1.05,2.9,2.91,2.9A2.59,2.59,0,0,0,412.48,794.91Z"/><path class="cls-1" d="M419.05,801.86v-2.31h7.2v2.31Z"/><path class="cls-1" d="M433.77,789.1h3.47v17.43h-3.47V793.75l-2.33,2.32-2.32-2.32Z"/><path class="cls-1" d="M451.56,797.69l.57.24q1.8.81,1.8,3.48A4.45,4.45,0,0,1,452,805a7,7,0,0,1-4.48,1.51,10.37,10.37,0,0,1-4-.69,9,9,0,0,1-2.79-1.86l2.32-2.33a5.53,5.53,0,0,0,3.95,1.63c1.55,0,2.52-.33,2.9-1a1.84,1.84,0,0,0,0-2q-.57-1-4.05-1.11v-3.13c2.32.15,3.67-.1,4.05-.76a1.84,1.84,0,0,0,0-2c-.38-.66-1.35-1-2.9-1a4.12,4.12,0,0,0-3.36,1.4l-2.33-2.33a8.32,8.32,0,0,1,2.5-1.74,9.64,9.64,0,0,1,3.76-.58,6.13,6.13,0,0,1,4.25,1.51,4.7,4.7,0,0,1,1.69,3.6,3.43,3.43,0,0,1-1.57,3.31Z"/><path class="cls-1" d="M457.78,796.45a4.47,4.47,0,1,1,3.11,1.26A4.2,4.2,0,0,1,457.78,796.45Zm3.08-.81a2.07,2.07,0,0,0,1.59-.66,2.54,2.54,0,0,0,0-3.3,2.12,2.12,0,0,0-1.6-.65,2.08,2.08,0,0,0-1.58.65,2.51,2.51,0,0,0,0,3.3A2.07,2.07,0,0,0,460.86,795.64Zm-.93,10.88,9.87-17.42h2.84l-9.86,17.42Zm8.65-1.15a4.44,4.44,0,1,1,3.09,1.25A4.19,4.19,0,0,1,468.58,805.37Zm3-.85a2,2,0,0,0,1.56-.64,2.45,2.45,0,0,0,0-3.21,2.05,2.05,0,0,0-1.57-.64,2,2,0,0,0-1.54.64,2.42,2.42,0,0,0,0,3.21A2,2,0,0,0,471.61,804.52Z"/></svg>