<svg id="Layer_1" data-name="Layer 1" xmlns="http://www.w3.org/2000/svg" width="300" height="250" viewBox="0 0 300 250"><defs><style>.cls-1{fill:#fff;}</style></defs><title>newyear</title><path class="cls-1" d="M112.49,131.94l3.22,10.81V131.94h2.42V148h-2.6l-3.34-10.3V148h-2.42V131.94Z"/><path class="cls-1" d="M121,148V131.94h6.9v2.43h-4.48v4.41h3.27v2.43h-3.27v4.4h4.48V148Z"/><path class="cls-1" d="M140.29,131.94h2.54L140.32,148H138l-1.37-8.77L135.33,148H133l-2.69-16.09h2.54l1.27,8.62,1.17-8.62h2.54l1.27,8.62Z"/><path class="cls-1" d="M151.94,141.29l-3.24-9.35h2.66l1.8,5.78,1.79-5.78h2.68l-3.26,9.35V148h-2.43Z"/><path class="cls-1" d="M160.29,148V131.94h6.9v2.43h-4.48v4.41H166v2.43h-3.28v4.4h4.48V148Z"/><path class="cls-1" d="M172.7,144.34l-.59,3.69h-2.53l2.73-16.09h3.34L178.34,148H175.8l-.57-3.69Zm1.27-8.71-.9,6.34h1.8Z"/><path class="cls-1" d="M184.93,131.94a3.7,3.7,0,0,1,3,1.12,4.06,4.06,0,0,1,.84,2.72v2.34a3.74,3.74,0,0,1-1.29,2.88l1.79,7h-2.61L185.15,142h-1.61V148h-2.43V131.94Zm1.45,3.88a1.23,1.23,0,0,0-1.38-1.4h-1.46v5.14H185a1.31,1.31,0,0,0,1-.41,1.34,1.34,0,0,0,.4-1Z"/><path class="cls-1" d="M191.64,145.62h2.42V148h-2.42Z"/></svg>