<svg id="Content" xmlns="http://www.w3.org/2000/svg" xmlns:xlink="http://www.w3.org/1999/xlink" viewBox="0 0 728 360"><defs><style>.cls-1{fill:url(#New_Gradient_Swatch_1);}.cls-2{fill:#fff;}.cls-3{fill:#ba9544;}</style><linearGradient id="New_Gradient_Swatch_1" x1="178.19" y1="197.59" x2="234.81" y2="197.59" gradientUnits="userSpaceOnUse"><stop offset="0" stop-color="#a88a34"/><stop offset="0.49" stop-color="#caaf67"/><stop offset="1" stop-color="#957f2e"/></linearGradient></defs><title>fruity</title><polygon class="cls-1" points="201.71 226.55 178.19 199.39 196.76 168.63 231.75 176.78 234.81 212.57 201.71 226.55"/><path class="cls-2" d="M217.92,189.83c1.93-.59,2.48-2.16,3.62-2.7-2.26-.92-3.58-1.15-4.92-.52a3.34,3.34,0,0,0-2,2.48,3.46,3.46,0,0,0,3.29.74"/><path class="cls-2" d="M213.74,193.09a10.43,10.43,0,0,0-2.55-7.87.18.18,0,0,0-.25,0h0l-.53.55a.17.17,0,0,0,0,.24,9.42,9.42,0,0,1,2.22,7.12c-4.65-2.72-9.54.25-9.31,5.2a12.1,12.1,0,0,0,.39,2.54,21.78,21.78,0,0,0,9.92,4.5,2.68,2.68,0,0,1,1.27.63,1.91,1.91,0,0,1,.6,1.32v.49a2.52,2.52,0,0,1-.12.86,3.68,3.68,0,0,1-.16.54c3.87.19,7.54-6,7.77-10.88s-4.62-7.89-9.24-5.24"/><path class="cls-2" d="M214,207a1.25,1.25,0,0,0-.61-.3c-7.84-1.56-14.44-6-17.17-15.26a2.07,2.07,0,0,0-.28-.53,1.28,1.28,0,0,1-.18-.71l.06-1.76a.47.47,0,0,0-.46-.49h-.94a.47.47,0,0,0-.47.48v0l.22,1.88a1.2,1.2,0,0,1-.26.75,3.11,3.11,0,0,0-.31,1.59c-.18,14.72,9.77,19,18.95,16.74,1.17-.28,1.28-.47,1.38-.61a2.37,2.37,0,0,0,.18-.53,1.15,1.15,0,0,0,.07-.45v-.48A.52.52,0,0,0,214,207"/><path class="cls-3" d="M179.38,253.74V243.1h7.49v2h-5.36v2.27h4v2h-4v4.41Z"/><path class="cls-3" d="M194.83,249.1l2.65,4.64H195l-2.55-4.4h-1.94v4.4h-2.13V243.1h4.64q3.72,0,3.72,3.06A2.75,2.75,0,0,1,194.83,249.1Zm-4.28-1.75h3q1.28,0,1.32-1.17c0-.7-.46-1.06-1.3-1.09h-3Z"/><path class="cls-3" d="M200.55,243.1v6.17a2.15,2.15,0,0,0,.71,1.78,2.81,2.81,0,0,0,1.78.56,2.78,2.78,0,0,0,1.77-.56,2.15,2.15,0,0,0,.71-1.78V243.1h2.13v6.74a3.55,3.55,0,0,1-1.31,2.77,5.38,5.38,0,0,1-6.6,0,3.53,3.53,0,0,1-1.32-2.77V243.1Z"/><path class="cls-3" d="M210,243.09h2.12v10.65H210Z"/><path class="cls-3" d="M222.89,243.1v2h-3.55v8.66h-2.13v-8.66h-3.54v-2Z"/><path class="cls-3" d="M223.85,243.1h2.5l2.47,3.47,2.52-3.47h2.44l-3.9,5.32v5.32h-2.13v-5.32Z"/></svg>