<svg id="Layer_1" data-name="Layer 1" xmlns="http://www.w3.org/2000/svg" width="170.4556" height="18.2529" viewBox="0 0 170.4556 18.2529"><defs><style>.cls-1{fill:#ac9655;}</style></defs><title>frame3</title><path class="cls-1" d="M4.2471,18.2246a4.097,4.097,0,0,1-3.0113-1.2363A4.08,4.08,0,0,1,0,13.9912V.2275H2.6279V13.9629A1.4691,1.4691,0,0,0,3.0825,15.05a1.5039,1.5039,0,0,0,1.0938.4473A1.5272,1.5272,0,0,0,5.71,13.9629V.2275H8.5083V13.9912a4.0445,4.0445,0,0,1-1.25,3.0117A4.1516,4.1516,0,0,1,4.2471,18.2246Z"/><path class="cls-1" d="M17.5088.2129l3.5625,11.9707V.2129h2.6846V18.0254H20.8726L17.1792,6.6191V18.0254H14.4946V.2129Z"/><path class="cls-1" d="M33.9751,18.2529a4.2434,4.2434,0,0,1-4.2612-4.247V4.29a4.0951,4.0951,0,0,1,1.25-3.0185,4.26,4.26,0,0,1,6.0224.0068A4.1269,4.1269,0,0,1,38.2227,4.29V6.3213H35.4385V4.2324A1.5513,1.5513,0,0,0,33.89,2.6846a1.4689,1.4689,0,0,0-1.0869.4541,1.5043,1.5043,0,0,0-.4472,1.0937v9.7451A1.5269,1.5269,0,0,0,33.89,15.5107a1.5017,1.5017,0,0,0,1.0938-.4472,1.4676,1.4676,0,0,0,.4546-1.086V11.52h2.7842v2.4864a4.2452,4.2452,0,0,1-4.2476,4.247Z"/><path class="cls-1" d="M48.2285,0a4.0965,4.0965,0,0,1,3.0176,1.25,4.1134,4.1134,0,0,1,1.2432,3.0107v9.7168a4.2544,4.2544,0,1,1-8.5088,0V4.2607a4.0962,4.0962,0,0,1,1.25-3.0175A4.1008,4.1008,0,0,1,48.2285,0Zm1.4629,4.2041A1.5289,1.5289,0,0,0,48.1572,2.67a1.5,1.5,0,0,0-1.0937.4483,1.4639,1.4639,0,0,0-.4551,1.0859v9.7441a1.4649,1.4649,0,0,0,.4551,1.087,1.4992,1.4992,0,0,0,1.0937.4472,1.5271,1.5271,0,0,0,1.5342-1.5342Z"/><path class="cls-1" d="M61.1182,18.0254,57.9365.2275H60.75l2.2344,13.8731L65.2344.2275H68.05L64.8105,18.0254Z"/><path class="cls-1" d="M73.8926,18.0254V.2129h7.6426V2.9121H76.5781V7.77H80.2v2.6993H76.5781v4.8574h4.9571v2.6992Z"/><path class="cls-1" d="M91.2144.2275A4.094,4.094,0,0,1,94.51,1.4629a4.4929,4.4929,0,0,1,.9228,3.0117V7.06a4.16,4.16,0,0,1-1.4346,3.1963l1.9883,7.77H93.0835l-1.6279-6.7041H89.6665v6.7041H86.981V.2275ZM92.82,4.5166a1.3621,1.3621,0,0,0-1.5342-1.5478H89.6665V8.665h1.6191a1.4642,1.4642,0,0,0,1.086-.455A1.502,1.502,0,0,0,92.82,7.1162Z"/><path class="cls-1" d="M109.5649,18.0254h-2.6855V.2129h3.8525l2.502,12.7959L115.6362.2129h3.7012V18.0254h-2.6846V6.832l-2.3291,11.1934h-2.1591l-2.6-11.165Z"/><path class="cls-1" d="M129.5435,0a4.0962,4.0962,0,0,1,3.0175,1.25,4.1134,4.1134,0,0,1,1.2432,3.0107v9.7168a4.2544,4.2544,0,1,1-8.5088,0V4.2607a4.0962,4.0962,0,0,1,1.25-3.0175A4.1008,4.1008,0,0,1,129.5435,0Zm1.4628,4.2041A1.5287,1.5287,0,0,0,129.4722,2.67a1.5,1.5,0,0,0-1.0938.4483,1.4639,1.4639,0,0,0-.4551,1.0859v9.7441a1.4649,1.4649,0,0,0,.4551,1.087,1.5,1.5,0,0,0,1.0938.4472,1.5269,1.5269,0,0,0,1.5341-1.5342Z"/><path class="cls-1" d="M144.0083.2275a4.0938,4.0938,0,0,1,3.2959,1.2354,4.4929,4.4929,0,0,1,.9229,3.0117V7.06a4.16,4.16,0,0,1-1.4346,3.1963l1.9883,7.77h-2.9034L144.25,11.3213H142.46v6.7041h-2.6855V.2275Zm1.6055,4.2891A1.3621,1.3621,0,0,0,144.08,2.9688H142.46V8.665H144.08a1.4638,1.4638,0,0,0,1.0859-.455,1.5017,1.5017,0,0,0,.4483-1.0938Z"/><path class="cls-1" d="M154.6812,18.0254V.2129h7.6425V2.9121h-4.957V7.77h3.6221v2.6993h-3.6221v4.8574h4.957v2.6992Z"/><path class="cls-1" d="M167.77,15.3545h2.6856V18.04H167.77Z"/></svg>