<svg id="Layer_1" data-name="Layer 1" xmlns="http://www.w3.org/2000/svg" width="161.7178" height="48.6377" viewBox="0 0 161.7178 48.6377"><defs><style>.cls-1{fill:#ac9655;}</style></defs><title>frame2</title><path class="cls-1" d="M8.8779,13.5938a5.0071,5.0071,0,0,1-.9658,3.1816A3.4816,3.4816,0,0,1,6.0654,18.04a5.0531,5.0531,0,0,1-1.4912.1983A4.2181,4.2181,0,0,1,1.96,17.457a4.3658,4.3658,0,0,1-1.37-1.74,7.0181,7.0181,0,0,1-.59-2.52l2.5566-.1856a3.8876,3.8876,0,0,0,.8243,2.2559,1.3725,1.3725,0,0,0,1.1084.5,1.6642,1.6642,0,0,0,1.4062-.8672,2.1543,2.1543,0,0,0,.2695-1.18,3.2766,3.2766,0,0,0-1.0088-2.2041q-.7953-.7528-2.3857-2.26a10.1929,10.1929,0,0,1-1.89-2.3184,5.36,5.36,0,0,1-.5967-2.502A4.3549,4.3549,0,0,1,1.918.7529,4.061,4.061,0,0,1,4.418,0,4.5458,4.5458,0,0,1,6.875.6387,3.7025,3.7025,0,0,1,8.1611,2.0312a5.1627,5.1627,0,0,1,.5889,2.06L6.1787,4.56a3.0889,3.0889,0,0,0-.625-1.7051A1.3116,1.3116,0,0,0,4.4893,2.415a1.2279,1.2279,0,0,0-1.1231.6534A2.5206,2.5206,0,0,0,3.0537,4.375,3.9192,3.9192,0,0,0,4.1055,6.86,8.78,8.78,0,0,0,5.2988,7.9971q.9375.7808,1.2354,1.0937a9.1329,9.1329,0,0,1,1.5342,1.96,7.62,7.62,0,0,1,.4121.8379A4.885,4.885,0,0,1,8.8779,13.5938Z"/><path class="cls-1" d="M17.3926,18.0254H14.708V.2275h2.6846Z"/><path class="cls-1" d="M26.4072.2129,29.97,12.1836V.2129h2.6846V18.0254H29.7705L26.0771,6.6191V18.0254H23.3926V.2129Z"/><path class="cls-1" d="M42.873,18.2529a4.2444,4.2444,0,0,1-4.2617-4.247V4.29a4.097,4.097,0,0,1,1.25-3.0185,4.2615,4.2615,0,0,1,6.0235.0068A4.13,4.13,0,0,1,47.12,4.29V6.3213H44.3359V4.2324a1.55,1.55,0,0,0-1.5478-1.5478,1.4686,1.4686,0,0,0-1.0869.4541,1.506,1.506,0,0,0-.4473,1.0937v9.7451a1.5271,1.5271,0,0,0,1.5342,1.5332,1.5023,1.5023,0,0,0,1.0937-.4472,1.4668,1.4668,0,0,0,.4541-1.086V11.52H47.12v2.4864a4.2444,4.2444,0,0,1-4.2471,4.247Z"/><path class="cls-1" d="M52.9219,18.0254V.2129h7.6426V2.9121H55.6074V7.77H59.23v2.6993H55.6074v4.8574h4.9571v2.6992Z"/><path class="cls-1" d="M74.9043,13.9346l-.6523,4.0908H71.4561L74.4824.2275h3.6924l2.9834,17.7979H78.335l-.628-4.0908Zm1.41-9.6309L75.32,11.3213h1.9883Z"/><path class="cls-1" d="M90.03.2129l3.5625,11.9707V.2129h2.6845V18.0254H93.3936L89.7012,6.6191V18.0254H87.0156V.2129Z"/><path class="cls-1" d="M106.4961,18.2529a4.2443,4.2443,0,0,1-4.2617-4.247V4.29a4.097,4.097,0,0,1,1.25-3.0185,4.2613,4.2613,0,0,1,6.0234.0068A4.13,4.13,0,0,1,110.7432,4.29V6.3213H107.959V4.2324a1.55,1.55,0,0,0-1.5479-1.5478,1.4687,1.4687,0,0,0-1.0869.4541,1.5063,1.5063,0,0,0-.4472,1.0937v9.7451a1.5269,1.5269,0,0,0,1.5341,1.5332,1.5025,1.5025,0,0,0,1.0938-.4472,1.4671,1.4671,0,0,0,.4541-1.086V11.52h2.7842v2.4864a4.2444,4.2444,0,0,1-4.2471,4.247Z"/><path class="cls-1" d="M119.23,18.0254h-2.6856V.2275H119.23Z"/><path class="cls-1" d="M125.2285,18.0254V.2129h7.6426V2.9121h-4.957V7.77h3.622v2.6993h-3.622v4.8574h4.957v2.6992Z"/><path class="cls-1" d="M141.3311.2129l3.5625,11.9707V.2129h2.6845V18.0254h-2.8838L141.002,6.6191V18.0254h-2.6856V.2129Z"/><path class="cls-1" d="M156.1924,2.9258h-2.8555V.2275h8.3809V2.9258H158.877v15.1h-2.6846Z"/><path class="cls-1" d="M48.0254,33.3252H45.17V30.627h8.3809v2.6982H50.71v15.1H48.0254Z"/><path class="cls-1" d="M61.9941,48.4248H59.3086V30.627h2.6855Z"/><path class="cls-1" d="M70.68,48.4248H67.9941V30.6123h3.8526l2.5019,12.7959L76.751,30.6123h3.7011V48.4248H77.7676V37.2314L75.4385,48.4248H73.2793L70.68,37.26Z"/><path class="cls-1" d="M86.4512,48.4248V30.6123h7.6426v2.6992H89.1367v4.8574h3.6221v2.6993H89.1367v4.8574h4.9571v2.6992Z"/><path class="cls-1" d="M108.418,43.9932a5.0018,5.0018,0,0,1-.9659,3.1816,3.482,3.482,0,0,1-1.8466,1.2647,5.0571,5.0571,0,0,1-1.4912.1982,4.2152,4.2152,0,0,1-2.6133-.7813,4.3583,4.3583,0,0,1-1.3711-1.74,7.0391,7.0391,0,0,1-.59-2.52l2.5577-.1855a3.8808,3.8808,0,0,0,.8232,2.2558,1.3723,1.3723,0,0,0,1.1084.5,1.6639,1.6639,0,0,0,1.4062-.8672,2.1541,2.1541,0,0,0,.27-1.18,3.2771,3.2771,0,0,0-1.0088-2.2041q-.7955-.7529-2.3858-2.26a10.1929,10.1929,0,0,1-1.89-2.3184,5.36,5.36,0,0,1-.5967-2.5019,4.355,4.355,0,0,1,1.6338-3.6827,4.0635,4.0635,0,0,1,2.5-.7529,4.5455,4.5455,0,0,1,2.457.6387,3.7031,3.7031,0,0,1,1.2862,1.3926,5.1471,5.1471,0,0,1,.5888,2.06l-2.57.4688a3.1034,3.1034,0,0,0-.625-1.7051,1.3147,1.3147,0,0,0-1.0654-.4394,1.2273,1.2273,0,0,0-1.1221.6533,2.5109,2.5109,0,0,0-.3125,1.3066,3.9175,3.9175,0,0,0,1.0508,2.4854,8.8422,8.8422,0,0,0,1.1934,1.1367q.9375.7807,1.2353,1.0937a9.1013,9.1013,0,0,1,1.5342,1.96,7.62,7.62,0,0,1,.4121.8379A4.8635,4.8635,0,0,1,108.418,43.9932Z"/><path class="cls-1" d="M113.8643,45.7539H116.55V48.44h-2.6855Z"/></svg>