<?xml version="1.0" encoding="utf-8"?>
<!-- Generator: Adobe Illustrator 22.1.0, SVG Export Plug-In . SVG Version: 6.00 Build 0)  -->
<svg version="1.1" id="Layer_1" xmlns="http://www.w3.org/2000/svg" xmlns:xlink="http://www.w3.org/1999/xlink" x="0px" y="0px"
	 viewBox="0 0 171.5 79" style="enable-background:new 0 0 171.5 79;" xml:space="preserve">
<style type="text/css">
	.st0{fill:#D3B372;}
</style>
<title>frame1</title>
<path class="st0" d="M10.2,18.3C7.9,18.3,6,16.4,6,14c0,0,0,0,0,0V4.3c0-1.1,0.4-2.2,1.2-3C8,0.5,9.1,0,10.2,0c1.1,0,2.2,0.4,3,1.2
	c0.8,0.8,1.3,1.9,1.2,3v2h-2.8V4.2c0-0.9-0.7-1.5-1.5-1.5C9.7,2.7,9.3,2.8,9,3.1C8.8,3.4,8.6,3.8,8.6,4.2V14c0,0.8,0.7,1.5,1.5,1.5
	c0,0,0,0,0,0c0.4,0,0.8-0.2,1.1-0.4c0.3-0.3,0.5-0.7,0.5-1.1v-2.5h2.8V14c0,1.1-0.4,2.2-1.2,3C12.4,17.8,11.3,18.3,10.2,18.3z"/>
<path class="st0" d="M23,13.9L22.4,18h-2.8l3-17.8h3.7l3,17.8h-2.8l-0.6-4.1L23,13.9z M24.5,4.3l-1,7h2L24.5,4.3z"/>
<path class="st0" d="M38.2,0.2l3.6,12v-12h2.7V18h-2.9L37.8,6.6V18h-2.7V0.2H38.2z"/>
<path class="st0" d="M53.4,0.2l3.6,12v-12h2.7V18h-2.9L53.1,6.6V18h-2.7V0.2H53.4z"/>
<path class="st0" d="M69,13.9L68.3,18h-2.8l3-17.8h3.7l3,17.8h-2.8l-0.6-4.1L69,13.9z M70.4,4.3l-1,7h2L70.4,4.3z"/>
<path class="st0" d="M80.3,18V0.2h4c1,0,2,0.3,2.9,0.8c0.8,0.5,1.3,1.3,1.6,2.2C88.9,3.9,89,4.5,89,5.1c0.1,1-0.3,2.1-1,2.9
	c-0.3,0.3-0.6,0.5-0.9,0.7c0.6,0.3,1.2,0.7,1.5,1.4c0.3,0.5,0.5,1.1,0.6,1.8c0.1,0.4,0.1,0.8,0.1,1.2c0,1-0.2,2-0.6,2.9
	c-0.3,0.6-0.8,1.1-1.4,1.5c-0.6,0.4-1.3,0.6-2,0.6L80.3,18z M83.2,7.5h1.1c0.8,0,1.5-0.5,1.7-1.2c0.1-0.4,0.2-0.7,0.2-1.1
	c0-0.6-0.1-1.2-0.5-1.7c-0.3-0.4-0.8-0.5-1.3-0.5h-1.1L83.2,7.5z M83.2,15.4h1.1c0.9,0,1.7-0.6,1.9-1.4c0.1-0.4,0.2-0.7,0.2-1.1
	c0.1-0.8-0.1-1.5-0.6-2.2c-0.4-0.4-0.9-0.7-1.5-0.6h-1.1L83.2,15.4z"/>
<path class="st0" d="M97.2,18h-2.7V0.2h2.7L97.2,18z"/>
<path class="st0" d="M111.1,13.6c0.1,1.1-0.3,2.3-1,3.2c-0.5,0.6-1.1,1.1-1.8,1.3c-0.5,0.1-1,0.2-1.5,0.2c-0.9,0-1.9-0.2-2.6-0.8
	c-0.6-0.5-1.1-1.1-1.4-1.7c-0.4-0.8-0.6-1.7-0.6-2.5l2.6-0.2c0,0.8,0.3,1.6,0.8,2.3c0.3,0.3,0.7,0.5,1.1,0.5c0.6,0,1.1-0.3,1.4-0.9
	c0.2-0.4,0.3-0.8,0.3-1.2c0-0.8-0.4-1.6-1-2.2c-0.5-0.5-1.3-1.3-2.4-2.3c-0.7-0.7-1.4-1.5-1.9-2.3c-0.4-0.8-0.6-1.6-0.6-2.5
	c-0.1-1.4,0.5-2.8,1.6-3.7c0.7-0.5,1.6-0.8,2.5-0.8c0.9,0,1.7,0.2,2.5,0.6c0.5,0.3,1,0.8,1.3,1.4c0.3,0.6,0.5,1.3,0.6,2.1l-2.6,0.5
	c0-0.6-0.3-1.2-0.6-1.7c-0.3-0.3-0.7-0.5-1.1-0.4c-0.5,0-0.9,0.2-1.1,0.7c-0.2,0.4-0.3,0.9-0.3,1.3c0,0.9,0.4,1.8,1.1,2.5
	c0.4,0.4,0.8,0.8,1.2,1.1c0.6,0.5,1,0.9,1.2,1.1c0.6,0.6,1.1,1.2,1.5,2c0.2,0.3,0.3,0.6,0.4,0.8C110.9,12.4,111,13,111.1,13.6z"/>
<path class="st0" d="M130.1,10.5V18h-2.7V0.2h2.7v7.6h3.2V0.2h2.7V18h-2.7v-7.5H130.1z"/>
<path class="st0" d="M145.3,13.9l-0.7,4.1h-2.8l3-17.8h3.7l3,17.8h-2.8l-0.6-4.1L145.3,13.9z M146.7,4.3l-1,7h2L146.7,4.3z"/>
<path class="st0" d="M165.5,13.6c0.1,1.1-0.3,2.3-1,3.2c-0.5,0.6-1.1,1.1-1.8,1.3c-0.5,0.1-1,0.2-1.5,0.2c-0.9,0-1.9-0.2-2.6-0.8
	c-0.6-0.5-1.1-1.1-1.4-1.7c-0.4-0.8-0.6-1.7-0.6-2.5l2.6-0.2c0,0.8,0.3,1.6,0.8,2.3c0.3,0.3,0.7,0.5,1.1,0.5c0.6,0,1.1-0.3,1.4-0.9
	c0.2-0.4,0.3-0.8,0.3-1.2c0-0.8-0.4-1.6-1-2.2c-0.5-0.5-1.3-1.3-2.4-2.3c-0.7-0.7-1.4-1.5-1.9-2.3c-0.4-0.8-0.6-1.6-0.6-2.5
	c-0.1-1.4,0.5-2.8,1.6-3.7c0.7-0.5,1.6-0.8,2.5-0.8c0.9,0,1.7,0.2,2.5,0.6c0.5,0.3,1,0.8,1.3,1.4c0.3,0.6,0.5,1.3,0.6,2.1l-2.6,0.5
	c0-0.6-0.3-1.2-0.6-1.7c-0.3-0.3-0.7-0.5-1.1-0.4c-0.5,0-0.9,0.2-1.1,0.7c-0.2,0.4-0.3,0.9-0.3,1.3c0,0.9,0.4,1.8,1.1,2.5
	c0.4,0.4,0.8,0.8,1.2,1.1c0.6,0.5,1,0.9,1.2,1.1c0.6,0.6,1.1,1.2,1.5,2c0.2,0.3,0.3,0.6,0.4,0.8C165.3,12.4,165.5,13,165.5,13.6z"/>
<path class="st0" d="M0,48.4V30.6h4c1,0,2,0.3,2.9,0.8c0.8,0.5,1.3,1.3,1.6,2.2c0.2,0.6,0.3,1.2,0.3,1.9c0.1,1-0.3,2.1-1,2.9
	c-0.3,0.3-0.6,0.5-0.9,0.7c0.6,0.3,1.2,0.7,1.5,1.3c0.3,0.5,0.5,1.1,0.6,1.8C9,42.6,9.1,43,9,43.5c0,1-0.2,2-0.6,2.9
	c-0.3,0.6-0.8,1.1-1.4,1.5c-0.6,0.4-1.3,0.6-2,0.6L0,48.4z M2.9,37.9H4c0.8,0,1.5-0.5,1.7-1.2c0.1-0.4,0.2-0.7,0.2-1.1
	c0-0.6-0.1-1.2-0.5-1.7C5,33.5,4.5,33.3,4,33.3H2.9V37.9z M2.9,45.8H4c0.9,0,1.7-0.6,1.9-1.4C6,44,6.1,43.6,6.1,43.3
	c0.1-0.8-0.1-1.5-0.6-2.2c-0.4-0.4-0.9-0.7-1.5-0.6H2.9V45.8z"/>
<path class="st0" d="M14.2,48.4V30.6h7.6v2.7h-5v4.9h3.6v2.7h-3.6v4.9h5v2.7L14.2,48.4z"/>
<path class="st0" d="M26.8,48.4V30.6h7.6v2.7h-5v4.9h3.6v2.7h-3.6v4.9h5v2.7L26.8,48.4z"/>
<path class="st0" d="M42.9,30.6l3.6,12v-12h2.7v17.8h-2.9L42.6,37v11.4h-2.7V30.6H42.9z"/>
<path class="st0" d="M64.3,48.6c-2.3,0-4.2-1.9-4.2-4.2c0,0,0,0,0,0V30.6h2.6v13.7c0,0.4,0.2,0.8,0.5,1.1c0.3,0.3,0.7,0.5,1.1,0.4
	c0.8,0,1.5-0.7,1.5-1.5c0,0,0,0,0,0V30.6h2.8v13.8c0,1.1-0.4,2.2-1.2,3C66.5,48.2,65.5,48.6,64.3,48.6z"/>
<path class="st0" d="M82.1,44c0.1,1.1-0.3,2.3-1,3.2c-0.5,0.6-1.1,1.1-1.8,1.3c-0.5,0.1-1,0.2-1.5,0.2c-0.9,0-1.9-0.2-2.6-0.8
	c-0.6-0.5-1.1-1.1-1.4-1.7c-0.4-0.8-0.6-1.7-0.6-2.5l2.6-0.2c0,0.8,0.3,1.6,0.8,2.3c0.3,0.3,0.7,0.5,1.1,0.5c0.6,0,1.1-0.3,1.4-0.9
	c0.2-0.4,0.3-0.8,0.3-1.2c0-0.8-0.4-1.6-1-2.2c-0.5-0.5-1.3-1.3-2.4-2.3c-0.7-0.7-1.4-1.5-1.9-2.3c-0.4-0.8-0.6-1.6-0.6-2.5
	c-0.1-1.4,0.5-2.8,1.6-3.7c0.7-0.5,1.6-0.8,2.5-0.8c0.9,0,1.7,0.2,2.5,0.6c0.5,0.3,1,0.8,1.3,1.4c0.3,0.6,0.5,1.3,0.6,2.1L79.4,35
	c0-0.6-0.3-1.2-0.6-1.7c-0.3-0.3-0.7-0.5-1.1-0.4c-0.5,0-0.9,0.2-1.1,0.7c-0.2,0.4-0.3,0.9-0.3,1.3c0,0.9,0.4,1.8,1.1,2.5
	c0.4,0.4,0.8,0.8,1.2,1.1c0.6,0.5,1,0.9,1.2,1.1c0.6,0.6,1.1,1.2,1.5,2c0.2,0.3,0.3,0.6,0.4,0.8C81.9,42.8,82.1,43.4,82.1,44z"/>
<path class="st0" d="M86.7,48.4V30.6h7.6v2.7h-5v4.9H93v2.7h-3.6v4.9h5v2.7L86.7,48.4z"/>
<path class="st0" d="M107.4,44.2c0,1.1-0.4,2.2-1.2,3c-0.8,0.8-1.9,1.3-3,1.2H99V30.6h4.2c1.1,0,2.2,0.4,3,1.2
	c0.8,0.8,1.2,1.9,1.2,3L107.4,44.2z M101.7,45.8h1.6c0.4,0,0.8-0.2,1.1-0.5c0.3-0.3,0.4-0.7,0.4-1.1v-9.3c0-0.4-0.2-0.8-0.4-1.1
	c-0.3-0.3-0.7-0.5-1.1-0.5h-1.6L101.7,45.8z"/>
<path class="st0" d="M126.8,44.3l-0.7,4.1h-2.8l3-17.8h3.7l3,17.8h-2.8l-0.6-4.1H126.8z M128.2,34.7l-1,7h2L128.2,34.7z"/>
<path class="st0" d="M145.4,44c0.1,1.1-0.3,2.3-1,3.2c-0.5,0.6-1.1,1.1-1.8,1.3c-0.5,0.1-1,0.2-1.5,0.2c-0.9,0-1.9-0.2-2.6-0.8
	c-0.6-0.5-1.1-1.1-1.4-1.7c-0.4-0.8-0.6-1.7-0.6-2.5l2.6-0.2c0,0.8,0.3,1.6,0.8,2.3c0.3,0.3,0.7,0.5,1.1,0.5c0.6,0,1.1-0.3,1.4-0.9
	c0.2-0.4,0.3-0.8,0.3-1.2c0-0.8-0.4-1.6-1-2.2c-0.5-0.5-1.3-1.3-2.4-2.3c-0.7-0.7-1.4-1.5-1.9-2.3c-0.4-0.8-0.6-1.6-0.6-2.5
	c-0.1-1.4,0.5-2.8,1.6-3.7c0.7-0.5,1.6-0.8,2.5-0.8c0.9,0,1.7,0.2,2.5,0.6c0.5,0.3,1,0.8,1.3,1.4c0.3,0.6,0.5,1.3,0.6,2.1l-2.6,0.5
	c0-0.6-0.3-1.2-0.6-1.7c-0.3-0.3-0.7-0.5-1.1-0.4c-0.5,0-0.9,0.2-1.1,0.7c-0.2,0.4-0.3,0.9-0.3,1.3c0,0.9,0.4,1.8,1.1,2.5
	c0.4,0.4,0.8,0.8,1.2,1.1c0.6,0.5,1,0.9,1.2,1.1c0.6,0.6,1.1,1.2,1.5,2c0.2,0.3,0.3,0.6,0.4,0.8C145.3,42.8,145.4,43.4,145.4,44z"/>
<path class="st0" d="M165.2,44.3l-0.7,4.1h-2.8l3-17.8h3.7l3,17.8h-2.8l-0.6-4.1H165.2z M166.6,34.7l-1,7h2L166.6,34.7z"/>
<path class="st0" d="M21.1,74.4c0,1.1-0.3,2.3-1,3.2c-0.5,0.6-1.1,1.1-1.8,1.3c-0.5,0.1-1,0.2-1.5,0.2c-0.9,0-1.9-0.2-2.6-0.8
	c-0.6-0.5-1.1-1.1-1.4-1.7c-0.4-0.8-0.6-1.7-0.6-2.5l2.6-0.2c0,0.8,0.3,1.6,0.8,2.3c0.3,0.3,0.7,0.5,1.1,0.5c0.6,0,1.1-0.3,1.4-0.9
	c0.2-0.4,0.3-0.8,0.3-1.2c0-0.8-0.4-1.6-1-2.2c-0.5-0.5-1.3-1.3-2.4-2.3c-0.7-0.7-1.4-1.5-1.9-2.3c-0.4-0.8-0.6-1.6-0.6-2.5
	c-0.1-1.4,0.5-2.8,1.6-3.7c0.7-0.5,1.6-0.8,2.5-0.8c0.9,0,1.7,0.2,2.5,0.6c0.5,0.3,1,0.8,1.3,1.4c0.3,0.6,0.5,1.3,0.6,2.1l-2.6,0.5
	c0-0.6-0.3-1.2-0.6-1.7c-0.3-0.3-0.7-0.5-1.1-0.4c-0.5,0-0.9,0.2-1.1,0.7c-0.2,0.4-0.3,0.9-0.3,1.3c0,0.9,0.4,1.8,1.1,2.5
	c0.4,0.4,0.8,0.8,1.2,1.1c0.6,0.5,1,0.9,1.2,1.1c0.6,0.6,1.1,1.2,1.5,2c0.2,0.3,0.3,0.6,0.4,0.8C20.9,73.2,21,73.8,21.1,74.4z"/>
<path class="st0" d="M29.9,61c1.2-0.1,2.3,0.4,3.1,1.2c0.7,0.8,1.1,1.9,1.1,3v2.6c0,1.1-0.4,2.2-1.2,3c-0.8,0.8-1.9,1.3-3,1.2h-1.5
	v6.7h-2.7V61H29.9z M31.5,65.3c0-0.4-0.1-0.8-0.4-1.1c-0.3-0.3-0.7-0.4-1.1-0.4h-1.6v5.7H30c0.4,0,0.8-0.2,1.1-0.5
	c0.3-0.3,0.5-0.7,0.4-1.1L31.5,65.3z"/>
<path class="st0" d="M41.4,78.8h-2.7V61h2.7V78.8z"/>
<path class="st0" d="M51.2,61c1.2-0.1,2.4,0.3,3.3,1.2c0.7,0.9,1,1.9,0.9,3v2.6c0,1.2-0.5,2.4-1.4,3.2l2,7.8h-2.9l-1.6-6.7h-1.8v6.7
	H47V61H51.2z M52.8,65.3c0.1-0.7-0.4-1.4-1.1-1.5c-0.1,0-0.3,0-0.4,0h-1.6v5.7h1.6c0.4,0,0.8-0.2,1.1-0.5c0.3-0.3,0.5-0.7,0.4-1.1
	V65.3z"/>
<path class="st0" d="M63.8,78.8h-2.7V61h2.7L63.8,78.8z"/>
<path class="st0" d="M71.6,63.7h-2.9V61h8.4v2.7h-2.8v15.1h-2.7V63.7z"/>
<path class="st0" d="M86.3,79c-2.3,0-4.2-1.9-4.2-4.2c0,0,0,0,0,0V61h2.6v13.7c0,0.4,0.2,0.8,0.5,1.1c0.3,0.3,0.7,0.5,1.1,0.4
	c0.8,0,1.5-0.7,1.5-1.5c0,0,0,0,0,0V61h2.8v13.8c0,1.1-0.4,2.2-1.2,3C88.5,78.6,87.4,79,86.3,79z"/>
<path class="st0" d="M98.7,74.7L98,78.8h-2.8l3-17.8h3.7l3,17.8h-2.8l-0.6-4.1H98.7z M100.1,65.1l-1,7h2L100.1,65.1z"/>
<path class="st0" d="M117.3,78.8H110V61h2.7v15.1h4.6L117.3,78.8z"/>
<path class="st0" d="M131.6,74.7l-0.7,4.1h-2.8l3-17.8h3.7l3,17.8h-2.8l-0.6-4.1H131.6z M133,65.1l-1,7h2L133,65.1z"/>
<path class="st0" d="M145.2,78.8h-2.7V61h2.7V78.8z"/>
<path class="st0" d="M159.3,74.6c0,1.1-0.4,2.2-1.2,3c-0.8,0.8-1.9,1.3-3,1.2h-4.2V61h4.2c1.1,0,2.2,0.4,3,1.2
	c0.8,0.8,1.2,1.9,1.2,3L159.3,74.6z M153.5,76.2h1.6c0.4,0,0.8-0.2,1.1-0.5c0.3-0.3,0.4-0.7,0.4-1.1v-9.3c0-0.4-0.2-0.8-0.4-1.1
	c-0.3-0.3-0.7-0.5-1.1-0.5h-1.6L153.5,76.2z"/>
</svg>
