<svg id="Layer_1" data-name="Layer 1" xmlns="http://www.w3.org/2000/svg" width="728" height="90" viewBox="0 0 728 90"><defs><style>.cls-1{fill:#ab9555;}</style></defs><title>frame1_1</title><path class="cls-1" d="M314.522,59.292V41.51807h7.625v2.69287H317.1997v4.84765h3.61524V51.751H317.1997v4.84765H322.147V59.292Z"/><path class="cls-1" d="M334.00634,55.04a4.12345,4.12345,0,0,1-1.23339,3.00488,4.03573,4.03573,0,0,1-2.97754,1.24707h-4.209V41.51807h4.209a4.02915,4.02915,0,0,1,2.98437,1.24707,4.116,4.116,0,0,1,1.22656,2.99121Zm-5.74121,1.60156h1.61621a1.42844,1.42844,0,0,0,1.07715-.46094,1.52153,1.52153,0,0,0,.43946-1.084V45.79834a1.5038,1.5038,0,0,0-.44629-1.09131,1.44939,1.44939,0,0,0-1.07032-.45361h-1.61621Z"/><path class="cls-1" d="M342.1792,59.49023a4.21125,4.21125,0,0,1-4.23829-4.22363V41.53223H340.563V55.23828a1.46686,1.46686,0,0,0,.45313,1.084,1.501,1.501,0,0,0,1.0918.44628,1.52542,1.52542,0,0,0,1.53125-1.53027V41.53223h2.792V55.2666a4.03765,4.03765,0,0,1-1.24707,3.00488A4.14656,4.14656,0,0,1,342.1792,59.49023Z"/><path class="cls-1" d="M354.61865,59.51855a4.23448,4.23448,0,0,1-4.25293-4.23828V45.58643a4.24514,4.24514,0,1,1,8.49023,0V47.6123h-2.77734V45.52979a1.54791,1.54791,0,0,0-1.54492-1.54541,1.46237,1.46237,0,0,0-1.084.45361,1.49567,1.49567,0,0,0-.44726,1.0918V55.252a1.52542,1.52542,0,0,0,1.53125,1.53125,1.50094,1.50094,0,0,0,1.09179-.44629,1.46745,1.46745,0,0,0,.45313-1.085V52.7998H358.856v2.48047a4.23272,4.23272,0,0,1-4.2373,4.23828Z"/><path class="cls-1" d="M365.42431,55.21l-.65039,4.082h-2.79l3.01856-17.75976H368.688L371.66455,59.292h-2.81641l-.627-4.082Zm1.40625-9.60986-.99023,7.00146h1.98242Z"/><path class="cls-1" d="M375.856,44.2251h-2.84961V41.53223h8.36329V44.2251h-2.83594V59.292H375.856Z"/><path class="cls-1" d="M387.79931,59.292h-2.67968V41.53223h2.67968Z"/><path class="cls-1" d="M396.00048,41.30518a4.24693,4.24693,0,0,1,4.252,4.252V55.252a4.24514,4.24514,0,1,1-8.49024,0V45.55713a4.24777,4.24777,0,0,1,4.23828-4.252Zm1.459,4.1958a1.52213,1.52213,0,0,0-1.5293-1.53077,1.50133,1.50133,0,0,0-1.09179.44629,1.46347,1.46347,0,0,0-.45313,1.08448v9.72265a1.46376,1.46376,0,0,0,.45313,1.085,1.49935,1.49935,0,0,0,1.09179.44629,1.52213,1.52213,0,0,0,1.5293-1.53125Z"/><path class="cls-1" d="M407.20947,41.51807l3.55469,11.94482V41.51807h2.67968V59.292h-2.8789l-3.6836-11.38183V59.292h-2.67968V41.51807Z"/><path class="cls-1" d="M416.88134,56.627H419.561v2.67969h-2.67969Z"/></svg>