<svg id="Layer_1" data-name="Layer 1" xmlns="http://www.w3.org/2000/svg" width="300" height="600" viewBox="0 0 300 600"><defs><style>.cls-1{fill:#ab9555;}</style></defs><title>frame1</title><path class="cls-1" d="M106.74756,313.99316a5.06155,5.06155,0,0,1-5.0957-5.0791V292.397h3.15332v16.48291a1.76332,1.76332,0,0,0,.54492,1.30371,1.80246,1.80246,0,0,0,1.3125.53711,1.83385,1.83385,0,0,0,1.84082-1.84082V292.397h3.3584v16.51709a4.85352,4.85352,0,0,1-1.5,3.61328A4.9837,4.9837,0,0,1,106.74756,313.99316Z"/><path class="cls-1" d="M121.22119,292.37988l4.27539,14.36524V292.37988h3.22168v21.375h-3.46l-4.43262-13.6875v13.6875H117.605v-21.375Z"/><path class="cls-1" d="M139.55811,292.397a4.90724,4.90724,0,0,1,3.75,1.48291,5.14606,5.14606,0,0,1,1.29589,3.61377v3.10205a4.97,4.97,0,0,1-1.47461,3.61328,4.82387,4.82387,0,0,1-3.57128,1.5h-1.8584v8.0459H134.479V292.397Zm1.92578,5.14746a1.83412,1.83412,0,0,0-.50293-1.34619,1.79,1.79,0,0,0-1.33789-.51172h-1.94336v6.835h1.94336a1.76391,1.76391,0,0,0,1.30468-.54492,1.807,1.807,0,0,0,.53614-1.3125Z"/><path class="cls-1" d="M158.835,313.75488h-8.77783V292.397h3.22021V310.5498H158.835Z"/><path class="cls-1" d="M169.02637,313.99316a5.06157,5.06157,0,0,1-5.09571-5.0791V292.397H167.084v16.48291a1.76329,1.76329,0,0,0,.54493,1.30371,1.80244,1.80244,0,0,0,1.3125.53711,1.83385,1.83385,0,0,0,1.84082-1.84082V292.397h3.35839v16.51709a4.85352,4.85352,0,0,1-1.5,3.61328A4.98368,4.98368,0,0,1,169.02637,313.99316Z"/><path class="cls-1" d="M184.94727,314.02734a5.10635,5.10635,0,0,1-5.11329-5.09668V297.272a5.105,5.105,0,1,1,10.21,0v2.4375h-3.34083v-2.50586a1.863,1.863,0,0,0-1.85839-1.85791,1.76222,1.76222,0,0,0-1.30371.54541,1.80246,1.80246,0,0,0-.53711,1.3125v11.69287a1.83384,1.83384,0,0,0,1.84082,1.84082,1.803,1.803,0,0,0,1.3125-.53515,1.7547,1.7547,0,0,0,.54589-1.30078v-4.19825h-1.79v-3.23828H190.044v7.46582a5.09294,5.09294,0,0,1-5.09668,5.09668Z"/><path class="cls-1" d="M195.13965,310.5498h3.2207v3.22168h-3.2207Z"/></svg>