<svg id="Layer_1" data-name="Layer 1" xmlns="http://www.w3.org/2000/svg" width="320" height="50" viewBox="0 0 320 50"><defs><style>.cls-1{fill:#fff;}</style></defs><title>reflection</title><path class="cls-1" d="M136.19,30.45h-1.41V21.09h2l1.31,6.71,1.27-6.71h1.94v9.36h-1.41V24.57l-1.22,5.88h-1.13l-1.37-5.86Z"/><path class="cls-1" d="M145.21,21a2.25,2.25,0,0,1,2.24,2.24v5.1a2.24,2.24,0,0,1-2.24,2.24,2.12,2.12,0,0,1-1.58-.65,2.2,2.2,0,0,1-.65-1.59v-5.1A2.25,2.25,0,0,1,145.21,21ZM146,23.2a.78.78,0,0,0-.23-.58.79.79,0,0,0-.57-.23.81.81,0,0,0-.57.23.78.78,0,0,0-.24.58v5.11a.75.75,0,0,0,.24.57.78.78,0,0,0,.57.24.76.76,0,0,0,.57-.24.74.74,0,0,0,.23-.57Z"/><path class="cls-1" d="M151.33,21.09a2.13,2.13,0,0,1,1.73.66,2.37,2.37,0,0,1,.49,1.58v1.35a2.14,2.14,0,0,1-.76,1.68l1.05,4.09h-1.52l-.86-3.54h-.94v3.53h-1.41V21.09Zm.84,2.26a.71.71,0,0,0-.8-.81h-.85v3h.85a.77.77,0,0,0,.57-.23.82.82,0,0,0,.23-.58Z"/><path class="cls-1" d="M155.47,30.45V21.09h4V22.5h-2.6v2.57h1.9v1.41h-1.9V29h2.6v1.41Z"/><path class="cls-1" d="M165.87,21.09a2.13,2.13,0,0,1,1.73.66,2.37,2.37,0,0,1,.48,1.58v1.35a2.17,2.17,0,0,1-.75,1.68l1,4.09h-1.52L166,26.91h-.94v3.53h-1.41V21.09Zm.84,2.26a.71.71,0,0,0-.8-.81h-.85v3h.85a.77.77,0,0,0,.57-.23.82.82,0,0,0,.23-.58Z"/><path class="cls-1" d="M170,30.45V21.09h4V22.5h-2.6v2.57h1.9v1.41h-1.9V29H174v1.41Z"/><path class="cls-1" d="M176.82,30.45h-1.41V21.09h4V22.5h-2.6v2.57h1.9v1.41h-1.9Z"/><path class="cls-1" d="M184.66,30.45h-3.85V21.09h1.41v8h2.44Z"/><path class="cls-1" d="M186,30.45V21.09h4V22.5h-2.61v2.57h1.9v1.41h-1.9V29h2.61v1.41Z"/><path class="cls-1" d="M193.68,30.56a2.22,2.22,0,0,1-2.23-2.23V23.21a2.14,2.14,0,0,1,.65-1.58,2.19,2.19,0,0,1,1.58-.65,2.22,2.22,0,0,1,2.23,2.23v1.07h-1.46V23.19a.82.82,0,0,0-.81-.82.75.75,0,0,0-.57.24.78.78,0,0,0-.24.58v5.13a.76.76,0,0,0,.24.57.75.75,0,0,0,.57.24.78.78,0,0,0,.57-.24.76.76,0,0,0,.24-.57V27h1.46v1.3a2.2,2.2,0,0,1-2.23,2.23Z"/><path class="cls-1" d="M198.8,22.5h-1.5V21.09h4.4V22.5h-1.49v8H198.8Z"/><path class="cls-1" d="M204.66,30.45h-1.41V21.09h1.41Z"/><path class="cls-1" d="M208.55,21a2.24,2.24,0,0,1,2.24,2.24v5.1a2.18,2.18,0,0,1-.65,1.59,2.16,2.16,0,0,1-1.59.65,2.1,2.1,0,0,1-1.57-.65,2.16,2.16,0,0,1-.65-1.59v-5.1A2.24,2.24,0,0,1,208.55,21Zm.77,2.22a.79.79,0,0,0-.8-.81.8.8,0,0,0-.81.81v5.11a.75.75,0,0,0,.24.57.76.76,0,0,0,.57.24.8.8,0,0,0,.8-.81Z"/><path class="cls-1" d="M214,21.09l1.87,6.29V21.09h1.41v9.36H215.8l-1.94-6v6h-1.41V21.09Z"/><path class="cls-1" d="M218.7,29h1.41v1.41H218.7Z"/></svg>