<svg id="Layer_1" data-name="Layer 1" xmlns="http://www.w3.org/2000/svg" width="280.5918" height="20.9912" viewBox="0 0 280.5918 20.9912"><defs><style>.cls-1{fill:#ac9655;}</style></defs><title>frame2</title><path class="cls-1" d="M10.209,15.6328a5.7612,5.7612,0,0,1-1.11,3.6592,3.9994,3.9994,0,0,1-2.124,1.4541,5.7936,5.7936,0,0,1-1.7148.2285,4.8571,4.8571,0,0,1-3.0059-.8984,5.0232,5.0232,0,0,1-1.5762-2.001A8.0535,8.0535,0,0,1,0,15.1758l2.94-.2129a4.47,4.47,0,0,0,.9482,2.5947,1.5747,1.5747,0,0,0,1.2734.5742,1.9116,1.9116,0,0,0,1.6172-.997,2.4759,2.4759,0,0,0,.3106-1.3565A3.7726,3.7726,0,0,0,5.93,13.2432q-.9156-.8658-2.7451-2.6A11.7015,11.7015,0,0,1,1.0127,7.9785,6.1537,6.1537,0,0,1,.3262,5.1016,5.0052,5.0052,0,0,1,2.2051.8662,4.67,4.67,0,0,1,5.08,0,5.2245,5.2245,0,0,1,7.9062.7354,4.2432,4.2432,0,0,1,9.3838,2.3359a5.9368,5.9368,0,0,1,.6787,2.3692l-2.957.539a3.5765,3.5765,0,0,0-.7188-1.9609,1.5111,1.5111,0,0,0-1.2256-.5059,1.41,1.41,0,0,0-1.29.751,2.8932,2.8932,0,0,0-.3594,1.5029A4.5044,4.5044,0,0,0,4.7207,7.89,10.1143,10.1143,0,0,0,6.0928,9.1973q1.078.8979,1.4209,1.2578A10.4946,10.4946,0,0,1,9.2783,12.709a8.855,8.855,0,0,1,.4737.9639A5.61,5.61,0,0,1,10.209,15.6328Z"/><path class="cls-1" d="M20.001,20.73H16.9141V.2617H20.001Z"/><path class="cls-1" d="M30.3672.2451l4.0967,13.7666V.2451h3.0869V20.73H34.2354L29.9883,7.6123V20.73H26.9V.2451Z"/><path class="cls-1" d="M49.3037,20.9912a4.8814,4.8814,0,0,1-4.9-4.8848V4.9336a4.715,4.715,0,0,1,1.4375-3.4717A4.7367,4.7367,0,0,1,49.3037.0332a4.6862,4.6862,0,0,1,3.4639,1.4375,4.7471,4.7471,0,0,1,1.4209,3.4629V7.27H50.9863V4.8682a1.7838,1.7838,0,0,0-1.78-1.78,1.6884,1.6884,0,0,0-1.25.5225,1.7284,1.7284,0,0,0-.5137,1.2578v11.206a1.7557,1.7557,0,0,0,1.7637,1.7637,1.7257,1.7257,0,0,0,1.2578-.5147,1.6849,1.6849,0,0,0,.5224-1.249V13.248h3.2022v2.8584a4.8813,4.8813,0,0,1-4.8848,4.8848Z"/><path class="cls-1" d="M60.8594,20.73V.2451h8.789V3.3486H63.9473V8.9355h4.165v3.1036h-4.165V17.626h5.7011V20.73Z"/><path class="cls-1" d="M86.14,16.0254,85.39,20.73H82.1748L85.6543.2617h4.2471L93.332,20.73H90.0859l-.7226-4.7041ZM87.7617,4.9492l-1.1435,8.07h2.2871Z"/><path class="cls-1" d="M103.5352.2451l4.0966,13.7666V.2451h3.087V20.73h-3.3155L103.1562,7.6123V20.73h-3.0878V.2451Z"/><path class="cls-1" d="M122.4707,20.9912a4.8814,4.8814,0,0,1-4.9-4.8848V4.9336a4.715,4.715,0,0,1,1.4375-3.4717A4.7367,4.7367,0,0,1,122.4707.0332a4.6862,4.6862,0,0,1,3.4639,1.4375,4.7471,4.7471,0,0,1,1.4209,3.4629V7.27h-3.2022V4.8682a1.7838,1.7838,0,0,0-1.78-1.78,1.6887,1.6887,0,0,0-1.25.5225,1.7287,1.7287,0,0,0-.5136,1.2578v11.206a1.7555,1.7555,0,0,0,1.7636,1.7637,1.7258,1.7258,0,0,0,1.2579-.5147,1.6849,1.6849,0,0,0,.5224-1.249V13.248h3.2022v2.8584a4.8813,4.8813,0,0,1-4.8848,4.8848Z"/><path class="cls-1" d="M137.1143,20.73h-3.0879V.2617h3.0879Z"/><path class="cls-1" d="M144.0156,20.73V.2451h8.7891V3.3486h-5.7012V8.9355h4.1651v3.1036h-4.1651V17.626h5.7012V20.73Z"/><path class="cls-1" d="M162.5342.2451l4.0967,13.7666V.2451h3.0869V20.73h-3.3155l-4.247-13.1172V20.73h-3.0879V.2451Z"/><path class="cls-1" d="M179.624,3.3652h-3.2832V.2617h9.6377V3.3652h-3.2666V20.73H179.624Z"/><path class="cls-1" d="M201.7881,3.3652h-3.2832V.2617h9.6377V3.3652H204.876V20.73h-3.0879Z"/><path class="cls-1" d="M217.8525,20.73h-3.0879V.2617h3.0879Z"/><path class="cls-1" d="M227.8408,20.73h-3.0879V.2451h4.4307L232.0605,14.96,234.8232.2451h4.2559V20.73h-3.0869V7.8574L233.3135,20.73H230.83L227.8408,7.89Z"/><path class="cls-1" d="M245.9785,20.73V.2451h8.7891V3.3486h-5.7012V8.9355h4.165v3.1036h-4.165V17.626h5.7012V20.73Z"/><path class="cls-1" d="M271.24,15.6328a5.7564,5.7564,0,0,1-1.1113,3.6592,3.9971,3.9971,0,0,1-2.123,1.4541,5.7971,5.7971,0,0,1-1.7159.2285,4.8558,4.8558,0,0,1-3.0048-.8984,5.0244,5.0244,0,0,1-1.5772-2.001,8.0723,8.0723,0,0,1-.6777-2.8994l2.94-.2129a4.4708,4.4708,0,0,0,.9473,2.5947,1.5766,1.5766,0,0,0,1.2744.5742,1.9142,1.9142,0,0,0,1.6172-.997,2.4768,2.4768,0,0,0,.31-1.3565,3.7694,3.7694,0,0,0-1.16-2.5351q-.9141-.8658-2.7442-2.6a11.7119,11.7119,0,0,1-2.1728-2.6651,6.1639,6.1639,0,0,1-.6856-2.8769,5.0072,5.0072,0,0,1,1.878-4.2354A4.6741,4.6741,0,0,1,266.11,0a5.2226,5.2226,0,0,1,2.8261.7354,4.2445,4.2445,0,0,1,1.4785,1.6005,5.9217,5.9217,0,0,1,.6778,2.3692l-2.9561.539a3.5764,3.5764,0,0,0-.7187-1.9609,1.5125,1.5125,0,0,0-1.2256-.5059,1.41,1.41,0,0,0-1.29.751,2.8932,2.8932,0,0,0-.3593,1.5029A4.5076,4.5076,0,0,0,265.751,7.89a10.1907,10.1907,0,0,0,1.373,1.3077q1.0782.8979,1.4209,1.2578a10.4915,10.4915,0,0,1,1.7637,2.2539,8.4838,8.4838,0,0,1,.4736.9639A5.5887,5.5887,0,0,1,271.24,15.6328Z"/><path class="cls-1" d="M277.5039,17.6582h3.0879v3.0879h-3.0879Z"/></svg>