<svg id="Layer_1" data-name="Layer 1" xmlns="http://www.w3.org/2000/svg" xmlns:xlink="http://www.w3.org/1999/xlink" width="498.9" height="124.6601" viewBox="0 0 498.9 124.6601"><defs><style>.cls-1{fill:#ac9655;}.cls-2{fill:url(#New_Gradient_Swatch_1);}.cls-3{fill:url(#New_Gradient_Swatch_1-2);}</style><linearGradient id="New_Gradient_Swatch_1" x1="363.4799" y1="62.33" x2="490.5658" y2="62.33" gradientUnits="userSpaceOnUse"><stop offset="0" stop-color="#ac8e34"/><stop offset="0.1878" stop-color="#ceb367"/><stop offset="0.461" stop-color="#a48e4a"/><stop offset="0.7634" stop-color="#ceb367"/><stop offset="1" stop-color="#997f2e"/></linearGradient><linearGradient id="New_Gradient_Swatch_1-2" x1="506.2853" y1="94.2436" x2="484.7471" y2="110.2826" xlink:href="#New_Gradient_Swatch_1"/></defs><title>frame4</title><path class="cls-1" d="M3.4668,62.339,7.5645,76.1056V62.339H10.65V82.8233H7.3359L3.0879,69.7062V82.8233H0V62.339Z"/><path class="cls-1" d="M21.3359,78.1192l-.75,4.7041H17.3711l3.4805-20.4677h4.2461l3.4316,20.4677H25.2832l-.7227-4.7041ZM22.959,67.0431l-1.1445,8.07h2.2871Z"/><path class="cls-1" d="M38.3535,82.8233H35.2656V62.339h4.4317l2.8769,14.7148L45.3359,62.339h4.2559V82.8233H46.5059V69.9513l-2.68,12.872H41.3438l-2.99-12.84Z"/><path class="cls-1" d="M60.2773,78.1192l-.75,4.7041H56.3125L59.791,62.3556h4.2481l3.43,20.4677H64.2227L63.5,78.1192Zm1.6211-11.0761-1.1425,8.07H63.043Z"/><path class="cls-1" d="M83.4844,77.7267a5.75,5.75,0,0,1-1.1114,3.6591A3.99,3.99,0,0,1,80.25,82.84a5.7889,5.7889,0,0,1-1.7148.2285,4.8565,4.8565,0,0,1-3.0059-.8985,5.03,5.03,0,0,1-1.5762-2.0009,8.0515,8.0515,0,0,1-.6777-2.9l2.9394-.2129a4.478,4.478,0,0,0,.9473,2.5948,1.5788,1.5788,0,0,0,1.2754.5742,1.9167,1.9167,0,0,0,1.6172-.9971,2.4764,2.4764,0,0,0,.3105-1.3564,3.77,3.77,0,0,0-1.16-2.5352q-.9141-.8657-2.7442-2.6a11.7476,11.7476,0,0,1-2.1738-2.665,6.1652,6.1652,0,0,1-.6855-2.877A5.0076,5.0076,0,0,1,75.4805,62.96a4.6734,4.6734,0,0,1,2.875-.8662,5.2278,5.2278,0,0,1,2.8261.7353A4.2617,4.2617,0,0,1,82.66,64.43a5.9373,5.9373,0,0,1,.6777,2.3691l-2.957.5391a3.5682,3.5682,0,0,0-.7188-1.9609,1.51,1.51,0,0,0-1.2246-.5059,1.4122,1.4122,0,0,0-1.291.751,2.8922,2.8922,0,0,0-.3594,1.5029,4.5046,4.5046,0,0,0,1.209,2.8584,10.0764,10.0764,0,0,0,1.373,1.3076q1.0782.898,1.42,1.2578a10.49,10.49,0,0,1,1.7636,2.2539,8.354,8.354,0,0,1,.4746.9639A5.5639,5.5639,0,0,1,83.4844,77.7267Z"/><path class="cls-1" d="M93.0312,65.4591H89.748V62.3556h9.6387v3.1035H96.1191V82.8233H93.0312Z"/><path class="cls-1" d="M106.0078,82.8233V62.339h8.7891v3.1035h-5.7012v5.5869h4.166v3.1035h-4.166V79.72h5.7012v3.1035Z"/><path class="cls-1" d="M121.0605,79.7521h3.0879V82.84h-3.0879Z"/><path class="cls-1" d="M135.3125,83.0851a4.8814,4.8814,0,0,1-4.9-4.8848V67.0275a4.8926,4.8926,0,1,1,9.7852,0v2.3359h-3.2032V66.962a1.7821,1.7821,0,0,0-1.7793-1.78,1.6891,1.6891,0,0,0-1.25.5225,1.7249,1.7249,0,0,0-.5136,1.2578V78.1681a1.7553,1.7553,0,0,0,1.7636,1.7636,1.7277,1.7277,0,0,0,1.2579-.5146,1.6881,1.6881,0,0,0,.5214-1.249V75.3419h3.2032V78.2a4.8813,4.8813,0,0,1-4.8848,4.8848Z"/><path class="cls-1" d="M151.7031,62.0939a4.8946,4.8946,0,0,1,4.9,4.9V78.1681a4.8926,4.8926,0,1,1-9.7851,0V66.9942a4.8945,4.8945,0,0,1,4.8847-4.9Zm1.6836,4.8349a1.7589,1.7589,0,0,0-1.7656-1.7637,1.7271,1.7271,0,0,0-1.2578.5147,1.6894,1.6894,0,0,0-.5215,1.249V78.1349a1.69,1.69,0,0,0,.5215,1.25,1.7314,1.7314,0,0,0,1.2578.5146,1.7587,1.7587,0,0,0,1.7656-1.7646Z"/><path class="cls-1" d="M166.543,82.8233h-3.0879V62.339h4.4316l2.877,14.7148,2.7617-14.7148h4.2558V82.8233h-3.0859V69.9513l-2.68,12.872h-2.4824l-2.99-12.84Z"/><path class="cls-2" d="M363.48,106.6747h1.199l11.2709,11.27v-11.27h3.5974V124.66h-1.3184L367.077,113.5092V124.66H363.48Zm29.64,0,7.1823,17.973-3.8246.0124-1.08-2.7578h-8.1533l-1.0793,2.7578h-3.8365l7.1942-17.9854Zm.9591,11.6307-2.6616-6.835-2.7335,6.835Zm10.1084-11.6307h-1.1988V124.66h3.5973V114.2287l5.3955,5.9949,5.3951-5.9949.0124,10.4314h3.5969V106.6747H419.787l-7.8056,8.8724Zm30.2278,0,7.1819,17.973-3.8251.0124-1.0792-2.7578h-8.1534L427.46,124.66h-3.8365l7.1942-17.9854Zm.9592,11.6307-2.6616-6.835-2.734,6.835Zm14.2687,2.9972a5.696,5.696,0,0,1-4.0766-1.6786l-2.3986,2.3985a9.0767,9.0767,0,0,0,2.8779,1.9183,10.6494,10.6494,0,0,0,4.1848.719,7.2632,7.2632,0,0,0,4.622-1.5586,4.61,4.61,0,0,0,1.9847-3.7169,4.5015,4.5015,0,0,0-1.8587-4.0166,8.919,8.919,0,0,0-4.1367-1.4986,4.7407,4.7407,0,0,1-2.7578-1.08,1.4032,1.4032,0,0,1,0-1.7386q.6-1.0188,2.7578-1.0188a4.13,4.13,0,0,1,3.3577,1.4385l2.3976-2.398a8.3875,8.3875,0,0,0-2.5777-1.7987,10.0375,10.0375,0,0,0-3.8851-.5994,7.199,7.199,0,0,0-4.2023,1.4449,4.4748,4.4748,0,0,0-2.0443,3.831,3.98,3.98,0,0,0,1.7983,3.717,9.6672,9.6672,0,0,0,3.957,1.3188q2.3976.24,2.9915,1.2589a1.9,1.9,0,0,1,0,2.0388Q452.0415,121.3026,449.6431,121.3026Zm19.0884,3.3574V110.0319h5.9954v-3.3572H459.1392v3.3572h5.9949V124.66Zm21.8343-14.6281v-3.3572l-13.2131.0119V124.66h13.19v-3.3572H480.95v-4.0886h7.2062v-3.3453H480.95v-3.837Zm-17.689-32.6094-9.8691.0224,1.0994-.36a12.3585,12.3585,0,0,0-2.3289.7185l-11.5133,4.7985,6.9674-5.1912-.0532.0087-.159-1.197-1.2662-2.0883a41.7157,41.7157,0,0,0,9.4869-9.7939l-9.3086,4.4566,9.4846-7.9a15.62,15.62,0,0,0,3.0116-3.2651c1.2231-1.8486,2.3587-3.7426,3.3944-5.66l-2.94,2.903,3.524-7.6657a101.24,101.24,0,0,0,5.2141-14.4159,122.7123,122.7123,0,0,0-13.9723,9.002l-6.8995,5.2287,2.2-3.4291c-1.7849,1.5177-3.5107,3.12-5.1577,4.7883a15.12,15.12,0,0,0-2.54,3.5589l-5.0394,9.6518,1.79-8.8095a41.6537,41.6537,0,0,0-3.9924,4.775l-.8784,1.2254-.8052-.5527a2.3285,2.3285,0,0,0-.1246.21L435.28,71.5687l4.0821-14.267a45.2893,45.2893,0,0,0,1.3542-17.9042L435.95,48.2566l2.3087-10.6573a17.3509,17.3509,0,0,0,.3606-5.3181,85.8694,85.8694,0,0,0-1.8316-10.7586l-.6283,5.231-2.07-7.6263A129.7632,129.7632,0,0,0,427.0229,0a129.6126,129.6126,0,0,0-7.0668,19.1273l-2.0691,7.6263-.6287-5.231a85.9427,85.9427,0,0,0-1.8317,10.7586,17.36,17.36,0,0,0,.3607,5.3185l2.3059,10.66-4.764-8.8614a45.2828,45.2828,0,0,0,1.3541,17.9029L418.766,71.57l-6.9225-13.1273a2.2164,2.2164,0,0,0-.1246-.21l-.8052.5527-.8785-1.2254a41.6545,41.6545,0,0,0-3.9924-4.775l1.7905,8.81-5.04-9.6518a15.1277,15.1277,0,0,0-2.5392-3.5589c-1.6438-1.6653-3.3673-3.2651-5.15-4.781l2.2056,3.4319L390.397,41.796a122.6581,122.6581,0,0,0-13.9724-9.002A101.2267,101.2267,0,0,0,381.6387,47.21l3.524,7.6657-2.94-2.903c1.0356,1.9173,2.1717,3.8113,3.3948,5.66a15.6035,15.6035,0,0,0,3.0112,3.2651l9.4846,7.9-9.3086-4.4566a41.7074,41.7074,0,0,0,9.4868,9.7939l-1.2661,2.0883-.159,1.197-.0537-.0087,6.9683,5.1916-11.5137-4.7989a12.44,12.44,0,0,0-2.328-.7185l1.0989.36-9.87-.0224a84.8611,84.8611,0,0,0-9.4058.57,77.6328,77.6328,0,0,0,8.0416,4.42l8.683,4.0734-.9985-.121a12.8578,12.8578,0,0,0,2.2019.2814l13.1567.5843-8.9773,1.71a32.2467,32.2467,0,0,0,6.4843.713l9.5236.0623-5.5692,1.8074,8.5561,1.487-13.1758.7915q-.3142.0185-.6164.0572l-6.0454,2.9558c-1.55.7584-2.9974,1.5815-4.3337,2.4059,1.6584.1283,3.4438.2071,5.2521.1746l6.889-.1228c.1874-.067.3758-.1416.5637-.2227l11.3969-4.9616-5.75,4.4336a20.1051,20.1051,0,0,0,2.2565-.9655s.8972.5174,1.0686.6612a4.2037,4.2037,0,0,0,.4835-.1054,20.3379,20.3379,0,0,0,4.9936-2.9154,20.9866,20.9866,0,0,1,5.6-3.1954,13.9676,13.9676,0,0,1,1.96-.3667,5.338,5.338,0,0,1-2.5823-1.61c-1.2465-1.246-1.7231-2.9278-.522-3.2829s3.38,1.6822,3.5213,1.6822a2.5984,2.5984,0,0,0,.7263-1.6772c0-.719-.5132-2.1176-.6094-2.964a14.0942,14.0942,0,0,0-.5119-2.4522c-.1875-.5572-1.49-.8-2.1887-1.2313a11.4215,11.4215,0,0,1-1.7633-1.2208,5.5773,5.5773,0,0,1-.75-2.5585,10.06,10.06,0,0,0-.4207-2.6043c-.2434-.4559-.8689-.7781-1.2919-1.2011a1.8185,1.8185,0,0,1-.4358-1.12c.3245-.1013.4257.7346.8006.8056s.35.38.9372.5825.6081.4816.6841,1.0288.7346,2.3962.9523,3.151.4459,1.323,1.191,1.3482.6434.41,1.52.34a4.9063,4.9063,0,0,1,2.1029.4051c.4711.1673,1.0641.1824,1.2667-.1466s-.1421-1.6571-.1421-1.6571c-.3038,0-.3547-.41-.4711-.79s.071-.4106.071-.4106a1.6057,1.6057,0,1,1,3.06,0s.1874.03.071.4106-.1672.79-.4715.79c0,0-.3442,1.3276-.1416,1.6571s.7955.3139,1.2666.1466A4.906,4.906,0,0,1,431.38,78.65c.8767.0706.7754-.3143,1.52-.34s.973-.593,1.1906-1.3482.8767-2.6039.9527-3.151.0963-.8263.6842-1.0288.5623-.5114.9372-.5825.4765-.9069.8-.8056a1.8213,1.8213,0,0,1-.4358,1.12c-.4229.423-1.0485.7452-1.2918,1.2011a10.06,10.06,0,0,0-.4207,2.6043,5.58,5.58,0,0,1-.75,2.5585,11.4281,11.4281,0,0,1-1.7634,1.2208c-.6993.4312-2.0012.6741-2.1886,1.2313a14.0479,14.0479,0,0,0-.5119,2.4522c-.0962.8464-.6095,2.245-.6095,2.964a2.5984,2.5984,0,0,0,.7264,1.6772c.1415,0,2.3206-2.0365,3.5212-1.6822s.7245,2.0369-.5219,3.2829a5.3384,5.3384,0,0,1-2.5823,1.61,13.966,13.966,0,0,1,1.96.3667,20.9836,20.9836,0,0,1,5.6,3.1954,20.3456,20.3456,0,0,0,4.9932,2.9154,4.2355,4.2355,0,0,0,.483.1059c.1714-.1434,1.07-.6617,1.07-.6617A20.0972,20.0972,0,0,0,447,98.5216l-5.75-4.4336L452.6474,99.05c.1874.0811.3758.1557.5632.2227l6.889.1228c1.8083.033,3.5941-.0463,5.2521-.1746-1.3363-.8244-2.7835-1.6475-4.3347-2.4059l-6.0444-2.9558c-.2012-.0256-.407-.0449-.6159-.0572L441.1813,93.01l8.5611-1.4879-5.55-1.8065,9.4983-.0623a32.2437,32.2437,0,0,0,6.4844-.713l-8.9773-1.71,13.1566-.5843a12.92,12.92,0,0,0,2.2024-.2809l-.999.121,8.6831-4.0739a77.6432,77.6432,0,0,0,8.0416-4.42A84.8551,84.8551,0,0,0,472.8768,77.4225Z"/><path class="cls-3" d="M493.1493,101.2372v3.2646h-.6484v-3.2646h-1.2146v-.5827h3.083v.5827Zm5.1514,3.2646-.0053-2.8744-1.2146,2.473h-.4233l-1.2146-2.473v2.8744h-.61v-3.8473h.7693l1.27,2.5558,1.2643-2.5558H498.9v3.8473Z"/></svg>