<svg id="Layer_1" data-name="Layer 1" xmlns="http://www.w3.org/2000/svg" xmlns:xlink="http://www.w3.org/1999/xlink" width="508.022" height="124.6601" viewBox="0 0 508.022 124.6601"><defs><style>.cls-1{fill:#ac9655;}.cls-2{fill:url(#New_Gradient_Swatch_1);}.cls-3{fill:url(#New_Gradient_Swatch_1-2);}</style><linearGradient id="New_Gradient_Swatch_1" x1="372.602" y1="62.33" x2="499.6878" y2="62.33" gradientUnits="userSpaceOnUse"><stop offset="0" stop-color="#ac8e34"/><stop offset="0.1878" stop-color="#ceb367"/><stop offset="0.461" stop-color="#a48e4a"/><stop offset="0.7634" stop-color="#ceb367"/><stop offset="1" stop-color="#997f2e"/></linearGradient><linearGradient id="New_Gradient_Swatch_1-2" x1="515.4074" y1="94.2436" x2="493.8692" y2="110.2826" xlink:href="#New_Gradient_Swatch_1"/></defs><title>frame3</title><path class="cls-1" d="M4.8848,83.0519A4.7124,4.7124,0,0,1,1.4219,81.631,4.6915,4.6915,0,0,1,0,78.1837V62.3556H3.0225V78.1515a1.689,1.689,0,0,0,.5224,1.25,1.73,1.73,0,0,0,1.2578.5146,1.7572,1.7572,0,0,0,1.7647-1.7646V62.3556H9.7852V78.1837a4.6532,4.6532,0,0,1-1.4375,3.4639A4.7776,4.7776,0,0,1,4.8848,83.0519Z"/><path class="cls-1" d="M20.1348,62.339l4.0966,13.7666V62.339h3.087V82.8233H24.0029l-4.247-13.1171V82.8233H16.668V62.339Z"/><path class="cls-1" d="M39.0713,83.0851a4.8814,4.8814,0,0,1-4.9-4.8848V67.0275a4.8926,4.8926,0,1,1,9.7852,0v2.3359H40.7539V66.962a1.7839,1.7839,0,0,0-1.78-1.78,1.6891,1.6891,0,0,0-1.25.5225A1.7289,1.7289,0,0,0,37.21,66.962V78.1681a1.7553,1.7553,0,0,0,1.7636,1.7636,1.7257,1.7257,0,0,0,1.2578-.5146,1.6849,1.6849,0,0,0,.5225-1.249V75.3419h3.2022V78.2a4.8813,4.8813,0,0,1-4.8848,4.8848Z"/><path class="cls-1" d="M55.4629,62.0939a4.8946,4.8946,0,0,1,4.9,4.9V78.1681a4.8926,4.8926,0,1,1-9.7852,0V66.9942a4.8945,4.8945,0,0,1,4.8848-4.9Zm1.6826,4.8349a1.7572,1.7572,0,0,0-1.7646-1.7637,1.7258,1.7258,0,0,0-1.2579.5147,1.6868,1.6868,0,0,0-.5224,1.249V78.1349a1.6874,1.6874,0,0,0,.5224,1.25,1.73,1.73,0,0,0,1.2579.5146,1.757,1.757,0,0,0,1.7646-1.7646Z"/><path class="cls-1" d="M70.2852,82.8233,66.627,62.3556h3.2353L72.4316,78.31,75.02,62.3556h3.2373L74.5322,82.8233Z"/><path class="cls-1" d="M84.9785,82.8233V62.339h8.7891v3.1035H88.0664v5.5869h4.165v3.1035h-4.165V79.72h5.7012v3.1035Z"/><path class="cls-1" d="M104.8984,62.3556a4.71,4.71,0,0,1,3.79,1.4209,5.17,5.17,0,0,1,1.0615,3.4629V70.213a4.7825,4.7825,0,0,1-1.6494,3.6748l2.2861,8.9355h-3.3388l-1.8721-7.71h-2.0576v7.71H100.03V62.3556Zm1.8457,4.9326a1.5664,1.5664,0,0,0-1.7636-1.78h-1.8623v6.5508h1.8623a1.6877,1.6877,0,0,0,1.249-.5234,1.7244,1.7244,0,0,0,.5146-1.2578Z"/><path class="cls-1" d="M126.001,82.8233h-3.0879V62.339h4.4307l2.8769,14.7148,2.7627-14.7148h4.2559V82.8233h-3.087V69.9513l-2.6787,12.872H128.99l-2.9892-12.84Z"/><path class="cls-1" d="M148.9746,62.0939a4.8946,4.8946,0,0,1,4.9,4.9V78.1681a4.8926,4.8926,0,1,1-9.7852,0V66.9942a4.8945,4.8945,0,0,1,4.8848-4.9Zm1.6826,4.8349a1.7572,1.7572,0,0,0-1.7646-1.7637,1.7254,1.7254,0,0,0-1.2578.5147,1.6865,1.6865,0,0,0-.5225,1.249V78.1349a1.6872,1.6872,0,0,0,.5225,1.25,1.73,1.73,0,0,0,1.2578.5146,1.757,1.757,0,0,0,1.7646-1.7646Z"/><path class="cls-1" d="M165.61,62.3556a4.7091,4.7091,0,0,1,3.79,1.4209,5.17,5.17,0,0,1,1.0615,3.4629V70.213a4.7825,4.7825,0,0,1-1.6494,3.6748l2.2861,8.9355H167.76l-1.8721-7.71H163.83v7.71h-3.0879V62.3556Zm1.8457,4.9326a1.5664,1.5664,0,0,0-1.7637-1.78H163.83v6.5508h1.8623a1.6877,1.6877,0,0,0,1.249-.5234,1.7241,1.7241,0,0,0,.5147-1.2578Z"/><path class="cls-1" d="M177.8838,82.8233V62.339h8.7891v3.1035h-5.7012v5.5869h4.165v3.1035h-4.165V79.72h5.7012v3.1035Z"/><path class="cls-1" d="M192.9355,79.7521h3.0879V82.84h-3.0879Z"/><path class="cls-2" d="M372.602,106.6747h1.199l11.2709,11.27v-11.27h3.5973V124.66h-1.3184l-11.1517-11.1509V124.66H372.602Zm29.64,0,7.1823,17.973L405.6,124.66l-1.08-2.7578h-8.1534l-1.0792,2.7578h-3.8365l7.1942-17.9854Zm.9591,11.6307L400.54,111.47l-2.7335,6.835Zm10.1083-11.6307h-1.1988V124.66h3.5973V114.2287l5.3956,5.9949,5.3951-5.9949.0124,10.4314h3.5968V106.6747H428.909l-7.8055,8.8724Zm30.2279,0,7.1818,17.973-3.825.0124-1.0792-2.7578h-8.1534l-1.0792,2.7578h-3.8365l7.1942-17.9854Zm.9591,11.6307-2.6615-6.835-2.734,6.835Zm14.2688,2.9972a5.6965,5.6965,0,0,1-4.0767-1.6786l-2.3985,2.3985a9.0773,9.0773,0,0,0,2.8778,1.9183,10.65,10.65,0,0,0,4.1849.719,7.2632,7.2632,0,0,0,4.622-1.5586,4.61,4.61,0,0,0,1.9847-3.7169,4.5018,4.5018,0,0,0-1.8587-4.0166,8.919,8.919,0,0,0-4.1367-1.4986,4.74,4.74,0,0,1-2.7578-1.08,1.4032,1.4032,0,0,1,0-1.7386q.6-1.0188,2.7578-1.0188a4.1306,4.1306,0,0,1,3.3577,1.4385l2.3976-2.398a8.3887,8.3887,0,0,0-2.5777-1.7987,10.0381,10.0381,0,0,0-3.8852-.5994,7.199,7.199,0,0,0-4.2022,1.4449,4.4748,4.4748,0,0,0-2.0443,3.831,3.98,3.98,0,0,0,1.7982,3.717,9.6681,9.6681,0,0,0,3.9571,1.3188q2.3976.24,2.9915,1.2589a1.9,1.9,0,0,1,0,2.0388Q461.1635,121.3026,458.7652,121.3026Zm19.0883,3.3574V110.0319h5.9954v-3.3572H468.2612v3.3572h5.995V124.66Zm21.8343-14.6281v-3.3572l-13.213.0119V124.66h13.19v-3.3572h-9.5923v-4.0886h7.2061v-3.3453h-7.2061v-3.837Zm-17.689-32.6094-9.869.0224,1.0993-.36a12.36,12.36,0,0,0-2.3288.7185l-11.5134,4.7985,6.9674-5.1912-.0531.0087-.159-1.197-1.2662-2.0883a41.72,41.72,0,0,0,9.4869-9.7939l-9.3087,4.4566,9.4846-7.9a15.62,15.62,0,0,0,3.0117-3.2651c1.2231-1.8486,2.3587-3.7426,3.3944-5.66l-2.94,2.903,3.524-7.6657a101.24,101.24,0,0,0,5.2141-14.4159,122.7035,122.7035,0,0,0-13.9723,9.002l-6.9,5.2287,2.2006-3.4291c-1.7849,1.5177-3.5107,3.12-5.1577,4.7883a15.117,15.117,0,0,0-2.54,3.5589l-5.04,9.6518,1.79-8.8095a41.6435,41.6435,0,0,0-3.9924,4.775l-.8785,1.2254-.8051-.5527a2.3272,2.3272,0,0,0-.1247.21l-6.922,13.1264,4.0822-14.267a45.2874,45.2874,0,0,0,1.3541-17.9042l-4.7668,8.8591,2.3087-10.6573a17.3506,17.3506,0,0,0,.3607-5.3181A85.8513,85.8513,0,0,0,445.91,21.5226l-.6282,5.231-2.07-7.6263A129.7632,129.7632,0,0,0,436.145,0a129.6238,129.6238,0,0,0-7.0669,19.1273l-2.069,7.6263-.6287-5.231a85.9427,85.9427,0,0,0-1.8317,10.7586,17.36,17.36,0,0,0,.3607,5.3185l2.3059,10.66-4.7641-8.8614a45.2828,45.2828,0,0,0,1.3542,17.9029L427.888,71.57l-6.9224-13.1273a2.2369,2.2369,0,0,0-.1247-.21l-.8051.5527-.8785-1.2254a41.6545,41.6545,0,0,0-3.9924-4.775l1.7905,8.81-5.04-9.6518a15.1277,15.1277,0,0,0-2.5392-3.5589c-1.6438-1.6653-3.3673-3.2651-5.15-4.781l2.2056,3.4319L399.519,41.796a122.6573,122.6573,0,0,0-13.9723-9.002A101.2267,101.2267,0,0,0,390.7608,47.21l3.524,7.6657-2.94-2.903c1.0357,1.9173,2.1717,3.8113,3.3948,5.66a15.6068,15.6068,0,0,0,3.0113,3.2651l9.4846,7.9-9.3087-4.4566a41.71,41.71,0,0,0,9.4869,9.7939l-1.2662,2.0883-.159,1.197-.0536-.0087,6.9683,5.1916L401.39,77.8037a12.4361,12.4361,0,0,0-2.3279-.7185l1.0989.36-9.87-.0224a84.8611,84.8611,0,0,0-9.4058.57,77.6412,77.6412,0,0,0,8.0415,4.42l8.6831,4.0734-.9985-.121a12.8565,12.8565,0,0,0,2.2019.2814l13.1566.5843-8.9773,1.71a32.2485,32.2485,0,0,0,6.4844.713l9.5235.0623-5.5692,1.8074,8.5562,1.487-13.1759.7915q-.3141.0185-.6163.0572L402.15,96.8146c-1.55.7584-2.9975,1.5815-4.3338,2.4059,1.6585.1283,3.4439.2071,5.2522.1746l6.889-.1228q.2811-.1005.5636-.2227l11.3969-4.9616-5.75,4.4336a20.0956,20.0956,0,0,0,2.2564-.9655s.8973.5174,1.0687.6612a4.206,4.206,0,0,0,.4834-.1054,20.3364,20.3364,0,0,0,4.9937-2.9154,20.9866,20.9866,0,0,1,5.6-3.1954,13.9676,13.9676,0,0,1,1.9605-.3667,5.338,5.338,0,0,1-2.5823-1.61c-1.2465-1.246-1.7231-2.9278-.522-3.2829s3.38,1.6822,3.5213,1.6822a2.5989,2.5989,0,0,0,.7263-1.6772c0-.719-.5132-2.1176-.6095-2.964a14.0849,14.0849,0,0,0-.5119-2.4522c-.1874-.5572-1.49-.8-2.1886-1.2313a11.4281,11.4281,0,0,1-1.7634-1.2208,5.58,5.58,0,0,1-.75-2.5585,10.0554,10.0554,0,0,0-.4207-2.6043c-.2433-.4559-.8688-.7781-1.2918-1.2011a1.8185,1.8185,0,0,1-.4358-1.12c.3244-.1013.4257.7346.8006.8056s.35.38.9371.5825.6081.4816.6842,1.0288.7346,2.3962.9523,3.151.4458,1.323,1.191,1.3482.6434.41,1.52.34a4.9067,4.9067,0,0,1,2.1029.4051c.4711.1673,1.0641.1824,1.2667-.1466s-.1421-1.6571-.1421-1.6571c-.3038,0-.3547-.41-.4711-.79s.071-.4106.071-.4106a1.6057,1.6057,0,1,1,3.06,0s.1874.03.071.4106-.1673.79-.4715.79c0,0-.3442,1.3276-.1417,1.6571s.7956.3139,1.2667.1466a4.906,4.906,0,0,1,2.1025-.4051c.8766.0706.7753-.3143,1.52-.34s.9729-.593,1.1906-1.3482.8766-2.6039.9527-3.151.0962-.8263.6842-1.0288.5623-.5114.9371-.5825.4766-.9069.8006-.8056a1.8213,1.8213,0,0,1-.4358,1.12c-.423.423-1.0485.7452-1.2918,1.2011a10.0511,10.0511,0,0,0-.4207,2.6043,5.58,5.58,0,0,1-.75,2.5585,11.4281,11.4281,0,0,1-1.7634,1.2208c-.6993.4312-2.0012.6741-2.1886,1.2313a14.0387,14.0387,0,0,0-.5119,2.4522c-.0963.8464-.6095,2.245-.6095,2.964a2.5989,2.5989,0,0,0,.7263,1.6772c.1416,0,2.3206-2.0365,3.5213-1.6822s.7245,2.0369-.522,3.2829a5.338,5.338,0,0,1-2.5823,1.61,13.9676,13.9676,0,0,1,1.96.3667,20.9851,20.9851,0,0,1,5.6,3.1954,20.3456,20.3456,0,0,0,4.9932,2.9154,4.2306,4.2306,0,0,0,.483.1059c.1714-.1434,1.07-.6617,1.07-.6617a20.0956,20.0956,0,0,0,2.2564.9655l-5.75-4.4336L461.7694,99.05c.1875.0811.3758.1557.5633.2227l6.8889.1228c1.8084.033,3.5942-.0463,5.2522-.1746-1.3363-.8244-2.7835-1.6475-4.3347-2.4059l-6.0445-2.9558c-.2011-.0256-.4069-.0449-.6159-.0572L450.3033,93.01l8.5612-1.4879-5.55-1.8065,9.4983-.0623a32.2445,32.2445,0,0,0,6.4844-.713l-8.9773-1.71,13.1566-.5843a12.92,12.92,0,0,0,2.2024-.2809l-.999.121,8.6831-4.0739a77.6412,77.6412,0,0,0,8.0415-4.42A84.8536,84.8536,0,0,0,481.9988,77.4225Z"/><path class="cls-3" d="M502.2714,101.2372v3.2646h-.6484v-3.2646h-1.2146v-.5827h3.083v.5827Zm5.1514,3.2646-.0054-2.8744-1.2145,2.473H505.78l-1.2145-2.473v2.8744h-.61v-3.8473h.7693l1.27,2.5558,1.2642-2.5558h.7639v3.8473Z"/></svg>