<svg id="Layer_1" data-name="Layer 1" xmlns="http://www.w3.org/2000/svg" width="300" height="600" viewBox="0 0 300 600"><defs><style>.cls-1{fill:#ab9555;}</style></defs><title>frame4</title><path class="cls-1" d="M55.93355,306.73964h6.25706a8.77828,8.77828,0,0,1,3.50614.62946A6.62738,6.62738,0,0,1,68.069,309.049a6.28363,6.28363,0,0,1,1.32318,2.41466,10.0784,10.0784,0,0,1,.39845,2.8343v1.09148a9.55347,9.55347,0,0,1-.18863,2.05789,4.92727,4.92727,0,0,1-.56727,1.46944,4.68845,4.68845,0,0,1-.92335,1.11267,8.02491,8.02491,0,0,1-1.25962.90284,4.628,4.628,0,0,1,2.22534,2.12077,8.3662,8.3662,0,0,1,.71353,3.75834v1.67994a8.68386,8.68386,0,0,1-1.91026,6.04655q-1.912,2.10062-6.11012,2.09958H55.93355Zm4.28323,12.26123h1.93146a3.27255,3.27255,0,0,0,2.87667-1.071,5.52621,5.52621,0,0,0,.73472-3.12818,4.71987,4.71987,0,0,0-.81879-3.02294,3.64348,3.64348,0,0,0-2.96074-1.0081H60.21678Zm0,13.3534h1.84739a4.51345,4.51345,0,0,0,2.0367-.37795,2.60241,2.60241,0,0,0,1.11267-1.04979,3.94433,3.94433,0,0,0,.462-1.59588q.08407-.92267.08407-2.01551a13.46814,13.46814,0,0,0-.12576-1.97315,3.25021,3.25021,0,0,0-.52489-1.40724,2.47582,2.47582,0,0,0-1.11267-.86047,5.06139,5.06139,0,0,0-1.88977-.29389H60.21678Z"/><path class="cls-1" d="M76.62114,306.73964H89.38677v4.031h-8.4824V319.547H88.2946v4.031H80.90437v8.77628h8.4824v4.28323H76.62114Z"/><path class="cls-1" d="M105.567,306.73964h6.42451a9.5433,9.5433,0,0,1,3.10768.462,5.9722,5.9722,0,0,1,2.43584,1.63757,6.41254,6.41254,0,0,1,1.51113,2.75023,17.21869,17.21869,0,0,1,.42033,4.262,21.32486,21.32486,0,0,1-.231,3.38038,7.12114,7.12114,0,0,1-.98692,2.62448,6.25,6.25,0,0,1-2.35178,2.2889,7.91846,7.91846,0,0,1-3.8629.81878h-2.18365V336.6375H105.567Zm4.28323,14.19268h2.05789a4.37627,4.37627,0,0,0,2.01552-.37795,2.406,2.406,0,0,0,1.04979-1.0286,4.00314,4.00314,0,0,0,.39846-1.57469q.06355-.92266.06356-2.05721,0-1.04979-.06356-1.995a4.68116,4.68116,0,0,0-.378-1.63757,2.40359,2.40359,0,0,0-.98623-1.09148,3.8264,3.8264,0,0,0-1.93214-.39914h-2.22534Z"/><path class="cls-1" d="M124.05722,306.73964h6.88653q7.5587,0,7.55836,8.77628a11.08732,11.08732,0,0,1-.81879,4.47186,6.32765,6.32765,0,0,1-2.876,3.00244l4.61881,13.64728H134.8914l-3.98935-12.76562h-2.5616V336.6375h-4.28323Zm4.28323,13.3534h2.43585a4.30959,4.30959,0,0,0,1.805-.31508,2.3221,2.3221,0,0,0,1.02929-.90284,3.85541,3.85541,0,0,0,.48252-1.44894,15.7968,15.7968,0,0,0,0-3.98934,3.602,3.602,0,0,0-.5249-1.46943,2.37766,2.37766,0,0,0-1.11267-.90285,5.05889,5.05889,0,0,0-1.88976-.29389h-2.22534Z"/><path class="cls-1" d="M144.74481,306.73964h12.76563v4.031H149.028V319.547h7.39023v4.031H149.028v8.77628h8.4824v4.28323H144.74481Z"/><path class="cls-1" d="M176.93773,315.34779H172.6545v-.96573a4.572,4.572,0,0,0-.69234-2.54041,2.56261,2.56261,0,0,0-2.33059-1.071,2.81524,2.81524,0,0,0-1.44894.33558,2.48444,2.48444,0,0,0-.88166.86116,3.6058,3.6058,0,0,0-.44083,1.21792,8.0772,8.0772,0,0,0-.12644,1.44825,14.70756,14.70756,0,0,0,.06357,1.4913,2.64865,2.64865,0,0,0,.31439,1.04979,2.40088,2.40088,0,0,0,.7354.77641,6.63761,6.63761,0,0,0,1.32249.67184l3.27513,1.302a8.14627,8.14627,0,0,1,2.3094,1.2808,5.20005,5.20005,0,0,1,1.36487,1.72163,7.313,7.313,0,0,1,.65133,2.26771,22.75686,22.75686,0,0,1,.16745,2.91837,15.37042,15.37042,0,0,1-.37795,3.50614,7.388,7.388,0,0,1-1.23843,2.77142,5.95269,5.95269,0,0,1-2.2889,1.82688,8.16188,8.16188,0,0,1-3.48495.67184,7.62656,7.62656,0,0,1-2.89718-.54608,6.89584,6.89584,0,0,1-3.8424-3.73715,6.96786,6.96786,0,0,1-.56727-2.8138v-1.59519h4.28323v1.34368a3.49558,3.49558,0,0,0,.693,2.12009,2.69826,2.69826,0,0,0,2.33059.94522,3.75876,3.75876,0,0,0,1.70044-.31508,2.16673,2.16673,0,0,0,.924-.88166,3.63923,3.63923,0,0,0,.39914-1.40724q.083-.83859.08338-1.84738a18.293,18.293,0,0,0-.08338-1.93145,3.07634,3.07634,0,0,0-.35745-1.21793,2.18063,2.18063,0,0,0-.7559-.7559,10.065,10.065,0,0,0-1.28081-.62947l-3.0653-1.26029a6.78982,6.78982,0,0,1-3.716-3.00243,10.32019,10.32019,0,0,1-.94454-4.68169,10.85715,10.85715,0,0,1,.46133-3.19175,7.45635,7.45635,0,0,1,1.36487-2.60329,6.521,6.521,0,0,1,2.2889-1.74282,7.53854,7.53854,0,0,1,3.23344-.65065,7.11338,7.11338,0,0,1,2.91836.58777,7.25756,7.25756,0,0,1,2.267,1.55419,6.8909,6.8909,0,0,1,1.44893,2.16246,6.265,6.265,0,0,1,.50371,2.45635Z"/><path class="cls-1" d="M182.92824,306.73964h12.76563v4.031h-8.4824V319.547h7.39023v4.031h-7.39023v8.77628h8.4824v4.28323H182.92824Z"/><path class="cls-1" d="M201.09592,306.73964h4.1151l6.46688,18.0139h.08406v-18.0139h4.28323V336.6375h-4.031l-6.55094-17.97221h-.08407V336.6375h-4.28323Z"/><path class="cls-1" d="M225.52066,310.77067h-4.95507v-4.031h14.19268v4.031H229.8032V336.6375h-4.28254Z"/><path class="cls-1" d="M236.73142,332.35427h4.28323v4.28323h-4.28323Z"/></svg>