<svg id="Content" xmlns="http://www.w3.org/2000/svg" xmlns:xlink="http://www.w3.org/1999/xlink" width="320" height="480" viewBox="0 0 320 480"><defs><style>.cls-1{fill:#ba9544;}.cls-2{fill:#fff;stroke:#ba9544;stroke-miterlimit:10;stroke-width:0.5px;}.cls-3{clip-path:url(#clip-path);}</style><clipPath id="clip-path"><polygon class="cls-1" points="58.24 285.077 67.633 298.382 67.818 298.399 67.818 271.535 67.633 271.528 58.24 285.077"/></clipPath></defs><title>CBD - Ultra Sour</title><polygon class="cls-2" points="253.511 272.203 67.428 271.498 58.035 285.045 67.428 298.35 253.511 298.033 261.965 285.119 253.511 272.203"/><polygon class="cls-1" points="58.24 285.077 67.633 298.382 67.818 298.399 67.818 271.535 67.633 271.528 58.24 285.077"/><g class="cls-3"><rect class="cls-1" x="56.16199" y="269.45181" width="13.72836" height="31.0229"/></g><path class="cls-1" d="M167.3584,289.51367a4.55681,4.55681,0,0,1,3.24023-7.80176,4.931,4.931,0,0,1,3.34668,1.21485l-1.21484,1.33008a3.35546,3.35546,0,0,0-2.13184-.72852,2.59585,2.59585,0,0,0-2.72656,2.708,2.73146,2.73146,0,0,0,.75879,2.0166A2.6893,2.6893,0,0,0,170.61133,289a3.26,3.26,0,0,0,2.11914-.72266l1.21484,1.33008a4.9106,4.9106,0,0,1-3.34668,1.21485A4.43462,4.43462,0,0,1,167.3584,289.51367Z"/><path class="cls-1" d="M182.376,286.01855a2.58656,2.58656,0,0,1-1.48243,4.80957l-5.126-.00585v-9.1045h4.835q2.30127.13331,2.42969,2.67871A1.90793,1.90793,0,0,1,182.376,286.01855Zm-4.78028-.65039h2.55078a1.02829,1.02829,0,0,0,1.12989-1.13574q-.03076-.668-1.11133-.7041H177.5957Zm0,4.03321h2.97657a1.18977,1.18977,0,0,0,1.31152-1.31836q-.03077-.87452-1.29395-.91113H177.5957Z"/><path class="cls-1" d="M185.46094,290.82227v-9.11622h3.51074q4.251,0,4.252,4.56153,0,4.55419-4.252,4.55469Zm3.51074-1.81543q2.42284-.00587,2.42969-2.73926-.00586-2.73341-2.42969-2.7334H187.2832v5.47266Z"/><path class="cls-1" d="M199.50977,285.0127a.88082.88082,0,0,1,.65625-.2461.91244.91244,0,0,1,.67968.2461.835.835,0,0,1,.24317.61035.82369.82369,0,0,1-.24317.60742,1.039,1.039,0,0,1-1.33593,0,.82369.82369,0,0,1-.24317-.60742A.835.835,0,0,1,199.50977,285.0127Zm0,4.34863a.88405.88405,0,0,1,.65625-.24512.91583.91583,0,0,1,.67968.24512.83571.83571,0,0,1,.24317.61133.82146.82146,0,0,1-.24317.60644,1.039,1.039,0,0,1-1.33593,0,.82146.82146,0,0,1-.24317-.60644A.83571.83571,0,0,1,199.50977,289.36133Z"/><path class="cls-1" d="M212.54492,284.32324l-3.52344,1.94434,3.52344,1.94336v1.39648l-5.75781-3.16406v-.39453l5.75781-3.12207Z"/><path class="cls-1" d="M220.43457,281.71191v-.00586H222.251v9.11622h-1.81641V284.1416l-1.21484,1.21485-1.21485-1.21485Z"/></svg>