<svg id="Content" xmlns="http://www.w3.org/2000/svg" width="320" height="480" viewBox="0 0 320 480"><defs><style>.cls-1{fill:#ba9544;}</style></defs><title>Frame1 - Ultra Sour</title><path class="cls-1" d="M91.2124,343.96973v16.89941c0,1.56543.68848,2.12793,1.78369,2.12793s1.7837-.5625,1.7837-2.12793V343.96973h3.25488v16.68066c0,3.50488-1.75244,5.50781-5.13233,5.50781s-5.13281-2.00293-5.13281-5.50781V343.96973Z"/><path class="cls-1" d="M103.69629,343.96973h3.44238v18.77734h5.66455V365.877h-9.10693Z"/><path class="cls-1" d="M116.61816,343.96973h10.64063v3.12988h-3.59912V365.877h-3.44238V347.09961h-3.59913Z"/><path class="cls-1" d="M139.273,365.877a6.74517,6.74517,0,0,1-.313-2.6914v-3.44239c0-2.03418-.68848-2.78613-2.25293-2.78613h-1.18945V365.877H132.0752V343.96973H137.27c3.56787,0,5.10156,1.6582,5.10156,5.03808v1.72168c0,2.25293-.72021,3.72461-2.25342,4.44434,1.7212.71972,2.28467,2.37793,2.28467,4.66308v3.37989a6.4528,6.4528,0,0,0,.37549,2.66015Zm-3.75537-18.77734v6.72851h1.3457c1.2832,0,2.06543-.56347,2.06543-2.3164v-2.15918c0-1.56445-.53174-2.25293-1.75244-2.25293Z"/><path class="cls-1" d="M159.11084,365.877h-3.47363l-.59473-3.97461h-4.2251l-.59472,3.97461H147.062l3.50537-21.90722H155.606Zm-7.855-6.94824h3.31738l-1.65869-11.07812Z"/><path class="cls-1" d="M176.81934,343.71973c3.34863,0,5.06982,2.00293,5.06982,5.50781v.68848h-3.25488v-.90821c0-1.56445-.626-2.15918-1.72119-2.15918s-1.7212.59473-1.7212,2.15918c0,4.50684,6.72852,5.35157,6.72852,11.61133,0,3.50488-1.75244,5.50781-5.13232,5.50781-3.38038,0-5.13282-2.00293-5.13282-5.50781v-1.3457h3.25489v1.56445c0,1.56543.68847,2.12793,1.78369,2.12793,1.0957,0,1.78418-.5625,1.78418-2.12793,0-4.50684-6.729-5.35156-6.729-11.61035C171.749,345.72266,173.4707,343.71973,176.81934,343.71973Z"/><path class="cls-1" d="M186.9248,349.22754c0-3.50488,1.8462-5.50781,5.22657-5.50781,3.37988,0,5.22607,2.00293,5.22607,5.50781v11.3916c0,3.50488-1.84619,5.50781-5.22607,5.50781-3.38037,0-5.22657-2.00293-5.22657-5.50781Zm3.44239,11.61035c0,1.56543.68847,2.15918,1.78418,2.15918,1.09521,0,1.78369-.59375,1.78369-2.15918V349.00781c0-1.56445-.68848-2.15918-1.78369-2.15918-1.09571,0-1.78418.59473-1.78418,2.15918Z"/><path class="cls-1" d="M206.2002,343.96973v16.89941c0,1.56543.68847,2.12793,1.78369,2.12793s1.78369-.5625,1.78369-2.12793V343.96973h3.25488v16.68066c0,3.50488-1.75244,5.50781-5.13232,5.50781s-5.13282-2.00293-5.13282-5.50781V343.96973Z"/><path class="cls-1" d="M225.88135,365.877a6.74517,6.74517,0,0,1-.313-2.6914v-3.44239c0-2.03418-.68848-2.78613-2.25293-2.78613H222.126V365.877h-3.44239V343.96973h5.19483c3.56787,0,5.10156,1.6582,5.10156,5.03808v1.72168c0,2.25293-.72021,3.72461-2.25342,4.44434,1.72119.71972,2.28467,2.37793,2.28467,4.66308v3.37989a6.4528,6.4528,0,0,0,.37549,2.66015ZM222.126,347.09961v6.72851h1.3457c1.2832,0,2.06543-.56347,2.06543-2.3164v-2.15918c0-1.56445-.53174-2.25293-1.75244-2.25293Z"/></svg>