<svg id="Layer_1" data-name="Layer 1" xmlns="http://www.w3.org/2000/svg" width="728" height="90" viewBox="0 0 728 90"><defs><style>.cls-1{fill:#ab9555;}</style></defs><title>frame2_1</title><path class="cls-1" d="M309.145,54.1745a5.001,5.001,0,0,1-.96387,3.17578,3.47661,3.47661,0,0,1-1.84277,1.26172,5.04415,5.04415,0,0,1-1.48829.19825A4.20824,4.20824,0,0,1,302.2417,58.03a4.35328,4.35328,0,0,1-1.36719-1.73633,6.9863,6.9863,0,0,1-.58887-2.51562l2.55176-.18457a3.86715,3.86715,0,0,0,.82226,2.251,1.36753,1.36753,0,0,0,1.10547.499,1.66173,1.66173,0,0,0,1.40332-.86524,2.15842,2.15842,0,0,0,.26856-1.17773,3.26641,3.26641,0,0,0-1.00586-2.19824q-.79395-.75294-2.38086-2.25586a10.17513,10.17513,0,0,1-1.88574-2.3125,5.3548,5.3548,0,0,1-.59571-2.49707A4.34309,4.34309,0,0,1,302.1997,41.362a4.05107,4.05107,0,0,1,2.49414-.752,4.53917,4.53917,0,0,1,2.45215.6377,3.68726,3.68726,0,0,1,1.28321,1.38964,5.13881,5.13881,0,0,1,.58789,2.05469l-2.56543.46777a3.08964,3.08964,0,0,0-.624-1.70019,1.30755,1.30755,0,0,0-1.0625-.43945,1.22444,1.22444,0,0,0-1.12011.65136,2.51563,2.51563,0,0,0-.31153,1.30469,3.91326,3.91326,0,0,0,1.04883,2.48047,8.84817,8.84817,0,0,0,1.19043,1.13379q.936.7793,1.2334,1.09082a9.0903,9.0903,0,0,1,1.53027,1.95605,7.26229,7.26229,0,0,1,.41113.83692A4.86205,4.86205,0,0,1,309.145,54.1745Z"/><path class="cls-1" d="M317.18994,40.83661A4.08052,4.08052,0,0,1,320.3081,42.07a4.2787,4.2787,0,0,1,1.07715,3.00488V47.655a4.13008,4.13008,0,0,1-1.22559,3.00488,4.0123,4.0123,0,0,1-2.96972,1.24708H315.645v6.69042H312.9663V40.83661Zm1.60156,4.28125a1.53042,1.53042,0,0,0-.418-1.12011,1.491,1.491,0,0,0-1.1123-.42481H315.645v5.68359h1.61621a1.46683,1.46683,0,0,0,1.084-.45312,1.501,1.501,0,0,0,.44629-1.0918Z"/><path class="cls-1" d="M327.80127,58.59735h-2.67872V40.83661h2.67872Z"/><path class="cls-1" d="M336.01611,40.83661a4.08537,4.08537,0,0,1,3.28906,1.2334,4.48167,4.48167,0,0,1,.9209,3.00488V47.655a4.14943,4.14943,0,0,1-1.43164,3.18946l1.98437,7.75292h-2.89648l-1.625-6.69042h-1.78613v6.69042h-2.67871V40.83661Zm1.60254,4.28125a1.35952,1.35952,0,0,0-1.53125-1.54492h-1.61621v5.68359h1.61621a1.46373,1.46373,0,0,0,1.084-.45312,1.50189,1.50189,0,0,0,.44727-1.0918Z"/><path class="cls-1" d="M347.35009,58.59735h-2.67871V40.83661h2.67871Z"/><path class="cls-1" d="M353.95068,43.53h-2.84863V40.83661h8.3623V43.53h-2.835V58.59735h-2.67871Z"/><path class="cls-1" d="M367.439,58.7956a4.21127,4.21127,0,0,1-4.23828-4.22364V40.83661h2.62305v13.707a1.46318,1.46318,0,0,0,.45312,1.084,1.49943,1.49943,0,0,0,1.0918.44629,1.52378,1.52378,0,0,0,1.53027-1.53028v-13.707h2.793V54.572a4.03483,4.03483,0,0,1-1.248,3.00489A4.14334,4.14334,0,0,1,367.439,58.7956Z"/><path class="cls-1" d="M378.5708,54.51532l-.65039,4.082h-2.79l3.01953-17.76074h3.68555L384.812,58.59735h-2.81738l-.627-4.082ZM379.978,44.905l-.99218,7.002h1.98437Z"/><path class="cls-1" d="M395.96045,58.59735h-7.29981V40.83661h2.67969V55.93232h4.62012Z"/><path class="cls-1" d="M402.07959,58.59735H399.3999V40.83661h2.67969Z"/><path class="cls-1" d="M408.68017,43.53h-2.84961V40.83661h8.36328V43.53h-2.835V58.59735h-2.67871Z"/><path class="cls-1" d="M421.21923,51.156l-3.58691-10.333h2.94824l1.98438,6.37793,1.9707-6.37793h2.96191L423.898,51.156v7.4414h-2.67872Z"/><path class="cls-1" d="M430.937,55.93232h2.67969V58.612H430.937Z"/></svg>