<svg id="Layer_1" data-name="Layer 1" xmlns="http://www.w3.org/2000/svg" xmlns:xlink="http://www.w3.org/1999/xlink" width="728" height="90" viewBox="0 0 728 90"><defs><style>.cls-1{fill:url(#linear-gradient);}.cls-2{fill:url(#linear-gradient-2);}.cls-3{fill:url(#linear-gradient-3);}.cls-4{fill:url(#linear-gradient-4);}.cls-5{fill:url(#linear-gradient-5);}.cls-6{fill:url(#linear-gradient-6);}.cls-7{fill:url(#linear-gradient-7);}.cls-8{fill:url(#linear-gradient-8);}.cls-9{fill:url(#New_Gradient_Swatch_2);}.cls-10{fill:#a89255;}</style><linearGradient id="linear-gradient" x1="34.00076" y1="34.71514" x2="88.08374" y2="34.71514" gradientUnits="userSpaceOnUse"><stop offset="0" stop-color="#a88a34"/><stop offset="0.49324" stop-color="#caaf67"/><stop offset="1" stop-color="#957f2e"/></linearGradient><linearGradient id="linear-gradient-2" x1="88.90423" y1="151.48711" x2="88.90423" y2="60.77496" gradientUnits="userSpaceOnUse"><stop offset="0" stop-color="#a88a34"/><stop offset="0.49894" stop-color="#caaf67"/><stop offset="1" stop-color="#957f2e"/></linearGradient><linearGradient id="linear-gradient-3" x1="63.77652" y1="104.26294" x2="63.77652" y2="37.28373" xlink:href="#linear-gradient-2"/><linearGradient id="linear-gradient-4" x1="72.28745" y1="127.23541" x2="72.28745" y2="39.09096" xlink:href="#linear-gradient-2"/><linearGradient id="linear-gradient-5" x1="80.57243" y1="129.24352" x2="80.57243" y2="52.0886" xlink:href="#linear-gradient-2"/><linearGradient id="linear-gradient-6" x1="33.87858" y1="75.1533" x2="33.87858" y2="0.6061" xlink:href="#linear-gradient-2"/><linearGradient id="linear-gradient-7" x1="53.68447" y1="93.98607" x2="53.68447" y2="27.39712" xlink:href="#linear-gradient-2"/><linearGradient id="linear-gradient-8" x1="43.56872" y1="84.04161" x2="43.56872" y2="17.06262" xlink:href="#linear-gradient-2"/><linearGradient id="New_Gradient_Swatch_2" x1="92.48977" y1="60.59063" x2="96.21553" y2="60.59063" gradientUnits="userSpaceOnUse"><stop offset="0" stop-color="#a88a34"/><stop offset="0.1878" stop-color="#caaf67"/><stop offset="0.46098" stop-color="#a08a4a"/><stop offset="0.76341" stop-color="#caaf67"/><stop offset="1" stop-color="#957f2e"/></linearGradient></defs><title>logo</title><path class="cls-1" d="M57.7545,52.84072c.58775-.17334,1.65388.82324,1.72316.82324a1.27179,1.27179,0,0,0,.35542-.82076c0-.35186-.25114-1.03627-.29823-1.45045a6.899,6.899,0,0,0-.25051-1.2c-.0917-.2727-.729-.39155-1.071-.60258a5.58729,5.58729,0,0,1-.86293-.59741,2.72962,2.72962,0,0,1-.36688-1.252,4.922,4.922,0,0,0-.20585-1.27442c-.11907-.22313-.42517-.38078-.63218-.58779a.89.89,0,0,1-.21325-.54784c.15876-.04957.20833.35948.39177.39426s.17108.18587.45858.285c.28771.0991.29759.23567.3348.50345s.35948,1.17258.466,1.54194c.10676.36958.21817.64741.58283.65973.3644.01236.31483.20072.7436.1662a2.40084,2.40084,0,0,1,1.02909.1982c.23053.08186.52072.08926.61982-.07173.09914-.16124-.0695-.81092-.0695-.81092-.14867,0-.17361-.20067-.23053-.38659-.057-.18614.03473-.20094.03473-.20094a.78576.78576,0,1,1,1.49759,0s.09169.0148.03473.20094c-.05719.18592-.08187.38659-.23075.38659,0,0-.16843.64968-.06929.81092.0991.161.3893.15359.61983.07173a2.40044,2.40044,0,0,1,1.02887-.1982c.429.03452.37941-.15384.74381-.1662.36466-.01232.47612-.29015.58261-.65973.10676-.36936.429-1.2742.46624-1.54194s.04709-.40435.3348-.50345c.2875-.09914.27514-.25024.45858-.285s.23323-.44383.39177-.39426a.89144.89144,0,0,1-.21325.54784c-.207.207-.51311.36466-.63218.58779a4.922,4.922,0,0,0-.20585,1.27442,2.72962,2.72962,0,0,1-.36688,1.252,5.58878,5.58878,0,0,1-.86293.59741c-.3422.211-.9793.32988-1.071.60258a6.87135,6.87135,0,0,0-.2505,1.2c-.04709.41418-.29824,1.09859-.29824,1.45045a1.27179,1.27179,0,0,0,.35542.82076c.06929,0,1.13563-.99658,1.72316-.82324.58753.17382.35452.9968-.25542,1.60653a2.61228,2.61228,0,0,1-1.26368.788,6.844,6.844,0,0,1,.95937.17938,10.27,10.27,0,0,1,2.74031,1.56371A9.95642,9.95642,0,0,0,68.954,58.40505a2.08461,2.08461,0,0,0,.23639.05184c.08387-.07023.52337-.32386.52337-.32386a9.83357,9.83357,0,0,0,1.10424.47253l-2.81371-2.16964,5.57737,2.428c.0917.03969.18387.07626.27561.109l3.37113.0601c.88491.01616,1.75883-.02263,2.57013-.08542-.65387-.40344-1.36209-.80621-2.12118-1.17732l-2.95784-1.44644c-.09845-.01253-.19913-.022-.3014-.028l-6.44744-.38729,4.18945-.72815-2.71589-.884,4.648-.0305a15.77819,15.77819,0,0,0,3.17319-.349l-4.39312-.83666,6.43825-.28592a6.319,6.319,0,0,0,1.07776-.13746l-.48886.05919,4.2491-1.99359a37.96767,37.96767,0,0,0,3.93514-2.16314,41.52542,41.52542,0,0,0-4.60273-.27873l-4.82945.011.538-.176a6.049,6.049,0,0,0-1.13965.35162l-5.63409,2.34815L75.82532,48.275l-.026.00428-.07784-.58578-.61961-1.0219a20.41523,20.41523,0,0,0,4.64247-4.79267l-4.55522,2.18084,4.64131-3.86564a7.64394,7.64394,0,0,0,1.47377-1.5978c.59852-.90462,1.15423-1.83145,1.66106-2.76974l-1.43861,1.42065L83.25112,33.496a49.54167,49.54167,0,0,0,2.55153-7.05448,60.05127,60.05127,0,0,0-6.83738,4.40518l-3.37634,2.55871,1.07686-1.67808c-.87345.74274-1.718,1.52672-2.52394,2.34319A7.39817,7.39817,0,0,0,72.89908,35.812L70.433,40.53521l.87593-4.311a20.38141,20.38141,0,0,0-1.95369,2.33669l-.42988.59963-.394-.27043a1.12776,1.12776,0,0,0-.061.10248L65.08305,45.416l1.99761-6.98159a22.16221,22.16221,0,0,0,.66264-8.76151l-2.33263,4.33525,1.12976-5.2152a8.49015,8.49015,0,0,0,.17647-2.60242,42.0135,42.0135,0,0,0-.89633-5.26472l-.30743,2.55978-1.0127-3.73194a63.49953,63.49953,0,0,0-3.45817-9.36,63.43551,63.43551,0,0,0-3.4582,9.36l-1.0125,3.73194-.30764-2.55978a42.05368,42.05368,0,0,0-.89633,5.26472,8.49459,8.49459,0,0,0,.17647,2.60264L56.67251,34.01l-2.3313-4.33635a22.15882,22.15882,0,0,0,.66263,8.76082l1.99787,6.982-3.38755-6.42387a1.0792,1.0792,0,0,0-.061-.10248l-.394.27043-.42988-.59963a20.38256,20.38256,0,0,0-1.95368-2.33669l.87614,4.311L49.18542,35.812a7.40257,7.40257,0,0,0-1.24255-1.74155c-.80438-.81493-1.6478-1.5978-2.52035-2.3396l1.0793,1.67941-3.38259-2.56363a60.021,60.021,0,0,0-6.83737-4.40518A49.53266,49.53266,0,0,0,38.83334,33.496l1.72453,3.75126-1.43861-1.42065c.50682.93829,1.06274,1.86512,1.66127,2.76974a7.63709,7.63709,0,0,0,1.47355,1.5978l4.64131,3.86564-4.55521-2.18084a20.40985,20.40985,0,0,0,4.64246,4.79267l-.61961,1.0219-.07784.58578L46.259,48.275l3.41,2.54053-5.6343-2.34836a6.08512,6.08512,0,0,0-1.13917-.35162l.53774.176-4.82971-.011a41.52875,41.52875,0,0,0-4.60273.27873,37.96767,37.96767,0,0,0,3.93514,2.16314L42.185,52.71584l-.48865-.0592a6.29111,6.29111,0,0,0,1.07755.13768l6.4382.28592-4.393.83666a15.77937,15.77937,0,0,0,3.17314.349l4.66034.0305-2.7253.88444,4.187.72768-6.44761.38729q-.15378.009-.30166.028l-2.95831,1.44644c-.75861.37111-1.4668.77388-2.12071,1.17732.81156.06279,1.68522.10133,2.57013.08542l3.37117-.0601c.0917-.03271.18387-.06928.27583-.109l5.57711-2.428-2.8137,2.16964a9.83341,9.83341,0,0,0,1.10423-.47253s.43908.2532.52295.3236a2.05618,2.05618,0,0,0,.23656-.05158,9.95257,9.95257,0,0,0,2.4437-1.42668,10.27121,10.27121,0,0,1,2.74031-1.56371,6.84279,6.84279,0,0,1,.95938-.17938,2.61223,2.61223,0,0,1-1.26368-.788C57.4,53.83752,57.16676,53.01454,57.7545,52.84072Z"/><polygon class="cls-2" points="92.137 64.238 92.137 62.595 85.671 62.601 85.671 71.396 92.126 71.396 92.126 69.754 87.432 69.754 87.432 67.753 90.958 67.753 90.958 66.116 87.432 66.116 87.432 64.238 92.137 64.238"/><path class="cls-3" d="M62.89934,62.59531l-3.52047,8.80113h1.87739l.52811-1.3495h3.98988l.52811,1.3495,1.87181-.006-3.51446-8.79513Zm-.4106,5.69147,1.33789-3.34469,1.30243,3.34469Z"/><path class="cls-4" d="M74.7225,66.8492a4.36441,4.36441,0,0,0-2.0243-.7333,2.32013,2.32013,0,0,1-1.34956-.52832.68673.68673,0,0,1,0-.85085q.29364-.49845,1.34956-.49848a2.0212,2.0212,0,0,1,1.64309.70393l1.17325-1.17354a4.10582,4.10582,0,0,0-1.26139-.88015,4.912,4.912,0,0,0-1.90121-.29333,3.52288,3.52288,0,0,0-2.05639.707,2.19,2.19,0,0,0-1.0004,1.87474,1.94751,1.94751,0,0,0,.88,1.81891,4.72968,4.72968,0,0,0,1.93639.64539q1.17326.11741,1.4639.616a.92985.92985,0,0,1,0,.9977q-.29031.4985-1.4639.49848a2.78739,2.78739,0,0,1-1.99495-.82138l-1.17375,1.17368a4.44141,4.44141,0,0,0,1.4083.93875,5.212,5.212,0,0,0,2.04786.35184,3.55416,3.55416,0,0,0,2.26181-.76268,2.256,2.256,0,0,0,.97123-1.81887A2.203,2.203,0,0,0,74.7225,66.8492Z"/><polygon class="cls-5" points="76.758 64.238 79.692 64.238 79.692 71.396 81.452 71.396 81.452 64.238 84.386 64.238 84.386 62.595 76.758 62.595 76.758 64.238"/><polygon class="cls-6" points="36.049 68.111 30.534 62.595 29.947 62.595 29.947 71.396 31.708 71.396 31.708 65.94 37.165 71.396 37.81 71.396 37.81 62.595 36.049 62.595 36.049 68.111"/><polygon class="cls-7" points="53.682 66.937 49.868 62.595 49.281 62.595 49.281 71.396 51.041 71.396 51.041 66.292 53.682 69.226 56.322 66.292 56.328 71.396 58.088 71.396 58.088 62.595 57.501 62.595 53.682 66.937"/><path class="cls-8" d="M42.69158,62.59531l-3.52053,8.80113h1.87744l.52812-1.3495h3.98988l.52834,1.3495,1.87155-.006-3.51466-8.79513Zm-.4106,5.69147,1.33763-3.34469,1.30248,3.34469Z"/><path class="cls-9" d="M93.40145,59.93442V61.532h-.31733V59.93442h-.59435v-.28514h1.50866v.28514ZM95.9223,61.532l-.00263-1.4066-.59435,1.21017h-.20717l-.59436-1.21017V61.532H94.2253v-1.8827h.37646L95.22305,60.9l.61866-1.25068h.37382V61.532Z"/><path class="cls-10" d="M44.7576,77.70783a1.24187,1.24187,0,0,1-.7114,2.30912L41.58547,80.014V75.64362h2.32079q1.1052.06435,1.16622,1.28576A.91532.91532,0,0,1,44.7576,77.70783Zm-2.29454-.312h1.22453a.49354.49354,0,0,0,.54229-.54521q-.01437-.32051-.53354-.33821H42.46306Zm0,1.93593h1.42862a.57075.57075,0,0,0,.62976-.63268q-.01437-.41983-.621-.43733H42.46306Z"/><path class="cls-10" d="M45.98213,75.6407h1.02628L48.023,77.06932,49.061,75.6407h1.00295l-1.60356,2.18667V80.014h-.87466V77.82737Z"/><path class="cls-10" d="M56.18075,80.014H52.67916l.00292-.29156,2.038-3.26542h-2.038l-.00292-.81636h3.50159v.32071L54.134,79.19768h2.04672Z"/><path class="cls-10" d="M57.27949,80.014V75.64362l3.21295-.00292v.81636H58.15416v.933h1.75225v.81344H58.15416v.99421h2.33245V80.014Z"/><path class="cls-10" d="M61.37293,80.014V75.6407h.29156l2.74062,2.74062V75.6407h.87467V80.014h-.32071L62.2476,77.30257V80.014Z"/><path class="cls-10" d="M65.95619,80.014l1.74933-4.37334h.87467l1.746,4.37042-.92965.00292-.2624-.67058H67.15157l-.2624.67058Zm2.21-3.20712-.66475,1.66187h1.312Z"/><path class="cls-10" d="M74.08476,77.70783a1.242,1.242,0,0,1-.7114,2.30912L70.91263,80.014V75.64362h2.32079q1.10457.06435,1.16622,1.28576A.91758.91758,0,0,1,74.08476,77.70783Zm-2.295-.312h1.22453a.49318.49318,0,0,0,.5423-.54521c-.00917-.21367-.18743-.32655-.53313-.33821H71.7898Zm0,1.93593h1.42862a.57038.57038,0,0,0,.62976-.63268q-.01374-.41983-.62059-.43733H71.7898Z"/><path class="cls-10" d="M75.56586,75.63779h.87134V80.014h-.87134Z"/><path class="cls-10" d="M79.68263,75.78648a2.03021,2.03021,0,0,1,.62642.43733l-.58311.58311a1.00368,1.00368,0,0,0-.81635-.34986q-.52481,0-.67058.24782a.34267.34267,0,0,0,0,.42275,1.15316,1.15316,0,0,0,.67058.2624,2.16968,2.16968,0,0,1,1.00628.36445,1.096,1.096,0,0,1,.4515.97671,1.12173,1.12173,0,0,1-.48232.90382,1.766,1.766,0,0,1-1.12374.379,2.59228,2.59228,0,0,1-1.01794-.17494,2.21608,2.21608,0,0,1-.69974-.46649l.58311-.58311a1.3864,1.3864,0,0,0,.99129.40818q.58353,0,.72722-.24782a.46.46,0,0,0,0-.49565q-.14368-.248-.72722-.30613a2.34969,2.34969,0,0,1-.96213-.32071.96749.96749,0,0,1-.43733-.90382,1.08761,1.08761,0,0,1,.49731-.93132A1.75021,1.75021,0,0,1,78.738,75.6407,2.44648,2.44648,0,0,1,79.68263,75.78648Z"/><rect class="cls-10" x="29.94729" y="77.7647" width="7.86257" height="0.95738"/><rect class="cls-10" x="84.27461" y="77.7647" width="7.86257" height="0.95738"/></svg>