<svg id="Layer_1" data-name="Layer 1" xmlns="http://www.w3.org/2000/svg" xmlns:xlink="http://www.w3.org/1999/xlink" width="970" height="250" viewBox="0 0 970 250"><defs><style>.cls-1{fill:url(#linear-gradient);}.cls-2{fill:url(#linear-gradient-2);}.cls-3{fill:url(#linear-gradient-3);}.cls-4{fill:url(#linear-gradient-4);}.cls-5{fill:url(#linear-gradient-5);}.cls-6{fill:url(#linear-gradient-6);}.cls-7{fill:url(#linear-gradient-7);}.cls-8{fill:url(#linear-gradient-8);}.cls-9{fill:url(#New_Gradient_Swatch_2);}.cls-10{fill:#a89255;}</style><linearGradient id="linear-gradient" x1="443.58395" y1="56.15557" x2="522.29017" y2="56.15557" gradientUnits="userSpaceOnUse"><stop offset="0" stop-color="#a88a34"/><stop offset="0.49324" stop-color="#caaf67"/><stop offset="1" stop-color="#957f2e"/></linearGradient><linearGradient id="linear-gradient-2" x1="523.48423" y1="226.09224" x2="523.48423" y2="94.08007" gradientUnits="userSpaceOnUse"><stop offset="0" stop-color="#a88a34"/><stop offset="0.49894" stop-color="#caaf67"/><stop offset="1" stop-color="#957f2e"/></linearGradient><linearGradient id="linear-gradient-3" x1="486.91621" y1="157.36754" x2="486.91621" y2="59.8936" xlink:href="#linear-gradient-2"/><linearGradient id="linear-gradient-4" x1="499.30205" y1="190.79906" x2="499.30205" y2="62.52364" xlink:href="#linear-gradient-2"/><linearGradient id="linear-gradient-5" x1="511.35907" y1="193.72143" x2="511.35907" y2="81.43892" xlink:href="#linear-gradient-2"/><linearGradient id="linear-gradient-6" x1="443.40614" y1="115.00467" x2="443.40614" y2="6.51714" xlink:href="#linear-gradient-2"/><linearGradient id="linear-gradient-7" x1="472.22938" y1="142.41174" x2="472.22938" y2="45.50575" xlink:href="#linear-gradient-2"/><linearGradient id="linear-gradient-8" x1="457.50807" y1="127.93972" x2="457.50807" y2="30.4661" xlink:href="#linear-gradient-2"/><linearGradient id="New_Gradient_Swatch_2" x1="528.70221" y1="93.81182" x2="534.12426" y2="93.81182" gradientUnits="userSpaceOnUse"><stop offset="0" stop-color="#a88a34"/><stop offset="0.1878" stop-color="#caaf67"/><stop offset="0.46098" stop-color="#a08a4a"/><stop offset="0.76341" stop-color="#caaf67"/><stop offset="1" stop-color="#957f2e"/></linearGradient></defs><title>logo</title><path class="cls-1" d="M478.15245,82.53348c.85534-.25227,2.40686,1.19805,2.50769,1.19805a1.85086,1.85086,0,0,0,.51724-1.19444c0-.51207-.36549-1.50807-.434-2.11083A10.03908,10.03908,0,0,0,480.3788,78.68c-.13344-.39686-1.06092-.56983-1.55861-.87694a8.12987,8.12987,0,0,1-1.25581-.8694,3.97241,3.97241,0,0,1-.53391-1.822,7.16257,7.16257,0,0,0-.29958-1.85464c-.17328-.32472-.61875-.55415-.92-.8554a1.29519,1.29519,0,0,1-.31034-.79727c.231-.07214.30318.52315.57014.57375s.249.27051.66736.41479c.41871.14421.43309.34295.48724.73266s.52314,1.70644.67819,2.244c.15536.53784.3175.94217.84818.96009.53031.018.45817.29211,1.08215.24188a3.4938,3.4938,0,0,1,1.49762.28843c.33548.11913.7578.1299.902-.10438.14428-.23466-.10114-1.18012-.10114-1.18012-.21636,0-.25264-.292-.33549-.56261-.0829-.27088.05054-.29241.05054-.29241a1.1435,1.1435,0,1,1,2.17943,0s.13344.02153.05054.29241c-.08322.27057-.11914.56261-.3358.56261,0,0-.24511.94546-.10084,1.18012.14422.23428.56654.22351.902.10438a3.49329,3.49329,0,0,1,1.49731-.28843c.62429.05023.55215-.22389,1.08246-.24188.53068-.01792.69288-.42225.84787-.96009.15535-.53752.62429-1.85433.6785-2.244s.06853-.58845.48724-.73266c.41839-.14428.4004-.36418.66736-.41479s.33941-.64589.57014-.57375a1.29739,1.29739,0,0,1-.31034.79727c-.30125.30125-.74672.53068-.92.8554a7.16307,7.16307,0,0,0-.29957,1.85464,3.97227,3.97227,0,0,1-.53392,1.822,8.13268,8.13268,0,0,1-1.2558.8694c-.498.30711-1.42517.48008-1.55861.87694a9.99838,9.99838,0,0,0-.36456,1.74627c-.06853.60276-.434,1.59876-.434,2.11083a1.85081,1.85081,0,0,0,.51724,1.19444c.10083,0,1.65266-1.45032,2.50769-1.19805.855.253.51593,1.45063-.37171,2.338a3.80168,3.80168,0,0,1-1.839,1.14682,9.95973,9.95973,0,0,1,1.39616.261,14.94557,14.94557,0,0,1,3.98794,2.27565,14.48983,14.48983,0,0,0,3.55591,2.07622,3.03364,3.03364,0,0,0,.344.07544c.12206-.1022.76166-.4713.76166-.4713a14.31056,14.31056,0,0,0,1.607.68766l-4.09475-3.15744,8.11667,3.53338c.13345.05776.26758.111.40109.15859l4.906.08746c1.2878.02352,2.5596-.03293,3.74028-.1243-.95157-.58714-1.98224-1.17327-3.08692-1.71335l-4.30451-2.105c-.14328-.01824-.2898-.032-.43862-.04077L493.02,86.998l6.09684-1.05968-3.9524-1.28642,6.7642-.04438a22.962,22.962,0,0,0,4.6179-.50784L500.15325,82.882l9.36949-.41609a9.1946,9.1946,0,0,0,1.56845-.20005l-.71143.08615,6.18367-2.90125a55.25466,55.25466,0,0,0,5.72674-3.148,60.42907,60.42907,0,0,0-6.69829-.40563l-7.02823.016.78288-.25619a8.803,8.803,0,0,0-1.65851.5117l-8.19921,3.41724,4.96185-3.6969-.03784.00623-.11328-.85248-.90171-1.48716a29.70933,29.70933,0,0,0,6.75611-6.97471l-6.62914,3.17375,6.75444-5.6256A11.12515,11.12515,0,0,0,512.424,61.8038c.871-1.31649,1.67974-2.66529,2.41731-4.03076l-2.09359,2.06745,2.50962-5.45917a72.09668,72.09668,0,0,0,3.7132-10.26628,87.392,87.392,0,0,0-9.95034,6.41079l-4.91354,3.72366,1.56714-2.44209c-1.27112,1.08091-2.50016,2.22181-3.67306,3.41a10.766,10.766,0,0,0-1.80858,2.53446l-3.5889,6.87356,1.27473-6.27373a29.66066,29.66066,0,0,0-2.84318,3.40055l-.6256.87264-.57338-.39356a1.63887,1.63887,0,0,0-.08876.14914l-4.92948,9.348,2.9071-10.16022a32.25211,32.25211,0,0,0,.96432-12.7505l-3.39464,6.309,1.64414-7.58961a12.35594,12.35594,0,0,0,.25681-3.78727,61.142,61.142,0,0,0-1.30442-7.66168l-.4474,3.72522-1.47378-5.431a92.40931,92.40931,0,0,0-5.03261-13.62152,92.31607,92.31607,0,0,0-5.03269,13.62152l-1.47346,5.431-.44771-3.72522a61.19864,61.19864,0,0,0-1.30442,7.66168,12.36235,12.36235,0,0,0,.25681,3.78758l1.64221,7.59191-3.39272-6.31064a32.24741,32.24741,0,0,0,.96433,12.7495l2.90747,10.16084-4.92986-9.34857a1.56853,1.56853,0,0,0-.08875-.14914l-.57338.39356-.6256-.87264a29.66326,29.66326,0,0,0-2.84318-3.40055l1.275,6.27373L465.682,57.75188a10.77258,10.77258,0,0,0-1.80827-2.53446c-1.1706-1.186-2.398-2.32525-3.66783-3.40479l1.57069,2.444-4.92264-3.73082A87.34841,87.34841,0,0,0,446.9036,44.115a72.08259,72.08259,0,0,0,3.71314,10.26628l2.50968,5.45917L451.03283,57.773c.73757,1.36547,1.5466,2.71427,2.41762,4.03076a11.11447,11.11447,0,0,0,2.14444,2.32526l6.75444,5.6256-6.62914-3.17375a29.70181,29.70181,0,0,0,6.75611,6.97471l-.90171,1.48716-.11328.85248-.03815-.00623,4.96247,3.69721-8.19952-3.41755a8.85741,8.85741,0,0,0-1.65783-.5117l.78258.25619-7.02862-.016a60.43406,60.43406,0,0,0-6.69829.40563,55.25589,55.25589,0,0,0,5.72675,3.148l6.18367,2.90094-.71112-.08615a9.15527,9.15527,0,0,0,1.56814.20036l9.36943.41609-6.39312,1.21759a22.9639,22.9639,0,0,0,4.61783.50784l6.78214.04438-3.9661,1.28711,6.09323,1.059-9.38312.56361q-.22378.01315-.439.04077l-4.30519,2.105c-1.104.54008-2.13461,1.12621-3.08624,1.71335,1.18105.09137,2.45248.14745,3.74028.1243l4.906-.08746c.13345-.04761.26758-.10083.4014-.15859l8.1163-3.53338L468.71051,90.923a14.31056,14.31056,0,0,0,1.607-.68766s.639.36848.761.47093a2.99463,2.99463,0,0,0,.34426-.07507,14.48443,14.48443,0,0,0,3.55629-2.07622A14.94755,14.94755,0,0,1,478.967,86.2793a9.95778,9.95778,0,0,1,1.39616-.261,3.80168,3.80168,0,0,1-1.839-1.14682C477.63652,83.98411,477.29711,82.78644,478.15245,82.53348Z"/><polygon class="cls-2" points="528.189 99.12 528.189 96.729 518.779 96.738 518.779 109.537 528.172 109.537 528.172 107.147 521.341 107.147 521.341 104.235 526.473 104.235 526.473 101.852 521.341 101.852 521.341 99.12 528.189 99.12"/><path class="cls-3" d="M485.63967,96.7292l-5.1233,12.80817h2.73213l.76856-1.96391h5.80641l.76856,1.96391,2.724-.00874L488.2015,96.7292Zm-.59755,8.28272,1.947-4.86747,1.89541,4.86747Z"/><path class="cls-4" d="M502.84574,102.91983a6.35146,6.35146,0,0,0-2.94593-1.06717,3.37631,3.37631,0,0,1-1.964-.76885.99935.99935,0,0,1,0-1.23822q.42732-.7254,1.964-.72544a2.94144,2.94144,0,0,1,2.39117,1.02442l1.70741-1.70783a5.97522,5.97522,0,0,0-1.83568-1.28088,7.1484,7.1484,0,0,0-2.76681-.42687,5.12683,5.12683,0,0,0-2.99264,1.02894,3.187,3.187,0,0,0-1.45586,2.72828,2.83416,2.83416,0,0,0,1.28067,2.647,6.88287,6.88287,0,0,0,2.818.93923q1.70743.17087,2.1304.8965a1.35317,1.35317,0,0,1,0,1.45193q-.42249.72544-2.1304.72543a4.05647,4.05647,0,0,1-2.90322-1.19535L494.4347,107.659a6.46348,6.46348,0,0,0,2.04948,1.36615,7.58509,7.58509,0,0,0,2.98023.512,5.17236,5.17236,0,0,0,3.29158-1.10991,3.28307,3.28307,0,0,0,1.41341-2.647A3.20591,3.20591,0,0,0,502.84574,102.91983Z"/><polygon class="cls-5" points="505.809 99.12 510.078 99.12 510.078 109.537 512.64 109.537 512.64 99.12 516.909 99.12 516.909 96.729 505.809 96.729 505.809 99.12"/><polygon class="cls-6" points="446.565 104.755 438.539 96.729 437.685 96.729 437.685 109.537 440.247 109.537 440.247 101.596 448.188 109.537 449.127 109.537 449.127 96.729 446.565 96.729 446.565 104.755"/><polygon class="cls-7" points="472.225 103.048 466.675 96.729 465.821 96.729 465.821 109.537 468.383 109.537 468.383 102.109 472.225 106.378 476.067 102.109 476.076 109.537 478.638 109.537 478.638 96.729 477.784 96.729 472.225 103.048"/><path class="cls-8" d="M456.23158,96.7292l-5.12337,12.80817h2.73221l.76856-1.96391h5.80641l.7689,1.96391,2.72364-.00874L458.79308,96.7292Zm-.59754,8.28272,1.94663-4.86747,1.89549,4.86747Z"/><path class="cls-9" d="M530.029,92.85684v2.32492h-.46179V92.85684h-.865v-.415h2.19553v.415Zm3.66856,2.32492-.00382-2.047-.865,1.76114h-.30149l-.865-1.76114v2.047h-.43439V92.44189h.54785l.90415,1.8201.90033-1.8201h.544v2.73987Z"/><path class="cls-10" d="M459.23823,118.72225a1.80728,1.80728,0,0,1-1.03529,3.36043l-3.58106-.00424v-6.36022h3.3774q1.60839.09366,1.69719,1.87115A1.332,1.332,0,0,1,459.23823,118.72225Zm-3.33922-.454h1.78205a.71823.71823,0,0,0,.78919-.79344q-.02091-.46643-.77646-.49218H455.899Zm0,2.81733h2.07906a.83059.83059,0,0,0,.91648-.92072q-.02091-.611-.90375-.63645H455.899Z"/><path class="cls-10" d="M461.02028,115.714h1.49352l1.47655,2.07906,1.5105-2.07906h1.45958l-2.33363,3.18223v3.18223h-1.27289v-3.18223Z"/><path class="cls-10" d="M475.86218,122.07844h-5.0958l.00424-.4243,2.96583-4.75213h-2.96583l-.00424-1.188h5.0958v.46673l-2.97856,4.70969h2.97856Z"/><path class="cls-10" d="M477.46117,122.07844v-6.36022l4.67576-.00424v1.188h-3.40286v1.35775h2.55v1.18379h-2.55v1.44685h3.39437v1.188Z"/><path class="cls-10" d="M483.4183,122.07844V115.714h.4243l3.98839,3.98839V115.714h1.27289v6.36446h-.46672l-3.946-3.946v3.946Z"/><path class="cls-10" d="M490.08825,122.07844,492.634,115.714h1.27289l2.54094,6.36021-1.35291.00425-.38186-.97589h-2.88522l-.38187.97589Zm3.21617-4.66727-.9674,2.41849h1.90934Z"/><path class="cls-10" d="M501.91765,118.72225a1.80748,1.80748,0,0,1-1.03529,3.36043l-3.58106-.00424v-6.36022h3.3774q1.60748.09366,1.69719,1.87115A1.33539,1.33539,0,0,1,501.91765,118.72225Zm-3.33982-.454h1.782a.7177.7177,0,0,0,.7892-.79344c-.01334-.311-.27277-.47521-.77586-.49218h-1.79538Zm0,2.81733h2.079a.83006.83006,0,0,0,.91648-.92072q-.02-.611-.90314-.63645h-2.09239Z"/><path class="cls-10" d="M504.07308,115.70974h1.268v6.3687h-1.268Z"/><path class="cls-10" d="M510.06415,115.92613a2.95438,2.95438,0,0,1,.91163.63645l-.84859.84859a1.46064,1.46064,0,0,0-1.188-.50916q-.76374,0-.97589.36066a.49871.49871,0,0,0,0,.61523,1.67838,1.67838,0,0,0,.97589.38186,3.15758,3.15758,0,0,1,1.46443.53037,1.595,1.595,0,0,1,.657,1.4214,1.63243,1.63243,0,0,1-.70191,1.31532,2.56994,2.56994,0,0,1-1.63536.55159,3.77248,3.77248,0,0,1-1.4814-.25458,3.22506,3.22506,0,0,1-1.01831-.67888l.84859-.84859a2.01757,2.01757,0,0,0,1.44261.594q.8492,0,1.05832-.36065a.66938.66938,0,0,0,0-.7213q-.20911-.361-1.05832-.44551a3.41942,3.41942,0,0,1-1.40018-.46673,1.408,1.408,0,0,1-.63645-1.31532,1.58279,1.58279,0,0,1,.72373-1.35533,2.5471,2.5471,0,0,1,1.48747-.51158A3.56037,3.56037,0,0,1,510.06415,115.92613Z"/><rect class="cls-10" x="437.68498" y="118.80501" width="11.44229" height="1.39325"/><rect class="cls-10" x="516.74679" y="118.80501" width="11.44229" height="1.39325"/></svg>