<svg id="Content" xmlns="http://www.w3.org/2000/svg" xmlns:xlink="http://www.w3.org/1999/xlink" width="320" height="568" viewBox="0 0 320 568"><defs><style>.cls-1{fill:url(#New_Gradient_Swatch_1);}.cls-2{fill:#fff;}.cls-3{fill:#ba9544;}</style><linearGradient id="New_Gradient_Swatch_1" x1="77.7922" y1="268.54611" x2="117.40883" y2="268.54611" gradientUnits="userSpaceOnUse"><stop offset="0" stop-color="#a88a34"/><stop offset="0.49324" stop-color="#caaf67"/><stop offset="1" stop-color="#957f2e"/></linearGradient></defs><title>sweet</title><polygon class="cls-1" points="94.249 288.81 77.792 269.806 90.782 248.282 115.266 253.984 117.409 279.031 94.249 288.81"/><path class="cls-2" d="M107.42335,261.683a.98369.98369,0,0,1-.983-.983,1.59047,1.59047,0,0,0-1.59123-1.59122h-.51973a1.0725,1.0725,0,0,0-1.07338,1.07149v3.71347a5.23014,5.23014,0,0,0-6.88083.45382l-.99617.99616a5.23018,5.23018,0,0,0-.45382,6.88084H91.21174a1.07128,1.07128,0,0,0-1.07148,1.07337v.51973a1.59045,1.59045,0,0,0,1.59122,1.59122.98367.98367,0,0,1,.983.983,1.59043,1.59043,0,0,0,1.59122,1.59121h.51974a1.07247,1.07247,0,0,0,1.07335-1.07148v-3.71347a5.23016,5.23016,0,0,0,6.88085-.45382l.99615-.99616a5.23009,5.23009,0,0,0,.45382-6.88084h3.71347a1.07248,1.07248,0,0,0,1.07148-1.07337v-.51973a1.59043,1.59043,0,0,0-1.59119-1.59122"/><path class="cls-3" d="M81.39941,300.916a3.46022,3.46022,0,0,1,1.06739.74414l-.99317.99316a1.709,1.709,0,0,0-1.39013-.5957q-.89356,0-1.14209.42187a.58057.58057,0,0,0,0,.71973,1.96077,1.96077,0,0,0,1.14209.44726,3.69877,3.69877,0,0,1,1.71289.6211,1.86338,1.86338,0,0,1,.76953,1.66308,1.91011,1.91011,0,0,1-.82178,1.53907,3.00677,3.00677,0,0,1-1.91406.6455,4.415,4.415,0,0,1-1.73242-.29785,3.7477,3.7477,0,0,1-1.1919-.79492l.99317-.99219a2.35933,2.35933,0,0,0,1.688.69434q.99316,0,1.23877-.42188a.78471.78471,0,0,0,0-.84375q-.24536-.42187-1.23877-.52148a4.01006,4.01006,0,0,1-1.63867-.5459,1.649,1.649,0,0,1-.74463-1.53906,1.85451,1.85451,0,0,1,.84668-1.58692,2.98562,2.98562,0,0,1,1.74024-.59863A4.1451,4.1451,0,0,1,81.39941,300.916Z"/><path class="cls-3" d="M88.42529,302.65332l-1.48974,5.46191H85.4458L83.45508,300.667H85.044l1.29589,5.06543,1.34034-5.06543h1.53955l1.29052,5.06543,1.291-5.06543h1.58887l-1.98584,7.44824H89.91455Z"/><path class="cls-3" d="M94.47266,308.11523v-7.44238l5.47168-.00586v1.39063H95.9624v1.58886h2.98389v1.38575H95.9624v1.69238h3.97217v1.39062Z"/><path class="cls-3" d="M101.42383,308.11523v-7.44238l5.47168-.00586v1.39063h-3.98194v1.58886h2.98389v1.38575h-2.98389v1.69238h3.97217v1.39062Z"/><path class="cls-3" d="M114.47217,300.667v1.39063h-2.48242v6.05761H110.5v-6.05761h-2.48242V300.667Z"/></svg>