<svg id="Layer_1" data-name="Layer 1" xmlns="http://www.w3.org/2000/svg" xmlns:xlink="http://www.w3.org/1999/xlink" width="32.04535" height="48.9419" viewBox="0 0 32.04535 48.9419"><defs><style>.cls-1{fill:url(#New_Gradient_Swatch_1);}.cls-2{fill:#fff;}.cls-3{fill:#ba9544;}</style><linearGradient id="New_Gradient_Swatch_1" y1="16.65331" x2="32.04535" y2="16.65331" gradientUnits="userSpaceOnUse"><stop offset="0" stop-color="#a88a34"/><stop offset="0.49324" stop-color="#caaf67"/><stop offset="1" stop-color="#957f2e"/></linearGradient></defs><title>pine</title><polygon class="cls-1" points="28.845 27.752 12.822 33.307 0 22.208 3.202 5.554 19.224 0 32.045 11.099 28.845 27.752"/><path class="cls-2" d="M21.35231,21.68706,15.99465,8.898l-5.3004,12.78905,5.03266,1.00747v1.42994a.29577.29577,0,0,0,.59118,0V22.69453Z"/><path class="cls-3" d="M6.21937,48.9419V42.82178H8.88831q2.14161,0,2.1416,1.7627,0,1.82813-2.13769,1.82812H7.443v2.5293ZM7.443,45.27H9.15687c.49316-.00879.74609-.23243.75976-.67383q-.0205-.60353-.74707-.62793H7.443Z"/><path class="cls-3" d="M11.93226,42.8169H13.152v6.125H11.93226Z"/><path class="cls-3" d="M14.3805,48.9419V42.82178h.4082l3.835,3.835v-3.835h1.22461V48.9419h-.44921L15.60413,45.147V48.9419Z"/><path class="cls-3" d="M21.1012,48.9419V42.82569l4.49707-.00391v1.14258H22.32581V45.27H24.778v1.13769H22.32581v1.3916h3.26368V48.9419Z"/></svg>