<svg id="Layer_1" data-name="Layer 1" xmlns="http://www.w3.org/2000/svg" width="300" height="600" viewBox="0 0 300 600"><defs><style>.cls-1{fill:#ab9555;}</style></defs><title>frame2</title><path class="cls-1" d="M86.10688,301.18555a4.94152,4.94152,0,0,1-.95312,3.13867,3.4273,3.4273,0,0,1-1.82129,1.24707,4.96839,4.96839,0,0,1-1.47168.19629,4.1636,4.1636,0,0,1-2.57812-.77051,4.30407,4.30407,0,0,1-1.35254-1.7168,6.90573,6.90573,0,0,1-.58106-2.4873l2.52149-.18164a3.83573,3.83573,0,0,0,.81347,2.22558,1.35759,1.35759,0,0,0,1.09278.49317,1.64476,1.64476,0,0,0,1.38671-.85645,2.119,2.119,0,0,0,.26661-1.16406,3.236,3.236,0,0,0-.99512-2.17383q-.78516-.74268-2.35352-2.22949a10.03847,10.03847,0,0,1-1.86425-2.28613,5.29642,5.29642,0,0,1-.5879-2.46875,4.29459,4.29459,0,0,1,1.61133-3.63282,4.00655,4.00655,0,0,1,2.46582-.74316,4.48974,4.48974,0,0,1,2.42481.63086,3.65208,3.65208,0,0,1,1.26758,1.373,5.08891,5.08891,0,0,1,.582,2.03222l-2.53711.46192a3.06009,3.06009,0,0,0-.61621-1.68164,1.29659,1.29659,0,0,0-1.05078-.4336,1.21128,1.21128,0,0,0-1.10743.64453,2.48967,2.48967,0,0,0-.30761,1.28907A3.86714,3.86714,0,0,0,81.3979,294.544a8.77769,8.77769,0,0,0,1.17773,1.12109q.92431.77051,1.21875,1.0791a8.96414,8.96414,0,0,1,1.51368,1.93359,7.41274,7.41274,0,0,1,.40625.82618A4.83172,4.83172,0,0,1,86.10688,301.18555Z"/><path class="cls-1" d="M93.32173,305.55762H90.67329V288h2.64844Z"/><path class="cls-1" d="M101.03071,287.98633l3.51465,11.80859V287.98633h2.64844v17.57129h-2.84473l-3.64258-11.252v11.252H98.05806V287.98633Z"/><path class="cls-1" d="M116.09028,305.78223a4.18614,4.18614,0,0,1-4.20312-4.19043v-9.584a4.19679,4.19679,0,1,1,8.39355,0v2.00391h-2.74707v-2.06055a1.5304,1.5304,0,0,0-1.52734-1.52734,1.447,1.447,0,0,0-1.07129.44824,1.48258,1.48258,0,0,0-.44141,1.0791v9.61328a1.5071,1.5071,0,0,0,1.5127,1.5127,1.47941,1.47941,0,0,0,1.0791-.44141,1.44694,1.44694,0,0,0,.44824-1.07129v-2.4248h2.74707v2.45215a4.18773,4.18773,0,0,1-4.19043,4.19043Z"/><path class="cls-1" d="M124.82075,305.55762V287.98633h7.53809v2.66211h-4.88965v4.792h3.57324v2.66211h-3.57324v4.793h4.88965v2.66211Z"/><path class="cls-1" d="M144.13716,301.52246l-.64356,4.03516h-2.75683L143.72114,288h3.64356l2.94238,17.55762h-2.78516l-.61914-4.03516Zm1.3916-9.501-.98047,6.92188h1.96094Z"/><path class="cls-1" d="M157.87446,287.98633l3.51465,11.80859V287.98633h2.64844v17.57129h-2.84473l-3.64258-11.252v11.252h-2.64843V287.98633Z"/><path class="cls-1" d="M172.935,305.78223a4.18616,4.18616,0,0,1-4.20313-4.19043v-9.584a4.1968,4.1968,0,1,1,8.39356,0v2.00391h-2.74707v-2.06055a1.5304,1.5304,0,0,0-1.52735-1.52734,1.44694,1.44694,0,0,0-1.07128.44824,1.48254,1.48254,0,0,0-.44141,1.0791v9.61328a1.5071,1.5071,0,0,0,1.51269,1.5127,1.47943,1.47943,0,0,0,1.07911-.44141,1.447,1.447,0,0,0,.44824-1.07129v-2.4248h2.74707v2.45215a4.18773,4.18773,0,0,1-4.19043,4.19043Z"/><path class="cls-1" d="M184.312,305.55762h-2.64844V288H184.312Z"/><path class="cls-1" d="M189.04829,305.55762V287.98633h7.53809v2.66211h-4.88965v4.792H195.27v2.66211h-3.57324v4.793h4.88965v2.66211Z"/><path class="cls-1" d="M203.74849,287.98633l3.51464,11.80859V287.98633h2.64844v17.57129h-2.84473l-3.64257-11.252v11.252h-2.64844V287.98633Z"/><path class="cls-1" d="M217.227,290.66211h-2.81641V288h8.26758v2.66211h-2.80273v14.89551H217.227Z"/><path class="cls-1" d="M123.98384,324.334h-2.81641v-2.6621H129.435v2.6621h-2.80274v14.89551h-2.64843Z"/><path class="cls-1" d="M136.58052,339.22949h-2.64844V321.67188h2.64844Z"/><path class="cls-1" d="M143.96431,339.22949h-2.64844V321.6582h3.7998l2.46875,12.62207,2.36914-12.62207h3.65137v17.57129h-2.64844v-11.042l-2.29785,11.042h-2.12988l-2.56445-11.01367Z"/><path class="cls-1" d="M158.34028,339.22949V321.6582h7.53809v2.66211h-4.88965v4.792H164.562v2.66211h-3.57324v4.793h4.88965v2.66211Z"/><path class="cls-1" d="M178.82661,334.85742a4.9415,4.9415,0,0,1-.95312,3.13867,3.42724,3.42724,0,0,1-1.82129,1.24707,4.96844,4.96844,0,0,1-1.47168.19629,4.16362,4.16362,0,0,1-2.57813-.7705,4.30423,4.30423,0,0,1-1.35254-1.7168,6.90578,6.90578,0,0,1-.581-2.48731l2.52148-.18164a3.83583,3.83583,0,0,0,.81348,2.22559,1.35753,1.35753,0,0,0,1.09277.49316,1.64476,1.64476,0,0,0,1.38672-.85644,2.119,2.119,0,0,0,.2666-1.16406,3.236,3.236,0,0,0-.99511-2.17383q-.78516-.74268-2.35352-2.2295A10.03834,10.03834,0,0,1,170.937,328.292a5.2965,5.2965,0,0,1-.58789-2.46875,4.29457,4.29457,0,0,1,1.61133-3.63281,4.00649,4.00649,0,0,1,2.46582-.74316,4.4897,4.4897,0,0,1,2.4248.63085,3.65192,3.65192,0,0,1,1.26758,1.373,5.0888,5.0888,0,0,1,.582,2.03223l-2.53711.46191a3.06,3.06,0,0,0-.61621-1.68164,1.2966,1.2966,0,0,0-1.05078-.43359,1.21125,1.21125,0,0,0-1.10742.64453,2.48954,2.48954,0,0,0-.30762,1.28906,3.86714,3.86714,0,0,0,1.03614,2.45215,8.77583,8.77583,0,0,0,1.17773,1.12109q.92432.77052,1.21875,1.07911a8.96407,8.96407,0,0,1,1.51367,1.93359,7.41177,7.41177,0,0,1,.40625.82617A4.83181,4.83181,0,0,1,178.82661,334.85742Z"/></svg>