<svg id="Layer_1" data-name="Layer 1" xmlns="http://www.w3.org/2000/svg" width="320" height="480" viewBox="0 0 320 480"><defs><style>.cls-1{fill:#fff;}</style></defs><title>frame1</title><path class="cls-1" d="M85.59,283.38487v-21.375h4.8164a6.14046,6.14046,0,0,1,3.44532,1.00782,4.69325,4.69325,0,0,1,1.875,2.63671,7.55472,7.55472,0,0,1,.30468,2.27344,5.048,5.048,0,0,1-1.13672,3.44531,3.35066,3.35066,0,0,1-1.125.832,3.75912,3.75912,0,0,1,1.81641,1.61718,6.11565,6.11565,0,0,1,.73828,2.10938,8.64871,8.64871,0,0,1,.11719,1.48828,7.19578,7.19578,0,0,1-.76172,3.44531,4.94515,4.94515,0,0,1-4.125,2.51953Zm3.46875-12.64453h1.34765a1.98034,1.98034,0,0,0,2.01563-1.46484,4.2156,4.2156,0,0,0,.1875-1.34766,2.827,2.827,0,0,0-.64453-2.01562,2.04576,2.04576,0,0,0-1.5586-.63282H89.05878Zm0,9.457h1.34765a2.292,2.292,0,0,0,2.27344-1.6875,3.64664,3.64664,0,0,0,.22266-1.32422,4.02326,4.02326,0,0,0-.69141-2.61328,2.18842,2.18842,0,0,0-1.80469-.75H89.05878Z"/><path class="cls-1" d="M108.6369,262.00987a4.88213,4.88213,0,0,1,3.94922,1.48828,5.3773,5.3773,0,0,1,1.11328,3.60938V270.213a4.97079,4.97079,0,0,1-1.71972,3.832l2.38769,9.33984h-3.47559l-1.96582-8.07422c-.09375.00782-.1914.01172-.292.01172h-1.84863v8.0625h-3.22266v-21.375Zm1.92188,5.15625a1.63411,1.63411,0,0,0-1.834-1.86328h-1.93945v6.832h1.93945a1.75046,1.75046,0,0,0,1.30274-.54492,1.80807,1.80807,0,0,0,.53125-1.30664Z"/><path class="cls-1" d="M121.45233,283.38487v-21.375h9.17578v3.22266H124.675v5.85937h4.34765v3.22266H124.675v5.84766h5.95312v3.22265Z"/><path class="cls-1" d="M141.3,278.47472l-.78516,4.91015h-3.35156l3.62109-21.375h4.44141l3.57422,21.375h-3.375l-.76172-4.91015Zm1.6875-11.56641-1.19531,8.42578h2.39062Z"/><path class="cls-1" d="M156.24921,265.23253h-3.42188v-3.22266H162.882v3.22266h-3.41016v18.15234h-3.22265Z"/><path class="cls-1" d="M173.01385,274.338v9.04687H169.7912v-21.375h3.22265v9.082H176.881v-9.082h3.22266v21.375H176.881V274.338Z"/><path class="cls-1" d="M187.33026,283.38487v-21.375H196.506v3.22266h-5.95312v5.85937h4.34765v3.22266h-4.34765v5.84766H196.506v3.22265Z"/><path class="cls-1" d="M214.71893,283.38487h-3.22265v-21.375h3.22265Z"/><path class="cls-1" d="M225.54218,262.00987l4.26562,14.35547V262.00987h3.22266v21.375h-3.45215l-4.43457-13.6875v13.6875h-3.22266v-21.375Z"/><path class="cls-1" d="M239.56561,280.17394h3.22266v3.22265h-3.22266Z"/></svg>