<svg id="Layer_1" data-name="Layer 1" xmlns="http://www.w3.org/2000/svg" xmlns:xlink="http://www.w3.org/1999/xlink" width="320" height="480" viewBox="0 0 320 480"><defs><style>.cls-1{fill:url(#linear-gradient);}.cls-2{fill:url(#linear-gradient-2);}.cls-3{fill:url(#linear-gradient-3);}.cls-4{fill:url(#linear-gradient-4);}.cls-5{fill:url(#linear-gradient-5);}.cls-6{fill:url(#linear-gradient-6);}.cls-7{fill:url(#linear-gradient-7);}.cls-8{fill:url(#linear-gradient-8);}.cls-9{fill:url(#linear-gradient-9);}.cls-10{fill:#ab9555;}</style><linearGradient id="linear-gradient" x1="102.36376" y1="99.59331" x2="216.47622" y2="99.59331" gradientUnits="userSpaceOnUse"><stop offset="0" stop-color="#ab8d34"/><stop offset="0.07813" stop-color="#b2943e"/><stop offset="0.34281" stop-color="#c6aa5c"/><stop offset="0.49291" stop-color="#cdb267"/><stop offset="0.61495" stop-color="#c7ad61"/><stop offset="0.77706" stop-color="#b89e50"/><stop offset="0.961" stop-color="#9e8535"/><stop offset="1" stop-color="#987f2e"/></linearGradient><linearGradient id="linear-gradient-2" x1="143.89544" y1="158.4191" x2="143.89544" y2="176.98911" gradientUnits="userSpaceOnUse"><stop offset="0" stop-color="#cdb267"/><stop offset="1" stop-color="#987f2e"/></linearGradient><linearGradient id="linear-gradient-3" x1="218.20743" y1="158.4191" x2="218.20743" y2="176.98911" xlink:href="#linear-gradient-2"/><linearGradient id="linear-gradient-4" x1="165.18915" y1="158.4191" x2="165.18915" y2="176.98911" xlink:href="#linear-gradient-2"/><linearGradient id="linear-gradient-5" x1="183.14682" y1="158.41883" x2="183.14682" y2="176.98884" xlink:href="#linear-gradient-2"/><linearGradient id="linear-gradient-6" x1="200.62769" y1="158.41901" x2="200.62769" y2="176.98902" xlink:href="#linear-gradient-2"/><linearGradient id="linear-gradient-7" x1="102.10594" y1="158.4191" x2="102.10594" y2="176.98911" xlink:href="#linear-gradient-2"/><linearGradient id="linear-gradient-8" x1="122.55169" y1="158.4191" x2="122.55169" y2="176.98911" xlink:href="#linear-gradient-2"/><linearGradient id="linear-gradient-9" x1="225.77273" y1="154.18934" x2="233.6339" y2="154.18934" gradientUnits="userSpaceOnUse"><stop offset="0" stop-color="#ab8d34"/><stop offset="0.1878" stop-color="#cdb267"/><stop offset="0.76341" stop-color="#cdb267"/><stop offset="1" stop-color="#987f2e"/></linearGradient></defs><title>logo</title><path class="cls-1" d="M152.483,137.83741c1.24012-.36576,3.48959,1.737,3.63578,1.737a2.68336,2.68336,0,0,0,.74992-1.73175c0-.74243-.5299-2.18649-.62926-3.06039a14.55624,14.55624,0,0,0-.52855-2.53185c-.19348-.57538-1.53819-.82617-2.25976-1.27142a11.78714,11.78714,0,0,1-1.82074-1.26051,5.75931,5.75931,0,0,1-.7741-2.64158,10.3854,10.3854,0,0,0-.43433-2.689c-.25124-.47079-.8971-.80342-1.33388-1.2402a1.87792,1.87792,0,0,1-.45-1.15591c.335-.1046.43957.75848.82662.83185s.361.3922.96758.60138c.60707.20909.62791.49723.70642,1.06224s.75849,2.47409.98328,3.25342c.22525.77979.46033,1.366,1.22974,1.392.76886.02608.66427.42351,1.569.35069a5.06563,5.06563,0,0,1,2.17133.41818c.48641.17272,1.0987.18834,1.30779-.15134.20919-.34021-.14664-1.711-.14664-1.711-.31368,0-.36629-.42342-.48641-.81571-.1202-.39273.07328-.42395.07328-.42395a1.65791,1.65791,0,1,1,3.15984,0s.19348.03122.07328.42395c-.12066.39229-.17273.81571-.48686.81571,0,0-.35538,1.37078-.14619,1.711.20909.33968.82138.32406,1.30779.15134a5.06487,5.06487,0,0,1,2.17087-.41818c.90514.07282.80055-.32461,1.56941-.35069.76941-.026,1.00458-.6122,1.22928-1.392.22525-.77933.90514-2.6885.98374-3.25342s.09936-.85315.70642-1.06224c.60661-.20918.58053-.528.96758-.60138s.49209-.93645.82662-.83185a1.881,1.881,0,0,1-.45,1.15591c-.43677.43678-1.08264.76941-1.33388,1.2402a10.3854,10.3854,0,0,0-.43433,2.689,5.75931,5.75931,0,0,1-.7741,2.64158,11.79159,11.79159,0,0,1-1.82074,1.26051c-.722.44525-2.06628.696-2.25976,1.27142a14.498,14.498,0,0,0-.52855,2.53185c-.09936.8739-.62926,2.318-.62926,3.06039a2.68336,2.68336,0,0,0,.74992,1.73175c.14619,0,2.39611-2.10274,3.63578-1.737,1.23966.36674.748,2.10319-.53893,3.38968a5.51164,5.51164,0,0,1-2.66631,1.66272,14.43812,14.43812,0,0,1,2.02423.37848,21.66858,21.66858,0,0,1,5.78193,3.29936,21.00813,21.00813,0,0,0,5.15555,3.01021,4.3982,4.3982,0,0,0,.49877.10938c.177-.14818,1.1043-.68332,1.1043-.68332a20.74729,20.74729,0,0,0,2.32988.997l-5.93678-4.57782,11.768,5.12289c.19348.08374.38795.1609.58152.22993l7.11292.12679c1.86712.03412,3.711-.04773,5.42285-.18021-1.37963-.85126-2.874-1.70107-4.47558-2.4841l-6.2409-3.05192c-.20774-.02644-.42017-.04638-.63594-.0591l-13.60378-.81715,8.83952-1.53638-5.7304-1.86513,9.80711-.06434a33.29173,33.29173,0,0,0,6.69527-.73629l-9.26926-1.76533,13.58438-.60327a13.33056,13.33056,0,0,0,2.274-.29l-1.03147.1249,8.96541-4.20638a80.11382,80.11382,0,0,0,8.303-4.56411,87.61205,87.61205,0,0,0-9.71154-.58811l-10.18991.02319,1.13507-.37144a12.76388,12.76388,0,0,0-2.4046.74189l-11.88765,4.95449,7.194-5.35995-.05487.009-.16424-1.236-1.30734-2.15616a43.07425,43.07425,0,0,0,9.79537-10.11231L189.26919,119.31l9.79293-8.1563a16.12962,16.12962,0,0,0,3.10958-3.37128c1.26285-1.90872,2.43537-3.86427,3.50474-5.844l-3.03539,2.99749,3.63858-7.915a104.53021,104.53021,0,0,0,5.38359-14.88459A126.70448,126.70448,0,0,0,197.2367,91.431l-7.12393,5.39876,2.27213-3.54066c-1.84293,1.56715-3.62486,3.22129-5.32539,4.944a15.6088,15.6088,0,0,0-2.62218,3.67459l-5.20338,9.96566,1.84817-9.096a43.00274,43.00274,0,0,0-4.12219,4.93031l-.907,1.2652-.83131-.5706a2.3746,2.3746,0,0,0-.12869.21622l-7.147,13.55316,4.21486-14.73083a46.76106,46.76106,0,0,0,1.39813-18.48635l-4.92174,9.14716,2.38376-11.00381a17.91432,17.91432,0,0,0,.37234-5.491A88.64994,88.64994,0,0,0,169.502,70.49854l-.64867,5.401-2.13676-7.8742A133.98,133.98,0,0,0,159.42,48.27615a133.84481,133.84481,0,0,0-7.29665,19.74921l-2.13631,7.8742-.64912-5.401a88.73214,88.73214,0,0,0-1.89121,11.10831,17.92371,17.92371,0,0,0,.37234,5.49144l2.381,11.00715-4.91894-9.14951a46.754,46.754,0,0,0,1.39813,18.48491l4.21541,14.73173-7.14757-13.55406a2.27553,2.27553,0,0,0-.12869-.21622l-.83131.5706-.907-1.2652a43.00994,43.00994,0,0,0-4.12218-4.93031l1.84861,9.096-5.20383-9.96566a15.61839,15.61839,0,0,0-2.62173-3.67459c-1.69719-1.71948-3.47677-3.37128-5.31781-4.93644l2.27727,3.54346-7.1371-5.40914a126.64267,126.64267,0,0,0-14.42652-9.2947,104.51239,104.51239,0,0,0,5.3835,14.88459l3.63867,7.915-3.03539-2.99749c1.06937,1.97974,2.24234,3.93529,3.50519,5.844a16.1145,16.1145,0,0,0,3.10913,3.37128l9.79294,8.1563-9.61128-4.60147a43.06358,43.06358,0,0,0,9.79537,10.11231l-1.30734,2.15616-.16424,1.236-.05532-.009,7.19485,5.3604-11.88809-4.95494a12.8419,12.8419,0,0,0-2.40361-.74189l1.13462.37144-10.19046-.02319a87.61885,87.61885,0,0,0-9.71154.58811,80.11382,80.11382,0,0,0,8.30295,4.56411l8.96541,4.20593-1.031-.1249a13.27347,13.27347,0,0,0,2.27357.29049l13.58429.60327-9.26908,1.76533a33.29442,33.29442,0,0,0,6.69518.73629l9.8331.06434-5.75025,1.86612,8.83428,1.53539-13.60414.81715q-.32447.01908-.63648.0591l-6.2419,3.05192c-1.60063.783-3.09486,1.63284-4.47458,2.4841,1.71235.13248,3.55574.21378,5.42285.18021l7.113-.12679c.19348-.069.38795-.14619.582-.22993l11.76744-5.12289-5.93678,4.57782a20.7465,20.7465,0,0,0,2.32988-.997s.92643.53424,1.10339.68278a4.33833,4.33833,0,0,0,.49914-.10884,21.0002,21.0002,0,0,0,5.15609-3.01021,21.67132,21.67132,0,0,1,5.78193-3.29936,14.43561,14.43561,0,0,1,2.02423-.37848,5.51164,5.51164,0,0,1-2.66631-1.66272C151.735,139.9406,151.24289,138.20415,152.483,137.83741Z"/><polygon class="cls-2" points="143.89 167.58 135.842 158.419 134.604 158.419 134.604 176.989 138.319 176.989 138.319 166.219 143.89 172.408 149.46 166.219 149.473 176.989 153.187 176.989 153.187 158.419 151.949 158.419 143.89 167.58"/><polygon class="cls-3" points="225.029 161.885 225.029 158.419 211.386 158.431 211.386 176.989 225.004 176.989 225.004 173.523 215.1 173.523 215.1 169.301 222.541 169.301 222.541 165.847 215.1 165.847 215.1 161.885 225.029 161.885"/><path class="cls-4" d="M167.05266,158.4191h-3.7143l-7.428,18.57h3.9612l1.11431-2.84742h8.41845l1.11432,2.84742,3.94937-.01272ZM162.472,170.42785l2.82287-7.05714,2.74807,7.05714Z"/><path class="cls-5" d="M188.28464,167.39462a9.20851,9.20851,0,0,0-4.27118-1.54721,4.89539,4.89539,0,0,1-2.84751-1.11476,1.44892,1.44892,0,0,1,0-1.7952q.61956-1.05177,2.84751-1.05177a4.26472,4.26472,0,0,1,3.46685,1.48521l2.47553-2.47607a8.663,8.663,0,0,0-2.66152-1.85711,10.3642,10.3642,0,0,0-4.01146-.61888,7.43335,7.43335,0,0,0-4.33886,1.4918,4.62067,4.62067,0,0,0-2.11077,3.9556,4.10917,4.10917,0,0,0,1.85674,3.83783,9.98037,9.98037,0,0,0,4.08573,1.36176q2.47553.24773,3.08873,1.29976a1.96183,1.96183,0,0,1,0,2.10509q-.61253,1.05178-3.08873,1.05178a5.88132,5.88132,0,0,1-4.20927-1.73311l-2.47653,2.47644a9.37112,9.37112,0,0,0,2.97141,1.98073,10.99713,10.99713,0,0,0,4.32091.74233,7.49924,7.49924,0,0,0,4.77229-1.6092,4.76,4.76,0,0,0,2.04923-3.83774A4.64806,4.64806,0,0,0,188.28464,167.39462Z"/><polygon class="cls-6" points="192.58 161.885 198.77 161.885 198.77 176.989 202.485 176.989 202.485 161.885 208.675 161.885 208.675 158.419 192.58 158.419 192.58 161.885"/><polygon class="cls-7" points="106.686 170.056 95.049 158.419 93.811 158.419 93.811 176.989 97.525 176.989 97.525 165.476 109.039 176.989 110.401 176.989 110.401 158.419 106.686 158.419 106.686 170.056"/><path class="cls-8" d="M124.41479,158.4191H120.701l-7.42813,18.57h3.96128l1.11432-2.84742h8.41845l1.11477,2.84742,3.94892-.01272Zm-4.58017,12.00875,2.82234-7.05714,2.74815,7.05714Z"/><path class="cls-9" d="M227.69632,152.80475v3.37079h-.66954v-3.37079h-1.25405v-.60161h3.18319v.60161Zm5.31887,3.37079-.00554-2.96786-1.25406,2.55339h-.43711l-1.25406-2.55339v2.96786h-.6298v-3.9724h.7943l1.31089,2.63887,1.30534-2.63887h.78875v3.9724Z"/><path class="cls-10" d="M125.06016,190.30579a2.62029,2.62029,0,0,1-1.501,4.87213l-5.192-.00615V185.9504h4.89674q2.33193.13578,2.46067,2.71289A1.93121,1.93121,0,0,1,125.06016,190.30579Zm-4.84137-.65823h2.5837a1.04134,1.04134,0,0,0,1.14422-1.15036q-.03033-.67624-1.12576-.7136h-2.60216Zm0,4.08472h3.01432a1.20425,1.20425,0,0,0,1.32877-1.33492q-.03033-.88584-1.31031-.92275h-3.03278Z"/><path class="cls-10" d="M127.64387,185.94425h2.16539l2.14079,3.01432,2.19-3.01432h2.11618L132.8728,190.558v4.61376h-1.84551V190.558Z"/><path class="cls-10" d="M149.16245,195.17177h-7.38817l.00615-.61516,4.3-6.88989h-4.3l-.00615-1.72247h7.38817v.67669L144.844,193.4493h4.31848Z"/><path class="cls-10" d="M151.48076,195.17177V185.9504l6.77915-.00615v1.72247h-4.93365v1.96854h3.69716v1.71632h-3.69716v2.09772h4.92134v1.72247Z"/><path class="cls-10" d="M160.11772,195.17177v-9.22752h.61516l5.78258,5.78258v-5.78258H168.361v9.22752h-.67669l-5.72106-5.72106v5.72106Z"/><path class="cls-10" d="M169.78816,195.17177l3.691-9.22752h1.8455l3.684,9.22137-1.96151.00615-.55365-1.41488h-4.18314l-.55365,1.41488Zm4.663-6.76685-1.40258,3.50646h2.76826Z"/><path class="cls-10" d="M186.93905,190.30579a2.62058,2.62058,0,0,1-1.501,4.87213l-5.192-.00615V185.9504h4.89674q2.33061.13578,2.46067,2.71289A1.93606,1.93606,0,0,1,186.93905,190.30579Zm-4.84225-.65823h2.5837a1.04055,1.04055,0,0,0,1.14421-1.15036c-.01933-.45083-.39546-.689-1.12487-.7136h-2.603Zm0,4.08472h3.01432a1.20347,1.20347,0,0,0,1.32876-1.33492q-.029-.88584-1.30943-.92275H182.0968Z"/><path class="cls-10" d="M190.0641,185.9381h1.83848v9.23367H190.0641Z"/><path class="cls-10" d="M198.75028,186.25184a4.28342,4.28342,0,0,1,1.32173.92275l-1.23034,1.23033a2.11772,2.11772,0,0,0-1.72247-.7382q-1.1073,0-1.41489.52289a.72306.72306,0,0,0,0,.892,2.43327,2.43327,0,0,0,1.41489.55365,4.57784,4.57784,0,0,1,2.12321.769,2.31247,2.31247,0,0,1,.95263,2.06081,2.36676,2.36676,0,0,1-1.01766,1.907,3.72605,3.72605,0,0,1-2.371.79972,5.46953,5.46953,0,0,1-2.14781-.3691,4.67561,4.67561,0,0,1-1.4764-.98427l1.23033-1.23033a2.92525,2.92525,0,0,0,2.09157.86123q1.23121,0,1.53441-.52289a.97051.97051,0,0,0,0-1.04579q-.3032-.52332-1.53441-.64592a4.95753,4.95753,0,0,1-2.03-.67669,2.04136,2.04136,0,0,1-.92275-1.907,2.29475,2.29475,0,0,1,1.0493-1.965,3.69283,3.69283,0,0,1,2.1566-.74172A5.16194,5.16194,0,0,1,198.75028,186.25184Z"/><rect class="cls-10" x="93.81112" y="190.42578" width="16.58964" height="2.02001"/><rect class="cls-10" x="208.43913" y="190.42578" width="16.58964" height="2.02001"/></svg>