<?xml version="1.0" encoding="utf-8"?>
<!-- Generator: Adobe Illustrator 23.0.1, SVG Export Plug-In . SVG Version: 6.00 Build 0)  -->
<svg version="1.1" id="Layer_2" xmlns="http://www.w3.org/2000/svg" xmlns:xlink="http://www.w3.org/1999/xlink" x="0px" y="0px"
	 viewBox="0 0 728 90" enable-background="new 0 0 728 90" xml:space="preserve">
<g>
	<g>
		<polygon fill="#FFFFFF" stroke="#BA9544" stroke-width="0.5" stroke-miterlimit="10" points="445.76,21.29 314.83,20.79 
			308.22,30.34 314.83,39.71 445.76,39.49 451.71,30.39 		"/>
		<polygon fill="#BA9544" points="314.93,20.79 308.32,30.34 314.93,39.71 331.11,39.71 331.11,20.79 		"/>
	</g>
	<g>
		<path fill="#BA9544" d="M389.77,27.21v1.2h-2.14v5.22h-1.28v-5.22h-2.14v-1.2H389.77z"/>
		<path fill="#BA9544" d="M390.72,33.63v-6.42H392v2.57h2.99v-2.57h1.28v6.42l-1.28,0v-2.65H392v2.65H390.72z"/>
		<path fill="#BA9544" d="M398.26,32.71c-0.61-0.61-0.92-1.38-0.92-2.3c0-0.9,0.31-1.66,0.92-2.27c0.61-0.61,1.37-0.92,2.28-0.92
			c0.92,0,1.7,0.29,2.35,0.86L402.04,29c-0.44-0.34-0.94-0.51-1.5-0.51c-0.58,0-1.04,0.18-1.39,0.54c-0.35,0.36-0.53,0.81-0.53,1.37
			c0,0.6,0.18,1.07,0.53,1.42c0.35,0.35,0.82,0.53,1.39,0.53s1.07-0.17,1.49-0.51l0.85,0.94c-0.65,0.57-1.44,0.86-2.35,0.86
			C399.64,33.62,398.88,33.32,398.26,32.71z"/>
		<path fill="#BA9544" d="M404.33,29.53c0.11-0.12,0.27-0.17,0.46-0.17c0.21,0,0.36,0.06,0.48,0.17s0.17,0.26,0.17,0.43
			c0,0.17-0.06,0.31-0.17,0.43s-0.27,0.17-0.47,0.17c-0.2,0-0.36-0.06-0.47-0.17s-0.17-0.26-0.17-0.43
			C404.16,29.79,404.22,29.65,404.33,29.53z M404.33,32.6c0.11-0.12,0.27-0.17,0.46-0.17c0.21,0,0.36,0.06,0.48,0.17
			c0.11,0.12,0.17,0.26,0.17,0.43c0,0.17-0.06,0.31-0.17,0.43s-0.27,0.17-0.47,0.17c-0.2,0-0.36-0.06-0.47-0.17
			s-0.17-0.26-0.17-0.43C404.16,32.86,404.22,32.71,404.33,32.6z"/>
		<path fill="#BA9544" d="M411.16,27.21L411.16,27.21l1.28,0v6.42h-1.28v-4.71l-0.85,0.86l-0.85-0.86L411.16,27.21z"/>
		<path fill="#BA9544" d="M416.55,27.21L416.55,27.21l1.28-0.01v3.73h0.86v1.28h-0.86v1.41h-1.28v-1.41h-2.91v-1.28h0.04l-0.04-0.04
			L416.55,27.21z M416.55,30.94v-2.04l-1.56,2.04H416.55z"/>
		<path fill="#BA9544" d="M419.67,31.91v-0.85h2.65v0.85H419.67z"/>
		<path fill="#BA9544" d="M425.08,27.21L425.08,27.21l1.28,0v6.42h-1.28v-4.71l-0.85,0.86l-0.85-0.86L425.08,27.21z"/>
		<path fill="#BA9544" d="M431.09,30.38c0.08,0.03,0.15,0.06,0.21,0.09c0.44,0.2,0.66,0.63,0.66,1.28s-0.21,1.13-0.62,1.43
			c-0.42,0.3-0.95,0.45-1.6,0.45c-0.65,0-1.18-0.15-1.6-0.45c-0.41-0.3-0.62-0.78-0.62-1.43s0.22-1.08,0.66-1.28
			c0.06-0.03,0.13-0.06,0.21-0.09c-0.05-0.02-0.09-0.04-0.12-0.06c-0.38-0.21-0.58-0.62-0.58-1.22c0-0.6,0.19-1.06,0.56-1.39
			c0.37-0.33,0.87-0.49,1.5-0.49c0.62,0,1.12,0.16,1.49,0.49c0.37,0.33,0.56,0.79,0.56,1.39c0,0.6-0.19,1-0.58,1.22
			C431.18,30.33,431.13,30.35,431.09,30.38z M429.74,29.79c0.38-0.01,0.62-0.11,0.73-0.29c0.14-0.24,0.14-0.49,0-0.73
			c-0.13-0.22-0.37-0.34-0.73-0.36c-0.35,0.02-0.59,0.14-0.72,0.36c-0.14,0.24-0.14,0.49,0,0.73
			C429.12,29.68,429.36,29.78,429.74,29.79z M429.74,30.97c-0.38,0.06-0.62,0.18-0.72,0.37c-0.14,0.24-0.14,0.49,0,0.73
			c0.13,0.22,0.37,0.34,0.72,0.36c0.35-0.02,0.6-0.14,0.73-0.36c0.14-0.24,0.14-0.49,0-0.73C430.36,31.15,430.12,31.03,429.74,30.97
			z"/>
		<path fill="#BA9544" d="M433.45,29.92c-0.31-0.31-0.46-0.69-0.46-1.15s0.15-0.84,0.46-1.15c0.31-0.31,0.69-0.46,1.15-0.46
			c0.46,0,0.84,0.15,1.14,0.46c0.31,0.31,0.46,0.69,0.46,1.15s-0.15,0.84-0.46,1.15c-0.31,0.31-0.69,0.46-1.14,0.46
			C434.14,30.38,433.76,30.23,433.45,29.92z M434.58,29.62c0.24,0,0.43-0.08,0.59-0.24c0.15-0.16,0.23-0.37,0.23-0.61
			s-0.08-0.44-0.23-0.61s-0.35-0.24-0.59-0.24c-0.24,0-0.43,0.08-0.58,0.24s-0.23,0.36-0.23,0.61s0.08,0.44,0.23,0.61
			C434.15,29.54,434.35,29.62,434.58,29.62z M434.24,33.63l3.63-6.42h1.04l-3.62,6.42H434.24z M437.43,33.2
			c-0.31-0.3-0.46-0.68-0.46-1.14c0-0.45,0.15-0.83,0.46-1.14c0.3-0.3,0.68-0.46,1.14-0.46s0.83,0.15,1.14,0.46
			c0.3,0.31,0.46,0.68,0.46,1.14c0,0.45-0.15,0.83-0.46,1.14c-0.3,0.31-0.68,0.46-1.14,0.46S437.73,33.51,437.43,33.2z
			 M438.54,32.89c0.23,0,0.42-0.08,0.57-0.24s0.22-0.36,0.22-0.59c0-0.23-0.07-0.43-0.22-0.59s-0.34-0.24-0.58-0.24
			c-0.23,0-0.42,0.08-0.57,0.24c-0.15,0.16-0.22,0.35-0.22,0.59c0,0.24,0.07,0.43,0.22,0.59C438.12,32.81,438.31,32.89,438.54,32.89
			z"/>
	</g>
</g>
<g>
</g>
<g>
</g>
<g>
</g>
<g>
</g>
<g>
</g>
<g>
</g>
<g>
</g>
<g>
</g>
<g>
</g>
<g>
</g>
<g>
</g>
<g>
</g>
<g>
</g>
<g>
</g>
<g>
</g>
</svg>
