<svg id="Layer_1" data-name="Layer 1" xmlns="http://www.w3.org/2000/svg" xmlns:xlink="http://www.w3.org/1999/xlink" width="320" height="50" viewBox="0 0 320 50"><defs><style>.cls-1{fill:url(#linear-gradient);}.cls-2{fill:url(#New_Gradient_Swatch_2);}.cls-3{fill:url(#New_Gradient_Swatch_2-2);}.cls-4{fill:url(#New_Gradient_Swatch_2-3);}.cls-5{fill:url(#New_Gradient_Swatch_2-4);}.cls-6{fill:url(#New_Gradient_Swatch_2-5);}.cls-7{fill:url(#New_Gradient_Swatch_2-6);}.cls-8{fill:url(#New_Gradient_Swatch_2-7);}.cls-9{fill:url(#New_Gradient_Swatch_2-8);}.cls-10{fill:url(#New_Gradient_Swatch_2-9);}.cls-11{fill:#ab9555;}.cls-12{fill:none;stroke-miterlimit:10;stroke-width:0.40079px;stroke:url(#New_Gradient_Swatch_2-10);}</style><linearGradient id="linear-gradient" x1="-55.83371" y1="186.45311" x2="129.16629" y2="1.45311" gradientTransform="translate(123.33371 -68.95311)" gradientUnits="userSpaceOnUse"><stop offset="0" stop-color="#231f20"/><stop offset="0.23973" stop-color="#171415"/><stop offset="0.67302" stop-color="#060505"/><stop offset="1"/></linearGradient><linearGradient id="New_Gradient_Swatch_2" x1="44.66147" y1="35.49261" x2="47.74133" y2="35.49261" gradientUnits="userSpaceOnUse"><stop offset="0" stop-color="#ab8d34"/><stop offset="0.1878" stop-color="#cdb267"/><stop offset="0.46098" stop-color="#a38d4a"/><stop offset="0.76341" stop-color="#cdb267"/><stop offset="1" stop-color="#987f2e"/></linearGradient><linearGradient id="New_Gradient_Swatch_2-2" x1="32.13775" y1="35.49261" x2="36.32716" y2="35.49261" xlink:href="#New_Gradient_Swatch_2"/><linearGradient id="New_Gradient_Swatch_2-3" x1="36.69331" y1="35.49255" x2="39.87953" y2="35.49255" xlink:href="#New_Gradient_Swatch_2"/><linearGradient id="New_Gradient_Swatch_2-4" x1="20.04954" y1="20.11651" x2="45.81058" y2="20.11651" xlink:href="#New_Gradient_Swatch_2"/><linearGradient id="New_Gradient_Swatch_2-5" x1="40.41608" y1="35.49259" x2="44.04943" y2="35.49259" xlink:href="#New_Gradient_Swatch_2"/><linearGradient id="New_Gradient_Swatch_2-6" x1="18.11877" y1="35.49261" x2="21.86391" y2="35.49261" xlink:href="#New_Gradient_Swatch_2"/><linearGradient id="New_Gradient_Swatch_2-7" x1="27.32788" y1="35.49261" x2="31.52287" y2="35.49261" xlink:href="#New_Gradient_Swatch_2"/><linearGradient id="New_Gradient_Swatch_2-8" x1="22.51228" y1="35.49261" x2="26.70171" y2="35.49261" xlink:href="#New_Gradient_Swatch_2"/><linearGradient id="New_Gradient_Swatch_2-9" x1="47.90928" y1="32.44163" x2="49.68395" y2="32.44163" xlink:href="#New_Gradient_Swatch_2"/><linearGradient id="New_Gradient_Swatch_2-10" x1="275.77455" y1="49.98536" x2="302.38186" y2="23.37805" xlink:href="#New_Gradient_Swatch_2"/></defs><title>background</title><rect class="cls-1" x="135" y="-135" width="50" height="320" transform="translate(185 -135) rotate(90)"/><polygon class="cls-2" points="47.741 34.179 47.741 33.397 44.661 33.399 44.661 37.589 47.736 37.589 47.736 36.806 45.5 36.806 45.5 35.853 47.18 35.853 47.18 35.073 45.5 35.073 45.5 34.179 47.741 34.179"/><path class="cls-3" d="M34.65314,33.39651h-.8385l-1.67689,4.1922H33.032l.25156-.64281H35.184l.25156.64281.89157-.00287Zm-1.03408,2.711.63727-1.59316.62038,1.59316Z"/><path class="cls-4" d="M39.44629,35.42274a2.07889,2.07889,0,0,0-.96422-.34928,1.10514,1.10514,0,0,1-.64283-.25166.3271.3271,0,0,1,0-.40527q.13986-.23743.64283-.23744a.96273.96273,0,0,1,.78264.33529l.55886-.559a1.95577,1.95577,0,0,0-.60084-.41924,2.33979,2.33979,0,0,0-.9056-.13971,1.6781,1.6781,0,0,0-.9795.33677,1.04313,1.04313,0,0,0-.47651.893.92765.92765,0,0,0,.41916.8664,2.25322,2.25322,0,0,0,.92236.30742q.55885.05592.69729.29342a.44291.44291,0,0,1,0,.47523q-.13828.23744-.69729.23744a1.32778,1.32778,0,0,1-.95025-.39125l-.55908.559a2.11568,2.11568,0,0,0,.6708.44716,2.48271,2.48271,0,0,0,.97545.16758,1.69294,1.69294,0,0,0,1.07735-.36328,1.07458,1.07458,0,0,0,.46262-.86638A1.04931,1.04931,0,0,0,39.44629,35.42274Z"/><path class="cls-5" d="M31.364,28.75016c.27995-.08257.78778.39213.82078.39213a.60581.60581,0,0,0,.16929-.391c0-.1676-.11962-.4936-.14205-.69088a3.28739,3.28739,0,0,0-.11932-.57157c-.04368-.12989-.34725-.18651-.51015-.287a2.66055,2.66055,0,0,1-.411-.28456,1.30028,1.30028,0,0,1-.17476-.59634,2.34422,2.34422,0,0,0-.09805-.607c-.05671-.10628-.20252-.18138-.30112-.28a.42391.42391,0,0,1-.10158-.261c.07562-.02361.09924.17123.18661.18779s.08149.08854.21844.13576.14175.11226.15947.23981.17123.55853.222.73446.10392.30838.27761.31425.15.0956.3542.07916a1.14358,1.14358,0,0,1,.49017.09441c.10981.039.248.04252.29524-.03417s-.0331-.38626-.0331-.38626c-.07082,0-.0827-.09558-.10981-.18414s.01654-.09571.01654-.09571a.37428.37428,0,1,1,.71334,0s.04368.007.01654.09571-.039.18414-.10991.18414c0,0-.08022.30946-.033.38626s.18543.07316.29524.03417a1.14342,1.14342,0,0,1,.49007-.09441c.20434.01644.18073-.07328.3543-.07916s.22678-.13821.27751-.31425.20434-.60693.22208-.73446.02243-.1926.15948-.23981.131-.11919.21843-.13576.11109-.2114.18661-.18779a.42466.42466,0,0,1-.10158.261c-.0986.0986-.24441.1737-.30112.28a2.34422,2.34422,0,0,0-.09805.607,1.30028,1.30028,0,0,1-.17476.59634,2.66154,2.66154,0,0,1-.411.28456c-.163.10052-.46647.15714-.51015.287a3.2735,3.2735,0,0,0-.11932.57157c-.02243.19728-.142.52328-.142.69088a.60581.60581,0,0,0,.16929.391c.033,0,.54093-.4747.82078-.39213.27986.0828.16887.4748-.12166.76523a1.24421,1.24421,0,0,1-.60192.37536,3.25974,3.25974,0,0,1,.457.08544,4.89181,4.89181,0,0,1,1.30528.74484,4.74275,4.74275,0,0,0,1.16387.67956.99267.99267,0,0,0,.1126.02469c.03995-.03345.2493-.15426.2493-.15426a4.68314,4.68314,0,0,0,.526.22507l-1.34024-1.03345,2.65664,1.1565c.04368.01891.08758.03633.13128.05191l1.60575.02862c.4215.0077.83777-.01077,1.22421-.04068-.31145-.19217-.64879-.384-1.01036-.56079l-1.40889-.689c-.0469-.006-.09486-.01047-.14357-.01335l-3.07107-.18447,1.99553-.34684-1.29364-.42105,2.214-.01453a7.51569,7.51569,0,0,0,1.51146-.16622L38.565,28.86425l3.0667-.13619a3.01005,3.01005,0,0,0,.51336-.06548l-.23286.0282,2.024-.9496a18.08641,18.08641,0,0,0,1.8744-1.03035,19.77884,19.77884,0,0,0-2.1924-.13277l-2.30038.00524.25624-.08385a2.88108,2.88108,0,0,0-.54284.16748l-2.68365,1.11848,1.624-1.21-.01238.002-.03708-.279-.29514-.48676a9.72384,9.72384,0,0,0,2.21132-2.28286l-2.16976,1.03878,2.21077-1.84129a3.641,3.641,0,0,0,.702-.76107c.28509-.4309.54979-.87237.7912-1.31929l-.68524.67668.82141-1.78681A23.599,23.599,0,0,0,44.724,16.17557a28.603,28.603,0,0,0-3.25681,2.09829L39.859,19.49264l.51293-.79931c-.416.35378-.81832.72721-1.20221,1.11612a3.52346,3.52346,0,0,0-.592.82954l-1.17467,2.24976.41722-2.05343a9.7089,9.7089,0,0,0-.93059,1.113L36.685,22.234l-.18767-.12881a.53555.53555,0,0,0-.029.04881L34.85479,25.2136l.95151-3.3255a10.55644,10.55644,0,0,0,.31563-4.17332l-1.11109,2.065.53814-2.48412a4.04425,4.04425,0,0,0,.084-1.2396,20.01123,20.01123,0,0,0-.42694-2.50771l-.14644,1.21928L34.57728,12.99a30.24676,30.24676,0,0,0-1.64721-4.45841A30.21617,30.21617,0,0,0,31.28284,12.99l-.48227,1.77761L30.654,13.54833a20.02949,20.02949,0,0,0-.42694,2.50771,4.04634,4.04634,0,0,0,.08405,1.2397l.53751,2.48488-1.11046-2.06551a10.55482,10.55482,0,0,0,.31563,4.173l.95163,3.32571L29.39188,22.154a.51356.51356,0,0,0-.02905-.04881l-.18767.12881-.20476-.28562a9.70993,9.70993,0,0,0-.93059-1.113l.41733,2.05343L27.28236,20.639a3.52581,3.52581,0,0,0-.59185-.82954c-.38315-.38818-.78489-.76107-1.20051-1.11441l.5141.79994-1.61121-1.22112a28.58921,28.58921,0,0,0-3.25681-2.09829,23.59509,23.59509,0,0,0,1.21534,3.36022l.82143,1.78681-.68524-.67668c.24141.44692.50621.88839.7913,1.31929a3.63759,3.63759,0,0,0,.70189.76107l2.21077,1.84129-2.16976-1.03878a9.72147,9.72147,0,0,0,2.21132,2.28286l-.29514.48676-.03708.279-.01248-.002,1.62424,1.21012-2.68375-1.11858a2.8983,2.8983,0,0,0-.54262-.16748l.25614.08385-2.3005-.00524a19.78035,19.78035,0,0,0-2.1924.13277,18.08641,18.08641,0,0,0,1.8744,1.03035l2.024.9495-.23276-.0282a2.99736,2.99736,0,0,0,.51326.06558l3.06668.13619-2.09251.39852A7.5163,7.5163,0,0,0,26.714,29.429l2.21983.01453-1.29813.42128,1.99435.34661-3.07115.18447q-.07324.00432-.14369.01335l-1.40911.689c-.36135.17677-.69867.36862-1.01014.56079.38656.02991.80271.04826,1.22421.04068l1.60577-.02862c.04368-.01558.08758-.033.13138-.05191l2.65652-1.1565-1.34024,1.03345a4.68314,4.68314,0,0,0,.526-.22507s.20915.1206.2491.15414a.98119.98119,0,0,0,.11268-.02457,4.741,4.741,0,0,0,1.164-.67956,4.89257,4.89257,0,0,1,1.30528-.74484,3.25918,3.25918,0,0,1,.457-.08544,1.24421,1.24421,0,0,1-.60192-.37536C31.19516,29.225,31.08407,28.833,31.364,28.75016Z"/><polygon class="cls-6" points="40.416 34.179 41.813 34.179 41.813 37.589 42.652 37.589 42.652 34.179 44.049 34.179 44.049 33.396 40.416 33.396 40.416 34.179"/><polygon class="cls-7" points="21.025 36.024 18.398 33.397 18.119 33.397 18.119 37.589 18.957 37.589 18.957 34.99 21.557 37.589 21.864 37.589 21.864 33.397 21.025 33.397 21.025 36.024"/><polygon class="cls-8" points="29.424 35.465 27.607 33.397 27.328 33.397 27.328 37.589 28.166 37.589 28.166 35.157 29.424 36.555 30.682 35.157 30.684 37.589 31.523 37.589 31.523 33.397 31.243 33.397 29.424 35.465"/><path class="cls-9" d="M25.02759,33.39651h-.8384l-1.67691,4.1922h.89426l.25156-.64281h1.90048l.25166.64281.89147-.00287Zm-1.034,2.711.63715-1.59316.6204,1.59316Z"/><path class="cls-10" d="M48.34353,32.12906v.761h-.15115v-.761h-.2831v-.13581h.71861v.13581Zm1.20074.761-.00125-.67-.2831.57643h-.09868L48.87813,32.22v.67H48.736v-.89677h.17932l.29593.59572.29468-.59572H49.684V32.89Z"/><path class="cls-11" d="M25.17328,40.595a.59153.59153,0,0,1-.33885,1.09989l-1.17211-.00139V39.61173h1.10545q.52644.03066.5555.61244A.436.436,0,0,1,25.17328,40.595Zm-1.09294-.1486h.58327a.23507.23507,0,0,0,.25831-.25969q-.00684-.15267-.25414-.1611h-.58744Zm0,.92213h.68049a.27186.27186,0,0,0,.3-.30136q-.00686-.2-.29581-.20831h-.68465Z"/><path class="cls-11" d="M25.75656,39.61035h.48884l.48328.68048.4944-.68048h.47773L26.937,40.65191v1.04156h-.41663V40.65191Z"/><path class="cls-11" d="M30.61441,41.69347H28.94652l.00139-.13887.97073-1.5554h-.97073l-.00139-.38885h1.66789v.15276l-.97491,1.54151h.97491Z"/><path class="cls-11" d="M31.13777,41.69347V39.61173l1.5304-.00138v.38885H31.55439v.4444H32.389v.38746h-.83464v.47356h1.111v.38885Z"/><path class="cls-11" d="M33.08757,41.69347V39.61035h.13888l1.30542,1.30542V39.61035h.41663v2.08312h-.15276L33.5042,40.40193v1.29154Z"/><path class="cls-11" d="M35.27069,41.69347l.83325-2.08312h.41662l.83167,2.08173-.44282.00139-.125-.31941h-.94435l-.125.31941Zm1.05267-1.52762-.31663.79158h.62493Z"/><path class="cls-11" d="M39.14252,40.595a.5916.5916,0,0,1-.33885,1.09989l-1.17211-.00139V39.61173H38.737q.52614.03066.5555.61244A.43708.43708,0,0,1,39.14252,40.595Zm-1.09314-.1486h.58327a.2349.2349,0,0,0,.25831-.25969c-.00436-.10178-.08928-.15554-.25394-.1611h-.58764Zm0,.92213h.68049a.27169.27169,0,0,0,.3-.30136q-.00655-.2-.29561-.20831h-.68485Z"/><path class="cls-11" d="M39.848,39.609h.415v2.08451h-.415Z"/><path class="cls-11" d="M41.80892,39.67978a.96721.96721,0,0,1,.29839.20832l-.27775.27775a.47809.47809,0,0,0-.38885-.16665q-.25,0-.31942.118a.16325.16325,0,0,0,0,.20137.54939.54939,0,0,0,.31942.125,1.03344,1.03344,0,0,1,.47931.17359.522.522,0,0,1,.21506.46523.53429.53429,0,0,1-.22974.43051.84113.84113,0,0,1-.53526.18054,1.23474,1.23474,0,0,1-.48487-.08332,1.05558,1.05558,0,0,1-.3333-.2222l.27775-.27775a.66034.66034,0,0,0,.47217.19442q.27795,0,.34639-.118a.21908.21908,0,0,0,0-.23609q-.06845-.11814-.34639-.14582a1.11926,1.11926,0,0,1-.45829-.15276.46086.46086,0,0,1-.20831-.43051.51806.51806,0,0,1,.23688-.44361.83363.83363,0,0,1,.48686-.16744A1.16543,1.16543,0,0,1,41.80892,39.67978Z"/><rect class="cls-11" x="18.11877" y="40.62206" width="3.74513" height="0.45602"/><rect class="cls-11" x="43.99619" y="40.62206" width="3.74513" height="0.45602"/><rect class="cls-12" x="267.85249" y="31.70089" width="42.45143" height="9.96163"/><path class="cls-11" d="M275.89753,35.63236V36.8496a.42119.42119,0,0,0,.13991.34978.60249.60249,0,0,0,.69956,0,.42119.42119,0,0,0,.13991-.34978V35.63236h.41974v1.32917a.6952.6952,0,0,1-.25884.54566,1.05731,1.05731,0,0,1-1.30118,0,.6952.6952,0,0,1-.25884-.54566V35.63236Z"/><path class="cls-11" d="M277.979,37.73105V35.63236h.13991l1.31518,1.31518V35.63236h.41973v2.09869h-.15365l-1.30143-1.30119v1.30119Z"/><path class="cls-11" d="M280.71623,37.4296a1.04976,1.04976,0,0,1,.74637-1.79724,1.13586,1.13586,0,0,1,.771.27983l-.27982.30641a.77468.77468,0,0,0-.49122-.1679.59814.59814,0,0,0-.62808.624.6282.6282,0,0,0,.17476.46451.61949.61949,0,0,0,.45612.17209.7525.7525,0,0,0,.48842-.1665l.27982.30641a1.13221,1.13221,0,0,1-.771.27983A1.02112,1.02112,0,0,1,280.71623,37.4296Z"/><path class="cls-11" d="M283.10924,37.4296a1.08088,1.08088,0,1,1,.74865.30145A1.01747,1.01747,0,0,1,283.10924,37.4296Zm.74992-.09031a.58927.58927,0,0,0,.45332-.18888.71591.71591,0,0,0,0-.93741.64178.64178,0,0,0-.90943,0,.71511.71511,0,0,0,0,.93741A.59269.59269,0,0,0,283.85916,37.33929Z"/><path class="cls-11" d="M285.76706,35.63236l.59628,1.53764.607-1.53764h.44772l-.838,2.09869h-.41973l-.841-2.09869Z"/><path class="cls-11" d="M287.99039,37.73105V35.63376l1.54208-.0014v.39176h-1.12235v.44772h.841v.39035h-.841v.4771h1.1193v.39176Z"/><path class="cls-11" d="M291.44749,36.816l.52327.915h-.4813l-.50215-.86746h-.38362v.86746H290.184V35.63236h.91528q.73414,0,.73441.60442A.54277.54277,0,0,1,291.44749,36.816Zm-.8438-.34418h.58763q.25338-.0042.26049-.23086-.00725-.207-.25616-.21546h-.592Z"/><path class="cls-11" d="M293.62681,37.73105V35.63236h.13991l.90969,1.03535.9107-1.03535h.13991v2.09869h-.41974l-.00152-1.21724-.62935.69956-.62986-.69956v1.21724Z"/><path class="cls-11" d="M296.569,37.4296a1.08088,1.08088,0,1,1,.74865.30145A1.01747,1.01747,0,0,1,296.569,37.4296Zm.74992-.09031a.58927.58927,0,0,0,.45332-.18888.71591.71591,0,0,0,0-.93741.64178.64178,0,0,0-.90943,0,.71511.71511,0,0,0,0,.93741A.59269.59269,0,0,0,297.319,37.33929Z"/><path class="cls-11" d="M300.17139,36.816l.52327.915h-.48129l-.50216-.86746h-.38362v.86746h-.41973V35.63236h.91528q.73416,0,.73441.60442A.54277.54277,0,0,1,300.17139,36.816Zm-.8438-.34418h.58764q.25336-.0042.26049-.23086-.00726-.207-.25617-.21546h-.592Z"/><path class="cls-11" d="M301.13653,37.73105V35.63376l1.54209-.0014v.39176h-1.12235v.44772h.841v.39035h-.841v.4771h1.11929v.39176Z"/></svg>