<svg id="Layer_1" data-name="Layer 1" xmlns="http://www.w3.org/2000/svg" width="320" height="50" viewBox="0 0 320 50"><defs><style>.cls-1{fill:#ab9555;}</style></defs><title>frame2</title><path class="cls-1" d="M117.18652,25.47211a2.00091,2.00091,0,0,1-.38623,1.27246,1.39458,1.39458,0,0,1-.73877.50586,2.02362,2.02362,0,0,1-.59668.0791,1.68419,1.68419,0,0,1-1.04541-.3125,1.74959,1.74959,0,0,1-.54834-.69531,2.82,2.82,0,0,1-.23584-1.00879l1.02295-.07422a1.55351,1.55351,0,0,0,.32959.90234.54915.54915,0,0,0,.44287.2002.66646.66646,0,0,0,.5625-.34668.86136.86136,0,0,0,.1084-.47266,1.311,1.311,0,0,0-.40381-.88086q-.31786-.30175-.95459-.90429a4.07481,4.07481,0,0,1-.75537-.92676,2.14676,2.14676,0,0,1-.23877-1.001,1.74252,1.74252,0,0,1,.65332-1.47363,1.62893,1.62893,0,0,1,1-.30078,1.81234,1.81234,0,0,1,.98291.25586,1.46164,1.46164,0,0,1,.51416.55664,2.051,2.051,0,0,1,.23584.82324l-1.02832.1875a1.24238,1.24238,0,0,0-.25-.68164.52593.52593,0,0,0-.42627-.17578.4913.4913,0,0,0-.44873.26074,1.00844,1.00844,0,0,0-.125.52344,1.5691,1.5691,0,0,0,.42041.99414,3.50238,3.50238,0,0,0,.47754.4541q.375.31347.49414.4375a3.67814,3.67814,0,0,1,.61377.78418,2.99835,2.99835,0,0,1,.16455.33594A1.942,1.942,0,0,1,117.18652,25.47211Z"/><path class="cls-1" d="M120.1123,27.24457h-1.07421V20.12543h1.07421Z"/><path class="cls-1" d="M123.23779,20.11957l1.4253,4.78809V20.11957h1.07421v7.125H124.583l-1.47656-4.5625v4.5625h-1.07422v-7.125Z"/><path class="cls-1" d="M129.34473,27.33539a1.69714,1.69714,0,0,1-1.70508-1.69922V21.75043a1.70167,1.70167,0,1,1,3.40332,0v.8125h-1.11328v-.835a.62184.62184,0,0,0-.61914-.62012.58348.58348,0,0,0-.43457.18262.59779.59779,0,0,0-.17969.4375v3.89746a.61184.61184,0,0,0,.61426.61328.60236.60236,0,0,0,.4375-.17871.58779.58779,0,0,0,.18164-.43457V24.642H131.043v.99414a1.69709,1.69709,0,0,1-1.69824,1.69922Z"/><path class="cls-1" d="M132.88379,27.24457v-7.125h3.05664v1.0791H133.958V23.142h1.44824v1.08008H133.958v1.94336h1.98242v1.0791Z"/><path class="cls-1" d="M142.415,25.60785l-.26074,1.63672h-1.11817l1.21094-7.11914h1.47656l1.19336,7.11914h-1.1289l-.252-1.63672Zm.56445-3.85156-.39746,2.80664h.79492Z"/><path class="cls-1" d="M147.98535,20.11957l1.42481,4.78809V20.11957h1.07422v7.125h-1.15333l-1.47753-4.5625v4.5625H146.7793v-7.125Z"/><path class="cls-1" d="M154.09277,27.33539a1.69714,1.69714,0,0,1-1.70507-1.69922V21.75043a1.70167,1.70167,0,1,1,3.40332,0v.8125h-1.11329v-.835a.62184.62184,0,0,0-.61914-.62012.58349.58349,0,0,0-.43457.18262.59782.59782,0,0,0-.17968.4375v3.89746a.61182.61182,0,0,0,.61425.61328.60232.60232,0,0,0,.4375-.17871.58775.58775,0,0,0,.18164-.43457V24.642H155.791v.99414a1.69709,1.69709,0,0,1-1.69825,1.69922Z"/><path class="cls-1" d="M158.70508,27.24457h-1.07422V20.12543h1.07422Z"/><path class="cls-1" d="M160.625,27.24457v-7.125h3.05664v1.0791h-1.98242V23.142h1.44824v1.08008h-1.44824v1.94336h1.98242v1.0791Z"/><path class="cls-1" d="M166.58691,20.11957l1.42481,4.78809V20.11957h1.07422v7.125h-1.15332l-1.47754-4.5625v4.5625h-1.07422v-7.125Z"/><path class="cls-1" d="M172.05273,21.20453h-1.14257v-1.0791h3.35254v1.0791H173.126v6.04h-1.07325Z"/><path class="cls-1" d="M180.5,21.20453h-1.14258v-1.0791H182.71v1.0791h-1.13672v6.04H180.5Z"/><path class="cls-1" d="M185.60742,27.24457H184.5332V20.12543h1.07422Z"/><path class="cls-1" d="M188.60156,27.24457h-1.07422v-7.125h1.541l1.001,5.11816.96093-5.11816h1.48047v7.125h-1.07422V22.767l-.93164,4.47754h-.86328l-1.04-4.46582Z"/><path class="cls-1" d="M194.43066,27.24457v-7.125h3.05664v1.0791h-1.98242V23.142h1.44824v1.08008h-1.44824v1.94336h1.98242v1.0791Z"/><path class="cls-1" d="M202.73828,25.47211a2.01,2.01,0,0,1-.38672,1.27246,1.399,1.399,0,0,1-.73828.50586,2.03055,2.03055,0,0,1-.59668.0791,1.68468,1.68468,0,0,1-1.0459-.3125,1.73589,1.73589,0,0,1-.54785-.69531,2.79951,2.79951,0,0,1-.23633-1.00879l1.02246-.07422a1.55348,1.55348,0,0,0,.33008.90234.55008.55008,0,0,0,.44336.2002.6677.6677,0,0,0,.5625-.34668.87056.87056,0,0,0,.10742-.47266,1.308,1.308,0,0,0-.40332-.88086q-.31786-.30175-.9541-.90429a4.06563,4.06563,0,0,1-.75586-.92676,2.14637,2.14637,0,0,1-.23828-1.001,1.74249,1.74249,0,0,1,.65332-1.47363,1.62593,1.62593,0,0,1,1-.30078,1.813,1.813,0,0,1,.98242.25586,1.47042,1.47042,0,0,1,.51465.55664,2.05071,2.05071,0,0,1,.23535.82324l-1.02832.1875a1.23862,1.23862,0,0,0-.25-.68164.5249.5249,0,0,0-.42578-.17578.49152.49152,0,0,0-.44922.26074,1.01322,1.01322,0,0,0-.125.52344,1.56991,1.56991,0,0,0,.4209.99414,3.48536,3.48536,0,0,0,.47656.4541q.375.31347.49512.4375a3.70635,3.70635,0,0,1,.61328.78418,3.00823,3.00823,0,0,1,.165.33594A1.9639,1.9639,0,0,1,202.73828,25.47211Z"/></svg>