<svg id="Content" xmlns="http://www.w3.org/2000/svg" width="320" height="50" viewBox="0 0 320 50"><defs><style>.cls-1{fill:#ba9544;}</style></defs><title>Frame1 - Ultra Sour</title><path class="cls-1" d="M112.709,22.48486v7.00391c0,.64844.28516.88184.73926.88184s.73926-.2334.73926-.88184V22.48486h1.34863V29.398c0,1.45264-.72558,2.28271-2.12695,2.28271-1.40039,0-2.127-.83007-2.127-2.28271V22.48486Z"/><path class="cls-1" d="M117.88672,22.48486h1.42676v7.78223h2.34765V31.564h-3.77441Z"/><path class="cls-1" d="M123.24512,22.48486h4.41015v1.29737h-1.49218V31.564h-1.42676V23.78223h-1.49121Z"/><path class="cls-1" d="M132.6377,31.564a2.80258,2.80258,0,0,1-.12989-1.11523V29.022c0-.84326-.28515-1.15429-.93359-1.15429h-.49317V31.564h-1.42578v-9.0791h2.15235c1.47851,0,2.11426.6875,2.11426,2.08838v.71338a1.80984,1.80984,0,0,1-.9336,1.8418c.71289.29834.94629.98535.94629,1.93213v1.40088a2.67594,2.67594,0,0,0,.15625,1.10253Zm-1.55665-7.78173v2.78808h.5586c.53125,0,.85547-.2334.85547-.95947v-.895c0-.64844-.22071-.93359-.72657-.93359Z"/><path class="cls-1" d="M140.86328,31.564h-1.43945l-.2461-1.647h-1.751l-.24707,1.647h-1.30957l1.45215-9.0791h2.08886Zm-3.25488-2.87939h1.374l-.6875-4.59131Z"/><path class="cls-1" d="M148.208,22.38135c1.38769,0,2.10156.83008,2.10156,2.28271v.28516H148.96v-.376c0-.64844-.25879-.895-.71289-.895s-.71289.24658-.71289.895c0,1.86768,2.78809,2.21778,2.78809,4.81153,0,1.45312-.72657,2.2832-2.127,2.2832-1.40136,0-2.12695-.83008-2.12695-2.2832v-.55762H147.417v.64844c0,.64892.28516.88232.73926.88232s.73926-.2334.73926-.88232c0-1.86768-2.78809-2.21778-2.78809-4.81153C146.10742,23.21143,146.82031,22.38135,148.208,22.38135Z"/><path class="cls-1" d="M152.39941,24.66406a2.169,2.169,0,1,1,4.332,0v4.72071a2.169,2.169,0,1,1-4.332,0Zm1.42676,4.81153c0,.64892.28613.895.73926.895.4541,0,.73926-.2461.73926-.895V24.57324c0-.64844-.28516-.895-.73926-.895-.45313,0-.73926.24658-.73926.895Z"/><path class="cls-1" d="M160.39258,22.48486v7.00391c0,.64844.28515.88184.73926.88184.45312,0,.73925-.2334.73925-.88184V22.48486h1.34864V29.398c0,1.45264-.72657,2.28271-2.127,2.28271-1.40136,0-2.12695-.83007-2.12695-2.28271V22.48486Z"/><path class="cls-1" d="M168.55273,31.564a2.78342,2.78342,0,0,1-.12988-1.11523V29.022c0-.84326-.28515-1.15429-.93359-1.15429h-.49317V31.564h-1.42675v-9.0791h2.15332c1.47851,0,2.11425.6875,2.11425,2.08838v.71338a1.81037,1.81037,0,0,1-.93457,1.8418c.71387.29834.94727.98535.94727,1.93213v1.40088a2.67647,2.67647,0,0,0,.15527,1.10253Zm-1.55664-7.78173v2.78808h.55762c.53223,0,.85645-.2334.85645-.95947v-.895c0-.64844-.22071-.93359-.72657-.93359Z"/></svg>