<svg id="Layer_1" data-name="Layer 1" xmlns="http://www.w3.org/2000/svg" width="300" height="600" viewBox="0 0 300 600"><defs><style>.cls-1{fill:#fff;}</style></defs><title>rest</title><path class="cls-1" d="M95.181,330.69093H91.79665V308.24718h4.848l3.15,16.09453,3.027-16.09453h4.66406v22.44375h-3.38438V316.58976l-2.92382,14.10117H98.4611L95.181,316.62609Z"/><path class="cls-1" d="M116.81031,307.97648a5.36741,5.36741,0,0,1,5.37774,5.37656v12.24375a5.36542,5.36542,0,0,1-5.37774,5.37656,5.11737,5.11737,0,0,1-3.7828-1.575,5.208,5.208,0,0,1-1.55625-3.80156V313.353a5.36752,5.36752,0,0,1,5.33905-5.37656Zm1.84688,5.31328a1.9128,1.9128,0,0,0-1.93242-1.93008,1.89164,1.89164,0,0,0-1.37226.56016,1.84368,1.84368,0,0,0-.57188,1.36992v12.28359a1.85189,1.85189,0,0,0,.57188,1.36524,1.8867,1.8867,0,0,0,1.37226.56484,1.92057,1.92057,0,0,0,1.93242-1.93008Z"/><path class="cls-1" d="M131.51383,308.24718a5.12469,5.12469,0,0,1,4.1461,1.56211,5.64635,5.64635,0,0,1,1.16953,3.78984v3.26133a5.21925,5.21925,0,0,1-1.80586,4.02305l2.50664,9.80742H133.881l-2.06367-8.47852c-.09844.00821-.20039.0129-.307.0129h-1.94062v8.46562h-3.3832V308.24718Zm2.018,5.41406a1.71626,1.71626,0,0,0-1.92539-1.957h-2.03672v7.17422h2.03672a1.84042,1.84042,0,0,0,1.36758-.57187,1.89894,1.89894,0,0,0,.55781-1.37227Z"/><path class="cls-1" d="M141.44313,330.69093V308.24718h9.634v3.3832h-6.25078v6.15235h4.56446v3.38437h-4.56446v6.13946h6.25078v3.38437Z"/><path class="cls-1" d="M166.40524,308.24718a5.12466,5.12466,0,0,1,4.14609,1.56211,5.6463,5.6463,0,0,1,1.16953,3.78984v3.26133a5.21924,5.21924,0,0,1-1.80585,4.02305l2.50664,9.80742h-3.64922l-2.06367-8.47852c-.09846.00821-.2004.0129-.307.0129H164.4611v8.46562h-3.3832V308.24718Zm2.018,5.41406a1.71626,1.71626,0,0,0-1.92539-1.957H164.4611v7.17422h2.03672a1.84042,1.84042,0,0,0,1.36758-.57187,1.89894,1.89894,0,0,0,.55781-1.37227Z"/><path class="cls-1" d="M176.33454,330.69093V308.24718h9.634v3.3832h-6.25078v6.15235h4.56445v3.38437h-4.56445v6.13946h6.25078v3.38437Z"/><path class="cls-1" d="M200.48688,325.11632a6.29059,6.29059,0,0,1-1.21875,4.01133,4.32773,4.32773,0,0,1-2.325,1.58789,6.21945,6.21945,0,0,1-1.882.25781,5.31828,5.31828,0,0,1-3.29766-.98437,5.60817,5.60817,0,0,1-1.72265-2.1961,8.63174,8.63174,0,0,1-.73828-3.19336l3.21093-.22148a4.8729,4.8729,0,0,0,1.04532,2.83008,1.71569,1.71569,0,0,0,1.391.62812,2.10879,2.10879,0,0,0,1.77188-1.08281,2.72225,2.72225,0,0,0,.34453-1.48945,4.14813,4.14813,0,0,0-1.2668-2.79258q-1.01075-.94746-3.01523-2.843a12.46084,12.46084,0,0,1-2.37539-2.91562,6.75752,6.75752,0,0,1-.75-3.15,5.48221,5.48221,0,0,1,2.05546-4.63946,5.1081,5.1081,0,0,1,3.15-.94687,5.71375,5.71375,0,0,1,3.10079.81211,4.67539,4.67539,0,0,1,1.61132,1.75312,6.63315,6.63315,0,0,1,.75118,2.58985l-3.24844.59062a3.80808,3.80808,0,0,0-.7875-2.141,1.64351,1.64351,0,0,0-1.3418-.566,1.55761,1.55761,0,0,0-1.41445.825,3.17514,3.17514,0,0,0-.39375,1.64883,4.95549,4.95549,0,0,0,1.3289,3.13711,11.82913,11.82913,0,0,0,1.5,1.42734q1.18125.98438,1.56329,1.37813a11.91378,11.91378,0,0,1,1.93125,2.47382,9.06081,9.06081,0,0,1,.518,1.05821A6.30832,6.30832,0,0,1,200.48688,325.11632Z"/><path class="cls-1" d="M207.41383,311.63038h-3.593v-3.3832h10.55625v3.3832H210.797v19.06055h-3.38321Z"/><path class="cls-1" d="M218.71227,327.31945h3.3832v3.3832h-3.3832Z"/></svg>