<svg id="Layer_1" data-name="Layer 1" xmlns="http://www.w3.org/2000/svg" width="320" height="480" viewBox="0 0 320 480"><defs><style>.cls-1{fill:#fff;}</style></defs><title>frame3</title><path class="cls-1" d="M75.16081,297.36022H71.401v-24.9375h3.75977Z"/><path class="cls-1" d="M84.42838,272.42272l4.97657,16.748v-16.748h3.75976v24.9375H89.13737l-5.17383-15.96875v15.96875H80.20378v-24.9375Z"/><path class="cls-1" d="M101.96842,297.36022H98.20866v-24.9375h10.70508v3.75977h-6.94532v6.83594h5.07227v3.75976h-5.07227Z"/><path class="cls-1" d="M119.111,272.12194a5.96323,5.96323,0,0,1,5.97461,5.97461v13.60352a5.96325,5.96325,0,0,1-5.97461,5.97461,5.689,5.689,0,0,1-4.2041-1.75,5.7908,5.7908,0,0,1-1.72949-4.22461V278.09655a5.96335,5.96335,0,0,1,5.93359-5.97461Zm2.05078,5.9043a2.12425,2.12425,0,0,0-2.14648-2.14453,2.10053,2.10053,0,0,0-1.52442.62207,2.04663,2.04663,0,0,0-.63574,1.52246v13.64844a2.05313,2.05313,0,0,0,.63574,1.51562,2.08759,2.08759,0,0,0,1.52442.62891,2.13562,2.13562,0,0,0,2.14648-2.14453Z"/><path class="cls-1" d="M136.00749,272.42272a5.69686,5.69686,0,0,1,4.60742,1.73633,6.27122,6.27122,0,0,1,1.29883,4.21094V281.993a5.8,5.8,0,0,1-2.00586,4.4707l2.78515,10.89648h-4.05468l-2.293-9.41992c-.10938.00879-.22364.01367-.3418.01367h-2.15625v9.40625h-3.75977v-24.9375Zm2.24218,6.01563a1.90632,1.90632,0,0,0-2.13964-2.17383h-2.2627v7.9707H136.11a2.04172,2.04172,0,0,0,1.51953-.63574,2.10655,2.10655,0,0,0,.62011-1.52441Z"/><path class="cls-1" d="M151.36,297.36022h-3.75977v-24.9375H152.987l3.5,17.88282,3.36328-17.88282h5.18164v24.9375h-3.75977v-15.668l-3.249,15.668h-3.01758l-3.6455-15.627Z"/><path class="cls-1" d="M174.696,291.63171l-.916,5.72851h-3.91016l4.22461-24.9375H179.276l4.16992,24.9375h-3.9375l-.88867-5.72851Zm1.96875-13.49414-1.39453,9.83008h2.78906Z"/><path class="cls-1" d="M188.776,276.18249h-3.99219v-3.75977h11.73047v3.75977h-3.97851v21.17773H188.776Z"/><path class="cls-1" d="M204.97624,297.36022h-3.75977v-24.9375h3.75977Z"/><path class="cls-1" d="M215.91178,272.12194a5.96323,5.96323,0,0,1,5.97461,5.97461v13.60352a5.96325,5.96325,0,0,1-5.97461,5.97461,5.689,5.689,0,0,1-4.2041-1.75,5.7908,5.7908,0,0,1-1.72949-4.22461V278.09655a5.96335,5.96335,0,0,1,5.93359-5.97461Zm2.05078,5.9043a2.12425,2.12425,0,0,0-2.14648-2.14453,2.10049,2.10049,0,0,0-1.52441.62207,2.04661,2.04661,0,0,0-.63575,1.52246v13.64844a2.0531,2.0531,0,0,0,.63575,1.51562,2.08755,2.08755,0,0,0,1.52441.62891,2.13562,2.13562,0,0,0,2.14648-2.14453Z"/><path class="cls-1" d="M231.08561,272.42272l4.97656,16.748v-16.748h3.75977v24.9375H235.7946l-5.17383-15.96875v15.96875H226.861v-24.9375Z"/><path class="cls-1" d="M244.08659,293.61413h3.75976v3.75977h-3.75976Z"/></svg>