<svg id="Layer_1" data-name="Layer 1" xmlns="http://www.w3.org/2000/svg" width="300" height="600" viewBox="0 0 300 600"><defs><style>.cls-1{fill:#fff;}</style></defs><title>quality-time</title><path class="cls-1" d="M48.32575,331.001H44.942V308.55728H49.79l3.15,16.09453L55.967,308.55728h4.66347V331.001H57.24665V316.89986L54.32223,331.001H51.60641l-3.28066-14.06367Z"/><path class="cls-1" d="M69.95622,308.28658a5.36741,5.36741,0,0,1,5.37714,5.37773v12.24258a5.36741,5.36741,0,0,1-5.37714,5.37774,5.1187,5.1187,0,0,1-3.7834-1.575,5.21122,5.21122,0,0,1-1.55684-3.80274V313.66431a5.36751,5.36751,0,0,1,5.34024-5.37773Zm1.8457,5.31445a1.90989,1.90989,0,0,0-1.93184-1.93007,1.89524,1.89524,0,0,0-1.37226.559,1.84445,1.84445,0,0,0-.57188,1.37109v12.2836a1.85114,1.85114,0,0,0,.57188,1.36406,1.88319,1.88319,0,0,0,1.37226.566,1.92157,1.92157,0,0,0,1.93184-1.93008Z"/><path class="cls-1" d="M84.65915,308.55728a5.12649,5.12649,0,0,1,4.14668,1.56328,5.6462,5.6462,0,0,1,1.16894,3.78985v3.26015a5.21968,5.21968,0,0,1-1.80586,4.02422l2.50723,9.80625H87.02692l-2.06426-8.47734c-.09844.0082-.20039.01172-.307.01172H82.715V331.001H79.33122V308.55728Zm2.018,5.41407a1.71559,1.71559,0,0,0-1.926-1.95586H82.715v7.173h2.03613a1.83853,1.83853,0,0,0,1.36758-.57187,1.89707,1.89707,0,0,0,.55839-1.37227Z"/><path class="cls-1" d="M94.58844,331.001V308.55728h9.63516v3.38438H97.97282V318.094h4.56444v3.38321H97.97282v6.14062h6.25078v3.3832Z"/><path class="cls-1" d="M124.94118,325.90689a5.32134,5.32134,0,0,1-.71367,2.69532,1.59277,1.59277,0,0,0,1.27968.51679v3.15a3.67379,3.67379,0,0,1-3.46993-1.59961,4.99911,4.99911,0,0,1-2.448.61524,5.35546,5.35546,0,0,1-5.36484-5.37774V313.66431a5.3674,5.3674,0,0,1,5.36484-5.37773,5.11743,5.11743,0,0,1,3.79571,1.58789,5.22617,5.22617,0,0,1,1.55625,3.78984ZM121.43376,313.601a1.84009,1.84009,0,0,0-.57188-1.37109,1.90666,1.90666,0,0,0-1.384-.559,1.8698,1.8698,0,0,0-1.36524.559,1.8491,1.8491,0,0,0-.56719,1.37109v12.2836a1.93452,1.93452,0,0,0,1.93243,1.93008,1.89444,1.89444,0,0,0,1.384-.566,1.8467,1.8467,0,0,0,.57188-1.36406Z"/><path class="cls-1" d="M134.19313,331.28463a5.31548,5.31548,0,0,1-5.33906-5.32852V308.55728h3.30937v17.3625a1.85189,1.85189,0,0,0,.57188,1.36524,1.88318,1.88318,0,0,0,1.37226.566,1.92256,1.92256,0,0,0,1.93243-1.93125v-17.3625h3.53085v17.39883a5.08877,5.08877,0,0,1-1.575,3.78985A5.24593,5.24593,0,0,1,134.19313,331.28463Z"/><path class="cls-1" d="M147.24782,325.846l-.825,5.15507h-3.518l3.80156-22.44375h4.66406l3.75235,22.44375h-3.54375l-.79922-5.15507Zm1.77187-12.14532-1.25508,8.84766h2.51016Z"/><path class="cls-1" d="M168.21266,331.001h-9.22734V308.55728h3.3832v19.08516h5.84414Z"/><path class="cls-1" d="M174.92047,331.001h-3.38321V308.55728h3.38321Z"/><path class="cls-1" d="M182.24118,311.94166h-3.593v-3.38438h10.55625v3.38438h-3.58008V331.001h-3.3832Z"/><path class="cls-1" d="M197.0654,321.60025l-4.52814-13.043h3.71485l2.51719,8.06016,2.49141-8.06016h3.74062l-4.55273,13.043V331.001h-3.3832Z"/><path class="cls-1" d="M215.75211,311.94166h-3.593v-3.38438H222.7154v3.38438h-3.58008V331.001h-3.38321Z"/><path class="cls-1" d="M229.82751,331.001H226.4443V308.55728h3.38321Z"/><path class="cls-1" d="M237.24665,331.001h-3.38321V308.55728h4.84688l3.15,16.09453,3.02812-16.09453h4.66289V331.001h-3.3832V316.89986l-2.925,14.10117H240.5279l-3.28125-14.06367Z"/><path class="cls-1" d="M253.599,331.001V308.55728h9.634v3.38438h-6.25078V318.094h4.56446v3.38321h-4.56446v6.14062H263.233v3.3832Z"/><path class="cls-1" d="M266.567,327.62955h3.3832v3.38437H266.567Z"/></svg>