<svg id="Layer_1" data-name="Layer 1" xmlns="http://www.w3.org/2000/svg" width="300" height="250" viewBox="0 0 300 250"><defs><style>.cls-1{fill:#ab9555;}</style></defs><title>frame1_1</title><path class="cls-1" d="M100.00195,161.96271V145.04084h7.26026v2.56445h-4.70948v4.61524h3.44092V154.784h-3.44092v4.61524h4.70948v2.56347Z"/><path class="cls-1" d="M118.55176,157.91486a3.92,3.92,0,0,1-1.17383,2.86035,3.83811,3.83811,0,0,1-2.834,1.1875h-4.00782V145.04084H114.544a3.836,3.836,0,0,1,2.84082,1.1875,3.92022,3.92022,0,0,1,1.167,2.84766Zm-5.46485,1.52442H114.625a1.36154,1.36154,0,0,0,1.02588-.43848,1.4467,1.4467,0,0,0,.418-1.03223V149.116a1.42952,1.42952,0,0,0-.42481-1.03906,1.38248,1.38248,0,0,0-1.019-.43164h-1.53809Z"/><path class="cls-1" d="M126.333,162.15217a4.00873,4.00873,0,0,1-4.03516-4.02149V145.05451h2.49658v13.04883a1.3942,1.3942,0,0,0,.43164,1.03223,1.42579,1.42579,0,0,0,1.03907.42578,1.45209,1.45209,0,0,0,1.45752-1.458V145.05451h2.65869v13.07617a3.84128,3.84128,0,0,1-1.1875,2.86035A3.944,3.944,0,0,1,126.333,162.15217Z"/><path class="cls-1" d="M138.17578,162.17853a4.03192,4.03192,0,0,1-4.04834-4.03417v-9.23047a4.04177,4.04177,0,1,1,8.0835,0v1.92968h-2.645v-1.98339a1.47456,1.47456,0,0,0-1.47119-1.47071,1.39387,1.39387,0,0,0-1.03223.43164,1.428,1.428,0,0,0-.4248,1.03907V158.117a1.45041,1.45041,0,0,0,1.457,1.457,1.42717,1.42717,0,0,0,1.03906-.4248,1.39277,1.39277,0,0,0,.43213-1.03223v-2.334h2.645v2.36133a4.031,4.031,0,0,1-4.03516,4.03417Z"/><path class="cls-1" d="M148.46387,158.077l-.61914,3.88574H145.188l2.87549-16.9082h3.50781l2.834,16.9082h-2.68164L151.126,158.077Zm1.33984-9.14941-.94531,6.666h1.88867Z"/><path class="cls-1" d="M158.39453,147.619h-2.71289v-2.56445h7.96191V147.619h-2.69921v14.34375h-2.54981Z"/><path class="cls-1" d="M169.76562,161.96271h-2.55078v-16.9082h2.55078Z"/><path class="cls-1" d="M177.57422,144.83869a4.04271,4.04271,0,0,1,4.04785,4.04785V158.117a4.04153,4.04153,0,1,1-8.083,0v-9.23047a4.04273,4.04273,0,0,1,4.03516-4.04785Zm1.38965,3.99414a1.45044,1.45044,0,0,0-1.457-1.457,1.42635,1.42635,0,0,0-1.03907.42481,1.39385,1.39385,0,0,0-.43164,1.03222v9.25684a1.396,1.396,0,0,0,.43164,1.0332,1.42639,1.42639,0,0,0,1.03907.42481,1.45045,1.45045,0,0,0,1.457-1.458Z"/><path class="cls-1" d="M188.24512,145.04084l3.38476,11.37305V145.04084h2.55078v16.92187h-2.73925l-3.50879-10.83593v10.83593h-2.55078V145.04084Z"/><path class="cls-1" d="M197.4541,159.42561h2.55078v2.55078H197.4541Z"/></svg>