<svg id="Layer_1" data-name="Layer 1" xmlns="http://www.w3.org/2000/svg" width="196.0229" height="20.9912" viewBox="0 0 196.0229 20.9912"><defs><style>.cls-1{fill:#ac9655;}</style></defs><title>frame3</title><path class="cls-1" d="M4.8848,20.958a4.712,4.712,0,0,1-3.4629-1.4209A4.6915,4.6915,0,0,1,0,16.09V.2617H3.0225V16.0576a1.6887,1.6887,0,0,0,.5224,1.25,1.73,1.73,0,0,0,1.2578.5147,1.7573,1.7573,0,0,0,1.7647-1.7647V.2617H9.7852V16.09a4.6529,4.6529,0,0,1-1.4375,3.4639A4.7776,4.7776,0,0,1,4.8848,20.958Z"/><path class="cls-1" d="M20.1348.2451l4.0966,13.7666V.2451h3.087V20.73H24.0029L19.7559,7.6123V20.73H16.668V.2451Z"/><path class="cls-1" d="M39.0713,20.9912a4.8814,4.8814,0,0,1-4.9-4.8848V4.9336a4.715,4.715,0,0,1,1.4375-3.4717A4.7367,4.7367,0,0,1,39.0713.0332a4.6862,4.6862,0,0,1,3.4639,1.4375,4.7471,4.7471,0,0,1,1.4209,3.4629V7.27H40.7539V4.8682a1.7839,1.7839,0,0,0-1.78-1.78,1.6887,1.6887,0,0,0-1.25.5225A1.7287,1.7287,0,0,0,37.21,4.8682v11.206a1.7555,1.7555,0,0,0,1.7636,1.7637,1.7254,1.7254,0,0,0,1.2578-.5147,1.6846,1.6846,0,0,0,.5225-1.249V13.248h3.2022v2.8584a4.8813,4.8813,0,0,1-4.8848,4.8848Z"/><path class="cls-1" d="M55.4629,0a4.7128,4.7128,0,0,1,3.4707,1.4375A4.7353,4.7353,0,0,1,60.3633,4.9V16.0742a4.8926,4.8926,0,1,1-9.7852,0V4.9A4.7128,4.7128,0,0,1,52.0156,1.43,4.7144,4.7144,0,0,1,55.4629,0Zm1.6826,4.835a1.757,1.757,0,0,0-1.7646-1.7637,1.7261,1.7261,0,0,0-1.2579.5146,1.6869,1.6869,0,0,0-.5224,1.2491V16.041a1.6874,1.6874,0,0,0,.5224,1.25,1.73,1.73,0,0,0,1.2579.5147,1.7572,1.7572,0,0,0,1.7646-1.7647Z"/><path class="cls-1" d="M70.2852,20.73,66.627.2617h3.2353l2.5693,15.9541L75.02.2617h3.2373L74.5322,20.73Z"/><path class="cls-1" d="M84.9785,20.73V.2451h8.7891V3.3486H88.0664V8.9355h4.165v3.1036h-4.165V17.626h5.7012V20.73Z"/><path class="cls-1" d="M104.8979.2617a4.71,4.71,0,0,1,3.79,1.4209A5.17,5.17,0,0,1,109.75,5.1455V8.1191A4.7822,4.7822,0,0,1,108.1,11.7939l2.2861,8.9356h-3.3388l-1.8721-7.71h-2.0576v7.71H100.03V.2617Zm1.8458,4.9326a1.5664,1.5664,0,0,0-1.7637-1.78h-1.8623V9.9648H104.98a1.6877,1.6877,0,0,0,1.249-.5234,1.7239,1.7239,0,0,0,.5147-1.2578Z"/><path class="cls-1" d="M126.0005,20.73h-3.0879V.2451h4.4307L130.22,14.96,132.9829.2451h4.2559V20.73h-3.0869V7.8574L131.4731,20.73H128.99L126.0005,7.89Z"/><path class="cls-1" d="M148.9741,0a4.7128,4.7128,0,0,1,3.4707,1.4375,4.7353,4.7353,0,0,1,1.43,3.4629V16.0742a4.8926,4.8926,0,1,1-9.7851,0V4.9A4.7124,4.7124,0,0,1,145.5269,1.43,4.7144,4.7144,0,0,1,148.9741,0Zm1.6826,4.835a1.757,1.757,0,0,0-1.7646-1.7637,1.7258,1.7258,0,0,0-1.2578.5146,1.6866,1.6866,0,0,0-.5225,1.2491V16.041a1.6872,1.6872,0,0,0,.5225,1.25,1.73,1.73,0,0,0,1.2578.5147,1.7572,1.7572,0,0,0,1.7646-1.7647Z"/><path class="cls-1" d="M165.61.2617a4.7094,4.7094,0,0,1,3.79,1.4209,5.17,5.17,0,0,1,1.0615,3.4629V8.1191a4.7822,4.7822,0,0,1-1.6494,3.6748l2.2861,8.9356h-3.3388l-1.8721-7.71H163.83v7.71h-3.0879V.2617Zm1.8457,4.9326a1.5664,1.5664,0,0,0-1.7637-1.78H163.83V9.9648h1.8623a1.6876,1.6876,0,0,0,1.249-.5234,1.7239,1.7239,0,0,0,.5147-1.2578Z"/><path class="cls-1" d="M177.8833,20.73V.2451h8.7891V3.3486h-5.7012V8.9355h4.165v3.1036h-4.165V17.626h5.7012V20.73Z"/><path class="cls-1" d="M192.9351,17.6582h3.0878v3.0879h-3.0878Z"/></svg>