<svg id="Layer_1" data-name="Layer 1" xmlns="http://www.w3.org/2000/svg" width="177.7813" height="20.9912" viewBox="0 0 177.7813 20.9912"><defs><style>.cls-1{fill:#ac9655;}</style></defs><title>frame4</title><path class="cls-1" d="M3.4668.2451,7.5645,14.0117V.2451H10.65V20.73H7.3359L3.0879,7.6123V20.73H0V.2451Z"/><path class="cls-1" d="M21.3359,16.0254l-.75,4.7041H17.3711L20.8516.2617h4.2461L28.5293,20.73H25.2832l-.7227-4.7041ZM22.959,4.9492l-1.1445,8.07h2.2871Z"/><path class="cls-1" d="M38.3535,20.73H35.2656V.2451h4.4317L42.5742,14.96,45.3359.2451h4.2559V20.73H46.5059V7.8574L43.8262,20.73H41.3438l-2.99-12.84Z"/><path class="cls-1" d="M60.2773,16.0254l-.75,4.7041H56.3125L59.791.2617h4.2481l3.43,20.4678H64.2227L63.5,16.0254ZM61.8984,4.9492l-1.1425,8.07H63.043Z"/><path class="cls-1" d="M83.4844,15.6328A5.75,5.75,0,0,1,82.373,19.292a3.99,3.99,0,0,1-2.123,1.4541,5.7889,5.7889,0,0,1-1.7148.2285,4.8571,4.8571,0,0,1-3.0059-.8984,5.031,5.031,0,0,1-1.5762-2.001,8.0515,8.0515,0,0,1-.6777-2.8994l2.9394-.2129a4.4776,4.4776,0,0,0,.9473,2.5947,1.5785,1.5785,0,0,0,1.2754.5742,1.9166,1.9166,0,0,0,1.6172-.997,2.4768,2.4768,0,0,0,.3105-1.3565,3.7694,3.7694,0,0,0-1.16-2.5351q-.9141-.8658-2.7442-2.6a11.7478,11.7478,0,0,1-2.1738-2.6651,6.1651,6.1651,0,0,1-.6855-2.8769A5.0078,5.0078,0,0,1,75.4805.8662,4.6741,4.6741,0,0,1,78.3555,0a5.2269,5.2269,0,0,1,2.8261.7354A4.2614,4.2614,0,0,1,82.66,2.3359a5.9378,5.9378,0,0,1,.6777,2.3692l-2.957.539a3.5688,3.5688,0,0,0-.7188-1.9609,1.51,1.51,0,0,0-1.2246-.5059,1.4122,1.4122,0,0,0-1.291.751,2.8922,2.8922,0,0,0-.3594,1.5029A4.5044,4.5044,0,0,0,77.9961,7.89a10.0761,10.0761,0,0,0,1.373,1.3077q1.0782.8979,1.42,1.2578a10.4876,10.4876,0,0,1,1.7636,2.2539,8.3382,8.3382,0,0,1,.4746.9639A5.5634,5.5634,0,0,1,83.4844,15.6328Z"/><path class="cls-1" d="M93.0312,3.3652H89.748V.2617h9.6387V3.3652H96.1191V20.73H93.0312Z"/><path class="cls-1" d="M106.0078,20.73V.2451h8.7891V3.3486h-5.7012V8.9355h4.166v3.1036h-4.166V17.626h5.7012V20.73Z"/><path class="cls-1" d="M121.0605,17.6582h3.0879v3.0879h-3.0879Z"/><path class="cls-1" d="M135.3125,20.9912a4.8814,4.8814,0,0,1-4.9-4.8848V4.9336A4.7112,4.7112,0,0,1,131.85,1.4619,4.7351,4.7351,0,0,1,135.3125.0332a4.6824,4.6824,0,0,1,3.4629,1.4375,4.7476,4.7476,0,0,1,1.4219,3.4629V7.27h-3.2032V4.8682a1.7821,1.7821,0,0,0-1.7793-1.78,1.6887,1.6887,0,0,0-1.25.5225,1.7247,1.7247,0,0,0-.5136,1.2578v11.206a1.7555,1.7555,0,0,0,1.7636,1.7637,1.7274,1.7274,0,0,0,1.2579-.5147,1.6878,1.6878,0,0,0,.5214-1.249V13.248h3.2032v2.8584a4.8813,4.8813,0,0,1-4.8848,4.8848Z"/><path class="cls-1" d="M151.7031,0a4.7126,4.7126,0,0,1,3.4707,1.4375,4.7349,4.7349,0,0,1,1.43,3.4629V16.0742a4.8926,4.8926,0,1,1-9.7851,0V4.9A4.7162,4.7162,0,0,1,148.2559,1.43,4.7158,4.7158,0,0,1,151.7031,0Zm1.6836,4.835a1.7587,1.7587,0,0,0-1.7656-1.7637,1.7274,1.7274,0,0,0-1.2578.5146,1.6894,1.6894,0,0,0-.5215,1.2491V16.041a1.69,1.69,0,0,0,.5215,1.25,1.7311,1.7311,0,0,0,1.2578.5147,1.7589,1.7589,0,0,0,1.7656-1.7647Z"/><path class="cls-1" d="M166.543,20.73h-3.0879V.2451h4.4316l2.877,14.7149L173.5254.2451h4.2558V20.73h-3.0859V7.8574l-2.68,12.8721h-2.4824l-2.99-12.84Z"/></svg>