<svg id="Layer_1" data-name="Layer 1" xmlns="http://www.w3.org/2000/svg" width="970" height="250" viewBox="0 0 970 250"><defs><style>.cls-1{fill:#231f20;}.cls-2{fill:#d3b372;}</style></defs><title>frame1</title><rect class="cls-1" y="-2.8952" width="970" height="252.8952"/><path class="cls-2" d="M239.0166,131.9258a4.8805,4.8805,0,0,1-4.9-4.8848V115.8687a4.8924,4.8924,0,1,1,9.7847,0v2.3359h-3.2017v-2.4014a1.7846,1.7846,0,0,0-1.7807-1.78,1.6873,1.6873,0,0,0-1.25.5225,1.7278,1.7278,0,0,0-.5146,1.2578v11.2056a1.7572,1.7572,0,0,0,1.7642,1.7637,1.7257,1.7257,0,0,0,1.2578-.5147,1.6857,1.6857,0,0,0,.5229-1.249v-2.8257h3.2017v2.8579a4.8813,4.8813,0,0,1-4.8843,4.8848Z"/><path class="cls-2" d="M253.77,126.96l-.7505,4.7041h-3.2143l3.4795-20.4673h4.247l3.43,20.4673h-3.2461l-.7221-4.7041Zm1.6216-11.0757-1.1436,8.07h2.2872Z"/><path class="cls-2" d="M271.1646,111.18l4.0971,13.7666V111.18h3.0874v20.4839h-3.3159l-4.2476-13.1167v13.1167h-3.0869V111.18Z"/><path class="cls-2" d="M288.7153,111.18l4.0972,13.7666V111.18H295.9v20.4839H292.584l-4.2476-13.1167v13.1167H285.25V111.18Z"/><path class="cls-2" d="M306.5859,126.96l-.75,4.7041h-3.2143l3.4795-20.4673h4.2471l3.43,20.4673h-3.2461l-.7221-4.7041Zm1.6216-11.0757-1.1435,8.07h2.2871Z"/><path class="cls-2" d="M319.6045,131.6641V111.18h4.6226a5.8872,5.8872,0,0,1,3.3.9638,4.4878,4.4878,0,0,1,1.7968,2.5323,7.1349,7.1349,0,0,1,.294,2.1718,4.8083,4.8083,0,0,1-1.0943,3.3,3.1085,3.1085,0,0,1-1.0781.8008,3.5868,3.5868,0,0,1,1.7476,1.5518,6.0394,6.0394,0,0,1,.7026,2.0254,8.0811,8.0811,0,0,1,.1143,1.4209,6.84,6.84,0,0,1-.7349,3.2993,4.4076,4.4076,0,0,1-1.6172,1.6992,4.4524,4.4524,0,0,1-2.3359.7188Zm3.332-12.1206h1.2906a1.8913,1.8913,0,0,0,1.9277-1.4043,4.0137,4.0137,0,0,0,.18-1.2911,2.6991,2.6991,0,0,0-.6206-1.9267,1.953,1.953,0,0,0-1.4868-.6045h-1.2906Zm0,9.0659h1.2906a2.1913,2.1913,0,0,0,2.1728-1.6172,3.56,3.56,0,0,0,.2124-1.2739,3.88,3.88,0,0,0-.6538-2.4991,2.1058,2.1058,0,0,0-1.7314-.7187h-1.2906Z"/><path class="cls-2" d="M338.9922,131.6641h-3.0869V111.1968h3.0869Z"/><path class="cls-2" d="M355.0054,126.5674a5.7593,5.7593,0,0,1-1.1109,3.6592,4,4,0,0,1-2.1235,1.4541,5.7971,5.7971,0,0,1-1.7153.2285,4.8565,4.8565,0,0,1-3.0059-.8985,5.0265,5.0265,0,0,1-1.5762-2.0009,8.0619,8.0619,0,0,1-.6777-2.8994l2.94-.2125a4.47,4.47,0,0,0,.9478,2.5943,1.5756,1.5756,0,0,0,1.2739.5742,1.9129,1.9129,0,0,0,1.6172-.9971,2.4764,2.4764,0,0,0,.3106-1.3564,3.7713,3.7713,0,0,0-1.16-2.5347q-.9156-.8657-2.7446-2.6a11.7056,11.7056,0,0,1-2.1724-2.665,6.16,6.16,0,0,1-.686-2.877,5.006,5.006,0,0,1,1.8784-4.2353,4.67,4.67,0,0,1,2.875-.8662,5.2254,5.2254,0,0,1,2.8261.7353,4.2486,4.2486,0,0,1,1.4781,1.6006,5.93,5.93,0,0,1,.6782,2.3691l-2.957.5391a3.5682,3.5682,0,0,0-.7188-1.9609,1.51,1.51,0,0,0-1.2251-.5059,1.41,1.41,0,0,0-1.2905.751,2.8971,2.8971,0,0,0-.3594,1.5029,4.5068,4.5068,0,0,0,1.209,2.8584,10.1447,10.1447,0,0,0,1.3721,1.3076q1.0781.898,1.4214,1.2578a10.4936,10.4936,0,0,1,1.7641,2.2539,8.7817,8.7817,0,0,1,.4737.9639A5.6231,5.6231,0,0,1,355.0054,126.5674Z"/><path class="cls-2" d="M376.8823,122.9907v8.6734h-3.0879V111.1968h3.0879v8.69h3.7246v-8.69h3.0869v20.4673h-3.0869v-8.6734Z"/><path class="cls-2" d="M394.3794,126.96l-.75,4.7041h-3.2148l3.4794-20.4673h4.2471l3.4307,20.4673h-3.2461l-.7227-4.7041Zm1.6221-11.0757-1.1436,8.07h2.2871Z"/><path class="cls-2" d="M417.5874,126.5674a5.7566,5.7566,0,0,1-1.1113,3.6592,3.997,3.997,0,0,1-2.1231,1.4541,5.7959,5.7959,0,0,1-1.7158.2285,4.8555,4.8555,0,0,1-3.0049-.8985,5.024,5.024,0,0,1-1.5771-2.0009,8.0744,8.0744,0,0,1-.6778-2.8994l2.94-.2125a4.4705,4.4705,0,0,0,.9472,2.5943,1.5769,1.5769,0,0,0,1.2745.5742,1.914,1.914,0,0,0,1.6171-.9971,2.4755,2.4755,0,0,0,.3106-1.3564,3.7694,3.7694,0,0,0-1.16-2.5347q-.9139-.8657-2.7441-2.6a11.7125,11.7125,0,0,1-2.1729-2.665,6.1652,6.1652,0,0,1-.6855-2.877,5.0072,5.0072,0,0,1,1.8779-4.2353,4.6736,4.6736,0,0,1,2.875-.8662,5.2236,5.2236,0,0,1,2.8262.7353,4.2464,4.2464,0,0,1,1.4785,1.6006,5.92,5.92,0,0,1,.6777,2.3691l-2.956.5391a3.5759,3.5759,0,0,0-.7188-1.9609,1.5119,1.5119,0,0,0-1.2255-.5059,1.41,1.41,0,0,0-1.29.751,2.8932,2.8932,0,0,0-.3594,1.5029,4.5084,4.5084,0,0,0,1.208,2.8584,10.1928,10.1928,0,0,0,1.3731,1.3076q1.0781.898,1.4209,1.2578a10.4939,10.4939,0,0,1,1.7637,2.2539,8.5,8.5,0,0,1,.4736.9639A5.5891,5.5891,0,0,1,417.5874,126.5674Z"/><path class="cls-2" d="M436.3765,131.6641V111.18H441a5.8884,5.8884,0,0,1,3.3.9638,4.4856,4.4856,0,0,1,1.7969,2.5323,7.12,7.12,0,0,1,.2939,2.1718,4.8085,4.8085,0,0,1-1.0947,3.3,3.1011,3.1011,0,0,1-1.0781.8008,3.5876,3.5876,0,0,1,1.748,1.5518,6.04,6.04,0,0,1,.7022,2.0254,8.0764,8.0764,0,0,1,.1152,1.4209,6.8343,6.8343,0,0,1-.7353,3.2993,4.7327,4.7327,0,0,1-3.9532,2.418Zm3.333-12.1206H441a1.8916,1.8916,0,0,0,1.9277-1.4043,4.0249,4.0249,0,0,0,.18-1.2911,2.6965,2.6965,0,0,0-.6211-1.9267A1.9516,1.9516,0,0,0,441,114.3169h-1.29Zm0,9.0659H441a2.191,2.191,0,0,0,2.1729-1.6172,3.55,3.55,0,0,0,.2119-1.2739,3.88,3.88,0,0,0-.6533-2.4991A2.1046,2.1046,0,0,0,441,122.5005h-1.29Z"/><path class="cls-2" d="M452.6548,131.6641V111.18h8.789v3.1035h-5.7011v5.5869h4.165v3.1035h-4.165V128.56h5.7011v3.1036Z"/><path class="cls-2" d="M467.2466,131.6641V111.18h8.789v3.1035h-5.7011v5.5869H474.5v3.1035h-4.165V128.56h5.7011v3.1036Z"/><path class="cls-2" d="M485.7661,111.18l4.0962,13.7666V111.18h3.0869v20.4839h-3.3154l-4.2466-13.1167v13.1167h-3.0879V111.18Z"/><path class="cls-2" d="M516.624,131.8926a4.853,4.853,0,0,1-4.8847-4.8682V111.1968h3.0224v15.7954a1.6887,1.6887,0,0,0,.5225,1.25,1.7294,1.7294,0,0,0,1.2578.5146,1.757,1.757,0,0,0,1.7646-1.7646V111.1968h3.2178v15.8276a4.6529,4.6529,0,0,1-1.4375,3.4639A4.7776,4.7776,0,0,1,516.624,131.8926Z"/><path class="cls-2" d="M537.0537,126.5674a5.7566,5.7566,0,0,1-1.1113,3.6592,3.997,3.997,0,0,1-2.1231,1.4541,5.7959,5.7959,0,0,1-1.7158.2285,4.8557,4.8557,0,0,1-3.0049-.8985,5.024,5.024,0,0,1-1.5771-2.0009,8.0723,8.0723,0,0,1-.6777-2.8994l2.94-.2125a4.4705,4.4705,0,0,0,.9472,2.5943,1.5769,1.5769,0,0,0,1.2745.5742,1.914,1.914,0,0,0,1.6171-.9971,2.4755,2.4755,0,0,0,.3106-1.3564,3.7694,3.7694,0,0,0-1.16-2.5347q-.914-.8657-2.7441-2.6a11.7125,11.7125,0,0,1-2.1729-2.665,6.1652,6.1652,0,0,1-.6855-2.877,5.0072,5.0072,0,0,1,1.8779-4.2353,4.6736,4.6736,0,0,1,2.875-.8662,5.2236,5.2236,0,0,1,2.8262.7353,4.2456,4.2456,0,0,1,1.4785,1.6006,5.92,5.92,0,0,1,.6777,2.3691l-2.956.5391a3.5759,3.5759,0,0,0-.7188-1.9609,1.5119,1.5119,0,0,0-1.2255-.5059,1.41,1.41,0,0,0-1.29.751,2.8932,2.8932,0,0,0-.3594,1.5029,4.508,4.508,0,0,0,1.2081,2.8584,10.1849,10.1849,0,0,0,1.373,1.3076q1.0781.898,1.4209,1.2578a10.4939,10.4939,0,0,1,1.7637,2.2539,8.5,8.5,0,0,1,.4736.9639A5.5891,5.5891,0,0,1,537.0537,126.5674Z"/><path class="cls-2" d="M542.374,131.6641V111.18h8.7891v3.1035h-5.7012v5.5869h4.1651v3.1035h-4.1651V128.56h5.7012v3.1036Z"/><path class="cls-2" d="M566.21,126.7637a4.7471,4.7471,0,0,1-1.4209,3.4629,4.6491,4.6491,0,0,1-3.4307,1.4375h-4.8516V111.18h4.8516a4.64,4.64,0,0,1,3.4385,1.4375,4.74,4.74,0,0,1,1.4131,3.4463Zm-6.6153,1.8457h1.8623a1.6484,1.6484,0,0,0,1.2412-.5313,1.75,1.75,0,0,0,.5059-1.249V116.1138a1.7284,1.7284,0,0,0-.5137-1.2578,1.6716,1.6716,0,0,0-1.2334-.5235h-1.8623Z"/><path class="cls-2" d="M588.9453,126.5674a5.7566,5.7566,0,0,1-1.1113,3.6592,3.997,3.997,0,0,1-2.1231,1.4541,5.7959,5.7959,0,0,1-1.7158.2285,4.8557,4.8557,0,0,1-3.0049-.8985,5.024,5.024,0,0,1-1.5771-2.0009,8.0723,8.0723,0,0,1-.6777-2.8994l2.94-.2125a4.4705,4.4705,0,0,0,.9472,2.5943,1.5769,1.5769,0,0,0,1.2745.5742,1.914,1.914,0,0,0,1.6171-.9971,2.4755,2.4755,0,0,0,.3106-1.3564,3.7694,3.7694,0,0,0-1.16-2.5347q-.9139-.8657-2.7441-2.6a11.7153,11.7153,0,0,1-2.1729-2.665,6.1652,6.1652,0,0,1-.6855-2.877,5.0072,5.0072,0,0,1,1.8779-4.2353,4.6738,4.6738,0,0,1,2.875-.8662,5.2236,5.2236,0,0,1,2.8262.7353,4.2456,4.2456,0,0,1,1.4785,1.6006,5.9213,5.9213,0,0,1,.6778,2.3691l-2.9561.5391a3.5759,3.5759,0,0,0-.7188-1.9609,1.5119,1.5119,0,0,0-1.2255-.5059,1.41,1.41,0,0,0-1.29.751,2.8932,2.8932,0,0,0-.3594,1.5029,4.508,4.508,0,0,0,1.2081,2.8584,10.191,10.191,0,0,0,1.373,1.3076q1.0782.898,1.4209,1.2578a10.4939,10.4939,0,0,1,1.7637,2.2539,8.5,8.5,0,0,1,.4736.9639A5.5891,5.5891,0,0,1,588.9453,126.5674Z"/><path class="cls-2" d="M600.5176,111.1968a4.7046,4.7046,0,0,1,3.5937,1.4209,4.9321,4.9321,0,0,1,1.2412,3.4629v2.9736a4.7608,4.7608,0,0,1-1.413,3.4629,4.6205,4.6205,0,0,1-3.4219,1.4375h-1.78v7.7095h-3.0879V111.1968Zm1.8457,4.9326a1.7593,1.7593,0,0,0-.4815-1.29,1.7159,1.7159,0,0,0-1.2822-.49h-1.8623V120.9H600.6a1.6874,1.6874,0,0,0,1.249-.5234,1.7241,1.7241,0,0,0,.5147-1.2578Z"/><path class="cls-2" d="M615.0459,131.6641H611.958V111.1968h3.0879Z"/><path class="cls-2" d="M626.8145,111.1968a4.7091,4.7091,0,0,1,3.79,1.4209,5.17,5.17,0,0,1,1.0615,3.4629v2.9736a4.7824,4.7824,0,0,1-1.6494,3.6748l2.2861,8.9351h-3.3388l-1.8721-7.7095h-2.0576v7.7095h-3.0879V111.1968Zm1.8457,4.9326a1.5664,1.5664,0,0,0-1.7637-1.78h-1.8623V120.9h1.8623a1.6877,1.6877,0,0,0,1.249-.5234,1.7241,1.7241,0,0,0,.5147-1.2578Z"/><path class="cls-2" d="M642.1768,131.6641h-3.0879V111.1968h3.0879Z"/><path class="cls-2" d="M652.082,114.3h-3.2832v-3.1035h9.6377V114.3H655.17v17.3638H652.082Z"/><path class="cls-2" d="M669.9268,131.8926a4.8532,4.8532,0,0,1-4.8848-4.8682V111.1968h3.0225v15.7954a1.689,1.689,0,0,0,.5224,1.25,1.7294,1.7294,0,0,0,1.2578.5146,1.7572,1.7572,0,0,0,1.7647-1.7646V111.1968h3.2177v15.8276a4.6525,4.6525,0,0,1-1.4375,3.4639A4.7772,4.7772,0,0,1,669.9268,131.8926Z"/><path class="cls-2" d="M685.0557,126.96l-.75,4.7041h-3.2149l3.48-20.4673h4.2471l3.4306,20.4673h-3.246l-.7227-4.7041Zm1.622-11.0757-1.1435,8.07h2.2871Z"/><path class="cls-2" d="M707.3975,131.6641h-8.4131V111.1968h3.0879v17.396h5.3252Z"/><path class="cls-2" d="M722.0732,131.6641H713.66V111.1968h3.0878v17.396h5.3252Z"/><path class="cls-2" d="M728.6475,123.0884,724.5146,111.18h3.3985l2.2861,7.3506,2.27-7.3506h3.4141l-4.1484,11.9082v8.5757h-3.0879Z"/></svg>