<?xml version="1.0" encoding="utf-8"?>
<!-- Generator: Adobe Illustrator 22.1.0, SVG Export Plug-In . SVG Version: 6.00 Build 0)  -->
<svg version="1.1" id="Layer_1" xmlns="http://www.w3.org/2000/svg" xmlns:xlink="http://www.w3.org/1999/xlink" x="0px" y="0px"
	 viewBox="0 0 271.2 21" style="enable-background:new 0 0 271.2 21;" xml:space="preserve">
<style type="text/css">
	.st0{fill:#D3B372;}
</style>
<title>frame2</title>
<path class="st0" d="M10.2,15.6c0.1,1.3-0.3,2.6-1.1,3.7C8.6,20,7.8,20.5,7,20.7C6.4,20.9,5.8,21,5.3,21c-1.1,0-2.1-0.3-3-0.9
	c-0.7-0.5-1.2-1.2-1.6-2C0.3,17.2,0,16.2,0,15.2L2.9,15c0,0.9,0.4,1.9,0.9,2.6c0.3,0.4,0.8,0.6,1.3,0.6c0.7,0,1.3-0.4,1.6-1
	c0.2-0.4,0.3-0.9,0.3-1.4c0-1-0.5-1.9-1.2-2.5c-0.6-0.6-1.5-1.4-2.7-2.6C2.3,9.9,1.6,9,1,8C0.6,7.1,0.3,6.1,0.3,5.1
	C0.2,3.5,0.9,1.9,2.2,0.9C3,0.3,4.1,0,5.1,0c1,0,2,0.2,2.8,0.7C8.5,1.1,9,1.7,9.4,2.3c0.4,0.7,0.6,1.5,0.7,2.4l-3,0.5
	c0-0.7-0.3-1.4-0.7-2C6.1,2.9,5.6,2.7,5.2,2.8c-0.5,0-1,0.3-1.3,0.8C3.6,4,3.5,4.5,3.5,5C3.6,6.1,4,7.1,4.7,7.9
	c0.4,0.5,0.9,0.9,1.4,1.3c0.7,0.6,1.2,1,1.4,1.3c0.7,0.7,1.3,1.4,1.8,2.3c0.2,0.3,0.3,0.6,0.5,1C10,14.3,10.2,15,10.2,15.6z"/>
<path class="st0" d="M20,20.7h-3.1V0.3H20V20.7z"/>
<path class="st0" d="M30.4,0.2L34.5,14V0.2h3.1v20.5h-3.3L30,7.6v13.1h-3.1V0.2H30.4z"/>
<path class="st0" d="M49.3,21c-2.7,0-4.9-2.2-4.9-4.9c0,0,0,0,0,0V4.9c0-1.3,0.5-2.6,1.4-3.5C46.8,0.5,48,0,49.3,0
	c1.3,0,2.6,0.5,3.5,1.4c0.9,0.9,1.4,2.2,1.4,3.5v2.3H51V4.9c0-1-0.8-1.8-1.8-1.8c-0.5,0-0.9,0.2-1.2,0.5c-0.3,0.3-0.5,0.8-0.5,1.3
	v11.2c0,1,0.8,1.8,1.7,1.8c0,0,0,0,0,0c0.5,0,0.9-0.2,1.3-0.5c0.3-0.3,0.5-0.8,0.5-1.2v-2.8h3.2v2.9C54.2,18.8,52,21,49.3,21
	C49.3,21,49.3,21,49.3,21L49.3,21z"/>
<path class="st0" d="M60.9,20.7V0.2h8.8v3.1h-5.7v5.6h4.2V12h-4.2v5.6h5.7v3.1H60.9z"/>
<path class="st0" d="M86.1,16l-0.8,4.7h-3.2l3.5-20.5h4.2l3.4,20.5h-3.2L89.4,16L86.1,16z M87.8,4.9L86.6,13h2.3L87.8,4.9z"/>
<path class="st0" d="M103.5,0.2l4.1,13.8V0.2h3.1v20.5h-3.3l-4.2-13.1v13.1h-3.1V0.2H103.5z"/>
<path class="st0" d="M122.5,21c-2.7,0-4.9-2.2-4.9-4.9c0,0,0,0,0,0V4.9c0-1.3,0.5-2.6,1.4-3.5c0.9-0.9,2.2-1.4,3.5-1.4
	c1.3,0,2.6,0.5,3.5,1.4c0.9,0.9,1.4,2.2,1.4,3.5v2.3h-3.2V4.9c0-1-0.8-1.8-1.8-1.8c-0.5,0-0.9,0.2-1.2,0.5c-0.3,0.3-0.5,0.8-0.5,1.3
	v11.2c0,1,0.8,1.8,1.7,1.8c0,0,0,0,0,0c0.5,0,0.9-0.2,1.3-0.5c0.3-0.3,0.5-0.8,0.5-1.2v-2.8h3.2v2.9C127.4,18.8,125.2,21,122.5,21
	C122.5,21,122.5,21,122.5,21L122.5,21z"/>
<path class="st0" d="M137.1,20.7H134V0.3h3.1V20.7z"/>
<path class="st0" d="M144,20.7V0.2h8.8v3.1h-5.7v5.6h4.2V12h-4.2v5.6h5.7v3.1H144z"/>
<path class="st0" d="M162.5,0.2l4.1,13.8V0.2h3.1v20.5h-3.3l-4.2-13.1v13.1h-3.1V0.2H162.5z"/>
<path class="st0" d="M179.6,3.4h-3.3V0.3h9.6v3.1h-3.3v17.4h-3.1L179.6,3.4z"/>
<path class="st0" d="M201.8,3.4h-3.3V0.3h9.6v3.1h-3.3v17.4h-3.1L201.8,3.4z"/>
<path class="st0" d="M217.9,20.7h-3.1V0.3h3.1V20.7z"/>
<path class="st0" d="M227.8,20.7h-3.1V0.2h4.4l2.9,14.7l2.8-14.7h4.3v20.5H236V7.9l-2.7,12.9h-2.5l-3-12.8V20.7z"/>
<path class="st0" d="M246,20.7V0.2h8.8v3.1h-5.7v5.6h4.2V12h-4.2v5.6h5.7v3.1H246z"/>
<path class="st0" d="M271.2,15.6c0.1,1.3-0.3,2.6-1.1,3.7c-0.5,0.7-1.3,1.2-2.1,1.5c-0.6,0.2-1.1,0.2-1.7,0.2c-1.1,0-2.1-0.3-3-0.9
	c-0.7-0.5-1.2-1.2-1.6-2c-0.4-0.9-0.6-1.9-0.7-2.9L264,15c0,0.9,0.4,1.9,0.9,2.6c0.3,0.4,0.8,0.6,1.3,0.6c0.7,0,1.3-0.4,1.6-1
	c0.2-0.4,0.3-0.9,0.3-1.4c0-1-0.5-1.9-1.2-2.5c-0.6-0.6-1.5-1.4-2.7-2.6C263.4,9.9,262.6,9,262,8c-0.5-0.9-0.7-1.9-0.7-2.9
	c-0.1-1.6,0.6-3.2,1.9-4.2c0.8-0.6,1.8-0.9,2.9-0.9c1,0,2,0.2,2.8,0.7c0.6,0.4,1.1,0.9,1.5,1.6c0.4,0.7,0.6,1.5,0.7,2.4l-3,0.5
	c0-0.7-0.3-1.4-0.7-2c-0.3-0.3-0.8-0.5-1.2-0.5c-0.5,0-1,0.3-1.3,0.8c-0.3,0.5-0.4,1-0.4,1.5c0.1,1.1,0.5,2.1,1.2,2.9
	c0.4,0.5,0.9,0.9,1.4,1.3c0.7,0.6,1.2,1,1.4,1.3c0.7,0.7,1.3,1.4,1.8,2.3c0.2,0.3,0.3,0.6,0.5,1C271.1,14.3,271.2,15,271.2,15.6z"/>
</svg>
