<?xml version="1.0" encoding="utf-8"?>
<!-- Generator: Adobe Illustrator 22.1.0, SVG Export Plug-In . SVG Version: 6.00 Build 0)  -->
<svg version="1.1" id="Layer_1" xmlns="http://www.w3.org/2000/svg" xmlns:xlink="http://www.w3.org/1999/xlink" x="0px" y="0px"
	 viewBox="0 0 186.7 21" style="enable-background:new 0 0 186.7 21;" xml:space="preserve">
<style type="text/css">
	.st0{fill:#D3B372;}
</style>
<title>frame3</title>
<path class="st0" d="M4.9,21c-1.3,0-2.6-0.5-3.5-1.4C0.5,18.6,0,17.4,0,16.1V0.3h3v15.8c0,0.5,0.2,0.9,0.5,1.2
	c0.3,0.3,0.8,0.5,1.3,0.5c1,0,1.8-0.8,1.8-1.7c0,0,0,0,0,0V0.3h3.2v15.8c0,1.3-0.5,2.6-1.4,3.5C7.4,20.5,6.2,21,4.9,21z"/>
<path class="st0" d="M20.1,0.2L24.2,14V0.2h3.1v20.5H24L19.8,7.6v13.1h-3.1V0.2H20.1z"/>
<path class="st0" d="M39.1,21c-2.7,0-4.9-2.2-4.9-4.9c0,0,0,0,0,0V4.9c0-1.3,0.5-2.6,1.4-3.5C36.5,0.5,37.8,0,39.1,0
	c1.3,0,2.6,0.5,3.5,1.4C43.5,2.4,44,3.6,44,4.9v2.3h-3.2V4.9c0-1-0.8-1.8-1.8-1.8c-0.5,0-0.9,0.2-1.2,0.5c-0.3,0.3-0.5,0.8-0.5,1.3
	v11.2c0,1,0.8,1.8,1.7,1.8c0,0,0,0,0,0c0.5,0,0.9-0.2,1.3-0.5c0.3-0.3,0.5-0.8,0.5-1.2v-2.8H44v2.9C44,18.8,41.8,21,39.1,21
	C39.1,21,39.1,21,39.1,21z"/>
<path class="st0" d="M55.5,0c1.3,0,2.6,0.5,3.5,1.4c0.9,0.9,1.4,2.2,1.4,3.5v11.2c0,2.7-2.2,4.9-4.9,4.9s-4.9-2.2-4.9-4.9
	c0,0,0,0,0,0V4.9c0-1.3,0.5-2.6,1.4-3.5C52.9,0.5,54.2,0,55.5,0z M57.1,4.8c0-1-0.8-1.8-1.8-1.8c0,0,0,0,0,0c-0.5,0-0.9,0.2-1.3,0.5
	c-0.3,0.3-0.5,0.8-0.5,1.2V16c0,0.5,0.2,0.9,0.5,1.2c0.3,0.3,0.8,0.5,1.3,0.5c1,0,1.8-0.8,1.8-1.7c0,0,0,0,0,0V4.8z"/>
<path class="st0" d="M70.3,20.7L66.6,0.3h3.2l2.6,16l2.6-16h3.2l-3.7,20.5H70.3z"/>
<path class="st0" d="M85,20.7V0.2h8.8v3.1h-5.7v5.6h4.2V12h-4.2v5.6h5.7v3.1H85z"/>
<path class="st0" d="M104.9,0.3c1.4-0.1,2.8,0.4,3.8,1.4c0.8,1,1.1,2.2,1.1,3.5v3c0,1.4-0.6,2.8-1.6,3.7l2.3,8.9H107l-1.9-7.7h-2.1
	v7.7H100V0.3H104.9z M106.7,5.2c0.1-0.9-0.5-1.7-1.3-1.8c-0.1,0-0.3,0-0.4,0h-1.9V10h1.9c0.5,0,0.9-0.2,1.2-0.5
	c0.3-0.3,0.5-0.8,0.5-1.3V5.2z"/>
<path class="st0" d="M126,20.7h-3.1V0.2h4.4l2.9,14.7L133,0.2h4.3v20.5h-3.1V7.9l-2.7,12.9H129l-3-12.8V20.7z"/>
<path class="st0" d="M149,0c1.3,0,2.6,0.5,3.5,1.4c0.9,0.9,1.4,2.2,1.4,3.5v11.2c0,2.7-2.2,4.9-4.9,4.9c-2.7,0-4.9-2.2-4.9-4.9V4.9
	c0-1.3,0.5-2.6,1.4-3.5C146.4,0.5,147.7,0,149,0z M150.7,4.8c0-1-0.8-1.8-1.8-1.8c0,0,0,0,0,0c-0.5,0-0.9,0.2-1.3,0.5
	c-0.3,0.3-0.5,0.8-0.5,1.2V16c0,0.5,0.2,0.9,0.5,1.2c0.3,0.3,0.8,0.5,1.3,0.5c1,0,1.8-0.8,1.8-1.7c0,0,0,0,0,0V4.8z"/>
<path class="st0" d="M165.6,0.3c1.4-0.1,2.8,0.4,3.8,1.4c0.8,1,1.1,2.2,1.1,3.5v3c0,1.4-0.6,2.8-1.6,3.7l2.3,8.9h-3.3l-1.9-7.7h-2.1
	v7.7h-3.1V0.3H165.6z M167.5,5.2c0.1-0.9-0.5-1.7-1.3-1.8c-0.1,0-0.3,0-0.4,0h-1.9V10h1.9c0.5,0,0.9-0.2,1.2-0.5
	c0.3-0.3,0.5-0.8,0.5-1.3L167.5,5.2z"/>
<path class="st0" d="M177.9,20.7V0.2h8.8v3.1H181v5.6h4.2V12H181v5.6h5.7v3.1H177.9z"/>
</svg>
