<?xml version="1.0" encoding="utf-8"?>
<!-- Generator: Adobe Illustrator 22.1.0, SVG Export Plug-In . SVG Version: 6.00 Build 0)  -->
<svg version="1.1" id="Layer_1" xmlns="http://www.w3.org/2000/svg" xmlns:xlink="http://www.w3.org/1999/xlink" x="0px" y="0px"
	 viewBox="0 0 177.8 21" style="enable-background:new 0 0 177.8 21;" xml:space="preserve">
<style type="text/css">
	.st0{fill:#D3B372;}
</style>
<title>frame4</title>
<path class="st0" d="M3.5,0.2L7.6,14V0.2h3.1v20.5H7.3L3.1,7.6v13.1H0V0.2H3.5z"/>
<path class="st0" d="M21.3,16l-0.8,4.7h-3.2l3.5-20.5h4.2l3.4,20.5h-3.2L24.6,16L21.3,16z M23,4.9L21.8,13h2.3L23,4.9z"/>
<path class="st0" d="M38.4,20.7h-3.1V0.2h4.4L42.6,15l2.8-14.7h4.3v20.5h-3.1V7.9l-2.7,12.9h-2.5l-3-12.8L38.4,20.7z"/>
<path class="st0" d="M60.3,16l-0.8,4.7h-3.2l3.5-20.5H64l3.4,20.5h-3.2L63.5,16H60.3z M61.9,4.9L60.8,13H63L61.9,4.9z"/>
<path class="st0" d="M83.5,15.6c0.1,1.3-0.3,2.6-1.1,3.7c-0.5,0.7-1.3,1.2-2.1,1.5c-0.6,0.2-1.1,0.2-1.7,0.2c-1.1,0-2.1-0.3-3-0.9
	c-0.7-0.5-1.2-1.2-1.6-2c-0.4-0.9-0.6-1.9-0.7-2.9l2.9-0.2c0,0.9,0.4,1.9,0.9,2.6c0.3,0.4,0.8,0.6,1.3,0.6c0.7,0,1.3-0.4,1.6-1
	c0.2-0.4,0.3-0.9,0.3-1.4c0-1-0.5-1.9-1.2-2.5c-0.6-0.6-1.5-1.4-2.7-2.6C75.6,9.9,74.9,9,74.3,8c-0.5-0.9-0.7-1.9-0.7-2.9
	c-0.1-1.6,0.6-3.2,1.9-4.2C76.3,0.3,77.3,0,78.4,0c1,0,2,0.2,2.8,0.7c0.6,0.4,1.1,0.9,1.5,1.6c0.4,0.7,0.6,1.5,0.7,2.4l-3,0.5
	c0-0.7-0.3-1.4-0.7-2c-0.3-0.3-0.8-0.5-1.2-0.5c-0.5,0-1,0.3-1.3,0.8c-0.3,0.5-0.4,1-0.4,1.5c0.1,1.1,0.5,2.1,1.2,2.9
	c0.4,0.5,0.9,0.9,1.4,1.3c0.7,0.6,1.2,1,1.4,1.3c0.7,0.7,1.3,1.4,1.8,2.3c0.2,0.3,0.3,0.6,0.5,1C83.3,14.3,83.5,15,83.5,15.6z"/>
<path class="st0" d="M93,3.4h-3.3V0.3h9.6v3.1h-3.3v17.4H93V3.4z"/>
<path class="st0" d="M106,20.7V0.2h8.8v3.1h-5.7v5.6h4.2V12h-4.2v5.6h5.7v3.1H106z"/>
<path class="st0" d="M121.1,17.7h3.1v3.1h-3.1V17.7z"/>
<path class="st0" d="M135.3,21c-2.7,0-4.9-2.2-4.9-4.9c0,0,0,0,0,0V4.9c0-1.3,0.5-2.6,1.4-3.5c0.9-0.9,2.2-1.4,3.5-1.4
	c1.3,0,2.6,0.5,3.5,1.4c0.9,0.9,1.4,2.2,1.4,3.5v2.3H137V4.9c0-1-0.8-1.8-1.8-1.8c-0.5,0-0.9,0.2-1.2,0.5c-0.3,0.3-0.5,0.8-0.5,1.3
	v11.2c0,1,0.8,1.8,1.7,1.8c0,0,0,0,0,0c0.5,0,0.9-0.2,1.3-0.5c0.3-0.3,0.5-0.8,0.5-1.2v-2.8h3.2v2.9C140.2,18.8,138,21,135.3,21
	C135.3,21,135.3,21,135.3,21L135.3,21z"/>
<path class="st0" d="M151.7,0c1.3,0,2.6,0.5,3.5,1.4c0.9,0.9,1.4,2.2,1.4,3.5v11.2c0,2.7-2.2,4.9-4.9,4.9s-4.9-2.2-4.9-4.9
	c0,0,0,0,0,0V4.9c0-1.3,0.5-2.6,1.4-3.5C149.2,0.5,150.4,0,151.7,0z M153.4,4.8c0-1-0.8-1.8-1.8-1.8c0,0,0,0,0,0
	c-0.5,0-0.9,0.2-1.3,0.5c-0.3,0.3-0.5,0.8-0.5,1.2V16c0,0.5,0.2,0.9,0.5,1.2c0.3,0.3,0.8,0.5,1.3,0.5c1,0,1.8-0.8,1.8-1.8
	c0,0,0,0,0,0V4.8z"/>
<path class="st0" d="M166.5,20.7h-3.1V0.2h4.4l2.9,14.7l2.8-14.7h4.3v20.5h-3.1V7.9L172,20.7h-2.5l-3-12.8L166.5,20.7z"/>
</svg>
