<svg id="Layer_1" data-name="Layer 1" xmlns="http://www.w3.org/2000/svg" xmlns:xlink="http://www.w3.org/1999/xlink" width="160" height="600" viewBox="0 0 160 600"><defs><style>.cls-1{fill:none;}.cls-2{fill:#ab9555;}.cls-3{clip-path:url(#clip-path);}</style><clipPath id="clip-path"><rect class="cls-1" x="210.35774" width="160" height="600"/></clipPath></defs><title>frame3</title><path class="cls-2" d="M16.41644,296.00586H13.86566v-16.9082h2.55078Z"/><path class="cls-2" d="M23.83929,279.084l3.38477,11.37256V279.084h2.55078v16.92188H27.03558l-3.50879-10.83594v10.83594H20.976V279.084Z"/><path class="cls-2" d="M36.88519,296.00586H34.33441V279.084h7.26074v2.564h-4.71v4.61523h3.4414v2.56348h-3.4414Z"/><path class="cls-2" d="M49.66351,278.88135a4.04438,4.04438,0,0,1,4.04883,4.04834v9.23047a4.042,4.042,0,1,1-8.084,0v-9.23047a4.04355,4.04355,0,0,1,4.03516-4.04834Zm1.38965,3.99463a1.45125,1.45125,0,0,0-1.457-1.45752,1.42648,1.42648,0,0,0-1.03907.42529,1.3931,1.3931,0,0,0-.43164,1.03223v9.25683a1.395,1.395,0,0,0,.43164,1.03272,1.428,1.428,0,0,0,1.03907.4248,1.45043,1.45043,0,0,0,1.457-1.45752Z"/><path class="cls-2" d="M62.267,279.09766a3.88861,3.88861,0,0,1,3.13086,1.17382,4.26561,4.26561,0,0,1,.877,2.86084v2.45606a3.95187,3.95187,0,0,1-1.36231,3.03613l1.88867,7.38135H64.04339l-1.54687-6.36914h-1.7002v6.36914H58.24554v-16.9082Zm1.52539,4.07519a1.29482,1.29482,0,0,0-1.458-1.47119H60.79632v5.41162h1.53809a1.39273,1.39273,0,0,0,1.03222-.43213,1.425,1.425,0,0,0,.42578-1.03906Z"/><path class="cls-2" d="M73.81781,296.00586H71.267V279.084h3.66016l2.37695,12.15577L79.58538,279.084H83.102v16.92188H80.5512v-10.6333l-2.21289,10.6333H76.28753l-2.46972-10.60645Z"/><path class="cls-2" d="M90.78851,292.11963l-.61914,3.88623H87.51312l2.875-16.9082h3.50781l2.834,16.9082H94.04827l-.59668-3.88623Zm1.33984-9.14942-.94433,6.66651h1.88867Z"/><path class="cls-2" d="M101.47991,281.66162H98.767v-2.564h7.96192v2.564h-2.69922v14.34424h-2.54981Z"/><path class="cls-2" d="M113.61077,296.00586H111.06v-16.9082h2.55078Z"/><path class="cls-2" d="M122.17816,278.88135a4.04272,4.04272,0,0,1,4.04785,4.04834v9.23047a4.04153,4.04153,0,1,1-8.083,0v-9.23047a4.04355,4.04355,0,0,1,4.03516-4.04834Zm1.38965,3.99463a1.45125,1.45125,0,0,0-1.457-1.45752,1.42489,1.42489,0,0,0-1.03906.42529,1.3931,1.3931,0,0,0-.43164,1.03223v9.25683a1.395,1.395,0,0,0,.43164,1.03272,1.42637,1.42637,0,0,0,1.03906.4248,1.45043,1.45043,0,0,0,1.457-1.45752Z"/><path class="cls-2" d="M133.60882,279.084l3.38477,11.37256V279.084h2.55078v16.92188h-2.73926l-3.50879-10.83594v10.83594h-2.55078V279.084Z"/><path class="cls-2" d="M143.57855,293.46875h2.55078v2.55078h-2.55078Z"/><g class="cls-3"><image width="5000" height="5000" transform="translate(-12.21102 -122.75424) scale(0.15703)" xlink:href="frame31.png"/></g></svg>