<svg id="Content" xmlns="http://www.w3.org/2000/svg" xmlns:xlink="http://www.w3.org/1999/xlink" viewBox="0 0 728 360"><defs><style>.cls-1{fill:none;}.cls-2{fill:url(#New_Gradient_Swatch_1);}.cls-3{fill:#fff;}.cls-4{fill:#ba9544;}.cls-5{clip-path:url(#clip-path);}</style><linearGradient id="New_Gradient_Swatch_1" x1="567.4" y1="185.05" x2="624.33" y2="185.05" gradientUnits="userSpaceOnUse"><stop offset="0" stop-color="#a88a34"/><stop offset="0.49" stop-color="#caaf67"/><stop offset="1" stop-color="#957f2e"/></linearGradient><clipPath id="clip-path"><rect class="cls-1" x="381.76" y="-134.34" width="208.13" height="92"/></clipPath></defs><title>earthy</title><polygon class="cls-2" points="618.65 165.34 590.18 155.47 567.4 175.19 573.09 204.77 601.55 214.64 624.33 194.92 618.65 165.34"/><path class="cls-3" d="M603,192a6.68,6.68,0,0,0-3.33-3.07,3.2,3.2,0,0,0-2.49.24,7.12,7.12,0,0,0-1.31-.34c.18-1.49,1.32-3.47,2.77-5.45h1c3.1,0,5.85-.41,6-6a8.54,8.54,0,0,1,1.16-2.62l.43-.7h-.82a8.86,8.86,0,0,0-8.85,8.86v.42c-.34.48-.66,1-1,1.43A11.36,11.36,0,0,0,585.3,174h-.81l.42.7a11.21,11.21,0,0,1,1.53,3.47c.18,7.13,3.69,7.65,7.65,7.65H596a8.6,8.6,0,0,0-1,2.88,4.17,4.17,0,0,0-4,2.19,5.16,5.16,0,0,0-4.23.23c-1.23.77-1.89,2.28-2,4.46v.48h21.93l.08-.36a2.77,2.77,0,0,0-.46-2.1A4.66,4.66,0,0,0,603,192"/><path class="cls-4" d="M563.81,245.58V234.71h8v2H566v2.32h4.36v2H566v2.48h5.8v2Z"/><path class="cls-4" d="M573.42,245.58l4.35-10.88h2.17l4.35,10.87H582l-.65-1.67h-4.93l-.65,1.67Zm5.49-8-1.65,4.13h3.26Z"/><path class="cls-4" d="M592.46,240.83l2.71,4.75h-2.5l-2.6-4.5h-2v4.5h-2.17V234.7h4.74c2.54,0,3.81,1.05,3.81,3.13A2.81,2.81,0,0,1,592.46,240.83Zm-4.38-1.78h3q1.3,0,1.35-1.2c0-.71-.47-1.08-1.33-1.11h-3.07Z"/><path class="cls-4" d="M605.17,234.7v2h-3.62v8.85h-2.18v-8.85h-3.62v-2Z"/><path class="cls-4" d="M606.79,245.58V234.7H609v4.35H614v-4.36h2.17v10.88H614v-4.5H609v4.5Z"/><path class="cls-4" d="M617.92,234.7h2.55l2.52,3.55,2.58-3.55h2.49l-4,5.44v5.44H621.9v-5.44Z"/><g class="cls-5"><image id="SmallTopDown-8297-DurgaMata2.psd" width="1500" height="1261" transform="translate(363.32 -154.62) scale(0.13)" xlink:href="../../../../../../Dropbox%20(Revolution%20Strategy)/Rocio%20Ugarte/Clients/Namaste/Digital%20Ads/_Flight%202:Phase%202%20Terpene/1.%20Animated%20w:%20Packaging/8.%20Expandable%20Unit%20728%20x%2090:728%20x%20360/728%20x%2090_728%20x%20360V2_Folder/Links/SmallTopDown-8297-DurgaMata2.png"/></g></svg>