<svg id="Content" xmlns="http://www.w3.org/2000/svg" xmlns:xlink="http://www.w3.org/1999/xlink" width="320" height="50" viewBox="0 0 320 50"><defs><style>.cls-1{fill:url(#New_Gradient_Swatch_1);}.cls-2{fill:url(#linear-gradient);}.cls-3{fill:url(#linear-gradient-2);}.cls-4{fill:url(#linear-gradient-3);}.cls-5{fill:url(#linear-gradient-4);}.cls-6{fill:url(#linear-gradient-5);}.cls-7{fill:url(#linear-gradient-6);}.cls-8{fill:url(#linear-gradient-7);}.cls-9{fill:url(#New_Gradient_Swatch_2);}.cls-10{fill:#a89255;}.cls-11{fill:#ba9544;}.cls-12{fill:url(#New_Gradient_Swatch_2-2);}.cls-13{fill:#fff;}</style><linearGradient id="New_Gradient_Swatch_1" x1="36.14523" y1="18.81688" x2="68.02287" y2="18.81688" gradientUnits="userSpaceOnUse"><stop offset="0" stop-color="#a88a34"/><stop offset="0.49324" stop-color="#caaf67"/><stop offset="1" stop-color="#957f2e"/></linearGradient><linearGradient id="linear-gradient" x1="68.50649" y1="87.64473" x2="68.50649" y2="34.17708" gradientUnits="userSpaceOnUse"><stop offset="0" stop-color="#a88a34"/><stop offset="0.49894" stop-color="#caaf67"/><stop offset="1" stop-color="#957f2e"/></linearGradient><linearGradient id="linear-gradient-2" x1="53.69569" y1="59.80981" x2="53.69569" y2="20.33086" xlink:href="#linear-gradient"/><linearGradient id="linear-gradient-3" x1="58.71221" y1="73.35026" x2="58.71221" y2="21.39608" xlink:href="#linear-gradient"/><linearGradient id="linear-gradient-4" x1="63.59555" y1="74.53388" x2="63.59555" y2="29.05716" xlink:href="#linear-gradient"/><linearGradient id="linear-gradient-5" x1="36.07321" y1="42.65198" x2="36.07321" y2="-1.28771" xlink:href="#linear-gradient"/><linearGradient id="linear-gradient-6" x1="47.74722" y1="53.7524" x2="47.74722" y2="14.50348" xlink:href="#linear-gradient"/><linearGradient id="linear-gradient-7" x1="41.78478" y1="47.89094" x2="41.78478" y2="8.41211" xlink:href="#linear-gradient"/><linearGradient id="New_Gradient_Swatch_2" x1="70.61988" y1="34.06844" x2="72.81592" y2="34.06844" gradientUnits="userSpaceOnUse"><stop offset="0" stop-color="#a88a34"/><stop offset="0.1878" stop-color="#caaf67"/><stop offset="0.46098" stop-color="#a08a4a"/><stop offset="0.76341" stop-color="#caaf67"/><stop offset="1" stop-color="#957f2e"/></linearGradient><linearGradient id="New_Gradient_Swatch_2-2" x1="267.59279" y1="30.22275" x2="351.38516" y2="18.38058" xlink:href="#New_Gradient_Swatch_2"/></defs><title>Frame1 - Shishkaberry</title><path class="cls-1" d="M50.14618,29.50048c.34643-.10218.97483.48523,1.01567.48523a.74966.74966,0,0,0,.20949-.48377c0-.2074-.148-.6108-.17579-.85493a4.06563,4.06563,0,0,0-.14765-.70728c-.054-.16073-.42969-.23079-.63127-.35517a3.29328,3.29328,0,0,1-.50863-.35213,1.609,1.609,0,0,1-.21624-.73793,2.90089,2.90089,0,0,0-.12134-.75117c-.07018-.13152-.2506-.22444-.37262-.34645a.52462.52462,0,0,1-.12569-.32291c.09358-.02922.12279.21188.23092.23238s.10083.10956.27029.168.17541.13891.19734.29675.21189.69114.27469.90885.12859.38159.34353.38885c.21478.00729.18556.11831.43829.098a1.41494,1.41494,0,0,1,.60656.11682c.13588.04825.30693.05261.36534-.04228s-.041-.478-.041-.478c-.08762,0-.10232-.11828-.13587-.22787s.02047-.11843.02047-.11843a.46314.46314,0,1,1,.88271,0s.054.00872.02047.11843-.04826.22787-.136.22787c0,0-.09927.38293-.04084.478s.22946.09053.36534.04228a1.41474,1.41474,0,0,1,.60644-.11682c.25285.02034.22363-.09068.43842-.098s.28063-.171.3434-.38885.25285-.751.27481-.90885.02775-.23834.19734-.29675.16217-.1475.27029-.168.13747-.2616.23092-.23238a.52544.52544,0,0,1-.12569.32291c-.122.122-.30244.21493-.37262.34645a2.90089,2.90089,0,0,0-.12134.75117,1.60886,1.60886,0,0,1-.21624.73793,3.29477,3.29477,0,0,1-.50863.35213c-.2017.12438-.57722.19444-.63127.35517a4.049,4.049,0,0,0-.14765.70728c-.02776.24413-.17579.64753-.17579.85493a.74966.74966,0,0,0,.20949.48377c.04084,0,.66936-.58741,1.01567-.48523.3463.10245.209.58753-.15055.94692a1.5397,1.5397,0,0,1-.74484.46448,4.03433,4.03433,0,0,1,.56547.10573,6.05339,6.05339,0,0,1,1.6152.92168,5.86833,5.86833,0,0,0,1.44022.84092,1.228,1.228,0,0,0,.13933.03055c.04944-.04139.30849-.19088.30849-.19088a5.79646,5.79646,0,0,0,.65086.27851l-1.65846-1.27883,3.28742,1.4311c.05405.02339.10838.04494.16245.06423l1.987.03542c.52159.00953,1.03669-.01334,1.51489-.05034-.3854-.23781-.80285-.4752-1.25026-.694l-1.74342-.85256c-.058-.00738-.11737-.013-.17765-.01651l-3.80025-.22827,2.46934-.42919-1.6008-.521,2.73964-.018a9.29984,9.29984,0,0,0,1.87034-.20568L59.057,29.64165l3.79484-.16852a3.72442,3.72442,0,0,0,.63525-.081l-.28814.03489,2.50451-1.17506a22.38146,22.38146,0,0,0,2.31945-1.275,24.47519,24.47519,0,0,0-2.71295-.16429l-2.84658.00648.31709-.10376a3.566,3.566,0,0,0-.67173.20724l-3.32085,1.38406,2.00965-1.49732-.01533.00252-.04588-.34527-.36521-.60233a12.03314,12.03314,0,0,0,2.73637-2.8249l-2.68494,1.28543,2.73568-2.27848a4.50579,4.50579,0,0,0,.86867-.94178c.35278-.53321.68033-1.0795.97906-1.63254l-.84794.83736,1.01644-2.21108a29.20157,29.20157,0,0,0,1.50393-4.158,35.39416,35.39416,0,0,0-4.0301,2.5965l-1.99008,1.50816.63472-.9891c-.51483.43779-1.01261.89988-1.48766,1.38113a4.35992,4.35992,0,0,0-.73251,1.02651l-1.45358,2.78393.51629-2.541a12.013,12.013,0,0,0-1.15155,1.3773l-.25338.35343-.23223-.1594a.665.665,0,0,0-.03595.06041l-1.99654,3.78611,1.17744-4.1151a13.06292,13.06292,0,0,0,.39057-5.16421l-1.3749,2.55528.6659-3.07394a5.00435,5.00435,0,0,0,.104-1.53393,24.7649,24.7649,0,0,0-.52832-3.10314l-.1812,1.50879-.59691-2.19968a37.42805,37.42805,0,0,0-2.03832-5.517,37.39148,37.39148,0,0,0-2.03834,5.517L49.44894,12.198l-.18133-1.50879a24.78864,24.78864,0,0,0-.52832,3.10314,5.00707,5.00707,0,0,0,.104,1.534l.66512,3.07488L48.13431,15.8453a13.06077,13.06077,0,0,0,.39058,5.16381l1.17758,4.11535L47.70578,21.3381a.63633.63633,0,0,0-.03595-.06041l-.23223.1594-.25338-.35343a12.01389,12.01389,0,0,0-1.15155-1.3773l.51642,2.541-1.4537-2.78393a4.36307,4.36307,0,0,0-.73239-1.02651c-.47412-.48034-.97125-.94178-1.48555-1.379l.63617.98988-1.99377-1.51106a35.37768,35.37768,0,0,0-4.0301-2.5965,29.19634,29.19634,0,0,0,1.5039,4.158l1.01647,2.21108-.84794-.83736c.29873.553.6264,1.09933.97919,1.63254a4.50142,4.50142,0,0,0,.86854.94178l2.73568,2.27848-2.68493-1.28543a12.02994,12.02994,0,0,0,2.73636,2.8249l-.36521.60233-.04588.34527-.01545-.00252,2.0099,1.49744-3.321-1.38418a3.58724,3.58724,0,0,0-.67146-.20724l.317.10376-2.84673-.00648a24.477,24.477,0,0,0-2.71295.16429,22.38146,22.38146,0,0,0,2.31945,1.275l2.50452,1.17494-.288-.03489a3.70894,3.70894,0,0,0,.63512.08115l3.79482.16852-2.58935.49315a9.30067,9.30067,0,0,0,1.87032.20568l2.7469.018-1.60635.5213,2.46789.42892-3.80036.22827q-.09064.00534-.1778.01651l-1.74369.85256c-.44714.21875-.86456.45614-1.25.694.47835.037.9933.05972,1.51489.05034l1.987-.03542c.05405-.01929.10837-.04084.16257-.06423l3.28727-1.4311L46.322,32.89839a5.79646,5.79646,0,0,0,.65086-.27851s.2588.14924.30824.19073a1.21357,1.21357,0,0,0,.13943-.0304,5.86613,5.86613,0,0,0,1.44037-.84092,6.05416,6.05416,0,0,1,1.6152-.92168,4.03377,4.03377,0,0,1,.56547-.10573,1.5397,1.5397,0,0,1-.74484-.46448C49.93722,30.088,49.79975,29.60293,50.14618,29.50048Z"/><polygon class="cls-2" points="70.412 36.218 70.412 35.25 66.601 35.253 66.601 40.438 70.405 40.438 70.405 39.469 67.639 39.469 67.639 38.29 69.717 38.29 69.717 37.325 67.639 37.325 67.639 36.218 70.412 36.218"/><path class="cls-3" d="M53.17866,35.25l-2.075,5.18758h1.10657l.31128-.79543h2.35172l.31128.79543,1.10329-.00354-2.0715-5.184Zm-.242,3.35468.78858-1.97143.76768,1.97143Z"/><path class="cls-4" d="M60.14747,37.75737a2.57239,2.57239,0,0,0-1.19316-.43223,1.3675,1.3675,0,0,1-.79546-.3114.40476.40476,0,0,1,0-.5015q.17309-.2938.79546-.29382a1.19132,1.19132,0,0,1,.96847.41491l.69154-.69171a2.42011,2.42011,0,0,0-.74349-.51878A2.89524,2.89524,0,0,0,58.75022,35.25a2.07646,2.07646,0,0,0-1.21208.41674,1.29081,1.29081,0,0,0-.58966,1.105,1.14789,1.14789,0,0,0,.5187,1.0721,2.78766,2.78766,0,0,0,1.14135.38041q.69155.06921.86285.3631a.548.548,0,0,1,0,.58806q-.17112.29382-.86285.29382a1.643,1.643,0,0,1-1.17587-.48414l-.69183.69179a2.61786,2.61786,0,0,0,.83008.55332,3.07212,3.07212,0,0,0,1.20705.20738,2.09487,2.09487,0,0,0,1.33316-.44954,1.32969,1.32969,0,0,0,.57246-1.07208A1.29844,1.29844,0,0,0,60.14747,37.75737Z"/><polygon class="cls-5" points="61.348 36.218 63.077 36.218 63.077 40.438 64.114 40.438 64.114 36.218 65.844 36.218 65.844 35.25 61.348 35.25 61.348 36.218"/><polygon class="cls-6" points="37.353 38.501 34.102 35.25 33.756 35.25 33.756 40.438 34.794 40.438 34.794 37.221 38.01 40.438 38.39 40.438 38.39 35.25 37.353 35.25 37.353 38.501"/><polygon class="cls-7" points="47.746 37.809 45.498 35.25 45.152 35.25 45.152 40.438 46.189 40.438 46.189 37.429 47.746 39.158 49.302 37.429 49.305 40.438 50.343 40.438 50.343 35.25 49.997 35.25 47.746 37.809"/><path class="cls-8" d="M41.26778,35.25l-2.07507,5.18758h1.1066l.31128-.79543h2.35172l.31142.79543,1.10313-.00354L42.30524,35.25Zm-.242,3.35468.78843-1.97143.76771,1.97143Z"/><path class="cls-9" d="M71.15724,33.68165v.94164h-.187v-.94164h-.35032v-.16806h.88923v.16806Zm1.48584.94164-.00155-.82908-.35032.71329H72.1691l-.35033-.71329v.82908h-.17593v-1.1097h.22189l.3662.73717.36465-.73717h.22034v1.1097Z"/><path class="cls-10" d="M42.48553,44.15767a.732.732,0,0,1-.41931,1.361l-1.4504-.00171V42.941h1.36792q.65142.03793.68739.75785A.5395.5395,0,0,1,42.48553,44.15767Zm-1.35245-.18388h.72177a.2909.2909,0,0,0,.31964-.32136q-.00847-.18891-.31449-.19934h-.72692Zm0,1.14108h.84206a.33641.33641,0,0,0,.3712-.37291q-.00847-.24747-.366-.25778h-.84722Z"/><path class="cls-10" d="M43.2073,42.93926h.60491l.598.84206.61179-.84206h.59116L44.668,44.22813V45.517h-.51555V44.22813Z"/><path class="cls-10" d="M49.21858,45.517H47.15467l.00172-.17185,1.20122-1.92471H47.15639l-.00172-.48118h2.06391v.189L48.0122,45.03582h1.20638Z"/><path class="cls-10" d="M49.8662,45.517V42.941L51.76,42.93926v.48118H50.38175v.54992h1.03281v.47945H50.38175v.586h1.37479V45.517Z"/><path class="cls-10" d="M52.279,45.517V42.93926h.17185l1.61538,1.61538V42.93926h.51555V45.517h-.189l-1.59819-1.5982V45.517Z"/><path class="cls-10" d="M54.98043,45.517l1.03109-2.57774h.51555l1.02913,2.576-.548.00172-.15467-.39526H55.685l-.15467.39526ZM56.283,43.62666l-.39181.97954h.77332Z"/><path class="cls-10" d="M59.77158,44.15767a.73206.73206,0,0,1-.41931,1.361L57.90186,45.517V42.941h1.36792q.65106.03793.68739.75785A.54084.54084,0,0,1,59.77158,44.15767Zm-1.3527-.18388h.72177a.29068.29068,0,0,0,.31964-.32136c-.00541-.12594-.11048-.19247-.31424-.19934h-.72717Zm0,1.14108h.84206a.33619.33619,0,0,0,.37119-.37291q-.0081-.24747-.36579-.25778h-.84746Z"/><path class="cls-10" d="M60.64457,42.93754h.51358V45.517h-.51358Z"/><path class="cls-10" d="M63.07108,43.02519a1.19648,1.19648,0,0,1,.36923.25777l-.3437.3437a.59159.59159,0,0,0-.48118-.20622q-.30933,0-.39525.14607a.202.202,0,0,0,0,.24918.67973.67973,0,0,0,.39525.15467,1.27875,1.27875,0,0,1,.59313.21481.646.646,0,0,1,.26612.57569.66114.66114,0,0,1-.28429.53273,1.04086,1.04086,0,0,1-.66235.22341,1.52792,1.52792,0,0,1-.6-.10311,1.30613,1.30613,0,0,1-.41244-.275l.3437-.3437a.81715.81715,0,0,0,.58428.24059q.344,0,.42864-.14607a.2711.2711,0,0,0,0-.29215q-.08469-.14619-.42864-.18044a1.38485,1.38485,0,0,1-.5671-.189.57026.57026,0,0,1-.25777-.53273.64107.64107,0,0,1,.29312-.54894,1.03167,1.03167,0,0,1,.60246-.2072A1.44206,1.44206,0,0,1,63.07108,43.02519Z"/><rect class="cls-10" x="33.75603" y="44.19119" width="4.63436" height="0.5643"/><rect class="cls-10" x="65.77769" y="44.19119" width="4.63436" height="0.5643"/><path class="cls-11" d="M139.43652,22.38135c1.3877,0,2.10157.83008,2.10157,2.28271v.28516h-1.34961v-.376c0-.64844-.25879-.895-.71289-.895s-.71387.24658-.71387.895c0,1.86768,2.78906,2.21778,2.78906,4.81153,0,1.45312-.72656,2.2832-2.12695,2.2832-1.40137,0-2.127-.83008-2.127-2.2832v-.55762h1.34863v.64844c0,.64892.28515.88232.73926.88232s.73925-.2334.73925-.88232c0-1.86768-2.78808-2.21778-2.78808-4.81153C137.33594,23.21143,138.04883,22.38135,139.43652,22.38135Z"/><path class="cls-11" d="M145.17188,31.564h-1.42676v-9.0791h1.42676V26.376H146.793V22.48486h1.45312V31.564H146.793V27.67285h-1.62109Z"/><path class="cls-11" d="M150.66016,22.48486h1.42675V31.564h-1.42675Z"/><path class="cls-11" d="M156.41992,22.38135c1.3877,0,2.10156.83008,2.10156,2.28271v.28516h-1.3496v-.376c0-.64844-.25879-.895-.7129-.895s-.71386.24658-.71386.895c0,1.86768,2.78906,2.21778,2.78906,4.81153,0,1.45312-.72656,2.2832-2.12695,2.2832-1.40137,0-2.127-.83008-2.127-2.2832v-.55762h1.34864v.64844c0,.64892.28515.88232.73925.88232s.73926-.2334.73926-.88232c0-1.86768-2.78808-2.21778-2.78808-4.81153C154.31934,23.21143,155.03223,22.38135,156.41992,22.38135Z"/><path class="cls-11" d="M162.15527,31.564h-1.42675v-9.0791h1.42675V26.376h1.6211V22.48486h1.45312V31.564h-1.45312V27.67285h-1.6211Z"/><path class="cls-11" d="M169.51074,27.94531l-.44043.83008V31.564h-1.42676v-9.0791h1.42676v3.95606l1.86719-3.95606h1.42676l-1.98438,4.04688,1.98438,5.03222h-1.46485Z"/><path class="cls-11" d="M179.00781,31.564h-1.43945l-.24609-1.647h-1.751l-.24707,1.647h-1.30957l1.45215-9.0791h2.08886Zm-3.25488-2.87939h1.374l-.6875-4.59131Z"/><path class="cls-11" d="M185.31445,24.57324v.32422a1.78427,1.78427,0,0,1-.9209,1.82861,1.83686,1.83686,0,0,1,1.06348,1.94581v.73925a1.92992,1.92992,0,0,1-2.166,2.15283h-2.24414v-9.0791h2.15332C184.67871,22.48486,185.31445,23.17236,185.31445,24.57324Zm-2.84082-.791v2.39941h.55762c.53223,0,.85645-.23389.85645-.96v-.50586c0-.64844-.22071-.93359-.72657-.93359Zm0,3.69629v2.78857h.81739c.47949,0,.73925-.2207.73925-.895v-.791c0-.84326-.27246-1.10253-.92089-1.10253Z"/><path class="cls-11" d="M189.11621,26.311h1.959v1.29687h-1.959v2.65918h2.46484V31.564h-3.8916v-9.0791h3.8916v1.29737h-2.46484Z"/><path class="cls-11" d="M196.82324,31.564a2.78342,2.78342,0,0,1-.12988-1.11523V29.022c0-.84326-.28516-1.15429-.93359-1.15429h-.49317V31.564h-1.42676v-9.0791h2.15332c1.47852,0,2.11426.6875,2.11426,2.08838v.71338a1.81038,1.81038,0,0,1-.93457,1.8418c.71387.29834.94727.98535.94727,1.93213v1.40088a2.67647,2.67647,0,0,0,.15527,1.10253Zm-1.55664-7.78173v2.78808h.55762c.53223,0,.85644-.2334.85644-.95947v-.895c0-.64844-.2207-.93359-.72656-.93359Z"/><path class="cls-11" d="M203.41406,31.564a2.78342,2.78342,0,0,1-.12988-1.11523V29.022c0-.84326-.28516-1.15429-.93359-1.15429h-.49317V31.564h-1.42676v-9.0791H202.584c1.47852,0,2.11426.6875,2.11426,2.08838v.71338a1.80984,1.80984,0,0,1-.93359,1.8418c.71289.29834.94629.98535.94629,1.93213v1.40088a2.67594,2.67594,0,0,0,.15625,1.10253Zm-1.55664-7.78173v2.78808h.5586c.53125,0,.85546-.2334.85546-.95947v-.895c0-.64844-.2207-.93359-.72656-.93359Z"/><path class="cls-11" d="M208.3584,28.55469l-1.80274-6.06983h1.49122l1.08984,4.1377,1.08887-4.1377h1.3623l-1.80273,6.06983V31.564H208.3584Z"/><polygon class="cls-12" points="325.576 15.521 283.519 15.521 277.2 24.999 283.519 34.479 325.576 34.479 325.576 15.521"/><path class="cls-13" d="M290.90723,19.93848V23.1499h2.10644v.73682h-2.89551V19.93848Z"/><path class="cls-13" d="M293.65234,23.88672V19.94141l2.90137-.00293v.7373h-2.11133v.84229h1.582v.73437h-1.582v.89746h2.10547v.73682Z"/><path class="cls-13" d="M297.14062,23.88672l1.57911-3.94824h.79l1.57617,3.9458-.83985.00244-.23632-.60547h-1.79l-.23731.60547Zm1.99512-2.89551-.60058,1.50049h1.18457Z"/><path class="cls-13" d="M304.05273,22.16553l.98438,1.72119h-.90625l-.94434-1.63184h-.72168v1.63184h-.78906V19.93848h1.7207q1.38282,0,1.38184,1.1372A1.02149,1.02149,0,0,1,304.05273,22.16553Zm-1.58789-.64746h1.10547q.47754-.00806.49024-.43457-.01318-.38965-.48243-.40528h-1.11328Z"/><path class="cls-13" d="M305.44727,23.88672V19.93848h.26367l2.47363,2.47412V19.93848h.79v3.94824h-.29L306.2373,21.439v2.44776Z"/><path class="cls-13" d="M291.68652,30.35547V26.40723h.26368l1.71093,1.94775,1.71289-1.94775h.26368v3.94824h-.79l-.002-2.29-1.18457,1.31641-1.18457-1.31641v2.29Z"/><path class="cls-13" d="M296.79,29.78809a2.03312,2.03312,0,1,1,1.4082.56738A1.91243,1.91243,0,0,1,296.79,29.78809Zm1.41113-.16944a1.10733,1.10733,0,0,0,.85254-.35547,1.346,1.346,0,0,0,0-1.76367,1.20829,1.20829,0,0,0-1.71094,0,1.346,1.346,0,0,0,0,1.76367A1.11712,1.11712,0,0,0,298.20117,29.61865Z"/><path class="cls-13" d="M303.13672,28.63428l.98437,1.72119h-.90625l-.94433-1.63184h-.72168v1.63184h-.78906V26.40723h1.7207q1.3828,0,1.38183,1.1372A1.02148,1.02148,0,0,1,303.13672,28.63428Zm-1.58789-.64746h1.10547q.47754-.00806.49023-.43457-.01318-.38965-.48242-.40528h-1.11328Z"/><path class="cls-13" d="M304.52051,30.35547V26.41016l2.90137-.00293v.7373h-2.11133v.84229h1.582v.73437h-1.582v.89746H307.416v.73682Z"/></svg>