<svg id="Content" xmlns="http://www.w3.org/2000/svg" width="320" height="568" viewBox="0 0 320 568"><defs><style>.cls-1{fill:#fff;stroke:#ba9544;stroke-miterlimit:10;stroke-width:0.5px;}.cls-2{fill:#ba9544;}</style></defs><title>THC - Shiskaberry</title><polygon class="cls-1" points="254.24 298.696 68.157 297.991 58.764 311.537 68.157 324.842 254.24 324.525 262.694 311.612 254.24 298.696"/><polygon class="cls-2" points="68.293 297.991 58.9 311.537 68.293 324.842 91.302 324.842 91.302 297.991 68.293 297.991"/><path class="cls-2" d="M174.66406,307.09961v1.70117H171.627v7.41016h-1.82226v-7.41016h-3.03711v-1.70117Z"/><path class="cls-2" d="M176.01855,316.21094v-9.11133h1.82227v3.64453h4.24512v-3.65039h1.82226v9.11133l-1.82226.00586v-3.76563h-4.24512v3.76563Z"/><path class="cls-2" d="M186.73535,314.90137a4.55728,4.55728,0,0,1,3.24024-7.80176,4.93108,4.93108,0,0,1,3.34668,1.21484l-1.21485,1.33008a3.3611,3.3611,0,0,0-2.13183-.72851,2.59732,2.59732,0,0,0-2.72657,2.709,2.73146,2.73146,0,0,0,.75879,2.0166,2.68932,2.68932,0,0,0,1.98047.74707,3.26541,3.26541,0,0,0,2.11914-.72265l1.21485,1.33007a4.91532,4.91532,0,0,1-3.34668,1.21485A4.43165,4.43165,0,0,1,186.73535,314.90137Z"/><path class="cls-2" d="M195.36328,310.40137a.88083.88083,0,0,1,.65625-.2461.91245.91245,0,0,1,.67969.2461.83346.83346,0,0,1,.24316.61035.82368.82368,0,0,1-.24316.60742,1.039,1.039,0,0,1-1.33594,0,.82368.82368,0,0,1-.24316-.60742A.83346.83346,0,0,1,195.36328,310.40137Zm0,4.34863a.88086.88086,0,0,1,.65625-.24609.91249.91249,0,0,1,.67969.24609.83347.83347,0,0,1,.24316.61035.82366.82366,0,0,1-.24316.60742,1.039,1.039,0,0,1-1.33594,0,.82366.82366,0,0,1-.24316-.60742A.83347.83347,0,0,1,195.36328,314.75Z"/><path class="cls-2" d="M205.06348,307.09961v-.00586h1.8164v9.11719h-1.8164V309.5293l-1.21485,1.21484-1.21484-1.21484Z"/><path class="cls-2" d="M212.72266,307.10645v-.0127h1.8164v5.29687h1.22656v1.81543h-1.22656v2.00489h-1.8164v-2.00489h-4.13575v-1.81543h.06055l-.05469-.06152Zm0,5.28417V309.4873l-2.2168,2.90332Z"/><path class="cls-2" d="M217.15723,313.77539v-1.209h3.76562v1.209Z"/><path class="cls-2" d="M224.85254,307.09961v-.00586H226.669v9.11719h-1.81641V309.5293l-1.21484,1.21484-1.21485-1.21484Z"/><path class="cls-2" d="M233.39258,311.59473c.10937.04.208.081.29785.12109a1.78782,1.78782,0,0,1,.94141,1.82227,2.34,2.34,0,0,1-.88379,2.03515,4.37652,4.37652,0,0,1-4.54981,0,2.34,2.34,0,0,1-.88379-2.03515,1.78782,1.78782,0,0,1,.94141-1.82227c.08984-.04.18848-.08105.29785-.12109q-.09667-.04835-.17578-.09082a1.80173,1.80173,0,0,1-.82031-1.73145,2.49173,2.49173,0,0,1,.793-1.97363,3.57121,3.57121,0,0,1,4.24511,0,2.49173,2.49173,0,0,1,.793,1.97363,1.80175,1.80175,0,0,1-.82031,1.73145Q233.48925,311.54639,233.39258,311.59473Zm-1.91895-.82618c.53418-.01562.87793-.15625,1.03223-.41894a.97014.97014,0,0,0,0-1.03223,1.16665,1.16665,0,0,0-1.03223-.51074,1.15175,1.15175,0,0,0-1.02734.51074.95428.95428,0,0,0,0,1.03223C230.59668,310.6123,230.93848,310.75293,231.47363,310.76855Zm0,1.66993a1.35754,1.35754,0,0,0-1.02734.52246.95593.95593,0,0,0,0,1.0332,1.1533,1.1533,0,0,0,1.02734.50977,1.16825,1.16825,0,0,0,1.03223-.50977.97182.97182,0,0,0,0-1.0332A1.37874,1.37874,0,0,0,231.47363,312.43848Z"/><path class="cls-2" d="M236.752,310.94434a2.34609,2.34609,0,1,1,1.62793.65625A2.20731,2.20731,0,0,1,236.752,310.94434Zm1.60938-.42481a1.086,1.086,0,0,0,.832-.3457,1.3122,1.3122,0,0,0,0-1.72266,1.09757,1.09757,0,0,0-.83789-.34277,1.08072,1.08072,0,0,0-.82617.34277,1.31217,1.31217,0,0,0,0,1.72266A1.08454,1.08454,0,0,0,238.36133,310.51953Zm-.48633,5.69141,5.16309-9.11133h1.48144l-5.15039,9.11133Zm4.52539-.60156a2.33212,2.33212,0,1,1,1.61523.65039A2.19253,2.19253,0,0,1,242.40039,315.60938Zm1.585-.44336a1.06725,1.06725,0,0,0,.81445-.33692,1.27186,1.27186,0,0,0,0-1.67676,1.07419,1.07419,0,0,0-.82031-.33691,1.05678,1.05678,0,0,0-.80761.33691,1.2689,1.2689,0,0,0,0,1.67676A1.06367,1.06367,0,0,0,243.98535,315.166Z"/></svg>