<svg id="Layer_1" data-name="Layer 1" xmlns="http://www.w3.org/2000/svg" width="375" height="132" viewBox="0 0 375 132"><defs><style>.cls-1{fill:#fff;}</style></defs><title>meditation</title><path class="cls-1" d="M168.85554,86.47574h-1.75V74.86831h2.5073l1.62912,8.32375,1.56547-8.32375h2.41185V86.47574h-1.75V79.18292l-1.51244,7.29282h-1.40457l-1.69669-7.274Z"/><path class="cls-1" d="M180.04236,74.72831a2.77592,2.77592,0,0,1,2.78095,2.78064v6.33221a2.77489,2.77489,0,0,1-2.78095,2.78065,2.64727,2.64727,0,0,1-1.95669-.81456,2.69375,2.69375,0,0,1-.80516-1.96609V77.509a2.77594,2.77594,0,0,1,2.76185-2.78064Zm.95456,2.74792a.98876.98876,0,0,0-.9991-.9982.9783.9783,0,0,0-.70971.2897.95354.95354,0,0,0-.29576.7085V83.829a.95775.95775,0,0,0,.29576.70607.97576.97576,0,0,0,.70971.29213.99279.99279,0,0,0,.9991-.9982Z"/><path class="cls-1" d="M187.64671,74.86831a2.65038,2.65038,0,0,1,2.14427.80789,2.92014,2.92014,0,0,1,.60486,1.96v1.68669a2.69927,2.69927,0,0,1-.93395,2.08063l1.29638,5.07219H188.871l-1.06729-4.38491c-.05091.00425-.10364.00667-.15879.00667h-1.004v4.37824h-1.75V74.86831Zm1.04365,2.8a.8878.8878,0,0,0-.99638-1.01214h-1.053v3.71036h1.053a.9499.9499,0,0,0,.70728-.29576.98021.98021,0,0,0,.2891-.70971Z"/><path class="cls-1" d="M192.78193,86.47574V74.86831h4.98249V76.618h-3.23277v3.18186h2.36064v1.75033h-2.36064v3.1752h3.23277v1.75032Z"/><path class="cls-1" d="M204.68634,86.47574h-1.74972V74.86831h2.5067l1.62911,8.32375,1.56608-8.32375h2.41155V86.47574h-1.74972V79.18292l-1.51275,7.29282h-1.40426l-1.697-7.274Z"/><path class="cls-1" d="M213.14342,86.47574V74.86831h4.9825V76.618h-3.23277v3.18186h2.36063v1.75033h-2.36063v3.1752h3.23277v1.75032Z"/><path class="cls-1" d="M225.34844,83.70116a2.68293,2.68293,0,0,1-.80849,1.96,2.63687,2.63687,0,0,1-1.94064.81455h-2.74913V74.86831h2.74913a2.629,2.629,0,0,1,1.9467.81456,2.68583,2.68583,0,0,1,.80243,1.95336Zm-3.74854,1.04365h1.05335a.92864.92864,0,0,0,.70365-.30243,1.00044,1.00044,0,0,0,.28606-.7097v-6.071a.9734.9734,0,0,0-.29212-.7091.94511.94511,0,0,0-.69759-.29637H221.5999Z"/><path class="cls-1" d="M229.15274,86.47574H227.403V74.86831h1.74972Z"/><path class="cls-1" d="M232.93946,76.618h-1.85821V74.86831h5.45947V76.618h-1.85154v9.85771h-1.74972Z"/><path class="cls-1" d="M239.12439,83.809l-.42667,2.6667H236.8783l1.96609-11.60743h2.41215l1.94063,11.60743h-1.83275l-.41334-2.6667Zm.91638-6.28069-.6491,4.57521h1.2982Z"/><path class="cls-1" d="M245.41842,76.618h-1.85821V74.86831h5.45947V76.618h-1.85154v9.85771h-1.74972Z"/><path class="cls-1" d="M252.69791,86.47574h-1.74972V74.86831h1.74972Z"/><path class="cls-1" d="M257.52646,74.72831a2.77591,2.77591,0,0,1,2.78125,2.78064v6.33221a2.77487,2.77487,0,0,1-2.78125,2.78065,2.6466,2.6466,0,0,1-1.95639-.81456,2.69348,2.69348,0,0,1-.80486-1.96609V77.509a2.776,2.776,0,0,1,2.76125-2.78064Zm.95517,2.74792a.98926.98926,0,0,0-.99941-.9982.97832.97832,0,0,0-.70971.2897.95354.95354,0,0,0-.29576.7085V83.829a.95775.95775,0,0,0,.29576.70607.97578.97578,0,0,0,.70971.29213.9933.9933,0,0,0,.99941-.9982Z"/><path class="cls-1" d="M264.329,74.86831l2.3164,7.79526V74.86831h1.75032V86.47574h-1.87457l-2.40852-7.43283v7.43283h-1.74972V74.86831Z"/><path class="cls-1" d="M270.11936,84.73208h1.74972V86.4818h-1.74972Z"/></svg>