<svg id="Content" xmlns="http://www.w3.org/2000/svg" viewBox="0 0 728 90"><defs><style>.cls-1{fill:#ba9544;}</style></defs><title>Frame1 - Durga Mata</title><path class="cls-1" d="M190.74,35.73h5.56c3.52,0,5.25,2,5.25,5.53V52.59c0,3.58-1.73,5.53-5.25,5.53h-5.56Zm3.52,3.2v16h2c1.12,0,1.79-.57,1.79-2.17V41.1c0-1.6-.67-2.17-1.79-2.17Z"/><path class="cls-1" d="M210.54,35.73V53c0,1.6.71,2.18,1.83,2.18s1.82-.58,1.82-2.18V35.73h3.33V52.78c0,3.58-1.79,5.63-5.25,5.63s-5.25-2-5.25-5.63V35.73Z"/><path class="cls-1" d="M230.67,58.12a6.87,6.87,0,0,1-.32-2.75V51.85c0-2.08-.7-2.85-2.3-2.85h-1.22v9.12h-3.52V35.73h5.31c3.65,0,5.22,1.69,5.22,5.15v1.76c0,2.3-.74,3.81-2.3,4.54,1.76.74,2.33,2.43,2.33,4.77V55.4a6.45,6.45,0,0,0,.39,2.72Zm-3.84-19.19v6.88h1.38c1.31,0,2.11-.58,2.11-2.37V41.23c0-1.6-.54-2.3-1.79-2.3Z"/><path class="cls-1" d="M244.85,45.65h4.92v7.1c0,3.58-1.79,5.63-5.24,5.63s-5.25-2.05-5.25-5.63V41.1c0-3.58,1.79-5.63,5.25-5.63s5.24,2.05,5.24,5.63v2.18h-3.32v-2.4c0-1.6-.71-2.21-1.83-2.21s-1.82.61-1.82,2.21V53c0,1.6.7,2.18,1.82,2.18s1.83-.58,1.83-2.18V48.84h-1.6Z"/><path class="cls-1" d="M266.83,58.12h-3.55l-.61-4.06h-4.32l-.61,4.06h-3.23l3.59-22.39h5.15Zm-8-7.1h3.39L260.5,39.69Z"/><path class="cls-1" d="M287.66,51.63l2.4-15.9H295V58.12h-3.33V42.06L289.2,58.12h-3.33l-2.62-15.83V58.12h-3.07V35.73h4.89Z"/><path class="cls-1" d="M312.3,58.12h-3.55l-.61-4.06h-4.32l-.6,4.06H300l3.59-22.39h5.15Zm-8-7.1h3.39L306,39.69Z"/><path class="cls-1" d="M316.3,35.73h10.88v3.2H323.5V58.12H320V38.93H316.3Z"/><path class="cls-1" d="M343.5,58.12H340l-.61-4.06H335l-.61,4.06h-3.23l3.59-22.39h5.15Zm-8-7.1h3.39l-1.69-11.33Z"/><path class="cls-1" d="M362,38.67c-1.12,0-1.82.61-1.82,2.21v2.4h-3.33V41.1c0-3.58,1.79-5.63,5.25-5.63s5.24,2.05,5.24,5.63c0,7-7,9.66-7,13.34a2.58,2.58,0,0,0,0,.48h6.65v3.2H356.88V55.37c0-6.59,7-7.68,7-14.14C363.85,39.21,363.15,38.67,362,38.67Z"/></svg>