<svg id="Content" xmlns="http://www.w3.org/2000/svg" width="728" height="90" viewBox="0 0 728 90"><defs><style>.cls-1{fill:#ba9544;}</style></defs><title>Frame1 - Durga Mata</title><path class="cls-1" d="M203.76993,35.72607h5.56836c3.51953,0,5.24707,1.95215,5.24707,5.53614V52.58887c0,3.583-1.72754,5.53515-5.24707,5.53515h-5.56836Zm3.52051,3.2002V54.92383h1.9834c1.12012,0,1.792-.5752,1.792-2.17578v-11.646c0-1.60059-.67187-2.17578-1.792-2.17578Z"/><path class="cls-1" d="M223.57755,35.72607V53.00391c0,1.60058.7041,2.17675,1.82422,2.17675s1.82422-.57617,1.82422-2.17675V35.72607h3.32715v17.0542c0,3.584-1.792,5.63184-5.24708,5.63184-3.45605,0-5.248-2.04785-5.248-5.63184V35.72607Z"/><path class="cls-1" d="M243.70548,58.124a6.87839,6.87839,0,0,1-.32031-2.752V51.85254c0-2.08008-.70411-2.84766-2.30371-2.84766h-1.21582V58.124H236.3461v-22.398h5.31153c3.64746,0,5.21582,1.69629,5.21582,5.15137v1.75977c0,2.30468-.73633,3.8081-2.30371,4.54345,1.75976.73633,2.33593,2.43164,2.33593,4.76758V55.4043a6.5869,6.5869,0,0,0,.38379,2.71972Zm-3.83984-19.19775v6.87891h1.376c1.31153,0,2.11231-.57618,2.11231-2.36719V41.23c0-1.60059-.54395-2.30371-1.792-2.30371Z"/><path class="cls-1" d="M257.88126,45.645H262.809v7.103c0,3.584-1.792,5.63183-5.248,5.63183s-5.248-2.04785-5.248-5.63183v-11.646c0-3.584,1.792-5.63184,5.248-5.63184s5.248,2.04786,5.248,5.63184v2.17578h-3.32812V40.87744c0-1.59961-.7041-2.207-1.82422-2.207-1.11914,0-1.82324.60742-1.82324,2.207V52.97266c0,1.59961.7041,2.17578,1.82324,2.17578,1.12012,0,1.82422-.57617,1.82422-2.17578V48.84473h-1.59961Z"/><path class="cls-1" d="M279.86466,58.124H276.3129l-.6084-4.06347h-4.31933l-.60743,4.06347h-3.23242l3.584-22.398h5.15136Zm-8.03125-7.10351h3.3916l-1.69629-11.32666Z"/><path class="cls-1" d="M300.69669,51.62891l2.40039-15.90284h4.89551V58.124h-3.32813V42.062l-2.43164,16.062H298.9047l-2.623-15.83838V58.124h-3.07226v-22.398h4.8955Z"/><path class="cls-1" d="M325.33634,58.124h-3.55176l-.6084-4.06347h-4.31933l-.60743,4.06347H313.017l3.584-22.398h5.15136Zm-8.03125-7.10351h3.3916L319.0004,39.69385Z"/><path class="cls-1" d="M329.33731,35.72607h10.87891v3.2002h-3.67969V58.124H333.017V38.92627h-3.67969Z"/><path class="cls-1" d="M356.53556,58.124H352.9838l-.6084-4.06347h-4.31934l-.60742,4.06347h-3.23242l3.584-22.398h5.15136Zm-8.03125-7.10351h3.3916l-1.69629-11.32666Z"/><path class="cls-1" d="M375.06388,38.67041c-1.12012,0-1.82422.60742-1.82422,2.207v2.40039h-3.32715V41.10205c0-3.584,1.791-5.63184,5.24707-5.63184s5.248,2.04786,5.248,5.63184c0,7.03857-7.00782,9.6626-7.00782,13.34229a2.39515,2.39515,0,0,0,.03223.47949h6.65527V58.124h-10.1748v-2.752c0-6.5918,6.97559-7.67969,6.97559-14.14209C376.8881,39.21436,376.184,38.67041,375.06388,38.67041Z"/></svg>