<svg id="Layer_1" data-name="Layer 1" xmlns="http://www.w3.org/2000/svg" xmlns:xlink="http://www.w3.org/1999/xlink" width="970" height="250" viewBox="0 0 970 250"><defs><style>.cls-1{fill:url(#linear-gradient);}.cls-2{fill:url(#linear-gradient-2);}.cls-3{fill:url(#linear-gradient-3);}.cls-4{fill:url(#linear-gradient-4);}.cls-5{fill:url(#linear-gradient-5);}.cls-6{fill:url(#linear-gradient-6);}.cls-7{fill:url(#linear-gradient-7);}</style><linearGradient id="linear-gradient" x1="372.19922" y1="133.95483" x2="390.06152" y2="133.95483" gradientUnits="userSpaceOnUse"><stop offset="0" stop-color="#cab272"/><stop offset="0.20527" stop-color="#cdb36c"/><stop offset="0.4882" stop-color="#d4b75a"/><stop offset="0.50029" stop-color="#d4b759"/><stop offset="0.74962" stop-color="#d4b563"/><stop offset="1" stop-color="#d3b372"/></linearGradient><linearGradient id="linear-gradient-2" x1="399.26563" y1="133.71899" x2="418.70703" y2="133.71899" xlink:href="#linear-gradient"/><linearGradient id="linear-gradient-3" x1="427.95215" y1="133.71899" x2="445.6709" y2="133.71899" xlink:href="#linear-gradient"/><linearGradient id="linear-gradient-4" x1="454.38281" y1="133.71899" x2="469.76367" y2="133.71899" xlink:href="#linear-gradient"/><linearGradient id="linear-gradient-5" x1="477.81836" y1="133.95483" x2="495.68066" y2="133.95483" xlink:href="#linear-gradient"/><linearGradient id="linear-gradient-6" x1="504.80273" y1="133.71899" x2="522.66504" y2="133.71899" xlink:href="#linear-gradient"/><linearGradient id="linear-gradient-7" x1="530.74121" y1="149.62256" x2="536.38086" y2="149.62256" xlink:href="#linear-gradient"/></defs><title>frame1</title><path class="cls-1" d="M381.09961,152.89355a8.85752,8.85752,0,0,1-8.90039-8.87988V115.01611h5.5166v28.936a3.08583,3.08583,0,0,0,.9541,2.27637,3.13488,3.13488,0,0,0,2.28613.94336,3.20263,3.20263,0,0,0,3.21973-3.21973v-28.936h5.88574v28.99756a8.48126,8.48126,0,0,1-2.625,6.31641A8.74014,8.74014,0,0,1,381.09961,152.89355Z"/><path class="cls-2" d="M405.60254,115.01611l7.46484,25.12159V115.01611H418.707v37.40577h-6.041l-7.76075-23.95313v23.95313h-5.63965V115.01611Z"/><path class="cls-3" d="M436.832,115.01611a8.56244,8.56244,0,0,1,6.5625,2.6045,8.98134,8.98134,0,0,1,2.27637,6.3164v5.43408a8.688,8.688,0,0,1-2.58008,6.31641,8.431,8.431,0,0,1-6.24414,2.625H433.5918v14.10938h-5.63965V115.01611Zm3.36328,9.02344a3.25035,3.25035,0,0,0-.86914-2.36865,3.11684,3.11684,0,0,0-2.34082-.89209H433.5918v11.95557h3.39355a3.06061,3.06061,0,0,0,2.2793-.95313,3.16018,3.16018,0,0,0,.93066-2.28711Z"/><path class="cls-4" d="M469.76367,152.42188H454.38281V115.01611h5.63965v31.80713h9.74121Z"/><path class="cls-5" d="M486.71875,152.89355a8.85752,8.85752,0,0,1-8.90039-8.87988V115.01611h5.5166v28.936a3.08583,3.08583,0,0,0,.9541,2.27637,3.13489,3.13489,0,0,0,2.28614.94336,3.20263,3.20263,0,0,0,3.21972-3.21973v-28.936h5.88574v28.99756a8.48126,8.48126,0,0,1-2.625,6.31641A8.74014,8.74014,0,0,1,486.71875,152.89355Z"/><path class="cls-6" d="M513.74414,152.89355a8.92731,8.92731,0,0,1-8.94141-8.92089V123.48584a8.93119,8.93119,0,1,1,17.86231,0V127.751h-5.84473V123.3833a3.255,3.255,0,0,0-3.26074-3.26074,3.08537,3.08537,0,0,0-2.27637.95361,3.16007,3.16007,0,0,0-.94336,2.30713v20.52783a3.22093,3.22093,0,0,0,3.21973,3.24024,3.16117,3.16117,0,0,0,2.30762-.94336,3.10861,3.10861,0,0,0,.95312-2.29688v-7.3623h-3.13769v-5.63965H522.665v13.06348a8.90892,8.90892,0,0,1-8.9209,8.92089Z"/><path class="cls-7" d="M530.74121,146.80273h5.63965v5.63965h-5.63965Z"/></svg>