<svg id="Content" xmlns="http://www.w3.org/2000/svg" xmlns:xlink="http://www.w3.org/1999/xlink" width="300" height="250" viewBox="0 0 300 250"><defs><style>.cls-1{fill:#ba9544;}</style></defs><title>Frame1 - MK Ultra</title><path class="cls-1" d="M198.25293,155.21645l1.95019-12.92187h3.97754v18.20019h-2.7041V147.442L199.501,160.49477h-2.7041L194.665,147.62466v12.87011H192.169V142.29458h3.97753Z"/><path class="cls-1" d="M212.75977,153.24087l-.88379,1.66406v5.58984h-2.86036V142.29458H211.876v7.92969l3.74414-7.92969h2.86035l-3.97852,8.11133,3.97852,10.08886H215.542Z"/><path class="cls-1" d="M232.05176,142.29458v14.04c0,1.2998.57226,1.76855,1.48144,1.76855.91016,0,1.48242-.46875,1.48242-1.76855v-14.04h2.70411V156.153c0,2.91211-1.45606,4.57617-4.26368,4.57617-2.80859,0-4.26464-1.66406-4.26464-4.57617v-13.8584Z"/><path class="cls-1" d="M242.4248,142.29458h2.86036v15.59961h4.70605v2.60058H242.4248Z"/><path class="cls-1" d="M249.05469,142.29458h8.84082v2.59961h-2.99024v15.60058h-2.86035V144.89419h-2.99023Z"/><path class="cls-1" d="M267.59277,160.49477a5.61335,5.61335,0,0,1-.25976-2.23632v-2.86036c0-1.68945-.57227-2.31347-1.87207-2.31347h-.98828v7.41015h-2.85938V142.29458h4.31543c2.96484,0,4.23828,1.37793,4.23828,4.18555v1.42968c0,1.87305-.59765,3.09473-1.87207,3.69239,1.43067.59863,1.89844,1.97656,1.89844,3.874v2.80859a5.374,5.374,0,0,0,.31152,2.21Zm-3.12011-15.60058V150.484h1.11816c1.06641,0,1.7168-.46777,1.7168-1.92383v-1.79394c0-1.29981-.44239-1.87207-1.45606-1.87207Z"/><path class="cls-1" d="M283.791,160.49477H280.9043l-.49414-3.30175h-3.50977l-.49414,3.30175h-2.626l2.91211-18.20019h4.18653Zm-6.52637-5.77246h2.75586l-1.37793-9.2041Z"/><image width="1500" height="1429" transform="translate(288.96119 -218.19176) scale(0.16637)" xlink:href="../../../../../Dropbox%20(Revolution%20Strategy)/Rocio%20Ugarte/Clients/Namaste/Digital%20Ads/_Flight%202:Phase%202%20Terpene/1.%20Animated%20w:%20Packaging/5.%20Big%20Box%20300%20x%20250/300%20x%20250_Folder/Links/LargeTopDown-8282-DurgaMata2.png"/><image width="1500" height="1429" transform="translate(288.96119 54.16968) scale(0.16637)" xlink:href="../../../../../Dropbox%20(Revolution%20Strategy)/Rocio%20Ugarte/Clients/Namaste/Digital%20Ads/_Flight%202:Phase%202%20Terpene/1.%20Animated%20w:%20Packaging/5.%20Big%20Box%20300%20x%20250/300%20x%20250_Folder/Links/LargeTopDown-8220-MKUltra.png"/></svg>