<svg id="Layer_1" data-name="Layer 1" xmlns="http://www.w3.org/2000/svg" width="320" height="480" viewBox="0 0 320 480"><defs><style>.cls-1{fill:#fff;}</style></defs><title>meditation</title><path class="cls-1" d="M63.16791,288.87738H59.78412V266.43363h4.84805l3.15,16.09453,3.02695-16.09453H75.4726v22.44375H72.08881V274.77621L69.1644,288.87738H66.44858l-3.28067-14.06484Z"/><path class="cls-1" d="M84.79838,266.16293a5.36741,5.36741,0,0,1,5.37715,5.37656v12.24375a5.36542,5.36542,0,0,1-5.37715,5.37656,5.11871,5.11871,0,0,1-3.7834-1.575,5.20857,5.20857,0,0,1-1.55683-3.80156V271.53949a5.36751,5.36751,0,0,1,5.34023-5.37656Zm1.8457,5.31328a1.91183,1.91183,0,0,0-1.93183-1.93008,1.89165,1.89165,0,0,0-1.37227.56016,1.84367,1.84367,0,0,0-.57187,1.36992V283.7598A1.85189,1.85189,0,0,0,83.34,285.125a1.88671,1.88671,0,0,0,1.37227.56484,1.9196,1.9196,0,0,0,1.93183-1.93008Z"/><path class="cls-1" d="M99.5019,266.43363a5.12466,5.12466,0,0,1,4.14609,1.56211,5.6463,5.6463,0,0,1,1.16953,3.78984v3.26133a5.21922,5.21922,0,0,1-1.80586,4.023l2.50664,9.80742h-3.64922l-2.06367-8.47852c-.09844.00821-.20039.01289-.307.01289H97.55717v8.46563H94.17338V266.43363Zm2.018,5.41406a1.71661,1.71661,0,0,0-1.92657-1.957H97.55717v7.17422H99.5933a1.83669,1.83669,0,0,0,1.36758-.57188,1.89525,1.89525,0,0,0,.559-1.37226Z"/><path class="cls-1" d="M109.43119,288.87738V266.43363h9.634v3.3832H112.8144v6.15235h4.56445v3.38437H112.8144V285.493h6.25078v3.38438Z"/><path class="cls-1" d="M132.44916,288.87738H129.066V266.43363h4.84687l3.15,16.09453,3.02813-16.09453h4.66289v22.44375h-3.3832V274.77621l-2.925,14.10117h-2.71524l-3.28125-14.06484Z"/><path class="cls-1" d="M148.80151,288.87738V266.43363h9.634v3.3832h-6.25078v6.15235h4.56445v3.38437h-4.56445V285.493h6.25078v3.38438Z"/><path class="cls-1" d="M172.40072,283.51254a5.18757,5.18757,0,0,1-1.56328,3.78984,5.09847,5.09847,0,0,1-3.75234,1.575h-5.31563V266.43363h5.31563a5.0834,5.0834,0,0,1,3.76406,1.575,5.19324,5.19324,0,0,1,1.55156,3.77695Zm-7.248,2.018h2.03672a1.79555,1.79555,0,0,0,1.36054-.58476,1.9344,1.9344,0,0,0,.55313-1.37227V271.8348a1.88214,1.88214,0,0,0-.56485-1.37109,1.82742,1.82742,0,0,0-1.34882-.573h-2.03672Z"/><path class="cls-1" d="M179.75658,288.87738h-3.3832V266.43363h3.3832Z"/><path class="cls-1" d="M187.07846,269.81683h-3.593v-3.3832h10.55625v3.3832h-3.58008v19.06055h-3.3832Z"/><path class="cls-1" d="M199.03744,283.72113l-.825,5.15625h-3.518l3.80157-22.44375h4.66406l3.75234,22.44375h-3.54375l-.79922-5.15625Zm1.77188-12.14414-1.25508,8.84648h2.51016Z"/><path class="cls-1" d="M211.20737,269.81683h-3.593v-3.3832h10.55625v3.3832h-3.58008v19.06055h-3.3832Z"/><path class="cls-1" d="M225.28276,288.87738h-3.38321V266.43363h3.38321Z"/><path class="cls-1" d="M234.61908,266.16293a5.36741,5.36741,0,0,1,5.37774,5.37656v12.24375a5.36542,5.36542,0,0,1-5.37774,5.37656,5.11741,5.11741,0,0,1-3.78281-1.575,5.208,5.208,0,0,1-1.55625-3.80156V271.53949a5.36752,5.36752,0,0,1,5.33906-5.37656Zm1.84688,5.31328a1.91281,1.91281,0,0,0-1.93242-1.93008,1.89165,1.89165,0,0,0-1.37227.56016,1.84367,1.84367,0,0,0-.57187,1.36992V283.7598a1.85189,1.85189,0,0,0,.57187,1.36524,1.88671,1.88671,0,0,0,1.37227.56484,1.92059,1.92059,0,0,0,1.93242-1.93008Z"/><path class="cls-1" d="M247.77221,266.43363l4.47891,15.07266V266.43363h3.38437v22.44375h-3.62461l-4.657-14.37188v14.37188h-3.3832V266.43363Z"/><path class="cls-1" d="M258.9683,285.50589h3.38321v3.38321H258.9683Z"/></svg>