<svg id="Content" xmlns="http://www.w3.org/2000/svg" xmlns:xlink="http://www.w3.org/1999/xlink" viewBox="0 0 728 360"><defs><style>.cls-1{fill:#ba9544;}.cls-2{fill:#fff;stroke:#ba9544;stroke-miterlimit:10;stroke-width:0.48px;}.cls-3{clip-path:url(#clip-path);}</style><clipPath id="clip-path"><polygon class="cls-1" points="397.55 237.81 408.7 253.61 436.09 253.63 436.09 221.73 408.7 221.72 397.55 237.81"/></clipPath></defs><title>CBD - Daytime CBD</title><polygon class="cls-2" points="629.43 222.53 408.46 221.69 397.31 237.77 408.46 253.57 629.43 253.2 639.47 237.86 629.43 222.53"/><polygon class="cls-1" points="397.55 237.81 408.7 253.61 436.09 253.63 436.09 221.73 408.7 221.72 397.55 237.81"/><g class="cls-3"><rect class="cls-1" x="395.08" y="219.26" width="16.3" height="36.84"/></g><path class="cls-1" d="M527.13,243.07a5.41,5.41,0,0,1,3.85-9.26,5.86,5.86,0,0,1,4,1.44l-1.44,1.58A4,4,0,0,0,531,236a3.25,3.25,0,1,0,0,6.5,3.91,3.91,0,0,0,2.52-.86l1.44,1.58a5.85,5.85,0,0,1-4,1.45A5.3,5.3,0,0,1,527.13,243.07Z"/><path class="cls-1" d="M545,238.92a3.07,3.07,0,0,1-1.76,5.71h-6.09V233.81h5.75q2.73.16,2.88,3.18A2.24,2.24,0,0,1,545,238.92Zm-5.67-.77h3a1.24,1.24,0,0,0,1.35-1.35q0-.8-1.32-.84h-3.05Zm0,4.79h3.53a1.42,1.42,0,0,0,1.56-1.57c0-.69-.54-1.05-1.54-1.08h-3.55Z"/><path class="cls-1" d="M548.62,244.63V233.8h4.17c3.37,0,5.05,1.8,5.05,5.42s-1.68,5.41-5.05,5.41Zm4.17-2.16q2.88,0,2.89-3.25T552.79,236h-2v6.5Z"/><path class="cls-1" d="M560.26,237.73a1,1,0,0,1,.78-.3,1.09,1.09,0,0,1,.81.3,1.07,1.07,0,0,1,0,1.44,1.11,1.11,0,0,1-.8.29,1.08,1.08,0,0,1-.79-.29,1,1,0,0,1,0-1.44Zm0,5.16a1.06,1.06,0,0,1,.78-.29,1.13,1.13,0,0,1,.81.29,1.08,1.08,0,0,1,0,1.45,1.11,1.11,0,0,1-.8.29,1.08,1.08,0,0,1-.79-.29,1.05,1.05,0,0,1,0-1.45Z"/><path class="cls-1" d="M576.79,238.6q0,3.47-1.3,4.8a3.65,3.65,0,0,1-3.13,1.18,4.45,4.45,0,0,1-2.9-1.37l1.21-1.33a3.76,3.76,0,0,0,1.81.62A1.91,1.91,0,0,0,574,242a2.88,2.88,0,0,0,.8-1.77,3.35,3.35,0,0,1-2.24.72,3.6,3.6,0,0,1-2.67-1.24,3.7,3.7,0,0,1-.63-2.71,3.53,3.53,0,0,1,1.25-2.45,3.8,3.8,0,0,1,3-.75,3.49,3.49,0,0,1,2.43,1.43A6.08,6.08,0,0,1,576.79,238.6Zm-2.16-1.19c0-1-.63-1.53-1.73-1.57s-1.69.52-1.73,1.44a1.73,1.73,0,1,0,3.46.13Z"/><path class="cls-1" d="M578.71,241.73V240.3h4.47v1.43Z"/><path class="cls-1" d="M587.85,233.81H590v10.83h-2.15v-7.94l-1.45,1.44L585,236.69Z"/><path class="cls-1" d="M598.9,239.14l.35.15a2.11,2.11,0,0,1,1.12,2.16,2.78,2.78,0,0,1-1.2,2.24,4.39,4.39,0,0,1-2.78.94,6.34,6.34,0,0,1-2.51-.44,5.4,5.4,0,0,1-1.73-1.15l1.44-1.44a3.47,3.47,0,0,0,2.45,1c1,0,1.56-.21,1.8-.62a1.12,1.12,0,0,0,0-1.22c-.24-.41-1.08-.64-2.51-.69v-2c1.43.1,2.27-.06,2.51-.46a1.14,1.14,0,0,0,0-1.23c-.24-.41-.84-.61-1.8-.61a2.56,2.56,0,0,0-2.09.86l-1.44-1.44a4.94,4.94,0,0,1,1.55-1.08,6,6,0,0,1,2.33-.36,3.84,3.84,0,0,1,2.64.93,2.91,2.91,0,0,1,1.05,2.24,2.17,2.17,0,0,1-1,2.06Z"/><path class="cls-1" d="M602.75,238.37a2.71,2.71,0,0,1,1.94-4.64,2.71,2.71,0,1,1-1.94,4.64Zm1.92-.5a1.28,1.28,0,0,0,1-.41,1.45,1.45,0,0,0,.39-1,1.41,1.41,0,0,0-.39-1,1.39,1.39,0,0,0-2,0,1.4,1.4,0,0,0-.38,1,1.44,1.44,0,0,0,.38,1A1.29,1.29,0,0,0,604.67,237.87Zm-.58,6.76,6.13-10.82H612l-6.12,10.82Zm5.37-.72a2.61,2.61,0,0,1-.77-1.92,2.63,2.63,0,0,1,2.69-2.69,2.61,2.61,0,0,1,1.92.77,2.64,2.64,0,0,1,.77,1.92,2.61,2.61,0,0,1-.77,1.92,2.57,2.57,0,0,1-1.92.77A2.6,2.6,0,0,1,609.46,243.91Zm1.89-.53a1.25,1.25,0,0,0,1-.4,1.39,1.39,0,0,0,.38-1,1.41,1.41,0,0,0-.38-1,1.36,1.36,0,0,0-1.93,0,1.41,1.41,0,0,0-.38,1,1.39,1.39,0,0,0,.38,1A1.25,1.25,0,0,0,611.35,243.38Z"/></svg>