<svg id="Content" xmlns="http://www.w3.org/2000/svg" xmlns:xlink="http://www.w3.org/1999/xlink" viewBox="0 0 728 360"><defs><style>.cls-1{fill:#ba9544;}.cls-2{fill:#fff;stroke:#ba9544;stroke-miterlimit:10;stroke-width:0.5px;}.cls-3{clip-path:url(#clip-path);}</style><clipPath id="clip-path"><polygon class="cls-1" points="391.19 239.53 402.93 256.16 403.16 256.18 403.16 222.6 402.93 222.59 391.19 239.53"/></clipPath></defs><title>CBD - Sensi Star</title><polygon class="cls-2" points="635.28 223.44 402.67 222.56 390.93 239.49 402.67 256.12 635.28 255.72 645.85 239.58 635.28 223.44"/><polygon class="cls-1" points="391.19 239.53 402.93 256.16 403.16 256.18 403.16 222.6 402.93 222.59 391.19 239.53"/><g class="cls-3"><rect class="cls-1" x="388.59" y="220" width="17.16" height="38.78"/></g><path class="cls-1" d="M527.59,245.08a5.69,5.69,0,0,1,4-9.75,6.16,6.16,0,0,1,4.18,1.51l-1.52,1.67a4.17,4.17,0,0,0-2.66-.91,3.24,3.24,0,0,0-3.41,3.38,3.38,3.38,0,0,0,.95,2.52,3.33,3.33,0,0,0,2.47.94,4.1,4.1,0,0,0,2.65-.91l1.52,1.67a6.14,6.14,0,0,1-4.18,1.51A5.54,5.54,0,0,1,527.59,245.08Z"/><path class="cls-1" d="M546.36,240.71a3.23,3.23,0,0,1-1.85,6H538.1V235.33h6q2.88.16,3,3.35A2.41,2.41,0,0,1,546.36,240.71Zm-6-.81h3.19a1.29,1.29,0,0,0,1.42-1.42c0-.56-.49-.85-1.39-.88h-3.22Zm0,5h3.72a1.49,1.49,0,0,0,1.64-1.65c0-.73-.56-1.11-1.61-1.14h-3.75Z"/><path class="cls-1" d="M550.22,246.71V235.32h4.38q5.32,0,5.32,5.7c0,3.8-1.77,5.69-5.32,5.69Zm4.38-2.27c2,0,3-1.14,3-3.42s-1-3.42-3-3.42h-2.11v6.84Z"/><path class="cls-1" d="M567.78,239.45a1.11,1.11,0,0,1,.82-.31,1.18,1.18,0,0,1,.85.31,1.06,1.06,0,0,1,.3.77,1,1,0,0,1-.3.75,1.12,1.12,0,0,1-.84.31,1.09,1.09,0,0,1-.83-.31,1,1,0,0,1-.31-.75A1,1,0,0,1,567.78,239.45Zm0,5.44a1.07,1.07,0,0,1,.82-.31,1.14,1.14,0,0,1,.85.31,1,1,0,0,1,.3.76,1,1,0,0,1-.3.76,1.15,1.15,0,0,1-.84.3,1.13,1.13,0,0,1-.83-.3,1,1,0,0,1-.31-.76A1,1,0,0,1,567.78,244.89Z"/><path class="cls-1" d="M584.07,238.59l-4.4,2.43,4.4,2.43v1.75l-7.2-4v-.49l7.2-3.91Z"/><path class="cls-1" d="M593.93,235.33h2.27v11.39h-2.27v-8.35l-1.52,1.52-1.52-1.52Z"/></svg>