<svg id="Content" xmlns="http://www.w3.org/2000/svg" xmlns:xlink="http://www.w3.org/1999/xlink" width="640" height="1136" viewBox="0 0 640 1136"><defs><style>.cls-1{fill:#ba9544;}.cls-2{fill:#fff;stroke:#ba9544;stroke-miterlimit:10;}.cls-3{clip-path:url(#clip-path);}</style><clipPath id="clip-path"><polygon class="cls-1" points="117.126 712.822 135.913 739.434 136.282 739.467 136.282 685.738 135.913 685.726 117.126 712.822"/></clipPath></defs><title>CBD - Ultra Sour</title><polygon class="cls-2" points="507.668 687.076 135.504 685.666 116.717 712.758 135.504 739.37 507.668 738.736 524.577 712.908 507.668 687.076"/><polygon class="cls-1" points="117.126 712.822 135.913 739.434 136.282 739.467 136.282 685.738 135.913 685.726 117.126 712.822"/><g class="cls-3"><rect class="cls-1" x="112.97097" y="681.57292" width="27.45672" height="62.04581"/></g><path class="cls-1" d="M335.36542,721.69645a9.11408,9.11408,0,0,1,6.48047-15.60351,9.86032,9.86032,0,0,1,6.69336,2.42969l-2.42871,2.66015a6.72118,6.72118,0,0,0-4.26465-1.457,5.19325,5.19325,0,0,0-5.4541,5.417,5.46348,5.46348,0,0,0,1.51855,4.03321,5.37788,5.37788,0,0,0,3.96,1.49414,6.53261,6.53261,0,0,0,4.24024-1.44532l2.42871,2.66016a9.82589,9.82589,0,0,1-6.69336,2.42969A8.86306,8.86306,0,0,1,335.36542,721.69645Z"/><path class="cls-1" d="M365.40058,714.70622a5.21725,5.21725,0,0,1,2.53808,4.166q-.24317,5.1504-5.50293,5.45411l-10.25195-.01172v-18.209h9.66895q4.604.26661,4.85937,5.35645Q366.62714,713.89226,365.40058,714.70622ZM355.84,713.40641h5.10156a2.057,2.057,0,0,0,2.25977-2.27148q-.06006-1.3374-2.22266-1.40918H355.84Zm0,8.06543h5.95215a2.37867,2.37867,0,0,0,2.624-2.63574q-.06152-1.749-2.58691-1.82226H355.84Z"/><path class="cls-1" d="M371.57148,724.31462v-18.2334H378.593q8.50342,0,8.50293,9.123,0,9.10986-8.50293,9.11035Zm7.02148-3.63184q4.84717-.01171,4.8584-5.47851-.01171-5.46681-4.8584-5.4668h-3.377v10.94531Z"/><path class="cls-1" d="M399.66913,712.69548a1.75788,1.75788,0,0,1,1.31153-.49219,1.82429,1.82429,0,0,1,1.36035.49219,1.6685,1.6685,0,0,1,.48632,1.2207,1.64733,1.64733,0,0,1-.48632,1.21484,2.07807,2.07807,0,0,1-2.67188,0,1.64734,1.64734,0,0,1-.48633-1.21484A1.66851,1.66851,0,0,1,399.66913,712.69548Zm0,8.69726a1.7611,1.7611,0,0,1,1.31153-.49121,1.82767,1.82767,0,0,1,1.36035.49121,1.66919,1.66919,0,0,1,.48632,1.22168,1.64514,1.64514,0,0,1-.48632,1.21387,2.07807,2.07807,0,0,1-2.67188,0,1.64515,1.64515,0,0,1-.48633-1.21387A1.6692,1.6692,0,0,1,399.66913,721.39274Z"/><path class="cls-1" d="M425.73651,711.31657l-7.04492,3.8877,7.04492,3.88671v2.794l-11.51562-6.3291v-.78906l11.51562-6.24414Z"/><path class="cls-1" d="M441.51581,706.09294v-.01172h3.63281v18.2334h-3.63281V710.95231l-2.42969,2.42969-2.42871-2.42969Z"/></svg>