<svg id="Content" xmlns="http://www.w3.org/2000/svg" xmlns:xlink="http://www.w3.org/1999/xlink" width="640" height="1136" viewBox="0 0 640 1136"><defs><style>.cls-1{fill:#ba9544;}.cls-2{fill:#fff;stroke:#ba9544;stroke-miterlimit:10;}.cls-3{clip-path:url(#clip-path);}</style><clipPath id="clip-path"><polygon class="cls-1" points="117.126 712.974 135.913 739.586 136.282 739.619 136.282 685.89 135.913 685.878 117.126 712.974"/></clipPath></defs><title>CBD - Sensi Star</title><polygon class="cls-2" points="507.669 687.228 135.504 685.818 116.717 712.91 135.504 739.521 507.669 738.888 524.577 713.06 507.669 687.228"/><polygon class="cls-1" points="117.126 712.974 135.913 739.586 136.282 739.619 136.282 685.89 135.913 685.878 117.126 712.974"/><g class="cls-3"><rect class="cls-1" x="112.97084" y="681.72483" width="27.45674" height="62.04585"/></g><path class="cls-1" d="M335.366,721.85173a9.11409,9.11409,0,0,1,6.48046-15.60352,9.86035,9.86035,0,0,1,6.69336,2.42969l-2.42871,2.66016a6.72119,6.72119,0,0,0-4.26465-1.457,5.19327,5.19327,0,0,0-5.4541,5.417,5.46345,5.46345,0,0,0,1.51856,4.0332,5.37787,5.37787,0,0,0,3.96,1.49414,6.53263,6.53263,0,0,0,4.24023-1.44531l2.42871,2.66015a9.82589,9.82589,0,0,1-6.69336,2.42969A8.86307,8.86307,0,0,1,335.366,721.85173Z"/><path class="cls-1" d="M365.4012,714.86149a5.21723,5.21723,0,0,1,2.53809,4.166q-.24317,5.15039-5.502,5.4541l-10.25293-.01172v-18.209h9.66895q4.604.2666,4.85938,5.35644Q366.62776,714.04753,365.4012,714.86149Zm-9.56055-1.2998h5.10157a2.057,2.057,0,0,0,2.25976-2.27149q-.06006-1.3374-2.22265-1.40918h-5.13868Zm0,8.06543h5.95215a2.37868,2.37868,0,0,0,2.624-2.63574q-.06153-1.749-2.58692-1.82227h-5.98926Z"/><path class="cls-1" d="M371.5721,724.46989v-18.2334h7.02148q8.50343,0,8.50293,9.12305,0,9.10986-8.50293,9.11035Zm7.02148-3.63183q4.84718-.01173,4.8584-5.47852-.01172-5.4668-4.8584-5.4668h-3.37695v10.94532Z"/><path class="cls-1" d="M399.66976,712.85075a1.75791,1.75791,0,0,1,1.31152-.49219,1.8243,1.8243,0,0,1,1.36035.49219,1.66852,1.66852,0,0,1,.48633,1.2207,1.64737,1.64737,0,0,1-.48633,1.21485,2.07805,2.07805,0,0,1-2.67187,0,1.64737,1.64737,0,0,1-.48633-1.21485A1.66852,1.66852,0,0,1,399.66976,712.85075Zm0,8.69727a1.76109,1.76109,0,0,1,1.31152-.49121,1.82764,1.82764,0,0,1,1.36035.49121,1.66918,1.66918,0,0,1,.48633,1.22168,1.64512,1.64512,0,0,1-.48633,1.21386,2.07805,2.07805,0,0,1-2.67187,0,1.64512,1.64512,0,0,1-.48633-1.21386A1.66918,1.66918,0,0,1,399.66976,721.548Z"/><path class="cls-1" d="M425.73714,711.47184l-7.04492,3.8877,7.04492,3.88672v2.79394l-11.51563-6.3291V714.922l11.51563-6.24414Z"/><path class="cls-1" d="M441.51644,706.24821v-.01172h3.63281v18.2334h-3.63281v-13.3623l-2.42969,2.42968-2.42871-2.42968Z"/></svg>