<svg id="Content" xmlns="http://www.w3.org/2000/svg" xmlns:xlink="http://www.w3.org/1999/xlink" width="640" height="1136" viewBox="0 0 640 1136"><defs><style>.cls-1{fill:#ba9544;}.cls-2{fill:#fff;stroke:#ba9544;stroke-miterlimit:10;}.cls-3{clip-path:url(#clip-path);}</style><clipPath id="clip-path"><polygon class="cls-1" points="117.126 712.822 135.913 739.434 136.282 739.467 136.282 685.738 135.913 685.726 117.126 712.822"/></clipPath></defs><title>CBD - Shishkaberry</title><polygon class="cls-2" points="507.669 687.076 135.504 685.666 116.717 712.758 135.504 739.37 507.669 738.736 524.577 712.908 507.669 687.076"/><polygon class="cls-1" points="117.126 712.822 135.913 739.434 136.282 739.467 136.282 685.738 135.913 685.726 117.126 712.822"/><g class="cls-3"><rect class="cls-1" x="112.97084" y="681.57293" width="27.45674" height="62.04585"/></g><path class="cls-1" d="M335.367,721.69938a9.11408,9.11408,0,0,1,6.48047-15.60351,9.8603,9.8603,0,0,1,6.69336,2.42969l-2.42871,2.66015a6.72118,6.72118,0,0,0-4.26465-1.457,5.19325,5.19325,0,0,0-5.4541,5.417,5.46348,5.46348,0,0,0,1.51855,4.03321,5.37789,5.37789,0,0,0,3.96,1.49414,6.5326,6.5326,0,0,0,4.24023-1.44532l2.42871,2.66016a9.82589,9.82589,0,0,1-6.69336,2.42969A8.86311,8.86311,0,0,1,335.367,721.69938Z"/><path class="cls-1" d="M365.4022,714.70915a5.21722,5.21722,0,0,1,2.53808,4.166q-.24315,5.1504-5.50195,5.45411l-10.25293-.01172v-18.209h9.66895q4.604.26661,4.85937,5.35645Q366.62876,713.89519,365.4022,714.70915Zm-9.56055-1.29981h5.10156a2.057,2.057,0,0,0,2.25977-2.27148q-.06006-1.3374-2.22266-1.40918h-5.13867Zm0,8.06543h5.95215a2.37867,2.37867,0,0,0,2.624-2.63574q-.06152-1.749-2.58691-1.82226h-5.98926Z"/><path class="cls-1" d="M371.5731,724.31755v-18.2334h7.02148q8.50342,0,8.50293,9.123,0,9.10986-8.50293,9.11035Zm7.02148-3.63184q4.84717-.01171,4.8584-5.47851-.01171-5.46681-4.8584-5.4668h-3.377v10.94531Z"/><path class="cls-1" d="M391.16782,712.69841a1.75791,1.75791,0,0,1,1.31153-.49219,1.82428,1.82428,0,0,1,1.36035.49219,1.66851,1.66851,0,0,1,.48633,1.2207,1.64735,1.64735,0,0,1-.48633,1.21484,2.07807,2.07807,0,0,1-2.67188,0,1.64734,1.64734,0,0,1-.48632-1.21484A1.6685,1.6685,0,0,1,391.16782,712.69841Zm0,8.69726a1.76113,1.76113,0,0,1,1.31153-.49121,1.82765,1.82765,0,0,1,1.36035.49121,1.6692,1.6692,0,0,1,.48633,1.22168,1.64515,1.64515,0,0,1-.48633,1.21387,2.07807,2.07807,0,0,1-2.67188,0,1.64514,1.64514,0,0,1-.48632-1.21387A1.66919,1.66919,0,0,1,391.16782,721.39567Z"/><path class="cls-1" d="M417.23521,711.3195l-7.04493,3.8877,7.04493,3.88671v2.79395l-11.51563-6.3291v-.78906l11.51563-6.24414Z"/><path class="cls-1" d="M433.0145,706.09587v-.01172h3.63282v18.2334H433.0145V710.95524l-2.42968,2.42969-2.42872-2.42969Z"/></svg>