<svg id="Content" xmlns="http://www.w3.org/2000/svg" xmlns:xlink="http://www.w3.org/1999/xlink" viewBox="0 0 728 360"><defs><style>.cls-1{fill:url(#New_Gradient_Swatch_2);}.cls-2{fill:url(#New_Gradient_Swatch_1);}.cls-3{fill:url(#linear-gradient);}.cls-4{fill:url(#linear-gradient-2);}.cls-5{fill:url(#linear-gradient-3);}.cls-6{fill:url(#linear-gradient-4);}.cls-7{fill:url(#linear-gradient-5);}.cls-8{fill:url(#linear-gradient-6);}.cls-9{fill:url(#linear-gradient-7);}.cls-10{fill:url(#New_Gradient_Swatch_2-2);}.cls-11{fill:#a89255;}.cls-12{clip-path:url(#clip-path);}.cls-13{fill:#fff;}</style><linearGradient id="New_Gradient_Swatch_2" x1="524.69" y1="317.81" x2="730.77" y2="317.81" gradientUnits="userSpaceOnUse"><stop offset="0" stop-color="#a88a34"/><stop offset="0.19" stop-color="#caaf67"/><stop offset="0.46" stop-color="#a08a4a"/><stop offset="0.76" stop-color="#caaf67"/><stop offset="1" stop-color="#957f2e"/></linearGradient><linearGradient id="New_Gradient_Swatch_1" x1="612.08" y1="55.18" x2="695.84" y2="55.18" gradientUnits="userSpaceOnUse"><stop offset="0" stop-color="#a88a34"/><stop offset="0.49" stop-color="#caaf67"/><stop offset="1" stop-color="#957f2e"/></linearGradient><linearGradient id="linear-gradient" x1="697.11" y1="236.02" x2="697.11" y2="95.54" gradientUnits="userSpaceOnUse"><stop offset="0" stop-color="#a88a34"/><stop offset="0.5" stop-color="#caaf67"/><stop offset="1" stop-color="#957f2e"/></linearGradient><linearGradient id="linear-gradient-2" x1="658.19" y1="162.88" x2="658.19" y2="59.16" xlink:href="#linear-gradient"/><linearGradient id="linear-gradient-3" x1="671.37" y1="198.46" x2="671.37" y2="61.96" xlink:href="#linear-gradient"/><linearGradient id="linear-gradient-4" x1="684.2" y1="201.57" x2="684.2" y2="82.09" xlink:href="#linear-gradient"/><linearGradient id="linear-gradient-5" x1="611.89" y1="117.8" x2="611.89" y2="2.36" xlink:href="#linear-gradient"/><linearGradient id="linear-gradient-6" x1="642.56" y1="146.97" x2="642.56" y2="43.85" xlink:href="#linear-gradient"/><linearGradient id="linear-gradient-7" x1="626.9" y1="131.57" x2="626.9" y2="27.84" xlink:href="#linear-gradient"/><linearGradient id="New_Gradient_Swatch_2-2" x1="702.66" y1="95.25" x2="708.43" y2="95.25" xlink:href="#New_Gradient_Swatch_2"/><clipPath id="clip-path"><polygon class="cls-1" points="536.95 299.42 524.69 317.81 536.95 336.2 730.77 336.2 730.77 299.42 536.95 299.42"/></clipPath></defs><title>CTA2</title><path class="cls-2" d="M648.87,83.25c.91-.27,2.56,1.28,2.67,1.28a2,2,0,0,0,.55-1.28c0-.54-.39-1.6-.47-2.24a10.62,10.62,0,0,0-.38-1.86c-.15-.42-1.13-.61-1.66-.93a8.86,8.86,0,0,1-1.34-.93,4.3,4.3,0,0,1-.57-1.94,7.09,7.09,0,0,0-.32-2c-.18-.35-.65-.59-1-.91a1.39,1.39,0,0,1-.33-.85c.25-.08.33.56.61.61s.27.29.71.44.46.37.52.78.56,1.82.72,2.39.34,1,.9,1,.49.31,1.16.26a3.58,3.58,0,0,1,1.59.31c.36.12.81.13,1-.12s-.11-1.25-.11-1.25c-.23,0-.27-.31-.36-.6s.06-.31.06-.31a1.22,1.22,0,1,1,2.32,0s.14,0,0,.31-.13.6-.36.6c0,0-.26,1-.1,1.25s.6.24,1,.12a3.55,3.55,0,0,1,1.59-.31c.66,0,.59-.24,1.15-.26s.74-.45.9-1,.67-2,.73-2.39.07-.62.51-.78.43-.39.71-.44.37-.69.61-.61a1.39,1.39,0,0,1-.33.85c-.32.32-.79.56-1,.91a7.93,7.93,0,0,0-.32,2,4.19,4.19,0,0,1-.56,1.94,8.86,8.86,0,0,1-1.34.93c-.53.32-1.52.51-1.66.93a11.54,11.54,0,0,0-.39,1.86c-.07.64-.46,1.7-.46,2.24a2,2,0,0,0,.55,1.28c.11,0,1.76-1.55,2.67-1.28s.55,1.54-.4,2.49A4.1,4.1,0,0,1,656.7,87a9.55,9.55,0,0,1,1.48.28,15.65,15.65,0,0,1,4.25,2.42,15.24,15.24,0,0,0,3.78,2.21l.37.08c.13-.11.81-.5.81-.5a15.42,15.42,0,0,0,1.71.73l-4.36-3.36,8.64,3.76.42.17,5.22.09c1.38,0,2.73,0,4-.13a37.18,37.18,0,0,0-3.28-1.83l-4.58-2.24-.47,0-10-.6,6.49-1.13L667,85.5l7.2,0a24.77,24.77,0,0,0,4.91-.54l-6.8-1.3,10-.44a10.73,10.73,0,0,0,1.67-.21l-.76.09L689.74,80a59.46,59.46,0,0,0,6.1-3.35,63.4,63.4,0,0,0-7.13-.43l-7.48,0,.83-.28a9.47,9.47,0,0,0-1.76.55l-8.73,3.63,5.28-3.93h0l-.12-.91-1-1.58a31.69,31.69,0,0,0,7.19-7.43l-7,3.38,7.18-6a12.16,12.16,0,0,0,2.29-2.48c.92-1.4,1.78-2.84,2.57-4.29l-2.23,2.2,2.67-5.81a75.65,75.65,0,0,0,3.95-10.92,93.6,93.6,0,0,0-10.59,6.82l-5.22,4,1.66-2.6c-1.35,1.15-2.66,2.37-3.91,3.63a11.81,11.81,0,0,0-1.92,2.7l-3.82,7.31,1.36-6.67a31.06,31.06,0,0,0-3,3.62l-.66.92-.61-.41a1,1,0,0,0-.1.15l-5.24,10,3.09-10.81a34.42,34.42,0,0,0,1-13.57l-3.62,6.72L662.47,46a13,13,0,0,0,.28-4,64.8,64.8,0,0,0-1.39-8.15l-.48,4L659.31,32A97.71,97.71,0,0,0,654,17.51,98.11,98.11,0,0,0,648.6,32L647,37.79l-.47-4A64.8,64.8,0,0,0,645.17,42a13.35,13.35,0,0,0,.27,4l1.75,8.08-3.61-6.72a34.23,34.23,0,0,0,1,13.57l3.09,10.81-5.25-10-.09-.15-.61.41-.67-.92a31,31,0,0,0-3-3.62l1.36,6.67-3.82-7.31a11.59,11.59,0,0,0-1.93-2.7c-1.24-1.26-2.55-2.47-3.9-3.62l1.67,2.6-5.24-4a91.85,91.85,0,0,0-10.59-6.82,76.86,76.86,0,0,0,3.95,10.92l2.68,5.81L620,56.9c.78,1.45,1.64,2.89,2.57,4.29a11.82,11.82,0,0,0,2.28,2.48l7.19,6-7-3.38a31.84,31.84,0,0,0,7.18,7.43l-.95,1.58-.13.91h0l5.28,3.93-8.72-3.63a9.47,9.47,0,0,0-1.76-.55l.83.28-7.48,0a63.25,63.25,0,0,0-7.13.43A59.27,59.27,0,0,0,618.17,80l6.58,3.09L624,83a10.57,10.57,0,0,0,1.67.21l10,.44-6.81,1.3a24.87,24.87,0,0,0,4.92.54l7.22,0-4.23,1.37L643.23,88l-10,.6-.46,0-4.58,2.24a37.4,37.4,0,0,0-3.29,1.83c1.26.09,2.61.15,4,.13l5.22-.09.43-.17,8.64-3.76-4.36,3.36a16.27,16.27,0,0,0,1.71-.73s.68.39.81.5l.37-.08a15.6,15.6,0,0,0,3.78-2.21,15.76,15.76,0,0,1,4.24-2.42,9.7,9.7,0,0,1,1.49-.28,4.12,4.12,0,0,1-2-1.22C648.32,84.79,648,83.52,648.87,83.25Z"/><polygon class="cls-3" points="702.11 100.9 702.11 98.36 692.1 98.37 692.1 111.99 702.1 111.99 702.1 109.44 694.83 109.44 694.83 106.34 700.29 106.34 700.29 103.81 694.83 103.81 694.83 100.9 702.11 100.9"/><path class="cls-4" d="M656.83,98.36,651.38,112h2.91l.82-2.09h6.18l.81,2.09H665l-5.44-13.62Zm-.63,8.81,2.07-5.18,2,5.18Z"/><path class="cls-5" d="M675.14,104.94a6.8,6.8,0,0,0-3.13-1.13,3.59,3.59,0,0,1-2.09-.82,1.07,1.07,0,0,1,0-1.32c.3-.51,1-.77,2.09-.77a3.1,3.1,0,0,1,2.54,1.09l1.82-1.82a6.5,6.5,0,0,0-2-1.36,7.7,7.7,0,0,0-2.95-.45,5.43,5.43,0,0,0-3.18,1.09,3.38,3.38,0,0,0-1.55,2.9,3,3,0,0,0,1.36,2.82,7.26,7.26,0,0,0,3,1c1.21.12,2,.44,2.27,1a1.45,1.45,0,0,1,0,1.55c-.3.51-1.06.77-2.27.77a4.32,4.32,0,0,1-3.09-1.27L666.19,110a7,7,0,0,0,2.18,1.45,8.17,8.17,0,0,0,3.18.55,5.54,5.54,0,0,0,3.5-1.18,3.51,3.51,0,0,0,1.5-2.82A3.43,3.43,0,0,0,675.14,104.94Z"/><polygon class="cls-6" points="678.3 100.9 682.84 100.9 682.84 111.99 685.57 111.99 685.57 100.9 690.11 100.9 690.11 98.36 678.3 98.36 678.3 100.9"/><polygon class="cls-7" points="615.25 106.9 606.71 98.36 605.8 98.36 605.8 111.99 608.53 111.99 608.53 103.54 616.98 111.99 617.98 111.99 617.98 98.36 615.25 98.36 615.25 106.9"/><polygon class="cls-8" points="642.56 105.08 636.65 98.36 635.74 98.36 635.74 111.99 638.47 111.99 638.47 104.08 642.56 108.62 646.65 104.08 646.66 111.99 649.38 111.99 649.38 98.36 648.47 98.36 642.56 105.08"/><path class="cls-9" d="M625.54,98.36,620.09,112H623l.82-2.09H630l.82,2.09h2.9l-5.44-13.62Zm-.64,8.81L627,102l2,5.18Z"/><path class="cls-10" d="M704.07,94.24v2.47h-.49V94.24h-.92v-.45H705v.45Zm3.9,2.47V94.53l-.92,1.88h-.32l-.92-1.88v2.18h-.46V93.79h.58l1,1.94,1-1.94h.58v2.92Z"/><path class="cls-11" d="M628.74,121.76a1.93,1.93,0,0,1-1.1,3.58h-3.81v-6.77h3.59c1.14.07,1.74.73,1.81,2A1.42,1.42,0,0,1,628.74,121.76Zm-3.55-.48h1.89a.76.76,0,0,0,.84-.85c0-.33-.29-.5-.82-.52h-1.91Zm0,3h2.21a.88.88,0,0,0,1-1c0-.44-.33-.66-1-.68h-2.22Z"/><path class="cls-11" d="M630.64,118.56h1.58l1.58,2.21,1.6-2.21H637L634.47,122v3.38h-1.35V122Z"/><path class="cls-11" d="M646.43,125.33H641v-.45l3.16-5.06H641v-1.26h5.42v.5l-3.17,5h3.17Z"/><path class="cls-11" d="M648.13,125.33v-6.77h5v1.26h-3.62v1.45h2.71v1.26h-2.71v1.54h3.61v1.26Z"/><path class="cls-11" d="M654.47,125.33v-6.77h.45l4.25,4.24v-4.24h1.35v6.77H660l-4.2-4.2v4.2Z"/><path class="cls-11" d="M661.57,125.33l2.71-6.77h1.35l2.71,6.77H666.9l-.41-1h-3.07l-.41,1Zm3.42-5-1,2.57h2Z"/><path class="cls-11" d="M674.16,121.76a2,2,0,0,1,.94,1.55,1.93,1.93,0,0,1-2.05,2h-3.81v-6.77h3.6c1.14.07,1.74.73,1.8,2A1.42,1.42,0,0,1,674.16,121.76Zm-3.56-.48h1.9a.77.77,0,0,0,.84-.85c0-.33-.29-.5-.83-.52H670.6Zm0,3h2.21a.89.89,0,0,0,1-1c0-.44-.34-.66-1-.68H670.6Z"/><path class="cls-11" d="M676.45,118.55h1.35v6.78h-1.35Z"/><path class="cls-11" d="M682.83,118.79a3.32,3.32,0,0,1,1,.67l-.91.91a1.53,1.53,0,0,0-1.26-.55c-.54,0-.89.13-1,.39a.52.52,0,0,0,0,.65,1.79,1.79,0,0,0,1,.41,3.45,3.45,0,0,1,1.56.56,1.72,1.72,0,0,1,.7,1.52,1.75,1.75,0,0,1-.75,1.4,2.74,2.74,0,0,1-1.74.58,4,4,0,0,1-1.58-.27,3.4,3.4,0,0,1-1.08-.72l.9-.9a2.15,2.15,0,0,0,1.54.63c.6,0,1-.13,1.12-.39a.7.7,0,0,0,0-.76c-.15-.26-.52-.42-1.12-.48a3.6,3.6,0,0,1-1.49-.49,1.52,1.52,0,0,1-.68-1.4,1.71,1.71,0,0,1,.77-1.45,2.71,2.71,0,0,1,1.58-.54A3.64,3.64,0,0,1,682.83,118.79Z"/><rect class="cls-11" x="605.8" y="121.85" width="12.18" height="1.48"/><rect class="cls-11" x="689.94" y="121.85" width="12.18" height="1.48"/><polygon class="cls-1" points="536.95 299.42 524.69 317.81 536.95 336.2 730.77 336.2 730.77 299.42 536.95 299.42"/><path class="cls-13" d="M558.58,312.11v9.22h6v2.12h-8.31V312.11Z"/><path class="cls-13" d="M566.46,323.45V312.12h8.33v2.11h-6.06v2.42h4.54v2.11h-4.54v2.58h6v2.12Z"/><path class="cls-13" d="M576.48,323.45,581,312.11h2.27l4.53,11.33H585.4l-.68-1.74h-5.14l-.68,1.74Zm5.73-8.32-1.73,4.31h3.4Z"/><path class="cls-13" d="M596.33,318.5l2.82,4.95h-2.6l-2.71-4.69h-2.07v4.69H589.5V312.11h4.94q4,0,4,3.26A2.93,2.93,0,0,1,596.33,318.5Zm-4.56-1.86h3.17c.92,0,1.38-.43,1.41-1.24s-.49-1.14-1.38-1.17h-3.2Z"/><path class="cls-13" d="M600.33,323.45V312.11h.76l7.1,7.1v-7.1h2.27v11.34h-.83l-7-7v7Z"/><path class="cls-13" d="M618.1,323.45V312.11h.76l4.91,5.59,4.92-5.59h.76v11.34h-2.27v-6.58l-3.4,3.78-3.4-3.78v6.58Z"/><path class="cls-13" d="M632.76,321.82a5.83,5.83,0,1,1,4,1.63A5.49,5.49,0,0,1,632.76,321.82Zm4-.49a3.19,3.19,0,0,0,2.45-1,3.89,3.89,0,0,0,0-5.07,3.21,3.21,0,0,0-2.47-1,3.17,3.17,0,0,0-2.44,1,3.86,3.86,0,0,0,0,5.07A3.2,3.2,0,0,0,636.81,321.33Z"/><path class="cls-13" d="M651,318.5l2.83,4.95h-2.6l-2.71-4.69h-2.08v4.69h-2.26V312.11h4.94q4,0,4,3.26A2.94,2.94,0,0,1,651,318.5Zm-4.56-1.86h3.18c.91,0,1.38-.43,1.4-1.24s-.48-1.14-1.38-1.17h-3.2Z"/><path class="cls-13" d="M655,323.45V312.12h8.33v2.11h-6.06v2.42h4.54v2.11h-4.54v2.58h6v2.12Z"/></svg>