<svg id="Content" xmlns="http://www.w3.org/2000/svg" xmlns:xlink="http://www.w3.org/1999/xlink" viewBox="0 0 640 1136"><defs><style>.cls-1{stroke:#fff;stroke-miterlimit:10;stroke-width:2.2px;fill:url(#New_Gradient_Swatch_2);}.cls-2{fill:#fff;}.cls-3{fill:url(#New_Gradient_Swatch_1);}.cls-4{fill:url(#linear-gradient);}.cls-5{fill:url(#linear-gradient-2);}.cls-6{fill:url(#linear-gradient-3);}.cls-7{fill:url(#linear-gradient-4);}.cls-8{fill:url(#linear-gradient-5);}.cls-9{fill:url(#linear-gradient-6);}.cls-10{fill:url(#linear-gradient-7);}.cls-11{fill:url(#New_Gradient_Swatch_2-2);}.cls-12{fill:#a89255;}</style><linearGradient id="New_Gradient_Swatch_2" x1="155.91" y1="998.58" x2="488.47" y2="998.58" gradientUnits="userSpaceOnUse"><stop offset="0" stop-color="#a88a34"/><stop offset="0.19" stop-color="#caaf67"/><stop offset="0.46" stop-color="#a08a4a"/><stop offset="0.76" stop-color="#caaf67"/><stop offset="1" stop-color="#957f2e"/></linearGradient><linearGradient id="New_Gradient_Swatch_1" x1="440.88" y1="102.53" x2="590.66" y2="102.53" gradientUnits="userSpaceOnUse"><stop offset="0" stop-color="#a88a34"/><stop offset="0.49" stop-color="#caaf67"/><stop offset="1" stop-color="#957f2e"/></linearGradient><linearGradient id="linear-gradient" x1="592.94" y1="425.94" x2="592.94" y2="174.71" gradientUnits="userSpaceOnUse"><stop offset="0" stop-color="#a88a34"/><stop offset="0.5" stop-color="#caaf67"/><stop offset="1" stop-color="#957f2e"/></linearGradient><linearGradient id="linear-gradient-2" x1="523.34" y1="295.15" x2="523.34" y2="109.65" xlink:href="#linear-gradient"/><linearGradient id="linear-gradient-3" x1="546.91" y1="358.77" x2="546.91" y2="114.65" xlink:href="#linear-gradient"/><linearGradient id="linear-gradient-4" x1="569.86" y1="364.33" x2="569.86" y2="150.65" xlink:href="#linear-gradient"/><linearGradient id="linear-gradient-5" x1="440.54" y1="214.53" x2="440.54" y2="8.07" xlink:href="#linear-gradient"/><linearGradient id="linear-gradient-6" x1="495.39" y1="266.69" x2="495.39" y2="82.27" xlink:href="#linear-gradient"/><linearGradient id="linear-gradient-7" x1="467.38" y1="239.14" x2="467.38" y2="53.64" xlink:href="#linear-gradient"/><linearGradient id="New_Gradient_Swatch_2-2" x1="602.87" y1="174.2" x2="613.18" y2="174.2" xlink:href="#New_Gradient_Swatch_2"/></defs><title>CTA2</title><polygon class="cls-1" points="465.26 963.77 434.23 963.77 210.14 963.77 179.11 963.77 155.91 998.58 179.11 1033.39 210.14 1033.39 434.23 1033.39 465.26 1033.39 488.47 998.59 465.26 963.77"/><path class="cls-2" d="M224.85,987.79v17.45H236.3v4H220.56V987.79Z"/><path class="cls-2" d="M239.77,1009.25V987.8h15.77v4H244.07v4.58h8.59v4h-8.59v4.88h11.44v4Z"/><path class="cls-2" d="M258.73,1009.25l8.59-21.46h4.29l8.57,21.44-4.57,0-1.28-3.29H264.6l-1.29,3.29Zm10.85-15.74-3.27,8.16h6.44Z"/><path class="cls-2" d="M296.3,999.89l5.36,9.36h-4.93l-5.13-8.87h-3.92v8.87h-4.3V987.79h9.36q7.51,0,7.51,6.18C300.25,997.07,298.94,999,296.3,999.89Zm-8.62-3.52h6c1.72,0,2.61-.81,2.66-2.36s-.92-2.15-2.62-2.2h-6.05Z"/><path class="cls-2" d="M303.89,1009.25V987.79h1.43l13.45,13.45V987.79h4.29v21.46h-1.57l-13.31-13.31v13.31Z"/><path class="cls-2" d="M337.52,1009.25V987.79H339l9.3,10.58,9.31-10.58H359v21.46h-4.29l0-12.45-6.43,7.15-6.44-7.15v12.45Z"/><path class="cls-2" d="M365.27,1006.17a11.05,11.05,0,1,1,7.65,3.08A10.42,10.42,0,0,1,365.27,1006.17Zm7.67-.93a6,6,0,0,0,4.63-1.93,7.32,7.32,0,0,0,0-9.59,6.57,6.57,0,0,0-9.3,0,7.32,7.32,0,0,0,0,9.59A6.06,6.06,0,0,0,372.94,1005.24Z"/><path class="cls-2" d="M399.76,999.89l5.36,9.36h-4.93l-5.13-8.87h-3.92v8.87h-4.3V987.79h9.36q7.51,0,7.51,6.18C403.71,997.07,402.4,999,399.76,999.89Zm-8.62-3.52h6c1.72,0,2.61-.81,2.66-2.36s-.92-2.15-2.62-2.2h-6.05Z"/><path class="cls-2" d="M407.29,1009.25V987.8h15.77v4H411.58v4.58h8.6v4h-8.6v4.88H423v4Z"/><path class="cls-3" d="M506.67,152.73c1.62-.48,4.58,2.28,4.77,2.28a3.54,3.54,0,0,0,1-2.27c0-1-.69-2.87-.82-4a19.31,19.31,0,0,0-.7-3.32c-.25-.76-2-1.09-3-1.67a15.25,15.25,0,0,1-2.39-1.65,7.56,7.56,0,0,1-1-3.47,13.71,13.71,0,0,0-.57-3.53c-.33-.62-1.18-1.06-1.75-1.63a2.49,2.49,0,0,1-.59-1.52c.44-.13.58,1,1.08,1.1s.48.51,1.27.78.83.66.93,1.4,1,3.25,1.29,4.27.61,1.79,1.62,1.83.87.55,2.06.46a6.57,6.57,0,0,1,2.85.55c.63.22,1.44.24,1.71-.2s-.19-2.25-.19-2.25c-.41,0-.48-.55-.64-1.07s.1-.56.1-.56a2.17,2.17,0,1,1,4.14,0s.26,0,.1.56-.23,1.07-.64,1.07c0,0-.46,1.8-.19,2.25s1.08.42,1.72.2a6.51,6.51,0,0,1,2.85-.55c1.18.09,1.05-.43,2.06-.46s1.31-.81,1.61-1.83,1.19-3.53,1.29-4.27.13-1.12.93-1.4.76-.69,1.27-.78.64-1.23,1.08-1.1a2.42,2.42,0,0,1-.59,1.52c-.57.57-1.42,1-1.75,1.63a13.71,13.71,0,0,0-.57,3.53,7.7,7.7,0,0,1-1,3.47,16.28,16.28,0,0,1-2.39,1.65c-1,.58-2.72.91-3,1.67a19.39,19.39,0,0,0-.69,3.32c-.13,1.15-.83,3-.83,4a3.54,3.54,0,0,0,1,2.27c.2,0,3.15-2.76,4.78-2.28s1,2.76-.71,4.45a7.21,7.21,0,0,1-3.5,2.18,19.86,19.86,0,0,1,2.66.5c2.33.65,4.88,2.44,7.59,4.33,2.42,1.7,4.93,3.45,6.76,3.95a4.42,4.42,0,0,0,.66.15c.23-.2,1.45-.9,1.45-.9a27.07,27.07,0,0,0,3.06,1.31l-7.8-6,15.45,6.72.76.31,9.34.16c2.45.05,4.87-.06,7.12-.23-1.81-1.12-3.78-2.24-5.88-3.27l-8.19-4c-.27,0-.55-.06-.83-.08L535,161.23l11.6-2L539,156.76l12.87-.08a43.58,43.58,0,0,0,8.79-1l-12.17-2.31,17.84-.8a16.28,16.28,0,0,0,3-.38l-1.35.17,11.76-5.52a104.82,104.82,0,0,0,10.9-6,117.09,117.09,0,0,0-12.74-.77l-13.38,0,1.49-.48a16.87,16.87,0,0,0-3.16,1l-15.6,6.5,9.44-7h-.07l-.21-1.62-1.72-2.83a56.68,56.68,0,0,0,12.86-13.28l-12.62,6,12.86-10.7a21.07,21.07,0,0,0,4.08-4.43c1.65-2.5,3.19-5.07,4.6-7.67l-4,3.94,4.78-10.39a137.13,137.13,0,0,0,7.07-19.54,165.57,165.57,0,0,0-18.94,12.2l-9.35,7.09,3-4.65c-2.42,2.06-4.76,4.23-7,6.49a20.39,20.39,0,0,0-3.44,4.82l-6.83,13.08,2.42-11.94a57.22,57.22,0,0,0-5.41,6.47l-1.19,1.66-1.09-.74a2.91,2.91,0,0,0-.17.28L527,132.17l5.53-19.34a61.3,61.3,0,0,0,1.84-24.26l-6.46,12L531,86.13a23.58,23.58,0,0,0,.49-7.21A116.51,116.51,0,0,0,529,64.34l-.85,7.09-2.8-10.33a176,176,0,0,0-9.58-25.93,176.37,176.37,0,0,0-9.58,25.93l-2.8,10.33-.85-7.09a118.37,118.37,0,0,0-2.49,14.58,23.9,23.9,0,0,0,.49,7.21l3.13,14.45-6.46-12a61.3,61.3,0,0,0,1.84,24.26l5.53,19.34-9.38-17.79a2.91,2.91,0,0,0-.17-.28l-1.09.74-1.19-1.66a57,57,0,0,0-5.41-6.47l2.42,11.94-6.83-13.08a20.39,20.39,0,0,0-3.44-4.82c-2.23-2.26-4.56-4.43-7-6.48l3,4.65-9.37-7.1a166.37,166.37,0,0,0-18.93-12.2,137,137,0,0,0,7.06,19.54L459,109.55l-4-3.94c1.41,2.6,2.95,5.17,4.61,7.67a20.81,20.81,0,0,0,4.08,4.43l12.85,10.7-12.61-6a56.44,56.44,0,0,0,12.85,13.28l-1.71,2.83-.22,1.62h-.07l9.44,7-15.6-6.5a16.64,16.64,0,0,0-3.16-1l1.49.48-13.37,0a117.28,117.28,0,0,0-12.75.77,105.85,105.85,0,0,0,10.9,6l11.77,5.52-1.36-.17a16.28,16.28,0,0,0,3,.38l17.83.8-12.17,2.31a43.66,43.66,0,0,0,8.79,1l12.91.08L485,159.21l11.59,2-17.85,1.07c-.29,0-.57,0-.84.08l-8.19,4c-2.1,1-4.06,2.15-5.88,3.27,2.25.17,4.67.28,7.12.23l9.34-.16.76-.31,15.45-6.72-7.79,6a26.91,26.91,0,0,0,3.05-1.31s1.22.7,1.45.9a6.18,6.18,0,0,0,.66-.15c1.83-.5,4.34-2.25,6.77-3.95,2.7-1.89,5.25-3.68,7.59-4.33a19.69,19.69,0,0,1,2.65-.5,7.21,7.21,0,0,1-3.5-2.18C505.68,155.49,505,153.21,506.67,152.73Z"/><polygon class="cls-4" points="601.89 184.3 601.89 179.75 583.98 179.76 583.98 204.12 601.86 204.12 601.86 199.57 588.86 199.57 588.86 194.03 598.62 194.03 598.62 189.5 588.86 189.5 588.86 184.3 601.89 184.3"/><path class="cls-5" d="M520.91,179.75l-9.75,24.37h5.2l1.47-3.73h11l1.46,3.73h5.18l-9.73-24.36Zm-1.13,15.76,3.7-9.26,3.61,9.26Z"/><path class="cls-6" d="M553.66,191.53a12,12,0,0,0-5.61-2c-1.95-.33-3.19-.81-3.74-1.47a1.9,1.9,0,0,1,0-2.35c.55-.92,1.79-1.38,3.74-1.38a5.59,5.59,0,0,1,4.55,1.95l3.25-3.25a11.23,11.23,0,0,0-3.49-2.44,13.66,13.66,0,0,0-5.27-.81,9.7,9.7,0,0,0-5.69,2,6,6,0,0,0-2.77,5.19q0,3.57,2.43,5a13.13,13.13,0,0,0,5.37,1.78c2.16.22,3.52.79,4.05,1.71a2.55,2.55,0,0,1,0,2.76c-.53.92-1.89,1.38-4.05,1.38q-3.9-.31-5.53-2.27l-3.25,3.25a12.39,12.39,0,0,0,3.9,2.6,14.46,14.46,0,0,0,5.67,1,9.85,9.85,0,0,0,6.27-2.11,6.27,6.27,0,0,0,2.69-5A6.1,6.1,0,0,0,553.66,191.53Z"/><polygon class="cls-7" points="559.3 184.3 567.42 184.3 567.42 204.12 572.3 204.12 572.3 184.3 580.42 184.3 580.42 179.75 559.3 179.75 559.3 184.3"/><polygon class="cls-8" points="446.55 195.02 431.28 179.75 429.65 179.75 429.65 204.12 434.53 204.12 434.53 189.01 449.64 204.12 451.43 204.12 451.43 179.75 446.55 179.75 446.55 195.02"/><polygon class="cls-9" points="495.39 191.77 484.82 179.75 483.2 179.75 483.2 204.12 488.07 204.12 488.07 189.99 495.39 198.11 502.7 189.99 502.71 204.12 507.59 204.12 507.59 179.75 505.96 179.75 495.39 191.77"/><path class="cls-10" d="M465,179.75l-9.75,24.37h5.2l1.46-3.73h11.05l1.46,3.73h5.19l-9.74-24.36Zm-1.14,15.76,3.71-9.26,3.6,9.26Z"/><path class="cls-11" d="M605.39,172.38v4.42h-.88v-4.42h-1.64v-.79H607v.79Zm7,4.42v-3.89l-1.64,3.35h-.58l-1.64-3.35v3.89h-.83v-5.21h1l1.73,3.46,1.71-3.46h1v5.21Z"/><path class="cls-12" d="M470.67,221.6a3.49,3.49,0,0,1,1.69,2.77q-.17,3.42-3.66,3.63h-6.82v-12.1h6.43q3.06.17,3.23,3.56A2.54,2.54,0,0,1,470.67,221.6Zm-6.35-.86h3.39a1.37,1.37,0,0,0,1.5-1.51c0-.59-.52-.91-1.48-.94h-3.41Zm0,5.36h3.95a1.59,1.59,0,0,0,1.75-1.75c0-.78-.6-1.18-1.72-1.21h-4Z"/><path class="cls-12" d="M474.06,215.88h2.84l2.81,4,2.88-4h2.78l-4.44,6.05V228H478.5v-6.06Z"/><path class="cls-12" d="M502.31,228h-9.7v-.81l5.64-9h-5.64v-2.26h9.7v.89l-5.67,9h5.67Z"/><path class="cls-12" d="M505.35,228v-12.1h8.9v2.26h-6.48v2.58h4.86V223h-4.86v2.76h6.46V228Z"/><path class="cls-12" d="M516.69,228V215.88h.8l7.59,7.59v-7.59h2.43V228h-.89l-7.51-7.51V228Z"/><path class="cls-12" d="M529.38,228l4.84-12.11h2.43l4.83,12.1h-2.57l-.73-1.86h-5.49L532,228Zm6.12-8.88-1.84,4.6h3.63Z"/><path class="cls-12" d="M551.89,221.6a3.49,3.49,0,0,1,1.69,2.77q-.17,3.42-3.66,3.63h-6.81v-12.1h6.42q3.06.17,3.23,3.56A2.52,2.52,0,0,1,551.89,221.6Zm-6.35-.86h3.39a1.37,1.37,0,0,0,1.5-1.51c0-.59-.52-.91-1.48-.94h-3.41Zm0,5.36h4a1.59,1.59,0,0,0,1.75-1.75c0-.78-.6-1.18-1.72-1.21h-4Z"/><path class="cls-12" d="M556,215.87h2.42V228H556Z"/><path class="cls-12" d="M567.4,216.28a5.73,5.73,0,0,1,1.73,1.21l-1.61,1.62a2.79,2.79,0,0,0-2.27-1c-1,0-1.58.23-1.85.68a1,1,0,0,0,0,1.18,3.21,3.21,0,0,0,1.85.72,6.07,6.07,0,0,1,2.79,1,3.05,3.05,0,0,1,1.25,2.71,3.09,3.09,0,0,1-1.33,2.5,4.9,4.9,0,0,1-3.12,1.05,7.09,7.09,0,0,1-2.82-.49,6.05,6.05,0,0,1-1.93-1.29l1.61-1.61a3.89,3.89,0,0,0,2.75,1.13c1.07,0,1.75-.23,2-.69a1.26,1.26,0,0,0,0-1.37c-.26-.46-.94-.74-2-.85a6.5,6.5,0,0,1-2.67-.89,2.69,2.69,0,0,1-1.21-2.5,3,3,0,0,1,1.38-2.58,4.84,4.84,0,0,1,2.83-1A6.79,6.79,0,0,1,567.4,216.28Z"/><rect class="cls-12" x="429.65" y="221.76" width="21.78" height="2.65"/><rect class="cls-12" x="580.11" y="221.76" width="21.78" height="2.65"/><image width="1500" height="1261" transform="translate(218.58 -174.04) scale(0.15)" xlink:href="../../../../../Dropbox%20(Revolution%20Strategy)/Rocio%20Ugarte/Clients/Namaste/Digital%20Ads/_Flight%202:Phase%202%20Terpene/1.%20Animated%20w:%20Packaging/9.%20Expandable%20Unit%20640%20x%20100:640%20x%201136/640%20x%20100_640%20x%201136V2_Folder/Links/SmallTopDown-8383-DaytimeCBD.png"/></svg>