<svg id="Content" xmlns="http://www.w3.org/2000/svg" xmlns:xlink="http://www.w3.org/1999/xlink" viewBox="0 0 728 360"><defs><style>.cls-1{fill:url(#New_Gradient_Swatch_1);}.cls-2{fill:#fff;}.cls-3{fill:#ba9544;}</style><linearGradient id="New_Gradient_Swatch_1" x1="267.27" y1="198.48" x2="324.2" y2="198.48" gradientUnits="userSpaceOnUse"><stop offset="0" stop-color="#a88a34"/><stop offset="0.49" stop-color="#caaf67"/><stop offset="1" stop-color="#957f2e"/></linearGradient></defs><title>earthy</title><polygon class="cls-1" points="318.52 178.77 290.05 168.9 267.27 188.62 272.96 218.2 301.42 228.07 324.2 208.35 318.52 178.77"/><path class="cls-2" d="M302.89,205.41a6.65,6.65,0,0,0-3.33-3.08,3.25,3.25,0,0,0-2.49.24,6.42,6.42,0,0,0-1.31-.33c.18-1.49,1.32-3.47,2.77-5.46h1c3.1,0,5.84-.41,6-6a8.54,8.54,0,0,1,1.16-2.62l.43-.7h-.82a8.87,8.87,0,0,0-8.86,8.86v.42c-.33.48-.65,1-.94,1.43a11.36,11.36,0,0,0-11.33-10.71h-.81l.42.7a11.21,11.21,0,0,1,1.53,3.47c.18,7.13,3.69,7.66,7.65,7.66h1.91a8.83,8.83,0,0,0-1,2.89,4.14,4.14,0,0,0-4,2.18,5.19,5.19,0,0,0-4.24.23c-1.22.77-1.88,2.28-2,4.46v.48h21.93l.08-.35a2.79,2.79,0,0,0-.46-2.11,4.62,4.62,0,0,0-3.36-1.64"/><path class="cls-3" d="M263.68,259V248.14h8v2h-5.81v2.32h4.35v2h-4.35V257h5.8v2Z"/><path class="cls-3" d="M273.29,259l4.35-10.88h2.17L284.15,259h-2.31l-.65-1.67h-4.93l-.65,1.67Zm5.49-8-1.65,4.13h3.26Z"/><path class="cls-3" d="M292.32,254.26,295,259h-2.5l-2.6-4.5h-2V259h-2.17V248.13h4.74c2.54,0,3.81,1.05,3.81,3.13A2.8,2.8,0,0,1,292.32,254.26ZM288,252.48H291c.87,0,1.32-.41,1.35-1.19s-.47-1.09-1.33-1.12H288Z"/><path class="cls-3" d="M305,248.13v2h-3.62V259h-2.18v-8.85h-3.62v-2Z"/><path class="cls-3" d="M306.66,259V248.13h2.17v4.35h5.07v-4.35h2.17V259H313.9v-4.5h-5.07V259Z"/><path class="cls-3" d="M317.78,248.13h2.56l2.52,3.55,2.58-3.55h2.49l-4,5.44V259h-2.18v-5.44Z"/></svg>