<svg id="Content" xmlns="http://www.w3.org/2000/svg" viewBox="0 0 728 360"><defs><style>.cls-1{fill:#ba9544;}</style></defs><title>Frame2 - MK Ultra</title><path class="cls-1" d="M137.86,130.39,141,109.51h6.43v29.4h-4.37V117.83l-3.19,21.08h-4.37l-3.44-20.79v20.79h-4v-29.4h6.43Z"/><path class="cls-1" d="M161.3,127.19l-1.43,2.69v9h-4.62v-29.4h4.62v12.81l6-12.81h4.62l-6.43,13.11,6.43,16.29h-4.75Z"/><path class="cls-1" d="M192.46,109.51v22.68c0,2.1.93,2.86,2.4,2.86s2.39-.76,2.39-2.86V109.51h4.37V131.9c0,4.7-2.35,7.39-6.89,7.39s-6.89-2.69-6.89-7.39V109.51Z"/><path class="cls-1" d="M209.22,109.51h4.62v25.2h7.6v4.2H209.22Z"/><path class="cls-1" d="M226.56,109.51h14.29v4.2H236v25.2h-4.62v-25.2h-4.83Z"/><path class="cls-1" d="M257,138.91a9,9,0,0,1-.42-3.61v-4.62c0-2.73-.92-3.74-3-3.74h-1.6v12h-4.62v-29.4h7c4.79,0,6.85,2.23,6.85,6.76v2.31c0,3-1,5-3,6,2.31,1,3.06,3.19,3.06,6.26v4.53a8.68,8.68,0,0,0,.51,3.57Zm-5-25.2v9h1.81c1.72,0,2.77-.76,2.77-3.11v-2.9c0-2.1-.71-3-2.35-3Z"/><path class="cls-1" d="M283.6,138.91h-4.66l-.8-5.33h-5.67l-.8,5.33h-4.24l4.7-29.4h6.77Zm-10.54-9.32h4.45l-2.23-14.87Z"/></svg>