<svg id="Content" xmlns="http://www.w3.org/2000/svg" width="640" height="100" viewBox="0 0 640 100"><defs><style>.cls-1{fill:#ba9544;}</style></defs><title>Frame1 - MK Ultra</title><path class="cls-1" d="M216.57606,55.57422l2.39942-15.90332H223.871V62.06934h-3.32813V46.00684l-2.43164,16.0625H214.7831l-2.623-15.83887V62.06934h-3.07227V39.6709h4.89649Z"/><path class="cls-1" d="M234.43153,53.1416l-1.08789,2.04785v6.87989h-3.51953V39.6709h3.51953v9.75976l4.60742-9.75976h3.51954l-4.89551,9.9834,4.89551,12.415h-3.61524Z"/><path class="cls-1" d="M258.1747,39.6709V56.94922c0,1.60058.7041,2.17676,1.82324,2.17676,1.12109,0,1.82422-.57618,1.82422-2.17676V39.6709h3.32812V56.72559c0,3.584-1.792,5.63183-5.248,5.63183-3.45508,0-5.24707-2.04785-5.24707-5.63183V39.6709Z"/><path class="cls-1" d="M270.94325,39.6709h3.51953V58.86914h5.791v3.2002h-9.31055Z"/><path class="cls-1" d="M284.1581,39.6709H295.038v3.20019h-3.67969V62.06934h-3.52051V42.87109H284.1581Z"/><path class="cls-1" d="M307.32606,62.06934a6.87849,6.87849,0,0,1-.32031-2.752V55.79785c0-2.08008-.7041-2.84765-2.30371-2.84765h-1.21582v9.11914h-3.51953V39.6709h5.31055c3.64843,0,5.21679,1.69629,5.21679,5.15137V46.582c0,2.30469-.73632,3.80859-2.30468,4.54395,1.75976.73632,2.33593,2.43164,2.33593,4.76757v3.45606a6.58644,6.58644,0,0,0,.38477,2.71973Zm-3.83984-19.19825V49.75h1.376c1.31152,0,2.1123-.57617,2.1123-2.36719v-2.208c0-1.60058-.54492-2.30371-1.793-2.30371Z"/><path class="cls-1" d="M327.61317,62.06934h-3.55175l-.6084-4.06348h-4.31836l-.60938,4.06348h-3.23047l3.583-22.39844h5.15137Zm-8.03125-7.10352h3.39161l-1.69629-11.32715Z"/></svg>