<svg id="Content" xmlns="http://www.w3.org/2000/svg" viewBox="0 0 728 90"><defs><style>.cls-1{fill:#ba9544;}</style></defs><title>Frame1 - Durga Mata</title><path class="cls-1" d="M247.82,32.53h6.61c4.18,0,6.24,2.32,6.24,6.57V52.55c0,4.26-2.06,6.57-6.24,6.57h-6.61Zm4.18,3.8v19h2.36c1.33,0,2.13-.69,2.13-2.59V38.91c0-1.9-.8-2.58-2.13-2.58Z"/><path class="cls-1" d="M271.34,32.53V53.05c0,1.9.84,2.58,2.17,2.58s2.17-.68,2.17-2.58V32.53h3.95V52.78c0,4.26-2.13,6.69-6.23,6.69s-6.24-2.43-6.24-6.69V32.53Z"/><path class="cls-1" d="M295.25,59.12a8.1,8.1,0,0,1-.38-3.26V51.68c0-2.47-.84-3.38-2.74-3.38h-1.44V59.12h-4.18V32.53h6.3c4.33,0,6.2,2,6.2,6.12v2.09c0,2.73-.88,4.52-2.74,5.39,2.09.87,2.78,2.89,2.78,5.66V55.9a7.74,7.74,0,0,0,.45,3.22Zm-4.56-22.79V44.5h1.63c1.56,0,2.51-.69,2.51-2.81V39.06c0-1.9-.65-2.73-2.13-2.73Z"/><path class="cls-1" d="M312.08,44.31h5.85v8.43c0,4.26-2.13,6.69-6.23,6.69s-6.23-2.43-6.23-6.69V38.91c0-4.25,2.13-6.69,6.23-6.69s6.23,2.44,6.23,6.69V41.5H314V38.65c0-1.9-.84-2.63-2.17-2.63s-2.16.73-2.16,2.63V53c0,1.9.83,2.58,2.16,2.58S314,54.91,314,53v-4.9h-1.9Z"/><path class="cls-1" d="M338.18,59.12H334l-.73-4.82h-5.12l-.73,4.82h-3.83l4.25-26.59h6.12Zm-9.53-8.43h4l-2-13.45Z"/><path class="cls-1" d="M362.92,51.41l2.85-18.88h5.82V59.12h-4V40.05l-2.88,19.07H360.8l-3.12-18.8v18.8H354V32.53h5.82Z"/><path class="cls-1" d="M392.18,59.12H388l-.72-4.82h-5.13l-.72,4.82h-3.84l4.26-26.59h6.12Zm-9.54-8.43h4l-2-13.45Z"/><path class="cls-1" d="M396.93,32.53h12.92v3.8h-4.37V59.12H401.3V36.33h-4.37Z"/><path class="cls-1" d="M429.23,59.12H425l-.72-4.82h-5.13l-.72,4.82H414.6l4.26-26.59H425Zm-9.54-8.43h4l-2-13.45Z"/><path class="cls-1" d="M451.23,36c-1.33,0-2.16.73-2.16,2.63V41.5h-3.95V38.91c0-4.25,2.12-6.69,6.23-6.69s6.23,2.44,6.23,6.69c0,8.36-8.32,11.48-8.32,15.85a2.73,2.73,0,0,0,0,.57h7.9v3.79H445.12V55.86c0-7.83,8.28-9.12,8.28-16.8C453.4,36.67,452.56,36,451.23,36Z"/></svg>