<svg id="Content" xmlns="http://www.w3.org/2000/svg" width="640" height="100" viewBox="0 0 640 100"><defs><style>.cls-1{fill:#ba9544;}</style></defs><title>Frame1 - Durga Mata</title><path class="cls-1" d="M202.85411,39.273h5.56836c3.51953,0,5.24707,1.95215,5.24707,5.53613V56.13672c0,3.583-1.72754,5.53516-5.24707,5.53516h-5.56836Zm3.52051,3.20019V58.47168H208.358c1.12012,0,1.792-.5752,1.792-2.17578v-11.647c0-1.60059-.67188-2.17579-1.792-2.17579Z"/><path class="cls-1" d="M222.66172,39.273V56.55176c0,1.60058.70411,2.17676,1.82422,2.17676s1.82422-.57618,1.82422-2.17676V39.273h3.32715V56.32812c0,3.584-1.792,5.63184-5.24707,5.63184-3.45605,0-5.24805-2.04785-5.24805-5.63184V39.273Z"/><path class="cls-1" d="M242.78965,61.67188a6.87849,6.87849,0,0,1-.32031-2.752V55.40039c0-2.08008-.7041-2.84766-2.30371-2.84766h-1.21582v9.11915h-3.51953V39.273h5.31152c3.64746,0,5.21582,1.69629,5.21582,5.15137v1.75976c0,2.30469-.73632,3.8086-2.30371,4.54395,1.75977.73681,2.33594,2.43213,2.33594,4.76806v3.45606a6.587,6.587,0,0,0,.38379,2.71973Zm-3.83984-19.19874v6.87891h1.376c1.31152,0,2.1123-.57617,2.1123-2.36719v-2.208c0-1.60059-.54394-2.30372-1.792-2.30372Z"/><path class="cls-1" d="M256.96544,49.19189h4.92773v7.104c0,3.584-1.792,5.63183-5.248,5.63183s-5.248-2.04785-5.248-5.63183v-11.647c0-3.584,1.792-5.63184,5.248-5.63184s5.248,2.04785,5.248,5.63184v2.17578h-3.32812V44.42432c0-1.59961-.70411-2.207-1.82422-2.207-1.11914,0-1.82325.60742-1.82325,2.207V56.52051c0,1.59961.70411,2.17578,1.82325,2.17578,1.12011,0,1.82422-.57617,1.82422-2.17578V52.39258h-1.59961Z"/><path class="cls-1" d="M278.94883,61.67188h-3.55175l-.6084-4.06348h-4.31934l-.60742,4.06348H266.6295l3.584-22.39893h5.15137Zm-8.03125-7.10352h3.39161L272.6129,43.24072Z"/><path class="cls-1" d="M299.78087,55.17676,302.18126,39.273h4.8955V61.67188h-3.32812v-16.063l-2.43164,16.063h-3.32813l-2.623-15.83936V61.67188h-3.07227V39.273h4.89551Z"/><path class="cls-1" d="M324.42051,61.67188h-3.55175l-.6084-4.06348H315.941l-.60742,4.06348h-3.23242l3.584-22.39893h5.15137Zm-8.03125-7.10352h3.39161l-1.69629-11.32764Z"/><path class="cls-1" d="M328.42149,39.273H339.3004v3.20019h-3.67969V61.67188h-3.51953V42.47314h-3.67969Z"/><path class="cls-1" d="M355.61973,61.67188H352.068l-.60839-4.06348h-4.31934l-.60742,4.06348H343.3004l3.584-22.39893h5.15137Zm-8.03125-7.10352h3.3916L349.2838,43.24072Z"/><path class="cls-1" d="M374.14805,42.21729c-1.12011,0-1.82422.60742-1.82422,2.207v2.40039h-3.32714V44.64893c0-3.584,1.791-5.63184,5.24707-5.63184s5.248,2.04785,5.248,5.63184c0,7.03955-7.00781,9.66357-7.00781,13.34326a2.39515,2.39515,0,0,0,.03223.47949h6.65527v3.2002h-10.1748v-2.752c0-6.5918,6.97558-7.67969,6.97558-14.14306C375.97227,42.76123,375.26817,42.21729,374.14805,42.21729Z"/></svg>