<svg id="Content" xmlns="http://www.w3.org/2000/svg" viewBox="0 0 728 360"><defs><style>.cls-1{fill:#ba9544;}</style></defs><title>Frame2 - Shishkaberry</title><path class="cls-1" d="M92.32,109.17c4.49,0,6.8,2.69,6.8,7.4v.92H94.75v-1.22c0-2.1-.84-2.9-2.31-2.9s-2.31.8-2.31,2.9c0,6,9,7.19,9,15.59,0,4.7-2.35,7.39-6.89,7.39s-6.89-2.69-6.89-7.39v-1.81h4.37v2.1c0,2.1.93,2.86,2.4,2.86s2.39-.76,2.39-2.86c0-6.05-9-7.18-9-15.58C85.51,111.86,87.82,109.17,92.32,109.17Z"/><path class="cls-1" d="M110.88,138.91h-4.62v-29.4h4.62v12.6h5.25v-12.6h4.7v29.4h-4.7v-12.6h-5.25Z"/><path class="cls-1" d="M128.64,109.51h4.62v29.4h-4.62Z"/><path class="cls-1" d="M147.29,109.17c4.5,0,6.81,2.69,6.81,7.4v.92h-4.37v-1.22c0-2.1-.84-2.9-2.31-2.9s-2.31.8-2.31,2.9c0,6,9,7.19,9,15.59,0,4.7-2.35,7.39-6.89,7.39s-6.89-2.69-6.89-7.39v-1.81h4.37v2.1c0,2.1.92,2.86,2.39,2.86s2.4-.76,2.4-2.86c0-6.05-9-7.18-9-15.58C140.49,111.86,142.8,109.17,147.29,109.17Z"/><path class="cls-1" d="M165.85,138.91h-4.62v-29.4h4.62v12.6h5.26v-12.6h4.7v29.4h-4.7v-12.6h-5.26Z"/><path class="cls-1" d="M189.67,127.19l-1.43,2.69v9h-4.62v-29.4h4.62v12.81l6-12.81h4.62l-6.43,13.11,6.43,16.29h-4.75Z"/><path class="cls-1" d="M220.41,138.91h-4.66l-.8-5.33h-5.67l-.8,5.33h-4.24l4.71-29.4h6.76Zm-10.54-9.32h4.45l-2.22-14.87Z"/><path class="cls-1" d="M240.83,116.27v1c0,3-.93,5-3,5.93,2.48,1,3.45,3.19,3.45,6.3v2.39c0,4.54-2.4,7-7,7H227v-29.4h7C238.77,109.51,240.83,111.74,240.83,116.27Zm-9.2-2.56v7.77h1.8c1.72,0,2.77-.76,2.77-3.11v-1.64c0-2.1-.71-3-2.35-3Zm0,12v9h2.64c1.56,0,2.4-.71,2.4-2.9v-2.56c0-2.73-.89-3.57-3-3.57Z"/><path class="cls-1" d="M253.13,121.9h6.34v4.2h-6.34v8.61h8v4.2h-12.6v-29.4h12.6v4.2h-8Z"/><path class="cls-1" d="M278.08,138.91a9,9,0,0,1-.42-3.61v-4.62c0-2.73-.93-3.74-3-3.74H273v12h-4.62v-29.4h7c4.79,0,6.85,2.23,6.85,6.76v2.31c0,3-1,5-3,6,2.31,1,3.07,3.19,3.07,6.26v4.53a8.68,8.68,0,0,0,.5,3.57Zm-5-25.2v9h1.8c1.73,0,2.78-.76,2.78-3.11v-2.9c0-2.1-.72-3-2.36-3Z"/><path class="cls-1" d="M299.41,138.91a9,9,0,0,1-.42-3.61v-4.62c0-2.73-.92-3.74-3-3.74h-1.6v12h-4.62v-29.4h7c4.78,0,6.84,2.23,6.84,6.76v2.31c0,3-1,5-3,6,2.31,1,3.06,3.19,3.06,6.26v4.53a8.68,8.68,0,0,0,.51,3.57Zm-5-25.2v9h1.81c1.72,0,2.77-.76,2.77-3.11v-2.9c0-2.1-.71-3-2.35-3Z"/><path class="cls-1" d="M315.42,129.17l-5.84-19.66h4.83l3.52,13.4,3.53-13.4h4.41L320,129.17v9.74h-4.62Z"/></svg>