<svg id="Content" xmlns="http://www.w3.org/2000/svg" viewBox="0 0 728 360"><defs><style>.cls-1{fill:#ba9544;}</style></defs><title>Frame2 - Ultra Sour</title><path class="cls-1" d="M113.47,109.51v22.68c0,2.1.92,2.86,2.39,2.86s2.4-.76,2.4-2.86V109.51h4.36V131.9c0,4.7-2.35,7.39-6.89,7.39s-6.89-2.69-6.89-7.39V109.51Z"/><path class="cls-1" d="M130.22,109.51h4.62v25.2h7.61v4.2H130.22Z"/><path class="cls-1" d="M147.57,109.51h14.28v4.2H157v25.2H152.4v-25.2h-4.83Z"/><path class="cls-1" d="M178,138.91a9,9,0,0,1-.42-3.61v-4.62c0-2.73-.93-3.74-3-3.74h-1.59v12h-4.62v-29.4h7c4.79,0,6.85,2.23,6.85,6.76v2.31c0,3-1,5-3,6,2.31,1,3.07,3.19,3.07,6.26v4.53a8.68,8.68,0,0,0,.5,3.57Zm-5-25.2v9h1.8c1.72,0,2.77-.76,2.77-3.11v-2.9c0-2.1-.71-3-2.35-3Z"/><path class="cls-1" d="M204.61,138.91h-4.67l-.79-5.33h-5.68l-.79,5.33h-4.25l4.71-29.4h6.76Zm-10.55-9.32h4.45l-2.22-14.87Z"/><path class="cls-1" d="M228.38,109.17c4.49,0,6.8,2.69,6.8,7.4v.92h-4.37v-1.22c0-2.1-.84-2.9-2.31-2.9s-2.31.8-2.31,2.9c0,6,9,7.19,9,15.59,0,4.7-2.35,7.39-6.89,7.39s-6.89-2.69-6.89-7.39v-1.81h4.37v2.1c0,2.1.93,2.86,2.4,2.86s2.39-.76,2.39-2.86c0-6.05-9-7.18-9-15.58C221.57,111.86,223.88,109.17,228.38,109.17Z"/><path class="cls-1" d="M241.94,116.57c0-4.71,2.48-7.4,7-7.4s7,2.69,7,7.4v15.29c0,4.7-2.48,7.39-7,7.39s-7-2.69-7-7.39Zm4.62,15.58c0,2.1.93,2.9,2.4,2.9s2.39-.8,2.39-2.9V116.27c0-2.1-.92-2.9-2.39-2.9s-2.4.8-2.4,2.9Z"/><path class="cls-1" d="M267.81,109.51v22.68c0,2.1.93,2.86,2.4,2.86s2.39-.76,2.39-2.86V109.51H277V131.9c0,4.7-2.35,7.39-6.89,7.39s-6.89-2.69-6.89-7.39V109.51Z"/><path class="cls-1" d="M294.23,138.91a9,9,0,0,1-.42-3.61v-4.62c0-2.73-.92-3.74-3-3.74h-1.6v12h-4.62v-29.4h7c4.79,0,6.85,2.23,6.85,6.76v2.31c0,3-1,5-3,6,2.31,1,3.06,3.19,3.06,6.26v4.53a8.51,8.51,0,0,0,.51,3.57Zm-5-25.2v9H291c1.72,0,2.77-.76,2.77-3.11v-2.9c0-2.1-.71-3-2.35-3Z"/></svg>