<svg id="Content" xmlns="http://www.w3.org/2000/svg" xmlns:xlink="http://www.w3.org/1999/xlink" viewBox="0 0 728 360"><defs><style>.cls-1{fill:url(#New_Gradient_Swatch_1);}.cls-2{fill:#fff;}.cls-3{fill:#ba9544;}</style><linearGradient id="New_Gradient_Swatch_1" x1="84.87" y1="201.51" x2="142.76" y2="201.51" gradientUnits="userSpaceOnUse"><stop offset="0" stop-color="#a88a34"/><stop offset="0.49" stop-color="#caaf67"/><stop offset="1" stop-color="#957f2e"/></linearGradient></defs><title>lemon</title><polygon class="cls-1" points="93.78 223.37 84.87 195.09 104.91 173.23 133.85 179.66 142.76 207.94 122.72 229.79 93.78 223.37"/><path class="cls-2" d="M125.86,198.29c-1.58-3.86-6.15-6.51-12-6.46s-10.43,2.67-12,6.46c-1.42.62-3.06,2-3.06,3.22s1.63,2.61,3.09,3.23c1.56,3.73,6.15,6.46,12,6.46s10.42-2.76,12-6.46c1.53-.66,3-2,3-3.22s-1.49-2.57-3-3.23"/><path class="cls-3" d="M88.4,248.1V257h5.81v2h-8V248.1Z"/><path class="cls-3" d="M96,259V248.11h8v2H98.16v2.33h4.36v2H98.16V257H104v2Z"/><path class="cls-3" d="M106.18,259V248.1h.73l4.72,5.38,4.73-5.38h.72V259H114.9v-6.32l-3.27,3.63-3.27-3.63V259Z"/><path class="cls-3" d="M120.26,257.43a5.62,5.62,0,1,1,3.89,1.57A5.28,5.28,0,0,1,120.26,257.43Zm3.9-.47a3,3,0,0,0,2.35-1,3.7,3.7,0,0,0,0-4.86,3.31,3.31,0,0,0-4.72,0,3.7,3.7,0,0,0,0,4.86A3.06,3.06,0,0,0,124.16,257Z"/><path class="cls-3" d="M131.22,259V248.1H132l6.82,6.83V248.1H141V259h-.79l-6.76-6.76V259Z"/></svg>