<?xml version="1.0" encoding="utf-8"?>
<!-- Generator: Adobe Illustrator 23.0.1, SVG Export Plug-In . SVG Version: 6.00 Build 0)  -->
<svg version="1.1" id="Content" xmlns="http://www.w3.org/2000/svg" xmlns:xlink="http://www.w3.org/1999/xlink" x="0px" y="0px"
	 viewBox="0 0 640 1136" style="enable-background:new 0 0 640 1136;" xml:space="preserve">
<style type="text/css">
	.st0{fill:#FFFFFF;}
	.st1{fill:url(#SVGID_1_);}
	.st2{fill:#B89344;}
</style>
<title>minty</title>
<path class="st0" d="M313.5,768.3c0.2-0.1,0.5-0.2,0.7-0.3c0.3-0.1,0.5-0.2,0.8-0.2h0l8-1.8c0.6-0.1,1.2,0,1.7,0.3l1.3,1.3l-2.8,2.9
	l-8.9,2C314,770.8,313.7,769.2,313.5,768.3 M341,790.4l-4.4-19.8c-0.3-1.5-1.8-2.5-3.3-2.3l2.3-2.5l0.6,0.6l1-1
	c0.2-0.2,0.2-0.6,0-0.9l-4.7-4.4c-0.2-0.2-0.6-0.2-0.9,0l-1,1l0.8,0.7l-3.1,3.3l-1.5-1.5l-0.1-0.1c-1.3-0.9-2.9-1.2-4.5-0.8
	l-7.9,1.7c-0.5,0.1-0.9,0.2-1.4,0.3c-1,0.3-1.9,0.9-2.5,1.7c-0.4,0.6-0.6,1.4-0.4,2.1c0.2,1.1,1.1,5,1.6,7.3c0,0,0,0.1,0,0.2
	l4.4,19.8c0.4,1.6,1.9,2.6,3.5,2.2l19.2-4.1C340.3,793.6,341.3,792.1,341,790.4"/>
<linearGradient id="SVGID_1_" gradientUnits="userSpaceOnUse" x1="286.22" y1="356.255" x2="376.75" y2="356.255" gradientTransform="matrix(1 0 0 -1 0 1136)">
	<stop  offset="0" style="stop-color:#A68834"/>
	<stop  offset="0.49" style="stop-color:#C8AD67"/>
	<stop  offset="1" style="stop-color:#937F2E"/>
</linearGradient>
<polygon class="st1" points="364.5,810.2 326.8,824.7 291.9,804.2 286.2,764.2 313.9,734.8 354.2,738.1 376.8,771.7 "/>
<path class="st0" d="M350.6,794c0.1-5.2-2.3-10.2-6.4-13.3c0,0,2-0.7,3-0.4c-1.2-2.6-3.4-4.6-6.1-5.5c0.8-0.3,1.6-0.4,2.4-0.3
	c0,0-3.5-5.8-12.7-8.4c0.8-0.2,1.5-0.3,2.3-0.3c0,0-9.5-5.2-18.5,0.7c0,0,7.7,4,10.7,8.2c0,0-10.5-6.7-12-6.6c0,0-4.7,11.2,7.3,21.1
	c-0.3-0.7-0.4-1.5-0.3-2.3c0,0,4.8,5.8,9.4,7.3c-0.2-0.7-0.2-1.5,0-2.3c0,0,3.2,3.3,6.7,3.8c0,0-0.7-2-0.2-3.1
	C336.2,792.7,343.9,797.3,350.6,794"/>
<path class="st2" d="M293.9,867.5v-16.6h1.1l7.2,8.2l7.2-8.2h1.1v16.6h-3.3v-9.7l-5,5.5l-5-5.5v9.7H293.9z"/>
<path class="st2" d="M313.8,850.9h3.3v16.7h-3.3V850.9z"/>
<path class="st2" d="M320.5,867.5v-16.6h1.1l10.4,10.4v-10.4h3.3v16.6h-1.2l-10.3-10.3v10.3H320.5z"/>
<path class="st2" d="M352.4,850.9v3.1h-5.5v13.5h-3.3V854h-5.5v-3.1L352.4,850.9z"/>
<path class="st2" d="M353.9,850.9h3.9l3.9,5.4l4-5.4h3.8l-6.1,8.3v8.3H360v-8.3L353.9,850.9z"/>
</svg>
