<svg id="Content" xmlns="http://www.w3.org/2000/svg" xmlns:xlink="http://www.w3.org/1999/xlink" width="728" height="360" viewBox="0 0 728 360"><defs><style>.cls-1{fill:none;}.cls-2{fill:url(#New_Gradient_Swatch_1);}.cls-3{fill:#fff;}.cls-4{fill:#ba9544;}.cls-5{clip-path:url(#clip-path);}</style><linearGradient id="New_Gradient_Swatch_1" x1="105.85963" y1="176.75991" x2="162.48037" y2="176.75991" gradientUnits="userSpaceOnUse"><stop offset="0" stop-color="#a88a34"/><stop offset="0.49324" stop-color="#caaf67"/><stop offset="1" stop-color="#957f2e"/></linearGradient><clipPath id="clip-path"><rect class="cls-1" x="461.86539" y="-134.33868" width="208.12648" height="92"/></clipPath></defs><title>sweet</title><polygon class="cls-2" points="129.379 205.722 105.86 178.56 124.425 147.798 159.418 155.948 162.48 191.745 129.379 205.722"/><path class="cls-3" d="M148.20895,166.951a1.40591,1.40591,0,0,1-1.40489-1.40488,2.27311,2.27311,0,0,0-2.2742-2.2742h-.74281a1.53284,1.53284,0,0,0-1.5341,1.53138v5.30736a7.475,7.475,0,0,0-9.83418.64861L130.995,172.183a7.47507,7.47507,0,0,0-.64861,9.83422h-5.30735a1.53109,1.53109,0,0,0-1.53138,1.53407v.74281a2.27311,2.27311,0,0,0,2.2742,2.2742,1.40589,1.40589,0,0,1,1.4049,1.40488,2.27307,2.27307,0,0,0,2.27419,2.27419h.74282a1.53279,1.53279,0,0,0,1.53405-1.53138v-5.30735a7.475,7.475,0,0,0,9.83423-.64861l1.4237-1.42373a7.47493,7.47493,0,0,0,.64861-9.83421h5.30735a1.5328,1.5328,0,0,0,1.53138-1.53407v-.74281a2.27307,2.27307,0,0,0-2.27416-2.2742"/><path class="cls-4" d="M111.01465,223.02069a4.978,4.978,0,0,1,1.52539,1.06446l-1.419,1.41992a2.44261,2.44261,0,0,0-1.9873-.85157q-1.27734,0-1.63184.60254a.83011.83011,0,0,0,0,1.0293,2.79845,2.79845,0,0,0,1.63184.63867,5.29182,5.29182,0,0,1,2.44824.88672,2.66529,2.66529,0,0,1,1.1001,2.37793,2.72778,2.72778,0,0,1-1.17432,2.19922,4.30055,4.30055,0,0,1-2.73584.92285,6.29719,6.29719,0,0,1-2.47656-.42578,5.36392,5.36392,0,0,1-1.70312-1.13574l1.41943-1.41895a3.37394,3.37394,0,0,0,2.4126.99317q1.41944,0,1.7705-.60254a1.1239,1.1239,0,0,0,0-1.207q-.35156-.60205-1.7705-.74512a5.72419,5.72419,0,0,1-2.3418-.78027,2.35586,2.35586,0,0,1-1.06445-2.2002,2.64712,2.64712,0,0,1,1.21-2.2666,4.26067,4.26067,0,0,1,2.4873-.85547A5.94577,5.94577,0,0,1,111.01465,223.02069Z"/><path class="cls-4" d="M121.05566,225.50507l-2.1289,7.80566h-2.12891l-2.8457-10.64453h2.271l1.85206,7.23828,1.916-7.23828h2.19971l1.84521,7.23828,1.84522-7.23828h2.27051l-2.83838,10.64453h-2.12891Z"/><path class="cls-4" d="M129.69873,233.31073V222.673l7.82031-.00684v1.9873h-5.6914V226.924h4.26513v1.97949h-4.26513v2.41993h5.67724v1.9873Z"/><path class="cls-4" d="M139.63379,233.31073V222.673l7.82031-.00684v1.9873h-5.6914V226.924h4.26513v1.97949H141.7627v2.41993h5.67724v1.9873Z"/><path class="cls-4" d="M158.2832,222.6662v1.9873h-3.54785v8.65723h-2.1289V224.6535h-3.54834v-1.9873Z"/><g class="cls-5"><image id="SmallTopDown-8383-DaytimeCBD.psd" width="1500" height="1261" transform="translate(443.42939 -154.61789) scale(0.12656)" xlink:href="../../../../../Dropbox%20(Revolution%20Strategy)/Rocio%20Ugarte/Clients/Namaste/Digital%20Ads/_Flight%202:Phase%202%20Terpene/1.%20Animated%20w:%20Packaging/8.%20Expandable%20Unit%20728%20x%2090:728%20x%20360/728%20x%2090_728%20x%20360_Folder/Links/SmallTopDown-8383-DaytimeCBD.png"/></g></svg>