<?xml version="1.0" encoding="utf-8"?>
<!-- Generator: Adobe Illustrator 23.0.1, SVG Export Plug-In . SVG Version: 6.00 Build 0)  -->
<svg version="1.1" id="Content" xmlns="http://www.w3.org/2000/svg" xmlns:xlink="http://www.w3.org/1999/xlink" x="0px" y="0px"
	 viewBox="0 0 640 1136" style="enable-background:new 0 0 640 1136;" xml:space="preserve">
<style type="text/css">
	.st0{fill:url(#SVGID_1_);}
	.st1{fill:#FFFFFF;}
	.st2{fill:#B89344;}
</style>
<title>sweet</title>
<linearGradient id="SVGID_1_" gradientUnits="userSpaceOnUse" x1="136.41" y1="359.715" x2="227.6" y2="359.715" gradientTransform="matrix(1 0 0 -1 0 1136)">
	<stop  offset="0" style="stop-color:#A68834"/>
	<stop  offset="0.49" style="stop-color:#C8AD67"/>
	<stop  offset="1" style="stop-color:#937F2E"/>
</linearGradient>
<polygon class="st0" points="174.3,822.9 136.4,779.2 166.3,729.6 222.7,742.8 227.6,800.4 "/>
<path class="st1" d="M204.6,760.5c-0.6,0-1.2-0.2-1.6-0.7c-0.4-0.4-0.7-1-0.7-1.6c0-2-1.6-3.7-3.7-3.7h-1.2c-1.4,0-2.5,1.1-2.5,2.4
	v8.5c-4.8-3.7-11.6-3.3-15.8,1l-2.3,2.3c-4.3,4.3-4.7,11.1-1,15.8h-8.6c-1.4,0-2.5,1.1-2.5,2.5c0,0,0,0,0,0v1.2c0,2,1.6,3.7,3.7,3.7
	c0,0,0,0,0,0c0.6,0,1.2,0.2,1.6,0.7c0.4,0.4,0.7,1,0.7,1.6c0,2,1.6,3.7,3.7,3.7h1.2c1.4,0,2.5-1.1,2.5-2.5V787
	c4.8,3.7,11.6,3.3,15.8-1l2.3-2.3c4.3-4.3,4.7-11.1,1-15.8h8.6c1.4,0,2.5-1.1,2.5-2.5v-1.2C208.2,762.2,206.6,760.5,204.6,760.5
	C204.6,760.5,204.6,760.5,204.6,760.5"/>
<path class="st2" d="M144.7,850.8c0.9,0.4,1.8,1,2.5,1.7l-2.3,2.3c-0.8-0.9-2-1.4-3.2-1.4c-1.4,0-2.2,0.3-2.6,1
	c-0.4,0.5-0.4,1.2,0,1.7c0.7,0.6,1.7,1,2.6,1c1.4,0.1,2.8,0.6,3.9,1.4c1.2,0.9,1.9,2.3,1.8,3.8c0,1.4-0.7,2.7-1.9,3.5
	c-1.3,1-2.8,1.5-4.4,1.5c-1.4,0-2.7-0.2-4-0.7c-1-0.4-2-1-2.7-1.8l2.3-2.3c1,1,2.4,1.6,3.9,1.6c1.5,0,2.5-0.3,2.9-1
	c0.4-0.6,0.4-1.4,0-2c-0.4-0.6-1.3-1-2.9-1.2c-1.3-0.1-2.6-0.6-3.8-1.2c-1.2-0.8-1.9-2.1-1.7-3.5c0-1.4,0.7-2.8,2-3.6
	c1.2-0.9,2.6-1.4,4-1.4C142.3,850.2,143.5,850.4,144.7,850.8z"/>
<path class="st2" d="M160.9,854.8l-3.4,12.6H154l-4.6-17.2h3.7l3,11.7l3.1-11.7h3.5l3,11.7l3-11.7h3.6l-4.6,17.2h-3.4L160.9,854.8z"
	/>
<path class="st2" d="M174.8,867.4v-17.1h12.6v3.2h-9.2v3.7h6.9v3.2h-6.9v3.9h9.1v3.2L174.8,867.4z"/>
<path class="st2" d="M190.8,867.4v-17.1h12.6v3.2h-9.2v3.7h6.9v3.2h-6.9v3.9h9.1v3.2L190.8,867.4z"/>
<path class="st2" d="M220.8,850.2v3.2h-5.7v14h-3.4v-14H206v-3.2H220.8z"/>
</svg>
