<svg id="Content" xmlns="http://www.w3.org/2000/svg" viewBox="0 0 728 360"><defs><style>.cls-1{fill:#fff;stroke:#ba9544;stroke-miterlimit:10;stroke-width:0.5px;}.cls-2{fill:#ba9544;}</style></defs><title>THC - Ultra Sour</title><polygon class="cls-1" points="635.28 170.59 402.67 169.71 390.93 186.64 402.67 203.27 635.28 202.88 645.84 186.73 635.28 170.59"/><polygon class="cls-2" points="402.84 169.71 391.1 186.64 402.84 203.27 447.09 203.27 447.09 169.71 402.84 169.71"/><path class="cls-2" d="M535.8,181.09v2.13H532v9.26h-2.28v-9.26h-3.8v-2.13Z"/><path class="cls-2" d="M537.5,192.48V181.09h2.28v4.56h5.3v-4.57h2.28v11.39h-2.28v-4.71h-5.3v4.71Z"/><path class="cls-2" d="M550.89,190.84a5.7,5.7,0,0,1,4.06-9.75,6.18,6.18,0,0,1,4.18,1.52l-1.52,1.66a4.17,4.17,0,0,0-2.66-.91,3.35,3.35,0,0,0-2.48,1,3.32,3.32,0,0,0-.93,2.43,3.41,3.41,0,0,0,1,2.52,3.35,3.35,0,0,0,2.47.93,4.09,4.09,0,0,0,2.65-.9l1.52,1.66a6.15,6.15,0,0,1-4.18,1.52A5.58,5.58,0,0,1,550.89,190.84Z"/><path class="cls-2" d="M567,185.22a1.1,1.1,0,0,1,.82-.31,1.15,1.15,0,0,1,.86.31,1.11,1.11,0,0,1,0,1.52,1.33,1.33,0,0,1-1.68,0,1.11,1.11,0,0,1,0-1.52Zm0,5.43a1.14,1.14,0,0,1,.82-.31,1.19,1.19,0,0,1,.86.31,1.06,1.06,0,0,1,.3.77,1,1,0,0,1-.3.75,1.29,1.29,0,0,1-1.68,0,1,1,0,0,1-.3-.75A1.06,1.06,0,0,1,567,190.65Z"/><path class="cls-2" d="M579.12,181.09h2.27v11.4h-2.27v-8.35l-1.52,1.52-1.52-1.52Z"/><path class="cls-2" d="M589.79,186.71l.38.15a2.24,2.24,0,0,1,1.17,2.28,2.93,2.93,0,0,1-1.1,2.54,5.46,5.46,0,0,1-5.69,0,2.91,2.91,0,0,1-1.1-2.54,2.24,2.24,0,0,1,1.17-2.28l.38-.15-.22-.12a2.23,2.23,0,0,1-1-2.16,3.14,3.14,0,0,1,1-2.47,4.49,4.49,0,0,1,5.31,0,3.14,3.14,0,0,1,1,2.47,2.23,2.23,0,0,1-1,2.16Zm-2.4-1a1.47,1.47,0,0,0,1.3-.53,1.25,1.25,0,0,0,0-1.29,1.49,1.49,0,0,0-1.3-.64,1.46,1.46,0,0,0-1.28.64,1.2,1.2,0,0,0,0,1.29A1.42,1.42,0,0,0,587.39,185.68Zm0,2.08a1.72,1.72,0,0,0-1.28.66,1.2,1.2,0,0,0,0,1.29,1.45,1.45,0,0,0,1.28.63,1.49,1.49,0,0,0,1.3-.63,1.25,1.25,0,0,0,0-1.29A1.77,1.77,0,0,0,587.39,187.76Z"/><path class="cls-2" d="M593.33,189.43v-1.51H598v1.51Z"/><path class="cls-2" d="M604.11,181.09a4.28,4.28,0,0,1,2.73.84,3,3,0,0,1,1.07,2.5,5.24,5.24,0,0,1-1.52,3.62,10.4,10.4,0,0,1-2.5,2.15H608v2.28h-7.67V190.2c.5,0,1.46-.63,2.88-1.9a10.81,10.81,0,0,0,2.47-2.69,1.87,1.87,0,0,0,0-1.6c-.25-.53-.86-.79-1.82-.79a2.62,2.62,0,0,0-2.13.91l-1.51-1.52a6,6,0,0,1,1.48-1.14A5.74,5.74,0,0,1,604.11,181.09Z"/><path class="cls-2" d="M617.44,181.09v2.13h-4.71v1.59h.91a5.1,5.1,0,0,1,3.45,1,4.15,4.15,0,0,1,1.17,3.07,3.33,3.33,0,0,1-1.14,2.51,4,4,0,0,1-2.81,1.06,6.63,6.63,0,0,1-2.65-.46,5.68,5.68,0,0,1-1.82-1.21l1.52-1.52a3.16,3.16,0,0,0,2.43,1c1.36,0,2.11-.5,2.24-1.51a1.71,1.71,0,0,0-.7-1.41,4.53,4.53,0,0,0-2.45-.42h-2.43v-5.85Z"/><path class="cls-2" d="M620.58,185.9a2.77,2.77,0,0,1-.82-2,2.73,2.73,0,0,1,.82-2,2.94,2.94,0,0,1,4.07,0,2.73,2.73,0,0,1,.82,2,2.77,2.77,0,0,1-.82,2,2.94,2.94,0,0,1-4.07,0Zm2-.54a1.34,1.34,0,0,0,1-.43,1.53,1.53,0,0,0,.41-1.08,1.5,1.5,0,0,0-.41-1.07,1.47,1.47,0,0,0-2.08,0,1.5,1.5,0,0,0-.4,1.07,1.52,1.52,0,0,0,.4,1.08A1.36,1.36,0,0,0,622.59,185.36Zm-.6,7.12,6.45-11.39h1.85l-6.44,11.39Zm5.65-.75a2.92,2.92,0,1,1,2,.81A2.75,2.75,0,0,1,627.64,191.73Zm2-.56a1.33,1.33,0,0,0,1-.42,1.57,1.57,0,0,0,0-2.09,1.41,1.41,0,0,0-2,0,1.57,1.57,0,0,0,0,2.09A1.32,1.32,0,0,0,629.62,191.17Z"/></svg>