<svg id="Content" xmlns="http://www.w3.org/2000/svg" width="640" height="1136" viewBox="0 0 640 1136"><defs><style>.cls-1{fill:#fff;stroke:#ba9544;stroke-miterlimit:10;}.cls-2{fill:#ba9544;}</style></defs><title>THC - MK Ultra</title><polygon class="cls-1" points="507.668 602.668 135.505 601.257 116.717 628.35 135.505 654.961 507.668 654.327 524.577 628.499 507.668 602.668"/><polygon class="cls-2" points="135.776 601.257 116.989 628.35 135.776 654.961 192.812 654.961 193.004 601.257 135.776 601.257"/><path class="cls-2" d="M348.51356,619.47184v3.40137h-6.07324v14.82031h-3.64453V622.87321h-6.07324v-3.40137Z"/><path class="cls-2" d="M351.22255,637.69352V619.47184h3.64453v7.28907h8.49121v-7.30078h3.64356v18.22168l-3.64356.01171v-7.53125h-8.49121v7.53125Z"/><path class="cls-2" d="M372.65712,635.07536a9.11409,9.11409,0,0,1,6.48047-15.60352,9.86036,9.86036,0,0,1,6.69336,2.42969l-2.42969,2.66016a6.71656,6.71656,0,0,0-4.26367-1.457,5.35272,5.35272,0,0,0-3.9541,1.53027,5.29862,5.29862,0,0,0-1.5,3.8877,5.46266,5.46266,0,0,0,1.51855,4.03222,5.37784,5.37784,0,0,0,3.96,1.49414,6.52808,6.52808,0,0,0,4.23926-1.44531l2.42969,2.66016a9.82768,9.82768,0,0,1-6.69336,2.42968A8.86309,8.86309,0,0,1,372.65712,635.07536Z"/><path class="cls-2" d="M389.913,626.07438a1.75791,1.75791,0,0,1,1.31152-.49218,1.82429,1.82429,0,0,1,1.36035.49218,1.66853,1.66853,0,0,1,.48633,1.22071,1.64582,1.64582,0,0,1-.48633,1.21484,2.07805,2.07805,0,0,1-2.67187,0,1.64582,1.64582,0,0,1-.48633-1.21484A1.66853,1.66853,0,0,1,389.913,626.07438Zm0,8.69727a1.76109,1.76109,0,0,1,1.31152-.49121,1.82764,1.82764,0,0,1,1.36035.49121,1.66918,1.66918,0,0,1,.48633,1.22168,1.64516,1.64516,0,0,1-.48633,1.21387,2.07809,2.07809,0,0,1-2.67187,0,1.64516,1.64516,0,0,1-.48633-1.21387A1.66918,1.66918,0,0,1,389.913,634.77165Z"/><path class="cls-2" d="M409.31142,619.47184v-.01171h3.63281v18.23339h-3.63281v-13.3623l-2.42969,2.42969-2.42871-2.42969Z"/><path class="cls-2" d="M416.57606,628.83806a11.03074,11.03074,0,0,1,1.88282-6.84473,6.15126,6.15126,0,0,1,5.041-2.50879,7.65444,7.65444,0,0,1,5.10254,1.80957l-1.82226,2.42969a6.42833,6.42833,0,0,0-3.12207-.72852,3.22591,3.22591,0,0,0-2.51465,1.03223,4.88645,4.88645,0,0,0-1.04492,3.09765,5.66092,5.66092,0,0,1,3.64453-1.5791,6.084,6.084,0,0,1,4.67675,1.63965,6.2683,6.2683,0,0,1,1.51856,4.4336,5.97577,5.97577,0,0,1-1.7002,4.3125,6.44245,6.44245,0,0,1-4.85937,1.76171q-3.64453-.12158-5.22363-2.46582A11.3023,11.3023,0,0,1,416.57606,628.83806Zm4.00879,2.79394q.12159,2.53857,2.915,2.64844,2.79492-.10986,2.916-2.418-.12159-3.03661-3.03711-3.03613A2.70481,2.70481,0,0,0,420.58485,631.632Z"/><path class="cls-2" d="M433.21767,632.82243v-2.417h7.53125v2.417Z"/><path class="cls-2" d="M450.455,619.47184a6.87322,6.87322,0,0,1,4.37891,1.34278,4.7823,4.7823,0,0,1,1.707,4.00293,8.3445,8.3445,0,0,1-2.42383,5.78222,16.81765,16.81765,0,0,1-4.00195,3.44922h6.55957v3.64453H444.39345V634.049q1.21436,0,4.61621-3.03613,3.40137-3.03809,3.94726-4.3125a2.96369,2.96369,0,0,0-.06054-2.55176q-.60792-1.27441-2.915-1.27539a4.18327,4.18327,0,0,0-3.40137,1.458l-2.42969-2.42969a10.0653,10.0653,0,0,1,2.36914-1.82226A9.12635,9.12635,0,0,1,450.455,619.47184Z"/><path class="cls-2" d="M461.91005,635.07536a12.48814,12.48814,0,0,1,0-12.99121,5.83127,5.83127,0,0,1,9.72461,0,12.54059,12.54059,0,0,1,0,12.998,5.82828,5.82828,0,0,1-9.72461-.00684Zm4.87109-.7832q1.20264,0,2.11426-1.63965a9.5429,9.5429,0,0,0,0-8.13867q-.91113-1.64062-2.13867-1.64063-1.20264,0-2.11328,1.64063a9.54281,9.54281,0,0,0,0,8.13867Q465.55458,634.29167,466.78114,634.29216Z"/><path class="cls-2" d="M477.787,627.1613a4.69458,4.69458,0,1,1,3.25586,1.3125A4.41977,4.41977,0,0,1,477.787,627.1613Zm3.21973-.84961a2.17283,2.17283,0,0,0,1.66406-.69238,2.626,2.626,0,0,0,0-3.44434,2.19655,2.19655,0,0,0-1.67676-.68652,2.16449,2.16449,0,0,0-1.65136.68652,2.62306,2.62306,0,0,0,0,3.44434A2.16991,2.16991,0,0,0,481.00673,626.31169Zm-.97168,11.38183,10.32519-18.22168h2.96387l-10.30078,18.22168Zm9.0498-1.20214a4.66556,4.66556,0,1,1,3.23047,1.2998A4.38643,4.38643,0,0,1,489.08485,636.49138Zm3.16993-.8877a2.13094,2.13094,0,0,0,1.62793-.67383,2.5395,2.5395,0,0,0,0-3.35254,2.14484,2.14484,0,0,0-1.63965-.67383,2.11715,2.11715,0,0,0-1.61621.67383,2.54243,2.54243,0,0,0,0,3.35254A2.13091,2.13091,0,0,0,492.25478,635.60368Z"/></svg>