<svg id="Content" xmlns="http://www.w3.org/2000/svg" width="640" height="1136" viewBox="0 0 640 1136"><defs><style>.cls-1{fill:#fff;stroke:#ba9544;stroke-miterlimit:10;}.cls-2{fill:#ba9544;}</style></defs><title>THC - Shishkaberry</title><polygon class="cls-1" points="507.669 602.668 135.504 601.257 116.717 628.35 135.504 654.961 507.669 654.327 524.577 628.499 507.669 602.668"/><polygon class="cls-2" points="135.775 601.257 116.988 628.35 135.775 654.961 181.793 654.961 181.793 601.257 135.775 601.257"/><path class="cls-2" d="M348.51646,619.47477v3.40137h-6.07325v14.82031h-3.64453V622.87614h-6.07324v-3.40137Z"/><path class="cls-2" d="M351.22544,637.69645V619.47477H354.87v7.28907h8.49121v-7.30078h3.64356v18.22167l-3.64356.01172V630.1652H354.87v7.53125Z"/><path class="cls-2" d="M372.66,635.07829a9.11409,9.11409,0,0,1,6.48047-15.60352,9.86036,9.86036,0,0,1,6.69336,2.42969l-2.42871,2.66016a6.72118,6.72118,0,0,0-4.26465-1.457,5.19325,5.19325,0,0,0-5.4541,5.417,5.46344,5.46344,0,0,0,1.51855,4.0332,5.37784,5.37784,0,0,0,3.96,1.49414,6.5326,6.5326,0,0,0,4.24024-1.44531l2.42871,2.66016a9.82593,9.82593,0,0,1-6.69336,2.42968A8.86309,8.86309,0,0,1,372.66,635.07829Z"/><path class="cls-2" d="M389.91587,626.07731a1.75791,1.75791,0,0,1,1.31152-.49218,1.82433,1.82433,0,0,1,1.36036.49218,1.66856,1.66856,0,0,1,.48632,1.22071,1.6474,1.6474,0,0,1-.48632,1.21484,2.07807,2.07807,0,0,1-2.67188,0,1.64737,1.64737,0,0,1-.48633-1.21484A1.66853,1.66853,0,0,1,389.91587,626.07731Zm0,8.69727a1.76109,1.76109,0,0,1,1.31152-.49121,1.82768,1.82768,0,0,1,1.36036.49121,1.66921,1.66921,0,0,1,.48632,1.22168,1.64519,1.64519,0,0,1-.48632,1.21387,2.0781,2.0781,0,0,1-2.67188,0,1.64516,1.64516,0,0,1-.48633-1.21387A1.66918,1.66918,0,0,1,389.91587,634.77458Z"/><path class="cls-2" d="M409.31431,619.47477v-.01171h3.63281v18.23339h-3.63281v-13.3623l-2.42969,2.42969-2.42871-2.42969Z"/><path class="cls-2" d="M424.63267,619.48747v-.02441h3.63183v10.59277h2.4541v3.63183h-2.4541v4.00879h-3.63183v-4.00879h-8.27246v-3.63183h.12207l-.10938-.12207Zm0,10.56836v-5.80664l-4.4336,5.80664Z"/><path class="cls-2" d="M433.50083,632.82536v-2.417h7.53125v2.417Z"/><path class="cls-2" d="M448.89146,619.47477v-.01171h3.63281v18.23339h-3.63281v-13.3623l-2.42969,2.42969-2.42871-2.42969Z"/><path class="cls-2" d="M465.97153,628.464q.32813.12159.59473.24317,1.88379.85107,1.88281,3.64453a4.67753,4.67753,0,0,1-1.7666,4.06933,8.75135,8.75135,0,0,1-9.09863,0,4.67565,4.67565,0,0,1-1.76758-4.06933q0-2.79346,1.88281-3.64453.26661-.12159.59473-.24317c-.12891-.06445-.24707-.125-.35156-.18164q-1.64062-.91113-1.64063-3.46191a4.98241,4.98241,0,0,1,1.58594-3.94825,7.14795,7.14795,0,0,1,8.49121,0,4.985,4.985,0,0,1,1.585,3.94825q0,2.55029-1.63965,3.46191C466.2186,628.339,466.10044,628.39958,465.97153,628.464Zm-3.83886-1.65137q1.604-.04833,2.06543-.83886a1.94028,1.94028,0,0,0,0-2.06446,2.3367,2.3367,0,0,0-2.06543-1.0205,2.30265,2.30265,0,0,0-2.05274,1.0205,1.90472,1.90472,0,0,0,0,2.06446Q460.52965,626.76334,462.13267,626.81266Zm0,3.33985a2.70737,2.70737,0,0,0-2.05274,1.04492,1.90636,1.90636,0,0,0,0,2.06543,2.30266,2.30266,0,0,0,2.05274,1.02051,2.33671,2.33671,0,0,0,2.06543-1.02051,1.942,1.942,0,0,0,0-2.06543A2.7548,2.7548,0,0,0,462.13267,630.15251Z"/><path class="cls-2" d="M472.68833,627.16423a4.69458,4.69458,0,1,1,3.25586,1.3125A4.41977,4.41977,0,0,1,472.68833,627.16423Zm3.21973-.84961a2.1728,2.1728,0,0,0,1.66406-.69239,2.626,2.626,0,0,0,0-3.44433,2.19655,2.19655,0,0,0-1.67676-.68652,2.16449,2.16449,0,0,0-1.65136.68652,2.623,2.623,0,0,0,0,3.44433A2.16989,2.16989,0,0,0,475.90806,626.31462Zm-.97168,11.38183,10.32519-18.22168h2.96387l-10.30078,18.22168Zm9.0498-1.20214a4.66556,4.66556,0,1,1,3.23047,1.2998A4.38643,4.38643,0,0,1,483.98618,636.49431Zm3.16992-.8877a2.13091,2.13091,0,0,0,1.62793-.67383,2.53947,2.53947,0,0,0,0-3.35254,2.14481,2.14481,0,0,0-1.63964-.67383,2.11862,2.11862,0,0,0-1.61621.67383,2.54243,2.54243,0,0,0,0,3.35254A2.13237,2.13237,0,0,0,487.1561,635.60661Z"/></svg>