<svg id="Content" xmlns="http://www.w3.org/2000/svg" width="640" height="1136" viewBox="0 0 640 1136"><defs><style>.cls-1{fill:#fff;stroke:#ba9544;stroke-miterlimit:10;}.cls-2{fill:#ba9544;}</style></defs><title>THC - Durga Mata</title><polygon class="cls-1" points="507.668 602.668 135.505 601.257 116.717 628.35 135.505 654.961 507.668 654.327 524.577 628.499 507.668 602.668"/><polygon class="cls-2" points="135.776 601.257 116.989 628.35 135.776 654.961 173.011 654.961 172.6 601.257 135.776 601.257"/><path class="cls-2" d="M348.51329,619.47087v3.40136h-6.07324v14.82032h-3.64454V622.87223h-6.07324v-3.40136Z"/><path class="cls-2" d="M351.22227,637.69255V619.47087h3.64453v7.28906H363.358v-7.30078h3.64356v18.22168l-3.64356.01172V630.1613H354.8668v7.53125Z"/><path class="cls-2" d="M372.65684,635.07438a9.11408,9.11408,0,0,1,6.48047-15.60351,9.8603,9.8603,0,0,1,6.69336,2.42969l-2.42969,2.66015a6.71654,6.71654,0,0,0-4.26367-1.457,5.35273,5.35273,0,0,0-3.9541,1.53027,5.29862,5.29862,0,0,0-1.5,3.8877,5.4627,5.4627,0,0,0,1.51855,4.03223,5.37788,5.37788,0,0,0,3.96,1.49414,6.52807,6.52807,0,0,0,4.23926-1.44532l2.42969,2.66016a9.82764,9.82764,0,0,1-6.69336,2.42969A8.86311,8.86311,0,0,1,372.65684,635.07438Z"/><path class="cls-2" d="M389.9127,626.07341a1.75788,1.75788,0,0,1,1.31152-.49219,1.8243,1.8243,0,0,1,1.36036.49219,1.6685,1.6685,0,0,1,.48632,1.2207,1.64579,1.64579,0,0,1-.48632,1.21484,2.07807,2.07807,0,0,1-2.67188,0,1.6458,1.6458,0,0,1-.48633-1.21484A1.66851,1.66851,0,0,1,389.9127,626.07341Zm0,8.69726a1.76109,1.76109,0,0,1,1.31152-.49121,1.82768,1.82768,0,0,1,1.36036.49121,1.66919,1.66919,0,0,1,.48632,1.22168,1.64514,1.64514,0,0,1-.48632,1.21387,2.07807,2.07807,0,0,1-2.67188,0,1.64515,1.64515,0,0,1-.48633-1.21387A1.6692,1.6692,0,0,1,389.9127,634.77067Z"/><path class="cls-2" d="M413.12559,619.48356v-.02441h3.63184v10.59277h2.4541v3.63184h-2.4541v4.00879h-3.63184v-4.00879h-8.27246v-3.63184h.12207l-.10937-.12207Zm0,10.56836v-5.80664l-4.43359,5.80664Z"/><path class="cls-2" d="M421.99278,632.82145v-2.417H429.524v2.417Z"/><path class="cls-2" d="M442.95958,628.46013q.32813.12158.59472.24316,1.88379.85107,1.88282,3.64453a4.67567,4.67567,0,0,1-1.76758,4.06934,8.74962,8.74962,0,0,1-9.09766,0,4.67567,4.67567,0,0,1-1.76758-4.06934q0-2.79345,1.88282-3.64453.26659-.12159.59472-.24316c-.1289-.06446-.24707-.125-.35156-.18165q-1.64062-.91113-1.64063-3.46191a4.98237,4.98237,0,0,1,1.58594-3.94824,7.14648,7.14648,0,0,1,8.49024,0,4.9824,4.9824,0,0,1,1.58593,3.94824q0,2.5503-1.63964,3.46191C443.20665,628.33513,443.08848,628.39567,442.95958,628.46013Zm-3.83887-1.65137q1.604-.04835,2.06543-.83887a1.94026,1.94026,0,0,0,0-2.06445,2.3367,2.3367,0,0,0-2.06543-1.02051,2.30266,2.30266,0,0,0-2.05274,1.02051,1.9047,1.9047,0,0,0,0,2.06445Q437.51769,626.75945,439.12071,626.80876Zm0,3.33984a2.71048,2.71048,0,0,0-2.05274,1.04492,1.90636,1.90636,0,0,0,0,2.06543,2.30266,2.30266,0,0,0,2.05274,1.02051,2.3367,2.3367,0,0,0,2.06543-1.02051,1.942,1.942,0,0,0,0-2.06543A2.758,2.758,0,0,0,439.12071,630.1486Z"/><path class="cls-2" d="M449.67637,627.16032a4.69458,4.69458,0,1,1,3.25586,1.3125A4.41974,4.41974,0,0,1,449.67637,627.16032Zm3.21973-.84961a2.17279,2.17279,0,0,0,1.66406-.69238,2.626,2.626,0,0,0,0-3.44434,2.19655,2.19655,0,0,0-1.67676-.68652,2.16449,2.16449,0,0,0-1.65136.68652,2.62306,2.62306,0,0,0,0,3.44434A2.16989,2.16989,0,0,0,452.8961,626.31071Zm-.97168,11.38184,10.3252-18.22168h2.96386L454.9127,637.69255Zm9.0498-1.20215a4.66556,4.66556,0,1,1,3.23047,1.2998A4.38643,4.38643,0,0,1,460.97422,636.4904Zm3.16993-.8877a2.131,2.131,0,0,0,1.62793-.67382,2.5395,2.5395,0,0,0,0-3.35254,2.14484,2.14484,0,0,0-1.63965-.67383,2.11717,2.11717,0,0,0-1.61621.67383,2.54243,2.54243,0,0,0,0,3.35254A2.131,2.131,0,0,0,464.14415,635.6027Z"/></svg>