<svg id="Content" xmlns="http://www.w3.org/2000/svg" width="640" height="1136" viewBox="0 0 640 1136"><defs><style>.cls-1{fill:#fff;stroke:#ba9544;stroke-miterlimit:10;}.cls-2{fill:#ba9544;}</style></defs><title>THC - Ultra Sour</title><polygon class="cls-1" points="507.668 602.668 135.504 601.257 116.717 628.35 135.504 654.961 507.668 654.327 524.577 628.499 507.668 602.668"/><polygon class="cls-2" points="135.776 601.257 116.988 628.35 135.776 654.961 206.566 654.961 206.566 601.257 135.776 601.257"/><path class="cls-2" d="M348.51483,619.47087v3.40136h-6.07324v14.82032h-3.64453V622.87223h-6.07324v-3.40136Z"/><path class="cls-2" d="M351.22382,637.69255V619.47087h3.64453v7.28906h8.49121v-7.30078h3.64356v18.22168l-3.64356.01172V630.1613h-8.49121v7.53125Z"/><path class="cls-2" d="M372.65839,635.07438a9.11408,9.11408,0,0,1,6.48047-15.60351,9.86032,9.86032,0,0,1,6.69336,2.42969l-2.42871,2.66015a6.7212,6.7212,0,0,0-4.26465-1.457,5.19325,5.19325,0,0,0-5.4541,5.417,5.46348,5.46348,0,0,0,1.51855,4.03321,5.37788,5.37788,0,0,0,3.96,1.49414,6.53263,6.53263,0,0,0,4.24024-1.44532l2.42871,2.66016a9.82589,9.82589,0,0,1-6.69336,2.42969A8.8631,8.8631,0,0,1,372.65839,635.07438Z"/><path class="cls-2" d="M398.41718,626.07341a1.75788,1.75788,0,0,1,1.31152-.49219,1.82426,1.82426,0,0,1,1.36035.49219,1.66851,1.66851,0,0,1,.48633,1.2207,1.64735,1.64735,0,0,1-.48633,1.21484,2.07805,2.07805,0,0,1-2.67187,0,1.64735,1.64735,0,0,1-.48633-1.21484A1.66851,1.66851,0,0,1,398.41718,626.07341Zm0,8.69726a1.76109,1.76109,0,0,1,1.31152-.49121,1.82764,1.82764,0,0,1,1.36035.49121,1.6692,1.6692,0,0,1,.48633,1.22168,1.64515,1.64515,0,0,1-.48633,1.21387,2.07805,2.07805,0,0,1-2.67187,0,1.64515,1.64515,0,0,1-.48633-1.21387A1.6692,1.6692,0,0,1,398.41718,634.77067Z"/><path class="cls-2" d="M417.81562,619.47087v-.01172h3.63281v18.2334h-3.63281V624.33024l-2.42969,2.42969-2.42871-2.42969Z"/><path class="cls-2" d="M434.89569,628.46013q.32813.12158.59473.24316,1.88379.85107,1.88281,3.64453a4.67566,4.67566,0,0,1-1.76757,4.06934,8.74962,8.74962,0,0,1-9.09766,0,4.67567,4.67567,0,0,1-1.76758-4.06934q0-2.79345,1.88281-3.64453.26661-.12159.59473-.24316c-.12891-.06446-.24707-.125-.35156-.18165q-1.64062-.91113-1.64063-3.46191a4.98237,4.98237,0,0,1,1.58594-3.94824,7.148,7.148,0,0,1,8.49121,0,4.985,4.985,0,0,1,1.585,3.94824q0,2.5503-1.63965,3.46191C435.14276,628.33513,435.0246,628.39567,434.89569,628.46013Zm-3.83886-1.65137q1.604-.04835,2.06543-.83887a1.94026,1.94026,0,0,0,0-2.06445,2.33671,2.33671,0,0,0-2.06543-1.02051,2.30266,2.30266,0,0,0-2.05274,1.02051,1.9047,1.9047,0,0,0,0,2.06445Q429.45381,626.75945,431.05683,626.80876Zm0,3.33984a2.7074,2.7074,0,0,0-2.05274,1.04492,1.90636,1.90636,0,0,0,0,2.06543,2.30266,2.30266,0,0,0,2.05274,1.02051,2.33671,2.33671,0,0,0,2.06543-1.02051,1.942,1.942,0,0,0,0-2.06543A2.75483,2.75483,0,0,0,431.05683,630.1486Z"/><path class="cls-2" d="M440.55585,632.82145v-2.417h7.53125v2.417Z"/><path class="cls-2" d="M457.79316,619.47087a6.87317,6.87317,0,0,1,4.3789,1.34277,4.781,4.781,0,0,1,1.707,4.00293,8.34448,8.34448,0,0,1-2.42383,5.78223,16.81793,16.81793,0,0,1-4.002,3.44922h6.55957v3.64453H451.73163V634.048q1.21436,0,4.61621-3.03614,3.40137-3.03809,3.94727-4.3125a2.96371,2.96371,0,0,0-.06055-2.55175q-.6079-1.27442-2.915-1.2754a4.18325,4.18325,0,0,0-3.40136,1.458l-2.42969-2.42968a10.0651,10.0651,0,0,1,2.36914-1.82227A9.12632,9.12632,0,0,1,457.79316,619.47087Z"/><path class="cls-2" d="M479.12421,619.47087v3.40136H471.593V625.424h1.458a8.16735,8.16735,0,0,1,5.51465,1.63965,6.65517,6.65517,0,0,1,1.88281,4.91992,5.30546,5.30546,0,0,1-1.82813,4.00879,6.35937,6.35937,0,0,1-4.501,1.7002,10.80135,10.80135,0,0,1-4.23926-.72852,9.18332,9.18332,0,0,1-2.915-1.94433l2.42969-2.42872a5.10387,5.10387,0,0,0,3.88672,1.57911q3.27978,0,3.584-2.40528a2.71575,2.71575,0,0,0-1.11816-2.25976q-.55811-.59473-3.91114-.68067h-3.88769v-9.35351Z"/><path class="cls-2" d="M484.15351,627.16032a4.69458,4.69458,0,1,1,3.25586,1.3125A4.4197,4.4197,0,0,1,484.15351,627.16032Zm3.21972-.84961a2.17281,2.17281,0,0,0,1.66407-.69238,2.62607,2.62607,0,0,0,0-3.44434,2.19657,2.19657,0,0,0-1.67676-.68652,2.1645,2.1645,0,0,0-1.65137.68652,2.62306,2.62306,0,0,0,0,3.44434A2.16989,2.16989,0,0,0,487.37323,626.31071Zm-.97168,11.38184,10.3252-18.22168h2.96387l-10.30079,18.22168Zm9.04981-1.20215a4.66554,4.66554,0,1,1,3.23047,1.2998A4.3864,4.3864,0,0,1,495.45136,636.4904Zm3.16992-.8877a2.131,2.131,0,0,0,1.62793-.67382,2.53947,2.53947,0,0,0,0-3.35254,2.14483,2.14483,0,0,0-1.63965-.67383,2.11863,2.11863,0,0,0-1.61621.67383,2.54243,2.54243,0,0,0,0,3.35254A2.13243,2.13243,0,0,0,498.62128,635.6027Z"/></svg>