<svg id="Content" xmlns="http://www.w3.org/2000/svg" viewBox="0 0 728 360"><defs><style>.cls-1{fill:#fff;stroke:#ba9544;stroke-miterlimit:10;stroke-width:0.5px;}.cls-2{fill:#ba9544;}</style></defs><title>THC - MK Ultra</title><polygon class="cls-1" points="635.28 170.59 402.67 169.71 390.93 186.64 402.67 203.27 635.28 202.88 645.84 186.73 635.28 170.59"/><polygon class="cls-2" points="402.84 169.71 391.1 186.64 402.84 203.27 438.49 203.27 438.61 169.71 402.84 169.71"/><path class="cls-2" d="M535.8,181.09v2.13H532v9.26h-2.28v-9.26h-3.8v-2.13Z"/><path class="cls-2" d="M537.5,192.48V181.09h2.28v4.56h5.3v-4.57h2.28v11.39h-2.28v-4.71h-5.3v4.71Z"/><path class="cls-2" d="M550.89,190.84a5.7,5.7,0,0,1,4.06-9.75,6.17,6.17,0,0,1,4.18,1.52l-1.52,1.66a4.17,4.17,0,0,0-2.66-.91,3.35,3.35,0,0,0-2.48,1,3.32,3.32,0,0,0-.93,2.43,3.41,3.41,0,0,0,1,2.52,3.35,3.35,0,0,0,2.47.93,4.09,4.09,0,0,0,2.65-.9l1.52,1.66a6.15,6.15,0,0,1-4.18,1.52A5.58,5.58,0,0,1,550.89,190.84Z"/><path class="cls-2" d="M561.68,185.22a1.09,1.09,0,0,1,.82-.31,1.13,1.13,0,0,1,.85.31,1.11,1.11,0,0,1,0,1.52,1.31,1.31,0,0,1-1.67,0,1.11,1.11,0,0,1,0-1.52Zm0,5.43a1.12,1.12,0,0,1,.82-.31,1.16,1.16,0,0,1,.85.31,1.06,1.06,0,0,1,.3.77,1,1,0,0,1-.3.75,1.28,1.28,0,0,1-1.67,0,1,1,0,0,1-.3-.75A1.06,1.06,0,0,1,561.68,190.65Z"/><path class="cls-2" d="M573.8,181.09h2.28v11.4H573.8v-8.35l-1.51,1.52-1.52-1.52Z"/><path class="cls-2" d="M578.34,186.94a6.9,6.9,0,0,1,1.18-4.27,3.85,3.85,0,0,1,3.15-1.57,4.79,4.79,0,0,1,3.19,1.13l-1.14,1.52a3.93,3.93,0,0,0-2-.46,2,2,0,0,0-1.57.65,3,3,0,0,0-.65,1.93,3.57,3.57,0,0,1,2.27-1,3.83,3.83,0,0,1,2.93,1,3.93,3.93,0,0,1,1,2.77,3.74,3.74,0,0,1-1.07,2.7,4,4,0,0,1-3,1.1,3.84,3.84,0,0,1-3.27-1.54A7.07,7.07,0,0,1,578.34,186.94Zm2.51,1.75c0,1.06.66,1.61,1.82,1.65s1.77-.54,1.82-1.51a1.71,1.71,0,0,0-1.89-1.89A1.69,1.69,0,0,0,580.85,188.69Z"/><path class="cls-2" d="M588.75,189.43v-1.51h4.7v1.51Z"/><path class="cls-2" d="M599.52,181.09a4.3,4.3,0,0,1,2.74.84,3,3,0,0,1,1.06,2.5,5.23,5.23,0,0,1-1.51,3.62,10.4,10.4,0,0,1-2.5,2.15h4.1v2.28h-7.68V190.2c.51,0,1.47-.63,2.89-1.9a10.7,10.7,0,0,0,2.46-2.69,1.87,1.87,0,0,0,0-1.6c-.26-.53-.87-.79-1.83-.79a2.59,2.59,0,0,0-2.12.91l-1.52-1.52a6.2,6.2,0,0,1,1.48-1.14A5.74,5.74,0,0,1,599.52,181.09Z"/><path class="cls-2" d="M606.68,190.84a7.8,7.8,0,0,1,0-8.12,3.65,3.65,0,0,1,6.08,0,7.88,7.88,0,0,1,0,8.13,3.64,3.64,0,0,1-6.08,0Zm3-.49c.5,0,.95-.34,1.33-1a6.06,6.06,0,0,0,0-5.09c-.38-.68-.83-1-1.34-1s-.94.34-1.32,1a6,6,0,0,0,0,5.09C608.77,190,609.21,190.35,609.72,190.35Z"/><path class="cls-2" d="M616.6,185.9a2.81,2.81,0,0,1-.82-2,2.8,2.8,0,0,1,2.86-2.85,2.8,2.8,0,0,1,2.85,2.85,2.8,2.8,0,0,1-2.85,2.86A2.81,2.81,0,0,1,616.6,185.9Zm2-.54a1.33,1.33,0,0,0,1-.43,1.53,1.53,0,0,0,.41-1.08,1.5,1.5,0,0,0-.41-1.07,1.33,1.33,0,0,0-1-.43,1.36,1.36,0,0,0-1,.43,1.54,1.54,0,0,0-.4,1.07,1.57,1.57,0,0,0,.4,1.08A1.36,1.36,0,0,0,618.61,185.36Zm-.6,7.12,6.45-11.39h1.85l-6.44,11.39Zm5.65-.75a2.92,2.92,0,1,1,2,.81A2.75,2.75,0,0,1,623.66,191.73Zm2-.56a1.33,1.33,0,0,0,1-.42,1.57,1.57,0,0,0,0-2.09,1.41,1.41,0,0,0-2,0,1.57,1.57,0,0,0,0,2.09A1.32,1.32,0,0,0,625.64,191.17Z"/></svg>