<svg xmlns="http://www.w3.org/2000/svg" width="320" height="480" viewBox="0 0 320 480"><defs><style>.cls-1{fill:#ba9544;}</style></defs><title>Frame1 - Daytime CBD</title><g id="Content"><path class="cls-1" d="M79.2002,220.0127h8.99023c5.68311,0,8.47314,3.15185,8.47314,8.93847v18.28955c0,5.78662-2.79,8.93848-8.47314,8.93848H79.2002Zm5.68359,5.167v25.833h3.20312c1.8086,0,2.89356-.93018,2.89356-3.51368V228.69287c0-2.58349-1.085-3.51318-2.89356-3.51318Z"/><path class="cls-1" d="M123.11475,256.1792h-5.73487l-.98193-6.56152h-6.9751l-.98144,6.56152h-5.21827l5.78663-36.1665h8.31835Zm-12.96827-11.46973h5.47657l-2.73828-18.29Z"/><path class="cls-1" d="M131.37988,244.19238l-7.18164-24.17968h5.9419L134.48,236.49414l4.33984-16.48144h5.4253l-7.18164,24.17968V256.1792h-5.6836Z"/><path class="cls-1" d="M147.24023,220.0127h17.56641v5.167h-5.94189V256.1792h-5.68311V225.17969h-5.94141Z"/><path class="cls-1" d="M171.72852,220.0127h5.6831v36.1665h-5.6831Z"/><path class="cls-1" d="M199.05811,245.69092l3.875-25.67822h7.90478v36.1665h-5.373V230.24268l-3.92675,25.93652h-5.37354l-4.23633-25.57471V256.1792h-4.96V220.0127h7.90479Z"/><path class="cls-1" d="M226.12891,235.25439h7.80175v5.16651h-7.80175v10.5918h9.8164v5.1665h-15.5V220.0127h15.5v5.167h-9.8164Z"/><path class="cls-1" d="M139.3374,292.69434V297.499c0,5.78711-2.89355,9.09375-8.47363,9.09375-5.57959,0-8.47315-3.30664-8.47315-9.09375V278.69287c0-5.78662,2.89356-9.09326,8.47315-9.09326,5.58008,0,8.47363,3.30664,8.47363,9.09326v3.51318h-5.37353v-3.875c0-2.58349-1.13672-3.56494-2.94483-3.56494-1.80859,0-2.94482.98145-2.94482,3.56494v19.52979c0,2.5835,1.13623,3.51318,2.94482,3.51318,1.80811,0,2.94483-.92968,2.94483-3.51318v-5.1665Z"/><path class="cls-1" d="M165.272,278.33105v1.29151c0,3.72021-1.13672,6.09668-3.66845,7.28515,3.04834,1.18848,4.23681,3.92676,4.23681,7.75v2.94483c0,5.58008-2.94531,8.57666-8.62842,8.57666h-8.93847V270.0127h8.57666C162.74023,270.0127,165.272,272.751,165.272,278.33105ZM153.957,275.17969v9.5581h2.22168c2.11817,0,3.40967-.93017,3.40967-3.82324v-2.01514c0-2.58349-.87793-3.71972-2.89307-3.71972Zm0,14.72461v11.1084h3.25488c1.91163,0,2.94483-.87842,2.94483-3.565V294.2959c0-3.3584-1.085-4.3916-3.668-4.3916Z"/><path class="cls-1" d="M174.72461,270.0127h8.99023c5.68311,0,8.47315,3.15185,8.47315,8.93847v18.28955c0,5.78662-2.79,8.93848-8.47315,8.93848h-8.99023Zm5.68359,5.167v25.833h3.20313c1.80859,0,2.89355-.93018,2.89355-3.51368V278.69287c0-2.58349-1.085-3.51318-2.89355-3.51318Z"/></g></svg>