<svg id="Layer_1" data-name="Layer 1" xmlns="http://www.w3.org/2000/svg" width="201.0679" height="134.8394" viewBox="0 0 201.0679 134.8394"><defs><style>.cls-1{fill:#212c32;}</style></defs><title>frame2</title><path class="cls-1" d="M26.2788,0l5.3506,13.4932L37.0088,0H43.27L33.9219,22.165H29.3364L20.0176,0Z"/><path class="cls-1" d="M42.3882,14.4927a7.3393,7.3393,0,0,1,.6758-3.1309A7.6823,7.6823,0,0,1,44.9453,8.834a8.9478,8.9478,0,0,1,2.8662-1.69,10.339,10.339,0,0,1,3.63-.6177,10.4908,10.4908,0,0,1,3.6011.603,8.93,8.93,0,0,1,2.8808,1.6753A7.5373,7.5373,0,0,1,59.82,11.3618a7.825,7.825,0,0,1,.6758,3.2778,7.6772,7.6772,0,0,1-.6909,3.2779,7.7694,7.7694,0,0,1-1.896,2.5571,8.4864,8.4864,0,0,1-2.8955,1.6611,11.0786,11.0786,0,0,1-3.66.5879,10.5981,10.5981,0,0,1-3.5864-.5879A8.2727,8.2727,0,0,1,44.9307,20.46a7.7654,7.7654,0,0,1-1.8667-2.6016A8.1641,8.1641,0,0,1,42.3882,14.4927Zm5.6147.0586a3.42,3.42,0,0,0,.2788,1.3965,3.7327,3.7327,0,0,0,.7354,1.1025,3.2329,3.2329,0,0,0,1.0874.7349,3.52,3.52,0,0,0,2.6753,0,3.2478,3.2478,0,0,0,1.0874-.7349,3.7507,3.7507,0,0,0,.7349-1.1025,3.3474,3.3474,0,0,0,.2792-1.3672,3.2771,3.2771,0,0,0-.2792-1.3374,3.7564,3.7564,0,0,0-.7349-1.1026,3.2535,3.2535,0,0,0-1.0874-.7348,3.5184,3.5184,0,0,0-2.6753,0,3.2385,3.2385,0,0,0-1.0874.7348,3.7973,3.7973,0,0,0-.7354,1.0879A3.1747,3.1747,0,0,0,48.0029,14.5513Z"/><path class="cls-1" d="M68.5806,7.0845V15.58q0,2.7934,2.7041,2.7929T73.9893,15.58V7.0845H79.31v9.5244a5.3928,5.3928,0,0,1-2.0137,4.5859q-2.0142,1.5286-6.0117,1.5288t-6.0113-1.5288A5.3917,5.3917,0,0,1,63.26,16.6089V7.0845Z"/><path class="cls-1" d="M92.6265,10.9648a6.2211,6.2211,0,0,0-2.8809-.7641,2.1646,2.1646,0,0,0-1.19.2939.9034.9034,0,0,0-.4556.794,1.0319,1.0319,0,0,0,.0733.4258.7551.7551,0,0,0,.3232.309,2.77,2.77,0,0,0,.7349.2642q.4856.1179,1.2788.2944a6.1115,6.1115,0,0,1,3.2924,1.5723A4.0086,4.0086,0,0,1,94.89,17.05a5.2524,5.2524,0,0,1-.5293,2.3809,5.0607,5.0607,0,0,1-1.47,1.7783,6.9871,6.9871,0,0,1-2.2637,1.1172,10.0951,10.0951,0,0,1-2.91.3969,11.8269,11.8269,0,0,1-6.0264-1.7343l1.94-3.7627a7.5772,7.5772,0,0,0,4.233,1.5283,2.08,2.08,0,0,0,1.205-.3233.9667.9667,0,0,0,.4707-.8232,1.3739,1.3739,0,0,0-.0737-.4849.7921.7921,0,0,0-.3086-.3525,2.4524,2.4524,0,0,0-.6909-.2939q-.4563-.1326-1.19-.2793a6.8135,6.8135,0,0,1-3.4541-1.4849,3.6727,3.6727,0,0,1-.9849-2.7192,5.3517,5.3517,0,0,1,.47-2.2779,4.7158,4.7158,0,0,1,1.3526-1.72,6.3284,6.3284,0,0,1,2.1313-1.0879,9.48,9.48,0,0,1,2.7778-.3823,12.6082,12.6082,0,0,1,4.85.97Z"/><path class="cls-1" d="M118.6416,7.0845h5.3506v15.08h-5.3506V20.4893a5.5817,5.5817,0,0,1-4.6152,2.146,7.4963,7.4963,0,0,1-3.0279-.6026,7.281,7.281,0,0,1-2.41-1.69,7.7823,7.7823,0,0,1-1.6021-2.5571,8.7417,8.7417,0,0,1-.5732-3.2046,8.5057,8.5057,0,0,1,.5581-3.0718,7.8962,7.8962,0,0,1,1.5581-2.543,7.357,7.357,0,0,1,2.3813-1.72,7.2684,7.2684,0,0,1,3.0572-.6318,6.1415,6.1415,0,0,1,4.6738,1.97ZM111.94,14.5806a3.5183,3.5183,0,0,0,.9848,2.47,3.2378,3.2378,0,0,0,1.0874.7349,3.5077,3.5077,0,0,0,1.3672.2641,3.4317,3.4317,0,0,0,1.3374-.2641,3.2449,3.2449,0,0,0,1.0879-.7349,3.82,3.82,0,0,0,.7349-1.0879,3.1748,3.1748,0,0,0,.2793-1.3228,3.2758,3.2758,0,0,0-.2793-1.3374,3.76,3.76,0,0,0-.7349-1.1025,3.2376,3.2376,0,0,0-1.0879-.7349,3.4321,3.4321,0,0,0-1.3374-.2646,3.5079,3.5079,0,0,0-1.3672.2646,3.2305,3.2305,0,0,0-1.0874.7349,3.6154,3.6154,0,0,0-.72,1.0728A3.22,3.22,0,0,0,111.94,14.5806Z"/><path class="cls-1" d="M131.7812,7.0845l3.586,7.7314,3.6455-7.7314h5.938l-7.8486,15.08h-3.5572l-7.7607-15.08Z"/><path class="cls-1" d="M150.5659,15.5215q0,3.4395,3.2334,3.4394a2.8879,2.8879,0,0,0,2.6162-1.4111H161.56q-1.5587,5.1746-7.79,5.1738a10.2285,10.2285,0,0,1-3.498-.5732,7.818,7.818,0,0,1-2.7193-1.6314,7.2678,7.2678,0,0,1-1.749-2.5283,8.423,8.423,0,0,1-.6172-3.2925,9.3007,9.3007,0,0,1,.5879-3.395A7.1356,7.1356,0,0,1,147.45,8.731a7.4236,7.4236,0,0,1,2.6314-1.6319,9.959,9.959,0,0,1,3.4834-.5732,9.75,9.75,0,0,1,3.4394.5732A6.9729,6.9729,0,0,1,159.5908,8.76a7.2291,7.2291,0,0,1,1.6167,2.66,10.5494,10.5494,0,0,1,.5586,3.5425v.5586Zm6.232-3.0869a3.205,3.205,0,0,0-1.0875-1.793,3.3727,3.3727,0,0,0-4.0126-.0293,2.9255,2.9255,0,0,0-.9849,1.8223Z"/><path class="cls-1" d="M172.26,17.7261h6.35V22.165H163.3232l7.1143-10.6416h-6.144V7.0845h15.0214Z"/><path class="cls-1" d="M11.9644,47.0142a4.9244,4.9244,0,0,0-2.793-.9405,3.7943,3.7943,0,0,0-1.4258.2647,3.5236,3.5236,0,0,0-1.1611.7495,3.4384,3.4384,0,0,0-.7788,1.1465,3.775,3.775,0,0,0-.2793,1.4844,3.6953,3.6953,0,0,0,.2793,1.455A3.56,3.56,0,0,0,6.57,52.32,3.3353,3.3353,0,0,0,7.731,53.07a3.9173,3.9173,0,0,0,1.44.2647,4.4,4.4,0,0,0,2.793-1.0288v4.5268a9.413,9.413,0,0,1-3.7334.8526A8.8208,8.8208,0,0,1,5.1,57.1265,7.84,7.84,0,0,1,.6758,53.0259,7.618,7.618,0,0,1,0,49.7773,8.1193,8.1193,0,0,1,.6465,46.5,7.8337,7.8337,0,0,1,2.41,43.9424a7.9858,7.9858,0,0,1,2.6606-1.6758,9.0183,9.0183,0,0,1,3.3071-.6025,7.9146,7.9146,0,0,1,3.5865.8232Z"/><path class="cls-1" d="M19.4893,50.5713q0,3.44,3.2334,3.4394A2.888,2.888,0,0,0,25.3389,52.6h5.1445q-1.5587,5.1746-7.79,5.1738A10.2287,10.2287,0,0,1,19.1953,57.2a7.8175,7.8175,0,0,1-2.7192-1.6314,7.2665,7.2665,0,0,1-1.749-2.5283A8.4212,8.4212,0,0,1,14.11,49.748a9.3007,9.3007,0,0,1,.5879-3.395,7.1362,7.1362,0,0,1,1.6752-2.5722,7.4236,7.4236,0,0,1,2.6314-1.6319,9.959,9.959,0,0,1,3.4834-.5732,9.75,9.75,0,0,1,3.4394.5732,6.9741,6.9741,0,0,1,2.587,1.6612,7.2318,7.2318,0,0,1,1.6167,2.66,10.5519,10.5519,0,0,1,.5586,3.5425v.5586Zm6.2319-3.0869a3.2054,3.2054,0,0,0-1.0874-1.793,3.3728,3.3728,0,0,0-4.0127-.0293,2.926,2.926,0,0,0-.9849,1.8223Z"/><path class="cls-1" d="M33.4229,42.1343h5.3208v2.4692a6.1122,6.1122,0,0,1,2.0869-2.0723,5.6157,5.6157,0,0,1,2.8808-.72h.4556a3.2714,3.2714,0,0,1,.5732.0591v5.0855a5.0506,5.0506,0,0,0-2.2929-.5293,3.423,3.423,0,0,0-2.7779,1.1025,4.8877,4.8877,0,0,0-.9257,3.2188v6.4672H33.4229Z"/><path class="cls-1" d="M53.3237,46.5732V57.2148H48.0029V46.5732H46.2393V42.1343h1.7636V37.6074h5.3208v4.5269h3.0279v4.4389Z"/><path class="cls-1" d="M69.9907,42.1343h5.3506v15.08H69.9907V55.5391a5.5817,5.5817,0,0,1-4.6152,2.146,7.4958,7.4958,0,0,1-3.0278-.6026,7.28,7.28,0,0,1-2.41-1.69,7.7823,7.7823,0,0,1-1.6021-2.5571,8.7417,8.7417,0,0,1-.5732-3.2046,8.5057,8.5057,0,0,1,.5581-3.0718,7.8962,7.8962,0,0,1,1.5581-2.543,7.3564,7.3564,0,0,1,2.3814-1.72,7.268,7.268,0,0,1,3.0571-.6318,6.1415,6.1415,0,0,1,4.6738,1.97ZM63.2886,49.63a3.5183,3.5183,0,0,0,.9848,2.47,3.2388,3.2388,0,0,0,1.0874.7349,3.5077,3.5077,0,0,0,1.3672.2641,3.4317,3.4317,0,0,0,1.3374-.2641A3.2449,3.2449,0,0,0,69.1533,52.1a3.8175,3.8175,0,0,0,.7349-1.0879,3.1746,3.1746,0,0,0,.2793-1.3227,3.2751,3.2751,0,0,0-.2793-1.3374,3.7577,3.7577,0,0,0-.7349-1.1026,3.2376,3.2376,0,0,0-1.0879-.7349A3.4321,3.4321,0,0,0,66.728,46.25a3.5079,3.5079,0,0,0-1.3672.2646,3.2315,3.2315,0,0,0-1.0874.7349,3.6154,3.6154,0,0,0-.72,1.0728A3.2214,3.2214,0,0,0,63.2886,49.63Z"/><path class="cls-1" d="M78.31,36.3433a2.8874,2.8874,0,0,1,.2353-1.1612A3.0454,3.0454,0,0,1,80.147,33.58a2.9812,2.9812,0,0,1,2.3222,0,3.0454,3.0454,0,0,1,1.6021,1.602,2.9827,2.9827,0,0,1,0,2.3223,3.0445,3.0445,0,0,1-1.6021,1.602,2.9812,2.9812,0,0,1-2.3222,0,3.0445,3.0445,0,0,1-1.6021-1.602A2.8855,2.8855,0,0,1,78.31,36.3433Zm5.6738,5.791v15.08H78.6626v-15.08Z"/><path class="cls-1" d="M87.3345,42.1343h5.3208v1.9111A5.8233,5.8233,0,0,1,94.86,42.2666a6.8978,6.8978,0,0,1,2.6162-.4556,6.5409,6.5409,0,0,1,2.7192.5147,5.4241,5.4241,0,0,1,1.9253,1.4551,4.1817,4.1817,0,0,1,.8818,1.705,8.88,8.88,0,0,1,.2354,2.146v9.583H97.917V49.6011a8.2182,8.2182,0,0,0-.1616-1.8076,2.244,2.244,0,0,0-.5733-1.1026,2.015,2.015,0,0,0-.7939-.4995,2.9519,2.9519,0,0,0-.94-.1475,2.6308,2.6308,0,0,0-2.0723.8086,3.3552,3.3552,0,0,0-.72,2.3077v8.0546H87.3345Z"/><path class="cls-1" d="M111.3511,50.5713q0,3.44,3.2334,3.4394A2.888,2.888,0,0,0,117.2007,52.6h5.1445q-1.5585,5.1746-7.79,5.1738a10.2287,10.2287,0,0,1-3.4981-.5732,7.8175,7.8175,0,0,1-2.7192-1.6314,7.2665,7.2665,0,0,1-1.749-2.5283,8.4212,8.4212,0,0,1-.6172-3.2925,9.3007,9.3007,0,0,1,.5879-3.395,7.1364,7.1364,0,0,1,1.6753-2.5722,7.4232,7.4232,0,0,1,2.6313-1.6319,9.9594,9.9594,0,0,1,3.4834-.5732,9.7513,9.7513,0,0,1,3.44.5732A6.9745,6.9745,0,0,1,120.376,43.81a7.23,7.23,0,0,1,1.6167,2.66,10.5519,10.5519,0,0,1,.5586,3.5425v.5586Zm6.2319-3.0869a3.2054,3.2054,0,0,0-1.0874-1.793,3.3728,3.3728,0,0,0-4.0127-.0293,2.9264,2.9264,0,0,0-.9849,1.8223Z"/><path class="cls-1" d="M125.2847,42.1343h5.3208v1.852a6.88,6.88,0,0,1,4.8794-2.0869A5.6747,5.6747,0,0,1,140.6,44.7212a5.7048,5.7048,0,0,1,5.1147-2.8511,6.3674,6.3674,0,0,1,1.9991.3086,4.1056,4.1056,0,0,1,1.6167.97,4.6447,4.6447,0,0,1,1.0732,1.72,7.3014,7.3014,0,0,1,.397,2.5576v9.789H145.48V49.7773a9.0358,9.0358,0,0,0-.1616-1.8813,2.98,2.98,0,0,0-.4707-1.1465,1.56,1.56,0,0,0-.72-.5581,2.6,2.6,0,0,0-.8818-.1475q-2.5576,0-2.5571,3.7334v7.4375h-5.3208V49.7773a10.15,10.15,0,0,0-.147-1.896,3.51,3.51,0,0,0-.4263-1.19,1.4272,1.4272,0,0,0-.72-.6025,2.9953,2.9953,0,0,0-1.0293-.1616,2.9513,2.9513,0,0,0-.94.1469,1.6657,1.6657,0,0,0-.7788.5733,3.1118,3.1118,0,0,0-.5293,1.1758,8.1272,8.1272,0,0,0-.1909,1.9545v7.4375h-5.3208Z"/><path class="cls-1" d="M158.9434,50.5713q0,3.44,3.2334,3.4394A2.888,2.888,0,0,0,164.793,52.6h5.1445q-1.5586,5.1746-7.79,5.1738a10.2287,10.2287,0,0,1-3.4981-.5732,7.8175,7.8175,0,0,1-2.7192-1.6314,7.2665,7.2665,0,0,1-1.749-2.5283,8.4212,8.4212,0,0,1-.6172-3.2925,9.3007,9.3007,0,0,1,.5879-3.395,7.1375,7.1375,0,0,1,1.6752-2.5722,7.4236,7.4236,0,0,1,2.6314-1.6319,9.959,9.959,0,0,1,3.4834-.5732,9.75,9.75,0,0,1,3.4394.5732,6.9741,6.9741,0,0,1,2.587,1.6612,7.2318,7.2318,0,0,1,1.6167,2.66,10.5519,10.5519,0,0,1,.5586,3.5425v.5586Zm6.2319-3.0869a3.2054,3.2054,0,0,0-1.0874-1.793,3.3728,3.3728,0,0,0-4.0127-.0293,2.9264,2.9264,0,0,0-.9849,1.8223Z"/><path class="cls-1" d="M172.877,42.1343h5.3208v1.9111a5.8238,5.8238,0,0,1,2.2045-1.7788,6.8983,6.8983,0,0,1,2.6163-.4556,6.5409,6.5409,0,0,1,2.7192.5147,5.4241,5.4241,0,0,1,1.9253,1.4551,4.1829,4.1829,0,0,1,.8818,1.705,8.88,8.88,0,0,1,.2354,2.146v9.583H183.46V49.6011a8.2182,8.2182,0,0,0-.1616-1.8076,2.2448,2.2448,0,0,0-.5733-1.1026,2.015,2.015,0,0,0-.7939-.4995,2.9525,2.9525,0,0,0-.9405-.1475,2.6306,2.6306,0,0,0-2.0722.8086,3.3552,3.3552,0,0,0-.72,2.3077v8.0546H172.877Z"/><path class="cls-1" d="M198.04,46.5732V57.2148h-5.3208V46.5732h-1.7636V42.1343h1.7636V37.6074H198.04v4.5269h3.0279v4.4389Z"/><path class="cls-1" d="M9.8618,77.1841V85.68q0,2.7935,2.7041,2.7929T15.2705,85.68V77.1841h5.3208v9.5244a5.3922,5.3922,0,0,1-2.0137,4.5859q-2.0141,1.5294-6.0117,1.5293T6.5547,91.2944A5.3909,5.3909,0,0,1,4.541,86.7085V77.1841Z"/><path class="cls-1" d="M23.9131,77.1841h5.3208v1.9111a5.8174,5.8174,0,0,1,2.2046-1.7783,6.8975,6.8975,0,0,1,2.6162-.4561,6.5409,6.5409,0,0,1,2.7192.5147,5.4241,5.4241,0,0,1,1.9253,1.4551,4.1831,4.1831,0,0,1,.8819,1.705,8.8924,8.8924,0,0,1,.2353,2.1465v9.583H34.4956V84.6509a8.2244,8.2244,0,0,0-.1616-1.8076,2.2475,2.2475,0,0,0-.5733-1.1026,2.0081,2.0081,0,0,0-.7939-.499,2.9376,2.9376,0,0,0-.94-.1475,2.6291,2.6291,0,0,0-2.0723.8086,3.3542,3.3542,0,0,0-.72,2.3076v8.0547H23.9131Z"/><path class="cls-1" d="M47.93,85.6216q0,3.4395,3.2334,3.4394A2.889,2.889,0,0,0,53.7793,87.65h5.1445q-1.5585,5.1738-7.79,5.1738a10.2411,10.2411,0,0,1-3.4981-.5732,7.8274,7.8274,0,0,1-2.7192-1.6318,7.2586,7.2586,0,0,1-1.749-2.5284,8.4223,8.4223,0,0,1-.6172-3.292,9.3053,9.3053,0,0,1,.5879-3.3955,7.1442,7.1442,0,0,1,1.6753-2.5722,7.4373,7.4373,0,0,1,2.6313-1.6319,9.9594,9.9594,0,0,1,3.4834-.5732,9.7509,9.7509,0,0,1,3.44.5732A6.982,6.982,0,0,1,56.9546,78.86a7.2337,7.2337,0,0,1,1.6167,2.66,10.5524,10.5524,0,0,1,.5586,3.543v.5586Zm6.2319-3.0869a3.2043,3.2043,0,0,0-1.0874-1.793,3.3708,3.3708,0,0,0-4.0127-.0293,2.9245,2.9245,0,0,0-.9848,1.8223Z"/><path class="cls-1" d="M77.3257,81.6235V92.2651H72.0049V81.6235H70.0938V77.1841h1.9111V74.9214a10.298,10.298,0,0,1,.3525-2.999,5.32,5.32,0,0,1,.9409-1.7491,6.848,6.848,0,0,1,1.5137-1.3964,7.3467,7.3467,0,0,1,1.8667-.9112,6.3948,6.3948,0,0,1,1.97-.3232,5.0329,5.0329,0,0,1,1.2491.1465,7.2174,7.2174,0,0,1,1.1616.4121v4.6445a5.8765,5.8765,0,0,0-.9849-.3965,3.3915,3.3915,0,0,0-.9555-.1328,2.2416,2.2416,0,0,0-.6617.1035,1.4176,1.4176,0,0,0-.6318.4258,1.8,1.8,0,0,0-.397.9258,10.16,10.16,0,0,0-.1025,1.6318v1.8809h3.7334v4.4394Z"/><path class="cls-1" d="M82.44,84.5923a7.341,7.341,0,0,1,.6758-3.1309,7.6821,7.6821,0,0,1,1.8814-2.5273,8.93,8.93,0,0,1,2.8662-1.69,10.3273,10.3273,0,0,1,3.63-.6182,10.49,10.49,0,0,1,3.601.6035,8.92,8.92,0,0,1,2.8809,1.6748,7.5373,7.5373,0,0,1,1.8965,2.5576,7.829,7.829,0,0,1,.6758,3.2783,7.6719,7.6719,0,0,1-.691,3.2774,7.7648,7.7648,0,0,1-1.896,2.5576,8.4936,8.4936,0,0,1-2.8955,1.6611,11.0776,11.0776,0,0,1-3.66.5879,10.5991,10.5991,0,0,1-3.5865-.5879A8.2825,8.2825,0,0,1,84.9824,90.56a7.7691,7.7691,0,0,1-1.8667-2.6016A8.1682,8.1682,0,0,1,82.44,84.5923Zm5.6148.0586a3.4186,3.4186,0,0,0,.2788,1.3965,3.724,3.724,0,0,0,.7353,1.1025,3.2361,3.2361,0,0,0,1.0874.7354,3.5258,3.5258,0,0,0,2.6753,0,3.2491,3.2491,0,0,0,1.0874-.7354,3.74,3.74,0,0,0,.7349-1.1025,3.3457,3.3457,0,0,0,.2793-1.3672,3.2762,3.2762,0,0,0-.2793-1.3369,3.74,3.74,0,0,0-.7349-1.1026,3.2474,3.2474,0,0,0-1.0874-.7353,3.5245,3.5245,0,0,0-2.6753,0,3.2344,3.2344,0,0,0-1.0874.7353,3.7813,3.7813,0,0,0-.7353,1.0879A3.1724,3.1724,0,0,0,88.0547,84.6509Z"/><path class="cls-1" d="M108.6323,77.1841V85.68q0,2.7935,2.7041,2.7929T114.041,85.68V77.1841h5.3208v9.5244a5.3922,5.3922,0,0,1-2.0137,4.5859q-2.0141,1.5294-6.0117,1.5293t-6.0112-1.5293a5.3909,5.3909,0,0,1-2.0137-4.5859V77.1841Z"/><path class="cls-1" d="M128.0044,67.8657V92.2651h-5.3208V67.8657Z"/><path class="cls-1" d="M136.147,85.6216q0,3.4395,3.2334,3.4394a2.889,2.889,0,0,0,2.6162-1.4111h5.1445q-1.5585,5.1738-7.79,5.1738a10.2407,10.2407,0,0,1-3.4981-.5732,7.8274,7.8274,0,0,1-2.7192-1.6318,7.2586,7.2586,0,0,1-1.749-2.5284,8.42,8.42,0,0,1-.6172-3.292,9.3053,9.3053,0,0,1,.5879-3.3955,7.1442,7.1442,0,0,1,1.6753-2.5722,7.4373,7.4373,0,0,1,2.6313-1.6319,9.9594,9.9594,0,0,1,3.4834-.5732,9.7513,9.7513,0,0,1,3.44.5732,6.982,6.982,0,0,1,2.5869,1.6612,7.2337,7.2337,0,0,1,1.6167,2.66,10.5549,10.5549,0,0,1,.5586,3.543v.5586Zm6.2319-3.0869a3.2054,3.2054,0,0,0-1.0874-1.793,3.3708,3.3708,0,0,0-4.0127-.0293,2.9251,2.9251,0,0,0-.9849,1.8223Z"/><path class="cls-1" d="M171.4219,67.8657h5.3506V92.2651h-5.3506V90.5894a5.5827,5.5827,0,0,1-4.6153,2.1455,7.3276,7.3276,0,0,1-3.0278-.6172,7.468,7.468,0,0,1-2.41-1.7051,7.7762,7.7762,0,0,1-1.6021-2.5576,9.0156,9.0156,0,0,1-.03-6.2461,7.6974,7.6974,0,0,1,1.5435-2.543,7.3036,7.3036,0,0,1,5.4677-2.3515,6.14,6.14,0,0,1,4.6739,1.97ZM164.72,84.68a3.5189,3.5189,0,0,0,.9849,2.47,3.2391,3.2391,0,0,0,1.0874.7354,3.5161,3.5161,0,0,0,1.3672.2636,3.44,3.44,0,0,0,1.3374-.2636,3.2462,3.2462,0,0,0,1.0879-.7354,3.81,3.81,0,0,0,.7348-1.0879,3.1709,3.1709,0,0,0,.2793-1.3223,3.2757,3.2757,0,0,0-.2793-1.3378,3.764,3.764,0,0,0-.7348-1.1026,3.229,3.229,0,0,0-1.0879-.7344,3.5135,3.5135,0,0,0-2.6753,0,3.222,3.222,0,0,0-1.0874.7344,3.8616,3.8616,0,0,0-.7349,1.0733A3.0659,3.0659,0,0,0,164.72,84.68Z"/><path class="cls-1" d="M184.8853,85.6216q0,3.4395,3.2334,3.4394a2.889,2.889,0,0,0,2.6162-1.4111h5.1445q-1.5586,5.1738-7.79,5.1738a10.2407,10.2407,0,0,1-3.4981-.5732,7.8274,7.8274,0,0,1-2.7192-1.6318A7.26,7.26,0,0,1,180.123,88.09a8.4222,8.4222,0,0,1-.6171-3.292,9.3053,9.3053,0,0,1,.5879-3.3955,7.144,7.144,0,0,1,1.6752-2.5722A7.4378,7.4378,0,0,1,184.4,77.1987a9.959,9.959,0,0,1,3.4834-.5732,9.75,9.75,0,0,1,3.4394.5732A6.9816,6.9816,0,0,1,193.91,78.86a7.2351,7.2351,0,0,1,1.6167,2.66,10.555,10.555,0,0,1,.5585,3.543v.5586Zm6.2319-3.0869a3.2054,3.2054,0,0,0-1.0874-1.793,3.3708,3.3708,0,0,0-4.0127-.0293,2.9246,2.9246,0,0,0-.9849,1.8223Z"/><path class="cls-1" d="M34.51,134.8394v-8.9952a6.1848,6.1848,0,0,1-4.6739,1.9405,7.2729,7.2729,0,0,1-5.394-2.3223,7.96,7.96,0,0,1-1.5874-2.543,8.7713,8.7713,0,0,1,.0146-6.2763,7.9988,7.9988,0,0,1,1.6167-2.5577,7.5,7.5,0,0,1,2.4107-1.705,7.2693,7.2693,0,0,1,2.998-.6172A5.5835,5.5835,0,0,1,34.51,113.91v-1.6758h5.35v22.6055ZM27.8081,119.73a3.5189,3.5189,0,0,0,.9849,2.47,3.2366,3.2366,0,0,0,1.0874.7344,3.4985,3.4985,0,0,0,1.3672.2646,3.4231,3.4231,0,0,0,1.3374-.2646,3.2447,3.2447,0,0,0,1.0879-.7344,3.7635,3.7635,0,0,0,.7348-1.1025,3.2765,3.2765,0,0,0,.2793-1.3379,3.1758,3.1758,0,0,0-.2793-1.3233,3.8192,3.8192,0,0,0-.7348-1.0869,3.2455,3.2455,0,0,0-1.0879-.7353,3.5122,3.5122,0,0,0-2.6753,0,3.2374,3.2374,0,0,0-1.0874.7353,3.8546,3.8546,0,0,0-.7349,1.0723A3.0708,3.0708,0,0,0,27.8081,119.73Z"/><path class="cls-1" d="M49.0024,112.2339v8.4951q0,2.7935,2.7041,2.793t2.7046-2.793v-8.4951h5.3208v9.5244a5.3937,5.3937,0,0,1-2.0136,4.5859q-2.0142,1.5279-6.0118,1.5284t-6.0112-1.5284a5.3922,5.3922,0,0,1-2.0137-4.5859v-9.5244Z"/><path class="cls-1" d="M67.8452,120.67q0,3.4395,3.2334,3.4395a2.887,2.887,0,0,0,2.6162-1.4112h5.1446q-1.5587,5.1753-7.79,5.1739a10.2164,10.2164,0,0,1-3.498-.5733,7.8107,7.8107,0,0,1-2.7193-1.6308,7.277,7.277,0,0,1-1.749-2.5284,8.4236,8.4236,0,0,1-.6172-3.2929,9.2966,9.2966,0,0,1,.5879-3.3946A7.1279,7.1279,0,0,1,64.729,113.88a7.4109,7.4109,0,0,1,2.6314-1.6319,9.959,9.959,0,0,1,3.4834-.5732,9.75,9.75,0,0,1,3.4394.5732A6.9691,6.9691,0,0,1,76.87,113.91a7.225,7.225,0,0,1,1.6167,2.66,10.5469,10.5469,0,0,1,.5586,3.542v.5586Zm6.2319-3.0869a3.2047,3.2047,0,0,0-1.0874-1.793,3.3747,3.3747,0,0,0-4.0126-.0293,2.9268,2.9268,0,0,0-.9849,1.8223Z"/><path class="cls-1" d="M91.7734,116.1138a6.2246,6.2246,0,0,0-2.8808-.7637,2.1616,2.1616,0,0,0-1.19.2939.9033.9033,0,0,0-.4555.794,1.035,1.035,0,0,0,.0732.4258.7532.7532,0,0,0,.3233.3086,2.772,2.772,0,0,0,.7348.2646q.4857.1172,1.2788.294a6.1108,6.1108,0,0,1,3.2925,1.5722A4.0089,4.0089,0,0,1,94.0371,122.2a5.2539,5.2539,0,0,1-.5293,2.3809,5.0706,5.0706,0,0,1-1.47,1.7783,6.9871,6.9871,0,0,1-2.2637,1.1172,10.0953,10.0953,0,0,1-2.91.3965,11.8271,11.8271,0,0,1-6.0264-1.7344l1.94-3.7627a7.5733,7.5733,0,0,0,4.2329,1.5283,2.0806,2.0806,0,0,0,1.2051-.3232.9657.9657,0,0,0,.4707-.8233,1.3709,1.3709,0,0,0-.0737-.4844.7876.7876,0,0,0-.3086-.3525,2.4408,2.4408,0,0,0-.6909-.2939q-.4563-.1333-1.19-.2793a6.809,6.809,0,0,1-3.4541-1.4854,3.6725,3.6725,0,0,1-.9848-2.7187,5.3524,5.3524,0,0,1,.47-2.2784,4.7238,4.7238,0,0,1,1.3525-1.72,6.33,6.33,0,0,1,2.1314-1.0879,9.4976,9.4976,0,0,1,2.7778-.3818,12.6084,12.6084,0,0,1,4.85.97Z"/><path class="cls-1" d="M102.7969,116.6724V127.314H97.4761V116.6724H95.7124v-4.4385h1.7637v-4.5274h5.3208v4.5274h3.0278v4.4385Z"/><path class="cls-1" d="M107.5874,106.4429a2.8826,2.8826,0,0,1,.2354-1.1612,3.0434,3.0434,0,0,1,1.602-1.6025,2.9815,2.9815,0,0,1,2.3223,0,3.0443,3.0443,0,0,1,1.602,1.6025,2.9815,2.9815,0,0,1,0,2.3223,3.0468,3.0468,0,0,1-1.602,1.6016,2.9827,2.9827,0,0,1-2.3223,0,3.0459,3.0459,0,0,1-1.602-1.6016A2.8856,2.8856,0,0,1,107.5874,106.4429Zm5.6738,5.791v15.08H107.94v-15.08Z"/><path class="cls-1" d="M116.0244,119.6421a7.338,7.338,0,0,1,.6758-3.1309,7.6856,7.6856,0,0,1,1.8813-2.5283,8.9665,8.9665,0,0,1,2.8663-1.69,10.3494,10.3494,0,0,1,3.63-.6172,10.4927,10.4927,0,0,1,3.6011.6025,8.9414,8.9414,0,0,1,2.8809,1.6758,7.537,7.537,0,0,1,1.8964,2.5576,7.8215,7.8215,0,0,1,.6758,3.2774,7.6792,7.6792,0,0,1-.6909,3.2783,7.77,7.77,0,0,1-1.896,2.5566,8.4775,8.4775,0,0,1-2.8955,1.6612,11.0786,11.0786,0,0,1-3.66.5879,10.599,10.599,0,0,1-3.5864-.5879,8.266,8.266,0,0,1-2.8369-1.6758,7.7667,7.7667,0,0,1-1.8667-2.6016A8.16,8.16,0,0,1,116.0244,119.6421Zm5.6148.0586a3.42,3.42,0,0,0,.2788,1.3965,3.7357,3.7357,0,0,0,.7353,1.1025,3.2316,3.2316,0,0,0,1.0874.7344,3.5135,3.5135,0,0,0,2.6753,0,3.2466,3.2466,0,0,0,1.0874-.7344,3.754,3.754,0,0,0,.7349-1.1025,3.3491,3.3491,0,0,0,.2793-1.3672,3.2781,3.2781,0,0,0-.2793-1.3379,3.7658,3.7658,0,0,0-.7349-1.1025,3.26,3.26,0,0,0-1.0874-.7344,3.5122,3.5122,0,0,0-2.6753,0,3.2448,3.2448,0,0,0-1.0874.7344,3.8069,3.8069,0,0,0-.7353,1.0878A3.1758,3.1758,0,0,0,121.6392,119.7007Z"/><path class="cls-1" d="M136.896,112.2339h5.3208v1.9111a5.8307,5.8307,0,0,1,2.2046-1.7793,6.8981,6.8981,0,0,1,2.6162-.4551,6.5406,6.5406,0,0,1,2.7192.5147,5.4241,5.4241,0,0,1,1.9253,1.4551,4.1831,4.1831,0,0,1,.8819,1.705,8.8783,8.8783,0,0,1,.2353,2.1456v9.583h-5.3208v-7.6133a8.2125,8.2125,0,0,0-.1616-1.8076,2.24,2.24,0,0,0-.5732-1.1026,2.023,2.023,0,0,0-.794-.5,2.9655,2.9655,0,0,0-.94-.1474,2.6322,2.6322,0,0,0-2.0723.8086,3.3558,3.3558,0,0,0-.72,2.3076v8.0547H136.896Z"/><path class="cls-1" d="M166.1157,116.1138a6.2249,6.2249,0,0,0-2.8808-.7637,2.1613,2.1613,0,0,0-1.1905.2939.9033.9033,0,0,0-.4555.794,1.035,1.035,0,0,0,.0732.4258.752.752,0,0,0,.3233.3086,2.772,2.772,0,0,0,.7348.2646q.4856.1172,1.2788.294a6.1111,6.1111,0,0,1,3.2925,1.5722,4.0089,4.0089,0,0,1,1.0879,2.8965,5.2552,5.2552,0,0,1-.5293,2.3809,5.0706,5.0706,0,0,1-1.47,1.7783,6.9871,6.9871,0,0,1-2.2637,1.1172,10.096,10.096,0,0,1-2.91.3965,11.827,11.827,0,0,1-6.0263-1.7344l1.94-3.7627a7.5733,7.5733,0,0,0,4.2329,1.5283,2.0806,2.0806,0,0,0,1.2051-.3232.9657.9657,0,0,0,.4707-.8233,1.3709,1.3709,0,0,0-.0737-.4844.7882.7882,0,0,0-.3086-.3525,2.4421,2.4421,0,0,0-.6909-.2939q-.4563-.1333-1.19-.2793a6.8086,6.8086,0,0,1-3.4541-1.4854,3.6725,3.6725,0,0,1-.9848-2.7187,5.3524,5.3524,0,0,1,.47-2.2784,4.7238,4.7238,0,0,1,1.3525-1.72,6.33,6.33,0,0,1,2.1314-1.0879,9.4976,9.4976,0,0,1,2.7778-.3818,12.6084,12.6084,0,0,1,4.85.97Z"/><path class="cls-1" d="M170.5249,124.4917a3.4213,3.4213,0,1,1,2.1016,3.1748A3.3744,3.3744,0,0,1,170.79,125.83,3.42,3.42,0,0,1,170.5249,124.4917Z"/></svg>