<svg id="Layer_1" data-name="Layer 1" xmlns="http://www.w3.org/2000/svg" width="241.8418" height="270.3638" viewBox="0 0 241.8418 270.3638"><defs><style>.cls-1{fill:#212c32;}</style></defs><title>frame1</title><path class="cls-1" d="M19.43,2.2339V19.519h6.9082v4.88h-12.67V2.2339Z"/><path class="cls-1" d="M33.3052,17.7554q0,3.4393,3.2334,3.4394a2.888,2.888,0,0,0,2.6162-1.4111h5.1445q-1.5585,5.1746-7.79,5.1738a10.2291,10.2291,0,0,1-3.4981-.5732,7.8175,7.8175,0,0,1-2.7192-1.6314,7.2665,7.2665,0,0,1-1.749-2.5283,8.4212,8.4212,0,0,1-.6172-3.2925,9.3007,9.3007,0,0,1,.5879-3.395,7.1368,7.1368,0,0,1,1.6753-2.5723A7.4244,7.4244,0,0,1,32.82,9.333,9.9594,9.9594,0,0,1,36.3037,8.76a9.7513,9.7513,0,0,1,3.44.5732A6.9755,6.9755,0,0,1,42.33,10.9941a7.23,7.23,0,0,1,1.6167,2.66,10.5519,10.5519,0,0,1,.5586,3.5425v.5586Zm6.2319-3.0869a3.2054,3.2054,0,0,0-1.0874-1.793,3.3728,3.3728,0,0,0-4.0127-.0293,2.9262,2.9262,0,0,0-.9849,1.8223Z"/><path class="cls-1" d="M62.9067,7.1138H59.6733v-4.88h8.9952v22.165H62.9067Z"/><path class="cls-1" d="M84.1313,7.1138h-9.26v-4.88H93.0679l-12.7,22.165h-6.35Z"/><path class="cls-1" d="M103.15,16.7266a7.3393,7.3393,0,0,1,.6758-3.1309,7.6837,7.6837,0,0,1,1.8813-2.5278,8.948,8.948,0,0,1,2.8662-1.69,10.3413,10.3413,0,0,1,3.63-.6176,10.49,10.49,0,0,1,3.6011.603,8.9261,8.9261,0,0,1,2.8808,1.6753,7.5363,7.5363,0,0,1,1.8965,2.5576,7.8247,7.8247,0,0,1,.6758,3.2778,7.6775,7.6775,0,0,1-.6909,3.2779,7.7694,7.7694,0,0,1-1.896,2.5571,8.488,8.488,0,0,1-2.8955,1.6611,11.0786,11.0786,0,0,1-3.66.5879A10.599,10.599,0,0,1,108.53,24.37a8.2729,8.2729,0,0,1-2.8369-1.6758,7.7663,7.7663,0,0,1-1.8667-2.6015A8.1644,8.1644,0,0,1,103.15,16.7266Zm5.6147.0586a3.42,3.42,0,0,0,.2788,1.3964,3.7319,3.7319,0,0,0,.7354,1.1026,3.2312,3.2312,0,0,0,1.0874.7348,3.5184,3.5184,0,0,0,2.6753,0,3.2461,3.2461,0,0,0,1.0874-.7348,3.75,3.75,0,0,0,.7349-1.1026,3.3466,3.3466,0,0,0,.2793-1.3671,3.2768,3.2768,0,0,0-.2793-1.3374,3.7564,3.7564,0,0,0-.7349-1.1026,3.2552,3.2552,0,0,0-1.0874-.7349,3.52,3.52,0,0,0-2.6753,0,3.24,3.24,0,0,0-1.0874.7349,3.7973,3.7973,0,0,0-.7354,1.0879A3.1744,3.1744,0,0,0,108.7651,16.7852Z"/><path class="cls-1" d="M135.3984,14.1982a4.9245,4.9245,0,0,0-2.7929-.94,3.7943,3.7943,0,0,0-1.4258.2647,3.522,3.522,0,0,0-1.1611.7495,3.4391,3.4391,0,0,0-.7789,1.1465,3.7766,3.7766,0,0,0-.2793,1.4843,3.6972,3.6972,0,0,0,.2793,1.4551,3.5613,3.5613,0,0,0,.7642,1.1465,3.3377,3.3377,0,0,0,1.1611.75,3.9182,3.9182,0,0,0,1.4405.2647,4.4,4.4,0,0,0,2.7929-1.0289v4.5269a9.412,9.412,0,0,1-3.7334.8525,8.818,8.818,0,0,1-3.1308-.5586,7.84,7.84,0,0,1-4.4243-4.1,7.6183,7.6183,0,0,1-.6758-3.2486,8.1193,8.1193,0,0,1,.6465-3.2773,7.8339,7.8339,0,0,1,1.7636-2.5576,7.9841,7.9841,0,0,1,2.6607-1.6758,9.0184,9.0184,0,0,1,3.3071-.6026,7.9126,7.9126,0,0,1,3.5864.8233Z"/><path class="cls-1" d="M144.07,13.7573V24.3989H138.749V13.7573h-1.7636V9.3184h1.7636V4.7915H144.07V9.3184h3.0279v4.4389Z"/><path class="cls-1" d="M148.4785,16.7266a7.3393,7.3393,0,0,1,.6758-3.1309,7.6837,7.6837,0,0,1,1.8813-2.5278,8.9485,8.9485,0,0,1,2.8663-1.69,10.34,10.34,0,0,1,3.63-.6176,10.49,10.49,0,0,1,3.6011.603,8.9277,8.9277,0,0,1,2.8809,1.6753,7.5361,7.5361,0,0,1,1.8964,2.5576,7.8247,7.8247,0,0,1,.6758,3.2778,7.6761,7.6761,0,0,1-.6909,3.2779A7.768,7.768,0,0,1,164,22.7085,8.487,8.487,0,0,1,161.104,24.37a11.0782,11.0782,0,0,1-3.66.5879,10.599,10.599,0,0,1-3.5864-.5879,8.2738,8.2738,0,0,1-2.8369-1.6758,7.7663,7.7663,0,0,1-1.8667-2.6015A8.1644,8.1644,0,0,1,148.4785,16.7266Zm5.6148.0586a3.4179,3.4179,0,0,0,.2788,1.3964,3.73,3.73,0,0,0,.7353,1.1026,3.2312,3.2312,0,0,0,1.0874.7348,3.5184,3.5184,0,0,0,2.6753,0,3.2461,3.2461,0,0,0,1.0874-.7348,3.7479,3.7479,0,0,0,.7349-1.1026,3.3466,3.3466,0,0,0,.2793-1.3671,3.2768,3.2768,0,0,0-.2793-1.3374,3.7545,3.7545,0,0,0-.7349-1.1026A3.2552,3.2552,0,0,0,158.87,13.64a3.52,3.52,0,0,0-2.6753,0,3.24,3.24,0,0,0-1.0874.7349,3.795,3.795,0,0,0-.7353,1.0879A3.1728,3.1728,0,0,0,154.0933,16.7852Z"/><path class="cls-1" d="M174.6709,0V10.8179a6.2346,6.2346,0,0,1,4.7031-1.97,7.3723,7.3723,0,0,1,3.0723.6319,7.2653,7.2653,0,0,1,2.3808,1.7051,7.8738,7.8738,0,0,1,1.5435,2.5283,8.9023,8.9023,0,0,1-.0146,6.2466,7.8025,7.8025,0,0,1-1.6021,2.5576,7.6474,7.6474,0,0,1-2.4253,1.72,7.2293,7.2293,0,0,1-3.0132.6318,5.6114,5.6114,0,0,1-4.6445-2.146v1.6758H169.35V0Zm6.7021,16.9028a3.4457,3.4457,0,0,0-.9995-2.44,3.6714,3.6714,0,0,0-1.0874-.7495,3.2458,3.2458,0,0,0-1.3525-.2793,3.3263,3.3263,0,0,0-1.3228.2646,3.2632,3.2632,0,0,0-1.0727.7349,3.7314,3.7314,0,0,0-.7354,1.1025,3.2754,3.2754,0,0,0-.2788,1.3374,3.3236,3.3236,0,0,0,.2642,1.3228,3.2705,3.2705,0,0,0,.7348,1.0727,3.73,3.73,0,0,0,1.1026.7354,3.2754,3.2754,0,0,0,1.3374.2788,3.3241,3.3241,0,0,0,1.3232-.2642,3.2841,3.2841,0,0,0,1.0728-.7348,3.8093,3.8093,0,0,0,.7349-1.0879A3.105,3.105,0,0,0,181.373,16.9028Z"/><path class="cls-1" d="M189.6626,9.3184h5.3208v2.4692A6.1139,6.1139,0,0,1,197.07,9.7153a5.6161,5.6161,0,0,1,2.8809-.72h.4555a3.2629,3.2629,0,0,1,.5733.0591V14.14a5.0522,5.0522,0,0,0-2.293-.5292,3.4228,3.4228,0,0,0-2.7778,1.1025,4.8876,4.8876,0,0,0-.9258,3.2187v6.4673h-5.3208Z"/><path class="cls-1" d="M208.0352,17.7554q0,3.4393,3.2334,3.4394a2.888,2.888,0,0,0,2.6162-1.4111h5.1445q-1.5587,5.1746-7.79,5.1738a10.2287,10.2287,0,0,1-3.4981-.5732,7.8175,7.8175,0,0,1-2.7192-1.6314,7.2681,7.2681,0,0,1-1.7491-2.5283,8.423,8.423,0,0,1-.6171-3.2925,9.3007,9.3007,0,0,1,.5879-3.395,7.1366,7.1366,0,0,1,1.6752-2.5723A7.4248,7.4248,0,0,1,207.55,9.333a9.959,9.959,0,0,1,3.4834-.5732,9.75,9.75,0,0,1,3.4394.5732,6.9751,6.9751,0,0,1,2.587,1.6611,7.2314,7.2314,0,0,1,1.6167,2.66,10.5519,10.5519,0,0,1,.5586,3.5425v.5586Zm6.2319-3.0869a3.2054,3.2054,0,0,0-1.0874-1.793,3.3728,3.3728,0,0,0-4.0127-.0293,2.9257,2.9257,0,0,0-.9849,1.8223Z"/><path class="cls-1" d="M223.6147,18.7842h4.9976l-5.4092,9.73h-3.41Z"/><path class="cls-1" d="M41.125,35.05V59.4487H35.8042V35.05Z"/><path class="cls-1" d="M56.1167,44.3682h5.3506V59.4487H56.1167V57.7729a5.5814,5.5814,0,0,1-4.6152,2.146,7.4962,7.4962,0,0,1-3.0279-.6025,7.281,7.281,0,0,1-2.41-1.69,7.7818,7.7818,0,0,1-1.6021-2.5572,8.7408,8.7408,0,0,1-.5732-3.2045,8.5057,8.5057,0,0,1,.5581-3.0718,7.8962,7.8962,0,0,1,1.5581-2.543,7.357,7.357,0,0,1,2.3813-1.72,7.2685,7.2685,0,0,1,3.0572-.6319,6.1416,6.1416,0,0,1,4.6738,1.97Zm-6.7021,7.4961a3.5187,3.5187,0,0,0,.9848,2.47,3.2361,3.2361,0,0,0,1.0874.7348,3.5059,3.5059,0,0,0,1.3672.2642,3.43,3.43,0,0,0,1.3374-.2642,3.2432,3.2432,0,0,0,1.0879-.7348,3.82,3.82,0,0,0,.7349-1.0879,3.1748,3.1748,0,0,0,.2793-1.3228,3.2758,3.2758,0,0,0-.2793-1.3374,3.76,3.76,0,0,0-.7349-1.1025,3.2376,3.2376,0,0,0-1.0879-.7349,3.4321,3.4321,0,0,0-1.3374-.2646,3.5079,3.5079,0,0,0-1.3672.2646,3.2305,3.2305,0,0,0-1.0874.7349,3.6154,3.6154,0,0,0-.72,1.0728A3.2194,3.2194,0,0,0,49.4146,51.8643Z"/><path class="cls-1" d="M78.6636,44.3682,82.25,52.1l3.6455-7.7314h5.938L83.9844,59.4487H80.4272l-7.7607-15.08Z"/><path class="cls-1" d="M97.4482,52.8052q0,3.4394,3.2334,3.4394a2.8881,2.8881,0,0,0,2.6163-1.4111h5.1445q-1.5587,5.1745-7.79,5.1738a10.2285,10.2285,0,0,1-3.498-.5732,7.8175,7.8175,0,0,1-2.7192-1.6314,7.2681,7.2681,0,0,1-1.7491-2.5283,8.423,8.423,0,0,1-.6172-3.2925,9.3028,9.3028,0,0,1,.5879-3.395,7.1368,7.1368,0,0,1,1.6753-2.5723,7.4248,7.4248,0,0,1,2.6314-1.6318,9.959,9.959,0,0,1,3.4834-.5732,9.75,9.75,0,0,1,3.4394.5732,6.9739,6.9739,0,0,1,2.5869,1.6611,7.2287,7.2287,0,0,1,1.6167,2.66,10.5494,10.5494,0,0,1,.5586,3.5425v.5586Zm6.232-3.0869a3.2054,3.2054,0,0,0-1.0874-1.793A3.3728,3.3728,0,0,0,98.58,47.896a2.9252,2.9252,0,0,0-.9849,1.8223Z"/><path class="cls-1" d="M111.3818,44.3682h5.3208v1.9111a5.8241,5.8241,0,0,1,2.2046-1.7788,6.8982,6.8982,0,0,1,2.6162-.4556,6.5414,6.5414,0,0,1,2.7193.5147,5.4239,5.4239,0,0,1,1.9253,1.455A4.1839,4.1839,0,0,1,127.05,47.72a8.8849,8.8849,0,0,1,.2354,2.146v9.583h-5.3208V51.835a8.2128,8.2128,0,0,0-.1617-1.8077,2.2439,2.2439,0,0,0-.5732-1.1025,2.0142,2.0142,0,0,0-.794-.4995,2.9487,2.9487,0,0,0-.94-.1475,2.6306,2.6306,0,0,0-2.0722.8086,3.3551,3.3551,0,0,0-.72,2.3076v8.0547h-5.3208Z"/><path class="cls-1" d="M136.5449,48.8071V59.4487h-5.3208V48.8071H129.46V44.3682h1.7637V39.8413h5.3208v4.5269h3.0279v4.4389Z"/><path class="cls-1" d="M146.3628,52.8052q0,3.4394,3.2334,3.4394a2.888,2.888,0,0,0,2.6162-1.4111h5.1445q-1.5585,5.1745-7.79,5.1738a10.23,10.23,0,0,1-3.4981-.5732,7.8175,7.8175,0,0,1-2.7192-1.6314,7.2665,7.2665,0,0,1-1.749-2.5283,8.423,8.423,0,0,1-.6172-3.2925,9.3007,9.3007,0,0,1,.5879-3.395,7.1368,7.1368,0,0,1,1.6753-2.5723,7.4244,7.4244,0,0,1,2.6313-1.6318,9.9594,9.9594,0,0,1,3.4834-.5732,9.7509,9.7509,0,0,1,3.44.5732,6.9755,6.9755,0,0,1,2.5869,1.6611,7.23,7.23,0,0,1,1.6167,2.66,10.5494,10.5494,0,0,1,.5586,3.5425v.5586Zm6.2319-3.0869a3.2043,3.2043,0,0,0-1.0874-1.793,3.3728,3.3728,0,0,0-4.0127-.0293,2.9256,2.9256,0,0,0-.9848,1.8223Z"/><path class="cls-1" d="M181.6377,35.05h5.3506V59.4487h-5.3506V57.7729a5.5814,5.5814,0,0,1-4.6152,2.146,7.3357,7.3357,0,0,1-3.0279-.6171,7.4833,7.4833,0,0,1-2.41-1.7051,7.7778,7.7778,0,0,1-1.6021-2.5576,9.017,9.017,0,0,1-.03-6.2466,7.7025,7.7025,0,0,1,1.5435-2.543,7.3042,7.3042,0,0,1,5.4678-2.3516,6.1416,6.1416,0,0,1,4.6738,1.97Zm-6.7022,16.8145a3.5194,3.5194,0,0,0,.9849,2.47,3.2361,3.2361,0,0,0,1.0874.7348,3.5059,3.5059,0,0,0,1.3672.2642,3.43,3.43,0,0,0,1.3374-.2642A3.2432,3.2432,0,0,0,180.8,54.334a3.82,3.82,0,0,0,.7349-1.0879,3.1748,3.1748,0,0,0,.2793-1.3228,3.2758,3.2758,0,0,0-.2793-1.3374,3.76,3.76,0,0,0-.7349-1.1025,3.2376,3.2376,0,0,0-1.0879-.7349,3.5135,3.5135,0,0,0-2.6753,0,3.2305,3.2305,0,0,0-1.0874.7349,3.8591,3.8591,0,0,0-.7349,1.0728A3.0682,3.0682,0,0,0,174.9355,51.8643Z"/><path class="cls-1" d="M195.1011,52.8052q0,3.4394,3.2334,3.4394a2.888,2.888,0,0,0,2.6162-1.4111h5.1445q-1.5585,5.1745-7.79,5.1738a10.2287,10.2287,0,0,1-3.4981-.5732,7.8175,7.8175,0,0,1-2.7192-1.6314,7.2665,7.2665,0,0,1-1.749-2.5283,8.4212,8.4212,0,0,1-.6172-3.2925,9.3007,9.3007,0,0,1,.5879-3.395,7.1368,7.1368,0,0,1,1.6753-2.5723,7.4244,7.4244,0,0,1,2.6313-1.6318A9.9594,9.9594,0,0,1,198.1,43.81a9.7513,9.7513,0,0,1,3.4395.5732,6.9755,6.9755,0,0,1,2.5869,1.6611,7.23,7.23,0,0,1,1.6167,2.66,10.5519,10.5519,0,0,1,.5586,3.5425v.5586Zm6.2319-3.0869a3.2054,3.2054,0,0,0-1.0874-1.793,3.3728,3.3728,0,0,0-4.0127-.0293,2.9262,2.9262,0,0,0-.9849,1.8223Z"/><path class="cls-1" d="M29.9253,84.2979a4.9244,4.9244,0,0,0-2.793-.9405,3.795,3.795,0,0,0-1.4258.2647,3.5236,3.5236,0,0,0-1.1611.7495,3.4374,3.4374,0,0,0-.7788,1.1465,3.7766,3.7766,0,0,0-.2793,1.4843,3.6972,3.6972,0,0,0,.2793,1.4551,3.5581,3.5581,0,0,0,.7642,1.1465,3.3368,3.3368,0,0,0,1.1611.7495,3.9181,3.9181,0,0,0,1.44.2647,4.4,4.4,0,0,0,2.793-1.0288v4.5268a9.4126,9.4126,0,0,1-3.7334.8526A8.8212,8.8212,0,0,1,23.061,94.41,7.84,7.84,0,0,1,18.6367,90.31a7.618,7.618,0,0,1-.6758-3.2486,8.121,8.121,0,0,1,.6465-3.2773,7.8357,7.8357,0,0,1,1.7637-2.5576A7.9826,7.9826,0,0,1,23.0317,79.55a9.0188,9.0188,0,0,1,3.3072-.6025,7.9145,7.9145,0,0,1,3.5864.8232Z"/><path class="cls-1" d="M44.2993,79.418H49.65V94.4985H44.2993V92.8228a5.5817,5.5817,0,0,1-4.6152,2.146,7.4963,7.4963,0,0,1-3.0279-.6026,7.282,7.282,0,0,1-2.41-1.69,7.7823,7.7823,0,0,1-1.6021-2.5571,8.7417,8.7417,0,0,1-.5732-3.2046,8.5057,8.5057,0,0,1,.5581-3.0718,7.8962,7.8962,0,0,1,1.5581-2.543,7.3564,7.3564,0,0,1,2.3814-1.72,7.268,7.268,0,0,1,3.0571-.6318,6.1415,6.1415,0,0,1,4.6738,1.97Zm-6.7021,7.4961a3.5187,3.5187,0,0,0,.9848,2.47,3.2378,3.2378,0,0,0,1.0874.7349,3.5077,3.5077,0,0,0,1.3672.2641,3.4317,3.4317,0,0,0,1.3374-.2641,3.2449,3.2449,0,0,0,1.0879-.7349,3.8175,3.8175,0,0,0,.7349-1.0879,3.1748,3.1748,0,0,0,.2793-1.3228,3.2758,3.2758,0,0,0-.2793-1.3374,3.7585,3.7585,0,0,0-.7349-1.1025,3.2376,3.2376,0,0,0-1.0879-.7349,3.4321,3.4321,0,0,0-1.3374-.2646,3.5079,3.5079,0,0,0-1.3672.2646,3.2305,3.2305,0,0,0-1.0874.7349,3.6154,3.6154,0,0,0-.72,1.0728A3.2194,3.2194,0,0,0,37.5972,86.9141Z"/><path class="cls-1" d="M52.9712,79.418H58.292v1.9111A5.8241,5.8241,0,0,1,60.4966,79.55a6.8978,6.8978,0,0,1,2.6162-.4556,6.5409,6.5409,0,0,1,2.7192.5147,5.423,5.423,0,0,1,1.9253,1.4551,4.1831,4.1831,0,0,1,.8819,1.705,8.8852,8.8852,0,0,1,.2353,2.146v9.583H63.5537V86.8848a8.22,8.22,0,0,0-.1616-1.8077,2.2432,2.2432,0,0,0-.5733-1.1025,2.0139,2.0139,0,0,0-.7939-.4995,2.9515,2.9515,0,0,0-.94-.1475,2.6308,2.6308,0,0,0-2.0723.8086,3.3551,3.3551,0,0,0-.72,2.3076v8.0547H52.9712Z"/><path class="cls-1" d="M72.1963,79.418h5.3208v1.9111A5.8241,5.8241,0,0,1,79.7217,79.55a6.8978,6.8978,0,0,1,2.6162-.4556,6.5409,6.5409,0,0,1,2.7192.5147,5.423,5.423,0,0,1,1.9253,1.4551,4.1831,4.1831,0,0,1,.8819,1.705,8.8852,8.8852,0,0,1,.2353,2.146v9.583H82.7788V86.8848a8.22,8.22,0,0,0-.1616-1.8077,2.2432,2.2432,0,0,0-.5733-1.1025,2.0139,2.0139,0,0,0-.7939-.4995,2.9515,2.9515,0,0,0-.94-.1475,2.6308,2.6308,0,0,0-2.0723.8086,3.3551,3.3551,0,0,0-.72,2.3076v8.0547H72.1963Z"/><path class="cls-1" d="M103.062,79.418h5.3506V94.4985H103.062V92.8228a5.5817,5.5817,0,0,1-4.6152,2.146,7.4963,7.4963,0,0,1-3.0279-.6026,7.282,7.282,0,0,1-2.41-1.69,7.7823,7.7823,0,0,1-1.6021-2.5571,8.7417,8.7417,0,0,1-.5732-3.2046,8.5057,8.5057,0,0,1,.5581-3.0718,7.8962,7.8962,0,0,1,1.5581-2.543,7.3564,7.3564,0,0,1,2.3814-1.72,7.268,7.268,0,0,1,3.0571-.6318,6.1415,6.1415,0,0,1,4.6738,1.97ZM96.36,86.9141a3.5187,3.5187,0,0,0,.9848,2.47,3.2378,3.2378,0,0,0,1.0874.7349,3.5077,3.5077,0,0,0,1.3672.2641,3.4317,3.4317,0,0,0,1.3374-.2641,3.2449,3.2449,0,0,0,1.0879-.7349,3.82,3.82,0,0,0,.7349-1.0879,3.1748,3.1748,0,0,0,.2793-1.3228,3.2758,3.2758,0,0,0-.2793-1.3374,3.76,3.76,0,0,0-.7349-1.1025,3.2376,3.2376,0,0,0-1.0879-.7349,3.4321,3.4321,0,0,0-1.3374-.2646,3.5079,3.5079,0,0,0-1.3672.2646,3.2305,3.2305,0,0,0-1.0874.7349,3.6154,3.6154,0,0,0-.72,1.0728A3.2194,3.2194,0,0,0,96.36,86.9141Z"/><path class="cls-1" d="M117.0547,70.1V80.9175a6.2345,6.2345,0,0,1,4.7031-1.97,7.3723,7.3723,0,0,1,3.0723.6318,7.2653,7.2653,0,0,1,2.3808,1.7051,7.8738,7.8738,0,0,1,1.5435,2.5283A8.9016,8.9016,0,0,1,128.74,90.06a7.8022,7.8022,0,0,1-1.602,2.5576,7.6474,7.6474,0,0,1-2.4253,1.72,7.23,7.23,0,0,1-3.0132.6319,5.6117,5.6117,0,0,1-4.6445-2.146v1.6757h-5.3208V70.1Zm6.7021,16.9028a3.4457,3.4457,0,0,0-.9995-2.44,3.6726,3.6726,0,0,0-1.0874-.7495,3.2474,3.2474,0,0,0-1.3525-.2793,3.3259,3.3259,0,0,0-1.3228.2646,3.2632,3.2632,0,0,0-1.0727.7349,3.7327,3.7327,0,0,0-.7354,1.1025,3.2754,3.2754,0,0,0-.2788,1.3374,3.3236,3.3236,0,0,0,.2642,1.3228,3.272,3.272,0,0,0,.7348,1.0728,3.73,3.73,0,0,0,1.1026.7353,3.2754,3.2754,0,0,0,1.3374.2788,3.3258,3.3258,0,0,0,1.3232-.2641,3.2859,3.2859,0,0,0,1.0728-.7349,3.807,3.807,0,0,0,.7348-1.0879A3.1036,3.1036,0,0,0,123.7568,87.0024Z"/><path class="cls-1" d="M131.6934,73.627a2.8874,2.8874,0,0,1,.2353-1.1612,3.0454,3.0454,0,0,1,1.6021-1.602,2.9812,2.9812,0,0,1,2.3222,0,3.0454,3.0454,0,0,1,1.6021,1.602,2.9827,2.9827,0,0,1,0,2.3223,3.0445,3.0445,0,0,1-1.6021,1.602,2.9812,2.9812,0,0,1-2.3222,0,3.0445,3.0445,0,0,1-1.6021-1.602A2.8855,2.8855,0,0,1,131.6934,73.627Zm5.6738,5.791V94.4985h-5.3208V79.418Z"/><path class="cls-1" d="M150.7129,83.2983a6.2211,6.2211,0,0,0-2.8809-.7641,2.1646,2.1646,0,0,0-1.19.2939.9034.9034,0,0,0-.4556.794,1.0335,1.0335,0,0,0,.0733.4258.7556.7556,0,0,0,.3232.309,2.77,2.77,0,0,0,.7349.2642q.4856.1179,1.2788.2944a6.1119,6.1119,0,0,1,3.2925,1.5723,4.0086,4.0086,0,0,1,1.0879,2.896,5.253,5.253,0,0,1-.5293,2.3808,5.0615,5.0615,0,0,1-1.47,1.7784,6.9876,6.9876,0,0,1-2.2636,1.1172,10.0962,10.0962,0,0,1-2.91.3969,11.8269,11.8269,0,0,1-6.0264-1.7343l1.9405-3.7627a7.5769,7.5769,0,0,0,4.2329,1.5283,2.08,2.08,0,0,0,1.2051-.3233.9669.9669,0,0,0,.4707-.8232,1.3714,1.3714,0,0,0-.0738-.4849.7921.7921,0,0,0-.3086-.3525,2.4551,2.4551,0,0,0-.6909-.294q-.4563-.1325-1.19-.2793a6.8127,6.8127,0,0,1-3.4541-1.4848,3.6732,3.6732,0,0,1-.9849-2.7193,5.3531,5.3531,0,0,1,.47-2.2778,4.715,4.715,0,0,1,1.3526-1.72,6.3294,6.3294,0,0,1,2.1313-1.0879,9.4806,9.4806,0,0,1,2.7779-.3823,12.6089,12.6089,0,0,1,4.85.97Z"/><path class="cls-1" d="M176.728,79.418h5.3506V94.4985H176.728V92.8228a5.5817,5.5817,0,0,1-4.6152,2.146,7.4958,7.4958,0,0,1-3.0278-.6026,7.2824,7.2824,0,0,1-2.41-1.69,7.78,7.78,0,0,1-1.602-2.5571,8.74,8.74,0,0,1-.5733-3.2046,8.5057,8.5057,0,0,1,.5581-3.0718,7.8962,7.8962,0,0,1,1.5581-2.543,7.3564,7.3564,0,0,1,2.3814-1.72,7.268,7.268,0,0,1,3.0571-.6318,6.1413,6.1413,0,0,1,4.6738,1.97Zm-6.7021,7.4961a3.5187,3.5187,0,0,0,.9848,2.47,3.24,3.24,0,0,0,1.0874.7349,3.5077,3.5077,0,0,0,1.3672.2641,3.4317,3.4317,0,0,0,1.3374-.2641,3.2449,3.2449,0,0,0,1.0879-.7349,3.8175,3.8175,0,0,0,.7349-1.0879,3.1748,3.1748,0,0,0,.2793-1.3228,3.2758,3.2758,0,0,0-.2793-1.3374,3.7585,3.7585,0,0,0-.7349-1.1025,3.2376,3.2376,0,0,0-1.0879-.7349,3.4321,3.4321,0,0,0-1.3374-.2646,3.5079,3.5079,0,0,0-1.3672.2646,3.2325,3.2325,0,0,0-1.0874.7349,3.6154,3.6154,0,0,0-.72,1.0728A3.2211,3.2211,0,0,0,170.0259,86.9141Z"/><path class="cls-1" d="M190.7207,79.418v8.4956q0,2.7934,2.7041,2.7929t2.7046-2.7929V79.418H201.45v9.5244a5.3928,5.3928,0,0,1-2.0137,4.5859q-2.0141,1.5286-6.0117,1.5288t-6.0112-1.5288A5.3915,5.3915,0,0,1,185.4,88.9424V79.418Z"/><path class="cls-1" d="M210.4746,86.3262,204.36,79.418h6.9375l2.5869,3.1162L216.53,79.418h6.9375l-6.2613,6.9082,7.5547,8.1723h-7.0551L213.8555,90.03l-3.88,4.4682h-7.0259Z"/><path class="cls-1" d="M11.9644,119.3472a4.9244,4.9244,0,0,0-2.793-.9405,3.7943,3.7943,0,0,0-1.4258.2647,3.5252,3.5252,0,0,0-1.1611.7495,3.4384,3.4384,0,0,0-.7788,1.1465,3.775,3.775,0,0,0-.2793,1.4844,3.6949,3.6949,0,0,0,.2793,1.455,3.5584,3.5584,0,0,0,.7641,1.1465,3.3353,3.3353,0,0,0,1.1612.7495,3.9173,3.9173,0,0,0,1.44.2647,4.4,4.4,0,0,0,2.793-1.0288v4.5268a9.413,9.413,0,0,1-3.7334.8526A8.8208,8.8208,0,0,1,5.1,129.4595a7.84,7.84,0,0,1-4.4243-4.1006A7.6175,7.6175,0,0,1,0,122.11a8.12,8.12,0,0,1,.6465-3.2774A7.8337,7.8337,0,0,1,2.41,116.2754,7.9858,7.9858,0,0,1,5.0708,114.6a9.0183,9.0183,0,0,1,3.3071-.6025,7.9146,7.9146,0,0,1,3.5865.8232Z"/><path class="cls-1" d="M14.11,121.8755a7.3408,7.3408,0,0,1,.6757-3.1309,7.684,7.684,0,0,1,1.8814-2.5278,8.9478,8.9478,0,0,1,2.8662-1.69,10.3386,10.3386,0,0,1,3.63-.6177,10.4926,10.4926,0,0,1,3.601.603,8.93,8.93,0,0,1,2.8809,1.6753,7.5373,7.5373,0,0,1,1.8965,2.5576,7.8252,7.8252,0,0,1,.6758,3.2779,7.6771,7.6771,0,0,1-.6909,3.2778,7.7694,7.7694,0,0,1-1.896,2.5571,8.4891,8.4891,0,0,1-2.8955,1.6612,11.0786,11.0786,0,0,1-3.66.5878,10.5981,10.5981,0,0,1-3.5864-.5878,8.2743,8.2743,0,0,1-2.837-1.6758,7.7681,7.7681,0,0,1-1.8667-2.6016A8.1657,8.1657,0,0,1,14.11,121.8755Zm5.6147.0586a3.42,3.42,0,0,0,.2788,1.3965,3.7314,3.7314,0,0,0,.7354,1.1025,3.2329,3.2329,0,0,0,1.0874.7349,3.52,3.52,0,0,0,2.6753,0,3.2478,3.2478,0,0,0,1.0874-.7349,3.7472,3.7472,0,0,0,.7348-1.1025,3.3458,3.3458,0,0,0,.2793-1.3672,3.2759,3.2759,0,0,0-.2793-1.3374,3.7542,3.7542,0,0,0-.7348-1.1026,3.2535,3.2535,0,0,0-1.0874-.7348,3.5184,3.5184,0,0,0-2.6753,0,3.2385,3.2385,0,0,0-1.0874.7348,3.7973,3.7973,0,0,0-.7354,1.0879A3.1747,3.1747,0,0,0,19.7246,121.9341Z"/><path class="cls-1" d="M34.9814,114.4673h5.3208v1.9111A5.8248,5.8248,0,0,1,42.5068,114.6a6.8982,6.8982,0,0,1,2.6162-.4556,6.541,6.541,0,0,1,2.7193.5147,5.4241,5.4241,0,0,1,1.9253,1.4551,4.1829,4.1829,0,0,1,.8818,1.705,8.88,8.88,0,0,1,.2354,2.146v9.5831H45.564v-7.6138a8.2118,8.2118,0,0,0-.1617-1.8076,2.2439,2.2439,0,0,0-.5732-1.1026,2.015,2.015,0,0,0-.7939-.4995,2.9525,2.9525,0,0,0-.9405-.1474,2.6305,2.6305,0,0,0-2.0722.8085,3.3554,3.3554,0,0,0-.72,2.3077v8.0547H34.9814Z"/><path class="cls-1" d="M64.2012,118.3477a6.22,6.22,0,0,0-2.8809-.7642,2.1646,2.1646,0,0,0-1.19.2939.9034.9034,0,0,0-.4556.794,1.0316,1.0316,0,0,0,.0733.4258.7551.7551,0,0,0,.3232.309,2.77,2.77,0,0,0,.7349.2642q.4855.1179,1.2788.2944a6.1119,6.1119,0,0,1,3.2925,1.5723,4.0085,4.0085,0,0,1,1.0878,2.896,5.2524,5.2524,0,0,1-.5293,2.3809,5.0607,5.0607,0,0,1-1.47,1.7783,6.9851,6.9851,0,0,1-2.2637,1.1172,10.0951,10.0951,0,0,1-2.91.3969,11.8269,11.8269,0,0,1-6.0264-1.7343l1.9405-3.7627a7.5769,7.5769,0,0,0,4.2329,1.5283,2.08,2.08,0,0,0,1.205-.3232.967.967,0,0,0,.4707-.8233,1.3739,1.3739,0,0,0-.0737-.4849.7921.7921,0,0,0-.3086-.3525,2.4554,2.4554,0,0,0-.6909-.2939q-.4563-.1326-1.19-.2793a6.8126,6.8126,0,0,1-3.4541-1.4849,3.6726,3.6726,0,0,1-.9849-2.7192,5.3517,5.3517,0,0,1,.47-2.2779,4.7158,4.7158,0,0,1,1.3526-1.72,6.3294,6.3294,0,0,1,2.1313-1.0879,9.48,9.48,0,0,1,2.7778-.3823,12.6082,12.6082,0,0,1,4.85.97Z"/><path class="cls-1" d="M68.2871,121.8755a7.3393,7.3393,0,0,1,.6758-3.1309,7.6837,7.6837,0,0,1,1.8813-2.5278,8.9478,8.9478,0,0,1,2.8662-1.69,10.339,10.339,0,0,1,3.63-.6177,10.4928,10.4928,0,0,1,3.6011.603,8.9313,8.9313,0,0,1,2.8809,1.6753,7.537,7.537,0,0,1,1.8964,2.5576,7.8252,7.8252,0,0,1,.6758,3.2779,7.6756,7.6756,0,0,1-.6909,3.2778,7.768,7.768,0,0,1-1.896,2.5571,8.4872,8.4872,0,0,1-2.8955,1.6612,11.0786,11.0786,0,0,1-3.66.5878,10.599,10.599,0,0,1-3.5864-.5878,8.2729,8.2729,0,0,1-2.8369-1.6758,7.7667,7.7667,0,0,1-1.8667-2.6016A8.1641,8.1641,0,0,1,68.2871,121.8755Zm5.6148.0586a3.4187,3.4187,0,0,0,.2788,1.3965,3.7292,3.7292,0,0,0,.7353,1.1025,3.2329,3.2329,0,0,0,1.0874.7349,3.52,3.52,0,0,0,2.6753,0,3.2478,3.2478,0,0,0,1.0874-.7349,3.7475,3.7475,0,0,0,.7349-1.1025,3.3474,3.3474,0,0,0,.2793-1.3672,3.2775,3.2775,0,0,0-.2793-1.3374,3.7545,3.7545,0,0,0-.7349-1.1026,3.2535,3.2535,0,0,0-1.0874-.7348,3.5184,3.5184,0,0,0-2.6753,0,3.2385,3.2385,0,0,0-1.0874.7348,3.795,3.795,0,0,0-.7353,1.0879A3.1732,3.1732,0,0,0,73.9019,121.9341Z"/><path class="cls-1" d="M89.1587,114.4673H94.48v1.852a6.88,6.88,0,0,1,4.8794-2.0869,5.6747,5.6747,0,0,1,5.1152,2.8218,5.7048,5.7048,0,0,1,5.1148-2.8511,6.3672,6.3672,0,0,1,1.999.3086,4.1056,4.1056,0,0,1,1.6167.97,4.6434,4.6434,0,0,1,1.0732,1.72,7.3014,7.3014,0,0,1,.397,2.5576v9.7891H109.354V122.11a9.0362,9.0362,0,0,0-.1616-1.8814,2.9784,2.9784,0,0,0-.4707-1.1465,1.56,1.56,0,0,0-.72-.5581,2.6006,2.6006,0,0,0-.8819-.1474q-2.5575,0-2.5571,3.7334v7.4375H99.2417V122.11a10.149,10.149,0,0,0-.147-1.896,3.5117,3.5117,0,0,0-.4262-1.19,1.4278,1.4278,0,0,0-.72-.6025,2.9953,2.9953,0,0,0-1.0293-.1616,2.9517,2.9517,0,0,0-.94.1469,1.6662,1.6662,0,0,0-.7788.5733,3.1134,3.1134,0,0,0-.5293,1.1758A8.1275,8.1275,0,0,0,94.48,122.11v7.4375H89.1587Z"/><path class="cls-1" d="M118.0259,114.4673h5.3208v1.852a6.88,6.88,0,0,1,4.8794-2.0869,5.6749,5.6749,0,0,1,5.1152,2.8218,5.7048,5.7048,0,0,1,5.1148-2.8511,6.3672,6.3672,0,0,1,1.999.3086,4.1056,4.1056,0,0,1,1.6167.97,4.6434,4.6434,0,0,1,1.0732,1.72,7.3014,7.3014,0,0,1,.397,2.5576v9.7891h-5.3208V122.11a9.0362,9.0362,0,0,0-.1616-1.8814,2.9784,2.9784,0,0,0-.4707-1.1465,1.56,1.56,0,0,0-.72-.5581,2.6011,2.6011,0,0,0-.8819-.1474q-2.5576,0-2.5571,3.7334v7.4375h-5.3208V122.11a10.149,10.149,0,0,0-.147-1.896,3.51,3.51,0,0,0-.4263-1.19,1.4272,1.4272,0,0,0-.72-.6025,2.9953,2.9953,0,0,0-1.0293-.1616,2.9513,2.9513,0,0,0-.94.1469,1.6662,1.6662,0,0,0-.7788.5733,3.1134,3.1134,0,0,0-.5293,1.1758,8.1275,8.1275,0,0,0-.1909,1.9546v7.4375h-5.3208Z"/><path class="cls-1" d="M158.5337,114.4673h5.3506v15.0806h-5.3506v-1.6758a5.5817,5.5817,0,0,1-4.6152,2.146,7.4963,7.4963,0,0,1-3.0279-.6026,7.28,7.28,0,0,1-2.41-1.69,7.7807,7.7807,0,0,1-1.6021-2.5571,8.7417,8.7417,0,0,1-.5732-3.2046,8.5057,8.5057,0,0,1,.5581-3.0718,7.8962,7.8962,0,0,1,1.5581-2.543,7.356,7.356,0,0,1,2.3813-1.72,7.2684,7.2684,0,0,1,3.0572-.6318,6.1415,6.1415,0,0,1,4.6738,1.97Zm-6.7022,7.4961a3.5189,3.5189,0,0,0,.9849,2.47,3.2378,3.2378,0,0,0,1.0874.7349,3.5077,3.5077,0,0,0,1.3672.2641,3.4317,3.4317,0,0,0,1.3374-.2641,3.2449,3.2449,0,0,0,1.0879-.7349,3.82,3.82,0,0,0,.7349-1.0879,3.1746,3.1746,0,0,0,.2792-1.3227,3.275,3.275,0,0,0-.2792-1.3374,3.76,3.76,0,0,0-.7349-1.1026,3.2359,3.2359,0,0,0-1.0879-.7348,3.43,3.43,0,0,0-1.3374-.2647,3.5062,3.5062,0,0,0-1.3672.2647,3.2288,3.2288,0,0,0-1.0874.7348,3.6154,3.6154,0,0,0-.72,1.0728A3.22,3.22,0,0,0,151.8315,121.9634Z"/><path class="cls-1" d="M173.1436,118.9062v10.6417h-5.3208V118.9062h-1.7637v-4.4389h1.7637V109.94h5.3208v4.5269h3.0278v4.4389Z"/><path class="cls-1" d="M182.9614,122.9043q0,3.4395,3.2334,3.4395a2.888,2.888,0,0,0,2.6162-1.4112h5.1446q-1.5586,5.1745-7.79,5.1738a10.2285,10.2285,0,0,1-3.498-.5732,7.8193,7.8193,0,0,1-2.7193-1.6313,7.2691,7.2691,0,0,1-1.749-2.5284,8.4229,8.4229,0,0,1-.6172-3.2924,9.3009,9.3009,0,0,1,.5879-3.3951,7.1364,7.1364,0,0,1,1.6753-2.5722,7.425,7.425,0,0,1,2.6314-1.6319,9.959,9.959,0,0,1,3.4834-.5732,9.75,9.75,0,0,1,3.4394.5732,6.9753,6.9753,0,0,1,2.5869,1.6612,7.2291,7.2291,0,0,1,1.6167,2.66,10.55,10.55,0,0,1,.5586,3.5425v.5586Zm6.232-3.0869a3.2054,3.2054,0,0,0-1.0874-1.793,3.3728,3.3728,0,0,0-4.0127-.0293,2.9255,2.9255,0,0,0-.9849,1.8223Z"/><path class="cls-1" d="M202.2158,114.4673v8.4956q0,2.7934,2.7041,2.793t2.7046-2.793v-8.4956h5.3208v9.5244a5.3928,5.3928,0,0,1-2.0137,4.5859q-2.014,1.5286-6.0117,1.5288t-6.0112-1.5288a5.3915,5.3915,0,0,1-2.0137-4.5859v-9.5244Z"/><path class="cls-1" d="M216.2671,114.4673h5.3208v2.4692a6.1127,6.1127,0,0,1,2.0869-2.0722,5.6149,5.6149,0,0,1,2.8809-.72h.4555a3.2725,3.2725,0,0,1,.5733.0591v5.0855a5.0513,5.0513,0,0,0-2.293-.5293,3.4231,3.4231,0,0,0-2.7778,1.1025,4.8877,4.8877,0,0,0-.9258,3.2188v6.4673h-5.3208Z"/><path class="cls-1" d="M239.5781,118.3477a6.22,6.22,0,0,0-2.8808-.7642,2.1648,2.1648,0,0,0-1.1905.2939.9033.9033,0,0,0-.4555.794,1.0334,1.0334,0,0,0,.0732.4258.7548.7548,0,0,0,.3233.309,2.77,2.77,0,0,0,.7348.2642q.4856.1179,1.2788.2944a6.1119,6.1119,0,0,1,3.2925,1.5723,4.0086,4.0086,0,0,1,1.0879,2.896,5.2537,5.2537,0,0,1-.5293,2.3809,5.0618,5.0618,0,0,1-1.47,1.7783,6.9871,6.9871,0,0,1-2.2637,1.1172,10.0953,10.0953,0,0,1-2.91.3969,11.8269,11.8269,0,0,1-6.0263-1.7343l1.94-3.7627a7.5771,7.5771,0,0,0,4.2329,1.5283,2.0806,2.0806,0,0,0,1.2051-.3232.967.967,0,0,0,.4707-.8233,1.3739,1.3739,0,0,0-.0737-.4849.7928.7928,0,0,0-.3086-.3525,2.4567,2.4567,0,0,0-.6909-.2939q-.4563-.1326-1.19-.2793a6.813,6.813,0,0,1-3.4541-1.4849,3.6729,3.6729,0,0,1-.9848-2.7192,5.3517,5.3517,0,0,1,.47-2.2779,4.7156,4.7156,0,0,1,1.3525-1.72,6.33,6.33,0,0,1,2.1314-1.0879,9.48,9.48,0,0,1,2.7778-.3823,12.6089,12.6089,0,0,1,4.85.97Z"/><path class="cls-1" d="M15.4478,149.5171h5.3505v15.081h-5.35v-1.6757a5.583,5.583,0,0,1-4.6153,2.1455,7.4961,7.4961,0,0,1-3.0278-.6026,7.2809,7.2809,0,0,1-2.41-1.69,7.7823,7.7823,0,0,1-1.602-2.5566,8.7444,8.7444,0,0,1-.5733-3.2051,8.5032,8.5032,0,0,1,.5581-3.0713,7.8908,7.8908,0,0,1,1.5581-2.543,7.3575,7.3575,0,0,1,2.3814-1.72,7.268,7.268,0,0,1,3.0571-.6318,6.14,6.14,0,0,1,4.6739,1.97Zm-6.7022,7.4961a3.5189,3.5189,0,0,0,.9849,2.47,3.2391,3.2391,0,0,0,1.0874.7354,3.5161,3.5161,0,0,0,1.3672.2636,3.44,3.44,0,0,0,1.3374-.2636,3.2472,3.2472,0,0,0,1.0879-.7354,3.81,3.81,0,0,0,.7348-1.0879,3.1724,3.1724,0,0,0,.2793-1.3222,3.2778,3.2778,0,0,0-.2793-1.3379,3.764,3.764,0,0,0-.7348-1.1026,3.23,3.23,0,0,0-1.0879-.7344,3.4231,3.4231,0,0,0-1.3374-.2646,3.4985,3.4985,0,0,0-1.3672.2646,3.222,3.222,0,0,0-1.0874.7344,3.6158,3.6158,0,0,0-.72,1.0733A3.2174,3.2174,0,0,0,8.7456,157.0132Z"/><path class="cls-1" d="M35.76,140.1987h5.35v24.3994H35.76v-1.6757a5.583,5.583,0,0,1-4.6153,2.1455,7.3276,7.3276,0,0,1-3.0278-.6172,7.468,7.468,0,0,1-2.41-1.7051,7.7765,7.7765,0,0,1-1.602-2.5576,9.0141,9.0141,0,0,1-.03-6.2461,7.6957,7.6957,0,0,1,1.5435-2.543,7.3032,7.3032,0,0,1,5.4677-2.3515,6.14,6.14,0,0,1,4.6739,1.97Zm-6.7022,16.8145a3.5189,3.5189,0,0,0,.9849,2.47,3.2391,3.2391,0,0,0,1.0874.7354,3.5161,3.5161,0,0,0,1.3672.2636,3.44,3.44,0,0,0,1.3374-.2636,3.2472,3.2472,0,0,0,1.0879-.7354,3.81,3.81,0,0,0,.7348-1.0879,3.1708,3.1708,0,0,0,.2793-1.3222,3.2762,3.2762,0,0,0-.2793-1.3379,3.764,3.764,0,0,0-.7348-1.1026,3.23,3.23,0,0,0-1.0879-.7344,3.5135,3.5135,0,0,0-2.6753,0,3.222,3.222,0,0,0-1.0874.7344,3.86,3.86,0,0,0-.7349,1.0733A3.0663,3.0663,0,0,0,29.0581,157.0132Z"/><path class="cls-1" d="M49.7529,149.5171v8.4961q0,2.7934,2.7041,2.793t2.7046-2.793v-8.4961h5.3208v9.5244a5.3924,5.3924,0,0,1-2.0136,4.5859q-2.0142,1.5294-6.0118,1.5293t-6.0112-1.5293a5.3909,5.3909,0,0,1-2.0137-4.5859v-9.5244Z"/><path class="cls-1" d="M69.125,140.1987v24.3994H63.8042V140.1987Z"/><path class="cls-1" d="M78.4141,153.9565v10.6416H73.0933V153.9565H71.33v-4.4394h1.7637v-4.5264h5.3208v4.5264h3.0278v4.4394Z"/><path class="cls-1" d="M88.2319,157.9546q0,3.44,3.2334,3.4394a2.8888,2.8888,0,0,0,2.6162-1.4111h5.1446q-1.5586,5.1738-7.79,5.1738a10.2405,10.2405,0,0,1-3.498-.5732,7.8265,7.8265,0,0,1-2.7192-1.6318,7.2588,7.2588,0,0,1-1.7491-2.5284,8.4223,8.4223,0,0,1-.6172-3.292,9.3074,9.3074,0,0,1,.5879-3.3955,7.145,7.145,0,0,1,1.6753-2.5722,7.4392,7.4392,0,0,1,2.6314-1.6319,9.959,9.959,0,0,1,3.4834-.5732,9.75,9.75,0,0,1,3.4394.5732,6.9816,6.9816,0,0,1,2.5869,1.6612,7.2332,7.2332,0,0,1,1.6167,2.66,10.5529,10.5529,0,0,1,.5586,3.543v.5586Zm6.232-3.0869a3.2054,3.2054,0,0,0-1.0874-1.793,3.3708,3.3708,0,0,0-4.0127-.0293,2.9242,2.9242,0,0,0-.9849,1.8223Z"/><path class="cls-1" d="M112.16,153.3979a6.2159,6.2159,0,0,0-2.8809-.7646,2.1689,2.1689,0,0,0-1.19.2939.9034.9034,0,0,0-.4556.794,1.0318,1.0318,0,0,0,.0732.4258.76.76,0,0,0,.3233.31,2.772,2.772,0,0,0,.7348.2637q.4857.1186,1.2789.2949a6.1115,6.1115,0,0,1,3.2924,1.5723,4.0082,4.0082,0,0,1,1.0879,2.8955,5.2509,5.2509,0,0,1-.5293,2.3809,5.0519,5.0519,0,0,1-1.47,1.7783,6.9851,6.9851,0,0,1-2.2637,1.1172,10.0947,10.0947,0,0,1-2.91.3974,11.8269,11.8269,0,0,1-6.0264-1.7343l1.94-3.7627a7.5809,7.5809,0,0,0,4.2329,1.5283,2.08,2.08,0,0,0,1.2051-.3233.9679.9679,0,0,0,.4707-.8232,1.3759,1.3759,0,0,0-.0737-.4853.7976.7976,0,0,0-.3086-.3526,2.47,2.47,0,0,0-.6909-.2939q-.4563-.1318-1.19-.2793a6.8171,6.8171,0,0,1-3.4541-1.4844,3.6732,3.6732,0,0,1-.9849-2.72,5.351,5.351,0,0,1,.47-2.2774,4.7084,4.7084,0,0,1,1.3525-1.72,6.33,6.33,0,0,1,2.1314-1.0879,9.4633,9.4633,0,0,1,2.7778-.3828,12.6088,12.6088,0,0,1,4.85.9707Z"/><path class="cls-1" d="M138.1753,140.1987h5.3506v24.3994h-5.3506v-1.6757a5.5827,5.5827,0,0,1-4.6152,2.1455,7.3277,7.3277,0,0,1-3.0279-.6172,7.4665,7.4665,0,0,1-2.41-1.7051,7.7768,7.7768,0,0,1-1.6021-2.5576,9.0156,9.0156,0,0,1-.03-6.2461,7.6974,7.6974,0,0,1,1.5435-2.543,7.3036,7.3036,0,0,1,5.4678-2.3515,6.14,6.14,0,0,1,4.6738,1.97Zm-6.7022,16.8145a3.5189,3.5189,0,0,0,.9849,2.47,3.2391,3.2391,0,0,0,1.0874.7354,3.5165,3.5165,0,0,0,1.3672.2636,3.44,3.44,0,0,0,1.3374-.2636,3.2462,3.2462,0,0,0,1.0879-.7354,3.8126,3.8126,0,0,0,.7349-1.0879,3.1724,3.1724,0,0,0,.2793-1.3222,3.2778,3.2778,0,0,0-.2793-1.3379,3.7662,3.7662,0,0,0-.7349-1.1026,3.229,3.229,0,0,0-1.0879-.7344,3.5135,3.5135,0,0,0-2.6753,0,3.222,3.222,0,0,0-1.0874.7344,3.8616,3.8616,0,0,0-.7349,1.0733A3.0663,3.0663,0,0,0,131.4731,157.0132Z"/><path class="cls-1" d="M151.6387,157.9546q0,3.44,3.2334,3.4394a2.889,2.889,0,0,0,2.6162-1.4111h5.1445q-1.5585,5.1738-7.79,5.1738a10.2407,10.2407,0,0,1-3.4981-.5732,7.8274,7.8274,0,0,1-2.7192-1.6318,7.2586,7.2586,0,0,1-1.749-2.5284,8.42,8.42,0,0,1-.6172-3.292,9.3053,9.3053,0,0,1,.5879-3.3955,7.145,7.145,0,0,1,1.6753-2.5722,7.4388,7.4388,0,0,1,2.6313-1.6319,9.9594,9.9594,0,0,1,3.4834-.5732,9.7513,9.7513,0,0,1,3.4395.5732,6.9832,6.9832,0,0,1,2.5869,1.6612,7.2346,7.2346,0,0,1,1.6167,2.66,10.5554,10.5554,0,0,1,.5586,3.543v.5586Zm6.2319-3.0869a3.2054,3.2054,0,0,0-1.0874-1.793,3.3708,3.3708,0,0,0-4.0127-.0293,2.9251,2.9251,0,0,0-.9849,1.8223Z"/><path class="cls-1" d="M169.0415,149.5171l3.5859,7.7314,3.6455-7.7314h5.938l-7.8486,15.081h-3.5571l-7.7608-15.081Z"/><path class="cls-1" d="M183.3867,143.7261a2.8892,2.8892,0,0,1,.2354-1.1612,3.0471,3.0471,0,0,1,1.602-1.6015,2.9815,2.9815,0,0,1,2.3223,0,3.0461,3.0461,0,0,1,1.602,1.6015,2.9815,2.9815,0,0,1,0,2.3223,3.0425,3.0425,0,0,1-1.602,1.6025,2.9815,2.9815,0,0,1-2.3223,0,3.0434,3.0434,0,0,1-1.602-1.6025A2.8822,2.8822,0,0,1,183.3867,143.7261Zm5.6738,5.791v15.081H183.74v-15.081Z"/><path class="cls-1" d="M197.2031,157.9546q0,3.44,3.2334,3.4394a2.8889,2.8889,0,0,0,2.6162-1.4111h5.1446q-1.5587,5.1738-7.79,5.1738a10.2405,10.2405,0,0,1-3.498-.5732,7.8279,7.8279,0,0,1-2.7193-1.6318,7.26,7.26,0,0,1-1.749-2.5284,8.4223,8.4223,0,0,1-.6172-3.292,9.3053,9.3053,0,0,1,.5879-3.3955,7.145,7.145,0,0,1,1.6753-2.5722,7.4392,7.4392,0,0,1,2.6314-1.6319,9.959,9.959,0,0,1,3.4834-.5732,9.75,9.75,0,0,1,3.4394.5732,6.9816,6.9816,0,0,1,2.5869,1.6612,7.2332,7.2332,0,0,1,1.6167,2.66,10.5529,10.5529,0,0,1,.5586,3.543v.5586Zm6.232-3.0869a3.2054,3.2054,0,0,0-1.0874-1.793,3.3708,3.3708,0,0,0-4.0127-.0293,2.9242,2.9242,0,0,0-.9849,1.8223Z"/><path class="cls-1" d="M211.1367,149.5171h5.3208v1.9111a5.8174,5.8174,0,0,1,2.2046-1.7783,6.8975,6.8975,0,0,1,2.6162-.4561,6.5414,6.5414,0,0,1,2.7193.5147,5.425,5.425,0,0,1,1.9253,1.4551,4.1839,4.1839,0,0,1,.8818,1.7051,8.891,8.891,0,0,1,.2353,2.1464v9.583h-5.3208v-7.6142a8.2244,8.2244,0,0,0-.1616-1.8076,2.2482,2.2482,0,0,0-.5732-1.1026,2.0085,2.0085,0,0,0-.794-.499,2.9376,2.9376,0,0,0-.94-.1475,2.6291,2.6291,0,0,0-2.0723.8086,3.355,3.355,0,0,0-.72,2.3077v8.0546h-5.3208Z"/><path class="cls-1" d="M236.3,153.9565v10.6416H230.979V153.9565h-1.7637v-4.4394h1.7637v-4.5264H236.3v4.5264h3.0278v4.4394Z"/><path class="cls-1" d="M55.2354,175.2485v24.3994H49.9146V175.2485Z"/><path class="cls-1" d="M63.3779,193.0044q0,3.44,3.2334,3.4394a2.8889,2.8889,0,0,0,2.6162-1.4111h5.1446q-1.5587,5.1738-7.79,5.1738a10.2405,10.2405,0,0,1-3.498-.5732,7.8279,7.8279,0,0,1-2.7193-1.6318,7.26,7.26,0,0,1-1.749-2.5284,8.4217,8.4217,0,0,1-.6172-3.2919,9.3055,9.3055,0,0,1,.5879-3.3956,7.145,7.145,0,0,1,1.6753-2.5722,7.4392,7.4392,0,0,1,2.6314-1.6319,9.959,9.959,0,0,1,3.4834-.5732,9.75,9.75,0,0,1,3.4394.5732,6.9816,6.9816,0,0,1,2.5869,1.6612,7.2332,7.2332,0,0,1,1.6167,2.66,10.5529,10.5529,0,0,1,.5586,3.543v.5586Zm6.232-3.0869a3.2054,3.2054,0,0,0-1.0874-1.793,3.3712,3.3712,0,0,0-4.0127-.0293,2.9242,2.9242,0,0,0-.9849,1.8223Zm1.7934-12.0821-5.1152,4.5274L63.8188,180.54l4.2037-5.1436Z"/><path class="cls-1" d="M94.1851,184.5669v14.0518a15.7285,15.7285,0,0,1-.147,2.2636,9.8344,9.8344,0,0,1-.4116,1.7637,5.5491,5.5491,0,0,1-1.1026,1.8076,7.3944,7.3944,0,0,1-1.8076,1.4551,9.5708,9.5708,0,0,1-2.396.9707,12.08,12.08,0,0,1-6.1289-.0879,8.7907,8.7907,0,0,1-2.5723-1.2207,7.1046,7.1046,0,0,1-1.8081-1.8223,6.0438,6.0438,0,0,1-.94-2.2783h5.9966a2.39,2.39,0,0,0,2.5283,1.499,3.3876,3.3876,0,0,0,2.5723-.94,3.64,3.64,0,0,0,.8965-2.6162v-1.44a9.0052,9.0052,0,0,1-1.1319.9257,6.3935,6.3935,0,0,1-1.1025.6026,5.2082,5.2082,0,0,1-1.1758.3379,8.2757,8.2757,0,0,1-1.352.1035,7.708,7.708,0,0,1-2.9693-.5586,6.8643,6.8643,0,0,1-3.8657-3.9541,8.4759,8.4759,0,0,1-.5435-3.1016,8.6554,8.6554,0,0,1,.5879-3.2187,8.2813,8.2813,0,0,1,1.6021-2.5869,7.3772,7.3772,0,0,1,2.41-1.7344,7.2978,7.2978,0,0,1,3.043-.6318,5.8461,5.8461,0,0,1,4.4976,1.999v-1.5879ZM82.25,192.0337a3.5178,3.5178,0,0,0,.9849,2.47,3.222,3.222,0,0,0,1.0874.7344,3.4967,3.4967,0,0,0,1.3672.2646,3.4213,3.4213,0,0,0,1.3374-.2646,3.23,3.23,0,0,0,1.0878-.7344,3.7487,3.7487,0,0,0,.7349-1.1025,3.3769,3.3769,0,0,0,0-2.69,3.6634,3.6634,0,0,0-.7495-1.0879,3.4152,3.4152,0,0,0-1.1025-.7353,3.3678,3.3678,0,0,0-1.3081-.2637,3.18,3.18,0,0,0-1.3228.2783,3.8108,3.8108,0,0,0-1.0879.7354,3.4594,3.4594,0,0,0-.7495,1.0732A3.1654,3.1654,0,0,0,82.25,192.0337Z"/><path class="cls-1" d="M109.47,184.5669h5.3506v15.081H109.47v-1.6757a5.5827,5.5827,0,0,1-4.6152,2.1455,7.4963,7.4963,0,0,1-3.0279-.6026,7.2805,7.2805,0,0,1-2.41-1.69,7.7842,7.7842,0,0,1-1.6021-2.5566,8.7444,8.7444,0,0,1-.5732-3.2051,8.5011,8.5011,0,0,1,.5581-3.0713,7.8908,7.8908,0,0,1,1.5581-2.543,7.3564,7.3564,0,0,1,2.3814-1.72,7.268,7.268,0,0,1,3.0571-.6318,6.14,6.14,0,0,1,4.6738,1.97Zm-6.7021,7.4961a3.5183,3.5183,0,0,0,.9848,2.47,3.2391,3.2391,0,0,0,1.0874.7354,3.5165,3.5165,0,0,0,1.3672.2636,3.44,3.44,0,0,0,1.3374-.2636,3.2462,3.2462,0,0,0,1.0879-.7354,3.8106,3.8106,0,0,0,.7349-1.0879,3.1724,3.1724,0,0,0,.2793-1.3222,3.2778,3.2778,0,0,0-.2793-1.3379,3.7643,3.7643,0,0,0-.7349-1.1026,3.2288,3.2288,0,0,0-1.0879-.7343,3.4214,3.4214,0,0,0-1.3374-.2647,3.4971,3.4971,0,0,0-1.3672.2647,3.2218,3.2218,0,0,0-1.0874.7343,3.6177,3.6177,0,0,0-.72,1.0733A3.2174,3.2174,0,0,0,102.7681,192.063Z"/><path class="cls-1" d="M123.4629,175.2485v24.3994h-5.3208V175.2485Z"/><path class="cls-1" d="M131.6055,193.0044q0,3.44,3.2334,3.4394a2.889,2.889,0,0,0,2.6162-1.4111H142.6q-1.5587,5.1738-7.79,5.1738a10.2407,10.2407,0,0,1-3.4981-.5732,7.8274,7.8274,0,0,1-2.7192-1.6318,7.2586,7.2586,0,0,1-1.749-2.5284,8.42,8.42,0,0,1-.6172-3.2919,9.3055,9.3055,0,0,1,.5879-3.3956,7.145,7.145,0,0,1,1.6753-2.5722,7.4388,7.4388,0,0,1,2.6313-1.6319,9.959,9.959,0,0,1,3.4834-.5732,9.7513,9.7513,0,0,1,3.4395.5732,6.9832,6.9832,0,0,1,2.5869,1.6612,7.2359,7.2359,0,0,1,1.6167,2.66,10.5554,10.5554,0,0,1,.5586,3.543v.5586Zm6.2319-3.0869a3.2054,3.2054,0,0,0-1.0874-1.793,3.3712,3.3712,0,0,0-4.0127-.0293,2.9251,2.9251,0,0,0-.9849,1.8223Z"/><path class="cls-1" d="M166.88,184.5669h5.3506v15.081H166.88v-1.6757a5.5827,5.5827,0,0,1-4.6153,2.1455,7.4961,7.4961,0,0,1-3.0278-.6026,7.2809,7.2809,0,0,1-2.41-1.69,7.7823,7.7823,0,0,1-1.602-2.5566,8.7444,8.7444,0,0,1-.5732-3.2051,8.5011,8.5011,0,0,1,.5581-3.0713,7.8891,7.8891,0,0,1,1.5581-2.543,7.356,7.356,0,0,1,2.3813-1.72,7.2683,7.2683,0,0,1,3.0571-.6318,6.14,6.14,0,0,1,4.6739,1.97Zm-6.7022,7.4961a3.5189,3.5189,0,0,0,.9849,2.47,3.2391,3.2391,0,0,0,1.0874.7354,3.5161,3.5161,0,0,0,1.3672.2636,3.44,3.44,0,0,0,1.3374-.2636,3.2462,3.2462,0,0,0,1.0879-.7354,3.81,3.81,0,0,0,.7348-1.0879,3.1708,3.1708,0,0,0,.2793-1.3222,3.2762,3.2762,0,0,0-.2793-1.3379,3.764,3.764,0,0,0-.7348-1.1026,3.2288,3.2288,0,0,0-1.0879-.7343,3.4214,3.4214,0,0,0-1.3374-.2647,3.4968,3.4968,0,0,0-1.3672.2647,3.2218,3.2218,0,0,0-1.0874.7343,3.6158,3.6158,0,0,0-.72,1.0733A3.2174,3.2174,0,0,0,160.1782,192.063Z"/><path class="cls-1" d="M180.873,184.5669v8.4961q0,2.7935,2.7041,2.793t2.7046-2.793v-8.4961h5.3208v9.5244a5.3922,5.3922,0,0,1-2.0136,4.5859q-2.0142,1.5294-6.0118,1.5293t-6.0112-1.5293a5.3909,5.3909,0,0,1-2.0137-4.5859v-9.5244Z"/><path class="cls-1" d="M47.3711,234.6968V212.5317h5.7617l10.6416,13.5518V212.5317h5.7324v22.1651H63.7744L53.1328,221.145v13.5518Z"/><path class="cls-1" d="M73.0049,227.0239a7.3368,7.3368,0,0,1,.6758-3.13,7.6842,7.6842,0,0,1,1.8813-2.5283,8.93,8.93,0,0,1,2.8662-1.69,10.33,10.33,0,0,1,3.63-.6172,10.4931,10.4931,0,0,1,3.6011.6025,8.9038,8.9038,0,0,1,2.8808,1.6758,7.519,7.519,0,0,1,1.8965,2.5576,7.8215,7.8215,0,0,1,.6758,3.2774,7.6729,7.6729,0,0,1-.6909,3.2773,7.7652,7.7652,0,0,1-1.896,2.5576,8.4784,8.4784,0,0,1-2.8955,1.6612,11.0786,11.0786,0,0,1-3.66.5879,10.5981,10.5981,0,0,1-3.5864-.5879,8.265,8.265,0,0,1-2.8369-1.6758,7.7654,7.7654,0,0,1-1.8667-2.6016A8.1615,8.1615,0,0,1,73.0049,227.0239Zm5.6147.06a3.4135,3.4135,0,0,0,.2788,1.3955,3.7236,3.7236,0,0,0,.7354,1.1025,3.2341,3.2341,0,0,0,1.0874.7354,3.5135,3.5135,0,0,0,2.6753,0,3.2491,3.2491,0,0,0,1.0874-.7354,3.7416,3.7416,0,0,0,.7349-1.1025,3.3409,3.3409,0,0,0,.2792-1.3662,3.2781,3.2781,0,0,0-.2792-1.3379,3.7546,3.7546,0,0,0-.7349-1.1025,3.2319,3.2319,0,0,0-1.0874-.7344,3.5122,3.5122,0,0,0-2.6753,0,3.2171,3.2171,0,0,0-1.0874.7344,3.7946,3.7946,0,0,0-.7354,1.0879A3.1732,3.1732,0,0,0,78.62,227.0835Z"/><path class="cls-1" d="M99.1973,219.6167v8.4951q0,2.7935,2.7041,2.793t2.7046-2.793v-8.4951h5.3208v9.5244a5.395,5.395,0,0,1-2.0137,4.586q-2.0142,1.5277-6.0117,1.5283T95.89,233.7271a5.3939,5.3939,0,0,1-2.0136-4.586v-9.5244Z"/><path class="cls-1" d="M117.4229,219.6167l3.5859,7.7314,3.6455-7.7314h5.938l-7.8486,15.08h-3.5572l-7.7607-15.08Z"/><path class="cls-1" d="M136.2075,228.0532q0,3.44,3.2334,3.44a2.8888,2.8888,0,0,0,2.6162-1.4112h5.1446q-1.5586,5.1739-7.79,5.1739a10.2381,10.2381,0,0,1-3.498-.5733,7.7977,7.7977,0,0,1-2.7193-1.6318,7.2652,7.2652,0,0,1-1.749-2.5274,8.4268,8.4268,0,0,1-.6172-3.2929,9.3049,9.3049,0,0,1,.5879-3.3955,7.1454,7.1454,0,0,1,1.6753-2.5723,7.4229,7.4229,0,0,1,2.6314-1.6309,9.936,9.936,0,0,1,3.4834-.5732,9.7278,9.7278,0,0,1,3.4394.5732,6.967,6.967,0,0,1,2.5869,1.66,7.2292,7.2292,0,0,1,1.6167,2.6611,10.5469,10.5469,0,0,1,.5586,3.542v.5586Zm6.232-3.0869a3.2058,3.2058,0,0,0-1.0874-1.793,3.3753,3.3753,0,0,0-4.0127-.0293,2.9268,2.9268,0,0,0-.9849,1.8223Z"/><path class="cls-1" d="M161.7817,219.6167h5.3506v15.08h-5.3506V233.021a5.5832,5.5832,0,0,1-4.6152,2.1465,7.4958,7.4958,0,0,1-3.0278-.6026,7.31,7.31,0,0,1-2.41-1.69,7.7869,7.7869,0,0,1-1.602-2.5576,8.737,8.737,0,0,1-.5733-3.2041,8.5055,8.5055,0,0,1,.5581-3.0723,7.9,7.9,0,0,1,1.5581-2.5429,7.3552,7.3552,0,0,1,2.3814-1.72,7.268,7.268,0,0,1,3.0571-.6318,6.1429,6.1429,0,0,1,4.6738,1.97Zm-6.7021,7.4961a3.5177,3.5177,0,0,0,.9849,2.4687,3.2391,3.2391,0,0,0,1.0874.7354,3.5143,3.5143,0,0,0,1.3671.2646,3.4387,3.4387,0,0,0,1.3374-.2646,3.2462,3.2462,0,0,0,1.0879-.7354,3.8066,3.8066,0,0,0,.7349-1.0878,3.17,3.17,0,0,0,.2793-1.3223,3.2781,3.2781,0,0,0-.2793-1.3379,3.7737,3.7737,0,0,0-.7349-1.1025,3.2437,3.2437,0,0,0-1.0879-.7344,3.4207,3.4207,0,0,0-1.3374-.2647,3.4963,3.4963,0,0,0-1.3671.2647,3.2366,3.2366,0,0,0-1.0874.7344,3.6291,3.6291,0,0,0-.72,1.0732A3.2238,3.2238,0,0,0,155.08,227.1128Z"/><path class="cls-1" d="M175.7744,219.6167v8.4951q0,2.7935,2.7041,2.793t2.7046-2.793v-8.4951h5.3208v9.5244a5.395,5.395,0,0,1-2.0137,4.586q-2.014,1.5277-6.0117,1.5283t-6.0112-1.5283a5.3937,5.3937,0,0,1-2.0137-4.586v-9.5244Z"/><path class="cls-1" d="M188.0029,224.6138h8.437v4.4384h-8.437Z"/><path class="cls-1" d="M37.8027,247.5815h8.584a6.6064,6.6064,0,0,1,4.6445,1.47,5.4862,5.4862,0,0,1,1.5875,4.2334,5.75,5.75,0,0,1-.6026,2.7783,5.0711,5.0711,0,0,1-1.8374,1.8662,6.9567,6.9567,0,0,1,2.1021.7207,4.5634,4.5634,0,0,1,1.4106,1.19,4.4483,4.4483,0,0,1,.7793,1.5869,7.2859,7.2859,0,0,1,.2349,1.8819,6.652,6.652,0,0,1-.5435,2.7627A5.6154,5.6154,0,0,1,52.6333,268.1a6.5367,6.5367,0,0,1-2.396,1.2353,11.3245,11.3245,0,0,1-3.1748.4112h-9.26Zm5.7618,8.7012h1.0581q2.7048,0,2.7045-2.1455t-2.7045-2.1465H43.5645Zm0,8.9951h1.2641a6.43,6.43,0,0,0,3.1157-.5576,2.18,2.18,0,0,0,0-3.5869,6.4276,6.4276,0,0,0-3.1157-.5586H43.5645Z"/><path class="cls-1" d="M57.3511,254.6665h5.3208v2.4688a6.1077,6.1077,0,0,1,2.0869-2.0723,5.62,5.62,0,0,1,2.8808-.72h.4556a3.2588,3.2588,0,0,1,.5733.0586v5.0849a5.0583,5.0583,0,0,0-2.293-.5283,3.4237,3.4237,0,0,0-2.7778,1.1016,4.8913,4.8913,0,0,0-.9258,3.22v6.4668H57.3511Z"/><path class="cls-1" d="M76.0767,254.6665v8.4951q0,2.7935,2.7041,2.793t2.7046-2.793v-8.4951h5.3208v9.5244a5.395,5.395,0,0,1-2.0137,4.586q-2.0142,1.5277-6.0117,1.5283T72.77,268.7769a5.3939,5.3939,0,0,1-2.0136-4.586v-9.5244Z"/><path class="cls-1" d="M90.1279,254.6665h5.3208v1.91a5.8265,5.8265,0,0,1,2.2046-1.7784,6.8981,6.8981,0,0,1,2.6162-.455,6.5435,6.5435,0,0,1,2.7193.5136,5.4369,5.4369,0,0,1,1.9253,1.4551,4.1833,4.1833,0,0,1,.8818,1.7051,8.8918,8.8918,0,0,1,.2353,2.1465v9.583H100.71v-7.6133a8.2287,8.2287,0,0,0-.1616-1.8086,2.2479,2.2479,0,0,0-.5732-1.1025,2.0188,2.0188,0,0,0-.794-.4991,2.9655,2.9655,0,0,0-.94-.1474,2.629,2.629,0,0,0-2.0723.8086,3.3563,3.3563,0,0,0-.72,2.3076v8.0547H90.1279Z"/><path class="cls-1" d="M119.3477,258.5464a6.227,6.227,0,0,0-2.8809-.7647,2.16,2.16,0,0,0-1.19.295.9005.9005,0,0,0-.4556.7929,1.0365,1.0365,0,0,0,.0732.4268.7589.7589,0,0,0,.3233.3086,2.8079,2.8079,0,0,0,.7348.2646q.4857.1173,1.2789.294a6.1108,6.1108,0,0,1,3.2924,1.5722,4.0083,4.0083,0,0,1,1.0879,2.8955,5.2579,5.2579,0,0,1-.5293,2.3819,5.0686,5.0686,0,0,1-1.47,1.7783,6.9851,6.9851,0,0,1-2.2637,1.1172,10.1266,10.1266,0,0,1-2.91.3965,11.8261,11.8261,0,0,1-6.0264-1.7344l1.94-3.7627a7.5733,7.5733,0,0,0,4.2329,1.5283,2.08,2.08,0,0,0,1.2051-.3232.9668.9668,0,0,0,.4707-.8233,1.3661,1.3661,0,0,0-.0737-.4843.7936.7936,0,0,0-.3086-.3535,2.4967,2.4967,0,0,0-.6909-.294q-.4563-.1319-1.19-.2793a6.8076,6.8076,0,0,1-3.4541-1.4844,3.6721,3.6721,0,0,1-.9849-2.7187,5.3516,5.3516,0,0,1,.47-2.2783,4.7087,4.7087,0,0,1,1.3525-1.72,6.33,6.33,0,0,1,2.1314-1.0879,9.4675,9.4675,0,0,1,2.7778-.3818,12.61,12.61,0,0,1,4.85.97Z"/><path class="cls-1" d="M128.1367,254.6665l3.6157,7.9365,3.7627-7.9365h3.3516l3.7627,8.1719,3.792-8.1719H152.33l-7.8784,15.08H140.895l-3.7627-8.2608-3.5864,8.2608H129.93l-7.7315-15.08Z"/><path class="cls-1" d="M153.5059,248.8755a2.8838,2.8838,0,0,1,.2353-1.1611,3.0438,3.0438,0,0,1,1.6021-1.6026,2.9824,2.9824,0,0,1,2.3222,0,3.0438,3.0438,0,0,1,1.6021,1.6026,2.9824,2.9824,0,0,1,0,2.3222,3.0465,3.0465,0,0,1-1.6021,1.6016,2.9824,2.9824,0,0,1-2.3222,0,3.0465,3.0465,0,0,1-1.6021-1.6016A2.8872,2.8872,0,0,1,153.5059,248.8755Zm5.6738,5.791v15.08h-5.3208v-15.08Z"/><path class="cls-1" d="M173.9072,259.5464a4.9255,4.9255,0,0,0-2.7929-.9414,3.814,3.814,0,0,0-1.4258.2646,3.544,3.544,0,0,0-1.1612.75,3.4358,3.4358,0,0,0-.7788,1.1465,3.7736,3.7736,0,0,0-.2793,1.4844,3.6958,3.6958,0,0,0,.2793,1.4551,3.557,3.557,0,0,0,.7642,1.1465,3.346,3.346,0,0,0,1.1611.75,3.9306,3.9306,0,0,0,1.44.2646,4.3979,4.3979,0,0,0,2.7929-1.0293v4.5273a9.43,9.43,0,0,1-3.7334.8526,8.818,8.818,0,0,1-3.1308-.5586,7.8411,7.8411,0,0,1-4.4243-4.1016,7.6121,7.6121,0,0,1-.6758-3.248,8.1168,8.1168,0,0,1,.6465-3.2774,7.8455,7.8455,0,0,1,1.7636-2.5576,8.0032,8.0032,0,0,1,2.6607-1.6758,9.02,9.02,0,0,1,3.3071-.6025,7.9074,7.9074,0,0,1,3.5864.8232Z"/><path class="cls-1" d="M182.6958,245.3472V260.105l5.585-5.4385h7.2905l-7.5552,6.9668,7.9961,8.1133h-7.4668l-5.85-6.1436v6.1436H177.375V245.3472Z"/><path class="cls-1" d="M197.57,266.9243a3.4189,3.4189,0,0,1,.2647-1.3369,3.38,3.38,0,0,1,1.8369-1.8379,3.4679,3.4679,0,0,1,3.7778.7354,3.4509,3.4509,0,1,1-5.8794,2.4394Z"/></svg>