<svg id="Content" xmlns="http://www.w3.org/2000/svg" width="300" height="250" viewBox="0 0 300 250"><defs><style>.cls-1{fill:#ba9544;}</style></defs><title>Frame1 - MK Ultra</title><path class="cls-1" d="M168.66992,162.50942l2.2002-14.583h4.48926v20.54h-3.05079V153.736l-2.23047,14.73047h-3.05175L164.62012,153.942v14.52441h-2.81641v-20.54H166.293Z"/><path class="cls-1" d="M186.332,160.27993l-.99805,1.87793v6.30859h-3.22753v-20.54H185.334v8.94922l4.22559-8.94922h3.22754l-4.48926,9.15528,4.48926,11.38476h-3.31543Z"/><path class="cls-1" d="M210.68359,147.92641v15.84473c0,1.46777.64551,1.99609,1.67188,1.99609,1.02734,0,1.67285-.52832,1.67285-1.99609V147.92641h3.05176v15.63965c0,3.28614-1.64356,5.16407-4.8125,5.16407s-4.81153-1.87793-4.81153-5.16407V147.92641Z"/><path class="cls-1" d="M223.67969,147.92641h3.22754v17.60547h5.31152v2.93457h-8.53906Z"/><path class="cls-1" d="M237.08691,147.92641h9.97657V150.861h-3.374v17.60547h-3.22754V150.861h-3.375Z"/><path class="cls-1" d="M259.62012,168.46645a6.29789,6.29789,0,0,1-.29395-2.52343v-3.22754c0-1.90723-.64551-2.61133-2.1123-2.61133h-1.11524v8.3623h-3.22754v-20.54h4.8711c3.34472,0,4.78222,1.55567,4.78222,4.72461v1.61328c0,2.11329-.6748,3.49219-2.1123,4.167,1.61328.6748,2.1416,2.23047,2.1416,4.37207v3.16894a6.03941,6.03941,0,0,0,.35254,2.49414ZM256.09863,150.861v6.3086h1.26172c1.20313,0,1.93653-.52832,1.93653-2.17188v-2.02441c0-1.4668-.499-2.11231-1.64258-2.11231Z"/><path class="cls-1" d="M279.5127,168.46645h-3.25782l-.55761-3.72656h-3.96094l-.55762,3.72656h-2.96289l3.28613-20.54h4.72364Zm-7.36524-6.51367h3.11035l-1.55566-10.38769Z"/></svg>