<svg id="Layer_1" data-name="Layer 1" xmlns="http://www.w3.org/2000/svg" width="160" height="600" viewBox="0 0 160 600"><defs><style>.cls-1{fill:#ab9555;}</style></defs><title>frame3</title><path class="cls-1" d="M28.78818,266.29834l2.67188,8.97852v-8.97852h2.01367v13.35937H31.31162L28.54111,271.103v8.55468H26.52744V266.29834Z"/><path class="cls-1" d="M39.54306,276.58936l-.48925,3.06835H36.95713l2.26953-13.34863h2.76953l2.2373,13.34863H42.11631l-.47168-3.06835Zm1.05762-7.22266-.74609,5.26269H41.3458Z"/><path class="cls-1" d="M49.74033,279.65771H47.72666V266.29834h2.88965l1.877,9.59668,1.80078-9.59668h2.77637v13.35937H55.05674v-8.39453l-1.74707,8.39453H51.69052l-1.95019-8.374Z"/><path class="cls-1" d="M63.13877,276.58936l-.48926,3.06835H60.55283l2.26953-13.34863h2.76953l2.23731,13.34863H65.712l-.4707-3.06835Zm1.05761-7.22266-.74511,5.26269h1.49121Z"/><path class="cls-1" d="M77.3751,276.3335a3.75816,3.75816,0,0,1-.72461,2.38671,2.61459,2.61459,0,0,1-1.38477.94825,3.77818,3.77818,0,0,1-1.11914.14941,3.166,3.166,0,0,1-1.96-.58594,3.27769,3.27769,0,0,1-1.02832-1.30566,5.27271,5.27271,0,0,1-.44238-1.89063l1.918-.13867a2.91328,2.91328,0,0,0,.61817,1.69239,1.02844,1.02844,0,0,0,.83105.374,1.249,1.249,0,0,0,1.05469-.65039,1.61633,1.61633,0,0,0,.20215-.88477,2.45282,2.45282,0,0,0-.75684-1.65234q-.59619-.56542-1.78906-1.69531a7.63379,7.63379,0,0,1-1.417-1.73828,4.01344,4.01344,0,0,1-.44727-1.877,3.26473,3.26473,0,0,1,1.22461-2.76172,3.042,3.042,0,0,1,1.875-.56543,3.40674,3.40674,0,0,1,1.84278.4795,2.77055,2.77055,0,0,1,.96484,1.04394,3.86979,3.86979,0,0,1,.44141,1.54492l-1.92774.35157a2.32954,2.32954,0,0,0-.46875-1.27832.98538.98538,0,0,0-.79883-.33008.91867.91867,0,0,0-.84179.49023,1.88689,1.88689,0,0,0-.23438.97949,2.93983,2.93983,0,0,0,.78809,1.86426,6.61407,6.61407,0,0,0,.89453.85254q.70313.58594.92773.82031a6.87249,6.87249,0,0,1,1.15039,1.47071,5.57716,5.57716,0,0,1,.3086.62793A3.69177,3.69177,0,0,1,77.3751,276.3335Z"/><path class="cls-1" d="M82.70029,268.3335h-2.1416v-2.02442h6.28613v2.02442H84.714v11.32421H82.70029Z"/><path class="cls-1" d="M90.26377,279.65771V266.29834h5.73144v2.02441H92.27744v3.64356h2.71582v2.02344H92.27744v3.64355h3.71777v2.02441Z"/><path class="cls-1" d="M99.17978,277.65479h2.01367v2.01367H99.17978Z"/><path class="cls-1" d="M107.57431,279.82861a3.18419,3.18419,0,0,1-3.19629-3.18554V269.356a3.19094,3.19094,0,1,1,6.38184,0v1.52343H108.672V269.313a1.16364,1.16364,0,0,0-1.16113-1.16113,1.10314,1.10314,0,0,0-.81543.34082,1.12876,1.12876,0,0,0-.33594.82031v7.30859a1.147,1.147,0,0,0,1.15137,1.15039,1.125,1.125,0,0,0,.82031-.33593,1.1026,1.1026,0,0,0,.34082-.81446v-1.84277h2.08789v1.86426a3.18413,3.18413,0,0,1-3.18555,3.18554Z"/><path class="cls-1" d="M117.36435,266.13818a3.1925,3.1925,0,0,1,3.19629,3.19629v7.28711a3.19093,3.19093,0,1,1-6.38183,0v-7.28711a3.19251,3.19251,0,0,1,3.18554-3.19629Zm1.09766,3.15332a1.147,1.147,0,0,0-1.15039-1.15039,1.12565,1.12565,0,0,0-.82031.33594,1.09888,1.09888,0,0,0-.34082.81445v7.3086a1.10105,1.10105,0,0,0,.34082.81543,1.12475,1.12475,0,0,0,.82031.335,1.14534,1.14534,0,0,0,1.15039-1.15039Z"/><path class="cls-1" d="M126.1417,279.65771H124.128V266.29834h2.88965l1.877,9.59668,1.80078-9.59668h2.77636v13.35937H131.4581v-8.39453l-1.74707,8.39453h-1.61914l-1.95019-8.374Z"/></svg>