<svg id="Content" xmlns="http://www.w3.org/2000/svg" viewBox="0 0 728 360"><defs><style>.cls-1{fill:#b89344;}</style></defs><title>Frame2 - Daytime CBD</title><path class="cls-1" d="M127.05,250.19H133c3.74,0,5.57,2.07,5.57,5.88v12c0,3.8-1.83,5.88-5.57,5.88h-5.92Zm3.74,3.4v17h2.11c1.19,0,1.9-.61,1.9-2.31V255.9c0-1.7-.71-2.31-1.9-2.31Z"/><path class="cls-1" d="M156,274h-3.77l-.65-4.32h-4.59L146.3,274h-3.44l3.81-23.8h5.47Zm-8.53-7.55H151l-1.8-12Z"/><path class="cls-1" d="M161.39,266.1l-4.72-15.91h3.91L163.43,261l2.86-10.84h3.57l-4.73,15.91V274h-3.74Z"/><path class="cls-1" d="M171.83,250.19h11.56v3.4h-3.91V274h-3.74v-20.4h-3.91Z"/><path class="cls-1" d="M188,250.19h3.74V274H188Z"/><path class="cls-1" d="M205.93,267.09l2.55-16.9h5.2V274h-3.53V256.92L207.56,274H204l-2.79-16.83V274H198v-23.8h5.21Z"/><path class="cls-1" d="M223.75,260.22h5.13v3.4h-5.13v7h6.46V274H220v-23.8h10.2v3.4h-6.46Z"/><path class="cls-1" d="M255.84,265.11v3.17c0,3.8-1.9,6-5.57,6s-5.58-2.18-5.58-6V255.9c0-3.81,1.9-6,5.58-6s5.57,2.17,5.57,6v2.31h-3.53v-2.55c0-1.7-.75-2.34-1.94-2.34s-1.94.64-1.94,2.34v12.85c0,1.7.75,2.32,1.94,2.32s1.94-.62,1.94-2.32v-3.4Z"/><path class="cls-1" d="M272.91,255.66v.85c0,2.45-.75,4-2.42,4.8,2,.78,2.79,2.58,2.79,5.1v1.93c0,3.68-1.94,5.65-5.68,5.65h-5.88v-23.8h5.65C271.24,250.19,272.91,252,272.91,255.66Zm-7.45-2.07v6.29h1.47c1.39,0,2.24-.61,2.24-2.52V256c0-1.7-.58-2.45-1.9-2.45Zm0,9.69v7.31h2.14c1.26,0,1.94-.58,1.94-2.35v-2.07c0-2.21-.71-2.89-2.41-2.89Z"/><path class="cls-1" d="M279.13,250.19h5.92c3.74,0,5.57,2.07,5.57,5.88v12c0,3.8-1.83,5.88-5.57,5.88h-5.92Zm3.74,3.4v17H285c1.19,0,1.9-.61,1.9-2.31V255.9c0-1.7-.71-2.31-1.9-2.31Z"/></svg>