<svg id="Content" xmlns="http://www.w3.org/2000/svg" viewBox="0 0 728 360"><defs><style>.cls-1{fill:#b89344;}</style></defs><title>Frame2 - MK Ultra</title><path class="cls-1" d="M154.13,268.09l2.55-16.9h5.2V275h-3.53V257.92L155.76,275h-3.53l-2.79-16.83V275h-3.26v-23.8h5.2Z"/><path class="cls-1" d="M173.1,265.5,172,267.68V275h-3.74v-23.8H172v10.37l4.89-10.37h3.74l-5.2,10.61,5.2,13.19h-3.84Z"/><path class="cls-1" d="M198.33,251.19v18.36c0,1.7.75,2.31,1.94,2.31s1.94-.61,1.94-2.31V251.19h3.53v18.12c0,3.81-1.9,6-5.57,6s-5.58-2.17-5.58-6V251.19Z"/><path class="cls-1" d="M211.9,251.19h3.74v20.4h6.15V275H211.9Z"/><path class="cls-1" d="M225.94,251.19H237.5v3.4h-3.91V275h-3.74v-20.4h-3.91Z"/><path class="cls-1" d="M250.55,275a7.42,7.42,0,0,1-.34-2.93v-3.74c0-2.21-.74-3-2.44-3h-1.29V275h-3.74v-23.8h5.64c3.88,0,5.54,1.8,5.54,5.47v1.87c0,2.45-.78,4.05-2.45,4.83,1.87.78,2.48,2.58,2.48,5.07v3.67a7.11,7.11,0,0,0,.41,2.89Zm-4.07-20.4v7.31h1.46c1.39,0,2.24-.61,2.24-2.52V257c0-1.7-.58-2.45-1.9-2.45Z"/><path class="cls-1" d="M272.11,275h-3.77l-.65-4.32H263.1l-.64,4.32H259l3.81-23.8h5.47Zm-8.53-7.55h3.6l-1.8-12Z"/></svg>