<svg id="Content" xmlns="http://www.w3.org/2000/svg" viewBox="0 0 728 90"><defs><style>.cls-1{fill:#ba9544;}</style></defs><title>Frame1 - MK Ultra</title><path class="cls-1" d="M227.54,51.63l2.4-15.9h4.89V58.12H231.5V42.06l-2.43,16.06h-3.33l-2.62-15.83V58.12h-3.07V35.73h4.89Z"/><path class="cls-1" d="M245.39,49.2l-1.09,2v6.88h-3.52V35.73h3.52v9.76l4.61-9.76h3.52l-4.89,10,4.89,12.41h-3.61Z"/><path class="cls-1" d="M269.14,35.73V53c0,1.6.7,2.18,1.82,2.18s1.82-.58,1.82-2.18V35.73h3.33V52.78c0,3.58-1.79,5.63-5.25,5.63s-5.24-2-5.24-5.63V35.73Z"/><path class="cls-1" d="M281.9,35.73h3.52V54.92h5.8v3.2H281.9Z"/><path class="cls-1" d="M295.12,35.73H306v3.2h-3.68V58.12H298.8V38.93h-3.68Z"/><path class="cls-1" d="M318.29,58.12a6.68,6.68,0,0,1-.32-2.75V51.85c0-2.08-.71-2.85-2.31-2.85h-1.21v9.12h-3.52V35.73h5.31c3.65,0,5.21,1.69,5.21,5.15v1.76c0,2.3-.73,3.81-2.3,4.54,1.76.74,2.34,2.43,2.34,4.77V55.4a6.62,6.62,0,0,0,.38,2.72Zm-3.84-19.19v6.88h1.37c1.31,0,2.11-.58,2.11-2.37V41.23c0-1.6-.54-2.3-1.79-2.3Z"/><path class="cls-1" d="M338.57,58.12H335l-.61-4.06h-4.32l-.6,4.06h-3.23l3.58-22.39H335Zm-8-7.1h3.39l-1.69-11.33Z"/></svg>