<svg id="Layer_1" data-name="Layer 1" xmlns="http://www.w3.org/2000/svg" width="970" height="250" viewBox="0 0 970 250"><defs><style>.cls-1{fill:#ab9555;}</style></defs><title>frame2_1</title><path class="cls-1" d="M406.84469,156.10807a6.00467,6.00467,0,0,1-1.1582,3.81836,4.1749,4.1749,0,0,1-2.2168,1.5166,6.0348,6.0348,0,0,1-1.78906.23925,5.06724,5.06724,0,0,1-3.13672-.9375,5.23277,5.23277,0,0,1-1.64453-2.08789,8.37271,8.37271,0,0,1-.707-3.02636l3.06641-.22071a4.66035,4.66035,0,0,0,.99024,2.707,1.64712,1.64712,0,0,0,1.32812.59961,1.99715,1.99715,0,0,0,1.6875-1.041,2.57739,2.57739,0,0,0,.32422-1.416,3.93187,3.93187,0,0,0-1.209-2.64453q-.95506-.90381-2.86523-2.71289a12.21153,12.21153,0,0,1-2.26562-2.78027,6.42024,6.42024,0,0,1-.7168-3.00293,5.22319,5.22319,0,0,1,1.96094-4.41895,4.87229,4.87229,0,0,1,3-.90429,5.45439,5.45439,0,0,1,2.94921.76757,4.42566,4.42566,0,0,1,1.541,1.66993,6.18368,6.18368,0,0,1,.709,2.47168l-3.08593.5625a3.72963,3.72963,0,0,0-.75-2.04493,1.57576,1.57576,0,0,0-1.2793-.52929,1.4726,1.4726,0,0,0-1.3457.78418,3.02488,3.02488,0,0,0-.375,1.56836,4.70294,4.70294,0,0,0,1.26172,2.98339,10.66709,10.66709,0,0,0,1.43164,1.36329q1.125.9375,1.48242,1.3125a11.0288,11.0288,0,0,1,1.8418,2.35253,9.16706,9.16706,0,0,1,.49414,1.00586A5.8637,5.8637,0,0,1,406.84469,156.10807Z"/><path class="cls-1" d="M417.95992,140.068a4.90926,4.90926,0,0,1,3.75,1.4834,5.14545,5.14545,0,0,1,1.29688,3.61328v3.10254a4.96845,4.96845,0,0,1-1.47461,3.61328,4.82241,4.82241,0,0,1-3.57227,1.5H416.1025v8.0459h-3.2207V140.068Zm1.92578,5.14843a1.83462,1.83462,0,0,0-.50195-1.34668,1.79339,1.79339,0,0,0-1.33789-.51171H416.1025v6.835h1.94336a1.76547,1.76547,0,0,0,1.30469-.54493,1.803,1.803,0,0,0,.53515-1.3125Z"/><path class="cls-1" d="M432.15914,161.42643h-3.2207V140.068h3.2207Z"/><path class="cls-1" d="M443.48141,140.068a4.90938,4.90938,0,0,1,3.95312,1.4834,5.38007,5.38007,0,0,1,1.10938,3.61328v3.10254a4.98756,4.98756,0,0,1-1.72266,3.835l2.38672,9.32422h-3.48438l-1.95312-8.0459H441.622v8.0459h-3.2207V140.068Zm1.92578,5.14843a1.63531,1.63531,0,0,0-1.8418-1.85839H441.622v6.835h1.94336a1.76237,1.76237,0,0,0,1.30469-.54493,1.80475,1.80475,0,0,0,.53711-1.3125Z"/><path class="cls-1" d="M458.54977,161.42643h-3.22071V140.068h3.22071Z"/><path class="cls-1" d="M467.92672,143.30728h-3.42578V140.068h10.05664v3.23925h-3.4082v18.11915h-3.22266Z"/><path class="cls-1" d="M485.58883,161.66471a5.06156,5.06156,0,0,1-5.0957-5.07911V140.068h3.15234v16.4834a1.76027,1.76027,0,0,0,.54492,1.30371,1.80409,1.80409,0,0,0,1.3125.53711,1.83386,1.83386,0,0,0,1.8418-1.84082V140.068h3.35742V156.5856a4.852,4.852,0,0,1-1.5,3.61329A4.98307,4.98307,0,0,1,485.58883,161.66471Z"/><path class="cls-1" d="M500.415,156.51725l-.7832,4.90918h-3.35352l3.63086-21.3584h4.43164l3.57813,21.3584h-3.38672l-.75391-4.90918Zm1.69141-11.55665-1.19336,8.41993h2.38672Z"/><path class="cls-1" d="M522.76852,161.42643h-8.7793V140.068h3.2207v18.15429h5.5586Z"/><path class="cls-1" d="M531.56539,161.42643h-3.2207V140.068h3.2207Z"/><path class="cls-1" d="M540.94234,143.30728h-3.42578V140.068H547.5732v3.23925h-3.41015v18.11915h-3.22071Z"/><path class="cls-1" d="M557.46188,152.47721l-4.3125-12.42578h3.54492l2.38672,7.67089,2.36914-7.67089h3.5625l-4.33008,12.42578v8.94922h-3.2207Z"/><path class="cls-1" d="M570.58883,158.22232h3.2207V161.443h-3.2207Z"/></svg>