<svg id="Content" xmlns="http://www.w3.org/2000/svg" xmlns:xlink="http://www.w3.org/1999/xlink" width="300" height="250" viewBox="0 0 300 250"><defs><style>.cls-1{fill:#fff;}.cls-2{fill:url(#New_Gradient_Swatch_1);}.cls-3{fill:#ba9544;}</style><linearGradient id="New_Gradient_Swatch_1" x1="211.39918" y1="157.20121" x2="240.92486" y2="157.20121" gradientUnits="userSpaceOnUse"><stop offset="0" stop-color="#a88a34"/><stop offset="0.49324" stop-color="#caaf67"/><stop offset="1" stop-color="#957f2e"/></linearGradient></defs><title>minty</title><path class="cls-1" d="M220.28169,153.45877a1.25935,1.25935,0,0,1,.23734-.0974,2.28143,2.28143,0,0,1,.26477-.06723l.01509-.00549,2.59012-.56933a.83829.83829,0,0,1,.55287.085l.43626.42666-.90682.94935-2.89056.63518c-.11524-.52131-.23459-1.06458-.29907-1.35679m8.98859,7.2257-1.42265-6.47117a.97.97,0,0,0-1.0783-.75042l.76277-.80118.20989.19892.31691-.33611a.20584.20584,0,0,0-.00823-.29084L226.5169,150.785a.20584.20584,0,0,0-.29083.00824l-.31691.3361.25242.23871-1.01793,1.06733-.50486-.49251-.03566-.02743a1.929,1.929,0,0,0-1.45009-.273l-2.56267.56384a3.75221,3.75221,0,0,0-.45273.11661,1.5425,1.5425,0,0,0-.82861.55287.895.895,0,0,0-.13445.6983c.07957.35669.35669,1.62019.52406,2.37884.00274.01646.00548.03292.00961.04939l1.42263,6.47254a.96411.96411,0,0,0,1.15239.73259l6.24344-1.37326a.96914.96914,0,0,0,.74357-1.14964"/><polygon class="cls-2" points="236.944 167.141 224.634 171.865 213.266 165.187 211.399 152.135 220.44 142.537 233.58 143.621 240.925 154.571 236.944 167.141"/><path class="cls-1" d="M232.40754,161.85176a5.23057,5.23057,0,0,0-2.09487-4.33241,2.01758,2.01758,0,0,1,.99324-.12072,3.41782,3.41782,0,0,0-1.99746-1.79854,1.52818,1.52818,0,0,1,.78334-.096,7.19374,7.19374,0,0,0-4.15269-2.72731,2.47885,2.47885,0,0,1,.75728-.09329,6.2128,6.2128,0,0,0-6.04864.21264,12.56415,12.56415,0,0,1,3.4887,2.68341s-3.427-2.18953-3.92633-2.15523c0,0-1.542,3.6643,2.37885,6.8704a1.72438,1.72438,0,0,1-.09329-.75728,8.7977,8.7977,0,0,0,3.07714,2.38159,1.77663,1.77663,0,0,1,.0096-.73808,4.57857,4.57857,0,0,0,2.17306,1.24019,1.65756,1.65756,0,0,1-.06859-.99874s2.51741,1.494,4.72066.4294"/><path class="cls-3" d="M213.88869,185.82419v-5.42578H214.25l2.35156,2.67676,2.35449-2.67676h.36133v5.42578h-1.085l-.00293-3.14746-1.62793,1.8086-1.62793-1.8086v3.14746Z"/><path class="cls-3" d="M220.39943,180.39451h1.08105v5.42968h-1.08105Z"/><path class="cls-3" d="M222.56935,185.82419v-5.42578h.36133l3.40039,3.40039v-3.40039h1.085v5.42578h-.39746l-3.36426-3.36425v3.36425Z"/><path class="cls-3" d="M232.96779,180.39841v1.0127H231.1592v4.41308h-1.085v-4.41308h-1.80859v-1.0127Z"/><path class="cls-3" d="M233.45705,180.39841h1.27246l1.25976,1.77246,1.28711-1.77246h1.24414l-1.98925,2.71289v2.71289h-1.085V183.1113Z"/></svg>