<svg id="Content" xmlns="http://www.w3.org/2000/svg" xmlns:xlink="http://www.w3.org/1999/xlink" width="320" height="568" viewBox="0 0 320 568"><defs><style>.cls-1{fill:url(#New_Gradient_Swatch_1);}.cls-2{fill:#fff;}.cls-3{fill:#ba9544;}</style><linearGradient id="New_Gradient_Swatch_1" x1="201.80656" y1="267.68803" x2="240.51966" y2="267.68803" gradientUnits="userSpaceOnUse"><stop offset="0" stop-color="#a88a34"/><stop offset="0.49324" stop-color="#caaf67"/><stop offset="1" stop-color="#957f2e"/></linearGradient></defs><title>earthy</title><polygon class="cls-1" points="236.653 254.279 217.296 247.57 201.807 260.978 205.675 281.097 225.03 287.806 240.52 274.398 236.653 254.279"/><path class="cls-2" d="M226.02659,272.39428a4.53273,4.53273,0,0,0-2.26407-2.09391,2.22119,2.22119,0,0,0-1.69569.16639,4.73322,4.73322,0,0,0-.88618-.22809,9.25932,9.25932,0,0,1,1.88266-3.70921c.04861.00187.09534.00187.1421.00187.1832.00186.36455.00373.544.00373,2.107,0,3.97468-.27856,4.0719-4.085a5.86334,5.86334,0,0,1,.79269-1.78357l.28978-.47486h-.55711a6.02925,6.02925,0,0,0-6.02188,6.02373v.28417c-.22808.32718-.44309.65248-.64127.974a7.7261,7.7261,0,0,0-7.7026-7.28194h-.55714l.28978.47486a7.63876,7.63876,0,0,1,1.04136,2.3594c.12338,4.85152,2.5071,5.20673,5.19739,5.20673.23,0,.46177-.00187.69362-.00561.20191-.00187.40568-.00374.61134-.00374a5.964,5.964,0,0,0-.69921,1.96117,2.82153,2.82153,0,0,0-2.681,1.48444,3.53647,3.53647,0,0,0-2.88285.15518,3.46777,3.46777,0,0,0-1.32741,3.038l-.00935.32156h14.91165l.058-.2393a1.88155,1.88155,0,0,0-.31409-1.43022,3.15874,3.15874,0,0,0-2.28646-1.11987"/><path class="cls-3" d="M199.36621,308.84277v-7.38965l5.43262-.00488v1.38086h-3.95362v1.57715h2.9629v1.375h-2.9629v1.68164h3.94385v1.37988Z"/><path class="cls-3" d="M205.898,308.84277l2.958-7.39453h1.47851l2.95313,7.38965-1.57276.00488L211.271,307.709h-3.352l-.44336,1.13379Zm3.73682-5.42285-1.124,2.81055H210.729Z"/><path class="cls-3" d="M218.84277,305.61914l1.84375,3.22363h-1.6958l-1.76953-3.05664h-1.35107v3.05664H214.3916v-7.39453h3.22363q2.58839,0,2.58838,2.12988A1.9125,1.9125,0,0,1,218.84277,305.61914Zm-2.97265-1.21289h2.0708q.89208-.01466.9165-.81348-.02416-.72948-.90185-.75879h-2.08545Z"/><path class="cls-3" d="M227.48926,301.44824v1.38086h-2.46485v6.01367h-1.479V302.8291h-2.46484v-1.38086Z"/><path class="cls-3" d="M228.58838,308.84277v-7.39453h1.47851v2.958h3.44581v-2.96289h1.479v7.39453l-1.479.00488v-3.05664h-3.44581v3.05664Z"/><path class="cls-3" d="M236.15479,301.44824h1.73535l1.71533,2.416,1.75488-2.416h1.6958l-2.71094,3.69727v3.69726h-1.479v-3.69726Z"/></svg>