<svg id="Content" xmlns="http://www.w3.org/2000/svg" width="320" height="50" viewBox="0 0 320 50"><defs><style>.cls-1{fill:#ba9544;}</style></defs><title>Frame1 - MK Ultra</title><path class="cls-1" d="M129.9292,28.31445l1.20068-7.95507h2.44873V31.564h-1.66455V23.52881L130.69775,31.564H129.0332l-1.313-7.92334V31.564h-1.53662V20.35938h2.44922Z"/><path class="cls-1" d="M138.85645,27.09814l-.54444,1.02442V31.564h-1.76074V20.35938H138.312v4.88183l2.30518-4.88183h1.76074l-2.44922,4.99414,2.44922,6.21044h-1.80908Z"/><path class="cls-1" d="M150.728,20.35938v8.64355c0,.80029.35205,1.08838.91259,1.08838.56006,0,.91211-.28809.91211-1.08838V20.35938h1.665v8.53173c0,1.79248-.89648,2.8169-2.62548,2.8169-1.72852,0-2.625-1.02442-2.625-2.8169V20.35938Z"/><path class="cls-1" d="M157.11133,20.35938h1.76074v9.604h2.89746V31.564h-4.6582Z"/><path class="cls-1" d="M163.71875,20.35938h5.44238V21.96h-1.84082v9.604h-1.76074V21.96h-1.84082Z"/><path class="cls-1" d="M175.3042,31.564a3.44227,3.44227,0,0,1-.16016-1.37646V28.42676c0-1.04053-.352-1.42481-1.15234-1.42481h-.6084v4.562h-1.76074V20.35938h2.65723c1.8247,0,2.60888.84863,2.60888,2.57714v.88037a2.234,2.234,0,0,1-1.15234,2.27295c.88037.36817,1.16846,1.21631,1.16846,2.38477v1.729a3.304,3.304,0,0,0,.19189,1.36035Zm-1.9209-9.604v3.44141h.68848c.65625,0,1.05615-.28809,1.05615-1.18457V23.1123c0-.80029-.272-1.15234-.896-1.15234Z"/><path class="cls-1" d="M185.44922,31.564h-1.77637l-.3042-2.03271h-2.16113l-.30371,2.03271h-1.6167l1.79248-11.20458h2.57715Zm-4.01758-3.55322h1.69678l-.84815-5.6665Z"/></svg>