<svg id="Layer_1" data-name="Layer 1" xmlns="http://www.w3.org/2000/svg" xmlns:xlink="http://www.w3.org/1999/xlink" width="320" height="480" viewBox="0 0 320 480"><defs><style>.cls-1{fill:url(#linear-gradient);}.cls-2{fill:url(#linear-gradient-2);}.cls-3{fill:#231f20;}.cls-4{fill:url(#linear-gradient-4);}.cls-5{fill:url(#linear-gradient-5);}</style><linearGradient id="linear-gradient" x1="79.04762" y1="382.68824" x2="243.03834" y2="382.68824" gradientUnits="userSpaceOnUse"><stop offset="0" stop-color="#cab272"/><stop offset="0.20527" stop-color="#cdb36c"/><stop offset="0.4882" stop-color="#d4b75a"/><stop offset="0.50029" stop-color="#d4b759"/><stop offset="0.74962" stop-color="#d4b563"/><stop offset="1" stop-color="#d3b372"/></linearGradient><linearGradient id="linear-gradient-2" x1="90.08017" y1="393.31706" x2="90.08034" y2="393.31706" xlink:href="#linear-gradient"/><linearGradient id="linear-gradient-4" x1="78.4512" y1="382.68824" x2="242.44192" y2="382.68824" xlink:href="#linear-gradient"/><linearGradient id="linear-gradient-5" x1="89.48376" y1="393.31706" x2="89.48393" y2="393.31706" xlink:href="#linear-gradient"/></defs><title>learnmore</title><path class="cls-1" d="M243.03834,382.68967l-9.17993-15.9003-145.63076-.00286-9.18,15.90019,9.18,15.9003,145.63076.003Zm-137.857-5.43246-.00011-.00011h.00011Z"/><polygon class="cls-2" points="90.08 393.317 90.08 393.317 90.08 393.317 90.08 393.317"/><path class="cls-2" d="M90.08034,393.31715h-.00017l.00017-.00017Z"/><path class="cls-3" d="M111.19932,386.7v-8.0235h.5349l5.02806,5.02806v-5.02806h1.6047V386.7h-.58839l-4.97457-4.97457V386.7Z"/><path class="cls-3" d="M120.92234,386.7l3.2094-8.0235h1.6047l3.20405,8.01766-1.70633.00584-.48141-1.23027h-3.63732L122.634,386.7Zm4.05454-5.8839-1.21957,3.04893h2.407Z"/><path class="cls-3" d="M131.45354,386.7v-8.0235h.5349l3.47685,3.95826,3.4822-3.95826h.5349V386.7h-1.6047l-.00535-4.65363-2.407,2.6745-2.407-2.6745V386.7Z"/><path class="cls-3" d="M141.97356,386.7l3.2094-8.0235h1.6047l3.20405,8.01766-1.70633.00584-.48141-1.23027h-3.63732L143.68524,386.7Zm4.05454-5.8839-1.21957,3.04893h2.407Z"/><path class="cls-3" d="M156.84766,378.94394a3.72531,3.72531,0,0,1,1.15.80235l-1.0698,1.0698a1.84186,1.84186,0,0,0-1.49772-.64188q-.96282,0-1.23027.45515a.6248.6248,0,0,0,0,.77512,2.11465,2.11465,0,0,0,1.23027.48141,3.97022,3.97022,0,0,1,1.8454.66911,2.00662,2.00662,0,0,1,.8291,1.79143,2.05839,2.05839,0,0,1-.885,1.65819,3.24135,3.24135,0,0,1-2.06228.69537,4.75189,4.75189,0,0,1-1.8668-.32094,4.03824,4.03824,0,0,1-1.28376-.85584l1.0698-1.0698a2.541,2.541,0,0,0,1.81866.74886q1.07,0,1.33433-.45515a.84332.84332,0,0,0,0-.90836q-.264-.45515-1.33433-.56213a4.30953,4.30953,0,0,1-1.76517-.58839,1.77493,1.77493,0,0,1-.80235-1.65819,1.99571,1.99571,0,0,1,.91225-1.70876,3.21049,3.21049,0,0,1,1.87458-.6448A4.4818,4.4818,0,0,1,156.84766,378.94394Z"/><path class="cls-3" d="M167.39929,378.67649v1.49772h-2.6745V386.7h-1.6047v-6.52578h-2.67353v-1.49772Z"/><path class="cls-3" d="M169.88608,386.7v-8.01766l5.89557-.00584v1.49772h-4.29087v1.71168H174.706v1.49189h-3.21524v1.82449H175.77V386.7Z"/><path class="cls-3" d="M178.75277,385.41331a.77831.77831,0,0,1,.5777-.21688.80514.80514,0,0,1,.59908.21688.73473.73473,0,0,1,.214.53782.725.725,0,0,1-.214.5349.916.916,0,0,1-1.17678,0,.7288.7288,0,0,1-.214-.5349A.73862.73862,0,0,1,178.75277,385.41331Z"/><path class="cls-3" d="M183.88976,385.54752a4.01334,4.01334,0,0,1,2.85344-6.871,4.34489,4.34489,0,0,1,2.94779,1.0698l-1.0698,1.171a2.96162,2.96162,0,0,0-1.878-.64188,2.35444,2.35444,0,0,0-1.74085.67494,2.33,2.33,0,0,0-.66036,1.71168,2.404,2.404,0,0,0,.66814,1.77587,2.3719,2.3719,0,0,0,1.74377.65744,2.87925,2.87925,0,0,0,1.86729-.636l1.0698,1.17094A4.33095,4.33095,0,0,1,186.7432,386.7,3.90586,3.90586,0,0,1,183.88976,385.54752Z"/><path class="cls-3" d="M193.4771,385.54752A4.133,4.133,0,1,1,196.3393,386.7,3.88842,3.88842,0,0,1,193.4771,385.54752Zm2.86707-.34525a2.25582,2.25582,0,0,0,1.73307-.72163,2.73828,2.73828,0,0,0,0-3.5848,2.45476,2.45476,0,0,0-3.47685,0,2.73528,2.73528,0,0,0,0,3.5848A2.26892,2.26892,0,0,0,196.34417,385.20227Z"/><path class="cls-3" d="M202.8573,386.7v-8.0235h.5349l3.47782,3.95826,3.48171-3.95826h.5349V386.7h-1.6047l-.00584-4.65363-2.40607,2.6745-2.408-2.6745V386.7Z"/><path class="cls-4" d="M242.44192,382.68967l-9.17992-15.9003-145.63076-.00286-9.18,15.90019,9.18,15.9003,145.63076.003Zm-137.857-5.43246-.00011-.00011h.00011Z"/><polygon class="cls-5" points="89.484 393.317 89.484 393.317 89.484 393.317 89.484 393.317"/><path class="cls-5" d="M89.48393,393.31715h-.00017l.00017-.00017Z"/><path d="M113.2048,377.91093v7.14843h4.6875V386.7H111.447v-8.78906Z"/><path d="M120.99582,386.7v-8.7832l6.457-.00586v1.64062h-4.69922v1.875h3.52149v1.63477h-3.52149v1.998h4.6875V386.7Z"/><path d="M130.44016,386.7l3.51562-8.78906h1.75781l3.50977,8.7832-1.86914.00586-.52735-1.34766H132.8425L132.31516,386.7Zm4.4414-6.44531-1.33594,3.33984h2.63672Z"/><path d="M147.50656,382.868,149.698,386.7h-2.01563l-2.10351-3.63281h-1.60547V386.7h-1.75781v-8.78906h3.832q3.07617,0,3.07617,2.53125A2.2728,2.2728,0,0,1,147.50656,382.868Zm-3.5332-1.44141h2.46094q1.06054-.01758,1.08984-.9668-.02929-.86718-1.07227-.90234h-2.47851Z"/><path d="M152.29172,386.7v-8.78906h.58594l5.50781,5.50781v-5.50781h1.75781V386.7h-.64453l-5.44922-5.44922V386.7Z"/><path d="M169.42746,386.7v-8.78906h.58594l3.80859,4.33593,3.81445-4.33593h.58594V386.7h-1.75781l-.00586-5.09766L173.822,384.532l-2.63672-2.92969V386.7Z"/><path d="M182.46848,385.43729a4.5263,4.5263,0,1,1,3.13476,1.2627A4.2578,4.2578,0,0,1,182.46848,385.43729Zm3.14062-.37793a2.46887,2.46887,0,0,0,1.89844-.791,2.99649,2.99649,0,0,0,0-3.92578,2.6877,2.6877,0,0,0-3.8086,0,2.99649,2.99649,0,0,0,0,3.92578A2.48267,2.48267,0,0,0,185.6091,385.05936Z"/><path d="M198.27609,382.868l2.19141,3.832h-2.01563l-2.10351-3.63281h-1.60547V386.7h-1.75781v-8.78906h3.832q3.07617,0,3.07617,2.53125A2.2728,2.2728,0,0,1,198.27609,382.868Zm-3.5332-1.44141h2.46094q1.06055-.01758,1.08984-.9668-.0293-.86718-1.07226-.90234h-2.47852Z"/><path d="M203.03781,386.7v-8.7832l6.457-.00586v1.64062h-4.69922v1.875h3.52149v1.63477h-3.52149v1.998h4.6875V386.7Z"/></svg>