<svg id="Content" xmlns="http://www.w3.org/2000/svg" viewBox="0 0 640 100"><defs><style>.cls-1{fill:#ba9544;}</style></defs><title>Frame1 - Shishkaberry</title><path class="cls-1" d="M222.1,36.72c3.64,0,5.51,2.17,5.51,6v.75h-3.54v-1c0-1.7-.68-2.35-1.87-2.35s-1.87.65-1.87,2.35c0,4.9,7.31,5.81,7.31,12.61,0,3.81-1.9,6-5.58,6s-5.57-2.18-5.57-6V53.61H220v1.7c0,1.7.75,2.31,1.94,2.31s1.94-.61,1.94-2.31c0-4.89-7.31-5.81-7.31-12.61C216.59,38.89,218.46,36.72,222.1,36.72Z"/><path class="cls-1" d="M237.13,60.78h-3.74V37h3.74v10.2h4.25V37h3.8V60.78h-3.8V50.59h-4.25Z"/><path class="cls-1" d="M251.51,37h3.74V60.78h-3.74Z"/><path class="cls-1" d="M266.6,36.72c3.64,0,5.51,2.17,5.51,6v.75h-3.54v-1c0-1.7-.68-2.35-1.86-2.35s-1.87.65-1.87,2.35c0,4.9,7.3,5.81,7.3,12.61,0,3.81-1.9,6-5.57,6s-5.58-2.18-5.58-6V53.61h3.54v1.7c0,1.7.75,2.31,1.94,2.31s1.93-.61,1.93-2.31c0-4.89-7.3-5.81-7.3-12.61C261.1,38.89,263,36.72,266.6,36.72Z"/><path class="cls-1" d="M281.63,60.78h-3.74V37h3.74v10.2h4.25V37h3.81V60.78h-3.81V50.59h-4.25Z"/><path class="cls-1" d="M300.91,51.3l-1.16,2.17v7.31H296V37h3.74V47.36L304.65,37h3.74l-5.2,10.6,5.2,13.19h-3.84Z"/><path class="cls-1" d="M325.8,60.78H322l-.64-4.31h-4.59l-.65,4.31h-3.43L316.51,37H322Zm-8.54-7.54h3.61l-1.81-12Z"/><path class="cls-1" d="M342.32,42.46v.85c0,2.45-.75,4-2.41,4.79,2,.79,2.78,2.59,2.78,5.1v1.94c0,3.67-1.93,5.64-5.67,5.64h-5.89V37h5.65C340.65,37,342.32,38.79,342.32,42.46Zm-7.45-2.07v6.29h1.47c1.39,0,2.24-.62,2.24-2.52V42.83c0-1.7-.58-2.44-1.9-2.44Zm0,9.69v7.3H337c1.25,0,1.93-.57,1.93-2.34V53c0-2.2-.71-2.88-2.41-2.88Z"/><path class="cls-1" d="M352.28,47h5.14v3.4h-5.14v7h6.46v3.4h-10.2V37h10.2v3.4h-6.46Z"/><path class="cls-1" d="M372.48,60.78a7.16,7.16,0,0,1-.34-2.92V54.12c0-2.21-.75-3-2.45-3H368.4v9.69h-3.74V37h5.64c3.88,0,5.54,1.8,5.54,5.47v1.87c0,2.45-.78,4.05-2.45,4.83,1.87.78,2.49,2.58,2.49,5.06v3.67a6.89,6.89,0,0,0,.41,2.89ZM368.4,40.39V47.7h1.46c1.39,0,2.24-.62,2.24-2.52V42.83c0-1.7-.57-2.44-1.9-2.44Z"/><path class="cls-1" d="M389.75,60.78a7.36,7.36,0,0,1-.34-2.92V54.12c0-2.21-.75-3-2.45-3h-1.29v9.69h-3.74V37h5.64c3.88,0,5.55,1.8,5.55,5.47v1.87c0,2.45-.79,4.05-2.45,4.83,1.87.78,2.48,2.58,2.48,5.06v3.67a6.89,6.89,0,0,0,.41,2.89Zm-4.08-20.39V47.7h1.46c1.4,0,2.25-.62,2.25-2.52V42.83c0-1.7-.58-2.44-1.91-2.44Z"/><path class="cls-1" d="M402.7,52.9,398,37h3.91l2.85,10.84L407.6,37h3.57L406.44,52.9v7.88H402.7Z"/></svg>