<svg id="Content" xmlns="http://www.w3.org/2000/svg" xmlns:xlink="http://www.w3.org/1999/xlink" viewBox="0 0 640 1136"><defs><style>.cls-1{fill:url(#New_Gradient_Swatch_1);}.cls-2{fill:#fff;}.cls-3{fill:#ba9544;}</style><linearGradient id="New_Gradient_Swatch_1" x1="420.6" y1="525.27" x2="507.7" y2="525.27" gradientUnits="userSpaceOnUse"><stop offset="0" stop-color="#a88a34"/><stop offset="0.49" stop-color="#caaf67"/><stop offset="1" stop-color="#957f2e"/></linearGradient></defs><title>pine</title><polygon class="cls-1" points="499 555.44 455.45 570.54 420.6 540.37 429.3 495.1 472.85 480 507.7 510.17 499 555.44"/><path class="cls-2" d="M478.64,539l-14.56-34.76L449.67,539l13.68,2.74v3.89a.81.81,0,0,0,1.61,0v-3.89Z"/><path class="cls-3" d="M437.51,613V596.4h7.25q5.82,0,5.82,4.79c0,3.31-1.93,5-5.81,5h-3.94V613Zm3.32-10h4.66c1.34,0,2-.63,2.06-1.83s-.71-1.66-2-1.7h-4.69Z"/><path class="cls-3" d="M453,596.39h3.32V613H453Z"/><path class="cls-3" d="M459.69,613V596.4h1.11l10.42,10.43V596.4h3.33V613h-1.22L463,602.72V613Z"/><path class="cls-3" d="M478,613V596.41h12.23v3.11h-8.9v3.54H488v3.1h-6.67v3.78h8.88V613Z"/></svg>