<?xml version="1.0" encoding="utf-8"?>
<!-- Generator: Adobe Illustrator 23.0.1, SVG Export Plug-In . SVG Version: 6.00 Build 0)  -->
<svg version="1.1" id="Content" xmlns="http://www.w3.org/2000/svg" xmlns:xlink="http://www.w3.org/1999/xlink" x="0px" y="0px"
	 viewBox="0 0 640 1136" style="enable-background:new 0 0 640 1136;" xml:space="preserve">
<style type="text/css">
	.st0{fill:#B89344;}
</style>
<title>Frame2 - Daytime CBD</title>
<path class="st0" d="M152.6,617.8h12.2c7.7,0,11.5,4.3,11.5,12.2v24.9c0,7.9-3.8,12.2-11.5,12.2h-12.2V617.8z M160.3,624.8V660h4.4
	c2.5,0,3.9-1.3,3.9-4.8v-25.6c0-3.5-1.5-4.8-3.9-4.8L160.3,624.8z"/>
<path class="st0" d="M212.4,667.1h-7.8l-1.3-8.9h-9.5l-1.3,8.9h-7.1l7.9-49.3h11.3L212.4,667.1z M194.8,651.5h7.5l-3.7-24.9
	L194.8,651.5z"/>
<path class="st0" d="M223.7,650.8l-9.8-33h8.1l5.9,22.5l5.9-22.5h7.4l-9.8,33v16.3h-7.7V650.8z"/>
<path class="st0" d="M245.3,617.8h23.9v7h-8.1v42.2h-7.7v-42.2h-8.1L245.3,617.8z"/>
<path class="st0" d="M278.7,617.8h7.8v49.3h-7.8V617.8z"/>
<path class="st0" d="M315.9,652.8l5.3-35H332v49.3h-7.3v-35.3l-5.4,35.3H312l-5.8-34.8v34.8h-6.8v-49.3h10.8L315.9,652.8z"/>
<path class="st0" d="M352.8,638.6h10.6v7h-10.6V660h13.4v7h-21.1v-49.2h21.1v7h-13.4V638.6z"/>
<path class="st0" d="M419.3,648.8v6.5c0,7.9-3.9,12.4-11.5,12.4s-11.5-4.5-11.5-12.4v-25.6c0-7.9,3.9-12.4,11.5-12.4
	s11.5,4.5,11.5,12.4v4.8H412v-5.3c0-3.5-1.5-4.9-4-4.9s-4,1.3-4,4.9v26.6c0,3.5,1.5,4.8,4,4.8s4-1.3,4-4.8v-7L419.3,648.8z"/>
<path class="st0" d="M454.6,629.2v1.8c0,5.1-1.5,8.3-5,9.9c4.1,1.6,5.8,5.3,5.8,10.6v4c0,7.6-4,11.7-11.8,11.7h-12.2v-49.3h11.7
	C451.2,617.8,454.6,621.6,454.6,629.2z M439.2,624.9v13h3c2.9,0,4.6-1.3,4.6-5.2V630c0-3.5-1.2-5.1-3.9-5.1L439.2,624.9z M439.2,645
	v15.1h4.4c2.6,0,4-1.2,4-4.8v-4.3c0-4.6-1.5-6-5-6L439.2,645z"/>
<path class="st0" d="M467.5,617.8h12.2c7.7,0,11.5,4.3,11.5,12.2v24.9c0,7.9-3.8,12.2-11.5,12.2h-12.2V617.8z M475.2,624.8V660h4.4
	c2.5,0,4-1.3,4-4.8v-25.6c0-3.5-1.5-4.8-4-4.8L475.2,624.8z"/>
</svg>
