<svg id="Layer_1" data-name="Layer 1" xmlns="http://www.w3.org/2000/svg" width="970" height="250" viewBox="0 0 970 250"><defs><style>.cls-1{fill:#fff;}</style></defs><title>self-care</title><path class="cls-1" d="M453.24007,169.22622H449.8266V146.58563h4.89057l3.17762,16.23569,3.0535-16.23569h4.70438v22.64059H462.2392V155.00138l-2.95006,14.22484H456.5495l-3.30943-14.1876Z"/><path class="cls-1" d="M475.06024,146.31256a5.41447,5.41447,0,0,1,5.4243,5.4243V164.0874a5.41347,5.41347,0,0,1-5.4243,5.42431,5.16358,5.16358,0,0,1-3.81658-1.58882,5.25554,5.25554,0,0,1-1.57049-3.83549V151.73686a5.41458,5.41458,0,0,1,5.38707-5.4243Zm1.86189,5.36047a1.92762,1.92762,0,0,0-1.94878-1.947,1.91,1.91,0,0,0-1.3843.56448,1.86023,1.86023,0,0,0-.57689,1.38253v12.39132a1.86776,1.86776,0,0,0,.57689,1.37662,1.90147,1.90147,0,0,0,1.3843.57038,1.93741,1.93741,0,0,0,1.94878-1.947Z"/><path class="cls-1" d="M489.89211,146.58563a5.16989,5.16989,0,0,1,4.18246,1.5764,5.69587,5.69587,0,0,1,1.17979,3.82309v3.28933a5.26623,5.26623,0,0,1-1.8217,4.05893l2.52862,9.89284h-3.68122l-2.08177-8.55228c-.0993.00827-.20215.01241-.30972.01241h-1.95765v8.53987h-3.41406V146.58563Zm2.03567,5.46155a1.73123,1.73123,0,0,0-1.94346-1.9736h-2.0534v7.23654h2.0534a1.85281,1.85281,0,0,0,1.37957-.57689,1.91186,1.91186,0,0,0,.56389-1.3843Z"/><path class="cls-1" d="M499.90849,169.22622V146.58563H509.627v3.41347h-6.3056v6.2063h4.60449v3.41346h-4.60449v6.19389h6.3056v3.41347Z"/><path class="cls-1" d="M530.99792,163.60331a6.34586,6.34586,0,0,1-1.22944,4.04651,4.36481,4.36481,0,0,1-2.34539,1.60122,6.27316,6.27316,0,0,1-1.89854.26067,5.365,5.365,0,0,1-3.32658-.993,5.65928,5.65928,0,0,1-1.73776-2.21595,8.70435,8.70435,0,0,1-.74476-3.22077l3.2391-.22343a4.91561,4.91561,0,0,0,1.05448,2.8549,1.73013,1.73013,0,0,0,1.40322.633,2.12726,2.12726,0,0,0,1.78741-1.0923,2.74389,2.74389,0,0,0,.34755-1.50193,4.18579,4.18579,0,0,0-1.2779-2.81766q-1.01961-.95577-3.04168-2.86731a12.57182,12.57182,0,0,1-2.39623-2.94179,6.817,6.817,0,0,1-.75657-3.17762,5.52912,5.52912,0,0,1,2.07349-4.67955,5.15319,5.15319,0,0,1,3.17763-.95577,5.7638,5.7638,0,0,1,3.128.81923,4.71642,4.71642,0,0,1,1.62546,1.7685,6.69414,6.69414,0,0,1,.75776,2.61315l-3.27692.5958a3.84135,3.84135,0,0,0-.79441-2.15979,1.6579,1.6579,0,0,0-1.35356-.571,1.57073,1.57073,0,0,0-1.42686.83164,3.20294,3.20294,0,0,0-.39721,1.66329,5.00035,5.00035,0,0,0,1.34056,3.16522,11.93315,11.93315,0,0,0,1.51316,1.43986q1.19161.993,1.577,1.39021a12.01627,12.01627,0,0,1,1.94819,2.49493,9.14005,9.14005,0,0,1,.52251,1.06748A6.36647,6.36647,0,0,1,530.99792,163.60331Z"/><path class="cls-1" d="M534.84582,169.22622V146.58563h9.71848v3.41347h-6.3056v6.2063h4.60448v3.41346H538.2587v6.19389h6.3056v3.41347Z"/><path class="cls-1" d="M557.23579,169.22622h-9.30827V146.58563h3.41287v19.25195h5.8954Z"/><path class="cls-1" d="M564.00006,169.22622h-3.41287V146.58563h9.71848v3.41347h-6.30561v6.2063h4.60449v3.41346h-4.60449Z"/><path class="cls-1" d="M573.55658,157.44548h9.14277v3.11083h-9.14277Z"/><path class="cls-1" d="M591.27705,169.51171a5.38134,5.38134,0,0,1-5.41189-5.39948V151.712a5.40541,5.40541,0,1,1,10.81078,0v2.58182h-3.53818V151.65a1.97064,1.97064,0,0,0-1.973-1.97361,1.86229,1.86229,0,0,0-1.3772.57748,1.90747,1.90747,0,0,0-.57217,1.39613v12.425a1.95152,1.95152,0,0,0,1.94937,1.96119,1.91105,1.91105,0,0,0,1.39613-.571,1.87928,1.87928,0,0,0,.57689-1.39021v-3.11556h3.53818v3.1528a5.39324,5.39324,0,0,1-5.39889,5.39948Z"/><path class="cls-1" d="M604.023,164.02534l-.83224,5.20088H599.642l3.8349-22.64059h4.705l3.78525,22.64059h-3.57483l-.80623-5.20088Zm1.78741-12.25124-1.26608,8.92466h2.53217Z"/><path class="cls-1" d="M621.23752,146.58563A5.16987,5.16987,0,0,1,625.42,148.162a5.69582,5.69582,0,0,1,1.17979,3.82309v3.28933a5.26622,5.26622,0,0,1-1.82169,4.05893l2.52862,9.89284h-3.68122l-2.08177-8.55228c-.0993.00827-.20215.01241-.30973.01241h-1.95764v8.53987h-3.41288V146.58563Zm2.03567,5.46155a1.73088,1.73088,0,0,0-1.94228-1.9736h-2.05458v7.23654h2.05458a1.8565,1.8565,0,0,0,1.37957-.57689,1.91556,1.91556,0,0,0,.56271-1.3843Z"/><path class="cls-1" d="M631.2539,169.22622V146.58563h9.71847v3.41347h-6.3056v6.2063h4.60448v3.41346h-4.60448v6.19389h6.3056v3.41347Z"/><path class="cls-1" d="M644.33678,165.82516h3.41287v3.41347h-3.41287Z"/></svg>