<svg id="Content" xmlns="http://www.w3.org/2000/svg" width="728" height="90" viewBox="0 0 728 90"><defs><style>.cls-1{fill:#ba9544;}</style></defs><title>Frame1 - Daytime CBD</title><path class="cls-1" d="M313.02588,35.72559h5.56787c3.51953,0,5.24756,1.95214,5.24756,5.53613V52.58887c0,3.583-1.728,5.53515-5.24756,5.53515h-5.56787Zm3.52,3.20019V54.92383h1.98389c1.11962,0,1.7915-.5752,1.7915-2.17578V41.10156c0-1.60058-.67188-2.17578-1.7915-2.17578Z"/><path class="cls-1" d="M340.22461,58.124h-3.55176l-.60791-4.06347h-4.31933L331.1377,58.124h-3.23194l3.5835-22.39843h5.15185Zm-8.03125-7.10351h3.3916l-1.6958-11.32715Z"/><path class="cls-1" d="M345.34521,50.7002l-4.44775-14.97461h3.67969l2.688,10.207,2.6875-10.207h3.35986L348.86475,50.7002V58.124h-3.51954Z"/><path class="cls-1" d="M355.16943,35.72559h10.8794v3.20019h-3.67969V58.124h-3.52V38.92578h-3.67969Z"/><path class="cls-1" d="M370.33691,35.72559h3.52051V58.124h-3.52051Z"/><path class="cls-1" d="M387.26465,51.62891l2.39941-15.90332h4.89551V58.124h-3.32715V42.06152L388.80078,58.124h-3.32812l-2.624-15.83886V58.124h-3.07129V35.72559h4.89551Z"/><path class="cls-1" d="M404.03223,45.165h4.832v3.19922h-4.832v6.55957h6.08007V58.124h-9.5996V35.72559h9.5996v3.20019h-6.08007Z"/><path class="cls-1" d="M434.23926,49.77246v2.97559c0,3.584-1.792,5.63183-5.24707,5.63183-3.45606,0-5.248-2.04785-5.248-5.63183V41.10156c0-3.584,1.792-5.63183,5.248-5.63183,3.45508,0,5.24707,2.04785,5.24707,5.63183v2.17578h-3.32813V40.877c0-1.59961-.70312-2.207-1.82324-2.207s-1.82422.60742-1.82422,2.207V52.97266c0,1.59961.7041,2.17578,1.82422,2.17578s1.82324-.57617,1.82324-2.17578v-3.2002Z"/><path class="cls-1" d="M450.30273,40.877v.79981c0,2.30469-.7041,3.77636-2.27148,4.51172,1.8877.73632,2.624,2.43261,2.624,4.7998V52.8125c0,3.456-1.82422,5.31152-5.34375,5.31152h-5.53613V35.72559h5.31152C448.73535,35.72559,450.30273,37.42188,450.30273,40.877Zm-7.00683-1.95117v5.91895h1.376c1.31153,0,2.11133-.57618,2.11133-2.36719v-1.248c0-1.60058-.54394-2.30371-1.792-2.30371Zm0,9.11914v6.87891h2.01562c1.1836,0,1.82325-.544,1.82325-2.207V50.76465c0-2.08008-.67188-2.71973-2.27149-2.71973Z"/><path class="cls-1" d="M456.15918,35.72559h5.56738c3.51953,0,5.24707,1.95214,5.24707,5.53613V52.58887c0,3.583-1.72754,5.53515-5.24707,5.53515h-5.56738Zm3.51953,3.20019V54.92383h1.9834c1.12012,0,1.792-.5752,1.792-2.17578V41.10156c0-1.60058-.67187-2.17578-1.792-2.17578Z"/></svg>