<svg id="Content" xmlns="http://www.w3.org/2000/svg" width="728" height="90" viewBox="0 0 728 90"><defs><style>.cls-1{fill:#ba9544;}</style></defs><title>Frame1 - Ultra Sour</title><path class="cls-1" d="M321.1847,35.72607V53.00488c0,1.60059.70508,2.17676,1.82422,2.17676,1.12012,0,1.82422-.57617,1.82422-2.17676V35.72607h3.32812V52.78125c0,3.584-1.793,5.63184-5.248,5.63184-3.45606,0-5.24805-2.04786-5.24805-5.63184V35.72607Z"/><path class="cls-1" d="M333.95326,35.72607h3.5205V54.9248h5.791V58.125h-9.31152Z"/><path class="cls-1" d="M347.16908,35.72607H358.048v3.2002H354.3683V58.125h-3.51954V38.92627h-3.67968Z"/><path class="cls-1" d="M370.33509,58.125a6.90566,6.90566,0,0,1-.31933-2.752V51.85352c0-2.08008-.70411-2.84766-2.30371-2.84766h-1.21583V58.125h-3.5205V35.72607h5.3125c3.64746,0,5.21484,1.69629,5.21484,5.15137v1.75977c0,2.30468-.73535,3.80908-2.30273,4.54443,1.75976.73633,2.33593,2.43164,2.33593,4.76758v3.45605a6.60357,6.60357,0,0,0,.38282,2.71973Zm-3.83887-19.19873v6.87891h1.376c1.31152,0,2.11133-.57618,2.11133-2.36719V41.23c0-1.60059-.543-2.30371-1.791-2.30371Z"/><path class="cls-1" d="M390.62318,58.125h-3.55176l-.60742-4.06348h-4.32031l-.60743,4.06348h-3.23242l3.584-22.39893h5.15234Zm-8.03125-7.10352h3.3916l-1.69531-11.32763Z"/><path class="cls-1" d="M408.73548,35.47021c3.42383,0,5.1836,2.04786,5.1836,5.63184v.7041h-3.32715v-.92871c0-1.59961-.63965-2.207-1.76074-2.207-1.11914,0-1.75977.60742-1.75977,2.207,0,4.6084,6.87988,5.47217,6.87988,11.87158,0,3.584-1.792,5.63184-5.24707,5.63184-3.45605,0-5.248-2.04785-5.248-5.63184v-1.376h3.32812v1.60058c0,1.59961.70313,2.17578,1.82422,2.17578,1.11914,0,1.82324-.57617,1.82324-2.17578,0-4.6084-6.87988-5.47168-6.87988-11.87158C403.55189,37.51807,405.31165,35.47021,408.73548,35.47021Z"/><path class="cls-1" d="M419.07142,41.10205c0-3.584,1.88867-5.63184,5.34375-5.63184,3.457,0,5.34375,2.04786,5.34375,5.63184V52.749c0,3.584-1.88672,5.63184-5.34375,5.63184-3.45508,0-5.34375-2.04785-5.34375-5.63184Zm3.52051,11.87158c0,1.59961.7041,2.208,1.82324,2.208,1.12109,0,1.82422-.6084,1.82422-2.208V40.87744c0-1.59961-.70313-2.207-1.82422-2.207-1.11914,0-1.82324.60742-1.82324,2.207Z"/><path class="cls-1" d="M438.78431,35.72607V53.00488c0,1.60059.70313,2.17676,1.82324,2.17676s1.82422-.57617,1.82422-2.17676V35.72607h3.32715V52.78125c0,3.584-1.791,5.63184-5.24707,5.63184s-5.24707-2.04786-5.24707-5.63184V35.72607Z"/><path class="cls-1" d="M458.91126,58.125a6.87839,6.87839,0,0,1-.32031-2.752V51.85352c0-2.08008-.7041-2.84766-2.30371-2.84766h-1.21582V58.125h-3.51953V35.72607h5.31152c3.64746,0,5.21582,1.69629,5.21582,5.15137v1.75977c0,2.30468-.73633,3.80908-2.30468,4.54443,1.76074.73633,2.33593,2.43164,2.33593,4.76758v3.45605a6.6032,6.6032,0,0,0,.38379,2.71973Zm-3.83984-19.19873v6.87891h1.376c1.31152,0,2.11132-.57618,2.11132-2.36719V41.23c0-1.60059-.54394-2.30371-1.792-2.30371Z"/></svg>