<svg id="Content" xmlns="http://www.w3.org/2000/svg" width="728" height="90" viewBox="0 0 728 90"><defs><style>.cls-1{fill:#ba9544;}</style></defs><title>Frame1 - Sensi Star</title><path class="cls-1" d="M325.76145,35.47021c3.42383,0,5.18359,2.04786,5.18359,5.63184v.7041h-3.32812v-.92871c0-1.59961-.63965-2.207-1.75977-2.207s-1.75976.60742-1.75976,2.207c0,4.6084,6.8789,5.47119,6.8789,11.87061,0,3.584-1.791,5.63183-5.24707,5.63183s-5.248-2.04785-5.248-5.63183v-1.376h3.32812v1.60059c0,1.59961.7041,2.17578,1.82422,2.17578,1.11914,0,1.82324-.57617,1.82324-2.17578,0-4.6084-6.8789-5.47168-6.8789-11.87061C320.57786,37.51807,322.33762,35.47021,325.76145,35.47021Z"/><path class="cls-1" d="M339.905,45.16553h4.832v3.19873h-4.832v6.55957h6.08007V58.124h-9.59961v-22.398h9.59961v3.2002H339.905Z"/><path class="cls-1" d="M354.68918,41.90186V58.124h-3.168v-22.398h4.416l3.61524,13.40674V35.72607h3.13574V58.124H359.073Z"/><path class="cls-1" d="M373.34446,35.47021c3.42383,0,5.18359,2.04786,5.18359,5.63184v.7041h-3.32812v-.92871c0-1.59961-.63965-2.207-1.75977-2.207s-1.75976.60742-1.75976,2.207c0,4.6084,6.8789,5.47119,6.8789,11.87061,0,3.584-1.791,5.63183-5.24707,5.63183s-5.248-2.04785-5.248-5.63183v-1.376h3.32813v1.60059c0,1.59961.7041,2.17578,1.82422,2.17578,1.11914,0,1.82324-.57617,1.82324-2.17578,0-4.6084-6.87891-5.47168-6.87891-11.87061C368.16086,37.51807,369.92063,35.47021,373.34446,35.47021Z"/><path class="cls-1" d="M383.96848,35.72607H387.488V58.124h-3.51953Z"/><path class="cls-1" d="M406.52805,35.47021c3.42383,0,5.1836,2.04786,5.1836,5.63184v.7041h-3.32813v-.92871c0-1.59961-.63965-2.207-1.75976-2.207s-1.75977.60742-1.75977,2.207c0,4.6084,6.87891,5.47119,6.87891,11.87061,0,3.584-1.791,5.63183-5.24707,5.63183s-5.24805-2.04785-5.24805-5.63183v-1.376h3.32812v1.60059c0,1.59961.70411,2.17578,1.82422,2.17578,1.11914,0,1.82324-.57617,1.82324-2.17578,0-4.6084-6.8789-5.47168-6.8789-11.87061C401.34446,37.51807,403.10422,35.47021,406.52805,35.47021Z"/><path class="cls-1" d="M416.12766,35.72607h10.87988v3.2002h-3.67968V58.124h-3.52051V38.92627h-3.67969Z"/><path class="cls-1" d="M443.32688,58.124h-3.55176l-.6084-4.06347h-4.31933L434.239,58.124h-3.23145l3.584-22.398h5.15137Zm-8.03125-7.10351h3.3916l-1.69629-11.32666Z"/><path class="cls-1" d="M455.71067,58.124a6.87839,6.87839,0,0,1-.32031-2.752V51.85254c0-2.08008-.7041-2.84766-2.30371-2.84766h-1.21582V58.124h-3.51954v-22.398h5.31153c3.64746,0,5.21582,1.69629,5.21582,5.15137v1.75977c0,2.30468-.73633,3.8081-2.30469,4.54345,1.75977.73633,2.33594,2.43164,2.33594,4.76758V55.4043a6.603,6.603,0,0,0,.38379,2.71972Zm-3.83984-19.19775v6.87891h1.376c1.31153,0,2.11133-.57618,2.11133-2.36719V41.23c0-1.60059-.54395-2.30371-1.792-2.30371Z"/></svg>