<svg id="Content" xmlns="http://www.w3.org/2000/svg" viewBox="0 0 728 360"><defs><style>.cls-1{fill:#fff;stroke:#ba9544;stroke-miterlimit:10;stroke-width:0.5px;}.cls-2{fill:#ba9544;}</style></defs><title>THC - Sensi Star</title><polygon class="cls-1" points="635.28 170.49 402.67 169.61 390.93 186.54 402.67 203.18 635.28 202.78 645.85 186.64 635.28 170.49"/><polygon class="cls-2" points="402.84 169.61 391.1 186.54 402.84 203.18 438.49 203.18 438.61 169.61 402.84 169.61"/><path class="cls-2" d="M535.81,181.19v2.12H532v9.27h-2.28v-9.27h-3.79v-2.12Z"/><path class="cls-2" d="M537.5,192.58V181.19h2.28v4.55h5.3v-4.56h2.28v11.39h-2.28v-4.71h-5.3v4.71Z"/><path class="cls-2" d="M550.9,190.94a5.69,5.69,0,0,1,4.05-9.75,6.12,6.12,0,0,1,4.18,1.52l-1.52,1.66a4.17,4.17,0,0,0-2.66-.91,3.42,3.42,0,1,0,0,6.84,4,4,0,0,0,2.65-.91l1.52,1.67a6.15,6.15,0,0,1-4.18,1.52A5.58,5.58,0,0,1,550.9,190.94Z"/><path class="cls-2" d="M561.68,185.31a1.12,1.12,0,0,1,.82-.3,1.16,1.16,0,0,1,.85.3,1.1,1.1,0,0,1,0,1.53,1.31,1.31,0,0,1-1.67,0,1.13,1.13,0,0,1,0-1.53Zm0,5.44a1.09,1.09,0,0,1,.82-.31,1.13,1.13,0,0,1,.85.31,1,1,0,0,1,.31.76,1,1,0,0,1-.31.76,1.28,1.28,0,0,1-1.67,0,1,1,0,0,1-.3-.76A1,1,0,0,1,561.68,190.75Z"/><path class="cls-2" d="M573.81,181.19h2.27v11.4h-2.27v-8.36l-1.52,1.52-1.52-1.52Z"/><path class="cls-2" d="M578.35,187a6.93,6.93,0,0,1,1.17-4.28,3.9,3.9,0,0,1,3.15-1.57,4.75,4.75,0,0,1,3.19,1.14l-1.14,1.51a4,4,0,0,0-2-.45,2,2,0,0,0-1.57.64,3,3,0,0,0-.65,1.94,3.53,3.53,0,0,1,2.27-1,3.8,3.8,0,0,1,2.93,1,3.93,3.93,0,0,1,1,2.77,3.72,3.72,0,0,1-1.07,2.69,4,4,0,0,1-3,1.11,3.84,3.84,0,0,1-3.27-1.55A7,7,0,0,1,578.35,187Zm2.5,1.75c0,1.05.66,1.61,1.82,1.65s1.77-.55,1.82-1.51a1.72,1.72,0,0,0-1.89-1.9A1.69,1.69,0,0,0,580.85,188.79Z"/><path class="cls-2" d="M588.75,189.53V188h4.7v1.51Z"/><path class="cls-2" d="M599.52,181.19a4.3,4.3,0,0,1,2.74.84,3,3,0,0,1,1.06,2.5,5.21,5.21,0,0,1-1.51,3.61,10.74,10.74,0,0,1-2.5,2.16h4.1v2.28h-7.68V190.3c.51,0,1.47-.63,2.89-1.9a10.68,10.68,0,0,0,2.46-2.7,1.85,1.85,0,0,0,0-1.59c-.26-.53-.86-.8-1.83-.8a2.62,2.62,0,0,0-2.12.91l-1.52-1.51a6.2,6.2,0,0,1,1.48-1.14A5.59,5.59,0,0,1,599.52,181.19Z"/><path class="cls-2" d="M606.68,190.94a7.8,7.8,0,0,1,0-8.12,3.65,3.65,0,0,1,6.08,0,7.86,7.86,0,0,1,0,8.12,3.64,3.64,0,0,1-6.08,0Zm3-.49c.51,0,.95-.34,1.33-1a6,6,0,0,0,0-5.08c-.38-.69-.83-1-1.34-1s-.94.34-1.32,1a5.94,5.94,0,0,0,0,5.08C608.77,190.11,609.21,190.45,609.72,190.45Z"/><path class="cls-2" d="M616.6,186a2.77,2.77,0,0,1-.82-2,2.8,2.8,0,0,1,2.86-2.86,2.8,2.8,0,0,1,2.85,2.86,2.8,2.8,0,0,1-2.85,2.85A2.77,2.77,0,0,1,616.6,186Zm2-.53a1.37,1.37,0,0,0,1-.43,1.57,1.57,0,0,0,.4-1.08,1.52,1.52,0,0,0-.4-1.07,1.48,1.48,0,0,0-2.09,0,1.52,1.52,0,0,0-.4,1.07,1.57,1.57,0,0,0,.4,1.08A1.36,1.36,0,0,0,618.61,185.46Zm-.6,7.12,6.45-11.39h1.85l-6.44,11.39Zm5.65-.76a2.74,2.74,0,0,1-.81-2,2.77,2.77,0,0,1,2.83-2.83,2.74,2.74,0,0,1,2,.81,2.77,2.77,0,0,1,.81,2,2.74,2.74,0,0,1-.81,2,2.9,2.9,0,0,1-4,0Zm2-.55a1.32,1.32,0,0,0,1-.42,1.58,1.58,0,0,0,0-2.1,1.44,1.44,0,0,0-2,0,1.58,1.58,0,0,0,0,2.1A1.33,1.33,0,0,0,625.65,191.27Z"/></svg>