<svg id="Content" xmlns="http://www.w3.org/2000/svg" xmlns:xlink="http://www.w3.org/1999/xlink" width="320" height="50" viewBox="0 0 320 50"><defs><style>.cls-1{fill:url(#New_Gradient_Swatch_1);}.cls-2{fill:#fff;}.cls-3{fill:#ba9544;}</style><linearGradient id="New_Gradient_Swatch_1" x1="154.20944" y1="20.23739" x2="174.3385" y2="20.23739" gradientUnits="userSpaceOnUse"><stop offset="0" stop-color="#a88a34"/><stop offset="0.49324" stop-color="#caaf67"/><stop offset="1" stop-color="#957f2e"/></linearGradient></defs><title>fruity</title><polygon class="cls-1" points="162.571 30.533 154.209 20.877 160.809 9.941 173.25 12.838 174.339 25.565 162.571 30.533"/><path class="cls-2" d="M168.33145,17.4778c.6889-.20858.88121-.76544,1.28689-.95775-.80179-.32914-1.27253-.41143-1.74806-.18562a1.18916,1.18916,0,0,0-.70707.88216,1.22692,1.22692,0,0,0,1.16824.26121"/><path class="cls-2" d="M166.84593,18.6383a3.7038,3.7038,0,0,0-.907-2.79767.06236.06236,0,0,0-.089-.00287l-.00287.00287-.18849.19327a.06341.06341,0,0,0-.00191.08611,3.35485,3.35485,0,0,1,.78648,2.53264,2.08885,2.08885,0,0,0-3.30955,1.84757,4.57272,4.57272,0,0,0,.13969.90322A7.755,7.755,0,0,0,166.8,23.0032a.92283.92283,0,0,1,.45161.22485.66641.66641,0,0,1,.2124.46978l.00574.17318a.9478.9478,0,0,1-.04209.30618,1.3461,1.3461,0,0,1-.06028.19135c1.37778.06794,2.68285-2.12312,2.76322-3.86832a2.08664,2.08664,0,0,0-3.28468-1.86192"/><path class="cls-2" d="M166.92611,23.58053a.45387.45387,0,0,0-.2191-.10716,7.44592,7.44592,0,0,1-6.1034-5.42695.74952.74952,0,0,0-.0976-.18849.443.443,0,0,1-.066-.25259l.022-.62287a.16834.16834,0,0,0-.16265-.1751h-.0067l-.33009.00287a.168.168,0,0,0-.16744.16935l.00095.01818.0775.6688a.41581.41581,0,0,1-.09089.26886,1.07064,1.07064,0,0,0-.10908.5626c-.067,5.23367,3.4703,6.7588,6.73584,5.95414.41525-.10238.45448-.16935.48988-.21911a.744.744,0,0,0,.06506-.18657.43842.43842,0,0,0,.02488-.16074l-.00478-.17223a.18953.18953,0,0,0-.05837-.133"/><path class="cls-3" d="M154.6333,40.2002V36.416h2.66162v.707h-1.90478v.80664h1.40527v.7041h-1.40527V40.2002Z"/><path class="cls-3" d="M160.12305,38.55078l.94336,1.64942h-.86768l-.90576-1.56348h-.69092V40.2002h-.75684V36.416h1.64991q1.32422,0,1.32422,1.08984A.9793.9793,0,0,1,160.12305,38.55078Zm-1.521-.62109h1.05957q.4563-.00734.46924-.416-.01318-.37353-.46191-.38867h-1.0669Z"/><path class="cls-3" d="M162.15918,36.416v2.19531a.76006.76006,0,0,0,.252.63086,1.08976,1.08976,0,0,0,1.26172,0,.76006.76006,0,0,0,.25195-.63086V36.416h.75684V38.8125a1.2542,1.2542,0,0,1-.46631.98438,1.90769,1.90769,0,0,1-2.34619,0,1.25321,1.25321,0,0,1-.4668-.98438V36.416Z"/><path class="cls-3" d="M165.49951,36.41406h.75391V40.2002h-.75391Z"/><path class="cls-3" d="M170.10107,36.416v.707h-1.26171V40.2002h-.75684V37.12305h-1.26123v-.707Z"/><path class="cls-3" d="M170.44141,36.416h.88818l.87793,1.23632.898-1.23632h.86767l-1.3872,1.89257V40.2002h-.75684V38.30859Z"/></svg>