<svg id="Content" xmlns="http://www.w3.org/2000/svg" xmlns:xlink="http://www.w3.org/1999/xlink" width="300" height="600" viewBox="0 0 300 600"><defs><style>.cls-1{fill:#ba9544;}.cls-2{fill:#fff;stroke:#ba9544;stroke-miterlimit:10;stroke-width:0.5px;}.cls-3{clip-path:url(#clip-path);}</style><clipPath id="clip-path"><polygon class="cls-1" points="47.548 320.595 56.942 333.901 80.003 333.918 80.003 307.053 56.942 307.047 47.548 320.595"/></clipPath></defs><title>CBD - Daytime CBD</title><polygon class="cls-2" points="242.818 307.722 56.737 307.017 47.343 320.563 56.737 333.869 242.818 333.552 251.273 320.638 242.818 307.722"/><polygon class="cls-1" points="47.548 320.595 56.942 333.901 80.003 333.918 80.003 307.053 56.942 307.047 47.548 320.595"/><g class="cls-3"><rect class="cls-1" x="45.47042" y="304.97076" width="13.7283" height="31.02277"/></g><path class="cls-1" d="M156.668,325.02344a4.55632,4.55632,0,0,1,3.24023-7.80078,4.92628,4.92628,0,0,1,3.34668,1.21484L162.04,319.76758a3.35546,3.35546,0,0,0-2.13184-.72852,2.6772,2.6772,0,0,0-1.97754.76465,2.64967,2.64967,0,0,0-.75,1.94434,2.73127,2.73127,0,0,0,.75977,2.01562,2.68853,2.68853,0,0,0,1.97949.74707,3.26808,3.26808,0,0,0,2.12012-.72265l1.21484,1.33007a4.91706,4.91706,0,0,1-3.34668,1.21485A4.42848,4.42848,0,0,1,156.668,325.02344Z"/><path class="cls-1" d="M171.68555,321.5293a2.58687,2.58687,0,0,1-1.48243,4.80957l-5.126-.00586v-9.10449h4.834q2.30274.13329,2.42969,2.67871A1.90768,1.90768,0,0,1,171.68555,321.5293Zm-4.78028-.65039h2.55078a1.02873,1.02873,0,0,0,1.12989-1.13575q-.03077-.668-1.11133-.7041h-2.56934Zm0,4.0332h2.97559a1.19006,1.19006,0,0,0,1.3125-1.31836q-.03077-.87451-1.294-.91113h-2.99414Z"/><path class="cls-1" d="M174.77051,326.333V317.2168h3.51074q4.25244,0,4.25195,4.56054,0,4.55567-4.25195,4.55567Zm3.51074-1.81543q2.42431-.00587,2.42969-2.74024-.00586-2.73339-2.42969-2.73242h-1.68848v5.47266Z"/><path class="cls-1" d="M184.56738,320.52344a.88087.88087,0,0,1,.65625-.2461.911.911,0,0,1,.67969.2461.83346.83346,0,0,1,.24316.61035.82213.82213,0,0,1-.24316.60742,1.039,1.039,0,0,1-1.33594,0,.82213.82213,0,0,1-.24316-.60742A.83346.83346,0,0,1,184.56738,320.52344Zm0,4.34863a.88407.88407,0,0,1,.65625-.24512.91432.91432,0,0,1,.67969.24512.835.835,0,0,1,.24316.61035.82366.82366,0,0,1-.24316.60742,1.039,1.039,0,0,1-1.33594,0,.82366.82366,0,0,1-.24316-.60742A.835.835,0,0,1,184.56738,324.87207Z"/><path class="cls-1" d="M198.48828,321.26172q-.03516,2.90917-1.0957,4.03906a3.07931,3.07931,0,0,1-2.63281.9961,3.79534,3.79534,0,0,1-2.44825-1.1543l1.02637-1.11719a3.188,3.188,0,0,0,1.51856.51563,1.60284,1.60284,0,0,0,1.2998-.38868,2.44593,2.44593,0,0,0,.6748-1.48828,2.84933,2.84933,0,0,1-1.88964.60742,3.04976,3.04976,0,0,1-2.24707-1.04687,3.12716,3.12716,0,0,1-.53418-2.28125,2.99613,2.99613,0,0,1,1.05957-2.0625,3.22274,3.22274,0,0,1,2.50586-.63477,2.97538,2.97538,0,0,1,2.0498,1.209A5.14108,5.14108,0,0,1,198.48828,321.26172Zm-1.82129-1.002q-.06151-1.27-1.458-1.32422-1.39746.05419-1.458,1.209a1.37582,1.37582,0,0,0,1.51855,1.51758A1.35267,1.35267,0,0,0,196.667,320.25977Z"/><path class="cls-1" d="M200.10449,323.89746v-1.208h3.76563v1.208Z"/><path class="cls-1" d="M207.7998,317.22266v-.00586h1.81641V326.333H207.7998v-6.68067l-1.21484,1.21485-1.21484-1.21485Z"/><path class="cls-1" d="M217.10449,321.7168c.10938.041.208.08105.29785.12109a1.7878,1.7878,0,0,1,.94141,1.82227,2.3351,2.3351,0,0,1-1.00586,1.88281,3.67433,3.67433,0,0,1-2.34082.79,5.40875,5.40875,0,0,1-2.12012-.36426,4.57875,4.57875,0,0,1-1.458-.97266l1.21484-1.21386a2.89559,2.89559,0,0,0,2.06543.85058q1.21436,0,1.51562-.5166a.9621.9621,0,0,0,0-1.03223q-.30176-.51708-2.11718-.57812v-1.63867q1.8164.12012,2.11718-.39551a.9621.9621,0,0,0,0-1.03223q-.30176-.51562-1.51562-.5166a2.16264,2.16264,0,0,0-1.76172.72949l-1.21484-1.21484a4.26487,4.26487,0,0,1,1.30566-.91211,5.11416,5.11416,0,0,1,1.96875-.30273,3.21166,3.21166,0,0,1,2.21973.78906,2.446,2.446,0,0,1,.88379,1.88281,1.80174,1.80174,0,0,1-.82032,1.73145Q217.20118,321.66846,217.10449,321.7168Z"/><path class="cls-1" d="M220.35352,321.06641a2.34729,2.34729,0,1,1,1.62793.65625A2.2087,2.2087,0,0,1,220.35352,321.06641Zm1.61035-.42383a1.0868,1.0868,0,0,0,.832-.34668,1.31388,1.31388,0,0,0,0-1.72168,1.099,1.099,0,0,0-.83887-.34375,1.08081,1.08081,0,0,0-.82519.34375,1.31086,1.31086,0,0,0,0,1.72168A1.08387,1.08387,0,0,0,221.96387,320.64258Zm-.48633,5.69043,5.16308-9.11035h1.48145l-5.15039,9.11035Zm4.52539-.60059a2.33341,2.33341,0,1,1,1.61523.64942A2.19471,2.19471,0,0,1,226.00293,325.73242Zm1.585-.44433a1.06369,1.06369,0,0,0,.81348-.33692,1.26763,1.26763,0,0,0,0-1.67578,1.14932,1.14932,0,0,0-1.62793,0,1.27056,1.27056,0,0,0,0,1.67578A1.06726,1.06726,0,0,0,227.58789,325.28809Z"/></svg>