<svg id="Layer_1" data-name="Layer 1" xmlns="http://www.w3.org/2000/svg" xmlns:xlink="http://www.w3.org/1999/xlink" width="46.27236" height="69.55907" viewBox="0 0 46.27236 69.55907"><defs><style>.cls-1{fill:url(#New_Gradient_Swatch_1);}.cls-2{fill:#fff;}.cls-3{fill:#ba9544;}</style><linearGradient id="New_Gradient_Swatch_1" y1="23.66845" x2="46.27236" y2="23.66845" gradientUnits="userSpaceOnUse"><stop offset="0" stop-color="#a88a34"/><stop offset="0.49324" stop-color="#caaf67"/><stop offset="1" stop-color="#957f2e"/></linearGradient></defs><title>fruity</title><polygon class="cls-1" points="19.221 47.337 0 25.14 15.172 0 43.769 6.66 46.272 35.915 19.221 47.337"/><path class="cls-2" d="M32.46345,17.32475c1.58362-.47948,2.02571-1.75957,2.95828-2.20166-1.84315-.75662-2.92529-.94578-4.01842-.4267A2.73368,2.73368,0,0,0,29.7779,16.7243a2.82047,2.82047,0,0,0,2.68555.60045"/><path class="cls-2" d="M29.04857,19.99248a8.51436,8.51436,0,0,0-2.0851-6.43124.14337.14337,0,0,0-.20455-.00659l-.0066.00659-.43329.4443a.14577.14577,0,0,0-.0044.198,7.71213,7.71213,0,0,1,1.808,5.822c-3.79848-2.22586-7.79271.20675-7.60795,4.24717a10.51326,10.51326,0,0,0,.32112,2.07629A17.8268,17.8268,0,0,0,28.943,30.02645a2.12153,2.12153,0,0,1,1.03815.51687,1.532,1.532,0,0,1,.48828,1.07994l.01319.3981a2.17819,2.17819,0,0,1-.09677.70383,3.09108,3.09108,0,0,1-.13857.43989c3.16723.15617,6.16731-4.88061,6.35206-8.89243.18475-4.01843-3.76988-6.44664-7.55076-4.28017"/><path class="cls-2" d="M29.23288,31.3536a1.04363,1.04363,0,0,0-.50368-.24634c-6.407-1.27349-11.80013-4.9268-14.03039-12.47536a1.72328,1.72328,0,0,0-.22435-.4333,1.01845,1.01845,0,0,1-.15176-.58066l.05059-1.43185a.387.387,0,0,0-.37391-.4025H13.984l-.75881.00659a.38628.38628,0,0,0-.38491.38931.25256.25256,0,0,0,.0022.04179l.17816,1.53742a.956.956,0,0,1-.20895.61805A2.46121,2.46121,0,0,0,12.56093,19.67c-.154,12.03108,7.97746,15.537,15.48424,13.68728.95456-.23534,1.04474-.38931,1.12612-.50368a1.7114,1.7114,0,0,0,.14957-.42889,1.00789,1.00789,0,0,0,.05718-.36952l-.011-.3959a.43569.43569,0,0,0-.13416-.30573"/><path class="cls-3" d="M.9738,69.55907V60.85985H7.092v1.624H2.71355v1.85547H5.944v1.61816H2.71355v3.60156Z"/><path class="cls-3" d="M13.59343,65.7661l2.16894,3.793H13.76726l-2.082-3.5957H10.09636v3.5957H8.35661V60.85985h3.793q3.04469,0,3.04443,2.50586A2.24928,2.24928,0,0,1,13.59343,65.7661Zm-3.49707-1.42675h2.43555q1.04955-.01758,1.0791-.957-.02929-.85693-1.06153-.89258H10.09636Z"/><path class="cls-3" d="M18.2736,60.85985v5.0459a1.74293,1.74293,0,0,0,.58008,1.44922,2.49729,2.49729,0,0,0,2.89942,0,1.74293,1.74293,0,0,0,.58007-1.44922v-5.0459h1.73926v5.50977a2.88473,2.88473,0,0,1-1.07226,2.26172,3.97778,3.97778,0,0,1-2.69678.92773,3.97776,3.97776,0,0,1-2.69678-.92773,2.88371,2.88371,0,0,1-1.07275-2.26172V60.85985Z"/><path class="cls-3" d="M25.95134,60.854h1.73437v8.70507H25.95134Z"/><path class="cls-3" d="M36.52946,60.85985v1.624H33.63005v7.07519H31.88982V62.48388H28.9904v-1.624Z"/><path class="cls-3" d="M37.31267,60.85985h2.041l2.01856,2.8418,2.06445-2.8418h1.99512l-3.18946,4.34961v4.34961H40.50212V65.20946Z"/></svg>