<svg id="Content" xmlns="http://www.w3.org/2000/svg" width="320" height="568" viewBox="0 0 320 568"><defs><style>.cls-1{fill:#fff;stroke:#ba9544;stroke-miterlimit:10;stroke-width:0.5px;}.cls-2{fill:#ba9544;}</style></defs><title>THC - Sensi Star</title><polygon class="cls-1" points="254.24 298.62 68.157 297.915 58.764 311.461 68.157 324.766 254.24 324.45 262.694 311.536 254.24 298.62"/><polygon class="cls-2" points="68.293 297.915 58.9 311.461 68.293 324.767 96.811 324.767 96.907 297.915 68.293 297.915"/><path class="cls-2" d="M174.66309,307.17578v1.7002H171.626v7.41015h-1.82227V308.876H166.7666v-1.7002Z"/><path class="cls-2" d="M176.01758,316.28613v-9.11035h1.82226v3.64453H182.085v-3.65039h1.82227v9.11035l-1.82227.00586v-3.76562h-4.24512v3.76562Z"/><path class="cls-2" d="M186.73438,314.97754a4.5568,4.5568,0,0,1,3.24023-7.80176,4.93106,4.93106,0,0,1,3.34668,1.21484l-1.21484,1.33008a3.35553,3.35553,0,0,0-2.13184-.72851,2.59585,2.59585,0,0,0-2.72656,2.708,2.73138,2.73138,0,0,0,.75879,2.0166,2.68933,2.68933,0,0,0,1.98046.74707,3.26007,3.26007,0,0,0,2.11915-.72266l1.21484,1.33008a4.91059,4.91059,0,0,1-3.34668,1.21484A4.4346,4.4346,0,0,1,186.73438,314.97754Z"/><path class="cls-2" d="M195.3623,310.47656a.88086.88086,0,0,1,.65625-.24609.91249.91249,0,0,1,.67969.24609.83505.83505,0,0,1,.24317.61035.82369.82369,0,0,1-.24317.60743,1.039,1.039,0,0,1-1.33594,0,.82373.82373,0,0,1-.24316-.60743A.83508.83508,0,0,1,195.3623,310.47656Zm0,4.34864a.88407.88407,0,0,1,.65625-.24512.91584.91584,0,0,1,.67969.24512.83571.83571,0,0,1,.24317.61132.82147.82147,0,0,1-.24317.60645,1.039,1.039,0,0,1-1.33594,0,.8215.8215,0,0,1-.24316-.60645A.83574.83574,0,0,1,195.3623,314.8252Z"/><path class="cls-2" d="M205.0625,307.17578v-.00586h1.81641v9.11621H205.0625v-6.68066l-1.21484,1.21484-1.21485-1.21484Z"/><path class="cls-2" d="M208.69531,311.8584a5.51473,5.51473,0,0,1,.94141-3.42285,3.07846,3.07846,0,0,1,2.52051-1.25391,3.82462,3.82462,0,0,1,2.55078.90527l-.91113,1.21485a3.20673,3.20673,0,0,0-1.56055-.36426,1.61322,1.61322,0,0,0-1.25781.51562,2.45,2.45,0,0,0-.52247,1.54883,2.82771,2.82771,0,0,1,1.82227-.78906,3.04558,3.04558,0,0,1,2.33887.81934,3.13693,3.13693,0,0,1,.75879,2.21679,2.98431,2.98431,0,0,1-.85059,2.15625,3.21789,3.21789,0,0,1-2.42969.88086,3.04857,3.04857,0,0,1-2.61132-1.23242A5.65407,5.65407,0,0,1,208.69531,311.8584Zm2.00391,1.39746q.06006,1.26855,1.458,1.32422,1.396-.05566,1.457-1.209a1.37527,1.37527,0,0,0-1.51856-1.51855A1.35268,1.35268,0,0,0,210.69922,313.25586Z"/><path class="cls-2" d="M217.0166,313.85059v-1.208h3.76563v1.208Z"/><path class="cls-2" d="M225.63574,307.17578a3.43732,3.43732,0,0,1,2.18946.6709,2.39167,2.39167,0,0,1,.85253,2.002,4.17216,4.17216,0,0,1-1.21093,2.89063,8.39769,8.39769,0,0,1-2.002,1.72461h3.28028v1.82226h-6.14063v-1.82226q.60792,0,2.30762-1.51758a8.71352,8.71352,0,0,0,1.97461-2.15625,1.48807,1.48807,0,0,0-.03027-1.27637q-.30469-.6372-1.458-.63769a2.0928,2.0928,0,0,0-1.70117.72949l-1.21387-1.21485a4.99378,4.99378,0,0,1,1.18359-.91113A4.56831,4.56831,0,0,1,225.63574,307.17578Z"/><path class="cls-2" d="M231.3623,314.97754a6.245,6.245,0,0,1,0-6.49609,2.91624,2.91624,0,0,1,4.86231,0,6.26742,6.26742,0,0,1,0,6.499,2.91445,2.91445,0,0,1-4.86231-.00293Zm2.43555-.3916q.60205,0,1.05664-.82032a4.76675,4.76675,0,0,0,0-4.06933q-.45556-.82032-1.06836-.82031-.602,0-1.05664.82031a4.76685,4.76685,0,0,0,0,4.06933Q233.18505,314.58594,233.79785,314.58594Z"/><path class="cls-2" d="M239.30078,311.02051a2.34608,2.34608,0,1,1,1.62793.65625A2.20949,2.20949,0,0,1,239.30078,311.02051Zm1.60938-.42481a1.0868,1.0868,0,0,0,.832-.34668,1.31089,1.31089,0,0,0,0-1.72168,1.09833,1.09833,0,0,0-.83789-.34375,1.08154,1.08154,0,0,0-.82618.34375,1.31089,1.31089,0,0,0,0,1.72168A1.08535,1.08535,0,0,0,240.91016,310.5957Zm-.48633,5.69043,5.16308-9.11035h1.48145l-5.15039,9.11035Zm4.52539-.60058a2.33465,2.33465,0,1,1,1.61523.64941A2.1947,2.1947,0,0,1,244.94922,315.68555Zm1.585-.44434a1.06724,1.06724,0,0,0,.81445-.33691,1.27057,1.27057,0,0,0,0-1.67578,1.07419,1.07419,0,0,0-.82031-.33692,1.05681,1.05681,0,0,0-.80762.33692,1.26764,1.26764,0,0,0,0,1.67578A1.06368,1.06368,0,0,0,246.53418,315.24121Z"/></svg>