<svg id="Layer_1" data-name="Layer 1" xmlns="http://www.w3.org/2000/svg" width="375" height="132" viewBox="0 0 375 132"><defs><style>.cls-1{fill:#fff;}</style></defs><title>newyear</title><path class="cls-1" d="M109.98682,75.20964l2.24262,7.54728V75.20964h1.69429V86.44709h-1.81487l-2.33151-7.1958v7.1958h-1.69429V75.20964Z"/><path class="cls-1" d="M115.944,86.44709V75.20964h4.8241v1.69429h-3.12981v3.08052H119.924v1.694h-2.28575V84.7531h3.12981v1.694Z"/><path class="cls-1" d="M129.39939,75.20964h1.77438l-1.7559,11.23745h-1.62652l-.955-6.12994-.89951,6.12994h-1.62035l-1.87912-11.23745h1.77438L125.099,81.229l.81326-6.01934h1.77438l.88719,6.01934Z"/><path class="cls-1" d="M136.77914,81.74005l-2.26726-6.53041h1.86063l1.26008,4.03549,1.24747-4.03549h1.873l-2.27958,6.53041v4.707h-1.69429Z"/><path class="cls-1" d="M142.60719,86.44709V75.20964h4.8241v1.69429h-3.12981v3.08052h2.28575v1.694h-2.28575V84.7531h3.12981v1.694Z"/><path class="cls-1" d="M151.27519,83.86591l-.41279,2.58118h-1.76206l1.90377-11.23745h2.335l1.87912,11.23745h-1.77438l-.40047-2.58118Zm.88719-6.081-.62842,4.42979h1.25685Z"/><path class="cls-1" d="M159.82,75.20964a2.56672,2.56672,0,0,1,2.07627.78246,2.827,2.827,0,0,1,.5853,1.8976v1.63267a2.6129,2.6129,0,0,1-.90421,2.01466l1.25539,4.91006h-1.82719l-1.03359-4.24466c-.04928.0041-.10033.00586-.15373.00586h-.97168v4.2388h-1.69429V75.20964Zm1.01041,2.71086a.85922.85922,0,0,0-.96435-.9796h-1.0195v3.59188h1.0195a.92057.92057,0,0,0,.68476-.28634.94985.94985,0,0,0,.27959-.6871Z"/><path class="cls-1" d="M164.50207,84.759h1.69429v1.69457h-1.69429Z"/></svg>