<svg id="Layer_1" data-name="Layer 1" xmlns="http://www.w3.org/2000/svg" width="375" height="132" viewBox="0 0 375 132"><defs><style>.cls-1{fill:#fff;}</style></defs><title>quality-time</title><path class="cls-1" d="M189.2019,86.99039h-1.89085V74.45108h2.7086l1.7599,8.992,1.69116-8.992h2.60581V86.99039h-1.89085V79.11208l-1.63354,7.87831h-1.51766l-1.83257-7.858Z"/><path class="cls-1" d="M201.28617,74.29984a2.99877,2.99877,0,0,1,3.00454,3.00388V84.1443a2.99765,2.99765,0,0,1-3.00454,3.00388,2.859,2.859,0,0,1-2.11345-.87995,2.9097,2.9097,0,0,1-.86948-2.12393V77.30372a2.99883,2.99883,0,0,1,2.98293-3.00388Zm1.03185,2.96853A1.06867,1.06867,0,0,0,201.23838,76.19a1.0569,1.0569,0,0,0-.76669.313,1.03011,1.03011,0,0,0-.3195.76538v6.86284a1.03464,1.03464,0,0,0,.3195.76275,1.05411,1.05411,0,0,0,.76669.31558,1.073,1.073,0,0,0,1.07964-1.07833Z"/><path class="cls-1" d="M209.501,74.45108a2.86316,2.86316,0,0,1,2.31642.87275,3.15461,3.15461,0,0,1,.65342,2.11739v1.8221a2.916,2.916,0,0,1-1.00894,2.24767l1.40046,5.4794h-2.03881l-1.153-4.73694c-.055.00459-.112.0072-.17154.0072h-1.08422v4.72974h-1.8902V74.45108Zm1.12744,3.02484a.95888.95888,0,0,0-1.07572-1.0934h-1.13791v4.00824h1.13791a1.02822,1.02822,0,0,0,.76407-.31951,1.0609,1.0609,0,0,0,.31165-.76668Z"/><path class="cls-1" d="M215.04851,86.99039V74.45108h5.3825v1.8902h-3.4923v3.43731h2.55015v1.89085h-2.55015v3.43011h3.4923v1.89084Z"/><path class="cls-1" d="M228.99483,74.45108a2.86316,2.86316,0,0,1,2.31642.87275,3.15461,3.15461,0,0,1,.65342,2.11739v1.8221a2.916,2.916,0,0,1-1.00894,2.24767l1.40046,5.4794h-2.03881l-1.153-4.73694c-.055.00459-.112.0072-.17154.0072h-1.08422v4.72974h-1.8902V74.45108Zm1.12744,3.02484a.95888.95888,0,0,0-1.07572-1.0934h-1.13791v4.00824h1.13791a1.02822,1.02822,0,0,0,.76407-.31951,1.0609,1.0609,0,0,0,.31165-.76668Z"/><path class="cls-1" d="M234.54232,86.99039V74.45108h5.3825v1.8902h-3.4923v3.43731h2.55015v1.89085h-2.55015v3.43011h3.4923v1.89084Z"/><path class="cls-1" d="M248.03622,83.87586a3.51459,3.51459,0,0,1-.68091,2.24113,2.41789,2.41789,0,0,1-1.299.88715,3.47466,3.47466,0,0,1-1.05149.144,2.97132,2.97132,0,0,1-1.8424-.55A3.13321,3.13321,0,0,1,242.2,85.37126a4.82259,4.82259,0,0,1-.41248-1.78413l1.79395-.12374a2.72248,2.72248,0,0,0,.584,1.58116.95858.95858,0,0,0,.77716.35093,1.17819,1.17819,0,0,0,.98995-.605,1.52089,1.52089,0,0,0,.19249-.83216,2.31754,2.31754,0,0,0-.70776-1.56021q-.5647-.52935-1.68461-1.58837a6.96187,6.96187,0,0,1-1.32713-1.629,3.77542,3.77542,0,0,1-.419-1.7599,3.06289,3.06289,0,0,1,1.14839-2.59206,2.85385,2.85385,0,0,1,1.7599-.529,3.19218,3.19218,0,0,1,1.7324.45373,2.612,2.612,0,0,1,.90025.97947,3.70584,3.70584,0,0,1,.41968,1.44694l-1.8149.33a2.12752,2.12752,0,0,0-.44-1.19618.91822.91822,0,0,0-.74966-.31623.87024.87024,0,0,0-.79025.46092,1.774,1.774,0,0,0-.22.9212,2.76861,2.76861,0,0,0,.74246,1.7527,6.60913,6.60913,0,0,0,.83805.79746q.66.55.8734.77a6.6558,6.6558,0,0,1,1.079,1.38212,5.06263,5.06263,0,0,1,.28939.59122A3.52415,3.52415,0,0,1,248.03622,83.87586Z"/><path class="cls-1" d="M251.90631,76.34128h-2.00739v-1.8902h5.89777v1.8902H253.7965V86.99039h-1.89019Z"/><path class="cls-1" d="M257.66,85.10675h1.89019v1.89019H257.66Z"/></svg>