<svg id="Layer_1" data-name="Layer 1" xmlns="http://www.w3.org/2000/svg" width="320" height="50" viewBox="0 0 320 50"><defs><style>.cls-1{fill:#fff;}</style></defs><title>rest</title><path class="cls-1" d="M153.64,30.91h-1.45V21.34h2.07l1.35,6.86,1.29-6.86h2v9.57h-1.45v-6l-1.24,6H155l-1.4-6Z"/><path class="cls-1" d="M162.87,21.22a2.29,2.29,0,0,1,2.29,2.3v5.22a2.17,2.17,0,0,1-.67,1.62,2.2,2.2,0,0,1-1.62.67,2.17,2.17,0,0,1-1.62-.67,2.23,2.23,0,0,1-.66-1.62V23.52a2.21,2.21,0,0,1,.67-1.63A2.18,2.18,0,0,1,162.87,21.22Zm.78,2.27a.84.84,0,0,0-.23-.59.8.8,0,0,0-.59-.23.8.8,0,0,0-.83.82v5.24a.78.78,0,0,0,.24.58.82.82,0,0,0,.59.24.81.81,0,0,0,.59-.24.82.82,0,0,0,.23-.58Z"/><path class="cls-1" d="M169.14,21.34a2.22,2.22,0,0,1,1.77.66,2.43,2.43,0,0,1,.5,1.62V25a2.25,2.25,0,0,1-.77,1.72l1.07,4.18h-1.56l-.88-3.61h-1v3.61h-1.44V21.34Zm.86,2.31a.73.73,0,0,0-.82-.84h-.87v3.06h.87a.78.78,0,0,0,.58-.24A.81.81,0,0,0,170,25Z"/><path class="cls-1" d="M173.38,30.91V21.34h4.11v1.44h-2.67v2.63h2v1.44h-2v2.62h2.67v1.44Z"/><path class="cls-1" d="M184,21.34a2.22,2.22,0,0,1,1.77.66,2.43,2.43,0,0,1,.49,1.62V25a2.22,2.22,0,0,1-.77,1.72l1.07,4.18H185l-.88-3.61h-1v3.61h-1.45V21.34Zm.86,2.31a.74.74,0,0,0-.82-.84h-.87v3.06h.87a.78.78,0,0,0,.58-.24.81.81,0,0,0,.24-.59Z"/><path class="cls-1" d="M188.26,30.91V21.34h4.11v1.44h-2.66v2.63h1.94v1.44h-1.94v2.62h2.66v1.44Z"/><path class="cls-1" d="M198.57,28.53a2.7,2.7,0,0,1-.52,1.72,1.89,1.89,0,0,1-1,.67,2.48,2.48,0,0,1-.81.11,2.26,2.26,0,0,1-1.4-.42,2.37,2.37,0,0,1-.74-.93,3.63,3.63,0,0,1-.31-1.37l1.37-.09a2.09,2.09,0,0,0,.44,1.21.74.74,0,0,0,.6.27.92.92,0,0,0,.75-.47,1.13,1.13,0,0,0,.15-.63,1.77,1.77,0,0,0-.54-1.19l-1.29-1.22a5,5,0,0,1-1-1.24,2.79,2.79,0,0,1-.32-1.34,2.31,2.31,0,0,1,.88-2,2.16,2.16,0,0,1,1.34-.41,2.45,2.45,0,0,1,1.32.35,2,2,0,0,1,.69.75,2.89,2.89,0,0,1,.32,1.1l-1.39.25a1.6,1.6,0,0,0-.33-.91.72.72,0,0,0-.57-.24.67.67,0,0,0-.61.35,1.37,1.37,0,0,0-.17.7,2.1,2.1,0,0,0,.57,1.34,4.84,4.84,0,0,0,.64.61c.34.28.56.48.67.59a5.2,5.2,0,0,1,.82,1.05,3.73,3.73,0,0,1,.22.46A2.66,2.66,0,0,1,198.57,28.53Z"/><path class="cls-1" d="M201.52,22.78H200V21.34h4.5v1.44H203v8.13h-1.45Z"/><path class="cls-1" d="M205.92,29.47h1.44v1.45h-1.44Z"/></svg>