<?xml version="1.0" encoding="utf-8"?>
<!-- Generator: Adobe Illustrator 23.0.1, SVG Export Plug-In . SVG Version: 6.00 Build 0)  -->
<svg version="1.1" id="Layer_2" xmlns="http://www.w3.org/2000/svg" xmlns:xlink="http://www.w3.org/1999/xlink" x="0px" y="0px"
	 viewBox="0 0 728 90" enable-background="new 0 0 728 90" xml:space="preserve">
<g>
	<path fill="#BA9544" d="M327.1,50.81l2.4-15.9h4.9v22.4h-3.33V41.24l-2.43,16.06h-3.33l-2.62-15.84v15.84h-3.07v-22.4h4.9
		L327.1,50.81z"/>
	<path fill="#BA9544" d="M344.96,48.38l-1.09,2.05v6.88h-3.52v-22.4h3.52v9.76l4.61-9.76H352l-4.9,9.98l4.9,12.42h-3.62
		L344.96,48.38z"/>
	<path fill="#BA9544" d="M368.7,34.91v17.28c0,1.6,0.7,2.18,1.82,2.18c1.12,0,1.82-0.58,1.82-2.18V34.91h3.33v17.06
		c0,3.58-1.79,5.63-5.25,5.63s-5.25-2.05-5.25-5.63V34.91H368.7z"/>
	<path fill="#BA9544" d="M381.47,34.91h3.52v19.2h5.79v3.2h-9.31V34.91z"/>
	<path fill="#BA9544" d="M394.68,34.91h10.88v3.2h-3.68v19.2h-3.52v-19.2h-3.68V34.91z"/>
	<path fill="#BA9544" d="M417.85,57.31c-0.19-0.58-0.32-0.93-0.32-2.75v-3.52c0-2.08-0.7-2.85-2.3-2.85h-1.22v9.12h-3.52v-22.4h5.31
		c3.65,0,5.22,1.7,5.22,5.15v1.76c0,2.3-0.74,3.81-2.3,4.54c1.76,0.74,2.34,2.43,2.34,4.77v3.46c0,1.09,0.03,1.89,0.38,2.72H417.85z
		 M414.01,38.11v6.88h1.38c1.31,0,2.11-0.58,2.11-2.37v-2.21c0-1.6-0.54-2.3-1.79-2.3H414.01z"/>
	<path fill="#BA9544" d="M438.14,57.31h-3.55l-0.61-4.06h-4.32l-0.61,4.06h-3.23l3.58-22.4h5.15L438.14,57.31z M430.11,50.2h3.39
		l-1.7-11.33L430.11,50.2z"/>
</g>
<g>
</g>
<g>
</g>
<g>
</g>
<g>
</g>
<g>
</g>
<g>
</g>
<g>
</g>
<g>
</g>
<g>
</g>
<g>
</g>
<g>
</g>
<g>
</g>
<g>
</g>
<g>
</g>
<g>
</g>
</svg>
