<svg id="Layer_1" data-name="Layer 1" xmlns="http://www.w3.org/2000/svg" width="228.875" height="150.7778" viewBox="0 0 228.875 150.7778"><defs><style>.cls-1{fill:#212c32;}.cls-2{fill:#fff;}</style></defs><title>frame4</title><path class="cls-1" d="M57.31,0,61.49,10.5415,65.6924,0H70.584L63.2812,17.3164h-3.583L52.418,0Z"/><path class="cls-1" d="M69.8945,11.3223a5.7409,5.7409,0,0,1,.5284-2.4458,6.0111,6.0111,0,0,1,1.47-1.9751,6.997,6.997,0,0,1,2.2392-1.3208,8.0886,8.0886,0,0,1,2.837-.482,8.2,8.2,0,0,1,2.8134.4707,6.968,6.968,0,0,1,2.25,1.3091,5.878,5.878,0,0,1,1.4815,1.9981,6.1012,6.1012,0,0,1,.5283,2.56,5.9877,5.9877,0,0,1-.54,2.561,6.0869,6.0869,0,0,1-1.48,1.9981,6.6474,6.6474,0,0,1-2.2627,1.2974,8.6543,8.6543,0,0,1-2.8594.4594,8.2753,8.2753,0,0,1-2.8017-.4594,6.4669,6.4669,0,0,1-2.2159-1.3091,6.0751,6.0751,0,0,1-1.4589-2.0327A6.3852,6.3852,0,0,1,69.8945,11.3223Zm4.3867.0459A2.6511,2.6511,0,0,0,74.5,12.459a2.8759,2.8759,0,0,0,.5742.8613,2.5041,2.5041,0,0,0,.85.5742,2.7459,2.7459,0,0,0,2.09,0,2.5227,2.5227,0,0,0,.85-.5742,2.914,2.914,0,0,0,.5742-.8613,2.611,2.611,0,0,0,.2178-1.0679,2.5579,2.5579,0,0,0-.2178-1.0449,2.927,2.927,0,0,0-.5742-.8613,2.5361,2.5361,0,0,0-.85-.5743,2.7471,2.7471,0,0,0-2.09,0,2.5173,2.5173,0,0,0-.85.5743,2.93,2.93,0,0,0-.5742.85A2.4608,2.4608,0,0,0,74.2812,11.3682Z"/><path class="cls-1" d="M90.3574,5.5347v6.6372a2.1139,2.1139,0,1,0,4.2256,0V5.5347H98.74v7.4414a4.2157,4.2157,0,0,1-1.5732,3.5825A7.7118,7.7118,0,0,1,92.47,17.7529a7.7089,7.7089,0,0,1-4.6963-1.1943A4.2131,4.2131,0,0,1,86.2,12.9761V5.5347Z"/><path class="cls-1" d="M109.1436,8.5664a4.86,4.86,0,0,0-2.251-.5972,1.692,1.692,0,0,0-.93.23.7057.7057,0,0,0-.3555.62.8158.8158,0,0,0,.0567.3331.59.59,0,0,0,.2529.2412,2.157,2.157,0,0,0,.5742.2065q.3794.0922.999.23a4.7716,4.7716,0,0,1,2.5723,1.2285,3.1321,3.1321,0,0,1,.85,2.2622,4.1054,4.1054,0,0,1-.4131,1.86,3.97,3.97,0,0,1-1.1484,1.3891,5.4672,5.4672,0,0,1-1.7686.8731,7.8982,7.8982,0,0,1-2.2734.31,9.2363,9.2363,0,0,1-4.708-1.355l1.5156-2.94a5.9179,5.9179,0,0,0,3.3067,1.1943,1.6289,1.6289,0,0,0,.9423-.2524.7569.7569,0,0,0,.3672-.6431,1.0719,1.0719,0,0,0-.0576-.3789.62.62,0,0,0-.2412-.2758,1.9363,1.9363,0,0,0-.54-.2295q-.3561-.1034-.93-.2183a5.3222,5.3222,0,0,1-2.6983-1.16,2.8675,2.8675,0,0,1-.77-2.1245,4.18,4.18,0,0,1,.3672-1.78A3.6923,3.6923,0,0,1,102.92,6.2466a4.95,4.95,0,0,1,1.6651-.85,7.4062,7.4062,0,0,1,2.17-.2984,9.8512,9.8512,0,0,1,3.79.7578Z"/><path class="cls-1" d="M129.4678,5.5347h4.18V17.3164h-4.18V16.0073a4.3616,4.3616,0,0,1-3.6055,1.6768,5.8462,5.8462,0,0,1-2.3652-.4712,5.7027,5.7027,0,0,1-1.8838-1.32,6.0762,6.0762,0,0,1-1.251-1.9981,6.8253,6.8253,0,0,1-.4482-2.5034,6.6378,6.6378,0,0,1,.4365-2.4,6.1538,6.1538,0,0,1,1.2168-1.9863,5.7462,5.7462,0,0,1,1.86-1.3438,5.676,5.676,0,0,1,2.3887-.4936,4.8,4.8,0,0,1,3.6514,1.5386Zm-5.2364,5.8564a2.7518,2.7518,0,0,0,.77,1.9292,2.5227,2.5227,0,0,0,.85.5742,2.7408,2.7408,0,0,0,1.0683.2066,2.6849,2.6849,0,0,0,1.045-.2066,2.5227,2.5227,0,0,0,.85-.5742,2.9674,2.9674,0,0,0,.5742-.85,2.4781,2.4781,0,0,0,.2178-1.0337,2.5579,2.5579,0,0,0-.2178-1.0449,2.927,2.927,0,0,0-.5742-.8613,2.5276,2.5276,0,0,0-.85-.5738,2.6762,2.6762,0,0,0-1.045-.207,2.7319,2.7319,0,0,0-1.0683.207,2.5276,2.5276,0,0,0-.85.5738,2.8357,2.8357,0,0,0-.5625.8383A2.5172,2.5172,0,0,0,124.2314,11.3911Z"/><path class="cls-1" d="M139.7334,5.5347l2.8018,6.04,2.8476-6.04h4.64l-6.1319,11.7817h-2.7793L135.0488,5.5347Z"/><path class="cls-1" d="M154.4092,12.126q0,2.6873,2.5263,2.687a2.2561,2.2561,0,0,0,2.044-1.1021h4.0195q-1.2187,4.0423-6.0869,4.042a7.9879,7.9879,0,0,1-2.7324-.4482,6.0859,6.0859,0,0,1-2.124-1.2744,5.6865,5.6865,0,0,1-1.3672-1.9751,6.5847,6.5847,0,0,1-.4824-2.5723,7.2687,7.2687,0,0,1,.46-2.6523,5.5736,5.5736,0,0,1,1.3086-2.01A5.7954,5.7954,0,0,1,154.03,5.5464a7.769,7.769,0,0,1,2.7217-.4478,7.5994,7.5994,0,0,1,2.6865.4478A5.45,5.45,0,0,1,161.46,6.8438a5.6521,5.6521,0,0,1,1.2627,2.0786,8.2318,8.2318,0,0,1,.4365,2.7675v.4361Zm4.8691-2.4112a2.5041,2.5041,0,0,0-.85-1.4008,2.6349,2.6349,0,0,0-3.1348-.023,2.2822,2.2822,0,0,0-.7695,1.4238Z"/><path class="cls-1" d="M171.3574,13.8486h4.961v3.4678H164.376l5.5576-8.3135h-4.8V5.5347h11.7353Z"/><path class="cls-1" d="M19.9453,36.73a3.8456,3.8456,0,0,0-2.1816-.7349,2.9658,2.9658,0,0,0-1.1133.2066,2.7554,2.7554,0,0,0-.9072.5859,2.6722,2.6722,0,0,0-.6084.8955,2.9382,2.9382,0,0,0-.2188,1.16,2.8729,2.8729,0,0,0,.2188,1.1367,2.7634,2.7634,0,0,0,.5966.896,2.6105,2.6105,0,0,0,.9073.5854,3.0565,3.0565,0,0,0,1.125.2066,3.4345,3.4345,0,0,0,2.1816-.8037V44.4a7.354,7.354,0,0,1-2.916.666A6.9,6.9,0,0,1,14.583,44.63a6.2017,6.2017,0,0,1-2.0439-1.2515,6.1281,6.1281,0,0,1-1.4121-1.9521,5.9464,5.9464,0,0,1-.5284-2.5381,6.3442,6.3442,0,0,1,.5049-2.5606,6.1361,6.1361,0,0,1,1.3779-1.998,6.2491,6.2491,0,0,1,2.0791-1.3091,7.0469,7.0469,0,0,1,2.5831-.4707,6.1756,6.1756,0,0,1,2.8017.6431Z"/><path class="cls-1" d="M25.8252,39.5083q0,2.6872,2.5254,2.687a2.2588,2.2588,0,0,0,2.0449-1.102h4.0186q-1.2174,4.0422-6.086,4.042a7.9941,7.9941,0,0,1-2.7334-.4483,6.0938,6.0938,0,0,1-2.124-1.2744,5.6733,5.6733,0,0,1-1.3662-1.9751,6.5844,6.5844,0,0,1-.4824-2.5723,7.2882,7.2882,0,0,1,.459-2.6523,5.5874,5.5874,0,0,1,1.31-2.01,5.7894,5.7894,0,0,1,2.0557-1.2744,7.7673,7.7673,0,0,1,2.7207-.4477,7.6091,7.6091,0,0,1,2.6875.4477,5.4407,5.4407,0,0,1,2.02,1.2974,5.6389,5.6389,0,0,1,1.2637,2.0786,8.2571,8.2571,0,0,1,.4365,2.7676v.436Zm4.8682-2.4111a2.4986,2.4986,0,0,0-.85-1.4009,2.6353,2.6353,0,0,0-3.1348-.023,2.2865,2.2865,0,0,0-.77,1.4239Z"/><path class="cls-1" d="M36.71,32.917h4.1572v1.9292a4.7691,4.7691,0,0,1,1.6308-1.6191,4.383,4.383,0,0,1,2.25-.5625h.3565a2.5688,2.5688,0,0,1,.4473.0458v3.9732a3.9482,3.9482,0,0,0-1.7911-.4136,2.673,2.673,0,0,0-2.17.8613,3.8184,3.8184,0,0,0-.7236,2.5147v5.0527H36.71Z"/><path class="cls-1" d="M52.2578,36.3853v8.3134H48.1016V36.3853h-1.378V32.917h1.378V29.38h4.1562V32.917H54.624v3.4683Z"/><path class="cls-1" d="M65.2793,32.917h4.18V44.6987h-4.18V43.39a4.3615,4.3615,0,0,1-3.6055,1.6768,5.8462,5.8462,0,0,1-2.3652-.4712,5.7037,5.7037,0,0,1-1.8838-1.32,6.0784,6.0784,0,0,1-1.251-1.998,6.8262,6.8262,0,0,1-.4482-2.5035,6.6378,6.6378,0,0,1,.4365-2.4,6.1538,6.1538,0,0,1,1.2168-1.9863,5.7437,5.7437,0,0,1,1.86-1.3437,5.6753,5.6753,0,0,1,2.3886-.4937,4.8,4.8,0,0,1,3.6514,1.5386ZM60.043,38.7734a2.7511,2.7511,0,0,0,.77,1.9292,2.5215,2.5215,0,0,0,.85.5743,2.7412,2.7412,0,0,0,1.0684.2065,2.6844,2.6844,0,0,0,1.0449-.2065,2.5215,2.5215,0,0,0,.85-.5743,2.9674,2.9674,0,0,0,.5742-.85,2.4781,2.4781,0,0,0,.2178-1.0337,2.5579,2.5579,0,0,0-.2178-1.0449,2.927,2.927,0,0,0-.5742-.8613,2.5288,2.5288,0,0,0-.85-.5737,2.6758,2.6758,0,0,0-1.0449-.2071,2.7325,2.7325,0,0,0-1.0684.2071,2.5288,2.5288,0,0,0-.85.5737,2.8349,2.8349,0,0,0-.5625.8384A2.5164,2.5164,0,0,0,60.043,38.7734Z"/><path class="cls-1" d="M71.7783,28.3931a2.2516,2.2516,0,0,1,.1836-.9073,2.3814,2.3814,0,0,1,1.251-1.2519,2.3331,2.3331,0,0,1,1.8144,0,2.3786,2.3786,0,0,1,1.252,1.2519,2.3321,2.3321,0,0,1,0,1.814,2.3784,2.3784,0,0,1-1.252,1.252,2.3331,2.3331,0,0,1-1.8144,0,2.3811,2.3811,0,0,1-1.251-1.252A2.2487,2.2487,0,0,1,71.7783,28.3931ZM76.21,32.917V44.6987H72.0537V32.917Z"/><path class="cls-1" d="M78.8281,32.917h4.1573V34.41a4.5543,4.5543,0,0,1,1.7226-1.39,5.385,5.385,0,0,1,2.044-.3559,5.1139,5.1139,0,0,1,2.124.4018A4.2429,4.2429,0,0,1,90.38,34.2031a3.2766,3.2766,0,0,1,.6894,1.3321,6.9593,6.9593,0,0,1,.1836,1.6767v7.4868H87.0957V38.7505a6.4179,6.4179,0,0,0-.126-1.4121,1.7516,1.7516,0,0,0-.4472-.8613,1.581,1.581,0,0,0-.62-.3907,2.33,2.33,0,0,0-.7353-.1147,2.0554,2.0554,0,0,0-1.6191.6313,2.6239,2.6239,0,0,0-.5625,1.8032v6.2925H78.8281Z"/><path class="cls-1" d="M97.5918,39.5083q0,2.6872,2.5254,2.687a2.2588,2.2588,0,0,0,2.0449-1.102h4.0186q-1.2174,4.0422-6.086,4.042a7.9941,7.9941,0,0,1-2.7334-.4483,6.0938,6.0938,0,0,1-2.124-1.2744,5.6733,5.6733,0,0,1-1.3662-1.9751,6.5844,6.5844,0,0,1-.4824-2.5723,7.2882,7.2882,0,0,1,.459-2.6523,5.5874,5.5874,0,0,1,1.31-2.01,5.7894,5.7894,0,0,1,2.0557-1.2744,7.7673,7.7673,0,0,1,2.7207-.4477,7.6091,7.6091,0,0,1,2.6875.4477,5.4407,5.4407,0,0,1,2.02,1.2974,5.6389,5.6389,0,0,1,1.2637,2.0786,8.2571,8.2571,0,0,1,.4365,2.7676v.436Zm4.8682-2.4111a2.4986,2.4986,0,0,0-.85-1.4009,2.6353,2.6353,0,0,0-3.1348-.023,2.2865,2.2865,0,0,0-.7695,1.4239Z"/><path class="cls-1" d="M108.4766,32.917h4.1572v1.4473a5.3756,5.3756,0,0,1,3.8125-1.6309,4.4344,4.4344,0,0,1,3.9961,2.2046,4.4565,4.4565,0,0,1,3.9961-2.2276A4.9815,4.9815,0,0,1,126,32.9517a3.2078,3.2078,0,0,1,1.2627.7578,3.6306,3.6306,0,0,1,.8389,1.3437,5.72,5.72,0,0,1,.31,1.9981v7.6474h-4.1562V38.8882a7.0428,7.0428,0,0,0-.127-1.47,2.3144,2.3144,0,0,0-.3672-.8956,1.2219,1.2219,0,0,0-.5625-.4365,2.0484,2.0484,0,0,0-.6894-.1147q-1.998,0-1.9981,2.9165v5.8105h-4.1562V38.8882a7.9373,7.9373,0,0,0-.1152-1.481,2.7364,2.7364,0,0,0-.3331-.93,1.1116,1.1116,0,0,0-.5624-.4708,2.34,2.34,0,0,0-.8038-.1264,2.3077,2.3077,0,0,0-.7353.1147,1.3057,1.3057,0,0,0-.6084.4478,2.4482,2.4482,0,0,0-.4131.9189,6.3634,6.3634,0,0,0-.1494,1.5269v5.8105h-4.1572Z"/><path class="cls-1" d="M134.7734,39.5083q0,2.6872,2.5254,2.687a2.259,2.259,0,0,0,2.045-1.102h4.0185q-1.2172,4.0422-6.0859,4.042a7.9933,7.9933,0,0,1-2.7334-.4483,6.0934,6.0934,0,0,1-2.1241-1.2744,5.6733,5.6733,0,0,1-1.3662-1.9751,6.5844,6.5844,0,0,1-.4824-2.5723,7.2882,7.2882,0,0,1,.459-2.6523,5.5876,5.5876,0,0,1,1.31-2.01,5.789,5.789,0,0,1,2.0556-1.2744,7.7677,7.7677,0,0,1,2.7207-.4477,7.6083,7.6083,0,0,1,2.6875.4477,5.44,5.44,0,0,1,2.0205,1.2974,5.6389,5.6389,0,0,1,1.2637,2.0786,8.2546,8.2546,0,0,1,.4365,2.7676v.436Zm4.8682-2.4111a2.4986,2.4986,0,0,0-.85-1.4009,2.6353,2.6353,0,0,0-3.1348-.023,2.287,2.287,0,0,0-.7695,1.4239Z"/><path class="cls-1" d="M145.6592,32.917h4.1562V34.41a4.5545,4.5545,0,0,1,1.7227-1.39,5.3916,5.3916,0,0,1,2.0439-.3559,5.1149,5.1149,0,0,1,2.125.4018,4.2411,4.2411,0,0,1,1.5039,1.1367,3.2626,3.2626,0,0,1,.6885,1.3321,6.9066,6.9066,0,0,1,.1846,1.6767v7.4868h-4.1572V38.7505a6.4179,6.4179,0,0,0-.126-1.4121,1.76,1.76,0,0,0-.4483-.8613,1.5736,1.5736,0,0,0-.62-.3907,2.32,2.32,0,0,0-.7344-.1147,2.0541,2.0541,0,0,0-1.6191.6313,2.6192,2.6192,0,0,0-.5635,1.8032v6.2925h-4.1562Z"/><path class="cls-1" d="M165.3174,36.3853v8.3134H161.16V36.3853h-1.378V32.917h1.378V29.38h4.1572V32.917h2.3652v3.4683Z"/><path class="cls-1" d="M180.75,32.917v6.6372a2.1139,2.1139,0,1,0,4.2256,0V32.917h4.1572v7.4414a4.2157,4.2157,0,0,1-1.5732,3.5825,9.8319,9.8319,0,0,1-9.3936,0,4.2131,4.2131,0,0,1-1.5732-3.5825V32.917Z"/><path class="cls-1" d="M191.7275,32.917h4.1563V34.41a4.5543,4.5543,0,0,1,1.7226-1.39,5.3921,5.3921,0,0,1,2.044-.3559,5.1156,5.1156,0,0,1,2.125.4018,4.242,4.242,0,0,1,1.5039,1.1367,3.2638,3.2638,0,0,1,.6885,1.3321,6.9118,6.9118,0,0,1,.1845,1.6767v7.4868h-4.1572V38.7505a6.4179,6.4179,0,0,0-.126-1.4121,1.7592,1.7592,0,0,0-.4482-.8613,1.5736,1.5736,0,0,0-.62-.3907,2.32,2.32,0,0,0-.7344-.1147,2.054,2.054,0,0,0-1.6191.6313,2.6192,2.6192,0,0,0-.5635,1.8032v6.2925h-4.1563Z"/><path class="cls-1" d="M210.49,39.5083q0,2.6872,2.5264,2.687a2.256,2.256,0,0,0,2.0439-1.102h4.02q-1.2187,4.0422-6.0869,4.042a7.9885,7.9885,0,0,1-2.7325-.4483,6.0847,6.0847,0,0,1-2.124-1.2744,5.6892,5.6892,0,0,1-1.3672-1.9751,6.5844,6.5844,0,0,1-.4824-2.5723,7.267,7.267,0,0,1,.46-2.6523,5.5734,5.5734,0,0,1,1.3085-2.01,5.7991,5.7991,0,0,1,2.0557-1.2744,7.77,7.77,0,0,1,2.7217-.4477,7.6,7.6,0,0,1,2.6865.4477,5.4519,5.4519,0,0,1,2.0215,1.2974,5.65,5.65,0,0,1,1.2627,2.0786,8.232,8.232,0,0,1,.4365,2.7676v.436Zm4.8692-2.4111a2.504,2.504,0,0,0-.85-1.4009,2.6353,2.6353,0,0,0-3.1348-.023,2.2823,2.2823,0,0,0-.7695,1.4239Z"/><path class="cls-1" d="M5.6494,63.7681v8.3134H1.4932V63.7681H0V60.3H1.4932V58.5317a8.0358,8.0358,0,0,1,.2754-2.3427,4.1475,4.1475,0,0,1,.7343-1.3662,5.3652,5.3652,0,0,1,1.1826-1.0909,5.7476,5.7476,0,0,1,1.459-.7119,4.978,4.978,0,0,1,1.5381-.2529,3.9482,3.9482,0,0,1,.9766.1147,5.6839,5.6839,0,0,1,.9072.3218V56.832a4.6138,4.6138,0,0,0-.7695-.31,2.6644,2.6644,0,0,0-.7461-.1031,1.7767,1.7767,0,0,0-.5166.08,1.1152,1.1152,0,0,0-.4942.333,1.4073,1.4073,0,0,0-.3105.7237,7.9321,7.9321,0,0,0-.08,1.2744V60.3h2.917v3.4683Z"/><path class="cls-1" d="M9.6455,66.0874a5.7275,5.7275,0,0,1,.5283-2.4458,6,6,0,0,1,1.47-1.9751,6.9988,6.9988,0,0,1,2.2392-1.3208,8.083,8.083,0,0,1,2.836-.4819,8.1976,8.1976,0,0,1,2.8134.4707,6.9711,6.9711,0,0,1,2.251,1.3091,5.8891,5.8891,0,0,1,1.4814,1.998,6.1155,6.1155,0,0,1,.5284,2.5605,6.0018,6.0018,0,0,1-.54,2.5611,6.0886,6.0886,0,0,1-1.4814,1.998A6.6342,6.6342,0,0,1,19.51,72.0586a8.6543,8.6543,0,0,1-2.8594.46,8.2718,8.2718,0,0,1-2.8018-.46A6.4625,6.4625,0,0,1,11.6318,70.75a6.0592,6.0592,0,0,1-1.458-2.0327A6.37,6.37,0,0,1,9.6455,66.0874Zm4.3867.0459a2.667,2.667,0,0,0,.2178,1.0908,2.914,2.914,0,0,0,.5742.8613,2.5215,2.5215,0,0,0,.85.5743,2.7471,2.7471,0,0,0,2.09,0,2.5215,2.5215,0,0,0,.85-.5743,2.914,2.914,0,0,0,.5742-.8613,2.6112,2.6112,0,0,0,.2187-1.0679,2.559,2.559,0,0,0-.2187-1.0449,2.927,2.927,0,0,0-.5742-.8613,2.5374,2.5374,0,0,0-.85-.5742,2.7459,2.7459,0,0,0-2.09,0,2.5374,2.5374,0,0,0-.85.5742,2.97,2.97,0,0,0-.5742.85A2.4758,2.4758,0,0,0,14.0322,66.1333Z"/><path class="cls-1" d="M30.1074,60.3V66.937a1.8986,1.8986,0,0,0,2.1133,2.1821A1.899,1.899,0,0,0,34.334,66.937V60.3H38.49v7.4414a4.2131,4.2131,0,0,1-1.5732,3.5825,7.7087,7.7087,0,0,1-4.6963,1.1944,7.7069,7.7069,0,0,1-4.6963-1.1944,4.2131,4.2131,0,0,1-1.5732-3.5825V60.3Z"/><path class="cls-1" d="M45.2422,53.02V72.0815H41.0859V53.02Z"/><path class="cls-1" d="M51.6045,66.8911q0,2.6873,2.5254,2.687a2.2588,2.2588,0,0,0,2.0449-1.102h4.0186q-1.2174,4.0422-6.086,4.042A7.9917,7.9917,0,0,1,51.374,72.07a6.0938,6.0938,0,0,1-2.124-1.2744A5.6733,5.6733,0,0,1,47.8838,68.82a6.584,6.584,0,0,1-.4824-2.5723,7.2885,7.2885,0,0,1,.459-2.6523,5.5874,5.5874,0,0,1,1.31-2.01,5.7894,5.7894,0,0,1,2.0557-1.2744,7.7673,7.7673,0,0,1,2.7207-.4477,7.6091,7.6091,0,0,1,2.6875.4477,5.4407,5.4407,0,0,1,2.02,1.2974,5.64,5.64,0,0,1,1.2637,2.0786,8.2571,8.2571,0,0,1,.4365,2.7676v.436ZM56.4727,64.48a2.4985,2.4985,0,0,0-.85-1.4009,2.6349,2.6349,0,0,0-3.1347-.0229,2.286,2.286,0,0,0-.77,1.4238Z"/><path class="cls-1" d="M79.1631,53.02h4.18V72.0815h-4.18v-1.309a4.3637,4.3637,0,0,1-3.6065,1.6767,5.7351,5.7351,0,0,1-2.3652-.4824,5.8471,5.8471,0,0,1-1.8828-1.332,6.0978,6.0978,0,0,1-1.252-1.9981,7.0326,7.0326,0,0,1-.0224-4.88A5.9936,5.9936,0,0,1,71.2393,61.77a5.7063,5.7063,0,0,1,4.2714-1.8374,4.8021,4.8021,0,0,1,3.6524,1.5386ZM73.9268,66.1562a2.74,2.74,0,0,0,.7695,1.9292,2.5019,2.5019,0,0,0,.85.5743,2.7362,2.7362,0,0,0,1.0674.2065,2.6808,2.6808,0,0,0,1.0449-.2065,2.5215,2.5215,0,0,0,.85-.5743,2.9674,2.9674,0,0,0,.5742-.85,2.4785,2.4785,0,0,0,.2188-1.0337,2.5591,2.5591,0,0,0-.2188-1.0449,2.927,2.927,0,0,0-.5742-.8613,2.5288,2.5288,0,0,0-.85-.5737,2.74,2.74,0,0,0-2.09,0,2.5288,2.5288,0,0,0-.85.5737,3.0287,3.0287,0,0,0-.5743.8384A2.4005,2.4005,0,0,0,73.9268,66.1562Z"/><path class="cls-1" d="M89.6816,66.8911q0,2.6873,2.5254,2.687a2.2589,2.2589,0,0,0,2.045-1.102h4.0185q-1.2172,4.0422-6.0859,4.042a7.9913,7.9913,0,0,1-2.7334-.4483,6.0934,6.0934,0,0,1-2.1241-1.2744A5.6733,5.6733,0,0,1,85.9609,68.82a6.584,6.584,0,0,1-.4824-2.5723,7.2885,7.2885,0,0,1,.459-2.6523,5.5876,5.5876,0,0,1,1.31-2.01,5.789,5.789,0,0,1,2.0556-1.2744,7.7677,7.7677,0,0,1,2.7207-.4477,7.6083,7.6083,0,0,1,2.6875.4477,5.44,5.44,0,0,1,2.02,1.2974,5.64,5.64,0,0,1,1.2637,2.0786,8.2546,8.2546,0,0,1,.4365,2.7676v.436ZM94.55,64.48a2.4989,2.4989,0,0,0-.85-1.4009,2.6351,2.6351,0,0,0-3.1348-.0229,2.2865,2.2865,0,0,0-.7695,1.4238Z"/><path class="cls-1" d="M117.24,77.9614V70.9331a4.8354,4.8354,0,0,1-3.6523,1.5161,5.6863,5.6863,0,0,1-4.2139-1.8144,6.2261,6.2261,0,0,1-1.24-1.9869,6.5429,6.5429,0,0,1-.4483-2.4228,6.6092,6.6092,0,0,1,.46-2.48,6.2379,6.2379,0,0,1,1.2627-1.998,5.8537,5.8537,0,0,1,1.8838-1.3321,5.668,5.668,0,0,1,2.3418-.4824,4.3642,4.3642,0,0,1,3.6064,1.6763V60.3h4.18V77.9614Zm-5.2363-11.8052a2.7408,2.7408,0,0,0,.7695,1.9292,2.5039,2.5039,0,0,0,.85.5743,2.7362,2.7362,0,0,0,1.0674.2065,2.6816,2.6816,0,0,0,1.045-.2065,2.5215,2.5215,0,0,0,.85-.5743,2.914,2.914,0,0,0,.5742-.8613,2.5552,2.5552,0,0,0,.2187-1.0449,2.4765,2.4765,0,0,0-.2187-1.0332,2.97,2.97,0,0,0-.5742-.85,2.5288,2.5288,0,0,0-.85-.5737,2.74,2.74,0,0,0-2.09,0,2.5288,2.5288,0,0,0-.85.5737,3.03,3.03,0,0,0-.5742.8384A2.4006,2.4006,0,0,0,112.0039,66.1562Z"/><path class="cls-1" d="M128.5615,60.3V66.937a2.1139,2.1139,0,1,0,4.2256,0V60.3h4.1572v7.4414a4.2157,4.2157,0,0,1-1.5732,3.5825,9.8319,9.8319,0,0,1-9.3936,0,4.2131,4.2131,0,0,1-1.5732-3.5825V60.3Z"/><path class="cls-1" d="M143.2822,66.8911q0,2.6873,2.5264,2.687a2.256,2.256,0,0,0,2.0439-1.102h4.02q-1.2187,4.0422-6.0869,4.042a7.9861,7.9861,0,0,1-2.7325-.4483,6.0847,6.0847,0,0,1-2.124-1.2744,5.6892,5.6892,0,0,1-1.3672-1.9751,6.584,6.584,0,0,1-.4824-2.5723,7.2674,7.2674,0,0,1,.46-2.6523,5.571,5.571,0,0,1,1.3086-2.01,5.7978,5.7978,0,0,1,2.0556-1.2744,7.77,7.77,0,0,1,2.7217-.4477,7.6,7.6,0,0,1,2.6865.4477,5.4527,5.4527,0,0,1,2.0215,1.2974,5.651,5.651,0,0,1,1.2627,2.0786,8.232,8.232,0,0,1,.4365,2.7676v.436Zm4.8692-2.4111a2.5044,2.5044,0,0,0-.85-1.4009,2.6351,2.6351,0,0,0-3.1348-.0229,2.2813,2.2813,0,0,0-.7695,1.4238Z"/><path class="cls-1" d="M161.9766,63.3315a4.86,4.86,0,0,0-2.251-.5971,1.6911,1.6911,0,0,0-.93.23.7055.7055,0,0,0-.3555.62.8152.8152,0,0,0,.0567.333.59.59,0,0,0,.2529.2412,2.1535,2.1535,0,0,0,.5742.2065q.3794.0924.999.23a4.7716,4.7716,0,0,1,2.5723,1.2285,3.1323,3.1323,0,0,1,.85,2.2622,4.1054,4.1054,0,0,1-.4131,1.86,3.9683,3.9683,0,0,1-1.1484,1.3892,5.4671,5.4671,0,0,1-1.7686.873,7.8946,7.8946,0,0,1-2.2734.31,9.2373,9.2373,0,0,1-4.708-1.355l1.5156-2.94a5.9181,5.9181,0,0,0,3.3067,1.1944,1.6289,1.6289,0,0,0,.9423-.2525.7567.7567,0,0,0,.3672-.643,1.0715,1.0715,0,0,0-.0576-.3789.6207.6207,0,0,0-.2412-.2759,1.935,1.935,0,0,0-.54-.23q-.356-.1034-.93-.2183a5.3223,5.3223,0,0,1-2.6983-1.16,2.8675,2.8675,0,0,1-.7695-2.1245,4.18,4.18,0,0,1,.3672-1.78,3.6918,3.6918,0,0,1,1.0566-1.3438,4.95,4.95,0,0,1,1.6651-.85,7.41,7.41,0,0,1,2.17-.2983,9.8494,9.8494,0,0,1,3.79.7578Z"/><path class="cls-1" d="M170.5889,63.7681v8.3134h-4.1573V63.7681h-1.3779V60.3h1.3779V56.7632h4.1573V60.3h2.3652v3.4683Z"/><path class="cls-1" d="M174.3311,55.7759a2.268,2.268,0,0,1,.1835-.9072,2.3875,2.3875,0,0,1,1.252-1.252,2.3334,2.3334,0,0,1,1.8145,0,2.3814,2.3814,0,0,1,1.2509,1.252,2.32,2.32,0,0,1,0,1.8139,2.3814,2.3814,0,0,1-1.2509,1.252,2.3334,2.3334,0,0,1-1.8145,0,2.3875,2.3875,0,0,1-1.252-1.252A2.2656,2.2656,0,0,1,174.3311,55.7759ZM178.7637,60.3V72.0815h-4.1573V60.3Z"/><path class="cls-1" d="M180.9219,66.0874a5.7409,5.7409,0,0,1,.5283-2.4458,6.0135,6.0135,0,0,1,1.47-1.9751,6.9993,6.9993,0,0,1,2.2393-1.3208,8.0876,8.0876,0,0,1,2.8369-.4819,8.1985,8.1985,0,0,1,2.8135.4707,6.9683,6.9683,0,0,1,2.25,1.3091,5.8773,5.8773,0,0,1,1.4814,1.998,6.1,6.1,0,0,1,.5283,2.5605,5.9884,5.9884,0,0,1-.54,2.5611,6.0861,6.0861,0,0,1-1.4805,1.998,6.6474,6.6474,0,0,1-2.2627,1.2974,8.6537,8.6537,0,0,1-2.8593.46,8.2755,8.2755,0,0,1-2.8018-.46,6.4664,6.4664,0,0,1-2.2158-1.3091,6.0743,6.0743,0,0,1-1.459-2.0327A6.3848,6.3848,0,0,1,180.9219,66.0874Zm4.3867.0459a2.6527,2.6527,0,0,0,.2187,1.0908,2.8781,2.8781,0,0,0,.5743.8613,2.5019,2.5019,0,0,0,.85.5743,2.7469,2.7469,0,0,0,2.09,0,2.5215,2.5215,0,0,0,.85-.5743,2.914,2.914,0,0,0,.5742-.8613,2.609,2.609,0,0,0,.2178-1.0679,2.5566,2.5566,0,0,0-.2178-1.0449,2.927,2.927,0,0,0-.5742-.8613,2.5374,2.5374,0,0,0-.85-.5742,2.7456,2.7456,0,0,0-2.09,0,2.5175,2.5175,0,0,0-.85.5742,2.932,2.932,0,0,0-.5743.85A2.4626,2.4626,0,0,0,185.3086,66.1333Z"/><path class="cls-1" d="M197.2285,60.3h4.1563V61.793a4.5543,4.5543,0,0,1,1.7226-1.39,5.3921,5.3921,0,0,1,2.044-.3559,5.1156,5.1156,0,0,1,2.125.4018,4.2429,4.2429,0,0,1,1.5039,1.1367,3.2638,3.2638,0,0,1,.6885,1.3321,6.9118,6.9118,0,0,1,.1845,1.6767v7.4868h-4.1572V66.1333a6.4191,6.4191,0,0,0-.126-1.4121,1.76,1.76,0,0,0-.4482-.8613,1.5743,1.5743,0,0,0-.62-.3907,2.3207,2.3207,0,0,0-.7344-.1147,2.0542,2.0542,0,0,0-1.6192.6313,2.62,2.62,0,0,0-.5634,1.8033v6.2924h-4.1563Z"/><path class="cls-1" d="M220.0556,63.3315a4.8594,4.8594,0,0,0-2.2509-.5971,1.6911,1.6911,0,0,0-.93.23.7055.7055,0,0,0-.3555.62.8152.8152,0,0,0,.0567.333.59.59,0,0,0,.2529.2412,2.1535,2.1535,0,0,0,.5742.2065q.3794.0924.999.23a4.7716,4.7716,0,0,1,2.5723,1.2285,3.1323,3.1323,0,0,1,.85,2.2622,4.1054,4.1054,0,0,1-.4131,1.86,3.9683,3.9683,0,0,1-1.1484,1.3892,5.4671,5.4671,0,0,1-1.7686.873,7.8946,7.8946,0,0,1-2.2734.31,9.2373,9.2373,0,0,1-4.708-1.355l1.5156-2.94a5.9181,5.9181,0,0,0,3.3067,1.1944,1.6289,1.6289,0,0,0,.9423-.2525.7567.7567,0,0,0,.3672-.643,1.0715,1.0715,0,0,0-.0576-.3789.6207.6207,0,0,0-.2412-.2759,1.9345,1.9345,0,0,0-.54-.23q-.3558-.1034-.93-.2183a5.3223,5.3223,0,0,1-2.6983-1.16,2.8675,2.8675,0,0,1-.7695-2.1245,4.18,4.18,0,0,1,.3672-1.78,3.6918,3.6918,0,0,1,1.0566-1.3438,4.95,4.95,0,0,1,1.6651-.85,7.41,7.41,0,0,1,2.17-.2983,9.849,9.849,0,0,1,3.79.7578Z"/><path class="cls-1" d="M223.501,69.877a2.6869,2.6869,0,1,1,.206,1.0449A2.6791,2.6791,0,0,1,223.501,69.877Z"/><path class="cls-2" d="M16.7988,117.5161V100.2H21.3l8.3145,10.5879V100.2h4.4785v17.3164H29.6143L21.3,106.9292v10.5869Z"/><path class="cls-2" d="M36.8252,111.522a5.7269,5.7269,0,0,1,.5283-2.4453,6.006,6.006,0,0,1,1.47-1.9756,6.99,6.99,0,0,1,2.2393-1.32,8.0825,8.0825,0,0,1,2.8359-.4825,8.2,8.2,0,0,1,2.8135.4707,6.9852,6.9852,0,0,1,2.251,1.31,5.88,5.88,0,0,1,1.4814,1.9981,6.1152,6.1152,0,0,1,.5284,2.5605,6,6,0,0,1-.54,2.5606,6.0783,6.0783,0,0,1-1.4814,1.998,6.6361,6.6361,0,0,1-2.2617,1.2979,8.6672,8.6672,0,0,1-2.8594.4589,8.2841,8.2841,0,0,1-2.8018-.4589,6.4705,6.4705,0,0,1-2.2168-1.31,6.0582,6.0582,0,0,1-1.458-2.0322A6.3714,6.3714,0,0,1,36.8252,111.522Zm4.3867.0459a2.667,2.667,0,0,0,.2178,1.0908,2.9011,2.9011,0,0,0,.5742.8613,2.5227,2.5227,0,0,0,.85.5742,2.74,2.74,0,0,0,2.09,0,2.5227,2.5227,0,0,0,.85-.5742,2.9011,2.9011,0,0,0,.5742-.8613,2.6092,2.6092,0,0,0,.2187-1.0674,2.5569,2.5569,0,0,0-.2187-1.0449,2.927,2.927,0,0,0-.5742-.8613,2.5215,2.5215,0,0,0-.85-.5743,2.741,2.741,0,0,0-2.09,0,2.5215,2.5215,0,0,0-.85.5743,2.9743,2.9743,0,0,0-.5742.85A2.4758,2.4758,0,0,0,41.2119,111.5679Z"/><path class="cls-2" d="M57.2871,105.7349v6.6367a2.1144,2.1144,0,1,0,4.2266,0v-6.6367H65.67v7.4414a4.2127,4.2127,0,0,1-1.5732,3.582A7.7087,7.7087,0,0,1,59.4,117.9526a7.7069,7.7069,0,0,1-4.6963-1.1943,4.2127,4.2127,0,0,1-1.5732-3.582v-7.4414Z"/><path class="cls-2" d="M76.0742,108.7661a4.868,4.868,0,0,0-2.251-.5967,1.685,1.685,0,0,0-.93.23.704.704,0,0,0-.3565.62.8012.8012,0,0,0,.0576.3331.5908.5908,0,0,0,.252.2412,2.2015,2.2015,0,0,0,.5742.206q.3794.0922.999.23a4.7681,4.7681,0,0,1,2.5723,1.2285,3.1317,3.1317,0,0,1,.85,2.2617,4.1024,4.1024,0,0,1-.4131,1.86,3.9469,3.9469,0,0,1-1.1484,1.39,5.4682,5.4682,0,0,1-1.7686.8731,7.907,7.907,0,0,1-2.2734.3095,9.2408,9.2408,0,0,1-4.708-1.3545l1.5156-2.94a5.92,5.92,0,0,0,3.3076,1.1944,1.63,1.63,0,0,0,.9414-.252.7556.7556,0,0,0,.3672-.6436,1.0757,1.0757,0,0,0-.0566-.3789.6241.6241,0,0,0-.2412-.2754,1.9255,1.9255,0,0,0-.54-.2294c-.2373-.0694-.5478-.1416-.93-.2188a5.3265,5.3265,0,0,1-2.6992-1.1592,2.8715,2.8715,0,0,1-.77-2.125,4.1777,4.1777,0,0,1,.3681-1.7793,3.6763,3.6763,0,0,1,1.0557-1.3437,4.97,4.97,0,0,1,1.665-.85,7.3965,7.3965,0,0,1,2.1709-.2989,9.854,9.854,0,0,1,3.7891.7579Z"/><path class="cls-2" d="M95.1123,108.7661a4.868,4.868,0,0,0-2.251-.5967,1.6856,1.6856,0,0,0-.93.23.7041.7041,0,0,0-.3564.62.8012.8012,0,0,0,.0576.3331.5908.5908,0,0,0,.252.2412,2.2015,2.2015,0,0,0,.5742.206q.3793.0922.999.23a4.7684,4.7684,0,0,1,2.5723,1.2285,3.1317,3.1317,0,0,1,.85,2.2617,4.1024,4.1024,0,0,1-.4131,1.86,3.9469,3.9469,0,0,1-1.1484,1.39,5.4682,5.4682,0,0,1-1.7686.8731,7.907,7.907,0,0,1-2.2734.3095,9.2408,9.2408,0,0,1-4.708-1.3545l1.5156-2.94a5.9194,5.9194,0,0,0,3.3076,1.1944,1.63,1.63,0,0,0,.9414-.252.7556.7556,0,0,0,.3672-.6436,1.078,1.078,0,0,0-.0566-.3789.6237.6237,0,0,0-.2413-.2754,1.9234,1.9234,0,0,0-.54-.2294c-.2373-.0694-.5478-.1416-.93-.2188a5.3265,5.3265,0,0,1-2.6992-1.1592,2.8715,2.8715,0,0,1-.77-2.125,4.1777,4.1777,0,0,1,.3681-1.7793,3.6763,3.6763,0,0,1,1.0557-1.3437,4.9688,4.9688,0,0,1,1.665-.85,7.3965,7.3965,0,0,1,2.1709-.2989,9.854,9.854,0,0,1,3.7891.7579Z"/><path class="cls-2" d="M98.3037,111.522a5.7417,5.7417,0,0,1,.5283-2.4453,6.0189,6.0189,0,0,1,1.47-1.9756,6.9887,6.9887,0,0,1,2.2392-1.32,8.0881,8.0881,0,0,1,2.8369-.4825,8.2,8.2,0,0,1,2.8135.4707,6.9792,6.9792,0,0,1,2.25,1.31,5.87,5.87,0,0,1,1.4815,1.9981,6.1012,6.1012,0,0,1,.5283,2.5605,5.9847,5.9847,0,0,1-.54,2.5606,6.0755,6.0755,0,0,1-1.48,1.998,6.6484,6.6484,0,0,1-2.2627,1.2979,8.6672,8.6672,0,0,1-2.8594.4589,8.2886,8.2886,0,0,1-2.8018-.4589,6.4754,6.4754,0,0,1-2.2158-1.31,6.0747,6.0747,0,0,1-1.459-2.0322A6.3874,6.3874,0,0,1,98.3037,111.522Zm4.3867.0459a2.6511,2.6511,0,0,0,.2188,1.0908,2.8634,2.8634,0,0,0,.5742.8613,2.5031,2.5031,0,0,0,.85.5742,2.74,2.74,0,0,0,2.09,0,2.5227,2.5227,0,0,0,.85-.5742,2.9011,2.9011,0,0,0,.5742-.8613,2.6086,2.6086,0,0,0,.2178-1.0674,2.5562,2.5562,0,0,0-.2178-1.0449,2.927,2.927,0,0,0-.5742-.8613,2.5215,2.5215,0,0,0-.85-.5743,2.741,2.741,0,0,0-2.09,0,2.5019,2.5019,0,0,0-.85.5743,2.934,2.934,0,0,0-.5742.85A2.4611,2.4611,0,0,0,102.69,111.5679Z"/><path class="cls-2" d="M114.61,105.7349h4.1562v1.4472a5.3776,5.3776,0,0,1,3.8125-1.6308,4.4316,4.4316,0,0,1,3.9961,2.2041,4.4575,4.4575,0,0,1,3.9961-2.2276,4.9947,4.9947,0,0,1,1.5615.2412,3.2255,3.2255,0,0,1,1.2637.7579,3.6322,3.6322,0,0,1,.8379,1.3437,5.6958,5.6958,0,0,1,.3105,1.9981v7.6474h-4.1572v-5.81a7.0565,7.0565,0,0,0-.126-1.47,2.3366,2.3366,0,0,0-.3681-.8955,1.22,1.22,0,0,0-.5625-.4365,2.0409,2.0409,0,0,0-.6885-.1142q-1.9981,0-1.9981,2.916v5.81h-4.1572v-5.81a7.9318,7.9318,0,0,0-.1143-1.4805,2.76,2.76,0,0,0-.333-.9307,1.1156,1.1156,0,0,0-.5634-.4707,2.5238,2.5238,0,0,0-1.5381-.0117,1.31,1.31,0,0,0-.6084.4483,2.4284,2.4284,0,0,0-.4141.9189,6.3583,6.3583,0,0,0-.1494,1.5264v5.81H114.61Z"/><path class="cls-2" d="M137.1621,105.7349h4.1572v1.4472a5.376,5.376,0,0,1,3.8125-1.6308,4.4335,4.4335,0,0,1,3.9961,2.2041,4.4576,4.4576,0,0,1,3.9961-2.2276,4.9988,4.9988,0,0,1,1.5615.2412,3.22,3.22,0,0,1,1.2627.7579,3.6313,3.6313,0,0,1,.8389,1.3437,5.7178,5.7178,0,0,1,.31,1.9981v7.6474H152.94v-5.81a7.0487,7.0487,0,0,0-.1269-1.47,2.3228,2.3228,0,0,0-.3672-.8955,1.2286,1.2286,0,0,0-.5625-.4365,2.0463,2.0463,0,0,0-.69-.1142q-1.998,0-1.998,2.916v5.81H145.04v-5.81a7.9222,7.9222,0,0,0-.1152-1.4805,2.741,2.741,0,0,0-.333-.9307,1.1137,1.1137,0,0,0-.5625-.4707,2.5271,2.5271,0,0,0-1.5391-.0117,1.31,1.31,0,0,0-.6084.4483,2.4453,2.4453,0,0,0-.413.9189,6.3525,6.3525,0,0,0-.1495,1.5264v5.81h-4.1572Z"/><path class="cls-2" d="M163.459,112.3257q0,2.688,2.5254,2.6875a2.2581,2.2581,0,0,0,2.0449-1.1026h4.0186q-1.2174,4.0431-6.086,4.042a7.9941,7.9941,0,0,1-2.7334-.4482,6.0809,6.0809,0,0,1-2.124-1.2744,5.6654,5.6654,0,0,1-1.3662-1.9746,6.5882,6.5882,0,0,1-.4824-2.5723,7.288,7.288,0,0,1,.4589-2.6523,5.58,5.58,0,0,1,1.31-2.01,5.7726,5.7726,0,0,1,2.0557-1.2744,7.7671,7.7671,0,0,1,2.7207-.4483,7.6089,7.6089,0,0,1,2.6875.4483,5.4371,5.4371,0,0,1,2.02,1.2969,5.6428,5.6428,0,0,1,1.2637,2.0791,8.2548,8.2548,0,0,1,.4365,2.7675v.4356Zm4.8681-2.4111a2.495,2.495,0,0,0-.85-1.4,2.6358,2.6358,0,0,0-3.1347-.0235,2.2866,2.2866,0,0,0-.77,1.4239Z"/><path class="cls-2" d="M182.1533,108.7661a4.868,4.868,0,0,0-2.251-.5967,1.685,1.685,0,0,0-.93.23.704.704,0,0,0-.3565.62.8012.8012,0,0,0,.0576.3331.5908.5908,0,0,0,.252.2412,2.2015,2.2015,0,0,0,.5742.206q.3794.0922.999.23a4.7681,4.7681,0,0,1,2.5723,1.2285,3.1317,3.1317,0,0,1,.85,2.2617,4.1024,4.1024,0,0,1-.4131,1.86,3.9469,3.9469,0,0,1-1.1484,1.39,5.4682,5.4682,0,0,1-1.7686.8731,7.907,7.907,0,0,1-2.2734.3095,9.2408,9.2408,0,0,1-4.708-1.3545l1.5156-2.94a5.92,5.92,0,0,0,3.3076,1.1944,1.63,1.63,0,0,0,.9414-.252.7556.7556,0,0,0,.3672-.6436,1.0757,1.0757,0,0,0-.0566-.3789.6241.6241,0,0,0-.2412-.2754,1.9255,1.9255,0,0,0-.54-.2294c-.2373-.0694-.5478-.1416-.93-.2188a5.3265,5.3265,0,0,1-2.6992-1.1592,2.8715,2.8715,0,0,1-.77-2.125,4.1777,4.1777,0,0,1,.3681-1.7793,3.6763,3.6763,0,0,1,1.0557-1.3437,4.9693,4.9693,0,0,1,1.6651-.85,7.3953,7.3953,0,0,1,2.1708-.2989,9.854,9.854,0,0,1,3.7891.7579Z"/><path class="cls-2" d="M197.5391,98.4546v19.0615h-4.1563V98.4546Z"/><path class="cls-2" d="M209.252,105.7349h4.18v11.7812h-4.18v-1.3086a4.363,4.363,0,0,1-3.6055,1.6768,5.8389,5.8389,0,0,1-2.3653-.4717,5.7033,5.7033,0,0,1-1.8837-1.32,6.0746,6.0746,0,0,1-1.251-1.9981,6.8245,6.8245,0,0,1-.4483-2.5029,6.6406,6.6406,0,0,1,.4366-2.4,6.1538,6.1538,0,0,1,1.2168-1.9863,5.7535,5.7535,0,0,1,1.86-1.3438,5.6752,5.6752,0,0,1,2.3887-.4931,4.8,4.8,0,0,1,3.6514,1.5381Zm-6.1084-5.2588,2.6406-1.9063,3.2842,4.0186-1.9288,1.4238Zm.872,11.1152a2.7518,2.7518,0,0,0,.77,1.9287,2.5217,2.5217,0,0,0,.85.5742,2.741,2.741,0,0,0,1.0683.2071,2.6845,2.6845,0,0,0,1.0449-.2071,2.5231,2.5231,0,0,0,.85-.5742,2.96,2.96,0,0,0,.5742-.85,2.4758,2.4758,0,0,0,.2177-1.0332,2.5561,2.5561,0,0,0-.2177-1.0449,2.927,2.927,0,0,0-.5742-.8613,2.5219,2.5219,0,0,0-.85-.5743,2.6844,2.6844,0,0,0-1.0449-.207,2.741,2.741,0,0,0-1.0683.207,2.5205,2.5205,0,0,0-.85.5743,2.8334,2.8334,0,0,0-.5625.8378A2.5213,2.5213,0,0,0,204.0156,111.5913Z"/><path class="cls-2" d="M20.9785,150.7778H16.8213V133.1167h4.1572v1.31a4.3874,4.3874,0,0,1,3.6289-1.6768,5.6423,5.6423,0,0,1,2.3535.4942,5.9669,5.9669,0,0,1,1.8946,1.3437,6.0954,6.0954,0,0,1,1.2519,1.998,6.6959,6.6959,0,0,1,.4483,2.4571,6.5183,6.5183,0,0,1-.4483,2.4346,6.2609,6.2609,0,0,1-1.24,1.9746,5.6863,5.6863,0,0,1-4.2139,1.8144,4.907,4.907,0,0,1-3.6748-1.5156Zm5.2363-11.7353a2.8215,2.8215,0,0,0-.1953-1.0449,2.5175,2.5175,0,0,0-.5625-.8614,2.815,2.815,0,0,0-.8613-.5859,2.613,2.613,0,0,0-1.0684-.2178,2.59,2.59,0,0,0-1.8711.78,2.91,2.91,0,0,0-.5742.8613,2.5607,2.5607,0,0,0-.2187,1.0449,2.6007,2.6007,0,0,0,.207,1.0342,2.5528,2.5528,0,0,0,.5742.8379,2.9145,2.9145,0,0,0,.8614.5742,2.5562,2.5562,0,0,0,1.0449.2178,2.5973,2.5973,0,0,0,1.0332-.206,2.5531,2.5531,0,0,0,.8379-.5743,2.9743,2.9743,0,0,0,.5742-.85A2.4263,2.4263,0,0,0,26.2148,139.0425Z"/><path class="cls-2" d="M32.2314,138.9048a5.7415,5.7415,0,0,1,.5284-2.4463,6.0064,6.0064,0,0,1,1.47-1.9746,7.0084,7.0084,0,0,1,2.2393-1.3213,8.0876,8.0876,0,0,1,2.8369-.4814,8.1976,8.1976,0,0,1,2.8134.4707,6.9577,6.9577,0,0,1,2.25,1.3085,5.8876,5.8876,0,0,1,1.4815,1.9981,6.1012,6.1012,0,0,1,.5283,2.5605,5.9907,5.9907,0,0,1-.54,2.5616,6.0965,6.0965,0,0,1-1.48,1.998,6.6465,6.6465,0,0,1-2.2627,1.2969,8.6415,8.6415,0,0,1-2.8594.46,8.2631,8.2631,0,0,1-2.8017-.46,6.4566,6.4566,0,0,1-2.2158-1.3086,6.075,6.075,0,0,1-1.459-2.0332A6.3841,6.3841,0,0,1,32.2314,138.9048Zm4.3868.0459a2.651,2.651,0,0,0,.2187,1.0908,2.89,2.89,0,0,0,.5742.8613,2.5053,2.5053,0,0,0,.85.5743,2.7533,2.7533,0,0,0,2.09,0,2.523,2.523,0,0,0,.85-.5743,2.927,2.927,0,0,0,.5742-.8613,2.613,2.613,0,0,0,.2178-1.0684,2.56,2.56,0,0,0-.2178-1.0449,2.927,2.927,0,0,0-.5742-.8613,2.5507,2.5507,0,0,0-.85-.5742,2.7521,2.7521,0,0,0-2.09,0,2.5326,2.5326,0,0,0-.85.5742,2.9274,2.9274,0,0,0-.5742.8506A2.461,2.461,0,0,0,36.6182,138.9507Z"/><path class="cls-2" d="M52.6943,133.1167v6.6377a2.1139,2.1139,0,1,0,4.2256,0v-6.6377h4.1572v7.4414a4.2158,4.2158,0,0,1-1.5732,3.583,7.7118,7.7118,0,0,1-4.6973,1.1943,7.7084,7.7084,0,0,1-4.6962-1.1943,4.2132,4.2132,0,0,1-1.5733-3.583v-7.4414Z"/><path class="cls-2" d="M63.6719,133.1167h4.1572v1.93a4.7662,4.7662,0,0,1,1.6309-1.6192,4.3825,4.3825,0,0,1,2.25-.5625h.3564a2.57,2.57,0,0,1,.4473.0459v3.9727a3.9477,3.9477,0,0,0-1.791-.4131,2.6732,2.6732,0,0,0-2.17.8613,3.8177,3.8177,0,0,0-.7236,2.5147v5.0527H63.6719Z"/><path class="cls-2" d="M84.9609,133.1167l2.8018,6.04,2.8477-6.04h4.64l-6.1318,11.7822H86.3389l-6.0625-11.7822Z"/><path class="cls-2" d="M95.3877,138.9048a5.743,5.743,0,0,1,.5283-2.4463,6.0078,6.0078,0,0,1,1.47-1.9746,7.0106,7.0106,0,0,1,2.2393-1.3213,8.0876,8.0876,0,0,1,2.8369-.4814,8.1977,8.1977,0,0,1,2.8135.4707,6.96,6.96,0,0,1,2.25,1.3085,5.8874,5.8874,0,0,1,1.4814,1.9981,6.1,6.1,0,0,1,.5284,2.5605,5.9893,5.9893,0,0,1-.54,2.5616,6.0965,6.0965,0,0,1-1.48,1.998,6.6469,6.6469,0,0,1-2.2626,1.2969,8.6415,8.6415,0,0,1-2.8594.46,8.2633,8.2633,0,0,1-2.8018-.46,6.4575,6.4575,0,0,1-2.2158-1.3086,6.0777,6.0777,0,0,1-1.459-2.0332A6.3857,6.3857,0,0,1,95.3877,138.9048Zm4.3867.0459a2.6511,2.6511,0,0,0,.2188,1.0908,2.8886,2.8886,0,0,0,.5742.8613,2.5033,2.5033,0,0,0,.85.5743,2.753,2.753,0,0,0,2.09,0,2.523,2.523,0,0,0,.85-.5743,2.9253,2.9253,0,0,0,.5743-.8613,2.6129,2.6129,0,0,0,.2177-1.0684,2.56,2.56,0,0,0-.2177-1.0449,2.9253,2.9253,0,0,0-.5743-.8613,2.5507,2.5507,0,0,0-.85-.5742,2.7518,2.7518,0,0,0-2.09,0,2.5306,2.5306,0,0,0-.85.5742,2.9254,2.9254,0,0,0-.5742.8506A2.4611,2.4611,0,0,0,99.7744,138.9507Z"/><path class="cls-2" d="M115.8506,133.1167v6.6377a2.1143,2.1143,0,1,0,4.2265,0v-6.6377h4.1563v7.4414a4.2134,4.2134,0,0,1-1.5732,3.583,9.8307,9.8307,0,0,1-9.3926,0,4.2135,4.2135,0,0,1-1.5733-3.583v-7.4414Z"/><path class="cls-2" d="M134.6367,136.1489a4.8543,4.8543,0,0,0-2.251-.5976,1.695,1.695,0,0,0-.93.23.7061.7061,0,0,0-.3555.62.8138.8138,0,0,0,.0566.333.5885.5885,0,0,0,.253.2412,2.135,2.135,0,0,0,.5742.207q.3794.0924.999.23a4.7755,4.7755,0,0,1,2.5723,1.2285,3.1326,3.1326,0,0,1,.85,2.2627,4.1084,4.1084,0,0,1-.4131,1.86,3.9733,3.9733,0,0,1-1.1484,1.3887,5.458,5.458,0,0,1-1.7686.873,7.8815,7.8815,0,0,1-2.2734.31,9.2376,9.2376,0,0,1-4.708-1.3554l1.5156-2.9395a5.9219,5.9219,0,0,0,3.3066,1.1944,1.6256,1.6256,0,0,0,.9424-.253.7562.7562,0,0,0,.3672-.6425,1.0706,1.0706,0,0,0-.0576-.379.6242.6242,0,0,0-.2412-.2763,1.9522,1.9522,0,0,0-.54-.23q-.3559-.1026-.93-.2178a5.3221,5.3221,0,0,1-2.6982-1.16,2.8668,2.8668,0,0,1-.7695-2.1241,4.1815,4.1815,0,0,1,.3671-1.78,3.6973,3.6973,0,0,1,1.0567-1.3438,4.9507,4.9507,0,0,1,1.665-.85,7.4269,7.4269,0,0,1,2.17-.2978,9.84,9.84,0,0,1,3.79.7578Z"/><path class="cls-2" d="M154.9619,133.1167h4.18v11.7822h-4.18v-1.3095a4.3621,4.3621,0,0,1-3.6064,1.6767,5.8583,5.8583,0,0,1-2.3653-.4707,5.69,5.69,0,0,1-1.8828-1.32,6.0954,6.0954,0,0,1-1.2519-1.998,6.8249,6.8249,0,0,1-.4483-2.504,6.6331,6.6331,0,0,1,.4366-2.3994,6.1734,6.1734,0,0,1,1.2177-1.9863,5.7283,5.7283,0,0,1,1.86-1.3437,5.671,5.671,0,0,1,2.3877-.4942,4.8023,4.8023,0,0,1,3.6523,1.5391Zm-5.2363,5.8564a2.74,2.74,0,0,0,.77,1.93,2.5033,2.5033,0,0,0,.85.5743,2.7378,2.7378,0,0,0,1.0674.206,2.6822,2.6822,0,0,0,1.0449-.206,2.523,2.523,0,0,0,.85-.5743,2.9746,2.9746,0,0,0,.5743-.85,2.4808,2.4808,0,0,0,.2187-1.0342,2.5607,2.5607,0,0,0-.2187-1.0449,2.9272,2.9272,0,0,0-.5743-.8613,2.5334,2.5334,0,0,0-.85-.5732,2.6633,2.6633,0,0,0-1.0449-.2071,2.7186,2.7186,0,0,0-1.0674.2071,2.5136,2.5136,0,0,0-.85.5732,2.8213,2.8213,0,0,0-.5635.8389A2.5121,2.5121,0,0,0,149.7256,138.9731Z"/><path class="cls-2" d="M161.4609,128.5933a2.25,2.25,0,0,1,.1836-.9073,2.3768,2.3768,0,0,1,1.251-1.2519,2.3334,2.3334,0,0,1,1.8145,0,2.3744,2.3744,0,0,1,1.2519,1.2519,2.3309,2.3309,0,0,1,0,1.8135,2.3741,2.3741,0,0,1-1.2519,1.252,2.3334,2.3334,0,0,1-1.8145,0,2.3765,2.3765,0,0,1-1.251-1.252A2.2446,2.2446,0,0,1,161.4609,128.5933Zm4.4317,4.5234v11.7822h-4.1563V133.1167Z"/><path class="cls-2" d="M177.6055,125.8374h4.18v19.0615h-4.18v-1.3095A4.36,4.36,0,0,1,174,145.2661a5.7318,5.7318,0,0,1-2.3652-.4824,5.8523,5.8523,0,0,1-1.8838-1.332,6.0772,6.0772,0,0,1-1.251-1.9981,7.0389,7.0389,0,0,1-.0234-4.88,6.0123,6.0123,0,0,1,1.206-1.9863,5.7052,5.7052,0,0,1,4.2715-1.8379,4.8,4.8,0,0,1,3.6514,1.5391Zm-5.2364,13.1357a2.7518,2.7518,0,0,0,.77,1.93,2.523,2.523,0,0,0,.85.5743,2.7423,2.7423,0,0,0,1.0683.206,2.6863,2.6863,0,0,0,1.045-.206,2.524,2.524,0,0,0,.85-.5743,2.9743,2.9743,0,0,0,.5742-.85,2.48,2.48,0,0,0,.2178-1.0342,2.56,2.56,0,0,0-.2178-1.0449,2.927,2.927,0,0,0-.5742-.8613,2.5344,2.5344,0,0,0-.85-.5732,2.74,2.74,0,0,0-2.09,0,2.5136,2.5136,0,0,0-.85.5732,2.99,2.99,0,0,0-.5742.8389A2.3825,2.3825,0,0,0,172.3691,138.9731Z"/><path class="cls-2" d="M188.124,139.7085q0,2.6865,2.5264,2.6865a2.2566,2.2566,0,0,0,2.0439-1.1015h4.02q-1.2187,4.0414-6.0869,4.0419a7.9885,7.9885,0,0,1-2.7325-.4482,6.1,6.1,0,0,1-2.124-1.2744,5.6945,5.6945,0,0,1-1.3672-1.9756,6.5808,6.5808,0,0,1-.4824-2.5723,7.2689,7.2689,0,0,1,.46-2.6523,5.58,5.58,0,0,1,1.3086-2.01,5.8106,5.8106,0,0,1,2.0556-1.2744,7.77,7.77,0,0,1,2.7217-.4472,7.6,7.6,0,0,1,2.6865.4472,5.4525,5.4525,0,0,1,2.0215,1.2979,5.6481,5.6481,0,0,1,1.2627,2.0781,8.234,8.234,0,0,1,.4365,2.7676v.4365Zm4.8692-2.4111a2.5071,2.5071,0,0,0-.85-1.4014,2.6343,2.6343,0,0,0-3.1348-.0225,2.2815,2.2815,0,0,0-.77,1.4239Z"/><path class="cls-2" d="M199.01,133.1167h4.1562v1.93a4.7835,4.7835,0,0,1,1.6309-1.6192,4.3888,4.3888,0,0,1,2.251-.5625h.3554a2.59,2.59,0,0,1,.4483.0459v3.9727a3.9509,3.9509,0,0,0-1.7911-.4131,2.6753,2.6753,0,0,0-2.1709.8613,3.8177,3.8177,0,0,0-.7236,2.5147v5.0527H199.01Z"/><path class="cls-2" d="M207.8291,142.6938a2.6808,2.6808,0,0,1,.2061-1.0449,2.6391,2.6391,0,0,1,1.4355-1.4355,2.71,2.71,0,0,1,2.9512.5742,2.6525,2.6525,0,0,1,.5742.8613,2.741,2.741,0,0,1,0,2.09,2.6389,2.6389,0,0,1-1.4356,1.4355,2.7407,2.7407,0,0,1-2.09,0,2.6391,2.6391,0,0,1-1.4355-1.4355A2.6809,2.6809,0,0,1,207.8291,142.6938Z"/></svg>