<svg id="Layer_1" data-name="Layer 1" xmlns="http://www.w3.org/2000/svg" width="214.7046" height="129.0742" viewBox="0 0 214.7046 129.0742"><defs><style>.cls-1{fill:#212c32;}</style></defs><title>fram2</title><path class="cls-1" d="M17.7642,10.4033a8.922,8.922,0,0,1,5.707-8.44,11.0043,11.0043,0,0,1,7.728,0,9.1379,9.1379,0,0,1,3.043,1.94,8.8888,8.8888,0,0,1,1.9863,2.9053,9.0465,9.0465,0,0,1,.7119,3.5942,9.29,9.29,0,0,1-.5854,3.33,8.3893,8.3893,0,0,1-1.688,2.7329l2.9394,3.0776-4.1337.6431-1.5845-1.6308a11.4276,11.4276,0,0,1-2.1475.7236,10.5944,10.5944,0,0,1-2.4.2641,10.3606,10.3606,0,0,1-3.87-.7006,8.9561,8.9561,0,0,1-5.707-8.44Zm4.708,0a4.6152,4.6152,0,0,0,.39,1.9063,4.7685,4.7685,0,0,0,2.6069,2.5146,4.951,4.951,0,0,0,1.8716.356,5.3038,5.3038,0,0,0,1.1944-.1377l-2.5723-2.71,4.2485-.5283,1.1944,1.2632a4.44,4.44,0,0,0,.8266-2.6641,4.6228,4.6228,0,0,0-.39-1.9062,4.7422,4.7422,0,0,0-1.0684-1.5157,4.908,4.908,0,0,0-1.5615-.999,5.0991,5.0991,0,0,0-3.7432,0,4.7705,4.7705,0,0,0-1.55.999,4.819,4.819,0,0,0-1.0566,1.5157A4.6164,4.6164,0,0,0,22.4722,10.4033Z"/><path class="cls-1" d="M43.3247,7.28V13.917a1.8985,1.8985,0,0,0,2.1128,2.1821,1.8988,1.8988,0,0,0,2.1133-2.1821V7.28h4.1567v7.4414a4.2144,4.2144,0,0,1-1.5732,3.5825,7.7106,7.7106,0,0,1-4.6968,1.1943,7.7079,7.7079,0,0,1-4.6963-1.1943,4.2131,4.2131,0,0,1-1.5732-3.5825V7.28Z"/><path class="cls-1" d="M58.0459,13.8711q0,2.6872,2.5259,2.687a2.2575,2.2575,0,0,0,2.0444-1.102h4.0191q-1.2182,4.0422-6.0865,4.0419a7.9912,7.9912,0,0,1-2.7329-.4482,6.0893,6.0893,0,0,1-2.124-1.2744A5.6813,5.6813,0,0,1,54.3252,15.8a6.5844,6.5844,0,0,1-.4824-2.5723,7.28,7.28,0,0,1,.4594-2.6523,5.5813,5.5813,0,0,1,1.3091-2.01A5.791,5.791,0,0,1,57.667,7.2915a7.7682,7.7682,0,0,1,2.7212-.4477,7.6043,7.6043,0,0,1,2.687.4477,5.4442,5.4442,0,0,1,2.021,1.2974,5.6445,5.6445,0,0,1,1.2632,2.0786,8.2445,8.2445,0,0,1,.4365,2.7676v.436ZM62.9146,11.46a2.5009,2.5009,0,0,0-.85-1.4009,2.6352,2.6352,0,0,0-3.1347-.023,2.2845,2.2845,0,0,0-.77,1.4239Z"/><path class="cls-1" d="M73.0884,0V19.0615H68.9316V0Z"/><path class="cls-1" d="M83.5151,10.3115a4.861,4.861,0,0,0-2.2509-.5971,1.6906,1.6906,0,0,0-.93.2294.7052.7052,0,0,0-.356.62.8083.8083,0,0,0,.0571.333.59.59,0,0,0,.2525.2412,2.17,2.17,0,0,0,.5742.2065q.3793.0922.999.23a4.7716,4.7716,0,0,1,2.5723,1.2285,3.1323,3.1323,0,0,1,.85,2.2622,4.1054,4.1054,0,0,1-.4131,1.86,3.9594,3.9594,0,0,1-1.1484,1.3891,5.4612,5.4612,0,0,1-1.7686.8731,7.8937,7.8937,0,0,1-2.2734.31,9.24,9.24,0,0,1-4.708-1.3549l1.5156-2.94a5.9207,5.9207,0,0,0,3.3071,1.1944,1.6276,1.6276,0,0,0,.9419-.2525.7556.7556,0,0,0,.3672-.643,1.0735,1.0735,0,0,0-.0571-.379.6238.6238,0,0,0-.2412-.2758,1.9371,1.9371,0,0,0-.54-.23q-.356-.1033-.93-.2183a5.3234,5.3234,0,0,1-2.6987-1.16,2.8689,2.8689,0,0,1-.77-2.1245,4.1787,4.1787,0,0,1,.3677-1.78A3.6857,3.6857,0,0,1,77.291,7.9917a4.96,4.96,0,0,1,1.6651-.85,7.4126,7.4126,0,0,1,2.17-.2983,9.8469,9.8469,0,0,1,3.79.7578Z"/><path class="cls-1" d="M99.3838,10.748v8.3135H95.2271V10.748h-1.378V7.28h1.378V3.7432h4.1567V7.28H101.75V10.748Z"/><path class="cls-1" d="M107.353,17.4541,101.6572,7.28H106.48l3.1465,6.04,3.0542-6.04h4.7773l-9.4624,17.6611H103.334Z"/><path class="cls-1" d="M122.8081,24.9409h-4.1567V7.28h4.1567V8.5889a4.3876,4.3876,0,0,1,3.6289-1.6763,5.6441,5.6441,0,0,1,2.354.4936A5.9791,5.9791,0,0,1,130.6855,8.75a6.0928,6.0928,0,0,1,1.2515,1.998,6.6979,6.6979,0,0,1,.4483,2.4571,6.5178,6.5178,0,0,1-.4483,2.4345,6.2563,6.2563,0,0,1-1.24,1.9751,5.6859,5.6859,0,0,1-4.2144,1.8145,4.9082,4.9082,0,0,1-3.6748-1.5161Zm5.2363-11.7358a2.823,2.823,0,0,0-.1953-1.0449,2.5117,2.5117,0,0,0-.5625-.8614,2.8225,2.8225,0,0,0-.8613-.5854,2.7018,2.7018,0,0,0-2.1011-.0113,2.5547,2.5547,0,0,0-.8384.5738,2.9173,2.9173,0,0,0-.5742.8613,2.5582,2.5582,0,0,0-.2182,1.0449,2.5983,2.5983,0,0,0,.2065,1.0337,2.5626,2.5626,0,0,0,.5742.8384,2.9107,2.9107,0,0,0,.8613.5737,2.5493,2.5493,0,0,0,1.045.2183,2.5988,2.5988,0,0,0,1.0337-.2066,2.5524,2.5524,0,0,0,.8379-.5742,2.9674,2.9674,0,0,0,.5742-.85A2.4245,2.4245,0,0,0,128.0444,13.2051Z"/><path class="cls-1" d="M138.2646,13.8711q0,2.6872,2.5259,2.687a2.2576,2.2576,0,0,0,2.0445-1.102h4.019q-1.218,4.0422-6.0864,4.0419a7.9908,7.9908,0,0,1-2.7329-.4482,6.0888,6.0888,0,0,1-2.1241-1.2744A5.6813,5.6813,0,0,1,134.5439,15.8a6.5862,6.5862,0,0,1-.4824-2.5723,7.2775,7.2775,0,0,1,.4595-2.6523,5.58,5.58,0,0,1,1.3091-2.01,5.7906,5.7906,0,0,1,2.0556-1.2744,7.769,7.769,0,0,1,2.7212-.4477,7.6035,7.6035,0,0,1,2.687.4477,5.4434,5.4434,0,0,1,2.021,1.2974,5.6445,5.6445,0,0,1,1.2632,2.0786,8.242,8.242,0,0,1,.4365,2.7676v.436Zm4.8687-2.4111a2.5013,2.5013,0,0,0-.85-1.4009,2.6353,2.6353,0,0,0-3.1348-.023,2.2844,2.2844,0,0,0-.7695,1.4239Z"/><path class="cls-1" d="M156.959,10.3115a4.8611,4.8611,0,0,0-2.251-.5971,1.6908,1.6908,0,0,0-.93.2294.7051.7051,0,0,0-.3559.62.8067.8067,0,0,0,.0571.333.59.59,0,0,0,.2524.2412,2.17,2.17,0,0,0,.5743.2065q.3794.0922.999.23a4.7716,4.7716,0,0,1,2.5722,1.2285,3.1323,3.1323,0,0,1,.85,2.2622,4.1054,4.1054,0,0,1-.4131,1.86,3.9586,3.9586,0,0,1-1.1485,1.3891,5.4606,5.4606,0,0,1-1.7685.8731,7.8945,7.8945,0,0,1-2.2735.31,9.24,9.24,0,0,1-4.708-1.3549l1.5157-2.94a5.92,5.92,0,0,0,3.3071,1.1944,1.6276,1.6276,0,0,0,.9419-.2525.7558.7558,0,0,0,.3672-.643,1.0733,1.0733,0,0,0-.0572-.379.6225.6225,0,0,0-.2412-.2758,1.935,1.935,0,0,0-.54-.23q-.356-.1033-.93-.2183a5.3234,5.3234,0,0,1-2.6987-1.16,2.869,2.869,0,0,1-.77-2.1245,4.18,4.18,0,0,1,.3677-1.78,3.686,3.686,0,0,1,1.0562-1.3437,4.9583,4.9583,0,0,1,1.665-.85,7.4131,7.4131,0,0,1,2.17-.2983,9.847,9.847,0,0,1,3.79.7578Z"/><path class="cls-1" d="M177.2832,0h4.18V19.0615h-4.18V17.7524a4.3624,4.3624,0,0,1-3.606,1.6768,5.7335,5.7335,0,0,1-2.3652-.4824,5.8534,5.8534,0,0,1-1.8833-1.3321,6.0879,6.0879,0,0,1-1.2515-1.998,7.0364,7.0364,0,0,1-.0229-4.88A6.003,6.003,0,0,1,169.36,8.75a5.7032,5.7032,0,0,1,4.2714-1.8374,4.8008,4.8008,0,0,1,3.6519,1.5386Zm-5.2363,13.1362a2.7454,2.7454,0,0,0,.7695,1.9292,2.5114,2.5114,0,0,0,.85.5742,2.7388,2.7388,0,0,0,1.0679.2066,2.6826,2.6826,0,0,0,1.0449-.2066,2.5213,2.5213,0,0,0,.85-.5742,2.9674,2.9674,0,0,0,.5742-.85,2.4785,2.4785,0,0,0,.2183-1.0337,2.5583,2.5583,0,0,0-.2183-1.0449,2.927,2.927,0,0,0-.5742-.8613,2.5276,2.5276,0,0,0-.85-.5738,2.7407,2.7407,0,0,0-2.09,0,2.5177,2.5177,0,0,0-.85.5738,3.0116,3.0116,0,0,0-.5743.8384A2.3931,2.3931,0,0,0,172.0469,13.1362Z"/><path class="cls-1" d="M187.8013,13.8711q0,2.6872,2.5258,2.687a2.2575,2.2575,0,0,0,2.0445-1.102h4.019q-1.218,4.0422-6.0864,4.0419a7.9908,7.9908,0,0,1-2.7329-.4482,6.0875,6.0875,0,0,1-2.124-1.2744A5.6786,5.6786,0,0,1,184.0806,15.8a6.5844,6.5844,0,0,1-.4825-2.5723,7.28,7.28,0,0,1,.46-2.6523,5.5813,5.5813,0,0,1,1.3091-2.01,5.791,5.791,0,0,1,2.0557-1.2744,7.7682,7.7682,0,0,1,2.7212-.4477,7.6043,7.6043,0,0,1,2.687.4477,5.4442,5.4442,0,0,1,2.021,1.2974,5.6457,5.6457,0,0,1,1.2631,2.0786,8.242,8.242,0,0,1,.4366,2.7676v.436ZM192.67,11.46a2.5013,2.5013,0,0,0-.85-1.4009,2.6353,2.6353,0,0,0-3.1348-.023,2.2844,2.2844,0,0,0-.7695,1.4239Z"/><path class="cls-1" d="M4.1567,52.3232H0V34.6621H4.1567v1.3091a4.3876,4.3876,0,0,1,3.6289-1.6763,5.6442,5.6442,0,0,1,2.354.4937,5.98,5.98,0,0,1,1.8946,1.3437A6.0936,6.0936,0,0,1,13.2856,38.13a6.6949,6.6949,0,0,1,.4483,2.457,6.5163,6.5163,0,0,1-.4483,2.4346,6.2563,6.2563,0,0,1-1.24,1.9751,5.6863,5.6863,0,0,1-4.2144,1.8144,4.9078,4.9078,0,0,1-3.6748-1.5161ZM9.3931,40.5874a2.8254,2.8254,0,0,0-.1953-1.0449,2.5113,2.5113,0,0,0-.5625-.8613,2.8226,2.8226,0,0,0-.8614-.5855,2.7009,2.7009,0,0,0-2.101-.0112,2.556,2.556,0,0,0-.8384.5737A2.9173,2.9173,0,0,0,4.26,39.52a2.5572,2.5572,0,0,0-.2183,1.045,2.5979,2.5979,0,0,0,.2065,1.0336,2.5613,2.5613,0,0,0,.5743.8384,2.9116,2.9116,0,0,0,.8613.5738,2.55,2.55,0,0,0,1.0449.2182,2.5983,2.5983,0,0,0,1.0337-.2065,2.5528,2.5528,0,0,0,.8379-.5742,2.9692,2.9692,0,0,0,.5742-.85A2.4242,2.4242,0,0,0,9.3931,40.5874Z"/><path class="cls-1" d="M15.8691,34.6621h4.1568v1.9292a4.7787,4.7787,0,0,1,1.6308-1.6191,4.3862,4.3862,0,0,1,2.25-.5625h.356a2.5681,2.5681,0,0,1,.4477.0459v3.9731a3.949,3.949,0,0,0-1.791-.4136,2.6738,2.6738,0,0,0-2.17.8614,3.8181,3.8181,0,0,0-.7236,2.5146v5.0527H15.8691Z"/><path class="cls-1" d="M25.9736,40.45a5.7335,5.7335,0,0,1,.5284-2.4458,6.0066,6.0066,0,0,1,1.47-1.9751,6.9988,6.9988,0,0,1,2.2392-1.3208,8.0858,8.0858,0,0,1,2.8365-.4819,8.1976,8.1976,0,0,1,2.8134.4707,6.9687,6.9687,0,0,1,2.2505,1.3091,5.8841,5.8841,0,0,1,1.4815,1.998,6.1094,6.1094,0,0,1,.5283,2.5606,5.9957,5.9957,0,0,1-.54,2.561,6.0879,6.0879,0,0,1-1.481,1.998,6.64,6.64,0,0,1-2.2622,1.2974,8.6518,8.6518,0,0,1-2.8594.4595,8.2708,8.2708,0,0,1-2.8017-.4595A6.4645,6.4645,0,0,1,27.96,45.1118a6.0658,6.0658,0,0,1-1.4584-2.0327A6.3768,6.3768,0,0,1,25.9736,40.45Zm4.3868.0459a2.659,2.659,0,0,0,.2182,1.0908,2.8966,2.8966,0,0,0,.5742.8614,2.5139,2.5139,0,0,0,.85.5742,2.7471,2.7471,0,0,0,2.09,0,2.5227,2.5227,0,0,0,.85-.5742,2.9158,2.9158,0,0,0,.5742-.8614,2.6108,2.6108,0,0,0,.2183-1.0678,2.5588,2.5588,0,0,0-.2183-1.045,2.927,2.927,0,0,0-.5742-.8613,2.5374,2.5374,0,0,0-.85-.5742,2.7459,2.7459,0,0,0-2.09,0,2.5284,2.5284,0,0,0-.85.5742,2.95,2.95,0,0,0-.5742.85A2.4684,2.4684,0,0,0,30.36,40.4956Z"/><path class="cls-1" d="M51.3745,27.3823h4.18V46.4438h-4.18v-1.309a4.3626,4.3626,0,0,1-3.6059,1.6767,5.7339,5.7339,0,0,1-2.3653-.4824,5.8546,5.8546,0,0,1-1.8833-1.332,6.0864,6.0864,0,0,1-1.2514-1.9981,7.0354,7.0354,0,0,1-.023-4.88,6.0025,6.0025,0,0,1,1.2056-1.9864,5.7046,5.7046,0,0,1,4.2715-1.8374,4.8008,4.8008,0,0,1,3.6518,1.5386ZM46.1382,40.5186a2.7458,2.7458,0,0,0,.77,1.9292,2.5129,2.5129,0,0,0,.85.5742,2.7387,2.7387,0,0,0,1.0679.2065A2.6826,2.6826,0,0,0,49.87,43.022a2.5227,2.5227,0,0,0,.85-.5742,2.9692,2.9692,0,0,0,.5742-.85,2.4765,2.4765,0,0,0,.2183-1.0336,2.5572,2.5572,0,0,0-.2183-1.045,2.927,2.927,0,0,0-.5742-.8613,2.5288,2.5288,0,0,0-.85-.5737,2.74,2.74,0,0,0-2.09,0,2.5189,2.5189,0,0,0-.85.5737,3.0116,3.0116,0,0,0-.5743.8384A2.3935,2.3935,0,0,0,46.1382,40.5186Z"/><path class="cls-1" d="M62.3062,34.6621v6.6372a2.1141,2.1141,0,1,0,4.226,0V34.6621H70.689v7.4414a4.2142,4.2142,0,0,1-1.5733,3.5825A7.71,7.71,0,0,1,64.4189,46.88a7.7073,7.7073,0,0,1-4.6962-1.1944,4.2129,4.2129,0,0,1-1.5733-3.5825V34.6621Z"/><path class="cls-1" d="M73.0083,30.1382a2.2579,2.2579,0,0,1,.1836-.9072,2.3843,2.3843,0,0,1,1.2515-1.252,2.3331,2.3331,0,0,1,1.8144,0,2.38,2.38,0,0,1,1.2515,1.252,2.326,2.326,0,0,1,0,1.8139,2.38,2.38,0,0,1-1.2515,1.252,2.3331,2.3331,0,0,1-1.8144,0,2.3843,2.3843,0,0,1-1.2515-1.252A2.2555,2.2555,0,0,1,73.0083,30.1382ZM77.44,34.6621V46.4438H73.2837V34.6621Z"/><path class="cls-1" d="M84.6978,38.13v8.3134H80.541V38.13H79.1631V34.6621H80.541V31.1255h4.1568v3.5366h2.3657V38.13Z"/><path class="cls-1" d="M96.3179,37.6938a4.8614,4.8614,0,0,0-2.251-.5971,1.69,1.69,0,0,0-.93.23.705.705,0,0,0-.356.62.8062.8062,0,0,0,.0572.333.5887.5887,0,0,0,.2524.2412,2.17,2.17,0,0,0,.5742.2066q.3795.0922.9991.23a4.7716,4.7716,0,0,1,2.5722,1.2285,3.1323,3.1323,0,0,1,.85,2.2623,4.1065,4.1065,0,0,1-.413,1.86,3.9589,3.9589,0,0,1-1.1485,1.3892,5.46,5.46,0,0,1-1.7685.873,7.8909,7.8909,0,0,1-2.2735.31,9.24,9.24,0,0,1-4.708-1.355l1.5156-2.94A5.921,5.921,0,0,0,92.5972,43.78a1.6278,1.6278,0,0,0,.9419-.2525.7557.7557,0,0,0,.3671-.643,1.0725,1.0725,0,0,0-.0571-.3789.6239.6239,0,0,0-.2412-.2759,1.935,1.935,0,0,0-.54-.23q-.3559-.1032-.93-.2183a5.323,5.323,0,0,1-2.6987-1.16,2.8691,2.8691,0,0,1-.77-2.1245,4.18,4.18,0,0,1,.3677-1.78,3.6863,3.6863,0,0,1,1.0562-1.3438,4.9583,4.9583,0,0,1,1.665-.85,7.4131,7.4131,0,0,1,2.17-.2983,9.847,9.847,0,0,1,3.79.7578Z"/><path class="cls-1" d="M110.8086,34.6621l2.8018,6.04,2.8476-6.04h4.6392l-6.1319,11.7817h-2.7788l-6.063-11.7817Z"/><path class="cls-1" d="M121.2354,40.45a5.7334,5.7334,0,0,1,.5283-2.4458,6.0066,6.0066,0,0,1,1.47-1.9751,6.9983,6.9983,0,0,1,2.2393-1.3208,8.0848,8.0848,0,0,1,2.8364-.4819,8.1985,8.1985,0,0,1,2.8135.4707,6.9692,6.9692,0,0,1,2.25,1.3091,5.8828,5.8828,0,0,1,1.4815,1.998,6.1094,6.1094,0,0,1,.5283,2.5606,5.9957,5.9957,0,0,1-.54,2.561,6.0865,6.0865,0,0,1-1.481,1.998A6.64,6.64,0,0,1,131.1,46.4209a8.6513,8.6513,0,0,1-2.8594.4595,8.2708,8.2708,0,0,1-2.8017-.4595,6.464,6.464,0,0,1-2.2163-1.3091,6.0661,6.0661,0,0,1-1.4585-2.0327A6.3768,6.3768,0,0,1,121.2354,40.45Zm4.3867.0459a2.659,2.659,0,0,0,.2182,1.0908,2.8988,2.8988,0,0,0,.5743.8614,2.5129,2.5129,0,0,0,.85.5742,2.7469,2.7469,0,0,0,2.09,0,2.5227,2.5227,0,0,0,.85-.5742,2.9158,2.9158,0,0,0,.5742-.8614,2.6108,2.6108,0,0,0,.2183-1.0678,2.5588,2.5588,0,0,0-.2183-1.045,2.927,2.927,0,0,0-.5742-.8613,2.5374,2.5374,0,0,0-.85-.5742,2.7456,2.7456,0,0,0-2.09,0,2.5274,2.5274,0,0,0-.85.5742,2.9519,2.9519,0,0,0-.5743.85A2.4684,2.4684,0,0,0,125.6221,40.4956Z"/><path class="cls-1" d="M137.541,34.6621h4.1568v1.4932a4.5543,4.5543,0,0,1,1.7226-1.39,5.3885,5.3885,0,0,1,2.044-.3559,5.1148,5.1148,0,0,1,2.1245.4018,4.2429,4.2429,0,0,1,1.5039,1.1367,3.27,3.27,0,0,1,.6889,1.3321,6.9328,6.9328,0,0,1,.1841,1.6767v7.4868h-4.1572V40.4956a6.4191,6.4191,0,0,0-.126-1.4121,1.7562,1.7562,0,0,0-.4477-.8613,1.5774,1.5774,0,0,0-.62-.3907,2.325,2.325,0,0,0-.7348-.1147,2.0549,2.0549,0,0,0-1.6192.6313,2.6221,2.6221,0,0,0-.5629,1.8033v6.2924H137.541Z"/><path class="cls-1" d="M157.2,38.13v8.3134H153.043V38.13h-1.378V34.6621h1.378V31.1255H157.2v3.5366h2.3657V38.13Z"/><path class="cls-1" d="M172.2188,41.2534q0,2.6872,2.5258,2.687a2.2576,2.2576,0,0,0,2.0445-1.102h4.019q-1.218,4.0422-6.0864,4.042a7.9884,7.9884,0,0,1-2.7329-.4483,6.0888,6.0888,0,0,1-2.1241-1.2744,5.6813,5.6813,0,0,1-1.3667-1.9751,6.5857,6.5857,0,0,1-.4824-2.5722,7.2781,7.2781,0,0,1,.4595-2.6524,5.58,5.58,0,0,1,1.3091-2.01,5.7934,5.7934,0,0,1,2.0556-1.2744,7.769,7.769,0,0,1,2.7212-.4477,7.6035,7.6035,0,0,1,2.687.4477,5.4459,5.4459,0,0,1,2.021,1.2974,5.6454,5.6454,0,0,1,1.2632,2.0786,8.242,8.242,0,0,1,.4366,2.7676v.436ZM169.44,30.9189l5.0752-3.8125,5.1446,3.8125-1.8374,2.021-3.3072-2.5722L171.208,32.94Zm7.6475,7.9234a2.502,2.502,0,0,0-.85-1.4009,2.6351,2.6351,0,0,0-3.1348-.0229,2.2841,2.2841,0,0,0-.77,1.4238Z"/><path class="cls-1" d="M187.9043,38.13v8.3134h-4.1567V38.13H182.37V34.6621h1.378V31.1255h4.1567v3.5366H190.27V38.13Z"/><path class="cls-1" d="M191.6016,34.6621h4.1567v1.9292a4.7781,4.7781,0,0,1,1.6309-1.6191,4.3856,4.3856,0,0,1,2.25-.5625h.356a2.57,2.57,0,0,1,.4478.0459v3.9731a3.95,3.95,0,0,0-1.7911-.4136,2.674,2.674,0,0,0-2.17.8614,3.8181,3.8181,0,0,0-.7236,2.5146v5.0527h-4.1567Z"/><path class="cls-1" d="M205.9546,41.2534q0,2.6872,2.5259,2.687a2.2575,2.2575,0,0,0,2.0444-1.102h4.019q-1.218,4.0422-6.0864,4.042a7.9888,7.9888,0,0,1-2.7329-.4483,6.0884,6.0884,0,0,1-2.124-1.2744,5.68,5.68,0,0,1-1.3667-1.9751,6.5839,6.5839,0,0,1-.4824-2.5722,7.28,7.28,0,0,1,.4594-2.6524,5.5813,5.5813,0,0,1,1.3091-2.01,5.7938,5.7938,0,0,1,2.0557-1.2744,7.7682,7.7682,0,0,1,2.7212-.4477,7.6043,7.6043,0,0,1,2.687.4477,5.4467,5.4467,0,0,1,2.021,1.2974,5.6454,5.6454,0,0,1,1.2632,2.0786,8.2445,8.2445,0,0,1,.4365,2.7676v.436Zm4.8686-2.4111a2.5014,2.5014,0,0,0-.85-1.4009,2.6349,2.6349,0,0,0-3.1347-.0229,2.2842,2.2842,0,0,0-.77,1.4238Z"/><path class="cls-1" d="M15.41,62.0449l2.8017,6.04,2.8477-6.04h4.6391L19.5664,73.8262H16.7876l-6.063-11.7813Z"/><path class="cls-1" d="M30.0854,68.6367q0,2.6865,2.5259,2.6865a2.2569,2.2569,0,0,0,2.0445-1.1025h4.019q-1.218,4.043-6.0864,4.043a7.9907,7.9907,0,0,1-2.7329-.4492,6.0885,6.0885,0,0,1-2.1241-1.2735,5.686,5.686,0,0,1-1.3667-1.9756,6.5821,6.5821,0,0,1-.4824-2.5722,7.2781,7.2781,0,0,1,.4595-2.6524,5.5787,5.5787,0,0,1,1.3091-2.01,5.7922,5.7922,0,0,1,2.0556-1.2745,7.769,7.769,0,0,1,2.7212-.4477,7.6035,7.6035,0,0,1,2.687.4477,5.4459,5.4459,0,0,1,2.021,1.2974,5.6454,5.6454,0,0,1,1.2632,2.0786A8.24,8.24,0,0,1,38.8354,68.2v.4365Zm4.8687-2.4116a2.502,2.502,0,0,0-.85-1.4009,2.6351,2.6351,0,0,0-3.1348-.0229,2.2841,2.2841,0,0,0-.77,1.4238Z"/><path class="cls-1" d="M40.9707,62.0449h4.1567v1.4932a4.5545,4.5545,0,0,1,1.7227-1.39,5.388,5.388,0,0,1,2.0439-.3559,5.1165,5.1165,0,0,1,2.1246.4018,4.242,4.242,0,0,1,1.5039,1.1368,3.2685,3.2685,0,0,1,.6889,1.332,6.9328,6.9328,0,0,1,.1841,1.6767v7.4864H49.2383V67.8789a6.4209,6.4209,0,0,0-.126-1.4126,1.7562,1.7562,0,0,0-.4477-.8613,1.576,1.576,0,0,0-.62-.3906A2.3221,2.3221,0,0,0,47.31,65.1a2.055,2.055,0,0,0-1.6192.6314,2.6212,2.6212,0,0,0-.563,1.8032v6.292H40.9707Z"/><path class="cls-1" d="M65.085,54.7651h4.18V73.8262h-4.18V72.5176a4.3638,4.3638,0,0,1-3.606,1.6767,5.7335,5.7335,0,0,1-2.3652-.4824,5.8448,5.8448,0,0,1-1.8833-1.332,6.084,6.084,0,0,1-1.2515-1.9981,7.0362,7.0362,0,0,1-.0229-4.88,6.0032,6.0032,0,0,1,1.2055-1.9864,5.7046,5.7046,0,0,1,4.2715-1.8374,4.8011,4.8011,0,0,1,3.6519,1.5386ZM59.8486,67.9014a2.746,2.746,0,0,0,.77,1.9287,2.4843,2.4843,0,0,0,.85.5742,2.72,2.72,0,0,0,1.0678.207,2.6655,2.6655,0,0,0,1.045-.207,2.494,2.494,0,0,0,.85-.5742,2.95,2.95,0,0,0,.5742-.85,2.4762,2.4762,0,0,0,.2183-1.0332,2.56,2.56,0,0,0-.2183-1.045,2.927,2.927,0,0,0-.5742-.8613,2.5288,2.5288,0,0,0-.85-.5737,2.741,2.741,0,0,0-2.09,0,2.5189,2.5189,0,0,0-.85.5737,3.0091,3.0091,0,0,0-.5742.8384A2.3939,2.3939,0,0,0,59.8486,67.9014Z"/><path class="cls-1" d="M76.0166,62.0449v6.6367a2.1142,2.1142,0,1,0,4.2261,0V62.0449h4.1567v7.4414a4.2131,4.2131,0,0,1-1.5732,3.5821,7.7041,7.7041,0,0,1-4.6968,1.1953,7.7012,7.7012,0,0,1-4.6963-1.1953A4.2118,4.2118,0,0,1,71.86,69.4863V62.0449Z"/><path class="cls-1" d="M94.8027,65.0767a4.86,4.86,0,0,0-2.2509-.5972,1.6906,1.6906,0,0,0-.93.23.705.705,0,0,0-.356.62.808.808,0,0,0,.0571.333.5891.5891,0,0,0,.2525.2412,2.17,2.17,0,0,0,.5742.2066q.3793.0923.999.23a4.7709,4.7709,0,0,1,2.5723,1.2286,3.1315,3.1315,0,0,1,.85,2.2617,4.11,4.11,0,0,1-.4131,1.8613A3.9625,3.9625,0,0,1,95.0093,73.08a5.4711,5.4711,0,0,1-1.7686.873,7.8726,7.8726,0,0,1-2.2734.3106,9.2407,9.2407,0,0,1-4.708-1.3555l1.5156-2.9394a5.9232,5.9232,0,0,0,3.3071,1.1933,1.632,1.632,0,0,0,.9419-.2519.7551.7551,0,0,0,.3672-.6426,1.071,1.071,0,0,0-.0571-.3789.6281.6281,0,0,0-.2412-.2764,1.9253,1.9253,0,0,0-.54-.23q-.356-.1025-.93-.2187a5.3244,5.3244,0,0,1-2.6987-1.1592,2.8691,2.8691,0,0,1-.77-2.1245,4.1784,4.1784,0,0,1,.3677-1.78,3.6861,3.6861,0,0,1,1.0561-1.3438,4.96,4.96,0,0,1,1.6651-.85,7.4126,7.4126,0,0,1,2.17-.2983,9.8469,9.8469,0,0,1,3.7895.7578Z"/><path class="cls-1" d="M115.1274,54.7651h4.18V73.8262h-4.18V72.5176a4.3635,4.3635,0,0,1-3.6059,1.6767,5.7343,5.7343,0,0,1-2.3653-.4824,5.847,5.847,0,0,1-1.8833-1.332,6.0854,6.0854,0,0,1-1.2514-1.9981,7.0354,7.0354,0,0,1-.023-4.88,6.0035,6.0035,0,0,1,1.2056-1.9864,5.7046,5.7046,0,0,1,4.2715-1.8374,4.8008,4.8008,0,0,1,3.6518,1.5386Zm-5.2363,13.1363a2.7465,2.7465,0,0,0,.77,1.9287,2.4857,2.4857,0,0,0,.85.5742,2.72,2.72,0,0,0,1.0678.207,2.6646,2.6646,0,0,0,1.0449-.207,2.4944,2.4944,0,0,0,.85-.5742,2.95,2.95,0,0,0,.5742-.85,2.4761,2.4761,0,0,0,.2182-1.0332,2.56,2.56,0,0,0-.2182-1.045,2.927,2.927,0,0,0-.5742-.8613,2.5292,2.5292,0,0,0-.85-.5737,2.7407,2.7407,0,0,0-2.09,0,2.5189,2.5189,0,0,0-.85.5737,3.0091,3.0091,0,0,0-.5742.8384A2.3939,2.3939,0,0,0,109.8911,67.9014Z"/><path class="cls-1" d="M130.9966,62.0449h4.18V73.8262h-4.18V72.5176a4.3638,4.3638,0,0,1-3.606,1.6767,5.8414,5.8414,0,0,1-2.3652-.4716,5.6808,5.6808,0,0,1-1.8833-1.32,6.0879,6.0879,0,0,1-1.2515-1.998,6.8245,6.8245,0,0,1-.4482-2.5029,6.6378,6.6378,0,0,1,.4365-2.4,6.1642,6.1642,0,0,1,1.2173-1.9864,5.7405,5.7405,0,0,1,1.86-1.3437,5.6738,5.6738,0,0,1,2.3882-.4937,4.801,4.801,0,0,1,3.6519,1.5386ZM125.76,67.9014A2.7453,2.7453,0,0,0,126.53,69.83a2.4843,2.4843,0,0,0,.85.5742,2.721,2.721,0,0,0,1.0679.207,2.665,2.665,0,0,0,1.0449-.207,2.494,2.494,0,0,0,.85-.5742,2.95,2.95,0,0,0,.5742-.85,2.4762,2.4762,0,0,0,.2183-1.0332,2.56,2.56,0,0,0-.2183-1.045,2.927,2.927,0,0,0-.5742-.8613,2.5288,2.5288,0,0,0-.85-.5737,2.6739,2.6739,0,0,0-1.0449-.207,2.73,2.73,0,0,0-1.0679.207,2.5189,2.5189,0,0,0-.85.5737,2.8269,2.8269,0,0,0-.563.8384A2.5169,2.5169,0,0,0,125.76,67.9014Z"/><path class="cls-1" d="M137.771,62.0449h4.1567v1.4932a4.5545,4.5545,0,0,1,1.7227-1.39,5.388,5.388,0,0,1,2.0439-.3559,5.1157,5.1157,0,0,1,2.1245.4018,4.2415,4.2415,0,0,1,1.504,1.1368,3.2685,3.2685,0,0,1,.6889,1.332,6.9328,6.9328,0,0,1,.1841,1.6767v7.4864h-4.1572V67.8789a6.4209,6.4209,0,0,0-.126-1.4126,1.7555,1.7555,0,0,0-.4478-.8613,1.575,1.575,0,0,0-.62-.3906A2.3226,2.3226,0,0,0,144.11,65.1a2.055,2.055,0,0,0-1.6192.6314,2.6212,2.6212,0,0,0-.563,1.8032v6.292H137.771Z"/><path class="cls-1" d="M160.5991,65.0767a4.86,4.86,0,0,0-2.251-.5972,1.69,1.69,0,0,0-.93.23.705.705,0,0,0-.356.62.808.808,0,0,0,.0571.333.5891.5891,0,0,0,.2525.2412,2.1674,2.1674,0,0,0,.5742.2066q.3793.0923.999.23a4.7709,4.7709,0,0,1,2.5723,1.2286,3.1315,3.1315,0,0,1,.85,2.2617,4.11,4.11,0,0,1-.4131,1.8613,3.9625,3.9625,0,0,1-1.1484,1.3887,5.4711,5.4711,0,0,1-1.7686.873,7.8731,7.8731,0,0,1-2.2734.3106,9.2407,9.2407,0,0,1-4.708-1.3555l1.5156-2.9394a5.9232,5.9232,0,0,0,3.3071,1.1933,1.632,1.632,0,0,0,.9419-.2519.7553.7553,0,0,0,.3672-.6426,1.071,1.071,0,0,0-.0571-.3789.6281.6281,0,0,0-.2412-.2764,1.9253,1.9253,0,0,0-.54-.23q-.356-.1025-.93-.2187a5.3244,5.3244,0,0,1-2.6987-1.1592,2.8691,2.8691,0,0,1-.7695-2.1245,4.18,4.18,0,0,1,.3676-1.78,3.6874,3.6874,0,0,1,1.0562-1.3438,4.96,4.96,0,0,1,1.665-.85,7.4136,7.4136,0,0,1,2.17-.2983,9.847,9.847,0,0,1,3.79.7578Z"/><path class="cls-1" d="M175.9854,54.7651V73.8262h-4.1568V54.7651Z"/><path class="cls-1" d="M182.3472,68.6367q0,2.6865,2.5258,2.6865a2.2568,2.2568,0,0,0,2.0445-1.1025h4.019q-1.218,4.043-6.0864,4.043a7.9907,7.9907,0,0,1-2.7329-.4492,6.0871,6.0871,0,0,1-2.124-1.2735,5.6833,5.6833,0,0,1-1.3667-1.9756,6.58,6.58,0,0,1-.4825-2.5722,7.28,7.28,0,0,1,.4595-2.6524,5.58,5.58,0,0,1,1.3091-2.01,5.7926,5.7926,0,0,1,2.0557-1.2745,7.7682,7.7682,0,0,1,2.7212-.4477,7.6043,7.6043,0,0,1,2.687.4477,5.4467,5.4467,0,0,1,2.021,1.2974,5.6465,5.6465,0,0,1,1.2631,2.0786,8.24,8.24,0,0,1,.4366,2.7676v.4365Zm4.8686-2.4116a2.502,2.502,0,0,0-.85-1.4009,2.6351,2.6351,0,0,0-3.1348-.0229,2.2841,2.2841,0,0,0-.7695,1.4238Z"/><path class="cls-1" d="M201.041,65.0767a4.86,4.86,0,0,0-2.251-.5972,1.69,1.69,0,0,0-.93.23.705.705,0,0,0-.356.62.8064.8064,0,0,0,.0571.333.5891.5891,0,0,0,.2525.2412,2.1674,2.1674,0,0,0,.5742.2066q.3793.0923.999.23a4.7713,4.7713,0,0,1,2.5723,1.2286,3.1315,3.1315,0,0,1,.85,2.2617,4.11,4.11,0,0,1-.4131,1.8613,3.9625,3.9625,0,0,1-1.1484,1.3887,5.4711,5.4711,0,0,1-1.7686.873,7.8731,7.8731,0,0,1-2.2734.3106,9.24,9.24,0,0,1-4.708-1.3555l1.5156-2.9394a5.9232,5.9232,0,0,0,3.3071,1.1933,1.632,1.632,0,0,0,.9419-.2519.7553.7553,0,0,0,.3672-.6426,1.071,1.071,0,0,0-.0571-.3789.6281.6281,0,0,0-.2412-.2764,1.9253,1.9253,0,0,0-.54-.23q-.356-.1025-.93-.2187a5.3244,5.3244,0,0,1-2.6987-1.1592,2.8691,2.8691,0,0,1-.7695-2.1245,4.18,4.18,0,0,1,.3676-1.78,3.6874,3.6874,0,0,1,1.0562-1.3438,4.96,4.96,0,0,1,1.665-.85,7.4136,7.4136,0,0,1,2.17-.2983,9.847,9.847,0,0,1,3.79.7578Z"/><path class="cls-1" d="M31.8647,89.4277h4.1568V90.875a5.3727,5.3727,0,0,1,3.8125-1.6309A4.4328,4.4328,0,0,1,43.83,91.4482a4.4556,4.4556,0,0,1,3.9961-2.2275,4.9681,4.9681,0,0,1,1.5615.2412,3.2116,3.2116,0,0,1,1.2632.7578,3.6261,3.6261,0,0,1,.8384,1.3438,5.7078,5.7078,0,0,1,.31,1.998v7.6475H47.6426V95.3984a7.0445,7.0445,0,0,0-.1265-1.47,2.3282,2.3282,0,0,0-.3677-.8955,1.2163,1.2163,0,0,0-.5625-.4365,2.0428,2.0428,0,0,0-.6889-.1143q-1.9981,0-1.9981,2.916v5.8106H39.7422V95.3984a7.9186,7.9186,0,0,0-.1148-1.48,2.7487,2.7487,0,0,0-.333-.9307,1.1148,1.1148,0,0,0-.563-.4707,2.3351,2.3351,0,0,0-.8037-.126,2.29,2.29,0,0,0-.7348.1143,1.3032,1.3032,0,0,0-.6084.4482,2.4321,2.4321,0,0,0-.4136.918,6.3728,6.3728,0,0,0-.1494,1.5273v5.8106H31.8647Z"/><path class="cls-1" d="M63.5117,89.4277h4.18V101.209h-4.18V99.9a4.3629,4.3629,0,0,1-3.6059,1.6758,5.8415,5.8415,0,0,1-2.3653-.4707,5.6976,5.6976,0,0,1-1.8833-1.32,6.0864,6.0864,0,0,1-1.2514-1.9981,6.824,6.824,0,0,1-.4483-2.5039,6.6351,6.6351,0,0,1,.4365-2.3994,6.1655,6.1655,0,0,1,1.2173-1.9863,5.7339,5.7339,0,0,1,1.86-1.3438,5.6729,5.6729,0,0,1,2.3882-.4932,4.8,4.8,0,0,1,3.6518,1.5381Zm-5.2363,5.8555a2.7454,2.7454,0,0,0,.77,1.93,2.5129,2.5129,0,0,0,.85.5742,2.739,2.739,0,0,0,1.0679.207,2.683,2.683,0,0,0,1.0449-.207,2.5227,2.5227,0,0,0,.85-.5742,2.9628,2.9628,0,0,0,.5743-.85,2.48,2.48,0,0,0,.2182-1.0332,2.5565,2.5565,0,0,0-.2182-1.0449,2.9051,2.9051,0,0,0-.5743-.8614,2.5227,2.5227,0,0,0-.85-.5742,2.665,2.665,0,0,0-1.0449-.207,2.721,2.721,0,0,0-1.0679.207,2.5129,2.5129,0,0,0-.85.5742,2.8131,2.8131,0,0,0-.563.8379A2.5162,2.5162,0,0,0,58.2754,95.2832Z"/><path class="cls-1" d="M83.4683,89.4277v10.9776a12.31,12.31,0,0,1-.1148,1.7685,7.6722,7.6722,0,0,1-.3218,1.377,4.3284,4.3284,0,0,1-.8613,1.4131,5.7734,5.7734,0,0,1-1.4121,1.1367,7.4883,7.4883,0,0,1-1.8721.7578,9.3984,9.3984,0,0,1-4.7881-.0693,6.8368,6.8368,0,0,1-2.01-.9532,5.5217,5.5217,0,0,1-1.4121-1.4238,4.7109,4.7109,0,0,1-.7349-1.7793h4.6851a1.8671,1.8671,0,0,0,1.9751,1.1719,2.6476,2.6476,0,0,0,2.0092-.7354,2.8433,2.8433,0,0,0,.7007-2.0439V99.9a6.9676,6.9676,0,0,1-.8843.7226,5.012,5.012,0,0,1-.8613.4708,4.0748,4.0748,0,0,1-.9184.2646,6.4417,6.4417,0,0,1-1.0567.08,6.0119,6.0119,0,0,1-2.3193-.4365,5.3546,5.3546,0,0,1-3.02-3.0879,6.62,6.62,0,0,1-.4253-2.4239,6.7745,6.7745,0,0,1,.4594-2.5146,6.4837,6.4837,0,0,1,1.2515-2.02A5.7709,5.7709,0,0,1,73.42,89.6a5.6971,5.6971,0,0,1,2.377-.4941,4.57,4.57,0,0,1,3.5141,1.5625v-1.24Zm-9.3243,5.833a2.7465,2.7465,0,0,0,.77,1.9288,2.4857,2.4857,0,0,0,.85.5742,2.7224,2.7224,0,0,0,1.0679.207,2.6671,2.6671,0,0,0,1.0449-.207,2.4954,2.4954,0,0,0,.85-.5742,2.9029,2.9029,0,0,0,.5742-.8614,2.6357,2.6357,0,0,0,0-2.1006,2.8815,2.8815,0,0,0-.5854-.8505,2.6849,2.6849,0,0,0-.8614-.5743,2.6427,2.6427,0,0,0-1.0219-.206,2.4919,2.4919,0,0,0-1.0337.2178,3.0044,3.0044,0,0,0-.85.5742,2.714,2.714,0,0,0-.5855.8388A2.4688,2.4688,0,0,0,74.144,95.2607Z"/><path class="cls-1" d="M95.41,89.4277h4.18V101.209H95.41V99.9a4.3631,4.3631,0,0,1-3.606,1.6758,5.841,5.841,0,0,1-2.3652-.4707,5.6955,5.6955,0,0,1-1.8833-1.32,6.085,6.085,0,0,1-1.2515-1.9981,6.826,6.826,0,0,1-.4482-2.5039,6.6351,6.6351,0,0,1,.4365-2.3994A6.1637,6.1637,0,0,1,87.51,90.8975a5.7334,5.7334,0,0,1,1.86-1.3438,5.6732,5.6732,0,0,1,2.3882-.4932A4.8007,4.8007,0,0,1,95.41,90.5986Zm-5.2364,5.8555a2.746,2.746,0,0,0,.77,1.93,2.5129,2.5129,0,0,0,.85.5742,2.7385,2.7385,0,0,0,1.0678.207,2.6834,2.6834,0,0,0,1.045-.207,2.5227,2.5227,0,0,0,.85-.5742,2.96,2.96,0,0,0,.5742-.85,2.48,2.48,0,0,0,.2183-1.0332,2.5566,2.5566,0,0,0-.2183-1.0449,2.9029,2.9029,0,0,0-.5742-.8614,2.5227,2.5227,0,0,0-.85-.5742,2.6655,2.6655,0,0,0-1.045-.207,2.72,2.72,0,0,0-1.0678.207,2.5129,2.5129,0,0,0-.85.5742,2.8131,2.8131,0,0,0-.563.8379A2.5163,2.5163,0,0,0,90.1738,95.2832Z"/><path class="cls-1" d="M109.9932,92.459a4.8551,4.8551,0,0,0-2.251-.5977,1.6865,1.6865,0,0,0-.93.2305.703.703,0,0,0-.356.6191.81.81,0,0,0,.0572.334.59.59,0,0,0,.2524.24,2.1544,2.1544,0,0,0,.5742.207q.3795.0923.9991.2305a4.76,4.76,0,0,1,2.5722,1.2285,3.1315,3.1315,0,0,1,.85,2.2617,4.105,4.105,0,0,1-.4131,1.86,3.9548,3.9548,0,0,1-1.1484,1.39,5.4705,5.4705,0,0,1-1.7685.873,7.9086,7.9086,0,0,1-2.2735.31,9.2481,9.2481,0,0,1-4.708-1.3545l1.5156-2.94a5.9244,5.9244,0,0,0,3.3072,1.1943,1.6322,1.6322,0,0,0,.9419-.2519.7567.7567,0,0,0,.3671-.6436,1.071,1.071,0,0,0-.0571-.3789.6275.6275,0,0,0-.2412-.2764,1.9285,1.9285,0,0,0-.54-.2285q-.356-.104-.93-.2187a5.3156,5.3156,0,0,1-2.6988-1.16,2.8675,2.8675,0,0,1-.7695-2.124,4.1854,4.1854,0,0,1,.3677-1.78,3.6984,3.6984,0,0,1,1.0561-1.3437,4.96,4.96,0,0,1,1.6651-.85,7.4269,7.4269,0,0,1,2.17-.2979,9.8558,9.8558,0,0,1,3.79.7578Z"/><path class="cls-1" d="M113.3687,84.9033a2.2612,2.2612,0,0,1,.1835-.9072,2.3889,2.3889,0,0,1,1.2515-1.252,2.3334,2.3334,0,0,1,1.8145,0,2.3846,2.3846,0,0,1,1.2514,1.252,2.3273,2.3273,0,0,1,0,1.8144,2.3846,2.3846,0,0,1-1.2514,1.252,2.3334,2.3334,0,0,1-1.8145,0,2.3889,2.3889,0,0,1-1.2515-1.252A2.2612,2.2612,0,0,1,113.3687,84.9033Zm4.4321,4.5244V101.209H113.644V89.4277Z"/><path class="cls-1" d="M120.4189,89.4277h4.1568V90.92a4.5515,4.5515,0,0,1,1.7226-1.3887,5.3709,5.3709,0,0,1,2.044-.3564,5.1146,5.1146,0,0,1,2.1245.4014,4.2514,4.2514,0,0,1,1.5039,1.1367,3.2737,3.2737,0,0,1,.689,1.332,6.942,6.942,0,0,1,.1841,1.6778v7.4863h-4.1573V95.2607a6.4254,6.4254,0,0,0-.126-1.4121,1.7511,1.7511,0,0,0-.4477-.8613,1.5757,1.5757,0,0,0-.62-.3906,2.3226,2.3226,0,0,0-.7349-.1143,2.0545,2.0545,0,0,0-1.6191.6309,2.621,2.621,0,0,0-.563,1.8027v6.293h-4.1568Z"/><path class="cls-1" d="M143.2471,92.459a4.8551,4.8551,0,0,0-2.251-.5977,1.6865,1.6865,0,0,0-.93.2305.703.703,0,0,0-.356.6191.81.81,0,0,0,.0572.334.59.59,0,0,0,.2524.24,2.1544,2.1544,0,0,0,.5742.207q.3795.0923.9991.2305a4.76,4.76,0,0,1,2.5722,1.2285,3.1315,3.1315,0,0,1,.85,2.2617,4.1062,4.1062,0,0,1-.413,1.86,3.9562,3.9562,0,0,1-1.1485,1.39,5.4705,5.4705,0,0,1-1.7685.873,7.9086,7.9086,0,0,1-2.2735.31,9.2481,9.2481,0,0,1-4.708-1.3545l1.5156-2.94a5.9246,5.9246,0,0,0,3.3072,1.1943,1.6322,1.6322,0,0,0,.9419-.2519.7567.7567,0,0,0,.3671-.6436,1.071,1.071,0,0,0-.0571-.3789.6275.6275,0,0,0-.2412-.2764,1.9285,1.9285,0,0,0-.54-.2285q-.3559-.104-.93-.2187a5.3147,5.3147,0,0,1-2.6987-1.16,2.8672,2.8672,0,0,1-.77-2.124,4.1854,4.1854,0,0,1,.3677-1.78,3.6984,3.6984,0,0,1,1.0561-1.3437,4.96,4.96,0,0,1,1.6651-.85,7.4269,7.4269,0,0,1,2.17-.2979,9.8554,9.8554,0,0,1,3.79.7578Z"/><path class="cls-1" d="M163.5713,82.1475h4.18V101.209h-4.18V99.9a4.3631,4.3631,0,0,1-3.606,1.6758,5.7191,5.7191,0,0,1-2.3652-.4824,5.8462,5.8462,0,0,1-1.8833-1.3321,6.0879,6.0879,0,0,1-1.2515-1.998,7.035,7.035,0,0,1-.0229-4.88,6.0028,6.0028,0,0,1,1.2055-1.9863,5.7014,5.7014,0,0,1,4.2715-1.837,4.8006,4.8006,0,0,1,3.6519,1.5381ZM158.335,95.2832a2.7454,2.7454,0,0,0,.7695,1.93,2.5129,2.5129,0,0,0,.85.5742,2.739,2.739,0,0,0,1.0679.207,2.683,2.683,0,0,0,1.0449-.207,2.5227,2.5227,0,0,0,.85-.5742,2.96,2.96,0,0,0,.5742-.85,2.48,2.48,0,0,0,.2183-1.0332,2.5566,2.5566,0,0,0-.2183-1.0449,2.9029,2.9029,0,0,0-.5742-.8614,2.5227,2.5227,0,0,0-.85-.5742,2.7407,2.7407,0,0,0-2.09,0,2.5143,2.5143,0,0,0-.85.5742,2.9936,2.9936,0,0,0-.5742.8379A2.3932,2.3932,0,0,0,158.335,95.2832Z"/><path class="cls-1" d="M174.0894,96.0186q0,2.6878,2.5258,2.6865a2.258,2.258,0,0,0,2.0445-1.1016h4.019q-1.218,4.043-6.0864,4.042a7.9908,7.9908,0,0,1-2.7329-.4482,6.09,6.09,0,0,1-2.124-1.2744,5.6852,5.6852,0,0,1-1.3667-1.9756,6.5812,6.5812,0,0,1-.4825-2.5723,7.285,7.285,0,0,1,.4595-2.6523,5.589,5.589,0,0,1,1.3091-2.01A5.7885,5.7885,0,0,1,173.71,89.44a7.7665,7.7665,0,0,1,2.7212-.4483,7.602,7.602,0,0,1,2.6871.4483,5.4305,5.4305,0,0,1,2.0209,1.2968,5.6429,5.6429,0,0,1,1.2632,2.0782,8.2476,8.2476,0,0,1,.4366,2.7675v.4366Zm4.8686-2.4112a2.499,2.499,0,0,0-.85-1.4,2.632,2.632,0,0,0-3.1348-.0234,2.2841,2.2841,0,0,0-.7695,1.4238Z"/><path class="cls-1" d="M36.8481,117.0625a4.8014,4.8014,0,0,0-3.8579-1.9063,4.7339,4.7339,0,0,0-1.872.3672,4.4843,4.4843,0,0,0-2.4571,2.5039,4.9275,4.9275,0,0,0-.3559,1.8829,4.99,4.99,0,0,0,.3559,1.9062,4.5963,4.5963,0,0,0,4.3062,2.8936,5.2115,5.2115,0,0,0,3.8808-1.837v5.3282l-.4589.16a13.2129,13.2129,0,0,1-1.9292.54,9.407,9.407,0,0,1-1.7686.1728,9.0392,9.0392,0,0,1-6.3271-2.584,9.4708,9.4708,0,0,1-2.0093-2.917,9.3531,9.3531,0,0,1-.0117-7.3486,9.1472,9.1472,0,0,1,8.3711-5.4316,9.4971,9.4971,0,0,1,2.0327.2177,12.375,12.375,0,0,1,2.101.6778Z"/><path class="cls-1" d="M48.1709,116.81h4.18v11.7822h-4.18v-1.31a4.3611,4.3611,0,0,1-3.606,1.6768,5.8561,5.8561,0,0,1-2.3652-.4707,5.7122,5.7122,0,0,1-1.8833-1.32,6.0883,6.0883,0,0,1-1.2515-1.9981,6.826,6.826,0,0,1-.4482-2.5039,6.64,6.64,0,0,1,.4365-2.4,6.1655,6.1655,0,0,1,1.2173-1.9863,5.7475,5.7475,0,0,1,1.86-1.3438,5.6881,5.6881,0,0,1,2.3881-.4931,4.8,4.8,0,0,1,3.6519,1.5381Zm-5.2363,5.8564a2.7454,2.7454,0,0,0,.7695,1.93,2.5421,2.5421,0,0,0,.85.5742,2.7568,2.7568,0,0,0,1.0679.2061,2.7,2.7,0,0,0,1.0449-.2061,2.5522,2.5522,0,0,0,.85-.5742,2.9882,2.9882,0,0,0,.5742-.85,2.4808,2.4808,0,0,0,.2183-1.0342,2.5566,2.5566,0,0,0-.2183-1.0449,2.927,2.927,0,0,0-.5742-.8613,2.5046,2.5046,0,0,0-.85-.5733,2.6668,2.6668,0,0,0-1.0449-.207,2.7228,2.7228,0,0,0-1.0679.207,2.4949,2.4949,0,0,0-.85.5733,2.8173,2.8173,0,0,0-.563.8388A2.5128,2.5128,0,0,0,42.9346,122.666Z"/><path class="cls-1" d="M54.9448,116.81h4.1568v1.4931a4.5452,4.5452,0,0,1,1.7226-1.39,5.3882,5.3882,0,0,1,2.044-.3565,5.1145,5.1145,0,0,1,2.1245.4024,4.2313,4.2313,0,0,1,1.5039,1.1367,3.266,3.266,0,0,1,.6889,1.332,6.9343,6.9343,0,0,1,.1841,1.6768v7.4873H63.2124v-5.9492a6.4241,6.4241,0,0,0-.126-1.4121,1.7606,1.7606,0,0,0-.4477-.8614,1.5889,1.5889,0,0,0-.62-.3906,2.3226,2.3226,0,0,0-.7349-.1142,2.0516,2.0516,0,0,0-1.6191.6318,2.6193,2.6193,0,0,0-.563,1.8027v6.293H54.9448Z"/><path class="cls-1" d="M69.9644,116.81h4.1567v1.4931a4.5447,4.5447,0,0,1,1.7227-1.39,5.3873,5.3873,0,0,1,2.0439-.3565,5.1138,5.1138,0,0,1,2.1245.4024,4.23,4.23,0,0,1,1.5039,1.1367,3.2674,3.2674,0,0,1,.689,1.332,6.9393,6.9393,0,0,1,.1841,1.6768v7.4873H78.2319v-5.9492a6.4311,6.4311,0,0,0-.1259-1.4121,1.7607,1.7607,0,0,0-.4478-.8614,1.5882,1.5882,0,0,0-.62-.3906,2.3226,2.3226,0,0,0-.7349-.1142,2.0516,2.0516,0,0,0-1.6191.6318,2.6193,2.6193,0,0,0-.563,1.8027v6.293H69.9644Z"/><path class="cls-1" d="M94.0786,116.81h4.18v11.7822h-4.18v-1.31a4.361,4.361,0,0,1-3.6059,1.6768,5.8566,5.8566,0,0,1-2.3653-.4707,5.7122,5.7122,0,0,1-1.8833-1.32,6.0864,6.0864,0,0,1-1.2514-1.9981,6.824,6.824,0,0,1-.4483-2.5039,6.64,6.64,0,0,1,.4365-2.4,6.1655,6.1655,0,0,1,1.2173-1.9863,5.7486,5.7486,0,0,1,1.86-1.3438,5.6882,5.6882,0,0,1,2.3882-.4931,4.8,4.8,0,0,1,3.6518,1.5381Zm-5.2363,5.8564a2.7454,2.7454,0,0,0,.77,1.93,2.5421,2.5421,0,0,0,.85.5742,2.7568,2.7568,0,0,0,1.0679.2061,2.7,2.7,0,0,0,1.0449-.2061,2.5522,2.5522,0,0,0,.85-.5742,2.9882,2.9882,0,0,0,.5742-.85,2.4792,2.4792,0,0,0,.2183-1.0342,2.555,2.555,0,0,0-.2183-1.0449,2.927,2.927,0,0,0-.5742-.8613,2.5046,2.5046,0,0,0-.85-.5733,2.6668,2.6668,0,0,0-1.0449-.207,2.7228,2.7228,0,0,0-1.0679.207,2.4949,2.4949,0,0,0-.85.5733,2.8173,2.8173,0,0,0-.563.8388A2.5128,2.5128,0,0,0,88.8423,122.666Z"/><path class="cls-1" d="M105.0093,109.5293v8.4512a4.8733,4.8733,0,0,1,3.6748-1.5381,5.7706,5.7706,0,0,1,2.4.4931,5.6808,5.6808,0,0,1,1.86,1.3321,6.1564,6.1564,0,0,1,1.2056,1.9756,6.95,6.95,0,0,1-.0117,4.88,6.0939,6.0939,0,0,1-1.2515,1.9981,5.972,5.972,0,0,1-1.8945,1.3437,5.6449,5.6449,0,0,1-2.354.4942,4.3852,4.3852,0,0,1-3.6289-1.6768v1.31h-4.1568V109.5293Zm5.2363,13.2051a2.69,2.69,0,0,0-.7808-1.9063,2.8735,2.8735,0,0,0-.85-.5849,2.5334,2.5334,0,0,0-1.0566-.2178,2.5808,2.5808,0,0,0-1.0332.207,2.5308,2.5308,0,0,0-.8384.5733,2.9173,2.9173,0,0,0-.5742.8613,2.5566,2.5566,0,0,0-.2183,1.0449,2.6008,2.6008,0,0,0,.2066,1.0342,2.571,2.571,0,0,0,.5742.8379,2.92,2.92,0,0,0,.8613.5742,2.5565,2.5565,0,0,0,1.0449.2178,2.6152,2.6152,0,0,0,1.0337-.2061,2.5835,2.5835,0,0,0,.8379-.5742,2.9882,2.9882,0,0,0,.5742-.85A2.4258,2.4258,0,0,0,110.2456,122.7344Z"/><path class="cls-1" d="M116.4463,112.2852a2.2553,2.2553,0,0,1,.1836-.9063,2.3794,2.3794,0,0,1,1.2514-1.2519,2.3334,2.3334,0,0,1,1.8145,0,2.3745,2.3745,0,0,1,1.2515,1.2519,2.3262,2.3262,0,0,1,0,1.8135,2.3745,2.3745,0,0,1-1.2515,1.2519,2.3334,2.3334,0,0,1-1.8145,0,2.3794,2.3794,0,0,1-1.2514-1.2519A2.253,2.253,0,0,1,116.4463,112.2852Zm4.4321,4.5244v11.7822h-4.1567V116.81Z"/><path class="cls-1" d="M131.3052,119.8418a4.856,4.856,0,0,0-2.251-.5977,1.6865,1.6865,0,0,0-.93.23.7057.7057,0,0,0-.3559.62.8051.8051,0,0,0,.0571.333.5865.5865,0,0,0,.2524.2412,2.1864,2.1864,0,0,0,.5742.207c.253.0605.586.1377.9991.23a4.7744,4.7744,0,0,1,2.5722,1.2285,3.1326,3.1326,0,0,1,.85,2.2627,4.1024,4.1024,0,0,1-.413,1.8594,3.9567,3.9567,0,0,1-1.1485,1.39,5.4526,5.4526,0,0,1-1.7685.8731,7.9122,7.9122,0,0,1-2.2735.3095,9.2392,9.2392,0,0,1-4.708-1.3544l1.5156-2.94a5.919,5.919,0,0,0,3.3072,1.1953,1.6241,1.6241,0,0,0,.9419-.2529.7567.7567,0,0,0,.3672-.6436,1.075,1.075,0,0,0-.0572-.3789.619.619,0,0,0-.2412-.2753,1.95,1.95,0,0,0-.54-.23q-.356-.1041-.93-.2178a5.3241,5.3241,0,0,1-2.6987-1.16,2.87,2.87,0,0,1-.77-2.125,4.1779,4.1779,0,0,1,.3677-1.7793,3.6819,3.6819,0,0,1,1.0562-1.3437,4.9583,4.9583,0,0,1,1.665-.85,7.3959,7.3959,0,0,1,2.17-.2989,9.8564,9.8564,0,0,1,3.79.7579Z"/><path class="cls-1" d="M142.9253,128.5918V111.2754h4.501l8.3139,10.5869V111.2754h4.4786v17.3164H155.74l-8.3139-10.5879v10.5879Z"/><path class="cls-1" d="M163.6177,111.2754h6.706a5.1592,5.1592,0,0,1,3.6284,1.1484,4.2835,4.2835,0,0,1,1.24,3.3067,4.4892,4.4892,0,0,1-.4707,2.17,3.9644,3.9644,0,0,1-1.4356,1.459,5.4427,5.4427,0,0,1,1.6421.5625,3.5636,3.5636,0,0,1,1.1026.93,3.48,3.48,0,0,1,.6084,1.24,5.6819,5.6819,0,0,1,.1836,1.47,5.2,5.2,0,0,1-.4249,2.1592,4.3737,4.3737,0,0,1-1.1938,1.584,5.087,5.087,0,0,1-1.8721.9648,8.83,8.83,0,0,1-2.48.3223h-7.2344Zm4.501,6.7969h.8271q2.1123,0,2.1128-1.6758t-2.1128-1.6768h-.8271Zm0,7.0283h.9877a5.0213,5.0213,0,0,0,2.4346-.4365,1.7027,1.7027,0,0,0,0-2.8018,5.0332,5.0332,0,0,0-2.4346-.4365h-.9877Z"/><path class="cls-1" d="M182.2422,122.7812v-4.4785c.1836.0313.352.0567.5054.08a2.8877,2.8877,0,0,0,.4365.0352,3.92,3.92,0,0,0,1.1709-.1729,3.149,3.149,0,0,0,.9531-.4707,2.1925,2.1925,0,0,0,.6318-.7236,1.9277,1.9277,0,0,0,.23-.93,1.7181,1.7181,0,0,0-.4594-1.1943,1.5928,1.5928,0,0,0-1.24-.5049,1.4368,1.4368,0,0,0-1.1367.4824,1.8368,1.8368,0,0,0-.4248,1.2617h-4.57a4.8658,4.8658,0,0,1,.4712-2.1465,5.2164,5.2164,0,0,1,1.3086-1.6992,6.0937,6.0937,0,0,1,1.9751-1.125,7.3463,7.3463,0,0,1,2.4692-.4023,6.56,6.56,0,0,1,2.4688.4472,6.0718,6.0718,0,0,1,1.9174,1.2061,5.3542,5.3542,0,0,1,1.24,1.7451,5.0139,5.0139,0,0,1,.4365,2.0449q0,3.4438-4.1572,4.8907v1.6542Zm-.4595,3.6055a2.683,2.683,0,0,1,.207-1.0449,2.6416,2.6416,0,0,1,1.4351-1.4356,2.7089,2.7089,0,0,1,2.9512.5743,2.6525,2.6525,0,0,1,.5742.8613,2.7469,2.7469,0,0,1,0,2.09,2.6529,2.6529,0,0,1-.5742.8614,2.709,2.709,0,0,1-3.812,0,2.6516,2.6516,0,0,1-.5743-.8614A2.683,2.683,0,0,1,181.7827,126.3867Z"/></svg>