<svg id="Layer_1" data-name="Layer 1" xmlns="http://www.w3.org/2000/svg" width="254.6206" height="101.6914" viewBox="0 0 254.6206 101.6914"><defs><style>.cls-1{fill:#212c32;}</style></defs><title>frame1</title><path class="cls-1" d="M44.0942,10.4033a8.9219,8.9219,0,0,1,5.7071-8.44,11.0043,11.0043,0,0,1,7.728,0,9.1379,9.1379,0,0,1,3.043,1.94,8.8888,8.8888,0,0,1,1.9863,2.9053,9.0465,9.0465,0,0,1,.7119,3.5942,9.29,9.29,0,0,1-.5854,3.33,8.3927,8.3927,0,0,1-1.688,2.7329l2.9394,3.0776-4.1338.6431-1.5844-1.6308a11.43,11.43,0,0,1-2.1475.7236,10.5944,10.5944,0,0,1-2.4.2641,10.3606,10.3606,0,0,1-3.87-.7006,8.9564,8.9564,0,0,1-5.7071-8.44Zm4.708,0a4.6136,4.6136,0,0,0,.39,1.9063,4.7685,4.7685,0,0,0,2.6069,2.5146,4.951,4.951,0,0,0,1.8716.356,5.303,5.303,0,0,0,1.1943-.1377l-2.5722-2.71,4.2485-.5283,1.1943,1.2632a4.4393,4.4393,0,0,0,.8267-2.6641,4.6244,4.6244,0,0,0-.39-1.9062A4.7422,4.7422,0,0,0,57.104,6.9814a4.91,4.91,0,0,0-1.5615-.999,5.0991,5.0991,0,0,0-3.7432,0,4.7683,4.7683,0,0,0-2.6069,2.5147A4.6149,4.6149,0,0,0,48.8022,10.4033Z"/><path class="cls-1" d="M69.6548,7.28V13.917a2.1141,2.1141,0,1,0,4.2261,0V7.28h4.1567v7.4414a4.2144,4.2144,0,0,1-1.5732,3.5825,7.7106,7.7106,0,0,1-4.6968,1.1943,7.7075,7.7075,0,0,1-4.6963-1.1943,4.2131,4.2131,0,0,1-1.5733-3.5825V7.28Z"/><path class="cls-1" d="M89.7271,7.28h4.18V19.0615h-4.18V17.7524a4.3626,4.3626,0,0,1-3.606,1.6768,5.8479,5.8479,0,0,1-2.3652-.4712,5.6955,5.6955,0,0,1-1.8833-1.32A6.084,6.084,0,0,1,80.6211,15.64a6.8253,6.8253,0,0,1-.4482-2.5034,6.6378,6.6378,0,0,1,.4365-2.4A6.1637,6.1637,0,0,1,81.8267,8.75a5.7408,5.7408,0,0,1,1.86-1.3438,5.6731,5.6731,0,0,1,2.3882-.4936,4.8011,4.8011,0,0,1,3.6519,1.5386Zm-5.2364,5.8564a2.746,2.746,0,0,0,.77,1.9292,2.5114,2.5114,0,0,0,.85.5742,2.7383,2.7383,0,0,0,1.0678.2066,2.6831,2.6831,0,0,0,1.045-.2066,2.5213,2.5213,0,0,0,.85-.5742,2.9674,2.9674,0,0,0,.5742-.85,2.4784,2.4784,0,0,0,.2182-1.0337,2.5582,2.5582,0,0,0-.2182-1.0449,2.927,2.927,0,0,0-.5742-.8613,2.5276,2.5276,0,0,0-.85-.5738,2.6762,2.6762,0,0,0-1.045-.207,2.7313,2.7313,0,0,0-1.0678.207,2.5177,2.5177,0,0,0-.85.5738,2.8269,2.8269,0,0,0-.563.8384A2.5161,2.5161,0,0,0,84.4907,13.1362Z"/><path class="cls-1" d="M96.502,7.28h4.1567V8.7729a4.5549,4.5549,0,0,1,1.7226-1.39,5.3885,5.3885,0,0,1,2.044-.356,5.1141,5.1141,0,0,1,2.1245.4019,4.242,4.242,0,0,1,1.5039,1.1367,3.2712,3.2712,0,0,1,.689,1.332,6.9393,6.9393,0,0,1,.1841,1.6768v7.4868H104.77V13.1133a6.4248,6.4248,0,0,0-.1259-1.4121,1.7563,1.7563,0,0,0-.4478-.8614,1.578,1.578,0,0,0-.62-.3906,2.3227,2.3227,0,0,0-.7349-.1147,2.0547,2.0547,0,0,0-1.6191.6313,2.6216,2.6216,0,0,0-.563,1.8032v6.2925H96.502Z"/><path class="cls-1" d="M120.6162,0h4.18V19.0615h-4.18V17.7524a4.3624,4.3624,0,0,1-3.6059,1.6768,5.7339,5.7339,0,0,1-2.3653-.4824,5.8534,5.8534,0,0,1-1.8833-1.3321,6.086,6.086,0,0,1-1.2514-1.998,7.0357,7.0357,0,0,1-.023-4.88A6.003,6.003,0,0,1,112.6929,8.75a5.7036,5.7036,0,0,1,4.2715-1.8374,4.8008,4.8008,0,0,1,3.6518,1.5386ZM115.38,13.1362a2.7454,2.7454,0,0,0,.7695,1.9292,2.5114,2.5114,0,0,0,.85.5742,2.7388,2.7388,0,0,0,1.0679.2066,2.6826,2.6826,0,0,0,1.0449-.2066,2.5213,2.5213,0,0,0,.85-.5742,2.9674,2.9674,0,0,0,.5742-.85,2.4769,2.4769,0,0,0,.2183-1.0337,2.5567,2.5567,0,0,0-.2183-1.0449,2.927,2.927,0,0,0-.5742-.8613,2.5276,2.5276,0,0,0-.85-.5738,2.7407,2.7407,0,0,0-2.09,0,2.5177,2.5177,0,0,0-.85.5738,3.0116,3.0116,0,0,0-.5743.8384A2.3931,2.3931,0,0,0,115.38,13.1362Z"/><path class="cls-1" d="M139.1255,24.9409h-4.1567V7.28h4.1567V8.5889a4.3875,4.3875,0,0,1,3.6289-1.6763,5.6441,5.6441,0,0,1,2.354.4936A5.98,5.98,0,0,1,147.0029,8.75a6.0928,6.0928,0,0,1,1.2515,1.998,6.6978,6.6978,0,0,1,.4482,2.4571,6.5178,6.5178,0,0,1-.4482,2.4345,6.2548,6.2548,0,0,1-1.24,1.9751A5.6855,5.6855,0,0,1,142.8,19.4292a4.9082,4.9082,0,0,1-3.6748-1.5161Zm5.2363-11.7358a2.823,2.823,0,0,0-.1953-1.0449,2.5117,2.5117,0,0,0-.5625-.8614,2.8225,2.8225,0,0,0-.8613-.5854,2.7018,2.7018,0,0,0-2.1011-.0113,2.5547,2.5547,0,0,0-.8384.5738,2.9173,2.9173,0,0,0-.5742.8613,2.5583,2.5583,0,0,0-.2183,1.0449,2.5984,2.5984,0,0,0,.2066,1.0337,2.5626,2.5626,0,0,0,.5742.8384,2.9094,2.9094,0,0,0,.8613.5737,2.549,2.549,0,0,0,1.045.2183,2.5979,2.5979,0,0,0,1.0336-.2066,2.5513,2.5513,0,0,0,.8379-.5742,2.97,2.97,0,0,0,.5743-.85A2.4245,2.4245,0,0,0,144.3618,13.2051Z"/><path class="cls-1" d="M154.9951,7.28V13.917a2.1141,2.1141,0,1,0,4.2261,0V7.28h4.1567v7.4414a4.2144,4.2144,0,0,1-1.5732,3.5825,9.8317,9.8317,0,0,1-9.3931,0,4.2131,4.2131,0,0,1-1.5732-3.5825V7.28Z"/><path class="cls-1" d="M165.6973,2.7559a2.2584,2.2584,0,0,1,.1836-.9073A2.384,2.384,0,0,1,167.1323.5967a2.3334,2.3334,0,0,1,1.8145,0,2.3794,2.3794,0,0,1,1.2514,1.2519,2.2587,2.2587,0,0,1,.1841.9073,2.2562,2.2562,0,0,1-.1841.9067,2.3791,2.3791,0,0,1-1.2514,1.252,2.3345,2.3345,0,0,1-1.8145,0,2.3837,2.3837,0,0,1-1.2514-1.252A2.2558,2.2558,0,0,1,165.6973,2.7559ZM170.1294,7.28V19.0615h-4.1567V7.28Z"/><path class="cls-1" d="M180.5562,10.3115a4.8617,4.8617,0,0,0-2.251-.5971,1.6908,1.6908,0,0,0-.93.2294.7052.7052,0,0,0-.356.62.8065.8065,0,0,0,.0572.333.5887.5887,0,0,0,.2524.2412,2.17,2.17,0,0,0,.5742.2065q.3794.0922.999.23a4.7716,4.7716,0,0,1,2.5723,1.2285,3.1323,3.1323,0,0,1,.85,2.2622,4.1054,4.1054,0,0,1-.4131,1.86,3.9583,3.9583,0,0,1-1.1484,1.3891,5.46,5.46,0,0,1-1.7686.8731,7.8933,7.8933,0,0,1-2.2734.31,9.24,9.24,0,0,1-4.708-1.3549l1.5156-2.94a5.9207,5.9207,0,0,0,3.3071,1.1944,1.6274,1.6274,0,0,0,.9419-.2525.7556.7556,0,0,0,.3672-.643,1.0735,1.0735,0,0,0-.0571-.379.6232.6232,0,0,0-.2412-.2758,1.9363,1.9363,0,0,0-.54-.23q-.3561-.1033-.93-.2183a5.3234,5.3234,0,0,1-2.6988-1.16,2.8693,2.8693,0,0,1-.7695-2.1245,4.18,4.18,0,0,1,.3677-1.78,3.6857,3.6857,0,0,1,1.0561-1.3437,4.96,4.96,0,0,1,1.6651-.85,7.4126,7.4126,0,0,1,2.17-.2983,9.8465,9.8465,0,0,1,3.79.7578Z"/><path class="cls-1" d="M182.7837,11.1841h6.5913v3.4678h-6.5913Z"/><path class="cls-1" d="M190.293,2.7559a2.2584,2.2584,0,0,1,.1836-.9073A2.384,2.384,0,0,1,191.728.5967a2.3334,2.3334,0,0,1,1.8145,0,2.3794,2.3794,0,0,1,1.2514,1.2519,2.2587,2.2587,0,0,1,.1841.9073,2.2562,2.2562,0,0,1-.1841.9067,2.3791,2.3791,0,0,1-1.2514,1.252,2.3345,2.3345,0,0,1-1.8145,0,2.3837,2.3837,0,0,1-1.2514-1.252A2.2558,2.2558,0,0,1,190.293,2.7559ZM194.7251,7.28V24.9409h-4.1567V7.28Z"/><path class="cls-1" d="M201.0869,13.8711q0,2.6872,2.5259,2.687a2.2574,2.2574,0,0,0,2.0444-1.102h4.0191q-1.218,4.0422-6.0865,4.0419a7.9912,7.9912,0,0,1-2.7329-.4482,6.0893,6.0893,0,0,1-2.124-1.2744A5.6813,5.6813,0,0,1,197.3662,15.8a6.5844,6.5844,0,0,1-.4824-2.5723,7.2775,7.2775,0,0,1,.4595-2.6523,5.58,5.58,0,0,1,1.309-2.01,5.7919,5.7919,0,0,1,2.0557-1.2744,7.7682,7.7682,0,0,1,2.7212-.4477,7.6043,7.6043,0,0,1,2.687.4477,5.4442,5.4442,0,0,1,2.021,1.2974A5.6445,5.6445,0,0,1,209.4,10.6675a8.2445,8.2445,0,0,1,.4365,2.7676v.436Zm4.8687-2.4111a2.5013,2.5013,0,0,0-.85-1.4009,2.6353,2.6353,0,0,0-3.1348-.023,2.2839,2.2839,0,0,0-.77,1.4239Z"/><path class="cls-1" d="M15.3306,34.6621h4.18V46.4438h-4.18v-1.309a4.3627,4.3627,0,0,1-3.606,1.6767A5.8479,5.8479,0,0,1,9.3594,46.34a5.6941,5.6941,0,0,1-1.8833-1.32,6.0846,6.0846,0,0,1-1.2515-1.998,6.8256,6.8256,0,0,1-.4482-2.5034,6.6378,6.6378,0,0,1,.4365-2.4A6.1631,6.1631,0,0,1,7.43,36.1323a5.7405,5.7405,0,0,1,1.86-1.3437,5.6738,5.6738,0,0,1,2.3882-.4937,4.8011,4.8011,0,0,1,3.6519,1.5386Zm-5.2364,5.8565a2.7465,2.7465,0,0,0,.77,1.9292,2.5129,2.5129,0,0,0,.85.5742,2.7382,2.7382,0,0,0,1.0678.2065,2.683,2.683,0,0,0,1.045-.2065,2.5227,2.5227,0,0,0,.85-.5742,2.9692,2.9692,0,0,0,.5742-.85,2.478,2.478,0,0,0,.2183-1.0336A2.5588,2.5588,0,0,0,15.25,39.52a2.927,2.927,0,0,0-.5742-.8613,2.5288,2.5288,0,0,0-.85-.5737,2.6745,2.6745,0,0,0-1.045-.2071,2.73,2.73,0,0,0-1.0678.2071,2.5189,2.5189,0,0,0-.85.5737,2.8269,2.8269,0,0,0-.563.8384A2.5166,2.5166,0,0,0,10.0942,40.5186Z"/><path class="cls-1" d="M30.9927,38.4746A3.8478,3.8478,0,0,0,28.811,37.74a2.97,2.97,0,0,0-1.1137.2066,2.761,2.761,0,0,0-.9073.5859,2.69,2.69,0,0,0-.6084.8955,2.9474,2.9474,0,0,0-.2182,1.16,2.8815,2.8815,0,0,0,.2182,1.1367,2.7746,2.7746,0,0,0,.5972.896,2.6083,2.6083,0,0,0,.9067.5855,3.0617,3.0617,0,0,0,1.1255.2065,3.4357,3.4357,0,0,0,2.1817-.8037v3.5371a7.3549,7.3549,0,0,1-2.9165.666A6.8952,6.8952,0,0,1,25.63,46.375a6.1239,6.1239,0,0,1-3.4566-3.2036,5.9554,5.9554,0,0,1-.5283-2.5381,6.3436,6.3436,0,0,1,.5054-2.56,6.1354,6.1354,0,0,1,1.3779-1.9981,6.2459,6.2459,0,0,1,2.0786-1.3091,7.0471,7.0471,0,0,1,2.5835-.4707,6.1757,6.1757,0,0,1,2.8018.6431Z"/><path class="cls-1" d="M33.7021,27.3823h4.1568v8.773a4.5543,4.5543,0,0,1,1.7226-1.39,5.3885,5.3885,0,0,1,2.044-.3559A4.3614,4.3614,0,0,1,44.99,35.6382,4.6941,4.6941,0,0,1,46.127,38.957v7.4868H41.97V40.4956a6.1651,6.1651,0,0,0-.1377-1.4468,1.6854,1.6854,0,0,0-.459-.85,1.9532,1.9532,0,0,0-1.332-.4824,2.0547,2.0547,0,0,0-1.6191.6313,2.6217,2.6217,0,0,0-.563,1.8033v6.2924H33.7021Z"/><path class="cls-1" d="M52.4653,41.2534q0,2.6872,2.5259,2.687a2.2574,2.2574,0,0,0,2.0444-1.102h4.0191q-1.218,4.0422-6.0864,4.042a7.988,7.988,0,0,1-2.7329-.4483,6.0888,6.0888,0,0,1-2.1241-1.2744,5.6813,5.6813,0,0,1-1.3667-1.9751,6.5839,6.5839,0,0,1-.4824-2.5722,7.2781,7.2781,0,0,1,.4595-2.6524,5.58,5.58,0,0,1,1.3091-2.01,5.7934,5.7934,0,0,1,2.0556-1.2744,7.7686,7.7686,0,0,1,2.7212-.4477,7.6043,7.6043,0,0,1,2.687.4477,5.4459,5.4459,0,0,1,2.021,1.2974A5.6454,5.6454,0,0,1,60.7788,38.05a8.2445,8.2445,0,0,1,.4365,2.7676v.436Zm4.8687-2.4111a2.502,2.502,0,0,0-.85-1.4009,2.6351,2.6351,0,0,0-3.1348-.0229,2.2841,2.2841,0,0,0-.77,1.4238Z"/><path class="cls-1" d="M68.15,38.13v8.3134H63.9937V38.13h-1.378V34.6621h1.378V31.1255H68.15v3.5366h2.3657V38.13Z"/><path class="cls-1" d="M75.82,41.2534q0,2.6872,2.5259,2.687a2.2574,2.2574,0,0,0,2.0444-1.102H84.41q-1.218,4.0422-6.0865,4.042a7.9888,7.9888,0,0,1-2.7329-.4483,6.0893,6.0893,0,0,1-2.124-1.2744A5.6813,5.6813,0,0,1,72.1,43.1826a6.5839,6.5839,0,0,1-.4824-2.5722,7.2781,7.2781,0,0,1,.46-2.6524,5.58,5.58,0,0,1,1.309-2.01,5.7938,5.7938,0,0,1,2.0557-1.2744,7.7682,7.7682,0,0,1,2.7212-.4477,7.6043,7.6043,0,0,1,2.687.4477,5.4467,5.4467,0,0,1,2.021,1.2974A5.6454,5.6454,0,0,1,84.1338,38.05a8.2445,8.2445,0,0,1,.4365,2.7676v.436Zm4.8687-2.4111a2.502,2.502,0,0,0-.85-1.4009,2.6351,2.6351,0,0,0-3.1348-.0229,2.2836,2.2836,0,0,0-.7695,1.4238Z"/><path class="cls-1" d="M86.7061,34.6621h4.1567v1.9292a4.7781,4.7781,0,0,1,1.6309-1.6191,4.3856,4.3856,0,0,1,2.25-.5625H95.1a2.57,2.57,0,0,1,.4478.0459v3.9731a3.95,3.95,0,0,0-1.7911-.4136,2.6738,2.6738,0,0,0-2.17.8614,3.8181,3.8181,0,0,0-.7236,2.5146v5.0527H86.7061Z"/><path class="cls-1" d="M113.8286,27.3823h4.18V46.4438h-4.18v-1.309a4.3626,4.3626,0,0,1-3.6059,1.6767,5.7339,5.7339,0,0,1-2.3653-.4824,5.8546,5.8546,0,0,1-1.8833-1.332,6.0864,6.0864,0,0,1-1.2514-1.9981,7.0354,7.0354,0,0,1-.023-4.88,6.0025,6.0025,0,0,1,1.2056-1.9864,5.7046,5.7046,0,0,1,4.2715-1.8374,4.8008,4.8008,0,0,1,3.6518,1.5386Zm-5.2363,13.1363a2.7458,2.7458,0,0,0,.77,1.9292,2.5129,2.5129,0,0,0,.85.5742,2.7387,2.7387,0,0,0,1.0679.2065,2.6826,2.6826,0,0,0,1.0449-.2065,2.5227,2.5227,0,0,0,.85-.5742,2.9692,2.9692,0,0,0,.5742-.85,2.4765,2.4765,0,0,0,.2183-1.0336,2.5572,2.5572,0,0,0-.2183-1.045,2.927,2.927,0,0,0-.5742-.8613,2.5288,2.5288,0,0,0-.85-.5737,2.74,2.74,0,0,0-2.09,0,2.5189,2.5189,0,0,0-.85.5737,3.0116,3.0116,0,0,0-.5743.8384A2.395,2.395,0,0,0,108.5923,40.5186Z"/><path class="cls-1" d="M124.76,34.6621v6.6372a2.1141,2.1141,0,1,0,4.226,0V34.6621h4.1568v7.4414A4.2142,4.2142,0,0,1,131.57,45.686a9.8308,9.8308,0,0,1-9.393,0,4.2129,4.2129,0,0,1-1.5733-3.5825V34.6621Z"/><path class="cls-1" d="M152.2041,38.4746a3.8475,3.8475,0,0,0-2.1816-.7349,2.97,2.97,0,0,0-1.1138.2066,2.7606,2.7606,0,0,0-.9072.5859,2.6869,2.6869,0,0,0-.6084.8955,2.9474,2.9474,0,0,0-.2183,1.16,2.8815,2.8815,0,0,0,.2183,1.1367,2.7727,2.7727,0,0,0,.5971.896,2.6087,2.6087,0,0,0,.9068.5855,3.061,3.061,0,0,0,1.1255.2065,3.4355,3.4355,0,0,0,2.1816-.8037v3.5371a7.3546,7.3546,0,0,1-2.9165.666,6.8952,6.8952,0,0,1-2.4458-.4365,6.1241,6.1241,0,0,1-3.4565-3.2036,5.9539,5.9539,0,0,1-.5284-2.5381,6.3436,6.3436,0,0,1,.5054-2.56,6.1354,6.1354,0,0,1,1.3779-1.9981,6.2469,6.2469,0,0,1,2.0786-1.3091,7.0475,7.0475,0,0,1,2.5835-.4707,6.1757,6.1757,0,0,1,2.8018.6431Z"/><path class="cls-1" d="M163.4346,34.6621h4.18V46.4438h-4.18v-1.309a4.3627,4.3627,0,0,1-3.606,1.6767,5.8479,5.8479,0,0,1-2.3652-.4712,5.6951,5.6951,0,0,1-1.8833-1.32,6.0862,6.0862,0,0,1-1.2515-1.998,6.8256,6.8256,0,0,1-.4482-2.5034,6.6378,6.6378,0,0,1,.4365-2.4,6.1631,6.1631,0,0,1,1.2173-1.9864,5.7405,5.7405,0,0,1,1.86-1.3437,5.6738,5.6738,0,0,1,2.3882-.4937,4.8011,4.8011,0,0,1,3.6519,1.5386Zm-5.2364,5.8565a2.7465,2.7465,0,0,0,.77,1.9292,2.5129,2.5129,0,0,0,.85.5742,2.7384,2.7384,0,0,0,1.0679.2065,2.6829,2.6829,0,0,0,1.0449-.2065,2.5227,2.5227,0,0,0,.85-.5742,2.9692,2.9692,0,0,0,.5742-.85,2.478,2.478,0,0,0,.2183-1.0336,2.5588,2.5588,0,0,0-.2183-1.045,2.927,2.927,0,0,0-.5742-.8613,2.5288,2.5288,0,0,0-.85-.5737,2.6744,2.6744,0,0,0-1.0449-.2071,2.73,2.73,0,0,0-1.0679.2071,2.5189,2.5189,0,0,0-.85.5737,2.8269,2.8269,0,0,0-.563.8384A2.5166,2.5166,0,0,0,158.1982,40.5186Z"/><path class="cls-1" d="M170.21,34.6621h4.1567v1.4932a4.5537,4.5537,0,0,1,1.7227-1.39,5.388,5.388,0,0,1,2.0439-.3559,5.1141,5.1141,0,0,1,2.1245.4018,4.242,4.242,0,0,1,1.5039,1.1367,3.2709,3.2709,0,0,1,.689,1.3321,6.9328,6.9328,0,0,1,.1841,1.6767v7.4868h-4.1572V40.4956a6.4191,6.4191,0,0,0-.126-1.4121,1.7555,1.7555,0,0,0-.4478-.8613,1.5771,1.5771,0,0,0-.62-.3907,2.3256,2.3256,0,0,0-.7349-.1147,2.0548,2.0548,0,0,0-1.6191.6313,2.6217,2.6217,0,0,0-.563,1.8033v6.2924H170.21Z"/><path class="cls-1" d="M185.2285,34.6621h4.1568v1.4932a4.5543,4.5543,0,0,1,1.7226-1.39,5.3885,5.3885,0,0,1,2.044-.3559,5.1148,5.1148,0,0,1,2.1245.4018,4.2429,4.2429,0,0,1,1.5039,1.1367,3.27,3.27,0,0,1,.6889,1.3321,6.9328,6.9328,0,0,1,.1841,1.6767v7.4868h-4.1572V40.4956a6.4191,6.4191,0,0,0-.126-1.4121,1.7562,1.7562,0,0,0-.4477-.8613,1.5774,1.5774,0,0,0-.62-.3907,2.325,2.325,0,0,0-.7348-.1147,2.0549,2.0549,0,0,0-1.6192.6313,2.6221,2.6221,0,0,0-.5629,1.8033v6.2924h-4.1568Z"/><path class="cls-1" d="M209.3428,34.6621h4.18V46.4438h-4.18v-1.309a4.3627,4.3627,0,0,1-3.606,1.6767,5.8479,5.8479,0,0,1-2.3652-.4712,5.6951,5.6951,0,0,1-1.8833-1.32,6.0862,6.0862,0,0,1-1.2515-1.998,6.8256,6.8256,0,0,1-.4482-2.5034,6.6378,6.6378,0,0,1,.4365-2.4,6.1631,6.1631,0,0,1,1.2173-1.9864,5.7405,5.7405,0,0,1,1.86-1.3437,5.6738,5.6738,0,0,1,2.3882-.4937,4.8011,4.8011,0,0,1,3.6519,1.5386Zm-5.2364,5.8565a2.7465,2.7465,0,0,0,.77,1.9292,2.5129,2.5129,0,0,0,.85.5742,2.7384,2.7384,0,0,0,1.0679.2065,2.6829,2.6829,0,0,0,1.0449-.2065,2.5227,2.5227,0,0,0,.85-.5742,2.9692,2.9692,0,0,0,.5742-.85,2.478,2.478,0,0,0,.2183-1.0336,2.5588,2.5588,0,0,0-.2183-1.045,2.927,2.927,0,0,0-.5742-.8613,2.5288,2.5288,0,0,0-.85-.5737,2.6744,2.6744,0,0,0-1.0449-.2071,2.73,2.73,0,0,0-1.0679.2071,2.5189,2.5189,0,0,0-.85.5737,2.8269,2.8269,0,0,0-.563.8384A2.5166,2.5166,0,0,0,204.1064,40.5186Z"/><path class="cls-1" d="M220.2734,27.3823v8.4512a4.8737,4.8737,0,0,1,3.6748-1.5386,5.7545,5.7545,0,0,1,2.4.4937,5.6737,5.6737,0,0,1,1.86,1.332,6.1514,6.1514,0,0,1,1.2056,1.9751,6.9514,6.9514,0,0,1-.0118,4.88,6.0942,6.0942,0,0,1-1.2514,1.998,5.9713,5.9713,0,0,1-1.8946,1.3433,5.6445,5.6445,0,0,1-2.354.4941,4.3869,4.3869,0,0,1-3.6289-1.6767v1.309h-4.1567V27.3823ZM225.51,40.5874a2.6908,2.6908,0,0,0-.7808-1.9062,2.8642,2.8642,0,0,0-.85-.5855,2.534,2.534,0,0,0-1.0566-.2183,2.5874,2.5874,0,0,0-1.0332.2071,2.556,2.556,0,0,0-.8384.5737,2.9173,2.9173,0,0,0-.5742.8613,2.5572,2.5572,0,0,0-.2183,1.045,2.5979,2.5979,0,0,0,.2065,1.0336,2.5613,2.5613,0,0,0,.5743.8384,2.9116,2.9116,0,0,0,.8613.5738,2.55,2.55,0,0,0,1.0449.2182,2.5983,2.5983,0,0,0,1.0337-.2065,2.5528,2.5528,0,0,0,.8379-.5742,2.9692,2.9692,0,0,0,.5742-.85A2.4242,2.4242,0,0,0,225.51,40.5874Z"/><path class="cls-1" d="M231.71,30.1382a2.26,2.26,0,0,1,.1836-.9072,2.3843,2.3843,0,0,1,1.2515-1.252,2.3334,2.3334,0,0,1,1.8145,0,2.38,2.38,0,0,1,1.2514,1.252,2.326,2.326,0,0,1,0,1.8139,2.38,2.38,0,0,1-1.2514,1.252,2.3334,2.3334,0,0,1-1.8145,0,2.3843,2.3843,0,0,1-1.2515-1.252A2.2572,2.2572,0,0,1,231.71,30.1382Zm4.4322,4.5239V46.4438h-4.1568V34.6621Z"/><path class="cls-1" d="M246.5693,37.6938a4.861,4.861,0,0,0-2.2509-.5971,1.69,1.69,0,0,0-.93.23.705.705,0,0,0-.356.62.808.808,0,0,0,.0571.333.5891.5891,0,0,0,.2525.2412,2.17,2.17,0,0,0,.5742.2066q.3793.0922.999.23a4.7716,4.7716,0,0,1,2.5723,1.2285,3.1323,3.1323,0,0,1,.85,2.2623,4.1053,4.1053,0,0,1-.4131,1.86,3.96,3.96,0,0,1-1.1484,1.3892,5.461,5.461,0,0,1-1.7686.873,7.89,7.89,0,0,1-2.2734.31,9.24,9.24,0,0,1-4.708-1.355l1.5156-2.94a5.9207,5.9207,0,0,0,3.3071,1.1944,1.6276,1.6276,0,0,0,.9419-.2525.7556.7556,0,0,0,.3672-.643,1.0725,1.0725,0,0,0-.0571-.3789.6245.6245,0,0,0-.2412-.2759,1.9371,1.9371,0,0,0-.54-.23q-.356-.1032-.93-.2183a5.3235,5.3235,0,0,1-2.6987-1.16,2.8691,2.8691,0,0,1-.7695-2.1245,4.1784,4.1784,0,0,1,.3677-1.78,3.6861,3.6861,0,0,1,1.0561-1.3438,4.96,4.96,0,0,1,1.6651-.85,7.4126,7.4126,0,0,1,2.17-.2983,9.8469,9.8469,0,0,1,3.79.7578Z"/><path class="cls-1" d="M45.4722,54.7646V73.8262H41.3154V54.7646Z"/><path class="cls-1" d="M51.834,68.6357q0,2.6867,2.5259,2.6875a2.2587,2.2587,0,0,0,2.0444-1.1025h4.019q-1.218,4.0415-6.0864,4.042a7.9912,7.9912,0,0,1-2.7329-.4482A6.0892,6.0892,0,0,1,49.48,72.54a5.6715,5.6715,0,0,1-1.3667-1.9746,6.5874,6.5874,0,0,1-.4824-2.5722A7.2838,7.2838,0,0,1,48.09,65.34a5.5768,5.5768,0,0,1,1.3091-2.0087,5.7931,5.7931,0,0,1,2.0557-1.2754,7.789,7.789,0,0,1,2.7212-.4473,7.6247,7.6247,0,0,1,2.687.4473,5.4463,5.4463,0,0,1,2.021,1.2978,5.6459,5.6459,0,0,1,1.2632,2.0781,8.247,8.247,0,0,1,.4365,2.7676v.4365Zm4.8686-2.4111a2.505,2.505,0,0,0-.85-1.4014,2.6339,2.6339,0,0,0-3.1347-.0224,2.2842,2.2842,0,0,0-.77,1.4238Zm1.4009-9.4394-3.9961,3.5371-1.9292-1.4239,3.2842-4.02Z"/><path class="cls-1" d="M75.9019,62.0449V73.0225a12.3,12.3,0,0,1-.1148,1.7685,7.683,7.683,0,0,1-.3218,1.3779,4.334,4.334,0,0,1-.8613,1.4122,5.7734,5.7734,0,0,1-1.4121,1.1367,7.4883,7.4883,0,0,1-1.8721.7578,9.44,9.44,0,0,1-4.7881-.0684,6.9076,6.9076,0,0,1-2.01-.9531A5.5546,5.5546,0,0,1,63.11,77.03a4.7154,4.7154,0,0,1-.7349-1.78H67.06a1.8666,1.8666,0,0,0,1.9751,1.1709,2.6473,2.6473,0,0,0,2.0092-.7344,2.8433,2.8433,0,0,0,.7007-2.0439v-1.125a6.9676,6.9676,0,0,1-.8843.7226A4.9476,4.9476,0,0,1,70,73.7109a4.0713,4.0713,0,0,1-.9184.2647,6.4417,6.4417,0,0,1-1.0567.08,6.01,6.01,0,0,1-2.3193-.4366,5.3528,5.3528,0,0,1-3.02-3.0888,6.611,6.611,0,0,1-.4253-2.4229,6.7708,6.7708,0,0,1,.4594-2.5146,6.4837,6.4837,0,0,1,1.2515-2.02,5.7549,5.7549,0,0,1,1.8833-1.3555,5.6971,5.6971,0,0,1,2.377-.4941,4.57,4.57,0,0,1,3.5141,1.5625v-1.24Zm-9.3243,5.833a2.7412,2.7412,0,0,0,.77,1.9287,2.5117,2.5117,0,0,0,.85.5743,2.7223,2.7223,0,0,0,1.0678.207,2.6672,2.6672,0,0,0,1.045-.207,2.5215,2.5215,0,0,0,.85-.5743,2.9091,2.9091,0,0,0,.5742-.86,2.6381,2.6381,0,0,0,0-2.1016,2.8642,2.8642,0,0,0-.5855-.85,2.6525,2.6525,0,0,0-.8613-.5742,2.6257,2.6257,0,0,0-1.022-.207,2.4933,2.4933,0,0,0-1.0336.2177,3.0087,3.0087,0,0,0-.85.5743,2.7143,2.7143,0,0,0-.5854.8388A2.4684,2.4684,0,0,0,66.5776,67.8779Z"/><path class="cls-1" d="M87.8438,62.0449h4.18V73.8262h-4.18V72.5176a4.3631,4.3631,0,0,1-3.606,1.6758,5.8578,5.8578,0,0,1-2.3652-.4707,5.6944,5.6944,0,0,1-1.8833-1.32,6.0846,6.0846,0,0,1-1.2515-1.998,6.8245,6.8245,0,0,1-.4482-2.5029,6.64,6.64,0,0,1,.4365-2.4,6.1653,6.1653,0,0,1,1.2173-1.9864,5.7332,5.7332,0,0,1,1.86-1.3437,5.6733,5.6733,0,0,1,2.3882-.4941,4.8015,4.8015,0,0,1,3.6519,1.539Zm-5.2364,5.8565a2.746,2.746,0,0,0,.77,1.9287,2.5129,2.5129,0,0,0,.85.5742,2.7385,2.7385,0,0,0,1.0678.207,2.6834,2.6834,0,0,0,1.045-.207,2.5227,2.5227,0,0,0,.85-.5742,2.9743,2.9743,0,0,0,.5742-.85,2.4761,2.4761,0,0,0,.2182-1.0332,2.5536,2.5536,0,0,0-.2182-1.045,2.927,2.927,0,0,0-.5742-.8613,2.5227,2.5227,0,0,0-.85-.5742,2.6834,2.6834,0,0,0-1.045-.207,2.7385,2.7385,0,0,0-1.0678.207,2.5129,2.5129,0,0,0-.85.5742,2.8246,2.8246,0,0,0-.563.8379A2.5176,2.5176,0,0,0,82.6074,67.9014Z"/><path class="cls-1" d="M98.7754,54.7646V73.8262H94.6187V54.7646Z"/><path class="cls-1" d="M105.1367,68.6357q0,2.6867,2.5259,2.6875a2.2586,2.2586,0,0,0,2.0444-1.1025h4.0191q-1.218,4.0415-6.0865,4.042a7.9912,7.9912,0,0,1-2.7329-.4482,6.091,6.091,0,0,1-2.124-1.2745,5.6728,5.6728,0,0,1-1.3667-1.9746,6.5874,6.5874,0,0,1-.4824-2.5722,7.2817,7.2817,0,0,1,.46-2.6534,5.5753,5.5753,0,0,1,1.309-2.0087,5.794,5.794,0,0,1,2.0557-1.2754,7.7894,7.7894,0,0,1,2.7212-.4473,7.6247,7.6247,0,0,1,2.687.4473,5.4463,5.4463,0,0,1,2.021,1.2978,5.6433,5.6433,0,0,1,1.2632,2.0781,8.247,8.247,0,0,1,.4365,2.7676v.4365Zm4.8687-2.4111a2.505,2.505,0,0,0-.85-1.4014,2.6341,2.6341,0,0,0-3.1348-.0224,2.2836,2.2836,0,0,0-.77,1.4238Z"/><path class="cls-1" d="M116.0225,62.0449h4.1567v1.4463a5.3757,5.3757,0,0,1,3.8125-1.63,4.4328,4.4328,0,0,1,3.9961,2.2041,4.4576,4.4576,0,0,1,3.9961-2.2275,4.9676,4.9676,0,0,1,1.5615.2412,3.2109,3.2109,0,0,1,1.2632.7578,3.6253,3.6253,0,0,1,.8384,1.3438,5.7074,5.7074,0,0,1,.31,1.998v7.6475H131.8V68.0156a7.05,7.05,0,0,0-.1265-1.47,2.3215,2.3215,0,0,0-.3676-.8955,1.2232,1.2232,0,0,0-.5625-.4365,2.0442,2.0442,0,0,0-.689-.1153q-1.998,0-1.9981,2.917v5.8106H123.9V68.0156a7.954,7.954,0,0,0-.1147-1.4814,2.7527,2.7527,0,0,0-.3331-.93,1.1145,1.1145,0,0,0-.5629-.4707,2.5035,2.5035,0,0,0-1.5386-.0117,1.3032,1.3032,0,0,0-.6084.4482,2.4321,2.4321,0,0,0-.4136.918,6.3671,6.3671,0,0,0-.1494,1.5273v5.8106h-4.1567Z"/><path class="cls-1" d="M142.3188,68.6357q0,2.6867,2.5259,2.6875a2.2588,2.2588,0,0,0,2.0445-1.1025h4.019q-1.218,4.0415-6.0864,4.042a7.9908,7.9908,0,0,1-2.7329-.4482,6.0905,6.0905,0,0,1-2.1241-1.2745,5.6728,5.6728,0,0,1-1.3667-1.9746,6.5892,6.5892,0,0,1-.4824-2.5722,7.2817,7.2817,0,0,1,.4595-2.6534,5.5755,5.5755,0,0,1,1.3091-2.0087,5.7927,5.7927,0,0,1,2.0556-1.2754,7.79,7.79,0,0,1,2.7212-.4473,7.6243,7.6243,0,0,1,2.687.4473,5.4455,5.4455,0,0,1,2.021,1.2978,5.6433,5.6433,0,0,1,1.2632,2.0781,8.2445,8.2445,0,0,1,.4365,2.7676v.4365Zm4.8687-2.4111a2.505,2.505,0,0,0-.85-1.4014,2.6341,2.6341,0,0,0-3.1348-.0224,2.2841,2.2841,0,0,0-.7695,1.4238Z"/><path class="cls-1" d="M153.2041,62.0449h4.1567v1.4922a4.5508,4.5508,0,0,1,1.7227-1.3887,5.3877,5.3877,0,0,1,2.0439-.3564,5.1,5.1,0,0,1,2.1246.4023,4.23,4.23,0,0,1,1.5039,1.1368,3.266,3.266,0,0,1,.6889,1.332,6.93,6.93,0,0,1,.1841,1.6758v7.4873h-4.1572V67.8779a6.4129,6.4129,0,0,0-.126-1.4121,1.76,1.76,0,0,0-.4478-.8613,1.5864,1.5864,0,0,0-.62-.3906,2.3223,2.3223,0,0,0-.7348-.1153,2.0553,2.0553,0,0,0-1.6192.6319,2.6224,2.6224,0,0,0-.563,1.8027v6.293h-4.1567Z"/><path class="cls-1" d="M172.8628,65.5127v8.3135h-4.1567V65.5127h-1.378V62.0449h1.378V58.5078h4.1567v3.5371h2.3657v3.4678Z"/><path class="cls-1" d="M193.2329,62.0449h4.18V73.8262h-4.18V72.5176a4.3629,4.3629,0,0,1-3.6059,1.6758,5.8582,5.8582,0,0,1-2.3653-.4707,5.6964,5.6964,0,0,1-1.8833-1.32,6.086,6.086,0,0,1-1.2514-1.998,6.8224,6.8224,0,0,1-.4483-2.5029,6.64,6.64,0,0,1,.4365-2.4,6.167,6.167,0,0,1,1.2173-1.9864,5.7336,5.7336,0,0,1,1.86-1.3437,5.6733,5.6733,0,0,1,2.3882-.4941,4.8011,4.8011,0,0,1,3.6518,1.539Zm-5.2363,5.8565a2.7453,2.7453,0,0,0,.7695,1.9287,2.5129,2.5129,0,0,0,.85.5742,2.739,2.739,0,0,0,1.0679.207,2.683,2.683,0,0,0,1.0449-.207,2.5227,2.5227,0,0,0,.85-.5742,2.9743,2.9743,0,0,0,.5742-.85,2.4747,2.4747,0,0,0,.2183-1.0332,2.552,2.552,0,0,0-.2183-1.045,2.927,2.927,0,0,0-.5742-.8613,2.5227,2.5227,0,0,0-.85-.5742,2.683,2.683,0,0,0-1.0449-.207,2.739,2.739,0,0,0-1.0679.207,2.5129,2.5129,0,0,0-.85.5742,2.8246,2.8246,0,0,0-.563.8379A2.5176,2.5176,0,0,0,187.9966,67.9014Z"/><path class="cls-1" d="M204.1646,62.0449v6.6367a2.1141,2.1141,0,1,0,4.226,0V62.0449h4.1568v7.4405a4.2146,4.2146,0,0,1-1.5733,3.583,9.8315,9.8315,0,0,1-9.393,0,4.2133,4.2133,0,0,1-1.5733-3.583v-7.44Z"/><path class="cls-1" d="M0,101.209V83.8926H4.501L12.8149,94.48V83.8926h4.4786V101.209H12.8149L4.501,90.6221V101.209Z"/><path class="cls-1" d="M20.0259,95.2148a5.7368,5.7368,0,0,1,.5283-2.4462,5.9989,5.9989,0,0,1,1.47-1.9747,6.991,6.991,0,0,1,2.2393-1.32A8.0644,8.0644,0,0,1,27.1,88.9912a8.1977,8.1977,0,0,1,2.8135.4707,6.9625,6.9625,0,0,1,2.2505,1.3086,5.8939,5.8939,0,0,1,1.4814,1.9981,6.1087,6.1087,0,0,1,.5283,2.5615,5.9945,5.9945,0,0,1-.54,2.5605,6.0765,6.0765,0,0,1-1.481,1.9981,6.6375,6.6375,0,0,1-2.2622,1.2968,8.6379,8.6379,0,0,1-2.8593.46,8.2588,8.2588,0,0,1-2.8018-.46,6.4533,6.4533,0,0,1-2.2163-1.3085,6.0755,6.0755,0,0,1-1.4585-2.0323A6.38,6.38,0,0,1,20.0259,95.2148Zm4.3867.0459a2.6591,2.6591,0,0,0,.2183,1.0909,2.9076,2.9076,0,0,0,.5742.8613,2.5129,2.5129,0,0,0,.85.5742,2.7407,2.7407,0,0,0,2.09,0,2.5227,2.5227,0,0,0,.85-.5742,2.9272,2.9272,0,0,0,.5743-.8613,2.6089,2.6089,0,0,0,.2182-1.0674,2.5531,2.5531,0,0,0-.2182-1.0449,2.9277,2.9277,0,0,0-.5743-.8614,2.5227,2.5227,0,0,0-.85-.5742,2.7407,2.7407,0,0,0-2.09,0,2.5129,2.5129,0,0,0-.85.5742,2.954,2.954,0,0,0-.5742.85A2.4688,2.4688,0,0,0,24.4126,95.2607Z"/><path class="cls-1" d="M40.4883,89.4277v6.6368a1.8982,1.8982,0,0,0,2.1128,2.1816,1.8985,1.8985,0,0,0,2.1133-2.1816V89.4277h4.1567v7.4405a4.2148,4.2148,0,0,1-1.5732,3.583,7.7106,7.7106,0,0,1-4.6968,1.1943,7.7075,7.7075,0,0,1-4.6963-1.1943,4.2136,4.2136,0,0,1-1.5733-3.583v-7.44Z"/><path class="cls-1" d="M54.7275,89.4277l2.8018,6.04,2.8477-6.04h4.6391L58.8843,101.209H56.1055l-6.063-11.7813Z"/><path class="cls-1" d="M69.4033,96.0186q0,2.6865,2.5259,2.6875a2.2587,2.2587,0,0,0,2.0444-1.1026h4.0191q-1.218,4.0416-6.0865,4.042a7.9912,7.9912,0,0,1-2.7329-.4482,6.0923,6.0923,0,0,1-2.124-1.2744,5.6741,5.6741,0,0,1-1.3667-1.9747A6.5874,6.5874,0,0,1,65.2,95.376a7.2807,7.2807,0,0,1,.46-2.6533,5.5738,5.5738,0,0,1,1.3091-2.0088,5.7927,5.7927,0,0,1,2.0556-1.2754,7.7894,7.7894,0,0,1,2.7212-.4473,7.6247,7.6247,0,0,1,2.687.4473,5.4463,5.4463,0,0,1,2.021,1.2978,5.6429,5.6429,0,0,1,1.2632,2.0782,8.246,8.246,0,0,1,.4365,2.7675v.4366Zm4.8687-2.4112a2.5044,2.5044,0,0,0-.85-1.4013,2.6339,2.6339,0,0,0-3.1348-.0225,2.2836,2.2836,0,0,0-.7695,1.4238Z"/><path class="cls-1" d="M89.3833,89.4277h4.18V101.209h-4.18V99.9a4.363,4.363,0,0,1-3.606,1.6758,5.8578,5.8578,0,0,1-2.3652-.4707,5.6976,5.6976,0,0,1-1.8833-1.32,6.0883,6.0883,0,0,1-1.2515-1.9981,6.8245,6.8245,0,0,1-.4482-2.5029,6.64,6.64,0,0,1,.4365-2.4,6.1655,6.1655,0,0,1,1.2173-1.9863,5.7328,5.7328,0,0,1,1.86-1.3438,5.6731,5.6731,0,0,1,2.3881-.4941,4.8012,4.8012,0,0,1,3.6519,1.539ZM84.147,95.2842a2.7453,2.7453,0,0,0,.7695,1.9287,2.5129,2.5129,0,0,0,.85.5742,2.739,2.739,0,0,0,1.0679.207,2.683,2.683,0,0,0,1.0449-.207,2.5227,2.5227,0,0,0,.85-.5742,2.9743,2.9743,0,0,0,.5742-.85A2.4762,2.4762,0,0,0,89.521,95.33a2.5532,2.5532,0,0,0-.2183-1.0449,2.9275,2.9275,0,0,0-.5742-.8614,2.5227,2.5227,0,0,0-.85-.5742,2.683,2.683,0,0,0-1.0449-.207,2.739,2.739,0,0,0-1.0679.207,2.5129,2.5129,0,0,0-.85.5742,2.8246,2.8246,0,0,0-.563.8379A2.5176,2.5176,0,0,0,84.147,95.2842Z"/><path class="cls-1" d="M100.3145,89.4277v6.6368a2.1141,2.1141,0,1,0,4.226,0V89.4277h4.1568v7.4405a4.2146,4.2146,0,0,1-1.5733,3.583,7.71,7.71,0,0,1-4.6968,1.1943,7.7074,7.7074,0,0,1-4.6962-1.1943,4.2133,4.2133,0,0,1-1.5733-3.583v-7.44Z"/><path class="cls-1" d="M109.8687,93.332H116.46V96.8h-6.5913Z"/><path class="cls-1" d="M118.0439,83.8926H124.75a5.1592,5.1592,0,0,1,3.6284,1.1484,4.2848,4.2848,0,0,1,1.24,3.3067,4.4936,4.4936,0,0,1-.4708,2.1709,3.9536,3.9536,0,0,1-1.4355,1.458,5.4712,5.4712,0,0,1,1.6421.5625,3.567,3.567,0,0,1,1.1025.9306,3.4706,3.4706,0,0,1,.6084,1.24,5.677,5.677,0,0,1,.1836,1.47,5.1938,5.1938,0,0,1-.4248,2.1582,4.3866,4.3866,0,0,1-1.1938,1.585,5.1172,5.1172,0,0,1-1.8721.9648,8.8688,8.8688,0,0,1-2.48.3213h-7.2344Zm4.501,6.7978h.8272q2.1123,0,2.1128-1.6767t-2.1128-1.6758h-.8272Zm0,7.0274h.9878a5.0234,5.0234,0,0,0,2.4346-.4356,1.7037,1.7037,0,0,0,0-2.8027,5.0353,5.0353,0,0,0-2.4346-.4356h-.9878Z"/><path class="cls-1" d="M133.3159,89.4277h4.1568v1.9287a4.7822,4.7822,0,0,1,1.6308-1.6191,4.3862,4.3862,0,0,1,2.2505-.5625h.356a2.569,2.569,0,0,1,.4477.0459v3.9736a3.938,3.938,0,0,0-1.791-.414,2.6741,2.6741,0,0,0-2.17.8613,3.8172,3.8172,0,0,0-.7236,2.5146v5.0528h-4.1568Z"/><path class="cls-1" d="M147.9448,89.4277v6.6368a2.1141,2.1141,0,1,0,4.2261,0V89.4277h4.1567v7.4405a4.2148,4.2148,0,0,1-1.5732,3.583,9.8317,9.8317,0,0,1-9.3931,0,4.2135,4.2135,0,0,1-1.5732-3.583v-7.44Z"/><path class="cls-1" d="M158.9224,89.4277h4.1567V90.92a4.551,4.551,0,0,1,1.7227-1.3887,5.3874,5.3874,0,0,1,2.0439-.3564,5.1,5.1,0,0,1,2.1245.4023,4.23,4.23,0,0,1,1.5039,1.1368,3.2674,3.2674,0,0,1,.689,1.332,6.9354,6.9354,0,0,1,.1841,1.6758v7.4873H167.19V95.2607a6.42,6.42,0,0,0-.1259-1.4121,1.76,1.76,0,0,0-.4478-.8613,1.5871,1.5871,0,0,0-.62-.3906,2.3229,2.3229,0,0,0-.7349-.1153,2.055,2.055,0,0,0-1.6191.6319,2.6226,2.6226,0,0,0-.563,1.8027v6.293h-4.1567Z"/><path class="cls-1" d="M181.7505,92.459a4.8531,4.8531,0,0,0-2.251-.5967,1.6865,1.6865,0,0,0-.93.23.7044.7044,0,0,0-.3559.62.808.808,0,0,0,.0571.333.5973.5973,0,0,0,.2524.2412,2.19,2.19,0,0,0,.5743.2061q.3793.0923.999.23a4.7743,4.7743,0,0,1,2.5722,1.23,3.1279,3.1279,0,0,1,.85,2.2617,4.105,4.105,0,0,1-.4131,1.86,3.9651,3.9651,0,0,1-1.1485,1.39,5.4512,5.4512,0,0,1-1.7685.8721,7.8768,7.8768,0,0,1-2.2735.3105,9.2313,9.2313,0,0,1-4.708-1.3555l1.5157-2.9394a5.9165,5.9165,0,0,0,3.3071,1.1943,1.6247,1.6247,0,0,0,.9419-.2529.754.754,0,0,0,.3672-.6426,1.0708,1.0708,0,0,0-.0572-.3789.62.62,0,0,0-.2412-.2754,1.9505,1.9505,0,0,0-.54-.23q-.3559-.1025-.93-.2177a5.3156,5.3156,0,0,1-2.6987-1.16,2.8687,2.8687,0,0,1-.77-2.124,4.1822,4.1822,0,0,1,.3677-1.78,3.6871,3.6871,0,0,1,1.0562-1.3428,4.9437,4.9437,0,0,1,1.665-.85,7.396,7.396,0,0,1,2.17-.2988,9.8563,9.8563,0,0,1,3.79.7578Z"/><path class="cls-1" d="M188.6172,89.4277l2.8247,6.2,2.94-6.2H197l2.94,6.3838,2.9624-6.3838h4.6162l-6.1548,11.7813h-2.7788l-2.94-6.4531-2.8017,6.4531h-2.8247l-6.04-11.7813Z"/><path class="cls-1" d="M208.4365,84.9033a2.2613,2.2613,0,0,1,.1836-.9072,2.3889,2.3889,0,0,1,1.2515-1.252,2.3331,2.3331,0,0,1,1.8144,0,2.3843,2.3843,0,0,1,1.2515,1.252,2.3273,2.3273,0,0,1,0,1.8144,2.3779,2.3779,0,0,1-1.2515,1.251,2.3215,2.3215,0,0,1-1.8144,0,2.3825,2.3825,0,0,1-1.2515-1.251A2.2613,2.2613,0,0,1,208.4365,84.9033Zm4.4322,4.5244V101.209h-4.1568V89.4277Z"/><path class="cls-1" d="M224.375,93.24a3.8444,3.8444,0,0,0-2.1816-.7353,2.97,2.97,0,0,0-1.1138.207,2.7646,2.7646,0,0,0-.9072.585,2.689,2.689,0,0,0-.6084.8965,2.9388,2.9388,0,0,0-.2183,1.1591,2.8859,2.8859,0,0,0,.2183,1.1368,2.7609,2.7609,0,0,0,.5971.8955,2.6039,2.6039,0,0,0,.9068.5859,3.0613,3.0613,0,0,0,1.1255.207,3.4349,3.4349,0,0,0,2.1816-.8037V100.91a7.3477,7.3477,0,0,1-2.9165.666,6.882,6.882,0,0,1-2.4458-.4366,6.12,6.12,0,0,1-3.4565-3.2031,5.9507,5.9507,0,0,1-.5284-2.5381,6.3436,6.3436,0,0,1,.5054-2.56,6.1365,6.1365,0,0,1,1.3779-1.9981,6.2378,6.2378,0,0,1,2.0786-1.3086,7.0294,7.0294,0,0,1,2.5835-.4716,6.176,6.176,0,0,1,2.8018.6435Z"/><path class="cls-1" d="M231.2412,82.1475V93.6758l4.3638-4.2481H241.3L235.3984,94.87l6.2466,6.3389h-5.8335l-4.57-4.8v4.8h-4.1567V82.1475Z"/><path class="cls-1" d="M246.2378,95.3984V90.92c.1836.0313.352.0576.5054.0811a3.0171,3.0171,0,0,0,.4365.0342,3.9228,3.9228,0,0,0,1.1709-.1719,3.1761,3.1761,0,0,0,.9531-.4717,2.19,2.19,0,0,0,.6318-.7227,1.9284,1.9284,0,0,0,.23-.9306,1.7185,1.7185,0,0,0-.4594-1.1944,1.5964,1.5964,0,0,0-1.24-.5048,1.44,1.44,0,0,0-1.1367.4824,1.84,1.84,0,0,0-.4248,1.2627h-4.57a4.8733,4.8733,0,0,1,.4712-2.1475,5.2164,5.2164,0,0,1,1.3086-1.6992,6.0937,6.0937,0,0,1,1.9751-1.125,7.3688,7.3688,0,0,1,2.4692-.4023,6.56,6.56,0,0,1,2.4688.4482,6.0666,6.0666,0,0,1,1.9174,1.2051,5.3677,5.3677,0,0,1,1.24,1.7461,5.0128,5.0128,0,0,1,.4365,2.0439q0,3.4438-4.1572,4.8916v1.6533Zm-.4595,3.6055a2.6848,2.6848,0,0,1,.2071-1.0449,2.6861,2.6861,0,0,1,4.96,0,2.7469,2.7469,0,0,1,0,2.09,2.64,2.64,0,0,1-1.4351,1.4356,2.742,2.742,0,0,1-2.09,0,2.64,2.64,0,0,1-1.435-1.4356A2.6776,2.6776,0,0,1,245.7783,99.0039Z"/></svg>