<svg id="Layer_1" data-name="Layer 1" xmlns="http://www.w3.org/2000/svg" xmlns:xlink="http://www.w3.org/1999/xlink" width="300" height="250" viewBox="0 0 300 250"><defs><style>.cls-1{fill:none;}.cls-2{fill:#212c32;}.cls-3{fill:#7cc142;}.cls-4{fill:#fff;}.cls-5{fill:#7cc243;}.cls-6{fill:#79bc43;}.cls-7{clip-path:url(#clip-path);}.cls-8{fill:#c0dd96;}.cls-9{fill:#9ece63;}</style><clipPath id="clip-path"><rect class="cls-1" x="106.4022" y="173.9505" width="87.1955" height="52.267"/></clipPath></defs><title>Artboard 22</title><rect class="cls-2" width="300" height="250"/><path class="cls-3" d="M102.4538,74.6084H114.2q4.1837,0,6.3555,2.0117a7.5029,7.5029,0,0,1,2.1719,5.792,7.8727,7.8727,0,0,1-.8243,3.8018,6.9257,6.9257,0,0,1-2.5136,2.5537,9.5208,9.5208,0,0,1,2.876.9863,6.2678,6.2678,0,0,1,1.9306,1.6289,6.0905,6.0905,0,0,1,1.0654,2.1719,9.9443,9.9443,0,0,1,.3223,2.5742A9.1014,9.1014,0,0,1,124.84,99.91a7.6825,7.6825,0,0,1-2.0918,2.7753,8.9363,8.9363,0,0,1-3.2783,1.6895,15.4877,15.4877,0,0,1-4.3448.5635H102.4538Zm7.8848,11.9072h1.4482q3.7,0,3.7-2.9365t-3.7-2.9365h-1.4482Zm0,12.3086h1.73a8.7914,8.7914,0,0,0,4.2637-.7646,2.9823,2.9823,0,0,0,0-4.9073,8.8053,8.8053,0,0,0-4.2637-.7636h-1.73Z"/><path class="cls-3" d="M128.68,89.7734a15.6283,15.6283,0,0,1,9.9961-14.7822,19.2722,19.2722,0,0,1,13.5361,0,15.9943,15.9943,0,0,1,5.33,3.3984,15.5674,15.5674,0,0,1,3.4785,5.0889,16.4987,16.4987,0,0,1,0,12.59,15.5554,15.5554,0,0,1-3.4785,5.0888,15.9935,15.9935,0,0,1-5.33,3.3994,19.2854,19.2854,0,0,1-13.5361,0A15.6892,15.6892,0,0,1,128.68,89.7734Zm8.2461,0a8.061,8.061,0,0,0,.6846,3.3389,8.3381,8.3381,0,0,0,4.5654,4.4043,8.9236,8.9236,0,0,0,6.5566,0,8.5838,8.5838,0,0,0,2.7354-1.749,8.2687,8.2687,0,0,0,1.8691-2.6553,8.4728,8.4728,0,0,0,0-6.6777,8.2732,8.2732,0,0,0-1.8691-2.6543,8.6038,8.6038,0,0,0-2.7354-1.75,8.9222,8.9222,0,0,0-6.5566,0,8.347,8.347,0,0,0-4.5654,4.4043A8.0642,8.0642,0,0,0,136.9265,89.7734Z"/><path class="cls-3" d="M167.2556,104.9385v-30.33h7.8838l14.5615,18.5439V74.6084h7.8447v30.33h-7.8447l-14.5615-18.544v18.544Z"/><path class="cls-4" d="M59.072,139.8945H47.8093l-1.81,5.27H37.5915l11.5449-30.33h8.6084l11.544,30.33H60.8816ZM46.16,107.1113l4.2236-3.8213,6.5567,6.2745-3.0577,2.8564Zm10.82,26.79-3.54-10.0967L49.9,133.9014Z"/><path class="cls-4" d="M103.1179,122.5977a9.7554,9.7554,0,0,0-2.5742-1.5489,6.8443,6.8443,0,0,0-2.4942-.5029,4.0417,4.0417,0,0,0-2.4941.7246,2.2557,2.2557,0,0,0-.9649,1.8906,1.8827,1.8827,0,0,0,.4825,1.3272,4.2109,4.2109,0,0,0,1.2675.9053,10.7063,10.7063,0,0,0,1.77.663q.9858.2827,1.9512.6036a12.1671,12.1671,0,0,1,5.6513,3.4394,8.4854,8.4854,0,0,1,1.79,5.6113,10.9311,10.9311,0,0,1-.7842,4.2237,8.8163,8.8163,0,0,1-2.293,3.2383,10.5777,10.5777,0,0,1-3.7012,2.0917,15.4125,15.4125,0,0,1-4.9677.7442,18.2684,18.2684,0,0,1-10.6592-3.419l3.3789-6.3554a13.7027,13.7027,0,0,0,3.499,2.333,8.41,8.41,0,0,0,3.42.7637,4.0781,4.0781,0,0,0,2.876-.8848,2.6927,2.6927,0,0,0,.9453-2.0108,2.7247,2.7247,0,0,0-.2412-1.1865,2.5705,2.5705,0,0,0-.8047-.9258,6.4707,6.4707,0,0,0-1.4687-.7841q-.9052-.3618-2.1924-.8047-1.5279-.482-2.9961-1.0655a9.4221,9.4221,0,0,1-2.6152-1.5488,7.1964,7.1964,0,0,1-1.85-2.4336,8.5966,8.5966,0,0,1-.7041-3.7207,10.7322,10.7322,0,0,1,.7441-4.083,9.05,9.05,0,0,1,2.0918-3.1377,9.314,9.314,0,0,1,3.2978-2.0312,12.4549,12.4549,0,0,1,4.3643-.7246,19.0978,19.0978,0,0,1,4.707.624,20.7854,20.7854,0,0,1,4.7061,1.83Z"/><path class="cls-4" d="M130.4714,139.8945H119.2087l-1.81,5.27h-8.4073l11.545-30.33h8.6084l11.5439,30.33H132.281Zm-2.0918-5.9931-3.54-10.0967-3.54,10.0967Z"/><path class="cls-4" d="M147.2048,114.834l7.32,18.4639,7.3613-18.4639h8.5684l-12.792,30.33h-6.2744l-12.752-30.33Z"/><path class="cls-4" d="M170.8571,129.999a15.6263,15.6263,0,0,1,9.9952-14.7822,19.2722,19.2722,0,0,1,13.5361,0,15.9943,15.9943,0,0,1,5.33,3.3984,15.5716,15.5716,0,0,1,3.48,5.0889,16.5119,16.5119,0,0,1,0,12.59,15.559,15.559,0,0,1-3.48,5.0889,15.9935,15.9935,0,0,1-5.33,3.3994,19.2854,19.2854,0,0,1-13.5361,0,15.6854,15.6854,0,0,1-9.9952-14.7832Zm8.2461,0a8.0783,8.0783,0,0,0,.6836,3.3389,8.4342,8.4342,0,0,0,1.8506,2.6553,8.3492,8.3492,0,0,0,2.7149,1.749,8.9236,8.9236,0,0,0,6.5566,0,8.59,8.59,0,0,0,2.7354-1.749,8.287,8.287,0,0,0,1.87-2.6553,8.4854,8.4854,0,0,0,0-6.6777,8.2915,8.2915,0,0,0-1.87-2.6543,8.606,8.606,0,0,0-2.7354-1.75,8.9222,8.9222,0,0,0-6.5566,0,8.3553,8.3553,0,0,0-4.5655,4.4043A8.0812,8.0812,0,0,0,179.1032,129.999Z"/><path class="cls-4" d="M217.3161,114.834v30.33h-7.8838v-30.33Z"/><path class="cls-4" d="M248.8933,145.1641h-9.8154l-7.5225-11.6651v11.6651h-7.8838v-30.33H235.94a12.044,12.044,0,0,1,4.4248.7441,8.3315,8.3315,0,0,1,4.9677,5.0088,10.3622,10.3622,0,0,1,.6241,3.62,8.9,8.9,0,0,1-1.67,5.6114,8.4029,8.4029,0,0,1-4.9277,2.916Zm-17.3379-16.7735h1.4883a5.7477,5.7477,0,0,0,3.58-.9658,3.7121,3.7121,0,0,0,0-5.5508,5.7483,5.7483,0,0,0-3.58-.9658h-1.4883Z"/><path class="cls-4" d="M251.1452,141.3027a4.6924,4.6924,0,0,1,.3623-1.83,4.626,4.626,0,0,1,2.5137-2.5147,4.7446,4.7446,0,0,1,5.169,1.0059,4.6422,4.6422,0,0,1,1.0058,1.5088,4.8031,4.8031,0,0,1,0,3.66,4.6192,4.6192,0,0,1-2.5137,2.5137,4.8057,4.8057,0,0,1-3.6611,0,4.62,4.62,0,0,1-2.5137-2.5137A4.6929,4.6929,0,0,1,251.1452,141.3027Z"/><path class="cls-5" d="M78.0163,29.7544h3.9229a3.016,3.016,0,0,1,2.1221.6719,2.5009,2.5009,0,0,1,.7255,1.9336,2.6243,2.6243,0,0,1-.2754,1.2695,2.3261,2.3261,0,0,1-.8388.8535,3.1662,3.1662,0,0,1,.96.3291,2.08,2.08,0,0,1,.6446.544,2.051,2.051,0,0,1,.3564.7246,3.3425,3.3425,0,0,1,.1074.86,3.0357,3.0357,0,0,1-.249,1.2627,2.56,2.56,0,0,1-.6982.9268,2.985,2.985,0,0,1-1.0948.5634,5.15,5.15,0,0,1-1.45.1885H78.0163ZM80.6491,33.73h.4844q1.2363,0,1.2354-.98t-1.2354-.98h-.4844Zm0,4.11h.5782a2.9418,2.9418,0,0,0,1.4238-.2549.9959.9959,0,0,0,0-1.6386,2.941,2.941,0,0,0-1.4238-.2559h-.5782Z"/><path class="cls-5" d="M86.7741,34.8179a5.2206,5.2206,0,0,1,3.3379-4.9356,6.4337,6.4337,0,0,1,4.52,0,5.3427,5.3427,0,0,1,1.78,1.1348,5.2162,5.2162,0,0,1,1.1621,1.6992,5.5188,5.5188,0,0,1,0,4.2041A5.2162,5.2162,0,0,1,96.4128,38.62a5.3427,5.3427,0,0,1-1.78,1.1348,6.4322,6.4322,0,0,1-4.52,0,5.2409,5.2409,0,0,1-3.3379-4.9365Zm2.7539,0a2.695,2.695,0,0,0,.2286,1.1152,2.7883,2.7883,0,0,0,1.5244,1.4707,2.9847,2.9847,0,0,0,2.1894,0,2.8574,2.8574,0,0,0,.9131-.584,2.7585,2.7585,0,0,0,.625-.8867,2.8334,2.8334,0,0,0,0-2.23,2.7585,2.7585,0,0,0-.625-.8867,2.8574,2.8574,0,0,0-.9131-.584,2.9714,2.9714,0,0,0-2.1894,0,2.7883,2.7883,0,0,0-1.5244,1.4707A2.6941,2.6941,0,0,0,89.528,34.8179Z"/><path class="cls-5" d="M99.656,39.8823V29.7544h2.6328l4.8623,6.1924V29.7544H109.77V39.8823h-2.6191L102.2888,33.69v6.1924Z"/><path class="cls-5" d="M118.1257,38.1226H114.364l-.6035,1.76h-2.8076l3.8544-10.1279h2.875l3.8555,10.1279H118.73Zm-.6992-2.001-1.1817-3.3721-1.1816,3.3721Z"/><path class="cls-5" d="M128.2536,32.3472a3.2461,3.2461,0,0,0-.8593-.5176,2.28,2.28,0,0,0-.833-.168,1.3557,1.3557,0,0,0-.8331.2422.7525.7525,0,0,0-.3222.6309.627.627,0,0,0,.1611.4433,1.4148,1.4148,0,0,0,.4238.3028,3.6026,3.6026,0,0,0,.59.2207c.22.0634.4375.13.6523.2021a4.0539,4.0539,0,0,1,1.8867,1.1485,2.8321,2.8321,0,0,1,.5977,1.874,3.6428,3.6428,0,0,1-.2617,1.41,2.93,2.93,0,0,1-.7656,1.0811,3.5273,3.5273,0,0,1-1.2364.6982,5.1323,5.1323,0,0,1-1.6582.2491,6.1022,6.1022,0,0,1-3.5595-1.1417L123.364,36.9a4.561,4.561,0,0,0,1.1689.7793,2.7968,2.7968,0,0,0,1.1416.2559,1.3647,1.3647,0,0,0,.961-.2959.915.915,0,0,0,.2343-1.0684.85.85,0,0,0-.2675-.3086,2.1554,2.1554,0,0,0-.4912-.2617c-.2012-.0811-.4454-.17-.7315-.2686q-.5112-.1611-1.001-.3564a3.1429,3.1429,0,0,1-.873-.5166,2.4083,2.4083,0,0,1-.6182-.8125,2.8848,2.8848,0,0,1-.2344-1.2432,3.5837,3.5837,0,0,1,.2481-1.3633,3.0388,3.0388,0,0,1,.6982-1.0478,3.1078,3.1078,0,0,1,1.1016-.6777,4.1646,4.1646,0,0,1,1.458-.2422,6.3682,6.3682,0,0,1,1.57.208,6.9279,6.9279,0,0,1,1.5723.6113Z"/><path class="cls-5" d="M137.3874,38.1226h-3.7607l-.6045,1.76h-2.8067L134.07,29.7544h2.8741L140.8,39.8823h-2.8066Zm-.6982-2.001-1.1826-3.3721-1.1817,3.3721Z"/><path class="cls-5" d="M142.9753,29.7544l2.4453,6.165,2.458-6.165h2.86l-4.2715,10.1279h-2.0947L140.114,29.7544Z"/><path class="cls-5" d="M150.8738,34.8179a5.22,5.22,0,0,1,3.3378-4.9356,6.4364,6.4364,0,0,1,4.5215,0,5.3382,5.3382,0,0,1,1.7793,1.1348,5.2009,5.2009,0,0,1,1.1621,1.6992,5.5188,5.5188,0,0,1,0,4.2041,5.2009,5.2009,0,0,1-1.1621,1.6992,5.3382,5.3382,0,0,1-1.7793,1.1348,6.435,6.435,0,0,1-4.5215,0,5.2362,5.2362,0,0,1-3.3378-4.9365Zm2.7539,0a2.6949,2.6949,0,0,0,.2285,1.1152,2.8143,2.8143,0,0,0,.6172.8867,2.7831,2.7831,0,0,0,.9082.584,2.9264,2.9264,0,0,0,3.1015-.584,2.774,2.774,0,0,0,.625-.8867,2.8334,2.8334,0,0,0,0-2.23,2.774,2.774,0,0,0-.625-.8867,2.8628,2.8628,0,0,0-.9121-.584,2.9714,2.9714,0,0,0-2.1894,0,2.7831,2.7831,0,0,0-.9082.584,2.8143,2.8143,0,0,0-.6172.8867A2.6941,2.6941,0,0,0,153.6277,34.8179Z"/><path class="cls-5" d="M166.3894,29.7544V39.8823h-2.6328V29.7544Z"/><path class="cls-5" d="M176.9323,39.8823H173.655l-2.5117-3.8955v3.8955h-2.6328V29.7544h4.0976a4.0251,4.0251,0,0,1,1.4766.248,2.79,2.79,0,0,1,1.66,1.6729,3.4666,3.4666,0,0,1,.2071,1.209,2.9766,2.9766,0,0,1-.5567,1.874,2.812,2.812,0,0,1-1.6464.9736Zm-5.789-5.6015h.498a1.9266,1.9266,0,0,0,1.1953-.3223,1.24,1.24,0,0,0,0-1.8535,1.926,1.926,0,0,0-1.1953-.3223h-.498Z"/><path class="cls-5" d="M178.0339,39.8823V29.7544h2.6328l4.8633,6.1924V29.7544h2.6191V39.8823H185.53L180.6667,33.69v6.1924Z"/><path class="cls-5" d="M190.27,29.7544h3.9219a3.0185,3.0185,0,0,1,2.1231.6719A2.5072,2.5072,0,0,1,197.04,32.36a2.6243,2.6243,0,0,1-.2754,1.2695,2.3148,2.3148,0,0,1-.84.8535,3.1459,3.1459,0,0,1,.961.3291,2.0915,2.0915,0,0,1,.6445.544,2.0364,2.0364,0,0,1,.3574.7246,3.3868,3.3868,0,0,1,.1074.86,3.0341,3.0341,0,0,1-.25,1.2627,2.5806,2.5806,0,0,1-.6972.9268,2.9891,2.9891,0,0,1-1.0957.5634,5.1487,5.1487,0,0,1-1.4512.1885H190.27ZM192.903,33.73h.4844q1.2334,0,1.2344-.98t-1.2344-.98h-.4844Zm0,4.11h.5782a2.9418,2.9418,0,0,0,1.4238-.2549.9959.9959,0,0,0,0-1.6386,2.941,2.941,0,0,0-1.4238-.2559h-.5782Z"/><path class="cls-5" d="M199.2155,38.5933a1.5754,1.5754,0,0,1,.4571-1.1153,1.54,1.54,0,0,1,.5039-.3359,1.6034,1.6034,0,0,1,1.2226,0,1.5793,1.5793,0,0,1,.5039,2.5654,1.5937,1.5937,0,0,1-1.7265.336,1.5243,1.5243,0,0,1-.5039-.336,1.54,1.54,0,0,1-.336-.5039A1.5734,1.5734,0,0,1,199.2155,38.5933Z"/><path class="cls-5" d="M211.4265,33.1392a2.8108,2.8108,0,0,0-2.2559-1.1153,2.7606,2.7606,0,0,0-1.0957.2158,2.6621,2.6621,0,0,0-.8672.584,2.7062,2.7062,0,0,0-.57.88,2.8886,2.8886,0,0,0-.207,1.1016,2.9248,2.9248,0,0,0,.207,1.1142,2.6854,2.6854,0,0,0,1.4453,1.4776,2.67,2.67,0,0,0,1.0743.2148,3.046,3.046,0,0,0,2.2695-1.0742v3.1162l-.2695.0938a7.7369,7.7369,0,0,1-1.127.3164,5.5461,5.5461,0,0,1-1.0352.1006,5.2905,5.2905,0,0,1-3.7011-1.5118,5.5507,5.5507,0,0,1-1.1739-1.705,5.4771,5.4771,0,0,1-.0078-4.2989,5.3538,5.3538,0,0,1,4.8965-3.1767,5.5789,5.5789,0,0,1,1.19.1279,7.2516,7.2516,0,0,1,1.2285.3955Z"/><path class="cls-5" d="M219.54,38.1226H215.778l-.6035,1.76h-2.8086l3.8555-10.1279h2.875l3.8555,10.1279h-2.8086Zm-.6993-2.001-1.1816-3.3721-1.1816,3.3721Z"/><path class="cls-4" d="M115.4922,214.889a5.1042,5.1042,0,0,1-1.72.9737,6.3776,6.3776,0,0,1-4.0187,0,5.2517,5.2517,0,0,1-1.7112-.9472,4.6448,4.6448,0,0,1-1.1929-1.5269,4.5779,4.5779,0,0,1-.4475-2.0616,4.4625,4.4625,0,0,1,.4559-2.0535,4.64,4.64,0,0,1,1.2112-1.509,5.3173,5.3173,0,0,1,1.7195-.93,6.3359,6.3359,0,0,1,1.9827-.3155,6.6441,6.6441,0,0,1,1.948.2892,5.5384,5.5384,0,0,1,1.7023.8514l-1.2106,1.404a3.9256,3.9256,0,0,0-1.15-.5357,4.6547,4.6547,0,0,0-1.29-.1837,4.441,4.441,0,0,0-1.2809.1837,3.5115,3.5115,0,0,0-1.1054.5531,2.6588,2.6588,0,0,0-.7808.9385,2.9346,2.9346,0,0,0-.29,1.3426,2.8013,2.8013,0,0,0,.2988,1.3334,2.7636,2.7636,0,0,0,.7893.93,3.4929,3.4929,0,0,0,1.1142.5529,4.4707,4.4707,0,0,0,1.2725.184,4.1142,4.1142,0,0,0,1.43-.2542,3.7278,3.7278,0,0,0,1.22-.7284l1.0529,1.5092Z"/><path class="cls-4" d="M124.1261,212.8887l-1.7724-3.37-2.1589,4.159a8.7386,8.7386,0,0,1,1.3518-.5089,8.1177,8.1177,0,0,1,2.3338-.28Zm-3.2992-6.2824h1.9476l4.9139,9.3006h-1.9831l-.72-1.3689h-1.0881a9.95,9.95,0,0,0-1.6671.1405,12.8229,12.8229,0,0,0-1.5.3422,8.2933,8.2933,0,0,0-1.141.4209,1.72,1.72,0,0,0-.57.36l-.0524.1052h-1.8958l4.3521-8.16-.5964-1.1406Z"/><polygon class="cls-4" points="131.619 206.817 137.111 213.134 137.111 206.817 138.919 206.817 138.919 215.907 137.111 215.907 132.057 209.993 132.057 215.907 130.25 215.907 130.25 208.168 129.355 206.817 131.619 206.817 131.619 206.817"/><polygon class="cls-4" points="144.253 206.817 149.746 213.134 149.746 206.817 151.553 206.817 151.553 215.907 149.746 215.907 144.692 209.993 144.692 215.907 142.884 215.907 142.884 208.168 141.989 206.817 144.253 206.817 144.253 206.817"/><path class="cls-4" d="M161.2393,212.8887l-1.7722-3.37-2.1589,4.159a8.7448,8.7448,0,0,1,1.3517-.5089,8.118,8.118,0,0,1,2.3339-.28Zm-3.299-6.2824h1.9475l4.914,9.3006h-1.9831l-.72-1.3689h-1.0881a9.9524,9.9524,0,0,0-1.6671.1405,12.8276,12.8276,0,0,0-1.5.3422,8.29,8.29,0,0,0-1.1408.4209,1.7186,1.7186,0,0,0-.57.36l-.0525.1052h-1.8958l4.3523-8.16-.5965-1.1406Z"/><path class="cls-4" d="M169.417,214.082h3.7724a3.1474,3.1474,0,0,0,.5357-.0439,1.3,1.3,0,0,0,.4471-.1584.8989.8989,0,0,0,.316-.3155,1.0223,1.0223,0,0,0,.1231-.5352.9.9,0,0,0-.3338-.7635,1.82,1.82,0,0,0-1.0881-.2542h-.93q-.6326,0-1.0442.0263a6.6527,6.6527,0,0,0-.7106.0785,2.4725,2.4725,0,0,0-.544.1582q-.2459.1056-.544.2632v1.5445Zm0-3.3873a3.3852,3.3852,0,0,1,1.325-.4386,12.7417,12.7417,0,0,1,1.5178-.0876h.93q.9127,0,.9132-.79a.6629.6629,0,0,0-.2549-.5615,1.0574,1.0574,0,0,0-.6583-.1935H169.417v2.0707Zm7.0015,2.37a2.633,2.633,0,0,1-.8513,2.1053,3.5167,3.5167,0,0,1-2.3778.7373h-5.58v-9.09h5.58a3.0475,3.0475,0,0,1,1.0618.184,2.6572,2.6572,0,0,1,.8774.5268,2.5486,2.5486,0,0,1,.5968.807,2.4146,2.4146,0,0,1,.219,1.0442,2.763,2.763,0,0,1-.1312.86,1.5891,1.5891,0,0,1-.4651.7016,2,2,0,0,1,.79.8773,2.8294,2.8294,0,0,1,.2806,1.2465Z"/><polygon class="cls-4" points="179.928 215.907 179.928 206.817 181.718 206.817 181.718 215.907 179.928 215.907 179.928 215.907"/><path class="cls-4" d="M191.6848,209.0633a3.0293,3.0293,0,0,0-1.215-.6142,5.9816,5.9816,0,0,0-1.4767-.1756,2.8467,2.8467,0,0,0-1.2415.2894,1.45,1.45,0,0,0-.4283.316.5624.5624,0,0,0-.1656.3772,1.0956,1.0956,0,0,0,.0606.3775.5486.5486,0,0,0,.2632.28,1.9159,1.9159,0,0,0,.5948.1845,6.3437,6.3437,0,0,0,1.0587.07,9.56,9.56,0,0,1,2.3186.2282,3.5387,3.5387,0,0,1,1.3565.6141,1.8661,1.8661,0,0,1,.63.8951,3.55,3.55,0,0,1,.1577,1.053,2.8022,2.8022,0,0,1-.3512,1.43,2.8923,2.8923,0,0,1-.9738,1.0005,4.7975,4.7975,0,0,1-1.4653.5965,7.7374,7.7374,0,0,1-1.8078.2019,5.23,5.23,0,0,1-2.2894-.5173,5.4391,5.4391,0,0,1-1.834-1.4131l1.2985-1.3161q.2109.2107.4472.4738a3.3164,3.3164,0,0,0,.5619.4916,3.0139,3.0139,0,0,0,.7631.3775,3.2857,3.2857,0,0,0,1.0527.1486,4.7556,4.7556,0,0,0,2.0356-.3684,1.1806,1.1806,0,0,0,.7727-1.1052.806.806,0,0,0-.6932-.8075,8.5347,8.5347,0,0,0-2.1151-.193,7.4894,7.4894,0,0,1-1.5087-.1406,3.4,3.4,0,0,1-1.1844-.4648,2.2962,2.2962,0,0,1-.781-.8421,2.5952,2.5952,0,0,1-.2809-1.2548,2.1333,2.1333,0,0,1,.3071-1.1232,2.8645,2.8645,0,0,1,.8161-.8682,3.8531,3.8531,0,0,1,1.1933-.5529A5.2567,5.2567,0,0,1,189,206.5187a8.3108,8.3108,0,0,1,1.9481.2279,5.9492,5.9492,0,0,1,1.948.9127l-1.211,1.404Z"/><polygon class="cls-4" points="144.067 220.244 147.677 224.395 147.677 220.244 148.864 220.244 148.864 226.218 147.677 226.218 144.355 222.331 144.355 226.218 143.168 226.218 143.168 221.132 142.58 220.244 144.067 220.244 144.067 220.244"/><path class="cls-4" d="M152.819,225.0182h2.48a2.086,2.086,0,0,0,.3517-.0288.87.87,0,0,0,.294-.1036.6047.6047,0,0,0,.2076-.2076.6772.6772,0,0,0,.0806-.3522.5929.5929,0,0,0-.219-.5015,1.198,1.198,0,0,0-.7149-.1673h-.6111q-.4152,0-.6862.0174a4.3659,4.3659,0,0,0-.4675.0518,1.6414,1.6414,0,0,0-.3574.1038c-.1074.0461-.2262.1038-.3574.173v1.015Zm0-2.2257a2.2353,2.2353,0,0,1,.8706-.2883,8.42,8.42,0,0,1,.9979-.0577h.6111q.5991,0,.6-.5187a.4376.4376,0,0,0-.1672-.3692.6987.6987,0,0,0-.4324-.1267h-2.48v1.3606Zm4.6013,1.5567a1.7334,1.7334,0,0,1-.5593,1.3842,2.3132,2.3132,0,0,1-1.5624.4841h-3.667v-5.9731h3.667a2.0053,2.0053,0,0,1,.6977.1209,1.7566,1.7566,0,0,1,.5765.346,1.69,1.69,0,0,1,.3918.53,1.59,1.59,0,0,1,.1443.6863,1.8143,1.8143,0,0,1-.0863.565,1.0486,1.0486,0,0,1-.3059.461,1.3147,1.3147,0,0,1,.5189.5767,1.8558,1.8558,0,0,1,.1847.8187Z"/><path class="cls-6" d="M140.3849,222.891c-13.6131.06-23.5245.2458-23.5245.4651s9.9114.4044,23.5245.465v-.93Z"/><g class="cls-7"><path class="cls-6" d="M159.6151,222.891v.93c13.6132-.0606,23.5246-.2457,23.5246-.465s-9.9114-.4047-23.5246-.4651Z"/><path class="cls-8" d="M162.2837,193.9809c2.1425-2.3874,4.708-5.7251,5.619-9.8849a.3582.3582,0,0,0-.4328-.3969,26.5193,26.5193,0,0,0-10.9751,4.9738c-.8328.6191-1.5634,1.2025-2.2053,1.7531a38.282,38.282,0,0,0-.1711-4.3488,26.5777,26.5777,0,0,0-3.8106-11.9618.37.37,0,0,0-.6161,0,26.5724,26.5724,0,0,0-3.8094,11.9615,38.9526,38.9526,0,0,0-.173,4.3483c-.6414-.55-1.372-1.1334-2.204-1.7523a26.52,26.52,0,0,0-10.9752-4.9738.3582.3582,0,0,0-.4328.3969c.911,4.16,3.4763,7.4975,5.619,9.8849a30.1611,30.1611,0,0,0,3.9705,3.6718,11.7083,11.7083,0,0,0-5.0588,3.4727.2444.2444,0,0,0,.0625.3611c7.2956,4.262,11.6865.2949,13.0878-1.3611l.09.0012a.454.454,0,0,0,.0711.0074l.0608-.0031.0609.0031a.4617.4617,0,0,0,.0711-.0074l.09-.0012c1.4016,1.656,5.7923,5.6231,13.0878,1.3611a.2444.2444,0,0,0,.0625-.3611,11.71,11.71,0,0,0-5.0586-3.4727,30.1865,30.1865,0,0,0,3.97-3.6718Z"/></g><path class="cls-9" d="M144.8923,197.5829a6.1366,6.1366,0,0,0-1.9633.139l-.2684.0783.2422.1395a12.913,12.913,0,0,0,6.158,1.5243c.2935,0,.4644-.0112.472-.0117l.3539-.0258-.2976-.1932a9.86,9.86,0,0,0-4.6968-1.65Z"/><path class="cls-9" d="M149.42,198.5222l.1966.2152.0107-.2913a9.5741,9.5741,0,0,0-3.18-6.8288l-.1907-.1733-.0088.2575a6.9307,6.9307,0,0,0,.3565,2.07,12.5917,12.5917,0,0,0,2.8156,4.75Z"/><path class="cls-9" d="M157.0712,197.7219a6.1435,6.1435,0,0,0-1.9635-.139,9.8606,9.8606,0,0,0-4.6968,1.65l-.2976.1932.3539.0258c.0076,0,.1782.0117.4717.0117a12.9142,12.9142,0,0,0,6.1583-1.5243l.2425-.1395-.2685-.0783Z"/><g class="cls-7"><path class="cls-9" d="M150.383,198.7374l.1968-.2152a12.5879,12.5879,0,0,0,2.8154-4.75,6.9472,6.9472,0,0,0,.357-2.07l-.0091-.2575-.19.1733a9.5762,9.5762,0,0,0-3.18,6.8288l.0108.2913Z"/><path class="cls-6" d="M157.64,197.466a9.1233,9.1233,0,0,0-5.5921.511,9.049,9.049,0,0,0,1.8628-4.0464,17.46,17.46,0,0,0,.3549-2.8358,25.5223,25.5223,0,0,1,12.7372-6.5853A22.97,22.97,0,0,1,157.64,197.466Zm5.18,3.7661c-6.4165,3.6066-10.4146.5574-11.9618-1.1091a10.9793,10.9793,0,0,0,5.8317-1.3985q.5423-.3074,1.13-.7156a10.8351,10.8351,0,0,1,5,3.2232Zm-12.3445-1.8989c.2952-.1918.5851-.36.87-.5116l.0081-.009c.1232-.0647.2563-.13.3945-.1952.0326-.0155.0651-.031.0978-.0461l.03-.0138a8.0092,8.0092,0,0,1,5.1414-.7263l.0231.0033-.0035.0019h0a12.8412,12.8412,0,0,1-6.5618,1.4968Zm3.18-7.6344c-.0289.2606-.0594.5041-.0909.7244a12.2921,12.2921,0,0,1-3.0726,6.0117,9.6485,9.6485,0,0,1,1.9662-5.4016c.3142-.3838.7146-.8384,1.1973-1.3345ZM150,195.9833a6.9366,6.9366,0,0,0-1.2031-2.3382,17.8009,17.8009,0,0,0-2.5061-2.7069A26.1808,26.1808,0,0,1,150,175.1007a26.3192,26.3192,0,0,1,3.7292,15.82,17.8474,17.8474,0,0,0-2.5259,2.7249A6.933,6.933,0,0,0,150,195.9833Zm-7.0376,1.8531h0l-.0036-.0019.0229-.0033a8.0089,8.0089,0,0,1,5.1418.7265l.0313.0141.0959.0454c.1389.0653.2722.131.3961.1959l.0083.0093c.2845.1512.5739.3192.8688.5108a12.8412,12.8412,0,0,1-6.5618-1.4968Zm-5.7827,3.3957a10.8371,10.8371,0,0,1,5-3.2232q.588.4092,1.13.7156a10.98,10.98,0,0,0,5.8317,1.3985c-1.5472,1.6665-5.5451,4.7157-11.9618,1.1091Zm9.1882-9.5089c.4722.4867.8642.9326,1.1735,1.31a9.6513,9.6513,0,0,1,1.9659,5.4018,12.0536,12.0536,0,0,1-3.039-5.9455c-.0348-.233-.0687-.4907-.1-.7664ZM132.9971,184.51a25.5237,25.5237,0,0,1,12.7349,6.5829,17.8809,17.8809,0,0,0,.3343,2.8,9.2263,9.2263,0,0,0,1.8874,4.0856,9.1233,9.1233,0,0,0-5.5938-.5117,22.97,22.97,0,0,1-9.3628-12.9565Zm29.2866,9.4714c2.1425-2.3874,4.708-5.7251,5.619-9.8849a.3582.3582,0,0,0-.4328-.3969,26.5193,26.5193,0,0,0-10.9751,4.9738c-.8328.6191-1.5634,1.2025-2.2053,1.7531a38.282,38.282,0,0,0-.1711-4.3488,26.5777,26.5777,0,0,0-3.8106-11.9618.37.37,0,0,0-.6161,0,26.5724,26.5724,0,0,0-3.8094,11.9615,38.9526,38.9526,0,0,0-.173,4.3483c-.6414-.55-1.372-1.1334-2.204-1.7523a26.52,26.52,0,0,0-10.9752-4.9738.3582.3582,0,0,0-.4328.3969c.911,4.16,3.4763,7.4975,5.619,9.8849a30.1611,30.1611,0,0,0,3.9705,3.6718,11.7083,11.7083,0,0,0-5.0588,3.4727.2443.2443,0,0,0,.0625.3611c7.2956,4.262,11.6865.2949,13.0878-1.3611l.09.0012a.454.454,0,0,0,.0711.0074l.0608-.0031.0609.0031a.4617.4617,0,0,0,.0711-.0074l.09-.0012c1.4016,1.656,5.7923,5.6231,13.0878,1.3611a.2444.2444,0,0,0,.0625-.3611,11.71,11.71,0,0,0-5.0586-3.4727,30.1865,30.1865,0,0,0,3.97-3.6718Z"/></g></svg>