<svg id="Layer_1" data-name="Layer 1" xmlns="http://www.w3.org/2000/svg" xmlns:xlink="http://www.w3.org/1999/xlink" width="320" height="50" viewBox="0 0 320 50"><defs><style>.cls-1{fill:url(#linear-gradient);}.cls-2{fill:url(#linear-gradient-2);}</style><linearGradient id="linear-gradient" x1="244.888" y1="25.4905" x2="310.20099" y2="25.4905" gradientTransform="matrix(1, 0, 0, -1, 0, 52)" gradientUnits="userSpaceOnUse"><stop offset="0" stop-color="#cab272"/><stop offset="0.20527" stop-color="#cdb36c"/><stop offset="0.4882" stop-color="#d4b75a"/><stop offset="0.50029" stop-color="#d4b759"/><stop offset="0.74962" stop-color="#d4b563"/><stop offset="1" stop-color="#d3b372"/></linearGradient><linearGradient id="linear-gradient-2" x1="228.77075" y1="25.49042" x2="246.23659" y2="25.49042" xlink:href="#linear-gradient"/></defs><title>cta</title><polygon class="cls-1" points="310.201 26.511 305.835 18.948 244.888 18.945 249.254 26.508 244.888 34.071 305.835 34.074 310.201 26.511"/><path class="cls-2" d="M241.87013,18.94665h-8.73292l-4.36646,7.56294,4.36646,7.56292h8.73292l4.36646-7.56292Zm-8.064,4.98035Zm7.39506.00005V23.927h0Z"/><path d="M259.99625,24.06617a2.05793,2.05793,0,0,1,.63034.43947l-.586.586a1.00975,1.00975,0,0,0-.82034-.35158c-.3516,0-.57676.08288-.67386.24946a.3414.3414,0,0,0,0,.4244,1.15619,1.15619,0,0,0,.67386.26368,2.1732,2.1732,0,0,1,1.01037.36665,1.09774,1.09774,0,0,1,.45453.98107,1.12664,1.12664,0,0,1-.48468.90824,1.77927,1.77927,0,0,1-1.13007.38088,2.60064,2.60064,0,0,1-1.02209-.17579,2.21512,2.21512,0,0,1-.70316-.46877l.586-.586a1.39324,1.39324,0,0,0,.99616.41017c.39007,0,.63452-.08287.73077-.24945a.46074.46074,0,0,0,0-.49723c-.09628-.16659-.3407-.26871-.73077-.30805a2.36728,2.36728,0,0,1-.96683-.32228.97263.97263,0,0,1-.43948-.90825,1.09338,1.09338,0,0,1,.49972-.93586,1.75739,1.75739,0,0,1,1.02628-.35325A2.44465,2.44465,0,0,1,259.99625,24.06617Z"/><path d="M262.88168,23.91968v2.54893a.88259.88259,0,0,0,.293.73246,1.2617,1.2617,0,0,0,1.46491,0,.88259.88259,0,0,0,.293-.73246V23.91968h.87893V26.703a1.455,1.455,0,0,1-.54242,1.14263,2.21284,2.21284,0,0,1-2.72387,0,1.455,1.455,0,0,1-.54242-1.14263V23.91968Z"/><path d="M270.48163,25.99733a1.24781,1.24781,0,0,1-.71488,2.32042L267.294,28.3144V23.923h2.33212q1.11.064,1.17194,1.29162A.91838.91838,0,0,1,270.48163,25.99733Zm-2.30536-.31391h1.23053a.49555.49555,0,0,0,.5441-.54829c-.00922-.21429-.18836-.32814-.53574-.33986h-1.23889Zm0,1.9454h1.43478a.57306.57306,0,0,0,.63285-.63535q-.01383-.42189-.62363-.44031h-1.444Z"/><path d="M274.94833,24.06617a2.04749,2.04749,0,0,1,.63031.43947l-.586.586a1.00862,1.00862,0,0,0-.82035-.35158q-.52734,0-.67386.24946a.34143.34143,0,0,0,0,.4244,1.15878,1.15878,0,0,0,.67386.26368,2.17324,2.17324,0,0,1,1.01038.36665,1.09773,1.09773,0,0,1,.45453.98107,1.12665,1.12665,0,0,1-.48468.90824,1.77773,1.77773,0,0,1-1.13007.38088,2.60354,2.60354,0,0,1-1.02209-.17579,2.21512,2.21512,0,0,1-.70316-.46877l.586-.586a1.3933,1.3933,0,0,0,.99612.41017q.58635,0,.73078-.24945a.46078.46078,0,0,0,0-.49723q-.14439-.24988-.73078-.30805a2.36743,2.36743,0,0,1-.96682-.32228.97264.97264,0,0,1-.43949-.90825,1.09339,1.09339,0,0,1,.49973-.93586,1.7593,1.7593,0,0,1,1.02627-.35325A2.44467,2.44467,0,0,1,274.94833,24.06617Z"/><path d="M277.437,27.68323a2.19828,2.19828,0,0,1,1.56284-3.76355,2.37781,2.37781,0,0,1,1.61474.586l-.586.64121a1.62317,1.62317,0,0,0-1.02877-.35158,1.29176,1.29176,0,0,0-.95346.37,1.276,1.276,0,0,0-.36164.93754,1.31989,1.31989,0,0,0,.36582.97269,1.30027,1.30027,0,0,0,.95511.36,1.58083,1.58083,0,0,0,1.02291-.34823l.586.64121a2.37182,2.37182,0,0,1-1.61474.586A2.13829,2.13829,0,0,1,277.437,27.68323Z"/><path d="M284.80673,26.3983l1.09577,1.9161h-1.00788l-1.05139-1.81649h-.80362V28.3144h-.87893V23.91968h1.91693q1.53688,0,1.53772,1.26568A1.13684,1.13684,0,0,1,284.80673,26.3983Zm-1.76709-.72074h1.23053q.53115-.00877.54578-.48383-.01506-.4332-.53659-.45036h-1.23972Z"/><path d="M286.95972,23.91633h.87643V28.3144h-.87643Z"/><path d="M292.43848,25.99733a1.24781,1.24781,0,0,1-.71488,2.32042l-2.47275-.00335V23.923H291.583q1.11.064,1.17193,1.29162A.91839.91839,0,0,1,292.43848,25.99733Zm-2.30536-.31391h1.23053a.49555.49555,0,0,0,.5441-.54829c-.00922-.21429-.18836-.32814-.53574-.33986h-1.23889Zm0,1.9454h1.43478a.573.573,0,0,0,.63284-.63535q-.01382-.42189-.62362-.44031h-1.444Z"/><path d="M294.51447,28.3144V23.923l3.22949-.00335V24.74H295.3934v.93754h1.76123v.817H295.3934V27.494h2.34384v.82035Z"/><path d="M238.15742,26.45428l-.34068.24037a.56918.56918,0,0,1-.62611,0l-.34073-.2404-.73261.517-2.232,1.575H241.122l-1.5195-1.07228Z"/><path d="M236.8499,26.016l.31055.21909.2366.167a.21467.21467,0,0,0,.21324-.00006l.23663-.167.04665-.03291.26385-.18618,2.014-1.42113.95443-.67349H233.8815l1.978,1.39577Z"/><polygon points="233.655 24.2 233.655 28.271 236.539 26.235 233.655 24.2"/><polygon points="241.353 28.271 241.353 24.2 238.468 26.235 241.353 28.271"/></svg>