<svg id="Layer_1" data-name="Layer 1" xmlns="http://www.w3.org/2000/svg" xmlns:xlink="http://www.w3.org/1999/xlink" width="320" height="50" viewBox="0 0 320 50"><defs><style>.cls-1{fill:url(#linear-gradient);}.cls-2{fill:url(#linear-gradient-2);}.cls-3{fill:url(#linear-gradient-3);}.cls-4{fill:url(#linear-gradient-4);}.cls-5{fill:url(#linear-gradient-5);}.cls-6{fill:url(#linear-gradient-6);}.cls-7{fill:url(#linear-gradient-7);}.cls-8{fill:url(#linear-gradient-8);}.cls-9{fill:url(#linear-gradient-9);}.cls-10{fill:url(#linear-gradient-10);}</style><linearGradient id="linear-gradient" x1="120.2131" y1="24.73091" x2="127.10634" y2="24.73091" gradientTransform="matrix(1, 0, 0, -1, 0, 52)" gradientUnits="userSpaceOnUse"><stop offset="0" stop-color="#cab272"/><stop offset="0.20527" stop-color="#cdb36c"/><stop offset="0.4882" stop-color="#d4b75a"/><stop offset="0.50029" stop-color="#d4b759"/><stop offset="0.74962" stop-color="#d4b563"/><stop offset="1" stop-color="#d3b372"/></linearGradient><linearGradient id="linear-gradient-2" x1="130.39961" y1="24.73077" x2="136.22661" y2="24.73077" xlink:href="#linear-gradient"/><linearGradient id="linear-gradient-3" x1="143.30701" y1="24.7325" x2="149.73909" y2="24.7325" xlink:href="#linear-gradient"/><linearGradient id="linear-gradient-4" x1="152.8983" y1="24.73658" x2="159.75963" y2="24.73658" xlink:href="#linear-gradient"/><linearGradient id="linear-gradient-5" x1="163.04008" y1="24.73077" x2="168.86708" y2="24.73077" xlink:href="#linear-gradient"/><linearGradient id="linear-gradient-6" x1="171.79776" y1="24.72681" x2="178.56626" y2="24.72681" xlink:href="#linear-gradient"/><linearGradient id="linear-gradient-7" x1="181.783" y1="24.73077" x2="187.61" y2="24.73077" xlink:href="#linear-gradient"/><linearGradient id="linear-gradient-8" x1="190.54068" y1="24.73076" x2="197.59558" y2="24.73076" xlink:href="#linear-gradient"/><linearGradient id="linear-gradient-9" x1="200.76443" y1="24.73077" x2="207.14958" y2="24.73077" xlink:href="#linear-gradient"/><linearGradient id="linear-gradient-10" x1="210.08023" y1="18.95958" x2="212.12675" y2="18.95958" xlink:href="#linear-gradient"/></defs><title>frame4</title><path class="cls-1" d="M120.2131,34.05623v-13.574h3.05861a3.89937,3.89937,0,0,1,2.18792.64,2.98041,2.98041,0,0,1,1.19069,1.67442,4.79745,4.79745,0,0,1,.19349,1.44373,3.20576,3.20576,0,0,1-.72186,2.18791,2.12791,2.12791,0,0,1-.71442.52838,2.38721,2.38721,0,0,1,1.15349,1.027,3.88374,3.88374,0,0,1,.46884,1.33954,5.49239,5.49239,0,0,1,.07441.94512,4.56954,4.56954,0,0,1-.48372,2.18791,3.14036,3.14036,0,0,1-2.61954,1.6Zm2.20279-8.02979h.85582a1.25759,1.25759,0,0,0,1.28-.93023,2.67716,2.67716,0,0,0,.11908-.85582,1.79535,1.79535,0,0,0-.40931-1.28,1.29915,1.29915,0,0,0-.98977-.40186h-.85581Zm0,6.0056h.85582a1.45551,1.45551,0,0,0,1.44373-1.07163,2.31572,2.31572,0,0,0,.1414-.84093,2.55489,2.55489,0,0,0-.43908-1.65954,1.38972,1.38972,0,0,0-1.14605-.47628h-.85581Z"/><path class="cls-2" d="M130.39961,34.05623v-13.574h5.827v2.04652h-3.78049v3.721h2.76094v2.04652h-2.76094v3.7135h3.78049v2.04651Z"/><path class="cls-3" d="M146.52937,20.48224a3.10715,3.10715,0,0,1,2.38141.94512,3.25914,3.25914,0,0,1,.82605,2.2921v1.9721a3.15241,3.15241,0,0,1-.93591,2.2921,3.06063,3.06063,0,0,1-2.26589.95256h-1.18147v5.12H143.307v-13.574Zm1.22048,3.27443a1.1776,1.1776,0,0,0-.31539-.85936,1.13116,1.13116,0,0,0-.84944-.3239h-1.23144V26.912H146.585a1.112,1.112,0,0,0,.82747-.34588,1.14641,1.14641,0,0,0,.33735-.82994Z"/><path class="cls-4" d="M156.12054,20.48224a3.10034,3.10034,0,0,1,2.50791.94512,3.41483,3.41483,0,0,1,.707,2.2921v1.9721a3.1561,3.1561,0,0,1-1.09219,2.43349l1.51637,5.93118h-2.207l-1.24811-5.12745c-.05954.005-.12155.00744-.1857.00744h-1.174v5.12H152.8983v-13.574Zm1.22046,3.27443a1.03771,1.03771,0,0,0-1.16482-1.18326h-1.23145V26.912h1.23145a1.112,1.112,0,0,0,.82747-.34588,1.14641,1.14641,0,0,0,.33735-.82994Z"/><path class="cls-5" d="M163.04008,34.05623v-13.574h5.827v2.04652h-3.78049v3.721h2.76094v2.04652h-2.76094v3.7135h3.78049v2.04651Z"/><path class="cls-6" d="M178.56242,30.68506a3.80428,3.80428,0,0,1-.73674,2.426,2.6178,2.6178,0,0,1-1.40652.96,3.7605,3.7605,0,0,1-1.13861.15628,3.21789,3.21789,0,0,1-1.99442-.59535,3.40745,3.40745,0,0,1-1.04187-1.3282,5.25072,5.25072,0,0,1-.4465-1.93135l1.94234-.134a2.947,2.947,0,0,0,.63255,1.71163,1.03662,1.03662,0,0,0,.84094.37954,1.27541,1.27541,0,0,0,1.07163-.65489,1.6451,1.6451,0,0,0,.20837-.90047,2.50688,2.50688,0,0,0-.76651-1.6893q-.61025-.573-1.82327-1.71908a7.53425,7.53425,0,0,1-1.43628-1.76373,4.08743,4.08743,0,0,1-.454-1.90512,3.31658,3.31658,0,0,1,1.24279-2.80559,3.09241,3.09241,0,0,1,1.90512-.573,3.4523,3.4523,0,0,1,1.87536.49116,2.82124,2.82124,0,0,1,.97489,1.06065,3.99789,3.99789,0,0,1,.454,1.56634l-1.96466.35721a2.29262,2.29262,0,0,0-.47627-1.29489.99232.99232,0,0,0-.81116-.34233.943.943,0,0,0-.85582.49861,1.92708,1.92708,0,0,0-.23814.99721,2.99786,2.99786,0,0,0,.80373,1.89768,7.16627,7.16627,0,0,0,.90791.86326q.7144.59535.94511.83349a7.20594,7.20594,0,0,1,1.16838,1.49582,5.35612,5.35612,0,0,1,.31256.64A3.80142,3.80142,0,0,1,178.56242,30.68506Z"/><path class="cls-7" d="M181.783,34.05623v-13.574h5.827v2.04652h-3.78047v3.721h2.76092v2.04652h-2.76092v3.7135H187.61v2.04651Z"/><path class="cls-8" d="M192.84023,20.48224l2.70884,9.11631V20.48224h2.04651v13.574h-2.19215l-2.81623-8.69212v8.69212h-2.04652v-13.574Z"/><path class="cls-9" d="M202.93744,22.52876h-2.173V20.48224h6.38515v2.04652H204.984V34.05623h-2.04652Z"/><path class="cls-10" d="M210.08023,32.01716h2.04652v2.04652h-2.04652Z"/></svg>