<svg id="Layer_1" data-name="Layer 1" xmlns="http://www.w3.org/2000/svg" xmlns:xlink="http://www.w3.org/1999/xlink" width="320" height="50" viewBox="0 0 320 50"><defs><style>.cls-1{fill:url(#linear-gradient);}.cls-2{fill:url(#linear-gradient-2);}.cls-3{fill:url(#linear-gradient-3);}.cls-4{fill:#fff;}</style><linearGradient id="linear-gradient" x1="280.68" y1="20.19" x2="280.68" y2="33.58" gradientUnits="userSpaceOnUse"><stop offset="0" stop-color="#ceb467"/><stop offset="1" stop-color="#997f2f"/></linearGradient><linearGradient id="linear-gradient-2" x1="251.61" y1="20.17" x2="251.61" y2="33.6" xlink:href="#linear-gradient"/><linearGradient id="linear-gradient-3" x1="248.31" y1="26.52" x2="277.8" y2="26.78" gradientUnits="userSpaceOnUse"><stop offset="0" stop-color="#ad8f35"/><stop offset="0.19" stop-color="#ceb467"/><stop offset="0.46" stop-color="#a58f4b"/><stop offset="0.76" stop-color="#ceb467"/><stop offset="1" stop-color="#997f2f"/></linearGradient></defs><title>link</title><path class="cls-1" d="M300.69,33.58H257l3.79-6.69L257,20.19h43.65l3.64,6.7Zm-42.8-.5H300.4l3.37-6.19-3.37-6.2H257.89l3.51,6.2Z"/><path class="cls-2" d="M255.56,33.6l-8,0L244,26.85l3.69-6.68,8,0,3.62,6.71Zm-7.67-.54,7.38,0,3.42-6.18-3.36-6.21-7.38,0-3.41,6.18Z"/><path class="cls-3" d="M254.23,28.56l.08,0a.58.58,0,0,0-.17,0l-.84.35.51-.38h0v-.08l-.09-.15a3.14,3.14,0,0,0,.69-.72l-.68.33.69-.58a1,1,0,0,0,.22-.23c.09-.14.17-.28.25-.42l-.22.21.26-.55a7.13,7.13,0,0,0,.38-1.05,9.49,9.49,0,0,0-1,.65l-.5.38.16-.25c-.13.11-.25.23-.37.35a1.2,1.2,0,0,0-.19.26l-.36.7.13-.64a2.34,2.34,0,0,0-.29.35l-.07.09-.06,0h0l-.5,1,.3-1a3.33,3.33,0,0,0,.1-1.3l-.35.64.17-.77a1.19,1.19,0,0,0,0-.39,5.08,5.08,0,0,0-.13-.78l0,.38-.15-.56a9,9,0,0,0-.51-1.39,10.15,10.15,0,0,0-.51,1.39l-.15.56,0-.38a5.08,5.08,0,0,0-.13.78,1.19,1.19,0,0,0,0,.39l.17.77-.35-.64a3.33,3.33,0,0,0,.1,1.3l.3,1-.5-1h0l-.06,0-.07-.09a2.34,2.34,0,0,0-.29-.35l.13.64-.36-.7a1.2,1.2,0,0,0-.19-.26l-.37-.35.16.25L249,26a9.49,9.49,0,0,0-1-.65,7.13,7.13,0,0,0,.38,1.05l.26.55-.22-.21c.08.14.16.28.25.42a1,1,0,0,0,.22.23l.69.58-.68-.33a3.14,3.14,0,0,0,.69.72l-.09.15v.08h0l.51.38-.84-.35a.58.58,0,0,0-.17,0l.08,0h-.71a4.86,4.86,0,0,0-.69.05,5.39,5.39,0,0,0,.59.32l.63.29h-.07a.65.65,0,0,0,.16,0l.95,0-.65.12a1.83,1.83,0,0,0,.47.05h.69l-.4.13.62.11-1,.06h0l-.44.21-.32.18h.93l.83-.36-.42.32.16-.07.08.05h0a1.61,1.61,0,0,0,.37-.21,1.76,1.76,0,0,1,.4-.24l.15,0a.4.4,0,0,1-.19-.12c-.09-.09-.13-.21,0-.24s.25.12.26.12a.19.19,0,0,0,.05-.12c0-.05,0-.15,0-.21s0-.14,0-.18-.11-.06-.16-.09l-.13-.09a.4.4,0,0,1-.05-.19c0-.07,0-.15,0-.19s-.07-.05-.1-.08a.13.13,0,0,1,0-.08s0,.05.06.05,0,0,.07,0,0,0,.05.07a1.19,1.19,0,0,0,.07.23c0,.06,0,.1.08.1s0,0,.11,0a.57.57,0,0,1,.16,0,.06.06,0,0,0,.09,0,.41.41,0,0,0,0-.12s0,0,0-.06a0,0,0,0,1,0,0,.12.12,0,1,1,.22,0,0,0,0,0,1,0,0s0,.06,0,.06a.41.41,0,0,0,0,.12.06.06,0,0,0,.09,0,.57.57,0,0,1,.16,0c.06,0,0,0,.11,0s.07,0,.08-.1a1.19,1.19,0,0,0,.07-.23s0-.06.05-.07,0,0,.07,0,0-.06.06-.05a.13.13,0,0,1,0,.08s-.08.05-.1.08,0,.12,0,.19a.4.4,0,0,1-.05.19l-.13.09c-.05,0-.14.05-.16.09s0,.12,0,.18,0,.16,0,.21a.19.19,0,0,0,.05.12s.17-.14.26-.12.05.15,0,.24a.36.36,0,0,1-.19.12l.15,0a1.76,1.76,0,0,1,.4.24,1.61,1.61,0,0,0,.37.21h0l.08-.05.16.07-.41-.32.82.36h.93l-.32-.18-.44-.21h0l-1-.06.62-.11-.4-.13h.69a1.83,1.83,0,0,0,.47-.05l-.65-.12,1,0a.9.9,0,0,0,.16,0h-.08l.63-.29a5.39,5.39,0,0,0,.59-.32,4.83,4.83,0,0,0-.68-.05Z"/><path class="cls-4" d="M264.26,28.62V25.46h.21l2,2v-2h.63v3.16h-.23l-2-2v2Z"/><path class="cls-4" d="M267.67,28.62l1.26-3.16h.63l1.27,3.16h-.67l-.19-.48h-1.44l-.19.48Zm1.6-2.32-.49,1.21h1Z"/><path class="cls-4" d="M271.39,28.62V25.46h.21L273,27l1.37-1.56h.21v3.16h-.63V26.79L273,27.84l-1-1.05v1.83Z"/><path class="cls-4" d="M275.1,28.62l1.27-3.16H277l1.27,3.16h-.68l-.19-.48H276l-.19.48Zm1.6-2.32-.48,1.21h.95Z"/><path class="cls-4" d="M280.54,25.57a1.45,1.45,0,0,1,.45.31l-.42.42a.75.75,0,0,0-.59-.25c-.25,0-.42.06-.49.18a.25.25,0,0,0,0,.31,1,1,0,0,0,.49.19,1.46,1.46,0,0,1,.73.26.81.81,0,0,1,.32.71.79.79,0,0,1-.35.65,1.28,1.28,0,0,1-.81.27,2,2,0,0,1-.74-.12,1.77,1.77,0,0,1-.5-.34l.42-.42a1,1,0,0,0,.72.29c.28,0,.45-.06.52-.18a.32.32,0,0,0,0-.35c-.07-.12-.24-.2-.52-.23a1.53,1.53,0,0,1-.7-.23.69.69,0,0,1-.32-.65.8.8,0,0,1,.36-.68,1.34,1.34,0,0,1,.74-.25A1.77,1.77,0,0,1,280.54,25.57Z"/><path class="cls-4" d="M284.27,25.46v.59h-1.06v2.57h-.63V26.05h-1.06v-.59Z"/><path class="cls-4" d="M284.82,28.62V25.46h2.32v.59h-1.69v.68h1.27v.58h-1.27V28h1.69v.59Z"/><path class="cls-4" d="M287.88,28.12a.3.3,0,0,1,.23-.09.29.29,0,0,1,.23.09.26.26,0,0,1,.09.21.29.29,0,0,1-.09.21.28.28,0,0,1-.23.08.3.3,0,0,1-.23-.08.28.28,0,0,1-.08-.21A.25.25,0,0,1,287.88,28.12Z"/><path class="cls-4" d="M289.47,28.17A1.54,1.54,0,0,1,289,27a1.54,1.54,0,0,1,1.58-1.58,1.71,1.71,0,0,1,1.16.42l-.42.46a1.22,1.22,0,0,0-.74-.25,1,1,0,0,0-.68,1.64.89.89,0,0,0,.68.26,1.12,1.12,0,0,0,.74-.25l.42.46a1.71,1.71,0,0,1-1.16.42A1.55,1.55,0,0,1,289.47,28.17Z"/><path class="cls-4" d="M292.82,28.17a1.54,1.54,0,0,1-.45-1.13,1.55,1.55,0,0,1,.45-1.13,1.64,1.64,0,0,1,2.26,0,1.55,1.55,0,0,1,.45,1.13,1.6,1.6,0,0,1-2.71,1.13ZM294,28a.9.9,0,0,0,.69-.28,1,1,0,0,0,.26-.71,1,1,0,0,0-.26-.7.91.91,0,0,0-.69-.29.88.88,0,0,0-.68.29,1,1,0,0,0-.27.7,1,1,0,0,0,.27.71A.87.87,0,0,0,294,28Z"/><path class="cls-4" d="M296.09,28.62V25.46h.21L297.67,27,299,25.46h.22v3.16h-.64V26.79l-.95,1.05-.95-1.05v1.83Z"/></svg>