<svg id="Layer_1" data-name="Layer 1" xmlns="http://www.w3.org/2000/svg" width="300" height="600" viewBox="0 0 300 600"><defs><style>.cls-1{fill:#fff;}</style></defs><title>New Year</title><path class="cls-1" d="M96.89,268.56626,101.369,283.6395V268.56626h3.38378V291.01h-3.6246l-4.65645-14.37188V291.01H93.08789V268.56626Z"/><path class="cls-1" d="M108.7875,291.01V268.56626h9.63457V271.95h-6.25078v6.15235h4.565v3.38379h-4.565v6.14h6.25078V291.01Z"/><path class="cls-1" d="M135.66035,268.56626h3.54375L135.69727,291.01h-3.24844l-1.90723-12.24317L128.74512,291.01H125.509l-3.75293-22.44375h3.54375l1.77188,12.02168,1.62422-12.02168h3.54375l1.77187,12.02168Z"/><path class="cls-1" d="M150.399,281.60922l-4.52812-13.043h3.716l2.51661,8.05957,2.4914-8.05957h3.74063l-4.55274,13.043V291.01H150.399Z"/><path class="cls-1" d="M162.03867,291.01V268.56626h9.63457V271.95h-6.25078v6.15235h4.565v3.38379h-4.565v6.14h6.25078V291.01Z"/><path class="cls-1" d="M179.3502,285.85434l-.82442,5.15567h-3.51914l3.80215-22.44375h4.66348L187.2252,291.01h-3.54375l-.79981-5.15567Zm1.77187-12.14472-1.25508,8.84707h2.51016Z"/><path class="cls-1" d="M196.41563,268.56626a5.12619,5.12619,0,0,1,4.14667,1.56269,5.64614,5.64614,0,0,1,1.16895,3.78984v3.26075a5.2185,5.2185,0,0,1-1.80586,4.02363l2.50723,9.80684H198.7834l-2.06426-8.47793c-.09844.0082-.20039.0123-.307.0123h-1.94063V291.01H191.0877V268.56626Zm2.018,5.41406a1.716,1.716,0,0,0-1.926-1.95645h-2.03614v7.17364h2.03614a1.83854,1.83854,0,0,0,1.36758-.57188,1.89706,1.89706,0,0,0,.55839-1.37226Z"/><path class="cls-1" d="M205.7666,287.63852h3.38379v3.38379H205.7666Z"/></svg>