<svg id="Layer_1" data-name="Layer 1" xmlns="http://www.w3.org/2000/svg" xmlns:xlink="http://www.w3.org/1999/xlink" width="970" height="250" viewBox="0 0 970 250"><defs><style>.cls-1{fill:url(#linear-gradient);}.cls-2{fill:url(#linear-gradient-2);}.cls-3{fill:#fff;}.cls-4{fill:url(#linear-gradient-3);}</style><linearGradient id="linear-gradient" x1="499.66593" y1="197.4287" x2="499.66593" y2="230.43333" gradientUnits="userSpaceOnUse"><stop offset="0" stop-color="#ceb467"/><stop offset="1" stop-color="#997f2f"/></linearGradient><linearGradient id="linear-gradient-2" x1="427.99058" y1="197.37967" x2="427.99058" y2="230.48236" xlink:href="#linear-gradient"/><linearGradient id="linear-gradient-3" x1="419.86452" y1="213.02932" x2="492.56971" y2="213.67559" gradientUnits="userSpaceOnUse"><stop offset="0" stop-color="#ad8f35"/><stop offset="0.1878" stop-color="#ceb467"/><stop offset="0.46098" stop-color="#a58f4b"/><stop offset="0.76341" stop-color="#ceb467"/><stop offset="1" stop-color="#997f2f"/></linearGradient></defs><title>learnmore</title><path class="cls-1" d="M548.99322,230.43333H441.3645l9.34782-16.502L441.3645,197.4287H548.99322l8.97414,16.50261Zm-105.52778-1.22445H548.265l8.30811-15.27757L548.265,198.65315H443.46544l8.65428,15.27816Z"/><path class="cls-2" d="M437.73957,230.48236l-19.6618-.09806-8.92452-16.54685,9.08834-16.45778,19.6618.09805,8.92452,16.54686Zm-18.9288-1.31892,18.20776.09087,8.41393-15.2369-8.26207-15.31882-18.20776-.09088-8.41393,15.23691Z"/><path class="cls-3" d="M466.88029,210.3328v5.85313h3.83812v1.34334H465.441V210.3328Z"/><path class="cls-3" d="M472.27724,217.52927V210.3376l5.287-.0048v1.34334h-3.84771v1.53525h2.88338v1.33854h-2.88338v1.636h3.83811v1.34334Z"/><path class="cls-3" d="M479.02713,217.52927l2.87859-7.19647h1.4393l2.87379,7.19168-1.53045.00479-.43179-1.10345h-3.2624l-.43179,1.10345Zm3.63662-5.27741-1.09386,2.73466h2.15894Z"/><path class="cls-3" d="M492.01876,214.39161l1.79432,3.13766h-1.65039l-1.72235-2.97454h-1.31456v2.97454h-1.43929V210.3328h3.13766q2.51877,0,2.51876,2.07259A1.861,1.861,0,0,1,492.01876,214.39161Zm-2.893-1.18022h2.015q.86838-.01439.89237-.79161-.024-.71006-.878-.73884h-2.02941Z"/><path class="cls-3" d="M494.95452,217.52927V210.3328h.47977l4.50979,4.50979V210.3328h1.43929v7.19647h-.52774l-4.46181-4.46181v4.46181Z"/><path class="cls-3" d="M507.01981,217.52927V210.3328h.47976l3.11847,3.55026,3.12327-3.55026h.47977v7.19647h-1.4393l-.0048-4.17395-2.15894,2.39882-2.15894-2.39882v4.17395Z"/><path class="cls-3" d="M516.71545,216.49538a3.70616,3.70616,0,1,1,2.56675,1.03389A3.48631,3.48631,0,0,1,516.71545,216.49538Zm2.57154-.30945a2.02148,2.02148,0,0,0,1.55444-.64768,2.4535,2.4535,0,0,0,0-3.21442,2.20067,2.20067,0,0,0-3.11847,0,2.4535,2.4535,0,0,0,0,3.21442A2.03277,2.03277,0,0,0,519.287,216.18593Z"/><path class="cls-3" d="M528.67559,214.39161l1.79432,3.13766h-1.65039l-1.72236-2.97454h-1.31455v2.97454h-1.4393V210.3328H527.481q2.51876,0,2.51876,2.07259A1.861,1.861,0,0,1,528.67559,214.39161Zm-2.893-1.18022h2.015q.86838-.01439.89236-.79161-.024-.71006-.878-.73884h-2.0294Z"/><path class="cls-3" d="M531.59216,217.52927V210.3376l5.287-.0048v1.34334h-3.84772v1.53525h2.88339v1.33854h-2.88339v1.636h3.83812v1.34334Z"/><path class="cls-4" d="M434.44243,218.04889l.1971-.06463a2.21522,2.21522,0,0,0-.41748.12893l-2.06434.86035,1.24923-.9308-.00953.00162-.02843-.21472-.227-.37451a7.47907,7.47907,0,0,0,1.701-1.75591l-1.669.79894,1.7005-1.41629a2.8099,2.8099,0,0,0,.53995-.58536c.21925-.33153.42282-.67115.60863-1.0148l-.52719.52056.63188-1.37461a18.154,18.154,0,0,0,.93483-2.58475,22.02918,22.02918,0,0,0-2.5051,1.61406l-1.23712.93758.39455-.61477c-.32007.27208-.62946.55935-.92481.85841a2.71939,2.71939,0,0,0-.45546.63818l-.90348,1.73055.321-1.57964a7.47248,7.47248,0,0,0-.71591.8563l-.15736.21974-.14444-.0992a.363.363,0,0,0-.0223.03764l-1.24116,2.35355.73191-2.55809a8.1194,8.1194,0,0,0,.24283-3.21034l-.85468,1.58852.41392-1.91085a3.11247,3.11247,0,0,0,.06463-.95356,15.4123,15.4123,0,0,0-.3283-1.929l-.11277.93807-.371-1.36752a23.25784,23.25784,0,0,0-1.26718-3.42958,23.25356,23.25356,0,0,0-1.267,3.42958l-.37112,1.36752-.11262-.93807a15.37944,15.37944,0,0,0-.3283,1.929,3.10939,3.10939,0,0,0,.06463.95372l.41345,1.91134-.85421-1.58885a8.11782,8.11782,0,0,0,.24268,3.21l.73206,2.55825-1.24116-2.35371a.39211.39211,0,0,0-.02246-.03764l-.14428.0992-.15753-.21974a7.46539,7.46539,0,0,0-.71574-.8563l.321,1.57964-.90364-1.73055a2.71751,2.71751,0,0,0-.4553-.63818c-.29469-.29858-.60393-.58537-.92352-.85728l.39552.61541-1.23954-.93935a22.01507,22.01507,0,0,0-2.5051-1.61406,18.13633,18.13633,0,0,0,.935,2.58475l.63189,1.37461-.5272-.52056c.18565.34365.38938.68327.60863,1.0148a2.80429,2.80429,0,0,0,.5398.58536l1.70065,1.41629-1.669-.79894a7.47591,7.47591,0,0,0,1.701,1.75591l-.227.37451-.02843.21472-.0097-.00162,1.2494.9308-2.06451-.86035a2.20942,2.20942,0,0,0-.41732-.12893l.197.06463-1.76949-.00405a15.19969,15.19969,0,0,0-1.68643.10212,13.88677,13.88677,0,0,0,1.44182.79249l1.55686.73044-.179-.02165a2.32522,2.32522,0,0,0,.39472.05041l2.3592.1047-1.6097.30665a5.79392,5.79392,0,0,0,1.16264.12779l1.70744.01116-.99849.3241,1.53408.26659-2.36243.14185q-.05646.00339-.11051.01018l-1.08379.5301c-.27806.13588-.53754.28355-.77714.43138.29728.023.6175.03717.94177.03118l1.235-.022c.03361-.01195.06738-.02536.10115-.03991l2.0435-.88958-1.031.79491a3.57826,3.57826,0,0,0,.40457-.173s.16092.09275.19161.11859a.76761.76761,0,0,0,.08661-.0189,3.64878,3.64878,0,0,0,.8954-.52284,3.76768,3.76768,0,0,1,1.004-.57291,2.50153,2.50153,0,0,1,.35157-.06559.96062.96062,0,0,1-.46289-.28872c-.22361-.22345-.30891-.5251-.09354-.58876.2152-.06366.60587.30165.63124.30165a.46562.46562,0,0,0,.13038-.30067c0-.12894-.09226-.37985-.10938-.5314a2.536,2.536,0,0,0-.09193-.43979c-.03361-.1-.26691-.14347-.39229-.2207a2.05423,2.05423,0,0,1-.31619-.21892.99972.99972,0,0,1-.13442-.45869,1.80885,1.80885,0,0,0-.07545-.46709c-.04362-.08175-.15575-.13943-.23169-.21537a.32647.32647,0,0,1-.078-.20067c.05817-.01825.07643.13168.14364.14445s.06252.06818.168.10453c.10534.03619.10889.08627.12246.18434s.13185.42978.17095.565c.03893.1354.07981.23719.21343.24171.13345.00452.11535.07368.27256.06091a.87814.87814,0,0,1,.37694.07271c.08449.02988.19081.03264.22715-.02633.03636-.05914-.02536-.29713-.02536-.29713-.05461,0-.06382-.07351-.08466-.14169-.02068-.06818.01293-.07352.01293-.07352a.28786.28786,0,1,1,.54851,0s.03361.00534.01277.07352c-.021.06818-.02989.14169-.0845.14169,0,0-.06172.238-.02553.29713.03652.059.14266.05621.22732.02633a.87711.87711,0,0,1,.37694-.07271c.157.01277.13895-.05639.27241-.06091s.17448-.10631.21358-.24171c.0391-.13522.15705-.46693.17078-.565.01357-.09807.01729-.14815.12264-.18434.10533-.03635.10081-.09177.168-.10453.06738-.01277.08547-.1627.14363-.14445a.326.326,0,0,1-.07819.20067c-.07578.07594-.18806.13362-.23153.21537a1.79546,1.79546,0,0,0-.07545.46709.99959.99959,0,0,1-.13443.45869,2.06913,2.06913,0,0,1-.31618.21892c-.12538.07723-.35884.1207-.39245.2207a2.52138,2.52138,0,0,0-.09177.43979c-.01728.15155-.10938.40246-.10938.5314a.4648.4648,0,0,0,.13039.30067c.02536,0,.416-.36531.63124-.30165.21537.06366.13006.36531-.09355.58876a.95933.95933,0,0,1-.46289.28872,2.49446,2.49446,0,0,1,.35141.06559,3.76768,3.76768,0,0,1,1.004.57291,3.654,3.654,0,0,0,.89524.52284.79227.79227,0,0,0,.08676.0189c.0307-.02569.19178-.11859.19178-.11859a3.57748,3.57748,0,0,0,.40457.173l-1.031-.79491,2.04334.88958c.03377.01455.06753.028.10114.03991l1.23518.022c.32426.006.64433-.00823.94177-.03118-.2396-.14783-.49924-.2955-.77729-.43138l-1.0838-.5301c-.03587-.00453-.07286-.00792-.11035-.01018l-2.36227-.14185,1.535-.26675-.99525-.32394,1.70309-.01116a5.79517,5.79517,0,0,0,1.16263-.12779l-1.60969-.30665,2.359-.1047a2.32467,2.32467,0,0,0,.39486-.05041l-.17917.02165,1.55686-.73044a13.89006,13.89006,0,0,0,1.442-.79249,15.20244,15.20244,0,0,0-1.68644-.10212Z"/></svg>