<svg id="Layer_1" data-name="Layer 1" xmlns="http://www.w3.org/2000/svg" width="970" height="250" viewBox="0 0 970 250"><defs><style>.cls-1{fill:#fff;}</style></defs><title>meditation</title><path class="cls-1" d="M446.76979,168.24238h-3.5V145.02751h5.01462l3.25822,16.6475,3.131-16.6475h4.82371v23.21487h-3.5V153.65672l-3.02489,14.58566h-2.80913l-3.39338-14.54808Z"/><path class="cls-1" d="M469.14343,144.74751a5.55183,5.55183,0,0,1,5.5619,5.56128v12.66442a5.54977,5.54977,0,0,1-5.5619,5.56129,5.2946,5.2946,0,0,1-3.91339-1.62911,5.38755,5.38755,0,0,1-1.61032-3.93218V150.30879a5.55192,5.55192,0,0,1,5.52371-5.56128Zm1.90912,5.49583a1.97751,1.97751,0,0,0-1.99821-1.99639,1.95664,1.95664,0,0,0-1.41941.5794,1.907,1.907,0,0,0-.59153,1.417V162.949a1.91549,1.91549,0,0,0,.59153,1.41214,1.9515,1.9515,0,0,0,1.41941.58425,1.98556,1.98556,0,0,0,1.99821-1.99639Z"/><path class="cls-1" d="M484.35213,145.02751a5.30075,5.30075,0,0,1,4.28854,1.61578,5.84031,5.84031,0,0,1,1.20971,3.92005v3.37338a5.39852,5.39852,0,0,1-1.8679,4.16127l2.59276,10.14439h-3.77459l-2.13458-8.76982c-.10182.00848-.20728.01333-.31758.01333h-2.00791v8.75649h-3.5V145.02751Zm2.0873,5.60008a1.77559,1.77559,0,0,0-1.99276-2.02427h-2.10609v7.4207h2.10609a1.89979,1.89979,0,0,0,1.41457-.59152,1.96038,1.96038,0,0,0,.57819-1.41941Z"/><path class="cls-1" d="M494.62257,168.24238V145.02751h9.965V148.527H498.122v6.36373h4.72128v3.50065H498.122v6.35039h6.46555v3.50066Z"/><path class="cls-1" d="M518.43138,168.24238h-3.49944V145.02751h5.01341l3.25822,16.6475,3.13217-16.6475h4.82309v23.21487h-3.49944V153.65672l-3.0255,14.58566h-2.80852l-3.394-14.54808Z"/><path class="cls-1" d="M535.34556,168.24238V145.02751h9.965V148.527H538.845v6.36373h4.72128v3.50065H538.845v6.35039h6.46554v3.50066Z"/><path class="cls-1" d="M559.75559,162.69321a5.36581,5.36581,0,0,1-1.617,3.92005,5.27364,5.27364,0,0,1-3.88127,1.62912h-5.49825V145.02751h5.49825a5.25807,5.25807,0,0,1,3.89339,1.62911,5.37169,5.37169,0,0,1,1.60487,3.90672Zm-7.49707,2.0873h2.10669a1.85725,1.85725,0,0,0,1.4073-.60486,2.00085,2.00085,0,0,0,.57213-1.41941v-12.142a1.94687,1.94687,0,0,0-.58425-1.4182,1.8902,1.8902,0,0,0-1.39518-.59273h-2.10669Z"/><path class="cls-1" d="M567.36418,168.24238h-3.49944V145.02751h3.49944Z"/><path class="cls-1" d="M574.93762,148.527H571.2212v-3.49944h10.91894V148.527h-3.70308v19.71543h-3.49944Z"/><path class="cls-1" d="M587.30749,162.909l-.85335,5.33341H582.8153l3.93218-23.21487h4.82431l3.88126,23.21487h-3.6655l-.82668-5.33341Zm1.83275-12.56139L587.842,159.498h2.5964Z"/><path class="cls-1" d="M599.89554,148.527h-3.71641v-3.49944h10.91893V148.527H603.395v19.71543h-3.49944Z"/><path class="cls-1" d="M614.45453,168.24238h-3.49944V145.02751h3.49944Z"/><path class="cls-1" d="M624.11163,144.74751a5.55181,5.55181,0,0,1,5.5625,5.56128v12.66442a5.54976,5.54976,0,0,1-5.5625,5.56129,5.29324,5.29324,0,0,1-3.91278-1.62911,5.387,5.387,0,0,1-1.60972-3.93218V150.30879a5.55194,5.55194,0,0,1,5.5225-5.56128Zm1.91033,5.49583a1.97851,1.97851,0,0,0-1.99881-1.99639,1.95666,1.95666,0,0,0-1.41942.5794,1.90705,1.90705,0,0,0-.59152,1.417V162.949a1.91552,1.91552,0,0,0,.59152,1.41214,1.95153,1.95153,0,0,0,1.41942.58425A1.98657,1.98657,0,0,0,626.022,162.949Z"/><path class="cls-1" d="M637.71667,145.02751l4.63279,15.59052V145.02751h3.50065v23.21487H642.101l-4.817-14.86566v14.86566h-3.49945V145.02751Z"/><path class="cls-1" d="M649.29743,164.75505h3.49945v3.49945h-3.49945Z"/></svg>