<svg id="Content" xmlns="http://www.w3.org/2000/svg" xmlns:xlink="http://www.w3.org/1999/xlink" width="320" height="480" viewBox="0 0 320 480"><defs><style>.cls-1{fill:#ba9544;}.cls-2{fill:#fff;stroke:#ba9544;stroke-miterlimit:10;stroke-width:0.5px;}.cls-3{clip-path:url(#clip-path);}</style><clipPath id="clip-path"><polygon class="cls-1" points="58.24 285.076 67.633 298.382 90.695 298.399 90.695 271.534 67.633 271.528 58.24 285.076"/></clipPath></defs><title>CBD - Durga Mata</title><polygon class="cls-2" points="253.51 272.203 67.429 271.498 58.035 285.044 67.429 298.35 253.51 298.033 261.965 285.119 253.51 272.203"/><polygon class="cls-1" points="58.24 285.076 67.633 298.382 90.695 298.399 90.695 271.534 67.633 271.528 58.24 285.076"/><g class="cls-3"><rect class="cls-1" x="56.16232" y="269.45174" width="13.72831" height="31.0228"/></g><path class="cls-1" d="M167.3584,289.51367a4.557,4.557,0,0,1,3.24023-7.80176,4.92929,4.92929,0,0,1,3.34668,1.21485l-1.21484,1.33008a3.35829,3.35829,0,0,0-2.13184-.72852,2.59663,2.59663,0,0,0-2.72656,2.709,2.73108,2.73108,0,0,0,.75879,2.01612,2.68934,2.68934,0,0,0,1.98047.74707,3.2627,3.2627,0,0,0,2.11914-.72266l1.21484,1.33008a4.913,4.913,0,0,1-3.34668,1.21484A4.4331,4.4331,0,0,1,167.3584,289.51367Z"/><path class="cls-1" d="M182.376,286.01855a2.58686,2.58686,0,0,1-1.48243,4.81006l-5.126-.00586v-9.10449h4.835q2.30127.1333,2.42969,2.67822A1.90459,1.90459,0,0,1,182.376,286.01855Zm-4.78028-.6499h2.55078a1.02807,1.02807,0,0,0,1.12989-1.13574q-.02929-.668-1.11133-.70459H177.5957Zm0,4.03272h2.97657a1.189,1.189,0,0,0,1.31152-1.31787q-.03077-.87452-1.293-.91114H177.5957Z"/><path class="cls-1" d="M185.46191,290.82275v-9.1167h3.51075q4.251,0,4.251,4.56153,0,4.55493-4.251,4.55517Zm3.51075-1.81591q2.42284-.00587,2.42871-2.73926-.00586-2.73341-2.42871-2.7334h-1.68848v5.47266Z"/><path class="cls-1" d="M195.25879,285.01318a.877.877,0,0,1,.65527-.24609.91335.91335,0,0,1,.68067.24609.83428.83428,0,0,1,.24316.61036.82291.82291,0,0,1-.24316.60742,1.039,1.039,0,0,1-1.33594,0,.82291.82291,0,0,1-.24317-.60742A.83429.83429,0,0,1,195.25879,285.01318Zm0,4.34864a.87862.87862,0,0,1,.65527-.24561.915.915,0,0,1,.68067.24561.83458.83458,0,0,1,.24316.61084.82257.82257,0,0,1-.24316.60693,1.039,1.039,0,0,1-1.33594,0,.82257.82257,0,0,1-.24317-.60693A.83459.83459,0,0,1,195.25879,289.36182Z"/><path class="cls-1" d="M209.17871,285.751q-.03516,2.90991-1.0957,4.03906a3.07652,3.07652,0,0,1-2.63281.99609,3.79253,3.79253,0,0,1-2.44825-1.15381l1.02637-1.11767a3.18307,3.18307,0,0,0,1.51856.51611,1.6045,1.6045,0,0,0,1.2998-.38867,2.44583,2.44583,0,0,0,.6748-1.48779,2.85205,2.85205,0,0,1-1.88964.60742,3.04859,3.04859,0,0,1-2.24707-1.04785,3.12588,3.12588,0,0,1-.53418-2.28076,2.992,2.992,0,0,1,1.05957-2.062,3.21694,3.21694,0,0,1,2.50586-.63476,2.97362,2.97362,0,0,1,2.0498,1.209A5.135,5.135,0,0,1,209.17871,285.751Zm-1.82129-1.002q-.06151-1.26928-1.458-1.32422-1.39746.05494-1.458,1.209a1.376,1.376,0,0,0,1.51855,1.51807A1.3528,1.3528,0,0,0,207.35742,284.749Z"/><path class="cls-1" d="M210.79492,288.38721v-1.2085h3.76563v1.2085Z"/><path class="cls-1" d="M218.49023,281.71191v-.00586h1.81641v9.1167h-1.81641V284.1416l-1.21484,1.21485-1.21484-1.21485Z"/><path class="cls-1" d="M227.79492,286.20654c.10938.04053.209.08106.29785.12158a1.78553,1.78553,0,0,1,.94141,1.82227,2.336,2.336,0,0,1-1.00488,1.88281,3.68417,3.68417,0,0,1-2.3418.78955,5.39488,5.39488,0,0,1-2.11914-.36425,4.58318,4.58318,0,0,1-1.458-.97217l1.21485-1.21436a2.885,2.885,0,0,0,2.06445.8501q1.21583,0,1.51562-.51611a.963.963,0,0,0,0-1.03272q-.30029-.51636-2.11621-.57715v-1.63964q1.81494.12158,2.11621-.395a.9621.9621,0,0,0,0-1.03223q-.30029-.51636-1.51562-.5166a2.16173,2.16173,0,0,0-1.76074.729l-1.21485-1.21484a4.23805,4.23805,0,0,1,1.30567-.91114,5.08767,5.08767,0,0,1,1.96777-.30371,3.20779,3.20779,0,0,1,2.21973.79,2.4407,2.4407,0,0,1,.88379,1.88282,1.80268,1.80268,0,0,1-.81934,1.731C227.919,286.144,227.86035,286.17432,227.79492,286.20654Z"/><path class="cls-1" d="M231.04492,285.55664a2.34729,2.34729,0,1,1,1.62793.65625A2.20838,2.20838,0,0,1,231.04492,285.55664Zm1.60938-.4248a1.08642,1.08642,0,0,0,.832-.3462,1.31153,1.31153,0,0,0,0-1.72216,1.09793,1.09793,0,0,0-.83789-.34327,1.084,1.084,0,0,0-.82617.34327,1.3115,1.3115,0,0,0,0,1.72216A1.08639,1.08639,0,0,0,232.6543,285.13184Zm-.48535,5.69091,5.1621-9.11084h1.48243l-5.15039,9.11084Zm4.52441-.60107a2.33338,2.33338,0,1,1,1.61523.6499A2.1928,2.1928,0,0,1,236.69336,290.22168Zm1.585-.44385a1.06724,1.06724,0,0,0,.81445-.33691,1.27122,1.27122,0,0,0,0-1.67627,1.07419,1.07419,0,0,0-.82031-.33692,1.05681,1.05681,0,0,0-.80762.33692,1.27122,1.27122,0,0,0,0,1.67627A1.06368,1.06368,0,0,0,238.27832,289.77783Z"/></svg>