<?xml version="1.0" encoding="utf-8"?>
<!-- Generator: Adobe Illustrator 23.0.1, SVG Export Plug-In . SVG Version: 6.00 Build 0)  -->
<svg version="1.1" id="Layer_1" xmlns="http://www.w3.org/2000/svg" xmlns:xlink="http://www.w3.org/1999/xlink" x="0px" y="0px"
	 viewBox="0 0 970 250" enable-background="new 0 0 970 250" xml:space="preserve">
<g>
	<path fill="#BA9544" d="M394.11,117.29c5.23,0,7.92,3.13,7.92,8.6v1.08h-5.08v-1.42c0-2.44-0.98-3.37-2.69-3.37
		s-2.69,0.93-2.69,3.37c0,7.04,10.51,8.36,10.51,18.13c0,5.47-2.74,8.6-8.02,8.6c-5.28,0-8.02-3.13-8.02-8.6v-2.1h5.08v2.44
		c0,2.44,1.08,3.32,2.79,3.32c1.71,0,2.79-0.88,2.79-3.32c0-7.04-10.51-8.36-10.51-18.13C386.19,120.42,388.88,117.29,394.11,117.29
		z"/>
	<path fill="#BA9544" d="M415.71,132.1h7.38v4.89h-7.38V147H425v4.89h-14.66v-34.21H425v4.89h-9.29V132.1z"/>
	<path fill="#BA9544" d="M438.29,127.11v24.78h-4.84v-34.21h6.74l5.52,20.48v-20.48h4.79v34.21h-5.52L438.29,127.11z"/>
	<path fill="#BA9544" d="M466.78,117.29c5.23,0,7.92,3.13,7.92,8.6v1.08h-5.08v-1.42c0-2.44-0.98-3.37-2.69-3.37
		s-2.69,0.93-2.69,3.37c0,7.04,10.51,8.36,10.51,18.13c0,5.47-2.74,8.6-8.02,8.6c-5.28,0-8.02-3.13-8.02-8.6v-2.1h5.08v2.44
		c0,2.44,1.08,3.32,2.79,3.32c1.71,0,2.79-0.88,2.79-3.32c0-7.04-10.51-8.36-10.51-18.13C458.86,120.42,461.55,117.29,466.78,117.29
		z"/>
	<path fill="#BA9544" d="M483.01,117.68h5.38v34.21h-5.38V117.68z"/>
	<path fill="#BA9544" d="M517.46,117.29c5.23,0,7.92,3.13,7.92,8.6v1.08h-5.08v-1.42c0-2.44-0.98-3.37-2.69-3.37
		s-2.69,0.93-2.69,3.37c0,7.04,10.51,8.36,10.51,18.13c0,5.47-2.74,8.6-8.01,8.6s-8.02-3.13-8.02-8.6v-2.1h5.08v2.44
		c0,2.44,1.08,3.32,2.79,3.32c1.71,0,2.79-0.88,2.79-3.32c0-7.04-10.51-8.36-10.51-18.13C509.54,120.42,512.23,117.29,517.46,117.29
		z"/>
	<path fill="#BA9544" d="M532.12,117.68h16.62v4.89h-5.62v29.32h-5.38v-29.32h-5.62V117.68z"/>
	<path fill="#BA9544" d="M573.66,151.89h-5.43l-0.93-6.21h-6.6l-0.93,6.21h-4.94l5.47-34.21h7.87L573.66,151.89z M561.4,141.04h5.18
		l-2.59-17.3L561.4,141.04z"/>
	<path fill="#BA9544" d="M592.58,151.89c-0.29-0.88-0.49-1.42-0.49-4.2v-5.38c0-3.18-1.08-4.35-3.52-4.35h-1.86v13.93h-5.38v-34.21
		h8.11c5.57,0,7.97,2.59,7.97,7.87v2.69c0,3.52-1.12,5.82-3.52,6.94c2.69,1.12,3.57,3.71,3.57,7.28v5.28c0,1.66,0.05,2.88,0.59,4.15
		H592.58z M586.71,122.57v10.51h2.1c2,0,3.23-0.88,3.23-3.62v-3.37c0-2.44-0.83-3.52-2.74-3.52H586.71z"/>
</g>
<g>
</g>
<g>
</g>
<g>
</g>
<g>
</g>
<g>
</g>
<g>
</g>
<g>
</g>
<g>
</g>
<g>
</g>
<g>
</g>
<g>
</g>
<g>
</g>
<g>
</g>
<g>
</g>
<g>
</g>
</svg>
