<svg id="Layer_1" data-name="Layer 1" xmlns="http://www.w3.org/2000/svg" xmlns:xlink="http://www.w3.org/1999/xlink" width="970" height="250" viewBox="0 0 970 250"><defs><style>.cls-1{fill:url(#linear-gradient);}.cls-2{fill:url(#linear-gradient-2);}.cls-3{fill:url(#linear-gradient-3);}.cls-4{fill:#fff;}</style><linearGradient id="linear-gradient" x1="500.68236" y1="197.29674" x2="500.68236" y2="230.66132" gradientUnits="userSpaceOnUse"><stop offset="0" stop-color="#ceb467"/><stop offset="1" stop-color="#997f2f"/></linearGradient><linearGradient id="linear-gradient-2" x1="428.22532" y1="197.24718" x2="428.22532" y2="230.71088" xlink:href="#linear-gradient"/><linearGradient id="linear-gradient-3" x1="420.01063" y1="213.0675" x2="493.50875" y2="213.72082" gradientUnits="userSpaceOnUse"><stop offset="0" stop-color="#ad8f35"/><stop offset="0.1878" stop-color="#ceb467"/><stop offset="0.46098" stop-color="#a58f4b"/><stop offset="0.76341" stop-color="#ceb467"/><stop offset="1" stop-color="#997f2f"/></linearGradient></defs><title>link</title><path class="cls-1" d="M550.54761,230.66132H441.7451l9.44976-16.682-9.44976-16.68259H550.54761l9.072,16.68259ZM443.869,229.42351h105.9425l8.39872-15.44418-8.39872-15.44478H443.869l8.74866,15.44478Z"/><path class="cls-2" d="M438.08063,230.71088l-19.87623-.09912-9.02185-16.72732L418.37,197.24718l19.87623.09912,9.02185,16.72732Zm-19.13524-1.3333,18.40634.09187,8.50569-15.40308-8.35217-15.48589-18.40634-.09187-8.50569,15.40308Z"/><path class="cls-3" d="M434.74753,218.14181l.19926-.06533a2.23938,2.23938,0,0,0-.422.13034l-2.08686.86973,1.26286-.94095-.00964.00164-.02874-.21706-.22948-.3786a7.56051,7.56051,0,0,0,1.71953-1.77506l-1.68719.80766,1.719-1.43175a2.84057,2.84057,0,0,0,.54585-.59173c.22163-.33516.42743-.67847.61526-1.02588l-.53294.52625.63877-1.38961a18.3521,18.3521,0,0,0,.945-2.61293,22.26926,22.26926,0,0,0-2.53242,1.63165l-1.25061.94781.39885-.62148c-.32356.27505-.63633.56545-.9349.86778a2.74909,2.74909,0,0,0-.46043.64514l-.91333,1.74942.32454-1.59687a7.55308,7.55308,0,0,0-.72372.86565l-.15908.22213-.146-.10029a.36951.36951,0,0,0-.02254.03806l-1.25469,2.37921.73988-2.586a8.20787,8.20787,0,0,0,.24549-3.24535l-.864,1.60585.41844-1.93169a3.14636,3.14636,0,0,0,.06534-.964,15.58141,15.58141,0,0,0-.33189-1.95l-.114.94829-.375-1.38243a23.51033,23.51033,0,0,0-1.281-3.467,23.506,23.506,0,0,0-1.28082,3.467l-.37517,1.38243-.11384-.94829a15.54855,15.54855,0,0,0-.33189,1.95,3.14359,3.14359,0,0,0,.06534.96412l.418,1.93219-.86352-1.60618a8.20624,8.20624,0,0,0,.24533,3.245l.74,2.58615-1.25469-2.37937a.39883.39883,0,0,0-.02271-.03806l-.14586.10029-.15924-.22213a7.548,7.548,0,0,0-.72355-.86565l.32454,1.59687-.9135-1.74942a2.74742,2.74742,0,0,0-.46026-.64514c-.29791-.30184-.61052-.59175-.93359-.86663l.39983.62212-1.25307-.9496a22.25419,22.25419,0,0,0-2.53241-1.63165,18.33392,18.33392,0,0,0,.94518,2.61293l.63878,1.38961-.53294-.52625c.18767.34741.39363.69072.61526,1.02588a2.83489,2.83489,0,0,0,.54569.59173l1.7192,1.43175-1.68719-.80766a7.55735,7.55735,0,0,0,1.71953,1.77506l-.22948.3786-.02874.21706-.0098-.00164,1.263.94095-2.087-.86973a2.23346,2.23346,0,0,0-.42187-.13034l.1991.06533-1.78878-.00408a15.36673,15.36673,0,0,0-1.70483.10322,14.03772,14.03772,0,0,0,1.45755.80114l1.57384.73841-.181-.02189a2.35121,2.35121,0,0,0,.399.051l2.38494.10584-1.62725.31a5.857,5.857,0,0,0,1.17531.12918l1.72606.01128-1.00937.32763,1.55081.2695-2.3882.1434q-.05707.00342-.11171.01029l-1.09562.53588c-.28109.13736-.5434.28665-.78561.43609.30052.0232.62424.03757.952.03152l1.24849-.02221c.034-.01208.06811-.02564.10225-.04034l2.06579-.89929-1.04221.80357a3.61668,3.61668,0,0,0,.409-.17492s.16267.09376.1937.11989a.77856.77856,0,0,0,.08755-.01911,3.68854,3.68854,0,0,0,.90517-.52854,3.80879,3.80879,0,0,1,1.01492-.57916,2.53083,2.53083,0,0,1,.35541-.06631.971.971,0,0,1-.46794-.29187c-.226-.22588-.31228-.53082-.09456-.59518.21755-.06435.61248.30494.63812.30494a.47068.47068,0,0,0,.13181-.304c0-.13034-.09327-.384-.11057-.53719a2.56411,2.56411,0,0,0-.09294-.44459c-.034-.10109-.26982-.145-.39656-.2231a2.07664,2.07664,0,0,1-.31964-.22131,1.01068,1.01068,0,0,1-.13589-.4637,1.82893,1.82893,0,0,0-.07627-.47218c-.0441-.08264-.15746-.141-.23422-.21772a.33.33,0,0,1-.07889-.20286c.05881-.01845.07726.13312.14521.146s.0632.06892.16986.10567c.10649.03658.11008.08721.1238.18635s.13328.43446.17281.57117c.03935.13687.08067.23977.21575.24434.13491.00457.11662.07448.27554.06157a.88782.88782,0,0,1,.38105.0735c.08541.03022.19289.033.22963-.02662.03676-.05978-.02564-.30037-.02564-.30037-.05521,0-.06452-.0743-.08558-.14323s.01307-.07432.01307-.07432a.291.291,0,1,1,.55449,0s.034.0054.01291.07432c-.02123.06893-.03021.14323-.08542.14323,0,0-.06239.24059-.02581.30037.03692.05962.14422.05684.2298.02662a.88679.88679,0,0,1,.381-.0735c.15876.01291.14046-.057.27538-.06157s.17639-.10747.21591-.24434c.03953-.13671.15877-.472.17264-.57117s.01748-.14977.124-.18635c.10648-.03675.10191-.09277.16985-.10567.06811-.01291.0864-.16448.1452-.146a.3295.3295,0,0,1-.079.20286c-.07661.07677-.19012.13508-.23406.21772a1.81468,1.81468,0,0,0-.07627.47218,1.01042,1.01042,0,0,1-.1359.4637,2.09254,2.09254,0,0,1-.31963.22131c-.12674.07806-.36275.122-.39673.2231a2.54958,2.54958,0,0,0-.09277.44459c-.01747.1532-.11057.40685-.11057.53719a.46986.46986,0,0,0,.13181.304c.02564,0,.42057-.36929.63812-.30494.21772.06436.13148.3693-.09456.59518a.96976.96976,0,0,1-.46794.29187,2.523,2.523,0,0,1,.35524.06631,3.80883,3.80883,0,0,1,1.01493.57916,3.69377,3.69377,0,0,0,.905.52854.80364.80364,0,0,0,.08771.01911c.031-.026.19387-.11989.19387-.11989a3.6159,3.6159,0,0,0,.409.17492l-1.04221-.80357,2.06563.89929c.03414.0147.06827.02826.10224.04034l1.24866.02221c.32779.006.65135-.00832.952-.03152-.24221-.14944-.50469-.29873-.78577-.43609l-1.09561-.53588c-.03627-.00458-.07366-.008-.11157-.01029l-2.388-.1434,1.55179-.26966-1.0061-.32747,1.72165-.01128a5.85855,5.85855,0,0,0,1.17532-.12918l-1.62725-.31,2.38477-.10584a2.35078,2.35078,0,0,0,.39917-.051l-.18113.02189,1.57384-.73841a14.04082,14.04082,0,0,0,1.45771-.80114,15.36914,15.36914,0,0,0-1.70483-.10322Z"/><path class="cls-4" d="M459.76115,218.31185V210.426h.52572l4.94178,4.94178V210.426h1.57716v7.88582h-.57829l-4.88921-4.88921v4.88921Z"/><path class="cls-4" d="M468.241,218.31185l3.15433-7.88582h1.57717l3.14907,7.88057-1.67705.00525-.47315-1.20916h-3.57491l-.47315,1.20916Zm3.985-5.78293-1.19864,2.99661h2.36574Z"/><path class="cls-4" d="M477.51476,218.31185V210.426h.52572l3.41719,3.89034,3.42245-3.89034h.52572v7.88582h-1.57717l-.00525-4.57377-2.36575,2.6286-2.36575-2.6286v4.57377Z"/><path class="cls-4" d="M486.77709,218.31185l3.15433-7.88582h1.57717l3.14907,7.88057-1.67705.00525-.47315-1.20916h-3.57491l-.47315,1.20916Zm3.985-5.78293-1.19864,2.99661h2.36574Z"/><path class="cls-4" d="M500.31968,210.68889a3.67211,3.67211,0,0,1,1.1303.78858l-1.05145,1.05145a1.81045,1.81045,0,0,0-1.472-.63087q-.94629,0-1.20916.44687a.61514.61514,0,0,0,0,.76229,2.07787,2.07787,0,0,0,1.20916.47315,3.91424,3.91424,0,0,1,1.81374.65715,1.97414,1.97414,0,0,1,.81487,1.76117,2.022,2.022,0,0,1-.87007,1.62973,3.18624,3.18624,0,0,1-2.02665.68344,4.67033,4.67033,0,0,1-1.83477-.31543,3.97774,3.97774,0,0,1-1.26173-.84115l1.05144-1.05145a2.499,2.499,0,0,0,1.78745.736q1.05144,0,1.31168-.44686a.8324.8324,0,0,0,0-.89373q-.26024-.44686-1.31168-.552a4.24034,4.24034,0,0,1-1.73488-.5783,1.7448,1.7448,0,0,1-.78858-1.62973,1.96258,1.96258,0,0,1,.89636-1.67968,3.15718,3.15718,0,0,1,1.84265-.6335A4.39989,4.39989,0,0,1,500.31968,210.68889Z"/><path class="cls-4" d="M509.61443,210.426v1.472h-2.62861v6.4138h-1.57716v-6.4138h-2.62861v-1.472Z"/><path class="cls-4" d="M510.98131,218.31185v-7.88056l5.79344-.00526v1.472h-4.21628v1.68231H515.718v1.46676h-3.15958v1.79271h4.20577v1.472Z"/><path class="cls-4" d="M518.61916,217.04749a.76192.76192,0,0,1,.56778-.21291.79032.79032,0,0,1,.58881.21291.7221.7221,0,0,1,.21029.52835.71328.71328,0,0,1-.21029.52572.9003.9003,0,0,1-1.15659,0,.71328.71328,0,0,1-.21029-.52572A.7221.7221,0,0,1,518.61916,217.04749Z"/><path class="cls-4" d="M522.591,217.17892a3.94436,3.94436,0,0,1,2.80472-6.75289,4.26637,4.26637,0,0,1,2.89672,1.05144L527.241,212.6288a2.9076,2.9076,0,0,0-1.84528-.63086,2.24791,2.24791,0,0,0-2.36049,2.34472,2.36476,2.36476,0,0,0,.65715,1.74539,2.32769,2.32769,0,0,0,1.71385.64664,2.82592,2.82592,0,0,0,1.83477-.62561l1.05144,1.15133a4.25383,4.25383,0,0,1-2.89672,1.05144A3.83668,3.83668,0,0,1,522.591,217.17892Z"/><path class="cls-4" d="M530.93681,217.17892a4.06116,4.06116,0,1,1,2.81261,1.13293A3.82026,3.82026,0,0,1,530.93681,217.17892Zm2.81787-.33909a2.21514,2.21514,0,0,0,1.70334-.70972,2.68854,2.68854,0,0,0,0-3.52233,2.41148,2.41148,0,0,0-3.41719,0,2.68854,2.68854,0,0,0,0,3.52233A2.22749,2.22749,0,0,0,533.75468,216.83983Z"/><path class="cls-4" d="M539.08024,218.31185V210.426h.52572l3.41719,3.89034,3.42244-3.89034h.52572v7.88582h-1.57716l-.00526-4.57377-2.36574,2.6286-2.36575-2.6286v4.57377Z"/></svg>