<svg id="Content" xmlns="http://www.w3.org/2000/svg" width="320" height="480" viewBox="0 0 320 480"><defs><style>.cls-1{fill:#ba9544;}</style></defs><title>Frame1 - Durga Mata</title><path class="cls-1" d="M72.17236,343.96973h5.44532c3.44238,0,5.13232,1.90918,5.13232,5.41455v11.07861c0,3.50488-1.68994,5.41406-5.13232,5.41406H72.17236Zm3.44239,3.12988v15.648h1.94043c1.09521,0,1.75244-.56348,1.75244-2.12842v-11.3916c0-1.56494-.65723-2.12793-1.75244-2.12793Z"/><path class="cls-1" d="M91.541,343.96973v16.8999c0,1.56494.68847,2.12793,1.78369,2.12793s1.78369-.563,1.78369-2.12793v-16.8999h3.25488v16.68066c0,3.50537-1.75244,5.5083-5.13232,5.5083s-5.13282-2.00293-5.13282-5.5083V343.96973Z"/><path class="cls-1" d="M111.22217,365.877a6.74338,6.74338,0,0,1-.313-2.6914v-3.44239c0-2.03418-.68848-2.78564-2.25293-2.78564H107.4668V365.877h-3.44239V343.96973h5.19483c3.56787,0,5.10156,1.65869,5.10156,5.03857V350.73c0,2.25293-.72021,3.72412-2.25342,4.44385,1.72119.71972,2.28467,2.37842,2.28467,4.66308v3.37989a6.45156,6.45156,0,0,0,.37549,2.66015Zm-3.75537-18.77734v6.72851h1.3457c1.2832,0,2.06543-.56347,2.06543-2.31591V349.353c0-1.56494-.53174-2.25342-1.75244-2.25342Z"/><path class="cls-1" d="M125.083,353.67139h4.81982v6.94775c0,3.50537-1.75293,5.5083-5.13281,5.5083s-5.13232-2.00293-5.13232-5.5083v-11.3916c0-3.50488,1.75244-5.50781,5.13232-5.50781s5.13281,2.00293,5.13281,5.50781V351.356H126.648V349.0083c0-1.56445-.68848-2.15918-1.78369-2.15918-1.09571,0-1.78418.59473-1.78418,2.15918v11.83008c0,1.56494.68847,2.12793,1.78418,2.12793,1.09521,0,1.78369-.563,1.78369-2.12793v-4.03711H125.083Z"/><path class="cls-1" d="M146.58008,365.877h-3.47363l-.59473-3.97461h-4.2251l-.59424,3.97461h-3.16113l3.50537-21.90722h5.03858Zm-7.855-6.94775h3.31738l-1.65869-11.07861Z"/><path class="cls-1" d="M166.94873,359.52393l2.34717-15.5542H174.084V365.877H170.8291V350.1665L168.45068,365.877H165.1958l-2.56592-15.49121V365.877h-3.00439V343.96973h4.78808Z"/><path class="cls-1" d="M191.042,365.877h-3.47363l-.59473-3.97461h-4.22509l-.59424,3.97461h-3.16114l3.50538-21.90722h5.03857Zm-7.855-6.94775h3.31738l-1.65869-11.07861Z"/><path class="cls-1" d="M194.95117,343.96973H205.5918v3.12988h-3.59912V365.877h-3.44239V347.09961h-3.59912Z"/><path class="cls-1" d="M221.54883,365.877H218.0752l-.59473-3.97461h-4.2251l-.59424,3.97461H209.5l3.50537-21.90722H218.044Zm-7.855-6.94775h3.31738l-1.65869-11.07861Z"/><path class="cls-1" d="M239.66406,346.84912c-1.09521,0-1.78418.59473-1.78418,2.15918V351.356h-3.25439v-2.12842c0-3.50488,1.75244-5.50781,5.13232-5.50781s5.13281,2.00293,5.13281,5.50781c0,6.88525-6.854,9.45117-6.854,13.05029a2.375,2.375,0,0,0,.03125.46973h6.50977V365.877h-9.95215v-2.6914c0-6.44678,6.82226-7.51123,6.82226-13.83252C241.44775,347.38135,240.75928,346.84912,239.66406,346.84912Z"/></svg>