<svg id="Content" xmlns="http://www.w3.org/2000/svg" width="300" height="600" viewBox="0 0 300 600"><defs><style>.cls-1{fill:#ba9544;}</style></defs><title>Frame1 - Shishkaberry</title><path class="cls-1" d="M63.09766,255.36832c5.52832,0,8.36963,3.30664,8.36963,9.09278v1.13671H66.09424v-1.498c0-2.584-1.0332-3.56446-2.8418-3.56446-1.8081,0-2.8418.98047-2.8418,3.56446,0,7.43945,11.1084,8.835,11.1084,19.168,0,5.78711-2.89306,9.09375-8.47314,9.09375s-8.47315-3.30664-8.47315-9.09375V281.047h5.373v2.582c0,2.584,1.13672,3.51368,2.94531,3.51368,1.80811,0,2.94483-.92969,2.94483-3.51368,0-7.43945-11.1084-8.834-11.1084-19.168C54.72754,258.675,57.56934,255.36832,63.09766,255.36832Z"/><path class="cls-1" d="M85.93262,291.94742H80.24951v-36.166h5.68311v15.5h6.458v-15.5h5.78663v36.166H92.39062v-15.5h-6.458Z"/><path class="cls-1" d="M107.78467,255.78141h5.68359v36.166h-5.68359Z"/><path class="cls-1" d="M130.72363,255.36832c5.52832,0,8.36963,3.30664,8.36963,9.09278v1.13671h-5.373v-1.498c0-2.584-1.0332-3.56446-2.84179-3.56446-1.80811,0-2.8418.98047-2.8418,3.56446,0,7.43945,11.1084,8.835,11.1084,19.168,0,5.78711-2.89307,9.09375-8.47314,9.09375s-8.47315-3.30664-8.47315-9.09375V281.047h5.37305v2.582c0,2.584,1.13672,3.51368,2.94531,3.51368,1.80811,0,2.94482-.92969,2.94482-3.51368,0-7.43945-11.10839-8.834-11.10839-19.168C122.35352,258.675,125.19531,255.36832,130.72363,255.36832Z"/><path class="cls-1" d="M153.55762,291.94742h-5.68311v-36.166h5.68311v15.5h6.458v-15.5h5.78711v36.166h-5.78711v-15.5h-6.458Z"/><path class="cls-1" d="M182.85059,277.53336,181.09375,280.84v11.10742h-5.68359v-36.166h5.68359v15.75781l7.44043-15.75781h5.68262l-7.9043,16.12012,7.9043,20.04589h-5.83789Z"/><path class="cls-1" d="M220.669,291.94742h-5.73536l-.98144-6.56054h-6.97559l-.98144,6.56054h-5.21778l5.78614-36.166h8.31836ZM207.7002,280.47867h5.47656l-2.73828-18.291Z"/><path class="cls-1" d="M228.51953,271.28141h10.334v5.166h-10.334Z"/><path class="cls-1" d="M104.14355,314.09977v1.291c0,3.72071-1.13671,6.09766-3.66845,7.28516,3.04834,1.18945,4.23681,3.92773,4.23681,7.75v2.94531c0,5.58008-2.94531,8.57617-8.62841,8.57617H87.145v-36.166h8.57666C101.61182,305.78141,104.14355,308.51969,104.14355,314.09977ZM92.82861,310.9484V320.506h2.22168c2.11817,0,3.40967-.92969,3.40967-3.82227v-2.01562c0-2.584-.87793-3.71973-2.89307-3.71973Zm0,14.72461v11.1084H96.0835c1.91162,0,2.94482-.87891,2.94482-3.56445v-3.15235c0-3.3584-1.085-4.3916-3.668-4.3916Z"/><path class="cls-1" d="M119.28027,321.0236H127.082v5.166h-7.80176v10.5918h9.81641v5.166H113.59717v-36.166h15.49951v5.167h-9.81641Z"/><path class="cls-1" d="M149.96826,341.94742c-.30957-.92968-.5166-1.498-.5166-4.44336v-5.68261c0-3.3584-1.13672-4.59864-3.71973-4.59864h-1.96338v14.72461h-5.6831v-36.166h8.57617c5.89014,0,8.42139,2.73828,8.42139,8.31836v2.84179c0,3.71973-1.18848,6.14844-3.71973,7.33594,2.8418,1.18946,3.77149,3.92774,3.77149,7.69922v5.58008a10.646,10.646,0,0,0,.62011,4.39062Zm-6.19971-30.999v11.1084h2.22168c2.11817,0,3.40967-.92969,3.40967-3.82422v-3.56445c0-2.584-.87793-3.71973-2.89306-3.71973Z"/><path class="cls-1" d="M176.21289,341.94742c-.30957-.92968-.5166-1.498-.5166-4.44336v-5.68261c0-3.3584-1.13672-4.59864-3.71973-4.59864h-1.96289v14.72461h-5.68359v-36.166h8.57617c5.89063,0,8.42187,2.73828,8.42187,8.31836v2.84179c0,3.71973-1.18847,6.14844-3.71972,7.33594,2.8418,1.18946,3.77148,3.92774,3.77148,7.69922v5.58008A10.646,10.646,0,0,0,182,341.94742Zm-6.19922-30.999v11.1084h2.22168c2.11817,0,3.40918-.92969,3.40918-3.82422v-3.56445c0-2.584-.87793-3.71973-2.89258-3.71973Z"/><path class="cls-1" d="M195.89648,329.9611l-7.18164-24.17969h5.94141l4.33984,16.48144,4.33985-16.48144h5.4248l-7.18066,24.17969v11.98632h-5.6836Z"/></svg>