<svg id="Content" xmlns="http://www.w3.org/2000/svg" width="300" height="600" viewBox="0 0 300 600"><defs><style>.cls-1{fill:#ba9544;}.cls-2{fill:none;}</style></defs><title>Frame1 - Durga Mata</title><path class="cls-1" d="M63.17236,368.81609h5.44532c3.44238,0,5.13232,1.90918,5.13232,5.41406v11.0791c0,3.50489-1.68994,5.41407-5.13232,5.41407H63.17236Zm3.44239,3.12988v15.64746h1.94043c1.09521,0,1.75244-.56347,1.75244-2.12793V374.0739c0-1.56543-.65723-2.12793-1.75244-2.12793Z"/><path class="cls-1" d="M82.541,368.81609V385.7155c0,1.56543.68847,2.12793,1.78369,2.12793s1.78369-.5625,1.78369-2.12793V368.81609h3.25488v16.68066c0,3.50489-1.75244,5.50782-5.13232,5.50782s-5.13282-2.00293-5.13282-5.50782V368.81609Z"/><path class="cls-1" d="M102.22217,390.72332a6.74527,6.74527,0,0,1-.313-2.69141v-3.44238c0-2.03418-.68848-2.78613-2.25293-2.78613H98.4668v8.91992H95.02441V368.81609h5.19483c3.56787,0,5.10156,1.6582,5.10156,5.03809v1.72168c0,2.25293-.72021,3.72461-2.25342,4.44433,1.72119.71973,2.28467,2.37793,2.28467,4.66309v3.37988a6.45285,6.45285,0,0,0,.37549,2.66016ZM98.4668,371.946v6.72852h1.3457c1.2832,0,2.06543-.56348,2.06543-2.31641V374.1989c0-1.56445-.53174-2.25293-1.75244-2.25293Z"/><path class="cls-1" d="M116.083,378.51726h4.81982v6.94824c0,3.50489-1.75293,5.50782-5.13281,5.50782s-5.13232-2.00293-5.13232-5.50782V374.0739c0-3.50488,1.75244-5.50781,5.13232-5.50781s5.13281,2.00293,5.13281,5.50781v2.12793H117.648v-2.34765c0-1.56446-.68848-2.15918-1.78369-2.15918-1.09571,0-1.78418.59472-1.78418,2.15918v11.83007c0,1.56543.68847,2.12793,1.78418,2.12793,1.09521,0,1.78369-.5625,1.78369-2.12793v-4.0371H116.083Z"/><path class="cls-1" d="M137.58008,390.72332h-3.47363l-.59473-3.97461h-4.2251l-.59424,3.97461h-3.16113l3.50537-21.90723h5.03858Zm-7.855-6.94824h3.31738L131.38379,372.697Z"/><path class="cls-1" d="M157.94922,384.3698l2.34668-15.55371H165.084v21.90723H161.8291V375.01238l-2.37793,15.71094h-3.25586l-2.56543-15.49121v15.49121h-3.00439V368.81609h4.78857Z"/><path class="cls-1" d="M182.042,390.72332h-3.47363l-.59473-3.97461h-4.22558l-.59375,3.97461h-3.16114l3.50489-21.90723h5.03906Zm-7.85449-6.94824h3.31641L175.8457,372.697Z"/><path class="cls-1" d="M185.95117,368.81609H196.5918V371.946h-3.59961v18.77735h-3.44141V371.946h-3.59961Z"/><path class="cls-1" d="M212.54883,390.72332H209.0752l-.59473-3.97461h-4.22461l-.59473,3.97461H200.5l3.50586-21.90723H209.044Zm-7.85547-6.94824h3.31836L206.35254,372.697Z"/><path class="cls-1" d="M230.66406,371.695c-1.0957,0-1.78418.59472-1.78418,2.15918v2.34765H225.625V374.0739c0-3.50488,1.75293-5.50781,5.13281-5.50781s5.13281,2.00293,5.13281,5.50781c0,6.88477-6.85351,9.45118-6.85351,13.04981a2.37007,2.37007,0,0,0,.03125.46972h6.50976v3.12989H225.625v-2.69141c0-6.44726,6.82227-7.51172,6.82227-13.833C232.44727,372.22722,231.75977,371.695,230.66406,371.695Z"/><rect class="cls-2" x="209.8702" y="359.09613" width="112.81412" height="98.37391"/></svg>