<svg id="Content" xmlns="http://www.w3.org/2000/svg" xmlns:xlink="http://www.w3.org/1999/xlink" width="727.99955" height="90" viewBox="0 0 727.99955 90"><defs><style>.cls-1{fill:url(#New_Gradient_Swatch_1);}.cls-2{fill:url(#linear-gradient);}.cls-3{fill:url(#linear-gradient-2);}.cls-4{fill:url(#linear-gradient-3);}.cls-5{fill:url(#linear-gradient-4);}.cls-6{fill:url(#linear-gradient-5);}.cls-7{fill:url(#linear-gradient-6);}.cls-8{fill:url(#linear-gradient-7);}.cls-9{fill:url(#New_Gradient_Swatch_2);}.cls-10{fill:#a89255;}.cls-11{fill:url(#New_Gradient_Swatch_2-2);}.cls-12{font-size:9.66989px;fill:#fff;font-family:nevis-Bold, nevis;font-weight:700;}</style><linearGradient id="New_Gradient_Swatch_1" x1="93.21768" y1="34.74793" x2="146.07316" y2="34.74793" gradientUnits="userSpaceOnUse"><stop offset="0" stop-color="#a88a34"/><stop offset="0.49324" stop-color="#caaf67"/><stop offset="1" stop-color="#957f2e"/></linearGradient><linearGradient id="linear-gradient" x1="146.87503" y1="148.86959" x2="146.87503" y2="60.21628" gradientUnits="userSpaceOnUse"><stop offset="0" stop-color="#a88a34"/><stop offset="0.49894" stop-color="#caaf67"/><stop offset="1" stop-color="#957f2e"/></linearGradient><linearGradient id="linear-gradient-2" x1="122.31763" y1="102.71724" x2="122.31763" y2="37.25822" xlink:href="#linear-gradient"/><linearGradient id="linear-gradient-3" x1="130.63539" y1="125.16831" x2="130.63539" y2="39.02444" xlink:href="#linear-gradient"/><linearGradient id="linear-gradient-4" x1="138.73233" y1="127.13084" x2="138.73233" y2="51.72707" xlink:href="#linear-gradient"/><linearGradient id="linear-gradient-5" x1="93.09827" y1="74.26828" x2="93.09827" y2="1.41304" xlink:href="#linear-gradient"/><linearGradient id="linear-gradient-6" x1="112.45463" y1="92.67361" x2="112.45463" y2="27.596" xlink:href="#linear-gradient"/><linearGradient id="linear-gradient-7" x1="102.56848" y1="82.95486" x2="102.56848" y2="17.49606" xlink:href="#linear-gradient"/><linearGradient id="New_Gradient_Swatch_2" x1="150.37919" y1="60.03614" x2="154.02039" y2="60.03614" gradientUnits="userSpaceOnUse"><stop offset="0" stop-color="#a88a34"/><stop offset="0.1878" stop-color="#caaf67"/><stop offset="0.46098" stop-color="#a08a4a"/><stop offset="0.76341" stop-color="#caaf67"/><stop offset="1" stop-color="#957f2e"/></linearGradient><linearGradient id="New_Gradient_Swatch_2-2" x1="608.35316" y1="55.834" x2="784.68097" y2="30.91401" xlink:href="#New_Gradient_Swatch_2"/></defs><title>CTA</title><path class="cls-1" d="M116.43229,52.46212c.57441-.16941,1.61634.80456,1.684.80456a1.24291,1.24291,0,0,0,.34735-.80213c0-.34388-.24544-1.01275-.29146-1.41754a6.74186,6.74186,0,0,0-.24482-1.17272c-.08962-.26651-.71247-.38267-1.04669-.58891a5.4582,5.4582,0,0,1-.84334-.58385,2.66764,2.66764,0,0,1-.35856-1.22354,4.80988,4.80988,0,0,0-.20118-1.24549c-.11637-.21807-.41552-.37214-.61783-.57445a.8698.8698,0,0,1-.20841-.53541c.15516-.04844.2036.35132.38288.38531s.16719.18166.44817.27855c.28118.09685.29084.23031.3272.492s.35133,1.146.45545,1.50694c.10433.36119.21322.63272.5696.64475.35612.01208.30768.19617.72672.16244a2.34628,2.34628,0,0,1,1.00573.19369c.2253.08.5089.08724.60575-.07009.09689-.15759-.06792-.79252-.06792-.79252-.1453,0-.16966-.19612-.2253-.37782-.05568-.18191.03394-.19637.03394-.19637a.76792.76792,0,1,1,1.4636,0s.08962.01446.03394.19637c-.05588.1817-.08.37782-.22551.37782,0,0-.1646.63493-.06771.79252.09685.15733.38046.1501.60575.07009a2.346,2.346,0,0,1,1.00553-.19369c.41924.03373.3708-.15036.72693-.16244.35638-.012.46531-.28356.56939-.64475.10433-.361.41924-1.24528.45565-1.50694s.046-.39517.3272-.492c.281-.09689.2689-.24457.44817-.27855s.22793-.43375.38288-.38531a.87125.87125,0,0,1-.20841.53541c-.2023.20231-.50146.35638-.61783.57445A4.81031,4.81031,0,0,0,123.612,47.478a2.66778,2.66778,0,0,1-.35855,1.22354,5.46117,5.46117,0,0,1-.84334.58385c-.33444.20624-.95708.3224-1.0467.58891a6.715,6.715,0,0,0-.24482,1.17272c-.046.40479-.29146,1.07366-.29146,1.41754a1.243,1.243,0,0,0,.34735.80213c.06771,0,1.10985-.974,1.684-.80456.57419.16988.34647.97418-.24963,1.57007a2.553,2.553,0,0,1-1.235.77015,6.6878,6.6878,0,0,1,.9376.1753,10.03713,10.03713,0,0,1,2.67812,1.52822,9.73025,9.73025,0,0,0,2.388,1.3943,2.03688,2.03688,0,0,0,.231.05066c.082-.06863.5115-.3165.5115-.3165a9.60884,9.60884,0,0,0,1.07917.46179l-2.74984-2.12039,5.45078,2.37286c.08962.03879.1797.07453.26935.10651l3.29462.05872c.86482.0158,1.71891-.02211,2.5118-.08347-.639-.39429-1.33118-.78791-2.073-1.15061l-2.8907-1.4136c-.09623-.01225-.19462-.02149-.29456-.02738l-6.30111-.37849,4.09436-.71164-2.65425-.8639,4.54253-.0298a15.42106,15.42106,0,0,0,3.10117-.341L131.207,52.6962l6.29212-.27943a6.17477,6.17477,0,0,0,1.0533-.13434l-.47777.05785,4.15267-1.94835a37.10774,37.10774,0,0,0,3.84582-2.114,40.58076,40.58076,0,0,0-4.49826-.27241l-4.71984.01074.52575-.172a5.91266,5.91266,0,0,0-1.11379.34363l-5.50621,2.29486L134.093,48l-.02541.00418-.07608-.57249-.60554-.9987a19.95194,19.95194,0,0,0,4.5371-4.6839l-4.45183,2.13134,4.536-3.77789a7.471,7.471,0,0,0,1.44031-1.56154c.58494-.88409,1.128-1.78988,1.62336-2.70687l-1.406,1.3884,1.68535-3.66613a48.41667,48.41667,0,0,0,2.49361-6.89436,58.68827,58.68827,0,0,0-6.68219,4.3052l-3.29971,2.50063,1.05242-1.64c-.85362.72589-1.679,1.49207-2.46666,2.29a7.23022,7.23022,0,0,0-1.21456,1.702l-2.41014,4.616.856-4.21316a19.92011,19.92011,0,0,0-1.90935,2.28366l-.42012.586-.38505-.2643a1.09972,1.09972,0,0,0-.05961.10015L123.59451,45.206l1.95227-6.82314a21.65923,21.65923,0,0,0,.6476-8.56265L123.91469,34.057l1.10412-5.09683a8.29715,8.29715,0,0,0,.17247-2.54335,41.06221,41.06221,0,0,0-.876-5.14524l-.30045,2.50169-.98972-3.64724a62.05862,62.05862,0,0,0-3.37968-9.14759,61.99714,61.99714,0,0,0-3.37972,9.14759l-.98951,3.64724-.30066-2.50169a41.10057,41.10057,0,0,0-.876,5.14524,8.3021,8.3021,0,0,0,.17247,2.54356l1.10283,5.09838-2.27839-4.23794a21.65577,21.65577,0,0,0,.64759,8.562l1.95253,6.82356-3.31067-6.27808a1.05363,1.05363,0,0,0-.0596-.10015l-.38506.2643-.42012-.586a19.92168,19.92168,0,0,0-1.90935-2.28366l.85626,4.21316-2.41035-4.616a7.2347,7.2347,0,0,0-1.21435-1.702c-.78612-.79644-1.6104-1.56153-2.46315-2.2865L105.435,33.4727l-3.30582-2.50544a58.65943,58.65943,0,0,0-6.68219-4.3052,48.40822,48.40822,0,0,0,2.49357,6.89436L99.626,37.22255l-1.406-1.3884c.49532.917,1.03863,1.82278,1.62357,2.70687a7.4639,7.4639,0,0,0,1.4401,1.56154l4.536,3.77789-4.45182-2.13134a19.94675,19.94675,0,0,0,4.53709,4.6839l-.60554.9987-.07608.57249L105.19767,48l3.33257,2.48287-5.50642-2.29507a5.948,5.948,0,0,0-1.11332-.34363l.52554.172-4.7201-.01074a40.58393,40.58393,0,0,0-4.49826.27241,37.10774,37.10774,0,0,0,3.84582,2.114l4.15267,1.94814-.47756-.05785a6.14813,6.14813,0,0,0,1.05309.13455l6.29208.27943-4.29332.81768a15.42224,15.42224,0,0,0,3.10112.341l4.55457.0298-2.66345.86436,4.09194.71118-6.30127.37849q-.1503.00883-.29481.02738l-2.89117,1.4136c-.7414.3627-1.43351.75632-2.07257,1.15061.79314.06136,1.647.099,2.51179.08347l3.29466-.05872c.08962-.032.17969-.06772.26956-.10651l5.45054-2.37286-2.74985,2.12039a9.60884,9.60884,0,0,0,1.07917-.46179s.42911.24745.51108.31625a2.0101,2.0101,0,0,0,.23119-.05041,9.72658,9.72658,0,0,0,2.38824-1.3943,10.03835,10.03835,0,0,1,2.67812-1.52822,6.68668,6.68668,0,0,1,.9376-.1753,2.553,2.553,0,0,1-1.235-.77015C116.08582,53.4363,115.85789,52.632,116.43229,52.46212Z"/><polygon class="cls-2" points="150.035 63.601 150.035 61.995 143.715 62.001 143.715 70.597 150.023 70.597 150.023 68.991 145.436 68.991 145.436 67.036 148.882 67.036 148.882 65.436 145.436 65.436 145.436 63.601 150.035 63.601"/><path class="cls-3" d="M121.46036,61.99531l-3.44057,8.60138h1.83478l.51613-1.31887H124.27l.51613,1.31887,1.82932-.00587-3.43469-8.59551Zm-.40128,5.5623,1.30752-3.26877,1.27287,3.26877Z"/><path class="cls-4" d="M133.01517,66.15265a4.26535,4.26535,0,0,0-1.97835-.71665,2.26747,2.26747,0,0,1-1.31893-.51633.67114.67114,0,0,1,0-.83153q.287-.48714,1.31893-.48717a1.97532,1.97532,0,0,1,1.6058.688l1.14662-1.1469a4.01278,4.01278,0,0,0-1.23276-.86018,4.80053,4.80053,0,0,0-1.85806-.28667,3.44292,3.44292,0,0,0-2.00972.691,2.14025,2.14025,0,0,0-.97769,1.83219,1.90328,1.90328,0,0,0,.86,1.77762,4.62218,4.62218,0,0,0,1.89243.63075q1.14665.11475,1.43068.602a.90873.90873,0,0,1,0,.975q-.28373.48718-1.43068.48717a2.72416,2.72416,0,0,1-1.94967-.80274l-1.1471,1.14705a4.34046,4.34046,0,0,0,1.37633.91744,5.09378,5.09378,0,0,0,2.00138.34385,3.47357,3.47357,0,0,0,2.21048-.74536,2.20477,2.20477,0,0,0,.94918-1.7776A2.153,2.153,0,0,0,133.01517,66.15265Z"/><polygon class="cls-5" points="135.005 63.601 137.872 63.601 137.872 70.597 139.592 70.597 139.592 63.601 142.46 63.601 142.46 61.995 135.005 61.995 135.005 63.601"/><polygon class="cls-6" points="95.22 67.385 89.83 61.995 89.256 61.995 89.256 70.597 90.976 70.597 90.976 65.264 96.31 70.597 96.94 70.597 96.94 61.995 95.22 61.995 95.22 67.385"/><polygon class="cls-7" points="112.452 66.238 108.724 61.995 108.151 61.995 108.151 70.597 109.871 70.597 109.871 65.608 112.452 68.475 115.032 65.608 115.038 70.597 116.758 70.597 116.758 61.995 116.185 61.995 112.452 66.238"/><path class="cls-8" d="M101.71125,61.99531l-3.44063,8.60138h1.83483l.51613-1.31887h3.89932l.51636,1.31887,1.82907-.00587-3.4349-8.59551Zm-.40129,5.5623,1.30727-3.26877,1.27292,3.26877Z"/><path class="cls-9" d="M151.27018,59.39481v1.56131h-.31013V59.39481h-.58086v-.27866h1.47442v.27866Zm2.46363,1.56131-.00257-1.37468-.58086,1.1827h-.20247l-.58086-1.1827v1.37468h-.29171v-1.84h.3679l.60719,1.2223.60462-1.2223h.36534v1.84Z"/><path class="cls-10" d="M103.73037,76.76483a1.21369,1.21369,0,0,1-.69525,2.25672l-2.40488-.00285V74.74747h2.26811q1.08012.06289,1.13976,1.25658A.89453.89453,0,0,1,103.73037,76.76483ZM101.48791,76.46h1.19674a.48233.48233,0,0,0,.53-.53283q-.014-.31323-.52143-.33053h-1.20529Zm0,1.892h1.3962a.55779.55779,0,0,0,.61546-.61832q-.014-.41031-.60692-.4274h-1.40474Z"/><path class="cls-10" d="M104.92711,74.74462h1.003l.99158,1.3962,1.01438-1.3962h.98019l-1.56716,2.137v2.137h-.85482v-2.137Z"/><path class="cls-10" d="M114.89425,79.0187h-3.4221l.00285-.28494,1.99171-3.19131H111.475l-.00285-.79783h3.4221v.31343L112.894,78.22087h2.00026Z"/><path class="cls-10" d="M115.96807,79.0187V74.74747l3.14-.00285v.79783h-2.28521v.9118h1.71248v.795h-1.71248v.97164h2.27951v.79783Z"/><path class="cls-10" d="M119.9686,79.0187V74.74462h.28494L122.932,77.423V74.74462h.85481V79.0187h-.31343l-2.64993-2.64993V79.0187Z"/><path class="cls-10" d="M124.44783,79.0187l1.70963-4.27408h.85481l1.70638,4.27123-.90855.00285-.25644-.65536h-1.93758l-.25645.65536Zm2.15983-3.13432-.64966,1.62414h1.28222Z"/><path class="cls-10" d="M132.39191,76.76483a1.21383,1.21383,0,0,1-.69525,2.25672l-2.40488-.00285V74.74747h2.26811q1.07951.06289,1.13975,1.25658A.89676.89676,0,0,1,132.39191,76.76483ZM130.149,76.46h1.19674a.482.482,0,0,0,.53-.53283c-.009-.20882-.18317-.31913-.521-.33053H130.149Zm0,1.892h1.3962a.55743.55743,0,0,0,.61546-.61832q-.01343-.41031-.60651-.4274H130.149Z"/><path class="cls-10" d="M133.8394,74.74177h.85155V79.0187h-.85155Z"/><path class="cls-10" d="M137.86272,74.88709a1.98373,1.98373,0,0,1,.61221.42741l-.56987.56988a.98088.98088,0,0,0-.79783-.34193q-.51288,0-.65536.2422a.33492.33492,0,0,0,0,.41316,1.12714,1.12714,0,0,0,.65536.25644,2.12054,2.12054,0,0,1,.98345.35617,1.07112,1.07112,0,0,1,.44124.95455,1.09628,1.09628,0,0,1-.47137.88331,1.72585,1.72585,0,0,1-1.09823.37042,2.53333,2.53333,0,0,1-.99484-.171,2.16562,2.16562,0,0,1-.68385-.4559l.56987-.56987a1.35494,1.35494,0,0,0,.96879.39891q.57029,0,.71072-.2422a.44949.44949,0,0,0,0-.48439q-.14043-.2424-.71072-.29919a2.29617,2.29617,0,0,1-.94029-.31343.94553.94553,0,0,1-.42741-.88331,1.06292,1.06292,0,0,1,.486-.91017,1.71044,1.71044,0,0,1,.99891-.34356A2.391,2.391,0,0,1,137.86272,74.88709Z"/><rect class="cls-10" x="89.2562" y="76.82041" width="7.68412" height="0.93565"/><rect class="cls-10" x="142.35048" y="76.82041" width="7.68412" height="0.93565"/><polygon class="cls-11" points="731 29.351 639.024 29.351 628.592 44.998 639.024 60.649 731 60.649 731 29.351"/><text class="cls-12" transform="translate(643.13552 49.17285)">LEARN MORE</text></svg>