<svg id="Layer_1" data-name="Layer 1" xmlns="http://www.w3.org/2000/svg" width="728" height="90" viewBox="0 0 728 90"><defs><style>.cls-1{fill:#ab9555;}</style></defs><title>frame1</title><path class="cls-1" d="M184.28027,54.80273a3.77519,3.77519,0,0,1-3.7915-3.77832v-8.6455a3.78517,3.78517,0,1,1,7.57031,0v1.80761h-2.477V42.3291a1.38038,1.38038,0,0,0-1.37744-1.37793,1.30685,1.30685,0,0,0-.9668.4043,1.33606,1.33606,0,0,0-.39795.97363V50.999a1.3579,1.3579,0,0,0,1.36475,1.36426,1.33914,1.33914,0,0,0,.97314-.39746,1.3068,1.3068,0,0,0,.4043-.9668V48.8125h2.477v2.21191a3.77511,3.77511,0,0,1-3.77881,3.77832Z"/><path class="cls-1" d="M194.627,50.96094l-.58056,3.63965h-2.48731l2.69238-15.83594h3.28565l2.65381,15.83594h-2.51123l-.55908-3.63965Zm1.2544-8.56934-.88428,6.24414h1.769Z"/><path class="cls-1" d="M207.01709,38.752,210.187,49.40332V38.752h2.38867V54.60059h-2.56543l-3.28613-10.14844V54.60059h-2.38867V38.752Z"/><path class="cls-1" d="M219.52832,38.752l3.16992,10.65137V38.752h2.38867V54.60059h-2.56543l-3.28613-10.14844V54.60059h-2.38867V38.752Z"/><path class="cls-1" d="M232.28662,50.96094l-.58057,3.63965h-2.4873l2.69238-15.83594h3.28565l2.65381,15.83594h-2.51123l-.55909-3.63965Zm1.2544-8.56934-.88428,6.24414h1.769Z"/><path class="cls-1" d="M241.99512,54.60059V38.752h3.57666a4.55585,4.55585,0,0,1,2.55322.7461,3.47287,3.47287,0,0,1,1.39014,1.959,5.51151,5.51151,0,0,1,.22754,1.68067,3.72118,3.72118,0,0,1-.84668,2.55273,2.39619,2.39619,0,0,1-.83448.61914,2.77633,2.77633,0,0,1,1.35254,1.20117,4.67541,4.67541,0,0,1,.54346,1.56738,6.27467,6.27467,0,0,1,.08838,1.09864,5.29166,5.29166,0,0,1-.56885,2.55371,3.41109,3.41109,0,0,1-1.251,1.31445,3.4515,3.4515,0,0,1-1.80712.55567Zm2.57861-9.37793h.998a1.46362,1.46362,0,0,0,1.4917-1.08692,3.10725,3.10725,0,0,0,.13867-.998,2.089,2.089,0,0,0-.48-1.49122,1.51226,1.51226,0,0,0-1.15039-.46777h-.998Zm0,7.01464h.998a1.69514,1.69514,0,0,0,1.68115-1.251A2.7555,2.7555,0,0,0,247.417,50a3.00226,3.00226,0,0,0-.50537-1.93359,1.63173,1.63173,0,0,0-1.33984-.55567h-.998Z"/><path class="cls-1" d="M256.6416,54.60059h-2.38867V38.76465h2.38867Z"/><path class="cls-1" d="M268.67334,50.65723a4.45033,4.45033,0,0,1-.85938,2.83105,3.09183,3.09183,0,0,1-1.64257,1.125,4.47545,4.47545,0,0,1-1.32715.17676,3.75368,3.75368,0,0,1-2.32569-.69531,3.882,3.882,0,0,1-1.21923-1.54785,6.24692,6.24692,0,0,1-.52491-2.24317l2.27491-.16406a3.45659,3.45659,0,0,0,.73339,2.00683,1.21867,1.21867,0,0,0,.98536.44434,1.48063,1.48063,0,0,0,1.25146-.77148,1.9153,1.9153,0,0,0,.24024-1.04981,2.91731,2.91731,0,0,0-.89747-1.96094q-.70824-.66944-2.123-2.01074a9.058,9.058,0,0,1-1.68115-2.0625,4.763,4.763,0,0,1-.53077-2.22558,3.87218,3.87218,0,0,1,1.45362-3.27686,3.61186,3.61186,0,0,1,2.22412-.67041,4.04148,4.04148,0,0,1,2.18652.56885,3.28245,3.28245,0,0,1,1.14356,1.23877,4.56929,4.56929,0,0,1,.52441,1.832l-2.28711.417a2.7627,2.7627,0,0,0-.55615-1.5166,1.16948,1.16948,0,0,0-.94824-.3916,1.09174,1.09174,0,0,0-.99805.582,2.23807,2.23807,0,0,0-.27832,1.16211,3.48754,3.48754,0,0,0,.93555,2.21191,7.90445,7.90445,0,0,0,1.06152,1.01074q.83423.69581,1.09961.97364a8.11549,8.11549,0,0,1,1.36474,1.74414,6.65324,6.65324,0,0,1,.3667.74511A4.33812,4.33812,0,0,1,268.67334,50.65723Z"/><path class="cls-1" d="M284.03809,47.88965v6.71094h-2.38868V38.76465h2.38868v6.72363h2.88183V38.76465h2.38867V54.60059h-2.38867V47.88965Z"/><path class="cls-1" d="M296.5083,50.96094l-.58057,3.63965h-2.4873l2.69238-15.83594h3.28565l2.65381,15.83594H299.561l-.55909-3.63965Zm1.2544-8.56934-.88428,6.24414h1.769Z"/><path class="cls-1" d="M313.396,50.65723a4.45039,4.45039,0,0,1-.85938,2.83105,3.09186,3.09186,0,0,1-1.64258,1.125,4.47536,4.47536,0,0,1-1.32715.17676,3.75367,3.75367,0,0,1-2.32568-.69531,3.88215,3.88215,0,0,1-1.21924-1.54785,6.24692,6.24692,0,0,1-.5249-2.24317l2.2749-.16406a3.45666,3.45666,0,0,0,.7334,2.00683,1.21865,1.21865,0,0,0,.98535.44434,1.48065,1.48065,0,0,0,1.25147-.77148,1.91539,1.91539,0,0,0,.24023-1.04981,2.91729,2.91729,0,0,0-.89746-1.96094q-.70826-.66944-2.12305-2.01074a9.05825,9.05825,0,0,1-1.68115-2.0625,4.76307,4.76307,0,0,1-.53076-2.22558,3.8722,3.8722,0,0,1,1.45361-3.27686,3.6119,3.6119,0,0,1,2.22412-.67041,4.04152,4.04152,0,0,1,2.18653.56885,3.28235,3.28235,0,0,1,1.14355,1.23877,4.56929,4.56929,0,0,1,.52442,1.832l-2.28711.417a2.76262,2.76262,0,0,0-.55616-1.5166,1.16945,1.16945,0,0,0-.94824-.3916,1.09171,1.09171,0,0,0-.998.582,2.23807,2.23807,0,0,0-.27832,1.16211,3.48757,3.48757,0,0,0,.93554,2.21191,7.90463,7.90463,0,0,0,1.06153,1.01074q.83423.69581,1.09961.97364a8.11549,8.11549,0,0,1,1.36474,1.74414,6.65324,6.65324,0,0,1,.3667.74511A4.33812,4.33812,0,0,1,313.396,50.65723Z"/><path class="cls-1" d="M326.01611,54.60059V38.752h3.57666a4.55586,4.55586,0,0,1,2.55323.7461,3.4729,3.4729,0,0,1,1.39013,1.959,5.5112,5.5112,0,0,1,.22754,1.68067,3.72114,3.72114,0,0,1-.84668,2.55273,2.39624,2.39624,0,0,1-.83447.61914,2.77642,2.77642,0,0,1,1.35254,1.20117,4.67563,4.67563,0,0,1,.54346,1.56738,6.27472,6.27472,0,0,1,.08837,1.09864,5.29178,5.29178,0,0,1-.56884,2.55371,3.41123,3.41123,0,0,1-1.251,1.31445,3.45151,3.45151,0,0,1-1.80713.55567Zm2.57862-9.37793h.998a1.46362,1.46362,0,0,0,1.4917-1.08692,3.107,3.107,0,0,0,.13867-.998,2.08894,2.08894,0,0,0-.48-1.49122,1.51226,1.51226,0,0,0-1.15039-.46777h-.998Zm0,7.01464h.998a1.69515,1.69515,0,0,0,1.68116-1.251A2.7555,2.7555,0,0,0,331.438,50a3.00232,3.00232,0,0,0-.50537-1.93359,1.63175,1.63175,0,0,0-1.33985-.55567h-.998Z"/><path class="cls-1" d="M338.26221,54.60059V38.752h6.7998v2.40137h-4.41113v4.32227H343.874V47.877h-3.22314v4.32227H345.062v2.40137Z"/><path class="cls-1" d="M348.83984,54.60059V38.752h6.79981v2.40137h-4.41113v4.32227h3.22314V47.877h-3.22314v4.32227h4.41113v2.40137Z"/><path class="cls-1" d="M362.09912,38.752l3.17041,10.65137V38.752h2.38867V54.60059h-2.5664l-3.28565-10.14844V54.60059h-2.38867V38.752Z"/><path class="cls-1" d="M386.54883,54.77734a3.75447,3.75447,0,0,1-3.7793-3.76562V38.76465h2.33789V50.98633a1.304,1.304,0,0,0,.40528.96679,1.335,1.335,0,0,0,.97265.39747,1.35875,1.35875,0,0,0,1.36524-1.36426V38.76465h2.48925V51.01172a3.59852,3.59852,0,0,1-1.1123,2.67871A3.69459,3.69459,0,0,1,386.54883,54.77734Z"/><path class="cls-1" d="M402.3457,50.65723a4.45908,4.45908,0,0,1-.85937,2.83105,3.09262,3.09262,0,0,1-1.64356,1.125,4.47083,4.47083,0,0,1-1.32715.17676,3.75412,3.75412,0,0,1-2.32519-.69531,3.88316,3.88316,0,0,1-1.21973-1.54785,6.25715,6.25715,0,0,1-.52441-2.24317l2.27539-.16406a3.45338,3.45338,0,0,0,.73242,2.00683,1.22113,1.22113,0,0,0,.98633.44434,1.47929,1.47929,0,0,0,1.251-.77148,1.91539,1.91539,0,0,0,.24023-1.04981,2.9151,2.9151,0,0,0-.89746-1.96094q-.70752-.66944-2.123-2.01074a9.05381,9.05381,0,0,1-1.68066-2.0625,4.75753,4.75753,0,0,1-.53125-2.22558,3.87315,3.87315,0,0,1,1.45312-3.27686,3.61438,3.61438,0,0,1,2.22461-.67041,4.04152,4.04152,0,0,1,2.18653.56885,3.28622,3.28622,0,0,1,1.14355,1.23877,4.56929,4.56929,0,0,1,.52442,1.832l-2.28711.417a2.75541,2.75541,0,0,0-.55664-1.5166,1.16809,1.16809,0,0,0-.94727-.3916,1.09268,1.09268,0,0,0-.999.582,2.238,2.238,0,0,0-.27735,1.16211,3.49126,3.49126,0,0,0,.93457,2.21191,7.96529,7.96529,0,0,0,1.06153,1.01074q.835.69581,1.09961.97364a8.10347,8.10347,0,0,1,1.36523,1.74414,6.729,6.729,0,0,1,.36621.74511A4.35258,4.35258,0,0,1,402.3457,50.65723Z"/><path class="cls-1" d="M406.46387,54.60059V38.752h6.7998v2.40137h-4.41113v4.32227h3.22266V47.877h-3.22266v4.32227h4.41113v2.40137Z"/><path class="cls-1" d="M424.5498,50.80957a3.67516,3.67516,0,0,1-1.0996,2.67871,3.59851,3.59851,0,0,1-2.6543,1.11231H417.042V38.752h3.75391a3.58976,3.58976,0,0,1,2.66015,1.11231,3.67142,3.67142,0,0,1,1.09375,2.667Zm-5.11914,1.42773h1.44141a1.27269,1.27269,0,0,0,.96-.41113,1.35521,1.35521,0,0,0,.3916-.96679v-8.29a1.33946,1.33946,0,0,0-.39746-.97364,1.29286,1.29286,0,0,0-.9541-.40429h-1.44141Z"/><path class="cls-1" d="M444.49414,50.65723a4.45913,4.45913,0,0,1-.85937,2.83105,3.09262,3.09262,0,0,1-1.64356,1.125,4.47088,4.47088,0,0,1-1.32715.17676,3.75412,3.75412,0,0,1-2.32519-.69531,3.88316,3.88316,0,0,1-1.21973-1.54785,6.25694,6.25694,0,0,1-.52441-2.24317l2.27539-.16406a3.45324,3.45324,0,0,0,.73242,2.00683,1.22111,1.22111,0,0,0,.98633.44434,1.47926,1.47926,0,0,0,1.251-.77148,1.9153,1.9153,0,0,0,.24024-1.04981,2.9151,2.9151,0,0,0-.89746-1.96094q-.70752-.66944-2.123-2.01074a9.05381,9.05381,0,0,1-1.68066-2.0625,4.75741,4.75741,0,0,1-.53125-2.22558,3.87315,3.87315,0,0,1,1.45312-3.27686,3.61434,3.61434,0,0,1,2.22461-.67041,4.04146,4.04146,0,0,1,2.18652.56885,3.28633,3.28633,0,0,1,1.14356,1.23877,4.56929,4.56929,0,0,1,.52441,1.832l-2.28711.417a2.75533,2.75533,0,0,0-.55664-1.5166,1.16807,1.16807,0,0,0-.94726-.3916,1.09269,1.09269,0,0,0-.999.582,2.23812,2.23812,0,0,0-.27734,1.16211,3.49121,3.49121,0,0,0,.93457,2.21191,7.96511,7.96511,0,0,0,1.06152,1.01074q.835.69581,1.09961.97364a8.10354,8.10354,0,0,1,1.36524,1.74414,6.7308,6.7308,0,0,1,.36621.74511A4.35258,4.35258,0,0,1,444.49414,50.65723Z"/><path class="cls-1" d="M452.37988,38.76465a3.641,3.641,0,0,1,2.78028,1.09961,3.81491,3.81491,0,0,1,.96093,2.67969v2.2998a3.68586,3.68586,0,0,1-1.09375,2.67969,3.57568,3.57568,0,0,1-2.64746,1.1123H451.002v5.96485h-2.38867V38.76465Zm1.42774,3.81738a1.36214,1.36214,0,0,0-.373-.999,1.32607,1.32607,0,0,0-.99121-.37891H451.002v5.06738h1.44141a1.30315,1.30315,0,0,0,.9668-.40429,1.33887,1.33887,0,0,0,.39746-.97266Z"/><path class="cls-1" d="M462.55273,54.60059h-2.38867V38.76465h2.38867Z"/><path class="cls-1" d="M470.58887,38.76465a3.641,3.641,0,0,1,2.93164,1.09961,3.995,3.995,0,0,1,.82129,2.67969v2.2998a3.69824,3.69824,0,0,1-1.27637,2.84375l1.76953,6.91309h-2.583l-1.44824-5.96485h-1.59277v5.96485h-2.38867V38.76465ZM472.0166,42.582a1.21193,1.21193,0,0,0-1.36426-1.37793h-1.4414v5.06738h1.4414a1.30314,1.30314,0,0,0,.9668-.40429,1.33883,1.33883,0,0,0,.39746-.97266Z"/><path class="cls-1" d="M481.40723,54.60059h-2.38868V38.76465h2.38868Z"/><path class="cls-1" d="M488.00293,41.166h-2.54V38.76465h7.457V41.166H490.3916V54.60059h-2.38867Z"/><path class="cls-1" d="M500.74219,54.77734a3.75447,3.75447,0,0,1-3.7793-3.76562V38.76465h2.33789V50.98633a1.30407,1.30407,0,0,0,.40527.96679,1.335,1.335,0,0,0,.97266.39747,1.35875,1.35875,0,0,0,1.36524-1.36426V38.76465h2.48925V51.01172a3.59852,3.59852,0,0,1-1.1123,2.67871A3.69459,3.69459,0,0,1,500.74219,54.77734Z"/><path class="cls-1" d="M511.37891,50.96094l-.58008,3.63965h-2.48731l2.69239-15.83594H514.29l2.65332,15.83594h-2.51172l-.55859-3.63965Zm1.25488-8.56934-.88477,6.24414h1.76953Z"/><path class="cls-1" d="M527.5957,54.60059h-6.50879V38.76465h2.38868v13.46h4.12011Z"/><path class="cls-1" d="M537.88281,54.60059H531.374V38.76465h2.38868v13.46h4.12011Z"/><path class="cls-1" d="M541.90137,47.96582,538.7041,38.752H541.333l1.76953,5.6875,1.75684-5.6875h2.6416L544.29,47.96582v6.63477h-2.38867Z"/></svg>