<svg id="Layer_1" data-name="Layer 1" xmlns="http://www.w3.org/2000/svg" width="728" height="90" viewBox="0 0 728 90"><defs><style>.cls-1{fill:#ab9555;}</style></defs><title>frame3</title><path class="cls-1" d="M303.24658,38.75177l3.16992,10.65136V38.75177h2.38868V54.6004h-2.56543L302.95361,44.452V54.6004h-2.38867V38.75177Z"/><path class="cls-1" d="M316.00488,50.96075l-.58056,3.63965H312.937l2.69238-15.83594H318.915l2.65381,15.83594h-2.51123l-.55908-3.63965Zm1.2544-8.56933-.88428,6.24414h1.769Z"/><path class="cls-1" d="M328.10205,54.6004h-2.38867V38.75177h3.42773l2.22608,11.38476,2.1372-11.38476h3.293V54.6004h-2.38867v-9.959l-2.07226,9.959H330.415l-2.313-9.93359Z"/><path class="cls-1" d="M343.99707,50.96075l-.58057,3.63965h-2.4873l2.69238-15.83594h3.28565L349.561,54.6004H347.0498l-.55908-3.63965Zm1.25439-8.56933-.88427,6.24414h1.769Z"/><path class="cls-1" d="M360.88477,50.657a4.45039,4.45039,0,0,1-.85938,2.831,3.09186,3.09186,0,0,1-1.64258,1.125,4.47536,4.47536,0,0,1-1.32715.17676,3.75359,3.75359,0,0,1-2.32568-.69531,3.88215,3.88215,0,0,1-1.21924-1.54785,6.24682,6.24682,0,0,1-.5249-2.24317l2.2749-.16406a3.45672,3.45672,0,0,0,.7334,2.00684,1.21867,1.21867,0,0,0,.98535.44433,1.48063,1.48063,0,0,0,1.25147-.77148,1.91539,1.91539,0,0,0,.24023-1.04981,2.91727,2.91727,0,0,0-.89746-1.96093q-.70826-.66944-2.12305-2.01074a9.058,9.058,0,0,1-1.68115-2.0625,4.76311,4.76311,0,0,1-.53076-2.22559,3.87123,3.87123,0,0,1,1.45361-3.27637,3.60909,3.60909,0,0,1,2.22412-.6709,4.03751,4.03751,0,0,1,2.18653.56934,3.28094,3.28094,0,0,1,1.14355,1.23828,4.56929,4.56929,0,0,1,.52442,1.832l-2.28711.417a2.76268,2.76268,0,0,0-.55616-1.5166,1.16945,1.16945,0,0,0-.94824-.3916,1.09173,1.09173,0,0,0-.998.582,2.23809,2.23809,0,0,0-.27833,1.16211,3.48761,3.48761,0,0,0,.93555,2.21192,7.90526,7.90526,0,0,0,1.06153,1.01074q.83423.69581,1.0996.97363a8.11525,8.11525,0,0,1,1.36475,1.74414,6.65247,6.65247,0,0,1,.3667.74512A4.33824,4.33824,0,0,1,360.88477,50.657Z"/><path class="cls-1" d="M367.20312,41.16583H364.6626V38.76446h7.45654v2.40137H369.5918V54.6004h-2.38868Z"/><path class="cls-1" d="M376.1748,54.6004V38.75177h6.79981v2.40136h-4.41113V45.4754h3.22265v2.40137h-3.22265V52.199h4.41113V54.6004Z"/><path class="cls-1" d="M386.752,52.22442h2.38867v2.38867H386.752Z"/><path class="cls-1" d="M396.71094,54.80255a3.776,3.776,0,0,1-3.792-3.77832V42.37872a3.78517,3.78517,0,1,1,7.57031,0v1.80762H398.0127V42.32892a1.38036,1.38036,0,0,0-1.37793-1.37793,1.30683,1.30683,0,0,0-.9668.40429,1.33647,1.33647,0,0,0-.39844.97364v8.66992a1.35873,1.35873,0,0,0,1.36524,1.36425,1.34265,1.34265,0,0,0,.97363-.39746,1.30683,1.30683,0,0,0,.4043-.96679V48.81231h2.47656v2.21192a3.776,3.776,0,0,1-3.77832,3.77832Z"/><path class="cls-1" d="M408.32422,38.56231a3.786,3.786,0,0,1,3.791,3.792v8.64453a3.78517,3.78517,0,1,1-7.57031,0V42.35431a3.78767,3.78767,0,0,1,3.7793-3.792Zm1.30176,3.74121a1.36039,1.36039,0,0,0-1.36524-1.36523,1.33584,1.33584,0,0,0-.97265.39844,1.304,1.304,0,0,0-.40528.96679v8.66993a1.304,1.304,0,0,0,.40528.96679,1.33494,1.33494,0,0,0,.97265.39746,1.35873,1.35873,0,0,0,1.36524-1.36425Z"/><path class="cls-1" d="M418.73633,54.6004h-2.38867V38.75177h3.42773L422.002,50.13653l2.13672-11.38476h3.293V54.6004H425.043v-9.959l-2.07227,9.959h-1.9209l-2.31347-9.93359Z"/></svg>