<svg id="Layer_1" data-name="Layer 1" xmlns="http://www.w3.org/2000/svg" xmlns:xlink="http://www.w3.org/1999/xlink" width="59.17215" height="86.75257" viewBox="0 0 59.17215 86.75257"><defs><style>.cls-1{fill:url(#New_Gradient_Swatch_1);}.cls-2{fill:#fff;}.cls-3{fill:#ba9544;}</style><linearGradient id="New_Gradient_Swatch_1" y1="29.38813" x2="59.17215" y2="29.38813" gradientUnits="userSpaceOnUse"><stop offset="0" stop-color="#a88a34"/><stop offset="0.49324" stop-color="#caaf67"/><stop offset="1" stop-color="#957f2e"/></linearGradient></defs><title>minty</title><polygon class="cls-1" points="51.193 49.307 26.523 58.776 3.742 45.392 0 19.235 18.118 0 44.452 2.172 59.172 24.118 51.193 49.307"/><path class="cls-2" d="M42.10266,38.70825a10.48249,10.48249,0,0,0-4.19831-8.68254,4.04326,4.04326,0,0,1,1.99055-.24194,6.84963,6.84963,0,0,0-4.0031-3.60444,3.06255,3.06255,0,0,1,1.56989-.19246s-2.326-3.80789-8.32237-5.46577a4.968,4.968,0,0,1,1.51766-.187s-6.20811-3.434-12.122.42615c0,0,5.00939,2.64216,6.99167,5.3778,0,0-6.86793-4.388-7.86872-4.31928,0,0-3.09031,7.3436,4.76743,13.7689a3.45584,3.45584,0,0,1-.187-1.51766s3.12055,3.7639,6.16687,4.77292a3.56063,3.56063,0,0,1,.01923-1.47916,9.17587,9.17587,0,0,0,4.355,2.48543,3.32178,3.32178,0,0,1-.13746-2.00155s5.04511,2.99408,9.46063.86056"/><path class="cls-3" d="M4.98851,86.75257v-10.874h.72461L10.426,81.24281l4.71875-5.36426h.72461v10.874h-2.1748l-.00684-6.30664L10.426,84.07l-3.26269-3.624v6.30664Z"/><path class="cls-3" d="M18.03734,75.87172h2.168V86.75257h-2.168Z"/><path class="cls-3" d="M22.387,86.75257v-10.874h.72461L29.926,82.693V75.87855h2.17481v10.874h-.79688l-6.74219-6.74218v6.74218Z"/><path class="cls-3" d="M43.22875,75.87855v2.03027h-3.624v8.84375h-2.1748V77.90882h-3.625V75.87855Z"/><path class="cls-3" d="M44.20726,75.87855H46.759l2.52246,3.55176,2.58106-3.55176H54.3557l-3.98633,5.4375v5.43652h-2.1748V81.31605Z"/></svg>