<svg id="Layer_1" data-name="Layer 1" xmlns="http://www.w3.org/2000/svg" xmlns:xlink="http://www.w3.org/1999/xlink" width="375" height="132" viewBox="0 0 375 132"><defs><style>.cls-1{fill:url(#linear-gradient);}.cls-2{fill:url(#linear-gradient-2);}.cls-3{fill:url(#linear-gradient-3);}.cls-4{fill:url(#linear-gradient-4);}.cls-5{fill:url(#linear-gradient-5);}.cls-6{fill:url(#linear-gradient-6);}.cls-7{fill:url(#linear-gradient-7);}.cls-8{fill:url(#linear-gradient-8);}.cls-9{fill:url(#New_Gradient_Swatch_2);}.cls-10{fill:#a89255;}</style><linearGradient id="linear-gradient" x1="167.98614" y1="30.93124" x2="206.55218" y2="30.93124" gradientUnits="userSpaceOnUse"><stop offset="0" stop-color="#a88a34"/><stop offset="0.49324" stop-color="#caaf67"/><stop offset="1" stop-color="#957f2e"/></linearGradient><linearGradient id="linear-gradient-2" x1="207.13727" y1="114.2002" x2="207.13727" y2="49.51424" gradientUnits="userSpaceOnUse"><stop offset="0" stop-color="#a88a34"/><stop offset="0.49894" stop-color="#caaf67"/><stop offset="1" stop-color="#957f2e"/></linearGradient><linearGradient id="linear-gradient-3" x1="189.21894" y1="80.5251" x2="189.21894" y2="32.76287" xlink:href="#linear-gradient-2"/><linearGradient id="linear-gradient-4" x1="195.288" y1="96.90654" x2="195.288" y2="34.05159" xlink:href="#linear-gradient-2"/><linearGradient id="linear-gradient-5" x1="201.19594" y1="98.33851" x2="201.19594" y2="43.32008" xlink:href="#linear-gradient-2"/><linearGradient id="linear-gradient-6" x1="167.89901" y1="59.76729" x2="167.89901" y2="6.60841" xlink:href="#linear-gradient-2"/><linearGradient id="linear-gradient-7" x1="182.0224" y1="73.19676" x2="182.0224" y2="25.71282" xlink:href="#linear-gradient-2"/><linearGradient id="linear-gradient-8" x1="174.80895" y1="66.10547" x2="174.80895" y2="18.34339" xlink:href="#linear-gradient-2"/><linearGradient id="New_Gradient_Swatch_2" x1="209.69408" y1="49.3828" x2="212.35089" y2="49.3828" gradientUnits="userSpaceOnUse"><stop offset="0" stop-color="#a88a34"/><stop offset="0.1878" stop-color="#caaf67"/><stop offset="0.46098" stop-color="#a08a4a"/><stop offset="0.76341" stop-color="#caaf67"/><stop offset="1" stop-color="#957f2e"/></linearGradient></defs><title>logo</title><path class="cls-1" d="M184.9247,43.85641c.41911-.12361,1.17936.58705,1.22877.58705a.90692.90692,0,0,0,.25344-.58528c0-.25091-.17909-.73895-.21267-1.0343a4.91921,4.91921,0,0,0-.17863-.85568c-.06539-.19446-.51985-.27922-.76372-.4297a3.98247,3.98247,0,0,1-.61534-.426,1.94637,1.94637,0,0,1-.26162-.89276,3.51021,3.51021,0,0,0-.14679-.90877c-.08491-.15911-.30319-.27153-.45081-.41915a.63467.63467,0,0,1-.15206-.39066c.11321-.03534.14856.25635.27937.28114s.122.13255.327.20325c.20517.07066.21221.16805.23875.359s.25634.83615.33231,1.09954c.07613.26354.15558.46166.41561.47045.25985.00881.2245.14313.53025.11852a1.71187,1.71187,0,0,1,.73384.14133c.16439.05837.37132.06365.442-.05115.07069-.115-.04957-.57826-.04957-.57826-.106,0-.12379-.1431-.16438-.27568s.02476-.14328.02476-.14328a.56032.56032,0,1,1,1.06792,0s.06539.01055.02476.14328-.05837.27568-.16454.27568c0,0-.1201.46328-.04941.57826.07067.1148.2776.10952.442.05115a1.7116,1.7116,0,0,1,.73368-.14133c.30591.02461.27056-.10971.53041-.11852.26-.00879.33951-.20691.41545-.47045.07613-.26339.30591-.90862.33247-1.09954s.03358-.28834.23875-.359c.205-.0707.19619-.17845.327-.20325s.16631-.31648.27937-.28114a.63571.63571,0,0,1-.15206.39066c-.14762.14762-.3659.26-.45081.41915a3.50977,3.50977,0,0,0-.14679.90877,1.94637,1.94637,0,0,1-.26162.89276,3.984,3.984,0,0,1-.61534.426c-.244.15048-.69833.23524-.76372.4297a4.89886,4.89886,0,0,0-.17863.85568c-.03358.29535-.21267.78339-.21267,1.0343a.90692.90692,0,0,0,.25344.58528c.04941,0,.80981-.71066,1.22877-.58705.419.124.2528.71081-.18214,1.1456a1.86272,1.86272,0,0,1-.90112.56194,4.88165,4.88165,0,0,1,.68412.12791,7.32366,7.32366,0,0,1,1.95409,1.11507,7.09985,7.09985,0,0,0,1.7424,1.01735,1.487,1.487,0,0,0,.16857.037c.05981-.05008.37321-.23094.37321-.23094a7.01189,7.01189,0,0,0,.78742.337l-2.00643-1.54714,3.97717,1.73135c.06539.02831.13112.05438.19654.07771l2.40392.04285c.631.01153,1.2542-.01613,1.83273-.0609-.46626-.2877-.97129-.5749-1.51259-.83954l-2.10921-1.03144c-.0702-.00894-.142-.01568-.21492-.02l-4.59761-.27617,2.98745-.51924-1.93667-.63035,3.31446-.02174a11.25141,11.25141,0,0,0,2.26277-.24884l-3.13269-.59662,4.591-.20389a4.50475,4.50475,0,0,0,.76854-.098l-.3486.04221,3.03-1.42161a27.07562,27.07562,0,0,0,2.8061-1.54251,29.60951,29.60951,0,0,0-3.28216-.19876l-3.44384.00784.38362-.12554a4.31407,4.31407,0,0,0-.81267.25073l-4.01761,1.67445,2.4313-1.81148-.01854.003-.05551-.41771-.44184-.72871a14.55743,14.55743,0,0,0,3.3105-3.41761l-3.24828,1.55514,3.30967-2.75655a5.45085,5.45085,0,0,0,1.05093-1.13937c.4268-.64508.82307-1.306,1.18449-1.97507l-1.02586,1.013,1.22971-2.675a35.32766,35.32766,0,0,0,1.81947-5.03047,42.82253,42.82253,0,0,0-4.87567,3.14128l-2.40764,1.8246.7679-1.19663c-.62284.52965-1.22507,1.08869-1.79979,1.67091a5.27554,5.27554,0,0,0-.88621,1.24189l-1.75856,3.368.62462-3.07413a14.5334,14.5334,0,0,0-1.39316,1.66628l-.30654.42759-.281-.19284a.80355.80355,0,0,0-.04349.07307l-2.41545,4.5805,1.42448-4.97851a15.80341,15.80341,0,0,0,.47252-6.24775l-1.66338,3.09143.80563-3.71891a6.05433,6.05433,0,0,0,.12584-1.85576,29.95865,29.95865,0,0,0-.63917-3.75422l-.21922,1.82535-.72215-2.66121a45.28067,45.28067,0,0,0-2.466-6.67454,45.23628,45.23628,0,0,0-2.466,6.67454l-.722,2.66121-.21938-1.82535a29.98785,29.98785,0,0,0-.63916,3.75422,6.05749,6.05749,0,0,0,.12584,1.85591l.80468,3.72-1.66243-3.09222a15.801,15.801,0,0,0,.47252,6.24726l1.42466,4.97881-2.41563-4.5808a.77043.77043,0,0,0-.04349-.07307l-.281.19284-.30654-.42759a14.53589,14.53589,0,0,0-1.39316-1.66628l.62477,3.07413-1.75871-3.368a5.27873,5.27873,0,0,0-.88606-1.24189c-.57359-.58112-1.175-1.13937-1.79723-1.66834l.76964,1.19756-2.41209-1.8281a42.80055,42.80055,0,0,0-4.87567-3.14128,35.32128,35.32128,0,0,0,1.81944,5.03047l1.22974,2.675-1.02586-1.013c.36141.66908.75784,1.33,1.18464,1.97507a5.44581,5.44581,0,0,0,1.05078,1.13937l3.30967,2.75655-3.24828-1.55514a14.55387,14.55387,0,0,0,3.3105,3.41761l-.44184.72871-.05551.41771-.0187-.003,2.43162,1.81163-4.01777-1.6746a4.34027,4.34027,0,0,0-.81233-.25073l.38346.12554-3.444-.00784a29.61178,29.61178,0,0,0-3.28216.19876,27.07458,27.07458,0,0,0,2.8061,1.54251l3.03,1.42146-.34845-.04221a4.48573,4.48573,0,0,0,.76839.09817l4.591.20389-3.13263.59662a11.25231,11.25231,0,0,0,2.26274.24884l3.32324.02174-1.94338.63069,2.98568.5189-4.59773.27617q-.10965.00645-.21511.02l-2.10954,1.03144c-.541.26464-1.046.55184-1.51225.83954.57871.04477,1.20171.07225,1.83273.0609l2.404-.04285c.06539-.02333.13112-.0494.19669-.07771l3.977-1.73135-2.00642,1.54714a7.01189,7.01189,0,0,0,.78742-.337s.3131.18055.37291.23075a1.46491,1.46491,0,0,0,.16869-.03678,7.09739,7.09739,0,0,0,1.74258-1.01735,7.32457,7.32457,0,0,1,1.95409-1.11507,4.88053,4.88053,0,0,1,.68412-.12791,1.86272,1.86272,0,0,1-.90112-.56194C184.67189,44.56722,184.50558,43.98036,184.9247,43.85641Z"/><polygon class="cls-2" points="209.443 51.984 209.443 50.812 204.832 50.816 204.832 57.088 209.434 57.088 209.434 55.917 206.087 55.917 206.087 54.49 208.602 54.49 208.602 53.323 206.087 53.323 206.087 51.984 209.443 51.984"/><path class="cls-3" d="M188.59343,50.81231l-2.51041,6.276h1.33874l.3766-.96232h2.84514l.37659.96232,1.33477-.00429-2.50613-6.27172Zm-.29279,4.05854.954-2.38506.92875,2.38506Z"/><path class="cls-4" d="M197.02441,53.84572a3.11227,3.11227,0,0,0-1.4435-.52291,1.65437,1.65437,0,0,1-.96236-.37674.48968.48968,0,0,1,0-.60673q.20938-.35544.96236-.35546a1.44129,1.44129,0,0,1,1.17167.502l.83663-.83684a2.92776,2.92776,0,0,0-.89949-.62763,3.50255,3.50255,0,0,0-1.35573-.20917,2.51215,2.51215,0,0,0-1.46639.50418,1.56164,1.56164,0,0,0-.71338,1.33686,1.38875,1.38875,0,0,0,.62753,1.297,3.37274,3.37274,0,0,0,1.38082.46022q.83664.08372,1.0439.43928a.6631.6631,0,0,1,0,.71145q-.207.35547-1.0439.35546A1.98769,1.98769,0,0,1,193.74,55.331l-.837.83694a3.16719,3.16719,0,0,0,1.00425.66942,3.71673,3.71673,0,0,0,1.46031.25089,2.53448,2.53448,0,0,0,1.61287-.54386,1.6087,1.6087,0,0,0,.69257-1.297A1.57091,1.57091,0,0,0,197.02441,53.84572Z"/><polygon class="cls-5" points="198.476 51.984 200.568 51.984 200.568 57.088 201.823 57.088 201.823 51.984 203.916 51.984 203.916 50.812 198.476 50.812 198.476 51.984"/><polygon class="cls-6" points="169.447 54.745 165.514 50.812 165.096 50.812 165.096 57.088 166.351 57.088 166.351 53.197 170.242 57.088 170.702 57.088 170.702 50.812 169.447 50.812 169.447 54.745"/><polygon class="cls-7" points="182.02 53.908 179.301 50.812 178.882 50.812 178.882 57.088 180.138 57.088 180.138 53.448 182.02 55.54 183.903 53.448 183.907 57.088 185.162 57.088 185.162 50.812 184.744 50.812 182.02 53.908"/><path class="cls-8" d="M174.18347,50.81231l-2.51045,6.276h1.33878l.3766-.96232h2.84514l.37676.96232,1.33458-.00429-2.50627-6.27172Zm-.29279,4.05854.95385-2.38506.92879,2.38506Z"/><path class="cls-9" d="M210.34419,48.91486v1.13921h-.22628V48.91486h-.42383v-.20333h1.07581v.20333Zm1.79759,1.13921-.00187-1.003-.42383.863h-.14773l-.42382-.863v1.003h-.21285V48.71153h.26844l.443.89185.44116-.89185h.26658v1.34254Z"/><path class="cls-10" d="M175.65673,61.58891a.88557.88557,0,0,1-.50729,1.64661l-1.75472-.00208v-3.1165h1.65493q.7881.04589.83162.91686A.6527.6527,0,0,1,175.65673,61.58891Zm-1.63622-.22246h.87321a.35193.35193,0,0,0,.3867-.38878q-.01024-.22856-.38047-.24117h-.87944Zm0,1.38049h1.01874a.407.407,0,0,0,.44908-.45115q-.01024-.29938-.44284-.31186h-1.025Z"/><path class="cls-10" d="M176.52993,60.11486h.73183l.72351,1.01873.74015-1.01873h.71519l-1.14348,1.55929v1.55929h-.62372V61.67415Z"/><path class="cls-10" d="M183.80247,63.23344h-2.49695l.00208-.20791,1.45326-2.32854H181.3076l-.00208-.58213h2.49695v.22869L182.343,62.6513h1.4595Z"/><path class="cls-10" d="M184.586,63.23344v-3.1165l2.29112-.00208V60.697h-1.6674v.6653h1.24951v.58006h-1.24951v.709h1.66324v.58214Z"/><path class="cls-10" d="M187.505,63.23344V60.11486h.2079l1.95431,1.95431V60.11486h.62372v3.11858h-.2287l-1.93352-1.93352v1.93352Z"/><path class="cls-10" d="M190.77324,63.23344l1.24743-3.11858h.62372l1.24506,3.1165-.66292.00208-.18712-.47818h-1.41376l-.18711.47818Zm1.57592-2.287-.474,1.18506h.93557Z"/><path class="cls-10" d="M196.56965,61.58891a.88567.88567,0,0,1-.50729,1.64661l-1.75473-.00208v-3.1165h1.65493q.78767.04589.83162.91686A.65432.65432,0,0,1,196.56965,61.58891Zm-1.63652-.22246h.87321a.35167.35167,0,0,0,.3867-.38878c-.00653-.15237-.13365-.23286-.38017-.24117h-.87974Zm0,1.38049h1.01874a.40673.40673,0,0,0,.44908-.45115q-.00981-.29938-.44255-.31186h-1.02527Z"/><path class="cls-10" d="M197.62581,60.11278h.62134v3.12066h-.62134Z"/><path class="cls-10" d="M200.56143,60.21881a1.44757,1.44757,0,0,1,.4467.31186l-.41581.41581a.71574.71574,0,0,0-.58214-.24949q-.37422,0-.47818.17672a.24439.24439,0,0,0,0,.30147.82238.82238,0,0,0,.47818.18711,1.54722,1.54722,0,0,1,.71758.25988.78155.78155,0,0,1,.322.69649.79988.79988,0,0,1-.34393.6445,1.25926,1.25926,0,0,1-.80133.27028,1.84862,1.84862,0,0,1-.72589-.12474,1.58046,1.58046,0,0,1-.499-.33265l.41581-.41581a.98863.98863,0,0,0,.70688.29106q.4161,0,.51857-.17671a.328.328,0,0,0,0-.35344q-.10246-.17688-.51857-.2183a1.67565,1.67565,0,0,1-.68609-.2287.68992.68992,0,0,1-.31186-.64451.77556.77556,0,0,1,.35463-.66411,1.24809,1.24809,0,0,1,.72886-.25067A1.74465,1.74465,0,0,1,200.56143,60.21881Z"/><rect class="cls-10" x="165.09564" y="61.62946" width="5.60672" height="0.68269"/><rect class="cls-10" x="203.83593" y="61.62946" width="5.60672" height="0.68269"/></svg>