<svg id="Layer_1" data-name="Layer 1" xmlns="http://www.w3.org/2000/svg" xmlns:xlink="http://www.w3.org/1999/xlink" width="60.93523" height="90.01408" viewBox="0 0 60.93523 90.01408"><defs><style>.cls-1{fill:url(#New_Gradient_Swatch_1);}.cls-2{fill:#fff;}.cls-3{fill:#ba9544;}</style><linearGradient id="New_Gradient_Swatch_1" x1="1.33445" y1="30.48596" x2="60.93523" y2="30.48596" gradientUnits="userSpaceOnUse"><stop offset="0" stop-color="#a88a34"/><stop offset="0.49324" stop-color="#caaf67"/><stop offset="1" stop-color="#957f2e"/></linearGradient></defs><title>sweet</title><polygon class="cls-1" points="26.092 60.972 1.334 32.381 20.877 0 57.711 8.578 60.935 46.26 26.092 60.972"/><path class="cls-2" d="M45.91269,20.16079A1.47989,1.47989,0,0,1,44.43385,18.682,2.39274,2.39274,0,0,0,42.04,16.28808h-.78191a1.6135,1.6135,0,0,0-1.61484,1.612v5.58668a7.8684,7.8684,0,0,0-10.35177.68276l-1.49868,1.49865A7.86849,7.86849,0,0,0,27.11,36.02H21.52333a1.61168,1.61168,0,0,0-1.612,1.61482v.7819a2.39274,2.39274,0,0,0,2.39389,2.39389,1.47989,1.47989,0,0,1,1.47884,1.47883A2.39272,2.39272,0,0,0,26.178,44.68328h.78191a1.61347,1.61347,0,0,0,1.61479-1.612V37.48461a7.86845,7.86845,0,0,0,10.35182-.68275l1.49864-1.49866a7.86835,7.86835,0,0,0,.68274-10.3518h5.58669a1.61347,1.61347,0,0,0,1.612-1.61481v-.78191a2.39271,2.39271,0,0,0-2.39385-2.39389"/><path class="cls-3" d="M6.76025,79.183a5.21547,5.21547,0,0,1,1.606,1.12012L6.87207,81.79728a2.57173,2.57173,0,0,0-2.09131-.89648q-1.34472,0-1.71826.63476a.87378.87378,0,0,0,0,1.083,2.9523,2.9523,0,0,0,1.71826.67285,5.56837,5.56837,0,0,1,2.57715.93359,2.80554,2.80554,0,0,1,1.15771,2.502,2.8743,2.8743,0,0,1-1.23632,2.3164,4.52674,4.52674,0,0,1-2.8794.97071A6.63294,6.63294,0,0,1,1.793,89.56583,5.65225,5.65225,0,0,1,0,88.37052l1.49414-1.49414a3.549,3.549,0,0,0,2.53955,1.0459q1.49415,0,1.86377-.63477a1.18184,1.18184,0,0,0,0-1.26953q-.36987-.63574-1.86377-.78418a6.0218,6.0218,0,0,1-2.46484-.82226A2.47861,2.47861,0,0,1,.44824,82.09611a2.78885,2.78885,0,0,1,1.27344-2.38672A4.48944,4.48944,0,0,1,4.33984,78.809,6.25028,6.25028,0,0,1,6.76025,79.183Z"/><path class="cls-3" d="M17.33008,81.79728l-2.24121,8.2168H12.84814L9.85254,78.809h2.39062l1.94922,7.61914L16.20947,78.809H18.5249l1.94239,7.61914L22.40918,78.809H24.7998L21.812,90.01408H19.5708Z"/><path class="cls-3" d="M26.42822,90.01408V78.81681l8.23194-.00781v2.0918H28.66943v2.39062h4.48926v2.084H28.66943v2.54688h5.97608v2.0918Z"/><path class="cls-3" d="M36.88574,90.01408V78.81681l8.23194-.00781v2.0918H39.127v2.39062h4.48926v2.084H39.127v2.54688H45.103v2.0918Z"/><path class="cls-3" d="M56.51709,78.809v2.0918H52.78223v9.11328H50.541V80.9008H46.80615V78.809Z"/></svg>