<svg xmlns="http://www.w3.org/2000/svg" xmlns:xlink="http://www.w3.org/1999/xlink" width="970" height="250" viewBox="0 0 970 250"><defs><style>.cls-1{fill:none;}.cls-2{fill:#fff;stroke:#ba9544;stroke-miterlimit:10;stroke-width:0.5px;}.cls-3{fill:#ba9544;}.cls-4{clip-path:url(#clip-path);}.cls-5{clip-path:url(#clip-path-2);}</style><clipPath id="clip-path"><rect class="cls-1" x="17.24025" y="-299.16219" width="383.03219" height="250.51546"/></clipPath><clipPath id="clip-path-2"><rect class="cls-1" x="2.56702" y="-306.41002" width="399.55191" height="335.80187"/></clipPath></defs><title>THC - Shishkaberry</title><g id="Content"><polygon class="cls-2" points="640.868 98.727 408.265 97.846 396.523 114.779 408.265 131.411 640.868 131.014 651.436 114.872 640.868 98.727"/><polygon class="cls-3" points="408.435 97.846 396.693 114.779 408.435 131.411 437.196 131.411 437.196 97.846 408.435 97.846"/><path class="cls-3" d="M541.39787,109.232v2.126H537.602v9.2627h-2.27735v-9.2627h-3.79687v-2.126Z"/><path class="cls-3" d="M543.09122,120.62062V109.232h2.27832v4.55566h5.30665v-4.5625h2.27734v11.3877l-2.27734.00781v-4.707h-5.30665v4.707Z"/><path class="cls-3" d="M556.48771,118.98488a5.697,5.697,0,0,1,4.05078-9.75293,6.16429,6.16429,0,0,1,4.18359,1.51855l-1.51855,1.66309a4.19972,4.19972,0,0,0-2.665-.91114,3.34684,3.34684,0,0,0-2.47168.95606,3.31309,3.31309,0,0,0-.9375,2.42969,3.411,3.411,0,0,0,.94922,2.5205,3.36171,3.36171,0,0,0,2.47559.93458,4.08625,4.08625,0,0,0,2.64941-.90333l1.51855,1.66211a6.14207,6.14207,0,0,1-4.18359,1.51856A5.54378,5.54378,0,0,1,556.48771,118.98488Z"/><path class="cls-3" d="M567.27189,113.3589a1.101,1.101,0,0,1,.82031-.30762,1.143,1.143,0,0,1,.85059.30762,1.10584,1.10584,0,0,1,0,1.52246,1.30094,1.30094,0,0,1-1.6709,0,1.10584,1.10584,0,0,1,0-1.52246Zm0,5.43555a1.101,1.101,0,0,1,.82031-.30762,1.143,1.143,0,0,1,.85059.30762,1.04565,1.04565,0,0,1,.30371.76367,1.0298,1.0298,0,0,1-.30371.75879,1.30094,1.30094,0,0,1-1.6709,0,1.0298,1.0298,0,0,1-.30371-.75879A1.04565,1.04565,0,0,1,567.27189,118.79445Z"/><path class="cls-3" d="M579.39689,109.232v-.00684h2.27051v11.39551h-2.27051v-8.35156l-1.51856,1.51855-1.51855-1.51855Z"/><path class="cls-3" d="M588.97013,109.23976v-.01465h2.27051v6.62012h1.5332v2.26953h-1.5332v2.50586h-2.27051v-2.50586h-5.16992v-2.26953h.07617l-.06836-.07617Zm0,6.60547v-3.62891l-2.77051,3.62891Z"/><path class="cls-3" d="M594.5131,117.5757V116.065h4.707v1.51075Z"/><path class="cls-3" d="M604.13224,109.232v-.00684h2.27051v11.39551h-2.27051v-8.35156l-1.51855,1.51855-1.51856-1.51855Z"/><path class="cls-3" d="M614.808,114.85011q.20508.07617.37207.15234a2.232,2.232,0,0,1,1.17676,2.27735,2.92291,2.92291,0,0,1-1.10547,2.54394,5.47077,5.47077,0,0,1-5.68652,0,2.92481,2.92481,0,0,1-1.10449-2.54394,2.232,2.232,0,0,1,1.17675-2.27735q.167-.07617.37207-.15234c-.08105-.04-.15429-.07812-.21972-.11328a2.25175,2.25175,0,0,1-1.02539-2.16406,3.11454,3.11454,0,0,1,.99121-2.46778,4.46844,4.46844,0,0,1,5.30664,0,3.11778,3.11778,0,0,1,.99121,2.46778,2.25177,2.25177,0,0,1-1.02539,2.16406C614.96232,114.772,614.8881,114.81007,614.808,114.85011Zm-2.39941-1.03223q1.002-.03075,1.291-.52343a1.217,1.217,0,0,0,0-1.291,1.46054,1.46054,0,0,0-1.291-.63769,1.43906,1.43906,0,0,0-1.28321.63769,1.19313,1.19313,0,0,0,0,1.291Q611.40665,113.7881,612.40861,113.81788Zm0,2.0879a1.69406,1.69406,0,0,0-1.28321.65332,1.19145,1.19145,0,0,0,0,1.29,1.437,1.437,0,0,0,1.28321.6377,1.45838,1.45838,0,0,0,1.291-.6377,1.21526,1.21526,0,0,0,0-1.29A1.72222,1.72222,0,0,0,612.40861,115.90578Z"/><path class="cls-3" d="M619.00529,114.03859a2.936,2.936,0,1,1,2.03515.81933A2.767,2.767,0,0,1,619.00529,114.03859Zm2.01269-.53223a1.35448,1.35448,0,0,0,1.04-.43262,1.64039,1.64039,0,0,0,0-2.15234,1.37148,1.37148,0,0,0-1.04785-.42871,1.3541,1.3541,0,0,0-1.0332.42871,1.64039,1.64039,0,0,0,0,2.15234A1.35514,1.35514,0,0,0,621.018,113.50636Zm-.60742,7.11426,6.45313-11.38867h1.85253l-6.43847,11.38867Zm5.65625-.752a2.9161,2.9161,0,1,1,2.01953.8125A2.73942,2.73942,0,0,1,626.06681,119.86867Zm1.98145-.55372a1.32831,1.32831,0,0,0,1.0166-.42187,1.58453,1.58453,0,0,0,0-2.09473,1.338,1.338,0,0,0-1.02442-.42187,1.32076,1.32076,0,0,0-1.00976.42187,1.58748,1.58748,0,0,0,0,2.09473A1.33041,1.33041,0,0,0,628.04826,119.315Z"/><g class="cls-4"><g id="SmallTopDown-8268-Shishkaberry.psd"><g class="cls-5"><image id="SmallTopDown-8268-Shishkaberry" width="4124" height="3466" transform="translate(2.56702 -306.41002) scale(0.09688)" xlink:href="THC%20-%20Shishkaberry1.png"/></g></g></g></g></svg>