<svg id="Content" xmlns="http://www.w3.org/2000/svg" xmlns:xlink="http://www.w3.org/1999/xlink" width="320" height="568" viewBox="0 0 320 568"><defs><style>.cls-1{fill:url(#New_Gradient_Swatch_1);}.cls-2{fill:#fff;}.cls-3{fill:#ba9544;}</style><linearGradient id="New_Gradient_Swatch_1" x1="209.46897" y1="227.57783" x2="255.01379" y2="227.57783" gradientUnits="userSpaceOnUse"><stop offset="0" stop-color="#a88a34"/><stop offset="0.49324" stop-color="#caaf67"/><stop offset="1" stop-color="#957f2e"/></linearGradient></defs><title>earthy</title><polygon class="cls-1" points="250.465 211.803 227.692 203.909 209.469 219.684 214.02 243.353 236.791 251.247 255.014 235.472 250.465 211.803"/><path class="cls-2" d="M237.96312,233.1146a5.33264,5.33264,0,0,0-2.66362-2.46343,2.61318,2.61318,0,0,0-1.99493.19576,5.56823,5.56823,0,0,0-1.04255-.26834,10.89308,10.89308,0,0,1,2.21489-4.36378c.05719.0022.11216.0022.16717.0022.21553.00219.42888.00439.64005.00439,2.47882,0,4.6761-.32772,4.79048-4.80587a6.89758,6.89758,0,0,1,.93257-2.09832l.34092-.55866h-.65542a7.09324,7.09324,0,0,0-7.08458,7.08674v.33432c-.26832.38492-.52127.76763-.75443,1.14593a9.08953,9.08953,0,0,0-9.06188-8.567h-.65546l.34092.55866a8.987,8.987,0,0,1,1.22513,2.77576c.14515,5.70767,2.94952,6.12557,6.11458,6.12557.27054,0,.54326-.0022.816-.0066.23755-.0022.47728-.0044.71923-.0044a7.01654,7.01654,0,0,0-.8226,2.30726,3.31944,3.31944,0,0,0-3.15408,1.7464,4.16058,4.16058,0,0,0-3.39159.18256c-.98319.62025-1.50668,1.82337-1.56165,3.57417l-.011.37831h17.54312l.0682-.28153a2.21353,2.21353,0,0,0-.36952-1.68261,3.71607,3.71607,0,0,0-2.69-1.3175"/><path class="cls-3" d="M206.59814,275.99512v-8.69336l6.39063-.00586v1.624H208.3374v1.85547h3.48535v1.61816H208.3374v1.97754h4.63965v1.624Z"/><path class="cls-3" d="M214.28174,275.99512l3.47949-8.69922h1.74023l3.47364,8.69336-1.84961.00586-.52246-1.334h-3.94336l-.52149,1.334Zm4.39648-6.37891-1.32226,3.30567h2.60937Z"/><path class="cls-3" d="M229.51123,272.20215l2.16895,3.793h-1.99512l-2.082-3.59571h-1.58887v3.59571h-1.74023V267.2959h3.793q3.04542,0,3.04493,2.50586A2.24809,2.24809,0,0,1,229.51123,272.20215Zm-3.49707-1.42676h2.43555q1.05029-.01611,1.0791-.95605-.0293-.85841-1.06152-.89356h-2.45313Z"/><path class="cls-3" d="M239.68311,267.2959v1.624h-2.89942v7.0752h-1.74023v-7.0752H232.144v-1.624Z"/><path class="cls-3" d="M240.97607,275.99512V267.2959h1.74024v3.47949H246.77V267.29h1.74023v8.69922l-1.74023.00586v-3.59571h-4.05371v3.59571Z"/><path class="cls-3" d="M249.87842,267.2959h2.041l2.01856,2.8418,2.06445-2.8418h1.99512l-3.18945,4.34961v4.34961h-1.74024v-4.34961Z"/></svg>