<svg id="Content" xmlns="http://www.w3.org/2000/svg" width="320" height="50" viewBox="0 0 320 50"><defs><style>.cls-1{fill:#ba9544;}</style></defs><title>Frame1 - Ultra Sour</title><path class="cls-1" d="M121.26367,20.35938v8.64355c0,.80029.35254,1.08838.91309,1.08838.55957,0,.91211-.28809.91211-1.08838V20.35938h1.665v8.53173c0,1.79248-.89649,2.8169-2.625,2.8169s-2.625-1.02442-2.625-2.8169V20.35938Z"/><path class="cls-1" d="M127.64648,20.35938h1.76172v9.604h2.89649V31.564h-4.65821Z"/><path class="cls-1" d="M134.25488,20.35938h5.44239V21.96h-1.84082v9.604H136.0957V21.96h-1.84082Z"/><path class="cls-1" d="M145.83984,31.564a3.45207,3.45207,0,0,1-.16015-1.37646V28.42676c0-1.04053-.35157-1.42481-1.15235-1.42481h-.60742v4.562H142.1582V20.35938h2.65821c1.82421,0,2.60839.84863,2.60839,2.57714v.88037a2.234,2.234,0,0,1-1.15234,2.27295c.87988.36817,1.16895,1.21631,1.16895,2.38477v1.729a3.30422,3.30422,0,0,0,.1914,1.36035Zm-1.91992-9.604v3.44141h.6875c.65625,0,1.05664-.28809,1.05664-1.18457V23.1123c0-.80029-.27148-1.15234-.89648-1.15234Z"/><path class="cls-1" d="M155.98535,31.564H154.209l-.30468-2.03271h-2.16016l-.30469,2.03271h-1.61621l1.792-11.20458h2.57813Zm-4.01758-3.55322h1.69629l-.84765-5.6665Z"/><path class="cls-1" d="M165.03906,20.23145c1.71289,0,2.59375,1.02441,2.59375,2.81689v.35254h-1.665v-.46436c0-.80029-.31933-1.10449-.87988-1.10449s-.88086.3042-.88086,1.10449c0,2.30469,3.44141,2.73731,3.44141,5.93848,0,1.79248-.89649,2.81689-2.625,2.81689s-2.625-1.02441-2.625-2.81689v-.68848h1.66406v.8003c0,.80029.35254,1.08838.91309,1.08838.55957,0,.91211-.28809.91211-1.08838,0-2.30469-3.44141-2.73682-3.44141-5.93848C162.44629,21.25586,163.32617,20.23145,165.03906,20.23145Z"/><path class="cls-1" d="M170.207,23.04834a2.67653,2.67653,0,1,1,5.3457,0V28.875a2.67653,2.67653,0,1,1-5.3457,0Zm1.75977,5.93848c0,.80029.35254,1.10449.91308,1.10449.55957,0,.91211-.3042.91211-1.10449v-6.0503c0-.80029-.35254-1.10449-.91211-1.10449-.56054,0-.91308.3042-.91308,1.10449Z"/><path class="cls-1" d="M180.0625,20.35938v8.64355c0,.80029.35254,1.08838.91309,1.08838.55957,0,.91211-.28809.91211-1.08838V20.35938h1.665v8.53173c0,1.79248-.89648,2.8169-2.625,2.8169s-2.625-1.02442-2.625-2.8169V20.35938Z"/><path class="cls-1" d="M190.12891,31.564a3.43261,3.43261,0,0,1-.16016-1.37646V28.42676c0-1.04053-.35254-1.42481-1.15234-1.42481H188.207v4.562h-1.75976V20.35938h2.65625c1.82519,0,2.60937.84863,2.60937,2.57714v.88037a2.234,2.234,0,0,1-1.15234,2.27295c.88086.36817,1.168,1.21631,1.168,2.38477v1.729a3.30369,3.30369,0,0,0,.19238,1.36035ZM188.207,21.96v3.44141h.68945c.65625,0,1.05567-.28809,1.05567-1.18457V23.1123c0-.80029-.27246-1.15234-.89551-1.15234Z"/></svg>