<svg id="Content" xmlns="http://www.w3.org/2000/svg" viewBox="0 0 728 90"><defs><style>.cls-1{fill:#ba9544;}</style></defs><title>Frame1 - MK Ultra</title><path class="cls-1" d="M291.52,51.41l2.85-18.88h5.81V59.12h-3.95V40.05l-2.89,19.07h-3.95l-3.11-18.8v18.8h-3.65V32.53h5.81Z"/><path class="cls-1" d="M312.72,48.52,311.43,51v8.16h-4.18V32.53h4.18V44.12l5.47-11.59h4.18l-5.81,11.85,5.81,14.74h-4.29Z"/><path class="cls-1" d="M340.92,32.53V53.05c0,1.9.84,2.58,2.17,2.58s2.16-.68,2.16-2.58V32.53h3.95V52.78c0,4.26-2.12,6.69-6.23,6.69s-6.23-2.43-6.23-6.69V32.53Z"/><path class="cls-1" d="M356.08,32.53h4.18v22.8h6.88v3.79H356.08Z"/><path class="cls-1" d="M371.78,32.53H384.7v3.8h-4.37V59.12h-4.18V36.33h-4.37Z"/><path class="cls-1" d="M399.29,59.12a8.1,8.1,0,0,1-.38-3.26V51.68c0-2.47-.84-3.38-2.74-3.38h-1.44V59.12h-4.18V32.53h6.31c4.33,0,6.19,2,6.19,6.12v2.09c0,2.73-.88,4.52-2.74,5.39,2.09.87,2.78,2.89,2.78,5.66V55.9a7.74,7.74,0,0,0,.45,3.22Zm-4.56-22.79V44.5h1.63c1.56,0,2.51-.69,2.51-2.81V39.06c0-1.9-.65-2.73-2.13-2.73Z"/><path class="cls-1" d="M423.38,59.12h-4.22l-.72-4.82h-5.13l-.72,4.82h-3.84L413,32.53h6.11Zm-9.54-8.43h4l-2-13.45Z"/></svg>