<svg id="Content" xmlns="http://www.w3.org/2000/svg" viewBox="0 0 728 360"><defs><style>.cls-1{fill:#fff;stroke:#ba9544;stroke-miterlimit:10;stroke-width:0.5px;}.cls-2{fill:#ba9544;}</style></defs><title>THC - Shishkaberry</title><polygon class="cls-1" points="635.28 170.59 402.67 169.71 390.93 186.64 402.67 203.27 635.28 202.88 645.84 186.73 635.28 170.59"/><polygon class="cls-2" points="402.84 169.71 391.1 186.64 402.84 203.27 431.6 203.27 431.6 169.71 402.84 169.71"/><path class="cls-2" d="M535.81,181.09v2.13H532v9.26h-2.28v-9.26h-3.79v-2.13Z"/><path class="cls-2" d="M537.5,192.48V181.09h2.28v4.56h5.3v-4.56h2.28v11.38h-2.28v-4.71h-5.3v4.71Z"/><path class="cls-2" d="M550.9,190.85a5.55,5.55,0,0,1-1.64-4.09,5.6,5.6,0,0,1,5.69-5.67,6.17,6.17,0,0,1,4.18,1.52l-1.52,1.66a4.22,4.22,0,0,0-2.66-.91,3.35,3.35,0,0,0-2.47,1,3.29,3.29,0,0,0-.94,2.43A3.23,3.23,0,0,0,555,190.2a4.09,4.09,0,0,0,2.65-.9l1.52,1.66a6.1,6.1,0,0,1-4.18,1.52A5.54,5.54,0,0,1,550.9,190.85Z"/><path class="cls-2" d="M561.68,185.22a1.09,1.09,0,0,1,.82-.31,1.11,1.11,0,0,1,.85.31,1,1,0,0,1,.31.76,1,1,0,0,1-.31.76,1.28,1.28,0,0,1-1.67,0,1,1,0,0,1-.3-.76A1,1,0,0,1,561.68,185.22Zm0,5.44a1.09,1.09,0,0,1,.82-.31,1.11,1.11,0,0,1,.85.31,1.09,1.09,0,0,1,0,1.52,1.31,1.31,0,0,1-1.67,0,1.11,1.11,0,0,1,0-1.52Z"/><path class="cls-2" d="M573.81,181.09h2.27v11.39h-2.27v-8.35l-1.52,1.52-1.52-1.52Z"/><path class="cls-2" d="M583.38,181.1h2.27v6.62h1.53V190h-1.53v2.5h-2.27V190h-5.17v-2.27h.08l-.07-.08Zm0,6.61v-3.63l-2.77,3.63Z"/><path class="cls-2" d="M588.92,189.44v-1.51h4.71v1.51Z"/><path class="cls-2" d="M598.54,181.09h2.27v11.39h-2.27v-8.35L597,185.65l-1.52-1.52Z"/><path class="cls-2" d="M609.22,186.71l.37.15a2.25,2.25,0,0,1,1.17,2.28,2.91,2.91,0,0,1-1.1,2.54,5.46,5.46,0,0,1-5.69,0,2.93,2.93,0,0,1-1.1-2.54,2.24,2.24,0,0,1,1.18-2.28l.37-.15-.22-.11a2.25,2.25,0,0,1-1-2.17,3.1,3.1,0,0,1,1-2.46,3.86,3.86,0,0,1,2.67-.88,3.81,3.81,0,0,1,2.64.88,3.1,3.1,0,0,1,1,2.46,2.26,2.26,0,0,1-1,2.17Zm-2.4-1a1.45,1.45,0,0,0,1.29-.52,1.26,1.26,0,0,0,0-1.3,1.48,1.48,0,0,0-1.29-.63,1.46,1.46,0,0,0-1.29.63,1.22,1.22,0,0,0,0,1.3A1.45,1.45,0,0,0,606.82,185.68Zm0,2.09a1.69,1.69,0,0,0-1.29.65,1.2,1.2,0,0,0,0,1.29,1.44,1.44,0,0,0,1.29.64,1.47,1.47,0,0,0,1.29-.64,1.25,1.25,0,0,0,0-1.29A1.69,1.69,0,0,0,606.82,187.77Z"/><path class="cls-2" d="M613.42,185.9a2.91,2.91,0,0,1,0-4.07,2.85,2.85,0,0,1,4.88,2,2.77,2.77,0,0,1-.82,2,2.92,2.92,0,0,1-4.06,0Zm2-.53a1.37,1.37,0,0,0,1-.44,1.48,1.48,0,0,0,.4-1.07,1.52,1.52,0,0,0-.4-1.08,1.4,1.4,0,0,0-1.05-.43,1.37,1.37,0,0,0-1,.43,1.53,1.53,0,0,0-.41,1.08,1.49,1.49,0,0,0,.41,1.07A1.35,1.35,0,0,0,615.43,185.37Zm-.61,7.11,6.45-11.39h1.86l-6.44,11.39Zm5.66-.75a2.91,2.91,0,1,1,2,.81A2.72,2.72,0,0,1,620.48,191.73Zm2-.55a1.29,1.29,0,0,0,1-.43,1.57,1.57,0,0,0,0-2.09,1.44,1.44,0,0,0-2,0,1.6,1.6,0,0,0,0,2.09A1.3,1.3,0,0,0,622.46,191.18Z"/></svg>