<svg id="Layer_1" data-name="Layer 1" xmlns="http://www.w3.org/2000/svg" xmlns:xlink="http://www.w3.org/1999/xlink" width="320" height="50" viewBox="0 0 320 50"><defs><style>.cls-1{fill:url(#linear-gradient);}.cls-2{fill:url(#linear-gradient-2);}.cls-3{fill:url(#linear-gradient-3);}.cls-4{fill:url(#linear-gradient-4);}.cls-5{fill:url(#linear-gradient-5);}.cls-6{fill:url(#linear-gradient-6);}.cls-7{fill:url(#linear-gradient-7);}</style><linearGradient id="linear-gradient" x1="131.93917" y1="24.29182" x2="138.32618" y2="24.29182" gradientTransform="matrix(1, 0, 0, -1, 0, 52)" gradientUnits="userSpaceOnUse"><stop offset="0" stop-color="#cab272"/><stop offset="0.20527" stop-color="#cdb36c"/><stop offset="0.4882" stop-color="#d4b75a"/><stop offset="0.50029" stop-color="#d4b759"/><stop offset="0.74962" stop-color="#d4b563"/><stop offset="1" stop-color="#d3b372"/></linearGradient><linearGradient id="linear-gradient-2" x1="141.61623" y1="24.37638" x2="148.56711" y2="24.37638" xlink:href="#linear-gradient"/><linearGradient id="linear-gradient-3" x1="151.8725" y1="24.37808" x2="158.20971" y2="24.37808" xlink:href="#linear-gradient"/><linearGradient id="linear-gradient-4" x1="161.32225" y1="24.37638" x2="166.82137" y2="24.37638" xlink:href="#linear-gradient"/><linearGradient id="linear-gradient-5" x1="169.70115" y1="24.29182" x2="176.08816" y2="24.29182" xlink:href="#linear-gradient"/><linearGradient id="linear-gradient-6" x1="179.34884" y1="24.37969" x2="185.73518" y2="24.37969" xlink:href="#linear-gradient"/><linearGradient id="linear-gradient-7" x1="188.62263" y1="18.69038" x2="190.63901" y2="18.69038" xlink:href="#linear-gradient"/></defs><title>frame1</title><path class="cls-1" d="M135.12132,34.4791a3.16682,3.16682,0,0,1-3.18211-3.15145q-.00008-.01168,0-.02337V20.93679h1.97235V31.28228a1.10322,1.10322,0,0,0,.34113.81387,1.12078,1.12078,0,0,0,.81736.33728,1.145,1.145,0,0,0,1.15116-1.13881q0-.00618,0-.01234V20.93679h2.10432V31.30428a3.03226,3.03226,0,0,1-.93851,2.2583A3.12488,3.12488,0,0,1,135.12132,34.4791Z"/><path class="cls-2" d="M143.88187,20.93679l2.6689,8.98171V20.93679h2.01634V34.31046h-2.15984l-2.7747-8.56395v8.56395h-2.01634V20.93679Z"/><path class="cls-3" d="M155.04733,20.93679a3.06136,3.06136,0,0,1,2.34629.93118,3.21116,3.21116,0,0,1,.81387,2.25831v1.94284a3.10616,3.10616,0,0,1-.92246,2.2583,3.01432,3.01432,0,0,1-2.23246.93852h-1.16372v5.04452H151.8725V20.93679Zm1.20247,3.22615a1.16208,1.16208,0,0,0-.31074-.84687,1.11438,1.11438,0,0,0-.83692-.31894h-1.21329v4.27446h1.21329a1.09423,1.09423,0,0,0,.81493-.34077,1.12981,1.12981,0,0,0,.33273-.8177Z"/><path class="cls-4" d="M166.82137,34.31046h-5.49912V20.93679h2.01634v11.372h3.48278Z"/><path class="cls-5" d="M172.8833,34.4791a3.16682,3.16682,0,0,1-3.18211-3.15145q-.00007-.01168,0-.02337V20.93679h1.97235V31.28228a1.10325,1.10325,0,0,0,.34112.81387,1.12081,1.12081,0,0,0,.81737.33728,1.145,1.145,0,0,0,1.15115-1.13881q0-.00618,0-.01234V20.93679h2.10433V31.30428a3.03229,3.03229,0,0,1-.93851,2.2583A3.12489,3.12489,0,0,1,172.8833,34.4791Z"/><path class="cls-6" d="M182.54568,34.4791a3.19179,3.19179,0,0,1-3.19682-3.18675V23.965a3.19317,3.19317,0,0,1,6.38631-.02062q0,.01031,0,.02062v1.52491h-2.08968v-1.5616a1.16376,1.16376,0,0,0-1.16171-1.16581h-.0041a1.10317,1.10317,0,0,0-.81388.34094,1.12983,1.12983,0,0,0-.33726.82487v7.33931a1.15155,1.15155,0,0,0,1.14462,1.15846l.00652,0a1.13021,1.13021,0,0,0,.825-.33728,1.11143,1.11143,0,0,0,.34078-.8212V28.63537h-1.12181V26.619h3.21148v4.67058a3.18521,3.18521,0,0,1-3.18092,3.18949h-.00856Z"/><path class="cls-7" d="M188.62263,32.30145H190.639v2.01634h-2.01634Z"/></svg>