<svg id="Layer_1" data-name="Layer 1" xmlns="http://www.w3.org/2000/svg" xmlns:xlink="http://www.w3.org/1999/xlink" width="320" height="50" viewBox="0 0 320 50"><defs><style>.cls-1{fill:none;}.cls-2{clip-path:url(#clip-path);}.cls-3{clip-path:url(#clip-path-2);}.cls-4{fill:url(#linear-gradient);}.cls-5{clip-path:url(#clip-path-3);}.cls-6{fill:url(#linear-gradient-2);}.cls-7{clip-path:url(#clip-path-4);}.cls-8{fill:url(#linear-gradient-3);}.cls-9{clip-path:url(#clip-path-5);}.cls-10{fill:url(#linear-gradient-4);}.cls-11{clip-path:url(#clip-path-6);}.cls-12{fill:url(#linear-gradient-5);}.cls-13{clip-path:url(#clip-path-7);}.cls-14{fill:url(#linear-gradient-6);}.cls-15{clip-path:url(#clip-path-8);}.cls-16{fill:url(#linear-gradient-7);}.cls-17{clip-path:url(#clip-path-9);}.cls-18{fill:url(#linear-gradient-8);}.cls-19{clip-path:url(#clip-path-10);}.cls-20{fill:url(#linear-gradient-9);}.cls-21{clip-path:url(#clip-path-11);}.cls-22{fill:url(#linear-gradient-10);}.cls-23{clip-path:url(#clip-path-12);}.cls-24{fill:url(#linear-gradient-11);}.cls-25{clip-path:url(#clip-path-13);}.cls-26{fill:url(#linear-gradient-12);}.cls-27{clip-path:url(#clip-path-14);}.cls-28{fill:url(#linear-gradient-13);}.cls-29{clip-path:url(#clip-path-15);}.cls-30{fill:url(#linear-gradient-14);}.cls-31{clip-path:url(#clip-path-16);}.cls-32{fill:url(#linear-gradient-15);}.cls-33{clip-path:url(#clip-path-17);}.cls-34{fill:url(#linear-gradient-16);}.cls-35{clip-path:url(#clip-path-18);}.cls-36{fill:url(#linear-gradient-17);}.cls-37{clip-path:url(#clip-path-19);}.cls-38{fill:url(#linear-gradient-18);}.cls-39{clip-path:url(#clip-path-20);}.cls-40{fill:url(#linear-gradient-19);}.cls-41{clip-path:url(#clip-path-21);}.cls-42{fill:url(#linear-gradient-20);}</style><clipPath id="clip-path"><rect class="cls-1" x="11.52318" y="12.32124" width="93.39311" height="21.22144"/></clipPath><clipPath id="clip-path-2"><path class="cls-1" d="M99.86694,16.70554V18.0441h-.26587V16.70554H99.103V16.4666h1.26393v.23894Zm2.11193,1.33856-.00212-1.1785-.49787,1.01383h-.17372l-.49807-1.01383v1.1785h-.2499V16.4666h.31531l.52057,1.04789.51845-1.04789h.3132v1.5775Z"/></clipPath><linearGradient id="linear-gradient" x1="-548.6307" y1="351.69329" x2="-548.26673" y2="351.69329" gradientTransform="translate(-5091.83852 3346.94501) rotate(-179.99994) scale(9.46761)" gradientUnits="userSpaceOnUse"><stop offset="0" stop-color="#ad8f35"/><stop offset="0.18781" stop-color="#ceb467"/><stop offset="0.46098" stop-color="#a58f4b"/><stop offset="0.76341" stop-color="#ceb467"/><stop offset="1" stop-color="#997f2f"/></linearGradient><clipPath id="clip-path-3"><polygon class="cls-1" points="39.711 22.12 45.054 27.463 45.686 27.463 45.686 18.845 43.962 18.845 43.962 24.246 38.562 18.845 37.988 18.845 37.988 27.463 39.711 27.463 39.711 22.12"/></clipPath><linearGradient id="linear-gradient-2" x1="-514.62315" y1="413.84697" x2="-514.51871" y2="413.84697" gradientTransform="translate(30850.64052 38330.3551) rotate(90.00001) scale(74.44493)" xlink:href="#linear-gradient"/><clipPath id="clip-path-4"><path class="cls-1" d="M55.63071,27.45717l-3.44145-8.61181H50.46574l-3.447,8.61739H48.8571l.51712-1.32106H53.281l.51692,1.32106Zm-5.567-3.03919,1.3099-3.27466L52.64885,24.418Z"/></clipPath><linearGradient id="linear-gradient-3" x1="-514.50184" y1="413.84664" x2="-514.38513" y2="413.84664" gradientTransform="translate(30860.10876 38320.86337) rotate(90) scale(74.44493)" xlink:href="#linear-gradient"/><clipPath id="clip-path-5"><polygon class="cls-1" points="65.541 18.845 64.966 18.845 61.226 23.097 57.492 18.845 56.918 18.845 56.918 27.463 58.641 27.463 58.641 22.465 61.226 25.337 63.811 22.465 63.817 27.463 65.541 27.463 65.541 18.845"/></clipPath><linearGradient id="linear-gradient-4" x1="-514.36888" y1="413.84665" x2="-514.25202" y2="413.84665" gradientTransform="translate(30870.01914 38310.95527) rotate(89.99999) scale(74.44493)" xlink:href="#linear-gradient"/><clipPath id="clip-path-6"><path class="cls-1" d="M75.41662,27.45717l-3.44145-8.61181H70.25165l-3.447,8.61739h1.83856l.51711-1.32106H73.067l.51711,1.32106ZM69.84978,24.418l1.3097-3.27466L72.43476,24.418Z"/></clipPath><linearGradient id="linear-gradient-5" x1="-514.23607" y1="413.84631" x2="-514.11936" y2="413.84631" gradientTransform="translate(30879.87004 38301.07825) rotate(90) scale(74.44493)" xlink:href="#linear-gradient"/><clipPath id="clip-path-7"><path class="cls-1" d="M77.49335,19.53754a2.14478,2.14478,0,0,0-.9794,1.83586,1.90709,1.90709,0,0,0,.86186,1.78085,4.63489,4.63489,0,0,0,1.89569.63177q1.14879.11543,1.4336.60349a.91055.91055,0,0,1,0,.97651q-.28452.48827-1.4336.48826a2.72946,2.72946,0,0,1-1.95322-.80434L76.16921,26.199a4.34619,4.34619,0,0,0,1.37877.91918,5.10364,5.10364,0,0,0,2.00516.34455,3.48171,3.48171,0,0,0,2.21466-.74662,2.20979,2.20979,0,0,0,.95073-1.781,2.1575,2.1575,0,0,0-.89032-1.92455,4.27708,4.27708,0,0,0-1.98208-.718,2.27129,2.27129,0,0,1-1.32144-.51731.67186.67186,0,0,1,0-.833q.2874-.488,1.32144-.48825a1.97911,1.97911,0,0,1,1.60867.6891l1.14888-1.14889a4.017,4.017,0,0,0-1.23507-.86166,4.80787,4.80787,0,0,0-1.86145-.28722,3.451,3.451,0,0,0-2.01381.69218"/></clipPath><linearGradient id="linear-gradient-6" x1="-514.11028" y1="413.84635" x2="-514.02128" y2="413.84635" gradientTransform="translate(30888.20671 38292.74533) rotate(90) scale(74.44493)" xlink:href="#linear-gradient"/><clipPath id="clip-path-8"><polygon class="cls-1" points="83.822 18.845 83.822 20.454 86.694 20.454 86.694 27.463 88.418 27.463 88.418 20.454 91.29 20.454 91.29 18.845 83.822 18.845"/></clipPath><linearGradient id="linear-gradient-7" x1="-514.00749" y1="413.84636" x2="-513.90615" y2="413.84636" gradientTransform="translate(30896.31904 38284.63356) rotate(90) scale(74.44493)" xlink:href="#linear-gradient"/><clipPath id="clip-path-9"><polygon class="cls-1" points="92.548 18.851 92.548 27.463 98.868 27.463 98.868 25.854 94.272 25.854 94.272 23.895 97.725 23.895 97.725 22.293 94.272 22.293 94.272 20.454 98.879 20.454 98.879 18.845 92.548 18.851"/></clipPath><linearGradient id="linear-gradient-8" x1="-513.89027" y1="413.84607" x2="-513.80421" y2="413.84607" gradientTransform="translate(30904.46107 38276.47179) rotate(89.99999) scale(74.44493)" xlink:href="#linear-gradient"/><clipPath id="clip-path-10"><path class="cls-1" d="M23.32059,12.32124A27.67825,27.67825,0,0,0,21.812,16.40485l-.44189,1.62829L21.236,16.916a18.3205,18.3205,0,0,0-.39091,2.2968,3.69762,3.69762,0,0,0,.077,1.1358l.49229,2.27565-1.0171-1.89185a9.66592,9.66592,0,0,0,.28895,3.82217l.87167,3.04612L20.08,24.79831a.46936.46936,0,0,0-.02694-.045l-.1716.11831-.18757-.26183a8.88962,8.88962,0,0,0-.85223-1.0196l.38206,1.88107-1.0758-2.06076a3.24138,3.24138,0,0,0-.54212-.75971c-.3509-.3557-.71911-.69717-1.09963-1.02095l.47094.733-1.47593-1.11869a26.18429,26.18429,0,0,0-2.98282-1.92166A21.60123,21.60123,0,0,0,13.63165,22.4l.75239,1.63695-.62773-.62c.221.40918.46363.81356.72469,1.20832a3.33927,3.33927,0,0,0,.64254.69718l2.02517,1.6862-1.98727-.95112A8.90953,8.90953,0,0,0,17.1868,28.1482l-.27029.44574-.03386.25567-.01154-.00173,1.48766,1.10829-2.45821-1.02461a2.63182,2.63182,0,0,0-.49691-.15333l.23451.07676-2.10693-.00481a18.1421,18.1421,0,0,0-2.00805.12159,16.57169,16.57169,0,0,0,1.71679.94381l1.85376.86974-.21316-.02578a2.78841,2.78841,0,0,0,.47.06l2.80911.12447-1.91667.36533a6.89991,6.89991,0,0,0,1.38436.15217l2.033.01327-1.1889.38591,1.82663.31722-2.81276.16911q-.06752.004-.13178.01211l-1.29047.6312c-.33108.16179-.64.33762-.92534.51345.354.02752.73527.04425,1.12156.03713l1.47016-.02616c.04-.01424.08041-.03.12062-.04732l2.4332-1.05943-1.22776.94669a4.24749,4.24749,0,0,0,.48191-.206s.19161.11043.228.141a.86124.86124,0,0,0,.10331-.02251,4.332,4.332,0,0,0,1.06616-.62254,4.48251,4.48251,0,0,1,1.19544-.68217,2.95246,2.95246,0,0,1,.41861-.07791,1.14525,1.14525,0,0,1-.55116-.34378c-.26626-.26606-.36783-.62542-.1112-.70122.25625-.07561.72123.35936.75124.35936a.55338.55338,0,0,0,.15544-.358c0-.15371-.11-.45228-.13024-.63273a3.02118,3.02118,0,0,0-.10946-.52384c-.04-.11909-.31781-.17064-.4671-.26279a2.438,2.438,0,0,1-.37648-.26048,1.19121,1.19121,0,0,1-.16006-.54616,2.15574,2.15574,0,0,0-.08984-.55636c-.05194-.09716-.18545-.16584-.27587-.25644a.38788.38788,0,0,1-.09292-.23874c.06926-.02174.091.15658.171.17178s.07445.08119.20008.12467c.12543.0429.12966.10253.14582.21931s.15717.51192.20354.67294c.04636.1612.095.2824.25413.2878.1589.00518.13736.08772.32454.07253a1.04365,1.04365,0,0,1,.44882.08657c.10061.03539.2272.03886.27048-.03136.04329-.07041-.03039-.35378-.03039-.35378-.06483,0-.076-.08754-.10062-.16873-.02462-.08138.01539-.08753.01539-.08753a.34281.34281,0,1,1,.65313,0s.04.00615.0152.08753c-.025.08119-.03559.16873-.10062.16873,0,0-.07368.28336-.03059.35378.04367.07022.16987.06675.27087.03136a1.04105,1.04105,0,0,1,.44882-.08657c.187.01519.16545-.06735.32435-.07253.1591-.0054.20777-.1266.25432-.2878.04656-.161.187-.55616.20335-.67294.01616-.11677.02058-.17641.146-.21931.12524-.04348.12-.10947.20008-.12467s.10177-.19352.171-.17178a.3874.3874,0,0,1-.09311.23874c-.09023.09061-.22393.15929-.27549.25644a2.12976,2.12976,0,0,0-.09.55636,1.19109,1.19109,0,0,1-.16006.54616,2.46676,2.46676,0,0,1-.37648.26048c-.14929.09215-.42727.1437-.46729.26279a3.00443,3.00443,0,0,0-.10927.52384c-.02078.18045-.13024.479-.13024.63273a.55345.55345,0,0,0,.15525.358c.03,0,.49537-.435.75162-.35936.25644.0758.15487.43516-.11139.70122a1.14253,1.14253,0,0,1-.55135.34378,2.94094,2.94094,0,0,1,.41861.07791,4.48853,4.48853,0,0,1,1.19544.68217,4.33885,4.33885,0,0,0,1.066.62254.9133.9133,0,0,0,.10331.02251c.03655-.0304.22835-.141.22835-.141a4.26071,4.26071,0,0,0,.48172.206L26.35805,32.408l2.433,1.05943c.04021.01731.08022.03308.12043.04732l1.47092.02616c.38591.00712.767-.00962,1.12118-.03713-.2853-.17583-.59445-.35166-.92553-.51345l-1.29047-.6312c-.04252-.00537-.08677-.00941-.1314-.01211l-2.81276-.16911,1.82779-.31742-1.18506-.38572L29.014,31.4615a6.90055,6.90055,0,0,0,1.38436-.15217L28.48171,30.944l2.80892-.12447a2.78835,2.78835,0,0,0,.47017-.06l-.21335.02578,1.85376-.86974a16.55381,16.55381,0,0,0,1.717-.94381,18.14591,18.14591,0,0,0-2.008-.12159L31.003,28.855l.2347-.07676a2.63826,2.63826,0,0,0-.4971.15333l-2.458,1.02461,1.48747-1.10829-.01135.00173-.03386-.25567-.27029-.44574a8.91272,8.91272,0,0,0,2.02536-2.09077l-1.98727.95112,2.02478-1.6862a3.34663,3.34663,0,0,0,.64293-.69718c.26106-.39476.50345-.79914.72469-1.20832l-.62773.62.75239-1.637a21.63914,21.63914,0,0,0,1.1131-3.07747A26.21883,26.21883,0,0,0,31.14,21.24412l-1.473,1.11657.46978-.73219c-.3811.32415-.7495.666-1.10117,1.02229a3.23718,3.23718,0,0,0-.54231.75971l-1.07578,2.06075.38225-1.88107a8.91433,8.91433,0,0,0-.85243,1.0196l-.18737.26183-.172-.11831a.47291.47291,0,0,0-.02674.045l-1.47769,2.8022.87148-3.04593a9.66754,9.66754,0,0,0,.28914-3.82256l-1.01768,1.89166.49287-2.27545a3.70549,3.70549,0,0,0,.077-1.13542,18.35648,18.35648,0,0,0-.39092-2.2968l-.13428,1.11714-.4417-1.62829A27.69161,27.69161,0,0,0,23.32059,12.32124Z"/></clipPath><linearGradient id="linear-gradient-9" x1="-514.9794" y1="413.84653" x2="-514.65994" y2="413.84653" gradientTransform="translate(30832.09661 38348.64883) rotate(90) scale(74.44493)" xlink:href="#linear-gradient"/><clipPath id="clip-path-11"><path class="cls-1" d="M50.242,31.82416h1.40743q.59388.017.60792.42823a.55853.55853,0,0,1-.61657.61927H50.242Zm0-1.71294h1.20755q.50845.017.5225.33128a.48332.48332,0,0,1-.531.53385H50.242Zm-.85917-.85069V33.54l2.40935.0027a1.216,1.216,0,0,0,.6966-2.261.89621.89621,0,0,0,.30819-.7622q-.05973-1.1958-1.142-1.25892Z"/></clipPath><linearGradient id="linear-gradient-10" x1="-514.46884" y1="413.86228" x2="-514.4186" y2="413.86228" gradientTransform="translate(30861.17741 38329.13231) rotate(90.00001) scale(74.44493)" xlink:href="#linear-gradient"/><clipPath id="clip-path-12"><polygon class="cls-1" points="56.702 29.258 55.686 30.657 54.693 29.258 53.688 29.258 55.258 31.399 55.258 33.54 56.114 33.54 56.114 31.399 57.684 29.258 56.702 29.258"/></clipPath><linearGradient id="linear-gradient-11" x1="-514.41102" y1="413.86234" x2="-514.35682" y2="413.86234" gradientTransform="translate(30865.639 38324.6738) rotate(90) scale(74.44493)" xlink:href="#linear-gradient"/><clipPath id="clip-path-13"><polygon class="cls-1" points="60.245 29.258 60.248 30.057 62.243 30.057 60.248 33.254 60.245 33.54 63.673 33.54 63.673 32.74 61.669 32.74 63.673 29.572 63.673 29.258 60.245 29.258"/></clipPath><linearGradient id="linear-gradient-12" x1="-514.32294" y1="413.86216" x2="-514.27638" y2="413.86216" gradientTransform="translate(30871.89834 38318.40089) rotate(90) scale(74.44493)" xlink:href="#linear-gradient"/><clipPath id="clip-path-14"><polygon class="cls-1" points="64.749 29.261 64.749 33.54 67.889 33.54 67.889 32.74 65.606 32.74 65.606 31.767 67.321 31.767 67.321 30.971 65.606 30.971 65.606 30.057 67.895 30.057 67.895 29.258 64.749 29.261"/></clipPath><linearGradient id="linear-gradient-13" x1="-514.26244" y1="413.86208" x2="-514.21967" y2="413.86208" gradientTransform="translate(30876.25577 38314.03821) rotate(90) scale(74.44493)" xlink:href="#linear-gradient"/><clipPath id="clip-path-15"><polygon class="cls-1" points="71.726 29.258 71.726 31.941 69.043 29.258 68.757 29.258 68.757 33.54 69.614 33.54 69.614 30.885 72.269 33.54 72.583 33.54 72.583 29.258 71.726 29.258"/></clipPath><linearGradient id="linear-gradient-14" x1="-514.2086" y1="413.86201" x2="-514.15671" y2="413.86201" gradientTransform="translate(30880.59819 38309.69054) rotate(90) scale(74.44493)" xlink:href="#linear-gradient"/><clipPath id="clip-path-16"><path class="cls-1" d="M75.40874,30.3996l.63369,1.62713h-1.2847Zm-.45114-1.14177L73.24486,33.54h.91342l.257-.65678h1.9411l.257.65678.91014-.00308-1.70928-4.27907Z"/></clipPath><linearGradient id="linear-gradient-15" x1="-514.14832" y1="413.86184" x2="-514.09034" y2="413.86184" gradientTransform="translate(30885.30011 38304.9764) rotate(90) scale(74.44493)" xlink:href="#linear-gradient"/><clipPath id="clip-path-17"><path class="cls-1" d="M78.95677,31.82416h1.40782c.39534.01135.59849.1541.60754.42823a.55828.55828,0,0,1-.61658.61927H78.95677Zm0-1.71294h1.20794c.33839.01135.51307.12178.52192.33128a.48279.48279,0,0,1-.531.53385h-1.1989Zm-.85878-.85069V33.54l2.40915.0027a1.21617,1.21617,0,0,0,.69661-2.261.899.899,0,0,0,.30838-.7622q-.06-1.1958-1.142-1.25892Z"/></clipPath><linearGradient id="linear-gradient-16" x1="-514.08312" y1="413.86179" x2="-514.03289" y2="413.86179" gradientTransform="translate(30889.84692 38300.39607) rotate(90) scale(74.4449)" xlink:href="#linear-gradient"/><clipPath id="clip-path-18"><rect class="cls-1" x="82.65389" y="29.25495" width="0.853" height="4.28503"/></clipPath><linearGradient id="linear-gradient-17" x1="-514.02194" y1="413.8618" x2="-514.00997" y2="413.8618" gradientTransform="matrix(0.00001, 74.44493, -74.44493, 0.00001, 30892.99819, 38297.27499)" xlink:href="#linear-gradient"/><clipPath id="clip-path-19"><path class="cls-1" d="M84.7589,29.602a1.0649,1.0649,0,0,0-.48652.91187.94662.94662,0,0,0,.42785.88475,2.30021,2.30021,0,0,0,.94207.31415q.57165.05714.712.29973a.45033.45033,0,0,1,0,.48537q-.14053.24269-.712.24259a1.35762,1.35762,0,0,1-.97036-.39957l-.571.57078a2.1639,2.1639,0,0,0,.68506.45691,2.53562,2.53562,0,0,0,.99671.17141,1.72954,1.72954,0,0,0,1.10042-.37129,1.09888,1.09888,0,0,0,.47209-.88494,1.07251,1.07251,0,0,0-.44228-.95631,2.122,2.122,0,0,0-.98517-.35686,1.12878,1.12878,0,0,1-.6564-.25683.335.335,0,0,1,0-.414q.14285-.243.6564-.24258a.98182.98182,0,0,1,.79933.34243l.571-.571a1.98607,1.98607,0,0,0-.61331-.42823,2.39539,2.39539,0,0,0-.92514-.14256,1.71472,1.71472,0,0,0-1.00075.34417"/></clipPath><linearGradient id="linear-gradient-18" x1="-514.0025" y1="413.86176" x2="-513.95828" y2="413.86176" gradientTransform="translate(30895.64316 38294.62883) rotate(89.99999) scale(74.44493)" xlink:href="#linear-gradient"/><clipPath id="clip-path-20"><rect class="cls-1" x="37.98751" y="31.33725" width="7.6984" height="0.93746"/></clipPath><linearGradient id="linear-gradient-19" x1="-514.62166" y1="413.86326" x2="-514.51814" y2="413.86326" gradientTransform="matrix(0, 74.44493, -74.44493, 0, 30851.85773, 38338.92602)" xlink:href="#linear-gradient"/><clipPath id="clip-path-21"><rect class="cls-1" x="91.18087" y="31.33725" width="7.69859" height="0.93746"/></clipPath><linearGradient id="linear-gradient-20" x1="-513.90715" y1="413.86237" x2="-513.80363" y2="413.86237" gradientTransform="translate(30904.98493 38285.73466) rotate(90) scale(74.44493)" xlink:href="#linear-gradient"/></defs><title>logo</title><g class="cls-2"><g class="cls-3"><rect class="cls-4" x="98.94089" y="15.69048" width="3.44595" height="3.12973" transform="translate(9.62112 63.53904) rotate(-36.67441)"/></g><g class="cls-5"><rect class="cls-6" x="37.49396" y="19.26671" width="8.68548" height="7.77469" transform="translate(18.3117 64.78331) rotate(-89.49072)"/></g><g class="cls-7"><rect class="cls-8" x="46.9779" y="18.80992" width="8.6936" height="8.68826" transform="translate(27.71537 74.27092) rotate(-89.49072)"/></g><g class="cls-9"><rect class="cls-10" x="56.88226" y="18.80436" width="8.6937" height="8.69941" transform="translate(37.53171 84.17494) rotate(-89.49071)"/></g><g class="cls-11"><rect class="cls-12" x="66.76381" y="18.80993" width="8.6936" height="8.68826" transform="translate(47.3254 94.05606) rotate(-89.49072)"/></g><g class="cls-13"><rect class="cls-14" x="75.10621" y="19.84122" width="8.67527" height="6.62566" transform="matrix(0.00889, -0.99996, 0.99996, 0.00889, 55.58458, 102.38894)"/></g><g class="cls-15"><rect class="cls-16" x="83.21424" y="19.38176" width="8.68343" height="7.54461" transform="translate(63.62457 110.50076) rotate(-89.49072)"/></g><g class="cls-17"><rect class="cls-18" x="91.37732" y="19.95041" width="8.67332" height="6.40732" transform="translate(71.71005 118.65846) rotate(-89.49071)"/></g><g class="cls-19"><rect class="cls-20" x="12.60283" y="11.04328" width="21.43571" height="23.78274" transform="translate(0.17966 46.05056) rotate(-89.49072)"/></g><g class="cls-21"><rect class="cls-22" x="49.07665" y="29.53139" width="4.31489" height="3.74043" transform="translate(19.37834 82.35456) rotate(-89.49072)"/></g><g class="cls-23"><rect class="cls-24" x="53.52726" y="29.38162" width="4.3175" height="4.03456" transform="translate(23.79339 86.80363) rotate(-89.49072)"/></g><g class="cls-25"><rect class="cls-26" x="59.80294" y="29.66567" width="4.31245" height="3.46649" transform="translate(30.01077 93.07654) rotate(-89.49072)"/></g><g class="cls-27"><rect class="cls-28" x="64.16706" y="29.80696" width="4.30994" height="3.1839" transform="matrix(0.00889, -0.99996, 0.99996, 0.00889, 34.33486, 97.43923)"/></g><g class="cls-29"><rect class="cls-30" x="68.51188" y="29.46732" width="4.31598" height="3.86316" transform="translate(38.64406 101.78689) rotate(-89.49072)"/></g><g class="cls-31"><rect class="cls-32" x="73.22418" y="29.24063" width="4.32001" height="4.31656" transform="translate(43.31647 106.50103) rotate(-89.49072)"/></g><g class="cls-33"><rect class="cls-34" x="77.79162" y="29.53177" width="4.31488" height="3.73984" transform="translate(47.83786 111.06843) rotate(-89.49063)"/></g><g class="cls-35"><rect class="cls-36" x="80.93417" y="30.95194" width="4.29245" height="0.89105" transform="matrix(0.00889, -0.99996, 0.99996, 0.00889, 50.94569, 114.19549)"/></g><g class="cls-37"><rect class="cls-38" x="83.57265" y="29.75281" width="4.3109" height="3.29221" transform="translate(53.56841 116.84453) rotate(-89.49071)"/></g><g class="cls-39"><rect class="cls-40" x="41.33377" y="27.95277" width="1.00585" height="7.70642" transform="translate(9.66011 73.35832) rotate(-89.49072)"/></g><g class="cls-41"><rect class="cls-42" x="94.52722" y="27.95265" width="1.00585" height="7.70664" transform="translate(62.38075 126.54965) rotate(-89.49072)"/></g></g></svg>