<svg id="Content" xmlns="http://www.w3.org/2000/svg" xmlns:xlink="http://www.w3.org/1999/xlink" width="300" height="250" viewBox="0 0 300 250"><defs><style>.cls-1{fill:url(#New_Gradient_Swatch_1);}.cls-2{fill:#fff;}.cls-3{fill:#ba9544;}</style><linearGradient id="New_Gradient_Swatch_1" x1="164.17513" y1="156.55556" x2="192.99841" y2="156.55556" gradientUnits="userSpaceOnUse"><stop offset="0" stop-color="#a88a34"/><stop offset="0.49324" stop-color="#caaf67"/><stop offset="1" stop-color="#957f2e"/></linearGradient></defs><title>lemon</title><polygon class="cls-1" points="168.609 167.436 164.175 153.355 174.154 142.475 188.566 145.675 192.998 159.758 183.021 170.637 168.609 167.436"/><path class="cls-2" d="M184.58671,154.9488c-.78884-1.922-3.06342-3.239-5.99925-3.21432-2.89331.0247-5.194,1.32936-5.97868,3.21432-.70377.3128-1.52278.97953-1.52278,1.60648,0,.62147.81215,1.29918,1.53925,1.60511.77649,1.86027,3.06066,3.21706,5.96221,3.21706,2.90975,0,5.18709-1.37462,5.99925-3.21706.76-.32788,1.50083-.99188,1.50083-1.60374,0-.62832-.73945-1.28-1.50083-1.60785"/><path class="cls-3" d="M165.93361,179.753v4.41308h2.89355v1.0127h-3.97851V179.753Z"/><path class="cls-3" d="M169.70705,185.1788v-5.42188l3.98633-.0039v1.01269H170.792v1.15723h2.17383v1.00977H170.792v1.23339h2.89355v1.0127Z"/><path class="cls-3" d="M174.78615,185.1788V179.753h.36133l2.35156,2.67676,2.35449-2.67676h.36133v5.42578h-1.085l-.00293-3.14746-1.62793,1.80859-1.62793-1.80859v3.14746Z"/><path class="cls-3" d="M181.79884,184.3995a2.79585,2.79585,0,1,1,1.93555.7793A2.63149,2.63149,0,0,1,181.79884,184.3995Zm1.93946-.2334a1.52612,1.52612,0,0,0,1.17187-.48828,1.85025,1.85025,0,0,0,0-2.42383,1.65977,1.65977,0,0,0-2.35156,0,1.85025,1.85025,0,0,0,0,2.42383A1.53581,1.53581,0,0,0,183.7383,184.1661Z"/><path class="cls-3" d="M187.2549,185.1788V179.753h.36133l3.40039,3.40039V179.753h1.085v5.42578h-.39746l-3.36426-3.36426v3.36426Z"/></svg>