<svg id="Layer_1" data-name="Layer 1" xmlns="http://www.w3.org/2000/svg" width="320" height="480" viewBox="0 0 320 480"><defs><style>.cls-1{fill:#fff;}</style></defs><title>frame1</title><path class="cls-1" d="M81.88159,291.16687a6.98857,6.98857,0,0,1-1.35351,4.457,4.80346,4.80346,0,0,1-2.584,1.76367,6.90829,6.90829,0,0,1-2.09179.28711,5.90913,5.90913,0,0,1-3.66407-1.09375,6.26072,6.26072,0,0,1-1.91406-2.44043,9.65707,9.65707,0,0,1-.82031-3.54785l3.56836-.2461a5.41741,5.41741,0,0,0,1.16211,3.14453,1.90447,1.90447,0,0,0,1.54492.69727,2.3438,2.3438,0,0,0,1.96875-1.20313,3.02431,3.02431,0,0,0,.38281-1.65429,4.607,4.607,0,0,0-1.4082-3.10352q-1.12061-1.05323-3.34961-3.1582a13.842,13.842,0,0,1-2.63867-3.24024,7.51189,7.51189,0,0,1-.834-3.5,6.0926,6.0926,0,0,1,2.28321-5.15429,5.67848,5.67848,0,0,1,3.5-1.05274,6.34234,6.34234,0,0,1,3.44531.90235,5.18473,5.18473,0,0,1,1.791,1.94824,7.34459,7.34459,0,0,1,.834,2.87793l-3.60938.65625a4.214,4.214,0,0,0-.875-2.37891,1.824,1.824,0,0,0-1.49023-.6289,1.73271,1.73271,0,0,0-1.57227.916,3.5366,3.5366,0,0,0-.4375,1.832,5.50621,5.50621,0,0,0,1.47657,3.48633,13.19023,13.19023,0,0,0,1.668,1.58594q1.3125,1.09424,1.73633,1.53125a13.2398,13.2398,0,0,1,2.14649,2.748,9.74413,9.74413,0,0,1,.57422,1.17578A6.99032,6.99032,0,0,1,81.88159,291.16687Z"/><path class="cls-1" d="M92.59839,272.42272a5.71,5.71,0,0,1,4.375,1.73633A5.98759,5.98759,0,0,1,98.491,278.37V281.993a5.79219,5.79219,0,0,1-1.71973,4.21093,5.62014,5.62014,0,0,1-4.16309,1.75H90.43823v9.40625H86.67847v-24.9375Zm2.24219,6.01563a2.168,2.168,0,0,0-.5791-1.5791,2.07889,2.07889,0,0,0-1.56055-.59473h-2.2627v7.9707h2.2627a2.04169,2.04169,0,0,0,1.51953-.63574,2.10652,2.10652,0,0,0,.62012-1.52441Z"/><path class="cls-1" d="M106.93921,297.36022h-3.75977v-24.9375h3.75977Z"/><path class="cls-1" d="M117.9021,272.42272a5.69685,5.69685,0,0,1,4.60742,1.73633,6.27122,6.27122,0,0,1,1.29883,4.21094V281.993a5.8,5.8,0,0,1-2.00586,4.4707l2.78516,10.89648H120.533l-2.293-9.41992c-.10937.00879-.22363.01367-.3418.01367h-2.15625v9.40625h-3.75976v-24.9375Zm2.24219,6.01563a1.90632,1.90632,0,0,0-2.13965-2.17383h-2.2627v7.9707h2.2627a2.04169,2.04169,0,0,0,1.51953-.63574,2.10652,2.10652,0,0,0,.62012-1.52441Z"/><path class="cls-1" d="M133.25366,297.36022H129.4939v-24.9375h3.75976Z"/><path class="cls-1" d="M141.948,276.18249h-3.99219v-3.75977h11.73047v3.75977h-3.97852v21.17773H141.948Z"/><path class="cls-1" d="M160.30737,297.67468a5.905,5.905,0,0,1-5.93359-5.91992v-19.332h3.67773v19.291a2.05588,2.05588,0,0,0,.63575,1.51758,2.09139,2.09139,0,0,0,1.52441.6289,2.13562,2.13562,0,0,0,2.14648-2.14648v-19.291H166.282v19.332a5.65341,5.65341,0,0,1-1.75,4.21093A5.8265,5.8265,0,0,1,160.30737,297.67468Z"/><path class="cls-1" d="M175.37183,291.63171l-.916,5.72851h-3.91016l4.22461-24.9375h5.18164l4.16993,24.9375h-3.9375l-.88868-5.72851Zm1.96875-13.49414-1.39453,9.83008h2.78906Z"/><path class="cls-1" d="M199.22827,297.36022h-10.2539v-24.9375h3.75976V293.6278h6.49414Z"/><path class="cls-1" d="M207.238,297.36022h-3.75977v-24.9375H207.238Z"/><path class="cls-1" d="M215.9314,276.18249h-3.99219v-3.75977h11.73047v3.75977h-3.97852v21.17773H215.9314Z"/><path class="cls-1" d="M232.96558,286.91491l-5.03125-14.49219h4.1289l2.7959,8.95508,2.76856-8.95508h4.15625l-5.0586,14.49219v10.44531h-3.75976Z"/><path class="cls-1" d="M246.03394,293.61413h3.75976v3.75977h-3.75976Z"/></svg>