<svg id="Content" xmlns="http://www.w3.org/2000/svg" xmlns:xlink="http://www.w3.org/1999/xlink" width="300" height="250" viewBox="0 0 300 250"><defs><style>.cls-1{fill:#fff;}.cls-2{fill:url(#New_Gradient_Swatch_1);}.cls-3{fill:#ba9544;}</style><linearGradient id="New_Gradient_Swatch_1" x1="209.87307" y1="156.32187" x2="238.73476" y2="156.32187" gradientUnits="userSpaceOnUse"><stop offset="0" stop-color="#a88a34"/><stop offset="0.49324" stop-color="#caaf67"/><stop offset="1" stop-color="#957f2e"/></linearGradient></defs><title>fruity</title><path class="cls-1" d="M220.28169,153.45877a1.25935,1.25935,0,0,1,.23734-.0974,2.28143,2.28143,0,0,1,.26477-.06723l.01509-.00549,2.59012-.56933a.83829.83829,0,0,1,.55287.085l.43626.42666-.90682.94935-2.89056.63518c-.11524-.52131-.23459-1.06458-.29907-1.35679m8.98859,7.2257-1.42265-6.47117a.97.97,0,0,0-1.0783-.75042l.76277-.80118.20989.19892.31691-.33611a.20584.20584,0,0,0-.00823-.29084L226.5169,150.785a.20584.20584,0,0,0-.29083.00824l-.31691.3361.25242.23871-1.01793,1.06733-.50486-.49251-.03566-.02743a1.929,1.929,0,0,0-1.45009-.273l-2.56267.56384a3.75221,3.75221,0,0,0-.45273.11661,1.5425,1.5425,0,0,0-.82861.55287.895.895,0,0,0-.13445.6983c.07957.35669.35669,1.62019.52406,2.37884.00274.01646.00548.03292.00961.04939l1.42263,6.47254a.96411.96411,0,0,0,1.15239.73259l6.24344-1.37326a.96914.96914,0,0,0,.74357-1.14964"/><polygon class="cls-2" points="221.862 171.085 209.873 157.24 219.336 141.559 237.174 145.713 238.735 163.961 221.862 171.085"/><path class="cls-1" d="M230.12166,152.36508c.98776-.29906,1.26351-1.0975,1.84519-1.37325-1.14964-.47193-1.82461-.58991-2.50644-.26615a1.7051,1.7051,0,0,0-1.01382,1.26488,1.75921,1.75921,0,0,0,1.67507.37452"/><path class="cls-1" d="M227.99168,154.029a5.31069,5.31069,0,0,0-1.30055-4.01139.08943.08943,0,0,0-.12758-.00411l-.00412.00411-.27026.27713a.0909.0909,0,0,0-.00274.12346,4.81034,4.81034,0,0,1,1.12768,3.63138c-2.36924-1.38835-4.86058.129-4.74534,2.64911a6.55763,6.55763,0,0,0,.20029,1.29506,11.11913,11.11913,0,0,0,5.05677,2.29379,1.32325,1.32325,0,0,1,.64753.32239.95559.95559,0,0,1,.30455.6736l.00823.24831a1.35849,1.35849,0,0,1-.06036.439,1.92887,1.92887,0,0,1-.08643.27438c1.97552.0974,3.84677-3.04421,3.962-5.54653a2.99189,2.99189,0,0,0-4.70967-2.66969"/><path class="cls-1" d="M228.10664,161.11537a.6508.6508,0,0,0-.31416-.15365,10.67618,10.67618,0,0,1-8.75125-7.78132,1.07509,1.07509,0,0,0-.13993-.27027.6352.6352,0,0,1-.09466-.36217l.03155-.8931a.24135.24135,0,0,0-.23322-.25105h-.0096l-.4733.00411a.24094.24094,0,0,0-.24008.24282.15775.15775,0,0,0,.00137.02607l.11112.959a.59622.59622,0,0,1-.13033.3855,1.5351,1.5351,0,0,0-.15639.80667c-.096,7.5042,4.97582,9.691,9.65806,8.53723.5954-.14679.65165-.24282.7024-.31416a1.0669,1.0669,0,0,0,.09329-.26752.62828.62828,0,0,0,.03567-.23048l-.00686-.24693a.27178.27178,0,0,0-.08368-.1907"/><path class="cls-3" d="M210.48048,184.94531v-5.42578h3.81641v1.0127h-2.73144v1.15722h2.01464v1.00977h-2.01464v2.24609Z"/><path class="cls-3" d="M218.3506,182.58008l1.35352,2.36523H218.46l-1.29883-2.24316h-.99024v2.24316H215.085v-5.42578h2.36523q1.90137,0,1.90039,1.5625A1.40428,1.40428,0,0,1,218.3506,182.58008Zm-2.17969-.89063h1.51954q.65331-.01025.67187-.59668-.01758-.53466-.66211-.55664h-1.5293Z"/><path class="cls-3" d="M221.27052,179.51953V182.666a1.08725,1.08725,0,0,0,.36133.90429,1.55475,1.55475,0,0,0,1.8086,0,1.08724,1.08724,0,0,0,.36132-.90429v-3.14649h1.08594v3.43652a1.79686,1.79686,0,0,1-.66992,1.41016,2.73119,2.73119,0,0,1-3.36328,0,1.79686,1.79686,0,0,1-.66992-1.41016v-3.43652Z"/><path class="cls-3" d="M226.05959,179.51563h1.08105v5.42968h-1.08105Z"/><path class="cls-3" d="M232.65627,179.51953v1.0127h-1.8086v4.41308h-1.085v-4.41308h-1.80859v-1.0127Z"/><path class="cls-3" d="M233.14552,179.51953H234.418l1.25977,1.77246,1.28711-1.77246H238.209l-1.98926,2.71289v2.71289h-1.085v-2.71289Z"/></svg>