<svg id="Content" xmlns="http://www.w3.org/2000/svg" xmlns:xlink="http://www.w3.org/1999/xlink" viewBox="0 0 728 360"><defs><style>.cls-1{fill:url(#New_Gradient_Swatch_1);}.cls-2{fill:#fff;}.cls-3{fill:#ba9544;}</style><linearGradient id="New_Gradient_Swatch_1" x1="475.95" y1="184.92" x2="535.25" y2="184.92" gradientUnits="userSpaceOnUse"><stop offset="0" stop-color="#a88a34"/><stop offset="0.49" stop-color="#caaf67"/><stop offset="1" stop-color="#957f2e"/></linearGradient></defs><title>diesel</title><polygon class="cls-1" points="527.25 164.96 502.53 155.47 479.7 168.88 475.95 195.09 494.11 214.37 520.49 212.19 535.25 190.2 527.25 164.96"/><path class="cls-2" d="M497.68,177.85a2.15,2.15,0,0,1,.48-.2,4,4,0,0,1,.53-.13l0,0,5.2-1.14a1.74,1.74,0,0,1,1.11.17l.88.86-1.82,1.91-5.81,1.27-.6-2.72m18.05,14.51-2.85-13a2,2,0,0,0-2.17-1.51l1.53-1.6.42.4.64-.68a.4.4,0,0,0,0-.58l-3.08-2.91a.41.41,0,0,0-.58,0l-.64.68.51.48-2,2.14-1-1-.07-.05a3.85,3.85,0,0,0-2.91-.55l-5.15,1.13a7,7,0,0,0-.91.24,3,3,0,0,0-1.66,1.11,1.78,1.78,0,0,0-.27,1.4c.16.71.71,3.25,1.05,4.78,0,0,0,.06,0,.09l2.86,13a1.92,1.92,0,0,0,2.31,1.47l12.54-2.75a1.94,1.94,0,0,0,1.49-2.31"/><path class="cls-3" d="M478.65,245.57V234.66h4.2q5.08,0,5.08,5.46t-5.08,5.45Zm4.2-2.17q2.89,0,2.9-3.28t-2.9-3.27h-2v6.55Z"/><path class="cls-3" d="M490.27,234.66h2.17v10.91h-2.17Z"/><path class="cls-3" d="M494.6,245.57V234.68h8v2h-5.83V239h4.37v2h-4.37v2.47h5.81v2Z"/><path class="cls-3" d="M510.7,235a5.19,5.19,0,0,1,1.56,1.09l-1.45,1.46a2.51,2.51,0,0,0-2-.87c-.87,0-1.42.2-1.67.61a.87.87,0,0,0,0,1.06,2.94,2.94,0,0,0,1.67.65,5.44,5.44,0,0,1,2.51.91,2.73,2.73,0,0,1,1.13,2.43,2.8,2.8,0,0,1-1.2,2.25,4.44,4.44,0,0,1-2.81.95,6.45,6.45,0,0,1-2.53-.44,5.47,5.47,0,0,1-1.74-1.16l1.45-1.45a3.42,3.42,0,0,0,2.47,1c1,0,1.57-.2,1.81-.61a1.16,1.16,0,0,0,0-1.24c-.24-.41-.84-.66-1.81-.76a5.88,5.88,0,0,1-2.4-.8,2.41,2.41,0,0,1-1.09-2.25,2.69,2.69,0,0,1,1.24-2.32,4.33,4.33,0,0,1,2.55-.88A6.13,6.13,0,0,1,510.7,235Z"/><path class="cls-3" d="M514.32,245.57V234.68h8v2H516.5V239h4.37v2H516.5v2.47h5.82v2Z"/><path class="cls-3" d="M526.73,234.67v8.86h5.81v2h-8v-10.9Z"/></svg>