<svg id="Content" xmlns="http://www.w3.org/2000/svg" viewBox="0 0 728 360"><defs><style>.cls-1{fill:#b89344;}</style></defs><title>Frame2 - Durga Mata</title><path class="cls-1" d="M115,251.19H121c3.74,0,5.57,2.07,5.57,5.88v12c0,3.8-1.83,5.88-5.57,5.88H115Zm3.74,3.4v17h2.11c1.19,0,1.9-.61,1.9-2.31V256.9c0-1.7-.71-2.31-1.9-2.31Z"/><path class="cls-1" d="M136.08,251.19v18.36c0,1.7.75,2.31,1.94,2.31s1.93-.61,1.93-2.31V251.19h3.54v18.12c0,3.81-1.9,6-5.58,6s-5.57-2.17-5.57-6V251.19Z"/><path class="cls-1" d="M157.46,275a7.42,7.42,0,0,1-.34-2.93v-3.74c0-2.21-.74-3-2.44-3h-1.3V275h-3.74v-23.8h5.65c3.87,0,5.54,1.8,5.54,5.47v1.87c0,2.45-.78,4.05-2.45,4.83,1.87.78,2.48,2.58,2.48,5.07v3.67a7.11,7.11,0,0,0,.41,2.89Zm-4.08-20.4v7.31h1.47c1.39,0,2.24-.61,2.24-2.52V257c0-1.7-.58-2.45-1.9-2.45Z"/><path class="cls-1" d="M172.53,261.73h5.23v7.55c0,3.8-1.9,6-5.57,6s-5.58-2.18-5.58-6V256.9c0-3.81,1.9-6,5.58-6s5.57,2.17,5.57,6v2.31h-3.53v-2.55c0-1.7-.75-2.34-1.94-2.34s-1.94.64-1.94,2.34v12.85c0,1.7.75,2.32,1.94,2.32s1.94-.62,1.94-2.32v-4.38h-1.7Z"/><path class="cls-1" d="M195.88,275h-3.77l-.65-4.32h-4.59l-.64,4.32h-3.44l3.81-23.8h5.47Zm-8.53-7.55H191l-1.8-12Z"/><path class="cls-1" d="M218,268.09l2.55-16.9h5.2V275h-3.54V257.92L219.65,275h-3.54l-2.78-16.83V275h-3.27v-23.8h5.2Z"/><path class="cls-1" d="M244.2,275h-3.78l-.64-4.32h-4.59l-.65,4.32h-3.43l3.81-23.8h5.47Zm-8.54-7.55h3.61l-1.8-12Z"/><path class="cls-1" d="M248.45,251.19H260v3.4H256.1V275h-3.74v-20.4h-3.91Z"/><path class="cls-1" d="M277.35,275h-3.78l-.64-4.32h-4.59l-.65,4.32h-3.43l3.8-23.8h5.48Zm-8.54-7.55h3.61l-1.81-12Z"/><path class="cls-1" d="M297,254.32c-1.19,0-1.94.64-1.94,2.34v2.55h-3.53V256.9c0-3.81,1.9-6,5.57-6s5.58,2.17,5.58,6c0,7.48-7.45,10.27-7.45,14.18a2.19,2.19,0,0,0,0,.51h7.07V275H291.56v-2.93c0-7,7.41-8.16,7.41-15C299,254.9,298.22,254.32,297,254.32Z"/></svg>