<svg id="Content" xmlns="http://www.w3.org/2000/svg" viewBox="0 0 728 90"><defs><style>.cls-1{fill:#ba9544;}</style></defs><title>Frame1 - Sensi Star</title><path class="cls-1" d="M214.78,35.47c3.43,0,5.19,2.05,5.19,5.63v.71h-3.33v-.93c0-1.6-.64-2.21-1.76-2.21s-1.76.61-1.76,2.21c0,4.61,6.88,5.47,6.88,11.87,0,3.58-1.79,5.63-5.25,5.63s-5.25-2.05-5.25-5.63V51.37h3.33V53c0,1.6.71,2.18,1.83,2.18s1.82-.58,1.82-2.18c0-4.61-6.88-5.47-6.88-11.87C209.6,37.52,211.36,35.47,214.78,35.47Z"/><path class="cls-1" d="M228.93,45.17h4.83v3.19h-4.83v6.56H235v3.2h-9.6V35.73H235v3.2h-6.08Z"/><path class="cls-1" d="M243.71,41.9V58.12h-3.17V35.73H245l3.62,13.4V35.73h3.13V58.12H248.1Z"/><path class="cls-1" d="M262.37,35.47c3.42,0,5.18,2.05,5.18,5.63v.71h-3.33v-.93c0-1.6-.64-2.21-1.76-2.21s-1.76.61-1.76,2.21c0,4.61,6.88,5.47,6.88,11.87,0,3.58-1.79,5.63-5.24,5.63s-5.25-2.05-5.25-5.63V51.37h3.33V53c0,1.6.7,2.18,1.82,2.18s1.82-.58,1.82-2.18c0-4.61-6.88-5.47-6.88-11.87C257.18,37.52,258.94,35.47,262.37,35.47Z"/><path class="cls-1" d="M273,35.73h3.52V58.12H273Z"/><path class="cls-1" d="M295.55,35.47c3.43,0,5.19,2.05,5.19,5.63v.71h-3.33v-.93c0-1.6-.64-2.21-1.76-2.21s-1.76.61-1.76,2.21c0,4.61,6.88,5.47,6.88,11.87,0,3.58-1.79,5.63-5.25,5.63s-5.25-2.05-5.25-5.63V51.37h3.33V53c0,1.6.7,2.18,1.82,2.18s1.83-.58,1.83-2.18c0-4.61-6.88-5.47-6.88-11.87C290.37,37.52,292.13,35.47,295.55,35.47Z"/><path class="cls-1" d="M305.15,35.73H316v3.2h-3.68V58.12h-3.52V38.93h-3.68Z"/><path class="cls-1" d="M332.35,58.12H328.8l-.61-4.06h-4.32l-.61,4.06H320l3.58-22.39h5.16Zm-8-7.1h3.39L326,39.69Z"/><path class="cls-1" d="M344.73,58.12a6.87,6.87,0,0,1-.32-2.75V51.85c0-2.08-.7-2.85-2.3-2.85h-1.22v9.12h-3.52V35.73h5.32c3.64,0,5.21,1.69,5.21,5.15v1.76c0,2.3-.73,3.81-2.3,4.54,1.76.74,2.33,2.43,2.33,4.77V55.4a6.62,6.62,0,0,0,.39,2.72Zm-3.84-19.19v6.88h1.38c1.31,0,2.11-.58,2.11-2.37V41.23c0-1.6-.54-2.3-1.79-2.3Z"/></svg>