<svg id="Content" xmlns="http://www.w3.org/2000/svg" xmlns:xlink="http://www.w3.org/1999/xlink" width="728" height="360" viewBox="0 0 728 360"><defs><style>.cls-1{fill:none;}.cls-2{fill:#fff;stroke:#ba9544;stroke-miterlimit:10;stroke-width:0.5px;}.cls-3{fill:#ba9544;}.cls-4{clip-path:url(#clip-path);}</style><clipPath id="clip-path"><rect class="cls-1" x="461.86539" y="-134.33868" width="208.12648" height="92"/></clipPath></defs><title>THC - MK Ultra</title><polygon class="cls-2" points="621.295 150.524 388.693 149.643 376.951 166.575 388.693 183.207 621.295 182.811 631.863 166.669 621.295 150.524"/><polygon class="cls-3" points="388.863 149.643 377.121 166.575 388.863 183.207 424.51 183.207 424.63 149.643 388.863 149.643"/><path class="cls-3" d="M521.82342,161.02557v2.126h-3.7959v9.2627h-2.27734v-9.2627H511.9533v-2.126Z"/><path class="cls-3" d="M523.51678,172.41425V161.02557h2.27832v4.55567h5.30664v-4.5625h2.27734v11.38769l-2.27734.00782v-4.707H525.7951v4.707Z"/><path class="cls-3" d="M536.91326,170.7785a5.697,5.697,0,0,1,4.05078-9.75293,6.16432,6.16432,0,0,1,4.1836,1.51856l-1.51856,1.66309a4.19965,4.19965,0,0,0-2.665-.91114,3.34368,3.34368,0,0,0-2.47167.957,3.30927,3.30927,0,0,0-.9375,2.42871,3.411,3.411,0,0,0,.94921,2.52051,3.36172,3.36172,0,0,0,2.47559.93457,4.08624,4.08624,0,0,0,2.64941-.90332l1.51856,1.66211a6.14208,6.14208,0,0,1-4.1836,1.51856A5.54379,5.54379,0,0,1,536.91326,170.7785Z"/><path class="cls-3" d="M547.69842,165.15253a1.10106,1.10106,0,0,1,.82031-.30762,1.143,1.143,0,0,1,.85059.30762,1.10584,1.10584,0,0,1,0,1.52246,1.30094,1.30094,0,0,1-1.6709,0,1.10584,1.10584,0,0,1,0-1.52246Zm0,5.43554a1.10109,1.10109,0,0,1,.82031-.30761,1.143,1.143,0,0,1,.85059.30761,1.04567,1.04567,0,0,1,.30371.76368,1.0298,1.0298,0,0,1-.30371.75879,1.30094,1.30094,0,0,1-1.6709,0,1.0298,1.0298,0,0,1-.30371-.75879A1.04567,1.04567,0,0,1,547.69842,170.58807Z"/><path class="cls-3" d="M559.82342,161.02557v-.00683h2.27051v11.39551h-2.27051v-8.35157l-1.51855,1.51856-1.51856-1.51856Z"/><path class="cls-3" d="M564.36346,166.87909a6.88847,6.88847,0,0,1,1.17676-4.27734,3.84591,3.84591,0,0,1,3.15039-1.56836,4.77766,4.77766,0,0,1,3.18945,1.13183l-1.13965,1.51758a4.011,4.011,0,0,0-1.95117-.45508,2.015,2.015,0,0,0-1.57129.64551,3.05467,3.05467,0,0,0-.65332,1.93555,3.54148,3.54148,0,0,1,2.27832-.98633,3.80039,3.80039,0,0,1,2.92285,1.02441,3.91935,3.91935,0,0,1,.94922,2.77149,3.734,3.734,0,0,1-1.06348,2.69531,4.02611,4.02611,0,0,1-3.03613,1.10059,3.81129,3.81129,0,0,1-3.26465-1.541A7.06329,7.06329,0,0,1,564.36346,166.87909Zm2.50488,1.74707q.07617,1.58643,1.82227,1.6543,1.74609-.06738,1.82226-1.51074a1.71972,1.71972,0,0,0-1.89746-1.89747A1.69172,1.69172,0,0,0,566.86834,168.62616Z"/><path class="cls-3" d="M574.76483,169.36932v-1.51074h4.707v1.51074Z"/><path class="cls-3" d="M585.53826,161.02557a4.30161,4.30161,0,0,1,2.73731.83887,2.98985,2.98985,0,0,1,1.0664,2.502,5.21662,5.21662,0,0,1-1.51464,3.61425,10.53612,10.53612,0,0,1-2.502,2.15625H589.425v2.27735H581.7492V170.1369q.76026,0,2.88574-1.89843a10.85491,10.85491,0,0,0,2.4668-2.69532,1.85024,1.85024,0,0,0-.03711-1.59375q-.38086-.79833-1.82226-.79785a2.61434,2.61434,0,0,0-2.126.91113l-1.51856-1.51855a6.28925,6.28925,0,0,1,1.48047-1.13867A5.7007,5.7007,0,0,1,585.53826,161.02557Z"/><path class="cls-3" d="M592.69744,170.7785a7.80762,7.80762,0,0,1,0-8.12011,3.64462,3.64462,0,0,1,6.07813,0,7.83761,7.83761,0,0,1,0,8.124,3.64342,3.64342,0,0,1-6.07813-.00391Zm3.04493-.49023q.75145,0,1.32128-1.02441a5.966,5.966,0,0,0,0-5.08692q-.56982-1.02539-1.33691-1.02539-.75147,0-1.32031,1.02539a5.966,5.966,0,0,0,0,5.08692Q594.97478,170.28778,595.74237,170.28827Z"/><path class="cls-3" d="M602.62029,165.83222a2.936,2.936,0,1,1,2.03516.81933A2.767,2.767,0,0,1,602.62029,165.83222ZM604.633,165.3a1.35454,1.35454,0,0,0,1.04-.43262,1.64042,1.64042,0,0,0,0-2.15234,1.37149,1.37149,0,0,0-1.04785-.42871,1.35414,1.35414,0,0,0-1.03321.42871,1.64042,1.64042,0,0,0,0,2.15234A1.35521,1.35521,0,0,0,604.633,165.3Zm-.60742,7.11426,6.45312-11.38868h1.85254l-6.43847,11.38868Zm5.65625-.752a2.91488,2.91488,0,1,1,2.01953.8125A2.73938,2.73938,0,0,1,609.68182,171.66229Zm1.98144-.55371a1.32832,1.32832,0,0,0,1.01661-.42187,1.58456,1.58456,0,0,0,0-2.09473,1.338,1.338,0,0,0-1.02442-.42187,1.32074,1.32074,0,0,0-1.00976.42187,1.58745,1.58745,0,0,0,0,2.09473A1.33039,1.33039,0,0,0,611.66326,171.10858Z"/><g class="cls-4"><image id="SmallTopDown-8307-MKUltra.psd" width="1500" height="1261" transform="translate(443.42939 -154.61789) scale(0.12656)" xlink:href="../../../../../Dropbox%20(Revolution%20Strategy)/Rocio%20Ugarte/Clients/Namaste/Digital%20Ads/_Flight%202:Phase%202%20Terpene/1.%20Animated%20w:%20Packaging/8.%20Expandable%20Unit%20728%20x%2090:728%20x%20360/728%20x%2090_728%20x%20360_Folder/Links/SmallTopDown-8307-MKUltra.png"/></g></svg>