<svg id="Content" xmlns="http://www.w3.org/2000/svg" xmlns:xlink="http://www.w3.org/1999/xlink" width="728" height="360" viewBox="0 0 728 360"><defs><style>.cls-1{fill:#fff;stroke:#ba9544;stroke-miterlimit:10;stroke-width:0.5px;}.cls-2{fill:#ba9544;}</style></defs><title>THC - Shishkaberry</title><polygon class="cls-1" points="621.295 150.524 388.693 149.642 376.95 166.575 388.693 183.207 621.295 182.811 631.863 166.669 621.295 150.524"/><polygon class="cls-2" points="388.862 149.642 377.12 166.575 388.862 183.207 417.623 183.207 417.623 149.642 388.862 149.642"/><path class="cls-2" d="M521.82521,161.0285v2.126h-3.7959v9.2627H515.752v-9.2627h-3.79688v-2.126Z"/><path class="cls-2" d="M523.51857,172.41718V161.0285h2.27832v4.55567h5.30664v-4.5625h2.27735v11.38769l-2.27735.00782v-4.707h-5.30664v4.707Z"/><path class="cls-2" d="M536.91506,170.78143a5.697,5.697,0,0,1,4.05078-9.75293,6.16429,6.16429,0,0,1,4.18359,1.51856l-1.51855,1.66309a4.19969,4.19969,0,0,0-2.665-.91114,3.34684,3.34684,0,0,0-2.47168.95606,3.31308,3.31308,0,0,0-.9375,2.42968,3.411,3.411,0,0,0,.94922,2.52051,3.3617,3.3617,0,0,0,2.47558.93457,4.08632,4.08632,0,0,0,2.64942-.90332l1.51855,1.66211a6.14207,6.14207,0,0,1-4.18359,1.51856A5.54377,5.54377,0,0,1,536.91506,170.78143Z"/><path class="cls-2" d="M547.70021,165.15546a1.10108,1.10108,0,0,1,.82031-.30762,1.143,1.143,0,0,1,.85059.30762,1.10584,1.10584,0,0,1,0,1.52246,1.30094,1.30094,0,0,1-1.6709,0,1.10584,1.10584,0,0,1,0-1.52246Zm0,5.43554a1.10111,1.10111,0,0,1,.82031-.30761,1.143,1.143,0,0,1,.85059.30761,1.04567,1.04567,0,0,1,.30371.76368,1.0298,1.0298,0,0,1-.30371.75879,1.30094,1.30094,0,0,1-1.6709,0,1.0298,1.0298,0,0,1-.30371-.75879A1.04567,1.04567,0,0,1,547.70021,170.591Z"/><path class="cls-2" d="M559.82521,161.0285v-.00683h2.27051v11.39551h-2.27051v-8.35157l-1.51855,1.51856-1.51856-1.51856Z"/><path class="cls-2" d="M569.39845,161.03632v-.01465H571.669v6.62012h1.5332v2.26953H571.669v2.50586h-2.27051v-2.50586h-5.16992v-2.26953h.07617l-.06836-.07618Zm0,6.60547v-3.62891l-2.7705,3.62891Z"/><path class="cls-2" d="M574.94142,169.37225v-1.51074h4.707v1.51074Z"/><path class="cls-2" d="M584.56056,161.0285v-.00683h2.27051v11.39551h-2.27051v-8.35157l-1.51855,1.51856-1.51856-1.51856Z"/><path class="cls-2" d="M595.23537,166.64667q.20508.07617.37207.15234a2.232,2.232,0,0,1,1.17676,2.27735,2.92294,2.92294,0,0,1-1.10547,2.54394,5.47079,5.47079,0,0,1-5.68653,0,2.92485,2.92485,0,0,1-1.10449-2.54394,2.232,2.232,0,0,1,1.17676-2.27735q.167-.07617.37207-.15234c-.08106-.04-.1543-.07813-.21973-.11328a2.25179,2.25179,0,0,1-1.02539-2.16407,3.11454,3.11454,0,0,1,.99121-2.46777,4.4684,4.4684,0,0,1,5.30664,0,3.11771,3.11771,0,0,1,.99121,2.46777,2.25177,2.25177,0,0,1-1.02539,2.16407C595.38966,166.56854,595.31545,166.60663,595.23537,166.64667Zm-2.39942-1.03223q1.002-.03077,1.291-.52344a1.217,1.217,0,0,0,0-1.291,1.46059,1.46059,0,0,0-1.291-.6377,1.43907,1.43907,0,0,0-1.2832.6377,1.19311,1.19311,0,0,0,0,1.291Q591.834,165.58466,592.836,165.61444Zm0,2.08789a1.6941,1.6941,0,0,0-1.2832.65332,1.19147,1.19147,0,0,0,0,1.29,1.437,1.437,0,0,0,1.2832.6377,1.45842,1.45842,0,0,0,1.291-.6377,1.21528,1.21528,0,0,0,0-1.29A1.72231,1.72231,0,0,0,592.836,167.70233Z"/><path class="cls-2" d="M599.43361,165.83515a2.936,2.936,0,1,1,2.03516.81933A2.767,2.767,0,0,1,599.43361,165.83515Zm2.0127-.53223a1.35451,1.35451,0,0,0,1.04-.43262,1.64039,1.64039,0,0,0,0-2.15234,1.37144,1.37144,0,0,0-1.04785-.42871,1.35406,1.35406,0,0,0-1.0332.42871,1.64042,1.64042,0,0,0,0,2.15234A1.35518,1.35518,0,0,0,601.44631,165.30292Zm-.60743,7.11426L607.292,161.0285h1.85254l-6.43848,11.38868Zm5.65625-.752a2.91611,2.91611,0,1,1,2.01953.8125A2.73938,2.73938,0,0,1,606.49513,171.66522Zm1.98145-.55371a1.3283,1.3283,0,0,0,1.0166-.42187,1.58453,1.58453,0,0,0,0-2.09473,1.338,1.338,0,0,0-1.02441-.42187,1.32078,1.32078,0,0,0-1.00977.42187,1.58748,1.58748,0,0,0,0,2.09473A1.33042,1.33042,0,0,0,608.47658,171.11151Z"/><image id="SmallTopDown-8342SensiStar.psd" width="1500" height="1261" transform="translate(443.42939 -154.61789) scale(0.12656)" xlink:href="../../../../../Dropbox%20(Revolution%20Strategy)/Rocio%20Ugarte/Clients/Namaste/Digital%20Ads/_Flight%202:Phase%202%20Terpene/1.%20Animated%20w:%20Packaging/8.%20Expandable%20Unit%20728%20x%2090:728%20x%20360/728%20x%2090_728%20x%20360_Folder/Links/SmallTopDown-8268-Shishkaberry.png"/></svg>