<svg id="Layer_1" data-name="Layer 1" xmlns="http://www.w3.org/2000/svg" xmlns:xlink="http://www.w3.org/1999/xlink" width="300" height="600" viewBox="0 0 300 600"><defs><style>.cls-1{fill:url(#linear-gradient);}.cls-2{fill:url(#linear-gradient-2);}.cls-3{fill:#fff;}.cls-4{fill:url(#linear-gradient-3);}</style><linearGradient id="linear-gradient" x1="165.70459" y1="444.33273" x2="165.70459" y2="476.14621" gradientUnits="userSpaceOnUse"><stop offset="0" stop-color="#ceb467"/><stop offset="1" stop-color="#997f2f"/></linearGradient><linearGradient id="linear-gradient-2" x1="96.61604" y1="444.28548" x2="96.61604" y2="476.19346" xlink:href="#linear-gradient"/><linearGradient id="linear-gradient-3" x1="88.78325" y1="459.37032" x2="158.86447" y2="459.99326" gradientUnits="userSpaceOnUse"><stop offset="0" stop-color="#ad8f35"/><stop offset="0.1878" stop-color="#ceb467"/><stop offset="0.46098" stop-color="#a58f4b"/><stop offset="0.76341" stop-color="#ceb467"/><stop offset="1" stop-color="#997f2f"/></linearGradient></defs><title>learnmore</title><path class="cls-1" d="M213.25162,476.14621H109.50729l9.01045-15.90645-9.01045-15.907H213.25162l8.65026,15.907ZM111.53241,474.966H212.54969l8.00826-14.72619L212.54969,445.513H111.53241l8.34194,14.72677Z"/><path class="cls-2" d="M106.01318,476.19346,87.061,476.099l-8.60243-15.94967,8.76034-15.8638,18.95219.09451,8.60243,15.94967Zm-18.24565-1.27131,17.55064.08759,8.11026-14.687-7.96388-14.766-17.55064-.08759-8.11026,14.687Z"/><path class="cls-3" d="M134.1022,456.77112V462.413h3.6996v1.29486h-5.08695v-6.93675Z"/><path class="cls-3" d="M139.30437,463.70787v-6.93212l5.0962-.00463V458.066h-3.70885v1.47984H143.471v1.29023h-2.77932v1.577h3.6996v1.29486Z"/><path class="cls-3" d="M145.81065,463.70787l2.7747-6.93675h1.38735l2.77008,6.93212-1.47522.00463-.4162-1.06364H147.7067l-.41621,1.06364Zm3.50537-5.087-1.05438,2.636h2.081Z"/><path class="cls-3" d="M158.33341,460.68345l1.72956,3.02442h-1.59083l-1.66019-2.86719h-1.26711v2.86719h-1.38735v-6.93675h3.02442q2.42785,0,2.42786,1.99778A1.79381,1.79381,0,0,1,158.33341,460.68345Zm-2.78857-1.13763h1.94229q.837-.01388.86015-.763-.02312-.68444-.84628-.71218h-1.95616Z"/><path class="cls-3" d="M161.16322,463.70787v-6.93675h.46245l4.347,4.347v-4.347H167.36v6.93675h-.50869l-4.30078-4.30079v4.30079Z"/><path class="cls-3" d="M172.79306,463.70787v-6.93675h.46245l3.00592,3.42213,3.01055-3.42213h.46245v6.93675h-1.38735l-.00463-4.02332-2.081,2.31225-2.081-2.31225v4.02332Z"/><path class="cls-3" d="M182.13878,462.71129a3.57238,3.57238,0,1,1,2.47411.99658A3.36053,3.36053,0,0,1,182.13878,462.71129Zm2.47873-.29828a1.94851,1.94851,0,0,0,1.49834-.62431,2.365,2.365,0,0,0,0-3.09841,2.12125,2.12125,0,0,0-3.00592,0,2.36494,2.36494,0,0,0,0,3.09841A1.95939,1.95939,0,0,0,184.61751,462.413Z"/><path class="cls-3" d="M193.66727,460.68345l1.72956,3.02442H193.806l-1.66019-2.86719H190.8787v2.86719h-1.38735v-6.93675h3.02442q2.42785,0,2.42786,1.99778A1.79381,1.79381,0,0,1,193.66727,460.68345Zm-2.78857-1.13763H192.821q.837-.01388.86015-.763-.02311-.68444-.84628-.71218H190.8787Z"/><path class="cls-3" d="M196.47858,463.70787v-6.93212l5.0962-.00463V458.066h-3.70885v1.47984h2.77932v1.29023h-2.77932v1.577h3.6996v1.29486Z"/><path class="cls-4" d="M102.835,464.20873l.19-.0623a2.13561,2.13561,0,0,0-.40242.12428l-1.98984.8293,1.20415-.8972-.00919.00155-.0274-.207-.21881-.361a7.20935,7.20935,0,0,0,1.63959-1.69254l-1.60876.77011,1.63913-1.36518a2.70825,2.70825,0,0,0,.52046-.56423c.21134-.31957.40757-.64693.58667-.97818l-.50817.50178.60907-1.325a17.49782,17.49782,0,0,0,.90109-2.49147,21.236,21.236,0,0,0-2.41468,1.55581l-1.19247.90374.38031-.59259c-.30852.26227-.60675.53917-.89143.82744a2.62113,2.62113,0,0,0-.439.61515l-.87087,1.66809.30945-1.52263a7.20164,7.20164,0,0,0-.69008.8254l-.15168.21181-.13923-.09563a.35126.35126,0,0,0-.02149.03628L98.043,463.19317l.70548-2.46577a7.82611,7.82611,0,0,0,.23407-3.09447l-.82384,1.53119.399-1.84188a3,3,0,0,0,.0623-.91915,14.8569,14.8569,0,0,0-.31645-1.85934l-.10871.90421-.35757-1.31816a22.41842,22.41842,0,0,0-1.22144-3.30581,22.41482,22.41482,0,0,0-1.22128,3.30581l-.35772,1.31816-.10856-.90421a14.82587,14.82587,0,0,0-.31645,1.85934,2.99737,2.99737,0,0,0,.0623.9193l.39852,1.84236-.82337-1.53151a7.82457,7.82457,0,0,0,.23392,3.09416l.70564,2.46593-1.19637-2.26877a.37856.37856,0,0,0-.02165-.03628l-.13908.09563-.15183-.21181a7.198,7.198,0,0,0-.68991-.8254l.30944,1.52263-.871-1.66809a2.61976,2.61976,0,0,0-.43886-.61515c-.28406-.28781-.58214-.56424-.89019-.82634l.38124.5932-1.19481-.90545a21.2201,21.2201,0,0,0-2.41468-1.55581,17.48175,17.48175,0,0,0,.90124,2.49147l.60908,1.325-.50816-.50178c.17894.33125.37533.65861.58666.97818a2.70291,2.70291,0,0,0,.52031.56423l1.63928,1.36518-1.60875-.77011a7.206,7.206,0,0,0,1.63959,1.69254l-.21882.361-.0274.207-.00935-.00155,1.20431.8972-1.99-.8293a2.13,2.13,0,0,0-.40226-.12428l.18984.0623-1.70562-.0039a14.65154,14.65154,0,0,0-1.62557.09843,13.384,13.384,0,0,0,1.38979.76389l1.50067.70408-.17256-.02087a2.24263,2.24263,0,0,0,.38047.04859l2.27405.10092-1.5516.29558a5.58551,5.58551,0,0,0,1.12068.12319l1.64582.01075-.96245.3124,1.47871.257-2.27717.13673q-.05442.00327-.10652.00981l-1.04468.511c-.268.131-.51814.27332-.74909.41582.28655.02211.59522.03582.90778.03005l1.19045-.02118c.03239-.01152.06495-.02444.09749-.03846l1.96976-.85748-.99376.76621a3.44577,3.44577,0,0,0,.39-.16679s.15511.0894.1847.11431a.73831.73831,0,0,0,.08348-.01822,3.517,3.517,0,0,0,.86309-.504,3.63172,3.63172,0,0,1,.96774-.55224,2.41311,2.41311,0,0,1,.33889-.06323.92584.92584,0,0,1-.44619-.27829c-.21554-.21539-.29776-.50615-.09017-.56751s.584.29076.60846.29076a.4488.4488,0,0,0,.12568-.28982c0-.12428-.08893-.36614-.10543-.51222a2.44506,2.44506,0,0,0-.08862-.42392c-.03239-.09639-.25727-.13829-.37812-.21273a1.97984,1.97984,0,0,1-.30478-.211.96349.96349,0,0,1-.12957-.44214,1.74379,1.74379,0,0,0-.07273-.45023c-.04205-.0788-.15013-.1344-.22333-.2076a.31469.31469,0,0,1-.07522-.19342c.05607-.0176.07367.12692.13845.13923s.06027.06572.162.10076c.10154.03488.105.08316.118.17769s.12709.41426.16478.54461c.03753.13051.07693.22862.20572.233.12864.00435.1112.071.26273.0587a.84639.84639,0,0,1,.36334.07009c.08144.02881.18392.03146.21895-.02538.03505-.057-.02445-.28641-.02445-.28641-.05264,0-.06151-.07085-.0816-.13657-.01993-.06572.01246-.07087.01246-.07087a.27747.27747,0,1,1,.52872,0s.03239.00515.01231.07087c-.02025.06572-.02881.13657-.08145.13657,0,0-.0595.2294-.02461.28641.0352.05684.13751.05419.21912.02538a.84531.84531,0,0,1,.36333-.07009c.15138.01231.13393-.05435.26258-.0587s.16818-.10248.20587-.233c.03769-.13035.15139-.45008.16462-.54461.01308-.09453.01666-.14281.11821-.17769.10153-.035.09717-.08846.162-.10076s.08238-.15683.13844-.13923a.31415.31415,0,0,1-.07536.19342c-.07305.0732-.18128.1288-.22318.2076a1.7304,1.7304,0,0,0-.07273.45023.96362.96362,0,0,1-.12957.44214,1.99575,1.99575,0,0,1-.30477.211c-.12086.07444-.3459.11634-.37829.21273a2.43138,2.43138,0,0,0-.08846.42392c-.01666.14608-.10543.38794-.10543.51222a.448.448,0,0,0,.12568.28982c.02445,0,.401-.35212.60846-.29076s.12536.35212-.09017.56751a.92465.92465,0,0,1-.44618.27829,2.40615,2.40615,0,0,1,.33872.06323,3.63172,3.63172,0,0,1,.96774.55224,3.52215,3.52215,0,0,0,.86294.504.76261.76261,0,0,0,.08363.01822c.02959-.02476.18486-.11431.18486-.11431a3.44437,3.44437,0,0,0,.39.16679l-.99376-.76621,1.9696.85748c.03254.014.06509.02694.09748.03846l1.19061.02118c.31255.00577.62107-.00794.90778-.03005-.231-.1425-.48123-.28484-.74924-.41582l-1.04468-.511c-.03458-.00436-.07024-.00763-.10638-.00981l-2.277-.13673,1.47965-.25712-.95933-.31225,1.64161-.01075a5.5867,5.5867,0,0,0,1.12068-.12319l-1.5516-.29558,2.2739-.10092a2.24233,2.24233,0,0,0,.38062-.04859l-.17271.02087,1.50067-.70408a13.38591,13.38591,0,0,0,1.38994-.76389,14.6538,14.6538,0,0,0-1.62557-.09843Z"/></svg>