<svg xmlns="http://www.w3.org/2000/svg" xmlns:xlink="http://www.w3.org/1999/xlink" width="970" height="250" viewBox="0 0 970 250"><defs><style>.cls-1{fill:none;}.cls-2{isolation:isolate;}.cls-3{clip-path:url(#clip-path);}.cls-4{clip-path:url(#clip-path-2);}.cls-5{mix-blend-mode:multiply;}.cls-6{clip-path:url(#clip-path-3);}.cls-7{fill:#fff;stroke:#ba9544;stroke-miterlimit:10;stroke-width:0.5px;}.cls-8{fill:#ba9544;}.cls-9{clip-path:url(#clip-path-4);}.cls-10{clip-path:url(#clip-path-5);}</style><clipPath id="clip-path"><path class="cls-1" d="M-1.65026-305.28618-3.4861-186.87446l55.65532,14.66939,49.77634-42.858,8.90912-2.22728,15.591-1.11364,27.841-27.841,30.0683,11.13641,31.18194,15.591,40.09106-4.45457,24.78387-15.25291,14.78134-23.44182,10.54862-21.44186-1.72462-19.34159S.0202-303.61571-1.65026-305.28618Z"/></clipPath><clipPath id="clip-path-2"><polygon class="cls-1" points="212.45 -47.71 264.958 -114.281 286.271 -122.381 297.147 -101.01 324.495 -48.473 212.45 -47.71"/></clipPath><clipPath id="clip-path-3"><rect class="cls-1" x="-79.03413" y="-166.06752" width="425.40438" height="283.54838" transform="translate(33.98399 68.0127) rotate(-32.49853)"/></clipPath><clipPath id="clip-path-4"><rect class="cls-1" x="17.24025" y="-299.16219" width="383.03219" height="250.51546"/></clipPath><clipPath id="clip-path-5"><rect class="cls-1" x="2.56702" y="-306.41002" width="399.55191" height="335.80187"/></clipPath></defs><title>THC - Daytime CBD</title><g class="cls-2"><g id="Terpenes"><g class="cls-4"><g id="Spices_GettyImages-966502372.psd" class="cls-5"><g class="cls-6"><image id="Shadow" class="cls-5" width="838" height="792" transform="matrix(-0.138, 0.08791, 0.08791, 0.138, 288.62477, -135.51877)" xlink:href="THC%20-%20Daytime%20CBD1.png"/><image id="Spices_-_pepper_only" data-name="Spices - pepper only" width="792" height="759" transform="matrix(-0.138, 0.08791, 0.08791, 0.138, 286.25431, -132.84473)" xlink:href="THC%20-%20Daytime%20CBD2.png"/></g></g></g></g><g id="Content"><polygon class="cls-7" points="640.867 99.04 408.266 98.158 396.524 115.091 408.266 131.723 640.867 131.327 651.435 115.184 640.867 99.04"/><polygon class="cls-8" points="408.435 98.158 396.693 115.091 408.435 131.723 423.037 131.723 423.037 98.158 408.435 98.158"/><path class="cls-8" d="M541.39746,108.90675v2.126h-3.7959v9.26269h-2.27734v-9.26269h-3.79688v-2.126Z"/><path class="cls-8" d="M543.09082,120.29542V108.90675h2.27832v4.55567h5.30664v-4.5625h2.27734v11.38769l-2.27734.00781v-4.707h-5.30664v4.707Z"/><path class="cls-8" d="M556.48633,118.65968a5.697,5.697,0,0,1,4.05078-9.75293,6.16429,6.16429,0,0,1,4.18359,1.51856l-1.51855,1.66308a4.19974,4.19974,0,0,0-2.665-.91113,3.34367,3.34367,0,0,0-2.47168.957,3.30926,3.30926,0,0,0-.9375,2.42871,3.411,3.411,0,0,0,.94922,2.52051,3.3617,3.3617,0,0,0,2.47558.93457,4.0863,4.0863,0,0,0,2.64942-.90332l1.51855,1.66211a6.14211,6.14211,0,0,1-4.18359,1.51855A5.54377,5.54377,0,0,1,556.48633,118.65968Z"/><path class="cls-8" d="M567.27148,113.0337a1.10112,1.10112,0,0,1,.82032-.30761,1.143,1.143,0,0,1,.85058.30761,1.10585,1.10585,0,0,1,0,1.52247,1.30094,1.30094,0,0,1-1.6709,0,1.10585,1.10585,0,0,1,0-1.52247Zm0,5.43555a1.10108,1.10108,0,0,1,.82032-.30762,1.14293,1.14293,0,0,1,.85058.30762,1.04565,1.04565,0,0,1,.30371.76367,1.0298,1.0298,0,0,1-.30371.75879,1.30094,1.30094,0,0,1-1.6709,0,1.02984,1.02984,0,0,1-.30371-.75879A1.04569,1.04569,0,0,1,567.27148,118.46925Z"/><path class="cls-8" d="M583.83789,114.52492q.20508.07617.37207.15234a2.232,2.232,0,0,1,1.17676,2.27734,2.91868,2.91868,0,0,1-1.25684,2.35352,4.59747,4.59747,0,0,1-2.92676.9873,6.74553,6.74553,0,0,1-2.64941-.45507,5.76494,5.76494,0,0,1-1.82226-1.21485L578.25,117.107a3.60705,3.60705,0,0,0,2.582,1.0625q1.51758,0,1.89356-.64551a1.19929,1.19929,0,0,0,0-1.29q-.375-.646-2.64551-.72168v-2.0498q2.27051.15234,2.64551-.49317a1.201,1.201,0,0,0,0-1.291q-.375-.64454-1.89356-.64551a2.70333,2.70333,0,0,0-2.20215.91113l-1.51855-1.51855a5.29238,5.29238,0,0,1,1.63281-1.13868,6.35175,6.35175,0,0,1,2.459-.37988,4.009,4.009,0,0,1,2.7754.98731,3.05432,3.05432,0,0,1,1.10449,2.35351,2.253,2.253,0,0,1-1.02442,2.16406C583.99219,114.44679,583.919,114.48488,583.83789,114.52492Z"/><path class="cls-8" d="M587.23926,117.2505v-1.51074h4.707v1.51074Z"/><path class="cls-8" d="M595.35547,120.29542l.00781-.75879,3.56055-8.5039h-4.874l-.00781-2.126h7.77442v.83594l-4.24414,10.55273Z"/><path class="cls-8" d="M604.31348,113.71339a2.936,2.936,0,1,1,2.03515.81934A2.76692,2.76692,0,0,1,604.31348,113.71339Zm2.01269-.53222a1.35451,1.35451,0,0,0,1.04-.43262,1.64044,1.64044,0,0,0,0-2.15235,1.37148,1.37148,0,0,0-1.04785-.42871,1.35263,1.35263,0,0,0-1.0332.42871,1.64041,1.64041,0,0,0,0,2.15235A1.35517,1.35517,0,0,0,606.32617,113.18117Zm-.60742,7.11425,6.45313-11.38867h1.85253l-6.43847,11.38867Zm5.65625-.75195a2.91489,2.91489,0,1,1,2.01855.8125A2.7394,2.7394,0,0,1,611.375,119.54347Zm1.98145-.55371a1.32832,1.32832,0,0,0,1.0166-.42188,1.58454,1.58454,0,0,0,0-2.09472,1.338,1.338,0,0,0-1.02442-.42188,1.32077,1.32077,0,0,0-1.00976.42188,1.58747,1.58747,0,0,0,0,2.09472A1.33042,1.33042,0,0,0,613.35645,118.98976Z"/><g class="cls-9"><g id="SmallTopDown-8383-DaytimeCBD.psd"><g class="cls-10"><image id="SmallTopDown-8383-DaytimeCBD" width="4124" height="3466" transform="translate(2.56702 -306.41002) scale(0.09688)" xlink:href="THC%20-%20Daytime%20CBD3.png"/></g></g></g></g></g></svg>