<svg id="Layer_1" data-name="Layer 1" xmlns="http://www.w3.org/2000/svg" width="320" height="480" viewBox="0 0 320 480"><defs><style>.cls-1{fill:#fff;}</style></defs><title>self-care</title><path class="cls-1" d="M67.837,291.09471H64.45319V268.651h4.84805l3.15,16.09453L75.47819,268.651h4.66348v22.44375H76.75788V276.99354l-2.92442,14.10117H71.11764L67.837,277.03046Z"/><path class="cls-1" d="M89.46745,268.38026a5.36741,5.36741,0,0,1,5.37715,5.37715v12.24316a5.36641,5.36641,0,0,1-5.37715,5.37715,5.1187,5.1187,0,0,1-3.7834-1.575,5.20989,5.20989,0,0,1-1.55684-3.80215V273.75741a5.36751,5.36751,0,0,1,5.34024-5.37715Zm1.8457,5.31387a1.91086,1.91086,0,0,0-1.93183-1.93008,1.89346,1.89346,0,0,0-1.37227.55957,1.84408,1.84408,0,0,0-.57188,1.37051v12.28359a1.85151,1.85151,0,0,0,.57188,1.36465,1.88493,1.88493,0,0,0,1.37227.56543,1.92058,1.92058,0,0,0,1.93183-1.93008Z"/><path class="cls-1" d="M104.17038,268.651a5.12489,5.12489,0,0,1,4.14609,1.5627,5.6463,5.6463,0,0,1,1.16953,3.78984v3.26074a5.22043,5.22043,0,0,1-1.80586,4.02364l2.50664,9.80683h-3.64921l-2.06368-8.47793c-.09843.00821-.20039.01231-.307.01231h-1.94062v8.46562H98.84186V268.651Zm2.018,5.41407a1.71619,1.71619,0,0,0-1.92657-1.95645h-2.03554v7.17363h2.03554a1.83669,1.83669,0,0,0,1.36758-.57187,1.89525,1.89525,0,0,0,.559-1.37227Z"/><path class="cls-1" d="M114.09967,291.09471V268.651h9.634v3.38379h-6.25078v6.15235h4.56445v3.38378h-4.56445v6.14h6.25078v3.38379Z"/><path class="cls-1" d="M144.91882,285.52069a6.29071,6.29071,0,0,1-1.21875,4.01133,4.32681,4.32681,0,0,1-2.325,1.5873,6.21863,6.21863,0,0,1-1.882.2584,5.31827,5.31827,0,0,1-3.29765-.98437,5.61014,5.61014,0,0,1-1.72266-2.19668,8.62887,8.62887,0,0,1-.73828-3.19278l3.21094-.22148a4.87286,4.87286,0,0,0,1.04531,2.83008,1.71515,1.71515,0,0,0,1.391.62754,2.10879,2.10879,0,0,0,1.77187-1.08282,2.72,2.72,0,0,0,.34453-1.48886,4.14941,4.14941,0,0,0-1.26679-2.79317q-1.01075-.94746-3.01524-2.84238a12.46257,12.46257,0,0,1-2.37539-2.91621,6.75764,6.75764,0,0,1-.75-3.15,5.48107,5.48107,0,0,1,2.05547-4.63887,5.10839,5.10839,0,0,1,3.15-.94746,5.71372,5.71372,0,0,1,3.10078.81211,4.67549,4.67549,0,0,1,1.61133,1.75312,6.63626,6.63626,0,0,1,.75117,2.59043l-3.24844.59063a3.80793,3.80793,0,0,0-.7875-2.141,1.64349,1.64349,0,0,0-1.34179-.566,1.55708,1.55708,0,0,0-1.41446.82441,3.17514,3.17514,0,0,0-.39375,1.64883,4.95685,4.95685,0,0,0,1.32891,3.1377,11.82913,11.82913,0,0,0,1.5,1.42734q1.18125.98438,1.56328,1.37812a11.91112,11.91112,0,0,1,1.93125,2.47325,9.06013,9.06013,0,0,1,.518,1.0582A6.31127,6.31127,0,0,1,144.91882,285.52069Z"/><path class="cls-1" d="M148.73327,291.09471V268.651h9.634v3.38379h-6.25078v6.15235h4.56445v3.38378h-4.56445v6.14h6.25078v3.38379Z"/><path class="cls-1" d="M170.92858,291.09471h-9.22734V268.651h3.3832v19.08457h5.84414Z"/><path class="cls-1" d="M177.63405,291.09471h-3.3832V268.651h9.634v3.38379h-6.25078v6.15235h4.56445v3.38378h-4.56445Z"/><path class="cls-1" d="M187.10749,279.41639h9.06328v3.08379h-9.06328Z"/><path class="cls-1" d="M204.67389,291.37772a5.33457,5.33457,0,0,1-5.36484-5.35254V273.7328a5.35842,5.35842,0,1,1,10.7168,0v2.55937h-3.50743v-2.62089a1.9535,1.9535,0,0,0-1.95585-1.95645,1.84612,1.84612,0,0,0-1.36524.57246,1.89092,1.89092,0,0,0-.56719,1.384v12.317a1.93455,1.93455,0,0,0,1.93243,1.94414,1.8944,1.8944,0,0,0,1.384-.566,1.86293,1.86293,0,0,0,.57187-1.37812v-3.08848h3.50743v3.12539a5.34636,5.34636,0,0,1-5.352,5.35254Z"/><path class="cls-1" d="M217.30905,285.93905l-.825,5.15566h-3.518l3.80156-22.44375h4.66407l3.75234,22.44375H221.6403l-.79922-5.15566Zm1.77187-12.14473-1.25507,8.84707H220.336Z"/><path class="cls-1" d="M234.37389,268.651a5.12493,5.12493,0,0,1,4.1461,1.5627,5.64635,5.64635,0,0,1,1.16953,3.78984v3.26074a5.22046,5.22046,0,0,1-1.80586,4.02364l2.50664,9.80683h-3.64922l-2.06367-8.47793c-.09844.00821-.20039.01231-.307.01231h-1.94063v8.46562h-3.3832V268.651Zm2.018,5.41407a1.71584,1.71584,0,0,0-1.92539-1.95645h-2.03672v7.17363h2.03672a1.84038,1.84038,0,0,0,1.36758-.57187,1.89891,1.89891,0,0,0,.55781-1.37227Z"/><path class="cls-1" d="M244.30319,291.09471V268.651h9.634v3.38379h-6.25078v6.15235h4.56446v3.38378h-4.56446v6.14h6.25078v3.38379Z"/><path class="cls-1" d="M257.27233,287.72323h3.3832V291.107h-3.3832Z"/></svg>