<svg id="Content" xmlns="http://www.w3.org/2000/svg" xmlns:xlink="http://www.w3.org/1999/xlink" width="300" height="600" viewBox="0 0 300 600"><defs><style>.cls-1{fill:#ba9544;}.cls-2{fill:#fff;stroke:#ba9544;stroke-miterlimit:10;stroke-width:0.5px;}.cls-3{clip-path:url(#clip-path);}</style><clipPath id="clip-path"><polygon class="cls-1" points="47.548 320.921 56.941 334.227 57.126 334.243 57.126 307.379 56.941 307.373 47.548 320.921"/></clipPath></defs><title>CBD - Sensi Star</title><polygon class="cls-2" points="242.819 308.048 56.736 307.343 47.343 320.889 56.736 334.195 242.819 333.878 251.273 320.964 242.819 308.048"/><polygon class="cls-1" points="47.548 320.921 56.941 334.227 57.126 334.243 57.126 307.379 56.941 307.373 47.548 320.921"/><g class="cls-3"><rect class="cls-1" x="45.46991" y="305.29642" width="13.72837" height="31.02293"/></g><path class="cls-1" d="M156.667,325.3599a4.55728,4.55728,0,0,1,3.24024-7.80176,4.93107,4.93107,0,0,1,3.34668,1.21485l-1.21485,1.33007a3.3611,3.3611,0,0,0-2.13183-.72851,2.59585,2.59585,0,0,0-2.72657,2.708,2.73221,2.73221,0,0,0,.75879,2.01757,2.68868,2.68868,0,0,0,1.98047.7461,3.26,3.26,0,0,0,2.11914-.72266l1.21485,1.33008a4.91059,4.91059,0,0,1-3.34668,1.21484A4.43077,4.43077,0,0,1,156.667,325.3599Z"/><path class="cls-1" d="M171.68457,321.86478a2.58656,2.58656,0,0,1-1.48242,4.80957l-5.126-.00586V317.565h4.835q2.30127.13184,2.42969,2.67773A1.90662,1.90662,0,0,1,171.68457,321.86478Zm-4.78027-.64941h2.55078a1.029,1.029,0,0,0,1.12988-1.13672q-.03077-.668-1.11133-.7041H166.9043Zm0,4.03223h2.97656a1.18948,1.18948,0,0,0,1.31152-1.31739c-.0205-.584-.45117-.88672-1.29394-.91211H166.9043Z"/><path class="cls-1" d="M174.76953,326.66849v-9.11621h3.51074q4.251,0,4.252,4.56153,0,4.55566-4.252,4.55468Zm3.51074-1.81543q2.42286-.00585,2.42969-2.73925-.00587-2.73341-2.42969-2.7334H176.5918v5.47265Z"/><path class="cls-1" d="M188.81836,320.8599a.88086.88086,0,0,1,.65625-.24609.9125.9125,0,0,1,.67969.24609.8328.8328,0,0,1,.24316.60937.82214.82214,0,0,1-.24316.60743,1.03586,1.03586,0,0,1-1.33594,0,.82214.82214,0,0,1-.24316-.60743A.8328.8328,0,0,1,188.81836,320.8599Zm0,4.34766a.88407.88407,0,0,1,.65625-.24512.91586.91586,0,0,1,.67969.24512.8357.8357,0,0,1,.24316.61132.82524.82524,0,0,1-.24316.60743,1.04227,1.04227,0,0,1-1.33594,0,.82524.82524,0,0,1-.24316-.60743A.8357.8357,0,0,1,188.81836,325.20756Z"/><path class="cls-1" d="M201.85352,320.17045l-3.52344,1.94336,3.52344,1.94336v1.39648l-5.75782-3.16406v-.39453l5.75782-3.12207Z"/><path class="cls-1" d="M209.74316,317.55814v-.00586h1.81641v9.11621h-1.81641v-6.68066l-1.21484,1.21484-1.21484-1.21484Z"/></svg>