<svg id="Content" xmlns="http://www.w3.org/2000/svg" xmlns:xlink="http://www.w3.org/1999/xlink" width="640" height="1136" viewBox="0 0 640 1136"><defs><style>.cls-1{fill:#ba9544;}.cls-2{fill:#fff;stroke:#ba9544;stroke-miterlimit:10;}.cls-3{clip-path:url(#clip-path);}</style><clipPath id="clip-path"><polygon class="cls-1" points="117.127 712.822 135.914 739.433 182.038 739.467 182.038 685.738 135.914 685.726 117.127 712.822"/></clipPath></defs><title>CBD - Durga Mata</title><polygon class="cls-2" points="507.668 687.076 135.505 685.666 116.717 712.758 135.505 739.369 507.668 738.735 524.577 712.908 507.668 687.076"/><polygon class="cls-1" points="117.127 712.822 135.914 739.433 182.038 739.467 182.038 685.738 135.914 685.726 117.127 712.822"/><g class="cls-3"><rect class="cls-1" x="112.97163" y="681.57288" width="27.45663" height="62.04561"/></g><path class="cls-1" d="M335.36387,721.69743a9.11409,9.11409,0,0,1,6.48047-15.60352,9.86035,9.86035,0,0,1,6.69336,2.42969l-2.42969,2.66016a6.71654,6.71654,0,0,0-4.26367-1.457,5.35273,5.35273,0,0,0-3.9541,1.53027,5.29862,5.29862,0,0,0-1.5,3.8877,5.46263,5.46263,0,0,0,1.51856,4.03222,5.37781,5.37781,0,0,0,3.96,1.49414,6.52806,6.52806,0,0,0,4.23925-1.44531l2.42969,2.66016a9.82768,9.82768,0,0,1-6.69336,2.42968A8.86311,8.86311,0,0,1,335.36387,721.69743Z"/><path class="cls-1" d="M365.399,714.7072a5.21722,5.21722,0,0,1,2.53809,4.166q-.24316,5.1504-5.50293,5.4541l-10.252-.01172v-18.209h9.66895q4.604.2666,4.85937,5.35645Q366.62559,713.89323,365.399,714.7072Zm-9.56055-1.29981h5.10157a2.057,2.057,0,0,0,2.25976-2.27148q-.06006-1.33595-2.22266-1.40918h-5.13867Zm0,8.06543h5.95215a2.37866,2.37866,0,0,0,2.624-2.63574q-.06151-1.749-2.58691-1.82227h-5.98926Z"/><path class="cls-1" d="M371.56993,724.31559V706.0822h7.02148q8.50342,0,8.50293,9.123,0,9.10986-8.50293,9.11035Zm7.02148-3.63183q4.84717-.01172,4.8584-5.47852-.01172-5.4668-4.8584-5.46679h-3.377v10.94531Z"/><path class="cls-1" d="M391.16368,712.69645a1.75791,1.75791,0,0,1,1.31152-.49218,1.82429,1.82429,0,0,1,1.36035.49218,1.66854,1.66854,0,0,1,.48633,1.22071,1.64582,1.64582,0,0,1-.48633,1.21484,2.07805,2.07805,0,0,1-2.67187,0,1.64582,1.64582,0,0,1-.48633-1.21484A1.66854,1.66854,0,0,1,391.16368,712.69645Zm0,8.69727a1.76109,1.76109,0,0,1,1.31152-.49121,1.82764,1.82764,0,0,1,1.36035.49121,1.66918,1.66918,0,0,1,.48633,1.22168,1.64516,1.64516,0,0,1-.48633,1.21387,2.07809,2.07809,0,0,1-2.67187,0,1.64516,1.64516,0,0,1-.48633-1.21387A1.66918,1.66918,0,0,1,391.16368,721.39372Z"/><path class="cls-1" d="M419.0045,714.172q-.07178,5.81982-2.19238,8.07812a6.151,6.151,0,0,1-5.26563,1.99219,7.58251,7.58251,0,0,1-4.89551-2.30762l2.05274-2.23535a6.36249,6.36249,0,0,0,3.03711,1.03223,3.21012,3.21012,0,0,0,2.59961-.77734,4.8969,4.8969,0,0,0,1.34863-2.97559,5.70163,5.70163,0,0,1-3.77832,1.21484,6.09718,6.09718,0,0,1-4.49414-2.0957,6.252,6.252,0,0,1-1.06934-4.56152,5.98511,5.98511,0,0,1,2.12012-4.124,6.43153,6.43153,0,0,1,5.01074-1.26953,5.94518,5.94518,0,0,1,4.09961,2.418A10.26961,10.26961,0,0,1,419.0045,714.172Zm-3.64356-2.00391q-.12158-2.53857-2.916-2.64843-2.79346.10986-2.915,2.418.12158,3.03663,3.03711,3.03614A2.70536,2.70536,0,0,0,415.36094,712.16813Z"/><path class="cls-1" d="M422.23594,719.4445v-2.417h7.53125v2.417Z"/><path class="cls-1" d="M437.62657,706.09391v-.01171h3.63281v18.23339h-3.63281v-13.3623l-2.42969,2.42969-2.42871-2.42969Z"/><path class="cls-1" d="M456.23692,715.08317q.32813.12159.5957.24317,1.88234.85107,1.88282,3.64453a4.67307,4.67307,0,0,1-2.01075,3.76562,7.36365,7.36365,0,0,1-4.68261,1.5791,10.79468,10.79468,0,0,1-4.23926-.72851,9.17674,9.17674,0,0,1-2.916-1.94434l2.42969-2.42871a5.77445,5.77445,0,0,0,4.12988,1.7002q2.43018,0,3.03125-1.03223a1.92592,1.92592,0,0,0,0-2.06543q-.602-1.03272-4.2334-1.1543V713.383q3.63135.24316,4.2334-.79a1.92425,1.92425,0,0,0,0-2.06446q-.602-1.0327-3.03125-1.0332a4.32555,4.32555,0,0,0-3.52246,1.458l-2.42969-2.42969a8.49909,8.49909,0,0,1,2.61133-1.82226,10.18048,10.18048,0,0,1,3.93653-.60743,6.41548,6.41548,0,0,1,4.43945,1.58008,4.88455,4.88455,0,0,1,1.76758,3.76563q0,2.55029-1.63965,3.46191C456.484,714.95817,456.3668,715.01872,456.23692,715.08317Z"/><path class="cls-1" d="M462.73594,713.78337a4.69458,4.69458,0,1,1,3.25586,1.3125A4.41977,4.41977,0,0,1,462.73594,713.78337Zm3.21973-.84961a2.17281,2.17281,0,0,0,1.66406-.69238,2.626,2.626,0,0,0,0-3.44434,2.19654,2.19654,0,0,0-1.67676-.68652,2.16449,2.16449,0,0,0-1.65136.68652,2.62306,2.62306,0,0,0,0,3.44434A2.16993,2.16993,0,0,0,465.95567,712.93376Zm-.97168,11.38183,10.3252-18.22168h2.96386l-10.30078,18.22168Zm9.04981-1.20214a4.66554,4.66554,0,1,1,3.23046,1.2998A4.3864,4.3864,0,0,1,474.0338,723.11345Zm3.16992-.8877a2.13094,2.13094,0,0,0,1.62793-.67383,2.5395,2.5395,0,0,0,0-3.35254,2.14484,2.14484,0,0,0-1.63965-.67382,2.11716,2.11716,0,0,0-1.61621.67382,2.54243,2.54243,0,0,0,0,3.35254A2.13093,2.13093,0,0,0,477.20372,722.22575Z"/></svg>