<?xml version="1.0" encoding="utf-8"?>
<!-- Generator: Adobe Illustrator 23.0.1, SVG Export Plug-In . SVG Version: 6.00 Build 0)  -->
<svg version="1.1" id="Layer_1" xmlns="http://www.w3.org/2000/svg" xmlns:xlink="http://www.w3.org/1999/xlink" x="0px" y="0px"
	 viewBox="0 0 728 90" enable-background="new 0 0 728 90" xml:space="preserve">
<g>
	<g>
		<polygon fill="#FFFFFF" stroke="#BA9544" stroke-width="0.5" stroke-miterlimit="10" points="446.07,50.7 315.14,50.21 
			308.53,59.74 315.14,69.1 446.07,68.88 452.02,59.79 		"/>
		<g>
			<defs>
				<polygon id="SVGID_1_" points="308.68,59.76 315.29,69.12 331.51,69.14 331.51,50.23 315.29,50.23 				"/>
			</defs>
			<use xlink:href="#SVGID_1_"  overflow="visible" fill="#BA9544"/>
			<clipPath id="SVGID_2_">
				<use xlink:href="#SVGID_1_"  overflow="visible"/>
			</clipPath>
			<g clip-path="url(#SVGID_2_)">
				<defs>
					<rect id="SVGID_3_" x="307.22" y="48.77" width="9.66" height="21.83"/>
				</defs>
				<use xlink:href="#SVGID_3_"  overflow="visible" fill="#BA9544"/>
				<clipPath id="SVGID_4_">
					<use xlink:href="#SVGID_3_"  overflow="visible"/>
				</clipPath>
			</g>
		</g>
	</g>
	<g>
		<path fill="#BA9544" d="M385.45,62.88c-0.61-0.61-0.92-1.38-0.92-2.3c0-0.9,0.31-1.66,0.92-2.27c0.61-0.61,1.37-0.92,2.28-0.92
			c0.92,0,1.7,0.29,2.35,0.85l-0.85,0.94c-0.44-0.34-0.94-0.51-1.5-0.51c-0.58,0-1.04,0.18-1.39,0.54
			c-0.35,0.36-0.53,0.81-0.53,1.37c0,0.6,0.18,1.07,0.53,1.42s0.82,0.53,1.39,0.53s1.07-0.17,1.49-0.51l0.85,0.94
			c-0.65,0.57-1.44,0.85-2.35,0.85C386.83,63.8,386.07,63.49,385.45,62.88z"/>
		<path fill="#BA9544" d="M396.02,60.42c0.56,0.38,0.86,0.86,0.89,1.47c-0.06,1.21-0.7,1.85-1.94,1.92l-3.61,0v-6.41h3.4
			c1.08,0.06,1.65,0.69,1.71,1.88C396.46,59.85,396.31,60.23,396.02,60.42z M392.66,59.96h1.79c0.52-0.01,0.78-0.27,0.79-0.8
			c-0.01-0.31-0.28-0.48-0.78-0.5h-1.81V59.96z M392.66,62.8h2.09c0.6-0.01,0.91-0.32,0.92-0.93c-0.01-0.41-0.32-0.62-0.91-0.64
			h-2.11V62.8z"/>
		<path fill="#BA9544" d="M398.19,63.8v-6.42h2.47c1.99,0,2.99,1.07,2.99,3.21c0,2.14-1,3.21-2.99,3.21H398.19z M400.66,62.52
			c1.14,0,1.71-0.65,1.71-1.93c0-1.28-0.57-1.92-1.71-1.92h-1.19v3.85H400.66z"/>
		<path fill="#BA9544" d="M405.08,59.71c0.11-0.12,0.27-0.17,0.46-0.17c0.21,0,0.36,0.06,0.48,0.17s0.17,0.26,0.17,0.43
			s-0.06,0.31-0.17,0.43c-0.11,0.11-0.27,0.17-0.47,0.17c-0.2,0-0.36-0.06-0.47-0.17c-0.11-0.11-0.17-0.26-0.17-0.43
			S404.97,59.83,405.08,59.71z M405.08,62.77c0.11-0.12,0.27-0.17,0.46-0.17c0.21,0,0.36,0.06,0.48,0.17
			c0.11,0.12,0.17,0.26,0.17,0.43s-0.06,0.31-0.17,0.43s-0.27,0.17-0.47,0.17c-0.2,0-0.36-0.06-0.47-0.17s-0.17-0.26-0.17-0.43
			S404.97,62.89,405.08,62.77z"/>
		<path fill="#BA9544" d="M414.88,60.23c-0.02,1.36-0.27,2.31-0.77,2.84c-0.5,0.53-1.12,0.76-1.85,0.7
			c-0.74-0.09-1.31-0.36-1.72-0.81l0.72-0.79c0.3,0.2,0.65,0.32,1.07,0.36c0.37,0.04,0.67-0.05,0.91-0.27s0.4-0.57,0.47-1.05
			c-0.47,0.32-0.91,0.47-1.33,0.43c-0.74-0.07-1.26-0.32-1.58-0.74c-0.32-0.42-0.44-0.95-0.38-1.61c0.06-0.59,0.31-1.08,0.75-1.45
			c0.44-0.37,1.03-0.52,1.76-0.45c0.65,0.11,1.13,0.39,1.44,0.85C414.69,58.71,414.86,59.37,414.88,60.23z M413.6,59.53
			c-0.03-0.6-0.37-0.91-1.03-0.93c-0.66,0.03-1,0.31-1.03,0.85c0.03,0.71,0.38,1.07,1.07,1.07
			C413.21,60.49,413.54,60.16,413.6,59.53z"/>
		<path fill="#BA9544" d="M416.02,62.09v-0.85h2.65v0.85H416.02z"/>
		<path fill="#BA9544" d="M421.43,57.39L421.43,57.39l1.28,0v6.42h-1.28v-4.7l-0.85,0.86l-0.85-0.86L421.43,57.39z"/>
		<path fill="#BA9544" d="M427.98,60.55c0.08,0.03,0.15,0.06,0.21,0.09c0.44,0.2,0.66,0.63,0.66,1.28c0,0.51-0.24,0.95-0.71,1.32
			c-0.47,0.37-1.02,0.56-1.65,0.56c-0.6,0-1.09-0.09-1.49-0.26c-0.4-0.17-0.74-0.4-1.03-0.68l0.85-0.85
			c0.29,0.34,0.77,0.54,1.45,0.6c0.57,0,0.93-0.12,1.07-0.36s0.14-0.48,0-0.73s-0.64-0.38-1.49-0.41v-1.15
			c0.85,0.06,1.35-0.04,1.49-0.28s0.14-0.48,0-0.73s-0.5-0.36-1.07-0.36c-0.54,0-0.95,0.17-1.24,0.51l-0.85-0.85
			c0.29-0.29,0.59-0.5,0.92-0.64c0.33-0.14,0.79-0.21,1.38-0.21c0.63,0,1.15,0.19,1.56,0.56c0.42,0.37,0.62,0.81,0.62,1.32
			c0,0.6-0.19,1-0.58,1.22C428.07,60.51,428.02,60.53,427.98,60.55z"/>
		<path fill="#BA9544" d="M430.26,60.09c-0.31-0.31-0.46-0.69-0.46-1.15s0.15-0.84,0.46-1.15s0.69-0.46,1.15-0.46
			c0.46,0,0.84,0.15,1.14,0.46s0.46,0.69,0.46,1.15s-0.15,0.84-0.46,1.15s-0.69,0.46-1.14,0.46
			C430.95,60.56,430.57,60.4,430.26,60.09z M431.4,59.8c0.24,0,0.43-0.08,0.59-0.24s0.23-0.36,0.23-0.61s-0.08-0.44-0.23-0.6
			c-0.15-0.16-0.35-0.24-0.59-0.24c-0.24,0-0.43,0.08-0.58,0.24c-0.15,0.16-0.23,0.36-0.23,0.6s0.08,0.44,0.23,0.61
			S431.16,59.8,431.4,59.8z M431.05,63.8l3.63-6.41h1.04l-3.62,6.41H431.05z M434.24,63.38c-0.31-0.3-0.46-0.68-0.46-1.14
			s0.15-0.83,0.46-1.14c0.3-0.3,0.68-0.46,1.14-0.46c0.45,0,0.83,0.15,1.14,0.46c0.3,0.3,0.46,0.68,0.46,1.14s-0.15,0.83-0.46,1.14
			c-0.31,0.3-0.68,0.46-1.14,0.46C434.92,63.83,434.54,63.68,434.24,63.38z M435.35,63.06c0.23,0,0.42-0.08,0.57-0.24
			c0.15-0.16,0.22-0.35,0.22-0.59c0-0.23-0.07-0.43-0.22-0.59s-0.34-0.24-0.58-0.24c-0.23,0-0.42,0.08-0.57,0.24
			c-0.15,0.16-0.22,0.35-0.22,0.59c0,0.24,0.07,0.43,0.22,0.59C434.93,62.99,435.12,63.06,435.35,63.06z"/>
	</g>
</g>
<g>
</g>
<g>
</g>
<g>
</g>
<g>
</g>
<g>
</g>
<g>
</g>
<g>
</g>
<g>
</g>
<g>
</g>
<g>
</g>
<g>
</g>
<g>
</g>
<g>
</g>
<g>
</g>
<g>
</g>
</svg>
