<?xml version="1.0" encoding="utf-8"?>
<!-- Generator: Adobe Illustrator 23.0.1, SVG Export Plug-In . SVG Version: 6.00 Build 0)  -->
<svg version="1.1" id="Layer_2" xmlns="http://www.w3.org/2000/svg" xmlns:xlink="http://www.w3.org/1999/xlink" x="0px" y="0px"
	 viewBox="0 0 37 52" style="enable-background:new 0 0 37 52;" xml:space="preserve">
<style type="text/css">
	.st0{fill:url(#SVGID_1_);}
	.st1{fill:#FFFFFF;}
	.st2{fill:#BA9544;}
</style>
<g>
	<g>
		<linearGradient id="SVGID_1_" gradientUnits="userSpaceOnUse" x1="2.4782" y1="17.4163" x2="34.5239" y2="17.4163">
			<stop  offset="0" style="stop-color:#A88A34"/>
			<stop  offset="0.4932" style="stop-color:#CAAF67"/>
			<stop  offset="1" style="stop-color:#957F2E"/>
		</linearGradient>
		<polygon class="st0" points="31.32,6.32 15.3,0.76 2.48,11.86 5.68,28.52 21.7,34.07 34.52,22.97 		"/>
		<path class="st1" d="M22.53,21.31c-0.21-0.37-0.88-1.43-1.87-1.73c-0.47-0.14-0.94-0.1-1.4,0.14c-0.21-0.08-0.46-0.15-0.73-0.19
			c0.1-0.84,0.74-1.95,1.56-3.07c0.04,0,0.08,0,0.12,0c0.15,0,0.3,0,0.45,0c1.74,0,3.29-0.23,3.37-3.38
			c0.01-0.31,0.41-1.07,0.66-1.48l0.24-0.39h-0.46c-2.75,0-4.98,2.24-4.98,4.99v0.24c-0.19,0.27-0.37,0.54-0.53,0.81
			c-0.19-3.36-2.98-6.03-6.38-6.03h-0.46l0.24,0.39c0.33,0.54,0.85,1.54,0.86,1.95c0.1,4.02,2.08,4.31,4.3,4.31
			c0.19,0,0.38,0,0.57,0c0.17,0,0.34,0,0.51,0C18.27,18.44,18.06,19,18,19.48c-0.81-0.01-1.7,0.27-2.22,1.23
			c-0.47-0.15-1.54-0.41-2.39,0.13c-0.69,0.44-1.06,1.28-1.1,2.51l-0.01,0.27h12.34l0.05-0.2c0.01-0.02,0.14-0.62-0.26-1.18
			C24.07,21.74,23.43,21.43,22.53,21.31"/>
	</g>
	<g>
		<path class="st2" d="M0.46,51.48v-6.12l4.5,0v1.14H1.68v1.31h2.45v1.14H1.68v1.39h3.26v1.14H0.46z"/>
		<path class="st2" d="M5.87,51.48l2.45-6.12h1.22l2.44,6.12l-1.3,0l-0.37-0.94H7.54l-0.37,0.94H5.87z M8.96,46.99l-0.93,2.33h1.84
			L8.96,46.99z"/>
		<path class="st2" d="M16.58,48.81l1.53,2.67h-1.4l-1.46-2.53h-1.12v2.53H12.9v-6.12h2.67c1.43,0,2.14,0.59,2.14,1.76
			C17.71,48.01,17.33,48.57,16.58,48.81z M14.12,47.81h1.71c0.49-0.01,0.75-0.23,0.76-0.67c-0.01-0.4-0.26-0.61-0.75-0.63h-1.73
			V47.81z"/>
		<path class="st2" d="M23.74,45.36v1.14H21.7v4.98h-1.22V46.5h-2.04v-1.14H23.74z"/>
		<path class="st2" d="M24.65,51.48v-6.12h1.22v2.45h2.85v-2.45h1.22v6.12l-1.22,0v-2.53h-2.85v2.53H24.65z"/>
		<path class="st2" d="M30.91,45.36h1.44l1.42,2l1.45-2h1.4l-2.24,3.06v3.06h-1.22v-3.06L30.91,45.36z"/>
	</g>
</g>
<g>
</g>
<g>
</g>
<g>
</g>
<g>
</g>
<g>
</g>
<g>
</g>
<g>
</g>
<g>
</g>
<g>
</g>
<g>
</g>
<g>
</g>
<g>
</g>
<g>
</g>
<g>
</g>
<g>
</g>
</svg>
