<svg id="Layer_1" data-name="Layer 1" xmlns="http://www.w3.org/2000/svg" width="160" height="600" viewBox="0 0 160 600"><defs><style>.cls-1{fill:#ab9555;}</style></defs><title>frame4</title><path class="cls-1" d="M21.8882,296.00586V279.084h3.81836a4.86505,4.86505,0,0,1,2.72656.79639,3.70629,3.70629,0,0,1,1.48437,2.09131,5.88885,5.88885,0,0,1,.24219,1.79492,3.97222,3.97222,0,0,1-.90332,2.72559,2.567,2.567,0,0,1-.89062.66162,2.96174,2.96174,0,0,1,1.44336,1.28174,4.98822,4.98822,0,0,1,.58007,1.67334,6.62111,6.62111,0,0,1,.09473,1.17382,5.64579,5.64579,0,0,1-.60742,2.72608,3.63257,3.63257,0,0,1-1.33594,1.40332,3.6776,3.6776,0,0,1-1.92969.59375Zm2.75293-10.0127h1.06543a1.56218,1.56218,0,0,0,1.59277-1.16064,3.31721,3.31721,0,0,0,.14844-1.06592,2.22957,2.22957,0,0,0-.5127-1.59228,1.615,1.615,0,0,0-1.22851-.49952H24.64113Zm0,7.48926h1.06543a1.80948,1.80948,0,0,0,1.79492-1.33594,2.928,2.928,0,0,0,.17578-1.05273,3.20205,3.20205,0,0,0-.54-2.06445,1.73946,1.73946,0,0,0-1.43066-.59375H24.64113Z"/><path class="cls-1" d="M34.96339,296.00586V279.084h7.25977v2.564h-4.709v4.61523H40.9546v2.56348H37.51417v4.61523h4.709v2.564Z"/><path class="cls-1" d="M55.07277,279.09766a3.88381,3.88381,0,0,1,2.96875,1.17382,4.07282,4.07282,0,0,1,1.02539,2.86084v2.45606a3.933,3.933,0,0,1-1.167,2.86084,3.81878,3.81878,0,0,1-2.82715,1.1875H53.60206v6.36914H51.05128v-16.9082Zm1.52539,4.07519a1.45306,1.45306,0,0,0-.39844-1.06592,1.41839,1.41839,0,0,0-1.05957-.40527H53.60206v5.41162h1.53809a1.39277,1.39277,0,0,0,1.03223-.43213,1.425,1.425,0,0,0,.42578-1.03906Z"/><path class="cls-1" d="M67.40578,279.09766a3.89,3.89,0,0,1,3.13086,1.17382,4.27078,4.27078,0,0,1,.87695,2.86084v2.45606a3.95284,3.95284,0,0,1-1.36328,3.03613L71.94,296.00586H69.18117l-1.5459-6.36914h-1.7002v6.36914H63.38429v-16.9082Zm1.52441,4.07519a1.29414,1.29414,0,0,0-1.457-1.47119H65.93507v5.41162h1.53809a1.3943,1.3943,0,0,0,1.03223-.43213,1.42794,1.42794,0,0,0,.4248-1.03906Z"/><path class="cls-1" d="M76.40578,296.00586V279.084h7.25976v2.564h-4.709v4.61523H82.397v2.56348H78.95656v4.61523h4.709v2.564Z"/><path class="cls-1" d="M96.13429,291.79541a4.75731,4.75731,0,0,1-.918,3.02295,3.30763,3.30763,0,0,1-1.7539,1.20117,4.80374,4.80374,0,0,1-1.417.189,4.01093,4.01093,0,0,1-2.48339-.74219,4.15312,4.15312,0,0,1-1.30176-1.65332,6.66219,6.66219,0,0,1-.56055-2.395l2.42871-.17578a3.6921,3.6921,0,0,0,.78321,2.14306,1.30363,1.30363,0,0,0,1.05273.4751,1.583,1.583,0,0,0,1.33594-.82422,2.04544,2.04544,0,0,0,.25586-1.1206,3.11266,3.11266,0,0,0-.958-2.09375q-.75586-.71557-2.2666-2.14746a9.67185,9.67185,0,0,1-1.79492-2.20166,5.08915,5.08915,0,0,1-.56641-2.377,4.13368,4.13368,0,0,1,1.55176-3.49853,3.85593,3.85593,0,0,1,2.375-.71582,4.31552,4.31552,0,0,1,2.334.60742,3.512,3.512,0,0,1,1.22168,1.32227,4.8852,4.8852,0,0,1,.55957,1.957l-2.44238.44531a2.94538,2.94538,0,0,0-.59375-1.61963,1.24852,1.24852,0,0,0-1.01172-.418,1.16687,1.16687,0,0,0-1.06641.62061,2.38991,2.38991,0,0,0-.29687,1.24121,3.72515,3.72515,0,0,0,.999,2.36181,8.35882,8.35882,0,0,0,1.13281,1.07959q.89063.74195,1.17481,1.03907a8.67724,8.67724,0,0,1,1.457,1.8623,7.21833,7.21833,0,0,1,.3916.7959A4.67153,4.67153,0,0,1,96.13429,291.79541Z"/><path class="cls-1" d="M100.53078,296.00586V279.084h7.25976v2.564h-4.709v4.61523H106.522v2.56348h-3.44043v4.61523h4.709v2.564Z"/><path class="cls-1" d="M114.688,279.084l3.38477,11.37256V279.084h2.55078v16.92188h-2.73926l-3.50879-10.83594v10.83594h-2.55078V279.084Z"/><path class="cls-1" d="M127.66749,281.66162H124.9546v-2.564h7.96192v2.564H130.2173v14.34424h-2.54981Z"/><path class="cls-1" d="M136.94972,293.46875h2.55078v2.55078h-2.55078Z"/></svg>