<svg id="Content" xmlns="http://www.w3.org/2000/svg" width="320" height="50" viewBox="0 0 320 50"><defs><style>.cls-1{fill:#fff;stroke:#ba9544;stroke-miterlimit:10;stroke-width:0.5px;}.cls-2{fill:#ba9544;}</style></defs><title>THC - Shishkaberry</title><polygon class="cls-1" points="183.303 10.711 104.746 10.413 100.78 16.132 104.746 21.749 183.303 21.615 186.872 16.164 183.303 10.711"/><polygon class="cls-2" points="104.803 10.413 100.837 16.132 104.803 21.749 114.516 21.749 114.516 10.413 104.803 10.413"/><path class="cls-2" d="M149.71,14.25781v.71875h-1.28223v3.12793h-.76953V14.97656H146.376v-.71875Z"/><path class="cls-2" d="M150.28125,18.10449V14.25781h.76953v1.53907h1.792v-1.541h.76953v3.8457l-.76953.00293V16.51465h-1.792v1.58984Z"/><path class="cls-2" d="M154.80469,17.55176a1.92438,1.92438,0,0,1,1.36816-3.294,2.08319,2.08319,0,0,1,1.41309.51367l-.5127.56153a1.419,1.419,0,0,0-.90039-.30762,1.12811,1.12811,0,0,0-.834.32227,1.11665,1.11665,0,0,0-.31739.82129,1.15035,1.15035,0,0,0,.32129.85058,1.132,1.132,0,0,0,.83594.31543,1.37908,1.37908,0,0,0,.89453-.30469l.5127.56153a2.07538,2.07538,0,0,1-1.41309.51269A1.873,1.873,0,0,1,154.80469,17.55176Z"/><path class="cls-2" d="M158.44727,15.65234a.3726.3726,0,0,1,.27734-.10449.38524.38524,0,0,1,.28711.10449.37293.37293,0,0,1,0,.51368.43969.43969,0,0,1-.56445,0,.37293.37293,0,0,1,0-.51368Zm0,1.83594a.3726.3726,0,0,1,.27734-.10449.38524.38524,0,0,1,.28711.10449.37292.37292,0,0,1,0,.51367.43966.43966,0,0,1-.56445,0,.37292.37292,0,0,1,0-.51367Z"/><path class="cls-2" d="M162.543,14.25781v-.00195h.7666v3.84863h-.7666V15.28418l-.5127.5127-.51367-.5127Z"/><path class="cls-2" d="M165.77539,14.26074v-.00488h.7666v2.23535h.51856v.76758H166.542v.8457h-.7666v-.8457H164.0293v-.76758h.02539l-.02246-.02539Zm0,2.23047V15.26562l-.93555,1.22559Z"/><path class="cls-2" d="M167.64746,17.07617v-.50976h1.58984v.50976Z"/><path class="cls-2" d="M170.89648,14.25781v-.00195h.76661v3.84863h-.76661V15.28418l-.51269.5127-.51367-.5127Z"/><path class="cls-2" d="M174.501,16.15527c.0459.01758.08789.03516.126.05176a.75418.75418,0,0,1,.39649.76953.98492.98492,0,0,1-.37305.8584,1.84426,1.84426,0,0,1-1.91992,0,.98492.98492,0,0,1-.37305-.8584.75329.75329,0,0,1,.39746-.76953c.03711-.0166.0791-.03418.125-.05176-.02734-.01269-.05176-.02636-.07422-.03808a.76065.76065,0,0,1-.3457-.73047,1.05486,1.05486,0,0,1,.334-.834,1.51,1.51,0,0,1,1.793,0,1.05486,1.05486,0,0,1,.334.834.76065.76065,0,0,1-.3457.73047C174.55273,16.12891,174.52832,16.14258,174.501,16.15527Zm-.81055-.34863q.33839-.01026.43652-.17676a.412.412,0,0,0,0-.43554.495.495,0,0,0-.43652-.21582.48715.48715,0,0,0-.43359.21582.404.404,0,0,0,0,.43554Q173.352,15.79688,173.69043,15.80664Zm0,.70508a.57607.57607,0,0,0-.43359.2207.40568.40568,0,0,0,0,.43653.48661.48661,0,0,0,.43359.21484.4944.4944,0,0,0,.43652-.21484.41373.41373,0,0,0,0-.43653A.587.587,0,0,0,173.69043,16.51172Z"/><path class="cls-2" d="M175.918,15.88184a.99333.99333,0,1,1,.6875.27636A.93511.93511,0,0,1,175.918,15.88184Zm.67969-.17969a.45837.45837,0,0,0,.35156-.14649.51351.51351,0,0,0,.13574-.36425.50717.50717,0,0,0-.13574-.36231.46384.46384,0,0,0-.35352-.14551.45464.45464,0,0,0-.34863.14551.50791.50791,0,0,0-.13672.36231.51425.51425,0,0,0,.13672.36425A.45481.45481,0,0,0,176.59766,15.70215Zm-.20508,2.40234,2.17969-3.84668h.626l-2.1748,3.84668Zm1.91015-.2539a.985.985,0,1,1,.68262.27441A.92623.92623,0,0,1,178.30273,17.85059Zm.66993-.1875a.4486.4486,0,0,0,.34277-.14161.50076.50076,0,0,0,.13379-.35546.49532.49532,0,0,0-.13379-.35254.45282.45282,0,0,0-.3457-.14258.44657.44657,0,0,0-.34082.14258.49532.49532,0,0,0-.13379.35254.50076.50076,0,0,0,.13379.35546A.44925.44925,0,0,0,178.97266,17.66309Z"/></svg>