<svg id="Layer_1" data-name="Layer 1" xmlns="http://www.w3.org/2000/svg" width="728" height="90" viewBox="0 0 728 90"><defs><style>.cls-1{fill:#ab9555;}</style></defs><title>frame1</title><path class="cls-1" d="M165.40381,58.22949a4.21045,4.21045,0,0,1-4.23828-4.22363V40.27051h2.62207v13.707a1.46543,1.46543,0,0,0,.45361,1.084,1.49906,1.49906,0,0,0,1.09131.44629,1.52378,1.52378,0,0,0,1.53076-1.53027v-13.707h2.79248V54.00586a4.03761,4.03761,0,0,1-1.24707,3.00488A4.14574,4.14574,0,0,1,165.40381,58.22949Z"/><path class="cls-1" d="M176.64111,40.25635l3.55518,11.9458V40.25635h2.6792v17.7749h-2.87744L176.3125,46.64941V58.03125h-2.67871V40.25635Z"/><path class="cls-1" d="M191.09082,40.27051a4.083,4.083,0,0,1,3.11865,1.23291,4.27953,4.27953,0,0,1,1.07715,3.00488v2.58057a4.13057,4.13057,0,0,1-1.22607,3.00488,4.0116,4.0116,0,0,1-2.96973,1.24707H189.5459v6.69043h-2.67871V40.27051Zm1.602,4.28076a1.52955,1.52955,0,0,0-.41846-1.12012,1.49056,1.49056,0,0,0-1.1123-.42529H189.5459v5.68457h1.61621a1.46529,1.46529,0,0,0,1.084-.45313,1.50139,1.50139,0,0,0,.44678-1.09179Z"/><path class="cls-1" d="M206.32227,58.03125h-7.29981V40.27051h2.67871v15.0957h4.6211Z"/><path class="cls-1" d="M213.99951,58.22949a4.21045,4.21045,0,0,1-4.23828-4.22363V40.27051h2.62207v13.707a1.46547,1.46547,0,0,0,.45361,1.084,1.49907,1.49907,0,0,0,1.09131.44629,1.52376,1.52376,0,0,0,1.53076-1.53027v-13.707h2.79248V54.00586a4.03761,4.03761,0,0,1-1.24707,3.00488A4.14574,4.14574,0,0,1,213.99951,58.22949Z"/><path class="cls-1" d="M226.43945,58.25781a4.24612,4.24612,0,0,1-4.25244-4.23828V44.32471a4.24514,4.24514,0,1,1,8.49024,0v2.02685h-2.77784V44.26807a1.54873,1.54873,0,0,0-1.54541-1.54541,1.46466,1.46466,0,0,0-1.084.45361,1.49908,1.49908,0,0,0-.44678,1.0918v9.72314a1.52461,1.52461,0,0,0,1.53076,1.53125,1.50318,1.50318,0,0,0,1.0918-.44531,1.459,1.459,0,0,0,.45361-1.08106V50.50488h-1.48877V47.81152h4.26661v6.208a4.23441,4.23441,0,0,1-4.2378,4.23828Z"/><path class="cls-1" d="M234.1167,55.36621h2.67871V58.0459H234.1167Z"/></svg>