<?xml version="1.0" encoding="utf-8"?>
<!-- Generator: Adobe Illustrator 23.0.1, SVG Export Plug-In . SVG Version: 6.00 Build 0)  -->
<svg version="1.1" id="Content" xmlns="http://www.w3.org/2000/svg" xmlns:xlink="http://www.w3.org/1999/xlink" x="0px" y="0px"
	 viewBox="0 0 320 568" style="enable-background:new 0 0 320 568;" xml:space="preserve">
<style type="text/css">
	.st0{fill:#BA9544;}
</style>
<title>Frame2 - Shishkaberry</title>
<path class="st0" d="M76,192.5c3.3,0,5,2,5,5.4v0.7h-3.2v-0.9c0-1.5-0.6-2.1-1.7-2.1s-1.7,0.6-1.7,2.1c0,4.4,6.6,5.2,6.6,11.3
	c0,3.4-1.7,5.4-5,5.4s-5-2-5-5.4v-1.3h3.2v1.5c0,1.5,0.7,2.1,1.7,2.1s1.7-0.6,1.7-2.1c0-4.4-6.6-5.2-6.6-11.3
	C71.1,194.4,72.7,192.5,76,192.5z"/>
<path class="st0" d="M89.5,214.1h-3.4v-21.4h3.4v9.2h3.8v-9.2h3.4v21.4h-3.4v-9.2h-3.8V214.1z"/>
<path class="st0" d="M102.5,192.7h3.4v21.4h-3.4V192.7z"/>
<path class="st0" d="M116.1,192.5c3.3,0,5,2,5,5.4v0.7h-3.2v-0.9c0-1.5-0.6-2.1-1.7-2.1s-1.7,0.6-1.7,2.1c0,4.4,6.6,5.2,6.6,11.3
	c0,3.4-1.7,5.4-5,5.4c-3.3,0-5-2-5-5.4v-1.3h3.2v1.5c0,1.5,0.7,2.1,1.7,2.1s1.7-0.6,1.7-2.1c0-4.4-6.6-5.2-6.6-11.3
	C111.1,194.4,112.8,192.5,116.1,192.5z"/>
<path class="st0" d="M129.6,214.1h-3.4v-21.4h3.4v9.2h3.8v-9.2h3.4v21.4h-3.4v-9.2h-3.8V214.1z"/>
<path class="st0" d="M146.9,205.6l-1,2v6.6h-3.4v-21.4h3.4v9.3l4.4-9.3h3.4l-4.7,9.5l4.7,11.9h-3.5L146.9,205.6z"/>
<path class="st0" d="M169.3,214.1h-3.4l-0.6-3.9h-4.1l-0.6,3.9h-3.1l3.4-21.4h4.9L169.3,214.1z M161.6,207.3h3.2l-1.6-10.8
	L161.6,207.3z"/>
<path class="st0" d="M184.2,197.6v0.8c0,2.2-0.7,3.6-2.2,4.3c1.8,0.7,2.5,2.3,2.5,4.6v1.7c0,3.3-1.7,5.1-5.1,5.1h-5.3v-21.4h5.1
	C182.7,192.7,184.2,194.3,184.2,197.6z M177.5,195.8v5.7h1.3c1.3,0,2-0.6,2-2.3V198c0-1.5-0.5-2.2-1.7-2.2H177.5z M177.5,204.5v6.6
	h1.9c1.1,0,1.7-0.5,1.7-2.1v-1.9c0-2-0.6-2.6-2.2-2.6L177.5,204.5z"/>
<path class="st0" d="M193.1,201.7h4.6v3.1h-4.6v6.3h5.8v3.1h-9.2v-21.4h9.2v3.1h-5.8V201.7z"/>
<path class="st0" d="M211.3,214.1c-0.3-0.8-0.4-1.7-0.3-2.6v-3.4c0-2-0.7-2.7-2.2-2.7h-1.2v8.7h-3.4v-21.4h5.1c3.5,0,5,1.6,5,4.9
	v1.7c0,2.2-0.7,3.6-2.2,4.3c1.7,0.7,2.2,2.3,2.2,4.6v3.3c-0.1,0.9,0.1,1.8,0.4,2.6H211.3z M207.6,195.8v6.6h1.3c1.3,0,2-0.6,2-2.3
	V198c0-1.5-0.5-2.2-1.7-2.2H207.6z"/>
<path class="st0" d="M226.8,214.1c-0.3-0.8-0.4-1.7-0.3-2.6v-3.4c0-2-0.7-2.7-2.2-2.7h-1.2v8.7h-3.4v-21.4h5.1c3.5,0,5,1.6,5,4.9
	v1.7c0,2.2-0.7,3.6-2.2,4.3c1.7,0.7,2.2,2.3,2.2,4.6v3.3c-0.1,0.9,0.1,1.8,0.4,2.6H226.8z M223.2,195.8v6.6h1.3c1.3,0,2-0.6,2-2.3
	V198c0-1.5-0.5-2.2-1.7-2.2H223.2z"/>
<path class="st0" d="M238.5,207l-4.2-14.3h3.5l2.6,9.8l2.6-9.8h3.2l-4.2,14.3v7.1h-3.4V207z"/>
</svg>
