<svg id="Content" xmlns="http://www.w3.org/2000/svg" width="320" height="50" viewBox="0 0 320 50"><defs><style>.cls-1{fill:#ba9544;}</style></defs><title>Frame1 - Durga Mata</title><path class="cls-1" d="M138.58691,22.48486h2.25684c1.42676,0,2.12744.79151,2.12744,2.24414v4.59131c0,1.45264-.70068,2.24365-2.12744,2.24365h-2.25684Zm1.42676,1.29737v6.48486h.8042c.4541,0,.72656-.2334.72656-.88232V24.66406c0-.64844-.27246-.88183-.72656-.88183Z"/><path class="cls-1" d="M146.61816,22.48486v7.00391c0,.64844.28516.88184.73926.88184.45362,0,.73926-.2334.73926-.88184V22.48486h1.34863V29.398c0,1.45264-.72607,2.28271-2.12695,2.28271s-2.127-.83007-2.127-2.28271V22.48486Z"/><path class="cls-1" d="M154.77832,31.564a2.78342,2.78342,0,0,1-.12988-1.11523V29.022c0-.84326-.28516-1.15429-.9336-1.15429h-.49316V31.564h-1.42676v-9.0791h2.15332c1.47852,0,2.11426.6875,2.11426,2.08838v.71338a1.81011,1.81011,0,0,1-.93408,1.8418c.71338.29834.94678.98535.94678,1.93213v1.40088A2.6762,2.6762,0,0,0,156.231,31.564Zm-1.55664-7.78173v2.78808h.55811c.53173,0,.856-.2334.856-.95947v-.895c0-.64844-.2207-.93359-.72656-.93359Z"/><path class="cls-1" d="M160.52637,26.50586h1.99756v2.87891c0,1.45312-.72657,2.2832-2.127,2.2832-1.40088,0-2.12744-.83008-2.12744-2.2832V24.66406c0-1.45263.72656-2.28271,2.12744-2.28271,1.40039,0,2.127.83008,2.127,2.28271v.88184H161.1748v-.97266c0-.64844-.28515-.895-.73925-.895-.45362,0-.73926.24658-.73926.895v4.90235c0,.64892.28564.88232.73926.88232.4541,0,.73925-.2334.73925-.88232V27.80273h-.64843Z"/><path class="cls-1" d="M169.43945,31.564h-1.43994l-.24609-1.647h-1.751l-.24658,1.647H164.4458l1.45264-9.0791h2.08838Zm-3.25537-2.87939h1.37451l-.6875-4.59131Z"/><path class="cls-1" d="M177.88672,28.93115l.97266-6.44629h1.98437V31.564h-1.34912V25.05322l-.98535,6.51074h-1.34912L176.09668,25.144V31.564h-1.24512v-9.0791h1.98438Z"/><path class="cls-1" d="M187.87646,31.564h-1.43994l-.24609-1.647h-1.751l-.24658,1.647h-1.31006l1.45264-9.0791h2.08838Zm-3.25537-2.87939h1.37452l-.6875-4.59131Z"/><path class="cls-1" d="M189.5,22.48486h4.41016v1.29737h-1.4917V31.564H190.9917V23.78223H189.5Z"/><path class="cls-1" d="M200.52686,31.564h-1.44l-.24609-1.647h-1.751l-.24658,1.647H195.5332l1.45264-9.0791h2.08838Zm-3.25538-2.87939H198.646l-.6875-4.59131Z"/><path class="cls-1" d="M208.04053,23.67822c-.4541,0-.73926.24658-.73926.895v.97266h-1.34912v-.88184c0-1.45263.72656-2.28271,2.12744-2.28271s2.12695.83008,2.12695,2.28271c0,2.85352-2.84033,3.917-2.84033,5.40821a1.00491,1.00491,0,0,0,.0127.19482h2.69775V31.564h-4.12451V30.44873c0-2.67187,2.82764-3.11279,2.82764-5.73291C208.77979,23.89893,208.49463,23.67822,208.04053,23.67822Z"/></svg>