<svg id="Layer_1" data-name="Layer 1" xmlns="http://www.w3.org/2000/svg" width="970" height="250" viewBox="0 0 970 250"><defs><style>.cls-1{fill:#ab9555;}</style></defs><title>frame3</title><path class="cls-1" d="M403.061,139.05122l4.27539,14.36523V139.05122h3.22168v21.375h-3.46l-4.43261-13.6875v13.6875h-3.22071v-21.375Z"/><path class="cls-1" d="M420.26807,155.517l-.78223,4.90918h-3.35449l3.63086-21.3584h4.43164l3.5791,21.3584h-3.3877l-.7539-4.90918Zm1.69238-11.55664-1.19336,8.41992h2.38672Z"/><path class="cls-1" d="M436.58252,160.42622h-3.2207v-21.375h4.623l3.002,15.35449,2.88183-15.35449h4.44141v21.375h-3.22168V146.99458l-2.79492,13.43164h-2.59082l-3.12012-13.39746Z"/><path class="cls-1" d="M458.021,155.517l-.78223,4.90918h-3.35449l3.63086-21.3584h4.43164l3.5791,21.3584h-3.3877l-.7539-4.90918Zm1.69238-11.55664L458.52,152.38032h2.38672Z"/><path class="cls-1" d="M480.79834,155.10786a6.01106,6.01106,0,0,1-1.15918,3.81836,4.176,4.176,0,0,1-2.21582,1.5166,6.04161,6.04161,0,0,1-1.79.23926,5.06724,5.06724,0,0,1-3.13672-.9375,5.24133,5.24133,0,0,1-1.64453-2.08789,8.41324,8.41324,0,0,1-.707-3.02637l3.06738-.2207a4.66042,4.66042,0,0,0,.98926,2.707,1.6503,1.6503,0,0,0,1.3291.59961,1.99716,1.99716,0,0,0,1.6875-1.041,2.58589,2.58589,0,0,0,.32422-1.416,3.93341,3.93341,0,0,0-1.21-2.64453q-.95508-.90381-2.86426-2.71289a12.22016,12.22016,0,0,1-2.2666-2.78028,6.43129,6.43129,0,0,1-.71582-3.00293,5.22251,5.22251,0,0,1,1.96-4.41894,4.87229,4.87229,0,0,1,3-.9043,5.452,5.452,0,0,1,2.94922.76758,4.428,4.428,0,0,1,1.542,1.66992,6.18334,6.18334,0,0,1,.708,2.47168l-3.08594.5625a3.71455,3.71455,0,0,0-.75-2.04492,1.57372,1.57372,0,0,0-1.27832-.5293,1.473,1.473,0,0,0-1.34668.78418,3.02491,3.02491,0,0,0-.375,1.56836,4.70826,4.70826,0,0,0,1.26172,2.9834,10.66712,10.66712,0,0,0,1.43164,1.36328q1.125.9375,1.4834,1.3125a10.99082,10.99082,0,0,1,1.84082,2.35254,8.99179,8.99179,0,0,1,.49414,1.00586A5.86717,5.86717,0,0,1,480.79834,155.10786Z"/><path class="cls-1" d="M489.32129,142.30708H485.895v-3.23926h10.05713v3.23926H492.543v18.11914h-3.22168Z"/><path class="cls-1" d="M501.42188,160.42622v-21.375h9.16992v3.23828h-5.94922v5.83008h4.34668v3.23828h-4.34668v5.83008h5.94922v3.23828Z"/><path class="cls-1" d="M515.68848,157.22212h3.2207v3.2207h-3.2207Z"/><path class="cls-1" d="M529.11914,160.69868a5.09139,5.09139,0,0,1-5.11328-5.09668V143.94282a5.105,5.105,0,1,1,10.21,0v2.4375H530.875v-2.50488a1.86385,1.86385,0,0,0-1.8584-1.8584,1.759,1.759,0,0,0-1.30371.5459,1.80087,1.80087,0,0,0-.53711,1.3125v11.69238a1.83386,1.83386,0,0,0,1.84082,1.8418,1.80475,1.80475,0,0,0,1.3125-.53711,1.76485,1.76485,0,0,0,.5459-1.30469v-2.94824h3.34082V155.602a5.09128,5.09128,0,0,1-5.09668,5.09668Z"/><path class="cls-1" d="M544.78223,138.79536a5.10633,5.10633,0,0,1,5.11425,5.11426v11.6582a5.105,5.105,0,1,1-10.21,0v-11.6582a5.10634,5.10634,0,0,1,5.09571-5.11426Zm1.75586,5.0459a1.8322,1.8322,0,0,0-1.84082-1.84082,1.80543,1.80543,0,0,0-1.3125.53613,1.76392,1.76392,0,0,0-.54493,1.30469v11.69336a1.76331,1.76331,0,0,0,.54493,1.30371,1.80633,1.80633,0,0,0,1.3125.53711,1.83385,1.83385,0,0,0,1.84082-1.84082Z"/><path class="cls-1" d="M558.82715,160.42622h-3.2207v-21.375h4.623l3.002,15.35449,2.88183-15.35449h4.44141v21.375H567.333V146.99458l-2.79492,13.43164h-2.59082l-3.12012-13.39746Z"/></svg>