<svg id="Layer_1" data-name="Layer 1" xmlns="http://www.w3.org/2000/svg" width="220.6768" height="161.1904" viewBox="0 0 220.6768 161.1904"><defs><style>.cls-1{fill:#212c32;}.cls-2{fill:#fff;}</style></defs><title>frame3</title><path class="cls-1" d="M15.6982,20.5479H7.4668l-1.3223,3.851H0L8.4375,2.2339h6.291l8.4365,22.165H17.0215ZM14.17,16.168,11.583,8.79,8.9961,16.168Z"/><path class="cls-1" d="M36.4521,0h5.3506V24.3989H36.4521V22.7231a5.5814,5.5814,0,0,1-4.6152,2.146,7.3379,7.3379,0,0,1-3.0283-.6171,7.49,7.49,0,0,1-2.41-1.7051,7.7763,7.7763,0,0,1-1.6015-2.5576,9.0194,9.0194,0,0,1-.03-6.2466A7.7051,7.7051,0,0,1,26.3105,11.2a7.3024,7.3024,0,0,1,5.4678-2.3516,6.142,6.142,0,0,1,4.6738,1.97ZM29.75,16.8145a3.5207,3.5207,0,0,0,.9844,2.47,3.2333,3.2333,0,0,0,1.0879.7348,3.5038,3.5038,0,0,0,1.3672.2642,3.4275,3.4275,0,0,0,1.3369-.2642,3.2353,3.2353,0,0,0,1.0879-.7348,3.8085,3.8085,0,0,0,.7353-1.0879,3.181,3.181,0,0,0,.2793-1.3228,3.2824,3.2824,0,0,0-.2793-1.3374,3.7486,3.7486,0,0,0-.7353-1.1025,3.23,3.23,0,0,0-1.0879-.7349,3.5122,3.5122,0,0,0-2.6748,0,3.2277,3.2277,0,0,0-1.0879.7349,3.8564,3.8564,0,0,0-.7344,1.0727A3.069,3.069,0,0,0,29.75,16.8145Z"/><path class="cls-1" d="M45.124,9.3184h5.32v2.4692a6.1182,6.1182,0,0,1,2.0869-2.0723,5.6164,5.6164,0,0,1,2.8809-.72h.4561a3.2665,3.2665,0,0,1,.5732.0591V14.14a5.0534,5.0534,0,0,0-2.293-.5292A3.424,3.424,0,0,0,51.37,14.7129a4.8876,4.8876,0,0,0-.9258,3.2187v6.4673h-5.32Z"/><path class="cls-1" d="M63.4961,17.7554q0,3.4393,3.2334,3.4394a2.888,2.888,0,0,0,2.6162-1.4111H74.49q-1.5585,5.1746-7.79,5.1738a10.2331,10.2331,0,0,1-3.4981-.5732,7.8153,7.8153,0,0,1-2.7187-1.6314,7.26,7.26,0,0,1-1.749-2.5283,8.414,8.414,0,0,1-.6172-3.2925,9.3007,9.3007,0,0,1,.5879-3.395A7.1423,7.1423,0,0,1,60.38,10.9648,7.431,7.431,0,0,1,63.0117,9.333,9.9554,9.9554,0,0,1,66.4951,8.76a9.7509,9.7509,0,0,1,3.44.5732,6.98,6.98,0,0,1,2.5869,1.6611,7.2224,7.2224,0,0,1,1.6162,2.66,10.5494,10.5494,0,0,1,.5586,3.5425v.5586Zm6.2324-3.0869a3.205,3.205,0,0,0-1.0879-1.793,3.3728,3.3728,0,0,0-4.0127-.0293,2.9251,2.9251,0,0,0-.9843,1.8223Z"/><path class="cls-1" d="M87.4248,13.1987a6.2239,6.2239,0,0,0-2.8809-.7641,2.1646,2.1646,0,0,0-1.19.2939.9027.9027,0,0,0-.456.794,1.0411,1.0411,0,0,0,.0732.4257.7581.7581,0,0,0,.3232.3091,2.7858,2.7858,0,0,0,.7354.2642q.4848.1179,1.2783.2944a6.1136,6.1136,0,0,1,3.293,1.5723,4.0106,4.0106,0,0,1,1.0879,2.896,5.253,5.253,0,0,1-.5293,2.3808,5.0623,5.0623,0,0,1-1.47,1.7784,6.992,6.992,0,0,1-2.2637,1.1171,10.0952,10.0952,0,0,1-2.91.397,11.8247,11.8247,0,0,1-6.0263-1.7344L78.43,19.46a7.5739,7.5739,0,0,0,4.2324,1.5284,2.08,2.08,0,0,0,1.2051-.3233.9667.9667,0,0,0,.4707-.8232,1.3724,1.3724,0,0,0-.0733-.4849.7987.7987,0,0,0-.3085-.3525,2.46,2.46,0,0,0-.6915-.294q-.4556-.1325-1.19-.2793A6.8131,6.8131,0,0,1,78.62,16.9468a3.675,3.675,0,0,1-.9844-2.7193,5.3514,5.3514,0,0,1,.47-2.2778,4.7137,4.7137,0,0,1,1.3525-1.72A6.3282,6.3282,0,0,1,81.59,9.1421,9.4757,9.4757,0,0,1,84.3672,8.76a12.6114,12.6114,0,0,1,4.8506.97Z"/><path class="cls-1" d="M102.0928,13.1987a6.2181,6.2181,0,0,0-2.8809-.7641,2.1646,2.1646,0,0,0-1.19.2939.9039.9039,0,0,0-.4551.794,1.0247,1.0247,0,0,0,.0732.4257.7532.7532,0,0,0,.3233.3091,2.7619,2.7619,0,0,0,.7344.2642q.4863.1179,1.2793.2944a6.1105,6.1105,0,0,1,3.292,1.5723,4.0068,4.0068,0,0,1,1.0878,2.896,5.2517,5.2517,0,0,1-.5293,2.3808,5.06,5.06,0,0,1-1.47,1.7784,6.98,6.98,0,0,1-2.2636,1.1171,10.09,10.09,0,0,1-2.91.397,11.8275,11.8275,0,0,1-6.0264-1.7344L93.0977,19.46a7.5787,7.5787,0,0,0,4.2334,1.5284,2.0813,2.0813,0,0,0,1.205-.3233.9667.9667,0,0,0,.4707-.8232,1.373,1.373,0,0,0-.0742-.4849.7866.7866,0,0,0-.3086-.3525,2.451,2.451,0,0,0-.69-.294q-.457-.1325-1.19-.2793a6.8127,6.8127,0,0,1-3.4541-1.4848,3.6711,3.6711,0,0,1-.9854-2.7193,5.3517,5.3517,0,0,1,.4707-2.2778,4.715,4.715,0,0,1,1.3526-1.72,6.3306,6.3306,0,0,1,2.1308-1.0879A9.4863,9.4863,0,0,1,99.0361,8.76a12.6057,12.6057,0,0,1,4.85.97Z"/><path class="cls-1" d="M111.5586,17.7554q0,3.4393,3.2334,3.4394a2.888,2.888,0,0,0,2.6162-1.4111h5.1445q-1.5585,5.1746-7.79,5.1738a10.2254,10.2254,0,0,1-3.4981-.5732,7.8207,7.8207,0,0,1-2.72-1.6314,7.2731,7.2731,0,0,1-1.749-2.5283,8.4321,8.4321,0,0,1-.6172-3.2925,9.3007,9.3007,0,0,1,.5879-3.395,7.1314,7.1314,0,0,1,1.6758-2.5723,7.4178,7.4178,0,0,1,2.6308-1.6318,9.9634,9.9634,0,0,1,3.4834-.5732,9.75,9.75,0,0,1,3.4395.5732,6.9715,6.9715,0,0,1,2.5869,1.6611,7.2377,7.2377,0,0,1,1.6172,2.66,10.5494,10.5494,0,0,1,.5586,3.5425v.5586Zm6.2314-3.0869a3.2036,3.2036,0,0,0-1.0869-1.793,3.3728,3.3728,0,0,0-4.0127-.0293,2.9261,2.9261,0,0,0-.9853,1.8223Z"/><path class="cls-1" d="M133.252,19.96h6.35v4.4389H124.3154L131.43,13.7573h-6.1436V9.3184h15.0215Z"/><path class="cls-1" d="M140.69,14.3159h8.4365v4.439H140.69Z"/><path class="cls-1" d="M154.8291,9.3184,158.415,17.05l3.6455-7.7314h5.9375l-7.8486,15.0805h-3.5566l-7.7608-15.08Z"/><path class="cls-1" d="M168.1748,16.7266a7.3468,7.3468,0,0,1,.6758-3.1309,7.6921,7.6921,0,0,1,1.8818-2.5278,8.948,8.948,0,0,1,2.8662-1.69,10.3384,10.3384,0,0,1,3.63-.6176,10.4912,10.4912,0,0,1,3.6016.603,8.9314,8.9314,0,0,1,2.8808,1.6753,7.5429,7.5429,0,0,1,1.8965,2.5576,7.8247,7.8247,0,0,1,.6758,3.2778,7.67,7.67,0,0,1-.6914,3.2779,7.7611,7.7611,0,0,1-1.8955,2.5571,8.488,8.488,0,0,1-2.8955,1.6611,11.0816,11.0816,0,0,1-3.66.5879,10.596,10.596,0,0,1-3.5859-.5879,8.2729,8.2729,0,0,1-2.8369-1.6758,7.7677,7.7677,0,0,1-1.8672-2.6015A8.1725,8.1725,0,0,1,168.1748,16.7266Zm5.6152.0586a3.4259,3.4259,0,0,0,.2784,1.3964,3.749,3.749,0,0,0,.7353,1.1026,3.2333,3.2333,0,0,0,1.0879.7348,3.5171,3.5171,0,0,0,2.6748,0,3.2532,3.2532,0,0,0,1.0879-.7348,3.7485,3.7485,0,0,0,.7344-1.1026,3.3385,3.3385,0,0,0,.2793-1.3671,3.2687,3.2687,0,0,0-.2793-1.3374,3.7551,3.7551,0,0,0-.7344-1.1026,3.2624,3.2624,0,0,0-1.0879-.7349,3.5183,3.5183,0,0,0-2.6748,0,3.2423,3.2423,0,0,0-1.0879.7349,3.8154,3.8154,0,0,0-.7353,1.0879A3.18,3.18,0,0,0,173.79,16.7852Z"/><path class="cls-1" d="M194.3672,9.3184V17.814q0,2.7935,2.7041,2.7929t2.7051-2.7929V9.3184h5.32v9.5244a5.3917,5.3917,0,0,1-2.0137,4.5859q-2.0142,1.5287-6.0117,1.5288t-6.0108-1.5288a5.3919,5.3919,0,0,1-2.0136-4.5859V9.3184Z"/><path class="cls-1" d="M218.4131,13.1987a6.2181,6.2181,0,0,0-2.8809-.7641,2.1646,2.1646,0,0,0-1.19.2939.9039.9039,0,0,0-.4551.794,1.0246,1.0246,0,0,0,.0733.4257.7523.7523,0,0,0,.3232.3091,2.7619,2.7619,0,0,0,.7344.2642q.4863.1179,1.2793.2944a6.11,6.11,0,0,1,3.292,1.5723,4.0065,4.0065,0,0,1,1.0879,2.896,5.253,5.253,0,0,1-.5293,2.3808,5.0615,5.0615,0,0,1-1.47,1.7784,6.98,6.98,0,0,1-2.2636,1.1171,10.09,10.09,0,0,1-2.91.397,11.8275,11.8275,0,0,1-6.0264-1.7344L209.418,19.46a7.579,7.579,0,0,0,4.2334,1.5284,2.0813,2.0813,0,0,0,1.205-.3233.9667.9667,0,0,0,.4707-.8232,1.3707,1.3707,0,0,0-.0742-.4849.786.786,0,0,0-.3086-.3525,2.451,2.451,0,0,0-.69-.294q-.457-.1325-1.19-.2793a6.8127,6.8127,0,0,1-3.4541-1.4848,3.6711,3.6711,0,0,1-.9854-2.7193,5.3517,5.3517,0,0,1,.4707-2.2778,4.715,4.715,0,0,1,1.3526-1.72,6.3315,6.3315,0,0,1,2.1308-1.0879,9.4863,9.4863,0,0,1,2.7783-.3823,12.6066,12.6066,0,0,1,4.85.97Z"/><path class="cls-1" d="M67.3613,44.3682h5.3506V59.4487H67.3613V57.7729a5.5814,5.5814,0,0,1-4.6152,2.146,7.493,7.493,0,0,1-3.0273-.6025,7.2763,7.2763,0,0,1-2.41-1.69,7.7811,7.7811,0,0,1-1.6025-2.5572,8.7491,8.7491,0,0,1-.5733-3.2045,8.5061,8.5061,0,0,1,.5586-3.0718A7.9037,7.9037,0,0,1,57.249,46.25a7.3531,7.3531,0,0,1,2.3819-1.72,7.2657,7.2657,0,0,1,3.0566-.6319,6.1407,6.1407,0,0,1,4.6738,1.97ZM59.542,37.6367l3.3809-2.44,4.2041,5.144-2.47,1.8228Zm1.1172,14.2276a3.5163,3.5163,0,0,0,.9853,2.47,3.239,3.239,0,0,0,1.0869.7348,3.5077,3.5077,0,0,0,1.3672.2642,3.4325,3.4325,0,0,0,1.3379-.2642,3.2532,3.2532,0,0,0,1.0879-.7348,3.8263,3.8263,0,0,0,.7344-1.0879,3.167,3.167,0,0,0,.2793-1.3228,3.2677,3.2677,0,0,0-.2793-1.3374,3.767,3.767,0,0,0-.7344-1.1025,3.2476,3.2476,0,0,0-1.0879-.7349,3.4346,3.4346,0,0,0-1.3379-.2646,3.51,3.51,0,0,0-1.3672.2646,3.2334,3.2334,0,0,0-1.0869.7349,3.6169,3.6169,0,0,0-.7207,1.0728A3.2277,3.2277,0,0,0,60.6592,51.8643Z"/><path class="cls-1" d="M85.7344,44.3682h5.32v1.9111A5.8244,5.8244,0,0,1,93.26,44.5005a6.8942,6.8942,0,0,1,2.6162-.4556,6.54,6.54,0,0,1,2.7187.5147,5.43,5.43,0,0,1,1.9258,1.455,4.1949,4.1949,0,0,1,.8818,1.7051,8.905,8.905,0,0,1,.2354,2.146v9.583H96.3164V51.835a8.224,8.224,0,0,0-.1611-1.8077,2.2481,2.2481,0,0,0-.5733-1.1025,2.0174,2.0174,0,0,0-.7939-.4995,2.9491,2.9491,0,0,0-.94-.1475,2.6294,2.6294,0,0,0-2.0723.8086,3.3552,3.3552,0,0,0-.7207,2.3076v8.0547h-5.32Z"/><path class="cls-1" d="M104.3711,51.7764a7.3468,7.3468,0,0,1,.6758-3.1309,7.6907,7.6907,0,0,1,1.8818-2.5278,8.948,8.948,0,0,1,2.8662-1.69,10.3384,10.3384,0,0,1,3.63-.6176,10.4916,10.4916,0,0,1,3.6016.603,8.9332,8.9332,0,0,1,2.8808,1.6753,7.5429,7.5429,0,0,1,1.8965,2.5576,7.825,7.825,0,0,1,.6758,3.2778,7.67,7.67,0,0,1-.6914,3.2779,7.7611,7.7611,0,0,1-1.8955,2.5571,8.488,8.488,0,0,1-2.8955,1.6611,11.0816,11.0816,0,0,1-3.66.5879,10.5956,10.5956,0,0,1-3.5859-.5879,8.2743,8.2743,0,0,1-2.8369-1.6757,7.7677,7.7677,0,0,1-1.8672-2.6016A8.1725,8.1725,0,0,1,104.3711,51.7764Zm5.6152.0586a3.4275,3.4275,0,0,0,.2783,1.3964A3.7513,3.7513,0,0,0,111,54.334a3.2333,3.2333,0,0,0,1.0879.7348,3.5171,3.5171,0,0,0,2.6748,0,3.2532,3.2532,0,0,0,1.0879-.7348,3.7485,3.7485,0,0,0,.7344-1.1026,3.3385,3.3385,0,0,0,.2793-1.3671,3.2687,3.2687,0,0,0-.2793-1.3374,3.7551,3.7551,0,0,0-.7344-1.1026,3.2606,3.2606,0,0,0-1.0879-.7348,3.5171,3.5171,0,0,0-2.6748,0A3.2406,3.2406,0,0,0,111,49.4243a3.8178,3.8178,0,0,0-.7354,1.0879A3.1819,3.1819,0,0,0,109.9863,51.835Z"/><path class="cls-1" d="M130.5635,44.3682v8.4956q0,2.7935,2.7041,2.7929t2.7051-2.7929V44.3682h5.32v9.5244a5.3915,5.3915,0,0,1-2.0137,4.5859q-2.0142,1.5286-6.0117,1.5288t-6.0108-1.5288a5.3917,5.3917,0,0,1-2.0136-4.5859V44.3682Z"/><path class="cls-1" d="M154.6094,48.2485a6.2181,6.2181,0,0,0-2.8809-.7641,2.1646,2.1646,0,0,0-1.19.2939.9039.9039,0,0,0-.4551.794,1.0247,1.0247,0,0,0,.0732.4257.7532.7532,0,0,0,.3233.3091,2.7584,2.7584,0,0,0,.7344.2642q.4863.1179,1.2793.2944a6.1105,6.1105,0,0,1,3.292,1.5723,4.0068,4.0068,0,0,1,1.0878,2.896,5.253,5.253,0,0,1-.5292,2.3808,5.0615,5.0615,0,0,1-1.47,1.7784A6.9826,6.9826,0,0,1,152.61,59.61a10.0938,10.0938,0,0,1-2.91.3969,11.8275,11.8275,0,0,1-6.0264-1.7344l1.94-3.7626a7.5793,7.5793,0,0,0,4.2334,1.5283,2.0806,2.0806,0,0,0,1.205-.3233.9667.9667,0,0,0,.4707-.8232,1.373,1.373,0,0,0-.0742-.4849.786.786,0,0,0-.3086-.3525,2.451,2.451,0,0,0-.69-.294q-.457-.1324-1.19-.2793a6.8127,6.8127,0,0,1-3.4541-1.4848,3.6711,3.6711,0,0,1-.9854-2.7193A5.3517,5.3517,0,0,1,145.291,47a4.715,4.715,0,0,1,1.3526-1.72,6.3306,6.3306,0,0,1,2.1308-1.0879,9.4863,9.4863,0,0,1,2.7783-.3823,12.6057,12.6057,0,0,1,4.85.97Z"/><path class="cls-1" d="M159.0186,56.6265a3.4209,3.4209,0,1,1,2.1015,3.1748,3.3837,3.3837,0,0,1-1.8369-1.8369A3.422,3.422,0,0,1,159.0186,56.6265Z"/><path class="cls-2" d="M31.2627,118.6152V96.45h5.7617L47.666,110.002V96.45h5.7324v22.165H47.666L37.0244,105.0635v13.5517Z"/><path class="cls-2" d="M56.8965,110.9434a7.33,7.33,0,0,1,.6758-3.1309,7.6772,7.6772,0,0,1,1.8808-2.5283,8.9642,8.9642,0,0,1,2.8662-1.69,10.3531,10.3531,0,0,1,3.6309-.6172,10.49,10.49,0,0,1,3.6006.6025,8.9309,8.9309,0,0,1,2.8808,1.6758,7.5285,7.5285,0,0,1,1.8965,2.5576,7.8211,7.8211,0,0,1,.6758,3.2773,7.6883,7.6883,0,0,1-.69,3.2784,7.781,7.781,0,0,1-1.8965,2.5566,8.48,8.48,0,0,1-2.8955,1.6611,11.0756,11.0756,0,0,1-3.6592.5879,10.6015,10.6015,0,0,1-3.5869-.5879,8.2664,8.2664,0,0,1-2.8369-1.6757,7.7664,7.7664,0,0,1-1.8662-2.6016A8.1524,8.1524,0,0,1,56.8965,110.9434Zm5.6142.0586a3.4132,3.4132,0,0,0,.2793,1.3964,3.7191,3.7191,0,0,0,.7354,1.1026,3.23,3.23,0,0,0,1.0869.7344,3.5147,3.5147,0,0,0,2.6758,0,3.24,3.24,0,0,0,1.0869-.7344,3.7578,3.7578,0,0,0,.7354-1.1026,3.3566,3.3566,0,0,0,.2792-1.3672,3.2854,3.2854,0,0,0-.2792-1.3378,3.771,3.771,0,0,0-.7354-1.1026,3.2542,3.2542,0,0,0-1.0869-.7344,3.5147,3.5147,0,0,0-2.6758,0,3.2442,3.2442,0,0,0-1.0869.7344,3.7908,3.7908,0,0,0-.7354,1.0879A3.1693,3.1693,0,0,0,62.5107,111.002Z"/><path class="cls-2" d="M83.0889,103.5352V112.03q0,2.7935,2.7041,2.7929t2.7041-2.7929v-8.4951h5.3213V113.06a5.3948,5.3948,0,0,1-2.0137,4.5859q-2.0142,1.5279-6.0117,1.5283t-6.0118-1.5283a5.3924,5.3924,0,0,1-2.0136-4.5859v-9.5244Z"/><path class="cls-2" d="M107.1348,107.415a6.2282,6.2282,0,0,0-2.8809-.7636,2.16,2.16,0,0,0-1.19.2939.9027.9027,0,0,0-.4561.794,1.041,1.041,0,0,0,.0733.4257.7546.7546,0,0,0,.3232.3086,2.7789,2.7789,0,0,0,.7354.2647q.4848.1172,1.2783.2939a6.1129,6.1129,0,0,1,3.2929,1.5723,4.0106,4.0106,0,0,1,1.0879,2.8965,5.2532,5.2532,0,0,1-.5293,2.3808,5.069,5.069,0,0,1-1.47,1.7784,6.99,6.99,0,0,1-2.2637,1.1171,10.0943,10.0943,0,0,1-2.91.3965,11.8256,11.8256,0,0,1-6.0264-1.7343l1.94-3.7627a7.5709,7.5709,0,0,0,4.2325,1.5283,2.0784,2.0784,0,0,0,1.205-.3233.9656.9656,0,0,0,.4708-.8232,1.3713,1.3713,0,0,0-.0733-.4844.7932.7932,0,0,0-.3086-.3525,2.4447,2.4447,0,0,0-.6914-.294q-.4555-.1332-1.19-.2793a6.8082,6.8082,0,0,1-3.4541-1.4853,3.6741,3.6741,0,0,1-.9844-2.7188,5.3536,5.3536,0,0,1,.47-2.2783,4.7233,4.7233,0,0,1,1.3526-1.72,6.3272,6.3272,0,0,1,2.1318-1.0879,9.4917,9.4917,0,0,1,2.7773-.3818,12.61,12.61,0,0,1,4.8506.97Z"/><path class="cls-2" d="M125.6836,103.5352l3.5859,7.7314,3.6455-7.7314h5.9375l-7.8486,15.08h-3.5566l-7.7608-15.08Z"/><path class="cls-2" d="M139.03,110.9434a7.33,7.33,0,0,1,.6758-3.1309,7.6759,7.6759,0,0,1,1.8808-2.5283,8.9642,8.9642,0,0,1,2.8662-1.69,10.3527,10.3527,0,0,1,3.6309-.6172,10.49,10.49,0,0,1,3.6006.6025,8.9309,8.9309,0,0,1,2.8808,1.6758,7.53,7.53,0,0,1,1.8965,2.5576,7.8211,7.8211,0,0,1,.6758,3.2773,7.6883,7.6883,0,0,1-.69,3.2784,7.781,7.781,0,0,1-1.8965,2.5566,8.48,8.48,0,0,1-2.8955,1.6611,11.0756,11.0756,0,0,1-3.6592.5879,10.6011,10.6011,0,0,1-3.5869-.5879,8.2664,8.2664,0,0,1-2.8369-1.6757,7.765,7.765,0,0,1-1.8662-2.6016A8.1524,8.1524,0,0,1,139.03,110.9434Zm5.6142.0586a3.4132,3.4132,0,0,0,.2793,1.3964,3.7191,3.7191,0,0,0,.7354,1.1026,3.23,3.23,0,0,0,1.0869.7344,3.5147,3.5147,0,0,0,2.6758,0,3.24,3.24,0,0,0,1.0869-.7344,3.7556,3.7556,0,0,0,.7353-1.1026,3.355,3.355,0,0,0,.2793-1.3672,3.2839,3.2839,0,0,0-.2793-1.3378,3.7687,3.7687,0,0,0-.7353-1.1026,3.2542,3.2542,0,0,0-1.0869-.7344,3.5147,3.5147,0,0,0-2.6758,0,3.2442,3.2442,0,0,0-1.0869.7344,3.7908,3.7908,0,0,0-.7354,1.0879A3.1693,3.1693,0,0,0,144.6445,111.002Z"/><path class="cls-2" d="M165.2227,103.5352V112.03q0,2.7935,2.7041,2.7929t2.7041-2.7929v-8.4951h5.3212V113.06a5.3947,5.3947,0,0,1-2.0136,4.5859q-2.0142,1.5279-6.0117,1.5283t-6.0118-1.5283a5.3924,5.3924,0,0,1-2.0136-4.5859v-9.5244Z"/><path class="cls-2" d="M189.2686,107.415a6.2282,6.2282,0,0,0-2.8809-.7636,2.16,2.16,0,0,0-1.19.2939.9027.9027,0,0,0-.4561.794,1.041,1.041,0,0,0,.0733.4257.7546.7546,0,0,0,.3232.3086,2.7794,2.7794,0,0,0,.7353.2647q.485.1172,1.2784.2939a6.1129,6.1129,0,0,1,3.2929,1.5723,4.011,4.011,0,0,1,1.0879,2.8965,5.2532,5.2532,0,0,1-.5293,2.3808,5.069,5.069,0,0,1-1.47,1.7784,6.99,6.99,0,0,1-2.2637,1.1171,10.0943,10.0943,0,0,1-2.91.3965,11.8256,11.8256,0,0,1-6.0264-1.7343l1.94-3.7627a7.5709,7.5709,0,0,0,4.2325,1.5283,2.0784,2.0784,0,0,0,1.205-.3233.9655.9655,0,0,0,.4707-.8232,1.3715,1.3715,0,0,0-.0732-.4844.7932.7932,0,0,0-.3086-.3525,2.4447,2.4447,0,0,0-.6914-.294q-.4555-.1332-1.19-.2793a6.8082,6.8082,0,0,1-3.4541-1.4853,3.6741,3.6741,0,0,1-.9844-2.7188,5.3521,5.3521,0,0,1,.47-2.2783,4.7233,4.7233,0,0,1,1.3526-1.72,6.3263,6.3263,0,0,1,2.1318-1.0879,9.4917,9.4917,0,0,1,2.7773-.3818,12.61,12.61,0,0,1,4.8506.97Z"/><path class="cls-2" d="M17.4326,138.585h5.32v2.4687a6.1227,6.1227,0,0,1,2.0869-2.0723,5.6208,5.6208,0,0,1,2.8809-.72h.4561a3.2615,3.2615,0,0,1,.5732.0586v5.0859a5.0472,5.0472,0,0,0-2.293-.5292,3.4224,3.4224,0,0,0-2.7783,1.1025,4.8867,4.8867,0,0,0-.9258,3.2187v6.4668h-5.32Z"/><path class="cls-2" d="M35.8047,147.0215q0,3.44,3.2334,3.4394a2.887,2.887,0,0,0,2.6162-1.4111h5.1445q-1.5585,5.1753-7.79,5.1738a10.2211,10.2211,0,0,1-3.4981-.5732A7.8067,7.8067,0,0,1,32.792,152.02a7.2691,7.2691,0,0,1-1.749-2.5283,8.4148,8.4148,0,0,1-.6172-3.293,9.2961,9.2961,0,0,1,.5879-3.3945,7.1337,7.1337,0,0,1,1.6748-2.5723A7.4168,7.4168,0,0,1,35.32,138.6a9.9554,9.9554,0,0,1,3.4834-.5732,9.7513,9.7513,0,0,1,3.44.5732,6.9733,6.9733,0,0,1,2.5869,1.6611,7.2192,7.2192,0,0,1,1.6162,2.66,10.5464,10.5464,0,0,1,.5586,3.542v.5586Zm6.2324-3.0869a3.2056,3.2056,0,0,0-1.0879-1.793,3.3749,3.3749,0,0,0-4.0127-.0293,2.927,2.927,0,0,0-.9844,1.8223Zm1.793-12.0811L38.7148,136.38l-2.4687-1.8223,4.2031-5.1445Z"/><path class="cls-2" d="M55.06,161.19H49.7383V138.585H55.06v1.6757a5.6126,5.6126,0,0,1,4.6445-2.1464,7.2277,7.2277,0,0,1,3.0127.6318,7.6653,7.6653,0,0,1,2.4258,1.72,7.8125,7.8125,0,0,1,1.6015,2.5576,8.5877,8.5877,0,0,1,.5733,3.1455,8.3554,8.3554,0,0,1-.5733,3.1163,7.9975,7.9975,0,0,1-1.5869,2.5283,7.3536,7.3536,0,0,1-2.3965,1.7051,7.2726,7.2726,0,0,1-2.998.6171,6.2781,6.2781,0,0,1-4.7031-1.94Zm6.7021-15.0215a3.6139,3.6139,0,0,0-.25-1.3369,3.2136,3.2136,0,0,0-.7207-1.1025,3.609,3.609,0,0,0-1.1015-.75,3.4639,3.4639,0,0,0-2.69-.0147,3.27,3.27,0,0,0-1.0722.7354,3.7071,3.7071,0,0,0-.7354,1.1025,3.2653,3.2653,0,0,0-.2793,1.3369,3.3177,3.3177,0,0,0,.2647,1.3233,3.2685,3.2685,0,0,0,.7343,1.0723,3.7188,3.7188,0,0,0,1.1026.7353,3.27,3.27,0,0,0,1.3379.2793,3.3192,3.3192,0,0,0,1.3232-.2646,3.2782,3.2782,0,0,0,1.0723-.7344,3.8154,3.8154,0,0,0,.7353-1.0879A3.1154,3.1154,0,0,0,61.7617,146.1689Z"/><path class="cls-2" d="M69.4629,145.9932a7.3451,7.3451,0,0,1,.6758-3.1309,7.6926,7.6926,0,0,1,1.8818-2.5283,8.9642,8.9642,0,0,1,2.8662-1.69,10.3475,10.3475,0,0,1,3.63-.6172,10.4919,10.4919,0,0,1,3.6016.6025,8.9426,8.9426,0,0,1,2.8808,1.6758,7.5429,7.5429,0,0,1,1.8965,2.5576,7.8211,7.8211,0,0,1,.6758,3.2773,7.6739,7.6739,0,0,1-.6914,3.2784,7.7643,7.7643,0,0,1-1.8955,2.5566,8.48,8.48,0,0,1-2.8955,1.6611,11.0816,11.0816,0,0,1-3.66.5879,10.5956,10.5956,0,0,1-3.5859-.5879,8.2664,8.2664,0,0,1-2.8369-1.6757,7.7667,7.7667,0,0,1-1.8672-2.6016A8.1685,8.1685,0,0,1,69.4629,145.9932Zm5.6152.0586a3.4292,3.4292,0,0,0,.2783,1.3964,3.7578,3.7578,0,0,0,.7354,1.1026,3.2337,3.2337,0,0,0,1.0879.7344,3.5122,3.5122,0,0,0,2.6748,0,3.2537,3.2537,0,0,0,1.0879-.7344,3.7551,3.7551,0,0,0,.7344-1.1026,3.34,3.34,0,0,0,.2793-1.3671,3.27,3.27,0,0,0-.2793-1.3379,3.7682,3.7682,0,0,0-.7344-1.1026,3.2685,3.2685,0,0,0-1.0879-.7344,3.5122,3.5122,0,0,0-2.6748,0,3.2484,3.2484,0,0,0-1.0879.7344,3.8317,3.8317,0,0,0-.7354,1.0879A3.1845,3.1845,0,0,0,75.0781,146.0518Z"/><path class="cls-2" d="M90.335,138.585h5.32v1.9111a5.8311,5.8311,0,0,1,2.2051-1.7793,6.8945,6.8945,0,0,1,2.6162-.4551,6.54,6.54,0,0,1,2.7187.5147,5.43,5.43,0,0,1,1.9258,1.455,4.1949,4.1949,0,0,1,.8818,1.7051,8.8978,8.8978,0,0,1,.2354,2.1455v9.583H100.917v-7.6132a8.2177,8.2177,0,0,0-.1611-1.8077,2.2437,2.2437,0,0,0-.5733-1.1025,2.0232,2.0232,0,0,0-.7939-.5,2.9637,2.9637,0,0,0-.9405-.1475,2.6307,2.6307,0,0,0-2.0722.8086,3.3562,3.3562,0,0,0-.7207,2.3077v8.0546h-5.32Z"/><path class="cls-2" d="M121.2,129.2666h5.3506V153.665H121.2v-1.6757a5.5807,5.5807,0,0,1-4.6152,2.1464,7.3413,7.3413,0,0,1-3.0274-.6171,7.4931,7.4931,0,0,1-2.41-1.7051,7.779,7.779,0,0,1-1.6026-2.5576,9.0146,9.0146,0,0,1-.0293-6.2471,7.7064,7.7064,0,0,1,1.543-2.543,7.3057,7.3057,0,0,1,5.4678-2.3515,6.1425,6.1425,0,0,1,4.6738,1.97Zm-6.7022,16.8145a3.5169,3.5169,0,0,0,.9854,2.47,3.24,3.24,0,0,0,1.0869.7344,3.5007,3.5007,0,0,0,1.3672.2646,3.4256,3.4256,0,0,0,1.3379-.2646,3.2537,3.2537,0,0,0,1.0879-.7344,3.8354,3.8354,0,0,0,.7344-1.0879,3.1693,3.1693,0,0,0,.2793-1.3233,3.2653,3.2653,0,0,0-.2793-1.3369,3.7623,3.7623,0,0,0-.7344-1.1025,3.2562,3.2562,0,0,0-1.0879-.7354,3.5147,3.5147,0,0,0-2.6758,0,3.242,3.242,0,0,0-1.0869.7354,3.8583,3.8583,0,0,0-.7354,1.0723A3.0708,3.0708,0,0,0,114.498,146.0811Z"/><path class="cls-2" d="M129.8721,138.585h5.3213v2.4687a6.1123,6.1123,0,0,1,2.0869-2.0723,5.62,5.62,0,0,1,2.8808-.72h.4551a3.2543,3.2543,0,0,1,.5733.0586v5.0859a5.0445,5.0445,0,0,0-2.293-.5292,3.42,3.42,0,0,0-2.7774,1.1025,4.8872,4.8872,0,0,0-.9257,3.2187v6.4668h-5.3213Z"/><path class="cls-2" d="M142.8066,145.9932a7.33,7.33,0,0,1,.6758-3.1309,7.6775,7.6775,0,0,1,1.8809-2.5283,8.9642,8.9642,0,0,1,2.8662-1.69,10.3527,10.3527,0,0,1,3.6309-.6172,10.4893,10.4893,0,0,1,3.6005.6025,8.9314,8.9314,0,0,1,2.8809,1.6758,7.53,7.53,0,0,1,1.8965,2.5576,7.8211,7.8211,0,0,1,.6758,3.2773,7.6869,7.6869,0,0,1-.69,3.2784,7.7782,7.7782,0,0,1-1.8965,2.5566,8.4789,8.4789,0,0,1-2.8955,1.6611,11.0746,11.0746,0,0,1-3.6591.5879,10.6021,10.6021,0,0,1-3.587-.5879,8.2683,8.2683,0,0,1-2.8369-1.6757,7.7668,7.7668,0,0,1-1.8662-2.6016A8.1524,8.1524,0,0,1,142.8066,145.9932Zm5.6143.0586a3.4132,3.4132,0,0,0,.2793,1.3964,3.7188,3.7188,0,0,0,.7353,1.1026,3.2309,3.2309,0,0,0,1.087.7344,3.5145,3.5145,0,0,0,2.6757,0,3.2409,3.2409,0,0,0,1.087-.7344,3.7556,3.7556,0,0,0,.7353-1.1026,3.3549,3.3549,0,0,0,.2793-1.3671,3.2844,3.2844,0,0,0-.2793-1.3379,3.7687,3.7687,0,0,0-.7353-1.1026,3.2556,3.2556,0,0,0-1.087-.7344,3.5145,3.5145,0,0,0-2.6757,0,3.2456,3.2456,0,0,0-1.087.7344,3.7905,3.7905,0,0,0-.7353,1.0879A3.17,3.17,0,0,0,148.4209,146.0518Z"/><path class="cls-2" d="M163.6777,138.585h5.3213v1.9111a5.83,5.83,0,0,1,2.2041-1.7793,6.9017,6.9017,0,0,1,2.6162-.4551,6.5422,6.5422,0,0,1,2.72.5147,5.4185,5.4185,0,0,1,1.9248,1.455,4.1718,4.1718,0,0,1,.8818,1.7051,8.8528,8.8528,0,0,1,.2354,2.1455v9.583h-5.32v-7.6132a8.2032,8.2032,0,0,0-.1621-1.8077,2.2355,2.2355,0,0,0-.5732-1.1025,2.0165,2.0165,0,0,0-.794-.5,2.9627,2.9627,0,0,0-.94-.1475,2.6332,2.6332,0,0,0-2.0722.8086,3.3559,3.3559,0,0,0-.72,2.3077v8.0546h-5.3213Z"/><path class="cls-2" d="M192.8975,142.4648a6.2233,6.2233,0,0,0-2.8809-.7636,2.16,2.16,0,0,0-1.19.2939.9039.9039,0,0,0-.4551.794,1.0263,1.0263,0,0,0,.0732.4257.75.75,0,0,0,.3233.3086,2.7564,2.7564,0,0,0,.7344.2647q.4863.1172,1.2792.2939a6.11,6.11,0,0,1,3.292,1.5723,4.0069,4.0069,0,0,1,1.0879,2.8965,5.2532,5.2532,0,0,1-.5293,2.3808,5.069,5.069,0,0,1-1.47,1.7784,6.98,6.98,0,0,1-2.2637,1.1171,10.0894,10.0894,0,0,1-2.91.3965,11.8283,11.8283,0,0,1-6.0264-1.7343l1.94-3.7627a7.576,7.576,0,0,0,4.2334,1.5283,2.0809,2.0809,0,0,0,1.2051-.3233.9655.9655,0,0,0,.4707-.8232,1.37,1.37,0,0,0-.0742-.4844.7815.7815,0,0,0-.3086-.3525,2.4366,2.4366,0,0,0-.69-.294q-.4571-.1332-1.19-.2793a6.8082,6.8082,0,0,1-3.4541-1.4853,3.6707,3.6707,0,0,1-.9854-2.7188,5.3524,5.3524,0,0,1,.4707-2.2783,4.7241,4.7241,0,0,1,1.3525-1.72,6.332,6.332,0,0,1,2.1309-1.0879,9.5035,9.5035,0,0,1,2.7783-.3818,12.6056,12.6056,0,0,1,4.85.97Z"/><path class="cls-2" d="M197.3066,150.8428a3.421,3.421,0,1,1,2.1016,3.1748,3.3786,3.3786,0,0,1-1.8369-1.8369A3.42,3.42,0,0,1,197.3066,150.8428Z"/></svg>