<svg id="Layer_1" data-name="Layer 1" xmlns="http://www.w3.org/2000/svg" xmlns:xlink="http://www.w3.org/1999/xlink" width="300" height="600" viewBox="0 0 300 600"><defs><style>.cls-1{fill:none;}.cls-2{fill:#212c32;}.cls-3{fill:#7cc142;}.cls-4{fill:#fff;}.cls-5{fill:#7cc243;}.cls-6{fill:#79bc43;}.cls-7{clip-path:url(#clip-path);}.cls-8{fill:#c0dd96;}.cls-9{fill:#9ece63;}</style><clipPath id="clip-path"><rect class="cls-1" x="89.86" y="368.3354" width="120.2801" height="72.0986"/></clipPath></defs><title>frame4</title><rect class="cls-2" width="300" height="600"/><path class="cls-3" d="M96.7566,242.6885H109.91q4.6845,0,7.1172,2.2524a8.4067,8.4067,0,0,1,2.4326,6.4868,8.8045,8.8045,0,0,1-.9238,4.2564,7.7608,7.7608,0,0,1-2.8155,2.86,10.6757,10.6757,0,0,1,3.2207,1.104,6.99,6.99,0,0,1,2.1621,1.8243,6.8329,6.8329,0,0,1,1.1944,2.4321,11.2044,11.2044,0,0,1,.36,2.8833,10.1909,10.1909,0,0,1-.834,4.2339,8.593,8.593,0,0,1-2.3418,3.1084,10.0165,10.0165,0,0,1-3.6718,1.8916,17.3433,17.3433,0,0,1-4.8643.6308H96.7566Zm8.8291,13.3335h1.6211q4.144,0,4.1445-3.2881t-4.1445-3.2886h-1.6211Zm0,13.7842h1.9365a9.8492,9.8492,0,0,0,4.7754-.856,3.34,3.34,0,0,0,0-5.4956,9.8552,9.8552,0,0,0-4.7754-.856h-1.9365Z"/><path class="cls-3" d="M126.1257,259.6709a17.4984,17.4984,0,0,1,11.1934-16.5542,21.59,21.59,0,0,1,15.1582,0,17.9074,17.9074,0,0,1,5.9677,3.8062,17.4131,17.4131,0,0,1,3.8965,5.6982,18.4914,18.4914,0,0,1,0,14.0991,17.4051,17.4051,0,0,1-3.8965,5.6983,17.9021,17.9021,0,0,1-5.9677,3.8066,21.5978,21.5978,0,0,1-15.1582,0,17.5686,17.5686,0,0,1-11.1934-16.5542Zm9.2344,0a9.0322,9.0322,0,0,0,.7656,3.7388,9.3548,9.3548,0,0,0,5.1123,4.9321,10.0019,10.0019,0,0,0,7.3428,0,9.6157,9.6157,0,0,0,3.0625-1.9595,9.2713,9.2713,0,0,0,2.0947-2.9726,9.512,9.512,0,0,0,0-7.4776,9.29,9.29,0,0,0-2.0947-2.9731A9.906,9.906,0,0,0,141.238,251a9.3535,9.3535,0,0,0-5.1123,4.9326A9.0322,9.0322,0,0,0,135.36,259.6709Z"/><path class="cls-3" d="M169.323,276.6528V242.6885h8.8291l16.3056,20.7661V242.6885h8.7842v33.9643h-8.7842l-16.3056-20.7656v20.7656Z"/><path class="cls-4" d="M49.9773,315.7969H37.365l-2.0274,5.9013h-9.414l12.9277-33.9643h9.64l12.9278,33.9643H52.0046Zm-14.459-36.7115,4.7295-4.2792,7.3427,7.0268-3.4238,3.1982Zm12.1172,30-3.9639-11.3066-3.9639,11.3066Z"/><path class="cls-4" d="M99.3015,296.4277a10.9208,10.9208,0,0,0-2.8828-1.7339,7.6547,7.6547,0,0,0-2.793-.5634,4.5285,4.5285,0,0,0-2.792.811,2.5267,2.5267,0,0,0-1.081,2.1172,2.103,2.103,0,0,0,.54,1.4863,4.7011,4.7011,0,0,0,1.4189,1.0137,12.0942,12.0942,0,0,0,1.9825.7432q1.1029.3156,2.1845.6757a13.62,13.62,0,0,1,6.3282,3.8516,9.5032,9.5032,0,0,1,2.0048,6.2832,12.2457,12.2457,0,0,1-.8779,4.7305,9.8669,9.8669,0,0,1-2.5683,3.626,11.8393,11.8393,0,0,1-4.1436,2.3417,17.26,17.26,0,0,1-5.5635.834,20.4536,20.4536,0,0,1-11.9365-3.8291l3.7832-7.1172a15.3516,15.3516,0,0,0,3.9189,2.6123,9.4075,9.4075,0,0,0,3.8291.8565,4.5684,4.5684,0,0,0,3.2207-.9912,3.0692,3.0692,0,0,0,.7881-3.5811,2.88,2.88,0,0,0-.9-1.0361,7.2366,7.2366,0,0,0-1.6445-.8789q-1.0137-.4043-2.4551-.9-1.7124-.5406-3.3554-1.1934a10.5473,10.5473,0,0,1-2.9278-1.7343,8.0333,8.0333,0,0,1-2.0722-2.7256,9.6217,9.6217,0,0,1-.7881-4.1665,12.0366,12.0366,0,0,1,.833-4.5723,10.1592,10.1592,0,0,1,2.3428-3.5137,10.4347,10.4347,0,0,1,3.6933-2.2744,13.9644,13.9644,0,0,1,4.8877-.811,21.4017,21.4017,0,0,1,5.27.6982,23.264,23.264,0,0,1,5.2706,2.05Z"/><path class="cls-4" d="M129.9323,315.7969H117.32l-2.0273,5.9013h-9.4141l12.9278-33.9643h9.64l12.9277,33.9643H131.96Zm-2.3418-6.711-3.9638-11.3066-3.9639,11.3066Z"/><path class="cls-4" d="M145.0681,287.7339l8.1982,20.6763,8.2432-20.6763h9.5947L156.78,321.6982h-7.0273l-14.2793-33.9643Z"/><path class="cls-4" d="M171.5544,304.7158a17.4983,17.4983,0,0,1,11.1934-16.5537,21.59,21.59,0,0,1,15.1582,0,17.9074,17.9074,0,0,1,5.9677,3.8062,17.4131,17.4131,0,0,1,3.8965,5.6982,18.4914,18.4914,0,0,1,0,14.0991,17.3988,17.3988,0,0,1-3.8965,5.6983,17.8943,17.8943,0,0,1-5.9677,3.8066,21.59,21.59,0,0,1-15.1582,0,17.5686,17.5686,0,0,1-11.1934-16.5547Zm9.2344,0a9.0312,9.0312,0,0,0,.7656,3.7393,9.3579,9.3579,0,0,0,5.1123,4.9326,9.8212,9.8212,0,0,0,10.4053-1.96,9.2658,9.2658,0,0,0,2.0947-2.9726,9.512,9.512,0,0,0,0-7.4776,9.29,9.29,0,0,0-2.0947-2.9731,9.906,9.906,0,0,0-10.4053-1.9595,9.3535,9.3535,0,0,0-5.1123,4.9326A9.0332,9.0332,0,0,0,180.7888,304.7158Z"/><path class="cls-4" d="M223.5808,287.7339v33.9643h-8.8291V287.7339Z"/><path class="cls-4" d="M258.94,321.6982H247.9489l-8.4228-13.0634v13.0634H230.697V287.7339h13.7392a13.4878,13.4878,0,0,1,4.9542.8335,9.33,9.33,0,0,1,5.5634,5.6084,11.6278,11.6278,0,0,1,.6983,4.0537,9.97,9.97,0,0,1-1.8692,6.2842,9.4168,9.4168,0,0,1-5.5185,3.2656Zm-19.4141-18.7841h1.666a6.4424,6.4424,0,0,0,4.01-1.0811,4.1566,4.1566,0,0,0,0-6.2158,6.4424,6.4424,0,0,0-4.01-1.0811h-1.666Z"/><path class="cls-4" d="M261.4636,317.374a5.27,5.27,0,1,1,9.0088,3.7383,5.1972,5.1972,0,0,1-1.69,1.127,5.3848,5.3848,0,0,1-4.0986,0,5.1807,5.1807,0,0,1-2.8154-2.8155A5.2507,5.2507,0,0,1,261.4636,317.374Z"/><path class="cls-5" d="M41.9,169.31h5.89a4.5367,4.5367,0,0,1,3.1875,1.0083,3.7629,3.7629,0,0,1,1.0888,2.9047,3.9449,3.9449,0,0,1-.4131,1.9063,3.4761,3.4761,0,0,1-1.2607,1.2812,4.7689,4.7689,0,0,1,1.4424.4942,3.1324,3.1324,0,0,1,.9678.8169,3.0618,3.0618,0,0,1,.5351,1.0893,5.0026,5.0026,0,0,1,.1611,1.2911,4.5607,4.5607,0,0,1-.373,1.8959,3.8531,3.8531,0,0,1-1.0488,1.3921,4.4963,4.4963,0,0,1-1.6446.8472,7.7658,7.7658,0,0,1-2.1787.2822H41.9Zm3.9531,5.9707H46.58q1.856,0,1.8555-1.4727T46.58,172.3359h-.7266Zm0,6.1728h.8682a4.41,4.41,0,0,0,2.1377-.3833,1.4955,1.4955,0,0,0,0-2.4609,4.41,4.41,0,0,0-2.1377-.3833h-.8682Z"/><path class="cls-5" d="M55.0525,176.9146a7.8346,7.8346,0,0,1,5.0127-7.4131,9.6658,9.6658,0,0,1,6.7871,0,8.0258,8.0258,0,0,1,2.6728,1.7046,7.8092,7.8092,0,0,1,1.7451,2.5517,8.2858,8.2858,0,0,1,0,6.314,7.8092,7.8092,0,0,1-1.7451,2.5517,8.018,8.018,0,0,1-2.6728,1.7046,9.6658,9.6658,0,0,1-6.7871,0,7.8653,7.8653,0,0,1-5.0127-7.4135Zm4.1347,0a4.0532,4.0532,0,0,0,.3428,1.6743,4.1842,4.1842,0,0,0,2.29,2.209,4.3976,4.3976,0,0,0,4.6592-.8775,4.1714,4.1714,0,0,0,.9385-1.3315,4.2592,4.2592,0,0,0,0-3.3482,4.17,4.17,0,0,0-.9385-1.3315,4.3214,4.3214,0,0,0-1.3711-.8775,4.4809,4.4809,0,0,0-3.2881,0,4.1842,4.1842,0,0,0-2.29,2.209A4.0544,4.0544,0,0,0,59.1872,176.9146Z"/><path class="cls-5" d="M74.3972,184.52V169.31H78.35l7.3027,9.2993V169.31h3.9336V184.52H85.653L78.35,175.22V184.52Z"/><path class="cls-5" d="M102.1325,181.877H96.4841l-.9072,2.6425H91.3611L97.15,169.31h4.3164l5.7891,15.2094H103.04Zm-1.0488-3.0054-1.7754-5.0635-1.7754,5.0635Z"/><path class="cls-5" d="M117.3415,173.2031a4.8609,4.8609,0,0,0-1.291-.7763,3.4153,3.4153,0,0,0-1.25-.2525,2.0293,2.0293,0,0,0-1.251.3633,1.1323,1.1323,0,0,0-.4843.9478.9443.9443,0,0,0,.2421.666,2.099,2.099,0,0,0,.6358.4536,5.3926,5.3926,0,0,0,.8877.333q.4936.1413.9785.3027a6.102,6.102,0,0,1,2.834,1.7246,4.2588,4.2588,0,0,1,.8974,2.814,5.468,5.468,0,0,1-.3935,2.1177,4.413,4.413,0,0,1-1.1494,1.624,5.302,5.302,0,0,1-1.8565,1.0488,7.7167,7.7167,0,0,1-2.4912.3736,9.1577,9.1577,0,0,1-5.3447-1.7149L110,180.0415a6.8392,6.8392,0,0,0,1.7549,1.17,4.2173,4.2173,0,0,0,1.7139.3833,2.0458,2.0458,0,0,0,1.4424-.4438,1.35,1.35,0,0,0,.4746-1.0088,1.3686,1.3686,0,0,0-.1211-.5947,1.3051,1.3051,0,0,0-.4033-.4644,3.2416,3.2416,0,0,0-.7364-.3931q-.4541-.1816-1.1-.4033-.766-.2424-1.5029-.5346a4.7125,4.7125,0,0,1-1.3106-.7769,3.6023,3.6023,0,0,1-.9287-1.22,4.3161,4.3161,0,0,1-.3525-1.8657,5.39,5.39,0,0,1,.373-2.0479,4.5626,4.5626,0,0,1,1.0489-1.5732,4.6748,4.6748,0,0,1,1.6543-1.0186,6.25,6.25,0,0,1,2.1884-.3633,9.5808,9.5808,0,0,1,2.36.313,10.4343,10.4343,0,0,1,2.36.9175Z"/><path class="cls-5" d="M131.0593,181.877h-5.6484l-.9073,2.6425h-4.2158l5.7891-15.2094h4.3164l5.789,15.2094h-4.2158Zm-1.0488-3.0054-1.7754-5.0635-1.7754,5.0635Z"/><path class="cls-5" d="M139.4509,169.31l3.6709,9.2587,3.6914-9.2587H151.11L144.695,184.52h-3.1464L135.154,169.31Z"/><path class="cls-5" d="M151.3132,176.9146a7.835,7.835,0,0,1,5.0127-7.4131,9.6658,9.6658,0,0,1,6.7871,0,8.0253,8.0253,0,0,1,2.6729,1.7046,7.8092,7.8092,0,0,1,1.7451,2.5517,8.2858,8.2858,0,0,1,0,6.314,7.8092,7.8092,0,0,1-1.7451,2.5517,8.0174,8.0174,0,0,1-2.6729,1.7046,9.6658,9.6658,0,0,1-6.7871,0,7.8653,7.8653,0,0,1-5.0127-7.4135Zm4.1348,0a4.0532,4.0532,0,0,0,.3427,1.6743,4.1848,4.1848,0,0,0,2.29,2.209,4.3976,4.3976,0,0,0,4.6592-.8775,4.1727,4.1727,0,0,0,.9384-1.3315,4.2592,4.2592,0,0,0,0-3.3482,4.1716,4.1716,0,0,0-.9384-1.3315,4.3214,4.3214,0,0,0-1.3711-.8775,4.4809,4.4809,0,0,0-3.2881,0,4.1848,4.1848,0,0,0-2.29,2.209A4.0543,4.0543,0,0,0,155.448,176.9146Z"/><path class="cls-5" d="M174.6111,169.31V184.52h-3.9532V169.31Z"/><path class="cls-5" d="M190.446,184.52h-4.9219l-3.7724-5.85v5.85h-3.9531V169.31h6.1523a6.0446,6.0446,0,0,1,2.2187.373,4.177,4.177,0,0,1,2.4913,2.5112,5.2149,5.2149,0,0,1,.3125,1.8155,4.4654,4.4654,0,0,1-.837,2.8144,4.2175,4.2175,0,0,1-2.4707,1.4624Zm-8.6943-8.4116h.747a2.8829,2.8829,0,0,0,1.795-.4844,1.8623,1.8623,0,0,0,0-2.7837,2.8836,2.8836,0,0,0-1.795-.4838h-.747Z"/><path class="cls-5" d="M192.1,184.52V169.31h3.9531l7.3028,9.2993V169.31H207.29V184.52h-3.9336l-7.3028-9.2993V184.52Z"/><path class="cls-5" d="M210.4763,169.31h5.89a4.5364,4.5364,0,0,1,3.1875,1.0083,3.7626,3.7626,0,0,1,1.0889,2.9047,3.9449,3.9449,0,0,1-.4131,1.9063,3.4776,3.4776,0,0,1-1.2607,1.2812,4.77,4.77,0,0,1,1.4424.4942,3.1319,3.1319,0,0,1,.9677.8169,3.06,3.06,0,0,1,.5352,1.0893,5.0026,5.0026,0,0,1,.1611,1.2911,4.5607,4.5607,0,0,1-.373,1.8959,3.8534,3.8534,0,0,1-1.0489,1.3921,4.4958,4.4958,0,0,1-1.6445.8472,7.7658,7.7658,0,0,1-2.1787.2822h-6.3535Zm3.9531,5.9707h.7266q1.856,0,1.8554-1.4727t-1.8554-1.4722h-.7266Zm0,6.1728h.8682a4.41,4.41,0,0,0,2.1377-.3833,1.4955,1.4955,0,0,0,0-2.4609,4.41,4.41,0,0,0-2.1377-.3833h-.8682Z"/><path class="cls-5" d="M223.9109,182.583a2.3654,2.3654,0,0,1,.6855-1.6743,2.3246,2.3246,0,0,1,.7568-.5044,2.368,2.368,0,0,1,2.5918,3.853,2.366,2.366,0,0,1-1.6738.6861,2.3509,2.3509,0,0,1-.918-.1817,2.3156,2.3156,0,0,1-1.2607-1.2607A2.3523,2.3523,0,0,1,223.9109,182.583Z"/><path class="cls-5" d="M242.2468,174.3931a4.2205,4.2205,0,0,0-3.3887-1.6739,4.1472,4.1472,0,0,0-1.6445.3228,3.9392,3.9392,0,0,0-2.1582,2.1987,4.3259,4.3259,0,0,0-.3125,1.6538,4.38,4.38,0,0,0,.3125,1.6743,4.0287,4.0287,0,0,0,2.1689,2.2188,4.0163,4.0163,0,0,0,1.6133.3228,4.5783,4.5783,0,0,0,3.4092-1.6138v4.68l-.4033.1411a11.7619,11.7619,0,0,1-1.6944.4741,8.2386,8.2386,0,0,1-1.5537.1514,7.9379,7.9379,0,0,1-5.5566-2.27,8.3244,8.3244,0,0,1-1.7656-2.562,8.2183,8.2183,0,0,1-.01-6.4546,8.0335,8.0335,0,0,1,7.3525-4.771,8.3313,8.3313,0,0,1,1.7852.1919,10.88,10.88,0,0,1,1.8457.5948Z"/><path class="cls-5" d="M254.4294,181.877H248.781l-.9073,2.6425h-4.2158L249.447,169.31h4.3164l5.7891,15.2094h-4.2159Zm-1.0488-3.0054-1.7754-5.0635-1.7754,5.0635Z"/><path class="cls-4" d="M102.3989,424.8071a7.0406,7.0406,0,0,1-2.372,1.3432,8.7985,8.7985,0,0,1-5.5436,0,7.2422,7.2422,0,0,1-2.36-1.3067,6.4077,6.4077,0,0,1-1.6456-2.1062,6.3156,6.3156,0,0,1-.6173-2.8438,6.1562,6.1562,0,0,1,.6289-2.8327,6.4008,6.4008,0,0,1,1.6708-2.0815,7.3322,7.3322,0,0,1,2.372-1.2833,8.7405,8.7405,0,0,1,2.7349-.4352,9.16,9.16,0,0,1,2.6872.399,7.6357,7.6357,0,0,1,2.3482,1.1744l-1.67,1.9367a5.4123,5.4123,0,0,0-1.5861-.739,6.4171,6.4171,0,0,0-1.7793-.2534,6.1233,6.1233,0,0,0-1.7669.2534,4.8417,4.8417,0,0,0-1.5248.763,3.6667,3.6667,0,0,0-1.0771,1.2945,4.0482,4.0482,0,0,0-.4,1.8521,3.8632,3.8632,0,0,0,.4121,1.8393,3.8129,3.8129,0,0,0,1.0888,1.2833,4.82,4.82,0,0,0,1.5369.7627,6.1692,6.1692,0,0,0,1.7554.2538,5.6737,5.6737,0,0,0,1.9729-.3506,5.1427,5.1427,0,0,0,1.6824-1.0049l1.4524,2.0819Z"/><path class="cls-4" d="M114.3088,422.0478l-2.445-4.6482-2.9779,5.737a12.0577,12.0577,0,0,1,1.8646-.702,11.1982,11.1982,0,0,1,3.2193-.3868Zm-4.551-8.6661h2.6865l6.7784,12.8295h-2.7356l-.9926-1.8883h-1.5009a13.7254,13.7254,0,0,0-2.3.1939,17.6724,17.6724,0,0,0-2.069.472,11.4281,11.4281,0,0,0-1.5739.5806,2.372,2.372,0,0,0-.7866.4967l-.0723.1451h-2.615l6.0034-11.2561-.8227-1.5734Z"/><polygon class="cls-4" points="124.644 413.672 132.221 422.386 132.221 413.672 134.714 413.672 134.714 426.211 132.221 426.211 125.249 418.054 125.249 426.211 122.756 426.211 122.756 415.536 121.522 413.672 124.644 413.672 124.644 413.672"/><polygon class="cls-4" points="142.073 413.672 149.649 422.386 149.649 413.672 152.142 413.672 152.142 426.211 149.649 426.211 142.677 418.054 142.677 426.211 140.184 426.211 140.184 415.536 138.95 413.672 142.073 413.672 142.073 413.672"/><path class="cls-4" d="M165.5038,422.0478,163.0592,417.4l-2.9781,5.737a12.07,12.07,0,0,1,1.8646-.702,11.1979,11.1979,0,0,1,3.2194-.3868Zm-4.5508-8.6661H163.64l6.7785,12.8295h-2.7356l-.9927-1.8883h-1.5009a13.73,13.73,0,0,0-2.3.1939,17.6837,17.6837,0,0,0-2.0691.472,11.4374,11.4374,0,0,0-1.5736.5806,2.37,2.37,0,0,0-.7867.4967l-.0724.1451h-2.615l6.0036-11.2561-.8229-1.5734Z"/><path class="cls-4" d="M176.7843,423.6939h5.2038a4.3325,4.3325,0,0,0,.739-.0606,1.7889,1.7889,0,0,0,.6168-.2185,1.24,1.24,0,0,0,.4358-.4351,1.41,1.41,0,0,0,.17-.7383,1.2421,1.2421,0,0,0-.46-1.0533,2.51,2.51,0,0,0-1.5009-.3505h-1.2823q-.8724,0-1.44.0362a9.1813,9.1813,0,0,0-.98.1083,3.4128,3.4128,0,0,0-.75.2182q-.3391.1456-.75.363v2.1306Zm0-4.6726a4.669,4.669,0,0,1,1.8278-.6049,17.553,17.553,0,0,1,2.0937-.1208h1.2823q1.2591,0,1.26-1.0892a.9143.9143,0,0,0-.3516-.7745,1.4591,1.4591,0,0,0-.9081-.2669h-5.2038v2.8563Zm9.6582,3.2688a3.6317,3.6317,0,0,1-1.1744,2.904,4.85,4.85,0,0,1-3.28,1.0171h-7.697V413.6724h7.697a4.2079,4.2079,0,0,1,1.4647.2537,3.6676,3.6676,0,0,1,1.21.7268,3.5143,3.5143,0,0,1,.8232,1.1132,3.33,3.33,0,0,1,.3022,1.44,3.8092,3.8092,0,0,1-.1811,1.1863,2.1911,2.1911,0,0,1-.6415.9677,2.7594,2.7594,0,0,1,1.0895,1.21,3.9031,3.9031,0,0,1,.3871,1.7195Z"/><polygon class="cls-4" points="191.283 426.211 191.283 413.672 193.752 413.672 193.752 426.211 191.283 426.211 191.283 426.211"/><path class="cls-4" d="M207.5013,416.771a4.1793,4.1793,0,0,0-1.676-.8473,8.25,8.25,0,0,0-2.0371-.2422,3.9287,3.9287,0,0,0-1.7126.3992,2.0022,2.0022,0,0,0-.5908.4358.7764.7764,0,0,0-.2284.52,1.5109,1.5109,0,0,0,.0836.5207.7574.7574,0,0,0,.363.3868,2.6478,2.6478,0,0,0,.8206.2544,8.743,8.743,0,0,0,1.46.0968,13.1921,13.1921,0,0,1,3.1983.3146,4.8815,4.8815,0,0,1,1.8712.8473,2.5736,2.5736,0,0,1,.869,1.2346,4.8946,4.8946,0,0,1,.2176,1.4525,3.8651,3.8651,0,0,1-.4845,1.9722,3.99,3.99,0,0,1-1.3433,1.38,6.6163,6.6163,0,0,1-2.0213.8228,10.6708,10.6708,0,0,1-2.4936.2785,7.2149,7.2149,0,0,1-3.1582-.7136,7.5034,7.5034,0,0,1-2.53-1.9492l1.7912-1.8156q.2909.2909.6169.6537a4.5731,4.5731,0,0,0,.7751.678,4.1542,4.1542,0,0,0,1.0526.5208,4.5342,4.5342,0,0,0,1.4522.205,6.56,6.56,0,0,0,2.808-.5082,1.6285,1.6285,0,0,0,1.0657-1.5246,1.1117,1.1117,0,0,0-.9561-1.1138,11.7733,11.7733,0,0,0-2.9176-.2663,10.3293,10.3293,0,0,1-2.0812-.1939,4.6889,4.6889,0,0,1-1.6339-.6412,3.1681,3.1681,0,0,1-1.0773-1.1615,3.5816,3.5816,0,0,1-.3874-1.731,2.9417,2.9417,0,0,1,.4236-1.5493,3.9508,3.9508,0,0,1,1.1257-1.1977,5.3163,5.3163,0,0,1,1.6461-.7627,7.2507,7.2507,0,0,1,1.9844-.2663,11.4567,11.4567,0,0,1,2.6872.3144,8.204,8.204,0,0,1,2.6871,1.259l-1.67,1.9367Z"/><polygon class="cls-4" points="141.816 432.194 146.795 437.92 146.795 432.194 148.433 432.194 148.433 440.434 146.795 440.434 142.214 435.073 142.214 440.434 140.576 440.434 140.576 433.419 139.765 432.194 141.816 432.194 141.816 432.194"/><path class="cls-4" d="M153.8886,438.78h3.42a2.8815,2.8815,0,0,0,.4852-.04,1.1984,1.1984,0,0,0,.4055-.1429.8333.8333,0,0,0,.2864-.2864.9337.9337,0,0,0,.1112-.4858.8178.8178,0,0,0-.3021-.6918,1.6526,1.6526,0,0,0-.9862-.2308h-.8429q-.5727,0-.9466.0241a6.0046,6.0046,0,0,0-.6448.0714,2.265,2.265,0,0,0-.4931.1432c-.1481.0635-.312.1431-.493.2386v1.4Zm0-3.07a3.0821,3.0821,0,0,1,1.201-.3976,11.5819,11.5819,0,0,1,1.3765-.08h.8429q.8265,0,.8272-.7155a.6035.6035,0,0,0-.2307-.5092.9636.9636,0,0,0-.5965-.1748h-3.42v1.8768Zm6.3472,2.1474a2.3911,2.3911,0,0,1-.7715,1.9093,3.1911,3.1911,0,0,1-2.1553.6679h-5.0583v-8.24h5.0583a2.7665,2.7665,0,0,1,.9625.1669,2.4211,2.4211,0,0,1,.7952.4773,2.33,2.33,0,0,1,.54.7313,2.1924,2.1924,0,0,1,.1992.9467,2.5008,2.5008,0,0,1-.1192.7794,1.4459,1.4459,0,0,1-.4219.6359,1.8138,1.8138,0,0,1,.7159.7956,2.562,2.562,0,0,1,.2547,1.1293Z"/><path class="cls-6" d="M136.7367,435.8454c-18.7784.0832-32.4505.339-32.4505.6415s13.6721.5578,32.4505.6415v-1.283Z"/><g class="cls-7"><path class="cls-6" d="M163.2633,435.8454v1.283c18.7785-.0837,32.4506-.3391,32.4506-.6415s-13.6721-.5583-32.4506-.6415Z"/><path class="cls-8" d="M166.9445,395.9658c2.9554-3.2932,6.4944-7.8974,7.7511-13.6354a.4942.4942,0,0,0-.5971-.5476c-6.3469,1.07-11.47,4.2216-15.1394,6.861-1.1488.854-2.1566,1.6588-3.042,2.4183a52.8442,52.8442,0,0,0-.236-5.9989c-.5079-4.7754-1.6352-11.0192-5.2565-16.5a.5106.5106,0,0,0-.85,0c-3.6207,5.4809-4.7477,11.7239-5.2549,16.5a53.7312,53.7312,0,0,0-.2386,5.9981c-.8848-.7593-1.8926-1.5635-3.04-2.4172-3.67-2.6394-8.7925-5.7905-15.1395-6.861a.4941.4941,0,0,0-.597.5476c1.2566,5.738,4.7953,10.3422,7.751,13.6354a41.6139,41.6139,0,0,0,5.477,5.065,16.1511,16.1511,0,0,0-6.9782,4.79.337.337,0,0,0,.0862.498c10.0637,5.8792,16.1207.4069,18.0537-1.8774.0428,0,.0846.001.1238.0016a.6231.6231,0,0,0,.0981.01c.0257-.0016.0553-.0029.0839-.0043.0286.0014.0583.0027.0839.0043a.6307.6307,0,0,0,.0981-.01c.0392-.0006.081-.0013.1238-.0016,1.9334,2.2843,7.99,7.7566,18.0537,1.8774a.337.337,0,0,0,.0862-.498,16.1544,16.1544,0,0,0-6.9779-4.79,41.6456,41.6456,0,0,0,5.4767-5.065Z"/></g><path class="cls-9" d="M142.9543,400.9346a8.4639,8.4639,0,0,0-2.7082.1917l-.37.108.3341.1925a17.8127,17.8127,0,0,0,8.4946,2.1026c.4048,0,.6405-.0155.651-.0161l.4882-.0356-.4105-.2666a13.6,13.6,0,0,0-6.4789-2.2765Z"/><path class="cls-9" d="M149.2,402.23l.2712.2969.0148-.4019a13.2071,13.2071,0,0,0-4.3865-9.42l-.263-.239-.0122.3552a9.5648,9.5648,0,0,0,.4918,2.8561A17.3688,17.3688,0,0,0,149.2,402.23Z"/><path class="cls-9" d="M159.7543,401.1263a8.4766,8.4766,0,0,0-2.7086-.1917,13.6015,13.6015,0,0,0-6.4789,2.2765l-.41.2666.4881.0356c.0105.0006.2458.0161.6507.0161a17.8152,17.8152,0,0,0,8.495-2.1026l.3344-.1925-.37-.108Z"/><g class="cls-7"><path class="cls-9" d="M150.5283,402.5271l.2715-.2969a17.3631,17.3631,0,0,0,3.8836-6.5525,9.5757,9.5757,0,0,0,.4924-2.8561l-.0125-.3552-.2626.239a13.2091,13.2091,0,0,0-4.3872,9.42l.0148.4019Z"/><path class="cls-6" d="M160.539,400.7734a12.5852,12.5852,0,0,0-7.7139.7047,12.4814,12.4814,0,0,0,2.57-5.5817,24.0877,24.0877,0,0,0,.4895-3.9116,35.2055,35.2055,0,0,1,17.57-9.084c-2.4423,9.6622-9.4482,15.52-12.9154,17.8726Zm7.1457,5.195c-8.8511,4.975-14.3662.7688-16.5-1.53,1.9314-.0142,5.3048-.1606,8.0443-1.9292q.7481-.424,1.5585-.9871a14.9465,14.9465,0,0,1,6.8976,4.4462Zm-17.0284-2.6194c.4072-.2646.8071-.4967,1.2-.7057l.0112-.0125c.17-.0892.3535-.1794.5441-.2692.0451-.0214.09-.0428.1349-.0636l.0415-.019a11.0488,11.0488,0,0,1,7.0922-1.002l.0319.0046-.005.0027h0a17.7149,17.7149,0,0,1-9.0516,2.0647Zm4.3869-10.5311c-.04.3594-.082.6953-.1254.9992a16.9564,16.9564,0,0,1-4.2384,8.2927,13.3106,13.3106,0,0,1,2.7121-7.4511c.4335-.5294.9858-1.1564,1.6517-1.8408ZM150,398.7281a9.57,9.57,0,0,0-1.66-3.2254,24.5656,24.5656,0,0,0-3.4571-3.7341A36.1145,36.1145,0,0,1,150,369.922a36.3048,36.3048,0,0,1,5.1442,21.8219,24.62,24.62,0,0,0-3.4843,3.7588,9.5635,9.5635,0,0,0-1.66,3.2254Zm-9.7078,2.5562h0l-.005-.0027.0316-.0046a11.0487,11.0487,0,0,1,7.0928,1.0023l.0431.0194q.0663.031.1324.0625c.1915.09.3755.1807.5463.27l.0116.0128c.3923.2087.7916.44,1.1984.7047a17.7145,17.7145,0,0,1-9.0515-2.0647Zm-7.9769,4.6841a14.9492,14.9492,0,0,1,6.8973-4.4462q.811.5645,1.5588.9871c2.74,1.7686,6.1129,1.915,8.0443,1.9292-2.1342,2.2987-7.649,6.5049-16.5,1.53ZM144.99,392.8515c.6514.6713,1.1922,1.2865,1.6188,1.8072A13.3124,13.3124,0,0,1,149.32,402.11a16.6268,16.6268,0,0,1-4.192-8.2014c-.048-.3214-.0948-.6769-.1386-1.0572Zm-18.444-9.9507a35.2093,35.2093,0,0,1,17.5669,9.0806,24.6746,24.6746,0,0,0,.4611,3.862,12.7281,12.7281,0,0,0,2.6035,5.6357,12.5841,12.5841,0,0,0-7.7161-.7057c-3.4673-2.3524-10.4732-8.21-12.9154-17.8726Zm40.3988,13.065c2.9554-3.2932,6.4944-7.8974,7.7511-13.6354a.4942.4942,0,0,0-.5971-.5476c-6.3469,1.07-11.47,4.2216-15.1394,6.861-1.1488.854-2.1566,1.6588-3.042,2.4183a52.8442,52.8442,0,0,0-.236-5.9989c-.5079-4.7754-1.6352-11.0192-5.2565-16.5a.5106.5106,0,0,0-.85,0c-3.6207,5.4809-4.7477,11.7239-5.2549,16.5a53.7312,53.7312,0,0,0-.2386,5.9981c-.8848-.7593-1.8926-1.5635-3.04-2.4172-3.67-2.6394-8.7925-5.7905-15.1395-6.861a.4941.4941,0,0,0-.597.5476c1.2566,5.738,4.7953,10.3422,7.751,13.6354a41.6139,41.6139,0,0,0,5.477,5.065,16.1511,16.1511,0,0,0-6.9782,4.79.3368.3368,0,0,0,.0862.498c10.0637,5.8792,16.1207.4069,18.0537-1.8774.0428,0,.0846.001.1238.0016a.6231.6231,0,0,0,.0981.01c.0257-.0016.0553-.0029.0839-.0043.0286.0014.0583.0027.0839.0043a.6307.6307,0,0,0,.0981-.01c.0392-.0006.081-.0013.1238-.0016,1.9334,2.2843,7.99,7.7566,18.0537,1.8774a.337.337,0,0,0,.0862-.498,16.1544,16.1544,0,0,0-6.9779-4.79,41.6456,41.6456,0,0,0,5.4767-5.065Z"/></g></svg>