<svg id="Layer_1" data-name="Layer 1" xmlns="http://www.w3.org/2000/svg" width="300" height="250" viewBox="0 0 300 250"><defs><style>.cls-1{fill:#ab9555;}</style></defs><title>frame2</title><path class="cls-1" d="M114.72379,161.96289H107.7736v-16.9082h2.55078v14.37109h4.39941Z"/><path class="cls-1" d="M122.79215,144.83789a4.04438,4.04438,0,0,1,4.04883,4.04883v9.23047a4.042,4.042,0,1,1-8.084,0v-9.23047a4.04439,4.04439,0,0,1,4.03516-4.04883Zm1.38965,3.99512a1.45208,1.45208,0,0,0-1.457-1.458,1.425,1.425,0,0,0-1.03907.42578,1.39232,1.39232,0,0,0-.43164,1.03223v9.25683a1.39387,1.39387,0,0,0,.43164,1.03223,1.428,1.428,0,0,0,1.03907.42481,1.45044,1.45044,0,0,0,1.457-1.457Z"/><path class="cls-1" d="M135.35563,144.83789a4.04273,4.04273,0,0,1,4.04785,4.04883v9.23047a4.04152,4.04152,0,1,1-8.083,0v-9.23047a4.04439,4.04439,0,0,1,4.03516-4.04883Zm1.38964,3.99512a1.45207,1.45207,0,0,0-1.458-1.458,1.42658,1.42658,0,0,0-1.03907.42578,1.396,1.396,0,0,0-.43164,1.03223v9.25683a1.39757,1.39757,0,0,0,.43164,1.03223,1.42957,1.42957,0,0,0,1.03907.42481,1.45043,1.45043,0,0,0,1.458-1.457Z"/><path class="cls-1" d="M146.47379,156.59863v5.36426H143.923V145.041h2.55078v6.03125L149.591,145.041h2.71875l-3.49024,6.90234,4.09375,10.01953h-2.998l-2.67774-6.87012Z"/><path class="cls-1" d="M169.047,162.15137a4.00789,4.00789,0,0,1-4.03515-4.02149V145.05469H167.509v13.04883a1.39382,1.39382,0,0,0,.43164,1.03222,1.42634,1.42634,0,0,0,1.03906.42481,1.45043,1.45043,0,0,0,1.457-1.457V145.05469h2.6582v13.07519a3.84159,3.84159,0,0,1-1.1875,2.86133A3.94434,3.94434,0,0,1,169.047,162.15137Z"/><path class="cls-1" d="M181.66324,145.05469a3.88347,3.88347,0,0,1,2.96875,1.17383,4.07235,4.07235,0,0,1,1.02539,2.86035v2.45605a3.93492,3.93492,0,0,1-1.167,2.86133,3.82057,3.82057,0,0,1-2.82715,1.1875h-1.4707v6.36914h-2.55078v-16.9082Zm1.52442,4.07519a1.45678,1.45678,0,0,0-.39746-1.0664,1.4218,1.4218,0,0,0-1.05957-.40528h-1.53809v5.41211h1.53809a1.39321,1.39321,0,0,0,1.03222-.43261,1.42635,1.42635,0,0,0,.42481-1.03907Z"/><path class="cls-1" d="M189.69156,159.42578h2.55079v2.55078h-2.55079Z"/></svg>