<svg id="Layer_1" data-name="Layer 1" xmlns="http://www.w3.org/2000/svg" width="320" height="480" viewBox="0 0 320 480"><defs><style>.cls-1{fill:#fff;}</style></defs><title>frame1</title><path class="cls-1" d="M84.60643,282.41363v-24.9375h5.61914a7.15831,7.15831,0,0,1,4.01954,1.17579,5.47028,5.47028,0,0,1,2.1875,3.07617,8.77241,8.77241,0,0,1,.35546,2.65234A5.88612,5.88612,0,0,1,95.4619,268.4a3.8961,3.8961,0,0,1-1.3125.97071,4.3805,4.3805,0,0,1,2.11914,1.88671,7.10322,7.10322,0,0,1,.86133,2.46094,10.02855,10.02855,0,0,1,.13672,1.73633,8.37814,8.37814,0,0,1-.88867,4.01953,5.76934,5.76934,0,0,1-4.8125,2.93945Zm4.04688-14.752h1.57226a2.30856,2.30856,0,0,0,2.35157-1.709,4.90008,4.90008,0,0,0,.21875-1.57227,3.2946,3.2946,0,0,0-.752-2.35156,2.38573,2.38573,0,0,0-1.81836-.73828H88.65331Zm0,11.0332h1.57226a2.67293,2.67293,0,0,0,2.65235-1.96875,4.24059,4.24059,0,0,0,.25976-1.54492,4.6855,4.6855,0,0,0-.80664-3.04883,2.55241,2.55241,0,0,0-2.10547-.875H88.65331Z"/><path class="cls-1" d="M109.25487,257.47613a5.69952,5.69952,0,0,1,4.60742,1.73633,6.27632,6.27632,0,0,1,1.29883,4.21094v3.623a5.8032,5.8032,0,0,1-2.00586,4.4707l2.78516,10.89648h-4.05469l-2.293-9.41992c-.10937.00879-.22461.01367-.34179.01367h-2.15625v9.40625H103.335v-24.9375Zm2.24219,6.01563a1.90662,1.90662,0,0,0-2.14063-2.17383h-2.26171v7.9707h2.26171a2.04173,2.04173,0,0,0,1.51954-.63574,2.10352,2.10352,0,0,0,.62109-1.52441Z"/><path class="cls-1" d="M121.96581,282.41363v-24.9375h10.70508v3.75977h-6.94532v6.83594h5.07227v3.75976h-5.07227v6.82227h6.94532v3.75976Z"/><path class="cls-1" d="M142.88182,276.68512l-.916,5.72851h-3.91016l4.22461-24.9375h5.18164l4.16992,24.9375h-3.9375l-.88867-5.72851Zm1.96875-13.49414-1.39453,9.83008h2.78907Z"/><path class="cls-1" d="M158.083,261.2359h-3.99219v-3.75977h11.73047v3.75977h-3.97852v21.17773H158.083Z"/><path class="cls-1" d="M175.40136,271.859v10.55468h-3.75977v-24.9375h3.75977v10.59571h4.51171V257.47613h3.75977v24.9375h-3.75977V271.859Z"/><path class="cls-1" d="M189.86425,282.41363v-24.9375h10.70507v3.75977H193.624v6.83594h5.07227v3.75976H193.624v6.82227h6.94531v3.75976Z"/><path class="cls-1" d="M215.09667,282.41363H211.3369v-24.9375h3.75977Z"/><path class="cls-1" d="M225.48534,257.47613l4.97656,16.748v-16.748h3.75977v24.9375h-4.02735l-5.17382-15.96875v15.96875h-3.75977v-24.9375Z"/><path class="cls-1" d="M239.60448,278.66754h3.75977v3.75977h-3.75977Z"/></svg>