<svg id="Layer_1" data-name="Layer 1" xmlns="http://www.w3.org/2000/svg" xmlns:xlink="http://www.w3.org/1999/xlink" width="47.44021" height="69.06315" viewBox="0 0 47.44021 69.06315"><defs><style>.cls-1{fill:url(#New_Gradient_Swatch_1);}.cls-2{fill:#fff;}.cls-3{fill:#ba9544;}</style><linearGradient id="New_Gradient_Swatch_1" y1="20.5417" x2="47.44021" y2="20.5417" gradientUnits="userSpaceOnUse"><stop offset="0" stop-color="#a88a34"/><stop offset="0.49324" stop-color="#caaf67"/><stop offset="1" stop-color="#957f2e"/></linearGradient></defs><title>citrus</title><polygon class="cls-1" points="35.58 0 11.861 0 0 20.541 11.861 41.083 35.58 41.083 47.44 20.541 35.58 0"/><path class="cls-2" d="M33.42262,23.45053A10.4285,10.4285,0,0,1,17.61435,9.89714l-.96542-.82876A11.69923,11.69923,0,0,0,34.388,24.27931Z"/><path class="cls-2" d="M16.45452,17.27623a9.47714,9.47714,0,0,0,2.94256,5.88071l5.60518-6.53754Z"/><path class="cls-2" d="M20.0451,23.71151a9.48067,9.48067,0,0,0,6.16944,2.01461l-.648-8.453Z"/><path class="cls-2" d="M18.31109,10.49446a9.47626,9.47626,0,0,0-1.91323,5.93141l8.10472-.62377Z"/><path class="cls-2" d="M32.72412,22.85255l-6.28849-5.39137.62819,8.19728a9.47274,9.47274,0,0,0,5.6603-2.80591"/><path class="cls-2" d="M24.96325,15.09566c.04187-.5312.33944-.86844.67667-.89489.335-.02865.58411.2623.54222.7935a1.80656,1.80656,0,0,1-.68549,1.01171,1.16891,1.16891,0,0,1-.5334-.91032"/><path class="cls-2" d="M27.15993,15.60261c.51576-.15207.8552.02645.89709.35928.04187.33063-.22924.68991-.7428.842a1.18945,1.18945,0,0,1-1.01173-.32622s.34166-.723.85744-.87506"/><path class="cls-2" d="M28.11322,32.03178a1.10056,1.10056,0,1,1-2.19976.07716c-.01984-.60615,1.03816-1.80742,1.03816-1.80742s1.14175,1.12412,1.1616,1.73026"/><path class="cls-2" d="M27.72155,31.315a.30886.30886,0,0,1-.26451.34386l-.91473.03306a.31013.31013,0,0,1-.28653-.324,3.31075,3.31075,0,0,0,.09918-1.75452c-.35047-1.04257-2.79267-1.86251-2.64059-1.86693l5.0299-.35266a3.63733,3.63733,0,0,0-1.35335,2.213,2.29427,2.29427,0,0,0,.33063,1.70822"/><path class="cls-3" d="M2.16851,67.81119A4.361,4.361,0,0,1,5.2691,60.34537a4.71656,4.71656,0,0,1,3.20214,1.16211l-1.1621,1.27344a3.21417,3.21417,0,0,0-2.04-.69727,2.56323,2.56323,0,0,0-1.89161.73145,2.53557,2.53557,0,0,0-.71777,1.86035,2.61507,2.61507,0,0,0,.72656,1.92969A2.57371,2.57371,0,0,0,5.28082,67.32a3.12042,3.12042,0,0,0,2.02832-.69238L8.47124,67.901A4.70258,4.70258,0,0,1,5.2691,69.06315,4.24074,4.24074,0,0,1,2.16851,67.81119Z"/><path class="cls-3" d="M10.3482,60.33951h1.7373v8.72364H10.3482Z"/><path class="cls-3" d="M20.94878,60.34537v1.627H18.04351v7.09082H16.29937V61.97233H13.3941v-1.627Z"/><path class="cls-3" d="M27.49272,65.26236l2.17384,3.80079h-1.999l-2.08691-3.60352H23.98785v3.60352H22.24468V60.34537h3.80078q3.05127,0,3.05176,2.51074A2.25441,2.25441,0,0,1,27.49272,65.26236Zm-3.50487-1.42968h2.4414q1.05176-.01758,1.08106-.959-.0293-.85986-1.06348-.8955h-2.459Z"/><path class="cls-3" d="M32.18218,60.34537V65.402a1.75053,1.75053,0,0,0,.582,1.45313,2.50219,2.50219,0,0,0,2.90528,0,1.75006,1.75006,0,0,0,.581-1.45313V60.34537h1.74414v5.52149a2.88976,2.88976,0,0,1-1.07519,2.2666,4.39318,4.39318,0,0,1-5.40528,0,2.88976,2.88976,0,0,1-1.07519-2.2666V60.34537Z"/><path class="cls-3" d="M44.59624,60.63639a4.05931,4.05931,0,0,1,1.25.87109l-1.1621,1.16309a2.00412,2.00412,0,0,0-1.62793-.69824q-1.04591,0-1.33594.49414a.67839.67839,0,0,0,0,.84277,2.29328,2.29328,0,0,0,1.33594.52344,4.3254,4.3254,0,0,1,2.00586.72656,2.183,2.183,0,0,1,.90039,1.94629,2.23247,2.23247,0,0,1-.96192,1.80176,3.52129,3.52129,0,0,1-2.24023.75586,5.16309,5.16309,0,0,1-2.02832-.34864,4.37635,4.37635,0,0,1-1.39453-.92968l1.16211-1.16309a2.7597,2.7597,0,0,0,1.97558.81445q1.16309,0,1.4502-.49414a.92226.92226,0,0,0,0-.98828q-.28712-.49365-1.4502-.61035a4.68352,4.68352,0,0,1-1.918-.63867,1.92967,1.92967,0,0,1-.87109-1.80176,2.17029,2.17029,0,0,1,.99023-1.85742,3.49244,3.49244,0,0,1,2.03711-.7002A4.84991,4.84991,0,0,1,44.59624,60.63639Z"/></svg>