<svg id="Content" xmlns="http://www.w3.org/2000/svg" width="320" height="480" viewBox="0 0 320 480"><defs><style>.cls-1{fill:#ba9544;}</style></defs><title>Frame1 - Shishkaberry</title><path class="cls-1" d="M49.46094,248.832c4.31347,0,6.53076,2.58008,6.53076,7.09473v.88672H51.79883v-1.169c0-2.01562-.80615-2.78125-2.21729-2.78125-1.41064,0-2.21728.76563-2.21728,2.78125,0,5.80469,8.66748,6.89356,8.66748,14.957,0,4.51367-2.25733,7.09375-6.61133,7.09375s-6.61133-2.58008-6.61133-7.09375v-1.73437h4.19238v2.01562c0,2.01563.88721,2.74219,2.29834,2.74219,1.41065,0,2.29786-.72656,2.29786-2.74219,0-5.80469-8.66748-6.89355-8.66748-14.95605C42.93018,251.41211,45.14746,248.832,49.46094,248.832Z"/><path class="cls-1" d="M67.28271,277.37305H62.84863V249.1543h4.43408v12.09375h5.03956V249.1543H76.8374v28.21875H72.32227V265.2793H67.28271Z"/><path class="cls-1" d="M84.33984,249.1543h4.43409v28.21875H84.33984Z"/><path class="cls-1" d="M102.24072,248.832c4.31348,0,6.53076,2.58008,6.53076,7.09473v.88672h-4.19287v-1.169c0-2.01562-.80615-2.78125-2.21728-2.78125-1.41065,0-2.2168.76563-2.2168,2.78125,0,5.80469,8.667,6.89356,8.667,14.957,0,4.51367-2.25732,7.09375-6.61132,7.09375s-6.61133-2.58008-6.61133-7.09375v-1.73437h4.19238v2.01562c0,2.01563.88721,2.74219,2.29785,2.74219,1.41113,0,2.29834-.72656,2.29834-2.74219,0-5.80469-8.66748-6.89355-8.66748-14.95605C95.71,251.41211,97.92725,248.832,102.24072,248.832Z"/><path class="cls-1" d="M120.0625,277.37305h-4.43457V249.1543h4.43457v12.09375h5.03955V249.1543h4.51514v28.21875h-4.51514V265.2793H120.0625Z"/><path class="cls-1" d="M142.92383,266.126l-1.37061,2.58007v8.667h-4.43408V249.1543h4.43408v12.29492l5.80518-12.29492H151.793l-6.168,12.57812,6.168,15.64063h-4.55518Z"/><path class="cls-1" d="M172.4375,277.37305h-4.4751l-.76562-5.11914h-5.44239l-.76611,5.11914H156.9165l4.51514-28.21875h6.49072Zm-10.11865-8.94922h4.273l-2.13672-14.27149Z"/><path class="cls-1" d="M192.03369,255.64453v1.00781c0,2.90235-.88721,4.75684-2.8623,5.6836,2.37841.92773,3.30566,3.06445,3.30566,6.04785v2.29785c0,4.35352-2.29785,6.69141-6.73242,6.69141h-6.97412V249.1543h6.69189C190.05811,249.1543,192.03369,251.291,192.03369,255.64453Zm-8.8291-2.459v7.458h1.73389c1.65283,0,2.66064-.72558,2.66064-2.98339v-1.57227c0-2.01562-.68555-2.90234-2.25781-2.90234Zm0,11.48925v8.667h2.54c1.4917,0,2.29785-.68555,2.29785-2.78125v-2.459c0-2.62109-.84668-3.42676-2.8623-3.42676Z"/><path class="cls-1" d="M203.84863,261.04688H209.936v4.03124h-6.08741v8.26368h7.65967v4.03125H199.41406V249.1543H211.5083v4.03125h-7.65967Z"/><path class="cls-1" d="M227.79834,277.37305a8.67238,8.67238,0,0,1-.40332-3.4668v-4.43359c0-2.6211-.88672-3.58789-2.90234-3.58789h-1.53223v11.48828h-4.43408V249.1543h6.69189c4.5957,0,6.57129,2.13672,6.57129,6.49023v2.2168c0,2.90234-.92725,4.79785-2.90283,5.72461,2.21728.92773,2.94287,3.06445,2.94287,6.00683v4.3545a8.30835,8.30835,0,0,0,.48389,3.42578Zm-4.83789-24.1875v8.667h1.73389c1.65283,0,2.66064-.72559,2.66064-2.9834v-2.78125c0-2.01562-.68555-2.90234-2.25781-2.90234Z"/><path class="cls-1" d="M248.28174,277.37305a8.67238,8.67238,0,0,1-.40332-3.4668v-4.43359c0-2.6211-.88672-3.58789-2.90235-3.58789h-1.53222v11.48828h-4.43408V249.1543h6.69189c4.5957,0,6.57129,2.13672,6.57129,6.49023v2.2168c0,2.90234-.92725,4.79785-2.90283,5.72461,2.21728.92773,2.94287,3.06445,2.94287,6.00683v4.3545a8.30835,8.30835,0,0,0,.48389,3.42578Zm-4.83789-24.1875v8.667h1.73388c1.65284,0,2.66065-.72559,2.66065-2.9834v-2.78125c0-2.01562-.68555-2.90234-2.25781-2.90234Z"/><path class="cls-1" d="M263.64453,268.02148,258.041,249.1543h4.63623l3.38623,12.85937,3.38623-12.85937h4.23291l-5.60352,18.86718v9.35157h-4.43457Z"/></svg>