<svg id="Content" xmlns="http://www.w3.org/2000/svg" viewBox="0 0 640 1136"><defs><style>.cls-1{fill:#ba9544;}</style></defs><title>Frame2 - Daytime CBD</title><path class="cls-1" d="M151.14,351.05h12c7.57,0,11.29,4.2,11.29,11.9v24.36c0,7.71-3.72,11.91-11.29,11.91h-12Zm7.57,6.88v34.41H163c2.4,0,3.85-1.24,3.85-4.68V362.61c0-3.44-1.45-4.68-3.85-4.68Z"/><path class="cls-1" d="M209.63,399.22H202l-1.31-8.74H191.4l-1.31,8.74h-7l7.71-48.17h11.08Zm-17.27-15.28h7.3L196,359.58Z"/><path class="cls-1" d="M220.64,383.25l-9.56-32.2H219L224.77,373l5.78-21.95h7.23l-9.57,32.2v16h-7.57Z"/><path class="cls-1" d="M241.77,351.05h23.4v6.88h-7.92v41.29h-7.56V357.93h-7.92Z"/><path class="cls-1" d="M274.39,351.05H282v48.17h-7.57Z"/><path class="cls-1" d="M310.79,385.25l5.16-34.2h10.53v48.17h-7.15V364.67l-5.23,34.55h-7.16l-5.64-34.06v34.06h-6.61V351.05h10.53Z"/><path class="cls-1" d="M346.85,371.35h10.39v6.88H346.85v14.11h13.08v6.88H339.28V351.05h20.65v6.88H346.85Z"/><path class="cls-1" d="M411.82,381.26v6.4c0,7.71-3.86,12.11-11.29,12.11s-11.29-4.4-11.29-12.11V362.61c0-7.71,3.86-12.11,11.29-12.11s11.29,4.4,11.29,12.11v4.68h-7.16v-5.16c0-3.44-1.52-4.75-3.92-4.75s-3.93,1.31-3.93,4.75v26c0,3.44,1.52,4.68,3.93,4.68s3.92-1.24,3.92-4.68v-6.88Z"/><path class="cls-1" d="M446.36,362.13v1.72c0,4.95-1.51,8.12-4.88,9.7,4.06,1.58,5.64,5.23,5.64,10.32v3.93c0,7.43-3.92,11.42-11.49,11.42H423.72V351.05h11.42C443,351.05,446.36,354.7,446.36,362.13Zm-15.07-4.2v12.73h3c2.82,0,4.54-1.24,4.54-5.09v-2.69c0-3.44-1.17-4.95-3.85-4.95Zm0,19.61v14.8h4.34c2.54,0,3.92-1.17,3.92-4.75v-4.2c0-4.47-1.45-5.85-4.89-5.85Z"/><path class="cls-1" d="M459,351.05h12c7.57,0,11.28,4.2,11.28,11.9v24.36c0,7.71-3.71,11.91-11.28,11.91H459Zm7.57,6.88v34.41h4.27c2.41,0,3.85-1.24,3.85-4.68V362.61c0-3.44-1.44-4.68-3.85-4.68Z"/></svg>