<svg id="Content" xmlns="http://www.w3.org/2000/svg" viewBox="0 0 640 1136"><defs><style>.cls-1{fill:#fff;stroke:#ba9544;stroke-miterlimit:10;stroke-width:0.96px;}.cls-2{fill:#ba9544;}</style></defs><title>THC - Daytime CBD</title><polygon class="cls-1" points="499.17 690.02 143.29 688.67 125.32 714.58 143.29 740.03 499.17 739.42 515.34 714.72 499.17 690.02"/><polygon class="cls-2" points="143.55 688.67 125.58 714.58 143.55 740.03 165.89 740.03 165.89 688.67 143.55 688.67"/><path class="cls-2" d="M347,705.12v3.25h-5.81v14.18h-3.48V708.37h-5.81v-3.25Z"/><path class="cls-2" d="M349.57,722.55V705.12h3.48v7h8.12v-7h3.49v17.42l-3.49,0v-7.21h-8.12v7.21Z"/><path class="cls-2" d="M370.07,720a8.72,8.72,0,0,1,6.19-14.92,9.42,9.42,0,0,1,6.4,2.33L380.34,710a6.41,6.41,0,0,0-4.08-1.4,5,5,0,0,0-5.21,5.19,5.19,5.19,0,0,0,1.45,3.85,5.11,5.11,0,0,0,3.79,1.43,6.25,6.25,0,0,0,4-1.38l2.32,2.54a9.38,9.38,0,0,1-6.4,2.33A8.47,8.47,0,0,1,370.07,720Z"/><path class="cls-2" d="M386.57,711.44a1.64,1.64,0,0,1,1.25-.47,1.72,1.72,0,0,1,1.3.47,1.58,1.58,0,0,1,.47,1.16,1.57,1.57,0,0,1-.47,1.16,2,2,0,0,1-2.55,0,1.57,1.57,0,0,1-.47-1.16A1.58,1.58,0,0,1,386.57,711.44Zm0,8.31a1.68,1.68,0,0,1,1.25-.47,1.75,1.75,0,0,1,1.3.47,1.62,1.62,0,0,1,.47,1.17,1.58,1.58,0,0,1-.47,1.16,2,2,0,0,1-2.55,0,1.58,1.58,0,0,1-.47-1.16A1.62,1.62,0,0,1,386.57,719.75Z"/><path class="cls-2" d="M411.91,713.72c.21.08.4.15.57.23q1.8.81,1.8,3.48a4.48,4.48,0,0,1-1.92,3.61,7.09,7.09,0,0,1-4.48,1.51,10.36,10.36,0,0,1-4.05-.7A8.85,8.85,0,0,1,401,720l2.32-2.32a5.51,5.51,0,0,0,3.95,1.62c1.55,0,2.52-.33,2.9-1a1.86,1.86,0,0,0,0-2c-.38-.66-1.73-1-4-1.1v-3.14q3.48.24,4-.75a1.86,1.86,0,0,0,0-2c-.38-.66-1.35-1-2.9-1a4.15,4.15,0,0,0-3.37,1.4l-2.32-2.32a8.06,8.06,0,0,1,2.5-1.75,9.83,9.83,0,0,1,3.76-.58,6.19,6.19,0,0,1,4.25,1.51,4.7,4.7,0,0,1,1.69,3.6,3.45,3.45,0,0,1-1.57,3.31Z"/><path class="cls-2" d="M417.12,717.89v-2.31h7.2v2.31Z"/><path class="cls-2" d="M429.53,722.55v-1.17l5.45-13h-7.45l0-3.25h11.9v1.28l-6.5,16.15Z"/><path class="cls-2" d="M443.24,712.47a4.37,4.37,0,0,1,3.11-7.48,4.37,4.37,0,1,1-3.11,7.48Zm3.08-.81a2.07,2.07,0,0,0,1.59-.66,2.33,2.33,0,0,0,.62-1.65,2.29,2.29,0,0,0-.62-1.64,2.1,2.1,0,0,0-1.6-.66,2.05,2.05,0,0,0-1.58.66,2.29,2.29,0,0,0-.62,1.64,2.33,2.33,0,0,0,.62,1.65A2.07,2.07,0,0,0,446.32,711.66Zm-.93,10.89,9.87-17.43h2.84l-9.85,17.43ZM454,721.4a4.47,4.47,0,1,1,3.09,1.24A4.19,4.19,0,0,1,454,721.4Zm3-.85a2,2,0,0,0,1.56-.65,2.4,2.4,0,0,0,0-3.2,2.18,2.18,0,0,0-3.11,0,2.4,2.4,0,0,0,0,3.2A2,2,0,0,0,457.07,720.55Z"/></svg>