<svg id="Layer_1" data-name="Layer 1" xmlns="http://www.w3.org/2000/svg" width="300" height="600" viewBox="0 0 300 600"><defs><style>.cls-1{fill:#fff;}</style></defs><title>gratitude</title><path class="cls-1" d="M64.11652,331.1855H60.73273V308.74234h4.84805l3.15,16.09394,3.02695-16.09394h4.66348V331.1855H73.03742V317.08492L70.113,331.1855H67.39719l-3.28067-14.06367Z"/><path class="cls-1" d="M85.747,308.47163a5.36741,5.36741,0,0,1,5.37715,5.37715v12.24258A5.36743,5.36743,0,0,1,85.747,331.4691a5.1187,5.1187,0,0,1-3.7834-1.575,5.21121,5.21121,0,0,1-1.55683-3.80274V313.84878a5.36753,5.36753,0,0,1,5.34023-5.37715Zm1.8457,5.31387a1.91086,1.91086,0,0,0-1.93183-1.93008,1.89346,1.89346,0,0,0-1.37227.55957,1.84407,1.84407,0,0,0-.57187,1.37051v12.2836a1.85115,1.85115,0,0,0,.57187,1.36406,1.88319,1.88319,0,0,0,1.37227.566,1.92155,1.92155,0,0,0,1.93183-1.93007Z"/><path class="cls-1" d="M100.44992,308.74234a5.12755,5.12755,0,0,1,4.14727,1.56269,5.646,5.646,0,0,1,1.16835,3.78985v3.26074a5.21654,5.21654,0,0,1-1.80585,4.02363l2.50781,9.80625h-3.64922l-2.06484-8.47734c-.09844.0082-.2004.01172-.307.01172H98.50578v8.46562h-3.3832V308.74234Zm2.018,5.41406A1.71584,1.71584,0,0,0,100.5425,312.2H98.50578v7.17364h2.03672a1.84039,1.84039,0,0,0,1.36758-.57188,1.8989,1.8989,0,0,0,.55781-1.37226Z"/><path class="cls-1" d="M110.37922,331.1855V308.74234h9.634v3.38379h-6.25078v6.15234h4.56445v3.3832h-4.56445v6.14063h6.25078v3.3832Z"/><path class="cls-1" d="M132.046,331.4691a5.35538,5.35538,0,0,1-5.36484-5.35313v-12.2918a5.35842,5.35842,0,1,1,10.7168,0v2.55938h-3.50743v-2.6209a1.95352,1.95352,0,0,0-1.95585-1.95645,1.84609,1.84609,0,0,0-1.36524.57247,1.8909,1.8909,0,0,0-.56719,1.384v12.317a1.93454,1.93454,0,0,0,1.93243,1.94414,1.89444,1.89444,0,0,0,1.384-.566,1.863,1.863,0,0,0,.57187-1.37813v-4.418h-1.882v-3.3832H137.398v7.8375a5.34737,5.34737,0,0,1-5.352,5.35313Z"/><path class="cls-1" d="M146.66281,308.74234a5.12492,5.12492,0,0,1,4.14609,1.56269,5.64631,5.64631,0,0,1,1.16954,3.78985v3.26074a5.22046,5.22046,0,0,1-1.80586,4.02363l2.50664,9.80625H149.03l-2.06367-8.47734c-.09844.0082-.20039.01172-.307.01172h-1.94062v8.46562h-3.3832V308.74234Zm2.018,5.41406A1.71584,1.71584,0,0,0,146.75539,312.2h-2.03672v7.17364h2.03672a1.84039,1.84039,0,0,0,1.36758-.57188,1.8989,1.8989,0,0,0,.55781-1.37226Z"/><path class="cls-1" d="M160.74992,326.03042l-.825,5.15508h-3.518l3.80156-22.44316h4.66407l3.75234,22.44316h-3.54375l-.79922-5.15508Zm1.77187-12.14472-1.25507,8.84707h2.51015Z"/><path class="cls-1" d="M172.91867,312.12613h-3.593v-3.38379H179.882v3.38379h-3.58008V331.1855h-3.3832Z"/><path class="cls-1" d="M186.99406,331.1855h-3.3832V308.74234h3.3832Z"/><path class="cls-1" d="M194.31594,312.12613h-3.593v-3.38379h10.55625v3.38379h-3.58008V331.1855h-3.3832Z"/><path class="cls-1" d="M210.33547,331.4691a5.3155,5.3155,0,0,1-5.33907-5.32852V308.74234h3.30938v17.36191a1.85189,1.85189,0,0,0,.57187,1.36524,1.88322,1.88322,0,0,0,1.37227.566,1.92254,1.92254,0,0,0,1.93242-1.93125V308.74234h3.53086v17.39824a5.08874,5.08874,0,0,1-1.575,3.78984A5.246,5.246,0,0,1,210.33547,331.4691Z"/><path class="cls-1" d="M230.35578,325.82066a5.18761,5.18761,0,0,1-1.56328,3.78984,5.09849,5.09849,0,0,1-3.75235,1.575h-5.31562V308.74234h5.31562a5.08342,5.08342,0,0,1,3.76407,1.575,5.19461,5.19461,0,0,1,1.55156,3.77754Zm-7.24805,2.018h2.03672a1.79554,1.79554,0,0,0,1.36055-.58477,1.93166,1.93166,0,0,0,.55312-1.37109V314.1441a1.88348,1.88348,0,0,0-.56484-1.37168,1.82682,1.82682,0,0,0-1.34883-.57247h-2.03672Z"/><path class="cls-1" d="M234.32844,331.1855V308.74234h9.634v3.38379h-6.25078v6.15234h4.56444v3.3832h-4.56444v6.14063h6.25078v3.3832Z"/><path class="cls-1" d="M247.2964,327.814h3.38321v3.38437H247.2964Z"/></svg>