<svg id="Layer_1" data-name="Layer 1" xmlns="http://www.w3.org/2000/svg" width="320" height="50" viewBox="0 0 320 50"><defs><style>.cls-1{fill:#fff;}</style></defs><title>meditation</title><path class="cls-1" d="M136.43,30.61H135V21.25h2L138.35,28l1.27-6.71h1.94v9.36h-1.41V24.73l-1.22,5.88H137.8l-1.37-5.86Z"/><path class="cls-1" d="M145.45,21.14a2.25,2.25,0,0,1,2.24,2.24v5.1a2.24,2.24,0,0,1-2.24,2.24,2.12,2.12,0,0,1-1.58-.65,2.2,2.2,0,0,1-.65-1.59v-5.1a2.25,2.25,0,0,1,2.23-2.24Zm.76,2.22a.74.74,0,0,0-.23-.57.76.76,0,0,0-.57-.24.78.78,0,0,0-.57.24.75.75,0,0,0-.24.57v5.11a.75.75,0,0,0,.24.57.78.78,0,0,0,.57.24A.76.76,0,0,0,146,29a.74.74,0,0,0,.23-.57Z"/><path class="cls-1" d="M151.57,21.25a2.13,2.13,0,0,1,1.73.66,2.36,2.36,0,0,1,.49,1.57v1.36a2.14,2.14,0,0,1-.76,1.68l1.05,4.09h-1.52l-.86-3.54h-.94v3.53h-1.41V21.25Zm.84,2.26a.71.71,0,0,0-.8-.81h-.85v3h.85a.77.77,0,0,0,.57-.23.82.82,0,0,0,.23-.58Z"/><path class="cls-1" d="M155.71,30.61V21.25h4v1.41h-2.6v2.57H159v1.41h-1.9V29.2h2.6v1.41Z"/><path class="cls-1" d="M165.3,30.61h-1.41V21.25h2L167.22,28l1.26-6.71h2v9.36H169V24.73l-1.22,5.88h-1.13l-1.37-5.86Z"/><path class="cls-1" d="M172.11,30.61V21.25h4v1.41h-2.61v2.57h1.9v1.41h-1.9V29.2h2.61v1.41Z"/><path class="cls-1" d="M182,28.37a2.15,2.15,0,0,1-.66,1.58,2.1,2.1,0,0,1-1.56.66h-2.21V21.25h2.21a2.11,2.11,0,0,1,1.57.66,2.17,2.17,0,0,1,.65,1.57Zm-3,.84h.84a.75.75,0,0,0,.57-.24.81.81,0,0,0,.23-.57V23.51a.82.82,0,0,0-.23-.58.77.77,0,0,0-.57-.23h-.84Z"/><path class="cls-1" d="M185,30.61H183.6V21.25H185Z"/><path class="cls-1" d="M188.06,22.66h-1.5V21.25H191v1.41h-1.49v8h-1.41Z"/><path class="cls-1" d="M193,28.46l-.34,2.15h-1.46l1.58-9.36h1.94l1.57,9.36h-1.48l-.33-2.15Zm.74-5.06-.52,3.68h1.05Z"/><path class="cls-1" d="M198.12,22.66h-1.5V21.25H201v1.41h-1.49v8h-1.41Z"/><path class="cls-1" d="M204,30.61h-1.41V21.25H204Z"/><path class="cls-1" d="M207.87,21.14a2.24,2.24,0,0,1,2.24,2.24v5.1a2.15,2.15,0,0,1-.66,1.59,2.25,2.25,0,0,1-3.16,0,2.19,2.19,0,0,1-.64-1.59v-5.1a2.24,2.24,0,0,1,2.22-2.24Zm.77,2.22a.78.78,0,0,0-.23-.57.81.81,0,0,0-1.15,0,.75.75,0,0,0-.24.57v5.11a.75.75,0,0,0,.24.57.81.81,0,0,0,1.38-.57Z"/><path class="cls-1" d="M213.35,21.25l1.87,6.29V21.25h1.41v9.36h-1.51l-1.94-6v6h-1.41V21.25Z"/><path class="cls-1" d="M218,29.2h1.41v1.41H218Z"/></svg>