<svg id="Layer_1" data-name="Layer 1" xmlns="http://www.w3.org/2000/svg" width="160" height="600" viewBox="0 0 160 600"><defs><style>.cls-1{fill:#ab9555;}</style></defs><title>frame3</title><path class="cls-1" d="M9.68982,328.43864v-20.6342h4.64882a5.929,5.929,0,0,1,3.3259.97289,4.5287,4.5287,0,0,1,1.81,2.546,7.2555,7.2555,0,0,1,.29413,2.19331,4.88076,4.88076,0,0,1-1.09666,3.32724,3.26839,3.26839,0,0,1-1.086.80253,3.62318,3.62318,0,0,1,1.75279,1.56114,5.91938,5.91938,0,0,1,.71336,2.03627,8.44365,8.44365,0,0,1,.11312,1.43737,6.92931,6.92931,0,0,1-.736,3.32457,4.77248,4.77248,0,0,1-3.982,2.43288Zm3.34853-12.207h1.30029a1.91059,1.91059,0,0,0,1.94576-1.41341,4.05549,4.05549,0,0,0,.181-1.30162,2.73359,2.73359,0,0,0-.62153-1.94576,1.97466,1.97466,0,0,0-1.50524-.60955H13.03835Zm0,9.12994h1.30029a2.21182,2.21182,0,0,0,2.19464-1.629,3.5118,3.5118,0,0,0,.21561-1.27766,3.8788,3.8788,0,0,0-.66811-2.52337,2.11012,2.11012,0,0,0-1.74214-.724H13.03835Z"/><path class="cls-1" d="M29.93706,307.80444a4.71323,4.71323,0,0,1,3.813,1.43737,5.1891,5.1891,0,0,1,1.074,3.48428v2.99718a4.8033,4.8033,0,0,1-1.65962,3.69989l2.30511,9.01548H32.1144l-1.89785-7.79372c-.0905.00665-.185.01064-.28215.01064H28.14967v7.78308h-3.1103v-20.6342Zm1.85527,4.97755a1.57762,1.57762,0,0,0-1.77009-1.79937H28.14967v6.59592h1.87257a1.691,1.691,0,0,0,1.25769-.52571,1.74442,1.74442,0,0,0,.5124-1.26169Z"/><path class="cls-1" d="M41.30906,328.43864v-20.6342h8.85843v3.11164h-5.7468v5.6563H48.617v3.1103H44.42069V325.327h5.7468v3.11163Z"/><path class="cls-1" d="M60.46862,323.698l-.75728,4.74065h-3.2354l3.49493-20.6342H64.259l3.44968,20.6342h-3.258L63.716,323.698Zm1.629-11.16488-1.15389,8.1331h2.30777Z"/><path class="cls-1" d="M74.89951,310.91608H71.59623v-3.11164h9.70622v3.11164h-3.2913v17.52256H74.89951Z"/><path class="cls-1" d="M89.08453,319.70531v8.73333H85.97289v-20.6342h3.11164v8.76794h3.73183v-8.76794H95.928v20.6342H92.81636v-8.73333Z"/><path class="cls-1" d="M101.90454,328.43864v-20.6342h8.8571v3.11164h-5.7468v5.6563h4.19631v3.1103h-4.19631V325.327h5.7468v3.11163Z"/><path class="cls-1" d="M125.48883,328.43864h-3.1103v-20.6342h3.1103Z"/><path class="cls-1" d="M133.93768,307.80444l4.11779,13.85728V307.80444h3.11164v20.6342h-3.33256l-4.28149-13.21313v13.21313h-3.11031v-20.6342Z"/><path class="cls-1" d="M146.47422,325.339h3.1103v3.1103h-3.1103Z"/></svg>