<svg id="Layer_1" data-name="Layer 1" xmlns="http://www.w3.org/2000/svg" width="160" height="600" viewBox="0 0 160 600"><defs><style>.cls-1{fill:#ab9555;}</style></defs><title>frame2</title><path class="cls-1" d="M107.40638,328.28048a5.09287,5.09287,0,0,1-5.115-5.10526V306.50583h3.1705v16.63472a1.77586,1.77586,0,0,0,.54783,1.30787,1.80354,1.80354,0,0,0,1.3148.54228,1.84206,1.84206,0,0,0,1.85154-1.85015V306.50583h3.3827v16.66939a4.87643,4.87643,0,0,1-1.509,3.631A5.02679,5.02679,0,0,1,107.40638,328.28048Z"/><path class="cls-1" d="M130.57747,324.7785h3.24123v3.24123h-3.24123Z"/><path class="cls-1" d="M35.13548,328.27512H26.1813V306.49854h3.28249v18.518h5.67169Z"/><path class="cls-1" d="M46.962,306.23589a5.208,5.208,0,0,1,5.218,5.218v11.87852a5.208,5.208,0,0,1-5.218,5.218,4.96715,4.96715,0,0,1-3.67017-1.52818,5.05939,5.05939,0,0,1-1.51132-3.68983V311.45389a5.20807,5.20807,0,0,1,5.18149-5.218Zm1.79083,5.1562a1.85382,1.85382,0,0,0-1.8737-1.8737,1.83567,1.83567,0,0,0-1.33154.54357,1.79084,1.79084,0,0,0-.55481,1.33013v11.91785a1.79843,1.79843,0,0,0,.55481,1.32451,1.82844,1.82844,0,0,0,1.33154.54779,1.86079,1.86079,0,0,0,1.8737-1.8723Z"/><path class="cls-1" d="M64.59229,306.23589a5.208,5.208,0,0,1,5.2166,5.218v11.87852a5.19911,5.19911,0,1,1-10.39809,0V311.45389a5.20807,5.20807,0,0,1,5.18149-5.218Zm1.79084,5.1562a1.85617,1.85617,0,0,0-1.87511-1.8737,1.83794,1.83794,0,0,0-1.33154.54357,1.79084,1.79084,0,0,0-.55481,1.33013v11.91785a1.79843,1.79843,0,0,0,.55481,1.32451,1.83069,1.83069,0,0,0,1.33154.54779,1.86317,1.86317,0,0,0,1.87511-1.8723Z"/><path class="cls-1" d="M80.37132,321.39831v6.87681h-3.2839V306.49854h3.2839v7.7603l3.9876-7.7603h3.51l-4.489,8.90643,5.25312,12.87015h-3.857l-3.43841-8.82356Z"/><path class="cls-1" d="M107.15241,328.55042a5.15772,5.15772,0,0,1-5.18009-5.17025V306.49854h3.21087v16.84651a1.79845,1.79845,0,0,0,.55481,1.32452,1.8265,1.8265,0,0,0,1.33154.54919,1.86552,1.86552,0,0,0,1.87511-1.87371V306.49854h3.42577v16.88163a4.93849,4.93849,0,0,1-1.52819,3.67718A5.09077,5.09077,0,0,1,107.15241,328.55042Z"/><path class="cls-1" d="M124.85571,306.49854a4.98285,4.98285,0,0,1,3.82045,1.517,5.22671,5.22671,0,0,1,1.32592,3.67718v3.16311a5.05667,5.05667,0,0,1-1.5029,3.67719,4.90968,4.90968,0,0,1-3.635,1.52818h-1.89478v8.214h-3.2825V306.49854Zm1.958,5.25312a1.89414,1.89414,0,0,0-.50565-1.37929,1.81833,1.81833,0,0,0-1.36244-.51969h-1.97624v6.96108h1.97624a1.78379,1.78379,0,0,0,1.32592-.5548,1.8423,1.8423,0,0,0,.54217-1.33154Z"/></svg>