<?xml version="1.0" encoding="utf-8"?>
<!-- Generator: Adobe Illustrator 23.0.1, SVG Export Plug-In . SVG Version: 6.00 Build 0)  -->
<svg version="1.1" id="Layer_1" xmlns="http://www.w3.org/2000/svg" xmlns:xlink="http://www.w3.org/1999/xlink" x="0px" y="0px"
	 viewBox="0 0 970 250" enable-background="new 0 0 970 250" xml:space="preserve">
<g>
	<path fill="#BA9544" d="M357.64,111.15h8.5c5.38,0,8.02,2.98,8.02,8.46v17.3c0,5.47-2.64,8.46-8.02,8.46h-8.5V111.15z
		 M363.02,116.04v24.44h3.03c1.71,0,2.74-0.88,2.74-3.32v-17.79c0-2.44-1.03-3.32-2.74-3.32H363.02z"/>
	<path fill="#BA9544" d="M387.9,111.15v26.39c0,2.44,1.08,3.32,2.79,3.32s2.79-0.88,2.79-3.32v-26.39h5.08v26.05
		c0,5.47-2.74,8.6-8.02,8.6s-8.02-3.13-8.02-8.6v-26.05H387.9z"/>
	<path fill="#BA9544" d="M418.64,145.36c-0.29-0.88-0.49-1.42-0.49-4.2v-5.38c0-3.18-1.08-4.35-3.52-4.35h-1.86v13.93h-5.38v-34.21
		h8.11c5.57,0,7.97,2.59,7.97,7.87v2.69c0,3.52-1.12,5.82-3.52,6.94c2.69,1.12,3.57,3.71,3.57,7.28v5.28c0,1.66,0.05,2.88,0.59,4.15
		H418.64z M412.77,116.04v10.51h2.1c2,0,3.23-0.88,3.23-3.62v-3.37c0-2.44-0.83-3.52-2.74-3.52H412.77z"/>
	<path fill="#BA9544" d="M440.29,126.3h7.53v10.85c0,5.47-2.74,8.6-8.02,8.6s-8.02-3.13-8.02-8.6v-17.79c0-5.47,2.74-8.6,8.02-8.6
		s8.02,3.13,8.02,8.6v3.32h-5.08v-3.67c0-2.44-1.08-3.37-2.79-3.37c-1.71,0-2.79,0.93-2.79,3.37v18.47c0,2.44,1.08,3.32,2.79,3.32
		c1.71,0,2.79-0.88,2.79-3.32v-6.3h-2.44V126.3z"/>
	<path fill="#BA9544" d="M473.86,145.36h-5.42l-0.93-6.21h-6.6l-0.93,6.21h-4.94l5.47-34.21h7.87L473.86,145.36z M461.59,134.51
		h5.18l-2.59-17.3L461.59,134.51z"/>
	<path fill="#BA9544" d="M505.68,135.44l3.67-24.29h7.48v34.21h-5.08v-24.53l-3.71,24.53h-5.08l-4.01-24.19v24.19h-4.69v-34.21h7.48
		L505.68,135.44z"/>
	<path fill="#BA9544" d="M543.31,145.36h-5.43l-0.93-6.21h-6.6l-0.93,6.21h-4.94l5.47-34.21h7.87L543.31,145.36z M531.04,134.51
		h5.18l-2.59-17.3L531.04,134.51z"/>
	<path fill="#BA9544" d="M549.42,111.15h16.62v4.89h-5.62v29.32h-5.38v-29.32h-5.62V111.15z"/>
	<path fill="#BA9544" d="M590.96,145.36h-5.43l-0.93-6.21h-6.6l-0.93,6.21h-4.94l5.47-34.21h7.87L590.96,145.36z M578.69,134.51
		h5.18l-2.59-17.3L578.69,134.51z"/>
	<path fill="#BA9544" d="M619.25,115.65c-1.71,0-2.79,0.93-2.79,3.37v3.67h-5.08v-3.32c0-5.47,2.74-8.6,8.02-8.6s8.01,3.13,8.01,8.6
		c0,10.75-10.7,14.76-10.7,20.38c0,0.24,0,0.49,0.05,0.73h10.17v4.89h-15.54v-4.2c0-10.07,10.65-11.73,10.65-21.6
		C622.04,116.48,620.96,115.65,619.25,115.65z"/>
</g>
<g>
</g>
<g>
</g>
<g>
</g>
<g>
</g>
<g>
</g>
<g>
</g>
<g>
</g>
<g>
</g>
<g>
</g>
<g>
</g>
<g>
</g>
<g>
</g>
<g>
</g>
<g>
</g>
<g>
</g>
</svg>
