<svg id="Layer_1" data-name="Layer 1" xmlns="http://www.w3.org/2000/svg" width="320" height="480" viewBox="0 0 320 480"><defs><style>.cls-1{fill:#fff;}</style></defs><title>gratitude</title><path class="cls-1" d="M70.58452,291.13469H67.20073V268.69152h4.848l3.15,16.09395,3.027-16.09395H82.8892v22.44317H79.50541V277.0341L76.581,291.13469H73.86518L70.58452,277.071Z"/><path class="cls-1" d="M92.215,268.42082a5.36741,5.36741,0,0,1,5.37715,5.37715v12.24258a5.36741,5.36741,0,0,1-5.37715,5.37773,5.11868,5.11868,0,0,1-3.78339-1.575,5.21117,5.21117,0,0,1-1.55684-3.80273V273.798a5.36751,5.36751,0,0,1,5.34023-5.37715Zm1.84571,5.31387a1.91086,1.91086,0,0,0-1.93184-1.93008,1.89346,1.89346,0,0,0-1.37226.55957,1.84408,1.84408,0,0,0-.57188,1.37051v12.28359a1.85118,1.85118,0,0,0,.57188,1.36407,1.88318,1.88318,0,0,0,1.37226.566,1.92155,1.92155,0,0,0,1.93184-1.93008Z"/><path class="cls-1" d="M106.91791,268.69152a5.12752,5.12752,0,0,1,4.14727,1.5627,5.646,5.646,0,0,1,1.16836,3.78984v3.26075a5.21654,5.21654,0,0,1-1.80586,4.02363l2.50781,9.80625h-3.64922l-2.06484-8.47734c-.09844.0082-.20039.01171-.307.01171h-1.94063v8.46563h-3.3832V268.69152Zm2.018,5.41407a1.71584,1.71584,0,0,0-1.92539-1.95645h-2.03672v7.17363h2.03672a1.84038,1.84038,0,0,0,1.36758-.57187,1.89891,1.89891,0,0,0,.55781-1.37227Z"/><path class="cls-1" d="M116.84721,291.13469V268.69152h9.634v3.38379h-6.25078v6.15235h4.56446v3.3832h-4.56446v6.14063h6.25078v3.3832Z"/><path class="cls-1" d="M138.514,291.41828a5.35538,5.35538,0,0,1-5.36485-5.35312v-12.2918a5.35842,5.35842,0,1,1,10.7168,0v2.55938h-3.50742v-2.6209a1.95352,1.95352,0,0,0-1.95586-1.95645,1.84615,1.84615,0,0,0-1.36524.57246,1.89091,1.89091,0,0,0-.56718,1.384v12.317a1.93454,1.93454,0,0,0,1.93242,1.94414,1.89441,1.89441,0,0,0,1.384-.566,1.86292,1.86292,0,0,0,.57188-1.37812v-4.418h-1.882v-3.3832H143.866v7.8375a5.34735,5.34735,0,0,1-5.35195,5.35312Z"/><path class="cls-1" d="M153.1308,268.69152a5.12493,5.12493,0,0,1,4.1461,1.5627,5.64635,5.64635,0,0,1,1.16953,3.78984v3.26075a5.22049,5.22049,0,0,1-1.80586,4.02363l2.50664,9.80625H155.498l-2.06367-8.47734c-.09844.0082-.20039.01171-.307.01171h-1.94063v8.46563h-3.3832V268.69152Zm2.018,5.41407a1.71583,1.71583,0,0,0-1.92539-1.95645h-2.03672v7.17363h2.03672a1.84038,1.84038,0,0,0,1.36758-.57187,1.89891,1.89891,0,0,0,.55781-1.37227Z"/><path class="cls-1" d="M167.21791,285.97961l-.825,5.15508h-3.518l3.80157-22.44317h4.66406l3.75234,22.44317h-3.54375l-.79922-5.15508Zm1.77188-12.14473-1.25508,8.84707h2.51016Z"/><path class="cls-1" d="M179.38666,272.07531h-3.593v-3.38379h10.55625v3.38379h-3.58007v19.05938h-3.38321Z"/><path class="cls-1" d="M193.46205,291.13469h-3.3832V268.69152h3.3832Z"/><path class="cls-1" d="M200.78393,272.07531h-3.593v-3.38379h10.55625v3.38379h-3.58008v19.05938h-3.3832Z"/><path class="cls-1" d="M216.80346,291.41828a5.31548,5.31548,0,0,1-5.33906-5.32851V268.69152h3.30937v17.36192a1.85186,1.85186,0,0,0,.57188,1.36523,1.88315,1.88315,0,0,0,1.37226.566,1.92258,1.92258,0,0,0,1.93243-1.93125V268.69152h3.53085v17.39825a5.08874,5.08874,0,0,1-1.575,3.78984A5.24593,5.24593,0,0,1,216.80346,291.41828Z"/><path class="cls-1" d="M236.82377,285.76985a5.18757,5.18757,0,0,1-1.56328,3.78984,5.09848,5.09848,0,0,1-3.75234,1.575h-5.31563V268.69152h5.31563a5.0834,5.0834,0,0,1,3.76406,1.575,5.19461,5.19461,0,0,1,1.55156,3.77754Zm-7.248,2.018h2.03671a1.79555,1.79555,0,0,0,1.36055-.58476,1.93169,1.93169,0,0,0,.55313-1.3711V274.09328a1.88351,1.88351,0,0,0-.56485-1.37168,1.82685,1.82685,0,0,0-1.34883-.57246h-2.03671Z"/><path class="cls-1" d="M240.79643,291.13469V268.69152h9.634v3.38379h-6.25078v6.15235h4.56444v3.3832h-4.56444v6.14063h6.25078v3.3832Z"/><path class="cls-1" d="M253.7644,287.7632h3.3832v3.38438h-3.3832Z"/></svg>