<svg id="Layer_1" data-name="Layer 1" xmlns="http://www.w3.org/2000/svg" width="728" height="90" viewBox="0 0 728 90"><defs><style>.cls-1{fill:#ab9555;}</style></defs><title>frame2</title><path class="cls-1" d="M324.94824,60.29881h-8.0791V40.64256h2.96533v16.707h5.11377Z"/><path class="cls-1" d="M333.44531,40.39158a4.69872,4.69872,0,0,1,4.70606,4.70605V55.8281a4.69851,4.69851,0,1,1-9.397,0V45.09763a4.69956,4.69956,0,0,1,4.69092-4.70605Zm1.61573,4.64355a1.68717,1.68717,0,0,0-1.69434-1.69433,1.65711,1.65711,0,0,0-1.208.49414,1.61947,1.61947,0,0,0-.50195,1.20019V55.79685a1.61732,1.61732,0,0,0,.50195,1.19922,1.658,1.658,0,0,0,1.208.49512,1.68882,1.68882,0,0,0,1.69434-1.69434Z"/><path class="cls-1" d="M347.166,40.39158a4.69872,4.69872,0,0,1,4.70605,4.70605V55.8281a4.69851,4.69851,0,1,1-9.397,0V45.09763a4.69956,4.69956,0,0,1,4.69092-4.70605Zm1.61572,4.64355a1.68715,1.68715,0,0,0-1.69434-1.69433,1.65712,1.65712,0,0,0-1.208.49414,1.61947,1.61947,0,0,0-.502,1.20019V55.79685a1.61732,1.61732,0,0,0,.502,1.19922,1.658,1.658,0,0,0,1.208.49512,1.6888,1.6888,0,0,0,1.69434-1.69434Z"/><path class="cls-1" d="M359.208,54.06248v6.23633h-2.96533V40.62693H359.208v7.01172l3.62353-7.01172h3.16065l-4.05811,8.02344,4.75928,11.64844H363.208l-3.1128-7.98731Z"/><path class="cls-1" d="M382.7998,60.51853a4.66137,4.66137,0,0,1-4.69042-4.6748V40.64256h2.90234V55.81248a1.621,1.621,0,0,0,.50195,1.20019,1.66017,1.66017,0,0,0,1.208.49414,1.68715,1.68715,0,0,0,1.69434-1.69433V40.64256h3.08984V55.84373a4.46726,4.46726,0,0,1-1.37988,3.32519A4.58492,4.58492,0,0,1,382.7998,60.51853Z"/><path class="cls-1" d="M396.584,40.64256a4.51821,4.51821,0,0,1,3.45118,1.36425,4.73822,4.73822,0,0,1,1.19238,3.32618v2.85449a4.57331,4.57331,0,0,1-1.35742,3.32617,4.43519,4.43519,0,0,1-3.28614,1.38086h-1.71v7.4043H391.9082V40.64256Zm1.77247,4.7373a1.69014,1.69014,0,0,0-.4629-1.23926,1.65141,1.65141,0,0,0-1.23144-.4707H394.874v6.291h1.78809a1.621,1.621,0,0,0,1.20019-.502,1.66173,1.66173,0,0,0,.49415-1.208Z"/><path class="cls-1" d="M405.0332,57.34959h2.96485v2.96484H405.0332Z"/></svg>