<svg id="Layer_1" data-name="Layer 1" xmlns="http://www.w3.org/2000/svg" xmlns:xlink="http://www.w3.org/1999/xlink" width="32.5576" height="50.72474" viewBox="0 0 32.5576 50.72474"><defs><style>.cls-1{fill:url(#New_Gradient_Swatch_1);}.cls-2{fill:#fff;}.cls-3{fill:#ba9544;}</style><linearGradient id="New_Gradient_Swatch_1" y1="16.65331" x2="32.5576" y2="16.65331" gradientUnits="userSpaceOnUse"><stop offset="0" stop-color="#a88a34"/><stop offset="0.49324" stop-color="#caaf67"/><stop offset="1" stop-color="#957f2e"/></linearGradient></defs><title>berry</title><polygon class="cls-1" points="13.524 0 0 15.618 10.675 33.307 30.796 28.621 32.558 8.036 13.524 0"/><path class="cls-2" d="M21.01186,18.409a.29714.29714,0,1,1-.06345-.41629.29983.29983,0,0,1,.06345.41629m-1.7766-3.76831a.37451.37451,0,1,1,.373-.37451.37581.37581,0,0,1-.373.37451m-.373,4.51423a.37451.37451,0,1,1,.37452-.37451.3765.3765,0,0,1-.37452.37451M18.805,16.40029a.29946.29946,0,1,1-.30022.29868.29985.29985,0,0,1,.30022-.29868m-.79544,4.86243a.32718.32718,0,1,1-.12226-.44724.32454.32454,0,0,1,.12226.44724m-1.53673-4.89958a.32963.32963,0,1,1,.32963-.32962.32793.32793,0,0,1-.32963.32962m-.096,2.51324a.29945.29945,0,1,1,.29868-.29868.30119.30119,0,0,1-.29868.29868m-.97032,1.34174a.29868.29868,0,1,1,.29868-.29868.30119.30119,0,0,1-.29868.29868m-.33892-2.36931a.37273.37273,0,1,1-.04333-.52617.3742.3742,0,0,1,.04333.52617M14.136,14.763a.32886.32886,0,1,1,.32808.32963A.33026.33026,0,0,1,14.136,14.763m4.79435-1.98862a7.81912,7.81912,0,0,0,1.676-1.28911,4.47615,4.47615,0,0,0-2.1248.21666,3.07838,3.07838,0,0,0,.32809-1.63578,1.67169,1.67169,0,0,0-1.22567.975,3.0481,3.0481,0,0,0-.42558-1.43924,1.84733,1.84733,0,0,0-.68093,1.66208A1.73965,1.73965,0,0,0,15.193,10.18219a3.08574,3.08574,0,0,0,.29558,1.56923,4.34826,4.34826,0,0,0-2.24087-.26618,7.5978,7.5978,0,0,0,1.76732,1.33709c-1.772.38225-3.00846,1.37114-3.00846,3.43713,0,2.80573,3.54391,7.44532,5.08374,7.44532,1.66672,0,5.08374-4.63959,5.08374-7.44532.01083-2.1573-1.34174-3.14774-3.24369-3.48511"/><path class="cls-3" d="M6.08332,47.49329a1.738,1.738,0,0,1-.9961,3.23145l-3.44336-.00391V44.60462H4.89191q1.54688.08935,1.63184,1.79883A1.27775,1.27775,0,0,1,6.08332,47.49329Zm-3.21094-.43652H4.58527a.69107.69107,0,0,0,.75976-.76269q-.02051-.44972-.74707-.47364H2.87238Zm0,2.71h1.999a.79984.79984,0,0,0,.88184-.88574q-.0205-.5874-.86914-.6123H2.87238Z"/><path class="cls-3" d="M8.14,50.72083V44.60462l4.49707-.0039v1.14257H9.36457V47.049h2.45214v1.13769H9.36457v1.39161h3.26367v1.14257Z"/><path class="cls-3" d="M17.554,48.05287l1.52637,2.668h-1.4043l-1.46484-2.52929H15.09308v2.52929H13.86945V44.60072h2.66894q2.14161,0,2.14161,1.76269A1.58289,1.58289,0,0,1,17.554,48.05287ZM15.09308,47.049H16.807c.49316-.00879.74609-.23242.75976-.67383q-.0205-.60351-.74707-.62793H15.09308Z"/><path class="cls-3" d="M23.40167,48.05287l1.52637,2.668H23.52375L22.0589,48.19154H20.94074v2.52929H19.7171V44.60072h2.669q2.14159,0,2.1416,1.76269A1.58289,1.58289,0,0,1,23.40167,48.05287ZM20.94074,47.049H22.6546c.49317-.00879.7461-.23242.75977-.67383q-.02051-.60351-.74707-.62793H20.94074Z"/><path class="cls-3" d="M25.20539,44.60072h1.43652l1.41992,1.999,1.45313-1.999h1.40332l-2.24414,3.05957v3.06054H27.44953V47.66029Z"/></svg>