<svg xmlns="http://www.w3.org/2000/svg" width="727.99955" height="90" viewBox="0 0 727.99955 90"><defs><style>.cls-1{fill:#ba9544;}</style></defs><title>Frame1 - Daytime CBD</title><g id="Content"><path class="cls-1" d="M214.50173,34.90723h5.56787c3.51953,0,5.24756,1.95215,5.24756,5.53613V51.77051c0,3.583-1.728,5.53515-5.24756,5.53515h-5.56787Zm3.52,3.20019V54.10547h1.98388c1.11963,0,1.79151-.5752,1.79151-2.17578V40.2832c0-1.60058-.67188-2.17578-1.79151-2.17578Z"/><path class="cls-1" d="M241.70046,57.30566H238.1487l-.60791-4.06347h-4.31934l-.60791,4.06347h-3.23193l3.5835-22.39843H238.117Zm-8.03125-7.10351h3.3916L235.365,38.875Z"/><path class="cls-1" d="M246.82106,49.88184l-4.44775-14.97461H246.053l2.688,10.207,2.6875-10.207h3.35986L250.3406,49.88184v7.42382h-3.51954Z"/><path class="cls-1" d="M256.64528,34.90723h10.8794v3.20019H263.845V57.30566h-3.52V38.10742h-3.67969Z"/><path class="cls-1" d="M271.81276,34.90723h3.52V57.30566h-3.52Z"/><path class="cls-1" d="M288.74,50.81055l2.3999-15.90332h4.89551V57.30566h-3.32764V41.24316l-2.43164,16.0625H286.948L284.32448,41.4668V57.30566H281.2527V34.90723h4.89551Z"/><path class="cls-1" d="M305.50808,44.34668h4.83154V47.5459h-4.83154v6.55957h6.07959v3.20019h-9.59961V34.90723h9.59961v3.20019h-6.07959Z"/><path class="cls-1" d="M335.71511,48.9541v2.97559c0,3.584-1.792,5.63183-5.24756,5.63183-3.45606,0-5.24805-2.04785-5.24805-5.63183V40.2832c0-3.584,1.792-5.63183,5.24805-5.63183,3.45556,0,5.24756,2.04785,5.24756,5.63183V42.459H332.387V40.05859c0-1.59961-.70361-2.207-1.82373-2.207-1.11963,0-1.82373.60742-1.82373,2.207V52.1543c0,1.59961.7041,2.17578,1.82373,2.17578,1.12012,0,1.82373-.57617,1.82373-2.17578V48.9541Z"/><path class="cls-1" d="M351.77858,40.05859v.79981c0,2.30469-.7041,3.77637-2.272,4.51172,1.88818.73633,2.624,2.43261,2.624,4.7998v1.82422c0,3.45606-1.82373,5.31152-5.34375,5.31152h-5.53564V34.90723h5.31152C350.21071,34.90723,351.77858,36.60352,351.77858,40.05859Zm-7.00732-1.95117v5.919h1.376c1.31152,0,2.11181-.57617,2.11181-2.36719v-1.248c0-1.60058-.54394-2.30371-1.792-2.30371Zm0,9.11914v6.87891h2.01562c1.18409,0,1.82373-.54395,1.82373-2.207V49.94629c0-2.08008-.67187-2.71973-2.27148-2.71973Z"/><path class="cls-1" d="M357.635,34.90723h5.56738c3.519,0,5.24658,1.95215,5.24658,5.53613V51.77051c0,3.583-1.72754,5.53515-5.24658,5.53515H357.635Zm3.51953,3.20019V54.10547h1.9834c1.12012,0,1.792-.5752,1.792-2.17578V40.2832c0-1.60058-.67187-2.17578-1.792-2.17578Z"/></g></svg>