<svg id="Content" xmlns="http://www.w3.org/2000/svg" xmlns:xlink="http://www.w3.org/1999/xlink" width="320" height="568" viewBox="0 0 320 568"><defs><style>.cls-1{fill:url(#New_Gradient_Swatch_1);}.cls-2{fill:#fff;}.cls-3{fill:#ba9544;}</style><linearGradient id="New_Gradient_Swatch_1" x1="63.54786" y1="230.00133" x2="109.85733" y2="230.00133" gradientUnits="userSpaceOnUse"><stop offset="0" stop-color="#a88a34"/><stop offset="0.49324" stop-color="#caaf67"/><stop offset="1" stop-color="#957f2e"/></linearGradient></defs><title>lemon</title><polygon class="cls-1" points="70.672 247.483 63.548 224.859 79.581 207.378 102.736 212.52 109.857 235.146 93.826 252.625 70.672 247.483"/><path class="cls-2" d="M96.34251,227.41981c-1.26741-3.088-4.9219-5.204-9.63881-5.16435-4.64859.03967-8.345,2.13583-9.60575,5.16435-1.13074.50255-2.44661,1.57377-2.44661,2.58108,0,.99848,1.30486,2.08734,2.47306,2.57887,1.24756,2.98884,4.91748,5.16876,9.5793,5.16876,4.675,0,8.33394-2.20857,9.63881-5.16876,1.22109-.5268,2.41134-1.59362,2.41134-2.57667,0-1.00951-1.18805-2.05649-2.41134-2.58328"/><path class="cls-3" d="M66.37207,267.27051v7.09082h4.64941v1.62695H64.62891v-8.71777Z"/><path class="cls-3" d="M72.43359,275.98828v-8.71191l6.40528-.00586v1.627H74.17773v1.86035H77.6709v1.6211H74.17773v1.98242h4.64942v1.62695Z"/><path class="cls-3" d="M80.59375,275.98828v-8.71777h.58105l3.77735,4.30078,3.7832-4.30078h.582v8.71777H87.57324l-.00586-5.05664-2.61523,2.90625-2.61524-2.90625v5.05664Z"/><path class="cls-3" d="M91.8623,274.73633a4.48976,4.48976,0,1,1,3.10938,1.25195A4.22485,4.22485,0,0,1,91.8623,274.73633Zm3.11524-.375a2.44834,2.44834,0,0,0,1.88281-.78516,2.97141,2.97141,0,0,0,0-3.89355,2.66412,2.66412,0,0,0-3.77734,0,2.97141,2.97141,0,0,0,0,3.89355A2.46068,2.46068,0,0,0,94.97754,274.36133Z"/><path class="cls-3" d="M100.626,275.98828v-8.71777h.58105l5.46387,5.46289v-5.46289h1.74316v8.71777h-.63965l-5.40429-5.40527v5.40527Z"/></svg>