<svg id="Content" xmlns="http://www.w3.org/2000/svg" xmlns:xlink="http://www.w3.org/1999/xlink" viewBox="0 0 728 360"><defs><style>.cls-1{fill:url(#New_Gradient_Swatch_1);}.cls-2{fill:#fff;}.cls-3{fill:#ba9544;}.cls-4{fill:none;stroke:#ba9544;stroke-miterlimit:10;stroke-width:0.5px;}</style><linearGradient id="New_Gradient_Swatch_1" x1="175.82" y1="198.35" x2="235.12" y2="198.35" gradientUnits="userSpaceOnUse"><stop offset="0" stop-color="#a88a34"/><stop offset="0.49" stop-color="#caaf67"/><stop offset="1" stop-color="#957f2e"/></linearGradient></defs><title>diesel</title><polygon class="cls-1" points="227.12 178.39 202.4 168.9 179.57 182.31 175.82 208.52 193.97 227.8 220.36 225.62 235.12 203.63 227.12 178.39"/><path class="cls-2" d="M197.55,191.28a2.15,2.15,0,0,1,.48-.2,4,4,0,0,1,.53-.13h0l5.2-1.15a1.74,1.74,0,0,1,1.11.17l.88.86L204,192.73,198.15,194l-.6-2.72m18,14.51-2.85-13a2,2,0,0,0-2.17-1.5l1.53-1.61.42.4.64-.68a.4.4,0,0,0,0-.58l-3.08-2.91a.41.41,0,0,0-.58,0l-.64.68.51.48-2,2.14-1-1-.07,0a3.85,3.85,0,0,0-2.91-.55l-5.15,1.13a9.26,9.26,0,0,0-.91.24,3,3,0,0,0-1.66,1.11,1.78,1.78,0,0,0-.27,1.4c.16.72.71,3.25,1,4.78,0,0,0,.06,0,.1l2.86,13a1.94,1.94,0,0,0,2.31,1.48l12.54-2.76a1.94,1.94,0,0,0,1.49-2.31"/><path class="cls-3" d="M178.52,259V248.1h4.2c3.39,0,5.08,1.81,5.08,5.45s-1.69,5.45-5.08,5.45Zm4.2-2.17q2.9,0,2.9-3.28t-2.9-3.27h-2v6.55Z"/><path class="cls-3" d="M190.14,248.1h2.17V259h-2.17Z"/><path class="cls-3" d="M194.47,259V248.11h8v2h-5.83v2.32H201v2h-4.37V257h5.81v2Z"/><path class="cls-3" d="M210.57,248.47a4.86,4.86,0,0,1,1.56,1.09L210.68,251a2.51,2.51,0,0,0-2-.87c-.87,0-1.42.2-1.67.62a.85.85,0,0,0,0,1.05,2.87,2.87,0,0,0,1.67.65,5.44,5.44,0,0,1,2.51.91,2.73,2.73,0,0,1,1.13,2.43,2.8,2.8,0,0,1-1.2,2.26,4.43,4.43,0,0,1-2.81.94,6.45,6.45,0,0,1-2.53-.44A5.31,5.31,0,0,1,204,257.4l1.45-1.45a3.47,3.47,0,0,0,2.47,1c1,0,1.57-.21,1.81-.62a1.16,1.16,0,0,0,0-1.24c-.24-.41-.84-.66-1.81-.76a5.88,5.88,0,0,1-2.4-.8,2.39,2.39,0,0,1-1.09-2.25,2.7,2.7,0,0,1,1.24-2.32,4.33,4.33,0,0,1,2.55-.88A5.92,5.92,0,0,1,210.57,248.47Z"/><path class="cls-3" d="M214.19,259V248.11h8v2h-5.83v2.32h4.37v2h-4.37V257h5.81v2Z"/><path class="cls-3" d="M226.59,248.1V257h5.82v2h-8V248.1Z"/><rect class="cls-4" x="707.03" y="12.68" width="8.48" height="8.48"/><line class="cls-4" x1="708.29" y1="19.94" x2="714.29" y2="14.08"/><line class="cls-4" x1="708.41" y1="14.08" x2="714.27" y2="20.08"/></svg>