<svg id="Content" xmlns="http://www.w3.org/2000/svg" viewBox="0 0 728 90"><defs><style>.cls-1{fill:#ba9544;}</style></defs><title>Frame1 - Ultra Sour</title><path class="cls-1" d="M271,32.53V53.05c0,1.9.83,2.58,2.16,2.58s2.17-.68,2.17-2.58V32.53h4V52.78c0,4.26-2.13,6.69-6.23,6.69s-6.23-2.43-6.23-6.69V32.53Z"/><path class="cls-1" d="M286.11,32.53h4.18v22.8h6.87v3.8H286.11Z"/><path class="cls-1" d="M301.8,32.53h12.92v3.8h-4.37v22.8h-4.18V36.33H301.8Z"/><path class="cls-1" d="M329.31,59.13a8.16,8.16,0,0,1-.38-3.27V51.68c0-2.47-.83-3.38-2.73-3.38h-1.45V59.13h-4.18V32.53h6.31c4.33,0,6.19,2,6.19,6.12v2.09c0,2.73-.87,4.52-2.73,5.39,2.09.88,2.77,2.89,2.77,5.66V55.9a7.81,7.81,0,0,0,.46,3.23Zm-4.56-22.8V44.5h1.64c1.55,0,2.5-.68,2.5-2.81V39.07c0-1.9-.64-2.74-2.12-2.74Z"/><path class="cls-1" d="M353.4,59.13h-4.21l-.73-4.83h-5.13l-.72,4.83h-3.84L343,32.53h6.12Zm-9.53-8.44h4l-2-13.45Z"/><path class="cls-1" d="M374.91,32.23c4.07,0,6.16,2.43,6.16,6.68v.84h-3.95v-1.1c0-1.9-.76-2.62-2.09-2.62s-2.09.72-2.09,2.62c0,5.47,8.16,6.5,8.16,14.09,0,4.26-2.12,6.69-6.23,6.69s-6.23-2.43-6.23-6.69V51.11h3.95V53c0,1.9.84,2.58,2.17,2.58s2.17-.68,2.17-2.58c0-5.47-8.17-6.5-8.17-14.1C368.76,34.66,370.85,32.23,374.91,32.23Z"/><path class="cls-1" d="M387.19,38.91c0-4.25,2.24-6.68,6.34-6.68s6.35,2.43,6.35,6.68V52.74c0,4.26-2.24,6.69-6.35,6.69s-6.34-2.43-6.34-6.69ZM391.37,53c0,1.9.83,2.62,2.16,2.62s2.17-.72,2.17-2.62V38.65c0-1.9-.84-2.62-2.17-2.62s-2.16.72-2.16,2.62Z"/><path class="cls-1" d="M410.59,32.53V53.05c0,1.9.84,2.58,2.17,2.58s2.16-.68,2.16-2.58V32.53h4V52.78c0,4.26-2.13,6.69-6.23,6.69s-6.23-2.43-6.23-6.69V32.53Z"/><path class="cls-1" d="M434.5,59.13a8.16,8.16,0,0,1-.38-3.27V51.68c0-2.47-.84-3.38-2.74-3.38h-1.44V59.13h-4.18V32.53h6.3c4.34,0,6.2,2,6.2,6.12v2.09c0,2.73-.88,4.52-2.74,5.39,2.09.88,2.77,2.89,2.77,5.66V55.9a7.81,7.81,0,0,0,.46,3.23Zm-4.56-22.8V44.5h1.63c1.56,0,2.51-.68,2.51-2.81V39.07c0-1.9-.65-2.74-2.13-2.74Z"/></svg>