<svg id="Content" xmlns="http://www.w3.org/2000/svg" xmlns:xlink="http://www.w3.org/1999/xlink" width="728" height="360" viewBox="0 0 728 360"><defs><style>.cls-1{fill:none;}.cls-2{fill:url(#New_Gradient_Swatch_1);}.cls-3{fill:#fff;}.cls-4{fill:#ba9544;}.cls-5{clip-path:url(#clip-path);}</style><linearGradient id="New_Gradient_Swatch_1" x1="102.43082" y1="178.08296" x2="160.31766" y2="178.08296" gradientUnits="userSpaceOnUse"><stop offset="0" stop-color="#a88a34"/><stop offset="0.49324" stop-color="#caaf67"/><stop offset="1" stop-color="#957f2e"/></linearGradient><clipPath id="clip-path"><rect class="cls-1" x="461.86539" y="-134.33868" width="208.12648" height="92"/></clipPath></defs><title>lemon</title><polygon class="cls-2" points="111.336 199.934 102.431 171.655 122.472 149.804 151.416 156.231 160.318 184.514 140.279 206.362 111.336 199.934"/><path class="cls-3" d="M143.42414,174.85606c-1.58426-3.86-6.15238-6.505-12.04852-6.45544-5.81073.04959-10.4312,2.66979-12.00718,6.45544-1.41342.62819-3.05827,1.96722-3.05827,3.22635,0,1.2481,1.63108,2.60917,3.09133,3.22359,1.55945,3.736,6.14685,6.46095,11.97412,6.46095,5.84378,0,10.41743-2.76072,12.04852-6.46095,1.52636-.6585,3.01417-1.992,3.01417-3.22084,0-1.26188-1.48506-2.57061-3.01417-3.2291"/><path class="cls-4" d="M105.96205,224.67011v8.86328h5.81152v2.03418h-7.99121V224.67011Z"/><path class="cls-4" d="M113.53919,235.56757V224.67792l8.00586-.00781v2.03418h-5.82617v2.32519h4.36621v2.02637h-4.36621v2.47754h5.81152v2.03418Z"/><path class="cls-4" d="M123.73939,235.56757V224.67011h.72656l4.72168,5.376,4.72949-5.376h.72657v10.89746H132.464l-.00684-6.32032-3.26953,3.63282-3.26855-3.63282v6.32032Z"/><path class="cls-4" d="M137.82533,234.00214a5.61281,5.61281,0,1,1,3.88672,1.56543A5.2798,5.2798,0,0,1,137.82533,234.00214Zm3.89355-.46875a3.06407,3.06407,0,0,0,2.35449-.98047,3.71761,3.71761,0,0,0,0-4.86719,3.33135,3.33135,0,0,0-4.72265,0,3.71458,3.71458,0,0,0,0,4.86719A3.08065,3.08065,0,0,0,141.71888,233.53339Z"/><path class="cls-4" d="M148.7804,235.56757V224.67011h.72657l6.8291,6.8291v-6.8291h2.17871v10.89746H157.716l-6.75586-6.75586v6.75586Z"/><g class="cls-5"><image id="SmallTopDown-8351-UltraSour.psd" width="1500" height="1261" transform="translate(443.42939 -154.61789) scale(0.12656)" xlink:href="../../../../../Dropbox%20(Revolution%20Strategy)/Rocio%20Ugarte/Clients/Namaste/Digital%20Ads/_Flight%202:Phase%202%20Terpene/1.%20Animated%20w:%20Packaging/8.%20Expandable%20Unit%20728%20x%2090:728%20x%20360/728%20x%2090_728%20x%20360_Folder/Links/SmallTopDown-8351-UltraSour.png"/></g></svg>