<svg id="Content" xmlns="http://www.w3.org/2000/svg" width="300" height="250" viewBox="0 0 300 250"><defs><style>.cls-1{fill:#fff;stroke:#ba9544;stroke-miterlimit:10;stroke-width:0.5px;}.cls-2{fill:#ba9544;}</style></defs><title>THC - Sensi Star</title><polygon class="cls-1" points="279.428 142.216 167.844 141.793 162.211 149.916 167.844 157.895 279.428 157.705 284.498 149.961 279.428 142.216"/><polygon class="cls-2" points="167.925 141.793 162.293 149.916 167.925 157.895 185.026 157.895 185.084 141.793 167.925 141.793"/><path class="cls-2" d="M231.71,147.34665v1.01954H229.8887v4.44335h-1.09277v-4.44335h-1.82129v-1.01954Z"/><path class="cls-2" d="M232.52249,152.80954v-5.46289h1.09278v2.18457h2.54589v-2.18847h1.0918v5.46289l-1.0918.0039v-2.25781h-2.54589v2.25781Z"/><path class="cls-2" d="M238.94827,152.02439a2.732,2.732,0,0,1,1.94336-4.67774,2.95282,2.95282,0,0,1,2.00684.72852l-.72852.79687a2.01551,2.01551,0,0,0-1.27832-.43652,1.55652,1.55652,0,0,0-1.63476,1.624,1.63132,1.63132,0,0,0,.45508,1.209,1.61079,1.61079,0,0,0,1.1875.44824,1.95513,1.95513,0,0,0,1.2705-.43359l.72852.79785a2.94708,2.94708,0,0,1-2.00684.72851A2.65579,2.65579,0,0,1,238.94827,152.02439Z"/><path class="cls-2" d="M244.1221,149.32615a.52807.52807,0,0,1,.39356-.14746.54784.54784,0,0,1,.4082.14746.49987.49987,0,0,1,.14551.36621.49318.49318,0,0,1-.14551.36328.62179.62179,0,0,1-.80176,0,.49318.49318,0,0,1-.14551-.36328A.49987.49987,0,0,1,244.1221,149.32615Zm0,2.60742a.52811.52811,0,0,1,.39356-.14746.54788.54788,0,0,1,.4082.14746.503.503,0,0,1,.14551.36621.497.497,0,0,1-.14551.36426.625.625,0,0,1-.80176,0,.497.497,0,0,1-.14551-.36426A.503.503,0,0,1,244.1221,151.93357Z"/><path class="cls-2" d="M249.93851,147.34665v-.0039h1.08887v5.46679h-1.08887v-4.00585l-.72852.72753-.72851-.72753Z"/><path class="cls-2" d="M252.11624,150.15427a3.30186,3.30186,0,0,1,.56543-2.05176,1.84345,1.84345,0,0,1,1.51074-.75293,2.297,2.297,0,0,1,1.53028.543l-.54688.72852a1.92477,1.92477,0,0,0-.93554-.21875.96786.96786,0,0,0-.75391.30957,1.46288,1.46288,0,0,0-.31348.92871,1.69838,1.69838,0,0,1,1.09278-.47363,1.82359,1.82359,0,0,1,1.40234.49218,1.87838,1.87838,0,0,1,.45508,1.32911,1.79063,1.79063,0,0,1-.50977,1.293,1.93069,1.93069,0,0,1-1.457.52832,1.82972,1.82972,0,0,1-1.5664-.73925A3.39141,3.39141,0,0,1,252.11624,150.15427Zm1.20215.83789q.03663.76171.874.79395.8379-.03224.874-.72461a.82454.82454,0,0,0-.91016-.91113A.81189.81189,0,0,0,253.31839,150.99216Z"/><path class="cls-2" d="M257.10648,151.34861V150.624h2.25879v.72461Z"/><path class="cls-2" d="M262.27542,147.34665a2.05658,2.05658,0,0,1,1.3125.40235,1.43171,1.43171,0,0,1,.51172,1.20019,2.50227,2.50227,0,0,1-.72656,1.7334,5.04533,5.04533,0,0,1-1.19922,1.03418h1.9668v1.09277H260.458v-1.09277q.36474,0,1.38379-.91015a5.22071,5.22071,0,0,0,1.18359-1.293.88946.88946,0,0,0-.01758-.76465q-.18311-.38379-.874-.38281a1.254,1.254,0,0,0-1.02051.4375l-.72851-.72852a3.0213,3.0213,0,0,1,.71093-.54688A2.73955,2.73955,0,0,1,262.27542,147.34665Z"/><path class="cls-2" d="M265.71,152.02439a3.74029,3.74029,0,0,1,0-3.89453,1.7478,1.7478,0,0,1,2.915,0,3.75521,3.75521,0,0,1,0,3.89648,1.74661,1.74661,0,0,1-2.915-.00195Zm1.46-.23438c.24024,0,.45215-.16406.63379-.49218a2.8593,2.8593,0,0,0,0-2.44043q-.27246-.49073-.64062-.49121-.36181,0-.63379.49121a2.8593,2.8593,0,0,0,0,2.44043Q266.80179,151.79,267.16995,151.79Z"/><path class="cls-2" d="M270.46976,149.65134a1.40717,1.40717,0,1,1,.97558.39356A1.32149,1.32149,0,0,1,270.46976,149.65134Zm.96484-.25488a.64926.64926,0,0,0,.499-.207.73007.73007,0,0,0,.19335-.51758.72132.72132,0,0,0-.19335-.51465.65606.65606,0,0,0-.50293-.206.64776.64776,0,0,0-.49512.206.72055.72055,0,0,0-.19238.51465.72929.72929,0,0,0,.19238.51758A.64923.64923,0,0,0,271.4346,149.39646Zm-.291,3.41308,3.0957-5.46289h.88867l-3.08887,5.46289Zm2.71289-.36035a1.39908,1.39908,0,1,1,.96875.38965A1.3156,1.3156,0,0,1,273.85648,152.44919Zm.95117-.26562a.63647.63647,0,0,0,.4873-.20215.76225.76225,0,0,0,0-1.00586.64208.64208,0,0,0-.49121-.20215.6345.6345,0,0,0-.48437.20215.76225.76225,0,0,0,0,1.00586A.6386.6386,0,0,0,274.80765,152.18357Z"/></svg>