<svg id="Content" xmlns="http://www.w3.org/2000/svg" width="320" height="50" viewBox="0 0 320 50"><defs><style>.cls-1{fill:#ba9544;}</style></defs><title>Frame1 - MK Ultra</title><path class="cls-1" d="M139.58105,30.08563l1.10645-7.3335h2.25781V33.08074h-1.53467V25.67352l-1.12158,7.40722h-1.53467L137.54492,25.777v7.30371h-1.4165V22.75213h2.25732Z"/><path class="cls-1" d="M147.81445,28.96405l-.50146.94433v3.17236h-1.62305V22.75213H147.313v4.50049l2.12451-4.50049h1.62305l-2.25733,4.60352,2.25733,5.72509h-1.667Z"/><path class="cls-1" d="M158.76318,22.75213V30.7199c0,.7378.32471,1.00342.84082,1.00342.51661,0,.84131-.26562.84131-1.00342V22.75213h1.53418v7.86426c0,1.65283-.82617,2.59717-2.41943,2.59717-1.59375,0-2.41992-.94434-2.41992-2.59717V22.75213Z"/><path class="cls-1" d="M164.65088,22.75213h1.62305v8.853h2.67041v1.47558h-4.29346Z"/><path class="cls-1" d="M170.74463,22.75213h5.0166v1.47559h-1.69678v8.853h-1.623v-8.853h-1.69678Z"/><path class="cls-1" d="M181.42725,33.08074a3.17993,3.17993,0,0,1-.14746-1.269v-1.623c0-.959-.32471-1.313-1.0625-1.313h-.56055v4.20507h-1.62305V22.75213h2.44922c1.68213,0,2.40527.78174,2.40527,2.37549v.81152a2.05879,2.05879,0,0,1-1.0625,2.09522c.81153.33935,1.07715,1.12158,1.07715,2.19873v1.59326a3.03745,3.03745,0,0,0,.17725,1.25439Zm-1.77051-8.853v3.17236h.63428c.605,0,.97412-.26562.97412-1.0918V25.29022c0-.7378-.251-1.0625-.82666-1.0625Z"/><path class="cls-1" d="M190.78271,33.08074h-1.63818l-.28027-1.874h-1.9917l-.28076,1.874h-1.49024l1.65283-10.32861h2.37549Zm-3.70361-3.27587h1.564l-.78223-5.22315Z"/></svg>