<svg id="Content" xmlns="http://www.w3.org/2000/svg" xmlns:xlink="http://www.w3.org/1999/xlink" width="320" height="50" viewBox="0 0 320 50"><defs><style>.cls-1{fill:url(#New_Gradient_Swatch_1);}.cls-2{fill:#fff;}.cls-3{fill:#ba9544;}</style><linearGradient id="New_Gradient_Swatch_1" x1="122.25108" y1="20.09559" x2="142.38016" y2="20.09559" gradientUnits="userSpaceOnUse"><stop offset="0" stop-color="#a88a34"/><stop offset="0.49324" stop-color="#caaf67"/><stop offset="1" stop-color="#957f2e"/></linearGradient></defs><title>sweet</title><polygon class="cls-1" points="130.613 30.392 122.251 20.736 128.851 9.8 141.291 12.697 142.38 25.423 130.613 30.392"/><path class="cls-2" d="M137.30657,16.60845a.49981.49981,0,0,1-.49945-.49944.80811.80811,0,0,0-.8085-.80849h-.26407a.54492.54492,0,0,0-.54538.54441v1.8868a2.65743,2.65743,0,0,0-3.49613.23059l-.50615.50615a2.65741,2.65741,0,0,0-.23058,3.49613h-1.8868a.54431.54431,0,0,0-.54442.54537V22.774a.8081.8081,0,0,0,.80849.8085.49981.49981,0,0,1,.49945.49944.8081.8081,0,0,0,.8085.8085h.26407a.54492.54492,0,0,0,.54537-.54442v-1.8868a2.65744,2.65744,0,0,0,3.49614-.23059l.50613-.50614a2.6574,2.6574,0,0,0,.23059-3.49613h1.8868a.54493.54493,0,0,0,.54442-.54538V17.417a.8081.8081,0,0,0-.80848-.8085"/><path class="cls-3" d="M124.084,36.542a1.78684,1.78684,0,0,1,.54248.37891l-.50488.50488a.86686.86686,0,0,0-.706-.30273q-.45411,0-.58057.21386a.29611.29611,0,0,0,0,.36622.99781.99781,0,0,0,.58057.22656,1.88277,1.88277,0,0,1,.87011.31543.94748.94748,0,0,1,.39112.8457.96775.96775,0,0,1-.41748.78125,1.52859,1.52859,0,0,1-.97266.32813,2.22851,2.22851,0,0,1-.88037-.15137,1.905,1.905,0,0,1-.60547-.40332l.5044-.50488a1.20084,1.20084,0,0,0,.85791.35351q.50463,0,.62939-.21484a.39816.39816,0,0,0,0-.42871c-.083-.14258-.293-.23145-.62939-.26465a2.04341,2.04341,0,0,1-.83252-.27735.8371.8371,0,0,1-.37842-.78222.94058.94058,0,0,1,.43017-.80567,1.51268,1.51268,0,0,1,.88428-.30468A2.11354,2.11354,0,0,1,124.084,36.542Z"/><path class="cls-3" d="M127.65381,37.42578,126.897,40.2002h-.75683L125.12842,36.416h.80713l.65869,2.57324.68115-2.57324h.78174l.65625,2.57324.65576-2.57324h.80713l-1.00879,3.78418h-.75684Z"/><path class="cls-3" d="M130.72656,40.2002V36.419l2.78028-.00293v.707H131.4834v.80664h1.51611v.7041H131.4834v.86035h2.01806v.70606Z"/><path class="cls-3" d="M134.2583,40.2002V36.419l2.78027-.00293v.707h-2.02343v.80664h1.51611v.7041h-1.51611v.86035h2.01806v.70606Z"/><path class="cls-3" d="M140.88818,36.416v.707h-1.26172V40.2002h-.75683V37.12305H137.6084v-.707Z"/></svg>