<svg id="Layer_1" data-name="Layer 1" xmlns="http://www.w3.org/2000/svg" xmlns:xlink="http://www.w3.org/1999/xlink" width="375" height="132" viewBox="0 0 375 132"><defs><style>.cls-1{fill:url(#linear-gradient);}.cls-2{fill:url(#linear-gradient-2);}.cls-3{fill:url(#linear-gradient-3);}.cls-4{fill:#fff;}</style><linearGradient id="linear-gradient" x1="194.79951" y1="101.09081" x2="194.79951" y2="115.57657" gradientUnits="userSpaceOnUse"><stop offset="0" stop-color="#ceb467"/><stop offset="1" stop-color="#997f2f"/></linearGradient><linearGradient id="linear-gradient-2" x1="163.34113" y1="101.06929" x2="163.34113" y2="115.59809" xlink:href="#linear-gradient"/><linearGradient id="linear-gradient-3" x1="159.77459" y1="107.93793" x2="191.68497" y2="108.22158" gradientUnits="userSpaceOnUse"><stop offset="0" stop-color="#ad8f35"/><stop offset="0.1878" stop-color="#ceb467"/><stop offset="0.46098" stop-color="#a58f4b"/><stop offset="0.76341" stop-color="#ceb467"/><stop offset="1" stop-color="#997f2f"/></linearGradient></defs><title>link</title><path class="cls-1" d="M216.4493,115.57657H169.211l4.10277-7.24275-4.10277-7.243H216.4493l3.93876,7.243Zm-46.31624-.53741h45.99662l3.64644-6.70534-3.64644-6.7056H170.13306l3.79837,6.7056Z"/><path class="cls-2" d="M167.62,115.59809l-8.62958-.043-3.917-7.26243,3.98888-7.22333,8.62958.043,3.917,7.26244Zm-8.30787-.57888,7.9914.03989,3.69289-6.68749-3.62623-6.72345-7.99141-.03988-3.69288,6.68749Z"/><path class="cls-3" d="M166.17285,110.141l.08651-.02837a.97284.97284,0,0,0-.18324.05659l-.906.37761.54829-.40853-.00418.00071-.01248-.09424-.09963-.16437a3.28258,3.28258,0,0,0,.74656-.77067l-.73252.35065.74635-.62161a1.23348,1.23348,0,0,0,.237-.25691c.09622-.14551.18557-.29457.26712-.4454l-.23138.22848.27733-.60332a7.96869,7.96869,0,0,0,.4103-1.13445,9.6683,9.6683,0,0,0-1.09949.70841l-.543.4115.17316-.26982c-.14047.11942-.27627.2455-.4059.37676a1.19352,1.19352,0,0,0-.1999.2801l-.39654.75953.1409-.6933a3.2809,3.2809,0,0,0-.31421.37583l-.06907.09645-.06339-.04354-.00979.01652-.54474,1.033.32123-1.12275a3.56351,3.56351,0,0,0,.10658-1.409l-.37512.69721.18167-.83868a1.36621,1.36621,0,0,0,.02837-.41852,6.76624,6.76624,0,0,0-.14409-.84662l-.0495.41172-.16282-.6002a10.2063,10.2063,0,0,0-.55616-1.50525,10.20555,10.20555,0,0,0-.55609,1.50525l-.16288.6002-.04943-.41172a6.748,6.748,0,0,0-.14409.84662,1.36457,1.36457,0,0,0,.02836.41859l.18146.83889-.37491-.69735a3.56308,3.56308,0,0,0,.10651,1.40888l.32131,1.12282-.54475-1.033-.00986-.01652-.06332.04354-.06914-.09645a3.2778,3.2778,0,0,0-.31414-.37583l.1409.6933-.39661-.75953a1.19266,1.19266,0,0,0-.19983-.2801c-.12934-.13105-.26507-.25692-.40533-.37626l.17359.2701-.544-.41228a9.66213,9.66213,0,0,0-1.09949-.70841,7.96025,7.96025,0,0,0,.41037,1.13445l.27734.60332-.23139-.22848c.08148.15083.1709.29989.26713.4454a1.23084,1.23084,0,0,0,.23692.25691l.74642.62161-.73253-.35065a3.28124,3.28124,0,0,0,.74657.77067l-.09964.16437-.01248.09424-.00425-.00071.54836.40853-.90611-.37761a.9703.9703,0,0,0-.18317-.05659l.08645.02837-.77663-.00178a6.6703,6.6703,0,0,0-.74018.04482,6.09465,6.09465,0,0,0,.63282.34783l.6833.32059L160.23,110.843a1.02025,1.02025,0,0,0,.17324.02213l1.03546.046-.7065.13459a2.54273,2.54273,0,0,0,.51028.05609l.7494.0049-.43824.14224.67331.117-1.03687.06226q-.02478.00149-.0485.00447l-.47568.23266c-.122.05964-.23593.12445-.34109.18933.13048.01008.271.01632.41335.01369l.54205-.00964c.01475-.00525.02957-.01114.04439-.01752l.89689-.39044-.45249.34889a1.5717,1.5717,0,0,0,.17757-.07595s.07062.04071.0841.052a.33506.33506,0,0,0,.038-.0083,1.60124,1.60124,0,0,0,.393-.22947,1.65369,1.65369,0,0,1,.44065-.25145,1.0974,1.0974,0,0,1,.1543-.02879.4216.4216,0,0,1-.20316-.12672c-.09814-.09807-.13558-.23046-.04106-.25841s.26592.1324.27706.1324a.20439.20439,0,0,0,.05722-.132c0-.05659-.04049-.16671-.048-.23323a1.1137,1.1137,0,0,0-.04036-.193c-.01475-.04389-.11714-.063-.17217-.09687a.90159.90159,0,0,1-.13878-.09608.43879.43879,0,0,1-.059-.20132.79374.79374,0,0,0-.03312-.205c-.01914-.03588-.06836-.06119-.10169-.09452a.14333.14333,0,0,1-.03425-.08808c.02553-.008.03354.0578.063.0634s.02745.02993.07375.04588.0478.03787.05375.08091.05787.18863.075.248.035.1041.09367.10608.05063.03234.11963.02674a.38526.38526,0,0,1,.16544.03191c.03709.01312.08375.01432.0997-.01156s-.01113-.13041-.01113-.13041c-.024,0-.028-.03226-.03716-.06219s.00568-.03226.00568-.03226a.12634.12634,0,1,1,.24074,0s.01475.00234.0056.03226-.01312.06219-.03708.06219c0,0-.02709.10445-.01121.13041.016.02588.06262.02468.09977.01156a.38482.38482,0,0,1,.16544-.03191c.06893.0056.061-.02475.11956-.02674s.07658-.04666.09374-.10608.06893-.20494.075-.248.00758-.065.05382-.08091.04425-.04028.07375-.04588.03751-.07141.063-.0634a.14306.14306,0,0,1-.03432.08808c-.03326.03333-.08254.05864-.10162.09452a.78777.78777,0,0,0-.03311.205.43876.43876,0,0,1-.059.20132.908.908,0,0,1-.13877.09608c-.055.0339-.15749.053-.17224.09687a1.10686,1.10686,0,0,0-.04028.193c-.00759.06652-.048.17664-.048.23323a.204.204,0,0,0,.05723.132c.01113,0,.1826-.16033.277-.1324s.05708.16034-.04106.25841a.42111.42111,0,0,1-.20316.12672,1.09431,1.09431,0,0,1,.15423.02879,1.65369,1.65369,0,0,1,.44065.25145,1.60355,1.60355,0,0,0,.39292.22947.34649.34649,0,0,0,.03808.0083c.01348-.01127.08418-.052.08418-.052a1.57076,1.57076,0,0,0,.17756.07595l-.45249-.34889.89682.39044c.01482.00638.02964.01227.04439.01752l.54213.00964c.14231.00263.28279-.00361.41334-.01369-.10516-.06488-.21912-.12969-.34115-.18933l-.47568-.23266c-.01575-.002-.032-.00348-.04844-.00447l-1.0368-.06226.67373-.11708-.43681-.14217.74748-.0049a2.54329,2.54329,0,0,0,.51028-.05609l-.70649-.13459,1.03538-.046a1.02,1.02,0,0,0,.17331-.02213l-.07864.00951.68331-.32059a6.096,6.096,0,0,0,.63289-.34783,6.67151,6.67151,0,0,0-.74018-.04482Z"/><path class="cls-4" d="M177.03291,110.21485V106.7911h.22825l2.14555,2.14555V106.7911h.68475v3.42375h-.25107l-2.12273-2.12272v2.12272Z"/><path class="cls-4" d="M180.71459,110.21485l1.3695-3.42375h.68475l1.36722,3.42147-.72812.00228-.20542-.525h-1.55211l-.20542.525Zm1.73014-2.51075-.52042,1.301h1.02713Z"/><path class="cls-4" d="M184.74092,110.21485V106.7911h.22825l1.48363,1.689,1.48591-1.689h.22825v3.42375h-.68475l-.00228-1.98577-1.02713,1.14125-1.02713-1.14125v1.98577Z"/><path class="cls-4" d="M188.76231,110.21485l1.3695-3.42375h.68476l1.36722,3.42147-.72812.00228-.20543-.525h-1.5521l-.20543.525Zm1.73014-2.51075-.52041,1.301h1.02713Z"/><path class="cls-4" d="M194.642,106.90522a1.59444,1.59444,0,0,1,.49074.34238l-.4565.4565a.786.786,0,0,0-.6391-.2739q-.41085,0-.525.194a.2671.2671,0,0,0,0,.331.90218.90218,0,0,0,.525.20542,1.69944,1.69944,0,0,1,.78746.28531.85711.85711,0,0,1,.35379.76464.87793.87793,0,0,1-.37775.70758,1.38342,1.38342,0,0,1-.87991.29672,2.02768,2.02768,0,0,1-.79659-.13695,1.72677,1.72677,0,0,1-.5478-.3652l.4565-.4565a1.085,1.085,0,0,0,.776.31955q.45649,0,.56948-.194a.36142.36142,0,0,0,0-.388q-.113-.194-.56948-.23966a1.841,1.841,0,0,1-.75323-.25107.75754.75754,0,0,1-.34237-.70758.85209.85209,0,0,1,.38916-.72926,1.37077,1.37077,0,0,1,.8-.275A1.91031,1.91031,0,0,1,194.642,106.90522Z"/><path class="cls-4" d="M198.67751,106.7911v.6391h-1.14126v2.78465h-.68475V107.4302h-1.14125v-.6391Z"/><path class="cls-4" d="M199.271,110.21485v-3.42147l2.51532-.00228v.6391h-1.83057v.7304h1.37178v.63682h-1.37178v.77833h1.826v.6391Z"/><path class="cls-4" d="M202.58705,109.66591a.3308.3308,0,0,1,.24651-.09244.3431.3431,0,0,1,.25564.09244.31349.31349,0,0,1,.0913.22939.30966.30966,0,0,1-.0913.22825.39088.39088,0,0,1-.50215,0,.3097.3097,0,0,1-.0913-.22825A.31353.31353,0,0,1,202.58705,109.66591Z"/><path class="cls-4" d="M204.31148,109.723a1.71251,1.71251,0,0,1,1.21772-2.93187,1.85232,1.85232,0,0,1,1.25766.4565l-.4565.49987a1.26239,1.26239,0,0,0-.80116-.2739.976.976,0,0,0-1.02484,1.018,1.02667,1.02667,0,0,0,.28531.75779,1.01059,1.01059,0,0,0,.7441.28075,1.22691,1.22691,0,0,0,.79659-.27162l.4565.49987a1.84683,1.84683,0,0,1-1.25766.4565A1.66577,1.66577,0,0,1,204.31148,109.723Z"/><path class="cls-4" d="M207.935,109.723a1.76323,1.76323,0,1,1,1.22114.49188A1.65861,1.65861,0,0,1,207.935,109.723Zm1.22342-.14722a.96172.96172,0,0,0,.73953-.30814,1.16727,1.16727,0,0,0,0-1.52927,1.047,1.047,0,0,0-1.48363,0,1.16727,1.16727,0,0,0,0,1.52927A.9671.9671,0,0,0,209.15838,109.57575Z"/><path class="cls-4" d="M211.47056,110.21485V106.7911h.22825l1.48362,1.689,1.48591-1.689h.22825v3.42375h-.68475l-.00228-1.98577-1.02713,1.14125-1.02712-1.14125v1.98577Z"/></svg>