<svg id="Content" xmlns="http://www.w3.org/2000/svg" width="728" height="90" viewBox="0 0 728 90"><defs><style>.cls-1{fill:#ba9544;}</style></defs><title>Frame1 - Shishkaberry</title><path class="cls-1" d="M303.80959,35.47021c3.42382,0,5.18359,2.04786,5.18359,5.63184v.7041H305.666v-.92871c0-1.59961-.63965-2.207-1.76074-2.207-1.11914,0-1.75977.60742-1.75977,2.207,0,4.6084,6.87989,5.47217,6.87989,11.87158,0,3.584-1.792,5.63184-5.24707,5.63184-3.45606,0-5.24805-2.04785-5.24805-5.63184v-1.376h3.32812v1.60058c0,1.59961.70313,2.17578,1.82422,2.17578,1.11914,0,1.82325-.57617,1.82325-2.17578,0-4.6084-6.87989-5.47168-6.87989-11.87158C298.626,37.51807,300.38576,35.47021,303.80959,35.47021Z"/><path class="cls-1" d="M317.95412,58.125h-3.51953V35.72607h3.51953v9.59961h4V35.72607h3.584V58.125h-3.584V48.52539h-4Z"/><path class="cls-1" d="M331.48927,35.72607h3.52051V58.125h-3.52051Z"/><path class="cls-1" d="M345.69631,35.47021c3.42382,0,5.18359,2.04786,5.18359,5.63184v.7041h-3.32715v-.92871c0-1.59961-.63965-2.207-1.76074-2.207-1.11914,0-1.75977.60742-1.75977,2.207,0,4.6084,6.87989,5.47217,6.87989,11.87158,0,3.584-1.792,5.63184-5.24707,5.63184-3.45606,0-5.248-2.04785-5.248-5.63184v-1.376h3.32812v1.60058c0,1.59961.70313,2.17578,1.82422,2.17578,1.11914,0,1.82324-.57617,1.82324-2.17578,0-4.6084-6.87988-5.47168-6.87988-11.87158C340.51271,37.51807,342.27248,35.47021,345.69631,35.47021Z"/><path class="cls-1" d="M359.84084,58.125h-3.51953V35.72607h3.51953v9.59961h4V35.72607h3.584V58.125h-3.584V48.52539h-4Z"/><path class="cls-1" d="M377.98439,49.19727l-1.08789,2.04785V58.125H373.376V35.72607h3.52051v9.75977l4.60742-9.75977h3.52051l-4.89648,9.9834L385.02443,58.125h-3.61621Z"/><path class="cls-1" d="M401.40724,58.125h-3.55176l-.60839-4.06348h-4.31836l-.60938,4.06348h-3.23047l3.583-22.39893h5.15137ZM393.376,51.02148h3.3916l-1.69628-11.32763Z"/><path class="cls-1" d="M416.96,40.87744v.79981c0,2.30468-.70508,3.77636-2.27246,4.5122,1.88769.73633,2.624,2.43262,2.624,4.79981v1.82422c0,3.45605-1.82422,5.31152-5.34375,5.31152h-5.53516V35.72607h5.31055C415.39162,35.72607,416.96,37.42236,416.96,40.87744Zm-7.00782-1.95117v5.91894h1.376c1.31152,0,2.11231-.57617,2.11231-2.36718V41.23c0-1.60059-.54493-2.30371-1.793-2.30371Zm0,9.11963v6.8789h2.01563c1.18359,0,1.82422-.54394,1.82422-2.207V50.76562c0-2.08007-.67188-2.71972-2.27149-2.71972Z"/><path class="cls-1" d="M426.336,45.16553H431.167v3.1997H426.336V54.9248h6.07911V58.125h-9.59961V35.72607h9.59961v3.2002H426.336Z"/><path class="cls-1" d="M445.34279,58.125a6.89761,6.89761,0,0,1-.32031-2.752V51.85352c0-2.08008-.70313-2.84766-2.30274-2.84766H441.503V58.125h-3.51954V35.72607h5.31153c3.64746,0,5.21582,1.69629,5.21582,5.15137v1.75977c0,2.30468-.73633,3.80908-2.30371,4.54443,1.75976.73633,2.33593,2.43164,2.33593,4.76758v3.45605a6.6032,6.6032,0,0,0,.38379,2.71973ZM441.503,38.92627v6.87891h1.377c1.31055,0,2.11133-.57618,2.11133-2.36719V41.23c0-1.60059-.54395-2.30371-1.792-2.30371Z"/><path class="cls-1" d="M461.59865,58.125a6.89761,6.89761,0,0,1-.32031-2.752V51.85352c0-2.08008-.70313-2.84766-2.30274-2.84766h-1.21679V58.125h-3.51954V35.72607h5.3125c3.64649,0,5.21485,1.69629,5.21485,5.15137v1.75977c0,2.30468-.73633,3.80908-2.30469,4.54443,1.76172.73633,2.33594,2.43164,2.33594,4.76758v3.45605a6.60268,6.60268,0,0,0,.38476,2.71973Zm-3.83984-19.19873v6.87891h1.377c1.31055,0,2.11133-.57618,2.11133-2.36719V41.23c0-1.60059-.54493-2.30371-1.793-2.30371Z"/><path class="cls-1" d="M473.79006,50.70117l-4.44727-14.9751h3.67969l2.6875,10.207,2.68945-10.207h3.35938l-4.44727,14.9751V58.125h-3.52148Z"/></svg>