<svg id="Layer_1" data-name="Layer 1" xmlns="http://www.w3.org/2000/svg" width="300" height="250" viewBox="0 0 300 250"><defs><style>.cls-1{fill:#fff;}</style></defs><title>self-care</title><path class="cls-1" d="M85.60081,175.73534H83.1749V159.645h3.47567l2.2583,11.5385L91.079,159.645H94.4223v16.09039H91.99639V165.62592l-2.09658,10.10942h-1.9466l-2.3524-10.083Z"/><path class="cls-1" d="M101.10751,159.45088a3.84765,3.84765,0,0,1,3.855,3.855v8.77737a3.84765,3.84765,0,0,1-3.855,3.855,3.67083,3.67083,0,0,1-2.71261-1.12915,3.73654,3.73654,0,0,1-1.11591-2.72584v-8.77737a3.84772,3.84772,0,0,1,3.82852-3.855Zm1.32322,3.80941a1.3706,1.3706,0,0,0-1.385-1.3835,1.35649,1.35649,0,0,0-.98359.40137,1.322,1.322,0,0,0-.4102.98213v8.80678a1.32393,1.32393,0,0,0,.4102.97772,1.34894,1.34894,0,0,0,.98359.40578,1.37793,1.37793,0,0,0,1.385-1.3835Z"/><path class="cls-1" d="M111.64772,159.645a3.67509,3.67509,0,0,1,2.97284,1.12033,4.04786,4.04786,0,0,1,.838,2.717V165.82a3.74115,3.74115,0,0,1-1.29382,2.88463l1.79664,7.03072h-2.61557l-1.48054-6.078c-.07057.00588-.14408.00882-.21906.00882h-1.39233v6.06918H107.828V159.645Zm1.44672,3.88145a1.22907,1.22907,0,0,0-1.37909-1.40261h-1.46143v5.14292h1.46143a1.31556,1.31556,0,0,0,.97918-.4102,1.3551,1.3551,0,0,0,.39991-.98359Z"/><path class="cls-1" d="M118.76666,175.73534V159.645h6.90722v2.42591h-4.48132v4.41074h3.27278v2.42591h-3.27278v4.40192h4.48132v2.42591Z"/><path class="cls-1" d="M140.91764,171.73921a4.50962,4.50962,0,0,1-.87333,2.8758,3.10305,3.10305,0,0,1-1.66726,1.138,4.45732,4.45732,0,0,1-1.34969.18525,3.81443,3.81443,0,0,1-2.36415-.70572,4.03949,4.03949,0,0,1-1.235-1.57463,6.22268,6.22268,0,0,1-.52929-2.28918l2.30241-.15878a3.49345,3.49345,0,0,0,.74982,2.02894,1.22881,1.22881,0,0,0,.99683.44989,1.51181,1.51181,0,0,0,1.27029-.77629,1.95,1.95,0,0,0,.247-1.0674,2.97161,2.97161,0,0,0-.90862-2.00247q-.72336-.67926-2.16126-2.03777a8.93114,8.93114,0,0,1-1.70255-2.09069,4.845,4.845,0,0,1-.53811-2.2583,3.93142,3.93142,0,0,1,1.47319-3.3257,3.66568,3.66568,0,0,1,2.2583-.67925,4.09231,4.09231,0,0,1,2.223.58221,3.34373,3.34373,0,0,1,1.15562,1.25707,4.74,4.74,0,0,1,.53811,1.85692l-2.32887.42343a2.71784,2.71784,0,0,0-.56458-1.53494,1.17629,1.17629,0,0,0-.96154-.40579,1.11784,1.11784,0,0,0-1.01447.591,2.2845,2.2845,0,0,0-.28229,1.18208,3.55369,3.55369,0,0,0,.95272,2.24948,8.49592,8.49592,0,0,0,1.07622,1.02329q.84687.70572,1.12033.988a8.54272,8.54272,0,0,1,1.385,1.77312,6.35141,6.35141,0,0,1,.3705.75865A4.50637,4.50637,0,0,1,140.91764,171.73921Z"/><path class="cls-1" d="M143.6523,175.73534V159.645h6.90722v2.42591h-4.48131v4.41074H149.351v2.42591h-3.27277v4.40192h4.48131v2.42591Z"/><path class="cls-1" d="M159.56479,175.73534h-6.61611V159.645h2.4259v13.68212h4.19021Z"/><path class="cls-1" d="M164.371,175.73534h-2.42591V159.645h6.90722v2.42591H164.371v4.41074h3.27277v2.42591H164.371Z"/><path class="cls-1" d="M171.465,168.02389h5.98391v2.03629H171.465Z"/><path class="cls-1" d="M184.337,175.93823a3.82514,3.82514,0,0,1-3.84616-3.83734v-8.81267a3.84177,3.84177,0,1,1,7.68351,0v1.83487h-2.51412v-1.879a1.40052,1.40052,0,0,0-1.40262-1.40262,1.32718,1.32718,0,0,0-.97919.4102,1.3593,1.3593,0,0,0-.40578.99242v8.8303a1.38548,1.38548,0,0,0,1.385,1.3938,1.35933,1.35933,0,0,0,.99242-.40579,1.33739,1.33739,0,0,0,.4102-.988v-2.21419h2.51412v2.24066a3.83254,3.83254,0,0,1-3.83735,3.83734Z"/><path class="cls-1" d="M193.39666,172.03914l-.591,3.6962h-2.523l2.72584-16.09039h3.34335l2.69055,16.09039h-2.54059l-.57339-3.6962Zm1.27029-8.70681-.89979,6.34265h1.79958Z"/><path class="cls-1" d="M205.63059,159.645a3.67508,3.67508,0,0,1,2.97284,1.12033,4.04786,4.04786,0,0,1,.838,2.717V165.82a3.73768,3.73768,0,0,1-1.29529,2.88463l1.79812,7.03072h-2.61557l-1.48054-6.078c-.07058.00588-.14409.00882-.21907.00882H204.2368v6.06918h-2.42591V159.645Zm1.44672,3.88145a1.23009,1.23009,0,0,0-1.38056-1.40261h-1.46v5.14292h1.46a1.31651,1.31651,0,0,0,.98066-.4102,1.361,1.361,0,0,0,.3999-.98359Z"/><path class="cls-1" d="M212.74806,175.73534V159.645h6.90722v2.42591H215.174v4.41074h3.27277v2.42591H215.174v4.40192h4.48131v2.42591Z"/></svg>