<?xml version="1.0" encoding="utf-8"?>
<!-- Generator: Adobe Illustrator 23.0.1, SVG Export Plug-In . SVG Version: 6.00 Build 0)  -->
<svg version="1.1" id="Content" xmlns="http://www.w3.org/2000/svg" xmlns:xlink="http://www.w3.org/1999/xlink" x="0px" y="0px"
	 viewBox="0 0 320 568" style="enable-background:new 0 0 320 568;" xml:space="preserve">
<style type="text/css">
	.st0{fill:#FFFFFF;stroke:#BA9544;stroke-width:0.425;stroke-miterlimit:10;}
	.st1{fill:#BA9544;}
</style>
<title>THC - MK Ultra</title>
<polygon class="st0" points="239.5,343.1 81.3,342.5 73.3,354.1 81.3,365.4 239.5,365.1 246.7,354.1 "/>
<polygon class="st1" points="81.4,342.5 73.5,354.1 81.4,365.4 105.7,365.4 105.8,342.5 "/>
<path class="st1" d="M171.9,350.3v1.4h-2.6v6.3h-1.5v-6.3h-2.6v-1.4H171.9z"/>
<path class="st1" d="M173,358v-7.7h1.5v3.1h3.6v-3.1h1.5v7.7l-1.5,0v-3.2h-3.6v3.2H173z"/>
<path class="st1" d="M182.1,356.9c-1.5-1.5-1.5-4,0-5.5c0.7-0.7,1.7-1.2,2.8-1.2c1,0,2.1,0.3,2.8,1l-1,1.1c-0.5-0.4-1.2-0.6-1.8-0.6
	c-1.2-0.1-2.3,0.9-2.3,2.1c0,0.1,0,0.1,0,0.2c0,0.6,0.2,1.3,0.6,1.7c0.5,0.4,1.1,0.7,1.7,0.6c0.7,0,1.3-0.2,1.8-0.6l1,1.1
	c-0.8,0.7-1.8,1.1-2.8,1C183.8,358,182.9,357.6,182.1,356.9z"/>
<path class="st1" d="M189.5,353.1c0.1-0.1,0.4-0.2,0.6-0.2c0.2,0,0.4,0.1,0.6,0.2c0.1,0.1,0.2,0.3,0.2,0.5c0,0.2-0.1,0.4-0.2,0.5
	c-0.3,0.3-0.8,0.3-1.1,0c-0.1-0.1-0.2-0.3-0.2-0.5C189.2,353.4,189.3,353.2,189.5,353.1z M189.5,356.8c0.1-0.1,0.4-0.2,0.6-0.2
	c0.2,0,0.4,0.1,0.6,0.2c0.3,0.3,0.3,0.7,0,1c-0.3,0.3-0.8,0.3-1.1,0C189.2,357.5,189.2,357.1,189.5,356.8z"/>
<path class="st1" d="M197.7,350.3L197.7,350.3l1.5,0v7.7h-1.5v-5.7l-1,1l-1-1L197.7,350.3z"/>
<path class="st1" d="M200.8,354.3c-0.1-1,0.2-2.1,0.8-2.9c0.5-0.7,1.3-1.1,2.1-1.1c0.8,0,1.6,0.3,2.2,0.8l-0.8,1
	c-0.4-0.2-0.9-0.3-1.3-0.3c-0.4,0-0.8,0.1-1.1,0.4c-0.3,0.4-0.5,0.8-0.4,1.3c0.4-0.4,1-0.6,1.5-0.7c0.7-0.1,1.5,0.2,2,0.7
	c0.5,0.5,0.7,1.2,0.6,1.9c0,0.7-0.2,1.3-0.7,1.8c-0.6,0.5-1.3,0.8-2.1,0.7c-0.9,0-1.7-0.3-2.2-1C201,356.2,200.7,355.2,200.8,354.3z
	 M202.5,355.4c0,0.7,0.4,1.1,1.2,1.1c0.8,0,1.2-0.4,1.2-1c0.1-0.6-0.4-1.2-1-1.3c-0.1,0-0.2,0-0.3,0
	C203,354.2,202.5,354.7,202.5,355.4C202.5,355.4,202.5,355.4,202.5,355.4L202.5,355.4z"/>
<path class="st1" d="M207.9,356v-1h3.2v1H207.9z"/>
<path class="st1" d="M215.2,350.3c0.7,0,1.3,0.2,1.9,0.6c0.5,0.4,0.8,1.1,0.7,1.7c0,0.9-0.4,1.8-1,2.5c-0.5,0.6-1.1,1.1-1.7,1.5h2.8
	v1.5h-5.2v-1.5c0.3,0,1-0.4,2-1.3c0.7-0.5,1.2-1.1,1.7-1.8c0.2-0.3,0.1-0.7,0-1.1c-0.2-0.4-0.6-0.5-1.2-0.5c-0.6,0-1.1,0.2-1.4,0.6
	l-1-1c0.3-0.3,0.6-0.6,1-0.8C214,350.3,214.6,350.2,215.2,350.3z"/>
<path class="st1" d="M220.1,356.9c-1-1.7-1-3.8,0-5.5c0.8-1.1,2.3-1.5,3.4-0.7c0.3,0.2,0.5,0.4,0.7,0.7c1,1.7,1,3.8,0,5.5
	c-0.8,1.1-2.3,1.5-3.4,0.7C220.5,357.4,220.2,357.2,220.1,356.9L220.1,356.9z M222.1,356.6c0.3,0,0.6-0.2,0.9-0.7
	c0.5-1.1,0.5-2.4,0-3.5c-0.3-0.5-0.6-0.7-0.9-0.7c-0.3,0-0.6,0.2-0.9,0.7c-0.5,1.1-0.5,2.4,0,3.5
	C221.5,356.3,221.8,356.6,222.1,356.6z"/>
<path class="st1" d="M226.8,353.5c-0.8-0.8-0.8-2-0.1-2.8s2-0.8,2.8-0.1c0.8,0.8,0.8,2,0.1,2.8c-0.4,0.4-0.9,0.6-1.4,0.6
	C227.7,354.1,227.2,353.9,226.8,353.5z M228.2,353.2c0.3,0,0.5-0.1,0.7-0.3c0.4-0.4,0.4-1,0-1.5c-0.2-0.2-0.4-0.3-0.7-0.3
	c-0.3,0-0.5,0.1-0.7,0.3c-0.4,0.4-0.4,1,0,1.5C227.6,353.1,227.9,353.2,228.2,353.2z M227.8,358l4.4-7.7h1.3L229,358H227.8z
	 M231.6,357.5c-0.8-0.8-0.8-2-0.1-2.8c0.8-0.8,2-0.8,2.8-0.1c0.8,0.8,0.8,2,0.1,2.8c-0.4,0.4-0.9,0.6-1.4,0.6
	C232.5,358.1,232,357.9,231.6,357.5L231.6,357.5z M233,357.1c0.3,0,0.5-0.1,0.7-0.3c0.4-0.4,0.4-1,0-1.4c-0.2-0.2-0.4-0.3-0.7-0.3
	c-0.3,0-0.5,0.1-0.7,0.3c-0.4,0.4-0.4,1,0,1.4C232.4,357,232.7,357.1,233,357.1L233,357.1z"/>
</svg>
