<svg id="Content" xmlns="http://www.w3.org/2000/svg" width="320" height="50" viewBox="0 0 320 50"><defs><style>.cls-1{fill:#ba9544;}</style></defs><title>Frame1 - Durga Mata</title><path class="cls-1" d="M122.61223,22.75213h2.56738c1.62305,0,2.41992.8999,2.41992,2.55274V30.528c0,1.65283-.79687,2.55273-2.41992,2.55273h-2.56738Zm1.623,1.47559v7.37744h.91455c.51661,0,.82666-.26563.82666-1.00342v-5.3706c0-.7378-.31-1.00342-.82666-1.00342Z"/><path class="cls-1" d="M131.746,22.75213V30.7199c0,.7378.3247,1.00342.84082,1.00342.5166,0,.8413-.26562.8413-1.00342V22.75213h1.53418v7.86426c0,1.65283-.82617,2.59717-2.41943,2.59717-1.59375,0-2.41992-.94434-2.41992-2.59717V22.75213Z"/><path class="cls-1" d="M141.02678,33.08074a3.17993,3.17993,0,0,1-.14746-1.269v-1.623c0-.959-.32471-1.313-1.0625-1.313h-.56055v4.20507h-1.62305V22.75213h2.44922c1.68213,0,2.40527.78174,2.40527,2.37549v.81152a2.05879,2.05879,0,0,1-1.0625,2.09522c.81153.33935,1.07715,1.12158,1.07715,2.19873v1.59326a3.03745,3.03745,0,0,0,.17725,1.25439Zm-1.77051-8.853v3.17236h.63428c.605,0,.97412-.26562.97412-1.0918V25.29022c0-.7378-.251-1.0625-.82666-1.0625Z"/><path class="cls-1" d="M147.56389,27.32635h2.27246v3.27539c0,1.65283-.82666,2.59717-2.41992,2.59717-1.59375,0-2.41993-.94434-2.41993-2.59717v-5.3706c0-1.65284.82618-2.59717,2.41993-2.59717,1.59326,0,2.41992.94433,2.41992,2.59717v1.00341h-1.53467V25.12762c0-.73779-.32471-1.01807-.84131-1.01807-.51611,0-.84082.28028-.84082,1.01807v5.57764c0,.73779.32471,1.00341.84082,1.00341.5166,0,.84131-.26562.84131-1.00341V28.80194h-.73779Z"/><path class="cls-1" d="M157.70109,33.08074h-1.63818l-.28027-1.874h-1.9917l-.28028,1.874h-1.49072l1.65283-10.32861h2.37549Zm-3.70361-3.27587h1.564l-.78222-5.22315Z"/><path class="cls-1" d="M167.30705,30.08563l1.10645-7.3335h2.25781V33.08074h-1.53467V25.67352l-1.12158,7.40722h-1.53467L165.27092,25.777v7.30371h-1.41651V22.75213h2.25733Z"/><path class="cls-1" d="M178.66838,33.08074h-1.63819l-.28027-1.874h-1.9917l-.28076,1.874h-1.49023l1.65283-10.32861h2.37549Zm-3.70361-3.27587h1.564l-.78223-5.22315Z"/><path class="cls-1" d="M180.51311,22.75213h5.0166v1.47559h-1.69678v8.853h-1.62305v-8.853h-1.69677Z"/><path class="cls-1" d="M193.0551,33.08074h-1.63819l-.28027-1.874h-1.9917l-.28076,1.874h-1.49024l1.65284-10.32861h2.37549Zm-3.70362-3.27587h1.564l-.78223-5.22315Z"/><path class="cls-1" d="M201.59855,24.10955c-.5166,0-.84082.28028-.84082,1.01807v1.10693h-1.53466V25.23114c0-1.65284.82617-2.59717,2.41992-2.59717,1.59326,0,2.41943.94433,2.41943,2.59717,0,3.24609-3.231,4.45605-3.231,6.15283a1.12326,1.12326,0,0,0,.01465.22119H203.915v1.47558h-4.69189v-1.269c0-3.03955,3.2163-3.541,3.2163-6.52148C202.43937,24.36053,202.11516,24.10955,201.59855,24.10955Z"/></svg>