<svg id="Content" xmlns="http://www.w3.org/2000/svg" width="320" height="50" viewBox="0 0 320 50"><defs><style>.cls-1{fill:#fff;stroke:#ba9544;stroke-miterlimit:10;stroke-width:0.5px;}.cls-2{fill:#ba9544;}</style></defs><title>THC - Durga Mata</title><polygon class="cls-1" points="184.096 10.711 105.539 10.413 101.573 16.132 105.539 21.749 184.096 21.615 187.665 16.164 184.096 10.711"/><polygon class="cls-2" points="105.596 10.413 101.63 16.132 105.596 21.749 113.455 21.749 113.369 10.413 105.596 10.413"/><path class="cls-2" d="M150.502,14.25879v.71777h-1.28222v3.12793h-.76953V14.97656h-1.28174v-.71777Z"/><path class="cls-2" d="M151.07373,18.10449v-3.8457h.769v1.53809h1.79248v-1.541h.769v3.8457l-.769.00293V16.51465h-1.79248v1.58984Z"/><path class="cls-2" d="M155.59814,17.55176a1.92318,1.92318,0,0,1,1.36817-3.293,2.08113,2.08113,0,0,1,1.4126.51269l-.5127.56153a1.41857,1.41857,0,0,0-.8999-.30762,1.09484,1.09484,0,0,0-1.15137,1.14356,1.15168,1.15168,0,0,0,.32031.85058,1.13276,1.13276,0,0,0,.83594.31543,1.38041,1.38041,0,0,0,.895-.30469l.5127.56153a2.075,2.075,0,0,1-1.4126.51269A1.8699,1.8699,0,0,1,155.59814,17.55176Z"/><path class="cls-2" d="M159.24023,15.65234a.37148.37148,0,0,1,.27686-.10449.38524.38524,0,0,1,.28711.10449.37165.37165,0,0,1,0,.51368.439.439,0,0,1-.564,0,.373.373,0,0,1,0-.51368Zm0,1.83594a.37148.37148,0,0,1,.27686-.10449.38524.38524,0,0,1,.28711.10449.37164.37164,0,0,1,0,.51367.439.439,0,0,1-.564,0,.37295.37295,0,0,1,0-.51367Z"/><path class="cls-2" d="M164.14014,14.26074v-.00488h.7666v2.23535h.51806v.76758h-.51806v.8457h-.7666v-.8457H162.394v-.76758h.02588l-.02344-.02539Zm0,2.23047V15.26562l-.93555,1.22559Z"/><path class="cls-2" d="M166.01221,17.07617v-.50976h1.58984v.50976Z"/><path class="cls-2" d="M170.438,16.15527c.0459.01758.08789.03516.12549.05176a.754.754,0,0,1,.39746.76953.98612.98612,0,0,1-.37305.8584,1.84513,1.84513,0,0,1-1.92041,0,.98492.98492,0,0,1-.37305-.8584.754.754,0,0,1,.39746-.76953c.0376-.0166.07911-.03418.12549-.05176-.02734-.01269-.05224-.02636-.07422-.03808a.76.76,0,0,1-.34619-.73047,1.05355,1.05355,0,0,1,.33448-.834,1.5133,1.5133,0,0,1,1.79248,0,1.05519,1.05519,0,0,1,.33447.834.76.76,0,0,1-.34619.73047C170.48975,16.12891,170.46533,16.14258,170.438,16.15527Zm-.81055-.34863q.33838-.01026.436-.17676a.41.41,0,0,0,0-.43554.49345.49345,0,0,0-.436-.21582.48568.48568,0,0,0-.4331.21582.402.402,0,0,0,0,.43554Q169.28881,15.79688,169.62744,15.80664Zm0,.70508a.574.574,0,0,0-.4331.2207.40372.40372,0,0,0,0,.43653.48513.48513,0,0,0,.4331.21484.4929.4929,0,0,0,.436-.21484.41171.41171,0,0,0,0-.43653A.58488.58488,0,0,0,169.62744,16.51172Z"/><path class="cls-2" d="M171.856,15.88184a.99272.99272,0,1,1,.687.27636A.934.934,0,0,1,171.856,15.88184Zm.67968-.17969a.45731.45731,0,0,0,.35108-.14649.51351.51351,0,0,0,.13574-.36425.50717.50717,0,0,0-.13574-.36231.46344.46344,0,0,0-.354-.14551.45758.45758,0,0,0-.34863.14551.50928.50928,0,0,0-.13574.36231.51566.51566,0,0,0,.13574.36425A.45764.45764,0,0,0,172.53564,15.70215Zm-.20556,2.40234,2.17969-3.8457h.62548l-2.17431,3.8457Zm1.91064-.2539a.98442.98442,0,1,1,.68213.27441A.92433.92433,0,0,1,174.24072,17.85059Zm.66895-.1875a.45.45,0,0,0,.34375-.14161.50039.50039,0,0,0,.1333-.35546.49494.49494,0,0,0-.1333-.35254.45316.45316,0,0,0-.34619-.14258.44657.44657,0,0,0-.34082.14258.49494.49494,0,0,0-.1333.35254.50039.50039,0,0,0,.1333.35546A.44891.44891,0,0,0,174.90967,17.66309Z"/></svg>