<svg id="Layer_1" data-name="Layer 1" xmlns="http://www.w3.org/2000/svg" width="320" height="480" viewBox="0 0 320 480"><defs><style>.cls-1{fill:#fff;}</style></defs><title>frame2</title><path class="cls-1" d="M88.46211,297.36022v-24.9375H99.16719v3.75977H92.22188v6.83594h5.07227v3.75976H92.22188v6.82227h6.94531v3.75976Z"/><path class="cls-1" d="M115.24336,291.39929a5.76519,5.76519,0,0,1-1.73632,4.21093,5.66309,5.66309,0,0,1-4.16993,1.75h-5.90625v-24.9375h5.90625a5.64989,5.64989,0,0,1,4.1836,1.75,5.77056,5.77056,0,0,1,1.72265,4.19727Zm-8.05273,2.24218h2.2627a1.99979,1.99979,0,0,0,1.51269-.64941,2.147,2.147,0,0,0,.61328-1.52441v-13.043a2.09342,2.09342,0,0,0-.627-1.52442,2.0322,2.0322,0,0,0-1.499-.63574h-2.2627Z"/><path class="cls-1" d="M126.13887,297.67468a5.905,5.905,0,0,1-5.93359-5.91992v-19.332H123.883v19.291a2.05588,2.05588,0,0,0,.63575,1.51758,2.09139,2.09139,0,0,0,1.52441.6289,2.13562,2.13562,0,0,0,2.14648-2.14648v-19.291h3.92383v19.332a5.65345,5.65345,0,0,1-1.75,4.21093A5.8265,5.8265,0,0,1,126.13887,297.67468Z"/><path class="cls-1" d="M143.03536,297.67468a5.92841,5.92841,0,0,1-5.96094-5.94727v-13.6582a5.95412,5.95412,0,1,1,11.9082,0V280.913h-3.89648v-2.91211a2.17056,2.17056,0,0,0-2.17383-2.17383,2.05591,2.05591,0,0,0-1.51758.63574,2.108,2.108,0,0,0-.6289,1.53809V291.6864a2.14727,2.14727,0,0,0,2.14648,2.16015,2.108,2.108,0,0,0,1.53809-.6289,2.07222,2.07222,0,0,0,.63574-1.53125v-3.43164h3.89648v3.47265a5.93983,5.93983,0,0,1-5.94726,5.94727Z"/><path class="cls-1" d="M157.635,291.63171l-.916,5.72851h-3.91016l4.22461-24.9375H162.215l4.16993,24.9375h-3.9375l-.88868-5.72851Zm1.96875-13.49414-1.39454,9.83008h2.78907Z"/><path class="cls-1" d="M171.716,276.18249h-3.99219v-3.75977H179.4543v3.75977h-3.97851v21.17773H171.716Z"/><path class="cls-1" d="M187.91524,297.36022h-3.75977v-24.9375h3.75977Z"/><path class="cls-1" d="M198.85079,272.12194a5.96325,5.96325,0,0,1,5.97461,5.97461v13.60352a5.96325,5.96325,0,0,1-5.97461,5.97461,5.689,5.689,0,0,1-4.20411-1.75,5.7908,5.7908,0,0,1-1.72949-4.22461V278.09655a5.96335,5.96335,0,0,1,5.9336-5.97461Zm2.05078,5.9043a2.12425,2.12425,0,0,0-2.14649-2.14453,2.10051,2.10051,0,0,0-1.52441.62207,2.0466,2.0466,0,0,0-.63574,1.52246v13.64844a2.05309,2.05309,0,0,0,.63574,1.51562,2.08757,2.08757,0,0,0,1.52441.62891,2.13562,2.13562,0,0,0,2.14649-2.14453Z"/><path class="cls-1" d="M214.02559,272.42272l4.97656,16.748v-16.748h3.75977v24.9375h-4.02734l-5.17383-15.96875v15.96875H209.801v-24.9375Z"/><path class="cls-1" d="M227.02559,293.61413h3.75977v3.75977h-3.75977Z"/></svg>