<svg id="Content" xmlns="http://www.w3.org/2000/svg" width="300" height="250" viewBox="0 0 300 250"><defs><style>.cls-1{fill:#fff;stroke:#ba9544;stroke-miterlimit:10;stroke-width:0.5px;}.cls-2{fill:#ba9544;}</style></defs><title>THC - MK Ultra</title><polygon class="cls-1" points="279.428 142.307 167.844 141.884 162.211 150.007 167.844 157.986 279.428 157.796 284.498 150.052 279.428 142.307"/><polygon class="cls-2" points="167.925 141.884 162.293 150.007 167.925 157.986 185.026 157.986 185.084 141.884 167.925 141.884"/><path class="cls-2" d="M231.71,147.34634v1.01953H229.8887v4.44336h-1.09277v-4.44336h-1.82129v-1.01953Z"/><path class="cls-2" d="M232.52249,152.80923v-5.46289h1.09278v2.18359h2.54589v-2.1875h1.0918v5.46289l-1.0918.00391v-2.25782h-2.54589v2.25782Z"/><path class="cls-2" d="M238.94827,152.02407a2.73156,2.73156,0,0,1,1.94336-4.67773,2.95281,2.95281,0,0,1,2.00684.72851l-.72852.79688a2.01634,2.01634,0,0,0-1.27832-.4375,1.60567,1.60567,0,0,0-1.18554.459,1.58956,1.58956,0,0,0-.44922,1.166,1.63285,1.63285,0,0,0,.45508,1.209,1.61016,1.61016,0,0,0,1.1875.44727,1.95508,1.95508,0,0,0,1.2705-.4336l.72852.79883a2.95178,2.95178,0,0,1-2.00684.72852A2.65584,2.65584,0,0,1,238.94827,152.02407Z"/><path class="cls-2" d="M244.1221,149.32485a.53136.53136,0,0,1,.39356-.14648.55129.55129,0,0,1,.4082.14648.50214.50214,0,0,1,.14551.36719.49631.49631,0,0,1-.14551.36328.62179.62179,0,0,1-.80176,0,.49631.49631,0,0,1-.14551-.36328A.50214.50214,0,0,1,244.1221,149.32485Zm0,2.60742a.53136.53136,0,0,1,.39356-.14648.55129.55129,0,0,1,.4082.14648.50531.50531,0,0,1,.14551.36719.49629.49629,0,0,1-.14551.36328.62176.62176,0,0,1-.80176,0,.49629.49629,0,0,1-.14551-.36328A.50531.50531,0,0,1,244.1221,151.93227Z"/><path class="cls-2" d="M249.93851,147.34634v-.00391h1.08887v5.4668h-1.08887v-4.00586l-.72852.72656-.72851-.72656Z"/><path class="cls-2" d="M252.11624,150.153a3.29877,3.29877,0,0,1,.56543-2.05078,1.84428,1.84428,0,0,1,1.51074-.75391,2.307,2.307,0,0,1,1.53028.543l-.54688.72851a1.93578,1.93578,0,0,0-.93554-.21875.9653.9653,0,0,0-.75391.31055,1.45992,1.45992,0,0,0-.31348.92773,1.70185,1.70185,0,0,1,1.09278-.47265,1.82355,1.82355,0,0,1,1.40234.49219,1.87584,1.87584,0,0,1,.45508,1.32812,1.79064,1.79064,0,0,1-.50977,1.293,1.92742,1.92742,0,0,1-1.457.5293,1.83276,1.83276,0,0,1-1.5664-.74024A3.3914,3.3914,0,0,1,252.11624,150.153Zm1.20215.83789q.03663.76172.874.79492.8379-.03223.874-.72461a.82527.82527,0,0,0-.91016-.91211A.81247.81247,0,0,0,253.31839,150.99087Z"/><path class="cls-2" d="M257.10648,151.34829v-.72461h2.25879v.72461Z"/><path class="cls-2" d="M262.27542,147.34634a2.05089,2.05089,0,0,1,1.3125.40234,1.42977,1.42977,0,0,1,.51172,1.19922,2.50623,2.50623,0,0,1-.72656,1.73437,5.03633,5.03633,0,0,1-1.19922,1.03321h1.9668v1.09375H260.458v-1.09375q.36474,0,1.38379-.91016a5.20292,5.20292,0,0,0,1.18359-1.293.8873.8873,0,0,0-.01758-.76367q-.18311-.38379-.874-.38281a1.25117,1.25117,0,0,0-1.02051.4375l-.72851-.72852a2.96921,2.96921,0,0,1,.71093-.54687A2.73939,2.73939,0,0,1,262.27542,147.34634Z"/><path class="cls-2" d="M265.71,152.02407a3.74029,3.74029,0,0,1,0-3.89453,1.74781,1.74781,0,0,1,2.915,0,3.75521,3.75521,0,0,1,0,3.89648,1.7466,1.7466,0,0,1-2.915-.00195Zm1.46-.23437c.24024,0,.45215-.16407.63379-.49219a2.86149,2.86149,0,0,0,0-2.44141c-.18164-.32617-.39551-.49023-.64062-.49023-.24121,0-.45215.16406-.63379.49023a2.86149,2.86149,0,0,0,0,2.44141Q266.80179,151.78969,267.16995,151.7897Z"/><path class="cls-2" d="M270.46976,149.651a1.4097,1.4097,0,1,1,.97558.39258A1.3237,1.3237,0,0,1,270.46976,149.651Zm.96484-.25586a.64926.64926,0,0,0,.499-.207.73.73,0,0,0,.19335-.51758.72059.72059,0,0,0-.19335-.51367.65339.65339,0,0,0-.50293-.207.64513.64513,0,0,0-.49512.207.71982.71982,0,0,0-.19238.51367.72928.72928,0,0,0,.19238.51758A.64923.64923,0,0,0,271.4346,149.39516Zm-.291,3.41407,3.0957-5.46289h.88867l-3.08887,5.46289Zm2.71289-.36133a1.39658,1.39658,0,1,1,.96875.39062A1.31408,1.31408,0,0,1,273.85648,152.4479Zm.95117-.26563a.63571.63571,0,0,0,.4873-.20117.71033.71033,0,0,0,.18946-.50586.69946.69946,0,0,0-.18946-.5.64286.64286,0,0,0-.49121-.20312.63532.63532,0,0,0-.48437.20312.70366.70366,0,0,0-.18946.5.71458.71458,0,0,0,.18946.50586A.63784.63784,0,0,0,274.80765,152.18227Z"/></svg>