<svg id="Content" xmlns="http://www.w3.org/2000/svg" xmlns:xlink="http://www.w3.org/1999/xlink" width="320" height="568" viewBox="0 0 320 568"><defs><style>.cls-1{fill:url(#New_Gradient_Swatch_1);}.cls-2{fill:#fff;}.cls-3{fill:#b89344;}</style><linearGradient id="New_Gradient_Swatch_1" x1="78.81427" y1="395.1691" x2="118.14578" y2="395.1691" gradientUnits="userSpaceOnUse"><stop offset="0" stop-color="#a68834"/><stop offset="0.49324" stop-color="#c8ad67"/><stop offset="1" stop-color="#937f2e"/></linearGradient></defs><title>berry</title><polygon class="cls-1" points="95.152 375.051 78.814 393.918 91.71 415.287 116.018 409.626 118.146 384.759 95.152 375.051"/><path class="cls-2" d="M104.19784,397.29011a.359.359,0,1,1-.07665-.50291.3622.3622,0,0,1,.07665.50291m-2.14624-4.55235a.45243.45243,0,1,1,.45056-.45242.454.454,0,0,1-.45056.45242m-.45056,5.45347a.45243.45243,0,1,1,.45243-.45243.45483.45483,0,0,1-.45243.45243m-.06917-3.32779a.36176.36176,0,1,1-.3627.36082.36224.36224,0,0,1,.3627-.36082m-.96095,5.87411a.39525.39525,0,1,1-.14769-.54029.39206.39206,0,0,1,.14769.54029m-1.85646-5.919a.39822.39822,0,1,1,.39822-.39821.39616.39616,0,0,1-.39822.39821m-.11591,3.03614a.36176.36176,0,1,1,.36082-.36082.36385.36385,0,0,1-.36082.36082m-1.1722,1.6209a.36083.36083,0,1,1,.36082-.36083.36386.36386,0,0,1-.36082.36083m-.40943-2.86227a.45028.45028,0,1,1-.05235-.63565.45206.45206,0,0,1,.05235.63565m-1.12547-3.72788a.39728.39728,0,1,1,.39634.39821.399.399,0,0,1-.39634-.39821m5.79185-2.40237a9.4457,9.4457,0,0,0,2.02472-1.55732,5.40742,5.40742,0,0,0-2.56689.26174,3.71893,3.71893,0,0,0,.39635-1.97613,2.01951,2.01951,0,0,0-1.48068,1.17783,3.68217,3.68217,0,0,0-.51413-1.73868,2.23164,2.23164,0,0,0-.8226,2.00789,2.1016,2.1016,0,0,0-1.55172-1.30681,3.72764,3.72764,0,0,0,.35708,1.89572,5.25291,5.25291,0,0,0-2.7071-.32156,9.17856,9.17856,0,0,0,2.135,1.61529c-2.14063.46178-3.6344,1.65642-3.6344,4.15225,0,3.38949,4.28126,8.99439,6.14146,8.99439,2.0135,0,6.14146-5.6049,6.14146-8.99439.01309-2.60615-1.6209-3.80266-3.91857-4.21022"/><path class="cls-3" d="M86.16309,432.42578a2.09981,2.09981,0,0,1-1.20313,3.9043l-4.16016-.00488v-7.38965h3.92383q1.86768.10839,1.97168,2.17383A1.54507,1.54507,0,0,1,86.16309,432.42578Zm-3.87989-.52734h2.07032a.83506.83506,0,0,0,.917-.92188q-.0249-.542-.90235-.57129h-2.085Zm0,3.27344h2.416a.96521.96521,0,0,0,1.06445-1.07032q-.0249-.709-1.0498-.73926H82.2832Z"/><path class="cls-3" d="M88.64746,436.3252v-7.38965l5.43164-.00489v1.38086H90.126v1.57715h2.96289v1.375H90.126v1.68164h3.94336v1.37989Z"/><path class="cls-3" d="M100.01953,433.10156l1.84375,3.22364H100.167l-1.76953-3.05665H97.04688v3.05665H95.56836v-7.39454H98.792q2.58838,0,2.58789,2.12989A1.91213,1.91213,0,0,1,100.01953,433.10156Zm-2.97265-1.21289h2.07031q.89208-.01464.917-.81347-.0249-.7295-.90234-.75879h-2.085Z"/><path class="cls-3" d="M107.083,433.10156l1.84375,3.22364h-1.69629l-1.76953-3.05665h-1.35059v3.05665h-1.47851v-7.39454h3.22363q2.58837,0,2.58789,2.12989A1.91214,1.91214,0,0,1,107.083,433.10156Zm-2.97266-1.21289h2.07031q.89209-.01464.917-.81347-.02492-.7295-.90235-.75879h-2.085Z"/><path class="cls-3" d="M109.26172,428.93066h1.73437l1.71582,2.416,1.75489-2.416h1.69629l-2.71192,3.69727v3.69727h-1.47851v-3.69727Z"/></svg>