<svg id="Content" xmlns="http://www.w3.org/2000/svg" width="320" height="50" viewBox="0 0 320 50"><defs><style>.cls-1{fill:#ba9544;}</style></defs><title>Frame1 - Shishkaberry</title><path class="cls-1" d="M108.25586,22.38135c1.38769,0,2.10059.83008,2.10059,2.28271v.28516h-1.34864v-.376c0-.64844-.25976-.895-.71386-.895-.45313,0-.7129.24658-.7129.895,0,1.86768,2.78809,2.21778,2.78809,4.81153,0,1.45312-.72559,2.2832-2.127,2.2832-1.40039,0-2.127-.83008-2.127-2.2832v-.55762h1.34864v.64844c0,.64892.28613.88232.74023.88232.45313,0,.73926-.2334.73926-.88232,0-1.86768-2.78906-2.21778-2.78906-4.81153C106.1543,23.21143,106.86816,22.38135,108.25586,22.38135Z"/><path class="cls-1" d="M113.99023,31.564h-1.42578v-9.0791h1.42578V26.376h1.62207V22.48486h1.45215V31.564H115.6123V27.67285h-1.62207Z"/><path class="cls-1" d="M119.47949,22.48486h1.42578V31.564h-1.42578Z"/><path class="cls-1" d="M125.23926,22.38135c1.38769,0,2.10058.83008,2.10058,2.28271v.28516h-1.34863v-.376c0-.64844-.25976-.895-.71387-.895-.45312,0-.71289.24658-.71289.895,0,1.86768,2.78809,2.21778,2.78809,4.81153,0,1.45312-.72559,2.2832-2.127,2.2832-1.40039,0-2.127-.83008-2.127-2.2832v-.55762h1.34864v.64844c0,.64892.28613.88232.74023.88232.45312,0,.73926-.2334.73926-.88232,0-1.86768-2.78906-2.21778-2.78906-4.81153C123.1377,23.21143,123.85156,22.38135,125.23926,22.38135Z"/><path class="cls-1" d="M130.97363,31.564h-1.42578v-9.0791h1.42578V26.376h1.62207V22.48486h1.45215V31.564H132.5957V27.67285h-1.62207Z"/><path class="cls-1" d="M138.33008,27.94531l-.44141.83008V31.564h-1.42578v-9.0791h1.42578v3.95606l1.86817-3.95606h1.42675l-1.98437,4.04688,1.98437,5.03222h-1.46582Z"/><path class="cls-1" d="M147.82715,31.564h-1.44043l-.2461-1.647h-1.751l-.2461,1.647H142.833l1.45312-9.0791H146.374Zm-3.25586-2.87939h1.375l-.6875-4.59131Z"/><path class="cls-1" d="M154.13281,24.57324v.32422a1.78282,1.78282,0,0,1-.9209,1.82861,1.83562,1.83562,0,0,1,1.06348,1.94581v.73925a1.92992,1.92992,0,0,1-2.166,2.15283h-2.24317v-9.0791h2.15234C153.49707,22.48486,154.13281,23.17236,154.13281,24.57324Zm-2.84082-.791v2.39941h.5586c.53125,0,.85546-.23389.85546-.96v-.50586c0-.64844-.2207-.93359-.72656-.93359Zm0,3.69629v2.78857h.81739c.48046,0,.73925-.2207.73925-.895v-.791c0-.84326-.27246-1.10253-.9209-1.10253Z"/><path class="cls-1" d="M157.93555,26.311h1.958v1.29687h-1.958v2.65918h2.46386V31.564h-3.89062v-9.0791h3.89062v1.29737h-2.46386Z"/><path class="cls-1" d="M165.6416,31.564a2.80266,2.80266,0,0,1-.12988-1.11523V29.022c0-.84326-.28516-1.15429-.9336-1.15429H164.085V31.564h-1.42578v-9.0791h2.15234c1.47852,0,2.11426.6875,2.11426,2.08838v.71338a1.80984,1.80984,0,0,1-.93359,1.8418c.71289.29834.94629.98535.94629,1.93213v1.40088a2.67594,2.67594,0,0,0,.15625,1.10253ZM164.085,23.78223v2.78808h.55859c.53125,0,.85547-.2334.85547-.95947v-.895c0-.64844-.2207-.93359-.72656-.93359Z"/><path class="cls-1" d="M172.2334,31.564a2.78322,2.78322,0,0,1-.12988-1.11523V29.022c0-.84326-.28516-1.15429-.9336-1.15429h-.49316V31.564H169.25v-9.0791h2.15332c1.47852,0,2.11426.6875,2.11426,2.08838v.71338a1.81038,1.81038,0,0,1-.93457,1.8418c.71387.29834.94726.98535.94726,1.93213v1.40088a2.67646,2.67646,0,0,0,.15528,1.10253Zm-1.55664-7.78173v2.78808h.55762c.53222,0,.85644-.2334.85644-.95947v-.895c0-.64844-.2207-.93359-.72656-.93359Z"/><path class="cls-1" d="M177.17676,28.55469,175.374,22.48486h1.49219l1.08887,4.1377,1.08984-4.1377h1.36231l-1.80371,6.06983V31.564h-1.42676Z"/></svg>