<svg id="Content" xmlns="http://www.w3.org/2000/svg" width="320" height="568" viewBox="0 0 320 568"><defs><style>.cls-1{fill:#b89344;}</style></defs><title>Frame2 - Sensi Star</title><path class="cls-1" d="M96.62891,309.78711c3.34863,0,5.06933,2.00293,5.06933,5.50781v.68848H98.44336v-.9082c0-1.56446-.626-2.15918-1.7207-2.15918-1.09571,0-1.72168.59472-1.72168,2.15918,0,4.50683,6.72851,5.35156,6.72851,11.61132,0,3.50489-1.75195,5.50782-5.13183,5.50782-3.38086,0-5.13282-2.00293-5.13282-5.50782v-1.3457h3.25489v1.56445c0,1.56543.68847,2.12793,1.7832,2.12793,1.0957,0,1.78418-.5625,1.78418-2.12793,0-4.50683-6.72852-5.35156-6.72852-11.61035C91.55859,311.79,93.28027,309.78711,96.62891,309.78711Z"/><path class="cls-1" d="M110.458,319.26953h4.72558v3.12891H110.458v6.416h5.94629v3.12989h-9.38868V310.03711h9.38868V313.167H110.458Z"/><path class="cls-1" d="M124.91406,316.07715v15.86719h-3.09863V310.03711h4.31934l3.53613,13.11328V310.03711h3.0664v21.90723h-3.53613Z"/><path class="cls-1" d="M143.15625,309.78711c3.34863,0,5.06934,2.00293,5.06934,5.50781v.68848H144.9707v-.9082c0-1.56446-.626-2.15918-1.7207-2.15918-1.0957,0-1.72168.59472-1.72168,2.15918,0,4.50683,6.72852,5.35156,6.72852,11.61132,0,3.50489-1.752,5.50782-5.13184,5.50782-3.38086,0-5.13281-2.00293-5.13281-5.50782v-1.3457h3.25488v1.56445c0,1.56543.68848,2.12793,1.7832,2.12793,1.09571,0,1.78418-.5625,1.78418-2.12793,0-4.50683-6.72851-5.35156-6.72851-11.61035C138.08594,311.79,139.80762,309.78711,143.15625,309.78711Z"/><path class="cls-1" d="M153.543,310.03711h3.44238v21.90723H153.543Z"/><path class="cls-1" d="M175.60254,309.78711c3.34863,0,5.06934,2.00293,5.06934,5.50781v.68848H177.417v-.9082c0-1.56446-.626-2.15918-1.7207-2.15918-1.0957,0-1.72168.59472-1.72168,2.15918,0,4.50683,6.72851,5.35156,6.72851,11.61132,0,3.50489-1.752,5.50782-5.13183,5.50782-3.38086,0-5.13281-2.00293-5.13281-5.50782v-1.3457h3.25488v1.56445c0,1.56543.68848,2.12793,1.7832,2.12793,1.09571,0,1.78418-.5625,1.78418-2.12793,0-4.50683-6.72851-5.35156-6.72851-11.61035C170.53223,311.79,172.25391,309.78711,175.60254,309.78711Z"/><path class="cls-1" d="M184.98828,310.03711h10.64063V313.167H192.0293v18.77735h-3.44239V313.167h-3.59863Z"/><path class="cls-1" d="M211.58594,331.94434H208.1123l-.59472-3.97461H203.293l-.59473,3.97461h-3.16113l3.50586-21.90723h5.03808Zm-7.85449-6.94825h3.31738L205.38965,313.918Z"/><path class="cls-1" d="M223.69434,331.94434a6.74136,6.74136,0,0,1-.31348-2.69141v-3.44238c0-2.03418-.68848-2.78614-2.25293-2.78614h-1.18945v8.91993h-3.44239V310.03711h5.19532c3.56738,0,5.10156,1.6582,5.10156,5.03809v1.72168c0,2.25292-.7207,3.7246-2.25391,4.44433,1.72168.71973,2.28516,2.37793,2.28516,4.66309v3.37988a6.46126,6.46126,0,0,0,.375,2.66016ZM219.93848,313.167v6.72852h1.3457c1.2832,0,2.06543-.56348,2.06543-2.31641v-2.15918c0-1.56445-.53125-2.25293-1.752-2.25293Z"/></svg>