<svg id="Content" xmlns="http://www.w3.org/2000/svg" width="320" height="50" viewBox="0 0 320 50"><defs><style>.cls-1{fill:#ba9544;}</style></defs><title>Frame1 - Sensi Star</title><path class="cls-1" d="M117.15625,22.38135c1.3877,0,2.10059.83008,2.10059,2.28271v.28516H117.9082v-.376c0-.64844-.25976-.895-.71386-.895-.45313,0-.71289.24658-.71289.895,0,1.86768,2.78808,2.21778,2.78808,4.81153,0,1.45312-.72558,2.2832-2.127,2.2832-1.40039,0-2.127-.83008-2.127-2.2832v-.55762h1.34864v.64844c0,.64892.28613.88232.73926.88232.4541,0,.74023-.2334.74023-.88232,0-1.86768-2.78906-2.21778-2.78906-4.81153C115.05469,23.21143,115.76855,22.38135,117.15625,22.38135Z"/><path class="cls-1" d="M122.89062,26.311h1.959v1.29687h-1.959v2.65918h2.46485V31.564h-3.8916v-9.0791h3.8916v1.29737h-2.46485Z"/><path class="cls-1" d="M128.88574,24.98828V31.564h-1.28418v-9.0791h1.79l1.46485,5.43457V22.48486h1.27148V31.564h-1.46582Z"/><path class="cls-1" d="M136.44922,22.38135c1.38769,0,2.10156.83008,2.10156,2.28271v.28516h-1.34961v-.376c0-.64844-.25879-.895-.71289-.895s-.71387.24658-.71387.895c0,1.86768,2.78907,2.21778,2.78907,4.81153,0,1.45312-.72657,2.2832-2.127,2.2832-1.40136,0-2.12695-.83008-2.12695-2.2832v-.55762h1.34863v.64844c0,.64892.28516.88232.73926.88232s.73926-.2334.73926-.88232c0-1.86768-2.78809-2.21778-2.78809-4.81153C134.34863,23.21143,135.06152,22.38135,136.44922,22.38135Z"/><path class="cls-1" d="M140.75781,22.48486h1.42676V31.564h-1.42676Z"/><path class="cls-1" d="M149.9043,22.38135c1.38769,0,2.10058.83008,2.10058,2.28271v.28516h-1.34863v-.376c0-.64844-.25977-.895-.71387-.895-.45312,0-.71289.24658-.71289.895,0,1.86768,2.78809,2.21778,2.78809,4.81153,0,1.45312-.72559,2.2832-2.127,2.2832-1.40039,0-2.127-.83008-2.127-2.2832v-.55762h1.34863v.64844c0,.64892.28614.88232.73926.88232.4541,0,.74024-.2334.74024-.88232,0-1.86768-2.78907-2.21778-2.78907-4.81153C147.80273,23.21143,148.5166,22.38135,149.9043,22.38135Z"/><path class="cls-1" d="M153.79688,22.48486H158.207v1.29737h-1.49121V31.564h-1.42676V23.78223h-1.49218Z"/><path class="cls-1" d="M164.82422,31.564h-1.43945l-.2461-1.647h-1.751l-.24708,1.647h-1.30957l1.45215-9.0791h2.08887Zm-3.25488-2.87939h1.374l-.6875-4.59131Z"/><path class="cls-1" d="M169.8457,31.564a2.78342,2.78342,0,0,1-.12988-1.11523V29.022c0-.84326-.28516-1.15429-.93359-1.15429h-.49317V31.564H166.8623v-9.0791h2.15332c1.47852,0,2.11426.6875,2.11426,2.08838v.71338a1.80984,1.80984,0,0,1-.93359,1.8418c.71289.29834.94629.98535.94629,1.93213v1.40088a2.67594,2.67594,0,0,0,.15625,1.10253Zm-1.55664-7.78173v2.78808h.5586c.53125,0,.85546-.2334.85546-.95947v-.895c0-.64844-.2207-.93359-.72656-.93359Z"/></svg>