<svg id="Content" xmlns="http://www.w3.org/2000/svg" xmlns:xlink="http://www.w3.org/1999/xlink" width="320" height="568" viewBox="0 0 320 568"><defs><style>.cls-1{fill:#fff;}.cls-2{fill:url(#New_Gradient_Swatch_1);}.cls-3{fill:#b89344;}</style><linearGradient id="New_Gradient_Swatch_1" x1="143.12853" y1="397.31812" x2="183.36559" y2="397.31812" gradientUnits="userSpaceOnUse"><stop offset="0" stop-color="#a68834"/><stop offset="0.49324" stop-color="#c8ad67"/><stop offset="1" stop-color="#937f2e"/></linearGradient></defs><title>minty</title><path class="cls-1" d="M155.23346,392.218a1.71649,1.71649,0,0,1,.32343-.13273,3.108,3.108,0,0,1,.36083-.09162l.02056-.00747,3.52977-.77588a1.14235,1.14235,0,0,1,.75344.11591l.59453.58144-1.2358,1.29375-3.93921.86561c-.157-.71043-.31969-1.45079-.40755-1.849m12.24948,9.84706-1.93876-8.8188a1.32187,1.32187,0,0,0-1.46949-1.02265l1.03948-1.09183.286.27108.43187-.458a.28054.28054,0,0,0-.01122-.39636l-2.09018-1.97427a.28053.28053,0,0,0-.39635.01122l-.43188.458.344.32531-1.38722,1.45453-.688-.67118-.0486-.03738a2.62877,2.62877,0,0,0-1.97616-.37206l-3.49236.7684a5.112,5.112,0,0,0-.617.15892,2.102,2.102,0,0,0-1.12922.75344,1.21957,1.21957,0,0,0-.18321.95162c.10843.48609.48608,2.208.71417,3.24184.00374.02244.00747.04487.01309.06731l1.93875,8.82067a1.31386,1.31386,0,0,0,1.57045.99835l8.50844-1.87145a1.32074,1.32074,0,0,0,1.01333-1.56671"/><polygon class="cls-2" points="177.94 410.863 161.164 417.302 145.673 408.201 143.129 390.414 155.449 377.334 173.356 378.811 183.366 393.734 177.94 410.863"/><path class="cls-1" d="M171.75833,403.6558a7.12805,7.12805,0,0,0-2.85484-5.90412,2.74934,2.74934,0,0,1,1.35357-.16452,4.65776,4.65776,0,0,0-2.72211-2.451,2.08259,2.08259,0,0,1,1.06753-.13087,9.80355,9.80355,0,0,0-5.65922-3.71673,3.37828,3.37828,0,0,1,1.032-.12713,8.46668,8.46668,0,0,0-8.243.28979s3.40639,1.79666,4.75434,3.65689c0,0-4.67019-2.98384-5.35073-2.93711,0,0-2.10141,4.99365,3.24185,9.36286a2.35,2.35,0,0,1-.12713-1.032s2.122,2.55945,4.19347,3.24559a2.42123,2.42123,0,0,1,.01308-1.00584,6.23951,6.23951,0,0,0,2.96141,1.6901,2.25878,2.25878,0,0,1-.09347-1.361s3.43067,2.036,6.43322.58517"/><path class="cls-3" d="M146.52148,436.32617v-7.39453h.49317l3.2041,3.64844,3.209-3.64844h.49317v7.39453h-1.47949l-.00489-4.28906-2.21777,2.46484L148,432.03711v4.28906Z"/><path class="cls-3" d="M155.39453,428.92676h1.47363v7.39941h-1.47363Z"/><path class="cls-3" d="M158.35254,436.32617v-7.39453h.49316l4.63379,4.63379v-4.63379H164.958v7.39453h-.542l-4.585-4.585v4.585Z"/><path class="cls-3" d="M172.52441,428.93164v1.38086h-2.46386v6.01367h-1.4795V430.3125h-2.46484v-1.38086Z"/><path class="cls-3" d="M173.19043,428.93164h1.73535l1.71484,2.416,1.75489-2.416h1.69629l-2.71192,3.69727v3.69726h-1.47851v-3.69726Z"/></svg>