<svg id="Layer_1" data-name="Layer 1" xmlns="http://www.w3.org/2000/svg" xmlns:xlink="http://www.w3.org/1999/xlink" width="300" height="250" viewBox="0 0 300 250"><defs><style>.cls-1{fill:url(#linear-gradient);}.cls-2{fill:url(#New_Gradient_Swatch_2);}.cls-3{fill:url(#New_Gradient_Swatch_2-2);}.cls-4{fill:url(#New_Gradient_Swatch_2-3);}.cls-5{fill:url(#New_Gradient_Swatch_2-4);}.cls-6{fill:url(#New_Gradient_Swatch_2-5);}.cls-7{fill:url(#New_Gradient_Swatch_2-6);}.cls-8{fill:url(#New_Gradient_Swatch_2-7);}.cls-9{fill:url(#New_Gradient_Swatch_2-8);}.cls-10{fill:url(#New_Gradient_Swatch_2-9);}.cls-11{fill:#ab9555;}.cls-12{fill:url(#New_Gradient_Swatch_2-10);}.cls-13{fill:url(#linear-gradient-2);}.cls-14{fill:url(#linear-gradient-3);}.cls-15{fill:url(#linear-gradient-4);}.cls-16{fill:url(#linear-gradient-5);}.cls-17{fill:url(#linear-gradient-6);}.cls-18{fill:url(#linear-gradient-7);}.cls-19{fill:url(#linear-gradient-8);}.cls-20{fill:url(#linear-gradient-9);}.cls-21{fill:url(#linear-gradient-10);}.cls-22{fill:url(#linear-gradient-11);}.cls-23{fill:url(#linear-gradient-12);}</style><linearGradient id="linear-gradient" x1="12.5" y1="262.5" x2="287.5" y2="-12.5" gradientUnits="userSpaceOnUse"><stop offset="0" stop-color="#231f20"/><stop offset="0.23973" stop-color="#171415"/><stop offset="0.67302" stop-color="#060505"/><stop offset="1"/></linearGradient><linearGradient id="New_Gradient_Swatch_2" x1="173.48519" y1="83.38142" x2="180.20733" y2="83.38142" gradientUnits="userSpaceOnUse"><stop offset="0" stop-color="#ab8d34"/><stop offset="0.1878" stop-color="#cdb267"/><stop offset="0.46098" stop-color="#a38d4a"/><stop offset="0.76341" stop-color="#cdb267"/><stop offset="1" stop-color="#987f2e"/></linearGradient><linearGradient id="New_Gradient_Swatch_2-2" x1="146.15071" y1="83.38142" x2="155.29459" y2="83.38142" xlink:href="#New_Gradient_Swatch_2"/><linearGradient id="New_Gradient_Swatch_2-3" x1="156.09376" y1="83.38129" x2="163.04805" y2="83.38129" xlink:href="#New_Gradient_Swatch_2"/><linearGradient id="New_Gradient_Swatch_2-4" x1="119.76681" y1="49.8213" x2="175.99324" y2="49.8213" xlink:href="#New_Gradient_Swatch_2"/><linearGradient id="New_Gradient_Swatch_2-5" x1="164.21912" y1="83.38138" x2="172.14933" y2="83.38138" xlink:href="#New_Gradient_Swatch_2"/><linearGradient id="New_Gradient_Swatch_2-6" x1="115.55268" y1="83.38142" x2="123.72686" y2="83.38142" xlink:href="#New_Gradient_Swatch_2"/><linearGradient id="New_Gradient_Swatch_2-7" x1="135.65261" y1="83.38142" x2="144.80867" y2="83.38142" xlink:href="#New_Gradient_Swatch_2"/><linearGradient id="New_Gradient_Swatch_2-8" x1="125.14201" y1="83.38142" x2="134.28593" y2="83.38142" xlink:href="#New_Gradient_Swatch_2"/><linearGradient id="New_Gradient_Swatch_2-9" x1="180.5739" y1="76.72232" x2="184.44732" y2="76.72232" xlink:href="#New_Gradient_Swatch_2"/><linearGradient id="New_Gradient_Swatch_2-10" x1="115.12444" y1="240.43887" x2="183.15672" y2="172.40659" xlink:href="#New_Gradient_Swatch_2"/><linearGradient id="linear-gradient-2" x1="113.83385" y1="206.42273" x2="118.55561" y2="206.42273" xlink:href="#linear-gradient"/><linearGradient id="linear-gradient-3" x1="120.3271" y1="206.42273" x2="125.19414" y2="206.42273" xlink:href="#linear-gradient"/><linearGradient id="linear-gradient-4" x1="126.6503" y1="206.42273" x2="131.37206" y2="206.42273" xlink:href="#linear-gradient"/><linearGradient id="linear-gradient-5" x1="132.86387" y1="206.42273" x2="138.31206" y2="206.42273" xlink:href="#linear-gradient"/><linearGradient id="linear-gradient-6" x1="139.38255" y1="206.42273" x2="144.83074" y2="206.42273" xlink:href="#linear-gradient"/><linearGradient id="linear-gradient-7" x1="146.31661" y1="206.42273" x2="150.31987" y2="206.42273" xlink:href="#linear-gradient"/><linearGradient id="linear-gradient-8" x1="152.01112" y1="206.42273" x2="156.64967" y2="206.42273" xlink:href="#linear-gradient"/><linearGradient id="linear-gradient-9" x1="160.94879" y1="206.42273" x2="166.40094" y2="206.42273" xlink:href="#linear-gradient"/><linearGradient id="linear-gradient-10" x1="167.80558" y1="206.42273" x2="173.25377" y2="206.42273" xlink:href="#linear-gradient"/><linearGradient id="linear-gradient-11" x1="174.65841" y1="206.42273" x2="179.29697" y2="206.42273" xlink:href="#linear-gradient"/><linearGradient id="linear-gradient-12" x1="180.44406" y1="206.42273" x2="184.44732" y2="206.42273" xlink:href="#linear-gradient"/></defs><title>background</title><rect class="cls-1" width="300" height="250"/><polygon class="cls-2" points="180.207 80.514 180.207 78.806 173.485 78.812 173.485 87.956 180.195 87.956 180.195 86.248 175.315 86.248 175.315 84.168 178.981 84.168 178.981 82.466 175.315 82.466 175.315 80.514 180.207 80.514"/><path class="cls-3" d="M151.64086,78.80644h-1.83014l-3.66,9.15h1.9518l.549-1.403h4.148l.54905,1.403,1.946-.00627Zm-2.257,5.91705,1.39091-3.47725,1.35405,3.47725Z"/><path class="cls-4" d="M162.10246,83.22893a4.53726,4.53726,0,0,0-2.10453-.76235,2.41206,2.41206,0,0,1-1.40305-.54928.7139.7139,0,0,1,0-.88454q.30527-.51824,1.40305-.51824a2.10137,2.10137,0,0,1,1.70821.7318l1.21976-1.22a4.2683,4.2683,0,0,0-1.3114-.915,5.10658,5.10658,0,0,0-1.97656-.30494,3.66259,3.66259,0,0,0-2.13788.73505,2.27671,2.27671,0,0,0-1.04,1.949,2.02469,2.02469,0,0,0,.91487,1.891,4.91763,4.91763,0,0,0,2.01315.671q1.21977.12206,1.52191.64043a.96664.96664,0,0,1,0,1.03723q-.30182.51825-1.52191.51824a2.89783,2.89783,0,0,1-2.074-.85395l-1.22026,1.22021a4.61737,4.61737,0,0,0,1.4641.976,5.41872,5.41872,0,0,0,2.129.36577,3.69509,3.69509,0,0,0,2.35145-.7929,2.3454,2.3454,0,0,0,1.00971-1.891A2.29025,2.29025,0,0,0,162.10246,83.22893Z"/><path class="cls-5" d="M144.462,68.66525c.611-.18021,1.71942.85587,1.79145.85587a1.32224,1.32224,0,0,0,.3695-.85329c0-.36581-.2611-1.07734-.31-1.50794a7.172,7.172,0,0,0-.26043-1.24751c-.09534-.28351-.75791-.40708-1.11345-.62647a5.80738,5.80738,0,0,1-.89713-.62109,2.83776,2.83776,0,0,1-.38142-1.30158,5.11679,5.11679,0,0,0-.214-1.32492c-.12379-.232-.442-.39587-.65724-.61108a.9253.9253,0,0,1-.2217-.56956c.16505-.05153.21659.37373.4073.40988s.17786.19325.47675.29632c.29912.103.30939.245.34808.5234s.37372,1.21905.48449,1.60305c.111.38422.22681.67307.60592.68587.37884.01285.32731.20868.77307.17279a2.496,2.496,0,0,1,1.06987.206c.23967.08511.54137.0928.64439-.07456.10307-.16764-.07225-.84306-.07225-.84306-.15457,0-.18049-.20863-.23967-.40192-.05923-.19351.0361-.2089.0361-.2089a.8169.8169,0,1,1,1.557,0s.09533.01539.0361.2089c-.05945.19329-.0851.40192-.23989.40192,0,0-.1751.67542-.072.84306.103.16736.40472.15967.64439.07456a2.4956,2.4956,0,0,1,1.06965-.206c.446.03589.39445-.15994.77329-.17279.37911-.0128.495-.30165.6057-.68587.111-.384.446-1.3247.48472-1.60305s.04895-.42038.34807-.5234c.29889-.10307.286-.26017.47675-.29632s.24247-.46141.4073-.40988a.92681.92681,0,0,1-.2217.56956c-.21521.21521-.53345.37911-.65724.61108a5.11723,5.11723,0,0,0-.214,1.32492,2.83764,2.83764,0,0,1-.38142,1.30158,5.80886,5.80886,0,0,1-.89713.62109c-.35576.21939-1.01811.343-1.11344.62647a7.14327,7.14327,0,0,0-.26044,1.24751c-.04895.4306-.31,1.14213-.31,1.50794a1.32224,1.32224,0,0,0,.3695.85329c.072,0,1.18064-1.03608,1.79146-.85587.61081.18071.36857,1.03631-.26555,1.6702a2.71577,2.71577,0,0,1-1.31376.81927,7.11538,7.11538,0,0,1,.99739.18648,10.67717,10.67717,0,0,1,2.84892,1.62569,10.35138,10.35138,0,0,0,2.54029,1.48322,2.16612,2.16612,0,0,0,.24576.05389c.08719-.073.54411-.33669.54411-.33669a10.22228,10.22228,0,0,0,1.148.49125L155.118,72.40294l5.79842,2.52419c.09533.04127.19116.07928.28653.1133l3.50474.06247c.92.01681,1.82853-.02352,2.672-.08879-.67978-.41944-1.41608-.83817-2.20524-1.224l-3.07507-1.50377c-.10236-.013-.207-.02285-.31335-.02912l-6.703-.40263,4.35549-.757-2.82353-.919,4.83223-.03171a16.40253,16.40253,0,0,0,3.29895-.36279l-4.56722-.86982,6.69341-.29725a6.56824,6.56824,0,0,0,1.12047-.14291l-.50823.06154,4.41751-2.07261a39.47234,39.47234,0,0,0,4.09109-2.24886,43.16934,43.16934,0,0,0-4.78515-.28978l-5.02085.01143.55928-.183a6.28932,6.28932,0,0,0-1.18482.36555l-5.85738,2.44122,3.54467-2.641-.027.00444-.08092-.609-.64417-1.0624a21.22408,21.22408,0,0,0,4.82646-4.98262l-4.73575,2.26727,4.82526-4.01884a7.94715,7.94715,0,0,0,1.53217-1.66112c.62225-.94048,1.2-1.904,1.72689-2.87951l-1.49563,1.477,1.79283-3.89994a51.50523,51.50523,0,0,0,2.65266-7.33406,62.42838,62.42838,0,0,0-7.10836,4.57976l-3.51016,2.66012,1.11954-1.74458c-.90807.77218-1.78607,1.58722-2.624,2.43606a7.69075,7.69075,0,0,0-1.292,1.81057L157.64292,55.872l.91065-4.48185a21.18924,21.18924,0,0,0-2.03112,2.4293l-.44692.6234-.40961-.28115a1.17175,1.17175,0,0,0-.06341.10654l-3.52154,6.678,2.07678-7.25829a23.04018,23.04018,0,0,0,.6889-9.10875l-2.42508,4.50706,1.17455-5.42189a8.82692,8.82692,0,0,0,.18346-2.70556,43.68075,43.68075,0,0,0-.93185-5.47338l-.31962,2.66123-1.05284-3.87984a66.01579,66.01579,0,0,0-3.59522-9.731,65.95,65.95,0,0,0-3.59527,9.731l-1.05262,3.87984-.31983-2.66123a43.721,43.721,0,0,0-.93186,5.47338,8.83148,8.83148,0,0,0,.18346,2.70579l1.17317,5.42353L140.9134,44.58a23.03708,23.03708,0,0,0,.6889,9.108l2.077,7.25874-3.52181-6.67847a1.119,1.119,0,0,0-.06341-.10654l-.40961.28115-.44692-.6234a21.19151,21.19151,0,0,0-2.03112-2.4293l.91087,4.48185-2.56408-4.91036a7.69566,7.69566,0,0,0-1.29179-1.81057c-.83626-.84724-1.71311-1.66113-2.62024-2.43233l1.12208,1.746-3.51666-2.66524a62.399,62.399,0,0,0-7.10835-4.57976,51.49681,51.49681,0,0,0,2.6526,7.33406l1.79288,3.89994-1.49563-1.477c.52691.97547,1.10487,1.939,1.72711,2.87951a7.93955,7.93955,0,0,0,1.532,1.66112l4.82525,4.01884L128.43673,57.269a21.21894,21.21894,0,0,0,4.82646,4.98262L132.619,63.314l-.08093.609-.02726-.00444,3.54511,2.64122-5.8576-2.44144a6.3273,6.3273,0,0,0-1.18433-.36555l.55906.183-5.02112-.01143a43.17281,43.17281,0,0,0-4.78515.28978A39.47338,39.47338,0,0,0,123.8579,66.463l4.41752,2.07239-.508-.06154a6.54046,6.54046,0,0,0,1.12025.14313l6.69337.29725-4.56714.86982a16.404,16.404,0,0,0,3.29891.36279l4.845.03171-2.83331.91949,4.3529.75653-6.70314.40263q-.15988.0094-.31362.02912l-3.07555,1.50377c-.78868.38582-1.52493.80455-2.20476,1.224.84373.06527,1.752.10533,2.672.08879l3.50477-.06247c.09534-.034.19116-.072.28676-.1133l5.79815-2.52419-2.92522,2.25562a10.22228,10.22228,0,0,0,1.148-.49125s.45648.26324.54367.33643a2.13739,2.13739,0,0,0,.24594-.05363,10.34756,10.34756,0,0,0,2.54055-1.48322,10.67854,10.67854,0,0,1,2.84892-1.62569,7.11387,7.11387,0,0,1,.9974-.18648,2.71575,2.71575,0,0,1-1.31377-.81927C144.09341,69.70156,143.85094,68.846,144.462,68.66525Z"/><polygon class="cls-6" points="164.219 80.514 167.269 80.514 167.269 87.956 169.099 87.956 169.099 80.514 172.149 80.514 172.149 78.806 164.219 78.806 164.219 80.514"/><polygon class="cls-7" points="121.897 84.54 116.163 78.806 115.553 78.806 115.553 87.956 117.383 87.956 117.383 82.283 123.056 87.956 123.727 87.956 123.727 78.806 121.897 78.806 121.897 84.54"/><polygon class="cls-8" points="140.228 83.32 136.263 78.806 135.653 78.806 135.653 87.956 137.483 87.956 137.483 82.65 140.228 85.699 142.972 82.65 142.979 87.956 144.809 87.956 144.809 78.806 144.199 78.806 140.228 83.32"/><path class="cls-9" d="M130.632,78.80644h-1.82991l-3.66005,9.15h1.95184l.549-1.403h4.148l.54928,1.403,1.94574-.00627Zm-2.25678,5.91705,1.39065-3.47725,1.35409,3.47725Z"/><path class="cls-10" d="M181.52171,76.04009V77.701h-.3299V76.04009h-.61791v-.29643h1.56845v.29643Zm2.62075,1.66088-.00273-1.46235-.61791,1.25813h-.21538l-.6179-1.25813V77.701h-.31032V75.74366h.39137l.64591,1.30025.64318-1.30025h.38864V77.701Z"/><path class="cls-11" d="M130.95,94.51791a1.29109,1.29109,0,0,1-.73959,2.40064l-2.55826-.003V92.37189h2.41276q1.149.0669,1.21245,1.33672A.95156.95156,0,0,1,130.95,94.51791Zm-2.38549-.32432h1.27307a.5131.5131,0,0,0,.56379-.56682q-.01494-.33321-.5547-.35161h-1.28216Zm0,2.01265h1.48525a.59336.59336,0,0,0,.65472-.65775q-.01494-.43649-.64563-.45467h-1.49434Z"/><path class="cls-11" d="M132.223,92.36886h1.067l1.05483,1.48524,1.07907-1.48524h1.0427l-1.66711,2.27333v2.27333h-.90933V94.64219Z"/><path class="cls-11" d="M142.82585,96.91552h-3.64036l.003-.30311,2.11874-3.39484h-2.11874l-.003-.84871h3.64036v.33342L140.698,96.06681h2.12784Z"/><path class="cls-11" d="M143.96814,96.91552V92.37189l3.34028-.003v.84871h-2.431v.97h1.8217v.84568h-1.8217v1.03361h2.42489v.84871Z"/><path class="cls-11" d="M148.22382,96.91552V92.36886h.30311l2.84924,2.84924V92.36886h.90933v4.54666h-.33342l-2.81893-2.81893v2.81893Z"/><path class="cls-11" d="M152.98872,96.91552l1.81866-4.54666h.90933l1.8152,4.54363-.96649.003-.2728-.69715h-2.06115l-.2728.69715Zm2.29758-3.33422-.6911,1.72773h1.364Z"/><path class="cls-11" d="M161.43944,94.51791a1.29123,1.29123,0,0,1-.73959,2.40064l-2.55825-.003V92.37189h2.41276q1.14836.0669,1.21244,1.33672A.95393.95393,0,0,1,161.43944,94.51791Zm-2.38591-.32432h1.27306a.51272.51272,0,0,0,.56379-.56682c-.00953-.22214-.19486-.33949-.55426-.35161h-1.28259Zm0,2.01265h1.48524a.593.593,0,0,0,.65472-.65775q-.01428-.43649-.64519-.45467h-1.49477Z"/><path class="cls-11" d="M162.97925,92.36583h.90587v4.54969h-.90587Z"/><path class="cls-11" d="M167.25917,92.52041a2.11074,2.11074,0,0,1,.65126.45467l-.60623.60622a1.04343,1.04343,0,0,0-.84871-.36373q-.54559,0-.69715.25764a.35626.35626,0,0,0,0,.43951,1.19889,1.19889,0,0,0,.69715.2728,2.25562,2.25562,0,0,1,1.04617.37889,1.13942,1.13942,0,0,1,.46939,1.01542,1.1662,1.1662,0,0,1-.50143.93965,1.836,1.836,0,0,1-1.16828.394,2.69493,2.69493,0,0,1-1.05829-.18187,2.304,2.304,0,0,1-.72746-.485l.60622-.60622a1.44137,1.44137,0,0,0,1.03057.42435q.60666,0,.75605-.25764a.47819.47819,0,0,0,0-.51529q-.14938-.25786-.75605-.31827a2.44263,2.44263,0,0,1-1.00026-.33342,1.00585,1.00585,0,0,1-.45467-.93964,1.13072,1.13072,0,0,1,.517-.96823,1.81962,1.81962,0,0,1,1.06262-.36546A2.54354,2.54354,0,0,1,167.25917,92.52041Z"/><rect class="cls-11" x="115.55268" y="94.57704" width="8.17418" height="0.99532"/><rect class="cls-11" x="172.03314" y="94.57704" width="8.17418" height="0.99532"/><rect class="cls-12" x="94.03852" y="193.49251" width="110.20413" height="25.86043"/><path class="cls-13" d="M114.92348,203.69863v3.15995a1.09339,1.09339,0,0,0,.36322.908,1.56408,1.56408,0,0,0,1.81606,0,1.09341,1.09341,0,0,0,.36321-.908v-3.15995h1.08964v3.45052a1.80468,1.80468,0,0,1-.67194,1.41653,2.74481,2.74481,0,0,1-3.37788,0,1.80468,1.80468,0,0,1-.67194-1.41653v-3.45052Z"/><path class="cls-14" d="M120.3271,209.14682v-5.44819h.36321l3.4142,3.4142v-3.4142h1.08963v5.44819h-.39887l-3.37854-3.37788v3.37788Z"/><path class="cls-15" d="M127.43285,208.36426a2.72518,2.72518,0,0,1,1.93758-4.66563,2.94866,2.94866,0,0,1,2.00163.72643l-.72643.79543a2.011,2.011,0,0,0-1.2752-.43585,1.55279,1.55279,0,0,0-1.6305,1.61993,1.63076,1.63076,0,0,0,.45369,1.20586,1.60813,1.60813,0,0,0,1.18407.44675,1.95346,1.95346,0,0,0,1.26794-.43222l.72643.79544a2.93925,2.93925,0,0,1-2.00163.72642A2.65089,2.65089,0,0,1,127.43285,208.36426Z"/><path class="cls-16" d="M133.64511,208.36426a2.806,2.806,0,1,1,1.94352.78256A2.64136,2.64136,0,0,1,133.64511,208.36426Zm1.94682-.23443a1.52977,1.52977,0,0,0,1.17681-.49034,1.85852,1.85852,0,0,0,0-2.43353,1.66607,1.66607,0,0,0-2.36088,0,1.85644,1.85644,0,0,0,0,2.43353A1.53861,1.53861,0,0,0,135.59193,208.12983Z"/><path class="cls-17" d="M140.54483,203.69863l1.54794,3.99171,1.57569-3.99171h1.16228l-2.17532,5.44819h-1.08964l-2.18323-5.44819Z"/><path class="cls-18" d="M146.31661,209.14682v-5.44456l4.00326-.00363v1.017h-2.91363v1.16228h2.18324v1.01336h-2.18324v1.23856h2.9057v1.017Z"/><path class="cls-19" d="M155.29126,206.77141l1.35841,2.37541h-1.24945l-1.3036-2.25192h-.99586v2.25192h-1.08964v-5.44819h2.37607q1.90587,0,1.90653,1.56908A1.409,1.409,0,0,1,155.29126,206.77141Zm-2.1905-.8935h1.52549q.65774-.01091.67623-.5993-.01881-.53739-.665-.55935h-1.53671Z"/><path class="cls-20" d="M160.94879,209.14682v-5.44819h.36321l2.36154,2.68778,2.36419-2.68778h.36321v5.44819H165.3113l-.004-3.15995-1.6338,1.81606-1.63511-1.81606v3.15995Z"/><path class="cls-21" d="M168.58682,208.36426a2.806,2.806,0,1,1,1.94352.78256A2.64136,2.64136,0,0,1,168.58682,208.36426Zm1.94682-.23443a1.52977,1.52977,0,0,0,1.17681-.49034,1.85852,1.85852,0,0,0,0-2.43353,1.66609,1.66609,0,0,0-2.36089,0,1.85648,1.85648,0,0,0,0,2.43353A1.53864,1.53864,0,0,0,170.53364,208.12983Z"/><path class="cls-22" d="M177.93855,206.77141l1.35842,2.37541h-1.24946l-1.3036-2.25192h-.99586v2.25192h-1.08964v-5.44819h2.37607q1.90588,0,1.90654,1.56908A1.409,1.409,0,0,1,177.93855,206.77141Zm-2.1905-.8935h1.52549q.65775-.01091.67624-.5993-.01883-.53739-.665-.55935h-1.53672Z"/><path class="cls-23" d="M180.44406,209.14682v-5.44456l4.00326-.00363v1.017h-2.91363v1.16228h2.18324v1.01336h-2.18324v1.23856h2.90571v1.017Z"/></svg>