<svg id="Layer_1" data-name="Layer 1" xmlns="http://www.w3.org/2000/svg" width="300" height="250" viewBox="0 0 300 250"><defs><style>.cls-1{fill:#ab9555;}</style></defs><title>frame3</title><path class="cls-1" d="M91.95972,138.87914,94.988,149.05492V138.87914h2.28125v15.14062h-2.4502l-3.13964-9.69531v9.69531H89.39722V138.87914Z"/><path class="cls-1" d="M104.14722,150.54222l-.55371,3.47754h-2.377l2.57227-15.1289h3.13867l2.53614,15.1289h-2.39942l-.53418-3.47754Zm1.19922-8.18554-.84571,5.96386h1.69043Z"/><path class="cls-1" d="M115.70484,154.01976h-2.28223V138.87914H116.698l2.126,10.876,2.042-10.876h3.14551v15.14062h-2.28125v-9.51465l-1.98047,9.51465h-1.835l-2.21-9.49023Z"/><path class="cls-1" d="M130.88941,150.54222l-.55371,3.47754h-2.377l2.57227-15.1289h3.13867l2.53613,15.1289H133.8064l-.53418-3.47754Zm1.19922-8.18554-.84571,5.96386h1.69043Z"/><path class="cls-1" d="M147.0232,150.25316a4.25309,4.25309,0,0,1-.82129,2.7041,2.95284,2.95284,0,0,1-1.56934,1.07422,4.2572,4.2572,0,0,1-1.26758.169,3.58486,3.58486,0,0,1-2.22168-.66407,3.69787,3.69787,0,0,1-1.165-1.47851,5.94993,5.94993,0,0,1-.501-2.14356l2.17285-.15625a3.30363,3.30363,0,0,0,.70019,1.917,1.16693,1.16693,0,0,0,.94239.4248,1.41421,1.41421,0,0,0,1.19531-.7373,1.8342,1.8342,0,0,0,.22949-1.00293,2.78638,2.78638,0,0,0-.85742-1.87305q-.67675-.64014-2.02832-1.9209a8.68517,8.68517,0,0,1-1.60645-1.9707,4.55576,4.55576,0,0,1-.50683-2.12695,3.69968,3.69968,0,0,1,1.38867-3.12989,3.452,3.452,0,0,1,2.125-.63965,3.86414,3.86414,0,0,1,2.08887.543,3.1478,3.1478,0,0,1,1.09277,1.1836,4.38892,4.38892,0,0,1,.501,1.75l-2.18555.39843a2.63112,2.63112,0,0,0-.53125-1.44824,1.11325,1.11325,0,0,0-.90527-.375,1.04393,1.04393,0,0,0-.9541.55567,2.145,2.145,0,0,0-.26563,1.11132,3.33023,3.33023,0,0,0,.89355,2.11231,7.5507,7.5507,0,0,0,1.01465.96582q.79688.665,1.04981.92969a7.74512,7.74512,0,0,1,1.30371,1.666,6.32831,6.32831,0,0,1,.35058.71289A4.13243,4.13243,0,0,1,147.0232,150.25316Z"/><path class="cls-1" d="M153.0603,141.1848h-2.42773v-2.29394h7.12305v2.29394h-2.41407v12.835H153.0603Z"/><path class="cls-1" d="M161.63159,154.01976V138.87914h6.49512v2.29394h-4.21387V145.302H166.992v2.29492h-3.07911v4.12891h4.21387v2.29394Z"/><path class="cls-1" d="M171.73609,151.75023h2.28125v2.28125h-2.28125Z"/><path class="cls-1" d="M181.24976,154.21312a3.606,3.606,0,0,1-3.62207-3.61035V142.344a3.61574,3.61574,0,1,1,7.23144,0v1.72656h-2.36621v-1.77441a1.31868,1.31868,0,0,0-1.31543-1.31641,1.24637,1.24637,0,0,0-.92383.38672,1.277,1.277,0,0,0-.38086.92969v8.28223a1.30036,1.30036,0,0,0,1.30469,1.30468,1.27846,1.27846,0,0,0,.92969-.38086,1.2491,1.2491,0,0,0,.38574-.92382v-2.08887h2.36621v2.11328a3.60757,3.60757,0,0,1-3.60937,3.61035Z"/><path class="cls-1" d="M192.34448,138.69847a3.61594,3.61594,0,0,1,3.62207,3.62207v8.25782a3.61574,3.61574,0,1,1-7.23144,0v-8.25782a3.616,3.616,0,0,1,3.60937-3.62207Zm1.24415,3.57325a1.2987,1.2987,0,0,0-1.30372-1.30371,1.27826,1.27826,0,0,0-.92968.37988,1.24785,1.24785,0,0,0-.38672.92383v8.2832a1.24418,1.24418,0,0,0,.38672.92285,1.27528,1.27528,0,0,0,.92968.38086,1.30035,1.30035,0,0,0,1.30372-1.30371Z"/><path class="cls-1" d="M202.29273,154.01976h-2.28125V138.87914h3.27441l2.12695,10.876,2.041-10.876h3.14648v15.14062h-2.28222v-9.51465l-1.98047,9.51465h-1.835l-2.21-9.49023Z"/></svg>