<svg id="Content" xmlns="http://www.w3.org/2000/svg" xmlns:xlink="http://www.w3.org/1999/xlink" width="640" height="100" viewBox="0 0 640 100"><defs><style>.cls-1{fill:url(#New_Gradient_Swatch_1);}.cls-2{fill:url(#linear-gradient);}.cls-3{fill:url(#linear-gradient-2);}.cls-4{fill:url(#linear-gradient-3);}.cls-5{fill:url(#linear-gradient-4);}.cls-6{fill:url(#linear-gradient-5);}.cls-7{fill:url(#linear-gradient-6);}.cls-8{fill:url(#linear-gradient-7);}.cls-9{fill:url(#New_Gradient_Swatch_2);}.cls-10{fill:#a89255;}.cls-11{fill:url(#New_Gradient_Swatch_2-2);}.cls-12{fill:#fff;}</style><linearGradient id="New_Gradient_Swatch_1" x1="92.75104" y1="35.15534" x2="145.60652" y2="35.15534" gradientUnits="userSpaceOnUse"><stop offset="0" stop-color="#a88a34"/><stop offset="0.49324" stop-color="#caaf67"/><stop offset="1" stop-color="#957f2e"/></linearGradient><linearGradient id="linear-gradient" x1="146.4084" y1="149.27699" x2="146.4084" y2="60.62369" gradientUnits="userSpaceOnUse"><stop offset="0" stop-color="#a88a34"/><stop offset="0.49894" stop-color="#caaf67"/><stop offset="1" stop-color="#957f2e"/></linearGradient><linearGradient id="linear-gradient-2" x1="121.851" y1="103.12464" x2="121.851" y2="37.66562" xlink:href="#linear-gradient"/><linearGradient id="linear-gradient-3" x1="130.16876" y1="125.57571" x2="130.16876" y2="39.43184" xlink:href="#linear-gradient"/><linearGradient id="linear-gradient-4" x1="138.26569" y1="127.53825" x2="138.26569" y2="52.13448" xlink:href="#linear-gradient"/><linearGradient id="linear-gradient-5" x1="92.63163" y1="74.67569" x2="92.63163" y2="1.82045" xlink:href="#linear-gradient"/><linearGradient id="linear-gradient-6" x1="111.988" y1="93.08102" x2="111.988" y2="28.00341" xlink:href="#linear-gradient"/><linearGradient id="linear-gradient-7" x1="102.10184" y1="83.36227" x2="102.10184" y2="17.90347" xlink:href="#linear-gradient"/><linearGradient id="New_Gradient_Swatch_2" x1="149.91255" y1="60.44355" x2="153.55375" y2="60.44355" gradientUnits="userSpaceOnUse"><stop offset="0" stop-color="#a88a34"/><stop offset="0.1878" stop-color="#caaf67"/><stop offset="0.46098" stop-color="#a08a4a"/><stop offset="0.76341" stop-color="#caaf67"/><stop offset="1" stop-color="#957f2e"/></linearGradient><linearGradient id="New_Gradient_Swatch_2-2" x1="520.84949" y1="60.3128" x2="697.17729" y2="35.39281" xlink:href="#New_Gradient_Swatch_2"/></defs><title>CTA1</title><path class="cls-1" d="M115.96566,52.86953c.5744-.16941,1.61633.80455,1.684.80455a1.24292,1.24292,0,0,0,.34735-.80212c0-.34389-.24545-1.01276-.29147-1.41754a6.74166,6.74166,0,0,0-.24482-1.17272c-.08961-.26651-.71246-.38267-1.04669-.58891a5.4594,5.4594,0,0,1-.84334-.58385,2.66769,2.66769,0,0,1-.35856-1.22355,4.81054,4.81054,0,0,0-.20117-1.24549c-.11637-.21806-.41553-.37214-.61784-.57444a.86987.86987,0,0,1-.20841-.53541c.15516-.04845.2036.35132.38288.3853s.1672.18166.44817.27855c.28119.09685.29084.23032.32721.492s.35132,1.146.45544,1.50695c.10433.36119.21322.63271.5696.64475.35613.01208.30768.19617.72672.16243a2.34638,2.34638,0,0,1,1.00573.1937c.2253.08.50891.08724.60575-.0701.0969-.15758-.06792-.79251-.06792-.79251-.14529,0-.16966-.19612-.2253-.37782-.05567-.18191.03394-.19638.03394-.19638a.76792.76792,0,1,1,1.4636,0s.08962.01447.03394.19638c-.05588.1817-.08.37782-.2255.37782,0,0-.16461.63493-.06772.79251.09685.15734.38046.1501.60576.0701a2.346,2.346,0,0,1,1.00552-.1937c.41925.03374.3708-.15035.72693-.16243.35638-.012.46531-.28356.56939-.64475.10433-.361.41924-1.24528.45565-1.50695s.046-.39517.32721-.492c.281-.09689.26889-.24456.44817-.27855s.22793-.43375.38288-.3853a.87132.87132,0,0,1-.20841.53541c-.20231.2023-.50147.35638-.61784.57444a4.81047,4.81047,0,0,0-.20118,1.24549,2.66758,2.66758,0,0,1-.35855,1.22355,5.46187,5.46187,0,0,1-.84334.58385c-.33444.20624-.95708.3224-1.0467.58891a6.7149,6.7149,0,0,0-.24481,1.17272c-.046.40478-.29147,1.07365-.29147,1.41754a1.24292,1.24292,0,0,0,.34735.80212c.06772,0,1.10985-.974,1.684-.80455.5742.16987.34647.97417-.24962,1.57006a2.553,2.553,0,0,1-1.235.77015,6.689,6.689,0,0,1,.93759.17531,10.03683,10.03683,0,0,1,2.67812,1.52822,9.73089,9.73089,0,0,0,2.388,1.3943,2.03908,2.03908,0,0,0,.231.05066c.082-.06864.5115-.31651.5115-.31651a9.60783,9.60783,0,0,0,1.07917.4618l-2.74984-2.12039,5.45078,2.37286c.08962.03879.1797.07453.26936.1065l3.29461.05873c.86483.0158,1.71891-.02211,2.5118-.08347-.639-.39429-1.33118-.78792-2.073-1.15061l-2.89071-1.41361c-.09622-.01224-.19462-.02148-.29456-.02737l-6.30111-.3785,4.09436-.71163-2.65425-.8639,4.54253-.02981a15.41962,15.41962,0,0,0,3.10117-.341l-4.29341-.81767,6.29212-.27943a6.17577,6.17577,0,0,0,1.0533-.13434l-.47776.05785,4.15266-1.94835a37.10671,37.10671,0,0,0,3.84582-2.114,40.58076,40.58076,0,0,0-4.49826-.27241l-4.71984.01074.52575-.172a5.91082,5.91082,0,0,0-1.11378.34363l-5.50621,2.29486,3.33215-2.48267-.02542.00418-.07607-.57248-.60555-.99871a19.9515,19.9515,0,0,0,4.5371-4.68389l-4.45183,2.13134,4.536-3.7779a7.47074,7.47074,0,0,0,1.44032-1.56153c.58494-.8841,1.128-1.78988,1.62335-2.70688l-1.406,1.38841,1.68535-3.66613a48.41588,48.41588,0,0,0,2.49361-6.89436,58.68853,58.68853,0,0,0-6.68218,4.30519L133.3953,33.8753l1.05242-1.64c-.85362.72588-1.679,1.49206-2.46665,2.29a7.2297,7.2297,0,0,0-1.21456,1.702l-2.41014,4.616.856-4.21315a19.919,19.919,0,0,0-1.90934,2.28366l-.42013.586-.38505-.26429a1.102,1.102,0,0,0-.05961.10015l-3.31041,6.27766,1.95227-6.82314a21.65906,21.65906,0,0,0,.6476-8.56265l-2.27969,4.23685,1.10413-5.09683a8.29759,8.29759,0,0,0,.17246-2.54336,41.06023,41.06023,0,0,0-.876-5.14523l-.30045,2.50168-.98972-3.64723a62.05707,62.05707,0,0,0-3.37968-9.14759,61.99561,61.99561,0,0,0-3.37971,9.14759l-.98952,3.64723-.30066-2.50168a41.09857,41.09857,0,0,0-.876,5.14523,8.30192,8.30192,0,0,0,.17246,2.54357l1.10283,5.09837-2.27839-4.23793a21.65577,21.65577,0,0,0,.64759,8.562L115.23,45.61377l-3.31067-6.27807a1.05363,1.05363,0,0,0-.0596-.10015l-.38506.26429-.42012-.586a19.92082,19.92082,0,0,0-1.90935-2.28366l.85626,4.21315-2.41035-4.616a7.23417,7.23417,0,0,0-1.21435-1.702c-.78612-.79644-1.6104-1.56153-2.46314-2.2865l1.0548,1.64129-3.30582-2.50545a58.65977,58.65977,0,0,0-6.68219-4.30519,48.40921,48.40921,0,0,0,2.49358,6.89436L99.15932,37.63l-1.406-1.38841c.49533.917,1.03863,1.82278,1.62357,2.70688A7.46368,7.46368,0,0,0,100.817,40.51l4.536,3.7779-4.45182-2.13134a19.94656,19.94656,0,0,0,4.5371,4.68389l-.60555.99871-.07607.57248-.02563-.00418,3.33257,2.48288-5.50642-2.29507a5.947,5.947,0,0,0-1.11332-.34363l.52554.172-4.72009-.01074a40.584,40.584,0,0,0-4.49827.27241,37.10878,37.10878,0,0,0,3.84582,2.114l4.15267,1.94814-.47755-.05785a6.149,6.149,0,0,0,1.05309.13455l6.29207.27943-4.29332.81767a15.42089,15.42089,0,0,0,3.10113.341l4.55456.02981-2.66344.86436,4.09193.71117-6.30127.3785q-.15028.00883-.29481.02737l-2.89117,1.41361c-.74139.36269-1.4335.75632-2.07257,1.15061.79314.06136,1.647.099,2.5118.08347l3.29465-.05873c.08962-.032.1797-.06771.26957-.1065l5.45053-2.37286-2.74985,2.12039a9.6072,9.6072,0,0,0,1.07918-.4618s.42911.24746.51108.31626a2.0101,2.0101,0,0,0,.23119-.05041,9.72741,9.72741,0,0,0,2.38824-1.3943,10.03816,10.03816,0,0,1,2.67811-1.52822,6.68829,6.68829,0,0,1,.9376-.17531,2.55288,2.55288,0,0,1-1.235-.77015C115.61918,53.8437,115.39125,53.0394,115.96566,52.86953Z"/><polygon class="cls-2" points="149.568 64.008 149.568 62.403 143.249 62.408 143.249 71.004 149.557 71.004 149.557 69.399 144.969 69.399 144.969 67.443 148.416 67.443 148.416 65.843 144.969 65.843 144.969 64.008 149.568 64.008"/><path class="cls-3" d="M120.99373,62.40272l-3.44057,8.60138h1.83477l.51613-1.31887h3.89932l.51613,1.31887,1.82933-.00587-3.4347-8.59551Zm-.40129,5.5623L121.9,64.69624l1.27286,3.26878Z"/><path class="cls-4" d="M132.54853,66.56006a4.26532,4.26532,0,0,0-1.97834-.71666,2.26734,2.26734,0,0,1-1.31893-.51632.67112.67112,0,0,1,0-.83154q.287-.48714,1.31893-.48717a1.97532,1.97532,0,0,1,1.60579.688l1.14662-1.1469a4.0126,4.0126,0,0,0-1.23276-.86018,4.8003,4.8003,0,0,0-1.85806-.28667,3.443,3.443,0,0,0-2.00972.691,2.14025,2.14025,0,0,0-.97769,1.83219,1.90328,1.90328,0,0,0,.86,1.77762,4.62218,4.62218,0,0,0,1.89244.63075q1.14663.11473,1.43068.602a.90877.90877,0,0,1,0,.975q-.28374.48718-1.43068.48717a2.72416,2.72416,0,0,1-1.94968-.80274l-1.1471,1.147a4.34047,4.34047,0,0,0,1.37634.91745,5.09374,5.09374,0,0,0,2.00138.34385,3.47349,3.47349,0,0,0,2.21047-.74537,2.20474,2.20474,0,0,0,.94918-1.77759A2.153,2.153,0,0,0,132.54853,66.56006Z"/><polygon class="cls-5" points="134.538 64.008 137.405 64.008 137.405 71.004 139.126 71.004 139.126 64.008 141.993 64.008 141.993 62.403 134.538 62.403 134.538 64.008"/><polygon class="cls-6" points="94.753 67.793 89.363 62.403 88.79 62.403 88.79 71.004 90.51 71.004 90.51 65.671 95.843 71.004 96.474 71.004 96.474 62.403 94.753 62.403 94.753 67.793"/><polygon class="cls-7" points="111.985 66.646 108.258 62.403 107.684 62.403 107.684 71.004 109.405 71.004 109.405 66.015 111.985 68.882 114.565 66.015 114.571 71.004 116.292 71.004 116.292 62.403 115.718 62.403 111.985 66.646"/><path class="cls-8" d="M101.24461,62.40272,97.804,71.0041h1.83484l.51612-1.31887h3.89932l.51636,1.31887,1.82907-.00587-3.43489-8.59551Zm-.40129,5.5623,1.30728-3.26878,1.27292,3.26878Z"/><path class="cls-9" d="M150.80354,59.80222v1.56131h-.31012V59.80222h-.58087v-.27866H151.387v.27866Zm2.46363,1.56131-.00256-1.37468-.58087,1.1827h-.20246l-.58087-1.1827v1.37468h-.29171v-1.84h.36791l.60718,1.2223.60462-1.2223h.36534v1.84Z"/><path class="cls-10" d="M103.26373,77.17224a1.21368,1.21368,0,0,1-.69524,2.25671l-2.40488-.00285V75.15488h2.26811q1.08011.06289,1.13975,1.25658A.89449.89449,0,0,1,103.26373,77.17224Zm-2.24246-.30488H102.218a.48235.48235,0,0,0,.53-.53284q-.01405-.31323-.52144-.33053h-1.20529Zm0,1.892h1.3962a.55778.55778,0,0,0,.61546-.61832q-.014-.41031-.60691-.42741h-1.40475Z"/><path class="cls-10" d="M104.46048,75.152h1.003l.99158,1.3962,1.01438-1.3962h.98019l-1.56716,2.137v2.137h-.85481v-2.137Z"/><path class="cls-10" d="M114.42762,79.4261h-3.42211l.00285-.28493,1.99172-3.19131h-1.99172l-.00285-.79783h3.42211v.31343l-2.00027,3.16282h2.00027Z"/><path class="cls-10" d="M115.50143,79.4261V75.15488l3.14-.00285v.79783h-2.28521v.9118h1.71248v.795h-1.71248v.97164h2.27951v.79782Z"/><path class="cls-10" d="M119.502,79.4261V75.152h.28494l2.67842,2.67842V75.152h.85482V79.4261h-.31344l-2.64992-2.64992V79.4261Z"/><path class="cls-10" d="M123.98119,79.4261l1.70963-4.27407h.85482l1.70637,4.27122-.90855.00285-.25644-.65535h-1.93758l-.25645.65535Zm2.15983-3.13432-.64965,1.62415h1.28222Z"/><path class="cls-10" d="M131.92527,77.17224A1.21382,1.21382,0,0,1,131.23,79.429l-2.40488-.00285V75.15488h2.26811q1.0795.06289,1.13976,1.25658A.89675.89675,0,0,1,131.92527,77.17224Zm-2.24287-.30488h1.19674a.482.482,0,0,0,.53-.53284c-.009-.20882-.18318-.31913-.521-.33053h-1.2057Zm0,1.892h1.3962a.55743.55743,0,0,0,.61546-.61832q-.01343-.41031-.60651-.42741H129.6824Z"/><path class="cls-10" d="M133.37276,75.14918h.85156V79.4261h-.85156Z"/><path class="cls-10" d="M137.39609,75.2945a1.984,1.984,0,0,1,.61221.42741l-.56988.56987a.9809.9809,0,0,0-.79783-.34192q-.51288,0-.65535.24219a.33489.33489,0,0,0,0,.41316,1.127,1.127,0,0,0,.65535.25645,2.12054,2.12054,0,0,1,.98345.35617,1.07113,1.07113,0,0,1,.44125.95455,1.09627,1.09627,0,0,1-.47137.8833,1.72584,1.72584,0,0,1-1.09824.37042,2.53337,2.53337,0,0,1-.99484-.171,2.16579,2.16579,0,0,1-.68385-.4559l.56988-.56988a1.35493,1.35493,0,0,0,.96879.39892q.57027,0,.71071-.2422a.44951.44951,0,0,0,0-.4844q-.14043-.2424-.71071-.29918a2.29636,2.29636,0,0,1-.9403-.31343.94555.94555,0,0,1-.42741-.88331,1.06292,1.06292,0,0,1,.486-.91018,1.71045,1.71045,0,0,1,.99891-.34355A2.3909,2.3909,0,0,1,137.39609,75.2945Z"/><rect class="cls-10" x="88.78957" y="77.22782" width="7.68412" height="0.93565"/><rect class="cls-10" x="141.88384" y="77.22782" width="7.68412" height="0.93565"/><polygon class="cls-11" points="643.496 33.83 551.52 33.83 541.088 49.477 551.52 65.128 643.496 65.128 643.496 33.83"/><path class="cls-12" d="M557.64355,46.56934V52.3291h3.77735v1.32227h-5.19434v-7.082Z"/><path class="cls-12" d="M562.56738,53.65137V46.57422l5.20313-.00488v1.32177h-3.78613v1.51172h2.83789v1.31641h-2.83789V52.3291h3.77734v1.32227Z"/><path class="cls-12" d="M568.82422,53.65137l2.833-7.082h1.416l2.82813,7.07714-1.50586.00489-.42481-1.08594h-3.21093l-.42481,1.08594Zm3.5791-5.19287-1.07715,2.68994h2.125Z"/><path class="cls-12" d="M581.22363,50.564l1.76563,3.08741h-1.624l-1.69531-2.92725H578.376v2.92725H576.96v-7.082h3.08789q2.47852,0,2.47852,2.03955A1.832,1.832,0,0,1,581.22363,50.564ZM578.376,49.40283h1.9834q.854-.01464.87792-.77929-.02343-.69874-.86425-.72754H578.376Z"/><path class="cls-12" d="M583.72559,53.65137v-7.082h.47168l4.43847,4.4375v-4.4375h1.417v7.082h-.51953l-4.3916-4.39014v4.39014Z"/><path class="cls-12" d="M594.8252,53.65137v-7.082h.47168l3.06933,3.49365,3.07324-3.49365h.47266v7.082h-1.417l-.00391-4.10694-2.125,2.35987-2.125-2.35987v4.10694Z"/><path class="cls-12" d="M603.98047,52.63379a3.64623,3.64623,0,1,1,2.52539,1.01758A3.4315,3.4315,0,0,1,603.98047,52.63379Zm2.53027-.30469a1.98713,1.98713,0,0,0,1.53028-.63769,2.41457,2.41457,0,0,0,0-3.1626,2.16549,2.16549,0,0,0-3.06934,0,2.41457,2.41457,0,0,0,0,3.1626A1.99745,1.99745,0,0,0,606.51074,52.3291Z"/><path class="cls-12" d="M615.36426,50.564l1.76562,3.08741h-1.624l-1.69531-2.92725H612.5166v2.92725h-1.416v-7.082h3.08789q2.47851,0,2.47851,2.03955A1.832,1.832,0,0,1,615.36426,50.564Zm-2.84766-1.16113H614.5q.854-.01464.87793-.77929-.02344-.69874-.86426-.72754H612.5166Z"/><path class="cls-12" d="M617.84668,53.65137V46.57422l5.20312-.00488v1.32177h-3.78613v1.51172h2.83789v1.31641h-2.83789V52.3291H623.041v1.32227Z"/></svg>