<?xml version="1.0" encoding="utf-8"?>
<!-- Generator: Adobe Illustrator 23.0.1, SVG Export Plug-In . SVG Version: 6.00 Build 0)  -->
<svg version="1.1" id="Layer_2" xmlns="http://www.w3.org/2000/svg" xmlns:xlink="http://www.w3.org/1999/xlink" x="0px" y="0px"
	 viewBox="0 0 728 90" enable-background="new 0 0 728 90" xml:space="preserve">
<g>
	<g>
		<polygon fill="#FFFFFF" stroke="#BA9544" stroke-width="0.5" stroke-miterlimit="10" points="445.92,21.35 314.99,20.85 
			308.38,30.38 314.99,39.74 445.92,39.52 451.87,30.43 		"/>
		<polygon fill="#BA9544" points="315.09,20.85 308.48,30.38 315.09,39.74 335.15,39.74 335.22,20.85 		"/>
	</g>
	<g>
		<path fill="#BA9544" d="M389.93,27.26v1.2h-2.14v5.21h-1.28v-5.21h-2.14v-1.2H389.93z"/>
		<path fill="#BA9544" d="M390.88,33.67v-6.41h1.28v2.56h2.99v-2.57h1.28v6.41l-1.28,0v-2.65h-2.99v2.65H390.88z"/>
		<path fill="#BA9544" d="M398.42,32.75c-0.61-0.61-0.92-1.38-0.92-2.3c0-0.9,0.31-1.66,0.92-2.27c0.61-0.61,1.37-0.92,2.28-0.92
			c0.92,0,1.7,0.28,2.35,0.85l-0.85,0.94c-0.44-0.34-0.94-0.51-1.5-0.51c-0.58,0-1.04,0.18-1.39,0.54
			c-0.35,0.36-0.53,0.81-0.53,1.37c0,0.6,0.18,1.07,0.53,1.42c0.35,0.35,0.82,0.53,1.39,0.53s1.07-0.17,1.49-0.51l0.85,0.94
			c-0.65,0.57-1.44,0.85-2.35,0.85C399.79,33.67,399.03,33.36,398.42,32.75z"/>
		<path fill="#BA9544" d="M404.49,29.58c0.11-0.12,0.27-0.17,0.46-0.17c0.21,0,0.36,0.06,0.48,0.17c0.11,0.12,0.17,0.26,0.17,0.43
			s-0.06,0.31-0.17,0.43c-0.11,0.11-0.27,0.17-0.47,0.17c-0.2,0-0.36-0.06-0.47-0.17c-0.11-0.11-0.17-0.26-0.17-0.43
			S404.38,29.7,404.49,29.58z M404.49,32.64c0.11-0.12,0.27-0.17,0.46-0.17c0.21,0,0.36,0.06,0.48,0.17s0.17,0.26,0.17,0.43
			s-0.06,0.31-0.17,0.43s-0.27,0.17-0.47,0.17c-0.2,0-0.36-0.06-0.47-0.17s-0.17-0.26-0.17-0.43S404.38,32.76,404.49,32.64z"/>
		<path fill="#BA9544" d="M411.32,27.26L411.32,27.26l1.28,0v6.41h-1.28v-4.7l-0.85,0.85l-0.85-0.85L411.32,27.26z"/>
		<path fill="#BA9544" d="M413.87,30.55c0-1.03,0.22-1.83,0.66-2.41c0.44-0.58,1.03-0.87,1.77-0.88c0.74,0.02,1.34,0.23,1.79,0.64
			l-0.64,0.85c-0.31-0.17-0.68-0.26-1.1-0.26c-0.37,0-0.67,0.12-0.88,0.36c-0.22,0.24-0.34,0.61-0.37,1.09
			c0.43-0.37,0.86-0.56,1.28-0.56c0.74,0,1.29,0.19,1.65,0.58c0.36,0.38,0.53,0.9,0.53,1.56c0,0.6-0.2,1.1-0.6,1.52
			c-0.4,0.41-0.97,0.62-1.71,0.62c-0.85-0.03-1.47-0.32-1.84-0.87C414.06,32.25,413.87,31.5,413.87,30.55z M415.28,31.54
			c0.03,0.6,0.37,0.91,1.03,0.93c0.66-0.03,1-0.31,1.03-0.85c-0.03-0.71-0.38-1.07-1.07-1.07
			C415.67,30.58,415.34,30.91,415.28,31.54z"/>
		<path fill="#BA9544" d="M419.73,31.96V31.1h2.65v0.85H419.73z"/>
		<path fill="#BA9544" d="M425.79,27.26c0.63,0,1.14,0.16,1.54,0.47s0.6,0.78,0.6,1.41c0,0.74-0.28,1.42-0.85,2.03
			c-0.57,0.62-1.04,1.02-1.41,1.21h2.31v1.28h-4.32v-1.28c0.28,0,0.83-0.36,1.62-1.07c0.8-0.71,1.26-1.22,1.39-1.52
			c0.13-0.3,0.12-0.6-0.02-0.9c-0.14-0.3-0.48-0.45-1.03-0.45c-0.51,0-0.91,0.17-1.2,0.51l-0.85-0.85c0.29-0.28,0.56-0.5,0.83-0.64
			C424.68,27.33,425.14,27.26,425.79,27.26z"/>
		<path fill="#BA9544" d="M429.82,32.75c-0.43-0.61-0.64-1.38-0.64-2.28c0-0.91,0.21-1.67,0.64-2.29c0.43-0.61,1-0.92,1.71-0.92
			c0.72,0,1.29,0.31,1.71,0.92c0.43,0.61,0.64,1.38,0.64,2.29s-0.21,1.67-0.64,2.29c-0.43,0.61-1,0.92-1.71,0.92
			C430.82,33.67,430.25,33.36,429.82,32.75z M431.53,32.47c0.28,0,0.53-0.19,0.74-0.58s0.32-0.86,0.32-1.43s-0.11-1.05-0.32-1.43
			s-0.46-0.58-0.75-0.58c-0.28,0-0.53,0.19-0.74,0.58c-0.21,0.38-0.32,0.86-0.32,1.43s0.11,1.05,0.32,1.43
			C430.99,32.28,431.25,32.47,431.53,32.47z"/>
		<path fill="#BA9544" d="M435.41,29.96c-0.31-0.31-0.46-0.69-0.46-1.15c0-0.46,0.15-0.84,0.46-1.15c0.31-0.31,0.69-0.46,1.15-0.46
			c0.46,0,0.84,0.15,1.14,0.46c0.31,0.31,0.46,0.69,0.46,1.15c0,0.46-0.15,0.84-0.46,1.15s-0.69,0.46-1.14,0.46
			C436.09,30.43,435.71,30.27,435.41,29.96z M436.54,29.66c0.24,0,0.43-0.08,0.59-0.24c0.15-0.16,0.23-0.36,0.23-0.61
			c0-0.24-0.08-0.44-0.23-0.6s-0.35-0.24-0.59-0.24c-0.24,0-0.43,0.08-0.58,0.24s-0.23,0.36-0.23,0.6c0,0.24,0.08,0.44,0.23,0.61
			C436.1,29.58,436.3,29.66,436.54,29.66z M436.2,33.67l3.63-6.41h1.04l-3.62,6.41H436.2z M439.38,33.25
			c-0.31-0.31-0.46-0.68-0.46-1.14c0-0.45,0.15-0.83,0.46-1.14c0.3-0.3,0.68-0.46,1.14-0.46c0.45,0,0.83,0.15,1.14,0.46
			c0.3,0.31,0.46,0.68,0.46,1.14c0,0.45-0.15,0.83-0.46,1.14c-0.31,0.3-0.68,0.46-1.14,0.46C440.06,33.7,439.68,33.55,439.38,33.25z
			 M440.5,32.93c0.23,0,0.42-0.08,0.57-0.24s0.22-0.36,0.22-0.59c0-0.23-0.07-0.43-0.22-0.59s-0.34-0.24-0.58-0.24
			c-0.23,0-0.42,0.08-0.57,0.24c-0.15,0.16-0.22,0.35-0.22,0.59c0,0.24,0.07,0.43,0.22,0.59C440.07,32.85,440.26,32.93,440.5,32.93z
			"/>
	</g>
</g>
<g>
</g>
<g>
</g>
<g>
</g>
<g>
</g>
<g>
</g>
<g>
</g>
<g>
</g>
<g>
</g>
<g>
</g>
<g>
</g>
<g>
</g>
<g>
</g>
<g>
</g>
<g>
</g>
<g>
</g>
</svg>
