<svg id="Content" xmlns="http://www.w3.org/2000/svg" xmlns:xlink="http://www.w3.org/1999/xlink" width="320" height="50" viewBox="0 0 320 50"><defs><style>.cls-1{fill:url(#New_Gradient_Swatch_1);}.cls-2{fill:#fff;}.cls-3{fill:#ba9544;}</style><linearGradient id="New_Gradient_Swatch_1" x1="133.88965" y1="19.20371" x2="153.9163" y2="19.20371" gradientUnits="userSpaceOnUse"><stop offset="0" stop-color="#a88a34"/><stop offset="0.49324" stop-color="#caaf67"/><stop offset="1" stop-color="#957f2e"/></linearGradient></defs><title>diesel</title><polygon class="cls-1" points="151.216 12.462 142.866 9.257 135.156 13.787 133.89 22.64 140.022 29.15 148.934 28.415 153.916 20.988 151.216 12.462"/><path class="cls-2" d="M141.2295,16.81572a.85513.85513,0,0,1,.161-.06607,1.54806,1.54806,0,0,1,.17959-.0456l.01024-.00372,1.75682-.38616a.56857.56857,0,0,1,.375.05769l.2959.28939-.61507.64392-1.96061.43083c-.07816-.35359-.15912-.72208-.20285-.92028m6.09677,4.901-.96495-4.38926a.65792.65792,0,0,0-.73139-.509l.51737-.54342.14236.13492.215-.228a.13963.13963,0,0,0-.00559-.19728l-1.04032-.98263a.13963.13963,0,0,0-.19727.00559l-.21495.228.17122.16192-.69045.72394-.34243-.33406-.02419-.01861a1.30838,1.30838,0,0,0-.98357-.18517l-1.7382.38244a2.54416,2.54416,0,0,0-.30708.0791,1.04619,1.04619,0,0,0-.562.375.607.607,0,0,0-.09119.47363c.054.24194.24193,1.099.35546,1.61352.00186.01117.00372.02233.00651.0335l.96495,4.39019a.65394.65394,0,0,0,.78164.4969l4.23479-.93145a.65736.65736,0,0,0,.50435-.77978"/><path class="cls-3" d="M134.80176,39.6875V36.00488h1.418q1.71825,0,1.71777,1.8418,0,1.84131-1.71777,1.84082Zm1.418-.7334q.97851-.00292.98144-1.10742-.00293-1.103-.98144-1.10352h-.68164V38.9541Z"/><path class="cls-3" d="M138.72754,36.00488h.7334V39.6875h-.7334Z"/><path class="cls-3" d="M140.18945,39.6875V36.00977l2.7041-.00293v.6875h-1.96777v.78515h1.47461v.68457h-1.47461V39h1.96289v.6875Z"/><path class="cls-3" d="M145.626,36.12988a1.69943,1.69943,0,0,1,.52734.36817l-.49023.49023a.84563.84563,0,0,0-.6875-.29394q-.44093,0-.56446.208a.28862.28862,0,0,0,0,.35547.97351.97351,0,0,0,.56446.22168,1.81934,1.81934,0,0,1,.84668.30664.9201.9201,0,0,1,.38085.82129.94437.94437,0,0,1-.40624.76074,1.48772,1.48772,0,0,1-.94629.31934,2.17332,2.17332,0,0,1-.85645-.14746,1.85127,1.85127,0,0,1-.58887-.39258l.49121-.49023a1.16256,1.16256,0,0,0,.834.34277q.49072,0,.6123-.208a.38791.38791,0,0,0,0-.417q-.12158-.20948-.6123-.25781a1.98421,1.98421,0,0,1-.80957-.27051.81317.81317,0,0,1-.36817-.75977.91676.91676,0,0,1,.418-.78418,1.47585,1.47585,0,0,1,.86035-.29589A2.04925,2.04925,0,0,1,145.626,36.12988Z"/><path class="cls-3" d="M146.85059,39.6875V36.00977l2.7041-.00293v.6875h-1.96778v.78515h1.47461v.68457h-1.47461V39h1.96289v.6875Z"/><path class="cls-3" d="M151.03809,36.00684V39H153.001v.6875h-2.69825V36.00684Z"/></svg>