<svg id="Content" xmlns="http://www.w3.org/2000/svg" width="320" height="50" viewBox="0 0 320 50"><defs><style>.cls-1{fill:#fff;stroke:#ba9544;stroke-miterlimit:10;stroke-width:0.5px;}.cls-2{fill:#ba9544;}</style></defs><title>THC - Ultra Sour</title><polygon class="cls-1" points="183.499 10.711 104.942 10.413 100.976 16.132 104.942 21.749 183.499 21.615 187.068 16.164 183.499 10.711"/><polygon class="cls-2" points="104.999 10.413 101.034 16.132 104.999 21.749 119.942 21.749 119.942 10.413 104.999 10.413"/><path class="cls-2" d="M149.90625,14.25781v.71875H148.624v3.12793h-.76953V14.97656h-1.28222v-.71875Z"/><path class="cls-2" d="M150.47754,18.10449V14.25781h.76953v1.53907h1.792v-1.541h.76953v3.8457l-.76953.00293V16.51465h-1.792v1.58984Z"/><path class="cls-2" d="M155.001,17.55176a1.92438,1.92438,0,0,1,1.36816-3.294,2.08319,2.08319,0,0,1,1.41309.51367l-.5127.56153a1.419,1.419,0,0,0-.90039-.30762,1.12811,1.12811,0,0,0-.834.32227,1.11665,1.11665,0,0,0-.31739.82129,1.15035,1.15035,0,0,0,.32129.85058,1.132,1.132,0,0,0,.83594.31543,1.37909,1.37909,0,0,0,.89453-.30469l.5127.56153a2.07539,2.07539,0,0,1-1.41309.51269A1.873,1.873,0,0,1,155.001,17.55176Z"/><path class="cls-2" d="M160.43848,15.65234a.37261.37261,0,0,1,.27734-.10449.38524.38524,0,0,1,.28711.10449.37293.37293,0,0,1,0,.51368.43969.43969,0,0,1-.56445,0,.37293.37293,0,0,1,0-.51368Zm0,1.83594a.37261.37261,0,0,1,.27734-.10449.38524.38524,0,0,1,.28711.10449.37292.37292,0,0,1,0,.51367.43966.43966,0,0,1-.56445,0,.37292.37292,0,0,1,0-.51367Z"/><path class="cls-2" d="M164.53418,14.25781v-.00195h.7666v3.84863h-.7666V15.28418l-.5127.5127-.51367-.5127Z"/><path class="cls-2" d="M168.13867,16.15527c.0459.01758.08789.03516.126.05176a.75417.75417,0,0,1,.39648.76953.98491.98491,0,0,1-.373.8584,1.84428,1.84428,0,0,1-1.91993,0,.98491.98491,0,0,1-.373-.8584.75328.75328,0,0,1,.39746-.76953c.03711-.0166.0791-.03418.125-.05176-.02735-.01269-.05176-.02636-.07422-.03808a.76063.76063,0,0,1-.3457-.73047,1.05486,1.05486,0,0,1,.334-.834,1.51,1.51,0,0,1,1.793,0,1.05486,1.05486,0,0,1,.334.834.76063.76063,0,0,1-.3457.73047C168.19043,16.12891,168.166,16.14258,168.13867,16.15527Zm-.81055-.34863q.33838-.01026.43653-.17676a.412.412,0,0,0,0-.43554.495.495,0,0,0-.43653-.21582.48717.48717,0,0,0-.43359.21582.404.404,0,0,0,0,.43554Q166.98975,15.79688,167.32812,15.80664Zm0,.70508a.57611.57611,0,0,0-.43359.2207.40568.40568,0,0,0,0,.43653.48662.48662,0,0,0,.43359.21484.4944.4944,0,0,0,.43653-.21484.41373.41373,0,0,0,0-.43653A.587.587,0,0,0,167.32812,16.51172Z"/><path class="cls-2" d="M169.333,17.07617v-.50976h1.58984v.50976Z"/><path class="cls-2" d="M172.97168,14.25781a1.44622,1.44622,0,0,1,.92383.28418,1.00753,1.00753,0,0,1,.36035.84473,1.75877,1.75877,0,0,1-.51172,1.2207,3.53378,3.53378,0,0,1-.84473.72754h1.38477v.76953h-2.5918V17.335q.25635,0,.97364-.64062a3.68481,3.68481,0,0,0,.834-.91016.63179.63179,0,0,0-.0127-.53906q-.1289-.26806-.61621-.26856a.8828.8828,0,0,0-.71777.30762l-.5127-.5127a2.11631,2.11631,0,0,1,.5-.38476A1.916,1.916,0,0,1,172.97168,14.25781Z"/><path class="cls-2" d="M177.47363,14.25781v.71875h-1.58984v.53809h.30762a1.7194,1.7194,0,0,1,1.16406.34668,1.39992,1.39992,0,0,1,.39746,1.03808,1.11594,1.11594,0,0,1-.38574.84571,1.343,1.343,0,0,1-.9502.35937,2.27549,2.27549,0,0,1-.89453-.15429,1.93943,1.93943,0,0,1-.61523-.41016l.51269-.5127a1.07919,1.07919,0,0,0,.82031.334q.69288,0,.75684-.50781a.57443.57443,0,0,0-.23633-.47754,1.54887,1.54887,0,0,0-.82519-.14356h-.82129V14.25781Z"/><path class="cls-2" d="M178.53516,15.88184a.99333.99333,0,1,1,.6875.27636A.93511.93511,0,0,1,178.53516,15.88184Zm.67968-.17969a.45837.45837,0,0,0,.35157-.14649.51351.51351,0,0,0,.13574-.36425.50717.50717,0,0,0-.13574-.36231.46384.46384,0,0,0-.35352-.14551.45464.45464,0,0,0-.34863.14551.50791.50791,0,0,0-.13672.36231.51425.51425,0,0,0,.13672.36425A.45481.45481,0,0,0,179.21484,15.70215Zm-.20507,2.40234,2.17968-3.84668h.626l-2.17481,3.84668Zm1.91015-.2539a.985.985,0,1,1,.68262.27441A.92619.92619,0,0,1,180.91992,17.85059Zm.66992-.1875a.44861.44861,0,0,0,.34278-.14161.50081.50081,0,0,0,.13379-.35546.49537.49537,0,0,0-.13379-.35254.45283.45283,0,0,0-.34571-.14258.4466.4466,0,0,0-.34082.14258.49537.49537,0,0,0-.13379.35254.50081.50081,0,0,0,.13379.35546A.44928.44928,0,0,0,181.58984,17.66309Z"/></svg>