<svg id="Layer_1" data-name="Layer 1" xmlns="http://www.w3.org/2000/svg" width="320" height="50" viewBox="0 0 320 50"><defs><style>.cls-1{fill:#ab9555;}</style></defs><title>frame1</title><path class="cls-1" d="M141.22412,32.56152a2.3207,2.3207,0,0,1-2.33594-2.32812V22.6626h1.44532v7.55517a.806.806,0,0,0,.25.59766.82638.82638,0,0,0,.60156.24609.84025.84025,0,0,0,.84375-.84375V22.6626h1.53906v7.5708a2.22628,2.22628,0,0,1-.6875,1.65625A2.28362,2.28362,0,0,1,141.22412,32.56152Z"/><path class="cls-1" d="M147.418,22.65479l1.95947,6.58447V22.65479H150.854v9.79736h-1.58593l-2.03125-6.27344v6.27344h-1.47657V22.65479Z"/><path class="cls-1" d="M155.38232,22.6626a2.24983,2.24983,0,0,1,1.71875.67969,2.35937,2.35937,0,0,1,.59375,1.65625V26.4209a2.27859,2.27859,0,0,1-.67578,1.65625,2.21163,2.21163,0,0,1-1.63672.6875h-.85156v3.6875H153.0542V22.6626Zm.88282,2.35937a.84411.84411,0,0,0-.23047-.61718.822.822,0,0,0-.61328-.23438h-.89063v3.1333h.89063a.80607.80607,0,0,0,.59765-.25.82717.82717,0,0,0,.2461-.60156Z"/><path class="cls-1" d="M163.77832,32.45215h-4.02393V22.6626h1.47706v8.3208h2.54687Z"/><path class="cls-1" d="M168.00977,32.56152a2.3207,2.3207,0,0,1-2.33594-2.32812V22.6626h1.44531v7.55517a.80608.80608,0,0,0,.25.59766.82562.82562,0,0,0,.60156.24609.84023.84023,0,0,0,.84375-.84375V22.6626h1.53907v7.5708a2.22632,2.22632,0,0,1-.6875,1.65625A2.28445,2.28445,0,0,1,168.00977,32.56152Z"/><path class="cls-1" d="M174.86621,32.57715a2.3406,2.3406,0,0,1-2.34375-2.33594V24.897a2.33986,2.33986,0,1,1,4.67969,0v1.11768H175.6709V24.86572a.85356.85356,0,0,0-.85156-.85156.80608.80608,0,0,0-.59766.25.8272.8272,0,0,0-.24609.60156v5.35987a.84025.84025,0,0,0,.84375.84375.83021.83021,0,0,0,.60156-.24512.80763.80763,0,0,0,.25-.59668V28.30371h-.82031V26.81934h2.35156v3.42187a2.33393,2.33393,0,0,1-2.33594,2.33594Z"/><path class="cls-1" d="M179.09766,30.9834h1.47656V32.46h-1.47656Z"/></svg>