<svg id="Layer_1" data-name="Layer 1" xmlns="http://www.w3.org/2000/svg" width="320" height="50" viewBox="0 0 320 50"><defs><style>.cls-1{fill:#ab9555;}</style></defs><title>frame4</title><path class="cls-1" d="M127.15137,31.84269V22.04582h2.21093a2.81378,2.81378,0,0,1,1.57813.46093,2.14688,2.14688,0,0,1,.85937,1.21094,3.41115,3.41115,0,0,1,.14063,1.03906,2.30069,2.30069,0,0,1-.52344,1.57813,1.48654,1.48654,0,0,1-.51562.38281,1.71532,1.71532,0,0,1,.83593.74219,2.89909,2.89909,0,0,1,.33594.96875,3.89427,3.89427,0,0,1,.05469.67969,3.27164,3.27164,0,0,1-.35156,1.57812,2.26367,2.26367,0,0,1-1.89063,1.15625Zm1.59375-5.79687h.61718a.90444.90444,0,0,0,.92188-.67188,1.92094,1.92094,0,0,0,.08594-.61719,1.29086,1.29086,0,0,0-.29688-.92187.936.936,0,0,0-.71094-.28906h-.61718Zm0,4.33593h.61718a1.04783,1.04783,0,0,0,1.03907-.77343,1.70326,1.70326,0,0,0,.10156-.60938,1.85782,1.85782,0,0,0-.3125-1.19531,1.0071,1.0071,0,0,0-.82813-.34375h-.61718Z"/><path class="cls-1" d="M134.28125,31.84269V22.04582h4.20313v1.48437h-2.72657v2.67188H137.75v1.48437h-1.99219v2.67188h2.72657v1.48437Z"/><path class="cls-1" d="M146.49951,22.05363a2.24983,2.24983,0,0,1,1.71875.67969,2.35937,2.35937,0,0,1,.59375,1.65625v1.42187a2.27859,2.27859,0,0,1-.67578,1.65625,2.21163,2.21163,0,0,1-1.63672.6875H145.648v3.6875h-1.47656V22.05363Zm.88281,2.35937a.8441.8441,0,0,0-.23046-.61718.822.822,0,0,0-.61329-.23438H145.648v3.13281h.89062a.806.806,0,0,0,.59766-.25.82718.82718,0,0,0,.24609-.60156Z"/><path class="cls-1" d="M153.19971,22.05363a2.252,2.252,0,0,1,1.8125.67969,2.47073,2.47073,0,0,1,.50781,1.65625v1.42187a2.28893,2.28893,0,0,1-.78906,1.75781l1.09375,4.27344H154.228l-.89551-3.6875h-.98438v3.6875h-1.47656V22.05363Zm.88281,2.35937a.74938.74938,0,0,0-.84375-.85156h-.89063v3.13281h.89063a.80607.80607,0,0,0,.59766-.25.82718.82718,0,0,0,.24609-.60156Z"/><path class="cls-1" d="M157.97021,31.84269V22.04582h4.20362v1.48437h-2.72705v2.67188h1.99267v1.48437h-1.99267v2.67188h2.72705v1.48437Z"/><path class="cls-1" d="M168.95215,29.40519a2.75269,2.75269,0,0,1-.53125,1.75,1.914,1.914,0,0,1-1.01563.69531,2.758,2.758,0,0,1-.82031.10938,2.32325,2.32325,0,0,1-1.4375-.42969,2.40564,2.40564,0,0,1-.75391-.957,3.86812,3.86812,0,0,1-.32421-1.38672l1.40625-.10156a2.137,2.137,0,0,0,.45312,1.24023.75259.75259,0,0,0,.60938.27539.91731.91731,0,0,0,.77343-.47656,1.19012,1.19012,0,0,0,.14844-.64941,1.80089,1.80089,0,0,0-.55469-1.21192q-.438-.41454-1.3125-1.24316a5.62709,5.62709,0,0,1-1.03906-1.27442,2.95235,2.95235,0,0,1-.32812-1.377,2.396,2.396,0,0,1,.89843-2.02539,2.2389,2.2389,0,0,1,1.375-.41406,2.49839,2.49839,0,0,1,1.35157.35156,2.03074,2.03074,0,0,1,.707.76563,2.83,2.83,0,0,1,.32422,1.13281l-1.41407.25781a1.705,1.705,0,0,0-.34375-.9375.72358.72358,0,0,0-.58593-.24219.6758.6758,0,0,0-.61719.35938,1.38874,1.38874,0,0,0-.17188.71875,2.15517,2.15517,0,0,0,.57813,1.36719,4.84606,4.84606,0,0,0,.65625.625q.51563.4292.67969.60156a5.01523,5.01523,0,0,1,.84375,1.07812,4.21962,4.21962,0,0,1,.22656.46094A2.67378,2.67378,0,0,1,168.95215,29.40519Z"/><path class="cls-1" d="M171.05859,31.84269V22.04582h4.20313v1.48437h-2.72656v2.67188h1.99218v1.48437h-1.99218v2.67188h2.72656v1.48437Z"/><path class="cls-1" d="M178.81445,22.04582l1.96,6.584v-6.584H182.251v9.79687H180.665l-2.03125-6.27344v6.27344h-1.47656V22.04582Z"/><path class="cls-1" d="M185.88867,23.538h-1.57031V22.05363h4.60937V23.538h-1.5625v8.30469h-1.47656Z"/><path class="cls-1" d="M190.82324,30.37394h1.47656V31.8505h-1.47656Z"/></svg>