<svg id="Content" xmlns="http://www.w3.org/2000/svg" xmlns:xlink="http://www.w3.org/1999/xlink" width="320" height="568" viewBox="0 0 320 568"><defs><style>.cls-1{fill:#ba9544;}.cls-2{fill:#fff;stroke:#ba9544;stroke-miterlimit:10;stroke-width:0.5px;}.cls-3{clip-path:url(#clip-path);}</style><clipPath id="clip-path"><polygon class="cls-1" points="58.969 353.773 68.362 367.079 91.424 367.095 91.424 340.231 68.362 340.225 58.969 353.773"/></clipPath></defs><title>CBD - Durga Mata</title><polygon class="cls-2" points="254.239 340.9 68.158 340.195 58.764 353.741 68.158 367.047 254.239 366.73 262.694 353.816 254.239 340.9"/><polygon class="cls-1" points="58.969 353.773 68.362 367.079 91.424 367.095 91.424 340.231 68.362 340.225 58.969 353.773"/><g class="cls-3"><rect class="cls-1" x="56.89132" y="338.14844" width="13.72831" height="31.0228"/></g><path class="cls-1" d="M168.0874,358.21094a4.5568,4.5568,0,0,1,3.24024-7.80176,4.9302,4.9302,0,0,1,3.34668,1.21484l-1.21485,1.33008a3.35545,3.35545,0,0,0-2.13183-.72851,2.59594,2.59594,0,0,0-2.727,2.709,2.731,2.731,0,0,0,.75927,2.01563,2.689,2.689,0,0,0,1.98.74707,3.26138,3.26138,0,0,0,2.11963-.72266l1.21485,1.33008a4.91151,4.91151,0,0,1-3.34668,1.21484A4.43309,4.43309,0,0,1,168.0874,358.21094Z"/><path class="cls-1" d="M183.105,354.71582a2.58672,2.58672,0,0,1-1.48242,4.80957l-5.126-.00586V350.415h4.83447q2.302.13331,2.42969,2.67871A1.90645,1.90645,0,0,1,183.105,354.71582Zm-4.78027-.65039h2.55078a1.02829,1.02829,0,0,0,1.12988-1.13574q-.03-.668-1.11133-.7041h-2.56933Zm0,4.0332h2.97607a1.18969,1.18969,0,0,0,1.312-1.31836q-.03075-.8745-1.29345-.91113h-2.99463Z"/><path class="cls-1" d="M186.19043,359.51953v-9.11621h3.51074q4.25171,0,4.25147,4.56152,0,4.55421-4.25147,4.55469Zm3.51074-1.81543q2.42358-.00585,2.4292-2.73926-.00587-2.73339-2.4292-2.73339H188.0127v5.47265Z"/><path class="cls-1" d="M195.9873,353.71a.879.879,0,0,1,.65577-.24609.91214.91214,0,0,1,.68017.24609.835.835,0,0,1,.24317.61035.82212.82212,0,0,1-.24317.60742,1.039,1.039,0,0,1-1.33594,0,.82215.82215,0,0,1-.24316-.60742A.83507.83507,0,0,1,195.9873,353.71Zm0,4.34863a.88222.88222,0,0,1,.65577-.24511.91553.91553,0,0,1,.68017.24511.83574.83574,0,0,1,.24317.61133.82148.82148,0,0,1-.24317.60645,1.039,1.039,0,0,1-1.33594,0,.82151.82151,0,0,1-.24316-.60645A.83578.83578,0,0,1,195.9873,358.05859Z"/><path class="cls-1" d="M209.90771,354.44824q-.03588,2.90919-1.09619,4.03906a3.07823,3.07823,0,0,1-2.63281.9961,3.794,3.794,0,0,1-2.44775-1.1543l1.02636-1.11719a3.18616,3.18616,0,0,0,1.51856.51563,1.60336,1.60336,0,0,0,1.2998-.38867,2.44832,2.44832,0,0,0,.67432-1.48731,2.85349,2.85349,0,0,1-1.88916.60742,3.05028,3.05028,0,0,1-2.24707-1.04785,3.12725,3.12725,0,0,1-.53467-2.28125,2.99246,2.99246,0,0,1,1.06006-2.06152,3.21383,3.21383,0,0,1,2.50537-.63477,2.97091,2.97091,0,0,1,2.04981,1.209A5.13485,5.13485,0,0,1,209.90771,354.44824Zm-1.82177-1.002q-.06079-1.27-1.458-1.32422-1.39673.0542-1.45752,1.209a1.3754,1.3754,0,0,0,1.51855,1.51758A1.35256,1.35256,0,0,0,208.08594,353.44629Z"/><path class="cls-1" d="M211.52344,357.084v-1.208h3.76562v1.208Z"/><path class="cls-1" d="M219.21875,350.40918v-.00586h1.81641v9.11621h-1.81641v-6.68066l-1.21484,1.21484-1.21436-1.21484Z"/><path class="cls-1" d="M228.52393,354.90332c.10937.041.20849.08106.29785.12207a1.78538,1.78538,0,0,1,.9414,1.82227,2.33723,2.33723,0,0,1-1.00537,1.88281,3.68142,3.68142,0,0,1-2.34131.78906,5.38831,5.38831,0,0,1-2.11962-.36426,4.58689,4.58689,0,0,1-1.458-.97168l1.21484-1.21484a2.88541,2.88541,0,0,0,2.06494.85059q1.21509,0,1.51563-.51661a.96213.96213,0,0,0,0-1.03222q-.301-.5171-2.1167-.57715v-1.63965q1.81567.12159,2.1167-.39551a.96213.96213,0,0,0,0-1.03222q-.301-.51562-1.51563-.5166a2.1616,2.1616,0,0,0-1.76123.72949l-1.21484-1.21485a4.23284,4.23284,0,0,1,1.30566-.91113,5.09022,5.09022,0,0,1,1.96826-.30371,3.20773,3.20773,0,0,1,2.21973.79A2.44153,2.44153,0,0,1,229.52,353.082a1.80172,1.80172,0,0,1-.81982,1.73047C228.64746,354.84082,228.58887,354.87109,228.52393,354.90332Z"/><path class="cls-1" d="M231.77344,354.25391a2.34729,2.34729,0,1,1,1.62793.65625A2.211,2.211,0,0,1,231.77344,354.25391Zm1.60986-.42481a1.08678,1.08678,0,0,0,.832-.34668,1.31237,1.31237,0,0,0,0-1.72168,1.09866,1.09866,0,0,0-.83838-.34375,1.08266,1.08266,0,0,0-.82568.34375,1.31086,1.31086,0,0,0,0,1.72168A1.08532,1.08532,0,0,0,233.3833,353.8291Zm-.48584,5.69043,5.1626-9.11035H239.542l-5.15039,9.11035Zm4.5249-.60058a2.334,2.334,0,1,1,1.61524.64941A2.19434,2.19434,0,0,1,237.42236,358.919Zm1.585-.44434a1.0655,1.0655,0,0,0,.814-.33691,1.2691,1.2691,0,0,0,0-1.67579,1.07242,1.07242,0,0,0-.81983-.33691,1.05858,1.05858,0,0,0-.8081.33691,1.27058,1.27058,0,0,0,0,1.67579A1.06549,1.06549,0,0,0,239.00732,358.47461Z"/></svg>