<svg id="Content" xmlns="http://www.w3.org/2000/svg" width="320" height="50" viewBox="0 0 320 50"><defs><style>.cls-1{fill:#ba9544;}</style></defs><title>Frame1 - Daytime CBD</title><path class="cls-1" d="M111.12451,22.48486h2.25684c1.42676,0,2.12744.79151,2.12744,2.24414v4.59131c0,1.45264-.70068,2.24365-2.12744,2.24365h-2.25684Zm1.42676,1.29737v6.48486h.8042c.4541,0,.72656-.2334.72656-.88232V24.66406c0-.64844-.27246-.88183-.72656-.88183Z"/><path class="cls-1" d="M122.15137,31.564h-1.43994l-.2461-1.647h-1.751l-.24659,1.647h-1.31006l1.45264-9.0791h2.08838ZM118.896,28.68457h1.37451l-.6875-4.59131Z"/><path class="cls-1" d="M124.22852,28.55469l-1.80274-6.06983h1.4917l1.08936,4.1377,1.08935-4.1377h1.36231l-1.80323,6.06983V31.564h-1.42675Z"/><path class="cls-1" d="M128.2124,22.48486h4.41016v1.29737h-1.4917V31.564H129.7041V23.78223h-1.4917Z"/><path class="cls-1" d="M134.36279,22.48486h1.42627V31.564h-1.42627Z"/><path class="cls-1" d="M141.2251,28.93115l.97265-6.44629h1.98438V31.564H142.833V25.05322l-.98535,6.51074h-1.34912L139.43506,25.144V31.564h-1.24512v-9.0791h1.98438Z"/><path class="cls-1" d="M148.02393,26.311h1.95849v1.29687h-1.95849v2.65918h2.46435V31.564h-3.89111v-9.0791h3.89111v1.29737h-2.46435Z"/><path class="cls-1" d="M160.27148,28.17871v1.20606c0,1.45312-.72656,2.2832-2.12695,2.2832-1.40088,0-2.12744-.83008-2.12744-2.2832V24.66406c0-1.45263.72656-2.28271,2.12744-2.28271,1.40039,0,2.12695.83008,2.12695,2.28271v.88184h-1.34912v-.97266c0-.64844-.28515-.895-.73925-.895-.45362,0-.73926.24658-.73926.895v4.90235c0,.64892.28564.88232.73926.88232.4541,0,.73925-.2334.73925-.88232V28.17871Z"/><path class="cls-1" d="M166.78516,24.57324v.32422a1.78356,1.78356,0,0,1-.9209,1.82861,1.83625,1.83625,0,0,1,1.06347,1.94581v.73925a1.92992,1.92992,0,0,1-2.166,2.15283h-2.24365v-9.0791h2.15283C166.14941,22.48486,166.78516,23.17236,166.78516,24.57324Zm-2.84082-.791v2.39941h.5581c.53174,0,.856-.23389.856-.96v-.50586c0-.64844-.2207-.93359-.72656-.93359Zm0,3.69629v2.78857h.81738c.48,0,.73926-.2207.73926-.895v-.791c0-.84326-.27246-1.10253-.9209-1.10253Z"/><path class="cls-1" d="M169.16064,22.48486H171.417c1.42676,0,2.12744.79151,2.12744,2.24414v4.59131c0,1.45264-.70068,2.24365-2.12744,2.24365h-2.25635Zm1.42627,1.29737v6.48486h.8042c.4541,0,.72657-.2334.72657-.88232V24.66406c0-.64844-.27247-.88183-.72657-.88183Z"/></svg>