<svg id="Layer_1" data-name="Layer 1" xmlns="http://www.w3.org/2000/svg" width="728" height="90" viewBox="0 0 728 90"><defs><style>.cls-1,.cls-2{fill:#ab9555;}.cls-1{opacity:0.5;}</style></defs><title>frame2</title><path class="cls-1" d="M165.31494,58.53388a4.21045,4.21045,0,0,1-4.23828-4.22363V40.57489h2.62207v13.707a1.46547,1.46547,0,0,0,.45361,1.084,1.49911,1.49911,0,0,0,1.09131.44629,1.52378,1.52378,0,0,0,1.53076-1.53027v-13.707h2.79248V54.31025a4.03761,4.03761,0,0,1-1.24707,3.00488A4.14574,4.14574,0,0,1,165.31494,58.53388Z"/><path class="cls-1" d="M176.55225,40.56122l3.55517,11.94531V40.56122h2.6792V58.33564h-2.87744L176.22363,46.9538V58.33564h-2.67871V40.56122Z"/><path class="cls-1" d="M191.002,40.57489a4.08165,4.08165,0,0,1,3.11866,1.2334,4.27876,4.27876,0,0,1,1.07714,3.00489v2.58007a4.1306,4.1306,0,0,1-1.22607,3.00489,4.01158,4.01158,0,0,1-2.96973,1.24707H189.457v6.69043h-2.67871V40.57489Zm1.60205,4.28125a1.52874,1.52874,0,0,0-.41845-1.12011,1.49025,1.49025,0,0,0-1.11231-.42481H189.457v5.6836h1.61621a1.46531,1.46531,0,0,0,1.084-.45313,1.50143,1.50143,0,0,0,.44677-1.0918Z"/><path class="cls-1" d="M206.2334,58.33564h-7.29981V40.57489h2.67871V55.6706h4.6211Z"/><path class="cls-1" d="M213.91064,58.53388a4.21045,4.21045,0,0,1-4.23828-4.22363V40.57489h2.62207v13.707a1.46544,1.46544,0,0,0,.45362,1.084,1.49908,1.49908,0,0,0,1.09131.44629,1.52378,1.52378,0,0,0,1.53076-1.53027v-13.707h2.79248V54.31025a4.03765,4.03765,0,0,1-1.24707,3.00488A4.14576,4.14576,0,0,1,213.91064,58.53388Z"/><path class="cls-1" d="M226.35059,58.5622a4.24612,4.24612,0,0,1-4.25245-4.23828V44.62958a4.24514,4.24514,0,1,1,8.49024,0V46.656h-2.77783V44.572a1.5496,1.5496,0,0,0-1.54541-1.54492,1.46332,1.46332,0,0,0-1.084.4541,1.49924,1.49924,0,0,0-.44677,1.09082V54.2956a1.52459,1.52459,0,0,0,1.53076,1.53125,1.50314,1.50314,0,0,0,1.09179-.44532,1.459,1.459,0,0,0,.45362-1.081V50.80927h-1.48877V48.11591h4.2666v6.208a4.23441,4.23441,0,0,1-4.23779,4.23828Z"/><path class="cls-1" d="M234.02783,55.6706h2.67871v2.67968h-2.67871Z"/><path class="cls-2" d="M254.32324,58.33564h-7.2998V40.57489h2.67871V55.6706h4.62109Z"/><path class="cls-2" d="M262.00049,40.34833a4.24609,4.24609,0,0,1,4.25195,4.252V54.2956a4.24514,4.24514,0,1,1-8.49023,0V44.60028a4.24612,4.24612,0,0,1,4.23828-4.252ZM263.46,44.54364a1.52378,1.52378,0,0,0-1.53076-1.53027,1.4991,1.4991,0,0,0-1.09131.44629,1.46543,1.46543,0,0,0-.45361,1.084v9.72364a1.466,1.466,0,0,0,.45361,1.085,1.4991,1.4991,0,0,0,1.09131.44629A1.52379,1.52379,0,0,0,263.46,54.26728Z"/><path class="cls-2" d="M274.398,40.34833a4.24609,4.24609,0,0,1,4.252,4.252V54.2956a4.24514,4.24514,0,1,1-8.49023,0V44.60028a4.24612,4.24612,0,0,1,4.23828-4.252Zm1.45947,4.19531a1.52378,1.52378,0,0,0-1.53076-1.53027,1.49911,1.49911,0,0,0-1.09131.44629,1.46547,1.46547,0,0,0-.45361,1.084v9.72364a1.46608,1.46608,0,0,0,.45361,1.085,1.49911,1.49911,0,0,0,1.09131.44629,1.52379,1.52379,0,0,0,1.53076-1.53125Z"/><path class="cls-2" d="M285.27783,52.70185v5.63379h-2.67871V40.56122h2.67871v6.33594l3.27442-6.33594h2.856l-3.667,7.25,4.30029,10.52442h-3.14892l-2.813-7.2168Z"/><path class="cls-2" d="M303.15527,58.53388a4.21045,4.21045,0,0,1-4.23828-4.22363V40.57489h2.62207v13.707a1.46544,1.46544,0,0,0,.45362,1.084,1.49907,1.49907,0,0,0,1.0913.44629,1.52378,1.52378,0,0,0,1.53077-1.53027v-13.707h2.79248V54.31025a4.03765,4.03765,0,0,1-1.24707,3.00488A4.14578,4.14578,0,0,1,303.15527,58.53388Z"/><path class="cls-2" d="M315.60889,40.57489a4.08161,4.08161,0,0,1,3.11865,1.2334,4.27877,4.27877,0,0,1,1.07715,3.00489v2.58007a4.13057,4.13057,0,0,1-1.22608,3.00489,4.01157,4.01157,0,0,1-2.96972,1.24707H314.064v6.69043h-2.67871V40.57489Zm1.60205,4.28125a1.52875,1.52875,0,0,0-.41846-1.12011,1.49022,1.49022,0,0,0-1.1123-.42481H314.064v5.6836h1.61622a1.46529,1.46529,0,0,0,1.084-.45313,1.50143,1.50143,0,0,0,.44678-1.0918Z"/><path class="cls-2" d="M323.24365,55.6706h2.67871v2.67968h-2.67871Z"/></svg>