<svg id="Layer_1" data-name="Layer 1" xmlns="http://www.w3.org/2000/svg" width="300" height="250" viewBox="0 0 300 250"><defs><style>.cls-1{fill:#ab9555;}</style></defs><title>frame3</title><path class="cls-1" d="M98.13206,161.96334V145.04147h3.81885a4.86692,4.86692,0,0,1,2.72607.79589,3.707,3.707,0,0,1,1.48438,2.0918,5.886,5.886,0,0,1,.24267,1.79492,3.97327,3.97327,0,0,1-.90381,2.72559,2.56557,2.56557,0,0,1-.89062.66113,2.96384,2.96384,0,0,1,1.44385,1.28223,4.98529,4.98529,0,0,1,.58007,1.67285,6.66777,6.66777,0,0,1,.09473,1.17383,5.65339,5.65339,0,0,1-.60742,2.72656,3.64306,3.64306,0,0,1-1.33594,1.40332,3.682,3.682,0,0,1-1.92969.59375Zm2.75293-10.01269h1.06592a1.56283,1.56283,0,0,0,1.59277-1.16114,3.31192,3.31192,0,0,0,.14844-1.06543,2.231,2.231,0,0,0-.51319-1.59277,1.61278,1.61278,0,0,0-1.228-.499H100.885Zm0,7.48925h1.06592a1.80986,1.80986,0,0,0,1.79492-1.33593,2.94088,2.94088,0,0,0,.17529-1.05274,3.20519,3.20519,0,0,0-.53955-2.06445,1.73867,1.73867,0,0,0-1.43066-.59375H100.885Z"/><path class="cls-1" d="M115.24192,145.05514a3.88766,3.88766,0,0,1,3.13086,1.17383,4.26764,4.26764,0,0,1,.87695,2.86035v2.45605a3.95164,3.95164,0,0,1-1.36279,3.03613l1.88867,7.38184H117.0178l-1.54639-6.36914h-1.70019v6.36914h-2.55078v-16.9082Zm1.5249,4.07519a1.29483,1.29483,0,0,0-1.45752-1.47168h-1.53808v5.41211h1.53808a1.394,1.394,0,0,0,1.03223-.43261,1.42489,1.42489,0,0,0,.42529-1.03907Z"/><path class="cls-1" d="M124.24192,161.96334V145.04147h7.26026v2.56347H126.7927v4.61524h3.44092v2.56347H126.7927v4.61524h4.70948v2.56445Z"/><path class="cls-1" d="M138.81126,158.07662l-.61963,3.88672h-2.65576l2.87451-16.9082h3.5083l2.834,16.9082H142.071l-.59668-3.88672Zm1.33984-9.14941-.94482,6.667h1.88965Z"/><path class="cls-1" d="M149.50266,147.61861h-2.71289v-2.56347h7.96192v2.56347h-2.69922v14.34473h-2.54981Z"/><path class="cls-1" d="M161.63352,154.79733v7.166h-2.55078v-16.9082h2.55078v7.17871h3.07618v-7.17871h2.55078v16.9082H164.7097v-7.166Z"/><path class="cls-1" d="M181.91282,161.96334H179.362v-16.9082h2.55078Z"/><path class="cls-1" d="M189.33567,145.04147l3.38477,11.37207V145.04147h2.55078v16.92187H192.532l-3.50879-10.83594v10.83594h-2.55078V145.04147Z"/><path class="cls-1" d="M199.3054,159.42623h2.55078V161.977H199.3054Z"/></svg>