<svg id="Content" xmlns="http://www.w3.org/2000/svg" xmlns:xlink="http://www.w3.org/1999/xlink" viewBox="0 0 728 360"><defs><style>.cls-1{fill:#ba9544;}.cls-2{fill:#fff;stroke:#ba9544;stroke-miterlimit:10;stroke-width:0.5px;}.cls-3{clip-path:url(#clip-path);}</style><clipPath id="clip-path"><polygon class="cls-1" points="391.19 239.44 402.93 256.07 403.16 256.09 403.16 222.51 402.93 222.5 391.19 239.44"/></clipPath></defs><title>CBD - Shishkaberry</title><polygon class="cls-2" points="635.28 223.34 402.67 222.46 390.93 239.4 402.67 256.03 635.28 255.63 645.84 239.49 635.28 223.34"/><polygon class="cls-1" points="391.19 239.44 402.93 256.07 403.16 256.09 403.16 222.51 402.93 222.5 391.19 239.44"/><g class="cls-3"><rect class="cls-1" x="388.59" y="219.9" width="17.16" height="38.78"/></g><path class="cls-1" d="M527.59,245a5.7,5.7,0,0,1,4-9.75,6.17,6.17,0,0,1,4.18,1.52l-1.52,1.66a4.17,4.17,0,0,0-2.66-.91,3.37,3.37,0,0,0-2.47,1,3.29,3.29,0,0,0-.94,2.43,3.23,3.23,0,0,0,3.42,3.45,4.09,4.09,0,0,0,2.65-.9l1.52,1.66a6.15,6.15,0,0,1-4.18,1.52A5.54,5.54,0,0,1,527.59,245Z"/><path class="cls-1" d="M546.36,240.61a3.24,3.24,0,0,1-1.85,6H538.1V235.24h6q2.88.16,3,3.35A2.39,2.39,0,0,1,546.36,240.61Zm-6-.81h3.18a1.29,1.29,0,0,0,1.42-1.42c0-.55-.49-.85-1.39-.88h-3.21Zm0,5h3.71a1.49,1.49,0,0,0,1.65-1.64q0-1.09-1.62-1.14h-3.74Z"/><path class="cls-1" d="M550.22,246.62v-11.4h4.38q5.32,0,5.32,5.7t-5.32,5.7Zm4.38-2.27c2,0,3-1.15,3-3.43s-1-3.41-3-3.41h-2.1v6.84Z"/><path class="cls-1" d="M562.46,239.36a1.28,1.28,0,0,1,1.67,0,1.09,1.09,0,0,1,0,1.52,1.13,1.13,0,0,1-.83.3,1.15,1.15,0,0,1-.84-.3,1.11,1.11,0,0,1,0-1.52Zm0,5.43a1.31,1.31,0,0,1,1.67,0,1.1,1.1,0,0,1,0,1.53,1.13,1.13,0,0,1-.83.3,1.15,1.15,0,0,1-.84-.3,1.13,1.13,0,0,1,0-1.53Z"/><path class="cls-1" d="M578.75,238.5l-4.4,2.42,4.4,2.43v1.75l-7.19-3.95v-.5l7.19-3.9Z"/><path class="cls-1" d="M588.62,235.23h2.27v11.4h-2.27v-8.35l-1.52,1.52-1.52-1.52Z"/></svg>