<svg id="Content" xmlns="http://www.w3.org/2000/svg" xmlns:xlink="http://www.w3.org/1999/xlink" width="320" height="568" viewBox="0 0 320 568"><defs><style>.cls-1{fill:url(#New_Gradient_Swatch_1);}.cls-2{fill:#fff;}.cls-3{fill:#ba9544;}</style><linearGradient id="New_Gradient_Swatch_1" x1="140.6904" y1="268.82518" x2="180.30702" y2="268.82518" gradientUnits="userSpaceOnUse"><stop offset="0" stop-color="#a88a34"/><stop offset="0.49324" stop-color="#caaf67"/><stop offset="1" stop-color="#957f2e"/></linearGradient></defs><title>fruity</title><polygon class="cls-1" points="157.147 289.089 140.69 270.085 153.68 248.561 178.164 254.263 180.307 279.31 157.147 289.089"/><path class="cls-2" d="M168.48436,263.394c1.35583-.41051,1.73433-1.50648,2.53277-1.885-1.578-.64779-2.50452-.80973-3.44042-.36532a2.34044,2.34044,0,0,0-1.39161,1.73622,2.41479,2.41479,0,0,0,2.29926.51408"/><path class="cls-2" d="M165.56066,265.678a7.28959,7.28959,0,0,0-1.78518-5.50618.12274.12274,0,0,0-.17512-.00565l-.00565.00565-.371.38039a.1248.1248,0,0,0-.00377.16948,6.60278,6.60278,0,0,1,1.54791,4.98456c-3.25211-1.9057-6.67182.177-6.51364,3.63626a9.00161,9.00161,0,0,0,.27493,1.77764,15.26262,15.26262,0,0,0,6.9411,3.14854,1.81647,1.81647,0,0,1,.88883.44253,1.31168,1.31168,0,0,1,.418.9246l.01129.34084a1.86492,1.86492,0,0,1-.08285.6026,2.64787,2.64787,0,0,1-.11864.37661c2.71166.13371,5.28021-4.17859,5.43839-7.61336.15818-3.44042-3.22763-5.51936-6.46468-3.66451"/><path class="cls-2" d="M165.71847,275.40491a.89347.89347,0,0,0-.43123-.2109c-5.48547-1.09032-10.10282-4.21814-12.01228-10.68093a1.47537,1.47537,0,0,0-.19208-.371.872.872,0,0,1-.12994-.49714l.04332-1.2259a.33132.33132,0,0,0-.32013-.34461H152.663l-.64967.00565a.33071.33071,0,0,0-.32954.33331.21662.21662,0,0,0,.00188.03578l.15253,1.31628a.81847.81847,0,0,1-.17889.52916,2.107,2.107,0,0,0-.21468,1.10726c-.13181,10.30054,6.83,13.3022,13.257,11.71852.81727-.2015.89447-.33331.96415-.43123a1.465,1.465,0,0,0,.12805-.36721.86277.86277,0,0,0,.049-.31636l-.00942-.339a.37308.37308,0,0,0-.11486-.26176"/><path class="cls-3" d="M141.52441,308.11523V300.667h5.23829v1.39063h-3.749v1.58886h2.76563v1.38575h-2.76563v3.083Z"/><path class="cls-3" d="M152.32861,304.86816l1.85694,3.24707h-1.708l-1.78223-3.07812h-1.36084v3.07812h-1.48926V300.667h3.24708q2.60669,0,2.60693,2.14551A1.92617,1.92617,0,0,1,152.32861,304.86816Zm-2.99414-1.22168h2.08545q.89868-.01464.92383-.81933-.0249-.73389-.90869-.76465h-2.10059Z"/><path class="cls-3" d="M156.33545,300.667v4.32031a1.49412,1.49412,0,0,0,.49658,1.24122,2.13755,2.13755,0,0,0,2.48291,0,1.49409,1.49409,0,0,0,.49658-1.24122V300.667h1.48926v4.71778a2.47,2.47,0,0,1-.91846,1.93652,3.7541,3.7541,0,0,1-4.61767,0,2.47,2.47,0,0,1-.91846-1.93652V300.667Z"/><path class="cls-3" d="M162.90967,300.66211H164.394v7.45312h-1.48437Z"/><path class="cls-3" d="M171.96582,300.667v1.39063H169.4834v6.05761h-1.48975v-6.05761h-2.48242V300.667Z"/><path class="cls-3" d="M172.63623,300.667h1.74756l1.728,2.4336,1.76757-2.4336h1.708l-2.731,3.72461v3.72363h-1.48926V304.3916Z"/></svg>