<svg id="Content" xmlns="http://www.w3.org/2000/svg" xmlns:xlink="http://www.w3.org/1999/xlink" width="320" height="568" viewBox="0 0 320 568"><defs><style>.cls-1{fill:url(#New_Gradient_Swatch_1);}.cls-2{fill:#fff;}.cls-3{fill:#ba9544;}</style><linearGradient id="New_Gradient_Swatch_1" x1="203.59404" y1="269.83535" x2="242.30673" y2="269.83535" gradientUnits="userSpaceOnUse"><stop offset="0" stop-color="#a88a34"/><stop offset="0.49324" stop-color="#caaf67"/><stop offset="1" stop-color="#957f2e"/></linearGradient></defs><title>pine</title><polygon class="cls-1" points="238.441 283.244 219.083 289.954 203.594 276.545 207.462 256.427 226.818 249.717 242.307 263.126 238.441 283.244"/><path class="cls-2" d="M229.3889,275.91643l-6.47238-15.44993-6.4032,15.44993,6.07976,1.21707V278.861a.3573.3573,0,0,0,.71418,0V277.1335Z"/><path class="cls-3" d="M211.10742,308.84277v-7.39453h3.22363q2.58838,0,2.5879,2.12988,0,2.209-2.583,2.208h-1.75v3.05664Zm1.47852-4.43652h2.07031q.89209-.01466.917-.81348-.0249-.72948-.90234-.75879h-2.085Z"/><path class="cls-3" d="M218.00879,301.44336h1.47363v7.39941h-1.47363Z"/><path class="cls-3" d="M220.9668,308.84277v-7.39453H221.46l4.63379,4.63379v-4.63379h1.47852v7.39453h-.542l-4.585-4.584v4.584Z"/><path class="cls-3" d="M229.08594,308.84277v-7.38965l5.43164-.00488v1.38086h-3.95313v1.57715h2.96289v1.375h-2.96289v1.68164h3.94336v1.37988Z"/></svg>