<svg id="Layer_1" data-name="Layer 1" xmlns="http://www.w3.org/2000/svg" width="300" height="600" viewBox="0 0 300 600"><defs><style>.cls-1{fill:#ab9555;}</style></defs><title>frame2</title><path class="cls-1" d="M105.44059,313.75488H96.66227V292.397H99.883V310.5498h5.55762Z"/><path class="cls-1" d="M115.632,292.124a5.10634,5.10634,0,0,1,5.11426,5.11377v11.65869a5.105,5.105,0,1,1-10.21,0V297.23779A5.10717,5.10717,0,0,1,115.632,292.124Zm1.75586,5.04541a1.83385,1.83385,0,0,0-1.84082-1.84082,1.80439,1.80439,0,0,0-1.3125.53711,1.7618,1.7618,0,0,0-.54493,1.30371V308.8623a1.764,1.764,0,0,0,.54493,1.30469,1.80543,1.80543,0,0,0,1.3125.53613,1.8322,1.8322,0,0,0,1.84082-1.84082Z"/><path class="cls-1" d="M131.50016,292.124a5.10633,5.10633,0,0,1,5.11426,5.11377v11.65869a5.105,5.105,0,1,1-10.21,0V297.23779a5.10717,5.10717,0,0,1,5.0957-5.11377Zm1.75586,5.04541a1.83385,1.83385,0,0,0-1.84082-1.84082,1.8044,1.8044,0,0,0-1.3125.53711,1.76179,1.76179,0,0,0-.54492,1.30371V308.8623a1.764,1.764,0,0,0,.54492,1.30469,1.80544,1.80544,0,0,0,1.3125.53613,1.8322,1.8322,0,0,0,1.84082-1.84082Z"/><path class="cls-1" d="M145.54411,306.97949v6.77539H142.3234v-21.375h3.22071V299.999l3.9375-7.61914h3.43554l-4.41015,8.71778,5.1709,12.65722h-3.78711l-3.38184-8.67871Z"/><path class="cls-1" d="M174.05973,313.99316a5.06155,5.06155,0,0,1-5.0957-5.0791V292.397h3.15332v16.48291a1.76332,1.76332,0,0,0,.54492,1.30371,1.80246,1.80246,0,0,0,1.3125.53711,1.83385,1.83385,0,0,0,1.84082-1.84082V292.397h3.3584v16.51709a4.85352,4.85352,0,0,1-1.5,3.61328A4.9837,4.9837,0,0,1,174.05973,313.99316Z"/><path class="cls-1" d="M189.99626,292.397a4.90724,4.90724,0,0,1,3.75,1.48291,5.14606,5.14606,0,0,1,1.29589,3.61377v3.10205a4.97,4.97,0,0,1-1.47461,3.61328,4.82387,4.82387,0,0,1-3.57128,1.5h-1.8584v8.0459h-3.22071V292.397Zm1.92578,5.14746a1.83412,1.83412,0,0,0-.50293-1.34619,1.79,1.79,0,0,0-1.33789-.51172h-1.94336v6.835h1.94336a1.76393,1.76393,0,0,0,1.30468-.54492,1.807,1.807,0,0,0,.53614-1.3125Z"/><path class="cls-1" d="M200.13786,310.5498h3.2207v3.22168h-3.2207Z"/></svg>