<svg id="Layer_1" data-name="Layer 1" xmlns="http://www.w3.org/2000/svg" width="300" height="600" viewBox="0 0 300 600"><defs><style>.cls-1{fill:#ab9555;}</style></defs><title>frame4</title><path class="cls-1" d="M73.64646,313.75488v-21.375H78.4697a6.14406,6.14406,0,0,1,3.44336,1.00586,4.68015,4.68015,0,0,1,1.875,2.64209,7.45527,7.45527,0,0,1,.30664,2.2666,5.01737,5.01737,0,0,1-1.1416,3.44287,3.23653,3.23653,0,0,1-1.125.83594,3.74139,3.74139,0,0,1,1.82324,1.61914,6.2827,6.2827,0,0,1,.7334,2.11328,8.47654,8.47654,0,0,1,.11914,1.4834,7.139,7.139,0,0,1-.7666,3.44239,4.93754,4.93754,0,0,1-4.125,2.52343ZM77.123,301.10645H78.4697a1.97308,1.97308,0,0,0,2.01172-1.46534,4.178,4.178,0,0,0,.1875-1.34668,2.81674,2.81674,0,0,0-.64746-2.01123,2.03994,2.03994,0,0,0-1.55176-.63037H77.123Zm0,9.46093H78.4697a2.28691,2.28691,0,0,0,2.26758-1.6875,3.71607,3.71607,0,0,0,.22168-1.33008,4.04264,4.04264,0,0,0-.68262-2.60742,2.19759,2.19759,0,0,0-1.80664-.75H77.123Z"/><path class="cls-1" d="M90.16208,313.75488v-21.375H99.332v3.23877H93.38279v5.82959h4.34668v3.23828H93.38279v5.8291H99.332v3.23926Z"/><path class="cls-1" d="M119.69919,292.397a4.90721,4.90721,0,0,1,3.75,1.48291,5.14606,5.14606,0,0,1,1.2959,3.61377v3.10205a4.97,4.97,0,0,1-1.47461,3.61328,4.8239,4.8239,0,0,1-3.57129,1.5h-1.8584v8.0459h-3.2207V292.397Zm1.92578,5.14746a1.83408,1.83408,0,0,0-.50293-1.34619,1.79,1.79,0,0,0-1.33789-.51172h-1.94336v6.835h1.94336a1.764,1.764,0,0,0,1.30469-.54492,1.807,1.807,0,0,0,.53613-1.3125Z"/><path class="cls-1" d="M135.27829,292.397a4.91117,4.91117,0,0,1,3.95411,1.48291,5.38644,5.38644,0,0,1,1.10839,3.61377v3.10205a4.98985,4.98985,0,0,1-1.72167,3.835l2.38574,9.32422h-3.4834l-1.95313-8.0459H133.4199v8.0459h-3.22071V292.397Zm1.92579,5.14746a1.63467,1.63467,0,0,0-1.84082-1.85791H133.4199v6.835h1.94336a1.76394,1.76394,0,0,0,1.30468-.54492,1.807,1.807,0,0,0,.53614-1.3125Z"/><path class="cls-1" d="M146.64744,313.75488v-21.375h9.16992v3.23877h-5.94922v5.82959h4.34668v3.23828h-4.34668v5.8291h5.94922v3.23926Z"/><path class="cls-1" d="M171.56736,308.43652a6.0129,6.0129,0,0,1-1.15918,3.81836,4.176,4.176,0,0,1-2.21582,1.5166,6.04161,6.04161,0,0,1-1.79.23926,5.06724,5.06724,0,0,1-3.13672-.9375,5.24463,5.24463,0,0,1-1.64453-2.08886,8.403,8.403,0,0,1-.707-3.0254l3.06738-.22168a4.66046,4.66046,0,0,0,.98926,2.707,1.64446,1.64446,0,0,0,1.3291.59961,1.99615,1.99615,0,0,0,1.6875-1.04,2.586,2.586,0,0,0,.32422-1.416,3.93157,3.93157,0,0,0-1.21-2.64453q-.95508-.90381-2.86426-2.71289a12.23183,12.23183,0,0,1-2.2666-2.78076,6.42508,6.42508,0,0,1-.71582-3.00244,5.22314,5.22314,0,0,1,1.96-4.41895,4.87229,4.87229,0,0,1,3-.9043,5.45612,5.45612,0,0,1,2.94922.76709,4.43311,4.43311,0,0,1,1.542,1.67041,6.18567,6.18567,0,0,1,.708,2.47168l-3.08594.5625a3.71774,3.71774,0,0,0-.75-2.04541,1.5746,1.5746,0,0,0-1.27832-.52832,1.473,1.473,0,0,0-1.34668.78418,3.02305,3.02305,0,0,0-.375,1.56787,4.70606,4.70606,0,0,0,1.26172,2.98291,10.60425,10.60425,0,0,0,1.43164,1.36377q1.125.9375,1.4834,1.3125a10.943,10.943,0,0,1,1.84082,2.35254,9.06766,9.06766,0,0,1,.49414,1.00488A5.872,5.872,0,0,1,171.56736,308.43652Z"/><path class="cls-1" d="M177.123,313.75488v-21.375h9.16992v3.23877h-5.94922v5.82959h4.34668v3.23828h-4.34668v5.8291h5.94922v3.23926Z"/><path class="cls-1" d="M195.00583,292.37988l4.27539,14.36524V292.37988h3.22168v21.375h-3.46l-4.43261-13.6875v13.6875h-3.22071v-21.375Z"/><path class="cls-1" d="M211.39939,295.63574h-3.42578V292.397h10.05664v3.23877h-3.40918v18.11914h-3.22168Z"/><path class="cls-1" d="M223.126,310.5498h3.2207v3.22168H223.126Z"/></svg>