<svg id="Layer_1" data-name="Layer 1" xmlns="http://www.w3.org/2000/svg" width="77.2959" height="9.126" viewBox="0 0 77.2959 9.126"><defs><style>.cls-1{fill:#ac9655;}</style></defs><title>frame4</title><path class="cls-1" d="M1.5078.1064,3.2891,6.0918V.1064H4.6309V9.0127H3.19L1.3428,3.31V9.0127H0V.1064Z"/><path class="cls-1" d="M9.2764,6.9668,8.95,9.0127H7.5527L9.0654.1133h1.8467l1.4912,8.8994H10.9922l-.3145-2.0459Zm.705-4.8145L9.4844,5.66h.9941Z"/><path class="cls-1" d="M16.6758,9.0127H15.333V.1064h1.9258L18.51,6.5039,19.7109.1064h1.8506V9.0127H20.22V3.416l-1.165,5.5967H17.9756l-1.3-5.582Z"/><path class="cls-1" d="M26.207,6.9668l-.3261,2.0459H24.4834L25.9961.1133h1.8467L29.334,9.0127H27.9229l-.3145-2.0459Zm.7051-4.8145L26.415,5.66h.9942Z"/><path class="cls-1" d="M36.2979,6.7969a2.4987,2.4987,0,0,1-.4834,1.5908,1.741,1.741,0,0,1-.9229.6318,2.5144,2.5144,0,0,1-.7461.1,2.1081,2.1081,0,0,1-1.3066-.3906,2.18,2.18,0,0,1-.6856-.87,3.5339,3.5339,0,0,1-.2949-1.2607l1.2793-.0918a1.9436,1.9436,0,0,0,.4111,1.1279.6909.6909,0,0,0,.5547.25.8353.8353,0,0,0,.7031-.4336,1.0792,1.0792,0,0,0,.1348-.5908,1.6367,1.6367,0,0,0-.5049-1.1016q-.3969-.3765-1.1924-1.13a5.0922,5.0922,0,0,1-.9453-1.1591,2.6865,2.6865,0,0,1-.2978-1.251A2.1759,2.1759,0,0,1,32.8174.377,2.0325,2.0325,0,0,1,34.0674,0a2.2717,2.2717,0,0,1,1.2285.3193,1.8505,1.8505,0,0,1,.6436.6963,2.5641,2.5641,0,0,1,.2939,1.0293l-1.2852.2344a1.5444,1.5444,0,0,0-.3125-.8516.6541.6541,0,0,0-.5322-.2207.6148.6148,0,0,0-.5615.3272,1.2543,1.2543,0,0,0-.1563.6533,1.9611,1.9611,0,0,0,.5254,1.2432,4.4794,4.4794,0,0,0,.5967.5673q.4688.3912.6182.5469a4.5676,4.5676,0,0,1,.7666.9805,3.5665,3.5665,0,0,1,.206.4189A2.444,2.444,0,0,1,36.2979,6.7969Z"/><path class="cls-1" d="M40.4482,1.4629H39.0205V.1133h4.19v1.35h-1.42v7.55H40.4482Z"/><path class="cls-1" d="M46.0908,9.0127V.1064h3.8213v1.35H47.4336V3.8848h1.8105v1.35H47.4336V7.6631h2.4785v1.35Z"/><path class="cls-1" d="M52.6348,7.6777h1.3427V9.02H52.6348Z"/><path class="cls-1" d="M58.8311,9.126A2.1223,2.1223,0,0,1,56.7,7.0029V2.1445a2.05,2.05,0,0,1,.625-1.5088,2.0611,2.0611,0,0,1,1.5059-.622,2.04,2.04,0,0,1,1.5058.625,2.065,2.065,0,0,1,.6182,1.5058V3.16H59.5625V2.1162a.7752.7752,0,0,0-.7734-.7744.7355.7355,0,0,0-.544.2275.7545.7545,0,0,0-.2236.5469V6.9883a.7636.7636,0,0,0,.7676.7676.7555.7555,0,0,0,.5468-.2237.7357.7357,0,0,0,.2266-.5439V5.76h1.3926V7.0029a2.1206,2.1206,0,0,1-2.124,2.1231Z"/><path class="cls-1" d="M65.958,0a2.0464,2.0464,0,0,1,1.5088.625,2.0573,2.0573,0,0,1,.6221,1.5059V6.9883a2.1275,2.1275,0,1,1-4.2549,0V2.1309a2.0539,2.0539,0,0,1,.625-1.51A2.0525,2.0525,0,0,1,65.958,0ZM66.69,2.1025a.7636.7636,0,0,0-.7666-.7675.7527.7527,0,0,0-.5469.2236.7314.7314,0,0,0-.2276.5439V6.9746a.7308.7308,0,0,0,.2276.543.7488.7488,0,0,0,.5469.2236.7636.7636,0,0,0,.7666-.7666Z"/><path class="cls-1" d="M72.4092,9.0127H71.0664V.1064h1.9268l1.2509,6.3975L75.4453.1064h1.8506V9.0127H75.9531V3.416l-1.164,5.5967h-1.08l-1.3-5.582Z"/></svg>