<svg id="Layer_1" data-name="Layer 1" xmlns="http://www.w3.org/2000/svg" width="122.1767" height="9.126" viewBox="0 0 122.1767 9.126"><defs><style>.cls-1{fill:#ac9655;}</style></defs><title>frame2</title><path class="cls-1" d="M4.439,6.7969a2.5014,2.5014,0,0,1-.4829,1.5908,1.74,1.74,0,0,1-.9234.6318,2.511,2.511,0,0,1-.7456.1A2.1071,2.1071,0,0,1,.9805,8.7285a2.18,2.18,0,0,1-.6856-.87A3.5234,3.5234,0,0,1,0,6.5977l1.2788-.0918A1.9436,1.9436,0,0,0,1.69,7.6338a.6906.6906,0,0,0,.5542.25A.8343.8343,0,0,0,2.9478,7.45a1.08,1.08,0,0,0,.1347-.5908,1.6378,1.6378,0,0,0-.5044-1.1016q-.3976-.3765-1.1928-1.13A5.0861,5.0861,0,0,1,.44,3.4688a2.6808,2.6808,0,0,1-.2983-1.251A2.1752,2.1752,0,0,1,.959.377,2.0315,2.0315,0,0,1,2.209,0,2.2729,2.2729,0,0,1,3.4375.3193a1.8494,1.8494,0,0,1,.6431.6963A2.5708,2.5708,0,0,1,4.375,2.0449L3.09,2.2793a1.5474,1.5474,0,0,0-.3125-.8516.6552.6552,0,0,0-.5327-.2207.614.614,0,0,0-.561.3272,1.2543,1.2543,0,0,0-.1563.6533,1.9611,1.9611,0,0,0,.5254,1.2432,4.4239,4.4239,0,0,0,.5967.5673q.4688.3912.6177.5469a4.5553,4.5553,0,0,1,.7671.9805,3.7313,3.7313,0,0,1,.206.4189A2.4311,2.4311,0,0,1,4.439,6.7969Z"/><path class="cls-1" d="M8.6963,9.0127H7.3535V.1133H8.6963Z"/><path class="cls-1" d="M13.2041.1064l1.7813,5.9854V.1064h1.3422V9.0127H14.8857L13.04,3.31V9.0127H11.6968V.1064Z"/><path class="cls-1" d="M21.4365,9.126a2.1213,2.1213,0,0,1-2.1308-2.1231V2.1445a2.0483,2.0483,0,0,1,.625-1.5088,2.13,2.13,0,0,1,3.0117.003A2.0665,2.0665,0,0,1,23.56,2.1445V3.16H22.168V2.1162a.7761.7761,0,0,0-.774-.7744.7351.7351,0,0,0-.5434.2275.7525.7525,0,0,0-.2236.5469V6.9883a.7636.7636,0,0,0,.767.7676.7549.7549,0,0,0,.5469-.2237.7361.7361,0,0,0,.2271-.5439V5.76H23.56V7.0029A2.1206,2.1206,0,0,1,21.4365,9.126Z"/><path class="cls-1" d="M26.4609,9.0127V.1064h3.8213v1.35H27.8037V3.8848h1.811v1.35h-1.811V7.6631h2.4785v1.35Z"/><path class="cls-1" d="M40.1758,6.9668,39.85,9.0127H38.4517L39.9648.1133H41.811l1.4917,8.8994H41.8911l-.314-2.0459Zm.7051-4.8145L40.3838,5.66h.9941Z"/><path class="cls-1" d="M47.7383.1064,49.52,6.0918V.1064h1.3423V9.0127H49.42L47.5737,3.31V9.0127H46.231V.1064Z"/><path class="cls-1" d="M55.9717,9.126a2.1215,2.1215,0,0,1-2.1309-2.1231V2.1445a2.0483,2.0483,0,0,1,.625-1.5088,2.0613,2.0613,0,0,1,1.5059-.622,2.04,2.04,0,0,1,1.5058.625,2.0661,2.0661,0,0,1,.6177,1.5058V3.16H56.7031V2.1162a.7759.7759,0,0,0-.7739-.7744.7354.7354,0,0,0-.5435.2275.7525.7525,0,0,0-.2236.5469V6.9883a.7636.7636,0,0,0,.7671.7676.755.755,0,0,0,.5469-.2237.7364.7364,0,0,0,.227-.5439V5.76h1.3921V7.0029A2.1206,2.1206,0,0,1,55.9717,9.126Z"/><path class="cls-1" d="M62.3374,9.0127H60.9951V.1133h1.3423Z"/><path class="cls-1" d="M65.3374,9.0127V.1064h3.8213v1.35H66.68V3.8848h1.8105v1.35H66.68V7.6631h2.4785v1.35Z"/><path class="cls-1" d="M73.3892.1064,75.17,6.0918V.1064h1.3418V9.0127H75.0708L73.2241,3.31V9.0127H71.8813V.1064Z"/><path class="cls-1" d="M80.8188,1.4629H79.3911V.1133h4.19v1.35h-1.42v7.55H80.8188Z"/><path class="cls-1" d="M91.98,1.4629H90.5522V.1133h4.1905v1.35H93.3218v7.55H91.98Z"/><path class="cls-1" d="M98.9644,9.0127H97.6216V.1133h1.3428Z"/><path class="cls-1" d="M103.3062,9.0127h-1.3418V.1064H103.89l1.251,6.3975L106.3423.1064h1.8506V9.0127H106.85V3.416L105.686,9.0127h-1.08l-1.3-5.582Z"/><path class="cls-1" d="M111.1929,9.0127V.1064h3.82v1.35h-2.4785V3.8848h1.8115v1.35h-1.8115V7.6631h2.4785v1.35Z"/><path class="cls-1" d="M122.1763,6.7969a2.5035,2.5035,0,0,1-.4825,1.5908,1.743,1.743,0,0,1-.9238.6318,2.5122,2.5122,0,0,1-.7451.1,2.1091,2.1091,0,0,1-1.3076-.3906,2.1862,2.1862,0,0,1-.6846-.87,3.492,3.492,0,0,1-.2949-1.2607l1.2783-.0918a1.9435,1.9435,0,0,0,.4121,1.1279.689.689,0,0,0,.5537.25.8356.8356,0,0,0,.7032-.4336,1.08,1.08,0,0,0,.1347-.5908,1.6393,1.6393,0,0,0-.5039-1.1016q-.3984-.3765-1.1933-1.13a5.0819,5.0819,0,0,1-.9444-1.1591,2.6751,2.6751,0,0,1-.2988-1.251A2.1742,2.1742,0,0,1,118.6968.377a2.0284,2.0284,0,0,1,1.25-.377,2.2741,2.2741,0,0,1,1.2285.3193,1.8482,1.8482,0,0,1,.6426.6963,2.5792,2.5792,0,0,1,.2949,1.0293l-1.2861.2344a1.5375,1.5375,0,0,0-.3125-.8516.6545.6545,0,0,0-.5323-.2207.6148.6148,0,0,0-.5615.3272,1.264,1.264,0,0,0-.1562.6533,1.9626,1.9626,0,0,0,.5263,1.2432,4.4062,4.4062,0,0,0,.5957.5673q.4688.3912.6182.5469a4.5747,4.5747,0,0,1,.7676.9805,3.912,3.912,0,0,1,.206.4189A2.463,2.463,0,0,1,122.1763,6.7969Z"/></svg>