<svg id="Content" xmlns="http://www.w3.org/2000/svg" xmlns:xlink="http://www.w3.org/1999/xlink" width="320" height="568" viewBox="0 0 320 568"><defs><style>.cls-1{fill:url(#New_Gradient_Swatch_1);}.cls-2{fill:#fff;}.cls-3{font-size:10.40279px;fill:#b89344;font-family:nevis-Bold, nevis;font-weight:700;}.cls-4{fill:none;stroke:#ba9544;stroke-miterlimit:10;stroke-width:0.33363px;}</style><linearGradient id="New_Gradient_Swatch_1" x1="204.81858" y1="393.85395" x2="246.28141" y2="393.85395" gradientUnits="userSpaceOnUse"><stop offset="0" stop-color="#a68834"/><stop offset="0.49324" stop-color="#c8ad67"/><stop offset="1" stop-color="#937f2e"/></linearGradient></defs><title>citrus</title><polygon class="cls-1" points="235.915 375.9 215.185 375.9 204.819 393.853 215.185 411.807 235.915 411.807 246.281 393.853 235.915 375.9"/><path class="cls-2" d="M234.03,396.39627a9.11452,9.11452,0,0,1-13.81646-11.84568l-.84377-.72434a10.22515,10.22515,0,0,0,15.504,13.29437Z"/><path class="cls-2" d="M219.19986,390.99992a8.283,8.283,0,0,0,2.5718,5.13976l4.89894-5.71383Z"/><path class="cls-2" d="M222.338,396.62437a8.28613,8.28613,0,0,0,5.39211,1.76077l-.56638-7.38791Z"/><path class="cls-2" d="M220.8225,385.07265a8.28223,8.28223,0,0,0-1.67216,5.18406l7.08354-.54518Z"/><path class="cls-2" d="M233.41952,395.87364l-5.49615-4.71207.549,7.16443a8.27923,8.27923,0,0,0,4.94711-2.45236"/><path class="cls-2" d="M226.6365,389.0941c.0366-.46427.29667-.759.59142-.78213.29282-.025.51051.22925.47389.69352a1.57891,1.57891,0,0,1-.59911.88423,1.02162,1.02162,0,0,1-.4662-.79562"/><path class="cls-2" d="M228.55641,389.53717c.45077-.13291.74744.02312.78405.314.0366.289-.20035.603-.6492.73591a1.03962,1.03962,0,0,1-.88426-.28512s.29862-.63188.74941-.76481"/><path class="cls-2" d="M229.38958,403.8963a.96189.96189,0,1,1-1.92259.06743c-.01734-.52977.90736-1.57969.90736-1.57969s.99789.98249,1.01523,1.51226"/><path class="cls-2" d="M229.04726,403.26982a.26993.26993,0,0,1-.23118.30053l-.79947.0289a.27106.27106,0,0,1-.25044-.28319,2.89351,2.89351,0,0,0,.08669-1.53345c-.30631-.9112-2.4408-1.62784-2.30787-1.6317l4.39613-.30823a3.17907,3.17907,0,0,0-1.18283,1.93416,2.0052,2.0052,0,0,0,.289,1.493"/><text class="cls-3" transform="translate(205.37109 436.2621)">CITRUS</text><rect class="cls-4" x="304.46707" y="6.87516" width="8.4782" height="8.4782"/><line class="cls-4" x1="305.72322" y1="14.13152" x2="311.72603" y2="8.27164"/><line class="cls-4" x1="305.8422" y1="8.27164" x2="311.70208" y2="14.27444"/></svg>