<svg id="Content" xmlns="http://www.w3.org/2000/svg" viewBox="0 0 640 1136"><defs><style>.cls-1{fill:#ba9544;}</style></defs><title>Frame2 - Durga Mata</title><path class="cls-1" d="M129.08,351.7h12c7.57,0,11.29,4.2,11.29,11.9V388c0,7.7-3.72,11.9-11.29,11.9h-12Zm7.57,6.88V393h4.26c2.41,0,3.86-1.24,3.86-4.68V363.26c0-3.44-1.45-4.68-3.86-4.68Z"/><path class="cls-1" d="M170.3,351.7v37.16c0,3.44,1.51,4.68,3.92,4.68s3.92-1.24,3.92-4.68V351.7h7.16v36.68c0,7.71-3.86,12.11-11.29,12.11s-11.28-4.4-11.28-12.11V351.7Z"/><path class="cls-1" d="M213.58,399.87c-.41-1.24-.69-2-.69-5.92v-7.57c0-4.47-1.51-6.12-4.95-6.12h-2.62v19.61h-7.57V351.7h11.43c7.84,0,11.22,3.65,11.22,11.08v3.78c0,5-1.59,8.19-5,9.78,3.79,1.58,5,5.22,5,10.25V394a14.14,14.14,0,0,0,.83,5.85Zm-8.26-41.29v14.8h3c2.83,0,4.54-1.24,4.54-5.1v-4.75c0-3.44-1.17-4.95-3.85-4.95Z"/><path class="cls-1" d="M244.07,373h10.6v15.28c0,7.71-3.86,12.11-11.29,12.11s-11.29-4.4-11.29-12.11V363.26c0-7.71,3.86-12.11,11.29-12.11s11.29,4.4,11.29,12.11v4.68h-7.16v-5.16c0-3.44-1.52-4.75-3.92-4.75s-3.93,1.31-3.93,4.75v26c0,3.44,1.52,4.68,3.93,4.68s3.92-1.24,3.92-4.68v-8.88h-3.44Z"/><path class="cls-1" d="M291.35,399.87h-7.64l-1.31-8.74h-9.29l-1.31,8.74h-6.95l7.71-48.17h11.08Zm-17.28-15.28h7.3l-3.65-24.36Z"/><path class="cls-1" d="M336.15,385.9l5.16-34.2h10.53v48.17h-7.16V365.32l-5.23,34.55h-7.16l-5.64-34.06v34.06H320V351.7h10.53Z"/><path class="cls-1" d="M389.14,399.87H381.5l-1.31-8.74H370.9l-1.31,8.74h-6.95l7.71-48.17h11.08Zm-17.28-15.28h7.3l-3.65-24.36Z"/><path class="cls-1" d="M397.74,351.7h23.39v6.88h-7.91v41.29h-7.57V358.58h-7.91Z"/><path class="cls-1" d="M456.23,399.87h-7.64l-1.31-8.74H438l-1.3,8.74h-6.95l7.7-48.17h11.08ZM439,384.59h7.29l-3.64-24.36Z"/><path class="cls-1" d="M496.08,358c-2.41,0-3.93,1.31-3.93,4.75v5.16H485v-4.68c0-7.71,3.85-12.11,11.28-12.11s11.29,4.4,11.29,12.11c0,15.14-15.07,20.78-15.07,28.7a5.15,5.15,0,0,0,.07,1h14.31v6.88H485V394c0-14.17,15-16.51,15-30.42C500,359.2,498.49,358,496.08,358Z"/></svg>