<svg id="Content" xmlns="http://www.w3.org/2000/svg" xmlns:xlink="http://www.w3.org/1999/xlink" width="728" height="360" viewBox="0 0 728 360"><defs><style>.cls-1{fill:#ba9544;}.cls-2{fill:#fff;stroke:#ba9544;stroke-miterlimit:10;stroke-width:0.5px;}.cls-3{clip-path:url(#clip-path);}</style><clipPath id="clip-path"><polygon class="cls-1" points="377.207 219.371 388.949 236.003 417.776 236.023 417.776 202.443 388.949 202.435 377.207 219.371"/></clipPath></defs><title>CBD - Durga Mata</title><polygon class="cls-2" points="621.295 203.279 388.693 202.398 376.951 219.331 388.693 235.963 621.295 235.566 631.863 219.424 621.295 203.279"/><polygon class="cls-1" points="377.207 219.371 388.949 236.003 417.776 236.023 417.776 202.443 388.949 202.435 377.207 219.371"/><g class="cls-3"><rect class="cls-1" x="374.6099" y="199.8398" width="17.16039" height="38.77851"/></g><path class="cls-1" d="M513.60489,224.91718a5.697,5.697,0,0,1,4.05078-9.75293,6.16431,6.16431,0,0,1,4.1836,1.51855l-1.51856,1.66309a4.1997,4.1997,0,0,0-2.665-.91114,3.34367,3.34367,0,0,0-2.47168.957,3.30924,3.30924,0,0,0-.9375,2.42871,3.41107,3.41107,0,0,0,.94922,2.5205,3.36172,3.36172,0,0,0,2.47559.93457,4.08624,4.08624,0,0,0,2.64941-.90332l1.51856,1.66211a6.14208,6.14208,0,0,1-4.1836,1.51856A5.54378,5.54378,0,0,1,513.60489,224.91718Z"/><path class="cls-1" d="M532.37735,220.54706a3.23423,3.23423,0,0,1-1.85254,6.01367l-6.4082-.00781V215.17206h6.04395q2.877.167,3.03711,3.34863A2.38264,2.38264,0,0,1,532.37735,220.54706Zm-5.97461-.81152h3.18848a1.28635,1.28635,0,0,0,1.41211-1.41993q-.03809-.835-1.38965-.88086h-3.21094Zm0,5.041h3.71973a1.4866,1.4866,0,0,0,1.63965-1.64746q-.03809-1.09423-1.61719-1.13867h-3.74219Z"/><path class="cls-1" d="M536.2338,226.55292V215.15741h4.38867q5.31445,0,5.31445,5.70117,0,5.69385-5.31445,5.69434Zm4.38867-2.27051q3.0293-.00732,3.03711-3.42383-.00879-3.416-3.03711-3.416h-2.11035v6.83984Z"/><path class="cls-1" d="M548.47989,219.2912a1.10108,1.10108,0,0,1,.82032-.30762,1.14293,1.14293,0,0,1,.85058.30762,1.10584,1.10584,0,0,1,0,1.52246,1.30094,1.30094,0,0,1-1.6709,0,1.10584,1.10584,0,0,1,0-1.52246Zm0,5.43555a1.10108,1.10108,0,0,1,.82032-.30762,1.14293,1.14293,0,0,1,.85058.30762,1.04563,1.04563,0,0,1,.30371.76367,1.0298,1.0298,0,0,1-.30371.75879,1.30094,1.30094,0,0,1-1.6709,0,1.0298,1.0298,0,0,1-.30371-.75879A1.04563,1.04563,0,0,1,548.47989,224.72675Z"/><path class="cls-1" d="M565.88126,220.21307q-.0454,3.63721-1.37012,5.04883a3.84588,3.84588,0,0,1-3.291,1.24512,4.73538,4.73538,0,0,1-3.05957-1.44238l1.2832-1.39649a3.98092,3.98092,0,0,0,1.89746.64551,2.01019,2.01019,0,0,0,1.625-.48633,3.06534,3.06534,0,0,0,.84277-1.86035,3.56343,3.56343,0,0,1-2.36132.75977,3.81228,3.81228,0,0,1-2.8086-1.30957,3.90983,3.90983,0,0,1-.66894-2.85157,3.74165,3.74165,0,0,1,1.32519-2.57714,4.02416,4.02416,0,0,1,3.13184-.79395,3.71656,3.71656,0,0,1,2.5625,1.51172A6.412,6.412,0,0,1,565.88126,220.21307Zm-2.27734-1.25195q-.07617-1.58788-1.82227-1.65527-1.74609.06738-1.82226,1.51074a1.71956,1.71956,0,0,0,1.89843,1.89746A1.69067,1.69067,0,0,0,563.60392,218.96112Z"/><path class="cls-1" d="M567.90079,223.508v-1.51075h4.707V223.508Z"/><path class="cls-1" d="M577.51993,215.16425v-.00684h2.27051v11.39551h-2.27051v-8.35156l-1.51855,1.51855-1.51856-1.51855Z"/><path class="cls-1" d="M589.15079,220.78241q.20508.07617.37207.15234a2.232,2.232,0,0,1,1.17676,2.27735,2.91866,2.91866,0,0,1-1.25684,2.35351,4.59741,4.59741,0,0,1-2.92675.98731,6.74554,6.74554,0,0,1-2.64942-.45508,5.76475,5.76475,0,0,1-1.82226-1.21484l1.51855-1.51856a3.607,3.607,0,0,0,2.582,1.0625q1.51758,0,1.89356-.64551a1.19928,1.19928,0,0,0,0-1.29q-.375-.646-2.64551-.72168v-2.04981q2.27051.15234,2.64551-.49316a1.201,1.201,0,0,0,0-1.291q-.375-.64453-1.89356-.64551a2.7033,2.7033,0,0,0-2.20215.91114l-1.51855-1.51856a5.29234,5.29234,0,0,1,1.63281-1.13867,6.35178,6.35178,0,0,1,2.459-.37988,4.009,4.009,0,0,1,2.77539.9873,3.05432,3.05432,0,0,1,1.10449,2.35352,2.253,2.253,0,0,1-1.02442,2.16406C589.30509,220.70429,589.23185,220.74237,589.15079,220.78241Z"/><path class="cls-1" d="M593.21231,219.97089a2.936,2.936,0,1,1,2.03516.81933A2.767,2.767,0,0,1,593.21231,219.97089Zm2.0127-.53223a1.35451,1.35451,0,0,0,1.04-.43262,1.64042,1.64042,0,0,0,0-2.15234,1.37149,1.37149,0,0,0-1.04785-.42871,1.35414,1.35414,0,0,0-1.03321.42871,1.64042,1.64042,0,0,0,0,2.15234A1.35518,1.35518,0,0,0,595.225,219.43866Zm-.60742,7.11426,6.45312-11.38867h1.85254l-6.43847,11.38867Zm5.65625-.75195a2.91488,2.91488,0,1,1,2.01953.8125A2.73942,2.73942,0,0,1,600.27384,225.801Zm1.98144-.55372a1.32832,1.32832,0,0,0,1.01661-.42187,1.58456,1.58456,0,0,0,0-2.09473,1.338,1.338,0,0,0-1.02442-.42187,1.32074,1.32074,0,0,0-1.00976.42187,1.58745,1.58745,0,0,0,0,2.09473A1.33039,1.33039,0,0,0,602.25528,225.24725Z"/></svg>