<svg id="Content" xmlns="http://www.w3.org/2000/svg" xmlns:xlink="http://www.w3.org/1999/xlink" width="728" height="360" viewBox="0 0 728 360"><defs><style>.cls-1{fill:url(#New_Gradient_Swatch_2);}.cls-2{fill:url(#New_Gradient_Swatch_1);}.cls-3{fill:url(#linear-gradient);}.cls-4{fill:url(#linear-gradient-2);}.cls-5{fill:url(#linear-gradient-3);}.cls-6{fill:url(#linear-gradient-4);}.cls-7{fill:url(#linear-gradient-5);}.cls-8{fill:url(#linear-gradient-6);}.cls-9{fill:url(#linear-gradient-7);}.cls-10{fill:url(#New_Gradient_Swatch_2-2);}.cls-11{fill:#a89255;}.cls-12{clip-path:url(#clip-path);}.cls-13{fill:#fff;}</style><linearGradient id="New_Gradient_Swatch_2" x1="524.6883" y1="317.81167" x2="730.7748" y2="317.81167" gradientUnits="userSpaceOnUse"><stop offset="0" stop-color="#a88a34"/><stop offset="0.1878" stop-color="#caaf67"/><stop offset="0.46098" stop-color="#a08a4a"/><stop offset="0.76341" stop-color="#caaf67"/><stop offset="1" stop-color="#957f2e"/></linearGradient><linearGradient id="New_Gradient_Swatch_1" x1="612.08051" y1="55.18022" x2="695.83566" y2="55.18022" gradientUnits="userSpaceOnUse"><stop offset="0" stop-color="#a88a34"/><stop offset="0.49324" stop-color="#caaf67"/><stop offset="1" stop-color="#957f2e"/></linearGradient><linearGradient id="linear-gradient" x1="697.10631" y1="236.01817" x2="697.10631" y2="95.53754" gradientUnits="userSpaceOnUse"><stop offset="0" stop-color="#a88a34"/><stop offset="0.49894" stop-color="#caaf67"/><stop offset="1" stop-color="#957f2e"/></linearGradient><linearGradient id="linear-gradient-2" x1="658.19249" y1="162.88485" x2="658.19249" y2="59.15805" xlink:href="#linear-gradient"/><linearGradient id="linear-gradient-3" x1="671.37287" y1="198.46096" x2="671.37287" y2="61.95681" xlink:href="#linear-gradient"/><linearGradient id="linear-gradient-4" x1="684.20333" y1="201.5708" x2="684.20333" y2="82.08548" xlink:href="#linear-gradient"/><linearGradient id="linear-gradient-5" x1="611.89129" y1="117.80444" x2="611.89129" y2="2.35754" xlink:href="#linear-gradient"/><linearGradient id="linear-gradient-6" x1="642.56352" y1="146.96965" x2="642.56352" y2="43.84723" xlink:href="#linear-gradient"/><linearGradient id="linear-gradient-7" x1="626.89785" y1="131.56926" x2="626.89785" y2="27.8428" xlink:href="#linear-gradient"/><linearGradient id="New_Gradient_Swatch_2-2" x1="702.65903" y1="95.25209" x2="708.42889" y2="95.25209" xlink:href="#New_Gradient_Swatch_2"/><clipPath id="clip-path"><polygon class="cls-1" points="536.948 299.421 524.688 317.81 536.948 336.202 730.775 336.202 730.775 299.421 536.948 299.421"/></clipPath></defs><title>CTA2</title><path class="cls-2" d="M648.86655,83.25026c.9102-.26845,2.56125,1.2749,2.66855,1.2749a1.96957,1.96957,0,0,0,.55042-1.27106c0-.54492-.38894-1.60482-.46186-2.24624a10.68429,10.68429,0,0,0-.38794-1.8583c-.142-.42231-1.129-.60638-1.6586-.93319a8.65037,8.65037,0,0,1-1.33637-.92517,4.22719,4.22719,0,0,1-.56816-1.93884,7.62242,7.62242,0,0,0-.31879-1.97361c-.1844-.34555-.65845-.5897-.979-.91028a1.37833,1.37833,0,0,1-.33025-.8484c.24587-.07677.32264.5567.60672.61055s.26494.28786.71017.44139c.44557.15347.46087.365.51849.77966s.55671,1.81591.7217,2.38792c.16533.57234.33787,1.0026.90259,1.02168.56433.01914.48756.31084,1.15157.25739a3.718,3.718,0,0,1,1.59369.30693c.357.12678.80641.13823.95988-.11108.15353-.2497-.10763-1.25582-.10763-1.25582-.23024,0-.26885-.31077-.357-.5987-.08823-.28825.05378-.31117.05378-.31117a1.21686,1.21686,0,1,1,2.31923,0s.142.02292.05379.31117c-.08856.28793-.12678.5987-.35734.5987,0,0-.26084,1.00612-.10731,1.25582.15347.24931.60288.23786.95989.11108a3.71736,3.71736,0,0,1,1.59335-.30693c.66434.05345.58758-.23825,1.1519-.25739.56472-.01908.73733-.44934.90226-1.02168.16532-.572.66434-1.97329.722-2.38792s.07293-.62619.51849-.77966c.44523-.15353.42609-.38754.71018-.44139s.36118-.68732.60671-.61055a1.38061,1.38061,0,0,1-.33025.8484c-.32058.32058-.79462.56473-.979.91028a7.622,7.622,0,0,0-.31879,1.97361,4.22717,4.22717,0,0,1-.56817,1.93884,8.65367,8.65367,0,0,1-1.33636.92517c-.52995.32681-1.51659.51088-1.6586.93319a10.63987,10.63987,0,0,0-.38794,1.8583c-.07293.64142-.46186,1.70132-.46186,2.24624a1.96957,1.96957,0,0,0,.55041,1.27106c.10731,0,1.75868-1.54335,2.66856-1.2749.90987.26918.549,1.54368-.39556,2.48793a4.04537,4.04537,0,0,1-1.957,1.22038,10.59859,10.59859,0,0,1,1.48573.2778,15.90437,15.90437,0,0,1,4.24376,2.42162,15.41949,15.41949,0,0,0,3.784,2.20942,3.22931,3.22931,0,0,0,.36609.08027c.12988-.10876.81052-.50153.81052-.50153a15.2288,15.2288,0,0,0,1.71006.73177l-4.35742-3.36,8.63735,3.76c.142.06146.28474.1181.42682.16877l5.22067.09306c1.3704.025,2.72379-.035,3.98021-.13228-1.01261-.62479-2.1094-1.24853-3.28494-1.82326l-4.58064-2.24c-.15247-.0194-.30839-.034-.46676-.04338l-9.98477-.59976,6.48794-1.12766-4.20594-1.36895,7.19812-.04723a24.43439,24.43439,0,0,0,4.91414-.54041l-6.80336-1.29569,9.97053-.44279a9.78425,9.78425,0,0,0,1.66906-.21288l-.75707.09167,6.58035-3.08736a58.79829,58.79829,0,0,0,6.09411-3.34992,64.3058,64.3058,0,0,0-7.128-.43165l-7.47909.017.83311-.27262a9.36775,9.36775,0,0,0-1.76491.54452l-8.72518,3.63645,5.28015-3.934-.04027.00663-.12055-.90716-.95955-1.58256a31.61555,31.61555,0,0,0,7.18951-7.42213l-7.05439,3.37733,7.18772-5.98648a11.83854,11.83854,0,0,0,2.28234-2.47441c.9269-1.401,1.78749-2.83627,2.57238-4.28934l-2.22789,2.20008,2.67061-5.80937a76.72148,76.72148,0,0,0,3.9514-10.92485,92.996,92.996,0,0,0-10.58864,6.822l-5.22875,3.96252,1.66767-2.59874c-1.35266,1.15024-2.66054,2.36434-3.90868,3.62877a11.45678,11.45678,0,0,0-1.9246,2.697l-3.81913,7.3145,1.3565-6.67619a31.56414,31.56414,0,0,0-3.02556,3.6187l-.66573.92862-.61016-.4188a1.74125,1.74125,0,0,0-.09445.1587l-5.24571,9.94761,3.09359-10.812a34.3211,34.3211,0,0,0,1.02618-13.56844l-3.6124,6.71374,1.7496-8.07647a13.14836,13.14836,0,0,0,.27329-4.03022,65.06642,65.06642,0,0,0-1.38809-8.15317l-.4761,3.96419-1.56832-5.77943A98.33735,98.33735,0,0,0,653.95812,17.515a98.23733,98.23733,0,0,0-5.35552,14.49533l-1.568,5.77943-.47643-3.96419a65.1267,65.1267,0,0,0-1.38809,8.15317,13.1552,13.1552,0,0,0,.27328,4.03056l1.74755,8.07891-3.61035-6.71546a34.31609,34.31609,0,0,0,1.02618,13.56738l3.094,10.81265-5.2461-9.94828a1.66862,1.66862,0,0,0-.09446-.1587l-.61015.4188-.66574-.92862a31.56711,31.56711,0,0,0-3.02556-3.6187l1.35683,6.67619-3.81946-7.3145a11.46323,11.46323,0,0,0-1.92427-2.697c-1.24568-1.26205-2.55184-2.47442-3.90311-3.62321l1.67145,2.6008-5.23842-3.97014a92.95069,92.95069,0,0,0-10.58864-6.822,76.70867,76.70867,0,0,0,3.95133,10.92485l2.67068,5.80937-2.2279-2.20008c.78489,1.45307,1.64582,2.88839,2.57272,4.28934a11.82711,11.82711,0,0,0,2.282,2.47441l7.18773,5.98648-7.0544-3.37733a31.60768,31.60768,0,0,0,7.18952,7.42213l-.95956,1.58256-.12054.90716-.04061-.00663,5.28081,3.93438-8.72551-3.63678a9.42452,9.42452,0,0,0-1.76417-.54452l.83277.27262-7.47949-.017a64.31094,64.31094,0,0,0-7.128.43165,58.79848,58.79848,0,0,0,6.09412,3.34992l6.58034,3.087-.75674-.09167a9.7425,9.7425,0,0,0,1.66874.21321l9.97046.44279-6.80322,1.29569a24.43614,24.43614,0,0,0,4.91406.54041l7.2172.04723L636.745,86.87419l6.48411,1.12693-9.985.59976q-.23816.014-.46716.04338l-4.58136,2.24c-1.17482.57473-2.27154,1.19847-3.28421,1.82326,1.25681.09724,2.6098.15692,3.98021.13228l5.22073-.09306c.142-.05067.28475-.10731.42715-.16877l8.637-3.76-4.35743,3.36a15.22817,15.22817,0,0,0,1.71007-.73177s.68.39211.80986.50114a3.1864,3.1864,0,0,0,.36634-.07988A15.41344,15.41344,0,0,0,645.4896,89.658a15.90639,15.90639,0,0,1,4.24377-2.42162,10.59675,10.59675,0,0,1,1.48572-.2778,4.04546,4.04546,0,0,1-1.957-1.22038C648.31752,84.79394,647.95634,83.51944,648.86655,83.25026Z"/><polygon class="cls-3" points="702.113 100.901 702.113 98.357 692.1 98.366 692.1 111.986 702.095 111.986 702.095 109.442 694.826 109.442 694.826 106.344 700.287 106.344 700.287 103.809 694.826 103.809 694.826 100.901 702.113 100.901"/><path class="cls-4" d="M656.83406,98.35661l-5.452,13.62981h2.90739l.81787-2.08989h6.17888l.81787,2.08989,2.89876-.00931-5.44265-13.6205Zm-.63588,8.814,2.07191-5.17971,2.017,5.17971Z"/><path class="cls-5" d="M675.14388,104.94436a6.75882,6.75882,0,0,0-3.1349-1.13562,3.59285,3.59285,0,0,1-2.09-.81818,1.06346,1.06346,0,0,1,0-1.31764q.45473-.77193,2.09-.772a3.13009,3.13009,0,0,1,2.54455,1.09014l1.81694-1.81739a6.35835,6.35835,0,0,0-1.95344-1.363,7.60678,7.60678,0,0,0-2.94429-.45426,5.45572,5.45572,0,0,0-3.18461,1.09494,3.39144,3.39144,0,0,0-1.54925,2.90331,3.016,3.016,0,0,0,1.36281,2.81683,7.32438,7.32438,0,0,0,2.99877.99948q1.817.18183,2.26707.954a1.44,1.44,0,0,1,0,1.54507q-.44961.772-2.26707.772a4.31668,4.31668,0,0,1-3.08946-1.272l-1.81771,1.81761a6.87787,6.87787,0,0,0,2.18095,1.45379,8.07155,8.07155,0,0,0,3.1714.54487,5.50418,5.50418,0,0,0,3.50274-1.18111,3.49369,3.49369,0,0,0,1.50408-2.81678A3.4116,3.4116,0,0,0,675.14388,104.94436Z"/><polygon class="cls-6" points="678.297 100.901 682.84 100.901 682.84 111.986 685.566 111.986 685.566 100.901 690.11 100.901 690.11 98.357 678.297 98.357 678.297 100.901"/><polygon class="cls-7" points="615.253 106.898 606.712 98.357 605.803 98.357 605.803 111.986 608.529 111.986 608.529 103.536 616.98 111.986 617.979 111.986 617.979 98.357 615.253 98.357 615.253 106.898"/><polygon class="cls-8" points="642.559 105.08 636.653 98.357 635.744 98.357 635.744 111.986 638.47 111.986 638.47 104.081 642.559 108.624 646.648 104.081 646.657 111.986 649.383 111.986 649.383 98.357 648.474 98.357 642.559 105.08"/><path class="cls-9" d="M625.53948,98.35661l-5.452,13.62981h2.90748l.81786-2.08989h6.17889l.81822,2.08989,2.89836-.00931-5.443-13.6205Zm-.63588,8.814,2.07151-5.17971,2.01708,5.17971Z"/><path class="cls-10" d="M704.07088,94.23585V96.7099h-.49142V94.23585H702.659v-.44157h2.33636v.44157Zm3.9039,2.47405-.00407-2.17832-.92044,1.87411h-.32083l-.92044-1.87411V96.7099h-.46225V93.79428h.583l.96215,1.93685.95808-1.93685h.57892V96.7099Z"/><path class="cls-11" d="M628.739,121.76049a1.92321,1.92321,0,0,1-1.10169,3.576l-3.81079-.00451v-6.76821h3.59406q1.71156.09964,1.80606,1.99118A1.41743,1.41743,0,0,1,628.739,121.76049Zm-3.55342-.48312h1.89636a.7643.7643,0,0,0,.83982-.84433q-.02224-.49635-.82627-.52376h-1.90991Zm0,2.99806H627.398a.88388.88388,0,0,0,.97528-.97978q-.02226-.65019-.96173-.67728h-2.226Z"/><path class="cls-11" d="M630.63536,118.55925h1.58933l1.57127,2.21243,1.6074-2.21243h1.55321l-2.48333,3.38637V125.332h-1.35455v-3.38636Z"/><path class="cls-11" d="M646.42936,125.332h-5.4227l.00452-.45152,3.15609-5.057h-3.15609l-.00452-1.26425h5.4227v.49667l-3.16964,5.01182h3.16964Z"/><path class="cls-11" d="M648.13092,125.332v-6.76821l4.9757-.00452v1.26425h-3.62115v1.44484h2.71361v1.25973h-2.71361v1.53967h3.61212V125.332Z"/><path class="cls-11" d="M654.4702,125.332v-6.77273h.45151l4.24424,4.24424v-4.24424h1.35455V125.332h-.49667l-4.19909-4.19909V125.332Z"/><path class="cls-11" d="M661.568,125.332l2.70909-6.77273h1.35454l2.70393,6.76821-1.43969.00452-.40636-1.03849h-3.0703l-.40637,1.03849Zm3.42248-4.96667-1.02945,2.57364h2.03181Z"/><path class="cls-11" d="M674.15626,121.76049a1.92343,1.92343,0,0,1-1.1017,3.576l-3.81079-.00451v-6.76821h3.59406q1.7106.09964,1.80606,1.99118A1.421,1.421,0,0,1,674.15626,121.76049Zm-3.55407-.48312h1.89636a.76374.76374,0,0,0,.83982-.84433c-.01419-.3309-.29026-.5057-.82563-.52376h-1.91055Zm0,2.99806h2.21242a.88332.88332,0,0,0,.97528-.97978q-.0213-.65019-.96109-.67728h-2.22661Z"/><path class="cls-11" d="M676.44995,118.55474h1.34939V125.332h-1.34939Z"/><path class="cls-11" d="M682.82535,118.785a3.144,3.144,0,0,1,.97011.67727l-.903.903a1.55433,1.55433,0,0,0-1.26424-.54181q-.81273,0-1.03849.38378a.53071.53071,0,0,0,0,.6547,1.78593,1.78593,0,0,0,1.03849.40636,3.36008,3.36008,0,0,1,1.55837.5644,1.69726,1.69726,0,0,1,.6992,1.51257,1.73714,1.73714,0,0,1-.74693,1.3997,2.73483,2.73483,0,0,1-1.74027.587,4.01444,4.01444,0,0,1-1.57643-.27091,3.43208,3.43208,0,0,1-1.08364-.72242l.903-.903a2.14705,2.14705,0,0,0,1.53515.63212q.90368,0,1.12621-.38379a.71229.71229,0,0,0,0-.76758q-.22252-.3841-1.12621-.47409a3.63855,3.63855,0,0,1-1.49-.49666,1.49831,1.49831,0,0,1-.67727-1.3997,1.68429,1.68429,0,0,1,.77016-1.44227,2.71039,2.71039,0,0,1,1.58288-.5444A3.78879,3.78879,0,0,1,682.82535,118.785Z"/><rect class="cls-11" x="605.80313" y="121.84856" width="12.1763" height="1.48263"/><rect class="cls-11" x="689.93668" y="121.84856" width="12.1763" height="1.48263"/><polygon class="cls-1" points="536.948 299.421 524.688 317.81 536.948 336.202 730.775 336.202 730.775 299.421 536.948 299.421"/><path class="cls-13" d="M558.57812,312.10761v9.22168H564.625v2.11621h-8.31445V312.10761Z"/><path class="cls-13" d="M566.46191,323.4455V312.11542l8.33008-.00781v2.11621h-6.0625v2.41894h4.543v2.1084h-4.543v2.57813h6.04688v2.11621Z"/><path class="cls-13" d="M576.47754,323.4455l4.53516-11.33789h2.26757l4.52735,11.33007-2.41114.00782-.68066-1.73828h-5.13965l-.68066,1.73828Zm5.72851-8.31446-1.72265,4.3086h3.40137Z"/><path class="cls-13" d="M596.32617,318.50214l2.82715,4.94336h-2.60059l-2.71289-4.68653h-2.07129v4.68653H589.501V312.10761h4.94336q3.96825,0,3.96777,3.26562A2.93132,2.93132,0,0,1,596.32617,318.50214Zm-4.55762-1.85938h3.17481q1.36816-.022,1.40527-1.24707-.03661-1.11913-1.38281-1.16406h-3.19727Z"/><path class="cls-13" d="M600.332,323.4455V312.10761h.75586l7.10547,7.10546v-7.10546h2.26758V323.4455h-.832l-7.0293-7.0293v7.0293Z"/><path class="cls-13" d="M618.10254,323.4455V312.10761h.75586l4.91308,5.59375,4.9209-5.59375h.75586V323.4455h-2.26758l-.00781-6.57618-3.40137,3.7793-3.40136-3.7793v6.57618Z"/><path class="cls-13" d="M632.75879,321.81659a5.83928,5.83928,0,1,1,4.04394,1.62891A5.49027,5.49027,0,0,1,632.75879,321.81659Zm4.05176-.4873a3.18652,3.18652,0,0,0,2.44824-1.02051,3.86423,3.86423,0,0,0,0-5.06446,3.46693,3.46693,0,0,0-4.91309,0,3.86726,3.86726,0,0,0,0,5.06446A3.20513,3.20513,0,0,0,636.81055,321.32929Z"/><path class="cls-13" d="M650.98242,318.50214l2.82715,4.94336H651.209l-2.71289-4.68653H646.4248v4.68653h-2.26757V312.10761h4.94336q3.96825,0,3.96777,3.26562A2.93132,2.93132,0,0,1,650.98242,318.50214Zm-4.55762-1.85938h3.17481q1.36816-.022,1.40527-1.24707-.03661-1.11913-1.38281-1.16406H646.4248Z"/><path class="cls-13" d="M654.958,323.4455V312.11542l8.33008-.00781v2.11621h-6.0625v2.41894h4.543v2.1084h-4.543v2.57813h6.04687v2.11621Z"/></svg>