<svg id="Layer_1" data-name="Layer 1" xmlns="http://www.w3.org/2000/svg" width="300" height="600" viewBox="0 0 300 600"><defs><style>.cls-1{fill:#ab9555;}</style></defs><title>frame3</title><path class="cls-1" d="M55.5992,336.8748V307.99266h6.507a8.2991,8.2991,0,0,1,4.65535,1.36177,6.339,6.339,0,0,1,2.53352,3.5637,10.15578,10.15578,0,0,1,.41169,3.07,6.83169,6.83169,0,0,1-1.535,4.6572,4.57478,4.57478,0,0,1-1.52011,1.12332,5.07137,5.07137,0,0,1,2.45341,2.18516,8.28554,8.28554,0,0,1,.99851,2.85021A11.81889,11.81889,0,0,1,70.262,328.816a9.69918,9.69918,0,0,1-1.03017,4.65348A6.68013,6.68013,0,0,1,63.658,336.8748Zm4.687-17.08636h1.82a2.67432,2.67432,0,0,0,2.72354-1.97838,5.677,5.677,0,0,0,.25335-1.8219,3.82628,3.82628,0,0,0-.87-2.72354,2.764,2.764,0,0,0-2.10692-.8532h-1.82Zm0,12.77937h1.82a3.096,3.096,0,0,0,3.0719-2.28017,4.91567,4.91567,0,0,0,.30178-1.78836,5.42931,5.42931,0,0,0-.93516-3.532,2.95358,2.95358,0,0,0-2.43852-1.01341h-1.82Z"/><path class="cls-1" d="M83.93971,307.99266q3.6438,0,5.33715,2.01192a7.26324,7.26324,0,0,1,1.50335,4.877v4.19522a6.72327,6.72327,0,0,1-2.323,5.17881l3.22651,12.61917H86.98738l-2.65647-10.909c-.12667.00931-.25894.0149-.39493.0149H81.43785V336.8748H77.0843V307.99266Zm2.59685,6.96718a2.20823,2.20823,0,0,0-2.47763-2.51861H81.43785v9.23244h2.62108a2.367,2.367,0,0,0,1.76042-.73583,2.4417,2.4417,0,0,0,.71721-1.766Z"/><path class="cls-1" d="M99.85734,336.8748V307.99266h12.39935v4.35542h-8.04393v7.91725h5.87367v4.35356h-5.87367v7.90049h8.04393v4.35542Z"/><path class="cls-1" d="M126.6754,330.23921l-1.06,6.63559h-4.52867l4.89193-28.88214h6.00221l4.82859,28.88214h-4.56033l-1.02832-6.63559Zm2.28017-15.62772-1.61512,11.38407h3.23024Z"/><path class="cls-1" d="M146.87464,312.34808H142.251v-4.35542h13.586v4.35542h-4.60691V336.8748h-4.35542Z"/><path class="cls-1" d="M166.72971,324.65056V336.8748h-4.35542V307.99266h4.35542v12.27267h5.22352V307.99266h4.35542V336.8748h-4.35542V324.65056Z"/><path class="cls-1" d="M184.67416,336.8748V307.99266h12.39749v4.35542h-8.04393v7.91725h5.87367v4.35356h-5.87367v7.90049h8.04393v4.35542Z"/><path class="cls-1" d="M217.68561,336.8748h-4.35356V307.99266h4.35356Z"/><path class="cls-1" d="M229.51166,307.99266l5.76376,19.39634V307.99266h4.35542V336.8748h-4.66466l-5.9929-18.4947v18.4947h-4.35355V307.99266Z"/><path class="cls-1" d="M247.05932,332.53614h4.35355v4.35356h-4.35355Z"/></svg>