<svg id="Content" xmlns="http://www.w3.org/2000/svg" xmlns:xlink="http://www.w3.org/1999/xlink" viewBox="0 0 728 360"><defs><style>.cls-1{fill:url(#New_Gradient_Swatch_1);}.cls-2{fill:#fff;}.cls-3{fill:#ba9544;}</style><linearGradient id="New_Gradient_Swatch_1" x1="84.81" y1="198.48" x2="142.65" y2="198.48" gradientUnits="userSpaceOnUse"><stop offset="0" stop-color="#a88a34"/><stop offset="0.49" stop-color="#caaf67"/><stop offset="1" stop-color="#957f2e"/></linearGradient></defs><title>berry</title><polygon class="cls-1" points="108.84 168.9 84.81 196.64 103.78 228.07 139.52 219.74 142.65 183.18 108.84 168.9"/><path class="cls-2" d="M122.14,201.6a.53.53,0,1,1-.11-.74.54.54,0,0,1,.11.74M119,194.91a.67.67,0,1,1,.67-.67.67.67,0,0,1-.67.67m-.66,8a.67.67,0,0,1-.66-.67.67.67,0,0,1,1.33,0,.68.68,0,0,1-.67.67m-.1-4.9a.54.54,0,0,1,0,1.07.54.54,0,1,1,0-1.07m-1.41,8.64a.58.58,0,1,1-1-.58.59.59,0,0,1,.79-.21.58.58,0,0,1,.22.79m-2.73-8.7a.59.59,0,0,1-.59-.59.59.59,0,1,1,.59.59m-.18,4.46a.53.53,0,1,1,.54-.53.53.53,0,0,1-.54.53m-1.72,2.39a.54.54,0,1,1,.53-.53.53.53,0,0,1-.53.53m-.6-4.21a.67.67,0,0,1-.94.07.66.66,0,0,1,.86-1,.68.68,0,0,1,.08.94m-1.66-5.49a.6.6,0,0,1,.59-.58.59.59,0,1,1-.59.58m8.52-3.53a14,14,0,0,0,3-2.29,7.93,7.93,0,0,0-3.78.39,5.46,5.46,0,0,0,.59-2.91,3,3,0,0,0-2.18,1.73,5.34,5.34,0,0,0-.76-2.55,3.3,3.3,0,0,0-1.21,2.95A3,3,0,0,0,111.8,187a5.44,5.44,0,0,0,.53,2.78,7.72,7.72,0,0,0-4-.47,13.24,13.24,0,0,0,3.14,2.38c-3.15.68-5.35,2.43-5.35,6.1,0,5,6.3,13.23,9,13.23,3,0,9-8.24,9-13.23,0-3.83-2.38-5.59-5.76-6.19"/><path class="cls-3" d="M95.62,253.27a3.13,3.13,0,0,1,1.51,2.49A3.08,3.08,0,0,1,93.85,259H87.73V248.14H93.5c1.83.11,2.8,1.17,2.9,3.2A2.25,2.25,0,0,1,95.62,253.27Zm-5.71-.77h3a1.23,1.23,0,0,0,1.34-1.36q0-.79-1.32-.84H89.91Zm0,4.81h3.55A1.42,1.42,0,0,0,95,255.74c0-.7-.54-1.06-1.54-1.09H89.91Z"/><path class="cls-3" d="M99.27,259V248.14h8v2h-5.81v2.32h4.35v2h-4.35V257h5.8v2Z"/><path class="cls-3" d="M116,254.26l2.72,4.75h-2.5l-2.6-4.5h-2V259h-2.17V248.13h4.74c2.54,0,3.81,1.05,3.81,3.13A2.8,2.8,0,0,1,116,254.26Zm-4.37-1.78h3c.87,0,1.32-.41,1.35-1.19s-.47-1.09-1.33-1.12h-3.07Z"/><path class="cls-3" d="M126.38,254.26l2.71,4.75H126.6l-2.6-4.5h-2V259h-2.17V248.13h4.74c2.53,0,3.8,1.05,3.8,3.13A2.79,2.79,0,0,1,126.38,254.26ZM122,252.48h3c.87,0,1.32-.41,1.34-1.19s-.46-1.09-1.32-1.12H122Z"/><path class="cls-3" d="M129.59,248.13h2.55l2.52,3.55,2.58-3.55h2.49l-4,5.44V259h-2.18v-5.44Z"/></svg>