<svg id="Content" xmlns="http://www.w3.org/2000/svg" xmlns:xlink="http://www.w3.org/1999/xlink" width="728" height="90" viewBox="0 0 728 90"><defs><style>.cls-1{fill:url(#New_Gradient_Swatch_1);}.cls-2{fill:url(#linear-gradient);}.cls-3{fill:url(#linear-gradient-2);}.cls-4{fill:url(#linear-gradient-3);}.cls-5{fill:url(#linear-gradient-4);}.cls-6{fill:url(#linear-gradient-5);}.cls-7{fill:url(#linear-gradient-6);}.cls-8{fill:url(#linear-gradient-7);}.cls-9{fill:url(#New_Gradient_Swatch_2);}.cls-10{fill:#a89255;}.cls-11{fill:url(#New_Gradient_Swatch_2-2);}.cls-12{fill:#fff;}</style><linearGradient id="New_Gradient_Swatch_1" x1="93.44831" y1="35.09122" x2="146.30379" y2="35.09122" gradientUnits="userSpaceOnUse"><stop offset="0" stop-color="#a88a34"/><stop offset="0.49324" stop-color="#caaf67"/><stop offset="1" stop-color="#957f2e"/></linearGradient><linearGradient id="linear-gradient" x1="147.10566" y1="149.21287" x2="147.10566" y2="60.55957" gradientUnits="userSpaceOnUse"><stop offset="0" stop-color="#a88a34"/><stop offset="0.49894" stop-color="#caaf67"/><stop offset="1" stop-color="#957f2e"/></linearGradient><linearGradient id="linear-gradient-2" x1="122.54826" y1="103.06052" x2="122.54826" y2="37.6015" xlink:href="#linear-gradient"/><linearGradient id="linear-gradient-3" x1="130.86602" y1="125.51159" x2="130.86602" y2="39.36772" xlink:href="#linear-gradient"/><linearGradient id="linear-gradient-4" x1="138.96296" y1="127.47413" x2="138.96296" y2="52.07036" xlink:href="#linear-gradient"/><linearGradient id="linear-gradient-5" x1="93.3289" y1="74.61157" x2="93.3289" y2="1.75633" xlink:href="#linear-gradient"/><linearGradient id="linear-gradient-6" x1="112.68526" y1="93.0169" x2="112.68526" y2="27.93928" xlink:href="#linear-gradient"/><linearGradient id="linear-gradient-7" x1="102.7991" y1="83.29815" x2="102.7991" y2="17.83935" xlink:href="#linear-gradient"/><linearGradient id="New_Gradient_Swatch_2" x1="150.60982" y1="60.37943" x2="154.25102" y2="60.37943" gradientUnits="userSpaceOnUse"><stop offset="0" stop-color="#a88a34"/><stop offset="0.1878" stop-color="#caaf67"/><stop offset="0.46098" stop-color="#a08a4a"/><stop offset="0.76341" stop-color="#caaf67"/><stop offset="1" stop-color="#957f2e"/></linearGradient><linearGradient id="New_Gradient_Swatch_2-2" x1="608.58379" y1="56.17729" x2="784.9116" y2="31.2573" xlink:href="#New_Gradient_Swatch_2"/></defs><title>CTA1</title><path class="cls-1" d="M116.66292,52.80541c.57441-.16941,1.61634.80455,1.684.80455a1.24287,1.24287,0,0,0,.34735-.80212c0-.34389-.24544-1.01276-.29146-1.41754a6.74166,6.74166,0,0,0-.24482-1.17272c-.08962-.26651-.71247-.38267-1.04669-.58891a5.45956,5.45956,0,0,1-.84335-.58385,2.66782,2.66782,0,0,1-.35855-1.22355,4.81,4.81,0,0,0-.20118-1.24549c-.11637-.21806-.41552-.37214-.61783-.57444a.8698.8698,0,0,1-.20841-.53541c.15515-.04845.2036.35132.38288.3853s.16719.18166.44817.27855c.28118.09685.29084.23032.3272.492s.35132,1.146.45545,1.50695c.10433.36118.21321.63271.56959.64475.35613.01208.30769.19616.72673.16243a2.34641,2.34641,0,0,1,1.00573.1937c.22529.08.5089.08723.60575-.0701.09689-.15758-.06792-.79251-.06792-.79251-.1453,0-.16967-.19612-.2253-.37782-.05568-.18191.03394-.19638.03394-.19638a.76792.76792,0,1,1,1.4636,0s.08962.01447.03394.19638c-.05589.1817-.08.37782-.22551.37782,0,0-.1646.63493-.06771.79251.09685.15733.38046.1501.60575.0701a2.34608,2.34608,0,0,1,1.00553-.1937c.41924.03373.3708-.15035.72693-.16243.35638-.012.4653-.28357.56938-.64475.10433-.361.41925-1.24528.45566-1.50695s.046-.39517.3272-.492c.281-.09689.2689-.24456.44817-.27855s.22793-.43375.38288-.3853a.87125.87125,0,0,1-.20841.53541c-.20231.2023-.50146.35638-.61783.57444a4.81,4.81,0,0,0-.20118,1.24549,2.66782,2.66782,0,0,1-.35855,1.22355,5.46154,5.46154,0,0,1-.84335.58385c-.33443.20624-.95707.3224-1.04669.58891a6.71483,6.71483,0,0,0-.24482,1.17272c-.046.40478-.29146,1.07365-.29146,1.41754a1.24287,1.24287,0,0,0,.34735.80212c.06771,0,1.10985-.974,1.684-.80455.57419.16987.34647.97417-.24963,1.57006a2.55288,2.55288,0,0,1-1.235.77015,6.68913,6.68913,0,0,1,.9376.17531,10.03713,10.03713,0,0,1,2.67812,1.52822,9.73089,9.73089,0,0,0,2.388,1.3943,2.03858,2.03858,0,0,0,.231.05066c.082-.06864.5115-.31651.5115-.31651a9.607,9.607,0,0,0,1.07917.4618L126.6801,56.319l5.45079,2.37286c.08962.03879.17969.07453.26935.1065l3.29462.05873c.86482.0158,1.71891-.02211,2.5118-.08347-.639-.39429-1.33118-.78792-2.073-1.15061l-2.8907-1.41361c-.09623-.01224-.19462-.02148-.29456-.02738l-6.30111-.37849,4.09436-.71163-2.65425-.8639,4.54253-.02981a15.4197,15.4197,0,0,0,3.10117-.341l-4.29341-.81767,6.29212-.27943a6.17577,6.17577,0,0,0,1.0533-.13434l-.47777.05785,4.15267-1.94835a37.10587,37.10587,0,0,0,3.84582-2.114,40.58085,40.58085,0,0,0-4.49826-.2724l-4.71985.01074.52575-.172a5.91129,5.91129,0,0,0-1.11378.34363L130.99144,50.826l3.33215-2.48267-.02541.00418-.07608-.57248-.60554-.99871a19.95146,19.95146,0,0,0,4.53709-4.68389l-4.45182,2.13134,4.536-3.7779a7.47067,7.47067,0,0,0,1.44031-1.56153c.58494-.8841,1.128-1.78989,1.62336-2.70688l-1.406,1.38841,1.68535-3.66613a48.41711,48.41711,0,0,0,2.49361-6.89436,58.68812,58.68812,0,0,0-6.68219,4.30519l-3.29971,2.50064,1.05242-1.64c-.85362.72588-1.679,1.49206-2.46666,2.29a7.23,7.23,0,0,0-1.21456,1.702l-2.41014,4.616.85605-4.21315a19.91925,19.91925,0,0,0-1.90935,2.28366l-.42012.586-.38506-.26429a1.09847,1.09847,0,0,0-.0596.10015l-3.31042,6.27765,1.95228-6.82313a21.65906,21.65906,0,0,0,.64759-8.56265l-2.27968,4.23685,1.10412-5.09683a8.29787,8.29787,0,0,0,.17247-2.54336,41.06206,41.06206,0,0,0-.876-5.14523l-.30045,2.50168-.98972-3.64723a62.0582,62.0582,0,0,0-3.37968-9.14759,61.99517,61.99517,0,0,0-3.37972,9.14759l-.98951,3.64723-.30066-2.50168a41.10042,41.10042,0,0,0-.876,5.14523,8.3022,8.3022,0,0,0,.17247,2.54357l1.10283,5.09837-2.27839-4.23793a21.65577,21.65577,0,0,0,.64759,8.562l1.95253,6.82355-3.31067-6.27807a1.05226,1.05226,0,0,0-.05961-.10015l-.385.26429-.42012-.586a19.921,19.921,0,0,0-1.90935-2.28366l.85626,4.21315-2.41035-4.616a7.23447,7.23447,0,0,0-1.21435-1.702c-.78612-.79644-1.6104-1.56154-2.46315-2.2865l1.0548,1.64129-3.30581-2.50545a58.65928,58.65928,0,0,0-6.68219-4.30519,48.4091,48.4091,0,0,0,2.49357,6.89436l1.68539,3.66613-1.406-1.38841c.49532.917,1.03863,1.82278,1.62357,2.70688a7.46361,7.46361,0,0,0,1.4401,1.56153l4.536,3.7779-4.45182-2.13134a19.94652,19.94652,0,0,0,4.53709,4.68389L105.53,47.775l-.07608.57248-.02562-.00418,3.33257,2.48288-5.50642-2.29507a5.94734,5.94734,0,0,0-1.11333-.34363l.52555.172-4.7201-.01074a40.584,40.584,0,0,0-4.49826.2724,37.10587,37.10587,0,0,0,3.84582,2.114l4.15267,1.94814-.47756-.05785a6.14912,6.14912,0,0,0,1.05309.13455l6.29208.27943-4.29332.81767a15.42079,15.42079,0,0,0,3.10112.341l4.55457.02981-2.66345.86436,4.09194.71117L106.804,56.182q-.15028.00885-.29481.02738L103.618,57.623c-.7414.36269-1.43351.75632-2.07258,1.15061.79314.06136,1.647.099,2.5118.08347l3.29466-.05873c.08962-.032.17969-.06771.26956-.1065L113.072,56.319l-2.74984,2.12039a9.607,9.607,0,0,0,1.07917-.4618s.42911.24746.51108.31626a2.01224,2.01224,0,0,0,.23119-.05041,9.72722,9.72722,0,0,0,2.38824-1.3943A10.03835,10.03835,0,0,1,117.21,55.32093a6.688,6.688,0,0,1,.9376-.17531,2.55288,2.55288,0,0,1-1.235-.77015C116.31645,53.77958,116.08852,52.97528,116.66292,52.80541Z"/><polygon class="cls-2" points="150.265 63.944 150.265 62.339 143.946 62.344 143.946 70.94 150.254 70.94 150.254 69.334 145.667 69.334 145.667 67.379 149.113 67.379 149.113 65.779 145.667 65.779 145.667 63.944 150.265 63.944"/><path class="cls-3" d="M121.691,62.3386,118.25042,70.94h1.83478l.51613-1.31887h3.89932l.51613,1.31887,1.82932-.00587-3.4347-8.59551Zm-.40128,5.5623,1.30752-3.26878,1.27287,3.26878Z"/><path class="cls-4" d="M133.2458,66.49594a4.2654,4.2654,0,0,0-1.97835-.71666,2.2673,2.2673,0,0,1-1.31893-.51633.67113.67113,0,0,1,0-.83153q.287-.48714,1.31893-.48717a1.97534,1.97534,0,0,1,1.6058.688l1.14662-1.14691a4.01274,4.01274,0,0,0-1.23276-.86017,4.80034,4.80034,0,0,0-1.85806-.28667,3.44292,3.44292,0,0,0-2.00972.691,2.14022,2.14022,0,0,0-.97769,1.83219,1.90329,1.90329,0,0,0,.86,1.77762,4.62213,4.62213,0,0,0,1.89243.63075q1.14665.11474,1.43068.602a.90873.90873,0,0,1,0,.975q-.28372.48719-1.43068.48717a2.72414,2.72414,0,0,1-1.94967-.80274l-1.1471,1.147a4.34031,4.34031,0,0,0,1.37633.91745,5.09378,5.09378,0,0,0,2.00138.34385,3.47352,3.47352,0,0,0,2.21048-.74537,2.20474,2.20474,0,0,0,.94918-1.77759A2.153,2.153,0,0,0,133.2458,66.49594Z"/><polygon class="cls-5" points="135.236 63.944 138.103 63.944 138.103 70.94 139.823 70.94 139.823 63.944 142.69 63.944 142.69 62.339 135.236 62.339 135.236 63.944"/><polygon class="cls-6" points="95.451 67.729 90.06 62.339 89.487 62.339 89.487 70.94 91.207 70.94 91.207 65.607 96.54 70.94 97.171 70.94 97.171 62.339 95.451 62.339 95.451 67.729"/><polygon class="cls-7" points="112.683 66.582 108.955 62.339 108.382 62.339 108.382 70.94 110.102 70.94 110.102 65.951 112.683 68.818 115.263 65.951 115.269 70.94 116.989 70.94 116.989 62.339 116.416 62.339 112.683 66.582"/><path class="cls-8" d="M101.94188,62.3386,98.50125,70.94h1.83483l.51613-1.31887h3.89932l.51636,1.31887,1.82907-.00587-3.4349-8.59551Zm-.40129,5.5623,1.30727-3.26878,1.27292,3.26878Z"/><path class="cls-9" d="M151.5008,59.7381v1.56131h-.31012V59.7381h-.58086v-.27866h1.47441v.27866Zm2.46364,1.56131-.00257-1.37468-.58086,1.1827h-.20247l-.58086-1.1827v1.37468H152.306v-1.84h.36791l.60719,1.2223.60462-1.2223h.36534v1.84Z"/><path class="cls-10" d="M103.961,77.10812a1.21369,1.21369,0,0,1-.69525,2.25671l-2.40488-.00285V75.09076H103.129q1.08012.06288,1.13975,1.25658A.89451.89451,0,0,1,103.961,77.10812Zm-2.24246-.30488h1.19674a.48233.48233,0,0,0,.53-.53284q-.014-.31323-.52143-.33053h-1.20529Zm0,1.892h1.39619a.55779.55779,0,0,0,.61547-.61832q-.014-.41031-.60692-.42741h-1.40474Z"/><path class="cls-10" d="M105.15774,75.08791h1.003l.99159,1.3962,1.01438-1.3962h.98019l-1.56716,2.137v2.137h-.85482V77.225Z"/><path class="cls-10" d="M115.12488,79.362h-3.42211l.00285-.28494,1.99172-3.1913h-1.99172l-.00285-.79783h3.42211v.31343l-2.00026,3.16282h2.00026Z"/><path class="cls-10" d="M116.19869,79.362V75.09076l3.14-.00285v.79783h-2.2852v.9118H118.766v.795h-1.71248v.97164H119.333V79.362Z"/><path class="cls-10" d="M120.19923,79.362V75.08791h.28494l2.67842,2.67842V75.08791h.85481V79.362H123.704L121.054,76.71206V79.362Z"/><path class="cls-10" d="M124.67846,79.362l1.70963-4.27407h.85481l1.70638,4.27122-.90855.00285-.25644-.65535h-1.93758l-.25645.65535Zm2.15983-3.13432-.64966,1.62415h1.28222Z"/><path class="cls-10" d="M132.62254,77.10812a1.21382,1.21382,0,0,1-.69525,2.25671l-2.40488-.00285V75.09076h2.26811q1.07951.06288,1.13975,1.25658A.89677.89677,0,0,1,132.62254,77.10812Zm-2.24287-.30488h1.19674a.482.482,0,0,0,.53-.53284c-.00895-.20882-.18317-.31913-.521-.33053h-1.20569Zm0,1.892h1.39619a.55743.55743,0,0,0,.61547-.61832q-.01343-.41031-.60651-.42741h-1.40515Z"/><path class="cls-10" d="M134.07,75.08506h.85156V79.362H134.07Z"/><path class="cls-10" d="M138.09335,75.23038a1.98384,1.98384,0,0,1,.61221.42741l-.56987.56987a.9809.9809,0,0,0-.79783-.34192q-.5129,0-.65536.24219a.33492.33492,0,0,0,0,.41316,1.127,1.127,0,0,0,.65536.25645,2.12028,2.12028,0,0,1,.98344.35617,1.07109,1.07109,0,0,1,.44125.95454,1.09625,1.09625,0,0,1-.47137.88331,1.7258,1.7258,0,0,1-1.09823.37042,2.53334,2.53334,0,0,1-.99484-.171,2.16611,2.16611,0,0,1-.68386-.4559l.56988-.56988a1.355,1.355,0,0,0,.96879.39892q.57028,0,.71072-.2422a.44951.44951,0,0,0,0-.4844q-.14043-.2424-.71072-.29918a2.29631,2.29631,0,0,1-.94029-.31343.94555.94555,0,0,1-.42741-.88331,1.06293,1.06293,0,0,1,.486-.91018,1.7105,1.7105,0,0,1,.99891-.34355A2.39086,2.39086,0,0,1,138.09335,75.23038Z"/><rect class="cls-10" x="89.48683" y="77.1637" width="7.68412" height="0.93565"/><rect class="cls-10" x="142.58111" y="77.1637" width="7.68412" height="0.93565"/><polygon class="cls-11" points="731.23 29.694 639.255 29.694 628.822 45.342 639.255 60.992 731.23 60.992 731.23 29.694"/><path class="cls-12" d="M645.37793,42.43359v5.76075h3.77734V49.5166h-5.19433v-7.083Z"/><path class="cls-12" d="M650.30176,49.5166V42.43848l5.20312-.00489v1.32178h-3.78613v1.51172h2.83789V46.584h-2.83789v1.61036h3.77734V49.5166Z"/><path class="cls-12" d="M656.55859,49.5166l2.833-7.083h1.416l2.82812,7.07813-1.50586.00488-.4248-1.08594h-3.21094l-.4248,1.08594Zm3.57911-5.19385-1.07715,2.69092h2.125Z"/><path class="cls-12" d="M668.958,46.42871l1.76562,3.08789h-1.624l-1.69531-2.92773h-1.29395V49.5166h-1.416v-7.083h3.08789q2.47851,0,2.47851,2.03955A1.83254,1.83254,0,0,1,668.958,46.42871Zm-2.84766-1.16162h1.9834q.854-.01466.87793-.7793-.02344-.69873-.86426-.72754h-1.99707Z"/><path class="cls-12" d="M671.46,49.5166v-7.083h.47168l4.43848,4.43848V42.43359h1.417v7.083h-.51953l-4.3916-4.39111V49.5166Z"/><path class="cls-12" d="M682.55957,49.5166v-7.083h.47168l3.06934,3.49366,3.07324-3.49366h.47265v7.083h-1.417l-.0039-4.10791-2.125,2.36084-2.125-2.36084V49.5166Z"/><path class="cls-12" d="M691.71484,48.499a3.64625,3.64625,0,1,1,2.52539,1.01758A3.43219,3.43219,0,0,1,691.71484,48.499Zm2.53028-.30468a1.98712,1.98712,0,0,0,1.53027-.6377,2.41587,2.41587,0,0,0,0-3.16357,2.16549,2.16549,0,0,0-3.06934,0,2.41587,2.41587,0,0,0,0,3.16357A1.99748,1.99748,0,0,0,694.24512,48.19434Z"/><path class="cls-12" d="M703.09863,46.42871l1.76563,3.08789h-1.624l-1.69531-2.92773H700.251V49.5166h-1.416v-7.083h3.08789q2.47852,0,2.47852,2.03955A1.83254,1.83254,0,0,1,703.09863,46.42871ZM700.251,45.26709h1.9834q.854-.01466.87792-.7793-.02343-.69873-.86425-.72754H700.251Z"/><path class="cls-12" d="M705.58105,49.5166V42.43848l5.20313-.00489v1.32178h-3.78613v1.51172h2.83789V46.584h-2.83789v1.61036h3.77734V49.5166Z"/></svg>