<svg id="Content" xmlns="http://www.w3.org/2000/svg" viewBox="0 0 728 360"><defs><style>.cls-1{fill:#ba9544;}</style></defs><title>Frame2 - Sensi Star</title><path class="cls-1" d="M121.13,109.17c4.49,0,6.8,2.69,6.8,7.4v.92h-4.37v-1.22c0-2.1-.84-2.9-2.31-2.9s-2.31.8-2.31,2.9c0,6,9,7.19,9,15.59,0,4.7-2.35,7.39-6.89,7.39s-6.88-2.69-6.88-7.39v-1.81h4.36v2.1c0,2.1.93,2.86,2.4,2.86s2.39-.76,2.39-2.86c0-6.05-9-7.18-9-15.58C114.32,111.86,116.63,109.17,121.13,109.17Z"/><path class="cls-1" d="M139.69,121.9H146v4.2h-6.34v8.61h8v4.2h-12.6v-29.4h12.6v4.2h-8Z"/><path class="cls-1" d="M159.09,117.62v21.29h-4.16v-29.4h5.8l4.75,17.6v-17.6h4.12v29.4h-4.75Z"/><path class="cls-1" d="M183.58,109.17c4.49,0,6.8,2.69,6.8,7.4v.92H186v-1.22c0-2.1-.84-2.9-2.31-2.9s-2.31.8-2.31,2.9c0,6,9,7.19,9,15.59,0,4.7-2.36,7.39-6.89,7.39s-6.89-2.69-6.89-7.39v-1.81H181v2.1c0,2.1.92,2.86,2.39,2.86s2.4-.76,2.4-2.86c0-6.05-9-7.18-9-15.58C176.77,111.86,179.08,109.17,183.58,109.17Z"/><path class="cls-1" d="M197.52,109.51h4.62v29.4h-4.62Z"/><path class="cls-1" d="M227.13,109.17c4.5,0,6.81,2.69,6.81,7.4v.92h-4.37v-1.22c0-2.1-.84-2.9-2.31-2.9s-2.31.8-2.31,2.9c0,6,9,7.19,9,15.59,0,4.7-2.35,7.39-6.89,7.39s-6.89-2.69-6.89-7.39v-1.81h4.37v2.1c0,2.1.92,2.86,2.39,2.86s2.4-.76,2.4-2.86c0-6.05-9-7.18-9-15.58C220.33,111.86,222.64,109.17,227.13,109.17Z"/><path class="cls-1" d="M239.73,109.51H254v4.2h-4.83v25.2h-4.62v-25.2h-4.83Z"/><path class="cls-1" d="M275.43,138.91h-4.66l-.8-5.33H264.3l-.8,5.33h-4.24l4.71-29.4h6.76Zm-10.54-9.32h4.45l-2.22-14.87Z"/><path class="cls-1" d="M291.69,138.91a8.83,8.83,0,0,1-.42-3.61v-4.62c0-2.73-.93-3.74-3-3.74h-1.59v12H282v-29.4h7c4.79,0,6.84,2.23,6.84,6.76v2.31c0,3-1,5-3,6,2.31,1,3.07,3.19,3.07,6.26v4.53a8.68,8.68,0,0,0,.5,3.57Zm-5-25.2v9h1.8c1.72,0,2.77-.76,2.77-3.11v-2.9c0-2.1-.71-3-2.35-3Z"/></svg>