<svg id="Content" xmlns="http://www.w3.org/2000/svg" viewBox="0 0 728 90"><defs><style>.cls-1{fill:#ba9544;}</style></defs><title>Frame1 - Sensi Star</title><path class="cls-1" d="M276.38,32.22c4.07,0,6.15,2.44,6.15,6.69v.84h-3.95v-1.1c0-1.9-.76-2.63-2.09-2.63s-2.09.73-2.09,2.63c0,5.47,8.17,6.49,8.17,14.09,0,4.26-2.12,6.69-6.23,6.69s-6.23-2.43-6.23-6.69V51.11h3.95V53c0,1.9.84,2.58,2.17,2.58s2.16-.68,2.16-2.58c0-5.47-8.17-6.5-8.17-14.1C270.22,34.66,272.31,32.22,276.38,32.22Z"/><path class="cls-1" d="M293.18,43.74h5.73v3.8h-5.73v7.79h7.21v3.79H289V32.53h11.39v3.8h-7.21Z"/><path class="cls-1" d="M310.73,39.86V59.12H307V32.53h5.24l4.3,15.92V32.53h3.72V59.12h-4.29Z"/><path class="cls-1" d="M332.88,32.22c4.07,0,6.16,2.44,6.16,6.69v.84h-4v-1.1c0-1.9-.76-2.63-2.09-2.63s-2.09.73-2.09,2.63c0,5.47,8.17,6.49,8.17,14.09,0,4.26-2.13,6.69-6.23,6.69s-6.23-2.43-6.23-6.69V51.11h3.95V53c0,1.9.83,2.58,2.16,2.58s2.17-.68,2.17-2.58c0-5.47-8.17-6.5-8.17-14.1C326.73,34.66,328.82,32.22,332.88,32.22Z"/><path class="cls-1" d="M345.5,32.53h4.18V59.12H345.5Z"/><path class="cls-1" d="M372.29,32.22c4.07,0,6.16,2.44,6.16,6.69v.84h-4v-1.1c0-1.9-.76-2.63-2.09-2.63s-2.09.73-2.09,2.63c0,5.47,8.17,6.49,8.17,14.09,0,4.26-2.12,6.69-6.23,6.69S366,57,366,52.74V51.11h4V53c0,1.9.84,2.58,2.17,2.58s2.16-.68,2.16-2.58c0-5.47-8.16-6.5-8.16-14.1C366.14,34.66,368.23,32.22,372.29,32.22Z"/><path class="cls-1" d="M383.69,32.53h12.92v3.8h-4.37V59.12h-4.18V36.33h-4.37Z"/><path class="cls-1" d="M416,59.12h-4.22l-.72-4.82h-5.13l-.72,4.82h-3.84l4.26-26.59h6.11Zm-9.54-8.43h4l-2-13.45Z"/><path class="cls-1" d="M430.7,59.12a8.1,8.1,0,0,1-.38-3.26V51.68c0-2.47-.84-3.38-2.74-3.38h-1.44V59.12H422V32.53h6.3c4.33,0,6.2,2,6.2,6.12v2.09c0,2.73-.88,4.52-2.74,5.39,2.09.87,2.77,2.89,2.77,5.66V55.9a7.73,7.73,0,0,0,.46,3.22Zm-4.56-22.79V44.5h1.63c1.56,0,2.51-.69,2.51-2.81V39.06c0-1.9-.65-2.73-2.13-2.73Z"/></svg>