<svg id="Content" xmlns="http://www.w3.org/2000/svg" viewBox="0 0 728 90"><defs><style>.cls-1{fill:#ba9544;}</style></defs><title>Frame1 - Shishkaberry</title><path class="cls-1" d="M205.43,35.47c3.42,0,5.18,2.05,5.18,5.63v.71h-3.33v-.93c0-1.6-.64-2.21-1.76-2.21s-1.76.61-1.76,2.21c0,4.61,6.88,5.47,6.88,11.87,0,3.58-1.79,5.63-5.24,5.63s-5.25-2.05-5.25-5.63V51.37h3.33V53c0,1.6.7,2.18,1.82,2.18s1.82-.58,1.82-2.18c0-4.6-6.87-5.47-6.87-11.87C200.25,37.52,202,35.47,205.43,35.47Z"/><path class="cls-1" d="M219.57,58.12h-3.52V35.73h3.52v9.6h4v-9.6h3.59V58.12h-3.59V48.53h-4Z"/><path class="cls-1" d="M233.11,35.73h3.52V58.12h-3.52Z"/><path class="cls-1" d="M247.32,35.47c3.42,0,5.18,2.05,5.18,5.63v.71h-3.33v-.93c0-1.6-.64-2.21-1.76-2.21s-1.76.61-1.76,2.21c0,4.61,6.88,5.47,6.88,11.87,0,3.58-1.79,5.63-5.25,5.63S242,56.33,242,52.75V51.37h3.32V53c0,1.6.71,2.18,1.83,2.18S249,54.57,249,53c0-4.6-6.88-5.47-6.88-11.87C242.13,37.52,243.89,35.47,247.32,35.47Z"/><path class="cls-1" d="M261.46,58.12h-3.52V35.73h3.52v9.6h4v-9.6H269V58.12h-3.58V48.53h-4Z"/><path class="cls-1" d="M279.6,49.2l-1.09,2v6.87H275V35.73h3.51v9.76l4.61-9.76h3.52l-4.89,10,4.89,12.41H283Z"/><path class="cls-1" d="M303,58.12h-3.56l-.6-4.06h-4.32l-.61,4.06h-3.23l3.58-22.39h5.15ZM295,51h3.39l-1.7-11.33Z"/><path class="cls-1" d="M318.58,40.88v.8c0,2.3-.71,3.77-2.27,4.51,1.88.74,2.62,2.43,2.62,4.8v1.82c0,3.46-1.82,5.31-5.34,5.31h-5.54V35.73h5.31C317,35.73,318.58,37.42,318.58,40.88Zm-7-2v5.92H313c1.31,0,2.11-.58,2.11-2.37V41.23c0-1.6-.55-2.3-1.79-2.3Zm0,9.12v6.87h2c1.18,0,1.82-.54,1.82-2.2V50.77c0-2.08-.67-2.72-2.27-2.72Z"/><path class="cls-1" d="M328,45.17h4.84v3.2H328v6.55H334v3.2h-9.6V35.73H334v3.2H328Z"/><path class="cls-1" d="M347,58.12a6.87,6.87,0,0,1-.32-2.75V51.85c0-2.08-.7-2.84-2.3-2.84h-1.22v9.11H339.6V35.73h5.31c3.65,0,5.22,1.69,5.22,5.15v1.76c0,2.3-.74,3.81-2.3,4.54,1.75.74,2.33,2.43,2.33,4.77v3.46a6.43,6.43,0,0,0,.39,2.71Zm-3.84-19.19v6.88h1.38c1.31,0,2.11-.58,2.11-2.37V41.23c0-1.6-.54-2.3-1.79-2.3Z"/><path class="cls-1" d="M363.22,58.12a6.87,6.87,0,0,1-.32-2.75V51.85c0-2.08-.71-2.84-2.31-2.84h-1.21v9.11h-3.52V35.73h5.31c3.65,0,5.22,1.69,5.22,5.15v1.76c0,2.3-.74,3.81-2.31,4.54,1.76.74,2.34,2.43,2.34,4.77v3.46a6.6,6.6,0,0,0,.38,2.71Zm-3.84-19.19v6.88h1.37c1.32,0,2.12-.58,2.12-2.37V41.23c0-1.6-.55-2.3-1.8-2.3Z"/><path class="cls-1" d="M375.41,50.7l-4.45-15h3.68l2.69,10.2L380,35.73h3.36l-4.45,15v7.42h-3.52Z"/></svg>