<svg id="Content" xmlns="http://www.w3.org/2000/svg" xmlns:xlink="http://www.w3.org/1999/xlink" viewBox="0 0 728 360"><defs><style>.cls-1{fill:#fff;}.cls-2{fill:url(#New_Gradient_Swatch_1);}.cls-3{fill:#ba9544;}</style><linearGradient id="New_Gradient_Swatch_1" x1="179.39" y1="201.64" x2="238.56" y2="201.64" gradientUnits="userSpaceOnUse"><stop offset="0" stop-color="#a88a34"/><stop offset="0.49" stop-color="#caaf67"/><stop offset="1" stop-color="#957f2e"/></linearGradient></defs><title>minty</title><path class="cls-1" d="M197.19,194.14a2.94,2.94,0,0,1,.48-.19,5.42,5.42,0,0,1,.53-.14h0l5.19-1.14a1.69,1.69,0,0,1,1.11.17l.87.86-1.82,1.9-5.79,1.27-.6-2.72m18,14.48-2.86-13a1.94,1.94,0,0,0-2.16-1.51l1.53-1.6.42.39.64-.67a.41.41,0,0,0,0-.58l-3.07-2.91a.43.43,0,0,0-.59,0l-.63.67.51.48-2,2.14-1-1-.07-.06a3.88,3.88,0,0,0-2.9-.55l-5.14,1.13a9.26,9.26,0,0,0-.91.24,3.13,3.13,0,0,0-1.66,1.1,1.83,1.83,0,0,0-.27,1.4c.16.72.72,3.25,1.05,4.77,0,0,0,.07,0,.1l2.85,13a1.93,1.93,0,0,0,2.31,1.47l12.52-2.75a2,2,0,0,0,1.49-2.31"/><polygon class="cls-2" points="230.58 221.56 205.91 231.03 183.13 217.65 179.39 191.49 197.51 172.25 223.84 174.43 238.56 196.37 230.58 221.56"/><path class="cls-1" d="M221.49,211a10.47,10.47,0,0,0-4.2-8.68,4.08,4.08,0,0,1,2-.24,6.9,6.9,0,0,0-4-3.61,3.12,3.12,0,0,1,1.57-.19s-2.32-3.81-8.32-5.46a4.94,4.94,0,0,1,1.52-.19s-6.21-3.43-12.12.43c0,0,5,2.64,7,5.37,0,0-6.87-4.38-7.87-4.32,0,0-3.09,7.35,4.77,13.77a3.37,3.37,0,0,1-.19-1.51s3.12,3.76,6.17,4.77a3.54,3.54,0,0,1,0-1.48,9.16,9.16,0,0,0,4.35,2.48,3.34,3.34,0,0,1-.14-2s5.05,3,9.46.86"/><path class="cls-3" d="M184.38,259V248.13h.72l4.72,5.37,4.72-5.37h.72V259h-2.17V252.7l-3.26,3.63-3.27-3.63V259Z"/><path class="cls-3" d="M197.43,248.13h2.17V259h-2.17Z"/><path class="cls-3" d="M201.78,259V248.13h.72l6.82,6.82v-6.82h2.17V259h-.79L204,252.27V259Z"/><path class="cls-3" d="M222.62,248.13v2H219V259h-2.18v-8.85H213.2v-2Z"/><path class="cls-3" d="M223.6,248.13h2.55l2.52,3.56,2.58-3.56h2.5l-4,5.44V259h-2.17v-5.44Z"/></svg>