<svg id="Content" xmlns="http://www.w3.org/2000/svg" xmlns:xlink="http://www.w3.org/1999/xlink" viewBox="0 0 728 360"><defs><style>.cls-1{fill:#ba9544;}.cls-2{fill:#fff;stroke:#ba9544;stroke-miterlimit:10;stroke-width:0.5px;}.cls-3{clip-path:url(#clip-path);}</style><clipPath id="clip-path"><polygon class="cls-1" points="391.19 239.44 402.93 256.07 403.16 256.09 403.16 222.51 402.93 222.5 391.19 239.44"/></clipPath></defs><title>CBD - MK Ultra</title><polygon class="cls-2" points="635.28 223.34 402.67 222.46 390.93 239.4 402.67 256.03 635.28 255.63 645.84 239.49 635.28 223.34"/><polygon class="cls-1" points="391.19 239.44 402.93 256.07 403.16 256.09 403.16 222.51 402.93 222.5 391.19 239.44"/><g class="cls-3"><rect class="cls-1" x="388.59" y="219.9" width="17.16" height="38.78"/></g><path class="cls-1" d="M527.59,245a5.7,5.7,0,0,1,4-9.75,6.17,6.17,0,0,1,4.18,1.52l-1.52,1.66a4.17,4.17,0,0,0-2.66-.91,3.25,3.25,0,0,0-3.41,3.38,3.42,3.42,0,0,0,.95,2.53,3.35,3.35,0,0,0,2.47.93,4.09,4.09,0,0,0,2.65-.9l1.52,1.66a6.15,6.15,0,0,1-4.18,1.52A5.54,5.54,0,0,1,527.59,245Z"/><path class="cls-1" d="M546.36,240.61a3.29,3.29,0,0,1,1.59,2.61,3.25,3.25,0,0,1-3.44,3.41H538.1V235.24h6c1.92.11,2.93,1.22,3,3.35A2.39,2.39,0,0,1,546.36,240.61Zm-6-.81h3.19a1.28,1.28,0,0,0,1.41-1.42c0-.56-.48-.85-1.39-.88h-3.21Zm0,5h3.72a1.48,1.48,0,0,0,1.64-1.65c0-.73-.56-1.1-1.61-1.14h-3.75Z"/><path class="cls-1" d="M550.22,246.62v-11.4h4.38q5.32,0,5.32,5.7t-5.32,5.7Zm4.38-2.27q3,0,3-3.43t-3-3.41h-2.11v6.84Z"/><path class="cls-1" d="M562.46,239.36a1.09,1.09,0,0,1,.82-.31,1.11,1.11,0,0,1,.85.31,1,1,0,0,1,.31.76,1.07,1.07,0,0,1-.31.76,1.31,1.31,0,0,1-1.67,0,1.06,1.06,0,0,1-.3-.76A1,1,0,0,1,562.46,239.36Zm0,5.43a1.12,1.12,0,0,1,.82-.31,1.15,1.15,0,0,1,.85.31,1.07,1.07,0,0,1,.31.76,1,1,0,0,1-.31.76,1.28,1.28,0,0,1-1.67,0,1,1,0,0,1-.3-.76A1.06,1.06,0,0,1,562.46,244.79Z"/><path class="cls-1" d="M578.75,238.49l-4.4,2.43,4.4,2.43v1.75l-7.19-4v-.49l7.19-3.9Z"/><path class="cls-1" d="M588.62,235.23h2.27v11.4h-2.27v-8.35l-1.52,1.51-1.52-1.51Z"/></svg>