<svg id="Layer_1" data-name="Layer 1" xmlns="http://www.w3.org/2000/svg" width="160" height="600" viewBox="0 0 160 600"><defs><style>.cls-1{fill:#ab9555;}</style></defs><title>frame3</title><path class="cls-1" d="M22.21952,296.00586V279.084h3.81933a4.86188,4.86188,0,0,1,2.72559.79639,3.70184,3.70184,0,0,1,1.48438,2.09131,5.88729,5.88729,0,0,1,.24316,1.79492,3.97267,3.97267,0,0,1-.9043,2.72559,2.567,2.567,0,0,1-.89062.66162,2.96356,2.96356,0,0,1,1.44433,1.28174,4.988,4.988,0,0,1,.58008,1.67334,6.71469,6.71469,0,0,1,.09473,1.17382,5.657,5.657,0,0,1-.60742,2.72608,3.91015,3.91015,0,0,1-3.26563,1.99707Zm2.75293-10.0127h1.0664a1.56367,1.56367,0,0,0,1.59278-1.16064,3.31721,3.31721,0,0,0,.14844-1.06592,2.22981,2.22981,0,0,0-.51368-1.59228,1.61135,1.61135,0,0,0-1.22754-.49952h-1.0664Zm0,7.48926h1.0664a1.81026,1.81026,0,0,0,1.79493-1.33594,2.94993,2.94993,0,0,0,.1748-1.05273,3.20831,3.20831,0,0,0-.53906-2.06445,1.74076,1.74076,0,0,0-1.43067-.59375h-1.0664Z"/><path class="cls-1" d="M39.32987,279.09766a3.89,3.89,0,0,1,3.13086,1.17382,4.27078,4.27078,0,0,1,.877,2.86084v2.45606a3.95284,3.95284,0,0,1-1.36328,3.03613l1.88867,7.38135H41.10526l-1.5459-6.36914H37.85917v6.36914H35.30839v-16.9082Zm1.52441,4.07519a1.29414,1.29414,0,0,0-1.457-1.47119H37.85917v5.41162h1.53808a1.39428,1.39428,0,0,0,1.03223-.43213,1.42794,1.42794,0,0,0,.4248-1.03906Z"/><path class="cls-1" d="M48.32987,296.00586V279.084h7.25977v2.564h-4.709v4.61523h3.44043v2.56348H50.88065v4.61523h4.709v2.564Z"/><path class="cls-1" d="M62.89921,292.11963l-.62012,3.88623H59.62382l2.874-16.9082h3.50879l2.834,16.9082H66.159l-.59668-3.88623Zm1.33984-9.14942-.94531,6.66651h1.88965Z"/><path class="cls-1" d="M73.59159,281.66162H70.8787v-2.564h7.96094v2.564H76.14042v14.34424H73.59159Z"/><path class="cls-1" d="M85.72147,288.84033v7.16553H83.17069v-16.9082h2.55078v7.17871h3.07617v-7.17871h2.55078v16.9082H88.79764v-7.16553Z"/><path class="cls-1" d="M95.908,296.00586V279.084h7.25976v2.564h-4.709v4.61523h3.44043v2.56348H98.45878v4.61523h4.709v2.564Z"/><path class="cls-1" d="M117.8201,296.00586h-2.55078v-16.9082h2.55078Z"/><path class="cls-1" d="M125.243,279.084l3.38476,11.37256V279.084h2.55078v16.92188h-2.73925l-3.50879-10.83594v10.83594h-2.55079V279.084Z"/><path class="cls-1" d="M135.21268,293.46875h2.55078v2.55078h-2.55078Z"/></svg>