<svg id="Content" xmlns="http://www.w3.org/2000/svg" xmlns:xlink="http://www.w3.org/1999/xlink" width="300" height="600" viewBox="0 0 300 600"><defs><style>.cls-1{fill:#ba9544;}.cls-2{fill:#fff;stroke:#ba9544;stroke-miterlimit:10;stroke-width:0.5px;}.cls-3{clip-path:url(#clip-path);}</style><clipPath id="clip-path"><polygon class="cls-1" points="47.548 320.845 56.941 334.151 57.126 334.167 57.126 307.303 56.941 307.297 47.548 320.845"/></clipPath></defs><title>CBD - Shishkaberry</title><polygon class="cls-2" points="242.819 307.972 56.736 307.267 47.343 320.813 56.736 334.119 242.819 333.802 251.273 320.888 242.819 307.972"/><polygon class="cls-1" points="47.548 320.845 56.941 334.151 57.126 334.167 57.126 307.303 56.941 307.297 47.548 320.845"/><g class="cls-3"><rect class="cls-1" x="45.46991" y="305.22046" width="13.72837" height="31.02293"/></g><path class="cls-1" d="M156.668,325.28336a4.55632,4.55632,0,0,1,3.24023-7.80078,4.92633,4.92633,0,0,1,3.34668,1.21484L162.04,320.0275a3.35545,3.35545,0,0,0-2.13184-.72851,2.59585,2.59585,0,0,0-2.72656,2.708,2.73148,2.73148,0,0,0,.75879,2.01661,2.68934,2.68934,0,0,0,1.98047.74707A3.26538,3.26538,0,0,0,162.04,324.048l1.21484,1.33008a4.91532,4.91532,0,0,1-3.34668,1.21484A4.43158,4.43158,0,0,1,156.668,325.28336Z"/><path class="cls-1" d="M171.68555,321.78922a2.58654,2.58654,0,0,1-1.48243,4.80957l-5.126-.00586v-9.10449h4.835q2.30127.13331,2.42969,2.67773A1.90873,1.90873,0,0,1,171.68555,321.78922Zm-4.78028-.65039h2.55078a1.02829,1.02829,0,0,0,1.12989-1.13574q-.03077-.66943-1.11133-.7041h-2.56934Zm0,4.0332h2.97657a1.18977,1.18977,0,0,0,1.31152-1.31836q-.03077-.8745-1.294-.91113h-2.99414Z"/><path class="cls-1" d="M174.77051,326.59293v-9.11621h3.51074q4.251,0,4.25195,4.56055,0,4.55567-4.25195,4.55566Zm3.51074-1.81543q2.42284-.00585,2.42969-2.74023-.00586-2.73341-2.42969-2.73242h-1.68848v5.47265Z"/><path class="cls-1" d="M184.56738,320.78336a.88086.88086,0,0,1,.65625-.24609.91249.91249,0,0,1,.67969.24609.83347.83347,0,0,1,.24316.61035.82369.82369,0,0,1-.24316.60743,1.039,1.039,0,0,1-1.33594,0,.82369.82369,0,0,1-.24316-.60743A.83347.83347,0,0,1,184.56738,320.78336Zm0,4.34863a.8841.8841,0,0,1,.65625-.24511.91588.91588,0,0,1,.67969.24511.83507.83507,0,0,1,.24316.61036.82368.82368,0,0,1-.24316.60742,1.039,1.039,0,0,1-1.33594,0,.82368.82368,0,0,1-.24316-.60742A.83507.83507,0,0,1,184.56738,325.132Z"/><path class="cls-1" d="M197.60254,320.09391l-3.52344,1.94336,3.52344,1.94336v1.39746l-5.75781-3.165v-.39453l5.75781-3.1211Z"/><path class="cls-1" d="M205.49219,317.48258v-.00586h1.8164v9.11621h-1.8164v-6.68066l-1.21485,1.21484-1.21484-1.21484Z"/></svg>