<svg id="Layer_1" data-name="Layer 1" xmlns="http://www.w3.org/2000/svg" width="728" height="90" viewBox="0 0 728 90"><defs><style>.cls-1{fill:#ab9555;}</style></defs><title>frame2</title><path class="cls-1" d="M272.811,50.65682a4.45045,4.45045,0,0,1-.85938,2.831,3.09189,3.09189,0,0,1-1.64258,1.125,4.47541,4.47541,0,0,1-1.32715.17676,3.75359,3.75359,0,0,1-2.32568-.69531,3.88215,3.88215,0,0,1-1.21924-1.54785,6.24682,6.24682,0,0,1-.5249-2.24317l2.2749-.16406a3.45665,3.45665,0,0,0,.7334,2.00684,1.21867,1.21867,0,0,0,.98535.44433,1.48064,1.48064,0,0,0,1.25147-.77148,1.91539,1.91539,0,0,0,.24023-1.04981A2.91731,2.91731,0,0,0,269.5,48.80819q-.70826-.66944-2.123-2.01075a9.05755,9.05755,0,0,1-1.68115-2.0625,4.763,4.763,0,0,1-.53076-2.22558,3.87123,3.87123,0,0,1,1.45361-3.27637,3.60909,3.60909,0,0,1,2.22412-.6709,4.03751,4.03751,0,0,1,2.18653.56934,3.28094,3.28094,0,0,1,1.14355,1.23828,4.56929,4.56929,0,0,1,.52442,1.832l-2.28711.417a2.76268,2.76268,0,0,0-.55616-1.5166,1.16945,1.16945,0,0,0-.94824-.3916,1.09176,1.09176,0,0,0-.998.582,2.23819,2.23819,0,0,0-.27832,1.16211,3.48761,3.48761,0,0,0,.93555,2.21192,7.9057,7.9057,0,0,0,1.06152,1.01074q.83424.69579,1.09961.97363a8.11525,8.11525,0,0,1,1.36475,1.74414,6.65247,6.65247,0,0,1,.3667.74512A4.33824,4.33824,0,0,1,272.811,50.65682Z"/><path class="cls-1" d="M279.31836,54.60018h-2.38867V38.76424h2.38867Z"/><path class="cls-1" d="M286.27148,38.75155l3.16993,10.65136V38.75155h2.38867V54.60018h-2.56543l-3.28613-10.14844V54.60018h-2.38868V38.75155Z"/><path class="cls-1" d="M299.85449,54.80233A3.77521,3.77521,0,0,1,296.063,51.024V42.3785a3.78517,3.78517,0,1,1,7.57031,0v1.80762h-2.47705V42.32869a1.38036,1.38036,0,0,0-1.37744-1.37792,1.30684,1.30684,0,0,0-.9668.40429,1.33606,1.33606,0,0,0-.39795.97363v8.66993a1.3579,1.3579,0,0,0,1.36475,1.36425,1.33914,1.33914,0,0,0,.97314-.39746,1.30683,1.30683,0,0,0,.4043-.96679V48.81209h2.47705V51.024a3.77513,3.77513,0,0,1-3.77881,3.77832Z"/><path class="cls-1" d="M307.72705,54.60018V38.75155h6.79981v2.40136h-4.41114v4.32227h3.22315v2.40137h-3.22315v4.32226h4.41114v2.40137Z"/><path class="cls-1" d="M328.92871,50.96053l-.58057,3.63965h-2.4873l2.69238-15.83594h3.28565l2.65381,15.83594h-2.51123l-.55909-3.63965Zm1.2544-8.56934-.88428,6.24415h1.769Z"/><path class="cls-1" d="M341.31885,38.75155l3.16992,10.65136V38.75155h2.38867V54.60018H344.312l-3.28613-10.14844V54.60018h-2.38867V38.75155Z"/><path class="cls-1" d="M354.90137,54.80233a3.77521,3.77521,0,0,1-3.79151-3.77832V42.3785a3.78518,3.78518,0,1,1,7.57032,0v1.80762h-2.47706V42.32869a1.38034,1.38034,0,0,0-1.37744-1.37792,1.30682,1.30682,0,0,0-.96679.40429,1.336,1.336,0,0,0-.39795.97363v8.66993a1.3579,1.3579,0,0,0,1.36474,1.36425,1.33915,1.33915,0,0,0,.97315-.39746,1.30682,1.30682,0,0,0,.40429-.96679V48.81209h2.47706V51.024a3.77513,3.77513,0,0,1-3.77881,3.77832Z"/><path class="cls-1" d="M365.16211,54.60018h-2.38818V38.76424h2.38818Z"/><path class="cls-1" d="M369.43359,54.60018V38.75155h6.79981v2.40136h-4.41113v4.32227h3.22265v2.40137h-3.22265v4.32226h4.41113v2.40137Z"/><path class="cls-1" d="M382.69336,38.75155l3.16992,10.65136V38.75155H388.252V54.60018h-2.56543l-3.28613-10.14844V54.60018h-2.38867V38.75155Z"/><path class="cls-1" d="M394.84766,41.16561h-2.54V38.76424h7.457v2.40137h-2.52832V54.60018h-2.38867Z"/><path class="cls-1" d="M413.63867,41.16561h-2.54V38.76424h7.457v2.40137h-2.52832V54.60018h-2.38867Z"/><path class="cls-1" d="M425,54.60018h-2.38867V38.76424H425Z"/><path class="cls-1" d="M431.66016,54.60018h-2.38868V38.75155h3.42774l2.22656,11.38476,2.13672-11.38476h3.293V54.60018H437.9668v-9.959l-2.07227,9.959h-1.9209l-2.31347-9.93359Z"/><path class="cls-1" d="M444.626,54.60018V38.75155h6.7998v2.40136h-4.41113v4.32227h3.22265v2.40137h-3.22265v4.32226h4.41113v2.40137Z"/><path class="cls-1" d="M463.10254,50.65682a4.45908,4.45908,0,0,1-.85938,2.831,3.09255,3.09255,0,0,1-1.64355,1.125,4.47088,4.47088,0,0,1-1.32715.17676,3.75406,3.75406,0,0,1-2.32519-.69531,3.88307,3.88307,0,0,1-1.21973-1.54785,6.257,6.257,0,0,1-.52442-2.24317l2.2754-.16406a3.4533,3.4533,0,0,0,.73242,2.00684,1.22113,1.22113,0,0,0,.98633.44433,1.47924,1.47924,0,0,0,1.251-.77148,1.9153,1.9153,0,0,0,.24024-1.04981,2.91508,2.91508,0,0,0-.89746-1.96093q-.70752-.66944-2.123-2.01075a9.05374,9.05374,0,0,1-1.68067-2.0625,4.7575,4.7575,0,0,1-.53125-2.22558,3.87222,3.87222,0,0,1,1.45313-3.27637,3.61152,3.61152,0,0,1,2.22461-.6709,4.03745,4.03745,0,0,1,2.18652.56934,3.28484,3.28484,0,0,1,1.14356,1.23828,4.56929,4.56929,0,0,1,.52441,1.832l-2.28711.417a2.75539,2.75539,0,0,0-.55664-1.5166,1.16807,1.16807,0,0,0-.94726-.3916,1.09271,1.09271,0,0,0-.999.582,2.23815,2.23815,0,0,0-.27734,1.16211,3.49123,3.49123,0,0,0,.93457,2.21192,7.96575,7.96575,0,0,0,1.06152,1.01074q.835.69579,1.09961.97363a8.10354,8.10354,0,0,1,1.36524,1.74414,6.73179,6.73179,0,0,1,.36621.74512A4.35248,4.35248,0,0,1,463.10254,50.65682Z"/></svg>