<svg id="Layer_1" data-name="Layer 1" xmlns="http://www.w3.org/2000/svg" width="970" height="250" viewBox="0 0 970 250"><defs><style>.cls-1{fill:#fff;}</style></defs><title>newyear</title><path class="cls-1" d="M323.1306,146.58563l4.51819,15.20544V146.58563h3.41346v22.64059h-3.6564l-4.69728-14.49792v14.49792h-3.41346V146.58563Z"/><path class="cls-1" d="M335.1324,169.22622V146.58563h9.71907v3.41347h-6.3056v6.2063h4.60507v3.41346h-4.60507v6.19389h6.3056v3.41347Z"/><path class="cls-1" d="M362.24093,146.58563h3.57483l-3.53759,22.64059h-3.27693l-1.92395-12.35054L355.265,169.22622h-3.26451l-3.78585-22.64059h3.57483l1.78742,12.12712,1.63846-12.12712h3.57483l1.78741,12.12712Z"/><path class="cls-1" d="M377.10886,159.743,372.541,146.58563h3.74861l2.53867,8.13026,2.51326-8.13026H385.115L380.52233,159.743v9.48323h-3.41347Z"/><path class="cls-1" d="M388.85059,169.22622V146.58563h9.71907v3.41347h-6.3056v6.2063h4.60507v3.41346h-4.60507v6.19389h6.3056v3.41347Z"/><path class="cls-1" d="M406.31394,164.02534l-.83165,5.20088h-3.55l3.83549-22.64059h4.70438l3.78584,22.64059h-3.57483l-.80682-5.20088Zm1.78741-12.25124-1.26608,8.92466h2.53217Z"/><path class="cls-1" d="M423.529,146.58563a5.17118,5.17118,0,0,1,4.18305,1.5764,5.69571,5.69571,0,0,1,1.17919,3.82309v3.28933a5.26427,5.26427,0,0,1-1.82169,4.05893l2.52921,9.89284h-3.68122l-2.08236-8.55228c-.0993.00827-.20215.01241-.30973.01241h-1.95764v8.53987h-3.41346V146.58563Zm2.03567,5.46155a1.73106,1.73106,0,0,0-1.94287-1.9736h-2.054v7.23654h2.054a1.85465,1.85465,0,0,0,1.37957-.57689,1.91369,1.91369,0,0,0,.5633-1.3843Z"/><path class="cls-1" d="M432.962,165.82516h3.41346v3.41347H432.962Z"/></svg>