<svg id="Layer_1" data-name="Layer 1" xmlns="http://www.w3.org/2000/svg" width="160" height="600" viewBox="0 0 160 600"><defs><style>.cls-1{fill:#ab9555;}</style></defs><title>frame2</title><path class="cls-1" d="M20.408,291.79541a4.75672,4.75672,0,0,1-.917,3.02295,3.30647,3.30647,0,0,1-1.75488,1.20117,4.79455,4.79455,0,0,1-1.417.189,4.01,4.01,0,0,1-2.48242-.74219,4.15511,4.15511,0,0,1-1.30273-1.65332,6.66211,6.66211,0,0,1-.55957-2.395l2.42871-.17578a3.69217,3.69217,0,0,0,.7832,2.14306,1.30306,1.30306,0,0,0,1.05176.4751,1.5805,1.5805,0,0,0,1.33594-.82422,2.0449,2.0449,0,0,0,.25683-1.1206,3.11265,3.11265,0,0,0-.958-2.09375q-.75587-.71557-2.26758-2.14746a9.66388,9.66388,0,0,1-1.79395-2.20166,5.08991,5.08991,0,0,1-.56738-2.377,4.13628,4.13628,0,0,1,1.55176-3.49853,3.85792,3.85792,0,0,1,2.375-.71582,4.31664,4.31664,0,0,1,2.335.60742,3.502,3.502,0,0,1,1.2207,1.32227,4.90154,4.90154,0,0,1,.56055,1.957l-2.44239.44531a2.95276,2.95276,0,0,0-.59375-1.61963,1.24921,1.24921,0,0,0-1.01269-.418,1.16539,1.16539,0,0,0-1.06543.62061,2.38991,2.38991,0,0,0-.29688,1.24121,3.72879,3.72879,0,0,0,.99805,2.36181,8.43453,8.43453,0,0,0,1.13379,1.07959q.89063.74195,1.17383,1.03907a8.68446,8.68446,0,0,1,1.458,1.8623,7.198,7.198,0,0,1,.39062.7959A4.62763,4.62763,0,0,1,20.408,291.79541Z"/><path class="cls-1" d="M28.82787,279.09766a3.88671,3.88671,0,0,1,2.96875,1.17382,4.07277,4.07277,0,0,1,1.02539,2.86084v2.45606a3.9369,3.9369,0,0,1-1.167,2.86084,3.81876,3.81876,0,0,1-2.82715,1.1875h-1.4707v6.36914H24.80639v-16.9082Zm1.52442,4.07519a1.45644,1.45644,0,0,0-.39746-1.06592,1.41991,1.41991,0,0,0-1.05957-.40527H27.35717v5.41162h1.53809a1.39427,1.39427,0,0,0,1.03222-.43213,1.42791,1.42791,0,0,0,.42481-1.03906Z"/><path class="cls-1" d="M39.69018,296.00586H37.1394v-16.9082h2.55078Z"/><path class="cls-1" d="M48.27123,279.09766a3.88861,3.88861,0,0,1,3.13086,1.17382,4.26561,4.26561,0,0,1,.877,2.86084v2.45606a3.9519,3.9519,0,0,1-1.36231,3.03613l1.88867,7.38135H50.0476l-1.54688-6.36914H46.80053v6.36914H44.24975v-16.9082Zm1.52539,4.07519a1.29482,1.29482,0,0,0-1.458-1.47119H46.80053v5.41162h1.53809a1.39273,1.39273,0,0,0,1.03222-.43213,1.425,1.425,0,0,0,.42578-1.03906Z"/><path class="cls-1" d="M59.822,296.00586H57.27123v-16.9082H59.822Z"/><path class="cls-1" d="M66.865,281.66162H64.15307v-2.564H72.115v2.564H69.41576v14.34424H66.865Z"/><path class="cls-1" d="M80.46655,296.19482a4.00789,4.00789,0,0,1-4.03516-4.02148V279.09766h2.49707v13.04882a1.39306,1.39306,0,0,0,.43164,1.03223,1.42489,1.42489,0,0,0,1.03906.42529,1.45124,1.45124,0,0,0,1.457-1.45752V279.09766H84.5144v13.07568a3.84055,3.84055,0,0,1-1.1875,2.86084A3.94285,3.94285,0,0,1,80.46655,296.19482Z"/><path class="cls-1" d="M91.824,292.11963l-.61914,3.88623H88.54858l2.875-16.9082h3.50781l2.834,16.9082H95.08373l-.59668-3.88623Zm1.33984-9.14942-.94434,6.66651h1.88868Z"/><path class="cls-1" d="M109.14135,296.00586h-6.9502v-16.9082h2.55079v14.37109h4.39941Z"/><path class="cls-1" d="M115.72436,296.00586h-2.55078v-16.9082h2.55078Z"/><path class="cls-1" d="M122.7683,281.66162h-2.71289v-2.564h7.96192v2.564h-2.69922v14.34424H122.7683Z"/><path class="cls-1" d="M135.46557,288.92139l-3.41406-9.83741h2.80664l1.88965,6.07227,1.876-6.07227h2.82031l-3.42773,9.83741v7.08447h-2.55078Z"/><path class="cls-1" d="M145.47826,293.46875h2.55079v2.55078h-2.55079Z"/></svg>