<svg id="Layer_1" data-name="Layer 1" xmlns="http://www.w3.org/2000/svg" xmlns:xlink="http://www.w3.org/1999/xlink" width="320" height="480" viewBox="0 0 320 480"><defs><style>.cls-1{fill:url(#linear-gradient);}.cls-2{fill:url(#linear-gradient-2);}.cls-3{fill:#231f20;}</style><linearGradient id="linear-gradient" x1="78.51722" y1="382.79218" x2="242.50794" y2="382.79218" gradientUnits="userSpaceOnUse"><stop offset="0" stop-color="#cab272"/><stop offset="0.20527" stop-color="#cdb36c"/><stop offset="0.4882" stop-color="#d4b75a"/><stop offset="0.50029" stop-color="#d4b759"/><stop offset="0.74962" stop-color="#d4b563"/><stop offset="1" stop-color="#d3b372"/></linearGradient><linearGradient id="linear-gradient-2" x1="89.54978" y1="393.421" x2="89.54995" y2="393.421" xlink:href="#linear-gradient"/></defs><title>cta</title><path class="cls-1" d="M242.50794,382.79361l-9.17992-15.9003-145.63076-.00286-9.18,15.90019,9.18,15.9003,145.63076.003Zm-137.857-5.43246-.00011-.00011h.00011Z"/><polygon class="cls-2" points="89.55 393.421 89.55 393.421 89.55 393.421 89.55 393.421"/><path class="cls-2" d="M89.55,393.42108h-.00017l.00017-.00016Z"/><path class="cls-3" d="M110.66893,385.914v-8.0235h.5349l5.02806,5.02806v-5.02806h1.6047v8.0235h-.58839l-4.97457-4.97457V385.914Z"/><path class="cls-3" d="M120.392,385.914l3.2094-8.0235h1.6047l3.204,8.01766-1.70633.00584-.4814-1.23027H122.585l-.48141,1.23027Zm4.05454-5.8839-1.21957,3.04893h2.407Z"/><path class="cls-3" d="M130.92315,385.914v-8.0235h.5349l3.47685,3.95826,3.48219-3.95826h.5349v8.0235H137.3473l-.00535-4.65363-2.407,2.6745-2.407-2.6745V385.914Z"/><path class="cls-3" d="M141.44317,385.914l3.2094-8.0235h1.60469l3.204,8.01766-1.70633.00584-.48141-1.23027h-3.63731l-.48141,1.23027Zm4.05454-5.8839-1.21957,3.04893h2.407Z"/><path class="cls-3" d="M156.31727,378.1579a3.72516,3.72516,0,0,1,1.15.80235l-1.0698,1.0698a1.84185,1.84185,0,0,0-1.49772-.64188q-.96282,0-1.23026.45515a.62477.62477,0,0,0,0,.77512,2.11461,2.11461,0,0,0,1.23026.48141,3.97021,3.97021,0,0,1,1.84541.66911,2.00662,2.00662,0,0,1,.82909,1.79143,2.05838,2.05838,0,0,1-.885,1.65819,3.24139,3.24139,0,0,1-2.06228.69537,4.75189,4.75189,0,0,1-1.8668-.32094,4.038,4.038,0,0,1-1.28376-.85584l1.0698-1.0698a2.541,2.541,0,0,0,1.81865.74886q1.07005,0,1.33434-.45515a.84332.84332,0,0,0,0-.90836q-.264-.45515-1.33434-.56213a4.30968,4.30968,0,0,1-1.76516-.58839,1.77493,1.77493,0,0,1-.80235-1.65819,1.99572,1.99572,0,0,1,.91224-1.70876,3.21049,3.21049,0,0,1,1.87458-.6448A4.48182,4.48182,0,0,1,156.31727,378.1579Z"/><path class="cls-3" d="M166.86889,377.89045v1.49772H164.1944V385.914h-1.6047v-6.52578h-2.67353v-1.49772Z"/><path class="cls-3" d="M169.35569,385.914v-8.01766l5.89557-.00584v1.49772h-4.29087v1.71168h3.21523v1.49189h-3.21523v1.82449h4.2792V385.914Z"/><path class="cls-3" d="M178.22238,384.62727a.7783.7783,0,0,1,.57769-.21688.80515.80515,0,0,1,.59909.21688.73473.73473,0,0,1,.214.53782.725.725,0,0,1-.214.5349.916.916,0,0,1-1.17678,0,.7288.7288,0,0,1-.214-.5349A.73862.73862,0,0,1,178.22238,384.62727Z"/><path class="cls-3" d="M183.35936,384.76148a4.01335,4.01335,0,0,1,2.85345-6.871,4.34485,4.34485,0,0,1,2.94778,1.0698l-1.0698,1.171a2.96159,2.96159,0,0,0-1.878-.64188,2.35443,2.35443,0,0,0-1.74085.67494,2.32993,2.32993,0,0,0-.66036,1.71168,2.40392,2.40392,0,0,0,.66814,1.77587,2.37187,2.37187,0,0,0,1.74377.65744,2.87922,2.87922,0,0,0,1.86728-.636l1.0698,1.17094a4.3309,4.3309,0,0,1-2.94778,1.0698A3.90587,3.90587,0,0,1,183.35936,384.76148Z"/><path class="cls-3" d="M192.94671,384.76148a4.133,4.133,0,1,1,2.8622,1.15247A3.88842,3.88842,0,0,1,192.94671,384.76148Zm2.86706-.34525a2.25583,2.25583,0,0,0,1.73308-.72163,2.73828,2.73828,0,0,0,0-3.5848,2.45476,2.45476,0,0,0-3.47685,0,2.73528,2.73528,0,0,0,0,3.5848A2.26891,2.26891,0,0,0,195.81377,384.41623Z"/><path class="cls-3" d="M202.32691,385.914v-8.0235h.5349l3.47782,3.95826,3.48171-3.95826h.5349v8.0235h-1.6047l-.00584-4.65363-2.40607,2.6745-2.408-2.6745V385.914Z"/></svg>