<svg id="Layer_1" data-name="Layer 1" xmlns="http://www.w3.org/2000/svg" width="970" height="250" viewBox="0 0 970 250"><defs><style>.cls-1,.cls-2{fill:#ab9555;}.cls-1{opacity:0.5;}</style></defs><title>frame2</title><path class="cls-1" d="M384.92529,161.6644a5.06155,5.06155,0,0,1-5.0957-5.0791V140.06772h3.15332v16.4834a1.76024,1.76024,0,0,0,.54492,1.30371,1.80246,1.80246,0,0,0,1.3125.53711,1.83385,1.83385,0,0,0,1.84082-1.84082v-16.4834h3.3584V156.5853a4.852,4.852,0,0,1-1.5,3.61328A4.9837,4.9837,0,0,1,384.92529,161.6644Z"/><path class="cls-1" d="M399.39893,140.05112l4.27539,14.36523V140.05112H406.896v21.375h-3.46l-4.43262-13.6875v13.6875h-3.22071v-21.375Z"/><path class="cls-1" d="M417.73584,140.06772a4.9093,4.9093,0,0,1,3.75,1.4834,5.14483,5.14483,0,0,1,1.2959,3.61328v3.10254a4.96843,4.96843,0,0,1-1.47461,3.61328,4.82022,4.82022,0,0,1-3.57129,1.5h-1.8584v8.0459h-3.2207v-21.3584Zm1.92578,5.14844a1.83525,1.83525,0,0,0-.50293-1.34668,1.79188,1.79188,0,0,0-1.33789-.51172h-1.94336v6.835h1.94336a1.764,1.764,0,0,0,1.30469-.54492,1.80385,1.80385,0,0,0,.53613-1.3125Z"/><path class="cls-1" d="M437.01318,161.42612h-8.77832v-21.3584h3.22071V158.222h5.55761Z"/><path class="cls-1" d="M447.20459,161.6644a5.06155,5.06155,0,0,1-5.0957-5.0791V140.06772h3.15332v16.4834a1.76024,1.76024,0,0,0,.54492,1.30371,1.80246,1.80246,0,0,0,1.3125.53711,1.83385,1.83385,0,0,0,1.84082-1.84082v-16.4834h3.3584V156.5853a4.852,4.852,0,0,1-1.5,3.61328A4.9837,4.9837,0,0,1,447.20459,161.6644Z"/><path class="cls-1" d="M463.12549,161.69858a5.10633,5.10633,0,0,1-5.11328-5.09668V144.94272a5.105,5.105,0,1,1,10.21,0v2.4375h-3.34082v-2.50488a1.86385,1.86385,0,0,0-1.8584-1.8584,1.759,1.759,0,0,0-1.30371.5459,1.80087,1.80087,0,0,0-.53711,1.3125v11.69238a1.83386,1.83386,0,0,0,1.84082,1.8418,1.80385,1.80385,0,0,0,1.3125-.53613,1.7541,1.7541,0,0,0,.5459-1.29981v-4.19824h-1.79v-3.23926h5.13086v7.46582a5.09128,5.09128,0,0,1-5.09668,5.09668Z"/><path class="cls-1" d="M473.31787,158.222h3.2207v3.2207h-3.2207Z"/><path class="cls-2" d="M500.60547,161.42612h-8.77832v-21.3584h3.2207V158.222h5.55762Z"/><path class="cls-2" d="M510.79688,139.79526a5.10633,5.10633,0,0,1,5.11425,5.11426v11.6582a5.105,5.105,0,1,1-10.21,0v-11.6582a5.10634,5.10634,0,0,1,5.09571-5.11426Zm1.75585,5.0459a1.8322,1.8322,0,0,0-1.84082-1.84082,1.80546,1.80546,0,0,0-1.3125.53613,1.764,1.764,0,0,0-.54492,1.30469v11.69336a1.76334,1.76334,0,0,0,.54492,1.30371,1.80636,1.80636,0,0,0,1.3125.53711,1.83385,1.83385,0,0,0,1.84082-1.84082Z"/><path class="cls-2" d="M526.665,139.79526a5.10633,5.10633,0,0,1,5.11426,5.11426v11.6582a5.105,5.105,0,1,1-10.21,0v-11.6582a5.10634,5.10634,0,0,1,5.0957-5.11426Zm1.75586,5.0459a1.8322,1.8322,0,0,0-1.84082-1.84082,1.80544,1.80544,0,0,0-1.3125.53613,1.764,1.764,0,0,0-.54492,1.30469v11.69336a1.76334,1.76334,0,0,0,.54492,1.30371,1.80635,1.80635,0,0,0,1.3125.53711,1.83385,1.83385,0,0,0,1.84082-1.84082Z"/><path class="cls-2" d="M540.709,154.65073v6.77539h-3.2207v-21.375h3.2207v7.61914l3.9375-7.61914H548.082l-4.41015,8.71875,5.17089,12.65625h-3.78711l-3.38183-8.67871Z"/><path class="cls-2" d="M569.22461,161.6644a5.06155,5.06155,0,0,1-5.0957-5.0791V140.06772h3.15332v16.4834a1.76024,1.76024,0,0,0,.54492,1.30371,1.80246,1.80246,0,0,0,1.3125.53711,1.83385,1.83385,0,0,0,1.84082-1.84082v-16.4834h3.3584V156.5853a4.852,4.852,0,0,1-1.5,3.61328A4.9837,4.9837,0,0,1,569.22461,161.6644Z"/><path class="cls-2" d="M585.16113,140.06772a4.9093,4.9093,0,0,1,3.75,1.4834,5.14483,5.14483,0,0,1,1.2959,3.61328v3.10254a4.96843,4.96843,0,0,1-1.47461,3.61328,4.82022,4.82022,0,0,1-3.57129,1.5h-1.8584v8.0459H580.082v-21.3584Zm1.92578,5.14844a1.83525,1.83525,0,0,0-.50293-1.34668,1.79188,1.79188,0,0,0-1.33789-.51172h-1.94336v6.835h1.94336a1.764,1.764,0,0,0,1.30469-.54492,1.80385,1.80385,0,0,0,.53613-1.3125Z"/></svg>