<svg id="Layer_1" data-name="Layer 1" xmlns="http://www.w3.org/2000/svg" width="970" height="250" viewBox="0 0 970 250"><defs><style>.cls-1,.cls-2{fill:#ab9555;}.cls-1{opacity:0.5;}</style></defs><title>frame4</title><path class="cls-1" d="M221.23535,161.66525a5.06238,5.06238,0,0,1-5.09668-5.0791V140.06857H219.292V156.552a1.75885,1.75885,0,0,0,.54541,1.30371,1.80246,1.80246,0,0,0,1.3125.53711,1.83386,1.83386,0,0,0,1.84131-1.84082v-16.4834h3.35791v16.51758a4.85381,4.85381,0,0,1-1.5,3.61328A4.98418,4.98418,0,0,1,221.23535,161.66525Z"/><path class="cls-1" d="M235.7085,140.052l4.27539,14.36524V140.052h3.22168v21.375h-3.46045l-4.43164-13.6875V161.427H232.0918V140.052Z"/><path class="cls-1" d="M254.04492,140.06857a4.91,4.91,0,0,1,3.75,1.4834,5.14451,5.14451,0,0,1,1.29541,3.61328v3.10254a4.96649,4.96649,0,0,1-1.47461,3.61328,4.8176,4.8176,0,0,1-3.5708,1.5H252.187v8.0459h-3.22168v-21.3584Zm1.92627,5.14844a1.8392,1.8392,0,0,0-.50293-1.34668,1.79264,1.79264,0,0,0-1.33789-.51172H252.187v6.835h1.94336a1.76179,1.76179,0,0,0,1.30371-.54492,1.80281,1.80281,0,0,0,.53711-1.3125Z"/><path class="cls-1" d="M273.32275,161.427h-8.77832v-21.3584h3.22168v18.1543h5.55664Z"/><path class="cls-1" d="M283.51514,161.66525a5.06238,5.06238,0,0,1-5.09668-5.0791V140.06857h3.15332V156.552a1.75885,1.75885,0,0,0,.54541,1.30371,1.80246,1.80246,0,0,0,1.3125.53711A1.83386,1.83386,0,0,0,285.271,156.552v-16.4834h3.35791v16.51758a4.85381,4.85381,0,0,1-1.5,3.61328A4.98418,4.98418,0,0,1,283.51514,161.66525Z"/><path class="cls-1" d="M299.43457,161.69943a5.10717,5.10717,0,0,1-5.11377-5.09668V144.94357a5.10525,5.10525,0,1,1,10.21045,0v2.4375h-3.34131v-2.50488a1.863,1.863,0,0,0-1.85791-1.8584,1.759,1.759,0,0,0-1.30371.5459,1.80281,1.80281,0,0,0-.53711,1.3125v11.69238a1.83386,1.83386,0,0,0,1.84082,1.8418,1.80465,1.80465,0,0,0,1.3125-.53613,1.75181,1.75181,0,0,0,.54541-1.29981v-4.19824h-1.78955v-3.23926h5.13086v7.46582a5.09128,5.09128,0,0,1-5.09668,5.09668Z"/><path class="cls-1" d="M309.62646,158.22287h3.22168v3.2207h-3.22168Z"/><path class="cls-1" d="M336.91406,161.427h-8.77832v-21.3584h3.22168v18.1543h5.55664Z"/><path class="cls-1" d="M347.10645,139.79611a5.10714,5.10714,0,0,1,5.11376,5.11426v11.6582a5.10525,5.10525,0,1,1-10.21044,0v-11.6582a5.10633,5.10633,0,0,1,5.09668-5.11426Zm1.75585,5.0459a1.83219,1.83219,0,0,0-1.8413-1.84082,1.80544,1.80544,0,0,0-1.3125.53613,1.76255,1.76255,0,0,0-.54541,1.30469v11.69336a1.76194,1.76194,0,0,0,.54541,1.30371,1.80635,1.80635,0,0,0,1.3125.53711,1.83384,1.83384,0,0,0,1.8413-1.84082Z"/><path class="cls-1" d="M362.9751,139.79611a5.108,5.108,0,0,1,5.11426,5.11426v11.6582a5.1055,5.1055,0,1,1-10.21094,0v-11.6582a5.10633,5.10633,0,0,1,5.09668-5.11426Zm1.75586,5.0459a1.83221,1.83221,0,0,0-1.84131-1.84082,1.80544,1.80544,0,0,0-1.3125.53613,1.76255,1.76255,0,0,0-.54541,1.30469v11.69336a1.76194,1.76194,0,0,0,.54541,1.30371,1.80635,1.80635,0,0,0,1.3125.53711,1.83386,1.83386,0,0,0,1.84131-1.84082Z"/><path class="cls-1" d="M377.01807,154.65158V161.427h-3.22071V140.052h3.22071v7.61914l3.9375-7.61914h3.43554l-4.41015,8.71875,5.1709,12.65625h-3.78711l-3.38184-8.67871Z"/><path class="cls-1" d="M405.53369,161.66525a5.06155,5.06155,0,0,1-5.0957-5.0791V140.06857h3.15332V156.552a1.76024,1.76024,0,0,0,.54492,1.30371,1.80246,1.80246,0,0,0,1.3125.53711,1.83385,1.83385,0,0,0,1.84082-1.84082v-16.4834h3.3584v16.51758a4.852,4.852,0,0,1-1.5,3.61328A4.9837,4.9837,0,0,1,405.53369,161.66525Z"/><path class="cls-1" d="M421.47021,140.06857a4.9093,4.9093,0,0,1,3.75,1.4834,5.14478,5.14478,0,0,1,1.2959,3.61328v3.10254a4.96839,4.96839,0,0,1-1.47461,3.61328,4.82019,4.82019,0,0,1-3.57129,1.5h-1.85839v8.0459h-3.22071v-21.3584ZM423.396,145.217a1.83529,1.83529,0,0,0-.50293-1.34668,1.79188,1.79188,0,0,0-1.33789-.51172h-1.94336v6.835h1.94336a1.76394,1.76394,0,0,0,1.30468-.54492,1.80382,1.80382,0,0,0,.53614-1.3125Z"/><path class="cls-1" d="M431.61182,158.22287h3.2207v3.2207h-3.2207Z"/><path class="cls-1" d="M445.0249,161.427V140.052h4.82324a6.14017,6.14017,0,0,1,3.44336,1.00586,4.67893,4.67893,0,0,1,1.875,2.6416,7.46166,7.46166,0,0,1,.30664,2.26758,5.022,5.022,0,0,1-1.1416,3.44336,3.246,3.246,0,0,1-1.125.835,3.74141,3.74141,0,0,1,1.82325,1.61914,6.29072,6.29072,0,0,1,.73339,2.11328,8.47558,8.47558,0,0,1,.11914,1.4834,7.14563,7.14563,0,0,1-.7666,3.44336,4.93943,4.93943,0,0,1-4.125,2.52246Zm3.47656-12.64746h1.34668a1.97348,1.97348,0,0,0,2.01172-1.46582,4.18423,4.18423,0,0,0,.1875-1.34668,2.818,2.818,0,0,0-.64746-2.01172,2.04206,2.04206,0,0,0-1.55176-.63086h-1.34668Zm0,9.46h1.34668a2.28691,2.28691,0,0,0,2.26758-1.6875,3.70678,3.70678,0,0,0,.22168-1.3291,4.04763,4.04763,0,0,0-.68261-2.6084,2.19761,2.19761,0,0,0-1.80665-.75h-1.34668Z"/><path class="cls-1" d="M466.63721,140.06857a4.913,4.913,0,0,1,3.9541,1.4834,5.385,5.385,0,0,1,1.1084,3.61328v3.10254a4.98986,4.98986,0,0,1-1.72168,3.835l2.38574,9.32422h-3.4834l-1.95312-8.0459h-2.14844v8.0459h-3.2207v-21.3584ZM468.563,145.217a1.635,1.635,0,0,0-1.84082-1.8584h-1.94336v6.835h1.94336a1.764,1.764,0,0,0,1.30469-.54492,1.80385,1.80385,0,0,0,.53613-1.3125Z"/><path class="cls-1" d="M478.00732,161.427V140.052h9.17041v3.23828H481.228v5.83008h4.34668v3.23828H481.228v5.83008h5.9497V161.427Z"/><path class="cls-1" d="M496.41016,156.51779l-.78223,4.90918h-3.35449l3.63086-21.3584h4.43164l3.5791,21.3584h-3.3877l-.7539-4.90918Zm1.69238-11.55664-1.19336,8.41992h2.38672Z"/><path class="cls-1" d="M509.91406,143.30783h-3.42578v-3.23926h10.05664v3.23926h-3.40918V161.427h-3.22168Z"/><path class="cls-1" d="M525.23633,152.37619V161.427h-3.22071v-21.3584h3.22071v9.06836h3.88672v-9.06836h3.22168V161.427h-3.22168v-9.05078Z"/><path class="cls-1" d="M538.10449,161.427V140.052h9.16992v3.23828H541.3252v5.83008h4.34668v3.23828H541.3252v5.83008h5.94921V161.427Z"/><path class="cls-1" d="M565.78223,161.427h-3.22071v-21.3584h3.22071Z"/><path class="cls-1" d="M575.16016,140.052l4.27539,14.36524V140.052h3.22168v21.375h-3.46l-4.43262-13.6875V161.427H571.544V140.052Z"/><path class="cls-1" d="M587.75391,158.22287h3.2207v3.2207h-3.2207Z"/><path class="cls-2" d="M601.167,161.427V140.052h4.82324a6.14017,6.14017,0,0,1,3.44336,1.00586,4.67893,4.67893,0,0,1,1.875,2.6416,7.46166,7.46166,0,0,1,.30664,2.26758,5.0221,5.0221,0,0,1-1.1416,3.44336,3.246,3.246,0,0,1-1.125.835,3.74139,3.74139,0,0,1,1.82324,1.61914,6.2905,6.2905,0,0,1,.7334,2.11328,8.47654,8.47654,0,0,1,.11914,1.4834,7.14563,7.14563,0,0,1-.7666,3.44336,4.93943,4.93943,0,0,1-4.125,2.52246Zm3.47656-12.64746h1.34668a1.97348,1.97348,0,0,0,2.01172-1.46582,4.18423,4.18423,0,0,0,.1875-1.34668,2.818,2.818,0,0,0-.64746-2.01172,2.04206,2.04206,0,0,0-1.55176-.63086h-1.34668Zm0,9.46h1.34668a2.28691,2.28691,0,0,0,2.26758-1.6875,3.70678,3.70678,0,0,0,.22168-1.3291,4.04757,4.04757,0,0,0-.68262-2.6084,2.19758,2.19758,0,0,0-1.80664-.75h-1.34668Z"/><path class="cls-2" d="M617.68359,161.427V140.052h9.16993v3.23828H620.9043v5.83008H625.251v3.23828H620.9043v5.83008h5.94922V161.427Z"/><path class="cls-2" d="M647.2207,140.06857a4.9093,4.9093,0,0,1,3.75,1.4834,5.14483,5.14483,0,0,1,1.2959,3.61328v3.10254a4.96843,4.96843,0,0,1-1.47461,3.61328,4.82022,4.82022,0,0,1-3.57129,1.5h-1.8584v8.0459h-3.2207v-21.3584Zm1.92578,5.14844a1.83525,1.83525,0,0,0-.50293-1.34668,1.79188,1.79188,0,0,0-1.33789-.51172H645.3623v6.835h1.94336a1.764,1.764,0,0,0,1.30469-.54492,1.80385,1.80385,0,0,0,.53613-1.3125Z"/><path class="cls-2" d="M662.79883,140.06857a4.913,4.913,0,0,1,3.9541,1.4834,5.385,5.385,0,0,1,1.1084,3.61328v3.10254a4.98986,4.98986,0,0,1-1.72168,3.835l2.38574,9.32422H665.042l-1.95312-8.0459h-2.14844v8.0459h-3.2207v-21.3584Zm1.92578,5.14844a1.635,1.635,0,0,0-1.84082-1.8584h-1.94336v6.835h1.94336a1.764,1.764,0,0,0,1.30469-.54492,1.80385,1.80385,0,0,0,.53613-1.3125Z"/><path class="cls-2" d="M674.169,161.427V140.052h9.16992v3.23828h-5.94922v5.83008h4.34668v3.23828h-4.34668v5.83008h5.94922V161.427Z"/><path class="cls-2" d="M699.08887,156.10861a6.01106,6.01106,0,0,1-1.15918,3.81836,4.176,4.176,0,0,1-2.21582,1.5166,6.04161,6.04161,0,0,1-1.79.23926,5.06724,5.06724,0,0,1-3.13672-.9375,5.24133,5.24133,0,0,1-1.64453-2.08789,8.41324,8.41324,0,0,1-.707-3.02637l3.06738-.2207a4.66042,4.66042,0,0,0,.98926,2.707,1.65027,1.65027,0,0,0,1.3291.59961,1.99715,1.99715,0,0,0,1.6875-1.041,2.586,2.586,0,0,0,.32422-1.416,3.93343,3.93343,0,0,0-1.21-2.64453q-.95508-.90381-2.86426-2.71289a12.22014,12.22014,0,0,1-2.2666-2.78027,6.43135,6.43135,0,0,1-.71582-3.00293,5.22253,5.22253,0,0,1,1.96-4.41895,4.87229,4.87229,0,0,1,3-.9043,5.452,5.452,0,0,1,2.94922.76758,4.428,4.428,0,0,1,1.542,1.66992,6.18334,6.18334,0,0,1,.708,2.47168l-3.08594.5625a3.71455,3.71455,0,0,0-.75-2.04492,1.57372,1.57372,0,0,0-1.27832-.5293,1.473,1.473,0,0,0-1.34668.78418,3.02491,3.02491,0,0,0-.375,1.56836,4.70826,4.70826,0,0,0,1.26172,2.9834,10.66712,10.66712,0,0,0,1.43164,1.36328q1.125.9375,1.4834,1.3125a10.99082,10.99082,0,0,1,1.84082,2.35254,8.99179,8.99179,0,0,1,.49414,1.00586A5.86717,5.86717,0,0,1,699.08887,156.10861Z"/><path class="cls-2" d="M704.64453,161.427V140.052h9.16992v3.23828h-5.94922v5.83008h4.34668v3.23828h-4.34668v5.83008h5.94922V161.427Z"/><path class="cls-2" d="M722.52734,140.052l4.27539,14.36524V140.052h3.22168v21.375h-3.46l-4.43261-13.6875V161.427h-3.22071V140.052Z"/><path class="cls-2" d="M738.9209,143.30783h-3.42578v-3.23926h10.05664v3.23926h-3.40918V161.427H738.9209Z"/><path class="cls-2" d="M750.64746,158.22287h3.2207v3.2207h-3.2207Z"/></svg>