<svg id="Layer_1" data-name="Layer 1" xmlns="http://www.w3.org/2000/svg" width="728" height="90" viewBox="0 0 728 90"><defs><style>.cls-1{fill:#ab9555;}</style></defs><title>frame1</title><path class="cls-1" d="M325.26807,60.51855a4.66138,4.66138,0,0,1-4.69092-4.6748V40.64258h2.90234V55.8125a1.621,1.621,0,0,0,.502,1.2002,1.661,1.661,0,0,0,1.208.49414,1.68715,1.68715,0,0,0,1.69434-1.69434V40.64258h3.09033V55.84375a4.46773,4.46773,0,0,1-1.38037,3.3252A4.58379,4.58379,0,0,1,325.26807,60.51855Z"/><path class="cls-1" d="M337.70508,40.627l3.93457,13.22071V40.627h2.96484V60.29883h-3.18457l-4.07861-12.59766V60.29883H334.376V40.627Z"/><path class="cls-1" d="M353.69775,40.64258a4.51673,4.51673,0,0,1,3.45118,1.36426,4.736,4.736,0,0,1,1.19238,3.32617V48.1875a4.57136,4.57136,0,0,1-1.35742,3.32617,4.43519,4.43519,0,0,1-3.28614,1.38086h-1.71v7.4043h-2.96533V40.64258Zm1.77246,4.7373a1.69013,1.69013,0,0,0-.46289-1.23926,1.65066,1.65066,0,0,0-1.23144-.4707h-1.78809v6.291h1.78809a1.62021,1.62021,0,0,0,1.20019-.502,1.65981,1.65981,0,0,0,.49414-1.208Z"/><path class="cls-1" d="M370.55566,60.29883h-8.0791V40.64258h2.96485v16.707h5.11425Z"/><path class="cls-1" d="M379.05273,60.51855a4.66139,4.66139,0,0,1-4.6914-4.6748V40.64258h2.90234V55.8125a1.621,1.621,0,0,0,.502,1.2002,1.6618,1.6618,0,0,0,1.208.49414A1.68715,1.68715,0,0,0,380.668,55.8125V40.64258h3.09082V55.84375a4.46816,4.46816,0,0,1-1.38086,3.3252A4.58268,4.58268,0,0,1,379.05273,60.51855Z"/><path class="cls-1" d="M392.82031,60.5498a4.70122,4.70122,0,0,1-4.707-4.69042V45.12891a4.69875,4.69875,0,1,1,9.39746,0v2.24316h-3.07519V45.06641a1.7138,1.7138,0,0,0-1.71-1.71,1.621,1.621,0,0,0-1.2002.502,1.66177,1.66177,0,0,0-.49414,1.208V55.82812a1.68715,1.68715,0,0,0,1.69434,1.69434,1.66476,1.66476,0,0,0,1.208-.49316,1.61306,1.61306,0,0,0,.502-1.19727V51.96875h-1.64649V48.98828h4.72168v6.8711a4.68784,4.68784,0,0,1-4.69043,4.69042Z"/><path class="cls-1" d="M401.31641,57.34961h2.96582v2.96484h-2.96582Z"/></svg>