<svg id="Content" xmlns="http://www.w3.org/2000/svg" width="728" height="90" viewBox="0 0 728 90"><defs><style>.cls-1{fill:#ba9544;}</style></defs><title>Frame1 - MK Ultra</title><path class="cls-1" d="M240.02557,51.62891,242.425,35.72607h4.89551V58.124h-3.32715V42.062L241.5617,58.124h-3.32812l-2.624-15.83838V58.124h-3.07129v-22.398h4.89551Z"/><path class="cls-1" d="M257.881,49.19629l-1.08789,2.04785V58.124h-3.51953v-22.398h3.51953v9.75977l4.60742-9.75977h3.52051l-4.89649,9.9834L264.92108,58.124h-3.61621Z"/><path class="cls-1" d="M281.6242,35.72607V53.00391c0,1.60058.7041,2.17675,1.82422,2.17675s1.82422-.57617,1.82422-2.17675V35.72607h3.32715v17.0542c0,3.584-1.792,5.63184-5.24707,5.63184-3.45606,0-5.248-2.04785-5.248-5.63184V35.72607Z"/><path class="cls-1" d="M294.39276,35.72607h3.51953V54.92383h5.792V58.124h-9.31152Z"/><path class="cls-1" d="M307.60858,35.72607h10.8789v3.2002h-3.67969V58.124h-3.51953V38.92627h-3.67968Z"/><path class="cls-1" d="M330.77557,58.124a6.87839,6.87839,0,0,1-.32031-2.752V51.85254c0-2.08008-.70411-2.84766-2.30372-2.84766h-1.21582V58.124h-3.51953v-22.398h5.31153c3.64746,0,5.21582,1.69629,5.21582,5.15137v1.75977c0,2.30468-.73633,3.8081-2.30371,4.54345,1.75976.73633,2.33593,2.43164,2.33593,4.76758V55.4043a6.5869,6.5869,0,0,0,.38379,2.71972Zm-3.83985-19.19775v6.87891h1.376c1.31152,0,2.11231-.57618,2.11231-2.36719V41.23c0-1.60059-.54395-2.30371-1.792-2.30371Z"/><path class="cls-1" d="M351.06268,58.124h-3.55176l-.60742-4.06347h-4.31934l-.6084,4.06347h-3.23144l3.583-22.398h5.15234Zm-8.03125-7.10351h3.3916l-1.69531-11.32666Z"/></svg>