<?xml version="1.0" encoding="utf-8"?>
<!-- Generator: Adobe Illustrator 23.0.1, SVG Export Plug-In . SVG Version: 6.00 Build 0)  -->
<svg version="1.1" id="Layer_2" xmlns="http://www.w3.org/2000/svg" xmlns:xlink="http://www.w3.org/1999/xlink" x="0px" y="0px"
	 viewBox="0 0 728 90" enable-background="new 0 0 728 90" xml:space="preserve">
<g>
	<path fill="#BA9544" d="M293.24,34.65c3.42,0,5.18,2.05,5.18,5.63v0.7h-3.33v-0.93c0-1.6-0.64-2.21-1.76-2.21
		c-1.12,0-1.76,0.61-1.76,2.21c0,4.61,6.88,5.47,6.88,11.87c0,3.58-1.79,5.63-5.25,5.63c-3.46,0-5.25-2.05-5.25-5.63v-1.38h3.33v1.6
		c0,1.6,0.7,2.18,1.82,2.18c1.12,0,1.82-0.58,1.82-2.18c0-4.61-6.88-5.47-6.88-11.87C288.06,36.7,289.82,34.65,293.24,34.65z"/>
	<path fill="#BA9544" d="M307.39,44.35h4.83v3.2h-4.83v6.56h6.08v3.2h-9.6v-22.4h9.6v3.2h-6.08V44.35z"/>
	<path fill="#BA9544" d="M322.17,41.08v16.22H319v-22.4h4.42l3.62,13.41V34.91h3.14v22.4h-3.62L322.17,41.08z"/>
	<path fill="#BA9544" d="M340.83,34.65c3.42,0,5.18,2.05,5.18,5.63v0.7h-3.33v-0.93c0-1.6-0.64-2.21-1.76-2.21
		c-1.12,0-1.76,0.61-1.76,2.21c0,4.61,6.88,5.47,6.88,11.87c0,3.58-1.79,5.63-5.25,5.63c-3.46,0-5.25-2.05-5.25-5.63v-1.38h3.33v1.6
		c0,1.6,0.7,2.18,1.82,2.18c1.12,0,1.82-0.58,1.82-2.18c0-4.61-6.88-5.47-6.88-11.87C335.64,36.7,337.4,34.65,340.83,34.65z"/>
	<path fill="#BA9544" d="M351.45,34.91h3.52v22.4h-3.52V34.91z"/>
	<path fill="#BA9544" d="M374.01,34.65c3.42,0,5.18,2.05,5.18,5.63v0.7h-3.33v-0.93c0-1.6-0.64-2.21-1.76-2.21
		c-1.12,0-1.76,0.61-1.76,2.21c0,4.61,6.88,5.47,6.88,11.87c0,3.58-1.79,5.63-5.25,5.63c-3.46,0-5.25-2.05-5.25-5.63v-1.38h3.33v1.6
		c0,1.6,0.7,2.18,1.82,2.18s1.82-0.58,1.82-2.18c0-4.61-6.88-5.47-6.88-11.87C368.83,36.7,370.59,34.65,374.01,34.65z"/>
	<path fill="#BA9544" d="M383.61,34.91h10.88v3.2h-3.68v19.2h-3.52v-19.2h-3.68V34.91z"/>
	<path fill="#BA9544" d="M410.81,57.31h-3.55l-0.61-4.06h-4.32l-0.61,4.06h-3.23l3.58-22.4h5.15L410.81,57.31z M402.78,50.2h3.39
		l-1.7-11.33L402.78,50.2z"/>
	<path fill="#BA9544" d="M423.19,57.31c-0.19-0.58-0.32-0.93-0.32-2.75v-3.52c0-2.08-0.7-2.85-2.3-2.85h-1.22v9.12h-3.52v-22.4h5.31
		c3.65,0,5.22,1.7,5.22,5.15v1.76c0,2.3-0.74,3.81-2.3,4.54c1.76,0.74,2.34,2.43,2.34,4.77v3.46c0,1.09,0.03,1.89,0.38,2.72H423.19z
		 M419.35,38.11v6.88h1.38c1.31,0,2.11-0.58,2.11-2.37v-2.21c0-1.6-0.54-2.3-1.79-2.3H419.35z"/>
</g>
<g>
</g>
<g>
</g>
<g>
</g>
<g>
</g>
<g>
</g>
<g>
</g>
<g>
</g>
<g>
</g>
<g>
</g>
<g>
</g>
<g>
</g>
<g>
</g>
<g>
</g>
<g>
</g>
<g>
</g>
</svg>
