<?xml version="1.0" encoding="utf-8"?>
<!-- Generator: Adobe Illustrator 23.0.1, SVG Export Plug-In . SVG Version: 6.00 Build 0)  -->
<svg version="1.1" id="Layer_2" xmlns="http://www.w3.org/2000/svg" xmlns:xlink="http://www.w3.org/1999/xlink" x="0px" y="0px"
	 viewBox="0 0 37 52" style="enable-background:new 0 0 37 52;" xml:space="preserve">
<style type="text/css">
	.st0{fill:url(#SVGID_1_);}
	.st1{fill:#FFFFFF;}
	.st2{fill:#BA9544;}
</style>
<g>
	<g>
		<linearGradient id="SVGID_1_" gradientUnits="userSpaceOnUse" x1="2.6763" y1="18.9655" x2="35.2343" y2="18.9655">
			<stop  offset="0" style="stop-color:#A88A34"/>
			<stop  offset="0.4932" style="stop-color:#CAAF67"/>
			<stop  offset="1" style="stop-color:#957F2E"/>
		</linearGradient>
		<polygon class="st0" points="16.2,35.62 2.68,20 13.35,2.31 33.47,7 35.23,27.58 		"/>
		<path class="st1" d="M27.03,13.33c-0.22,0-0.42-0.09-0.57-0.24c-0.15-0.15-0.24-0.35-0.24-0.57c0-0.72-0.58-1.31-1.31-1.31h-0.43
			c-0.49,0-0.88,0.39-0.88,0.88v3.05c-0.77-0.59-1.69-0.89-2.61-0.89c-1.1,0-2.2,0.42-3.04,1.26l-0.82,0.82
			c-0.84,0.84-1.26,1.94-1.26,3.04c0,0.92,0.3,1.84,0.89,2.61H13.7c-0.49,0-0.88,0.39-0.88,0.88v0.43c0,0.72,0.58,1.31,1.31,1.31
			c0.22,0,0.42,0.09,0.57,0.24c0.15,0.15,0.24,0.35,0.24,0.57c0,0.72,0.58,1.31,1.31,1.31h0.43c0.49,0,0.88-0.39,0.88-0.88v-3.05
			c0.77,0.59,1.69,0.89,2.61,0.89c1.1,0,2.2-0.42,3.04-1.26l0.82-0.82c0.84-0.84,1.26-1.94,1.26-3.04c0-0.92-0.3-1.84-0.89-2.61
			h3.05c0.49,0,0.88-0.39,0.88-0.88v-0.43C28.34,13.91,27.75,13.33,27.03,13.33"/>
	</g>
	<g>
		<path class="st2" d="M5.64,45.57c0.31,0.14,0.61,0.34,0.88,0.61L5.7,46.99c-0.27-0.33-0.65-0.49-1.14-0.49
			c-0.49,0-0.8,0.12-0.94,0.35c-0.14,0.23-0.14,0.43,0,0.59c0.14,0.16,0.45,0.29,0.94,0.37c0.52,0.05,0.99,0.22,1.41,0.51
			c0.42,0.29,0.63,0.74,0.63,1.37c0,0.49-0.23,0.91-0.68,1.27c-0.45,0.35-0.97,0.53-1.57,0.53c-0.57,0-1.04-0.08-1.42-0.25
			s-0.71-0.38-0.98-0.65l0.82-0.82c0.27,0.33,0.73,0.52,1.39,0.57c0.54,0,0.88-0.12,1.02-0.35c0.13-0.23,0.13-0.46,0-0.69
			c-0.13-0.23-0.47-0.37-1.02-0.43c-0.49-0.05-0.94-0.2-1.35-0.45s-0.61-0.67-0.61-1.26c0-0.54,0.23-0.98,0.7-1.3
			c0.46-0.33,0.94-0.49,1.43-0.49C4.89,45.36,5.33,45.43,5.64,45.57z"/>
		<path class="st2" d="M11.41,46.99l-1.22,4.49H8.97l-1.64-6.12h1.31l1.07,4.16l1.1-4.16h1.26l1.06,4.16l1.06-4.16h1.31l-1.63,6.12
			h-1.22L11.41,46.99z"/>
		<path class="st2" d="M16.38,51.48v-6.12l4.5,0v1.14h-3.27v1.31h2.45v1.14h-2.45v1.39h3.26v1.14H16.38z"/>
		<path class="st2" d="M22.1,51.48v-6.12l4.5,0v1.14h-3.27v1.31h2.45v1.14h-2.45v1.39h3.26v1.14H22.1z"/>
		<path class="st2" d="M32.82,45.36v1.14h-2.04v4.98h-1.22V46.5h-2.04v-1.14H32.82z"/>
	</g>
</g>
<g>
</g>
<g>
</g>
<g>
</g>
<g>
</g>
<g>
</g>
<g>
</g>
<g>
</g>
<g>
</g>
<g>
</g>
<g>
</g>
<g>
</g>
<g>
</g>
<g>
</g>
<g>
</g>
<g>
</g>
</svg>
