<?xml version="1.0" encoding="utf-8"?>
<!-- Generator: Adobe Illustrator 23.0.1, SVG Export Plug-In . SVG Version: 6.00 Build 0)  -->
<svg version="1.1" id="Layer_2" xmlns="http://www.w3.org/2000/svg" xmlns:xlink="http://www.w3.org/1999/xlink" x="0px" y="0px"
	 viewBox="0 0 728 90" enable-background="new 0 0 728 90" xml:space="preserve">
<g>
	<g>
		<polygon fill="#FFFFFF" stroke="#BA9544" stroke-width="0.5" stroke-miterlimit="10" points="424.63,21.29 293.7,20.8 
			287.09,30.33 293.7,39.69 424.63,39.47 430.58,30.38 		"/>
		<polygon fill="#BA9544" points="293.8,20.8 287.19,30.33 293.8,39.69 313.86,39.69 313.93,20.8 		"/>
	</g>
	<g>
		<path fill="#BA9544" d="M368.64,27.31v1.2h-2.14v5.21h-1.28v-5.21h-2.14v-1.2H368.64z"/>
		<path fill="#BA9544" d="M369.59,33.72v-6.41h1.28v2.56h2.99v-2.57h1.28v6.41l-1.28,0v-2.65h-2.99v2.65H369.59z"/>
		<path fill="#BA9544" d="M377.13,32.8c-0.61-0.61-0.92-1.38-0.92-2.3c0-0.9,0.31-1.66,0.92-2.27c0.61-0.61,1.37-0.92,2.28-0.92
			c0.92,0,1.7,0.28,2.35,0.85l-0.85,0.94c-0.44-0.34-0.94-0.51-1.5-0.51c-0.58,0-1.04,0.18-1.39,0.54
			c-0.35,0.36-0.53,0.81-0.53,1.37c0,0.6,0.18,1.07,0.53,1.42c0.35,0.35,0.82,0.53,1.39,0.53s1.07-0.17,1.49-0.51l0.85,0.94
			c-0.65,0.57-1.44,0.85-2.35,0.85C378.51,33.72,377.75,33.41,377.13,32.8z"/>
		<path fill="#BA9544" d="M383.2,29.64c0.11-0.12,0.27-0.17,0.46-0.17c0.21,0,0.36,0.06,0.48,0.17c0.11,0.12,0.17,0.26,0.17,0.43
			s-0.06,0.31-0.17,0.43c-0.11,0.11-0.27,0.17-0.47,0.17c-0.2,0-0.36-0.06-0.47-0.17c-0.11-0.11-0.17-0.26-0.17-0.43
			S383.09,29.75,383.2,29.64z M383.2,32.7c0.11-0.12,0.27-0.17,0.46-0.17c0.21,0,0.36,0.06,0.48,0.17s0.17,0.26,0.17,0.43
			s-0.06,0.31-0.17,0.43s-0.27,0.17-0.47,0.17c-0.2,0-0.36-0.06-0.47-0.17s-0.17-0.26-0.17-0.43S383.09,32.81,383.2,32.7z"/>
		<path fill="#BA9544" d="M390.03,27.31L390.03,27.31l1.28,0v6.41h-1.28v-4.7l-0.85,0.85l-0.85-0.85L390.03,27.31z"/>
		<path fill="#BA9544" d="M392.58,30.61c0-1.03,0.22-1.83,0.66-2.41c0.44-0.58,1.03-0.87,1.77-0.88c0.74,0.02,1.34,0.23,1.79,0.64
			l-0.64,0.85c-0.31-0.17-0.68-0.26-1.1-0.26c-0.37,0-0.67,0.12-0.88,0.36c-0.22,0.24-0.34,0.61-0.37,1.09
			c0.43-0.37,0.86-0.56,1.28-0.56c0.74,0,1.29,0.19,1.65,0.58c0.36,0.38,0.53,0.9,0.53,1.56c0,0.6-0.2,1.1-0.6,1.52
			c-0.4,0.41-0.97,0.62-1.71,0.62c-0.85-0.03-1.47-0.32-1.84-0.87C392.77,32.31,392.58,31.56,392.58,30.61z M393.99,31.59
			c0.03,0.6,0.37,0.91,1.03,0.93c0.66-0.03,1-0.31,1.03-0.85c-0.03-0.71-0.38-1.07-1.07-1.07
			C394.38,30.63,394.05,30.96,393.99,31.59z"/>
		<path fill="#BA9544" d="M398.44,32.01v-0.85h2.65v0.85H398.44z"/>
		<path fill="#BA9544" d="M404.5,27.31c0.63,0,1.14,0.16,1.54,0.47s0.6,0.78,0.6,1.41c0,0.74-0.28,1.42-0.85,2.03
			c-0.57,0.62-1.04,1.02-1.41,1.21h2.31v1.28h-4.32v-1.28c0.28,0,0.83-0.36,1.62-1.07c0.8-0.71,1.26-1.22,1.39-1.52
			c0.13-0.3,0.12-0.6-0.02-0.9c-0.14-0.3-0.48-0.45-1.03-0.45c-0.51,0-0.91,0.17-1.2,0.51l-0.85-0.85c0.29-0.28,0.56-0.5,0.83-0.64
			C403.39,27.39,403.85,27.31,404.5,27.31z"/>
		<path fill="#BA9544" d="M408.53,32.8c-0.43-0.61-0.64-1.38-0.64-2.28c0-0.91,0.21-1.67,0.64-2.29c0.43-0.61,1-0.92,1.71-0.92
			c0.72,0,1.29,0.31,1.71,0.92c0.43,0.61,0.64,1.38,0.64,2.29s-0.21,1.67-0.64,2.29c-0.43,0.61-1,0.92-1.71,0.92
			C409.53,33.72,408.96,33.42,408.53,32.8z M410.25,32.53c0.28,0,0.53-0.19,0.74-0.58s0.32-0.86,0.32-1.43s-0.11-1.05-0.32-1.43
			s-0.46-0.58-0.75-0.58c-0.28,0-0.53,0.19-0.74,0.58c-0.21,0.38-0.32,0.86-0.32,1.43s0.11,1.05,0.32,1.43
			C409.71,32.34,409.96,32.53,410.25,32.53z"/>
		<path fill="#BA9544" d="M414.12,30.02c-0.31-0.31-0.46-0.69-0.46-1.15c0-0.46,0.15-0.84,0.46-1.15c0.31-0.31,0.69-0.46,1.15-0.46
			c0.46,0,0.84,0.15,1.14,0.46c0.31,0.31,0.46,0.69,0.46,1.15c0,0.46-0.15,0.84-0.46,1.15s-0.69,0.46-1.14,0.46
			C414.81,30.48,414.42,30.33,414.12,30.02z M415.25,29.72c0.24,0,0.43-0.08,0.59-0.24c0.15-0.16,0.23-0.36,0.23-0.61
			c0-0.24-0.08-0.44-0.23-0.6s-0.35-0.24-0.59-0.24c-0.24,0-0.43,0.08-0.58,0.24s-0.23,0.36-0.23,0.6c0,0.24,0.08,0.44,0.23,0.61
			C414.82,29.64,415.01,29.72,415.25,29.72z M414.91,33.72l3.63-6.41h1.04l-3.62,6.41H414.91z M418.09,33.3
			c-0.31-0.31-0.46-0.68-0.46-1.14c0-0.45,0.15-0.83,0.46-1.14c0.3-0.3,0.68-0.46,1.14-0.46s0.83,0.15,1.14,0.46
			c0.3,0.31,0.46,0.68,0.46,1.14c0,0.45-0.15,0.83-0.46,1.14c-0.31,0.3-0.68,0.46-1.14,0.46S418.4,33.61,418.09,33.3z M419.21,32.99
			c0.23,0,0.42-0.08,0.57-0.24S420,32.4,420,32.16c0-0.23-0.07-0.43-0.22-0.59s-0.34-0.24-0.58-0.24c-0.23,0-0.42,0.08-0.57,0.24
			c-0.15,0.16-0.22,0.35-0.22,0.59c0,0.24,0.07,0.43,0.22,0.59C418.78,32.91,418.97,32.99,419.21,32.99z"/>
	</g>
</g>
<g>
</g>
<g>
</g>
<g>
</g>
<g>
</g>
<g>
</g>
<g>
</g>
<g>
</g>
<g>
</g>
<g>
</g>
<g>
</g>
<g>
</g>
<g>
</g>
<g>
</g>
<g>
</g>
<g>
</g>
</svg>
