<svg id="Content" xmlns="http://www.w3.org/2000/svg" width="320" height="568" viewBox="0 0 320 568"><defs><style>.cls-1{fill:#fff;stroke:#ba9544;stroke-miterlimit:10;stroke-width:0.5px;}.cls-2{fill:#ba9544;}</style></defs><title>THC - Ultra Sour</title><polygon class="cls-1" points="254.24 298.696 68.157 297.991 58.764 311.537 68.157 324.842 254.24 324.525 262.694 311.612 254.24 298.696"/><polygon class="cls-2" points="68.293 297.991 58.9 311.537 68.293 324.842 103.689 324.842 103.689 297.991 68.293 297.991"/><path class="cls-2" d="M174.66309,307.09766v1.70019H171.626V316.208h-1.82227v-7.41016H166.7666v-1.70019Z"/><path class="cls-2" d="M176.01758,316.208v-9.11035h1.82226v3.64453H182.085V307.0918h1.82227v9.11035l-1.82227.00586v-3.76563h-4.24512V316.208Z"/><path class="cls-2" d="M186.73438,314.89941a4.55679,4.55679,0,0,1,3.24023-7.80175,4.93106,4.93106,0,0,1,3.34668,1.21484l-1.21484,1.33008a3.35548,3.35548,0,0,0-2.13184-.72852,2.59585,2.59585,0,0,0-2.72656,2.708,2.73138,2.73138,0,0,0,.75879,2.0166,2.68929,2.68929,0,0,0,1.98046.74707,3.26007,3.26007,0,0,0,2.11915-.72265l1.21484,1.33007a4.9106,4.9106,0,0,1-3.34668,1.21485A4.4346,4.4346,0,0,1,186.73438,314.89941Z"/><path class="cls-2" d="M199.61426,310.39844a.88087.88087,0,0,1,.65625-.2461.91251.91251,0,0,1,.67969.2461.83507.83507,0,0,1,.24316.61035.82372.82372,0,0,1-.24316.60742,1.039,1.039,0,0,1-1.33594,0,.82369.82369,0,0,1-.24317-.60742A.835.835,0,0,1,199.61426,310.39844Zm0,4.34863a.88407.88407,0,0,1,.65625-.24512.91586.91586,0,0,1,.67969.24512.83574.83574,0,0,1,.24316.61133.82148.82148,0,0,1-.24316.60644,1.039,1.039,0,0,1-1.33594,0,.82144.82144,0,0,1-.24317-.60644A.83571.83571,0,0,1,199.61426,314.74707Z"/><path class="cls-2" d="M209.31445,307.09766v-.00586h1.81641V316.208h-1.81641v-6.68067l-1.21484,1.21485-1.21484-1.21485Z"/><path class="cls-2" d="M217.85449,311.5918c.10938.041.208.08105.29785.12207a1.78608,1.78608,0,0,1,.94141,1.82226,2.33809,2.33809,0,0,1-.88379,2.03418,4.37651,4.37651,0,0,1-4.5498,0,2.33809,2.33809,0,0,1-.88379-2.03418,1.78609,1.78609,0,0,1,.9414-1.82226c.08985-.041.18848-.08106.29785-.12207q-.09668-.04834-.17578-.09082a1.80108,1.80108,0,0,1-.82031-1.73047,2.49384,2.49384,0,0,1,.793-1.97461,3.57525,3.57525,0,0,1,4.24512,0,2.49384,2.49384,0,0,1,.793,1.97461,1.80107,1.80107,0,0,1-.82032,1.73047Q217.95118,311.54346,217.85449,311.5918Zm-1.91894-.8252q.80127-.0249,1.03222-.41992a.9701.9701,0,0,0,0-1.03223,1.16822,1.16822,0,0,0-1.03222-.50976,1.15329,1.15329,0,0,0-1.02735.50976.95428.95428,0,0,0,0,1.03223Q215.13379,310.74218,215.93555,310.7666Zm0,1.66992a1.35449,1.35449,0,0,0-1.02735.52246.95428.95428,0,0,0,0,1.03223,1.15174,1.15174,0,0,0,1.02735.51074,1.16663,1.16663,0,0,0,1.03222-.51074.9701.9701,0,0,0,0-1.03223A1.37555,1.37555,0,0,0,215.93555,312.43652Z"/><path class="cls-2" d="M220.68555,313.77246v-1.208h3.76562v1.208Z"/><path class="cls-2" d="M229.30469,307.09766a3.43737,3.43737,0,0,1,2.18945.67089,2.39165,2.39165,0,0,1,.85254,2.002,4.17212,4.17212,0,0,1-1.21094,2.89062,8.41651,8.41651,0,0,1-2.00195,1.72461h3.28027V316.208h-6.14062v-1.82227q.60791,0,2.30761-1.51758a8.71294,8.71294,0,0,0,1.97461-2.15625,1.488,1.488,0,0,0-.03027-1.27636q-.30468-.63721-1.458-.6377a2.09285,2.09285,0,0,0-1.70117.72949l-1.21387-1.21484a4.99362,4.99362,0,0,1,1.1836-.91113A4.56825,4.56825,0,0,1,229.30469,307.09766Z"/><path class="cls-2" d="M239.96973,307.09766v1.70019H236.2041v1.27637h.72852a4.08505,4.08505,0,0,1,2.75781.81933,3.33107,3.33107,0,0,1,.94141,2.46,2.6571,2.6571,0,0,1-.91407,2.00488,3.1851,3.1851,0,0,1-2.251.84961,5.38927,5.38927,0,0,1-2.11914-.36426,4.5817,4.5817,0,0,1-1.458-.97168l1.21484-1.21484a2.55141,2.55141,0,0,0,1.94336.79q1.64063,0,1.792-1.20313a1.36011,1.36011,0,0,0-.55859-1.12988,3.64553,3.64553,0,0,0-1.95605-.33985h-1.94336v-4.67675Z"/><path class="cls-2" d="M242.48438,310.94238a2.34608,2.34608,0,1,1,1.62792.65625A2.2095,2.2095,0,0,1,242.48438,310.94238Zm1.60937-.4248a1.08678,1.08678,0,0,0,.832-.34668,1.31086,1.31086,0,0,0,0-1.72168,1.09828,1.09828,0,0,0-.83789-.34375,1.0815,1.0815,0,0,0-.82617.34375,1.31086,1.31086,0,0,0,0,1.72168A1.08534,1.08534,0,0,0,244.09375,310.51758Zm-.48633,5.69043,5.16309-9.11035H250.252l-5.15039,9.11035Zm4.52539-.60059a2.33463,2.33463,0,1,1,1.61524.64942A2.19471,2.19471,0,0,1,248.13281,315.60742Zm1.585-.44433a1.06728,1.06728,0,0,0,.81446-.33692,1.27057,1.27057,0,0,0,0-1.67578,1.07422,1.07422,0,0,0-.82032-.33691,1.05678,1.05678,0,0,0-.80761.33691,1.26761,1.26761,0,0,0,0,1.67578A1.06367,1.06367,0,0,0,249.71777,315.16309Z"/></svg>