<svg id="Content" xmlns="http://www.w3.org/2000/svg" xmlns:xlink="http://www.w3.org/1999/xlink" viewBox="0 0 728 360"><defs><style>.cls-1{fill:url(#New_Gradient_Swatch_1);}.cls-2{fill:#fff;}.cls-3{fill:#ba9544;}</style><linearGradient id="New_Gradient_Swatch_1" x1="88.3" y1="197.19" x2="144.92" y2="197.19" gradientUnits="userSpaceOnUse"><stop offset="0" stop-color="#a88a34"/><stop offset="0.49" stop-color="#caaf67"/><stop offset="1" stop-color="#957f2e"/></linearGradient></defs><title>sweet</title><polygon class="cls-1" points="111.82 226.15 88.3 198.99 106.86 168.23 141.86 176.38 144.92 212.18 111.82 226.15"/><path class="cls-2" d="M130.65,187.38a1.4,1.4,0,0,1-1-.41,1.42,1.42,0,0,1-.41-1A2.27,2.27,0,0,0,127,183.7h-.74a1.54,1.54,0,0,0-1.54,1.53v5.31a7.47,7.47,0,0,0-9.83.65l-1.43,1.42a7.47,7.47,0,0,0-.64,9.84h-5.31A1.52,1.52,0,0,0,106,204v.74a2.27,2.27,0,0,0,2.27,2.28,1.36,1.36,0,0,1,1,.41,1.38,1.38,0,0,1,.42,1,2.27,2.27,0,0,0,2.27,2.28h.74a1.54,1.54,0,0,0,1.54-1.53v-5.31a7.47,7.47,0,0,0,9.83-.65l1.42-1.42a7.46,7.46,0,0,0,.65-9.84h5.31a1.52,1.52,0,0,0,1.53-1.53v-.74a2.28,2.28,0,0,0-2.27-2.28"/><path class="cls-3" d="M93.45,243.45A4.83,4.83,0,0,1,95,244.52l-1.42,1.42a2.45,2.45,0,0,0-2-.86c-.85,0-1.39.21-1.63.61a.82.82,0,0,0,0,1,2.83,2.83,0,0,0,1.63.63,5.41,5.41,0,0,1,2.45.89,2.68,2.68,0,0,1,1.1,2.38,2.74,2.74,0,0,1-1.17,2.2,4.36,4.36,0,0,1-2.74.92,6.42,6.42,0,0,1-2.48-.42,5.52,5.52,0,0,1-1.7-1.14l1.42-1.42a3.34,3.34,0,0,0,2.41,1q1.42,0,1.77-.6a1.11,1.11,0,0,0,0-1.21c-.23-.4-.82-.65-1.77-.74a5.89,5.89,0,0,1-2.34-.78,2.36,2.36,0,0,1-1.06-2.2A2.65,2.65,0,0,1,88.67,244a4.22,4.22,0,0,1,2.48-.85A6.06,6.06,0,0,1,93.45,243.45Z"/><path class="cls-3" d="M103.49,245.94l-2.12,7.8H99.24L96.39,243.1h2.27l1.85,7.24,1.92-7.24h2.2l1.84,7.24,1.85-7.24h2.27l-2.84,10.64h-2.13Z"/><path class="cls-3" d="M112.14,253.74V243.1H120v2h-5.69v2.27h4.26v2h-4.26v2.42h5.67v2Z"/><path class="cls-3" d="M122.07,253.74V243.1h7.82v2H124.2v2.27h4.27v2H124.2v2.42h5.68v2Z"/><path class="cls-3" d="M140.72,243.1v2h-3.55v8.66H135v-8.66H131.5v-2Z"/></svg>