<svg id="Content" xmlns="http://www.w3.org/2000/svg" xmlns:xlink="http://www.w3.org/1999/xlink" width="320" height="50" viewBox="0 0 320 50"><defs><style>.cls-1{fill:url(#New_Gradient_Swatch_1);}.cls-2{fill:#fff;}.cls-3{fill:#ba9544;}</style><linearGradient id="New_Gradient_Swatch_1" x1="185.74383" y1="19.13772" x2="206.33693" y2="19.13772" gradientUnits="userSpaceOnUse"><stop offset="0" stop-color="#a88a34"/><stop offset="0.49324" stop-color="#caaf67"/><stop offset="1" stop-color="#957f2e"/></linearGradient></defs><title>citrus</title><polygon class="cls-1" points="201.188 10.221 190.892 10.221 185.744 19.137 190.892 28.055 201.188 28.055 206.337 19.137 201.188 10.221"/><path class="cls-2" d="M200.2521,20.4004A4.52686,4.52686,0,0,1,193.39,14.51707l-.41907-.35976a5.07847,5.07847,0,0,0,7.70028,6.60285Z"/><path class="cls-2" d="M192.88649,17.72022a4.114,4.114,0,0,0,1.27732,2.55274L196.597,17.4351Z"/><path class="cls-2" d="M194.44511,20.51368a4.1154,4.1154,0,0,0,2.67807.87452l-.2813-3.66931Z"/><path class="cls-2" d="M193.6924,14.77636a4.11348,4.11348,0,0,0-.8305,2.57473l3.51814-.27077Z"/><path class="cls-2" d="M199.94889,20.14082l-2.72974-2.34031.27269,3.55832a4.11194,4.11194,0,0,0,2.45705-1.218"/><path class="cls-2" d="M196.58,16.77367c.01818-.23059.14735-.377.29374-.38846.14543-.01244.25355.11386.23536.34445a.7842.7842,0,0,1-.29756.43917.50743.50743,0,0,1-.23154-.39516"/><path class="cls-2" d="M197.53356,16.99373c.22388-.066.37123.01148.38941.156.01818.14352-.09951.29948-.32244.3655a.51631.51631,0,0,1-.43917-.14161s.14831-.31383.3722-.37985"/><path class="cls-2" d="M197.94737,24.1254a.47774.47774,0,1,1-.95489.03349c-.00861-.26312.45065-.78458.45065-.78458s.49562.488.50424.75109"/><path class="cls-2" d="M197.77735,23.81425a.13407.13407,0,0,1-.11482.14926l-.39707.01435a.13462.13462,0,0,1-.12438-.14065,1.43713,1.43713,0,0,0,.04305-.76161c-.15213-.45256-1.21226-.80849-1.14624-.81041l2.18341-.15308a1.57888,1.57888,0,0,0-.58747.96062.996.996,0,0,0,.14352.74152"/><path class="cls-3" d="M186.68652,39.65625a1.89313,1.89313,0,0,1,1.34571-3.24121,2.04467,2.04467,0,0,1,1.39013.50488l-.50439.55274a1.39408,1.39408,0,0,0-.88574-.30274,1.07794,1.07794,0,0,0-1.13282,1.125,1.13327,1.13327,0,0,0,.31543.83692,1.11664,1.11664,0,0,0,.82227.31054,1.357,1.357,0,0,0,.88086-.2998l.50439.55273a2.04334,2.04334,0,0,1-1.39013.50391A1.839,1.839,0,0,1,186.68652,39.65625Z"/><path class="cls-3" d="M190.2373,36.41309h.75391v3.78613h-.75391Z"/><path class="cls-3" d="M194.83887,36.415v.707h-1.26172v3.07715h-.75684V37.12207h-1.26123v-.707Z"/><path class="cls-3" d="M197.6792,38.5498l.94336,1.64942h-.86768l-.90576-1.56348h-.69092v1.56348h-.75683V36.415h1.6499q1.32422,0,1.32422,1.08984A.97929.97929,0,0,1,197.6792,38.5498Zm-1.521-.62109h1.05957q.4563-.00732.46924-.416-.01318-.37355-.46191-.38868h-1.0669Z"/><path class="cls-3" d="M199.71533,36.415v2.19531a.76005.76005,0,0,0,.252.63086,1.08974,1.08974,0,0,0,1.26171,0,.76005.76005,0,0,0,.252-.63086V36.415h.75683v2.39648a1.25418,1.25418,0,0,1-.46631.98438,1.90769,1.90769,0,0,1-2.34619,0,1.25318,1.25318,0,0,1-.46679-.98438V36.415Z"/><path class="cls-3" d="M205.104,36.541a1.7868,1.7868,0,0,1,.54248.3789l-.50488.50488a.86689.86689,0,0,0-.70605-.30273q-.45411,0-.58057.21387a.2961.2961,0,0,0,0,.36621.99774.99774,0,0,0,.58057.22656,1.88277,1.88277,0,0,1,.87011.31543.94748.94748,0,0,1,.39112.8457.96774.96774,0,0,1-.41748.78125,1.52859,1.52859,0,0,1-.97266.32813,2.22851,2.22851,0,0,1-.88037-.15137,1.90488,1.90488,0,0,1-.60547-.40332l.5044-.50488a1.2008,1.2008,0,0,0,.85791.35351q.50463,0,.62939-.21484a.39816.39816,0,0,0,0-.42871c-.083-.14258-.293-.23145-.62939-.26465a2.04355,2.04355,0,0,1-.83252-.27734.83712.83712,0,0,1-.37842-.78223.94056.94056,0,0,1,.43017-.80566,1.5126,1.5126,0,0,1,.88428-.30469A2.11332,2.11332,0,0,1,205.104,36.541Z"/></svg>