<svg id="Layer_1" data-name="Layer 1" xmlns="http://www.w3.org/2000/svg" width="160" height="600" viewBox="0 0 160 600"><defs><style>.cls-1{fill:#ab9555;}</style></defs><title>frame2</title><path class="cls-1" d="M47.05968,296.00586H40.11046v-16.9082h2.55078v14.37109h4.39844Z"/><path class="cls-1" d="M55.129,278.88135a4.04272,4.04272,0,0,1,4.04785,4.04834v9.23047a4.04153,4.04153,0,1,1-8.083,0v-9.23047a4.04355,4.04355,0,0,1,4.03516-4.04834Zm1.38964,3.99463a1.45124,1.45124,0,0,0-1.458-1.45752,1.42807,1.42807,0,0,0-1.03907.42529A1.39676,1.39676,0,0,0,53.59,282.876v9.25683a1.39862,1.39862,0,0,0,.43164,1.03272,1.42956,1.42956,0,0,0,1.03907.4248,1.45042,1.45042,0,0,0,1.458-1.45752Z"/><path class="cls-1" d="M67.69152,278.88135a4.04272,4.04272,0,0,1,4.04785,4.04834v9.23047a4.04152,4.04152,0,1,1-8.083,0v-9.23047a4.04355,4.04355,0,0,1,4.03516-4.04834Zm1.38964,3.99463a1.45124,1.45124,0,0,0-1.457-1.45752,1.42647,1.42647,0,0,0-1.03906.42529,1.39306,1.39306,0,0,0-.43164,1.03223v9.25683a1.39491,1.39491,0,0,0,.43164,1.03272,1.428,1.428,0,0,0,1.03906.4248,1.45041,1.45041,0,0,0,1.457-1.45752Z"/><path class="cls-1" d="M78.81066,290.64209v5.36377H76.25988V279.084h2.55078v6.03174l3.11718-6.03174h2.71875l-3.49121,6.90235,4.09375,10.01953h-2.998l-2.67774-6.87012Z"/><path class="cls-1" d="M98.10948,296.19482a4.00789,4.00789,0,0,1-4.03515-4.02148V279.09766H96.5714v13.04882a1.39306,1.39306,0,0,0,.43164,1.03223,1.42489,1.42489,0,0,0,1.03906.42529,1.45124,1.45124,0,0,0,1.457-1.45752V279.09766h2.65821v13.07568a3.84055,3.84055,0,0,1-1.1875,2.86084A3.94285,3.94285,0,0,1,98.10948,296.19482Z"/><path class="cls-1" d="M110.7257,279.09766a3.88527,3.88527,0,0,1,2.96875,1.17382,4.07282,4.07282,0,0,1,1.02539,2.86084v2.45606a3.93306,3.93306,0,0,1-1.167,2.86084,3.81875,3.81875,0,0,1-2.82714,1.1875H109.255v6.36914h-2.55078v-16.9082Zm1.52441,4.07519a1.4564,1.4564,0,0,0-.39746-1.06592,1.41991,1.41991,0,0,0-1.05957-.40527H109.255v5.41162h1.53809a1.39277,1.39277,0,0,0,1.03223-.43213,1.42794,1.42794,0,0,0,.4248-1.03906Z"/><path class="cls-1" d="M118.753,293.46875h2.55078v2.55078H118.753Z"/></svg>