<svg id="Content" xmlns="http://www.w3.org/2000/svg" xmlns:xlink="http://www.w3.org/1999/xlink" width="320" height="568" viewBox="0 0 320 568"><defs><style>.cls-1{fill:url(#New_Gradient_Swatch_1);}.cls-2{fill:#fff;}.cls-3{fill:#b89344;}</style><linearGradient id="New_Gradient_Swatch_1" x1="76.98024" y1="395.78257" x2="117.50877" y2="395.78257" gradientUnits="userSpaceOnUse"><stop offset="0" stop-color="#a68834"/><stop offset="0.49324" stop-color="#c8ad67"/><stop offset="1" stop-color="#937f2e"/></linearGradient></defs><title>sweet</title><polygon class="cls-1" points="93.815 416.513 76.98 397.071 90.269 375.052 115.316 380.885 117.509 406.509 93.815 416.513"/><path class="cls-2" d="M107.29344,388.76145a1.00632,1.00632,0,0,1-1.00561-1.0056A1.62706,1.62706,0,0,0,104.66,386.128h-.5317a1.09718,1.09718,0,0,0-1.09808,1.09614v3.79895a5.35054,5.35054,0,0,0-7.03921.46427l-1.0191,1.01909a5.35055,5.35055,0,0,0-.46427,7.03922H90.70868a1.09594,1.09594,0,0,0-1.09615,1.09807v.5317a1.62707,1.62707,0,0,0,1.62785,1.62785,1.00632,1.00632,0,0,1,1.00561,1.0056,1.627,1.627,0,0,0,1.62784,1.62784h.5317a1.09715,1.09715,0,0,0,1.09806-1.09614v-3.79895a5.35054,5.35054,0,0,0,7.03924-.46427l1.01907-1.01909a5.35049,5.35049,0,0,0,.46427-7.03922h3.79894a1.09717,1.09717,0,0,0,1.09615-1.09808v-.53169a1.627,1.627,0,0,0-1.62782-1.62785"/><path class="cls-3" d="M80.67041,428.89648a3.53614,3.53614,0,0,1,1.0918.76172l-1.01563,1.01563a1.75023,1.75023,0,0,0-1.42236-.60938q-.91407,0-1.16846.43164a.59516.59516,0,0,0,0,.73731,2.0095,2.0095,0,0,0,1.16846.457,3.78033,3.78033,0,0,1,1.75244.63477,1.90688,1.90688,0,0,1,.78711,1.70117,1.95448,1.95448,0,0,1-.84033,1.57519,3.07818,3.07818,0,0,1-1.9585.66016,4.51287,4.51287,0,0,1-1.77246-.30469,3.85163,3.85163,0,0,1-1.21924-.8125l1.01612-1.0166a2.41284,2.41284,0,0,0,1.72705.71191q1.01586,0,1.26709-.43261a.80444.80444,0,0,0,0-.86328q-.25122-.43066-1.26709-.53321a4.09073,4.09073,0,0,1-1.67627-.55859,1.6854,1.6854,0,0,1-.76221-1.57422,1.89626,1.89626,0,0,1,.86621-1.623,3.04937,3.04937,0,0,1,1.78027-.6123A4.25965,4.25965,0,0,1,80.67041,428.89648Z"/><path class="cls-3" d="M87.85791,430.67383,86.334,436.26172H84.81006l-2.03662-7.61914h1.62549l1.32568,5.18066,1.37109-5.18066h1.57471l1.3208,5.18066,1.3208-5.18066H92.9375l-2.03174,7.61914H89.38184Z"/><path class="cls-3" d="M94.04492,436.26172v-7.61426l5.59766-.00488v1.42187H95.56885v1.626h3.05273v1.417H95.56885v1.73242h4.06347v1.42188Z"/><path class="cls-3" d="M101.15625,436.26172v-7.61426l5.59766-.00488v1.42187h-4.07373v1.626h3.05273v1.417h-3.05273v1.73242h4.06347v1.42188Z"/><path class="cls-3" d="M114.50537,428.64258v1.42187h-2.54v6.19727h-1.52392v-6.19727h-2.53955v-1.42187Z"/></svg>