<?xml version="1.0" encoding="utf-8"?>
<!-- Generator: Adobe Illustrator 23.0.1, SVG Export Plug-In . SVG Version: 6.00 Build 0)  -->
<svg version="1.1" id="Content" xmlns="http://www.w3.org/2000/svg" xmlns:xlink="http://www.w3.org/1999/xlink" x="0px" y="0px"
	 viewBox="0 0 320 568" style="enable-background:new 0 0 320 568;" xml:space="preserve">
<style type="text/css">
	.st0{fill:url(#SVGID_1_);}
	.st1{fill:#FFFFFF;}
	.st2{enable-background:new    ;}
	.st3{fill:#B89344;}
</style>
<title>citrus</title>
<linearGradient id="SVGID_1_" gradientUnits="userSpaceOnUse" x1="204.819" y1="176.1465" x2="246.281" y2="176.1465" gradientTransform="matrix(1 0 0 -1 0 570)">
	<stop  offset="0" style="stop-color:#A68834"/>
	<stop  offset="0.4932" style="stop-color:#C8AD67"/>
	<stop  offset="1" style="stop-color:#937F2E"/>
</linearGradient>
<polygon class="st0" points="235.9,375.9 215.2,375.9 204.8,393.9 215.2,411.8 235.9,411.8 246.3,393.9 "/>
<path class="st1" d="M234,396.4c-3.5,3.6-9.3,3.7-12.9,0.3c-3.3-3.2-3.7-8.4-0.9-12.1l-0.8-0.7c-3.5,4.5-2.6,10.9,1.8,14.3
	c4.1,3.2,10,2.8,13.7-1L234,396.4z"/>
<path class="st1" d="M219.2,391c0.2,2,1.1,3.8,2.6,5.1l4.9-5.7L219.2,391z"/>
<path class="st1" d="M222.3,396.6c1.5,1.2,3.4,1.8,5.4,1.8l-0.6-7.4L222.3,396.6z"/>
<path class="st1" d="M220.8,385.1c-1.1,1.5-1.7,3.3-1.7,5.2l7.1-0.5L220.8,385.1z"/>
<path class="st1" d="M233.4,395.9l-5.5-4.7l0.5,7.2C230.4,398.1,232.1,397.2,233.4,395.9"/>
<path class="st1" d="M226.6,389.1c0-0.5,0.3-0.8,0.6-0.8c0.3,0,0.5,0.2,0.5,0.7c-0.1,0.4-0.3,0.7-0.6,0.9
	C226.8,389.7,226.7,389.4,226.6,389.1"/>
<path class="st1" d="M228.6,389.5c0.5-0.1,0.7,0,0.8,0.3c0,0.3-0.2,0.6-0.6,0.7c-0.3,0-0.7-0.1-0.9-0.3
	C227.8,390.3,228.1,389.7,228.6,389.5"/>
<path class="st1" d="M229.4,403.9c0,0.5-0.4,1-0.9,1c-0.5,0-1-0.4-1-0.9c0,0,0,0,0,0c0-0.5,0.9-1.6,0.9-1.6S229.4,403.4,229.4,403.9
	"/>
<path class="st1" d="M229,403.3c0,0.1-0.1,0.3-0.2,0.3l-0.8,0c-0.1,0-0.3-0.1-0.3-0.3c0.2-0.5,0.2-1,0.1-1.5
	c-0.3-0.9-2.4-1.6-2.3-1.6l4.4-0.3c-0.6,0.5-1,1.2-1.2,1.9C228.7,402.3,228.8,402.8,229,403.3"/>
<g class="st2">
	<path class="st3" d="M206.7,435.2c-0.7-0.7-1.1-1.6-1.1-2.7c0-1.1,0.4-2,1.1-2.7c0.7-0.7,1.6-1.1,2.7-1.1c1.1,0,2,0.3,2.8,1l-1,1.1
		c-0.5-0.4-1.1-0.6-1.8-0.6c-0.7,0-1.2,0.2-1.7,0.6c-0.4,0.4-0.6,1-0.6,1.6c0,0.7,0.2,1.3,0.6,1.7c0.4,0.4,1,0.6,1.7,0.6
		s1.3-0.2,1.8-0.6l1,1.1c-0.8,0.7-1.7,1-2.8,1C208.3,436.3,207.4,435.9,206.7,435.2z"/>
	<path class="st3" d="M213.9,428.6h1.5v7.6h-1.5V428.6z"/>
	<path class="st3" d="M223.1,428.6v1.4h-2.5v6.2h-1.5v-6.2h-2.5v-1.4H223.1z"/>
	<path class="st3" d="M228.8,432.9l1.9,3.3H229l-1.8-3.1h-1.4v3.1h-1.5v-7.6h3.3c1.8,0,2.7,0.7,2.7,2.2
		C230.2,431.9,229.8,432.6,228.8,432.9z M225.8,431.7h2.1c0.6,0,0.9-0.3,0.9-0.8c0-0.5-0.3-0.8-0.9-0.8h-2.1V431.7z"/>
	<path class="st3" d="M232.9,428.6v4.4c0,0.6,0.2,1,0.5,1.3c0.3,0.3,0.8,0.4,1.3,0.4s0.9-0.1,1.3-0.4c0.3-0.3,0.5-0.7,0.5-1.3v-4.4
		h1.5v4.8c0,0.8-0.3,1.4-0.9,2c-0.6,0.5-1.4,0.8-2.4,0.8s-1.7-0.3-2.4-0.8c-0.6-0.5-0.9-1.2-0.9-2v-4.8H232.9z"/>
	<path class="st3" d="M243.8,428.9c0.4,0.2,0.8,0.4,1.1,0.8l-1,1c-0.3-0.4-0.8-0.6-1.4-0.6s-1,0.1-1.2,0.4c-0.2,0.3-0.2,0.5,0,0.7
		c0.2,0.2,0.6,0.4,1.2,0.5c0.6,0.1,1.2,0.3,1.8,0.6c0.5,0.4,0.8,0.9,0.8,1.7c0,0.6-0.3,1.1-0.8,1.6s-1.2,0.7-2,0.7
		c-0.7,0-1.3-0.1-1.8-0.3c-0.5-0.2-0.9-0.5-1.2-0.8l1-1c0.3,0.4,0.9,0.6,1.7,0.7c0.7,0,1.1-0.1,1.3-0.4c0.2-0.3,0.2-0.6,0-0.9
		c-0.2-0.3-0.6-0.5-1.3-0.5c-0.6-0.1-1.2-0.3-1.7-0.6c-0.5-0.3-0.8-0.8-0.8-1.6c0-0.7,0.3-1.2,0.9-1.6c0.6-0.4,1.2-0.6,1.8-0.6
		C242.9,428.6,243.4,428.7,243.8,428.9z"/>
</g>
</svg>
