<svg id="Content" xmlns="http://www.w3.org/2000/svg" xmlns:xlink="http://www.w3.org/1999/xlink" width="320" height="568" viewBox="0 0 320 568"><defs><style>.cls-1{fill:#ba9544;}.cls-2{fill:#fff;stroke:#ba9544;stroke-miterlimit:10;stroke-width:0.5px;}.cls-3{clip-path:url(#clip-path);}</style><clipPath id="clip-path"><polygon class="cls-1" points="58.548 353.773 67.941 367.079 68.126 367.095 68.126 340.231 67.941 340.225 58.548 353.773"/></clipPath></defs><title>CBD - MK Ultra</title><polygon class="cls-2" points="253.818 340.9 67.737 340.195 58.343 353.741 67.737 367.047 253.818 366.73 262.273 353.816 253.818 340.9"/><polygon class="cls-1" points="58.548 353.773 67.941 367.079 68.126 367.095 68.126 340.231 67.941 340.225 58.548 353.773"/><g class="cls-3"><rect class="cls-1" x="56.47033" y="338.14844" width="13.72831" height="31.0228"/></g><path class="cls-1" d="M167.6665,358.21a4.55728,4.55728,0,0,1,3.24024-7.80176,4.93019,4.93019,0,0,1,3.34668,1.21485l-1.21485,1.33007a3.36108,3.36108,0,0,0-2.13183-.72851,2.67675,2.67675,0,0,0-1.97705.76562,2.64739,2.64739,0,0,0-.75,1.94336,2.73173,2.73173,0,0,0,.75927,2.01661,2.689,2.689,0,0,0,1.98.74707,3.26673,3.26673,0,0,0,2.11962-.72266l1.21485,1.33008a4.91619,4.91619,0,0,1-3.34668,1.21484A4.43006,4.43006,0,0,1,167.6665,358.21Z"/><path class="cls-1" d="M182.68408,354.71484a2.58731,2.58731,0,0,1-1.48242,4.81055l-5.126-.00586V350.415h4.83448q2.302.13331,2.42968,2.67773A1.90514,1.90514,0,0,1,182.68408,354.71484Zm-4.78027-.64941h2.55078a1.02873,1.02873,0,0,0,1.12988-1.13574q-.03-.668-1.11133-.70508h-2.56933Zm0,4.03223h2.97607a1.189,1.189,0,0,0,1.312-1.31739q-.03075-.8745-1.29345-.91113h-2.99463Z"/><path class="cls-1" d="M185.76953,359.51953v-9.11719h3.51074q4.25172,0,4.25147,4.56153,0,4.55567-4.25147,4.55566Zm3.51074-1.81641q2.42359-.00585,2.4292-2.73925-.00585-2.73341-2.4292-2.7334H187.5918v5.47265Z"/><path class="cls-1" d="M195.56641,353.71a.879.879,0,0,1,.65576-.24609.91214.91214,0,0,1,.68017.24609.83348.83348,0,0,1,.24317.61035.82367.82367,0,0,1-.24317.60742,1.039,1.039,0,0,1-1.33593,0,.82367.82367,0,0,1-.24317-.60742A.83348.83348,0,0,1,195.56641,353.71Zm0,4.34863a.879.879,0,0,1,.65576-.24609.91214.91214,0,0,1,.68017.24609.8335.8335,0,0,1,.24317.61036.82369.82369,0,0,1-.24317.60742,1.039,1.039,0,0,1-1.33593,0,.82369.82369,0,0,1-.24317-.60742A.8335.8335,0,0,1,195.56641,358.05859Z"/><path class="cls-1" d="M208.6001,353.02051l-3.52246,1.94336,3.52246,1.94336v1.39746l-5.75781-3.165v-.39453l5.75781-3.12207Z"/><path class="cls-1" d="M216.48975,350.4082v-.00586h1.8164v9.11719h-1.8164v-6.68164l-1.21485,1.21484-1.21435-1.21484Z"/></svg>