<svg id="Content" xmlns="http://www.w3.org/2000/svg" xmlns:xlink="http://www.w3.org/1999/xlink" width="320" height="568" viewBox="0 0 320 568"><defs><style>.cls-1{fill:url(#New_Gradient_Swatch_1);}.cls-2{fill:#fff;}.cls-3{fill:#b89344;}</style><linearGradient id="New_Gradient_Swatch_1" x1="140.69957" y1="395.07834" x2="181.02187" y2="395.07834" gradientUnits="userSpaceOnUse"><stop offset="0" stop-color="#a68834"/><stop offset="0.49324" stop-color="#c8ad67"/><stop offset="1" stop-color="#937f2e"/></linearGradient></defs><title>diesel</title><polygon class="cls-1" points="175.585 381.505 158.774 375.052 143.249 384.172 140.7 401.997 153.046 415.105 170.991 413.625 181.022 398.67 175.585 381.505"/><path class="cls-2" d="M155.47786,390.27029a1.7207,1.7207,0,0,1,.32412-.133,3.11679,3.11679,0,0,1,.36159-.09181l.02061-.00749,3.53724-.77752a1.14485,1.14485,0,0,1,.755.11616l.59579.58267-1.23842,1.2965-3.94755.86744c-.15738-.71194-.32037-1.45387-.40842-1.85293m12.27543,9.86792-1.94286-8.83748a1.32468,1.32468,0,0,0-1.47261-1.02482l1.04169-1.09415.28665.27166.43279-.459a.28113.28113,0,0,0-.01125-.3972l-2.09461-1.97845a.28113.28113,0,0,0-.39718.01124l-.4328.459.34473.326-1.39016,1.45761-.68947-.6726-.0487-.03747a2.63433,2.63433,0,0,0-1.98034-.37284l-3.49977.77a5.11932,5.11932,0,0,0-.61827.15925,2.10642,2.10642,0,0,0-1.13161.755,1.22212,1.22212,0,0,0-.1836.95364c.10866.48712.48711,2.21265.71568,3.24871.00375.02249.00749.045.01312.06745l1.94285,8.83935a1.31665,1.31665,0,0,0,1.57378,1.00047l8.52647-1.87541a1.32353,1.32353,0,0,0,1.01547-1.57"/><path class="cls-3" d="M142.53613,436.32227v-7.415h2.85547q3.4585,0,3.458,3.71,0,3.70458-3.458,3.70508Zm2.85547-1.47754q1.97167-.0044,1.97559-2.22754-.00439-2.22217-1.97559-2.22266h-1.37305v4.4502Z"/><path class="cls-3" d="M150.44043,428.90723H151.918v7.415h-1.47754Z"/><path class="cls-3" d="M153.38477,436.32227V428.917l5.44335-.00488v1.38379h-3.96093V431.876h2.96875v1.3789h-2.96875v1.68457h3.95117v1.38282Z"/><path class="cls-3" d="M164.332,429.15918a3.45461,3.45461,0,0,1,1.06152.74121l-.9873.98828a1.70253,1.70253,0,0,0-1.38379-.59277q-.88915,0-1.13574.41992a.57634.57634,0,0,0,0,.71582,1.95023,1.95023,0,0,0,1.13574.44434,3.68127,3.68127,0,0,1,1.7041.61816,1.85448,1.85448,0,0,1,.7666,1.6543,1.90049,1.90049,0,0,1-.81836,1.53125,2.9904,2.9904,0,0,1-1.90429.64258,4.37317,4.37317,0,0,1-1.72363-.29688,3.73376,3.73376,0,0,1-1.18555-.79l.9873-.98828a2.35173,2.35173,0,0,0,1.67969.69238q.98877,0,1.23242-.41992a.782.782,0,0,0,0-.83984q-.24316-.42042-1.23242-.51856a3.98556,3.98556,0,0,1-1.62988-.54394,1.63853,1.63853,0,0,1-.74121-1.53125A1.844,1.844,0,0,1,161,429.50781a2.963,2.963,0,0,1,1.73145-.5957A4.14589,4.14589,0,0,1,164.332,429.15918Z"/><path class="cls-3" d="M166.79688,436.32227V428.917l5.44335-.00488v1.38379H168.2793V431.876h2.96875v1.3789H168.2793v1.68457h3.95117v1.38282Z"/><path class="cls-3" d="M175.22949,428.91211v6.02734h3.95215v1.38282h-5.43457v-7.41016Z"/></svg>