<svg id="Content" xmlns="http://www.w3.org/2000/svg" width="320" height="568" viewBox="0 0 320 568"><defs><style>.cls-1{fill:#b89344;}</style></defs><title>Frame2 - MK Ultra</title><path class="cls-1" d="M109.09766,325.59082l2.34765-15.55371h4.78809v21.90723h-3.25488V316.2334l-2.37891,15.71094h-3.25488l-2.56543-15.49122v15.49122h-3.00489V310.03711h4.78809Z"/><path class="cls-1" d="M126.55664,323.21289l-1.06445,2.00293v6.72852H122.0498V310.03711h3.44239V319.582l4.50683-9.54492h3.44239l-4.78809,9.76465,4.78809,12.14258h-3.53614Z"/><path class="cls-1" d="M149.77246,310.03711v16.89941c0,1.56543.68848,2.12793,1.78418,2.12793,1.09473,0,1.7832-.5625,1.7832-2.12793V310.03711h3.25489v16.68066c0,3.50489-1.752,5.50782-5.13184,5.50782s-5.13281-2.00293-5.13281-5.50782V310.03711Z"/><path class="cls-1" d="M162.25586,310.03711h3.44238v18.77734h5.665v3.12989h-9.10742Z"/><path class="cls-1" d="M175.17871,310.03711h10.64063V313.167h-3.59961v18.77735h-3.44239V313.167h-3.59863Z"/><path class="cls-1" d="M197.833,331.94434a6.74136,6.74136,0,0,1-.31348-2.69141v-3.44238c0-2.03418-.68848-2.78614-2.25293-2.78614h-1.18945v8.91993h-3.44238V310.03711h5.19531c3.56738,0,5.10156,1.6582,5.10156,5.03809v1.72168c0,2.25292-.7207,3.7246-2.25391,4.44433,1.72168.71973,2.28516,2.37793,2.28516,4.66309v3.37988a6.46126,6.46126,0,0,0,.375,2.66016ZM194.07715,313.167v6.72852h1.3457c1.2832,0,2.06543-.56348,2.06543-2.31641v-2.15918c0-1.56445-.53125-2.25293-1.75195-2.25293Z"/><path class="cls-1" d="M217.6709,331.94434h-3.47363l-.59473-3.97461h-4.22461l-.59473,3.97461h-3.16113l3.50586-21.90723H214.166Zm-7.85449-6.94825h3.31738L211.47461,313.918Z"/></svg>