<svg id="Content" xmlns="http://www.w3.org/2000/svg" width="320" height="568" viewBox="0 0 320 568"><defs><style>.cls-1{fill:#b89344;}</style></defs><title>Frame2 - Durga Mata</title><path class="cls-1" d="M73.11328,310.03711h5.44531c3.44239,0,5.13282,1.90918,5.13282,5.41406v11.0791c0,3.50489-1.69043,5.41407-5.13282,5.41407H73.11328Zm3.44238,3.12988v15.64746h1.94043c1.09571,0,1.75293-.56347,1.75293-2.12793v-11.3916c0-1.56543-.65722-2.12793-1.75293-2.12793Z"/><path class="cls-1" d="M92.48242,310.03711v16.89941c0,1.56543.68848,2.12793,1.7832,2.12793,1.09571,0,1.78418-.5625,1.78418-2.12793V310.03711h3.25489v16.68066c0,3.50489-1.75293,5.50782-5.13281,5.50782s-5.13282-2.00293-5.13282-5.50782V310.03711Z"/><path class="cls-1" d="M112.16309,331.94434a6.7492,6.7492,0,0,1-.3125-2.69141v-3.44238c0-2.03418-.68848-2.78614-2.25293-2.78614H108.4082v8.91993h-3.44238V310.03711h5.19434c3.56836,0,5.10156,1.6582,5.10156,5.03809v1.72168c0,2.25292-.71973,3.7246-2.25293,4.44433,1.7207.71973,2.28418,2.37793,2.28418,4.66309v3.37988a6.44446,6.44446,0,0,0,.376,2.66016ZM108.4082,313.167v6.72852h1.34571c1.2832,0,2.06543-.56348,2.06543-2.31641v-2.15918c0-1.56445-.53223-2.25293-1.75293-2.25293Z"/><path class="cls-1" d="M126.02441,319.73828h4.81934v6.94824c0,3.50489-1.75293,5.50782-5.13281,5.50782s-5.13184-2.00293-5.13184-5.50782v-11.3916c0-3.50488,1.752-5.50781,5.13184-5.50781s5.13281,2.00293,5.13281,5.50781v2.12793h-3.25488V315.0752c0-1.56446-.68848-2.15918-1.78321-2.15918-1.0957,0-1.78418.59472-1.78418,2.15918v11.83007c0,1.56543.68848,2.12793,1.78418,2.12793,1.09473,0,1.78321-.5625,1.78321-2.12793v-4.03711h-1.56446Z"/><path class="cls-1" d="M147.52148,331.94434h-3.47363l-.59473-3.97461h-4.22558l-.59375,3.97461h-3.16113l3.50488-21.90723h5.03906Zm-7.85546-6.94825h3.31738L141.3252,313.918Z"/><path class="cls-1" d="M167.88965,325.59082l2.34765-15.55371h4.78809v21.90723h-3.25488V316.2334l-2.37891,15.71094h-3.25488l-2.56543-15.49122v15.49122h-3.00488V310.03711h4.78808Z"/><path class="cls-1" d="M191.9834,331.94434h-3.47363l-.59473-3.97461h-4.22559l-.59375,3.97461h-3.16113l3.50488-21.90723h5.03907Zm-7.85547-6.94825h3.31738l-1.6582-11.07812Z"/><path class="cls-1" d="M195.89258,310.03711H206.5332V313.167h-3.59961v18.77735h-3.44238V313.167h-3.59863Z"/><path class="cls-1" d="M222.49023,331.94434H219.0166l-.59472-3.97461h-4.22559l-.59375,3.97461h-3.16113l3.50488-21.90723h5.03906Zm-7.85546-6.94825h3.31738L216.294,313.918Z"/><path class="cls-1" d="M240.60547,312.916c-1.0957,0-1.78418.59472-1.78418,2.15918v2.34765h-3.25488v-2.12793c0-3.50488,1.75293-5.50781,5.13281-5.50781s5.13281,2.00293,5.13281,5.50781c0,6.88477-6.85449,9.45117-6.85449,13.04981a2.37007,2.37007,0,0,0,.03125.46972h6.50976v3.12989h-9.95214v-2.69141c0-6.44727,6.82226-7.51172,6.82226-13.833C242.38867,313.44824,241.7002,312.916,240.60547,312.916Z"/></svg>