<svg id="Content" xmlns="http://www.w3.org/2000/svg" viewBox="0 0 728 360"><defs><style>.cls-1{fill:#b89344;}</style></defs><title>Frame2 - Ultra Sour</title><path class="cls-1" d="M135.72,255.19v18.36c0,1.7.75,2.31,1.94,2.31s1.94-.61,1.94-2.31V255.19h3.53v18.12c0,3.81-1.9,6-5.57,6s-5.58-2.17-5.58-6V255.19Z"/><path class="cls-1" d="M149.29,255.19H153v20.4h6.15V279h-9.89Z"/><path class="cls-1" d="M163.33,255.19h11.56v3.4H171V279h-3.74v-20.4h-3.91Z"/><path class="cls-1" d="M187.94,279a7.42,7.42,0,0,1-.34-2.93v-3.74c0-2.21-.74-3-2.44-3h-1.3V279h-3.74v-23.8h5.65c3.87,0,5.54,1.8,5.54,5.47v1.87c0,2.45-.78,4.05-2.45,4.83,1.87.78,2.48,2.58,2.48,5.07v3.67a7.11,7.11,0,0,0,.41,2.89Zm-4.08-20.4v7.31h1.47c1.39,0,2.24-.61,2.24-2.52V261c0-1.7-.58-2.45-1.9-2.45Z"/><path class="cls-1" d="M209.5,279h-3.77l-.65-4.32h-4.59l-.65,4.32h-3.43l3.81-23.8h5.47ZM201,271.44h3.6l-1.8-12Z"/><path class="cls-1" d="M228.74,254.92c3.64,0,5.51,2.17,5.51,6v.75h-3.53v-1c0-1.7-.68-2.34-1.87-2.34S227,259,227,260.66c0,4.9,7.31,5.82,7.31,12.62,0,3.8-1.91,6-5.58,6s-5.58-2.18-5.58-6v-1.47h3.54v1.7c0,1.7.75,2.32,1.94,2.32s1.94-.62,1.94-2.32c0-4.89-7.31-5.81-7.31-12.61C223.24,257.09,225.11,254.92,228.74,254.92Z"/><path class="cls-1" d="M239.73,260.9c0-3.81,2-6,5.67-6s5.68,2.17,5.68,6v12.38c0,3.8-2,6-5.68,6s-5.67-2.18-5.67-6Zm3.74,12.61c0,1.7.74,2.35,1.93,2.35s1.94-.65,1.94-2.35V260.66c0-1.7-.75-2.34-1.94-2.34s-1.93.64-1.93,2.34Z"/><path class="cls-1" d="M260.67,255.19v18.36c0,1.7.75,2.31,1.94,2.31s1.94-.61,1.94-2.31V255.19h3.53v18.12c0,3.81-1.9,6-5.57,6s-5.58-2.17-5.58-6V255.19Z"/><path class="cls-1" d="M282.06,279a7.23,7.23,0,0,1-.34-2.93v-3.74c0-2.21-.75-3-2.45-3H278V279h-3.74v-23.8h5.64c3.88,0,5.54,1.8,5.54,5.47v1.87c0,2.45-.78,4.05-2.45,4.83,1.87.78,2.48,2.58,2.48,5.07v3.67a7.11,7.11,0,0,0,.41,2.89ZM278,258.59v7.31h1.46c1.39,0,2.24-.61,2.24-2.52V261c0-1.7-.58-2.45-1.9-2.45Z"/></svg>