<svg id="Content" xmlns="http://www.w3.org/2000/svg" xmlns:xlink="http://www.w3.org/1999/xlink" viewBox="0 0 728 360"><defs><style>.cls-1{fill:none;}.cls-2{fill:url(#New_Gradient_Swatch_1);}.cls-3{fill:#fff;}.cls-4{fill:#ba9544;}.cls-5{clip-path:url(#clip-path);}</style><linearGradient id="New_Gradient_Swatch_1" x1="385" y1="188.08" x2="442.89" y2="188.08" gradientUnits="userSpaceOnUse"><stop offset="0" stop-color="#a88a34"/><stop offset="0.49" stop-color="#caaf67"/><stop offset="1" stop-color="#957f2e"/></linearGradient><clipPath id="clip-path"><rect class="cls-1" x="381.76" y="-134.34" width="208.13" height="92"/></clipPath></defs><title>lemon</title><polygon class="cls-2" points="393.9 209.93 385 181.66 405.04 159.8 433.99 166.23 442.89 194.51 422.85 216.36 393.9 209.93"/><path class="cls-3" d="M426,184.86c-1.58-3.86-6.15-6.51-12.05-6.46s-10.43,2.67-12,6.46c-1.42.62-3.06,2-3.06,3.22s1.63,2.61,3.09,3.23c1.56,3.73,6.15,6.46,12,6.46S424.36,195,426,191.31c1.53-.66,3-2,3-3.23s-1.49-2.57-3-3.22"/><path class="cls-4" d="M388.53,234.67v8.86h5.81v2h-8v-10.9Z"/><path class="cls-4" d="M396.11,245.57V234.68h8v2h-5.82V239h4.36v2h-4.36v2.48h5.81v2Z"/><path class="cls-4" d="M406.31,245.57v-10.9H407l4.72,5.38,4.73-5.38h.72v10.9H415v-6.32l-3.27,3.63-3.27-3.63v6.32Z"/><path class="cls-4" d="M420.39,244a5.62,5.62,0,1,1,3.89,1.57A5.28,5.28,0,0,1,420.39,244Zm3.9-.47a3,3,0,0,0,2.35-1,3.41,3.41,0,0,0,.91-2.43,3.45,3.45,0,0,0-.91-2.44,3.33,3.33,0,0,0-4.72,0,3.45,3.45,0,0,0-.91,2.44,3.41,3.41,0,0,0,.91,2.43A3.07,3.07,0,0,0,424.29,243.53Z"/><path class="cls-4" d="M431.35,245.57v-10.9h.73l6.83,6.83v-6.83h2.17v10.9h-.79l-6.76-6.76v6.76Z"/><g class="cls-5"><image id="SmallTopDown-8351-UltraSour.psd" width="1500" height="1261" transform="translate(363.32 -154.62) scale(0.13)" xlink:href="../../../../../../Dropbox%20(Revolution%20Strategy)/Rocio%20Ugarte/Clients/Namaste/Digital%20Ads/_Flight%202:Phase%202%20Terpene/1.%20Animated%20w:%20Packaging/8.%20Expandable%20Unit%20728%20x%2090:728%20x%20360/728%20x%2090_728%20x%20360V2_Folder/Links/SmallTopDown-8351-UltraSour.png"/></g></svg>