<svg id="Content" xmlns="http://www.w3.org/2000/svg" width="320" height="568" viewBox="0 0 320 568"><defs><style>.cls-1{fill:#fff;stroke:#ba9544;stroke-miterlimit:10;stroke-width:0.5px;}.cls-2{fill:#ba9544;}</style></defs><title>THC - Durga Mata</title><polygon class="cls-1" points="254.239 298.696 68.158 297.991 58.764 311.537 68.158 324.842 254.239 324.526 262.694 311.612 254.239 298.696"/><polygon class="cls-2" points="68.294 297.991 58.9 311.537 68.294 324.842 86.911 324.842 86.706 297.991 68.294 297.991"/><path class="cls-2" d="M174.66211,307.09766v1.70117h-3.03662V316.209h-1.82227v-7.41015H166.7666v-1.70117Z"/><path class="cls-2" d="M176.0166,316.209v-9.11132h1.82227v3.64453h4.2456V307.0918h1.82178v9.11132l-1.82178.00586v-3.76562h-4.2456V316.209Z"/><path class="cls-2" d="M186.73389,314.89941a4.55728,4.55728,0,0,1,3.24023-7.80175,4.93016,4.93016,0,0,1,3.34668,1.21484l-1.21484,1.33008a3.36112,3.36112,0,0,0-2.13184-.72852,2.67672,2.67672,0,0,0-1.977.76563,2.64739,2.64739,0,0,0-.75,1.94336,2.73171,2.73171,0,0,0,.75928,2.0166,2.68891,2.68891,0,0,0,1.98.74707,3.26672,3.26672,0,0,0,2.11963-.72266l1.21484,1.33008a4.91619,4.91619,0,0,1-3.34668,1.21484A4.43,4.43,0,0,1,186.73389,314.89941Z"/><path class="cls-2" d="M195.36182,310.39941a.879.879,0,0,1,.65576-.24609.91214.91214,0,0,1,.68017.24609.8335.8335,0,0,1,.24317.61036.82369.82369,0,0,1-.24317.60742,1.039,1.039,0,0,1-1.33593,0,.82369.82369,0,0,1-.24317-.60742A.8335.8335,0,0,1,195.36182,310.39941Zm0,4.34864a.87892.87892,0,0,1,.65576-.2461.91211.91211,0,0,1,.68017.2461.83346.83346,0,0,1,.24317.61035.82369.82369,0,0,1-.24317.60742,1.039,1.039,0,0,1-1.33593,0,.82369.82369,0,0,1-.24317-.60742A.83346.83346,0,0,1,195.36182,314.74805Z"/><path class="cls-2" d="M206.96826,307.10449v-.01269h1.81592v5.29687h1.22705v1.81543h-1.22705V316.209h-1.81592V314.2041H202.832v-1.81543h.061l-.05469-.06152Zm0,5.28418v-2.90332l-2.2168,2.90332Z"/><path class="cls-2" d="M211.40186,313.77344v-1.209h3.76562v1.209Z"/><path class="cls-2" d="M221.88525,311.59277c.10938.04.2085.08106.29737.1211a1.78636,1.78636,0,0,1,.9414,1.82226,2.33877,2.33877,0,0,1-.88379,2.03516,4.37482,4.37482,0,0,1-4.54882,0,2.33877,2.33877,0,0,1-.88379-2.03516,1.78636,1.78636,0,0,1,.9414-1.82226c.08887-.04.188-.08106.29737-.1211-.06446-.03222-.12354-.0625-.17578-.09082a1.80173,1.80173,0,0,1-.82032-1.73144,2.49012,2.49012,0,0,1,.793-1.97363,3.57122,3.57122,0,0,1,4.24512,0,2.49012,2.49012,0,0,1,.793,1.97363,1.80238,1.80238,0,0,1-.81983,1.73144C222.00879,311.53027,221.94971,311.56055,221.88525,311.59277Zm-1.91943-.82617c.53467-.01562.87842-.15625,1.03272-.41894a.97014.97014,0,0,0,0-1.03223,1.16756,1.16756,0,0,0-1.03272-.51074,1.15055,1.15055,0,0,0-1.02637.51074.95238.95238,0,0,0,0,1.03223C219.08936,310.61035,219.43115,310.751,219.96582,310.7666Zm0,1.66992a1.35835,1.35835,0,0,0-1.02637.52246.954.954,0,0,0,0,1.03321,1.1521,1.1521,0,0,0,1.02637.50976,1.16916,1.16916,0,0,0,1.03272-.50976.97184.97184,0,0,0,0-1.03321A1.38221,1.38221,0,0,0,219.96582,312.43652Z"/><path class="cls-2" d="M225.24365,310.94238a2.34729,2.34729,0,1,1,1.62793.65625A2.20876,2.20876,0,0,1,225.24365,310.94238Zm1.60987-.4248a1.08606,1.08606,0,0,0,.832-.3457,1.31371,1.31371,0,0,0,0-1.72266,1.09789,1.09789,0,0,0-.83838-.34277,1.08186,1.08186,0,0,0-.82569.34277,1.3122,1.3122,0,0,0,0,1.72266A1.08461,1.08461,0,0,0,226.85352,310.51758Zm-.48584,5.6914,5.16259-9.11132h1.48194l-5.15039,9.11132Zm4.5249-.60156a2.33151,2.33151,0,1,1,1.61523.65039A2.19206,2.19206,0,0,1,230.89258,315.60742Zm1.585-.44336a1.06546,1.06546,0,0,0,.814-.33691,1.27038,1.27038,0,0,0,0-1.67676,1.0724,1.0724,0,0,0-.81982-.33691,1.05858,1.05858,0,0,0-.80811.33691,1.27186,1.27186,0,0,0,0,1.67676A1.06548,1.06548,0,0,0,232.47754,315.16406Z"/></svg>