<svg id="Layer_1" data-name="Layer 1" xmlns="http://www.w3.org/2000/svg" width="320" height="50" viewBox="0 0 320 50"><defs><style>.cls-1{fill:#ab9555;}</style></defs><title>frame2_1</title><path class="cls-1" d="M128.41134,27.93759a2.75853,2.75853,0,0,1-.53125,1.75,1.91785,1.91785,0,0,1-1.01563.69532,2.75832,2.75832,0,0,1-.82031.10937,2.32319,2.32319,0,0,1-1.4375-.42969,2.39712,2.39712,0,0,1-.7539-.957,3.84765,3.84765,0,0,1-.32422-1.38672l1.40625-.10156a2.13042,2.13042,0,0,0,.45312,1.24024.75265.75265,0,0,0,.60938.27539.91983.91983,0,0,0,.77343-.47657,1.1901,1.1901,0,0,0,.14844-.64941,1.80533,1.80533,0,0,0-.55469-1.21191q-.438-.41455-1.3125-1.24317a5.60021,5.60021,0,0,1-1.03906-1.27441,2.95239,2.95239,0,0,1-.32812-1.377,2.39336,2.39336,0,0,1,.89843-2.02539,2.2369,2.2369,0,0,1,1.375-.41406,2.50074,2.50074,0,0,1,1.35157.35156,2.03853,2.03853,0,0,1,.707.76563A2.8455,2.8455,0,0,1,128.341,22.711l-1.41407.25781a1.705,1.705,0,0,0-.34375-.9375.72358.72358,0,0,0-.58593-.24218.67476.67476,0,0,0-.61719.35937,1.37925,1.37925,0,0,0-.17188.71875,2.15517,2.15517,0,0,0,.57813,1.36719,4.84544,4.84544,0,0,0,.65625.625q.51563.4292.67969.60156a5.015,5.015,0,0,1,.84375,1.07813,4.21866,4.21866,0,0,1,.22656.46093A2.69581,2.69581,0,0,1,128.41134,27.93759Z"/><path class="cls-1" d="M132.84591,20.586a2.25058,2.25058,0,0,1,1.71875.67969,2.35939,2.35939,0,0,1,.59375,1.65625v1.42187a2.27861,2.27861,0,0,1-.67578,1.65625,2.21243,2.21243,0,0,1-1.63672.6875h-.85156v3.6875h-1.47657V20.586Zm.88281,2.35938a.84412.84412,0,0,0-.23047-.61719.82277.82277,0,0,0-.61328-.23438h-.89062v3.13282h.89062a.80608.80608,0,0,0,.59766-.25.82722.82722,0,0,0,.24609-.60157Z"/><path class="cls-1" d="M138.69454,30.37509H137.218V20.586h1.47656Z"/><path class="cls-1" d="M143.22286,20.586a2.25132,2.25132,0,0,1,1.8125.67969,2.46817,2.46817,0,0,1,.50781,1.65625v1.42187a2.28731,2.28731,0,0,1-.78906,1.75782l1.09375,4.27343h-1.59668l-.89551-3.6875h-.98437v3.6875h-1.47656V20.586Zm.88281,2.35938a.74938.74938,0,0,0-.84375-.85157h-.89062v3.13282h.89062a.80608.80608,0,0,0,.59766-.25.82722.82722,0,0,0,.24609-.60157Z"/><path class="cls-1" d="M149.46993,30.37509h-1.47656V20.586h1.47656Z"/><path class="cls-1" d="M153.10763,22.07041h-1.57031V20.586h4.60937v1.48438h-1.5625v8.30468h-1.47656Z"/><path class="cls-1" d="M160.5422,30.48447a2.32071,2.32071,0,0,1-2.33594-2.32813V20.586h1.44531v7.55469a.80611.80611,0,0,0,.25.59766.82563.82563,0,0,0,.60157.24609.84025.84025,0,0,0,.84375-.84375V20.586H162.886v7.57031a2.22628,2.22628,0,0,1-.6875,1.65625A2.28441,2.28441,0,0,1,160.5422,30.48447Z"/><path class="cls-1" d="M166.67794,28.12509l-.3584,2.25h-1.53808l1.66406-9.78906h2.03125l1.64062,9.78906h-1.55273l-.34473-2.25Zm.77539-5.29687-.54687,3.85937h1.09375Z"/><path class="cls-1" d="M176.2629,30.37509h-4.02344V20.586H173.716v8.32031h2.54687Z"/><path class="cls-1" d="M179.635,30.37509h-1.47656V20.586H179.635Z"/><path class="cls-1" d="M183.27267,22.07041h-1.57032V20.586h4.60938v1.48438h-1.5625v8.30468h-1.47656Z"/><path class="cls-1" d="M190.18478,26.27353l-1.97657-5.69531h1.625l1.09375,3.51562,1.08594-3.51562h1.63281l-1.98437,5.69531v4.10156h-1.47656Z"/><path class="cls-1" d="M195.54122,28.90634h1.47656v1.47657h-1.47656Z"/></svg>