<?xml version="1.0" encoding="utf-8"?>
<!-- Generator: Adobe Illustrator 23.0.1, SVG Export Plug-In . SVG Version: 6.00 Build 0)  -->
<svg version="1.1" id="Content" xmlns="http://www.w3.org/2000/svg" xmlns:xlink="http://www.w3.org/1999/xlink" x="0px" y="0px"
	 viewBox="0 0 640 1136" style="enable-background:new 0 0 640 1136;" xml:space="preserve">
<style type="text/css">
	.st0{fill:url(#SVGID_1_);}
	.st1{fill:#FFFFFF;}
	.st2{fill:#B89344;}
</style>
<title>earthy</title>
<linearGradient id="SVGID_1_" gradientUnits="userSpaceOnUse" x1="417.87" y1="361.09" x2="504.97" y2="361.09" gradientTransform="matrix(1 0 0 -1 0 1136)">
	<stop  offset="0" style="stop-color:#A68834"/>
	<stop  offset="0.49" style="stop-color:#C8AD67"/>
	<stop  offset="1" style="stop-color:#937F2E"/>
</linearGradient>
<polygon class="st0" points="496.3,744.7 452.7,729.6 417.9,759.8 426.6,805.1 470.1,820.2 505,790 "/>
<path class="st1" d="M472.4,785.5c-0.6-1-2.4-3.9-5.1-4.7c-1.3-0.4-2.6-0.3-3.8,0.4c-0.6-0.2-1.3-0.4-2-0.5c0.3-2.3,2-5.3,4.2-8.3
	h1.5c4.7,0,8.9-0.6,9.2-9.2c0.4-1.4,1-2.8,1.8-4l0.6-1.1h-1.2c-7.5,0-13.6,6.1-13.6,13.6v0.6c-0.5,0.7-1,1.5-1.4,2.2
	c-0.5-9.2-8.1-16.4-17.3-16.4H444l0.7,1.1c0.9,1.5,2.3,4.2,2.3,5.3c0.3,10.9,5.6,11.7,11.7,11.7h1.6h1.4c-0.8,1.4-1.3,2.9-1.6,4.4
	c-2.5-0.2-4.8,1.1-6,3.3c-1.3-0.4-4.2-1.1-6.5,0.3c-1.9,1.2-2.9,3.5-3,6.8v0.7h33.5l0.1-0.5c0.2-1.1,0-2.3-0.7-3.2
	C476.6,786.7,474.9,785.8,472.4,785.5"/>
<path class="st2" d="M412.4,867.5v-16.6h12.2v3.1h-8.9v3.5h6.7v3.1h-6.7v3.8h8.9v3.1L412.4,867.5z"/>
<path class="st2" d="M427.1,867.5l6.7-16.6h3.3l6.6,16.6h-3.5l-1-2.5h-7.5l-1,2.5L427.1,867.5z M435.5,855.3l-2.5,6.3h5L435.5,855.3
	z"/>
<path class="st2" d="M456.2,860.3l4.1,7.2h-3.8l-4-6.9h-3v6.9h-3.3v-16.6h7.3c3.9,0,5.8,1.6,5.8,4.8
	C459.3,858.1,458.2,859.6,456.2,860.3z M449.5,857.5h4.7c1.3,0,2-0.6,2.1-1.8s-0.7-1.7-2-1.7h-4.7L449.5,857.5z"/>
<path class="st2" d="M475.6,850.9v3.1h-5.5v13.5h-3.3V854h-5.5v-3.1L475.6,850.9z"/>
<path class="st2" d="M478.1,867.5v-16.6h3.3v6.7h7.8v-6.7h3.3v16.6h-3.3v-6.9h-7.8v6.9L478.1,867.5z"/>
<path class="st2" d="M495.1,850.9h3.9l3.9,5.4l4-5.4h3.8l-6.1,8.3v8.3h-3.3v-8.3L495.1,850.9z"/>
</svg>
