<svg id="Content" xmlns="http://www.w3.org/2000/svg" width="640" height="100" viewBox="0 0 640 100"><defs><style>.cls-1{fill:#ba9544;}</style></defs><title>Frame1 - Daytime CBD</title><path class="cls-1" d="M208.47949,39.38623h5.56787c3.51953,0,5.24756,1.95215,5.24756,5.53613V56.249c0,3.583-1.728,5.53516-5.24756,5.53516h-5.56787Zm3.52,3.2002V58.584h1.98389c1.11963,0,1.7915-.57519,1.7915-2.17578v-11.646c0-1.60059-.67187-2.17578-1.7915-2.17578Z"/><path class="cls-1" d="M235.67822,61.78418h-3.55176l-.60791-4.06348h-4.31933l-.60791,4.06348h-3.23193l3.58349-22.398h5.15186ZM227.647,54.68066h3.3916L229.34277,43.354Z"/><path class="cls-1" d="M240.79883,54.36035l-4.44776-14.97412h3.67969l2.688,10.207,2.6875-10.207h3.35986l-4.44775,14.97412v7.42383h-3.51953Z"/><path class="cls-1" d="M250.62305,39.38623h10.87939v3.2002h-3.67969V61.78418h-3.52V42.58643h-3.67968Z"/><path class="cls-1" d="M265.79053,39.38623h3.52v22.398h-3.52Z"/><path class="cls-1" d="M282.71777,55.28906l2.39991-15.90283h4.8955v22.398h-3.32763v-16.062l-2.43164,16.062h-3.32813L278.30225,45.9458V61.78418h-3.07178v-22.398H280.126Z"/><path class="cls-1" d="M299.48584,48.82568h4.83154v3.19873h-4.83154V58.584h6.07959v3.2002h-9.59961v-22.398h9.59961v3.2002h-6.07959Z"/><path class="cls-1" d="M329.69238,53.43262V56.4082c0,3.584-1.792,5.63184-5.24707,5.63184-3.45605,0-5.248-2.04785-5.248-5.63184v-11.646c0-3.584,1.792-5.63184,5.248-5.63184,3.45508,0,5.24707,2.04785,5.24707,5.63184V46.938h-3.32812V44.5376c0-1.59961-.70313-2.207-1.82324-2.207s-1.82422.60742-1.82422,2.207V56.63281c0,1.59961.7041,2.17578,1.82422,2.17578s1.82324-.57617,1.82324-2.17578V53.43262Z"/><path class="cls-1" d="M345.75586,44.5376v.7998c0,2.30469-.7041,3.77637-2.27148,4.51172,1.88769.73633,2.624,2.43213,2.624,4.79932v1.82422c0,3.45605-1.82422,5.31152-5.34375,5.31152h-5.53613v-22.398H340.54C344.18848,39.38623,345.75586,41.08252,345.75586,44.5376ZM338.749,42.58643v5.91894h1.376c1.31152,0,2.11133-.57617,2.11133-2.36719v-1.248c0-1.60059-.54395-2.30371-1.792-2.30371Zm0,9.11865V58.584h2.01563c1.18359,0,1.82324-.54394,1.82324-2.207V54.4248c0-2.08007-.67187-2.71972-2.27148-2.71972Z"/><path class="cls-1" d="M351.6123,39.38623h5.56739c3.51953,0,5.24707,1.95215,5.24707,5.53613V56.249c0,3.583-1.72754,5.53516-5.24707,5.53516H351.6123Zm3.51954,3.2002V58.584h1.98339c1.12012,0,1.792-.57519,1.792-2.17578v-11.646c0-1.60059-.67188-2.17578-1.792-2.17578Z"/></svg>