<svg id="Content" xmlns="http://www.w3.org/2000/svg" xmlns:xlink="http://www.w3.org/1999/xlink" viewBox="0 0 640 1136"><defs><style>.cls-1{fill:#b89344;}.cls-2{fill:none;stroke:#ba9544;stroke-miterlimit:10;stroke-width:0.53px;}</style></defs><title>Frame2 - Ultra Sour</title><path class="cls-1" d="M168.76,617.66v38c0,3.52,1.55,4.79,4,4.79s4-1.27,4-4.79v-38h7.32v37.53c0,7.88-3.94,12.39-11.54,12.39S161,663.07,161,655.19V617.66Z"/><path class="cls-1" d="M196.85,617.66h7.75v42.25h12.74v7H196.85Z"/><path class="cls-1" d="M225.93,617.66h23.94v7h-8.1V667H234V624.7h-8.1Z"/><path class="cls-1" d="M276.9,667c-.42-1.27-.7-2.05-.7-6.06v-7.74c0-4.58-1.55-6.27-5.07-6.27h-2.68V667h-7.74V617.66h11.68c8,0,11.48,3.73,11.48,11.34v3.87c0,5.07-1.62,8.38-5.07,10,3.87,1.62,5.14,5.35,5.14,10.49V661a14.43,14.43,0,0,0,.85,6Zm-8.45-42.25v15.14h3c2.89,0,4.65-1.27,4.65-5.21v-4.86c0-3.52-1.2-5.07-3.95-5.07Z"/><path class="cls-1" d="M321.53,667h-7.81L312.38,658h-9.5L301.54,667h-7.11l7.88-49.29h11.34Zm-17.67-15.63h7.47l-3.74-24.93Z"/><path class="cls-1" d="M361.38,617.1c7.53,0,11.41,4.51,11.41,12.39V631h-7.33v-2c0-3.52-1.4-4.86-3.87-4.86s-3.87,1.34-3.87,4.86c0,10.14,15.14,12,15.14,26.12,0,7.88-3.95,12.39-11.55,12.39s-11.55-4.51-11.55-12.39v-3h7.33v3.52c0,3.52,1.54,4.79,4,4.79s4-1.27,4-4.79c0-10.14-15.14-12-15.14-26.12C350,621.61,353.85,617.1,361.38,617.1Z"/><path class="cls-1" d="M384.12,629.49c0-7.88,4.15-12.39,11.76-12.39s11.75,4.51,11.75,12.39v25.63c0,7.88-4.15,12.39-11.75,12.39s-11.76-4.51-11.76-12.39Zm7.74,26.12c0,3.52,1.55,4.86,4,4.86s4-1.34,4-4.86V629c0-3.52-1.55-4.86-4-4.86s-4,1.34-4,4.86Z"/><path class="cls-1" d="M427.49,617.66v38c0,3.52,1.55,4.79,4,4.79s4-1.27,4-4.79v-38h7.33v37.53c0,7.88-3.95,12.39-11.55,12.39s-11.55-4.51-11.55-12.39V617.66Z"/><path class="cls-1" d="M471.77,667c-.42-1.27-.7-2.05-.7-6.06v-7.74c0-4.58-1.55-6.27-5.07-6.27h-2.68V667h-7.74V617.66h11.68c8,0,11.48,3.73,11.48,11.34v3.87c0,5.07-1.62,8.38-5.07,10,3.87,1.62,5.14,5.35,5.14,10.49V661a14.43,14.43,0,0,0,.85,6Zm-8.45-42.25v15.14h3c2.89,0,4.65-1.27,4.65-5.21v-4.86c0-3.52-1.2-5.07-3.95-5.07Z"/><image width="1500" height="1261" transform="translate(218.58 -174.04) scale(0.15)" xlink:href="../../../../../Dropbox%20(Revolution%20Strategy)/Rocio%20Ugarte/Clients/Namaste/Digital%20Ads/_Flight%202:Phase%202%20Terpene/1.%20Animated%20w:%20Packaging/9.%20Expandable%20Unit%20640%20x%20100:640%20x%201136/640%20x%20100_640%20x%201136V2_Folder/Links/SmallTopDown-8351-UltraSour.png"/><rect class="cls-2" x="617.06" y="9.35" width="13.38" height="13.38"/><line class="cls-2" x1="619.04" y1="20.8" x2="628.52" y2="11.55"/><line class="cls-2" x1="619.23" y1="11.55" x2="628.48" y2="21.03"/></svg>