<?xml version="1.0" encoding="utf-8"?>
<!-- Generator: Adobe Illustrator 23.0.1, SVG Export Plug-In . SVG Version: 6.00 Build 0)  -->
<svg version="1.1" id="Layer_2" xmlns="http://www.w3.org/2000/svg" xmlns:xlink="http://www.w3.org/1999/xlink" x="0px" y="0px"
	 viewBox="0 0 728 90" enable-background="new 0 0 728 90" xml:space="preserve">
<g>
	<path fill="#BA9544" d="M292.24,33.9c3.42,0,5.18,2.05,5.18,5.64v0.7h-3.33v-0.93c0-1.6-0.64-2.21-1.76-2.21s-1.76,0.61-1.76,2.21
		c0,4.61,6.88,5.48,6.88,11.89c0,3.59-1.79,5.64-5.25,5.64s-5.25-2.05-5.25-5.64v-1.38h3.33v1.6c0,1.6,0.7,2.18,1.82,2.18
		s1.82-0.58,1.82-2.18c0-4.61-6.88-5.48-6.88-11.89C287.05,35.95,288.81,33.9,292.24,33.9z"/>
	<path fill="#BA9544" d="M306.38,56.59h-3.52V34.15h3.52v9.61h4v-9.61h3.58v22.43h-3.58v-9.61h-4V56.59z"/>
	<path fill="#BA9544" d="M319.92,34.15h3.52v22.43h-3.52V34.15z"/>
	<path fill="#BA9544" d="M334.12,33.9c3.42,0,5.18,2.05,5.18,5.64v0.7h-3.33v-0.93c0-1.6-0.64-2.21-1.76-2.21s-1.76,0.61-1.76,2.21
		c0,4.61,6.88,5.48,6.88,11.89c0,3.59-1.79,5.64-5.25,5.64s-5.25-2.05-5.25-5.64v-1.38h3.33v1.6c0,1.6,0.7,2.18,1.82,2.18
		s1.82-0.58,1.82-2.18c0-4.61-6.88-5.48-6.88-11.89C328.94,35.95,330.7,33.9,334.12,33.9z"/>
	<path fill="#BA9544" d="M348.27,56.59h-3.52V34.15h3.52v9.61h4v-9.61h3.58v22.43h-3.58v-9.61h-4V56.59z"/>
	<path fill="#BA9544" d="M366.41,47.65l-1.09,2.05v6.89h-3.52V34.15h3.52v9.77l4.61-9.77h3.52l-4.9,10l4.9,12.43h-3.62L366.41,47.65
		z"/>
	<path fill="#BA9544" d="M389.83,56.59h-3.55l-0.61-4.07h-4.32l-0.61,4.07h-3.23l3.58-22.43h5.15L389.83,56.59z M381.8,49.47h3.39
		l-1.7-11.34L381.8,49.47z"/>
	<path fill="#BA9544" d="M405.39,39.31v0.8c0,2.31-0.7,3.78-2.27,4.52c1.89,0.74,2.62,2.44,2.62,4.81v1.83
		c0,3.46-1.82,5.32-5.34,5.32h-5.54V34.15h5.31C403.82,34.15,405.39,35.85,405.39,39.31z M398.38,37.36v5.93h1.38
		c1.31,0,2.11-0.58,2.11-2.37v-1.25c0-1.6-0.54-2.31-1.79-2.31H398.38z M398.38,46.49v6.89h2.02c1.18,0,1.82-0.54,1.82-2.21v-1.96
		c0-2.08-0.67-2.72-2.27-2.72H398.38z"/>
	<path fill="#BA9544" d="M414.76,43.61h4.83v3.2h-4.83v6.57h6.08v3.2h-9.6V34.15h9.6v3.2h-6.08V43.61z"/>
	<path fill="#BA9544" d="M433.77,56.59c-0.19-0.58-0.32-0.93-0.32-2.76v-3.52c0-2.08-0.7-2.85-2.3-2.85h-1.22v9.13h-3.52V34.15h5.31
		c3.65,0,5.22,1.7,5.22,5.16v1.76c0,2.31-0.74,3.81-2.3,4.55c1.76,0.74,2.34,2.44,2.34,4.77v3.46c0,1.09,0.03,1.89,0.38,2.72H433.77
		z M429.93,37.36v6.89h1.38c1.31,0,2.11-0.58,2.11-2.37v-2.21c0-1.6-0.54-2.31-1.79-2.31H429.93z"/>
	<path fill="#BA9544" d="M450.03,56.59c-0.19-0.58-0.32-0.93-0.32-2.76v-3.52c0-2.08-0.7-2.85-2.3-2.85h-1.22v9.13h-3.52V34.15h5.31
		c3.65,0,5.22,1.7,5.22,5.16v1.76c0,2.31-0.74,3.81-2.3,4.55c1.76,0.74,2.34,2.44,2.34,4.77v3.46c0,1.09,0.03,1.89,0.38,2.72H450.03
		z M446.19,37.36v6.89h1.38c1.31,0,2.11-0.58,2.11-2.37v-2.21c0-1.6-0.54-2.31-1.79-2.31H446.19z"/>
	<path fill="#BA9544" d="M462.22,49.15l-4.45-15h3.68l2.69,10.22l2.69-10.22h3.36l-4.45,15v7.43h-3.52V49.15z"/>
</g>
<g>
</g>
<g>
</g>
<g>
</g>
<g>
</g>
<g>
</g>
<g>
</g>
<g>
</g>
<g>
</g>
<g>
</g>
<g>
</g>
<g>
</g>
<g>
</g>
<g>
</g>
<g>
</g>
<g>
</g>
</svg>
