<svg id="Content" xmlns="http://www.w3.org/2000/svg" xmlns:xlink="http://www.w3.org/1999/xlink" width="320" height="50" viewBox="0 0 320 50"><defs><style>.cls-1{fill:url(#New_Gradient_Swatch_1);}.cls-2{fill:#fff;}.cls-3{fill:#ba9544;}</style><linearGradient id="New_Gradient_Swatch_1" x1="153.89859" y1="19.20371" x2="173.92523" y2="19.20371" gradientUnits="userSpaceOnUse"><stop offset="0" stop-color="#a88a34"/><stop offset="0.49324" stop-color="#caaf67"/><stop offset="1" stop-color="#957f2e"/></linearGradient></defs><title>diesel</title><polygon class="cls-1" points="171.225 12.462 162.875 9.257 155.165 13.787 153.899 22.64 160.031 29.15 168.943 28.415 173.925 20.988 171.225 12.462"/><path class="cls-2" d="M161.23844,16.81572a.855.855,0,0,1,.161-.06607,1.54806,1.54806,0,0,1,.17959-.0456l.01024-.00372,1.75682-.38616a.56856.56856,0,0,1,.375.05769l.29591.28939-.61508.64392-1.9606.43083c-.07817-.35359-.15912-.72208-.20285-.92028m6.09677,4.901-.965-4.38926a.65791.65791,0,0,0-.73139-.509l.51737-.54342.14237.13492.215-.228a.13964.13964,0,0,0-.00558-.19728l-1.04032-.98263a.13963.13963,0,0,0-.19727.00559l-.21495.228.17121.16192-.69044.72394-.34244-.33406-.02418-.01861a1.30839,1.30839,0,0,0-.98357-.18517l-1.73821.38244a2.54466,2.54466,0,0,0-.30707.0791,1.04619,1.04619,0,0,0-.562.375.607.607,0,0,0-.09119.47363c.054.24194.24193,1.099.35545,1.61352.00186.01117.00372.02233.00652.0335l.96494,4.39019a.654.654,0,0,0,.78165.4969l4.23479-.93145a.65736.65736,0,0,0,.50435-.77978"/><path class="cls-3" d="M154.81055,39.6875V36.00488h1.418q1.71825,0,1.71777,1.8418,0,1.84131-1.71777,1.84082Zm1.418-.7334q.97851-.00292.98144-1.10742-.00292-1.103-.98144-1.10352h-.68164V38.9541Z"/><path class="cls-3" d="M158.73633,36.00488h.7334V39.6875h-.7334Z"/><path class="cls-3" d="M160.19824,39.6875V36.00977l2.7041-.00293v.6875h-1.96777v.78515h1.47461v.68457h-1.47461V39h1.96289v.6875Z"/><path class="cls-3" d="M165.63477,36.12988a1.69943,1.69943,0,0,1,.52734.36817l-.49023.49023a.84563.84563,0,0,0-.6875-.29394q-.44092,0-.56446.208a.28862.28862,0,0,0,0,.35547.97351.97351,0,0,0,.56446.22168,1.81926,1.81926,0,0,1,.84667.30664.92008.92008,0,0,1,.38086.82129.94435.94435,0,0,1-.40625.76074,1.48768,1.48768,0,0,1-.94628.31934,2.17332,2.17332,0,0,1-.85645-.14746,1.85116,1.85116,0,0,1-.58887-.39258l.49121-.49023a1.16256,1.16256,0,0,0,.834.34277q.49072,0,.6123-.208a.38791.38791,0,0,0,0-.417q-.12158-.20948-.6123-.25781a1.98416,1.98416,0,0,1-.80957-.27051.81317.81317,0,0,1-.36817-.75977.91676.91676,0,0,1,.418-.78418,1.47585,1.47585,0,0,1,.86035-.29589A2.04925,2.04925,0,0,1,165.63477,36.12988Z"/><path class="cls-3" d="M166.85938,39.6875V36.00977l2.7041-.00293v.6875H167.5957v.78515h1.47461v.68457H167.5957V39h1.96289v.6875Z"/><path class="cls-3" d="M171.04688,36.00684V39h1.96289v.6875h-2.69825V36.00684Z"/></svg>