<svg id="Layer_1" data-name="Layer 1" xmlns="http://www.w3.org/2000/svg" xmlns:xlink="http://www.w3.org/1999/xlink" width="45.54434" height="69.55916" viewBox="0 0 45.54434 69.55916"><defs><style>.cls-1{fill:url(#New_Gradient_Swatch_1);}.cls-2{fill:#fff;}.cls-3{fill:#ba9544;}</style><linearGradient id="New_Gradient_Swatch_1" y1="23.66845" x2="45.54434" y2="23.66845" gradientUnits="userSpaceOnUse"><stop offset="0" stop-color="#a88a34"/><stop offset="0.49324" stop-color="#caaf67"/><stop offset="1" stop-color="#957f2e"/></linearGradient></defs><title>pine</title><polygon class="cls-1" points="40.996 39.443 18.223 47.337 0 31.562 4.551 7.894 27.322 0 45.544 15.775 40.996 39.443"/><path class="cls-2" d="M30.3469,30.82266,22.73233,12.64627,15.19916,30.82266l7.15266,1.43185v2.03231a.42035.42035,0,0,0,.8402,0V32.25451Z"/><path class="cls-3" d="M8.83815,69.55916V60.85994h3.793q3.04541,0,3.04492,2.50586,0,2.59718-3.03906,2.59766h-2.0586v3.5957Zm1.74023-5.21972h2.43555q1.0503-.01758,1.0791-.957-.0293-.85692-1.06152-.89257H10.57838Z"/><path class="cls-3" d="M16.95729,60.85408h1.73437v8.70508H16.95729Z"/><path class="cls-3" d="M20.43678,69.55916V60.85994h.58008L26.469,66.31112V60.85994h1.73926v8.69922h-.6377L22.177,64.16561v5.39355Z"/><path class="cls-3" d="M29.98952,69.55916V60.8658l6.39062-.00586v1.624H31.72877v1.85547h3.48536V65.9576H31.72877v1.97754h4.63965v1.624Z"/></svg>