<svg id="Content" xmlns="http://www.w3.org/2000/svg" width="300" height="600" viewBox="0 0 300 600"><defs><style>.cls-1{fill:#fff;stroke:#ba9544;stroke-miterlimit:10;stroke-width:0.5px;}.cls-2{fill:#ba9544;}</style></defs><title>THC - Shishkaberry</title><polygon class="cls-1" points="242.819 265.768 56.736 265.063 47.343 278.609 56.736 291.914 242.819 291.597 251.273 278.684 242.819 265.768"/><polygon class="cls-2" points="56.872 265.063 47.479 278.609 56.872 291.914 79.881 291.914 79.881 265.063 56.872 265.063"/><path class="cls-2" d="M163.24316,274.172v1.7002h-3.03711v7.41016h-1.82226v-7.41016h-3.03711V274.172Z"/><path class="cls-2" d="M164.59766,283.28239V274.172h1.82226v3.64453H170.665v-3.65039h1.82226v9.11036l-1.82226.00586v-3.76563h-4.24512v3.76563Z"/><path class="cls-2" d="M175.31445,281.97281a4.55632,4.55632,0,0,1,3.24024-7.80078,4.9263,4.9263,0,0,1,3.34668,1.21485l-1.21485,1.33008a3.35544,3.35544,0,0,0-2.13183-.72852,2.59585,2.59585,0,0,0-2.72657,2.708,2.73146,2.73146,0,0,0,.75879,2.0166,2.68932,2.68932,0,0,0,1.98047.74707,3.26535,3.26535,0,0,0,2.11914-.72266l1.21485,1.33008a4.91532,4.91532,0,0,1-3.34668,1.21485A4.43161,4.43161,0,0,1,175.31445,281.97281Z"/><path class="cls-2" d="M183.94238,277.47281a.88086.88086,0,0,1,.65625-.24609.91249.91249,0,0,1,.67969.24609.83349.83349,0,0,1,.24316.61036.82368.82368,0,0,1-.24316.60742,1.039,1.039,0,0,1-1.33594,0,.82368.82368,0,0,1-.24316-.60742A.83349.83349,0,0,1,183.94238,277.47281Zm0,4.34864a.88407.88407,0,0,1,.65625-.24512.91584.91584,0,0,1,.67969.24512.835.835,0,0,1,.24316.61035.82368.82368,0,0,1-.24316.60742,1.039,1.039,0,0,1-1.33594,0,.82368.82368,0,0,1-.24316-.60742A.835.835,0,0,1,183.94238,281.82145Z"/><path class="cls-2" d="M193.64258,274.172v-.00586h1.8164v9.11622h-1.8164v-6.68067l-1.21485,1.21484-1.21484-1.21484Z"/><path class="cls-2" d="M201.30176,274.17789v-.01172h1.8164v5.2959h1.22657v1.81543h-1.22657v2.00489h-1.8164V281.2775H197.166v-1.81543h.06054l-.05468-.06152Zm0,5.28418v-2.90332l-2.2168,2.90332Z"/><path class="cls-2" d="M205.73633,280.84684v-1.208H209.502v1.208Z"/><path class="cls-2" d="M213.43164,274.172v-.00586h1.81641v9.11622h-1.81641v-6.68067l-1.21484,1.21484-1.21485-1.21484Z"/><path class="cls-2" d="M221.97168,278.66617c.10937.041.208.08106.29785.1211a1.78781,1.78781,0,0,1,.94141,1.82226,2.34,2.34,0,0,1-.88379,2.03516,4.37652,4.37652,0,0,1-4.54981,0,2.34,2.34,0,0,1-.88379-2.03516,1.78781,1.78781,0,0,1,.94141-1.82226c.08984-.04.18848-.08008.29785-.1211q-.09668-.04833-.17578-.09082a1.80175,1.80175,0,0,1-.82031-1.73144,2.4931,2.4931,0,0,1,.793-1.97363,3.5752,3.5752,0,0,1,4.24511,0,2.4931,2.4931,0,0,1,.793,1.97363,1.80173,1.80173,0,0,1-.82031,1.73144Q222.06837,278.61783,221.97168,278.66617Zm-1.91895-.82617c.53418-.01562.87793-.15625,1.03223-.41894a.97014.97014,0,0,0,0-1.03223,1.16393,1.16393,0,0,0-1.03223-.50977,1.14908,1.14908,0,0,0-1.02734.50977.95428.95428,0,0,0,0,1.03223C219.17578,277.68375,219.51758,277.82438,220.05273,277.84Zm0,1.66992a1.35793,1.35793,0,0,0-1.02734.52344.95428.95428,0,0,0,0,1.03223,1.156,1.156,0,0,0,1.02734.51074,1.171,1.171,0,0,0,1.03223-.51074.97014.97014,0,0,0,0-1.03223A1.37913,1.37913,0,0,0,220.05273,279.50992Z"/><path class="cls-2" d="M225.33105,278.01578a2.34609,2.34609,0,1,1,1.62793.65625A2.20572,2.20572,0,0,1,225.33105,278.01578Zm1.60938-.42382a1.08682,1.08682,0,0,0,.832-.34668,1.21872,1.21872,0,0,0,.32227-.86231,1.205,1.205,0,0,0-.32227-.85937,1.09828,1.09828,0,0,0-.83789-.34375,1.0815,1.0815,0,0,0-.82617.34375,1.205,1.205,0,0,0-.32227.85937,1.21867,1.21867,0,0,0,.32227.86231A1.08537,1.08537,0,0,0,226.94043,277.592Zm-.48633,5.69043,5.16309-9.11036h1.48144l-5.15039,9.11036Zm4.52539-.60059a2.33466,2.33466,0,1,1,1.61524.64941A2.19473,2.19473,0,0,1,230.97949,282.6818Zm1.585-.44434a1.06728,1.06728,0,0,0,.81446-.33691,1.27056,1.27056,0,0,0,0-1.67578,1.075,1.075,0,0,0-.82032-.33789,1.05757,1.05757,0,0,0-.80761.33789,1.2676,1.2676,0,0,0,0,1.67578A1.06366,1.06366,0,0,0,232.56445,282.23746Z"/></svg>