<svg id="Content" xmlns="http://www.w3.org/2000/svg" xmlns:xlink="http://www.w3.org/1999/xlink" viewBox="0 0 640 1136"><defs><style>.cls-1{fill:url(#New_Gradient_Swatch_1);}.cls-2{fill:#fff;}.cls-3{fill:#ba9544;}</style><linearGradient id="New_Gradient_Swatch_1" x1="137.41" y1="520.44" x2="225.91" y2="520.44" gradientUnits="userSpaceOnUse"><stop offset="0" stop-color="#a88a34"/><stop offset="0.49" stop-color="#caaf67"/><stop offset="1" stop-color="#957f2e"/></linearGradient></defs><title>berry</title><polygon class="cls-1" points="174.17 475.17 137.41 517.62 166.43 565.7 221.12 552.96 225.91 497.01 174.17 475.17"/><path class="cls-2" d="M194.53,525.21a.82.82,0,0,1-1.13.17.8.8,0,0,1-.17-1.13.79.79,0,0,1,1.12-.17.81.81,0,0,1,.18,1.13M189.7,515a1,1,0,1,1,1-1,1,1,0,0,1-1,1m-1,12.27a1,1,0,1,1,1-1,1,1,0,0,1-1,1m-.15-7.48a.81.81,0,0,1,.81.81.82.82,0,1,1-.81-.81M186.37,533a.89.89,0,0,1-1.55-.88.89.89,0,0,1,1.21-.33.88.88,0,0,1,.34,1.21m-4.18-13.31a.9.9,0,1,1,.9-.9.9.9,0,0,1-.9.9m-.26,6.83a.82.82,0,1,1,.81-.81.82.82,0,0,1-.81.81m-2.64,3.64a.81.81,0,1,1,0-1.62.81.81,0,0,1,0,1.62m-.92-6.44a1,1,0,1,1-.12-1.43,1,1,0,0,1,.12,1.43m-2.53-8.38a.9.9,0,1,1,.89.89.89.89,0,0,1-.89-.89m13-5.41a21.25,21.25,0,0,0,4.55-3.5,12,12,0,0,0-5.77.59,8.36,8.36,0,0,0,.89-4.45c-1.44.12-2.53,1.25-3.33,2.65a8.22,8.22,0,0,0-1.16-3.91c-1.41.84-1.84,2.67-1.85,4.52-.81-1.54-1.94-2.83-3.49-2.94a8.4,8.4,0,0,0,.8,4.26,11.77,11.77,0,0,0-6.09-.72,20.45,20.45,0,0,0,4.81,3.63c-4.82,1-8.18,3.73-8.18,9.34,0,7.63,9.63,20.24,13.82,20.24,4.53,0,13.82-12.61,13.82-20.24,0-5.86-3.65-8.55-8.82-9.47"/><path class="cls-3" d="M154,604.26a4.77,4.77,0,0,1,2.31,3.81c-.14,3.13-1.82,4.79-5,5h-9.36V596.41h8.83q4.2.24,4.43,4.89C155.09,602.78,154.69,603.77,154,604.26Zm-8.73-1.18h4.66a1.89,1.89,0,0,0,2.06-2.08c0-.81-.71-1.24-2-1.28h-4.69Zm0,7.36h5.43a2.17,2.17,0,0,0,2.4-2.41c0-1.06-.83-1.61-2.36-1.66h-5.47Z"/><path class="cls-3" d="M159.54,613V596.41h12.22v3.11h-8.9v3.54h6.67v3.1h-6.67v3.78h8.88V613Z"/><path class="cls-3" d="M185.12,605.78l4.15,7.26h-3.81l-4-6.88h-3V613h-3.33V596.4h7.25q5.82,0,5.82,4.79Q188.18,604.79,185.12,605.78Zm-6.68-2.73h4.65q2,0,2.07-1.83c0-1.09-.72-1.66-2-1.7h-4.69Z"/><path class="cls-3" d="M201,605.78l4.14,7.26h-3.81l-4-6.88h-3V613H191V596.4h7.26q5.82,0,5.82,4.79Q204.08,604.79,201,605.78Zm-6.69-2.73H199c1.34,0,2-.63,2.06-1.83s-.71-1.66-2-1.7h-4.69Z"/><path class="cls-3" d="M205.92,596.4h3.9l3.86,5.43,3.95-5.43h3.82l-6.1,8.32V613H212v-8.32Z"/></svg>