<svg id="Content" xmlns="http://www.w3.org/2000/svg" xmlns:xlink="http://www.w3.org/1999/xlink" viewBox="0 0 640 1136"><defs><style>.cls-1{fill:#ba9544;}.cls-2{fill:#fff;stroke:#ba9544;stroke-miterlimit:10;stroke-width:0.96px;}.cls-3{clip-path:url(#clip-path);}</style><clipPath id="clip-path"><polygon class="cls-1" points="125.71 794.4 143.68 819.85 187.78 819.88 187.78 768.5 143.68 768.49 125.71 794.4"/></clipPath></defs><title>CBD - Daytime CBD</title><polygon class="cls-2" points="499.17 769.78 143.29 768.43 125.32 794.34 143.29 819.79 499.17 819.18 515.34 794.49 499.17 769.78"/><polygon class="cls-1" points="125.71 794.4 143.68 819.85 187.78 819.88 187.78 768.5 143.68 768.49 125.71 794.4"/><g class="cls-3"><rect class="cls-1" x="121.74" y="764.52" width="26.26" height="59.33"/></g><path class="cls-1" d="M334.4,802.88a8.95,8.95,0,0,1,0-12.42A8.41,8.41,0,0,1,340.6,788a9.42,9.42,0,0,1,6.4,2.33l-2.32,2.54a6.44,6.44,0,0,0-4.08-1.39,5,5,0,0,0-5.21,5.18,5.17,5.17,0,0,0,1.45,3.85,5.1,5.1,0,0,0,3.78,1.43,6.26,6.26,0,0,0,4.06-1.38l2.32,2.54a9.4,9.4,0,0,1-6.4,2.33A8.5,8.5,0,0,1,334.4,802.88Z"/><path class="cls-1" d="M363.12,796.19a5,5,0,0,1,2.43,4c-.15,3.29-1.91,5-5.26,5.22h-9.8V788h9.24c2.94.17,4.49,1.87,4.65,5.12C364.33,794.64,363.91,795.67,363.12,796.19ZM354,795h4.88a2,2,0,0,0,2.16-2.18c0-.85-.74-1.3-2.12-1.34H354Zm0,7.71h5.69a2.27,2.27,0,0,0,2.51-2.52c0-1.12-.86-1.7-2.47-1.74H354Z"/><path class="cls-1" d="M369,805.38V787.94h6.71q8.13,0,8.13,8.73t-8.13,8.71Zm6.71-3.48c3.09,0,4.64-1.75,4.65-5.23s-1.56-5.23-4.65-5.23h-3.23V801.9Z"/><path class="cls-1" d="M387.76,794.27a1.67,1.67,0,0,1,1.26-.47,1.72,1.72,0,0,1,1.3.47,1.71,1.71,0,0,1,0,2.33,2,2,0,0,1-2.56,0,1.71,1.71,0,0,1,0-2.33Zm0,8.31a1.71,1.71,0,0,1,1.26-.47,1.75,1.75,0,0,1,1.3.47,1.61,1.61,0,0,1,.46,1.17,1.56,1.56,0,0,1-.46,1.16,2,2,0,0,1-2.56,0,1.56,1.56,0,0,1-.46-1.16A1.61,1.61,0,0,1,387.76,802.58Z"/><path class="cls-1" d="M414.39,795.68q-.08,5.57-2.1,7.72a5.89,5.89,0,0,1-5,1.91,7.29,7.29,0,0,1-4.68-2.21l2-2.14a6.07,6.07,0,0,0,2.9,1,3.1,3.1,0,0,0,2.49-.74,4.81,4.81,0,0,0,1.29-2.85,5.41,5.41,0,0,1-3.62,1.16,5.86,5.86,0,0,1-4.3-2,6,6,0,0,1-1-4.36,5.76,5.76,0,0,1,2-3.95A6.16,6.16,0,0,1,409.1,788a5.65,5.65,0,0,1,3.92,2.31A9.84,9.84,0,0,1,414.39,795.68Zm-3.49-1.92c-.08-1.62-1-2.46-2.79-2.53s-2.71.84-2.78,2.31c.07,1.94,1,2.91,2.9,2.91A2.59,2.59,0,0,0,410.9,793.76Z"/><path class="cls-1" d="M417.48,800.72v-2.31h7.2v2.31Z"/><path class="cls-1" d="M432.19,788h3.48v17.44h-3.48V792.6l-2.32,2.32-2.32-2.32Z"/><path class="cls-1" d="M450,796.55l.57.23c1.2.54,1.8,1.71,1.8,3.49a4.48,4.48,0,0,1-1.92,3.6,7.05,7.05,0,0,1-4.48,1.51,10.27,10.27,0,0,1-4.06-.7,8.59,8.59,0,0,1-2.78-1.86l2.32-2.32a5.53,5.53,0,0,0,3.95,1.63c1.55,0,2.51-.33,2.9-1a1.86,1.86,0,0,0,0-2c-.39-.65-1.74-1-4.05-1.1v-3.14q3.47.24,4.05-.75a1.86,1.86,0,0,0,0-2c-.39-.65-1.35-1-2.9-1A4.13,4.13,0,0,0,442,792.6l-2.32-2.32a8,8,0,0,1,2.49-1.75A9.89,9.89,0,0,1,446,788a6.15,6.15,0,0,1,4.24,1.51,4.67,4.67,0,0,1,1.69,3.6,3.46,3.46,0,0,1-1.56,3.32Z"/><path class="cls-1" d="M456.2,795.31a4.37,4.37,0,0,1,3.12-7.48,4.37,4.37,0,1,1,0,8.73A4.27,4.27,0,0,1,456.2,795.31Zm3.08-.82a2.07,2.07,0,0,0,1.59-.66,2.33,2.33,0,0,0,.62-1.65,2.31,2.31,0,0,0-.62-1.64,2.25,2.25,0,0,0-3.18,0,2.3,2.3,0,0,0-.61,1.64,2.32,2.32,0,0,0,.61,1.65A2.07,2.07,0,0,0,459.28,794.49Zm-.93,10.89L468.23,788h2.83l-9.85,17.43Zm8.66-1.15a4.47,4.47,0,1,1,3.09,1.24A4.2,4.2,0,0,1,467,804.23Zm3-.85a2,2,0,0,0,1.55-.64,2.24,2.24,0,0,0,.61-1.61,2.22,2.22,0,0,0-.61-1.6,2.19,2.19,0,0,0-3.11,0,2.25,2.25,0,0,0-.6,1.6,2.28,2.28,0,0,0,.6,1.61A2,2,0,0,0,470,803.38Z"/></svg>