<svg id="Content" xmlns="http://www.w3.org/2000/svg" xmlns:xlink="http://www.w3.org/1999/xlink" viewBox="0 0 640 1136"><defs><style>.cls-1{fill:url(#New_Gradient_Swatch_1);}.cls-2{fill:#fff;}.cls-3{fill:#ba9544;}</style><linearGradient id="New_Gradient_Swatch_1" x1="276.64" y1="520.23" x2="367.36" y2="520.23" gradientUnits="userSpaceOnUse"><stop offset="0" stop-color="#a88a34"/><stop offset="0.49" stop-color="#caaf67"/><stop offset="1" stop-color="#957f2e"/></linearGradient></defs><title>diesel</title><polygon class="cls-1" points="355.13 489.69 317.3 475.17 282.37 495.69 276.63 535.8 304.42 565.29 344.79 561.96 367.36 528.31 355.13 489.69"/><path class="cls-2" d="M309.89,509.41a3.85,3.85,0,0,1,.73-.3,5.91,5.91,0,0,1,.81-.2l.05,0,7.95-1.75a2.57,2.57,0,0,1,1.7.26l1.34,1.31-2.78,2.92-8.88,2c-.36-1.6-.73-3.27-.92-4.17m27.62,22.2-4.38-19.88a3,3,0,0,0-3.31-2.31l2.35-2.46.64.61,1-1a.63.63,0,0,0,0-.89l-4.71-4.45a.64.64,0,0,0-.9,0l-1,1,.77.74-3.12,3.28-1.56-1.52-.1-.08a6,6,0,0,0-4.46-.84l-7.87,1.73a13,13,0,0,0-1.4.36,4.79,4.79,0,0,0-2.54,1.7,2.78,2.78,0,0,0-.42,2.15c.25,1.09,1.1,5,1.62,7.31a.77.77,0,0,0,0,.15l4.38,19.89a3,3,0,0,0,3.54,2.25l19.18-4.22a3,3,0,0,0,2.29-3.54"/><path class="cls-3" d="M280.77,613V596.35h6.42q7.79,0,7.78,8.34T287.19,613Zm6.42-3.32q4.44,0,4.45-5t-4.45-5H284.1v10Z"/><path class="cls-3" d="M298.55,596.35h3.33V613h-3.33Z"/><path class="cls-3" d="M305.18,613V596.37h12.24v3.11h-8.91V603h6.68v3.1h-6.68v3.79h8.89V613Z"/><path class="cls-3" d="M329.81,596.91a7.8,7.8,0,0,1,2.39,1.67L330,600.8a3.81,3.81,0,0,0-3.11-1.33c-1.33,0-2.19.31-2.56.94a1.31,1.31,0,0,0,0,1.62,4.5,4.5,0,0,0,2.56,1,8.18,8.18,0,0,1,3.84,1.39,4.17,4.17,0,0,1,1.72,3.72,4.26,4.26,0,0,1-1.84,3.44,6.72,6.72,0,0,1-4.29,1.45,9.73,9.73,0,0,1-3.87-.67,8.17,8.17,0,0,1-2.67-1.78l2.22-2.22a5.29,5.29,0,0,0,3.78,1.56c1.48,0,2.41-.32,2.77-.95a1.75,1.75,0,0,0,0-1.89c-.36-.63-1.29-1-2.77-1.16a9,9,0,0,1-3.67-1.23,3.68,3.68,0,0,1-1.67-3.44,4.15,4.15,0,0,1,1.9-3.55,6.62,6.62,0,0,1,3.9-1.34A9.38,9.38,0,0,1,329.81,596.91Z"/><path class="cls-3" d="M335.35,613V596.37H347.6v3.11h-8.91V603h6.68v3.1h-6.68v3.79h8.89V613Z"/><path class="cls-3" d="M354.33,596.36v13.56h8.89V613H351V596.36Z"/></svg>