<svg xmlns="http://www.w3.org/2000/svg" xmlns:xlink="http://www.w3.org/1999/xlink" width="970" height="250" viewBox="0 0 970 250"><defs><style>.cls-1{fill:none;}.cls-2{fill:#ba9544;}.cls-3{isolation:isolate;}.cls-4{clip-path:url(#clip-path);}.cls-5{clip-path:url(#clip-path-2);}.cls-6{mix-blend-mode:multiply;}.cls-7{fill:#fff;stroke:#ba9544;stroke-miterlimit:10;stroke-width:0.5px;}.cls-8{clip-path:url(#clip-path-3);}.cls-9{clip-path:url(#clip-path-4);}.cls-10{clip-path:url(#clip-path-5);}</style><clipPath id="clip-path"><polygon class="cls-1" points="270.902 -49.053 -3.565 -49.671 -3.565 -141.778 159.517 -110.837 270.902 -49.053"/></clipPath><clipPath id="clip-path-2"><rect class="cls-1" x="-76.03832" y="-336.20375" width="317.55181" height="538.64228" transform="translate(30.59439 25.85292) rotate(-21.70084)"/></clipPath><clipPath id="clip-path-3"><polygon class="cls-2" points="396.779 167.669 408.521 184.301 408.751 184.322 408.751 150.742 408.521 150.734 396.779 167.669"/></clipPath><clipPath id="clip-path-4"><rect class="cls-1" x="17.24025" y="-299.16219" width="383.03219" height="250.51546"/></clipPath><clipPath id="clip-path-5"><rect class="cls-1" x="2.56702" y="-306.41002" width="399.55191" height="335.80187"/></clipPath></defs><title>CBD - Sensi Star</title><g class="cls-3"><g id="Terpenes"><g class="cls-4"><g id="Oranges_2_GettyImages-660287312.psd" data-name="Oranges#2_GettyImages-660287312.psd"><g class="cls-5"><image id="Shadow" class="cls-6" width="2830" height="2610" transform="translate(170.34931 -206.6647) rotate(68.29916) scale(0.08858)" xlink:href="CBD%20-%20Sensi%20Star1.png"/><image id="Oranges_2" data-name="Oranges #2" width="2682" height="2541" transform="translate(161.11071 -200.41403) rotate(68.29916) scale(0.08858)" xlink:href="CBD%20-%20Sensi%20Star2.png"/></g></g></g></g><g id="Content"><polygon class="cls-7" points="640.868 151.578 408.265 150.696 396.523 167.629 408.265 184.261 640.868 183.865 651.436 167.723 640.868 151.578"/><polygon class="cls-2" points="396.779 167.669 408.521 184.301 408.751 184.322 408.751 150.742 408.521 150.734 396.779 167.669"/><g class="cls-8"><rect class="cls-2" x="394.18188" y="148.13811" width="17.16046" height="38.77866"/></g><path class="cls-2" d="M533.17833,173.21828a5.697,5.697,0,0,1,4.05078-9.75293,6.16429,6.16429,0,0,1,4.18359,1.51855l-1.51855,1.66309a4.19969,4.19969,0,0,0-2.665-.91114,3.34684,3.34684,0,0,0-2.47168.95606,3.31309,3.31309,0,0,0-.9375,2.42969,3.411,3.411,0,0,0,.94922,2.5205,3.3617,3.3617,0,0,0,2.47558.93457,4.08625,4.08625,0,0,0,2.64942-.90332l1.51855,1.66211a6.14207,6.14207,0,0,1-4.18359,1.51856A5.5438,5.5438,0,0,1,533.17833,173.21828Z"/><path class="cls-2" d="M551.95079,168.84816a3.23423,3.23423,0,0,1-1.85254,6.01367l-6.4082-.00781V163.47316H549.734q2.877.167,3.03711,3.34863A2.38263,2.38263,0,0,1,551.95079,168.84816Zm-5.97461-.81153h3.18848a1.28634,1.28634,0,0,0,1.41211-1.41992q-.03809-.835-1.38965-.88086h-3.21094Zm0,5.041h3.71973a1.48659,1.48659,0,0,0,1.63964-1.64746q-.03809-1.09423-1.61718-1.13867h-3.74219Z"/><path class="cls-2" d="M555.80723,174.854V163.45851h4.38868q5.31445,0,5.31445,5.70117,0,5.69385-5.31445,5.69434Zm4.38868-2.27051q3.02929-.00732,3.03711-3.42383-.00879-3.416-3.03711-3.416h-2.11036v6.83984Z"/><path class="cls-2" d="M573.36778,167.5923a1.10108,1.10108,0,0,1,.82031-.30762,1.143,1.143,0,0,1,.85059.30762,1.10584,1.10584,0,0,1,0,1.52246,1.30094,1.30094,0,0,1-1.6709,0,1.10584,1.10584,0,0,1,0-1.52246Zm0,5.43555a1.10108,1.10108,0,0,1,.82031-.30762,1.143,1.143,0,0,1,.85059.30762,1.04563,1.04563,0,0,1,.30371.76367,1.0298,1.0298,0,0,1-.30371.75879,1.30094,1.30094,0,0,1-1.6709,0,1.0298,1.0298,0,0,1-.30371-.75879A1.04563,1.04563,0,0,1,573.36778,173.02785Z"/><path class="cls-2" d="M589.66075,166.73l-4.40332,2.42969,4.40332,2.42969v1.74609l-7.19727-3.95508v-.49414l7.19727-3.90234Z"/><path class="cls-2" d="M599.52305,163.46535v-.00684h2.27051V174.854h-2.27051v-8.35157L598.0045,168.021l-1.51855-1.51856Z"/><g class="cls-9"><g id="SmallTopDown-8342SensiStar.psd"><g class="cls-10"><image id="SmallTopDown-8342SensiStar" width="4124" height="3466" transform="translate(2.56702 -306.41002) scale(0.09688)" xlink:href="CBD%20-%20Sensi%20Star3.png"/></g></g></g></g></g></svg>