<svg id="Content" xmlns="http://www.w3.org/2000/svg" width="300" height="250" viewBox="0 0 300 250"><defs><style>.cls-1{fill:#fff;stroke:#ba9544;stroke-miterlimit:10;stroke-width:0.5px;}.cls-2{fill:#ba9544;}</style></defs><title>THC - Shishkaberry</title><polygon class="cls-1" points="279.428 142.307 167.844 141.884 162.211 150.007 167.844 157.986 279.428 157.796 284.498 150.052 279.428 142.307"/><polygon class="cls-2" points="167.925 141.884 162.293 150.007 167.925 157.986 181.723 157.986 181.723 141.884 167.925 141.884"/><path class="cls-2" d="M231.71,147.346v1.01954H229.8887v4.44335h-1.09277v-4.44335h-1.82129V147.346Z"/><path class="cls-2" d="M232.52249,152.80888V147.346h1.09278v2.18457h2.54589v-2.18847h1.0918V152.805l-1.0918.0039v-2.25781h-2.54589v2.25781Z"/><path class="cls-2" d="M238.94827,152.02373a2.732,2.732,0,0,1,1.94336-4.67774,2.95282,2.95282,0,0,1,2.00684.72852l-.72852.79687a2.01551,2.01551,0,0,0-1.27832-.43652,1.55652,1.55652,0,0,0-1.63476,1.624,1.63132,1.63132,0,0,0,.45508,1.209,1.61079,1.61079,0,0,0,1.1875.44824,1.95513,1.95513,0,0,0,1.2705-.43359l.72852.79785a2.94708,2.94708,0,0,1-2.00684.72851A2.65579,2.65579,0,0,1,238.94827,152.02373Z"/><path class="cls-2" d="M244.1221,149.32549a.52807.52807,0,0,1,.39356-.14746.54784.54784,0,0,1,.4082.14746.49987.49987,0,0,1,.14551.36621.4932.4932,0,0,1-.14551.36328.62179.62179,0,0,1-.80176,0,.4932.4932,0,0,1-.14551-.36328A.49987.49987,0,0,1,244.1221,149.32549Zm0,2.60742a.52811.52811,0,0,1,.39356-.14746.54788.54788,0,0,1,.4082.14746.503.503,0,0,1,.14551.36621.497.497,0,0,1-.14551.36426.625.625,0,0,1-.80176,0,.497.497,0,0,1-.14551-.36426A.503.503,0,0,1,244.1221,151.93291Z"/><path class="cls-2" d="M249.93851,147.346v-.0039h1.08887v5.46679h-1.08887V148.803l-.72852.72753-.72851-.72753Z"/><path class="cls-2" d="M254.53128,147.34892v-.00683h1.08887v3.17578h.73633v1.08887h-.73633v1.20214h-1.08887v-1.20214h-2.48047v-1.08887h.03711l-.0332-.03613Zm0,3.16895v-1.74121l-1.3291,1.74121Z"/><path class="cls-2" d="M257.18948,151.348v-.72461h2.25879v.72461Z"/><path class="cls-2" d="M261.80472,147.346v-.0039h1.08887v5.46679h-1.08887V148.803l-.72852.72753-.72851-.72753Z"/><path class="cls-2" d="M266.92581,150.04131c.06543.02343.125.04785.17871.07226a1.07119,1.07119,0,0,1,.56446,1.09278,1.40062,1.40062,0,0,1-.53028,1.21972,2.62062,2.62062,0,0,1-2.72754,0,1.40064,1.40064,0,0,1-.53027-1.21972,1.0712,1.0712,0,0,1,.56445-1.09278c.05372-.02441.11329-.04883.17872-.07226-.03907-.01953-.07422-.03809-.10547-.05469a1.0807,1.0807,0,0,1-.49219-1.03809,1.49293,1.49293,0,0,1,.47558-1.18359,2.14335,2.14335,0,0,1,2.5459,0,1.49611,1.49611,0,0,1,.47559,1.18359,1.0807,1.0807,0,0,1-.49219,1.03809C267,150.00322,266.96488,150.02178,266.92581,150.04131Zm-1.15136-.4961c.32128-.00976.52734-.09277.61914-.251a.58093.58093,0,0,0,0-.61914.6986.6986,0,0,0-.61914-.30567.69025.69025,0,0,0-.61524.30567.573.573,0,0,0,0,.61914C265.24906,149.45244,265.45413,149.53545,265.77445,149.54521Zm0,1.002a.81.81,0,0,0-.61524.31347.573.573,0,0,0,0,.61914.69025.69025,0,0,0,.61524.30567.6986.6986,0,0,0,.61914-.30567.58093.58093,0,0,0,0-.61914A.82126.82126,0,0,0,265.77445,150.54717Z"/><path class="cls-2" d="M268.94046,149.65068a1.40717,1.40717,0,1,1,.97559.39356A1.32152,1.32152,0,0,1,268.94046,149.65068Zm.96485-.25488a.64924.64924,0,0,0,.499-.207.73007.73007,0,0,0,.19336-.51758.72132.72132,0,0,0-.19336-.51465.65606.65606,0,0,0-.50293-.20605.64779.64779,0,0,0-.49512.20605.7206.7206,0,0,0-.19238.51465.72934.72934,0,0,0,.19238.51758A.64925.64925,0,0,0,269.90531,149.3958Zm-.291,3.41308L272.71,147.346h.88867l-3.08886,5.46289Zm2.71289-.36035a1.39908,1.39908,0,1,1,.96875.38965A1.3156,1.3156,0,0,1,272.32718,152.44853Zm.95117-.26562a.63651.63651,0,0,0,.48731-.20215.76228.76228,0,0,0,0-1.00586.64209.64209,0,0,0-.49121-.20215.63453.63453,0,0,0-.48438.20215.76228.76228,0,0,0,0,1.00586A.63862.63862,0,0,0,273.27835,152.18291Z"/></svg>