<svg id="Content" xmlns="http://www.w3.org/2000/svg" xmlns:xlink="http://www.w3.org/1999/xlink" width="320" height="50" viewBox="0 0 320 50"><defs><style>.cls-1{fill:#ba9544;}.cls-2{fill:#fff;stroke:#ba9544;stroke-miterlimit:10;stroke-width:0.5px;}.cls-3{clip-path:url(#clip-path);}</style><clipPath id="clip-path"><polygon class="cls-1" points="99.999 33.857 103.964 39.474 113.7 39.481 113.7 28.14 103.964 28.138 99.999 33.857"/></clipPath></defs><title>CBD - Daytime CBD</title><polygon class="cls-2" points="182.435 28.423 103.878 28.125 99.912 33.844 103.878 39.461 182.435 39.327 186.004 33.875 182.435 28.423"/><polygon class="cls-1" points="99.999 33.857 103.964 39.474 113.7 39.481 113.7 28.14 103.964 28.138 99.999 33.857"/><g class="cls-3"><rect class="cls-1" x="99.12161" y="27.26101" width="5.7956" height="13.09672"/></g><path class="cls-1" d="M146.06543,35.72754a1.92317,1.92317,0,0,1,1.36816-3.293,2.08109,2.08109,0,0,1,1.4126.5127l-.51269.56152a1.4186,1.4186,0,0,0-.89991-.30762,1.09482,1.09482,0,0,0-1.15136,1.14356,1.1516,1.1516,0,0,0,.32031.85058,1.13273,1.13273,0,0,0,.83594.31543,1.38045,1.38045,0,0,0,.895-.30469l.51269.56153a2.07494,2.07494,0,0,1-1.4126.51269A1.86988,1.86988,0,0,1,146.06543,35.72754Z"/><path class="cls-1" d="M152.40527,34.252a1.09256,1.09256,0,0,1-.626,2.03125l-2.16407-.00293V32.43652h2.041q.97192.05713,1.02588,1.13086A.805.805,0,0,1,152.40527,34.252Zm-2.01806-.27441h1.07666a.434.434,0,0,0,.47705-.47949c-.0083-.1875-.165-.28711-.46924-.29688h-1.08447Zm0,1.70312h1.25634a.50258.50258,0,0,0,.55372-.55664c-.00831-.24609-.19043-.375-.5459-.38476h-1.26416Z"/><path class="cls-1" d="M153.70752,36.28027V32.43164h1.48193q1.79517,0,1.79493,1.92578,0,1.92335-1.79493,1.92285Zm1.48193-.7666q1.0232-.00292,1.02588-1.15625-.00293-1.15429-1.02588-1.1543h-.71289v2.31055Z"/><path class="cls-1" d="M157.84326,33.82812a.37148.37148,0,0,1,.27686-.10449.38525.38525,0,0,1,.28711.10449.37167.37167,0,0,1,0,.51368.439.439,0,0,1-.564,0,.37293.37293,0,0,1,0-.51368Zm0,1.83594a.37148.37148,0,0,1,.27686-.10449.38525.38525,0,0,1,.28711.10449.37166.37166,0,0,1,0,.51367.439.439,0,0,1-.564,0,.37292.37292,0,0,1,0-.51367Z"/><path class="cls-1" d="M163.72021,34.13965a2.54922,2.54922,0,0,1-.46289,1.70508,1.29883,1.29883,0,0,1-1.11132.41992,1.59678,1.59678,0,0,1-1.0337-.48731l.4336-.47168a1.33179,1.33179,0,0,0,.64111.21778.67732.67732,0,0,0,.54883-.16406,1.03241,1.03241,0,0,0,.28418-.62793,1.20271,1.20271,0,0,1-.79736.25683,1.29065,1.29065,0,0,1-.94873-.44238,1.32346,1.32346,0,0,1-.22559-.96289,1.26789,1.26789,0,0,1,.44727-.8711,1.362,1.362,0,0,1,1.0581-.26757,1.251,1.251,0,0,1,.86524.51074A2.16819,2.16819,0,0,1,163.72021,34.13965Zm-.769-.42383q-.02563-.53466-.61572-.55859-.5896.02343-.61524.50976a.58119.58119,0,0,0,.64112.6416A.57189.57189,0,0,0,162.95117,33.71582Z"/><path class="cls-1" d="M164.40234,35.252v-.50976h1.58985V35.252Z"/><path class="cls-1" d="M167.65088,32.43457v-.00293h.7666v3.84863h-.7666V33.46l-.5127.5127-.51269-.5127Z"/><path class="cls-1" d="M171.5791,34.33105c.04639.01758.08838.03516.126.05176a.75472.75472,0,0,1,.39746.76953.98747.98747,0,0,1-.42432.79493,1.55851,1.55851,0,0,1-.98877.333,2.27957,2.27957,0,0,1-.895-.15429,1.93965,1.93965,0,0,1-.61523-.41016l.51269-.5127a1.22,1.22,0,0,0,.87207.35938c.3418,0,.55518-.07324.63965-.21777a.40762.40762,0,0,0,0-.43653c-.08447-.14453-.38232-.22656-.89355-.24316v-.69238q.76685.05127.89355-.167a.40592.40592,0,0,0,0-.43554q-.12671-.21827-.63965-.21778a.91325.91325,0,0,0-.74365.30762l-.51269-.51269a1.78074,1.78074,0,0,1,.55127-.38477,2.135,2.135,0,0,1,.83056-.12793,1.35354,1.35354,0,0,1,.9375.333A1.03138,1.03138,0,0,1,172,33.5625a.76089.76089,0,0,1-.34619.73047C171.63135,34.30469,171.60645,34.31836,171.5791,34.33105Z"/><path class="cls-1" d="M172.95117,34.05762a.99272.99272,0,1,1,.687.27636A.934.934,0,0,1,172.95117,34.05762Zm.67969-.17969a.45733.45733,0,0,0,.35107-.14648.51354.51354,0,0,0,.13575-.36426.50718.50718,0,0,0-.13575-.36231.46341.46341,0,0,0-.354-.1455.45757.45757,0,0,0-.34863.1455.50924.50924,0,0,0-.13575.36231.51564.51564,0,0,0,.13575.36426A.45767.45767,0,0,0,173.63086,33.87793Zm-.20557,2.40234,2.17969-3.8457h.62549l-2.17432,3.8457Zm1.91065-.2539a.98442.98442,0,1,1,.68213.27441A.9243.9243,0,0,1,175.33594,36.02637Zm.66894-.1875a.45.45,0,0,0,.34375-.1416.50043.50043,0,0,0,.1333-.35547.49494.49494,0,0,0-.1333-.35254.45314.45314,0,0,0-.34619-.14258.4466.4466,0,0,0-.34082.14258.49494.49494,0,0,0-.1333.35254.50043.50043,0,0,0,.1333.35547A.449.449,0,0,0,176.00488,35.83887Z"/></svg>