<svg id="Content" xmlns="http://www.w3.org/2000/svg" xmlns:xlink="http://www.w3.org/1999/xlink" width="320" height="50" viewBox="0 0 320 50"><defs><style>.cls-1{fill:url(#New_Gradient_Swatch_1);}.cls-2{fill:#fff;}.cls-3{fill:#ba9544;}</style><linearGradient id="New_Gradient_Swatch_1" x1="133.13671" y1="20.23739" x2="153.26577" y2="20.23739" gradientUnits="userSpaceOnUse"><stop offset="0" stop-color="#a88a34"/><stop offset="0.49324" stop-color="#caaf67"/><stop offset="1" stop-color="#957f2e"/></linearGradient></defs><title>fruity</title><polygon class="cls-1" points="141.498 30.533 133.137 20.877 139.737 9.941 152.177 12.838 153.266 25.565 141.498 30.533"/><path class="cls-2" d="M147.25872,17.4778c.68889-.20858.88121-.76544,1.28689-.95775-.80179-.32914-1.27254-.41143-1.74807-.18562a1.18918,1.18918,0,0,0-.70707.88216,1.227,1.227,0,0,0,1.16825.26121"/><path class="cls-2" d="M145.7732,18.6383a3.7038,3.7038,0,0,0-.907-2.79767.06236.06236,0,0,0-.089-.00287l-.00287.00287-.18849.19327a.06341.06341,0,0,0-.00192.08611,3.35486,3.35486,0,0,1,.78649,2.53264,2.08885,2.08885,0,0,0-3.30956,1.84757,4.57419,4.57419,0,0,0,.13969.90322,7.755,7.755,0,0,0,3.52675,1.59976.92275.92275,0,0,1,.45161.22485.66646.66646,0,0,1,.21241.46978l.00574.17318a.94753.94753,0,0,1-.0421.30618,1.34481,1.34481,0,0,1-.06028.19135c1.37779.06794,2.68286-2.12312,2.76323-3.86832a2.08664,2.08664,0,0,0-3.28468-1.86192"/><path class="cls-2" d="M145.85338,23.58053a.45386.45386,0,0,0-.21911-.10716,7.44593,7.44593,0,0,1-6.1034-5.42695.74982.74982,0,0,0-.09759-.18849.443.443,0,0,1-.066-.25259l.022-.62287a.16834.16834,0,0,0-.16266-.1751h-.00669l-.3301.00287a.168.168,0,0,0-.16744.16935l.001.01818.0775.6688a.41582.41582,0,0,1-.0909.26886,1.07073,1.07073,0,0,0-.10907.5626c-.067,5.23367,3.4703,6.7588,6.73584,5.95414.41525-.10238.45448-.16935.48988-.21911a.74441.74441,0,0,0,.06506-.18657.43842.43842,0,0,0,.02488-.16074l-.00479-.17223a.18948.18948,0,0,0-.05836-.133"/><path class="cls-3" d="M133.56055,40.2002V36.416h2.66162v.707h-1.90479v.80664h1.40528v.7041h-1.40528V40.2002Z"/><path class="cls-3" d="M139.05029,38.55078l.94336,1.64942H139.126l-.90577-1.56348h-.69091V40.2002h-.75684V36.416h1.6499q1.32423,0,1.32422,1.08984A.97929.97929,0,0,1,139.05029,38.55078Zm-1.521-.62109h1.05957q.4563-.00734.46924-.416-.01319-.37353-.46192-.38867H137.5293Z"/><path class="cls-3" d="M141.08643,36.416v2.19531a.76006.76006,0,0,0,.25195.63086,1.08976,1.08976,0,0,0,1.26172,0,.76006.76006,0,0,0,.25195-.63086V36.416h.75684V38.8125a1.25423,1.25423,0,0,1-.46631.98438,1.90769,1.90769,0,0,1-2.34619,0,1.25318,1.25318,0,0,1-.4668-.98438V36.416Z"/><path class="cls-3" d="M144.42676,36.41406h.7539V40.2002h-.7539Z"/><path class="cls-3" d="M149.02832,36.416v.707H147.7666V40.2002h-.75683V37.12305h-1.26123v-.707Z"/><path class="cls-3" d="M149.36865,36.416h.88819l.87793,1.23632.89794-1.23632h.86768l-1.38721,1.89257V40.2002h-.75683V38.30859Z"/></svg>