<?xml version="1.0" encoding="utf-8"?>
<!-- Generator: Adobe Illustrator 22.1.0, SVG Export Plug-In . SVG Version: 6.00 Build 0)  -->
<svg version="1.1" id="Layer_1" xmlns="http://www.w3.org/2000/svg" xmlns:xlink="http://www.w3.org/1999/xlink" x="0px" y="0px"
	 viewBox="0 0 123.7 14.6" style="enable-background:new 0 0 123.7 14.6;" xml:space="preserve">
<style type="text/css">
	.st0{fill:#D3B372;}
</style>
<title>frame4</title>
<path class="st0" d="M2.4,0.2l2.9,9.6V0.2h2.1v14.2H5.1l-3-9.1v9.1H0V0.2H2.4z"/>
<path class="st0" d="M14.8,11.1l-0.5,3.3h-2.2l2.4-14.2h3l2.4,14.2h-2.3l-0.5-3.3H14.8z M16,3.4l-0.8,5.6h1.6L16,3.4z"/>
<path class="st0" d="M26.7,14.4h-2.1V0.2h3.1l2,10.2l1.9-10.2h3v14.2h-2.1v-9l-1.9,9h-1.7l-2.1-8.9V14.4z"/>
<path class="st0" d="M41.9,11.1l-0.5,3.3h-2.2l2.4-14.2h3l2.4,14.2h-2.3l-0.5-3.3H41.9z M43.1,3.4l-0.8,5.6h1.6L43.1,3.4z"/>
<path class="st0" d="M58.1,10.9c0,0.9-0.2,1.8-0.8,2.5c-0.4,0.5-0.9,0.8-1.5,1c-0.4,0.1-0.8,0.2-1.2,0.2c-0.7,0-1.5-0.2-2.1-0.6
	c-0.5-0.4-0.9-0.8-1.1-1.4c-0.3-0.6-0.4-1.3-0.5-2l2-0.1c0,0.7,0.3,1.3,0.7,1.8c0.2,0.3,0.5,0.4,0.9,0.4c0.5,0,0.9-0.3,1.1-0.7
	c0.2-0.3,0.2-0.6,0.2-0.9c0-0.7-0.3-1.3-0.8-1.8c-0.4-0.4-1.1-1-1.9-1.8c-0.6-0.5-1.1-1.2-1.5-1.9c-0.3-0.6-0.5-1.3-0.5-2
	c-0.1-1.1,0.4-2.2,1.3-2.9c0.6-0.4,1.3-0.6,2-0.6c0.7,0,1.4,0.2,2,0.5c0.4,0.3,0.8,0.7,1,1.1c0.3,0.5,0.4,1.1,0.5,1.6l-2.1,0.4
	c0-0.5-0.2-1-0.5-1.4c-0.2-0.2-0.5-0.4-0.9-0.4c-0.4,0-0.7,0.2-0.9,0.5c-0.2,0.3-0.3,0.7-0.2,1c0,0.7,0.3,1.4,0.8,2
	c0.3,0.3,0.6,0.6,1,0.9c0.5,0.4,0.8,0.7,1,0.9c0.5,0.5,0.9,1,1.2,1.6c0.1,0.2,0.2,0.4,0.3,0.7C57.9,9.9,58.1,10.4,58.1,10.9z"/>
<path class="st0" d="M64.7,2.3h-2.3V0.2h6.7v2.2h-2.3v12.1h-2.1V2.3z"/>
<path class="st0" d="M73.7,14.4V0.2h6.1v2.2h-4v3.9h2.9v2.2h-2.9v3.9h4v2.2L73.7,14.4z"/>
<path class="st0" d="M84.2,12.3h2.1v2.1h-2.1V12.3z"/>
<path class="st0" d="M94.1,14.6c-1.9,0-3.4-1.5-3.4-3.4c0,0,0,0,0,0V3.4c0-0.9,0.3-1.8,1-2.4c0.6-0.6,1.5-1,2.4-1
	c0.9,0,1.8,0.3,2.4,1c0.6,0.6,1,1.5,1,2.4v1.6h-2.2V3.4c0-0.7-0.6-1.2-1.2-1.2c-0.3,0-0.6,0.1-0.9,0.4c-0.2,0.2-0.4,0.5-0.4,0.9v7.8
	c0,0.7,0.5,1.2,1.2,1.2c0,0,0,0,0,0c0.3,0,0.6-0.1,0.9-0.4c0.2-0.2,0.4-0.5,0.4-0.9v-2h2.2v2C97.5,13.1,96,14.6,94.1,14.6
	C94.1,14.6,94.1,14.6,94.1,14.6z"/>
<path class="st0" d="M105.5,0c0.9,0,1.8,0.3,2.4,1c0.6,0.6,1,1.5,1,2.4v7.8c0,1.9-1.5,3.4-3.4,3.4s-3.4-1.5-3.4-3.4V3.4
	c0-0.9,0.3-1.8,1-2.4C103.8,0.3,104.6,0,105.5,0z M106.7,3.4c0-0.7-0.5-1.2-1.2-1.2c0,0,0,0,0,0c-0.3,0-0.6,0.1-0.9,0.4
	c-0.2,0.2-0.4,0.5-0.4,0.9v7.8c0,0.3,0.1,0.6,0.4,0.9c0.2,0.2,0.5,0.4,0.9,0.4c0.7,0,1.2-0.5,1.2-1.2c0,0,0,0,0,0V3.4z"/>
<path class="st0" d="M115.9,14.4h-2.1V0.2h3.1l2,10.2l1.9-10.2h3v14.2h-2.1v-9l-1.9,9h-1.7l-2.1-8.9V14.4z"/>
</svg>
