<svg id="Layer_1" data-name="Layer 1" xmlns="http://www.w3.org/2000/svg" width="76.791" height="38.9922" viewBox="0 0 76.791 38.9922"><defs><style>.cls-1{fill:#ac9655;}</style></defs><title>frame3</title><path class="cls-1" d="M3.3975,14.58a3.283,3.283,0,0,1-2.4092-.9883A3.27,3.27,0,0,1,0,11.1934V.1826H2.1025V11.1709a1.1738,1.1738,0,0,0,.3633.8691,1.2,1.2,0,0,0,.875.3584,1.2237,1.2237,0,0,0,1.2276-1.2275V.1826H6.8066V11.1934a3.2335,3.2335,0,0,1-1,2.4091A3.3221,3.3221,0,0,1,3.3975,14.58Z"/><path class="cls-1" d="M14.0068.1709,16.8574,9.748V.1709h2.1475v14.25H16.6982l-2.955-9.125v9.125H11.5957V.1709Z"/><path class="cls-1" d="M27.18,14.6025a3.3941,3.3941,0,0,1-3.4092-3.3974V3.4326a3.2774,3.2774,0,0,1,1-2.415A3.2927,3.2927,0,0,1,27.18.0234a3.2582,3.2582,0,0,1,2.4092,1,3.3016,3.3016,0,0,1,.9882,2.4092v1.625H28.3506V3.3867a1.2421,1.2421,0,0,0-1.2393-1.2383,1.174,1.174,0,0,0-.8691.3633,1.204,1.204,0,0,0-.3584.875v7.7959a1.222,1.222,0,0,0,1.2275,1.2266,1.2035,1.2035,0,0,0,.875-.3574,1.1767,1.1767,0,0,0,.3643-.8692V9.2168h2.2265v1.9883A3.3941,3.3941,0,0,1,27.18,14.6025Z"/><path class="cls-1" d="M38.583,0a3.2809,3.2809,0,0,1,2.415,1,3.2979,3.2979,0,0,1,.9942,2.4092v7.7734a3.4034,3.4034,0,1,1-6.8067,0V3.4092a3.2772,3.2772,0,0,1,1-2.4141A3.2787,3.2787,0,0,1,38.583,0Zm1.17,3.3643a1.222,1.222,0,0,0-1.2265-1.2276,1.2,1.2,0,0,0-.875.3584,1.1712,1.1712,0,0,0-.3643.8692v7.7949a1.1749,1.1749,0,0,0,.3643.87,1.2029,1.2029,0,0,0,.875.3574,1.22,1.22,0,0,0,1.2265-1.2275Z"/><path class="cls-1" d="M48.8945,14.4209,46.35.1826h2.251l1.7871,11.0986,1.8-11.0986H54.44L51.85,14.4209Z"/><path class="cls-1" d="M59.1152,14.4209V.1709H65.23V2.33H61.2637V6.2168h2.8974V8.375H61.2637v3.8867H65.23v2.1592Z"/><path class="cls-1" d="M72.9727.1826a3.2758,3.2758,0,0,1,2.6367.9883A3.5948,3.5948,0,0,1,76.3477,3.58V5.6484A3.3287,3.3287,0,0,1,75.2,8.2051l1.5908,6.2158H74.4678L73.166,9.0576H71.7344v5.3633H69.5859V.1826Zm1.2841,3.4317A1.09,1.09,0,0,0,73.0293,2.375H71.7344V6.9326h1.2949a1.1712,1.1712,0,0,0,.8691-.3642,1.2,1.2,0,0,0,.3584-.875Z"/><path class="cls-1" d="M15.1133,38.8213H12.9658v-14.25h3.0821l2.0009,10.2363,1.9219-10.2363h2.9609v14.25H20.7832V29.8672L18.92,38.8213H17.1934l-2.08-8.9317Z"/><path class="cls-1" d="M31.0947,24.4A3.4041,3.4041,0,0,1,34.5039,27.81V35.583a3.4033,3.4033,0,1,1-6.8066,0V27.81A3.4059,3.4059,0,0,1,31.0947,24.4Zm1.1709,3.3642a1.2237,1.2237,0,0,0-1.2275-1.2275,1.2,1.2,0,0,0-.875.3584,1.174,1.174,0,0,0-.3633.8691V35.56a1.1777,1.1777,0,0,0,.3633.87,1.2031,1.2031,0,0,0,.875.3574A1.222,1.222,0,0,0,32.2656,35.56Z"/><path class="cls-1" d="M42.668,24.583a3.2735,3.2735,0,0,1,2.6357.9883,3.59,3.59,0,0,1,.7393,2.4092v2.0683a3.326,3.326,0,0,1-1.1485,2.5567l1.5909,6.2158H44.1631L42.8613,33.458H41.4287v5.3633H39.2812V24.583Zm1.2841,3.4316a1.09,1.09,0,0,0-1.2275-1.2392H41.4287V31.333h1.2959a1.1716,1.1716,0,0,0,.8692-.3642,1.2043,1.2043,0,0,0,.3583-.875Z"/><path class="cls-1" d="M51.207,38.8213v-14.25H57.32v2.1592H53.3545v3.8867h2.8984v2.1582H53.3545v3.8867H57.32v2.1592Z"/><path class="cls-1" d="M61.6777,36.6846h2.1485V38.833H61.6777Z"/></svg>