<svg id="Layer_1" data-name="Layer 1" xmlns="http://www.w3.org/2000/svg" width="160" height="600" viewBox="0 0 160 600"><defs><style>.cls-1{fill:#231f20;}.cls-2{fill:#d3b372;}</style></defs><title>frame1</title><rect class="cls-1" width="160" height="600"/><path class="cls-2" d="M41.3613,248.6421a3.3945,3.3945,0,0,1-3.4092-3.3975v-7.7724a3.4034,3.4034,0,1,1,6.8067,0v1.625H42.5317v-1.6709a1.2411,1.2411,0,0,0-1.2387-1.2383,1.174,1.174,0,0,0-.8692.3633,1.2022,1.2022,0,0,0-.3584.875v7.7959a1.222,1.222,0,0,0,1.2276,1.2265,1.2039,1.2039,0,0,0,.875-.3574,1.1757,1.1757,0,0,0,.3637-.8691v-1.9659h2.2271v1.9883a3.3942,3.3942,0,0,1-3.3975,3.3975Z"/><path class="cls-2" d="M51.624,245.188l-.5215,3.2724H48.8662l2.42-14.2382h2.9546L56.6274,248.46H54.3691l-.5024-3.2724Zm1.1284-7.7051-.7954,5.6143h1.5909Z"/><path class="cls-2" d="M63.7246,234.21l2.85,9.5772V234.21h2.148v14.25H66.4155l-2.9546-9.125v9.125H61.3135V234.21Z"/><path class="cls-2" d="M75.9346,234.21l2.85,9.5772V234.21h2.1479v14.25H78.6255l-2.9546-9.125v9.125H73.5234V234.21Z"/><path class="cls-2" d="M88.3652,245.188l-.5214,3.2724H85.6074l2.4209-14.2382h2.9541L93.3691,248.46H91.11l-.502-3.2724Zm1.1289-7.7051-.7959,5.6143h1.5909Z"/><path class="cls-2" d="M97.4219,248.46V234.21h3.2158a4.0945,4.0945,0,0,1,2.2959.6709,3.1227,3.1227,0,0,1,1.25,1.7608,4.96,4.96,0,0,1,.2031,1.5117,3.3512,3.3512,0,0,1-.76,2.2949,2.1662,2.1662,0,0,1-.75.5576,2.4971,2.4971,0,0,1,1.2148,1.0791,4.159,4.159,0,0,1,.4883,1.4092,5.6437,5.6437,0,0,1,.08.9883,4.7482,4.7482,0,0,1-.5118,2.2959,3.2932,3.2932,0,0,1-2.749,1.6816Zm2.3183-8.4316h.8975a1.3151,1.3151,0,0,0,1.3408-.9775,2.765,2.765,0,0,0,.125-.8975,1.8757,1.8757,0,0,0-.4316-1.3408,1.3593,1.3593,0,0,0-1.0342-.4209H99.74Zm0,6.3066h.8975a1.5241,1.5241,0,0,0,1.5117-1.125,2.4684,2.4684,0,0,0,.1475-.8867,2.7009,2.7009,0,0,0-.4541-1.7383,1.4688,1.4688,0,0,0-1.2051-.5H99.74Z"/><path class="cls-2" d="M110.9092,248.46h-2.1485V234.2222h2.1485Z"/><path class="cls-2" d="M122.0488,244.9146a4.0009,4.0009,0,0,1-.7724,2.5458,2.7843,2.7843,0,0,1-1.4776,1.0118,4.0475,4.0475,0,0,1-1.1933.1591,3.38,3.38,0,0,1-2.0909-.625,3.5112,3.5112,0,0,1-1.0966-1.3925,5.6333,5.6333,0,0,1-.4717-2.0166l2.0459-.1485a3.1062,3.1062,0,0,0,.6592,1.8047,1.0981,1.0981,0,0,0,.8857.4,1.3341,1.3341,0,0,0,1.125-.6943,1.716,1.716,0,0,0,.2168-.9434,2.6225,2.6225,0,0,0-.8076-1.7637q-.6357-.6019-1.9092-1.8076a8.15,8.15,0,0,1-1.5107-1.8545,4.2841,4.2841,0,0,1-.4776-2.0019,3.4812,3.4812,0,0,1,1.3067-2.9453,3.2459,3.2459,0,0,1,2-.6035,3.6325,3.6325,0,0,1,1.9658.5117,2.9514,2.9514,0,0,1,1.0283,1.1133,4.1156,4.1156,0,0,1,.4717,1.6484l-2.0567.375a2.4818,2.4818,0,0,0-.5-1.3643,1.0519,1.0519,0,0,0-.8525-.3515.9818.9818,0,0,0-.8975.5224,2.0128,2.0128,0,0,0-.25,1.045,3.1382,3.1382,0,0,0,.8409,1.9892,7.0586,7.0586,0,0,0,.955.9092q.75.624.9883.875a7.286,7.286,0,0,1,1.2276,1.5683,6.0743,6.0743,0,0,1,.3291.67A3.9,3.9,0,0,1,122.0488,244.9146Z"/><path class="cls-2" d="M40.7031,266.8267v6.0341H38.5557V258.6226h2.1474v6.0449h2.5908v-6.0449h2.148v14.2382h-2.148v-6.0341Z"/><path class="cls-2" d="M52.875,269.5884l-.5215,3.2724H50.1172l2.42-14.2382h2.9546l2.3862,14.2382H55.62l-.5024-3.2724Zm1.1284-7.7051-.7954,5.6143h1.5908Z"/><path class="cls-2" d="M69.019,269.3149a4.0063,4.0063,0,0,1-.7724,2.5459,2.7859,2.7859,0,0,1-1.4776,1.0118,4.0482,4.0482,0,0,1-1.1928.1591,3.3815,3.3815,0,0,1-2.0913-.625,3.5015,3.5015,0,0,1-1.0962-1.3925,5.6128,5.6128,0,0,1-.4717-2.0166l2.0454-.1485a3.1062,3.1062,0,0,0,.6592,1.8047,1.0994,1.0994,0,0,0,.8862.4,1.3341,1.3341,0,0,0,1.125-.6943,1.7244,1.7244,0,0,0,.2158-.9434,2.6232,2.6232,0,0,0-.8066-1.7637q-.6364-.6019-1.9092-1.8076a8.154,8.154,0,0,1-1.5112-1.8545,4.2841,4.2841,0,0,1-.4776-2.0019,3.48,3.48,0,0,1,1.3072-2.9453,3.2431,3.2431,0,0,1,2-.6036,3.6361,3.6361,0,0,1,1.9658.5118,2.9637,2.9637,0,0,1,1.0283,1.1132,4.1327,4.1327,0,0,1,.4717,1.6485l-2.0571.375a2.48,2.48,0,0,0-.5-1.3643,1.05,1.05,0,0,0-.8521-.3515.9814.9814,0,0,0-.8979.5224,2.0166,2.0166,0,0,0-.25,1.0449,3.1362,3.1362,0,0,0,.8413,1.9893,7.0793,7.0793,0,0,0,.9541.9092q.75.624.9887.875a7.286,7.286,0,0,1,1.2276,1.5683,6.0848,6.0848,0,0,1,.33.67A3.9067,3.9067,0,0,1,69.019,269.3149Z"/><path class="cls-2" d="M82.09,272.8608v-14.25h3.2159a4.0948,4.0948,0,0,1,2.2959.6709,3.1224,3.1224,0,0,1,1.25,1.7608,4.99,4.99,0,0,1,.2041,1.5117,3.3463,3.3463,0,0,1-.7608,2.2949,2.1662,2.1662,0,0,1-.75.5576,2.4982,2.4982,0,0,1,1.2158,1.0791,4.1974,4.1974,0,0,1,.4883,1.4092,5.6385,5.6385,0,0,1,.0791.9883,4.76,4.76,0,0,1-.5107,2.2959,3.293,3.293,0,0,1-2.75,1.6816Zm2.3184-8.4316h.8975a1.3152,1.3152,0,0,0,1.3408-.9775,2.7654,2.7654,0,0,0,.125-.8975,1.8757,1.8757,0,0,0-.4317-1.3408,1.3589,1.3589,0,0,0-1.0341-.4209h-.8975Zm0,6.3066h.8975a1.5241,1.5241,0,0,0,1.5117-1.125,2.4684,2.4684,0,0,0,.1474-.8867,2.7,2.7,0,0,0-.4541-1.7383,1.4686,1.4686,0,0,0-1.205-.5h-.8975Z"/><path class="cls-2" d="M93.4141,272.8608v-14.25h6.1132V260.77H95.5615v3.8867H98.459v2.1582H95.5615v3.8868h3.9658v2.1591Z"/><path class="cls-2" d="M103.5645,272.8608v-14.25h6.1132V260.77h-3.9648v3.8867h2.8965v2.1582h-2.8965v3.8868h3.9648v2.1591Z"/><path class="cls-2" d="M116.4463,258.6108l2.8506,9.5772v-9.5772h2.1474v14.25h-2.3066l-2.9541-9.125v9.125h-2.1484v-14.25Z"/><path class="cls-2" d="M64.4521,297.4194a3.3743,3.3743,0,0,1-3.3974-3.3867V283.022h2.102V294.01a1.1725,1.1725,0,0,0,.3638.8691,1.2,1.2,0,0,0,.875.3584,1.223,1.223,0,0,0,1.2271-1.2275V283.022h2.2387v11.0107a3.2356,3.2356,0,0,1-1,2.4092A3.3229,3.3229,0,0,1,64.4521,297.4194Z"/><path class="cls-2" d="M78.665,293.7144a4.0065,4.0065,0,0,1-.7724,2.5459,2.7863,2.7863,0,0,1-1.4776,1.0117,4.048,4.048,0,0,1-1.1928.1592,3.3822,3.3822,0,0,1-2.0913-.625,3.5018,3.5018,0,0,1-1.0962-1.3926,5.6123,5.6123,0,0,1-.4717-2.0166l2.0454-.1485a3.1062,3.1062,0,0,0,.6592,1.8047,1.0991,1.0991,0,0,0,.8862.4,1.3341,1.3341,0,0,0,1.125-.6943,1.7242,1.7242,0,0,0,.2158-.9434,2.6232,2.6232,0,0,0-.8066-1.7637q-.6365-.602-1.9092-1.8076a8.154,8.154,0,0,1-1.5112-1.8545,4.2841,4.2841,0,0,1-.4776-2.0019,3.48,3.48,0,0,1,1.3072-2.9453,3.243,3.243,0,0,1,2-.6035,3.637,3.637,0,0,1,1.9658.5117,2.9633,2.9633,0,0,1,1.0283,1.1133,4.1317,4.1317,0,0,1,.4717,1.6484l-2.0571.375a2.48,2.48,0,0,0-.5-1.3643,1.0505,1.0505,0,0,0-.8521-.3515.9813.9813,0,0,0-.8979.5224,2.0167,2.0167,0,0,0-.25,1.045,3.1361,3.1361,0,0,0,.8413,1.9892,7.0731,7.0731,0,0,0,.9541.9092q.75.624.9887.875a7.284,7.284,0,0,1,1.2276,1.5684,6.0753,6.0753,0,0,1,.33.67A3.9067,3.9067,0,0,1,78.665,293.7144Z"/><path class="cls-2" d="M82.3662,297.26V283.01H88.48v2.1591H84.5137v3.8868h2.8974v2.1582H84.5137v3.8867H88.48V297.26Z"/><path class="cls-2" d="M98.9463,293.8511a3.3027,3.3027,0,0,1-.9883,2.4092,3.2337,3.2337,0,0,1-2.3867,1h-3.375V283.01h3.375a3.2294,3.2294,0,0,1,2.3926,1,3.3025,3.3025,0,0,1,.9824,2.3974Zm-4.6025,1.2842H95.64a1.146,1.146,0,0,0,.8633-.3692,1.2161,1.2161,0,0,0,.3526-.8691v-7.4551a1.202,1.202,0,0,0-.3584-.875,1.1607,1.1607,0,0,0-.8575-.3633H94.3438Z"/><path class="cls-2" d="M32.4424,318.1152a4.007,4.007,0,0,1-.7725,2.5459,2.7856,2.7856,0,0,1-1.4775,1.0118A4.0489,4.0489,0,0,1,29,321.832a3.3822,3.3822,0,0,1-2.0913-.625,3.5033,3.5033,0,0,1-1.0962-1.3925,5.6149,5.6149,0,0,1-.4717-2.0166l2.0454-.1485a3.1076,3.1076,0,0,0,.6592,1.8047,1.1,1.1,0,0,0,.8863.4,1.3341,1.3341,0,0,0,1.125-.6943,1.7253,1.7253,0,0,0,.2158-.9434,2.6234,2.6234,0,0,0-.8067-1.7637q-.6364-.6019-1.9091-1.8076a8.1549,8.1549,0,0,1-1.5113-1.8545,4.2853,4.2853,0,0,1-.4775-2.0019,3.48,3.48,0,0,1,1.3071-2.9453,3.2431,3.2431,0,0,1,2-.6036,3.6359,3.6359,0,0,1,1.9658.5118,2.9639,2.9639,0,0,1,1.0284,1.1132,4.1326,4.1326,0,0,1,.4716,1.6485l-2.0571.375a2.478,2.478,0,0,0-.5-1.3643,1.05,1.05,0,0,0-.852-.3515.9814.9814,0,0,0-.898.5224,2.0166,2.0166,0,0,0-.25,1.0449,3.1367,3.1367,0,0,0,.8413,1.9893,7.0793,7.0793,0,0,0,.9541.9092q.75.624.9888.875a7.2829,7.2829,0,0,1,1.2275,1.5683,6.0669,6.0669,0,0,1,.33.67A3.9071,3.9071,0,0,1,32.4424,318.1152Z"/><path class="cls-2" d="M40.4927,307.4229a3.2718,3.2718,0,0,1,2.5.9882,3.4293,3.4293,0,0,1,.8637,2.4092v2.0684a3.3152,3.3152,0,0,1-.9829,2.4092,3.2185,3.2185,0,0,1-2.3808,1H39.2539v5.3632H37.1064V307.4229Zm1.2842,3.4316a1.2234,1.2234,0,0,0-.3355-.8975,1.1948,1.1948,0,0,0-.8921-.3418H39.2539v4.5577h1.2954a1.1721,1.1721,0,0,0,.87-.3643,1.2036,1.2036,0,0,0,.358-.875Z"/><path class="cls-2" d="M50.6,321.6611H48.4521V307.4229H50.6Z"/><path class="cls-2" d="M58.7866,307.4229a3.2745,3.2745,0,0,1,2.6363.9882,3.5928,3.5928,0,0,1,.7387,2.4092v2.0684a3.3272,3.3272,0,0,1-1.1479,2.5566l1.5908,6.2158H60.2822L58.98,316.2979H57.5479v5.3632H55.4V307.4229Zm1.2842,3.4316a1.09,1.09,0,0,0-1.2275-1.2393H57.5479v4.5577h1.2954a1.1722,1.1722,0,0,0,.87-.3643,1.2035,1.2035,0,0,0,.3579-.875Z"/><path class="cls-2" d="M69.4731,321.6611H67.3257V307.4229h2.1474Z"/><path class="cls-2" d="M76.3647,309.582H74.0806v-2.1591h6.7046v2.1591h-2.273v12.0791H76.3647Z"/><path class="cls-2" d="M88.7773,321.82a3.3744,3.3744,0,0,1-3.3974-3.3867V307.4229h2.1025v10.9882a1.174,1.174,0,0,0,.3633.8692,1.2,1.2,0,0,0,.875.3584,1.2237,1.2237,0,0,0,1.2275-1.2276V307.4229h2.2383v11.0107a3.2337,3.2337,0,0,1-1,2.4092A3.3224,3.3224,0,0,1,88.7773,321.82Z"/><path class="cls-2" d="M99.3018,318.3887l-.5215,3.2724H96.5439l2.4209-14.2382h2.9541l2.3858,14.2382h-2.2578l-.502-3.2724Zm1.1289-7.7051-.7959,5.6143h1.5908Z"/><path class="cls-2" d="M114.8438,321.6611h-5.8526V307.4229H111.14v12.1015h3.7042Z"/><path class="cls-2" d="M125.0527,321.6611H119.2V307.4229h2.1484v12.1015h3.7041Z"/><path class="cls-2" d="M129.625,315.6953l-2.875-8.2842h2.3643l1.5908,5.1133,1.5791-5.1133h2.375l-2.8858,8.2842v5.9658H129.625Z"/></svg>