<?xml version="1.0" encoding="utf-8"?>
<!-- Generator: Adobe Illustrator 23.0.1, SVG Export Plug-In . SVG Version: 6.00 Build 0)  -->
<svg version="1.1" id="Content" xmlns="http://www.w3.org/2000/svg" xmlns:xlink="http://www.w3.org/1999/xlink" x="0px" y="0px"
	 viewBox="0 0 728 90" style="enable-background:new 0 0 728 90;" xml:space="preserve">
<style type="text/css">
	.st0{fill:url(#SVGID_1_);}
	.st1{fill:url(#SVGID_2_);}
	.st2{fill:url(#SVGID_3_);}
	.st3{fill:url(#SVGID_4_);}
	.st4{fill:url(#SVGID_5_);}
	.st5{fill:url(#SVGID_6_);}
	.st6{fill:url(#SVGID_7_);}
	.st7{fill:url(#SVGID_8_);}
	.st8{fill:url(#SVGID_9_);}
	.st9{fill:#A89255;}
	.st10{fill:url(#SVGID_10_);}
	.st11{enable-background:new    ;}
	.st12{fill:#FFFFFF;}
</style>
<title>CTA</title>
<linearGradient id="SVGID_1_" gradientUnits="userSpaceOnUse" x1="93.2177" y1="57.2521" x2="146.0731" y2="57.2521" gradientTransform="matrix(1 0 0 -1 0 92)">
	<stop  offset="0" style="stop-color:#A88A34"/>
	<stop  offset="0.4932" style="stop-color:#CAAF67"/>
	<stop  offset="1" style="stop-color:#957F2E"/>
</linearGradient>
<path class="st0" d="M116.4,52.5c0.6-0.2,1.6,0.8,1.7,0.8c0.2-0.2,0.3-0.5,0.3-0.8c0-0.3-0.2-1-0.3-1.4c0-0.4-0.1-0.8-0.2-1.2
	c-0.1-0.3-0.7-0.4-1-0.6c-0.3-0.2-0.6-0.4-0.8-0.6c-0.2-0.4-0.3-0.8-0.4-1.2c0-0.4-0.1-0.8-0.2-1.2c-0.1-0.2-0.4-0.4-0.6-0.6
	c-0.1-0.1-0.2-0.3-0.2-0.5c0.2,0,0.2,0.4,0.4,0.4s0.2,0.2,0.4,0.3c0.3,0.1,0.3,0.2,0.3,0.5s0.4,1.1,0.5,1.5c0.1,0.4,0.2,0.6,0.6,0.6
	c0.4,0,0.3,0.2,0.7,0.2c0.3,0,0.7,0.1,1,0.2c0.2,0.1,0.5,0.1,0.6-0.1c0.1-0.2-0.1-0.8-0.1-0.8c-0.1,0-0.2-0.2-0.2-0.4
	c-0.1-0.2,0-0.2,0-0.2c-0.1-0.4,0.1-0.8,0.5-1c0.4-0.1,0.8,0.1,1,0.5c0,0.2,0,0.3,0,0.5c0,0,0.1,0,0,0.2c-0.1,0.2-0.1,0.4-0.2,0.4
	c0,0-0.2,0.6-0.1,0.8c0.1,0.2,0.4,0.2,0.6,0.1c0.3-0.1,0.7-0.2,1-0.2c0.4,0,0.4-0.2,0.7-0.2c0.4,0,0.5-0.3,0.6-0.6
	c0.1-0.4,0.4-1.2,0.5-1.5s0-0.4,0.3-0.5c0.3-0.1,0.3-0.2,0.4-0.3s0.2-0.4,0.4-0.4c0,0.2-0.1,0.4-0.2,0.5c-0.2,0.2-0.5,0.4-0.6,0.6
	c-0.1,0.4-0.2,0.8-0.2,1.2c0,0.4-0.1,0.9-0.4,1.2c-0.3,0.2-0.5,0.4-0.8,0.6c-0.3,0.2-1,0.3-1,0.6c-0.1,0.4-0.2,0.8-0.2,1.2
	c0,0.4-0.3,1.1-0.3,1.4c0,0.3,0.1,0.6,0.3,0.8c0.1,0,1.1-1,1.7-0.8c0.6,0.2,0.3,1-0.2,1.6c-0.3,0.4-0.8,0.6-1.2,0.8
	c0.3,0,0.6,0.1,0.9,0.2c1,0.4,1.9,0.9,2.7,1.5c0.7,0.6,1.5,1,2.4,1.4c0.1,0,0.2,0,0.2,0.1c0.1-0.1,0.5-0.3,0.5-0.3
	c0.3,0.2,0.7,0.3,1.1,0.5l-2.7-2.1l5.5,2.4c0.1,0,0.2,0.1,0.3,0.1l3.3,0.1c0.9,0,1.7,0,2.5-0.1c-0.6-0.4-1.3-0.8-2.1-1.2l-2.9-1.4
	c-0.1,0-0.2,0-0.3,0l-6.3-0.4l4.1-0.7l-2.7-0.9l4.5,0c1,0,2.1-0.1,3.1-0.3l-4.3-0.8l6.3-0.3c0.4,0,0.7-0.1,1.1-0.1l-0.5,0.1l4.2-1.9
	c1.3-0.6,2.6-1.3,3.8-2.1c-1.5-0.2-3-0.3-4.5-0.3l-4.7,0l0.5-0.2c-0.4,0.1-0.8,0.2-1.1,0.3l-5.5,2.3l3.3-2.5l0,0l-0.1-0.6l-0.6-1
	c1.8-1.3,3.3-2.9,4.5-4.7l-4.5,2.1l4.5-3.8c0.6-0.4,1-1,1.4-1.6c0.6-0.9,1.1-1.8,1.6-2.7l-1.4,1.4l1.7-3.7c1-2.2,1.8-4.5,2.5-6.9
	c-2.3,1.3-4.6,2.7-6.7,4.3l-3.3,2.5l1.1-1.6c-0.9,0.7-1.7,1.5-2.5,2.3c-0.5,0.5-0.9,1.1-1.2,1.7l-2.4,4.6l0.9-4.2
	c-0.7,0.7-1.3,1.5-1.9,2.3l-0.4,0.6l-0.4-0.3c0,0,0,0.1-0.1,0.1l-3.3,6.3l2-6.8c0.8-2.8,1-5.7,0.6-8.6l-2.3,4.2L125,29
	c0.2-0.8,0.2-1.7,0.2-2.5c-0.2-1.7-0.5-3.5-0.9-5.1l-0.3,2.5l-1-3.6c-0.9-3.1-2-6.2-3.4-9.1c-1.4,3-2.5,6-3.4,9.1l-1,3.6l-0.3-2.5
	c-0.4,1.7-0.7,3.4-0.9,5.1c-0.1,0.9,0,1.7,0.2,2.5l1.1,5.1l-2.3-4.2c-0.4,2.9-0.1,5.8,0.6,8.6l2,6.8l-3.3-6.3c0,0,0-0.1-0.1-0.1
	l-0.4,0.3l-0.4-0.6c-0.6-0.8-1.2-1.6-1.9-2.3l0.9,4.2l-2.4-4.6c-0.3-0.6-0.7-1.2-1.2-1.7c-0.8-0.8-1.6-1.6-2.5-2.3l1.1,1.6l-3.3-2.5
	c-2.1-1.6-4.4-3-6.7-4.3c0.7,2.4,1.5,4.7,2.5,6.9l1.7,3.7l-1.4-1.4c0.5,0.9,1,1.8,1.6,2.7c0.4,0.6,0.9,1.1,1.4,1.6l4.5,3.8l-4.5-2.1
	c1.2,1.8,2.8,3.4,4.5,4.7l-0.6,1l-0.1,0.6l0,0l3.3,2.5l-5.5-2.3c-0.4-0.2-0.7-0.3-1.1-0.3l0.5,0.2l-4.7,0c-1.5,0-3,0.1-4.5,0.3
	c1.2,0.8,2.5,1.5,3.8,2.1l4.2,1.9l-0.5-0.1c0.3,0.1,0.7,0.1,1.1,0.1l6.3,0.3l-4.3,0.8c1,0.2,2.1,0.3,3.1,0.3l4.6,0l-2.7,0.9l4.1,0.7
	l-6.3,0.4c-0.1,0-0.2,0-0.3,0l-2.9,1.4c-0.7,0.4-1.4,0.8-2.1,1.2c0.8,0.1,1.6,0.1,2.5,0.1l3.3-0.1c0.1,0,0.2-0.1,0.3-0.1l5.5-2.4
	l-2.7,2.1c0.4-0.1,0.7-0.3,1.1-0.5c0,0,0.4,0.2,0.5,0.3c0.1,0,0.2,0,0.2-0.1c0.9-0.3,1.7-0.8,2.4-1.4c0.8-0.6,1.7-1.2,2.7-1.5
	c0.3-0.1,0.6-0.1,0.9-0.2c-0.5-0.1-0.9-0.4-1.2-0.8C116.1,53.4,115.9,52.6,116.4,52.5z"/>
<linearGradient id="SVGID_2_" gradientUnits="userSpaceOnUse" x1="146.875" y1="-56.8696" x2="146.875" y2="31.7837" gradientTransform="matrix(1 0 0 -1 0 92)">
	<stop  offset="0" style="stop-color:#A88A34"/>
	<stop  offset="0.4989" style="stop-color:#CAAF67"/>
	<stop  offset="1" style="stop-color:#957F2E"/>
</linearGradient>
<polygon class="st1" points="150,63.6 150,62 143.7,62 143.7,70.6 150,70.6 150,69 145.4,69 145.4,67 148.9,67 148.9,65.4 
	145.4,65.4 145.4,63.6 "/>
<linearGradient id="SVGID_3_" gradientUnits="userSpaceOnUse" x1="122.3176" y1="-10.7172" x2="122.3176" y2="54.7418" gradientTransform="matrix(1 0 0 -1 0 92)">
	<stop  offset="0" style="stop-color:#A88A34"/>
	<stop  offset="0.4989" style="stop-color:#CAAF67"/>
	<stop  offset="1" style="stop-color:#957F2E"/>
</linearGradient>
<path class="st2" d="M121.5,62l-3.4,8.6h1.8l0.5-1.3h3.9l0.5,1.3l1.8,0l-3.4-8.6L121.5,62z M121.1,67.6l1.3-3.3l1.3,3.3H121.1z"/>
<linearGradient id="SVGID_4_" gradientUnits="userSpaceOnUse" x1="130.6388" y1="-33.1683" x2="130.6388" y2="52.9756" gradientTransform="matrix(1 0 0 -1 0 92)">
	<stop  offset="0" style="stop-color:#A88A34"/>
	<stop  offset="0.4989" style="stop-color:#CAAF67"/>
	<stop  offset="1" style="stop-color:#957F2E"/>
</linearGradient>
<path class="st3" d="M133,66.2c-0.6-0.4-1.3-0.6-2-0.7c-0.5,0-0.9-0.2-1.3-0.5c-0.2-0.2-0.2-0.6,0-0.8c0.2-0.3,0.6-0.5,1.3-0.5
	c0.6,0,1.2,0.2,1.6,0.7l1.1-1.1c-0.4-0.4-0.8-0.7-1.2-0.9c-0.6-0.2-1.2-0.3-1.9-0.3c-0.7,0-1.4,0.3-2,0.7c-0.6,0.4-1,1.1-1,1.8
	c-0.1,0.7,0.3,1.4,0.9,1.8c0.6,0.3,1.2,0.6,1.9,0.6c0.8,0.1,1.2,0.3,1.4,0.6c0.2,0.3,0.2,0.7,0,1c-0.2,0.3-0.7,0.5-1.4,0.5
	c-0.7,0-1.4-0.3-1.9-0.8l-1.1,1.1c0.4,0.4,0.9,0.7,1.4,0.9c0.6,0.2,1.3,0.4,2,0.3c0.8,0,1.6-0.2,2.2-0.7c0.6-0.4,0.9-1.1,0.9-1.8
	C134,67.3,133.6,66.6,133,66.2z"/>
<linearGradient id="SVGID_5_" gradientUnits="userSpaceOnUse" x1="138.7325" y1="-35.1308" x2="138.7325" y2="40.2729" gradientTransform="matrix(1 0 0 -1 0 92)">
	<stop  offset="0" style="stop-color:#A88A34"/>
	<stop  offset="0.4989" style="stop-color:#CAAF67"/>
	<stop  offset="1" style="stop-color:#957F2E"/>
</linearGradient>
<polygon class="st4" points="135,63.6 137.9,63.6 137.9,70.6 139.6,70.6 139.6,63.6 142.5,63.6 142.5,62 135,62 "/>
<linearGradient id="SVGID_6_" gradientUnits="userSpaceOnUse" x1="93.098" y1="17.7317" x2="93.098" y2="90.587" gradientTransform="matrix(1 0 0 -1 0 92)">
	<stop  offset="0" style="stop-color:#A88A34"/>
	<stop  offset="0.4989" style="stop-color:#CAAF67"/>
	<stop  offset="1" style="stop-color:#957F2E"/>
</linearGradient>
<polygon class="st5" points="95.2,67.4 89.8,62 89.3,62 89.3,70.6 91,70.6 91,65.3 96.3,70.6 96.9,70.6 96.9,62 95.2,62 "/>
<linearGradient id="SVGID_7_" gradientUnits="userSpaceOnUse" x1="112.4545" y1="-0.6736" x2="112.4545" y2="64.404" gradientTransform="matrix(1 0 0 -1 0 92)">
	<stop  offset="0" style="stop-color:#A88A34"/>
	<stop  offset="0.4989" style="stop-color:#CAAF67"/>
	<stop  offset="1" style="stop-color:#957F2E"/>
</linearGradient>
<polygon class="st6" points="112.5,66.2 108.7,62 108.2,62 108.2,70.6 109.9,70.6 109.9,65.6 112.5,68.5 115,65.6 115,70.6 
	116.8,70.6 116.8,62 116.2,62 "/>
<linearGradient id="SVGID_8_" gradientUnits="userSpaceOnUse" x1="102.5685" y1="9.0451" x2="102.5685" y2="74.5039" gradientTransform="matrix(1 0 0 -1 0 92)">
	<stop  offset="0" style="stop-color:#A88A34"/>
	<stop  offset="0.4989" style="stop-color:#CAAF67"/>
	<stop  offset="1" style="stop-color:#957F2E"/>
</linearGradient>
<path class="st7" d="M101.7,62l-3.4,8.6h1.8l0.5-1.3h3.9l0.5,1.3l1.8,0l-3.4-8.6L101.7,62z M101.3,67.6l1.3-3.3l1.3,3.3H101.3z"/>
<linearGradient id="SVGID_9_" gradientUnits="userSpaceOnUse" x1="150.3792" y1="31.9639" x2="154.0204" y2="31.9639" gradientTransform="matrix(1 0 0 -1 0 92)">
	<stop  offset="0" style="stop-color:#A88A34"/>
	<stop  offset="0.1878" style="stop-color:#CAAF67"/>
	<stop  offset="0.461" style="stop-color:#A08A4A"/>
	<stop  offset="0.7634" style="stop-color:#CAAF67"/>
	<stop  offset="1" style="stop-color:#957F2E"/>
</linearGradient>
<path class="st8" d="M151.3,59.4V61H151v-1.6h-0.6v-0.3h1.5v0.3H151.3z M153.7,61l0-1.4l-0.6,1.2h-0.2l-0.6-1.2V61h-0.3v-1.8h0.4
	l0.6,1.2l0.6-1.2h0.4V61H153.7z"/>
<path class="st9" d="M103.7,76.8c0.6,0.3,0.8,1.1,0.4,1.7c-0.2,0.4-0.7,0.6-1.1,0.6l-2.4,0v-4.3h2.3c0.7,0,1.1,0.5,1.1,1.3
	C104.1,76.3,104,76.6,103.7,76.8z M101.5,76.5h1.2c0.3,0,0.5-0.2,0.5-0.4c0,0,0-0.1,0-0.1c0-0.2-0.2-0.3-0.5-0.3h-1.2L101.5,76.5z
	 M101.5,78.4h1.4c0.3,0,0.6-0.2,0.6-0.5c0,0,0-0.1,0-0.1c0-0.3-0.2-0.4-0.6-0.4h-1.4L101.5,78.4z"/>
<path class="st9" d="M104.9,74.7h1l1,1.4l1-1.4h1l-1.6,2.1V79h-0.9v-2.1L104.9,74.7z"/>
<path class="st9" d="M114.9,79h-3.4l0-0.3l2-3.2h-2l0-0.8h3.4v0.3l-2,3.2h2L114.9,79z"/>
<path class="st9" d="M116,79v-4.3l3.1,0v0.8h-2.3v0.9h1.7v0.8h-1.7v1h2.3V79L116,79z"/>
<path class="st9" d="M120,79v-4.3h0.3l2.7,2.7v-2.7h0.9V79h-0.3l-2.6-2.6V79H120z"/>
<path class="st9" d="M124.4,79l1.7-4.3h0.9l1.7,4.3l-0.9,0l-0.3-0.7h-1.9l-0.3,0.7L124.4,79z M126.6,75.9l-0.6,1.6h1.3L126.6,75.9z"
	/>
<path class="st9" d="M132.4,76.8c0.6,0.3,0.8,1.1,0.4,1.7c-0.2,0.4-0.7,0.6-1.1,0.6l-2.4,0v-4.3h2.3c0.7,0,1.1,0.5,1.1,1.3
	C132.7,76.3,132.6,76.6,132.4,76.8z M130.1,76.5h1.2c0.3,0,0.5-0.2,0.5-0.4c0,0,0-0.1,0-0.1c0-0.2-0.2-0.3-0.5-0.3h-1.2V76.5z
	 M130.1,78.4h1.4c0.3,0,0.6-0.2,0.6-0.5c0,0,0-0.1,0-0.1c0-0.3-0.2-0.4-0.6-0.4h-1.4V78.4z"/>
<path class="st9" d="M133.8,74.7h0.9V79h-0.9V74.7z"/>
<path class="st9" d="M137.9,74.9c0.2,0.1,0.4,0.2,0.6,0.4l-0.6,0.6c-0.2-0.2-0.5-0.4-0.8-0.3c-0.3,0-0.6,0.1-0.7,0.2
	c-0.1,0.1-0.1,0.3,0,0.4c0.2,0.2,0.4,0.2,0.7,0.3c0.4,0,0.7,0.2,1,0.4c0.3,0.2,0.5,0.6,0.4,1c0,0.4-0.2,0.7-0.5,0.9
	c-0.3,0.2-0.7,0.4-1.1,0.4c-0.3,0-0.7,0-1-0.2c-0.3-0.1-0.5-0.3-0.7-0.5l0.6-0.6c0.3,0.3,0.6,0.4,1,0.4c0.4,0,0.6-0.1,0.7-0.2
	c0.1-0.1,0.1-0.3,0-0.5c-0.1-0.2-0.3-0.3-0.7-0.3c-0.3,0-0.7-0.1-0.9-0.3c-0.3-0.2-0.5-0.5-0.4-0.9c0-0.4,0.2-0.7,0.5-0.9
	c0.3-0.2,0.6-0.3,1-0.3C137.3,74.7,137.6,74.8,137.9,74.9z"/>
<rect x="89.3" y="76.8" class="st9" width="7.7" height="0.9"/>
<rect x="142.4" y="76.8" class="st9" width="7.7" height="0.9"/>
<linearGradient id="SVGID_10_" gradientUnits="userSpaceOnUse" x1="608.3531" y1="36.166" x2="784.681" y2="61.086" gradientTransform="matrix(1 0 0 -1 0 92)">
	<stop  offset="0" style="stop-color:#A88A34"/>
	<stop  offset="0.1878" style="stop-color:#CAAF67"/>
	<stop  offset="0.461" style="stop-color:#A08A4A"/>
	<stop  offset="0.7634" style="stop-color:#CAAF67"/>
	<stop  offset="1" style="stop-color:#957F2E"/>
</linearGradient>
<polygon class="st10" points="731,29.4 639,29.4 628.6,45 639,60.6 731,60.6 "/>
<g class="st11">
	<path class="st12" d="M645.1,42.1v5.8h3.8v1.3h-5.2v-7.1H645.1z"/>
	<path class="st12" d="M650.1,49.2v-7.1l5.2,0v1.3h-3.8v1.5h2.8v1.3h-2.8v1.6h3.8v1.3H650.1z"/>
	<path class="st12" d="M656.3,49.2l2.8-7.1h1.4l2.8,7.1l-1.5,0l-0.4-1.1h-3.2l-0.4,1.1H656.3z M659.9,44l-1.1,2.7h2.1L659.9,44z"/>
	<path class="st12" d="M668.7,46.1l1.8,3.1h-1.6l-1.7-2.9h-1.3v2.9h-1.4v-7.1h3.1c1.7,0,2.5,0.7,2.5,2
		C670,45.2,669.6,45.8,668.7,46.1z M665.9,44.9h2c0.6,0,0.9-0.3,0.9-0.8c0-0.5-0.3-0.7-0.9-0.7h-2V44.9z"/>
	<path class="st12" d="M671.2,49.2v-7.1h0.5l4.4,4.4v-4.4h1.4v7.1H677l-4.4-4.4v4.4H671.2z"/>
	<path class="st12" d="M682.3,49.2v-7.1h0.5l3.1,3.5l3.1-3.5h0.5v7.1H688l0-4.1l-2.1,2.4l-2.1-2.4v4.1H682.3z"/>
	<path class="st12" d="M691.5,48.2c-0.7-0.7-1-1.5-1-2.5c0-1,0.3-1.8,1-2.5c0.7-0.7,1.5-1,2.5-1c1,0,1.8,0.3,2.5,1s1,1.5,1,2.5
		c0,1-0.3,1.8-1,2.5c-0.7,0.7-1.5,1-2.5,1C693,49.2,692.2,48.8,691.5,48.2z M694,47.9c0.6,0,1.1-0.2,1.5-0.6c0.4-0.4,0.6-1,0.6-1.6
		s-0.2-1.2-0.6-1.6c-0.4-0.4-0.9-0.6-1.5-0.6c-0.6,0-1.1,0.2-1.5,0.6s-0.6,1-0.6,1.6s0.2,1.2,0.6,1.6
		C692.9,47.6,693.4,47.9,694,47.9z"/>
	<path class="st12" d="M702.9,46.1l1.8,3.1H703l-1.7-2.9H700v2.9h-1.4v-7.1h3.1c1.7,0,2.5,0.7,2.5,2
		C704.2,45.2,703.7,45.8,702.9,46.1z M700,44.9h2c0.6,0,0.9-0.3,0.9-0.8c0-0.5-0.3-0.7-0.9-0.7h-2V44.9z"/>
	<path class="st12" d="M705.4,49.2v-7.1l5.2,0v1.3h-3.8v1.5h2.8v1.3h-2.8v1.6h3.8v1.3H705.4z"/>
</g>
</svg>
