<?xml version="1.0" encoding="utf-8"?>
<!-- Generator: Adobe Illustrator 23.0.1, SVG Export Plug-In . SVG Version: 6.00 Build 0)  -->
<svg version="1.1" id="Layer_2" xmlns="http://www.w3.org/2000/svg" xmlns:xlink="http://www.w3.org/1999/xlink" x="0px" y="0px"
	 viewBox="0 0 37 52" style="enable-background:new 0 0 37 52;" xml:space="preserve">
<style type="text/css">
	.st0{fill:url(#SVGID_1_);}
	.st1{fill:#FFFFFF;}
	.st2{fill:#BA9544;}
</style>
<g>
	<g>
		<linearGradient id="SVGID_1_" gradientUnits="userSpaceOnUse" x1="1.9592" y1="19.1945" x2="35.2664" y2="19.1945">
			<stop  offset="0" style="stop-color:#A88A34"/>
			<stop  offset="0.4932" style="stop-color:#CAAF67"/>
			<stop  offset="1" style="stop-color:#957F2E"/>
		</linearGradient>
		<polygon class="st0" points="30.78,30.41 16.89,35.74 4.07,28.2 1.96,13.48 12.16,2.65 26.98,3.87 35.27,16.23 		"/>
		<path class="st1" d="M25.66,24.44c0,0,0.24-2.96-2.36-4.89c0,0,0.74-0.27,1.12-0.14c0,0-0.53-1.4-2.25-2.03
			c0,0,0.6-0.22,0.88-0.11c0,0-1.31-2.14-4.68-3.08c0,0,0.73-0.18,0.85-0.11c0,0-3.49-1.93-6.82,0.24c0,0,2.82,1.49,3.94,3.03
			c0,0-3.87-2.47-4.43-2.43c0,0-1.74,4.13,2.68,7.75c0,0-0.18-0.52-0.11-0.85c0,0,1.76,2.12,3.47,2.69c0,0-0.1-0.52,0.01-0.83
			c0,0,1.19,1.22,2.45,1.4c0,0-0.27-0.74-0.08-1.13C20.33,23.96,23.17,25.64,25.66,24.44"/>
	</g>
	<g>
		<path class="st2" d="M4.77,51.48v-6.12h0.41l2.65,3.02l2.66-3.02h0.41v6.12H9.67l0-3.55l-1.84,2.04l-1.84-2.04v3.55H4.77z"/>
		<path class="st2" d="M12.11,45.36h1.22v6.13h-1.22V45.36z"/>
		<path class="st2" d="M14.56,51.48v-6.12h0.41l3.84,3.83v-3.83h1.22v6.12h-0.45l-3.79-3.79v3.79H14.56z"/>
		<path class="st2" d="M26.29,45.36v1.14h-2.04v4.98h-1.22V46.5h-2.04v-1.14H26.29z"/>
		<path class="st2" d="M26.84,45.36h1.44l1.42,2l1.45-2h1.4l-2.24,3.06v3.06h-1.22v-3.06L26.84,45.36z"/>
	</g>
</g>
<g>
</g>
<g>
</g>
<g>
</g>
<g>
</g>
<g>
</g>
<g>
</g>
<g>
</g>
<g>
</g>
<g>
</g>
<g>
</g>
<g>
</g>
<g>
</g>
<g>
</g>
<g>
</g>
<g>
</g>
</svg>
