<svg id="Layer_1" data-name="Layer 1" xmlns="http://www.w3.org/2000/svg" width="72.2109" height="63.3916" viewBox="0 0 72.2109 63.3916"><defs><style>.cls-1{fill:#ac9655;}</style></defs><title>frame2</title><path class="cls-1" d="M18.9824,10.875a4.0123,4.0123,0,0,1-.7724,2.5459,2.7876,2.7876,0,0,1-1.4776,1.0117,4.0482,4.0482,0,0,1-1.1933.1592,3.3809,3.3809,0,0,1-2.0909-.625,3.5035,3.5035,0,0,1-1.0966-1.3926,5.6328,5.6328,0,0,1-.4717-2.0166l2.0459-.1484a3.1065,3.1065,0,0,0,.6592,1.8047,1.0984,1.0984,0,0,0,.8857.4,1.3342,1.3342,0,0,0,1.125-.6944,1.7241,1.7241,0,0,0,.2158-.9433,2.6209,2.6209,0,0,0-.8066-1.7637q-.6357-.6021-1.9092-1.8076A8.1519,8.1519,0,0,1,12.585,5.5508a4.2848,4.2848,0,0,1-.4776-2.002A3.4812,3.4812,0,0,1,13.4141.6035a3.2445,3.2445,0,0,1,2-.6035A3.6358,3.6358,0,0,1,17.38.5117,2.9593,2.9593,0,0,1,18.4082,1.625,4.1172,4.1172,0,0,1,18.88,3.2734l-2.0567.375a2.4817,2.4817,0,0,0-.5-1.3642,1.0517,1.0517,0,0,0-.8525-.3516.9806.9806,0,0,0-.8975.5225,2.0117,2.0117,0,0,0-.25,1.0449,3.1384,3.1384,0,0,0,.8409,1.9893,7.0978,7.0978,0,0,0,.9541.9091q.75.6242.9892.875A7.2864,7.2864,0,0,1,18.335,8.8418a6.0735,6.0735,0,0,1,.3291.67A3.92,3.92,0,0,1,18.9824,10.875Z"/><path class="cls-1" d="M25.793,14.4209H23.6455V.1826H25.793Z"/><path class="cls-1" d="M33.0049.1709,35.8555,9.748V.1709h2.1474v14.25H35.6963l-2.9551-9.125v9.125H30.5938V.1709Z"/><path class="cls-1" d="M46.1787,14.6025A3.3943,3.3943,0,0,1,42.77,11.2051V3.4326a3.2774,3.2774,0,0,1,1-2.415A3.2913,3.2913,0,0,1,46.1787.0234a3.256,3.256,0,0,1,2.4082,1,3.3022,3.3022,0,0,1,.9893,2.4092v1.625H47.3486V3.3867A1.24,1.24,0,0,0,46.11,2.1484a1.174,1.174,0,0,0-.8692.3633,1.2,1.2,0,0,0-.3584.875v7.7959A1.222,1.222,0,0,0,46.11,12.4092a1.2051,1.2051,0,0,0,.875-.3574,1.176,1.176,0,0,0,.3632-.8692V9.2168h2.2276v1.9883a3.3941,3.3941,0,0,1-3.3975,3.3974Z"/><path class="cls-1" d="M54.2168,14.4209V.1709h6.1143V2.33H56.3643V6.2168h2.8984V8.375H56.3643v3.8867h3.9668v2.1592Z"/><path class="cls-1" d="M2.7578,35.5488l-.5215,3.2725H0L2.4209,24.583H5.375L7.7617,38.8213H5.5029L5.001,35.5488Zm1.1289-7.705L3.0908,33.458H4.6816Z"/><path class="cls-1" d="M14.8584,24.5713l2.8506,9.5771V24.5713h2.1474v14.25H17.55l-2.9551-9.125v9.125H12.4473v-14.25Z"/><path class="cls-1" d="M28.0322,39.0029a3.3943,3.3943,0,0,1-3.4092-3.3974V27.833a3.4034,3.4034,0,1,1,6.8067,0v1.625H29.2021V27.7871a1.24,1.24,0,0,0-1.2382-1.2383,1.174,1.174,0,0,0-.8692.3633,1.2,1.2,0,0,0-.3584.875V35.583A1.2222,1.2222,0,0,0,27.9639,36.81a1.2048,1.2048,0,0,0,.875-.3575,1.1753,1.1753,0,0,0,.3632-.8691V33.6172H31.43v1.9883a3.3942,3.3942,0,0,1-3.3975,3.3974Z"/><path class="cls-1" d="M38.2188,38.8213H36.0713V24.583h2.1475Z"/><path class="cls-1" d="M43.0186,38.8213v-14.25h6.1132v2.1592H45.166v3.8867h2.8985v2.1582H45.166v3.8867h3.9658v2.1592Z"/><path class="cls-1" d="M55.9,24.5713l2.8506,9.5771V24.5713h2.1474v14.25H58.5918l-2.9551-9.125v9.125H53.4893v-14.25Z"/><path class="cls-1" d="M67.79,26.7422H65.5059V24.583h6.705v2.1592H69.9385V38.8213H67.79Z"/><path class="cls-1" d="M9.8379,51.1416H7.5537V48.9824h6.7041v2.1592H11.9854V63.2207H9.8379Z"/><path class="cls-1" d="M21.0127,63.2207H18.8652V48.9824h2.1475Z"/><path class="cls-1" d="M27.96,63.2207H25.8125v-14.25h3.082l2.002,10.2363,1.9209-10.2363h2.9609v14.25H33.6309V54.2666l-1.8633,8.9541H30.04l-2.08-8.9316Z"/><path class="cls-1" d="M40.5791,63.2207v-14.25h6.1133V51.13H42.7266v3.8867H45.625v2.1582H42.7266v3.8867h3.9658v2.1592Z"/><path class="cls-1" d="M58.1523,59.6748a4.0123,4.0123,0,0,1-.7724,2.5459,2.7876,2.7876,0,0,1-1.4776,1.0117,4.0482,4.0482,0,0,1-1.1933.1592,3.3806,3.3806,0,0,1-2.0908-.625,3.5029,3.5029,0,0,1-1.0967-1.3926,5.6328,5.6328,0,0,1-.4717-2.0166l2.0459-.1484a3.1065,3.1065,0,0,0,.6592,1.8047,1.0984,1.0984,0,0,0,.8857.4,1.334,1.334,0,0,0,1.125-.6944,1.7241,1.7241,0,0,0,.2158-.9433,2.6209,2.6209,0,0,0-.8066-1.7637q-.6357-.6021-1.9092-1.8076a8.1519,8.1519,0,0,1-1.5107-1.8545,4.2848,4.2848,0,0,1-.4776-2.002,3.4812,3.4812,0,0,1,1.3067-2.9453,3.2447,3.2447,0,0,1,2-.6035,3.6358,3.6358,0,0,1,1.9658.5117,2.9593,2.9593,0,0,1,1.0283,1.1133,4.1156,4.1156,0,0,1,.4717,1.6484l-2.0566.375a2.4833,2.4833,0,0,0-.5-1.3642,1.052,1.052,0,0,0-.8526-.3516.9805.9805,0,0,0-.8974.5225,2.0117,2.0117,0,0,0-.25,1.0449,3.1382,3.1382,0,0,0,.8408,1.9893,7.1039,7.1039,0,0,0,.9541.9091q.75.6242.9892.875a7.2864,7.2864,0,0,1,1.2276,1.5684,6.0735,6.0735,0,0,1,.3291.67A3.92,3.92,0,0,1,58.1523,59.6748Z"/><path class="cls-1" d="M62.5088,61.084h2.1484v2.1484H62.5088Z"/></svg>