<svg id="Layer_1" data-name="Layer 1" xmlns="http://www.w3.org/2000/svg" xmlns:xlink="http://www.w3.org/1999/xlink" width="728" height="90" viewBox="0 0 728 90"><defs><style>.cls-1{fill:url(#linear-gradient);}.cls-2{fill:url(#linear-gradient-2);}.cls-3{fill:url(#linear-gradient-3);}.cls-4{fill:#fff;}</style><linearGradient id="linear-gradient" x1="650.52367" y1="36.37039" x2="650.52367" y2="62.51707" gradientUnits="userSpaceOnUse"><stop offset="0" stop-color="#ceb467"/><stop offset="1" stop-color="#997f2f"/></linearGradient><linearGradient id="linear-gradient-2" x1="593.74156" y1="36.33155" x2="593.74156" y2="62.55591" xlink:href="#linear-gradient"/><linearGradient id="linear-gradient-3" x1="587.304" y1="48.7294" x2="644.90196" y2="49.24138" gradientUnits="userSpaceOnUse"><stop offset="0" stop-color="#ad8f35"/><stop offset="0.1878" stop-color="#ceb467"/><stop offset="0.46098" stop-color="#a58f4b"/><stop offset="0.76341" stop-color="#ceb467"/><stop offset="1" stop-color="#997f2f"/></linearGradient></defs><title>learnmore</title><path class="cls-1" d="M689.60136,62.51707H604.33655L611.742,49.444l-7.40546-13.07358h85.26481L696.71079,49.444Zm-83.60042-.97h83.02352L695.60624,49.444l-6.58178-12.10355H606.00094L612.857,49.444Z"/><path class="cls-2" d="M601.46484,62.55591l-15.57633-.07768L578.8184,49.36961l7.19989-13.03806,15.57633.07768,7.07011,13.10863ZM586.4692,61.51105l14.42442.072,6.66562-12.07087-6.54531-12.13575-14.42442-.072-6.66562,12.07087Z"/><path class="cls-3" d="M598.8528,52.706l.15615-.0512a1.75589,1.75589,0,0,0-.33074.10215l-1.63539.68157.98966-.73738-.00756.00128-.02252-.17011-.17984-.29669a5.925,5.925,0,0,0,1.34754-1.391l-1.3222.63293,1.34716-1.122a2.22578,2.22578,0,0,0,.42776-.46372c.17369-.26265.335-.53169.48216-.80394l-.41765.4124.50058-1.089a14.38185,14.38185,0,0,0,.74059-2.04767,17.45221,17.45221,0,0,0-1.98457,1.27868l-.98006.74276.31257-.487c-.25357.21555-.49867.44312-.73265.68a2.15446,2.15446,0,0,0-.36082.50558l-.71575,1.371.25433-1.25141a5.91843,5.91843,0,0,0-.56716.67838l-.12466.17408-.11443-.0786a.28953.28953,0,0,0-.01766.02982l-.98326,1.86452.57982-2.02656a6.43213,6.43213,0,0,0,.19237-2.54327l-.67709,1.25845.32792-1.5138a2.46551,2.46551,0,0,0,.0512-.75542,12.21,12.21,0,0,0-.26008-1.52814l-.08934.74314-.29388-1.08336a18.425,18.425,0,0,0-1.00388-2.717,18.42108,18.42108,0,0,0-1.00373,2.717l-.294,1.08336-.08921-.74314a12.18444,12.18444,0,0,0-.26009,1.52814,2.46332,2.46332,0,0,0,.0512.75555l.32754,1.51419-.67671-1.25871a6.4308,6.4308,0,0,0,.19225,2.543l.58,2.02668-.98327-1.86464a.31143.31143,0,0,0-.01779-.02982l-.1143.0786-.12479-.17408a5.91584,5.91584,0,0,0-.567-.67838l.25432,1.25141-.71588-1.371a2.15282,2.15282,0,0,0-.36069-.50558c-.23346-.23653-.47844-.46373-.73162-.67914l.31333.48753-.982-.74416a17.43986,17.43986,0,0,0-1.98457-1.27868,14.36817,14.36817,0,0,0,.74071,2.04767l.50059,1.089-.41765-.4124c.14707.27225.30848.54129.48216.80394a2.22145,2.22145,0,0,0,.42764.46372l1.34728,1.122-1.3222-.63293a5.92264,5.92264,0,0,0,1.34754,1.391l-.17984.29669-.02252.17011-.00768-.00128.98979.73738-1.63553-.68157a1.75118,1.75118,0,0,0-.33061-.10215l.156.0512-1.40181-.0032a12.0404,12.0404,0,0,0-1.336.0809,11.00115,11.00115,0,0,0,1.14224.62782l1.23336.57866L588.126,53.973a1.84227,1.84227,0,0,0,.3127.03993l1.869.08295-1.27522.24293a4.58947,4.58947,0,0,0,.92106.10124l1.35265.00884-.791.25675,1.21532.2112-1.87155.11238q-.04473.00268-.08755.00806l-.85859.42c-.22028.10764-.42585.22463-.61566.34174.23551.01818.48919.02945.74608.0247l.9784-.0174c.02662-.00947.05338-.0201.08013-.03162l1.61889-.70474-.81675.62974a2.83706,2.83706,0,0,0,.32051-.13708s.12748.07347.1518.09395a.60878.60878,0,0,0,.0686-.015,2.89034,2.89034,0,0,0,.70935-.4142,2.98475,2.98475,0,0,1,.79537-.45386,1.98064,1.98064,0,0,1,.27852-.052.761.761,0,0,1-.36671-.22873c-.17715-.177-.24472-.416-.07411-.46642s.48.239.50008.239a.36883.36883,0,0,0,.10329-.23819c0-.10215-.07309-.30092-.08665-.421a2.00934,2.00934,0,0,0-.07283-.34841c-.02663-.07923-.21145-.11366-.31077-.17484a1.62678,1.62678,0,0,1-.25049-.17343.79182.79182,0,0,1-.10649-.36339,1.43342,1.43342,0,0,0-.05977-.37c-.03457-.06476-.1234-.11046-.18355-.17062a.25862.25862,0,0,1-.06183-.159c.04609-.01446.06055.10432.11379.11443s.04953.054.13312.08281.08627.06835.097.14605.10445.34047.13542.4476.06323.1879.16908.19148.09139.05837.21593.04825a.69578.69578,0,0,1,.29862.0576c.06693.02368.15115.02586.17995-.02086s-.02009-.23539-.02009-.23539c-.04327,0-.05056-.05823-.06707-.11225s.01024-.05824.01024-.05824a.228.228,0,1,1,.43454,0s.02662.00423.01012.05824-.02368.11225-.067.11225c0,0-.04889.18854-.02022.23539.02893.04672.113.04454.18009.02086a.69487.69487,0,0,1,.29861-.0576c.12442.01012.11007-.04467.21581-.04825s.13822-.08422.1692-.19148.12442-.36991.13529-.4476.0137-.11738.09716-.14605.07986-.0727.13311-.08281.06771-.12889.11378-.11443a.25824.25824,0,0,1-.06194.159c-.06.06016-.149.10586-.18342.17062a1.42176,1.42176,0,0,0-.05977.37.792.792,0,0,1-.1065.36339,1.63967,1.63967,0,0,1-.25048.17343c-.09933.06118-.28428.09561-.31091.17484a1.99822,1.99822,0,0,0-.0727.34841c-.01369.12006-.08665.31883-.08665.421a.36822.36822,0,0,0,.10329.23819c.02009,0,.32959-.2894.50008-.239s.103.28941-.07411.46642a.76.76,0,0,1-.3667.22873,1.97529,1.97529,0,0,1,.27838.052,2.98475,2.98475,0,0,1,.79537.45386,2.89462,2.89462,0,0,0,.70922.4142.63037.63037,0,0,0,.06873.015c.02432-.02036.15194-.09395.15194-.09395a2.83534,2.83534,0,0,0,.3205.13708l-.81674-.62974,1.61876.70474c.02675.01152.0535.02215.08012.03162l.97853.0174c.25688.00475.51044-.00652.74608-.0247-.18981-.11711-.39551-.2341-.61578-.34174l-.8586-.42c-.02842-.00358-.05772-.00627-.08742-.00806l-1.87142-.11238,1.21608-.21132-.78845-.25663,1.3492-.00884a4.59051,4.59051,0,0,0,.92106-.10124l-1.27522-.24293,1.86886-.08295a1.84214,1.84214,0,0,0,.31282-.03993l-.14194.01715,1.23336-.57866a11.00348,11.00348,0,0,0,1.14236-.62782,12.04236,12.04236,0,0,0-1.336-.0809Z"/><path class="cls-4" d="M618.45512,52.83922V46.65937h.412l3.8727,3.8727v-3.8727h1.236v6.17985h-.45319l-3.8315-3.83151v3.83151Z"/><path class="cls-4" d="M625.10051,52.83922l2.47194-6.17985h1.236l2.46782,6.17573-1.31425.00412-.37079-.94758h-2.80153l-.37079.94758Zm3.12289-4.53189-.93934,2.34834h1.854Z"/><path class="cls-4" d="M632.368,52.83922V46.65937h.412l2.67794,3.04872L638.14,46.65937h.412v6.17985h-1.236l-.00412-3.58431-1.85395,2.06-1.854-2.06v3.58431Z"/><path class="cls-4" d="M639.62659,52.83922l2.47194-6.17985h1.236l2.46782,6.17573-1.31425.00412-.37079-.94758h-2.80153l-.37079.94758Zm3.12288-4.53189-.93934,2.34834h1.854Z"/><path class="cls-4" d="M650.23945,46.86536a2.87766,2.87766,0,0,1,.88577.618l-.824.824a1.41882,1.41882,0,0,0-1.15358-.49439q-.74157,0-.94757.35019a.48208.48208,0,0,0,0,.59739,1.6284,1.6284,0,0,0,.94757.37079,3.0673,3.0673,0,0,1,1.42137.515,1.54705,1.54705,0,0,1,.63858,1.38016,1.58462,1.58462,0,0,1-.68184,1.27717,2.497,2.497,0,0,1-1.58822.53559,3.66,3.66,0,0,1-1.43785-.2472,3.11709,3.11709,0,0,1-.98877-.65918l.824-.824a1.95841,1.95841,0,0,0,1.40076.57679q.824,0,1.02792-.3502a.6523.6523,0,0,0,0-.70038q-.20394-.35019-1.02792-.43259a3.32292,3.32292,0,0,1-1.35956-.45319,1.36733,1.36733,0,0,1-.618-1.27716,1.538,1.538,0,0,1,.70245-1.31631,2.47413,2.47413,0,0,1,1.444-.49645A3.448,3.448,0,0,1,650.23945,46.86536Z"/><path class="cls-4" d="M657.52343,46.65937v1.15357h-2.05995v5.02628h-1.236V47.81294h-2.06V46.65937Z"/><path class="cls-4" d="M658.5946,52.83922V46.66349l4.54013-.00412v1.15357h-3.30416v1.31837h2.47606v1.14945h-2.47606v1.40489h3.29592v1.15357Z"/><path class="cls-4" d="M664.58013,51.84838a.59706.59706,0,0,1,.44495-.16685.6193.6193,0,0,1,.46142.16685.56586.56586,0,0,1,.1648.41405.55894.55894,0,0,1-.1648.412.70551.70551,0,0,1-.90637,0,.55894.55894,0,0,1-.1648-.412A.56586.56586,0,0,1,664.58013,51.84838Z"/><path class="cls-4" d="M667.69271,51.95138a3.09106,3.09106,0,0,1,2.198-5.292,3.34343,3.34343,0,0,1,2.27006.824l-.824.90226a2.27858,2.27858,0,0,0-1.44608-.49439,1.76161,1.76161,0,0,0-1.84984,1.83747,1.85319,1.85319,0,0,0,.515,1.36781,1.82413,1.82413,0,0,0,1.34309.50675,2.21452,2.21452,0,0,0,1.43784-.49027l.824.90226a3.33358,3.33358,0,0,1-2.27006.824A3.00674,3.00674,0,0,1,667.69271,51.95138Z"/><path class="cls-4" d="M674.23305,51.95138a3.18258,3.18258,0,1,1,2.20415.88784A2.99381,2.99381,0,0,1,674.23305,51.95138Zm2.20827-.26573a1.73591,1.73591,0,0,0,1.33484-.55619,2.10691,2.10691,0,0,0,0-2.76033,1.88979,1.88979,0,0,0-2.67793,0,2.10691,2.10691,0,0,0,0,2.76033A1.74562,1.74562,0,0,0,676.44132,51.68565Z"/><path class="cls-4" d="M680.61477,52.83922V46.65937h.412l2.67794,3.04872,2.68205-3.04872h.412v6.17985h-1.236l-.00412-3.58431-1.85395,2.06-1.854-2.06v3.58431Z"/></svg>