<svg id="Content" xmlns="http://www.w3.org/2000/svg" width="728" height="90" viewBox="0 0 728 90"><defs><style>.cls-1{fill:#ba9544;}</style></defs><title>Frame1 - MK Ultra</title><path class="cls-1" d="M338.51287,51.62891l2.40039-15.90284h4.89551V58.124h-3.32812V42.062L340.049,58.124h-3.32813l-2.62305-15.83838V58.124h-3.07226v-22.398h4.89551Z"/><path class="cls-1" d="M356.36932,49.19629l-1.08789,2.04785V58.124h-3.52051v-22.398h3.52051v9.75977l4.60742-9.75977h3.51953l-4.89551,9.9834L363.40838,58.124h-3.61523Z"/><path class="cls-1" d="M380.11248,35.72607V53.00391c0,1.60058.7041,2.17675,1.82324,2.17675,1.12012,0,1.82422-.57617,1.82422-2.17675V35.72607h3.32813v17.0542c0,3.584-1.792,5.63184-5.24805,5.63184s-5.24707-2.04785-5.24707-5.63184V35.72607Z"/><path class="cls-1" d="M392.88006,35.72607h3.52051V54.92383h5.791V58.124h-9.31152Z"/><path class="cls-1" d="M406.09588,35.72607h10.87988v3.2002h-3.67968V58.124h-3.52051V38.92627h-3.67969Z"/><path class="cls-1" d="M429.26287,58.124a6.90566,6.90566,0,0,1-.31933-2.752V51.85254c0-2.08008-.7041-2.84766-2.30371-2.84766H425.424V58.124H421.9035v-22.398H427.215c3.64844,0,5.21582,1.69629,5.21582,5.15137v1.75977c0,2.30468-.73535,3.8081-2.30371,4.54345,1.75977.73633,2.33594,2.43164,2.33594,4.76758V55.4043a6.603,6.603,0,0,0,.38379,2.71972ZM425.424,38.92627v6.87891H426.8c1.31153,0,2.11133-.57618,2.11133-2.36719V41.23c0-1.60059-.54394-2.30371-1.792-2.30371Z"/><path class="cls-1" d="M449.551,58.124H445.9992l-.6084-4.06347h-4.31933l-.6084,4.06347h-3.23145l3.584-22.398H445.967Zm-8.03125-7.10351h3.3916L443.215,39.69385Z"/></svg>