<svg id="Content" xmlns="http://www.w3.org/2000/svg" width="300" height="250" viewBox="0 0 300 250"><defs><style>.cls-1{fill:#fff;stroke:#ba9544;stroke-miterlimit:10;stroke-width:0.5px;}.cls-2{fill:#ba9544;}</style></defs><title>THC - Ultra Sour</title><polygon class="cls-1" points="279.428 142.307 167.844 141.884 162.211 150.007 167.844 157.986 279.428 157.796 284.498 150.052 279.428 142.307"/><polygon class="cls-2" points="167.925 141.884 162.293 150.007 167.925 157.986 189.15 157.986 189.15 141.884 167.925 141.884"/><path class="cls-2" d="M231.71,147.34579v1.01953H229.8887v4.44336h-1.09277v-4.44336h-1.82129v-1.01953Z"/><path class="cls-2" d="M232.52249,152.80868v-5.46289h1.09278v2.18457h2.54589v-2.18847h1.0918v5.46289l-1.0918.0039v-2.25781h-2.54589v2.25781Z"/><path class="cls-2" d="M238.94827,152.02353a2.732,2.732,0,0,1,1.94336-4.67774,2.95282,2.95282,0,0,1,2.00684.72852l-.72852.79687a2.01551,2.01551,0,0,0-1.27832-.43652,1.5565,1.5565,0,0,0-1.63476,1.624,1.63135,1.63135,0,0,0,.45508,1.209,1.61083,1.61083,0,0,0,1.1875.44824,1.95508,1.95508,0,0,0,1.2705-.4336l.72852.79786a2.94708,2.94708,0,0,1-2.00684.72851A2.65579,2.65579,0,0,1,238.94827,152.02353Z"/><path class="cls-2" d="M246.67191,149.32528a.52807.52807,0,0,1,.39355-.14746.54785.54785,0,0,1,.4082.14746.4999.4999,0,0,1,.14551.36621.4932.4932,0,0,1-.14551.36329.62178.62178,0,0,1-.80175,0,.4932.4932,0,0,1-.14551-.36329A.4999.4999,0,0,1,246.67191,149.32528Zm0,2.60743a.528.528,0,0,1,.39355-.14747.54781.54781,0,0,1,.4082.14747.503.503,0,0,1,.14551.36621.497.497,0,0,1-.14551.36425.625.625,0,0,1-.80175,0,.497.497,0,0,1-.14551-.36425A.503.503,0,0,1,246.67191,151.93271Z"/><path class="cls-2" d="M252.48929,147.34579v-.0039h1.08887v5.46679h-1.08887v-4.00586l-.72852.72754-.72851-.72754Z"/><path class="cls-2" d="M257.61038,150.0411c.06543.02344.125.04786.17871.07227a1.07118,1.07118,0,0,1,.56446,1.09277,1.40063,1.40063,0,0,1-.53028,1.21973,2.62062,2.62062,0,0,1-2.72754,0,1.40065,1.40065,0,0,1-.53027-1.21973,1.07119,1.07119,0,0,1,.56445-1.09277c.05372-.02441.11329-.04883.17872-.07227-.03907-.01953-.07422-.03808-.10547-.05468a1.0807,1.0807,0,0,1-.49219-1.03809,1.49288,1.49288,0,0,1,.47559-1.18359,2.14333,2.14333,0,0,1,2.54589,0,1.49608,1.49608,0,0,1,.47559,1.18359,1.0807,1.0807,0,0,1-.49219,1.03809C257.6846,150.003,257.64945,150.02157,257.61038,150.0411ZM256.459,149.545c.32129-.00977.52734-.09277.61914-.251a.58093.58093,0,0,0,0-.61914.69862.69862,0,0,0-.61914-.30566.69026.69026,0,0,0-.61524.30566.573.573,0,0,0,0,.61914C255.93363,149.45224,256.1387,149.53524,256.459,149.545Zm0,1.002a.81.81,0,0,0-.61524.31348.573.573,0,0,0,0,.61914.69024.69024,0,0,0,.61524.30566.6986.6986,0,0,0,.61914-.30566.58093.58093,0,0,0,0-.61914A.82125.82125,0,0,0,256.459,150.547Z"/><path class="cls-2" d="M259.30765,151.34774v-.7246h2.25879v.7246Z"/><path class="cls-2" d="M264.47659,147.34579a2.05658,2.05658,0,0,1,1.3125.40235,1.4317,1.4317,0,0,1,.51172,1.20019,2.50224,2.50224,0,0,1-.72656,1.7334,5.04537,5.04537,0,0,1-1.19922,1.03418h1.9668v1.09277h-3.68262v-1.09277q.36476,0,1.38379-.91016a5.22035,5.22035,0,0,0,1.18359-1.293.88948.88948,0,0,0-.01757-.76464q-.18311-.38379-.874-.38282a1.25407,1.25407,0,0,0-1.02051.4375l-.72851-.72851a3.02059,3.02059,0,0,1,.71094-.54688A2.73949,2.73949,0,0,1,264.47659,147.34579Z"/><path class="cls-2" d="M270.8721,147.34579v1.01953h-2.25879V149.13h.4375a2.44745,2.44745,0,0,1,1.65332.49219,1.9956,1.9956,0,0,1,.56446,1.47461,1.59018,1.59018,0,0,1-.54786,1.20215,1.90735,1.90735,0,0,1-1.3496.50976,3.24239,3.24239,0,0,1-1.27149-.21875,2.76593,2.76593,0,0,1-.874-.582l.72851-.72851a1.53013,1.53013,0,0,0,1.166.47265q.9829,0,1.07422-.7207a.814.814,0,0,0-.335-.67774,2.18913,2.18913,0,0,0-1.17285-.2041h-1.166v-2.80371Z"/><path class="cls-2" d="M272.37991,149.65048a1.4072,1.4072,0,1,1,.97559.39355A1.32154,1.32154,0,0,1,272.37991,149.65048Zm.96485-.25488a.6492.6492,0,0,0,.499-.207.73.73,0,0,0,.19336-.51757.72128.72128,0,0,0-.19336-.51465.656.656,0,0,0-.50293-.20606.64776.64776,0,0,0-.49512.20606.7206.7206,0,0,0-.19238.51465.72931.72931,0,0,0,.19238.51757A.64924.64924,0,0,0,273.34476,149.3956Zm-.291,3.41308,3.09571-5.46289h.88867l-3.08887,5.46289Zm2.71289-.36035a1.39908,1.39908,0,1,1,.96875.38965A1.31567,1.31567,0,0,1,275.76663,152.44833Zm.95118-.26562a.63654.63654,0,0,0,.4873-.20215.76228.76228,0,0,0,0-1.00586.64209.64209,0,0,0-.49121-.20215.63453.63453,0,0,0-.48438.20215.76228.76228,0,0,0,0,1.00586A.63867.63867,0,0,0,276.71781,152.18271Z"/></svg>