<svg id="Layer_1" data-name="Layer 1" xmlns="http://www.w3.org/2000/svg" xmlns:xlink="http://www.w3.org/1999/xlink" width="118.9478" height="109.4966" viewBox="0 0 118.9478 109.4966"><defs><style>.cls-1{fill:url(#New_Gradient_Swatch_1);}.cls-2{fill:url(#New_Gradient_Swatch_1-2);}</style><linearGradient id="New_Gradient_Swatch_1" y1="54.7483" x2="111.6274" y2="54.7483" gradientUnits="userSpaceOnUse"><stop offset="0" stop-color="#ac8e34"/><stop offset="0.1878" stop-color="#ceb367"/><stop offset="0.461" stop-color="#a48e4a"/><stop offset="0.7634" stop-color="#ceb367"/><stop offset="1" stop-color="#997f2e"/></linearGradient><linearGradient id="New_Gradient_Swatch_1-2" x1="125.4348" y1="82.7799" x2="106.5165" y2="96.8681" xlink:href="#New_Gradient_Swatch_1"/></defs><title>logo</title><path class="cls-1" d="M0,93.699H1.0532l9.9,9.9v-9.9h3.16v15.7976H12.9548L3.16,99.7022v9.7944H0Zm26.0346,0,6.3087,15.7868-3.3594.0108-.9484-2.4223H20.874l-.948,2.4223h-3.37L22.8753,93.699Zm.8425,10.2159-2.3378-6.0035-2.401,6.0035ZM35.7559,93.699h-1.053v15.7976h3.16v-9.1625L42.6019,105.6l4.7388-5.2657.0109,9.1625H50.511V93.699H49.458l-6.8561,7.7932Zm26.551,0,6.3082,15.7868-3.36.0108-.9479-2.4223H57.1458l-.9479,2.4223h-3.37L59.1471,93.699Zm.8425,10.2159-2.3379-6.0035L58.41,103.9149Zm12.5331,2.6326a5.003,5.003,0,0,1-3.5808-1.4744L69.9949,107.18a7.9713,7.9713,0,0,0,2.5278,1.6849,9.353,9.353,0,0,0,3.6758.6316,6.38,6.38,0,0,0,4.06-1.369,4.0492,4.0492,0,0,0,1.7433-3.2648,3.9543,3.9543,0,0,0-1.6326-3.5281,7.8349,7.8349,0,0,0-3.6336-1.3162,4.1639,4.1639,0,0,1-2.4223-.9483,1.2326,1.2326,0,0,1,0-1.5272q.5271-.8948,2.4223-.8948a3.6281,3.6281,0,0,1,2.9493,1.2635l2.106-2.1063a7.3688,7.3688,0,0,0-2.2642-1.58,8.8166,8.8166,0,0,0-3.4125-.5265,6.3235,6.3235,0,0,0-3.6911,1.2691,3.9306,3.9306,0,0,0-1.7956,3.3651,3.4958,3.4958,0,0,0,1.5794,3.2648,8.492,8.492,0,0,0,3.4758,1.1584q2.1058.2107,2.6276,1.1057a1.6688,1.6688,0,0,1,0,1.7908Q77.789,106.5476,75.6825,106.5475Zm16.7664,2.9491V96.6478h5.2662V93.6989H84.0234v2.9489h5.2658v12.8488Zm19.1785-12.8488V93.699l-11.6059.0105v15.7871h11.5852v-2.9489h-8.4255v-3.5912h6.33v-2.9384h-6.33v-3.37ZM96.09,68.0049l-8.6686.02.9656-.3159a10.8553,10.8553,0,0,0-2.0455.6311L76.2286,72.5546l6.12-4.56-.0467.0076-.14-1.0514L81.05,65.1169a36.6445,36.6445,0,0,0,8.3329-8.6026l-8.1764,3.9144L89.5374,53.49a13.7176,13.7176,0,0,0,2.6454-2.8679c1.0743-1.6238,2.0717-3.2874,2.9814-4.9715l-2.5821,2.55,3.0953-6.7333a88.9318,88.9318,0,0,0,4.58-12.6624,107.7809,107.7809,0,0,0-12.2728,7.907l-6.06,4.5927,1.9329-3.012c-1.5678,1.3331-3.0837,2.74-4.53,4.2059a13.2814,13.2814,0,0,0-2.2308,3.1259L72.67,54.1024l1.5723-7.738a36.5843,36.5843,0,0,0-3.5068,4.1942l-.7716,1.0763-.7072-.4854a2.05,2.05,0,0,0-.11.184l-6.08,11.53,3.5856-12.5316a39.7781,39.7781,0,0,0,1.1894-15.7264l-4.1869,7.7815,2.0278-9.361a15.2389,15.2389,0,0,0,.3168-4.6712,75.4385,75.4385,0,0,0-1.6088-9.45l-.5519,4.5948-1.8178-6.6987A113.9718,113.9718,0,0,0,55.8137,0a113.8581,113.8581,0,0,0-6.2072,16.8007l-1.8174,6.6987-.5522-4.5948a75.4935,75.4935,0,0,0-1.6089,9.45,15.2488,15.2488,0,0,0,.3168,4.6717L47.97,42.39l-4.1846-7.7835a39.7758,39.7758,0,0,0,1.1894,15.7252L48.5612,62.864l-6.0805-11.53a1.94,1.94,0,0,0-.1094-.184l-.7073.4854-.7716-1.0763a36.591,36.591,0,0,0-3.5067-4.1942l1.5726,7.738-4.4269-8.4779a13.2892,13.2892,0,0,0-2.23-3.1259c-1.4439-1.4627-2.9577-2.8679-4.5239-4.1995l1.9373,3.0145L23.6429,36.712A107.7252,107.7252,0,0,0,11.37,28.805a88.8971,88.8971,0,0,0,4.58,12.6624l3.0954,6.7333-2.5822-2.55c.91,1.6841,1.9075,3.3477,2.9819,4.9715A13.7035,13.7035,0,0,0,22.09,53.49l8.3309,6.9386-8.1763-3.9144a36.6346,36.6346,0,0,0,8.3329,8.6026l-1.1122,1.8342-.14,1.0514-.047-.0076,6.1206,4.56L25.286,68.34a10.9246,10.9246,0,0,0-2.0448-.6311l.9652.3159-8.669-.02a74.5574,74.5574,0,0,0-8.2616.5,68.15,68.15,0,0,0,7.0633,3.8827l7.6269,3.578-.8771-.1062a11.3,11.3,0,0,0,1.9341.2471l11.5563.5132L26.694,78.1218a28.3229,28.3229,0,0,0,5.6956.6263l8.3651.0547L35.8629,80.39l7.5154,1.3062-11.5731.6951q-.276.0164-.5414.05l-5.31,2.5963c-1.3618.6661-2.6329,1.389-3.8066,2.1132,1.4567.1127,3.0249.1819,4.6132.1533l6.0511-.1079c.1646-.0587.33-.1243.4951-.1956l10.0106-4.358-5.05,3.8943a17.6484,17.6484,0,0,0,1.982-.8481s.7881.4545.9386.5809a3.7393,3.7393,0,0,0,.4247-.0926,17.8678,17.8678,0,0,0,4.3862-2.5608A18.4328,18.4328,0,0,1,50.9171,80.81a12.2733,12.2733,0,0,1,1.722-.322,4.6891,4.6891,0,0,1-2.2682-1.4144c-1.0949-1.0945-1.5135-2.5717-.4585-2.8837s2.9686,1.4776,3.0929,1.4776a2.2824,2.2824,0,0,0,.638-1.4732c0-.6315-.4508-1.86-.5353-2.6034a12.3744,12.3744,0,0,0-.45-2.1539c-.1647-.49-1.3086-.7028-1.9225-1.0816a10.0293,10.0293,0,0,1-1.5488-1.0723,4.9,4.9,0,0,1-.6585-2.2472,8.8316,8.8316,0,0,0-.37-2.2875c-.2137-.4-.7631-.6835-1.1346-1.055a1.5975,1.5975,0,0,1-.3829-.9834c.285-.089.374.6453.7032.7076s.3072.3337.8232.5116.5341.4231.601.9037.6452,2.1047.8364,2.7677.3916,1.1621,1.0461,1.1842.5652.36,1.3348.2983a4.3083,4.3083,0,0,1,1.8471.3558c.4138.1469.9347.16,1.1126-.1288s-.1248-1.4555-.1248-1.4555c-.2669,0-.3115-.36-.4138-.694S54.47,66.8,54.47,66.8a1.41,1.41,0,1,1,2.688,0s.1647.0265.0624.3606-.1469.694-.4142.694c0,0-.3023,1.1661-.1244,1.4555s.6988.2757,1.1126.1288a4.3081,4.3081,0,0,1,1.8468-.3558c.77.062.681-.2762,1.3351-.2983s.8546-.5209,1.0457-1.1842.77-2.2871.8369-2.7677.0845-.7258.6009-.9037.4939-.4492.8232-.5116.4186-.7966.7032-.7076a1.6005,1.6005,0,0,1-.3828.9834c-.3715.3715-.921.6545-1.1347,1.055a8.8323,8.8323,0,0,0-.37,2.2875,4.9007,4.9007,0,0,1-.6585,2.2472,10.0359,10.0359,0,0,1-1.5489,1.0723c-.6143.3788-1.7578.5921-1.9224,1.0816a12.3367,12.3367,0,0,0-.45,2.1539c-.0845.7434-.5353,1.9719-.5353,2.6034a2.2824,2.2824,0,0,0,.638,1.4732c.1244,0,2.0383-1.7887,3.0929-1.4776s.6364,1.7892-.4584,2.8837a4.69,4.69,0,0,1-2.2682,1.4144,12.2717,12.2717,0,0,1,1.7219.322,18.4313,18.4313,0,0,1,4.9188,2.8068,17.8737,17.8737,0,0,0,4.3858,2.5608,3.7426,3.7426,0,0,0,.4243.093c.15-.126.9395-.5813.9395-.5813a17.6406,17.6406,0,0,0,1.982.8481l-5.05-3.8943,10.011,4.358c.1646.0713.33.1369.4947.1956l6.051.1079c1.5884.029,3.157-.0406,4.6133-.1533-1.1737-.7242-2.4449-1.4471-3.8074-2.1132L80.3637,82.442c-.1768-.0225-.3575-.0394-.541-.05L68.25,81.6966l7.52-1.307-4.8749-1.5868,8.343-.0547a28.3215,28.3215,0,0,0,5.6957-.6263L77.0481,76.62l11.5563-.5132a11.3477,11.3477,0,0,0,1.9345-.2467l-.8775.1062,7.6269-3.5784a68.1517,68.1517,0,0,0,7.0634-3.8827A74.5547,74.5547,0,0,0,96.09,68.0049Z"/><path class="cls-2" d="M113.8967,88.9229V91.79h-.57V88.9229H112.26v-.5118h2.7079v.5118Zm4.5248,2.8675-.0048-2.5248L117.35,91.4378h-.3718l-1.0669-2.1722V91.79h-.5357V88.4111h.6757l1.1151,2.2449,1.11-2.2449h.671V91.79Z"/></svg>