<svg id="Layer_1" data-name="Layer 1" xmlns="http://www.w3.org/2000/svg" width="438.7886" height="15.5146" viewBox="0 0 438.7886 15.5146"><defs><style>.cls-1{fill:#ac9655;}</style></defs><title>frame1</title><path class="cls-1" d="M3.6221,15.5146A3.4936,3.4936,0,0,1,1.0566,14.458,3.4784,3.4784,0,0,1,0,11.9043V3.6455A3.4818,3.4818,0,0,1,1.0625,1.08,3.5,3.5,0,0,1,3.6221.0234a3.4657,3.4657,0,0,1,2.56,1.0625,3.51,3.51,0,0,1,1.05,2.56V5.3721H4.8657V3.5977A1.32,1.32,0,0,0,3.55,2.2812a1.2479,1.2479,0,0,0-.9238.3868,1.278,1.278,0,0,0-.38.93V11.88A1.2988,1.2988,0,0,0,3.55,13.1846a1.277,1.277,0,0,0,.93-.3809,1.2477,1.2477,0,0,0,.3862-.9238V9.791H7.2324v2.1133a3.4633,3.4633,0,0,1-1.0625,2.56A3.4961,3.4961,0,0,1,3.6221,15.5146Z"/><path class="cls-1" d="M14.5269,11.8438l-.5542,3.4775H11.5962L14.1685.1924h3.1386l2.5357,15.1289H17.4434l-.5342-3.4775Zm1.1987-8.1856L14.88,9.6221h1.69Z"/><path class="cls-1" d="M27.3843.1807l3.0283,10.1757V.1807h2.2817V15.3213H30.2437L27.1045,5.626v9.6953H24.8223V.1807Z"/><path class="cls-1" d="M40.3564.1807l3.0284,10.1757V.1807h2.2817V15.3213H43.2158L40.0767,5.626v9.6953H37.7944V.1807Z"/><path class="cls-1" d="M53.5645,11.8438,53.01,15.3213H50.6338L53.2061.1924h3.1386L58.88,15.3213H56.481l-.5342-3.4775Zm1.1987-8.1856L53.918,9.6221h1.69Z"/><path class="cls-1" d="M63.1865,15.3213V.1807h3.417a4.3542,4.3542,0,0,1,2.439.7119,3.3182,3.3182,0,0,1,1.3281,1.872A5.2712,5.2712,0,0,1,70.5879,4.37a3.5542,3.5542,0,0,1-.8091,2.44,2.28,2.28,0,0,1-.7969.5908,2.6527,2.6527,0,0,1,1.292,1.1475,4.4682,4.4682,0,0,1,.5191,1.497,5.9511,5.9511,0,0,1,.0849,1.0508,5.0528,5.0528,0,0,1-.5434,2.4385A3.252,3.252,0,0,1,69.1392,14.79a3.29,3.29,0,0,1-1.7266.5313ZM65.65,6.3623h.9536a1.3976,1.3976,0,0,0,1.4248-1.0381,2.966,2.966,0,0,0,.1328-.9541,1.9939,1.9939,0,0,0-.459-1.4248,1.4432,1.4432,0,0,0-1.0986-.4463H65.65Zm0,6.7012h.9536a1.6193,1.6193,0,0,0,1.606-1.1953,2.6281,2.6281,0,0,0,.1567-.9414,2.87,2.87,0,0,0-.4829-1.8477,1.5557,1.5557,0,0,0-1.28-.5312H65.65Z"/><path class="cls-1" d="M77.5176,15.3213H75.2354V.1924h2.2822Z"/><path class="cls-1" d="M89.353,11.5547a4.2559,4.2559,0,0,1-.8213,2.7041,2.9547,2.9547,0,0,1-1.5693,1.0742,4.26,4.26,0,0,1-1.2681.169,3.5839,3.5839,0,0,1-2.2212-.6641,3.7035,3.7035,0,0,1-1.1655-1.4785,5.9724,5.9724,0,0,1-.501-2.1436L83.98,11.06a3.304,3.304,0,0,0,.7,1.917,1.166,1.166,0,0,0,.9419.4248,1.4146,1.4146,0,0,0,1.1953-.7373,1.83,1.83,0,0,0,.2295-1.003,2.7844,2.7844,0,0,0-.8574-1.873q-.676-.64-2.0284-1.9209a8.6658,8.6658,0,0,1-1.6059-1.9707,4.5558,4.5558,0,0,1-.5069-2.127A3.7007,3.7007,0,0,1,83.4365.64,3.4535,3.4535,0,0,1,85.5615,0,3.8619,3.8619,0,0,1,87.65.543a3.14,3.14,0,0,1,1.0928,1.1836,4.3725,4.3725,0,0,1,.5009,1.75l-2.185.3984a2.6349,2.6349,0,0,0-.5313-1.4482,1.1148,1.1148,0,0,0-.9057-.375,1.043,1.043,0,0,0-.9536.5556,2.14,2.14,0,0,0-.2657,1.1114,3.33,3.33,0,0,0,.8931,2.1123,7.556,7.556,0,0,0,1.0146.9658q.7969.665,1.05.93a7.7433,7.7433,0,0,1,1.3038,1.666,6.3049,6.3049,0,0,1,.35.7129A4.1438,4.1438,0,0,1,89.353,11.5547Z"/><path class="cls-1" d="M105.5234,8.91v6.4111h-2.2822V.1924h2.2822V6.6162h2.753V.1924h2.2817V15.3213h-2.2817V8.91Z"/><path class="cls-1" d="M118.4561,11.8438l-.5542,3.4775h-2.3765L118.0977.1924h3.1386l2.5357,15.1289h-2.3994l-.5342-3.4775Zm1.1987-8.1856L118.81,9.6221h1.69Z"/><path class="cls-1" d="M135.61,11.5547a4.2559,4.2559,0,0,1-.8213,2.7041,2.955,2.955,0,0,1-1.5694,1.0742,4.2594,4.2594,0,0,1-1.268.169,3.5837,3.5837,0,0,1-2.2212-.6641,3.7027,3.7027,0,0,1-1.1655-1.4785,5.9682,5.9682,0,0,1-.501-2.1436l2.1733-.1562a3.304,3.304,0,0,0,.7,1.917,1.166,1.166,0,0,0,.9419.4248,1.4145,1.4145,0,0,0,1.1953-.7373,1.8294,1.8294,0,0,0,.23-1.003,2.7839,2.7839,0,0,0-.8574-1.873L130.418,7.8672a8.6667,8.6667,0,0,1-1.606-1.9707,4.5557,4.5557,0,0,1-.5068-2.127A3.7007,3.7007,0,0,1,129.6934.64a3.453,3.453,0,0,1,2.125-.64,3.8618,3.8618,0,0,1,2.0888.543A3.14,3.14,0,0,1,135,1.7266a4.3742,4.3742,0,0,1,.501,1.75l-2.1851.3984a2.6348,2.6348,0,0,0-.5312-1.4482,1.1151,1.1151,0,0,0-.9058-.375,1.0431,1.0431,0,0,0-.9536.5556,2.14,2.14,0,0,0-.2656,1.1114,3.33,3.33,0,0,0,.893,2.1123,7.5517,7.5517,0,0,0,1.0147.9658q.7968.665,1.05.93a7.7426,7.7426,0,0,1,1.3037,1.666,6.324,6.324,0,0,1,.35.7129A4.1438,4.1438,0,0,1,135.61,11.5547Z"/><path class="cls-1" d="M149.4976,15.3213V.1807h3.417a4.3541,4.3541,0,0,1,2.4389.7119,3.3182,3.3182,0,0,1,1.3281,1.872,5.2681,5.2681,0,0,1,.2173,1.6055,3.5542,3.5542,0,0,1-.8091,2.44,2.281,2.281,0,0,1-.7968.5908,2.6532,2.6532,0,0,1,1.292,1.1475,4.4683,4.4683,0,0,1,.519,1.497,5.9506,5.9506,0,0,1,.085,1.0508,5.0528,5.0528,0,0,1-.5435,2.4385A3.2512,3.2512,0,0,1,155.45,14.79a3.29,3.29,0,0,1-1.7266.5313Zm2.4633-8.959h.9537a1.3977,1.3977,0,0,0,1.4248-1.0381,2.9687,2.9687,0,0,0,.1328-.9541,1.9944,1.9944,0,0,0-.459-1.4248,1.4435,1.4435,0,0,0-1.0986-.4463h-.9537Zm0,6.7012h.9537a1.6192,1.6192,0,0,0,1.6059-1.1953,2.6281,2.6281,0,0,0,.1567-.9414,2.87,2.87,0,0,0-.4829-1.8477,1.5556,1.5556,0,0,0-1.28-.5312h-.9537Z"/><path class="cls-1" d="M161.5293,15.3213V.1807h6.4961V2.4746h-4.2139V6.6035H166.89V8.8984h-3.0786v4.1289h4.2139v2.294Z"/><path class="cls-1" d="M172.3149,15.3213V.1807h6.4961V2.4746h-4.2138V6.6035h3.0786V8.8984h-3.0786v4.1289h4.2138v2.294Z"/><path class="cls-1" d="M186.0024.1807l3.0284,10.1757V.1807h2.2817V15.3213h-2.4507L185.7227,5.626v9.6953H183.44V.1807Z"/><path class="cls-1" d="M208.8105,15.49a3.5876,3.5876,0,0,1-3.61-3.5976V.1924h2.2339V11.8682a1.2474,1.2474,0,0,0,.3862.9238,1.2792,1.2792,0,0,0,.93.38,1.298,1.298,0,0,0,1.3042-1.3037V.1924h2.3784v11.7a3.44,3.44,0,0,1-1.0625,2.56A3.5293,3.5293,0,0,1,208.8105,15.49Z"/><path class="cls-1" d="M223.9116,11.5547a4.2589,4.2589,0,0,1-.8213,2.7041,2.9566,2.9566,0,0,1-1.5693,1.0742,4.2624,4.2624,0,0,1-1.2681.169,3.5839,3.5839,0,0,1-2.2212-.6641,3.7035,3.7035,0,0,1-1.1655-1.4785,5.9724,5.9724,0,0,1-.501-2.1436l2.1734-.1562a3.304,3.304,0,0,0,.7,1.917,1.166,1.166,0,0,0,.9419.4248,1.4145,1.4145,0,0,0,1.1948-.7373,1.8259,1.8259,0,0,0,.23-1.003,2.7821,2.7821,0,0,0-.8574-1.873q-.6753-.64-2.0279-1.9209a8.6658,8.6658,0,0,1-1.6059-1.9707,4.5558,4.5558,0,0,1-.5069-2.127A3.7007,3.7007,0,0,1,217.9951.64,3.4535,3.4535,0,0,1,220.12,0a3.8589,3.8589,0,0,1,2.0884.543,3.1325,3.1325,0,0,1,1.0928,1.1836,4.3565,4.3565,0,0,1,.5009,1.75l-2.1845.3984a2.6387,2.6387,0,0,0-.5313-1.4482,1.1161,1.1161,0,0,0-.9057-.375,1.043,1.043,0,0,0-.9536.5556,2.14,2.14,0,0,0-.2657,1.1114,3.33,3.33,0,0,0,.8931,2.1123,7.5428,7.5428,0,0,0,1.0142.9658q.7968.665,1.0507.93a7.7394,7.7394,0,0,1,1.3037,1.666,6.2989,6.2989,0,0,1,.35.7129A4.1587,4.1587,0,0,1,223.9116,11.5547Z"/><path class="cls-1" d="M227.8442,15.3213V.1807h6.4952V2.4746h-4.2139V6.6035h3.0791V8.8984h-3.0791v4.1289h4.2139v2.294Z"/><path class="cls-1" d="M245.4614,11.6992a3.5091,3.5091,0,0,1-1.0508,2.56,3.437,3.437,0,0,1-2.5351,1.0625H238.29V.1807h3.5859a3.43,3.43,0,0,1,2.541,1.0625,3.5053,3.5053,0,0,1,1.0449,2.5478Zm-4.8906,1.3643h1.377a1.2163,1.2163,0,0,0,.9169-.3926,1.293,1.293,0,0,0,.375-.9238v-7.92a1.2767,1.2767,0,0,0-.3808-.93,1.2321,1.2321,0,0,0-.9111-.3868h-1.377Z"/><path class="cls-1" d="M261.94,11.8438l-.5546,3.4775h-2.376L261.5806.1924h3.14l2.5352,15.1289H264.856l-.5342-3.4775Zm1.1983-8.1856-.8447,5.9639h1.6894Z"/><path class="cls-1" d="M277.731,11.5547a4.26,4.26,0,0,1-.8213,2.7041A2.9569,2.9569,0,0,1,275.34,15.333a4.2605,4.2605,0,0,1-1.2675.169,3.5832,3.5832,0,0,1-2.2217-.6641,3.6984,3.6984,0,0,1-1.1651-1.4785,5.95,5.95,0,0,1-.5009-2.1436l2.1728-.1562a3.304,3.304,0,0,0,.7,1.917,1.1656,1.1656,0,0,0,.9424.4248,1.4146,1.4146,0,0,0,1.1953-.7373,1.8352,1.8352,0,0,0,.2285-1.003,2.7847,2.7847,0,0,0-.8564-1.873q-.6768-.64-2.0283-1.9209a8.6846,8.6846,0,0,1-1.6065-1.9707,4.5557,4.5557,0,0,1-.5068-2.127A3.7,3.7,0,0,1,271.8149.64,3.45,3.45,0,0,1,273.94,0a3.8643,3.8643,0,0,1,2.0889.543,3.1476,3.1476,0,0,1,1.0928,1.1836,4.39,4.39,0,0,1,.501,1.75l-2.1856.3984a2.631,2.631,0,0,0-.5312-1.4482,1.1161,1.1161,0,0,0-.9053-.375,1.0428,1.0428,0,0,0-.9541.5556,2.1362,2.1362,0,0,0-.2656,1.1114,3.33,3.33,0,0,0,.8935,2.1123,7.5339,7.5339,0,0,0,1.0137.9658q.7968.665,1.0508.93a7.7457,7.7457,0,0,1,1.3037,1.666,6.334,6.334,0,0,1,.3506.7129A4.1555,4.1555,0,0,1,277.731,11.5547Z"/><path class="cls-1" d="M294.55,11.8438l-.5547,3.4775H291.62L294.1909.1924h3.14l2.5351,15.1289h-2.3994l-.5342-3.4775Zm1.1982-8.1856-.8447,5.9639h1.69Z"/><path class="cls-1" d="M321.3,11.5547a4.2589,4.2589,0,0,1-.8213,2.7041A2.957,2.957,0,0,1,318.91,15.333a4.2612,4.2612,0,0,1-1.2676.169,3.5832,3.5832,0,0,1-2.2217-.6641,3.6973,3.6973,0,0,1-1.165-1.4785,5.9474,5.9474,0,0,1-.501-2.1436l2.1728-.1562a3.304,3.304,0,0,0,.7,1.917,1.1658,1.1658,0,0,0,.9424.4248,1.4145,1.4145,0,0,0,1.1953-.7373,1.8343,1.8343,0,0,0,.2286-1.003,2.7848,2.7848,0,0,0-.8565-1.873q-.6768-.64-2.0283-1.9209a8.6874,8.6874,0,0,1-1.6065-1.9707,4.5569,4.5569,0,0,1-.5068-2.127A3.7,3.7,0,0,1,315.3843.64a3.45,3.45,0,0,1,2.125-.64,3.8637,3.8637,0,0,1,2.0888.543,3.1476,3.1476,0,0,1,1.0928,1.1836,4.3871,4.3871,0,0,1,.501,1.75l-2.1856.3984a2.631,2.631,0,0,0-.5312-1.4482,1.1159,1.1159,0,0,0-.9053-.375,1.0429,1.0429,0,0,0-.9541.5556,2.1362,2.1362,0,0,0-.2656,1.1114,3.33,3.33,0,0,0,.8936,2.1123,7.5321,7.5321,0,0,0,1.0136.9658q.7969.665,1.0508.93a7.7394,7.7394,0,0,1,1.3037,1.666,6.334,6.334,0,0,1,.3506.7129A4.1532,4.1532,0,0,1,321.3,11.5547Z"/><path class="cls-1" d="M328.8306.1924a3.478,3.478,0,0,1,2.6562,1.0508,3.6452,3.6452,0,0,1,.918,2.56V6A3.5193,3.5193,0,0,1,331.36,8.56a3.4127,3.4127,0,0,1-2.5293,1.0625h-1.3164v5.6992h-2.2813V.1924Zm1.3642,3.6465a1.304,1.304,0,0,0-.3564-.9541,1.2682,1.2682,0,0,0-.9473-.3614h-1.3769V7.3643h1.3769a1.247,1.247,0,0,0,.9238-.3858,1.28,1.28,0,0,0,.38-.93Z"/><path class="cls-1" d="M338.55,15.3213H336.269V.1924H338.55Z"/><path class="cls-1" d="M346.9146.1924a3.4794,3.4794,0,0,1,2.8007,1.0508,3.8144,3.8144,0,0,1,.7852,2.56V6a3.5327,3.5327,0,0,1-1.22,2.7168l1.69,6.6045h-2.4678L347.12,9.6221h-1.5215v5.6992h-2.2812V.1924Zm1.3642,3.6465a1.1576,1.1576,0,0,0-1.3037-1.3155h-1.377V7.3643h1.377a1.247,1.247,0,0,0,.9238-.3858,1.28,1.28,0,0,0,.38-.93Z"/><path class="cls-1" d="M357.5942,15.3213H355.313V.1924h2.2812Z"/><path class="cls-1" d="M364.2427,2.4863h-2.4268V.1924h7.1231V2.4863h-2.4151v12.835h-2.2812Z"/><path class="cls-1" d="M376.7544,15.49a3.5859,3.5859,0,0,1-3.6094-3.5976V.1924h2.2334V11.8682a1.2479,1.2479,0,0,0,.3867.9238,1.2786,1.2786,0,0,0,.93.38,1.2986,1.2986,0,0,0,1.3037-1.3037V.1924h2.378v11.7a3.4366,3.4366,0,0,1-1.0625,2.56A3.5286,3.5286,0,0,1,376.7544,15.49Z"/><path class="cls-1" d="M387.2573,11.8438l-.5547,3.4775h-2.3759L386.8979.1924h3.14l2.5352,15.1289h-2.3995l-.5341-3.4775Zm1.1983-8.1856-.8448,5.9639h1.69Z"/><path class="cls-1" d="M403.0972,15.3213h-6.2178V.1924h2.2812V13.0518h3.9366Z"/><path class="cls-1" d="M415.2866,11.8438l-.5547,3.4775H412.356L414.9272.1924h3.14l2.5352,15.1289h-2.3995l-.5341-3.4775Zm1.1983-8.1856L415.64,9.6221h1.69Z"/><path class="cls-1" d="M426.8511,15.3213H424.57V.1924h2.2813Z"/><path class="cls-1" d="M438.7886,11.6992a3.5091,3.5091,0,0,1-1.0508,2.56,3.437,3.437,0,0,1-2.5352,1.0625h-3.5859V.1807h3.5859a3.43,3.43,0,0,1,2.5411,1.0625,3.5057,3.5057,0,0,1,1.0449,2.5478Zm-4.8907,1.3643h1.377a1.2165,1.2165,0,0,0,.917-.3926,1.293,1.293,0,0,0,.375-.9238v-7.92a1.2767,1.2767,0,0,0-.3809-.93,1.2321,1.2321,0,0,0-.9111-.3868h-1.377Z"/></svg>