<svg id="Layer_1" data-name="Layer 1" xmlns="http://www.w3.org/2000/svg" width="728" height="90" viewBox="0 0 728 90"><defs><style>.cls-1{fill:#231f20;}.cls-2{fill:#d3b372;}</style></defs><title>frame1</title><rect class="cls-1" width="728" height="90"/><path class="cls-2" d="M180.0415,52.4443a3.6077,3.6077,0,0,1-3.6221-3.61V40.5757a3.6163,3.6163,0,1,1,7.2325,0v1.7265h-2.3667V40.5278a1.32,1.32,0,0,0-1.316-1.3164,1.2479,1.2479,0,0,0-.9238.3867,1.2782,1.2782,0,0,0-.38.93V48.81a1.2988,1.2988,0,0,0,1.3037,1.3047,1.277,1.277,0,0,0,.93-.3809,1.2478,1.2478,0,0,0,.3863-.9238V46.7207h2.3667V48.834a3.6074,3.6074,0,0,1-3.61,3.61Z"/><path class="cls-2" d="M190.9463,48.7734l-.5542,3.4776h-2.3765l2.5723-15.1284h3.1387l2.5356,15.1284h-2.3994l-.5342-3.4776Zm1.1987-8.185L191.3,46.5518h1.69Z"/><path class="cls-2" d="M203.8037,37.1108l3.0283,10.1753V37.1108h2.2818v15.14h-2.4507l-3.1392-9.6948V52.251h-2.2822v-15.14Z"/><path class="cls-2" d="M216.7759,37.1108l3.0283,10.1753V37.1108h2.2817v15.14h-2.4506l-3.1392-9.6948V52.251h-2.2822v-15.14Z"/><path class="cls-2" d="M229.9839,48.7734,229.43,52.251h-2.3765l2.5723-15.1284h3.1387L235.3,52.251H232.9l-.5342-3.4776Zm1.1987-8.185-.8452,5.9634h1.69Z"/><path class="cls-2" d="M239.606,52.251v-15.14h3.4169a4.3535,4.3535,0,0,1,2.439.712,3.3182,3.3182,0,0,1,1.3281,1.872,5.2681,5.2681,0,0,1,.2173,1.6055,3.5541,3.5541,0,0,1-.8091,2.4394,2.2813,2.2813,0,0,1-.7968.5909,2.6524,2.6524,0,0,1,1.292,1.1474,4.4658,4.4658,0,0,1,.519,1.4966,5.9506,5.9506,0,0,1,.085,1.0508,5.0528,5.0528,0,0,1-.5435,2.4385,3.2519,3.2519,0,0,1-1.1953,1.2558,3.29,3.29,0,0,1-1.7266.5313Zm2.4633-8.9585h.9536a1.3978,1.3978,0,0,0,1.4249-1.0381,2.9687,2.9687,0,0,0,.1328-.9541,1.9944,1.9944,0,0,0-.459-1.4248,1.4432,1.4432,0,0,0-1.0987-.4463h-.9536Zm0,6.7007h.9536a1.6192,1.6192,0,0,0,1.606-1.1953,2.6282,2.6282,0,0,0,.1567-.9415,2.87,2.87,0,0,0-.4829-1.8476,1.557,1.557,0,0,0-1.28-.5308h-.9536Z"/><path class="cls-2" d="M253.937,52.251h-2.2822V37.1226h2.2822Z"/><path class="cls-2" d="M265.7725,48.4844a4.2565,4.2565,0,0,1-.8213,2.7041,2.955,2.955,0,0,1-1.5694,1.0742,4.26,4.26,0,0,1-1.268.1689,3.5837,3.5837,0,0,1-2.2212-.664,3.7033,3.7033,0,0,1-1.1655-1.4785,5.9688,5.9688,0,0,1-.501-2.1436l2.1733-.1562a3.3033,3.3033,0,0,0,.7,1.9169,1.1658,1.1658,0,0,0,.9419.4249,1.4145,1.4145,0,0,0,1.1953-.7373,1.83,1.83,0,0,0,.2295-1.003,2.7839,2.7839,0,0,0-.8574-1.873q-.676-.64-2.0283-1.92a8.6688,8.6688,0,0,1-1.606-1.9707,4.556,4.556,0,0,1-.5068-2.127,3.7007,3.7007,0,0,1,1.3882-3.13,3.453,3.453,0,0,1,2.125-.64,3.8618,3.8618,0,0,1,2.0888.5429,3.14,3.14,0,0,1,1.0928,1.1836,4.3751,4.3751,0,0,1,.501,1.75l-2.1851.3985a2.6349,2.6349,0,0,0-.5312-1.4483,1.1151,1.1151,0,0,0-.9058-.375,1.0432,1.0432,0,0,0-.9536.5557,2.14,2.14,0,0,0-.2656,1.1113,3.3292,3.3292,0,0,0,.893,2.1123,7.5514,7.5514,0,0,0,1.0147.9659q.7968.6649,1.05.93a7.7556,7.7556,0,0,1,1.3037,1.6656,6.324,6.324,0,0,1,.35.7129A4.1438,4.1438,0,0,1,265.7725,48.4844Z"/><path class="cls-2" d="M281.9429,45.84V52.251h-2.2823V37.1226h2.2823v6.4238h2.7529V37.1226h2.2817V52.251h-2.2817V45.84Z"/><path class="cls-2" d="M294.8755,48.7734l-.5542,3.4776h-2.3765l2.5723-15.1284h3.1387l2.5356,15.1284H297.792l-.5342-3.4776Zm1.1987-8.185-.8452,5.9634h1.69Z"/><path class="cls-2" d="M312.0293,48.4844a4.2559,4.2559,0,0,1-.8213,2.7041,2.9551,2.9551,0,0,1-1.5693,1.0742,4.26,4.26,0,0,1-1.2681.1689,3.5837,3.5837,0,0,1-2.2212-.664,3.7033,3.7033,0,0,1-1.1655-1.4785,5.9688,5.9688,0,0,1-.501-2.1436l2.1733-.1562a3.3033,3.3033,0,0,0,.7,1.9169,1.1659,1.1659,0,0,0,.9419.4249,1.4146,1.4146,0,0,0,1.1954-.7373,1.83,1.83,0,0,0,.2294-1.003,2.7839,2.7839,0,0,0-.8574-1.873l-2.0283-1.92a8.6715,8.6715,0,0,1-1.606-1.9707,4.5572,4.5572,0,0,1-.5068-2.127,3.7007,3.7007,0,0,1,1.3882-3.13,3.4535,3.4535,0,0,1,2.125-.64,3.8619,3.8619,0,0,1,2.0889.5429,3.1409,3.1409,0,0,1,1.0927,1.1836,4.3719,4.3719,0,0,1,.501,1.75l-2.185.3985a2.6349,2.6349,0,0,0-.5313-1.4483,1.115,1.115,0,0,0-.9058-.375,1.0433,1.0433,0,0,0-.9536.5557,2.1406,2.1406,0,0,0-.2656,1.1113,3.3294,3.3294,0,0,0,.8931,2.1123,7.55,7.55,0,0,0,1.0146.9659q.7969.6649,1.05.93a7.7525,7.7525,0,0,1,1.3037,1.6656,6.324,6.324,0,0,1,.35.7129A4.1438,4.1438,0,0,1,312.0293,48.4844Z"/><path class="cls-2" d="M325.917,52.251v-15.14h3.417a4.3532,4.3532,0,0,1,2.4389.712,3.3183,3.3183,0,0,1,1.3282,1.872,5.2712,5.2712,0,0,1,.2173,1.6055,3.5546,3.5546,0,0,1-.8091,2.4394,2.2808,2.2808,0,0,1-.7969.5909,2.6524,2.6524,0,0,1,1.292,1.1474,4.4658,4.4658,0,0,1,.519,1.4966,5.9411,5.9411,0,0,1,.085,1.0508,5.0528,5.0528,0,0,1-.5435,2.4385A3.2512,3.2512,0,0,1,331.87,51.72a3.29,3.29,0,0,1-1.7265.5313Zm2.4634-8.9585h.9536a1.3976,1.3976,0,0,0,1.4248-1.0381,2.966,2.966,0,0,0,.1328-.9541,1.9939,1.9939,0,0,0-.459-1.4248,1.4428,1.4428,0,0,0-1.0986-.4463H328.38Zm0,6.7007h.9536a1.6192,1.6192,0,0,0,1.6059-1.1953,2.6282,2.6282,0,0,0,.1568-.9415,2.87,2.87,0,0,0-.4829-1.8476,1.5571,1.5571,0,0,0-1.28-.5308H328.38Z"/><path class="cls-2" d="M337.9487,52.251v-15.14h6.4961v2.294H340.231v4.1289H343.31v2.2949H340.231V49.957h4.2138v2.294Z"/><path class="cls-2" d="M348.7344,52.251v-15.14h6.4961v2.294h-4.2139v4.1289h3.0786v2.2949h-3.0786V49.957h4.2139v2.294Z"/><path class="cls-2" d="M362.4219,37.1108,365.45,47.2861V37.1108h2.2812v15.14h-2.45l-3.1391-9.6948V52.251H359.86v-15.14Z"/><path class="cls-2" d="M385.23,52.42a3.5861,3.5861,0,0,1-3.6094-3.5976v-11.7h2.2334V48.7979a1.2479,1.2479,0,0,0,.3867.9238,1.2786,1.2786,0,0,0,.93.38,1.2986,1.2986,0,0,0,1.3037-1.3037V37.1226h2.378v11.7a3.4366,3.4366,0,0,1-1.0625,2.56A3.5286,3.5286,0,0,1,385.23,52.42Z"/><path class="cls-2" d="M400.33,48.4844a4.2589,4.2589,0,0,1-.8213,2.7041,2.957,2.957,0,0,1-1.5693,1.0742,4.2619,4.2619,0,0,1-1.2676.1689,3.5832,3.5832,0,0,1-2.2217-.664,3.698,3.698,0,0,1-1.165-1.4785,5.9479,5.9479,0,0,1-.501-2.1436l2.1728-.1562a3.3033,3.3033,0,0,0,.7,1.9169,1.1656,1.1656,0,0,0,.9424.4249,1.4145,1.4145,0,0,0,1.1953-.7373,1.8344,1.8344,0,0,0,.2285-1.003,2.7847,2.7847,0,0,0-.8564-1.873q-.6768-.64-2.0283-1.92a8.6868,8.6868,0,0,1-1.6065-1.9707,4.556,4.556,0,0,1-.5068-2.127,3.7,3.7,0,0,1,1.3887-3.13,3.45,3.45,0,0,1,2.125-.64,3.8637,3.8637,0,0,1,2.0888.5429,3.1483,3.1483,0,0,1,1.0928,1.1836,4.3913,4.3913,0,0,1,.501,1.75l-2.1856.3985a2.6311,2.6311,0,0,0-.5312-1.4483,1.1159,1.1159,0,0,0-.9053-.375,1.043,1.043,0,0,0-.9541.5557,2.1358,2.1358,0,0,0-.2656,1.1113,3.33,3.33,0,0,0,.8935,2.1123,7.5336,7.5336,0,0,0,1.0137.9659q.7969.6649,1.0508.93a7.7556,7.7556,0,0,1,1.3037,1.6656,6.334,6.334,0,0,1,.3506.7129A4.1532,4.1532,0,0,1,400.33,48.4844Z"/><path class="cls-2" d="M404.2637,52.251v-15.14h6.4951v2.294h-4.2139v4.1289h3.0791v2.2949h-3.0791V49.957h4.2139v2.294Z"/><path class="cls-2" d="M421.8809,48.6289a3.5091,3.5091,0,0,1-1.0508,2.56,3.437,3.437,0,0,1-2.5352,1.0625H414.709v-15.14h3.5859a3.43,3.43,0,0,1,2.541,1.0625,3.5056,3.5056,0,0,1,1.045,2.5479ZM416.99,49.9932h1.377a1.2165,1.2165,0,0,0,.917-.3926,1.2932,1.2932,0,0,0,.375-.9238V40.7573a1.277,1.277,0,0,0-.3809-.93,1.2323,1.2323,0,0,0-.9111-.3867H416.99Z"/><path class="cls-2" d="M442.9746,48.4844a4.2589,4.2589,0,0,1-.8213,2.7041,2.9566,2.9566,0,0,1-1.5693,1.0742,4.2614,4.2614,0,0,1-1.2676.1689,3.5834,3.5834,0,0,1-2.2217-.664,3.698,3.698,0,0,1-1.165-1.4785,5.9521,5.9521,0,0,1-.501-2.1436l2.1729-.1562a3.302,3.302,0,0,0,.7,1.9169,1.1653,1.1653,0,0,0,.9423.4249,1.4146,1.4146,0,0,0,1.1954-.7373,1.8352,1.8352,0,0,0,.2285-1.003,2.7848,2.7848,0,0,0-.8565-1.873q-.6766-.64-2.0283-1.92a8.6859,8.6859,0,0,1-1.6064-1.9707A4.5561,4.5561,0,0,1,435.67,40.7a3.7,3.7,0,0,1,1.3887-3.13,3.45,3.45,0,0,1,2.125-.64,3.8643,3.8643,0,0,1,2.0889.5429,3.1481,3.1481,0,0,1,1.0927,1.1836,4.388,4.388,0,0,1,.501,1.75l-2.1855.3985a2.6311,2.6311,0,0,0-.5313-1.4483,1.1158,1.1158,0,0,0-.9053-.375,1.043,1.043,0,0,0-.9541.5557,2.1358,2.1358,0,0,0-.2656,1.1113,3.33,3.33,0,0,0,.8936,2.1123,7.5318,7.5318,0,0,0,1.0136.9659q.7969.6649,1.0508.93a7.7525,7.7525,0,0,1,1.3037,1.6656,6.3169,6.3169,0,0,1,.3506.7129A4.1532,4.1532,0,0,1,442.9746,48.4844Z"/><path class="cls-2" d="M451.5273,37.1226a3.4781,3.4781,0,0,1,2.6563,1.0507,3.6456,3.6456,0,0,1,.918,2.56V42.93a3.5192,3.5192,0,0,1-1.045,2.56,3.4139,3.4139,0,0,1-2.5293,1.0621h-1.3164V52.251H447.93V37.1226Zm1.3643,3.6464a1.3041,1.3041,0,0,0-.3564-.9541,1.2682,1.2682,0,0,0-.9473-.3613h-1.377v4.8408h1.377a1.2469,1.2469,0,0,0,.9238-.3857,1.28,1.28,0,0,0,.38-.93Z"/><path class="cls-2" d="M462.2666,52.251h-2.2812V37.1226h2.2812Z"/><path class="cls-2" d="M470.9658,37.1226a3.4794,3.4794,0,0,1,2.8008,1.0507,3.8154,3.8154,0,0,1,.7852,2.56V42.93a3.5326,3.5326,0,0,1-1.22,2.7168l1.69,6.604h-2.4678l-1.3838-5.6992h-1.5215V52.251h-2.2812V37.1226ZM472.33,40.769a1.1575,1.1575,0,0,0-1.3037-1.3154h-1.377v4.8408h1.377a1.2469,1.2469,0,0,0,.9238-.3857,1.28,1.28,0,0,0,.38-.93Z"/><path class="cls-2" d="M482.32,52.251h-2.2812V37.1226H482.32Z"/><path class="cls-2" d="M489.6436,39.4165h-2.4268V37.1226h7.123v2.2939h-2.415V52.251h-2.2812Z"/><path class="cls-2" d="M502.832,52.42a3.5861,3.5861,0,0,1-3.6093-3.5976v-11.7h2.2334V48.7979a1.2479,1.2479,0,0,0,.3867.9238,1.2784,1.2784,0,0,0,.93.38,1.2988,1.2988,0,0,0,1.3037-1.3037V37.1226h2.3779v11.7a3.4362,3.4362,0,0,1-1.0625,2.56A3.5285,3.5285,0,0,1,502.832,52.42Z"/><path class="cls-2" d="M514.0146,48.7734,513.46,52.251h-2.376l2.5713-15.1284h3.14L519.33,52.251h-2.3994l-.5342-3.4776Zm1.1983-8.185-.8447,5.9634h1.6894Z"/><path class="cls-2" d="M530.5293,52.251h-6.2178V37.1226h2.2813V49.9814h3.9365Z"/><path class="cls-2" d="M541.376,52.251h-6.2178V37.1226H537.44V49.9814h3.9365Z"/><path class="cls-2" d="M546.2354,45.9126l-3.0547-8.8018h2.5107l1.69,5.4336,1.6787-5.4336h2.5235l-3.0674,8.8018V52.251h-2.2812Z"/></svg>