<svg id="Layer_1" data-name="Layer 1" xmlns="http://www.w3.org/2000/svg" width="160" height="600" viewBox="0 0 160 600"><defs><style>.cls-1{fill:#ab9555;}</style></defs><title>frame4</title><path class="cls-1" d="M16.10752,307.20354h4.47021a6.27129,6.27129,0,0,1,2.50488.44971,4.73469,4.73469,0,0,1,1.69483,1.20019,4.4893,4.4893,0,0,1,.94531,1.7251,7.20039,7.20039,0,0,1,.28467,2.0249v.77979a6.82446,6.82446,0,0,1-.13477,1.47021,3.51972,3.51972,0,0,1-.40527,1.04981,3.34925,3.34925,0,0,1-.65967.79492,5.73324,5.73324,0,0,1-.8999.645,3.30634,3.30634,0,0,1,1.58984,1.51514,5.977,5.977,0,0,1,.50977,2.68506v1.20019a6.204,6.204,0,0,1-1.36475,4.31983,5.64037,5.64037,0,0,1-4.36523,1.5H16.10752Zm3.06005,8.75977h1.37989a2.338,2.338,0,0,0,2.05517-.76514,3.94808,3.94808,0,0,0,.52491-2.23486,3.372,3.372,0,0,0-.585-2.15967,2.603,2.603,0,0,0-2.11523-.72021H19.16757Zm0,9.54H20.4874a3.2247,3.2247,0,0,0,1.45508-.27,1.85931,1.85931,0,0,0,.79492-.75,2.81813,2.81813,0,0,0,.33008-1.14014q.06006-.65917.06006-1.43994a9.62214,9.62214,0,0,0-.08985-1.40967,2.32205,2.32205,0,0,0-.375-1.00537,1.76881,1.76881,0,0,0-.79492-.61475,3.61618,3.61618,0,0,0-1.3501-.21h-1.3501Z"/><path class="cls-1" d="M30.8873,307.20354h9.12012v2.87989H33.94736v6.27h5.27979v2.87989H33.94736v6.27h6.06006v3.06006H30.8873Z"/><path class="cls-1" d="M51.567,307.20354h4.58984a6.8182,6.8182,0,0,1,2.22022.33008,4.26678,4.26678,0,0,1,1.74023,1.16992,4.58126,4.58126,0,0,1,1.07959,1.96485,12.30116,12.30116,0,0,1,.30029,3.04492,15.23544,15.23544,0,0,1-.165,2.415,5.08776,5.08776,0,0,1-.70508,1.875,4.46525,4.46525,0,0,1-1.68018,1.63525,5.65715,5.65715,0,0,1-2.75976.585H54.62705v8.33985H51.567Zm3.06006,10.13965h1.47021a3.12649,3.12649,0,0,0,1.43994-.27,1.719,1.719,0,0,0,.75-.73486,2.8598,2.8598,0,0,0,.28467-1.125q.04542-.65919.04541-1.46973,0-.75-.04541-1.42529a3.3441,3.3441,0,0,0-.27-1.16992,1.71711,1.71711,0,0,0-.70459-.77979,2.73364,2.73364,0,0,0-1.38037-.28515H54.62705Z"/><path class="cls-1" d="M64.777,307.20354h4.91992q5.40015,0,5.3999,6.27a7.92115,7.92115,0,0,1-.585,3.19483,4.52068,4.52068,0,0,1-2.05468,2.145l3.2998,9.75H72.51718l-2.85009-9.12012H67.837v9.12012H64.777Zm3.06006,9.54h1.74023a3.07875,3.07875,0,0,0,1.28955-.2251,1.659,1.659,0,0,0,.73536-.645,2.75437,2.75437,0,0,0,.34472-1.03515,11.286,11.286,0,0,0,0-2.8501,2.57337,2.57337,0,0,0-.375-1.0498,1.69861,1.69861,0,0,0-.79492-.645,3.61422,3.61422,0,0,0-1.3501-.21H67.837Z"/><path class="cls-1" d="M79.55673,307.20354h9.12012v2.87989H82.61679v6.27h5.27979v2.87989H82.61679v6.27h6.06006v3.06006H79.55673Z"/><path class="cls-1" d="M102.55625,313.35344H99.49619v-.68994a3.26633,3.26633,0,0,0-.49463-1.81494,1.83079,1.83079,0,0,0-1.665-.76513,2.01125,2.01125,0,0,0-1.03516.23974,1.7749,1.7749,0,0,0-.62988.61524,2.576,2.576,0,0,0-.31494.87011,5.77014,5.77014,0,0,0-.09033,1.03467,10.507,10.507,0,0,0,.04541,1.06543,1.8922,1.8922,0,0,0,.22461.75,1.71529,1.71529,0,0,0,.52539.55469,4.74267,4.74267,0,0,0,.94482.48l2.33985.93017a5.82027,5.82027,0,0,1,1.6499.915,3.71518,3.71518,0,0,1,.9751,1.23,5.22489,5.22489,0,0,1,.46533,1.62012,16.25894,16.25894,0,0,1,.11963,2.085,10.9811,10.9811,0,0,1-.27,2.50488,5.27824,5.27824,0,0,1-.88477,1.98,4.25271,4.25271,0,0,1-1.63525,1.30517,5.83106,5.83106,0,0,1-2.48975.48,5.44854,5.44854,0,0,1-2.06982-.39014,4.92662,4.92662,0,0,1-2.74512-2.66992,4.978,4.978,0,0,1-.40527-2.01025v-1.13965h3.06006v.96a2.49733,2.49733,0,0,0,.49511,1.51465,1.92769,1.92769,0,0,0,1.665.67529,2.68554,2.68554,0,0,0,1.21485-.22509,1.548,1.548,0,0,0,.66015-.62989,2.6,2.6,0,0,0,.28516-1.00537q.05932-.59911.05957-1.31982a13.06957,13.06957,0,0,0-.05957-1.37989,2.19781,2.19781,0,0,0-.25537-.87011,1.55778,1.55778,0,0,0-.54-.54,7.191,7.191,0,0,0-.915-.44971l-2.18994-.90039a4.85084,4.85084,0,0,1-2.65479-2.145,7.3731,7.3731,0,0,1-.6748-3.34473,7.75649,7.75649,0,0,1,.32959-2.28027,5.327,5.327,0,0,1,.97509-1.85986,4.65887,4.65887,0,0,1,1.63526-1.24512,5.38575,5.38575,0,0,1,2.31006-.46484,5.08194,5.08194,0,0,1,2.085.41992,5.185,5.185,0,0,1,1.61963,1.11035,4.92309,4.92309,0,0,1,1.03515,1.54492,4.47586,4.47586,0,0,1,.35987,1.75488Z"/><path class="cls-1" d="M106.836,307.20354h9.12012v2.87989h-6.06006v6.27h5.27979v2.87989h-5.27979v6.27h6.06006v3.06006H106.836Z"/><path class="cls-1" d="M119.81552,307.20354h2.93995l4.62011,12.86963h.06006V307.20354h3.06006v21.35987h-2.87988l-4.68018-12.83985h-.06006v12.83985h-3.06006Z"/><path class="cls-1" d="M137.26523,310.08343h-3.54v-2.87989h10.13965v2.87989h-3.54v18.48h-3.05957Z"/><path class="cls-1" d="M145.27451,325.50335h3.06006v3.06006h-3.06006Z"/></svg>