<svg id="Layer_1" data-name="Layer 1" xmlns="http://www.w3.org/2000/svg" width="160" height="600" viewBox="0 0 160 600"><defs><style>.cls-1{fill:#ab9555;}</style></defs><title>frame1</title><path class="cls-1" d="M37.117,329.06984a5.094,5.094,0,0,1-5.11635-5.10526V307.29519h3.17119v16.63472a1.77587,1.77587,0,0,0,.54784,1.30787,1.80241,1.80241,0,0,0,1.3148.54228,1.84088,1.84088,0,0,0,1.85084-1.85015V307.29519h3.38339v16.66939a4.87382,4.87382,0,0,1-1.509,3.631A5.02746,5.02746,0,0,1,37.117,329.06984Z"/><path class="cls-1" d="M53.13382,307.29519,57.425,321.7358V307.29519h3.24192V328.798H57.194l-4.461-13.76934V328.798H49.49107V307.29519Z"/><path class="cls-1" d="M73.0174,307.29519a4.92126,4.92126,0,0,1,3.77242,1.49787,5.16052,5.16052,0,0,1,1.30856,3.631v3.12334a4.99249,4.99249,0,0,1-1.48331,3.631,4.84687,4.84687,0,0,1-3.58935,1.509h-1.871V328.798H67.91284V307.29519Zm1.93337,5.18708a1.87032,1.87032,0,0,0-.4993-1.362,1.796,1.796,0,0,0-1.346-.51316h-1.9507v6.87358h1.9507a1.76225,1.76225,0,0,0,1.31064-.54783,1.81851,1.81851,0,0,0,.53466-1.3148Z"/><path class="cls-1" d="M93.87807,328.798H85.03784V307.29519h3.24123v18.28515h5.599Z"/><path class="cls-1" d="M105.55594,329.06984a5.09287,5.09287,0,0,1-5.115-5.10526V307.29519h3.1705v16.63472a1.77587,1.77587,0,0,0,.54784,1.30787,1.80352,1.80352,0,0,0,1.3148.54228,1.84206,1.84206,0,0,0,1.85154-1.85015V307.29519h3.38269v16.66939a4.87639,4.87639,0,0,1-1.509,3.631A5.02675,5.02675,0,0,1,105.55594,329.06984Z"/><path class="cls-1" d="M123.0242,329.06984a5.13064,5.13064,0,0,1-5.13993-5.12884V312.16328a5.1337,5.1337,0,1,1,10.26737,0v2.45207h-3.36051V312.105a1.87278,1.87278,0,0,0-1.87373-1.87512,1.76967,1.76967,0,0,0-1.30786.54922,1.81408,1.81408,0,0,0-.54368,1.3259v11.79991a1.85628,1.85628,0,0,0,1.85154,1.864,1.81408,1.81408,0,0,0,1.3259-.54368,1.7828,1.7828,0,0,0,.54783-1.32035v-4.23149h-1.803v-3.24123h5.1635V323.941a5.12351,5.12351,0,0,1-5.12744,5.12884Z"/><path class="cls-1" d="M134.727,325.56786h3.24123v3.24123H134.727Z"/></svg>