<svg id="Layer_1" data-name="Layer 1" xmlns="http://www.w3.org/2000/svg" width="300" height="250" viewBox="0 0 300 250"><defs><style>.cls-1{fill:#ab9555;}</style></defs><title>frame3_1</title><path class="cls-1" d="M90.59558,161.96271H88.0448v-16.9082h2.55078Z"/><path class="cls-1" d="M97.25866,145.04084l3.38477,11.37305V145.04084h2.55078v16.92187H100.455l-3.50879-10.83593v10.83593H94.39538V145.04084Z"/><path class="cls-1" d="M109.5448,161.96271H106.994V145.04084h7.25976v2.56445h-4.709v4.61524h3.44043V154.784H109.5448Z"/><path class="cls-1" d="M121.56335,144.83869a4.04271,4.04271,0,0,1,4.04785,4.04785V158.117a4.04152,4.04152,0,1,1-8.083,0v-9.23047a4.04273,4.04273,0,0,1,4.03515-4.04785Zm1.38965,3.99414a1.45043,1.45043,0,0,0-1.458-1.457,1.42952,1.42952,0,0,0-1.03906.42481,1.39751,1.39751,0,0,0-.43164,1.03222v9.25684a1.3997,1.3997,0,0,0,.43164,1.0332,1.42956,1.42956,0,0,0,1.03906.42481,1.45044,1.45044,0,0,0,1.458-1.458Z"/><path class="cls-1" d="M133.40612,145.05451a3.89016,3.89016,0,0,1,3.13086,1.17383,4.266,4.266,0,0,1,.877,2.86133v2.456a3.95264,3.95264,0,0,1-1.36231,3.03614l1.88867,7.38085h-2.75781l-1.54687-6.36914h-1.7002v6.36914h-2.55078v-16.9082Zm1.5254,4.0752a1.29448,1.29448,0,0,0-1.458-1.47071h-1.53809v5.41114h1.53809a1.39232,1.39232,0,0,0,1.03222-.43164,1.42659,1.42659,0,0,0,.42579-1.03907Z"/><path class="cls-1" d="M144.19714,161.96271h-2.55078V145.04084h3.66016l2.37695,12.15625,2.28125-12.15625h3.5166v16.92187h-2.55078V151.3299l-2.21289,10.63281h-2.05078l-2.46973-10.60644Z"/><path class="cls-1" d="M160.40808,158.077l-.61914,3.88574h-2.65625l2.875-16.9082h3.50781l2.834,16.9082h-2.68164l-.59668-3.88574Zm1.33984-9.14941-.94433,6.666h1.88867Z"/><path class="cls-1" d="M170.33972,147.619h-2.71289v-2.56445h7.96191V147.619h-2.69922v14.34375h-2.5498Z"/><path class="cls-1" d="M181.71081,161.96271H179.16v-16.9082h2.55078Z"/><path class="cls-1" d="M189.51843,144.83869a4.04271,4.04271,0,0,1,4.04785,4.04785V158.117a4.04153,4.04153,0,1,1-8.083,0v-9.23047a4.04273,4.04273,0,0,1,4.03516-4.04785Zm1.38965,3.99414a1.45044,1.45044,0,0,0-1.457-1.457,1.42635,1.42635,0,0,0-1.03907.42481,1.39385,1.39385,0,0,0-.43164,1.03222v9.25684a1.396,1.396,0,0,0,.43164,1.0332,1.42639,1.42639,0,0,0,1.03907.42481,1.45045,1.45045,0,0,0,1.457-1.458Z"/><path class="cls-1" d="M200.18933,145.04084l3.38476,11.37305V145.04084h2.55078v16.92187h-2.73925l-3.50879-10.83593v10.83593h-2.55078V145.04084Z"/><path class="cls-1" d="M209.39831,159.42561h2.55078v2.55078h-2.55078Z"/></svg>