<svg id="Layer_1" data-name="Layer 1" xmlns="http://www.w3.org/2000/svg" width="300" height="250" viewBox="0 0 300 250"><defs><style>.cls-1{fill:#ab9555;}</style></defs><title>frame2_1</title><path class="cls-1" d="M94.96793,157.75275a4.755,4.755,0,0,1-.918,3.02246,3.29847,3.29847,0,0,1-1.7539,1.20118,4.78251,4.78251,0,0,1-1.417.18945,4.016,4.016,0,0,1-2.48339-.74219,4.15305,4.15305,0,0,1-1.30176-1.65332,6.68781,6.68781,0,0,1-.56055-2.39551l2.42969-.17578a3.68726,3.68726,0,0,0,.78222,2.14356,1.30171,1.30171,0,0,0,1.05274.47461A1.58193,1.58193,0,0,0,92.134,158.993a2.04424,2.04424,0,0,0,.25683-1.12012,3.11325,3.11325,0,0,0-.959-2.09375q-.75586-.71631-2.2666-2.14746a9.67294,9.67294,0,0,1-1.79493-2.20215,5.08919,5.08919,0,0,1-.5664-2.37695,4.13275,4.13275,0,0,1,1.55176-3.49805,3.85479,3.85479,0,0,1,2.375-.71582,4.31133,4.31133,0,0,1,2.334.60742,3.50846,3.50846,0,0,1,1.22168,1.32227,4.88062,4.88062,0,0,1,.55957,1.957l-2.44238.44531a2.947,2.947,0,0,0-.59375-1.62011,1.24716,1.24716,0,0,0-1.01172-.418,1.16643,1.16643,0,0,0-1.06641.62109,2.39823,2.39823,0,0,0-.29687,1.24121,3.725,3.725,0,0,0,.999,2.36133,8.46531,8.46531,0,0,0,1.13379,1.08008q.89063.74121,1.17383,1.03906a8.66587,8.66587,0,0,1,1.457,1.8623,7.13481,7.13481,0,0,1,.3916.7959A4.62525,4.62525,0,0,1,94.96793,157.75275Z"/><path class="cls-1" d="M102.62711,145.05451a3.88552,3.88552,0,0,1,2.96875,1.17383,4.0732,4.0732,0,0,1,1.02539,2.86133v2.456a3.93111,3.93111,0,0,1-1.167,2.86035,3.81688,3.81688,0,0,1-2.82715,1.1875h-1.4707v6.36914H98.60563v-16.9082Zm1.52539,4.0752a1.45267,1.45267,0,0,0-.39844-1.06543,1.41652,1.41652,0,0,0-1.05957-.40528h-1.53808v5.41114h1.53808a1.39232,1.39232,0,0,0,1.03223-.43164,1.42658,1.42658,0,0,0,.42578-1.03907Z"/><path class="cls-1" d="M112.72965,161.96271h-2.55078v-16.9082h2.55078Z"/><path class="cls-1" d="M120.55094,145.05451a3.89019,3.89019,0,0,1,3.13086,1.17383,4.26608,4.26608,0,0,1,.877,2.86133v2.456a3.95266,3.95266,0,0,1-1.3623,3.03614l1.88867,7.38085h-2.75781l-1.54688-6.36914h-1.70019v6.36914h-2.55079v-16.9082Zm1.52539,4.0752a1.29448,1.29448,0,0,0-1.458-1.47071h-1.53808v5.41114h1.53808a1.39232,1.39232,0,0,0,1.03223-.43164,1.42658,1.42658,0,0,0,.42578-1.03907Z"/><path class="cls-1" d="M131.342,161.96271h-2.55078v-16.9082H131.342Z"/><path class="cls-1" d="M137.62516,147.619h-2.71289v-2.56445h7.96191V147.619h-2.69824v14.34375h-2.55078Z"/><path class="cls-1" d="M150.467,162.15217a4.0079,4.0079,0,0,1-4.03515-4.02149V145.05451h2.49707v13.04883a1.39232,1.39232,0,0,0,.43164,1.03223,1.42341,1.42341,0,0,0,1.03906.42578,1.45207,1.45207,0,0,0,1.457-1.458V145.05451h2.65821v13.07617a3.83945,3.83945,0,0,1-1.1875,2.86035A3.94135,3.94135,0,0,1,150.467,162.15217Z"/><path class="cls-1" d="M161.06363,158.077l-.61914,3.88574h-2.65625l2.875-16.9082h3.50782l2.834,16.9082H164.3234l-.59668-3.88574Zm1.33985-9.14941-.94434,6.666h1.88867Z"/><path class="cls-1" d="M177.62125,161.96271h-6.95019v-16.9082h2.55078v14.3711h4.39941Z"/><path class="cls-1" d="M183.44449,161.96271h-2.55078v-16.9082h2.55078Z"/><path class="cls-1" d="M189.72867,147.619h-2.71289v-2.56445h7.96192V147.619h-2.69922v14.34375h-2.54981Z"/><path class="cls-1" d="M201.6652,154.87873l-3.41407-9.83789h2.80664l1.88965,6.07227,1.876-6.07227h2.82031l-3.42773,9.83789v7.084H201.6652Z"/><path class="cls-1" d="M210.91813,159.42561h2.55078v2.55078h-2.55078Z"/></svg>