<svg id="Content" xmlns="http://www.w3.org/2000/svg" xmlns:xlink="http://www.w3.org/1999/xlink" width="320" height="480" viewBox="0 0 320 480"><defs><style>.cls-1{fill:#ba9544;}.cls-2{fill:#fff;stroke:#ba9544;stroke-miterlimit:10;stroke-width:0.5px;}.cls-3{clip-path:url(#clip-path);}</style><clipPath id="clip-path"><polygon class="cls-1" points="58.24 285.153 67.633 298.458 67.818 298.475 67.818 271.611 67.633 271.604 58.24 285.153"/></clipPath></defs><title>Artboard 15</title><polygon class="cls-2" points="253.511 272.279 67.428 271.574 58.035 285.121 67.428 298.426 253.511 298.109 261.965 285.195 253.511 272.279"/><polygon class="cls-1" points="58.24 285.153 67.633 298.458 67.818 298.475 67.818 271.611 67.633 271.604 58.24 285.153"/><g class="cls-3"><rect class="cls-1" x="56.16191" y="269.52779" width="13.72837" height="31.02293"/></g><path class="cls-1" d="M167.35938,289.5918a4.55777,4.55777,0,0,1,3.24023-7.80274,4.93579,4.93579,0,0,1,3.34668,1.21485l-1.21484,1.33007a3.36113,3.36113,0,0,0-2.13184-.72851,2.67557,2.67557,0,0,0-1.97656.76562,2.64894,2.64894,0,0,0-.75,1.94336,2.73136,2.73136,0,0,0,.75879,2.0166,2.68929,2.68929,0,0,0,1.98046.74707,3.26007,3.26007,0,0,0,2.11915-.72265l1.21484,1.33008a4.91064,4.91064,0,0,1-3.34668,1.21484A4.43463,4.43463,0,0,1,167.35938,289.5918Z"/><path class="cls-1" d="M182.377,286.0957a2.58717,2.58717,0,0,1-1.48242,4.81055l-5.126-.00586V281.7959h4.835q2.30127.13331,2.42968,2.67871A1.90579,1.90579,0,0,1,182.377,286.0957Zm-4.78027-.64941h2.55078a1.02872,1.02872,0,0,0,1.12988-1.13574q-.03075-.668-1.11132-.70508h-2.56934Zm0,4.03223h2.97656a1.18906,1.18906,0,0,0,1.31153-1.31739q-.03077-.87452-1.29395-.91113h-2.99414Z"/><path class="cls-1" d="M185.46191,290.90039V281.7832h3.51075q4.251,0,4.252,4.5625,0,4.55421-4.252,4.55469Zm3.51075-1.81641q2.42284-.00585,2.42968-2.73828-.00585-2.73339-2.42968-2.73437h-1.68848V289.084Z"/><path class="cls-1" d="M199.51074,285.09082a.88086.88086,0,0,1,.65625-.24609.91249.91249,0,0,1,.67969.24609.835.835,0,0,1,.24316.61035.82366.82366,0,0,1-.24316.60742,1.039,1.039,0,0,1-1.33594,0,.82366.82366,0,0,1-.24316-.60742A.835.835,0,0,1,199.51074,285.09082Zm0,4.34863a.88086.88086,0,0,1,.65625-.24609.91249.91249,0,0,1,.67969.24609.83417.83417,0,0,1,.24316.61133.82148.82148,0,0,1-.24316.60645,1.039,1.039,0,0,1-1.33594,0,.82148.82148,0,0,1-.24316-.60645A.83417.83417,0,0,1,199.51074,289.43945Z"/><path class="cls-1" d="M212.5459,284.40137l-3.52344,1.94433,3.52344,1.94336v1.39649l-5.75781-3.16407V286.127l5.75781-3.123Z"/><path class="cls-1" d="M220.43555,281.78906v-.00586h1.8164v9.11719h-1.8164v-6.68164l-1.21485,1.21484-1.21484-1.21484Z"/></svg>