<svg xmlns="http://www.w3.org/2000/svg" width="320" height="480" viewBox="0 0 320 480"><defs><style>.cls-1{fill:#ba9544;}</style></defs><title>Frame1 - Sensi Star</title><g id="Content"><path class="cls-1" d="M111.25781,219.59961c5.52832,0,8.36963,3.30664,8.36963,9.09277v1.13672h-5.37305v-1.49805c0-2.584-1.0332-3.56543-2.84179-3.56543-1.80811,0-2.84131.98145-2.84131,3.56543,0,7.43946,11.10791,8.835,11.10791,19.168,0,5.78711-2.89307,9.09375-8.47315,9.09375s-8.47314-3.30664-8.47314-9.09375v-2.22168h5.373v2.583c0,2.584,1.13672,3.51367,2.94482,3.51367,1.8086,0,2.94531-.92968,2.94531-3.51367,0-7.43945-11.10839-8.835-11.10839-19.168C102.8877,222.90625,105.72949,219.59961,111.25781,219.59961Z"/><path class="cls-1" d="M134.09277,235.25391h7.80176v5.167h-7.80176v10.5918h9.81641v5.166h-15.5v-36.166h15.5v5.167h-9.81641Z"/><path class="cls-1" d="M157.96094,229.98438v26.19433h-5.11475v-36.166h7.12988l5.83838,21.64843V220.0127h5.063v36.166h-5.83838Z"/><path class="cls-1" d="M188.08057,219.59961c5.52832,0,8.36963,3.30664,8.36963,9.09277v1.13672h-5.37305v-1.49805c0-2.584-1.0332-3.56543-2.8418-3.56543-1.8081,0-2.8418.98145-2.8418,3.56543,0,7.43946,11.1084,8.835,11.1084,19.168,0,5.78711-2.89306,9.09375-8.47314,9.09375s-8.47315-3.30664-8.47315-9.09375v-2.22168h5.37305v2.583c0,2.584,1.13672,3.51367,2.94531,3.51367,1.80811,0,2.94483-.92968,2.94483-3.51367,0-7.43945-11.1084-8.835-11.1084-19.168C179.71045,222.90625,182.55225,219.59961,188.08057,219.59961Z"/><path class="cls-1" d="M205.23145,220.0127H210.915v36.166h-5.68359Z"/><path class="cls-1" d="M119.00684,269.59961c5.52832,0,8.36962,3.30664,8.36962,9.09277v1.13672h-5.373v-1.498c0-2.584-1.03321-3.56543-2.8418-3.56543-1.8081,0-2.84131.98145-2.84131,3.56543,0,7.43946,11.10791,8.835,11.10791,19.168,0,5.78711-2.89306,9.09375-8.47314,9.09375s-8.47315-3.30664-8.47315-9.09375v-2.22168h5.373v2.583c0,2.584,1.13672,3.51367,2.94482,3.51367,1.8086,0,2.94532-.92968,2.94532-3.51367,0-7.43945-11.1084-8.835-11.1084-19.168C110.63672,272.90625,113.47852,269.59961,119.00684,269.59961Z"/><path class="cls-1" d="M134.50488,270.0127h17.5669v5.167h-5.9419v30.999h-5.6831v-30.999h-5.9419Z"/><path class="cls-1" d="M178.41943,306.17871h-5.73486l-.98193-6.56152h-6.9751l-.98145,6.56152h-5.21826l5.78662-36.166h8.31836ZM165.45117,294.709h5.47656l-2.73828-18.29Z"/><path class="cls-1" d="M198.4126,306.17871c-.31006-.92969-.5166-1.49805-.5166-4.44336v-5.68262c0-3.35839-1.13672-4.59863-3.71973-4.59863h-1.96338v14.72461H186.5293v-36.166H195.106c5.89013,0,8.42187,2.73828,8.42187,8.31835v2.8418c0,3.71973-1.18847,6.14746-3.72021,7.33594,2.84179,1.18848,3.772,3.92676,3.772,7.69824v5.58008a10.64856,10.64856,0,0,0,.61963,4.3916Zm-6.19971-30.999v11.10742h2.22168c2.11816,0,3.40967-.92969,3.40967-3.82324v-3.56446c0-2.584-.87793-3.71972-2.89307-3.71972Z"/></g></svg>