<svg id="Content" xmlns="http://www.w3.org/2000/svg" width="728" height="90" viewBox="0 0 728 90"><defs><style>.cls-1{fill:#ba9544;}</style></defs><title>Frame1 - Sensi Star</title><path class="cls-1" d="M227.4968,35.47021c3.42383,0,5.1836,2.04786,5.1836,5.63184v.7041h-3.32813v-.92871c0-1.59961-.63965-2.207-1.75976-2.207-1.11915,0-1.75977.60742-1.75977,2.207,0,4.6084,6.87891,5.47119,6.87891,11.87061,0,3.584-1.791,5.63183-5.24707,5.63183s-5.24707-2.04785-5.24707-5.63183v-1.376h3.32714v1.60059c0,1.59961.70411,2.17578,1.82422,2.17578s1.82324-.57617,1.82324-2.17578c0-4.6084-6.8789-5.47168-6.8789-11.87061C222.31321,37.51807,224.073,35.47021,227.4968,35.47021Z"/><path class="cls-1" d="M241.64133,45.16553h4.83106v3.19873h-4.83106v6.55957h6.0791V58.124h-9.5996v-22.398h9.5996v3.2002h-6.0791Z"/><path class="cls-1" d="M256.42454,41.90186V58.124h-3.168v-22.398h4.416l3.61524,13.40674V35.72607h3.13672V58.124h-3.61621Z"/><path class="cls-1" d="M275.07981,35.47021c3.42383,0,5.18359,2.04786,5.18359,5.63184v.7041h-3.32714v-.92871c0-1.59961-.64063-2.207-1.76075-2.207s-1.75976.60742-1.75976,2.207c0,4.6084,6.87988,5.47119,6.87988,11.87061,0,3.584-1.792,5.63183-5.24805,5.63183-3.45507,0-5.248-2.04785-5.248-5.63183v-1.376h3.32812v1.60059c0,1.59961.7041,2.17578,1.82422,2.17578,1.11914,0,1.82422-.57617,1.82422-2.17578,0-4.6084-6.87988-5.47168-6.87988-11.87061C269.89622,37.51807,271.656,35.47021,275.07981,35.47021Z"/><path class="cls-1" d="M285.70383,35.72607h3.51953V58.124h-3.51953Z"/><path class="cls-1" d="M308.2634,35.47021c3.42383,0,5.1836,2.04786,5.1836,5.63184v.7041h-3.32715v-.92871c0-1.59961-.64063-2.207-1.76074-2.207s-1.75977.60742-1.75977,2.207c0,4.6084,6.87988,5.47119,6.87988,11.87061,0,3.584-1.792,5.63183-5.248,5.63183-3.45508,0-5.248-2.04785-5.248-5.63183v-1.376h3.32813v1.60059c0,1.59961.7041,2.17578,1.82421,2.17578,1.11914,0,1.82422-.57617,1.82422-2.17578,0-4.6084-6.87988-5.47168-6.87988-11.87061C303.07981,37.51807,304.83958,35.47021,308.2634,35.47021Z"/><path class="cls-1" d="M317.864,35.72607H328.7429v3.2002h-3.67969V58.124h-3.51953V38.92627H317.864Z"/><path class="cls-1" d="M345.06223,58.124h-3.55176l-.60742-4.06347h-4.32031l-.60742,4.06347H332.7429l3.584-22.398h5.15234ZM337.031,51.02051h3.3916l-1.69531-11.32666Z"/><path class="cls-1" d="M357.446,58.124a6.89761,6.89761,0,0,1-.32031-2.752V51.85254c0-2.08008-.70313-2.84766-2.30274-2.84766h-1.21679V58.124h-3.51953v-22.398h5.3125c3.64648,0,5.21484,1.69629,5.21484,5.15137v1.75977c0,2.30468-.73633,3.8081-2.30469,4.54345,1.75977.73633,2.33594,2.43164,2.33594,4.76758V55.4043A6.60246,6.60246,0,0,0,361.03,58.124Zm-3.83984-19.19775v6.87891h1.377c1.31055,0,2.11133-.57618,2.11133-2.36719V41.23c0-1.60059-.54492-2.30371-1.793-2.30371Z"/></svg>