<svg id="Content" xmlns="http://www.w3.org/2000/svg" viewBox="0 0 728 360"><defs><style>.cls-1{fill:#b89344;}</style></defs><title>Frame2 - Sensi Star</title><path class="cls-1" d="M140.58,250.92c3.64,0,5.51,2.17,5.51,6v.75h-3.53v-1c0-1.7-.68-2.34-1.87-2.34s-1.87.64-1.87,2.34c0,4.9,7.31,5.82,7.31,12.62,0,3.8-1.91,6-5.58,6s-5.58-2.18-5.58-6v-1.47h3.54v1.7c0,1.7.75,2.32,1.94,2.32s1.94-.62,1.94-2.32c0-4.89-7.31-5.81-7.31-12.61C135.08,253.09,137,250.92,140.58,250.92Z"/><path class="cls-1" d="M155.61,261.22h5.13v3.4h-5.13v7h6.46V275h-10.2v-23.8h10.2v3.4h-6.46Z"/><path class="cls-1" d="M171.32,257.75V275H168v-23.8h4.7l3.84,14.24V251.19h3.33V275H176Z"/><path class="cls-1" d="M191.14,250.92c3.64,0,5.51,2.17,5.51,6v.75h-3.54v-1c0-1.7-.68-2.34-1.87-2.34s-1.87.64-1.87,2.34c0,4.9,7.31,5.82,7.31,12.62,0,3.8-1.9,6-5.57,6s-5.58-2.18-5.58-6v-1.47h3.54v1.7c0,1.7.75,2.32,1.93,2.32s1.94-.62,1.94-2.32c0-4.89-7.31-5.81-7.31-12.61C185.63,253.09,187.5,250.92,191.14,250.92Z"/><path class="cls-1" d="M202.43,251.19h3.74V275h-3.74Z"/><path class="cls-1" d="M226.4,250.92c3.64,0,5.51,2.17,5.51,6v.75h-3.54v-1c0-1.7-.68-2.34-1.87-2.34s-1.87.64-1.87,2.34c0,4.9,7.31,5.82,7.31,12.62,0,3.8-1.9,6-5.58,6s-5.57-2.18-5.57-6v-1.47h3.53v1.7c0,1.7.75,2.32,1.94,2.32s1.94-.62,1.94-2.32c0-4.89-7.31-5.81-7.31-12.61C220.89,253.09,222.76,250.92,226.4,250.92Z"/><path class="cls-1" d="M236.6,251.19h11.56v3.4h-3.91V275h-3.74v-20.4H236.6Z"/><path class="cls-1" d="M265.5,275h-3.78l-.64-4.32h-4.59l-.65,4.32h-3.43l3.81-23.8h5.47ZM257,267.44h3.61l-1.8-12Z"/><path class="cls-1" d="M278.66,275a7.23,7.23,0,0,1-.34-2.93v-3.74c0-2.21-.75-3-2.45-3h-1.29V275h-3.74v-23.8h5.64c3.88,0,5.54,1.8,5.54,5.47v1.87c0,2.45-.78,4.05-2.45,4.83,1.87.78,2.49,2.58,2.49,5.07v3.67a7.11,7.11,0,0,0,.4,2.89Zm-4.08-20.4v7.31H276c1.39,0,2.24-.61,2.24-2.52V257c0-1.7-.58-2.45-1.9-2.45Z"/></svg>