<svg id="Content" xmlns="http://www.w3.org/2000/svg" xmlns:xlink="http://www.w3.org/1999/xlink" width="728" height="360" viewBox="0 0 728 360"><defs><style>.cls-1{fill:none;}.cls-2{fill:#fff;}.cls-3{fill:url(#New_Gradient_Swatch_1);}.cls-4{fill:#ba9544;}.cls-5{clip-path:url(#clip-path);}</style><linearGradient id="New_Gradient_Swatch_1" x1="196.95264" y1="178.2122" x2="256.1248" y2="178.2122" gradientUnits="userSpaceOnUse"><stop offset="0" stop-color="#a88a34"/><stop offset="0.49324" stop-color="#caaf67"/><stop offset="1" stop-color="#957f2e"/></linearGradient><clipPath id="clip-path"><rect class="cls-1" x="461.86539" y="-134.33868" width="208.12648" height="92"/></clipPath></defs><title>minty</title><path class="cls-2" d="M214.754,170.712a2.52433,2.52433,0,0,1,.47563-.1952,4.57335,4.57335,0,0,1,.53063-.13473l.03025-.011,5.19083-1.141a1.68,1.68,0,0,1,1.108.17045l.87431.85507-1.81735,1.90258-5.79295,1.273c-.231-1.04475-.47014-2.13352-.59935-2.71913M232.768,185.193l-2.85111-12.96882a1.94392,1.94392,0,0,0-2.161-1.5039l1.52865-1.60564.42066.39865.63511-.67359a.41255.41255,0,0,0-.01651-.58288l-3.07379-2.90334a.41256.41256,0,0,0-.58287.0165l-.63511.67359.50588.4784-2.04,2.139-1.01178-.987-.07147-.055a3.86583,3.86583,0,0,0-2.90611-.54714l-5.13583,1.13a7.51476,7.51476,0,0,0-.90731.2337,3.09118,3.09118,0,0,0-1.66061,1.108,1.79347,1.79347,0,0,0-.26944,1.39944c.15946.71484.71482,3.247,1.05025,4.76742.0055.033.011.066.01926.099l2.85109,12.97158a1.93218,1.93218,0,0,0,2.30949,1.46817l12.51242-2.75213a1.94226,1.94226,0,0,0,1.49018-2.304"/><polygon class="cls-3" points="248.146 198.131 223.476 207.6 200.695 194.216 196.953 168.059 215.071 148.824 241.405 150.996 256.125 172.942 248.146 198.131"/><path class="cls-2" d="M239.0553,187.53233a10.48246,10.48246,0,0,0-4.19831-8.68254,4.04335,4.04335,0,0,1,1.99055-.242,6.84963,6.84963,0,0,0-4.0031-3.60444,3.0626,3.0626,0,0,1,1.5699-.19245s-2.326-3.8079-8.32238-5.46577a4.968,4.968,0,0,1,1.51766-.187s-6.20811-3.434-12.122.42615c0,0,5.00939,2.64216,6.99168,5.37779,0,0-6.86794-4.388-7.86873-4.31928,0,0-3.0903,7.3436,4.76743,13.7689a3.45578,3.45578,0,0,1-.187-1.51765s3.12055,3.7639,6.16687,4.77292a3.56056,3.56056,0,0,1,.01924-1.47917,9.17579,9.17579,0,0,0,4.355,2.48544,3.32172,3.32172,0,0,1-.13745-2.00155s5.04511,2.99408,9.46062.86056"/><path class="cls-4" d="M201.94114,235.57636v-10.874h.72461l4.71289,5.36426,4.71875-5.36426h.72461v10.874h-2.17481l-.00683-6.30664-3.26172,3.624-3.2627-3.624v6.30664Z"/><path class="cls-4" d="M214.99,224.6955h2.168v10.88086H214.99Z"/><path class="cls-4" d="M219.33958,235.57636v-10.874h.7246l6.81446,6.81446v-6.81446h2.1748v10.874h-.79687l-6.74219-6.74219v6.74219Z"/><path class="cls-4" d="M240.18137,224.70233v2.03028h-3.624v8.84375h-2.17481v-8.84375h-3.625v-2.03028Z"/><path class="cls-4" d="M241.16086,224.70233h2.55176l2.52246,3.55176,2.58106-3.55176h2.49316l-3.98633,5.4375v5.43653h-2.1748v-5.43653Z"/><g class="cls-5"><image id="SmallTopDown-8342SensiStar.psd" width="1500" height="1261" transform="translate(443.42939 -154.61789) scale(0.12656)" xlink:href="../../../../../Dropbox%20(Revolution%20Strategy)/Rocio%20Ugarte/Clients/Namaste/Digital%20Ads/_Flight%202:Phase%202%20Terpene/1.%20Animated%20w:%20Packaging/8.%20Expandable%20Unit%20728%20x%2090:728%20x%20360/728%20x%2090_728%20x%20360_Folder/Links/SmallTopDown-8342SensiStar.png"/></g></svg>