<svg id="Content" xmlns="http://www.w3.org/2000/svg" xmlns:xlink="http://www.w3.org/1999/xlink" width="300" height="250" viewBox="0 0 300 250"><defs><style>.cls-1{fill:url(#New_Gradient_Swatch_1);}.cls-2{fill:#fff;}.cls-3{fill:#ba9544;}</style><linearGradient id="New_Gradient_Swatch_1" x1="209.46041" y1="154.97943" x2="238.98609" y2="154.97943" gradientUnits="userSpaceOnUse"><stop offset="0" stop-color="#a88a34"/><stop offset="0.49324" stop-color="#caaf67"/><stop offset="1" stop-color="#957f2e"/></linearGradient></defs><title>diesel</title><polygon class="cls-1" points="235.005 145.04 222.695 140.315 211.328 146.994 209.46 160.046 218.501 169.643 231.641 168.56 238.986 157.609 235.005 145.04"/><path class="cls-2" d="M220.28169,151.45877a1.25935,1.25935,0,0,1,.23734-.0974,2.28143,2.28143,0,0,1,.26477-.06723l.01509-.00549,2.59012-.56933a.83829.83829,0,0,1,.55287.085l.43626.42666-.90682.94935-2.89056.63518c-.11524-.52131-.23459-1.06458-.29907-1.35679m8.98859,7.2257-1.42265-6.47117a.97.97,0,0,0-1.0783-.75042l.76277-.80118.20989.19892.31691-.33611a.20584.20584,0,0,0-.00823-.29084L226.5169,148.785a.20584.20584,0,0,0-.29083.00824l-.31691.3361.25242.23871-1.01793,1.06733-.50486-.49251-.03566-.02743a1.929,1.929,0,0,0-1.45009-.273l-2.56267.56384a3.75221,3.75221,0,0,0-.45273.11661,1.5425,1.5425,0,0,0-.82861.55287.895.895,0,0,0-.13445.6983c.07957.35669.35669,1.62019.52406,2.37884.00274.01646.00548.03292.00961.04939l1.42263,6.47254a.96411.96411,0,0,0,1.15239.73259l6.24344-1.37326a.96914.96914,0,0,0,.74357-1.14964"/><path class="cls-3" d="M210.8047,185.1788v-5.42969h2.09082q2.53125,0,2.53125,2.7168,0,2.71288-2.53125,2.71289Zm2.09082-1.082q1.44288-.00294,1.44629-1.63086-.00293-1.62744-1.44629-1.62793h-1.00586v3.25879Z"/><path class="cls-3" d="M216.59279,179.74911h1.08105v5.42969h-1.08105Z"/><path class="cls-3" d="M218.74806,185.1788v-5.42188l3.98633-.0039v1.01269H219.833v1.15723h2.17383v1.00977H219.833v1.23339h2.89356v1.0127Z"/><path class="cls-3" d="M226.76369,179.93368a2.53886,2.53886,0,0,1,.77832.543l-.72363.72363a1.24456,1.24456,0,0,0-1.0127-.43457q-.65186,0-.832.30762a.42167.42167,0,0,0,0,.52441,1.42764,1.42764,0,0,0,.832.3252,2.705,2.705,0,0,1,1.24805.45215,1.3609,1.3609,0,0,1,.56054,1.21191,1.39191,1.39191,0,0,1-.59863,1.1211,2.18856,2.18856,0,0,1-1.39453.4707,3.21938,3.21938,0,0,1-1.2627-.2168,2.73168,2.73168,0,0,1-.86816-.5791l.72363-.72363a1.71967,1.71967,0,0,0,1.2295.50683q.72363,0,.90234-.30761a.57024.57024,0,0,0,0-.61524q-.17871-.30762-.90234-.37988a2.91376,2.91376,0,0,1-1.19336-.39746,1.20113,1.20113,0,0,1-.543-1.1211,1.35159,1.35159,0,0,1,.61718-1.15625,2.176,2.176,0,0,1,1.26758-.43554A3.0363,3.0363,0,0,1,226.76369,179.93368Z"/><path class="cls-3" d="M228.56935,185.1788v-5.42188l3.98633-.0039v1.01269h-2.90137v1.15723h2.17383v1.00977h-2.17383v1.23339h2.89356v1.0127Z"/><path class="cls-3" d="M234.74416,179.753v4.41308h2.89355v1.0127H233.6592V179.753Z"/></svg>