<svg id="Content" xmlns="http://www.w3.org/2000/svg" xmlns:xlink="http://www.w3.org/1999/xlink" width="300" height="250" viewBox="0 0 300 250"><defs><style>.cls-1{fill:#ba9544;}</style></defs><title>Frame1 - Daytime CBD</title><path class="cls-1" d="M163.59473,142.33789h4.34863c2.749,0,4.09863,1.52539,4.09863,4.32422v8.84766c0,2.7998-1.34961,4.32421-4.09863,4.32421h-4.34863Zm2.749,2.5V157.335h1.5498c.874,0,1.39942-.45019,1.39942-1.70019v-9.09766c0-1.25-.52539-1.69922-1.39942-1.69922Z"/><path class="cls-1" d="M184.8418,159.834h-2.77442l-.47461-3.17382h-3.374l-.47559,3.17382h-2.52441l2.7998-17.49609H182.042Zm-6.27344-5.54882h2.64941l-1.32519-8.84766Z"/><path class="cls-1" d="M188.84277,154.03516l-3.47363-11.69727h2.874l2.09961,7.97363,2.09961-7.97363h2.624l-3.47461,11.69727V159.834h-2.749Z"/><path class="cls-1" d="M196.51953,142.33789h8.49707v2.5h-2.874V159.834h-2.749V144.83789h-2.874Z"/><path class="cls-1" d="M208.36914,142.33789h2.749V159.834h-2.749Z"/><path class="cls-1" d="M221.5918,154.75977l1.874-12.42188H227.29V159.834h-2.59961V147.28711L222.791,159.834h-2.59864l-2.0498-12.37207V159.834h-2.39942V142.33789h3.82422Z"/><path class="cls-1" d="M234.69141,149.71191h3.77441v2.499h-3.77441v5.124h4.749v2.499h-7.498V142.33789h7.498v2.5h-4.749Z"/><path class="cls-1" d="M258.29,153.31055v2.32422c0,2.7998-1.39942,4.39941-4.09863,4.39941s-4.09864-1.59961-4.09864-4.39941v-9.09766c0-2.79883,1.39942-4.39844,4.09864-4.39844s4.09863,1.59961,4.09863,4.39844v1.70019h-2.59863v-1.875c0-1.25-.54981-1.7246-1.42481-1.7246s-1.4248.4746-1.4248,1.7246v9.44727c0,1.25.5498,1.7002,1.4248,1.7002s1.42481-.4502,1.42481-1.7002v-2.499Z"/><path class="cls-1" d="M270.83984,146.3623v.625c0,1.79981-.5498,2.94922-1.77441,3.52442,1.47461.57422,2.0498,1.89941,2.0498,3.749v1.42383c0,2.7002-1.4248,4.14941-4.17382,4.14941h-4.32422V142.33789h4.14941C269.61523,142.33789,270.83984,143.66309,270.83984,146.3623Zm-5.47363-1.52441v4.624h1.0752c1.02441,0,1.64941-.45019,1.64941-1.84961v-.9746c0-1.25-.4248-1.79981-1.39941-1.79981Zm0,7.12305v5.374h1.5752c.9248,0,1.4248-.4248,1.4248-1.72461V154.085c0-1.624-.52539-2.124-1.77539-2.124Z"/><path class="cls-1" d="M275.417,142.33789h4.34863c2.75,0,4.09961,1.52539,4.09961,4.32422v8.84766c0,2.7998-1.34961,4.32421-4.09961,4.32421H275.417Zm2.749,2.5V157.335h1.5498c.875,0,1.39941-.45019,1.39941-1.70019v-9.09766c0-1.25-.52441-1.69922-1.39941-1.69922Z"/><image width="1500" height="1429" transform="translate(288.96119 54.16968) scale(0.16637)" xlink:href="../../../../../Dropbox%20(Revolution%20Strategy)/Rocio%20Ugarte/Clients/Namaste/Digital%20Ads/_Flight%202:Phase%202%20Terpene/1.%20Animated%20w:%20Packaging/5.%20Big%20Box%20300%20x%20250/300%20x%20250_Folder/Links/LargeTopDown-8195-DaytimeCBD.png"/></svg>