<svg id="Layer_1" data-name="Layer 1" xmlns="http://www.w3.org/2000/svg" width="728" height="90" viewBox="0 0 728 90"><defs><style>.cls-1{fill:#ab9555;}</style></defs><title>frame3</title><path class="cls-1" d="M300.11133,60.29884V40.627h4.43994a5.66111,5.66111,0,0,1,3.16894.92481,4.31156,4.31156,0,0,1,1.72559,2.43164,6.86069,6.86069,0,0,1,.28223,2.08691,4.61891,4.61891,0,0,1-1.05127,3.16895,2.96973,2.96973,0,0,1-1.03516.76855,3.44861,3.44861,0,0,1,1.67871,1.49024,5.79707,5.79707,0,0,1,.67432,1.94531,7.75487,7.75487,0,0,1,.10986,1.36523,6.56351,6.56351,0,0,1-.70605,3.168,4.2237,4.2237,0,0,1-1.55274,1.63184,4.27292,4.27292,0,0,1-2.24365.69043ZM303.312,48.65821h1.23926a1.81628,1.81628,0,0,0,1.85107-1.34863,3.8591,3.8591,0,0,0,.17237-1.23926,2.59261,2.59261,0,0,0-.59619-1.85156,1.87622,1.87622,0,0,0-1.42725-.58008H303.312Zm0,8.707h1.23926a2.104,2.104,0,0,0,2.08643-1.55273,3.416,3.416,0,0,0,.20361-1.22363,3.72546,3.72546,0,0,0-.62744-2.40039,2.02357,2.02357,0,0,0-1.6626-.69043H303.312Z"/><path class="cls-1" d="M319.11914,40.64259a4.51891,4.51891,0,0,1,3.63916,1.36425,4.96064,4.96064,0,0,1,1.02,3.32618v2.85449a4.59352,4.59352,0,0,1-1.58447,3.53027l2.1958,8.58106h-3.20654l-1.79737-7.4043h-1.97656v7.4043h-2.96533V40.64259Zm1.77246,4.7373a1.50473,1.50473,0,0,0-1.69433-1.71h-1.78809v6.291h1.78809a1.62025,1.62025,0,0,0,1.20019-.502,1.65981,1.65981,0,0,0,.49414-1.208Z"/><path class="cls-1" d="M328.69824,60.29884V40.627h8.43994v2.98047h-5.47461v5.36524h4v2.98046h-4v5.36524h5.47461v2.98047Z"/><path class="cls-1" d="M344.75244,55.78126l-.7207,4.51758h-3.0874l3.34179-19.65625h4.07862l3.29443,19.65625H348.5415l-.69384-4.51758Zm1.55713-10.63672-1.09814,7.75h2.19628Z"/><path class="cls-1" d="M356.29688,43.62306h-3.15333V40.64259h9.25586v2.98047h-3.13769V60.29884h-2.96484Z"/><path class="cls-1" d="M369.51562,51.96876v8.33008h-2.96484V40.64259h2.96484v8.3457h3.57715v-8.3457h2.96485V60.29884h-2.96485V51.96876Z"/><path class="cls-1" d="M380.47559,60.29884V40.627H388.915v2.98047h-5.47461v5.36524h4v2.98046h-4v5.36524H388.915v2.98047Z"/><path class="cls-1" d="M403.29883,60.29884H400.334V40.64259h2.96485Z"/><path class="cls-1" d="M411.0459,40.627l3.93457,13.22071V40.627h2.96484V60.29884h-3.18457l-4.07812-12.59766V60.29884H407.7168V40.627Z"/><path class="cls-1" d="M421.752,57.34962h2.96485v2.96484H421.752Z"/></svg>