<svg id="Content" xmlns="http://www.w3.org/2000/svg" xmlns:xlink="http://www.w3.org/1999/xlink" width="320" height="50" viewBox="0 0 320 50"><defs><style>.cls-1{fill:url(#New_Gradient_Swatch_1);}.cls-2{fill:#fff;}.cls-3{fill:#ba9544;}</style><linearGradient id="New_Gradient_Swatch_1" x1="123.18253" y1="20.27276" x2="142.73276" y2="20.27276" gradientUnits="userSpaceOnUse"><stop offset="0" stop-color="#a88a34"/><stop offset="0.49324" stop-color="#caaf67"/><stop offset="1" stop-color="#957f2e"/></linearGradient></defs><title>lemon</title><polygon class="cls-1" points="126.19 27.653 123.183 18.102 129.951 10.722 139.726 12.893 142.733 22.445 135.965 29.824 126.19 27.653"/><path class="cls-2" d="M137.02728,19.18294a4.147,4.147,0,0,0-4.06917-2.18021,4.24721,4.24721,0,0,0-4.0552,2.18021c-.47736.21216-1.03288.66439-1.03288,1.08964,0,.42152.55087.8812,1.044,1.08871a4.21866,4.21866,0,0,0,4.044,2.18207,4.29987,4.29987,0,0,0,4.06917-2.18207c.5155-.2224,1.018-.67277,1.018-1.08778,0-.42618-.50155-.86818-1.018-1.09057"/><path class="cls-3" d="M124.375,36.00684V39h1.96289v.6875h-2.69824V36.00684Z"/><path class="cls-3" d="M126.93457,39.6875V36.00977l2.7041-.00293v.6875H127.6709v.78515h1.47461v.68457H127.6709V39h1.96289v.6875Z"/><path class="cls-3" d="M130.37891,39.6875V36.00684h.24511l1.59473,1.81543,1.59766-1.81543h.24511V39.6875h-.73632l-.002-2.13477-1.10449,1.22657-1.10352-1.22657V39.6875Z"/><path class="cls-3" d="M135.13574,39.1582a1.89569,1.89569,0,1,1,1.3125.5293A1.78246,1.78246,0,0,1,135.13574,39.1582ZM136.45117,39a1.03393,1.03393,0,0,0,.79492-.331,1.25448,1.25448,0,0,0,0-1.64356,1.12577,1.12577,0,0,0-1.59472,0,1.25448,1.25448,0,0,0,0,1.64356A1.03872,1.03872,0,0,0,136.45117,39Z"/><path class="cls-3" d="M138.83594,39.6875V36.00684h.24511l2.30665,2.30664V36.00684h.73632V39.6875h-.2705l-2.28125-2.28223V39.6875Z"/></svg>