<svg id="Content" xmlns="http://www.w3.org/2000/svg" width="320" height="480" viewBox="0 0 320 480"><defs><style>.cls-1{fill:#ba9544;}</style></defs><title>Frame1 - Daytime CBD</title><path class="cls-1" d="M83.2334,343.96973h5.44531c3.44238,0,5.13233,1.90918,5.13233,5.41455v11.07861c0,3.50488-1.69,5.41406-5.13233,5.41406H83.2334Zm3.44238,3.12988v15.648h1.94043c1.09522,0,1.75244-.56348,1.75244-2.12842v-11.3916c0-1.56494-.65722-2.12793-1.75244-2.12793Z"/><path class="cls-1" d="M109.83105,365.877h-3.47363l-.59472-3.97461h-4.2251l-.59424,3.97461H97.78223l3.50537-21.90722h5.03857Zm-7.855-6.94775h3.31739l-1.65869-11.07861Z"/><path class="cls-1" d="M114.83545,358.61621l-4.3501-14.64648h3.59912l2.62891,9.98339,2.62891-9.98339h3.28613l-4.3501,14.64648V365.877h-3.44287Z"/><path class="cls-1" d="M124.44092,343.96973h10.64062v3.12988h-3.59912V365.877H128.04V347.09961h-3.59912Z"/><path class="cls-1" d="M139.272,343.96973h3.44239V365.877H139.272Z"/><path class="cls-1" d="M155.82568,359.52393l2.34717-15.5542h4.78809V365.877h-3.25489V350.1665L157.32764,365.877h-3.25489l-2.56591-15.49121V365.877h-3.0044V343.96973h4.78809Z"/><path class="cls-1" d="M172.21973,353.20215h4.72558v3.12939h-4.72558v6.416H178.166V365.877h-9.38868V343.96973H178.166v3.12988h-5.94629Z"/><path class="cls-1" d="M201.7583,357.709v2.91016c0,3.50537-1.75293,5.5083-5.13281,5.5083s-5.13233-2.00293-5.13233-5.5083v-11.3916c0-3.50488,1.75245-5.50781,5.13233-5.50781s5.13281,2.00293,5.13281,5.50781V351.356h-3.25488V349.0083c0-1.56445-.68848-2.15918-1.78369-2.15918-1.09571,0-1.78418.59473-1.78418,2.15918v11.83008c0,1.56494.68847,2.12793,1.78418,2.12793,1.09521,0,1.78369-.563,1.78369-2.12793V357.709Z"/><path class="cls-1" d="M217.46533,349.0083v.78272c0,2.25341-.68847,3.69287-2.22217,4.41259,1.8462.71973,2.56641,2.37842,2.56641,4.69434v1.78369c0,3.38037-1.78418,5.19531-5.22656,5.19531H207.169V343.96973h5.19482C215.93164,343.96973,217.46533,345.62842,217.46533,349.0083Zm-6.854-1.90869v5.78955h1.3457c1.2832,0,2.06543-.56348,2.06543-2.31592V349.353c0-1.56494-.53174-2.25342-1.75244-2.25342Zm0,8.91894v6.729H212.583c1.15771,0,1.78369-.53223,1.78369-2.15967v-1.90918c0-2.03418-.65723-2.66016-2.22168-2.66016Z"/><path class="cls-1" d="M223.189,343.96973h5.44532c3.44238,0,5.13232,1.90918,5.13232,5.41455v11.07861c0,3.50488-1.68994,5.41406-5.13232,5.41406H223.189Zm3.44239,3.12988v15.648h1.94043c1.09521,0,1.75244-.56348,1.75244-2.12842v-11.3916c0-1.56494-.65723-2.12793-1.75244-2.12793Z"/></svg>