<svg id="Content" xmlns="http://www.w3.org/2000/svg" xmlns:xlink="http://www.w3.org/1999/xlink" width="728" height="360" viewBox="0 0 728 360"><defs><style>.cls-1{fill:url(#New_Gradient_Swatch_1);}.cls-2{fill:#fff;}.cls-3{fill:#ba9544;}</style><linearGradient id="New_Gradient_Swatch_1" x1="102.3711" y1="175.05181" x2="160.21156" y2="175.05181" gradientUnits="userSpaceOnUse"><stop offset="0" stop-color="#a88a34"/><stop offset="0.49324" stop-color="#caaf67"/><stop offset="1" stop-color="#957f2e"/></linearGradient></defs><title>berry</title><polygon class="cls-1" points="126.398 145.466 102.371 173.213 121.336 204.637 157.083 196.312 160.212 159.744 126.398 145.466"/><path class="cls-2" d="M139.69988,178.17094a.52789.52789,0,1,1-.11272-.73958.53264.53264,0,0,1,.11272.73958m-3.15623-6.69463a.66535.66535,0,1,1,.66259-.66533.66765.66765,0,0,1-.66259.66533m-.66259,8.0198a.66534.66534,0,1,1,.66534-.66534.66888.66888,0,0,1-.66534.66534m-.10173-4.89381a.532.532,0,1,1-.53337.53063.53272.53272,0,0,1,.53337-.53063m-1.41315,8.6384a.58126.58126,0,1,1-.2172-.79455.57657.57657,0,0,1,.2172.79455m-2.73009-8.70439a.58561.58561,0,1,1,.58561-.5856.58258.58258,0,0,1-.58561.5856m-.17046,4.46492a.532.532,0,1,1,.53062-.53062.53508.53508,0,0,1-.53062.53062m-1.72383,2.38367a.53062.53062,0,1,1,.53062-.53062.53507.53507,0,0,1-.53062.53062m-.6021-4.20922a.66218.66218,0,1,1-.077-.93477.66478.66478,0,0,1,.077.93477m-1.6551-5.48217a.58424.58424,0,1,1,.58286.5856.58672.58672,0,0,1-.58286-.5856m8.51743-3.5329a13.89076,13.89076,0,0,0,2.97753-2.29017,7.952,7.952,0,0,0-3.77484.3849,5.469,5.469,0,0,0,.58286-2.90606,2.96988,2.96988,0,0,0-2.17747,1.73209,5.415,5.415,0,0,0-.75606-2.55688,3.28185,3.28185,0,0,0-1.20971,2.95278,3.09063,3.09063,0,0,0-2.28195-1.92178,5.48188,5.48188,0,0,0,.52513,2.78782,7.725,7.725,0,0,0-3.981-.47287,13.498,13.498,0,0,0,3.13974,2.37542c-3.148.67908-5.3447,2.43591-5.3447,6.10625,0,4.98454,6.296,13.227,9.03155,13.227,2.961,0,9.03156-8.2425,9.03156-13.227.01925-3.83257-2.38367-5.59214-5.7626-6.1915"/><path class="cls-3" d="M113.17873,229.841a3.08785,3.08785,0,0,1-1.76953,5.74122l-6.11817-.00684V224.70917h5.77051q2.748.15966,2.89941,3.19629A2.26954,2.26954,0,0,1,113.17873,229.841Zm-5.70508-.77539h3.04394a1.228,1.228,0,0,0,1.34864-1.35546q-.03663-.79687-1.32617-.84083h-3.06641Zm0,4.81348h3.55176a1.41922,1.41922,0,0,0,1.56543-1.57324q-.03516-1.043-1.54395-1.08692h-3.57324Z"/><path class="cls-3" d="M116.83205,235.57538V224.70917l7.98926-.00781v2.03027h-5.81446V229.051h4.35742v2.02246h-4.35742v2.47265h5.79981v2.0293Z"/><path class="cls-3" d="M133.55568,230.83417l2.71094,4.74121h-2.49317l-2.60254-4.49414h-1.98632v4.49414h-2.17481v-10.874H131.751q3.80566,0,3.80567,3.13183A2.81164,2.81164,0,0,1,133.55568,230.83417Zm-4.37109-1.7832h3.04492q1.311-.022,1.34765-1.19629-.03514-1.07228-1.32617-1.11621h-3.0664Z"/><path class="cls-3" d="M143.94338,230.83417l2.71093,4.74121h-2.49316l-2.60254-4.49414h-1.98633v4.49414h-2.1748v-10.874h4.74121q3.80567,0,3.80566,3.13183A2.81164,2.81164,0,0,1,143.94338,230.83417Zm-4.3711-1.7832h3.04492q1.311-.022,1.34766-1.19629-.03516-1.07228-1.32617-1.11621h-3.06641Z"/><path class="cls-3" d="M147.14748,224.70136h2.55175l2.52247,3.55273,2.58105-3.55273h2.49316l-3.98632,5.4375v5.43652h-2.17481v-5.43652Z"/><image id="SmallTopDown-8342SensiStar.psd" width="1500" height="1261" transform="translate(443.42939 -154.61789) scale(0.12656)" xlink:href="../../../../../Dropbox%20(Revolution%20Strategy)/Rocio%20Ugarte/Clients/Namaste/Digital%20Ads/_Flight%202:Phase%202%20Terpene/1.%20Animated%20w:%20Packaging/8.%20Expandable%20Unit%20728%20x%2090:728%20x%20360/728%20x%2090_728%20x%20360_Folder/Links/SmallTopDown-8268-Shishkaberry.png"/></svg>