<svg id="Content" xmlns="http://www.w3.org/2000/svg" xmlns:xlink="http://www.w3.org/1999/xlink" viewBox="0 0 728 360"><defs><style>.cls-1{fill:url(#New_Gradient_Swatch_1);}.cls-2{fill:#fff;}.cls-3{fill:#ba9544;}</style><linearGradient id="New_Gradient_Swatch_1" x1="269.9" y1="201.64" x2="326.83" y2="201.64" gradientUnits="userSpaceOnUse"><stop offset="0" stop-color="#a88a34"/><stop offset="0.49" stop-color="#caaf67"/><stop offset="1" stop-color="#957f2e"/></linearGradient></defs><title>pine</title><polygon class="cls-1" points="321.14 221.36 292.68 231.23 269.9 211.51 275.59 181.93 304.05 172.06 326.83 191.78 321.14 221.36"/><path class="cls-2" d="M307.83,210.59l-9.52-22.72-9.41,22.72,8.94,1.79v2.54a.53.53,0,0,0,1.05,0v-2.54Z"/><path class="cls-3" d="M281,259V248.13h4.74c2.54,0,3.81,1.05,3.81,3.13s-1.27,3.25-3.8,3.25h-2.58V259Zm2.17-6.53h3.05c.87,0,1.32-.41,1.35-1.19s-.47-1.09-1.33-1.12h-3.07Z"/><path class="cls-3" d="M291.1,248.13h2.16V259H291.1Z"/><path class="cls-3" d="M295.45,259V248.13h.72L303,255v-6.82h2.17V259h-.8l-6.74-6.75V259Z"/><path class="cls-3" d="M307.39,259V248.14h8v2h-5.82v2.32h4.36v2h-4.36V257h5.8v2Z"/></svg>