<svg id="Layer_1" data-name="Layer 1" xmlns="http://www.w3.org/2000/svg" width="320" height="480" viewBox="0 0 320 480"><defs><style>.cls-1{fill:#fff;}</style></defs><title>rest</title><path class="cls-1" d="M99.90912,290.28656H96.52475V267.84281h4.84805l3.15,16.09453,3.02695-16.09453h4.66406v22.44375h-3.38437V276.18539l-2.92383,14.10117H103.1892l-3.28008-14.06484Z"/><path class="cls-1" d="M121.53841,267.57211a5.36741,5.36741,0,0,1,5.37775,5.37656v12.24375a5.36542,5.36542,0,0,1-5.37775,5.37656,5.1174,5.1174,0,0,1-3.7828-1.575,5.208,5.208,0,0,1-1.55625-3.80156V272.94867a5.36752,5.36752,0,0,1,5.33905-5.37656Zm1.84689,5.31328a1.91281,1.91281,0,0,0-1.93243-1.93008,1.89164,1.89164,0,0,0-1.37226.56016,1.84369,1.84369,0,0,0-.57188,1.36992V285.169a1.85189,1.85189,0,0,0,.57188,1.36524,1.8867,1.8867,0,0,0,1.37226.56484,1.92059,1.92059,0,0,0,1.93243-1.93008Z"/><path class="cls-1" d="M136.24194,267.84281a5.12466,5.12466,0,0,1,4.14609,1.56211,5.6463,5.6463,0,0,1,1.16953,3.78984v3.26133a5.21922,5.21922,0,0,1-1.80586,4.023l2.50664,9.80742h-3.64922l-2.06367-8.47851c-.09843.0082-.20039.01289-.307.01289H134.2978v8.46562h-3.38321V267.84281Zm2.018,5.41406a1.71626,1.71626,0,0,0-1.92539-1.957H134.2978v7.17422h2.03672a1.84034,1.84034,0,0,0,1.36757-.57187,1.8989,1.8989,0,0,0,.55782-1.37227Z"/><path class="cls-1" d="M146.17123,290.28656V267.84281h9.634v3.3832h-6.25078v6.15235h4.56445v3.38437h-4.56445v6.13946h6.25078v3.38437Z"/><path class="cls-1" d="M171.13334,267.84281a5.12469,5.12469,0,0,1,4.1461,1.56211,5.64635,5.64635,0,0,1,1.16953,3.78984v3.26133a5.21925,5.21925,0,0,1-1.80586,4.023l2.50664,9.80742h-3.64922l-2.06367-8.47851c-.09845.0082-.20039.01289-.307.01289H169.1892v8.46562H165.806V267.84281Zm2.018,5.41406a1.71626,1.71626,0,0,0-1.92539-1.957H169.1892v7.17422h2.03672a1.84038,1.84038,0,0,0,1.36758-.57187,1.89893,1.89893,0,0,0,.55781-1.37227Z"/><path class="cls-1" d="M181.06264,290.28656V267.84281h9.634v3.3832h-6.25078v6.15235h4.56446v3.38437h-4.56446v6.13946h6.25078v3.38437Z"/><path class="cls-1" d="M205.215,284.712a6.29059,6.29059,0,0,1-1.21875,4.01133,4.32764,4.32764,0,0,1-2.325,1.58789,6.2194,6.2194,0,0,1-1.882.25781,5.31827,5.31827,0,0,1-3.29765-.98437,5.6081,5.6081,0,0,1-1.72266-2.1961,8.63193,8.63193,0,0,1-.73828-3.19335l3.21094-.22149a4.87283,4.87283,0,0,0,1.04531,2.83008,1.71569,1.71569,0,0,0,1.391.62812,2.10878,2.10878,0,0,0,1.77188-1.08281,2.72216,2.72216,0,0,0,.34453-1.48945,4.14813,4.14813,0,0,0-1.2668-2.79258q-1.01073-.94746-3.01523-2.843a12.4611,12.4611,0,0,1-2.37539-2.91562,6.75764,6.75764,0,0,1-.75-3.15,5.48219,5.48219,0,0,1,2.05547-4.63946,5.1081,5.1081,0,0,1,3.15-.94687,5.71372,5.71372,0,0,1,3.10078.81211,4.67549,4.67549,0,0,1,1.61133,1.75312,6.63331,6.63331,0,0,1,.75117,2.58985l-3.24844.59062a3.80787,3.80787,0,0,0-.7875-2.141,1.64347,1.64347,0,0,0-1.3418-.566,1.55761,1.55761,0,0,0-1.41445.825,3.17514,3.17514,0,0,0-.39375,1.64883,4.95545,4.95545,0,0,0,1.32891,3.13711,11.82844,11.82844,0,0,0,1.5,1.42734q1.18125.98438,1.56328,1.37813a11.9143,11.9143,0,0,1,1.93125,2.47382,9.061,9.061,0,0,1,.518,1.05821A6.308,6.308,0,0,1,205.215,284.712Z"/><path class="cls-1" d="M212.14194,271.226h-3.593v-3.3832h10.55625v3.3832h-3.58008v19.06055h-3.3832Z"/><path class="cls-1" d="M223.44037,286.91508h3.38321v3.3832h-3.38321Z"/></svg>