<svg xmlns="http://www.w3.org/2000/svg" width="727.99955" height="90" viewBox="0 0 727.99955 90"><defs><style>.cls-1{fill:#ba9544;}</style></defs><title>Frame1 - Durga Mata</title><g id="Content"><path class="cls-1" d="M203.18927,34.90723h5.56738c3.51953,0,5.248,1.95215,5.248,5.53613V51.77051c0,3.583-1.72851,5.53515-5.248,5.53515h-5.56738Zm3.51953,3.20019V54.10547h1.98437c1.11914,0,1.791-.5752,1.791-2.17578V40.2832c0-1.60058-.67188-2.17578-1.791-2.17578Z"/><path class="cls-1" d="M222.99688,34.90723V52.18555c0,1.60058.7041,2.17675,1.82324,2.17675,1.12012,0,1.82422-.57617,1.82422-2.17675V34.90723h3.32813V51.96191c0,3.584-1.792,5.63184-5.248,5.63184s-5.24707-2.04785-5.24707-5.63184V34.90723Z"/><path class="cls-1" d="M243.12384,57.30566a6.90538,6.90538,0,0,1-.31934-2.752V51.03418c0-2.08008-.7041-2.84766-2.30371-2.84766H239.285v9.11914h-3.52051V34.90723H241.076c3.64844,0,5.21582,1.69629,5.21582,5.15136v1.75977c0,2.30469-.73535,3.80859-2.30371,4.54394,1.75977.73633,2.33594,2.43165,2.33594,4.76758v3.45606a6.60316,6.60316,0,0,0,.38379,2.71972ZM239.285,38.10742v6.87891h1.376c1.31153,0,2.11133-.57617,2.11133-2.36719v-2.208c0-1.60058-.54394-2.30371-1.792-2.30371Z"/><path class="cls-1" d="M257.29962,44.82617h4.92773v7.10352c0,3.584-1.792,5.63183-5.24707,5.63183-3.45605,0-5.24805-2.04785-5.24805-5.63183V40.2832c0-3.584,1.792-5.63183,5.24805-5.63183,3.45508,0,5.24707,2.04785,5.24707,5.63183V42.459h-3.32812V40.05859c0-1.59961-.70313-2.207-1.82325-2.207s-1.82421.60742-1.82421,2.207V52.1543c0,1.59961.7041,2.17578,1.82421,2.17578s1.82325-.57617,1.82325-2.17578V48.02637h-1.59961Z"/><path class="cls-1" d="M279.283,57.30566h-3.55176l-.60742-4.06347H270.8045l-.6084,4.06347h-3.23144l3.583-22.39843H275.7Zm-8.03125-7.10351h3.3916L272.94805,38.875Z"/><path class="cls-1" d="M300.116,50.81055l2.39942-15.90332h4.8955V57.30566H304.0838V41.24316l-2.43164,16.0625H298.324L295.7,41.4668V57.30566h-3.07129V34.90723h4.89551Z"/><path class="cls-1" d="M324.75469,57.30566h-3.55175l-.60742-4.06347h-4.31934l-.6084,4.06347h-3.23144l3.583-22.39843h5.15235Zm-8.03125-7.10351h3.39161L318.41973,38.875Z"/><path class="cls-1" d="M328.75567,34.90723h10.87988v3.20019h-3.67968V57.30566h-3.52051V38.10742h-3.67969Z"/><path class="cls-1" d="M355.95391,57.30566h-3.55175l-.60743-4.06347H347.4754l-.6084,4.06347h-3.23145l3.583-22.39843h5.15235Zm-8.03125-7.10351h3.39161L349.619,38.875Z"/><path class="cls-1" d="M374.48223,37.85156c-1.12011,0-1.82421.60742-1.82421,2.207V42.459h-3.32715V40.2832c0-3.584,1.791-5.63183,5.24707-5.63183s5.248,2.04785,5.248,5.63183c0,7.03907-7.00781,9.66309-7.00781,13.34278a2.39515,2.39515,0,0,0,.03223.47949h6.65527v3.20019h-10.1748v-2.752c0-6.5918,6.97558-7.67969,6.97558-14.14258C376.30645,38.39551,375.60235,37.85156,374.48223,37.85156Z"/></g></svg>