<svg id="Content" xmlns="http://www.w3.org/2000/svg" width="320" height="50" viewBox="0 0 320 50"><defs><style>.cls-1{fill:#ba9544;}</style></defs><title>Frame1 - Sensi Star</title><path class="cls-1" d="M133.70117,22.634c1.5791,0,2.39063.94433,2.39063,2.59716v.32422h-1.53516v-.42773c0-.7378-.29492-1.01807-.81055-1.01807-.51757,0-.8125.28027-.8125,1.01807,0,2.125,3.17286,2.523,3.17286,5.47412,0,1.65283-.82618,2.59717-2.41993,2.59717s-2.41992-.94434-2.41992-2.59717v-.63428h1.53418v.73779c0,.7378.3252,1.00342.8418,1.00342.51562,0,.84082-.26562.84082-1.00342,0-2.125-3.17285-2.52343-3.17285-5.47412C131.31055,23.57835,132.12305,22.634,133.70117,22.634Z"/><path class="cls-1" d="M140.22266,27.10472h2.22851V28.5803h-2.22851v3.02491h2.80371v1.47558h-4.42676V22.75218h4.42676v1.47559h-2.80371Z"/><path class="cls-1" d="M147.04,25.59984v7.481h-1.46V22.75218h2.03515l1.668,6.18262V22.75218h1.44532V33.08079h-1.667Z"/><path class="cls-1" d="M155.64258,22.634c1.5791,0,2.39062.94433,2.39062,2.59716v.32422h-1.53515v-.42773c0-.7378-.29493-1.01807-.81055-1.01807-.51758,0-.8125.28027-.8125,1.01807,0,2.125,3.17285,2.523,3.17285,5.47412,0,1.65283-.82617,2.59717-2.41992,2.59717s-2.41992-.94434-2.41992-2.59717v-.63428h1.53418v.73779c0,.7378.32519,1.00342.84179,1.00342.51563,0,.84082-.26562.84082-1.00342,0-2.125-3.17285-2.52343-3.17285-5.47412C153.252,23.57835,154.06445,22.634,155.64258,22.634Z"/><path class="cls-1" d="M160.541,22.75218h1.623V33.08079h-1.623Z"/><path class="cls-1" d="M170.94336,22.634c1.58008,0,2.39062.94433,2.39062,2.59716v.32422H171.7998v-.42773c0-.7378-.29589-1.01807-.81152-1.01807-.5166,0-.81152.28027-.81152,1.01807,0,2.125,3.17285,2.523,3.17285,5.47412,0,1.65283-.82617,2.59717-2.41992,2.59717s-2.41992-.94434-2.41992-2.59717v-.63428H170.044v.73779c0,.7378.32519,1.00342.84082,1.00342.5166,0,.84179-.26562.84179-1.00342,0-2.125-3.17285-2.52343-3.17285-5.47412C168.55371,23.57835,169.36523,22.634,170.94336,22.634Z"/><path class="cls-1" d="M175.37109,22.75218h5.01661v1.47559h-1.69629v8.853h-1.623v-8.853h-1.69727Z"/><path class="cls-1" d="M187.91309,33.08079h-1.6377l-.28125-1.874h-1.99121l-.28027,1.874h-1.49024l1.65235-10.32861h2.375ZM184.209,29.80491h1.56446l-.78223-5.22314Z"/><path class="cls-1" d="M193.62305,33.08079a3.1897,3.1897,0,0,1-.14746-1.269v-1.623c0-.959-.3252-1.313-1.0625-1.313h-.56055v4.20508h-1.62305V22.75218h2.44922c1.68262,0,2.40527.78174,2.40527,2.37549v.81152a2.05952,2.05952,0,0,1-1.0625,2.09522c.81153.33935,1.07715,1.12158,1.07715,2.19873V31.8264a3.04587,3.04587,0,0,0,.17676,1.25439Zm-1.77051-8.853v3.17236h.63379c.60547,0,.97461-.26563.97461-1.0918V25.29027c0-.7378-.251-1.0625-.82617-1.0625Z"/></svg>