<svg id="Content" xmlns="http://www.w3.org/2000/svg" xmlns:xlink="http://www.w3.org/1999/xlink" width="320" height="50" viewBox="0 0 320 50"><defs><style>.cls-1{fill:#fff;}.cls-2{fill:url(#New_Gradient_Swatch_1);}.cls-3{fill:#ba9544;}</style><linearGradient id="New_Gradient_Swatch_1" x1="155.10496" y1="20.31657" x2="175.08928" y2="20.31657" gradientUnits="userSpaceOnUse"><stop offset="0" stop-color="#a88a34"/><stop offset="0.49324" stop-color="#caaf67"/><stop offset="1" stop-color="#957f2e"/></linearGradient></defs><title>minty</title><path class="cls-1" d="M161.11705,17.78351a.85267.85267,0,0,1,.16063-.06592,1.54516,1.54516,0,0,1,.17921-.04551l.01022-.00371,1.75311-.38535a.56741.56741,0,0,1,.37421.05757l.29528.28878-.61378.64256-1.95646.42992c-.078-.35285-.15878-.72056-.20242-.91834m6.08388,4.89069-.96291-4.38a.65653.65653,0,0,0-.72985-.50791l.51628-.54228.14206.13464.2145-.22749a.13933.13933,0,0,0-.00557-.19686l-1.03812-.98055a.13933.13933,0,0,0-.19685.00557l-.2145.22749.17085.16158-.689.72241-.34171-.33335-.02414-.01857a1.30562,1.30562,0,0,0-.98149-.18479l-1.73453.38164a2.53789,2.53789,0,0,0-.30642.07893,1.044,1.044,0,0,0-.56085.3742.60573.60573,0,0,0-.091.47264c.05385.24143.24141,1.09662.3547,1.61011.00186.01114.00371.02228.0065.03343l.96291,4.38091a.65256.65256,0,0,0,.78.49585l4.22584-.92949a.656.656,0,0,0,.50328-.77812"/><polygon class="cls-2" points="172.395 27.044 164.063 30.242 156.369 25.722 155.105 16.887 161.224 10.391 170.118 11.125 175.089 18.537 172.395 27.044"/><path class="cls-1" d="M169.32436,23.46427a3.54025,3.54025,0,0,0-1.4179-2.93237,1.3655,1.3655,0,0,1,.67228-.08171,2.31338,2.31338,0,0,0-1.352-1.21734,1.03429,1.03429,0,0,1,.5302-.065,4.869,4.869,0,0,0-2.81073-1.846,1.678,1.678,0,0,1,.51257-.06314,4.20511,4.20511,0,0,0-4.094.14393,8.504,8.504,0,0,1,2.36131,1.81625,16.69264,16.69264,0,0,0-2.65752-1.45876s-1.04369,2.48017,1.61012,4.65019a1.16714,1.16714,0,0,1-.06315-.51256,5.95462,5.95462,0,0,0,2.08275,1.612,1.20247,1.20247,0,0,1,.0065-.49956,3.099,3.099,0,0,0,1.47083.83941,1.12185,1.12185,0,0,1-.04643-.676,3.77821,3.77821,0,0,0,3.19515.29064"/><path class="cls-3" d="M156.79,39.69043V36.01758h.24512L158.627,37.8291l1.59375-1.81152h.24512v3.67285h-.73535l-.00195-2.12988L158.627,38.78418l-1.10156-1.22363v2.12988Z"/><path class="cls-3" d="M161.19727,36.01562h.73242v3.67481h-.73242Z"/><path class="cls-3" d="M162.666,39.69043V36.01758h.24511l2.30176,2.30176V36.01758h.73438v3.67285h-.26954l-2.27636-2.27734v2.27734Z"/><path class="cls-3" d="M169.70508,36.01758v.68554h-1.22363v2.98731h-.73536V36.70312h-1.22363v-.68554Z"/><path class="cls-3" d="M170.03613,36.01758h.86133l.85254,1.20019.87109-1.20019h.84278l-1.34668,1.83594v1.83691h-.73438V37.85352Z"/></svg>