<svg id="Content" xmlns="http://www.w3.org/2000/svg" xmlns:xlink="http://www.w3.org/1999/xlink" width="320" height="50" viewBox="0 0 320 50"><defs><style>.cls-1{fill:#fff;}.cls-2{fill:url(#New_Gradient_Swatch_1);}.cls-3{fill:#ba9544;}</style><linearGradient id="New_Gradient_Swatch_1" x1="134.90086" y1="20.31657" x2="154.88517" y2="20.31657" gradientUnits="userSpaceOnUse"><stop offset="0" stop-color="#a88a34"/><stop offset="0.49324" stop-color="#caaf67"/><stop offset="1" stop-color="#957f2e"/></linearGradient></defs><title>minty</title><path class="cls-1" d="M140.913,17.78351a.85267.85267,0,0,1,.16063-.06592,1.54461,1.54461,0,0,1,.17921-.04551l.01022-.00371,1.75311-.38535a.56736.56736,0,0,1,.3742.05757l.29528.28878-.61377.64256-1.95647.42992c-.078-.35285-.15878-.72056-.20241-.91834m6.08388,4.89069-.96292-4.38a.65652.65652,0,0,0-.72984-.50791l.51627-.54228.14207.13464.2145-.22749a.13934.13934,0,0,0-.00557-.19686l-1.03812-.98055a.13933.13933,0,0,0-.19685.00557l-.2145.22749.17085.16158-.689.72241-.34172-.33335-.02413-.01857a1.30564,1.30564,0,0,0-.98149-.18479l-1.73453.38164a2.53837,2.53837,0,0,0-.30643.07893,1.044,1.044,0,0,0-.56084.3742.60573.60573,0,0,0-.091.47264c.05386.24143.24142,1.09662.35471,1.61011.00185.01114.00371.02228.0065.03343l.96291,4.38091a.65255.65255,0,0,0,.78.49585l4.22584-.92949a.656.656,0,0,0,.50329-.77812"/><polygon class="cls-2" points="152.191 27.044 143.859 30.242 136.165 25.722 134.901 16.887 141.02 10.391 149.914 11.125 154.885 18.537 152.191 27.044"/><path class="cls-1" d="M149.12026,23.46427a3.54025,3.54025,0,0,0-1.4179-2.93237,1.36548,1.36548,0,0,1,.67227-.08171,2.31334,2.31334,0,0,0-1.352-1.21734,1.03429,1.03429,0,0,1,.5302-.065,4.869,4.869,0,0,0-2.81073-1.846,1.6779,1.6779,0,0,1,.51256-.06314,4.20509,4.20509,0,0,0-4.094.14393,8.504,8.504,0,0,1,2.36131,1.81625,16.69264,16.69264,0,0,0-2.65752-1.45876s-1.04369,2.48017,1.61011,4.65019a1.1672,1.1672,0,0,1-.06314-.51256,5.95462,5.95462,0,0,0,2.08275,1.612,1.20247,1.20247,0,0,1,.0065-.49956,3.099,3.099,0,0,0,1.47082.83941,1.12187,1.12187,0,0,1-.04642-.676,3.7782,3.7782,0,0,0,3.19515.29064"/><path class="cls-3" d="M136.58594,39.69043V36.01758h.24511l1.5918,1.81152,1.59375-1.81152h.24512v3.67285h-.73535l-.002-2.12988-1.10156,1.22363-1.10156-1.22363v2.12988Z"/><path class="cls-3" d="M140.99316,36.01562h.73243v3.67481h-.73243Z"/><path class="cls-3" d="M142.46191,39.69043V36.01758h.24512l2.30176,2.30176V36.01758h.73437v3.67285h-.26953l-2.27636-2.27734v2.27734Z"/><path class="cls-3" d="M149.501,36.01758v.68554h-1.22364v2.98731H147.542V36.70312h-1.22363v-.68554Z"/><path class="cls-3" d="M149.832,36.01758h.86133l.85254,1.20019.87109-1.20019h.84278l-1.34668,1.83594v1.83691h-.73438V37.85352Z"/><image width="1500" height="1261" transform="translate(191.53398 -89.43499) scale(0.07651)" xlink:href="../../../../../Dropbox%20(Revolution%20Strategy)/Rocio%20Ugarte/Clients/Namaste/Digital%20Ads/_Flight%202:Phase%202%20Terpene/1.%20Animated%20w:%20Packaging/6.%20Mobile%20Banner%20320%20x%2050/320%20x%2050_Folder/Links/SmallTopDown-8342SensiStar.png"/></svg>