<svg id="Content" xmlns="http://www.w3.org/2000/svg" xmlns:xlink="http://www.w3.org/1999/xlink" width="300" height="600" viewBox="0 0 300 600"><defs><style>.cls-1{fill:#ba9544;}.cls-2{fill:#fff;stroke:#ba9544;stroke-miterlimit:10;stroke-width:0.5px;}.cls-3{clip-path:url(#clip-path);}</style><clipPath id="clip-path"><polygon class="cls-1" points="47.548 320.845 56.941 334.151 57.126 334.167 57.126 307.303 56.941 307.297 47.548 320.845"/></clipPath></defs><title>CBD - MK Ultra</title><polygon class="cls-2" points="242.818 307.972 56.737 307.267 47.343 320.813 56.737 334.119 242.818 333.802 251.273 320.888 242.818 307.972"/><polygon class="cls-1" points="47.548 320.845 56.941 334.151 57.126 334.167 57.126 307.303 56.941 307.297 47.548 320.845"/><g class="cls-3"><rect class="cls-1" x="45.47033" y="305.22044" width="13.72831" height="31.0228"/></g><path class="cls-1" d="M156.667,325.28257a4.55777,4.55777,0,0,1,3.24024-7.80273,4.93583,4.93583,0,0,1,3.34668,1.21484l-1.21485,1.33008a3.36111,3.36111,0,0,0-2.13183-.72852,2.67785,2.67785,0,0,0-1.97754.76563,2.64894,2.64894,0,0,0-.75,1.94336,2.732,2.732,0,0,0,.75976,2.0166,2.68855,2.68855,0,0,0,1.9795.74707,3.26265,3.26265,0,0,0,2.12011-.72266l1.21485,1.33008a4.91234,4.91234,0,0,1-3.34668,1.21485A4.43148,4.43148,0,0,1,156.667,325.28257Z"/><path class="cls-1" d="M171.68457,321.78648a2.58749,2.58749,0,0,1-1.48242,4.81055l-5.126-.00586v-9.1045h4.834q2.30273.1333,2.42968,2.67871A1.90558,1.90558,0,0,1,171.68457,321.78648Zm-4.78027-.64942h2.55078a1.02915,1.02915,0,0,0,1.12988-1.13574q-.03077-.668-1.11133-.70508H166.9043Zm0,4.03223h2.97558a1.18932,1.18932,0,0,0,1.3125-1.31738q-.03075-.87451-1.29394-.91113H166.9043Z"/><path class="cls-1" d="M174.76953,326.59117V317.474h3.51074q4.25244,0,4.252,4.5625,0,4.5542-4.252,4.55469Zm3.51074-1.81641q2.42432-.00587,2.42969-2.73828-.00587-2.73341-2.42969-2.73438H176.5918v5.47266Z"/><path class="cls-1" d="M184.56641,320.7816a.88083.88083,0,0,1,.65625-.2461.91093.91093,0,0,1,.67968.2461.835.835,0,0,1,.24317.61035.82369.82369,0,0,1-.24317.60742,1.039,1.039,0,0,1-1.33593,0,.82369.82369,0,0,1-.24317-.60742A.835.835,0,0,1,184.56641,320.7816Zm0,4.34863a.88087.88087,0,0,1,.65625-.2461.911.911,0,0,1,.67968.2461.83416.83416,0,0,1,.24317.61133.82146.82146,0,0,1-.24317.60644,1.039,1.039,0,0,1-1.33593,0,.82146.82146,0,0,1-.24317-.60644A.83416.83416,0,0,1,184.56641,325.13023Z"/><path class="cls-1" d="M197.60059,320.09214l-3.52247,1.94434,3.52247,1.94336v1.39648l-5.75782-3.16406v-.39453l5.75782-3.123Z"/><path class="cls-1" d="M205.49023,317.47984V317.474h1.81641v9.11719h-1.81641v-6.68164l-1.21484,1.21484-1.21484-1.21484Z"/></svg>