<svg id="Content" xmlns="http://www.w3.org/2000/svg" width="300" height="600" viewBox="0 0 300 600"><defs><style>.cls-1{fill:#ba9544;}</style></defs><title>Frame1 - MK Ultra</title><path class="cls-1" d="M133.72119,281.45933l3.875-25.67773H145.501v36.166h-5.37305V266.01109l-3.92676,25.93652h-5.37353l-4.23633-25.57422v25.57422h-4.96v-36.166h7.90478Z"/><path class="cls-1" d="M162.54785,277.53257l-1.75586,3.30664v11.1084H155.1084v-36.166H160.792v15.75781l7.43946-15.75781H173.915l-7.90527,16.12011,7.90527,20.0459h-5.83887Z"/><path class="cls-1" d="M94.43066,305.7816V333.681c0,2.584,1.13672,3.51367,2.94483,3.51367,1.80859,0,2.94482-.92969,2.94482-3.51367V305.7816h5.37354v27.53808c0,5.78613-2.89356,9.09278-8.47315,9.09278-5.58008,0-8.47363-3.30665-8.47363-9.09278V305.7816Z"/><path class="cls-1" d="M115.04443,305.7816h5.68311v31h9.35156v5.166H115.04443Z"/><path class="cls-1" d="M136.38037,305.7816h17.5669v5.167h-5.9419v30.999h-5.6831v-30.999h-5.9419Z"/><path class="cls-1" d="M173.78516,341.94761c-.31055-.92969-.51661-1.498-.51661-4.44336v-5.68262c0-3.35839-1.13671-4.59863-3.71972-4.59863H167.585v14.72461h-5.68359v-36.166h8.57715c5.88964,0,8.42187,2.73828,8.42187,8.31836v2.84179c0,3.71973-1.18848,6.14746-3.7207,7.33594,2.84179,1.18848,3.77246,3.92676,3.77246,7.69824V337.556a10.64882,10.64882,0,0,0,.61914,4.3916Zm-6.2002-30.999V322.056h2.22168c2.11816,0,3.41016-.92969,3.41016-3.82324v-3.56446c0-2.584-.87793-3.71972-2.89356-3.71972Z"/><path class="cls-1" d="M206.54,341.94761h-5.73535l-.98145-6.56152h-6.97558l-.98145,6.56152h-5.21777l5.78613-36.166h8.31836Zm-12.96875-11.46973h5.47656l-2.73828-18.29Z"/></svg>