<?xml version="1.0" encoding="utf-8"?>
<!-- Generator: Adobe Illustrator 23.0.1, SVG Export Plug-In . SVG Version: 6.00 Build 0)  -->
<svg version="1.1" id="Layer_1" xmlns="http://www.w3.org/2000/svg" xmlns:xlink="http://www.w3.org/1999/xlink" x="0px" y="0px"
	 viewBox="0 0 970 250" enable-background="new 0 0 970 250" xml:space="preserve">
<g>
	<path fill="#BA9544" d="M374.87,114.68h8.5c5.38,0,8.02,2.98,8.02,8.46v17.3c0,5.47-2.64,8.46-8.02,8.46h-8.5V114.68z
		 M380.25,119.57v24.44h3.03c1.71,0,2.74-0.88,2.74-3.32v-17.79c0-2.44-1.03-3.32-2.74-3.32H380.25z"/>
	<path fill="#BA9544" d="M416.42,148.9h-5.42l-0.93-6.21h-6.6l-0.93,6.21h-4.94l5.47-34.21h7.87L416.42,148.9z M404.15,138.05h5.18
		l-2.59-17.3L404.15,138.05z"/>
	<path fill="#BA9544" d="M424.23,137.56l-6.79-22.87h5.62l4.11,15.59l4.11-15.59h5.13l-6.79,22.87v11.34h-5.38V137.56z"/>
	<path fill="#BA9544" d="M439.24,114.68h16.62v4.89h-5.62v29.32h-5.38v-29.32h-5.62V114.68z"/>
	<path fill="#BA9544" d="M462.4,114.68h5.38v34.21h-5.38V114.68z"/>
	<path fill="#BA9544" d="M488.26,138.97l3.67-24.29h7.48v34.21h-5.08v-24.53l-3.71,24.53h-5.08l-4.01-24.19v24.19h-4.69v-34.21h7.48
		L488.26,138.97z"/>
	<path fill="#BA9544" d="M513.86,129.1h7.38v4.89h-7.38v10.02h9.29v4.89h-14.66v-34.21h14.66v4.89h-9.29V129.1z"/>
	<path fill="#BA9544" d="M560,136.14v4.54c0,5.47-2.74,8.6-8.02,8.6s-8.02-3.13-8.02-8.6v-17.79c0-5.47,2.74-8.6,8.02-8.6
		s8.02,3.13,8.02,8.6v3.32h-5.08v-3.67c0-2.44-1.08-3.37-2.79-3.37c-1.71,0-2.79,0.93-2.79,3.37v18.47c0,2.44,1.08,3.32,2.79,3.32
		c1.71,0,2.79-0.88,2.79-3.32v-4.89H560z"/>
	<path fill="#BA9544" d="M584.53,122.55v1.22c0,3.52-1.08,5.77-3.47,6.89c2.88,1.12,4.01,3.71,4.01,7.33v2.79
		c0,5.28-2.79,8.11-8.16,8.11h-8.46v-34.21h8.11C582.14,114.68,584.53,117.27,584.53,122.55z M573.83,119.57v9.04h2.1
		c2,0,3.23-0.88,3.23-3.62v-1.91c0-2.44-0.83-3.52-2.74-3.52H573.83z M573.83,133.5v10.51h3.08c1.81,0,2.79-0.83,2.79-3.37v-2.98
		c0-3.18-1.03-4.15-3.47-4.15H573.83z"/>
	<path fill="#BA9544" d="M593.47,114.68h8.5c5.38,0,8.02,2.98,8.02,8.46v17.3c0,5.47-2.64,8.46-8.02,8.46h-8.5V114.68z
		 M598.85,119.57v24.44h3.03c1.71,0,2.74-0.88,2.74-3.32v-17.79c0-2.44-1.03-3.32-2.74-3.32H598.85z"/>
</g>
<g>
</g>
<g>
</g>
<g>
</g>
<g>
</g>
<g>
</g>
<g>
</g>
<g>
</g>
<g>
</g>
<g>
</g>
<g>
</g>
<g>
</g>
<g>
</g>
<g>
</g>
<g>
</g>
<g>
</g>
</svg>
