<svg id="Layer_1" data-name="Layer 1" xmlns="http://www.w3.org/2000/svg" width="320" height="50" viewBox="0 0 320 50"><defs><style>.cls-1{fill:#ab9555;}</style></defs><title>frame3_1</title><path class="cls-1" d="M125.88009,30.37511h-1.47656V20.58605h1.47656Z"/><path class="cls-1" d="M129.73751,20.57823l1.96,6.584v-6.584H133.174v9.79688H131.5881l-2.03125-6.27344v6.27344h-1.47657V20.57823Z"/><path class="cls-1" d="M136.85079,30.37511h-1.47656V20.57823h4.20312v1.48438h-2.72656v2.67187H138.843v1.48438h-1.99219Z"/><path class="cls-1" d="M143.8088,20.46105a2.3406,2.3406,0,0,1,2.34375,2.34375v5.34375a2.33986,2.33986,0,1,1-4.67969,0V22.8048a2.3406,2.3406,0,0,1,2.33594-2.34375Zm.80469,2.3125a.84025.84025,0,0,0-.84375-.84375.82722.82722,0,0,0-.60157.24609.80608.80608,0,0,0-.25.59766v5.35937a.80608.80608,0,0,0,.25.59766.82722.82722,0,0,0,.60157.24609.84025.84025,0,0,0,.84375-.84375Z"/><path class="cls-1" d="M150.66525,20.58605a2.25136,2.25136,0,0,1,1.8125.67968,2.46824,2.46824,0,0,1,.50781,1.65625v1.42188a2.28733,2.28733,0,0,1-.78906,1.75781l1.09375,4.27344h-1.59668l-.89551-3.6875h-.98438v3.6875h-1.47656V20.58605Zm.88281,2.35937a.74938.74938,0,0,0-.84375-.85156h-.89063v3.13281h.89063a.80607.80607,0,0,0,.59765-.25.82717.82717,0,0,0,.2461-.60156Z"/><path class="cls-1" d="M156.91232,30.37511h-1.47657V20.57823h2.11914l1.376,7.03711,1.32129-7.03711h2.03516v9.79688h-1.47657V24.21886l-1.28125,6.15625H158.342l-1.42968-6.14063Z"/><path class="cls-1" d="M166.29806,28.12511l-.3584,2.25h-1.53809l1.66407-9.78906h2.03125l1.64062,9.78906h-1.55273l-.34473-2.25Zm.77539-5.29688-.54688,3.85938h1.09375Z"/><path class="cls-1" d="M172.04806,22.07042h-1.57031V20.58605h4.60937v1.48437h-1.5625v8.30469h-1.47656Z"/><path class="cls-1" d="M178.63107,30.37511H177.1545V20.58605h1.47657Z"/><path class="cls-1" d="M183.15157,20.46105a2.3406,2.3406,0,0,1,2.34375,2.34375v5.34375a2.33985,2.33985,0,1,1-4.67968,0V22.8048a2.3406,2.3406,0,0,1,2.33593-2.34375Zm.80469,2.3125a.84023.84023,0,0,0-.84375-.84375.82561.82561,0,0,0-.60156.24609.80608.80608,0,0,0-.25.59766v5.35937a.80608.80608,0,0,0,.25.59766.82561.82561,0,0,0,.60156.24609.84023.84023,0,0,0,.84375-.84375Z"/><path class="cls-1" d="M189.32931,20.57823l1.959,6.584v-6.584h1.47656v9.79688h-1.58593l-2.03125-6.27344v6.27344H187.6711V20.57823Z"/><path class="cls-1" d="M194.66134,28.90636h1.47656v1.47656h-1.47656Z"/></svg>