<svg id="Layer_1" data-name="Layer 1" xmlns="http://www.w3.org/2000/svg" width="320" height="50" viewBox="0 0 320 50"><defs><style>.cls-1{fill:#ab9555;}</style></defs><title>frame1_1</title><path class="cls-1" d="M131.3254,30.37508V20.57821h4.20313v1.48437H132.802v2.67188h1.99219v1.48437H132.802v2.67188h2.72657v1.48437Z"/><path class="cls-1" d="M142.06466,28.03133a2.27059,2.27059,0,0,1-.67969,1.65625,2.22411,2.22411,0,0,1-1.64062.6875H137.424V20.57821h2.32032a2.22038,2.22038,0,0,1,1.64453.6875,2.26887,2.26887,0,0,1,.67578,1.64843Zm-3.16406.88281h.89062a.78942.78942,0,0,0,.59375-.2539.83783.83783,0,0,0,.24219-.59766v-5.125a.8272.8272,0,0,0-.24609-.60156.79669.79669,0,0,0-.58985-.25h-.89062Z"/><path class="cls-1" d="M146.56954,30.48446a2.32071,2.32071,0,0,1-2.33594-2.32813V20.586h1.44532v7.55469a.806.806,0,0,0,.25.59765.82719.82719,0,0,0,.60156.2461.84025.84025,0,0,0,.84375-.84375V20.586h1.53906v7.57031a2.22628,2.22628,0,0,1-.6875,1.65625A2.28285,2.28285,0,0,1,146.56954,30.48446Z"/><path class="cls-1" d="M153.427,30.50008a2.334,2.334,0,0,1-2.34375-2.33594V22.82039a2.33986,2.33986,0,1,1,4.67969,0v1.11719h-1.53125V22.78914a.85356.85356,0,0,0-.85156-.85156.8061.8061,0,0,0-.59766.25.8272.8272,0,0,0-.24609.60156v5.35938a.84025.84025,0,0,0,.84375.84375.82717.82717,0,0,0,.60156-.2461.80974.80974,0,0,0,.25-.59765V26.797h1.53125v1.36718a2.33393,2.33393,0,0,1-2.33594,2.33594Z"/><path class="cls-1" d="M159.383,28.12508l-.35938,2.25h-1.53711L159.1506,20.586h2.03125l1.64062,9.78906h-1.55273l-.34571-2.25Zm.77539-5.29687-.54688,3.85937h1.09375Z"/><path class="cls-1" d="M165.132,22.07039h-1.57031V20.586h4.60937v1.48437h-1.5625v8.30469H165.132Z"/><path class="cls-1" d="M171.71505,30.37508h-1.47656V20.586h1.47656Z"/><path class="cls-1" d="M176.23556,20.461a2.34062,2.34062,0,0,1,2.34375,2.34375v5.34375a2.33986,2.33986,0,1,1-4.67969,0V22.80477a2.3406,2.3406,0,0,1,2.33594-2.34375Zm.80469,2.3125a.84025.84025,0,0,0-.84375-.84375.8272.8272,0,0,0-.60157.24609.80608.80608,0,0,0-.25.59766v5.35937a.80608.80608,0,0,0,.25.59766.8272.8272,0,0,0,.60157.24609.84025.84025,0,0,0,.84375-.84375Z"/><path class="cls-1" d="M182.41427,20.57821l1.959,6.584v-6.584h1.47657v9.79687h-1.58594l-2.03125-6.27344v6.27344h-1.47656V20.57821Z"/><path class="cls-1" d="M187.74532,28.90633h1.47657v1.47656h-1.47657Z"/></svg>