<svg id="Content" xmlns="http://www.w3.org/2000/svg" xmlns:xlink="http://www.w3.org/1999/xlink" width="320" height="568" viewBox="0 0 320 568"><defs><style>.cls-1{fill:url(#New_Gradient_Swatch_1);}.cls-2{fill:#fff;}.cls-3{fill:#ba9544;}</style><linearGradient id="New_Gradient_Swatch_1" x1="137.04322" y1="228.63364" x2="184.72381" y2="228.63364" gradientUnits="userSpaceOnUse"><stop offset="0" stop-color="#a88a34"/><stop offset="0.49324" stop-color="#caaf67"/><stop offset="1" stop-color="#957f2e"/></linearGradient></defs><title>fruity</title><polygon class="cls-1" points="156.849 253.022 137.043 230.15 152.677 204.245 182.145 211.108 184.724 241.253 156.849 253.022"/><path class="cls-2" d="M170.49465,222.09688c1.63181-.49407,2.08736-1.81312,3.04831-2.26867-1.89924-.77964-3.01431-.97455-4.14072-.43968a2.81688,2.81688,0,0,0-1.67487,2.08963,2.90627,2.90627,0,0,0,2.76728.61872"/><path class="cls-2" d="M166.97583,224.8458a8.77341,8.77341,0,0,0-2.14855-6.627.14773.14773,0,0,0-.21077-.0068l-.0068.0068-.44648.45782a.15019.15019,0,0,0-.00453.204,7.94685,7.94685,0,0,1,1.863,5.99917c-3.91408-2.2936-8.02987.213-7.83949,4.37643a10.83386,10.83386,0,0,0,.33089,2.13948,18.36938,18.36938,0,0,0,8.354,3.78943,2.18612,2.18612,0,0,1,1.06974.5326,1.57866,1.57866,0,0,1,.50314,1.11281l.0136.41021a2.24468,2.24468,0,0,1-.09972.72526,3.18727,3.18727,0,0,1-.14279.45328c3.26362.16091,6.355-5.02915,6.54537-9.16307.19038-4.14072-3.88461-6.64283-7.78056-4.41043"/><path class="cls-2" d="M167.16576,236.55268a1.0753,1.0753,0,0,0-.519-.25383c-6.602-1.31225-12.15925-5.07675-14.45739-12.855a1.77543,1.77543,0,0,0-.23117-.44648,1.04943,1.04943,0,0,1-.15638-.59833l.05212-1.47543a.39873.39873,0,0,0-.38528-.41475h-.01587l-.78191.00679a.398.398,0,0,0-.39662.40116.25986.25986,0,0,0,.00227.04306l.18358,1.58421a.985.985,0,0,1-.21531.63686,2.53612,2.53612,0,0,0-.25837,1.33265c-.15865,12.39723,8.22024,16.00987,15.95548,14.10383.98362-.24251,1.07654-.40115,1.16039-.519a1.76294,1.76294,0,0,0,.15412-.44194,1.03845,1.03845,0,0,0,.05893-.38076l-.01133-.40795a.449.449,0,0,0-.13825-.315"/><path class="cls-3" d="M138.04639,275.91992v-8.96387h6.30468v1.67383h-4.51171V270.542H143.168v1.667h-3.32861v3.71094Z"/><path class="cls-3" d="M151.0498,272.01172l2.23487,3.9082H151.229l-2.1455-3.70508h-1.63721v3.70508h-1.793v-8.96387h3.9082q3.1377,0,3.1377,2.582A2.31739,2.31739,0,0,1,151.0498,272.01172Zm-3.60351-1.46973h2.50976q1.0818-.01758,1.11133-.98633-.02929-.88329-1.09326-.91992h-2.52783Z"/><path class="cls-3" d="M155.87207,266.95605v5.19922a1.79763,1.79763,0,0,0,.59766,1.49414,2.57622,2.57622,0,0,0,2.98828,0,1.79882,1.79882,0,0,0,.59717-1.49414v-5.19922h1.79345v5.67774a2.96977,2.96977,0,0,1-1.106,2.33008,4.5164,4.5164,0,0,1-5.55762,0,2.96775,2.96775,0,0,1-1.10547-2.33008v-5.67774Z"/><path class="cls-3" d="M163.78418,266.9502h1.78613v8.96972h-1.78613Z"/><path class="cls-3" d="M174.68457,266.95605v1.67383h-2.98828v7.29h-1.793v-7.29H166.916v-1.67383Z"/><path class="cls-3" d="M175.49121,266.95605h2.10352l2.08007,2.92872,2.127-2.92872h2.05566l-3.28613,4.48243v4.48144h-1.793v-4.48144Z"/></svg>