<svg id="Layer_1" data-name="Layer 1" xmlns="http://www.w3.org/2000/svg" xmlns:xlink="http://www.w3.org/1999/xlink" width="34.32185" height="49.96466" viewBox="0 0 34.32185 49.96466"><defs><style>.cls-1{fill:url(#New_Gradient_Swatch_1);}.cls-2{fill:#fff;}.cls-3{fill:#ba9544;}</style><linearGradient id="New_Gradient_Swatch_1" y1="14.86143" x2="34.32185" y2="14.86143" gradientUnits="userSpaceOnUse"><stop offset="0" stop-color="#a88a34"/><stop offset="0.49324" stop-color="#caaf67"/><stop offset="1" stop-color="#957f2e"/></linearGradient></defs><title>citrus</title><polygon class="cls-1" points="25.741 0 8.581 0 0 14.861 8.581 29.723 25.741 29.723 34.322 14.861 25.741 0"/><path class="cls-2" d="M24.18046,16.9659a7.54477,7.54477,0,0,1-11.4369-9.80556l-.69846-.59959A8.46411,8.46411,0,0,0,24.87891,17.56549Z"/><path class="cls-2" d="M11.90445,12.49893a6.85644,6.85644,0,0,0,2.12887,4.25456l4.05521-4.72976Z"/><path class="cls-2" d="M14.50214,17.1547a6.859,6.859,0,0,0,4.46345,1.45752l-.46883-6.11551Z"/><path class="cls-2" d="M13.24763,7.59249a6.85581,6.85581,0,0,0-1.38417,4.29123l5.86356-.45128Z"/><path class="cls-2" d="M23.67511,16.53327l-4.54957-3.90053L19.58,18.56327a6.85323,6.85323,0,0,0,4.09509-2.03"/><path class="cls-2" d="M18.06031,10.92134c.03029-.3843.24557-.62829.48956-.64742.24239-.02074.42258.18977.39227.57407a1.30693,1.30693,0,0,1-.49593.732.84565.84565,0,0,1-.3859-.6586"/><path class="cls-2" d="M19.64955,11.28811c.37314-.11.61872.01914.649.25993.03029.2392-.16586.49914-.5374.60917a.86055.86055,0,0,1-.732-.236s.24718-.523.62033-.63308"/><path class="cls-2" d="M20.33924,23.17422a.79623.79623,0,1,1-1.59148.05582c-.01435-.43853.75109-1.30762.75109-1.30762s.826.81327.84039,1.2518"/><path class="cls-2" d="M20.05587,22.65564a.22344.22344,0,0,1-.19136.24877l-.66179.02392a.22437.22437,0,0,1-.2073-.23441,2.39521,2.39521,0,0,0,.07176-1.26936c-.25356-.75427-2.02043-1.34748-1.9104-1.35067l3.639-.25515a2.63152,2.63152,0,0,0-.97912,1.601,1.65987,1.65987,0,0,0,.2392,1.23586"/><path class="cls-3" d="M1.56958,49.05841A3.15393,3.15393,0,0,1,3.81274,43.658a3.41189,3.41189,0,0,1,2.31641.84082l-.84082.92089a2.32228,2.32228,0,0,0-1.47559-.50488,1.85174,1.85174,0,0,0-1.36865.53027,1.832,1.832,0,0,0-.51953,1.34473,1.89276,1.89276,0,0,0,.52588,1.39649,1.86032,1.86032,0,0,0,1.3706.5166,2.25791,2.25791,0,0,0,1.46729-.5l.84082.9209a3.40146,3.40146,0,0,1-2.31641.84082A3.06751,3.06751,0,0,1,1.56958,49.05841Z"/><path class="cls-3" d="M7.48755,43.65313H8.74487v6.31153H7.48755Z"/><path class="cls-3" d="M15.157,43.658v1.17675H13.05493v5.12989H11.79321V44.83477H9.69116V43.658Z"/><path class="cls-3" d="M19.89185,47.21466l1.57226,2.75H20.01782l-1.50976-2.60645H17.35571v2.60645H16.09448V43.658H18.844q2.20752,0,2.208,1.8164A1.63,1.63,0,0,1,19.89185,47.21466Zm-2.53614-1.03418h1.7666q.76026-.01319.78125-.69336-.0205-.62256-.76855-.64746h-1.7793Z"/><path class="cls-3" d="M23.28442,43.658v3.65722a1.26741,1.26741,0,0,0,.4209,1.05176,1.81286,1.81286,0,0,0,2.10254,0,1.26693,1.26693,0,0,0,.41992-1.05176V43.658H27.4895v3.99414a2.09,2.09,0,0,1-.77832,1.63964,3.1768,3.1768,0,0,1-3.91016,0,2.089,2.089,0,0,1-.77734-1.63964V43.658Z"/><path class="cls-3" d="M32.26587,43.868a2.92728,2.92728,0,0,1,.90332.63086l-.84082.84082a1.4463,1.4463,0,0,0-1.17676-.50489q-.75732,0-.96777.35743a.49293.49293,0,0,0,0,.60937,1.65875,1.65875,0,0,0,.96777.37891,3.13025,3.13025,0,0,1,1.4502.52539,1.58,1.58,0,0,1,.65234,1.40918,1.61726,1.61726,0,0,1-.69629,1.30273,2.54888,2.54888,0,0,1-1.62109.54688,3.73312,3.73312,0,0,1-1.4668-.252,3.1959,3.1959,0,0,1-1.00977-.67285L29.301,48.199a1.99856,1.99856,0,0,0,1.42969.58789q.84083,0,1.04883-.35742a.66057.66057,0,0,0,0-.71387q-.208-.35742-1.04883-.44238a3.39564,3.39564,0,0,1-1.38769-.46191,1.39667,1.39667,0,0,1-.62989-1.30372,1.56923,1.56923,0,0,1,.7168-1.34375,2.52806,2.52806,0,0,1,1.47363-.50585A3.51,3.51,0,0,1,32.26587,43.868Z"/></svg>