<?xml version="1.0" encoding="utf-8"?>
<!-- Generator: Adobe Illustrator 23.0.1, SVG Export Plug-In . SVG Version: 6.00 Build 0)  -->
<svg version="1.1" id="Layer_1" xmlns="http://www.w3.org/2000/svg" xmlns:xlink="http://www.w3.org/1999/xlink" x="0px" y="0px"
	 viewBox="0 0 970 250" enable-background="new 0 0 970 250" xml:space="preserve">
<g>
	<g>
		<polygon fill="#FFFFFF" stroke="#BA9544" stroke-width="0.5" stroke-miterlimit="10" points="612.27,151.64 379.67,150.76 
			367.92,167.7 379.67,184.33 612.27,183.93 622.84,167.79 		"/>
		<g>
			<defs>
				<polygon id="SVGID_1_" points="368.18,167.74 379.92,184.37 380.15,184.39 380.15,150.81 379.92,150.8 				"/>
			</defs>
			<use xlink:href="#SVGID_1_"  overflow="visible" fill="#BA9544"/>
			<clipPath id="SVGID_2_">
				<use xlink:href="#SVGID_1_"  overflow="visible"/>
			</clipPath>
			<g clip-path="url(#SVGID_2_)">
				<defs>
					<rect id="SVGID_3_" x="365.58" y="148.21" width="17.16" height="38.78"/>
				</defs>
				<use xlink:href="#SVGID_3_"  overflow="visible" fill="#BA9544"/>
				<clipPath id="SVGID_4_">
					<use xlink:href="#SVGID_3_"  overflow="visible"/>
				</clipPath>
			</g>
		</g>
	</g>
	<g>
		<path fill="#BA9544" d="M504.58,173.29c-1.09-1.09-1.64-2.45-1.64-4.08c0-1.6,0.55-2.94,1.64-4.04c1.09-1.09,2.44-1.64,4.05-1.64
			c1.63,0,3.02,0.51,4.18,1.52l-1.52,1.66c-0.77-0.61-1.66-0.91-2.67-0.91c-1.02,0-1.85,0.32-2.47,0.96
			c-0.63,0.63-0.94,1.44-0.94,2.43c0,1.06,0.32,1.9,0.95,2.52s1.45,0.93,2.48,0.93c1.02,0,1.91-0.3,2.65-0.9l1.52,1.66
			c-1.16,1.01-2.55,1.52-4.18,1.52C507.02,174.92,505.67,174.37,504.58,173.29z"/>
		<path fill="#BA9544" d="M523.35,168.91c1,0.67,1.53,1.54,1.59,2.61c-0.1,2.15-1.25,3.28-3.44,3.41l-6.41-0.01v-11.38h6.04
			c1.92,0.11,2.93,1.23,3.04,3.35C524.14,167.9,523.86,168.58,523.35,168.91z M517.38,168.1h3.19c0.92-0.02,1.39-0.49,1.41-1.42
			c-0.03-0.56-0.49-0.85-1.39-0.88h-3.21V168.1z M517.38,173.14h3.72c1.07-0.02,1.61-0.56,1.64-1.65c-0.03-0.73-0.56-1.11-1.62-1.14
			h-3.74V173.14z"/>
		<path fill="#BA9544" d="M527.21,174.92v-11.39h4.39c3.54,0,5.31,1.9,5.31,5.7c0,3.79-1.77,5.69-5.31,5.69H527.21z M531.6,172.65
			c2.02-0.01,3.03-1.15,3.04-3.42c-0.01-2.28-1.02-3.42-3.04-3.42h-2.11v6.84H531.6z"/>
		<path fill="#BA9544" d="M539.46,167.66c0.2-0.21,0.48-0.31,0.82-0.31c0.36,0,0.65,0.1,0.85,0.31c0.2,0.21,0.3,0.46,0.3,0.76
			c0,0.3-0.1,0.56-0.3,0.76c-0.2,0.2-0.48,0.3-0.83,0.3c-0.35,0-0.63-0.1-0.84-0.3c-0.2-0.2-0.3-0.46-0.3-0.76
			C539.15,168.12,539.25,167.86,539.46,167.66z M539.46,173.09c0.2-0.21,0.48-0.31,0.82-0.31c0.36,0,0.65,0.1,0.85,0.31
			c0.2,0.21,0.3,0.46,0.3,0.76c0,0.3-0.1,0.56-0.3,0.76c-0.2,0.2-0.48,0.3-0.83,0.3c-0.35,0-0.63-0.1-0.84-0.3
			c-0.2-0.2-0.3-0.46-0.3-0.76C539.15,173.55,539.25,173.3,539.46,173.09z"/>
		<path fill="#BA9544" d="M555.75,166.8l-4.4,2.43l4.4,2.43v1.75l-7.2-3.96v-0.49l7.2-3.9V166.8z"/>
		<path fill="#BA9544" d="M565.61,163.53L565.61,163.53l2.27-0.01v11.39h-2.27v-8.35l-1.52,1.52l-1.52-1.52L565.61,163.53z"/>
	</g>
</g>
<g>
</g>
<g>
</g>
<g>
</g>
<g>
</g>
<g>
</g>
<g>
</g>
<g>
</g>
<g>
</g>
<g>
</g>
<g>
</g>
<g>
</g>
<g>
</g>
<g>
</g>
<g>
</g>
<g>
</g>
</svg>
