<?xml version="1.0" encoding="utf-8"?>
<!-- Generator: Adobe Illustrator 23.0.1, SVG Export Plug-In . SVG Version: 6.00 Build 0)  -->
<svg version="1.1" id="Layer_1" xmlns="http://www.w3.org/2000/svg" xmlns:xlink="http://www.w3.org/1999/xlink" x="0px" y="0px"
	 viewBox="0 0 970 250" enable-background="new 0 0 970 250" xml:space="preserve">
<g>
	<path fill="#BA9544" d="M361.21,116.29c5.23,0,7.92,3.13,7.92,8.6v1.08h-5.08v-1.42c0-2.44-0.98-3.37-2.69-3.37
		s-2.69,0.93-2.69,3.37c0,7.04,10.51,8.36,10.51,18.13c0,5.47-2.74,8.6-8.02,8.6c-5.28,0-8.02-3.13-8.02-8.6v-2.1h5.08v2.44
		c0,2.44,1.08,3.32,2.79,3.32c1.71,0,2.79-0.88,2.79-3.32c0-7.04-10.51-8.36-10.51-18.13C353.29,119.42,355.98,116.29,361.21,116.29
		z"/>
	<path fill="#BA9544" d="M382.81,150.89h-5.38v-34.21h5.38v14.66h6.11v-14.66h5.47v34.21h-5.47v-14.66h-6.11V150.89z"/>
	<path fill="#BA9544" d="M403.49,116.68h5.38v34.21h-5.38V116.68z"/>
	<path fill="#BA9544" d="M425.18,116.29c5.23,0,7.92,3.13,7.92,8.6v1.08h-5.08v-1.42c0-2.44-0.98-3.37-2.69-3.37
		s-2.69,0.93-2.69,3.37c0,7.04,10.51,8.36,10.51,18.13c0,5.47-2.74,8.6-8.02,8.6c-5.28,0-8.02-3.13-8.02-8.6v-2.1h5.08v2.44
		c0,2.44,1.08,3.32,2.79,3.32c1.71,0,2.79-0.88,2.79-3.32c0-7.04-10.51-8.36-10.51-18.13C417.27,119.42,419.96,116.29,425.18,116.29
		z"/>
	<path fill="#BA9544" d="M446.79,150.89h-5.38v-34.21h5.38v14.66h6.11v-14.66h5.47v34.21h-5.47v-14.66h-6.11V150.89z"/>
	<path fill="#BA9544" d="M474.5,137.25l-1.66,3.13v10.51h-5.38v-34.21h5.38v14.91l7.04-14.91h5.38l-7.48,15.25l7.48,18.96h-5.52
		L474.5,137.25z"/>
	<path fill="#BA9544" d="M510.27,150.89h-5.43l-0.93-6.21h-6.6l-0.93,6.21h-4.94l5.47-34.21h7.87L510.27,150.89z M498,140.04h5.18
		l-2.59-17.3L498,140.04z"/>
	<path fill="#BA9544" d="M534.02,124.55v1.22c0,3.52-1.08,5.77-3.47,6.89c2.88,1.12,4.01,3.71,4.01,7.33v2.79
		c0,5.28-2.79,8.11-8.16,8.11h-8.46v-34.21h8.11C531.63,116.68,534.02,119.27,534.02,124.55z M523.32,121.57v9.04h2.1
		c2,0,3.23-0.88,3.23-3.62v-1.91c0-2.44-0.83-3.52-2.74-3.52H523.32z M523.32,135.49V146h3.08c1.81,0,2.79-0.83,2.79-3.37v-2.98
		c0-3.18-1.03-4.15-3.47-4.15H523.32z"/>
	<path fill="#BA9544" d="M548.34,131.1h7.38v4.89h-7.38V146h9.29v4.89h-14.66v-34.21h14.66v4.89h-9.29V131.1z"/>
	<path fill="#BA9544" d="M577.37,150.89c-0.29-0.88-0.49-1.42-0.49-4.2v-5.38c0-3.18-1.08-4.35-3.52-4.35h-1.86v13.93h-5.38v-34.21
		h8.11c5.57,0,7.97,2.59,7.97,7.87v2.69c0,3.52-1.12,5.82-3.52,6.94c2.69,1.12,3.57,3.71,3.57,7.28v5.28c0,1.66,0.05,2.88,0.59,4.15
		H577.37z M571.5,121.57v10.51h2.1c2,0,3.23-0.88,3.23-3.62v-3.37c0-2.44-0.83-3.52-2.74-3.52H571.5z"/>
	<path fill="#BA9544" d="M602.2,150.89c-0.29-0.88-0.49-1.42-0.49-4.2v-5.38c0-3.18-1.08-4.35-3.52-4.35h-1.86v13.93h-5.38v-34.21
		h8.11c5.57,0,7.97,2.59,7.97,7.87v2.69c0,3.52-1.12,5.82-3.52,6.94c2.69,1.12,3.57,3.71,3.57,7.28v5.28c0,1.66,0.05,2.88,0.59,4.15
		H602.2z M596.33,121.57v10.51h2.1c2,0,3.23-0.88,3.23-3.62v-3.37c0-2.44-0.83-3.52-2.74-3.52H596.33z"/>
	<path fill="#BA9544" d="M620.82,139.55l-6.79-22.87h5.62l4.11,15.59l4.1-15.59h5.13l-6.79,22.87v11.34h-5.38V139.55z"/>
</g>
<g>
</g>
<g>
</g>
<g>
</g>
<g>
</g>
<g>
</g>
<g>
</g>
<g>
</g>
<g>
</g>
<g>
</g>
<g>
</g>
<g>
</g>
<g>
</g>
<g>
</g>
<g>
</g>
<g>
</g>
</svg>
