<?xml version="1.0" encoding="utf-8"?>
<!-- Generator: Adobe Illustrator 23.0.1, SVG Export Plug-In . SVG Version: 6.00 Build 0)  -->
<svg version="1.1" id="Layer_1" xmlns="http://www.w3.org/2000/svg" xmlns:xlink="http://www.w3.org/1999/xlink" x="0px" y="0px"
	 viewBox="0 0 728 90" style="enable-background:new 0 0 728 90;" xml:space="preserve">
<style type="text/css">
	.st0{fill:#BA9544;}
</style>
<g>
	<path class="st0" d="M301.45,34.91h5.57c3.52,0,5.25,1.95,5.25,5.54v11.33c0,3.58-1.73,5.54-5.25,5.54h-5.57V34.91z M304.97,38.11
		v16h1.98c1.12,0,1.79-0.58,1.79-2.18V40.28c0-1.6-0.67-2.18-1.79-2.18H304.97z"/>
	<path class="st0" d="M328.65,57.31h-3.55l-0.61-4.06h-4.32l-0.61,4.06h-3.23l3.58-22.4h5.15L328.65,57.31z M320.62,50.2h3.39
		l-1.7-11.33L320.62,50.2z"/>
	<path class="st0" d="M333.77,49.88l-4.45-14.97h3.68l2.69,10.21l2.69-10.21h3.36l-4.45,14.97v7.42h-3.52V49.88z"/>
	<path class="st0" d="M343.6,34.91h10.88v3.2h-3.68v19.2h-3.52v-19.2h-3.68V34.91z"/>
	<path class="st0" d="M358.77,34.91h3.52v22.4h-3.52V34.91z"/>
	<path class="st0" d="M375.69,50.81l2.4-15.9h4.9v22.4h-3.33V41.24l-2.43,16.06h-3.33l-2.62-15.84v15.84h-3.07v-22.4h4.9
		L375.69,50.81z"/>
	<path class="st0" d="M392.46,44.35h4.83v3.2h-4.83v6.56h6.08v3.2h-9.6v-22.4h9.6v3.2h-6.08V44.35z"/>
	<path class="st0" d="M422.67,48.95v2.98c0,3.58-1.79,5.63-5.25,5.63c-3.46,0-5.25-2.05-5.25-5.63V40.28c0-3.58,1.79-5.63,5.25-5.63
		c3.46,0,5.25,2.05,5.25,5.63v2.18h-3.33v-2.4c0-1.6-0.7-2.21-1.82-2.21s-1.82,0.61-1.82,2.21v12.1c0,1.6,0.7,2.18,1.82,2.18
		s1.82-0.58,1.82-2.18v-3.2H422.67z"/>
	<path class="st0" d="M438.73,40.06v0.8c0,2.3-0.7,3.78-2.27,4.51c1.89,0.74,2.62,2.43,2.62,4.8v1.82c0,3.46-1.82,5.31-5.34,5.31
		h-5.54v-22.4h5.31C437.16,34.91,438.73,36.6,438.73,40.06z M431.72,38.11v5.92h1.38c1.31,0,2.11-0.58,2.11-2.37v-1.25
		c0-1.6-0.54-2.3-1.79-2.3H431.72z M431.72,47.23v6.88h2.02c1.18,0,1.82-0.54,1.82-2.21v-1.95c0-2.08-0.67-2.72-2.27-2.72H431.72z"
		/>
	<path class="st0" d="M444.59,34.91h5.57c3.52,0,5.25,1.95,5.25,5.54v11.33c0,3.58-1.73,5.54-5.25,5.54h-5.57V34.91z M448.11,38.11
		v16h1.98c1.12,0,1.79-0.58,1.79-2.18V40.28c0-1.6-0.67-2.18-1.79-2.18H448.11z"/>
</g>
<g>
</g>
<g>
</g>
<g>
</g>
<g>
</g>
<g>
</g>
<g>
</g>
<g>
</g>
<g>
</g>
<g>
</g>
<g>
</g>
<g>
</g>
<g>
</g>
<g>
</g>
<g>
</g>
<g>
</g>
</svg>
