<svg id="Content" xmlns="http://www.w3.org/2000/svg" width="300" height="250" viewBox="0 0 300 250"><defs><style>.cls-1{fill:#ba9544;}</style></defs><title>Frame1 - Durga Mata</title><path class="cls-1" d="M102.86084,147.92653h5.10547c3.22754,0,4.812,1.79,4.812,5.07617v10.3877c0,3.28613-1.58447,5.07617-4.812,5.07617h-5.10547Zm3.22754,2.93457V165.532h1.81933c1.02686,0,1.64307-.52832,1.64307-1.99512V152.85622c0-1.4668-.61621-1.99512-1.64307-1.99512Z"/><path class="cls-1" d="M122.313,147.92653v15.84472c0,1.46778.64551,1.9961,1.67236,1.9961s1.67236-.52832,1.67236-1.9961V147.92653h3.05176v15.63965c0,3.28613-1.64306,5.16406-4.812,5.16406s-4.8125-1.87793-4.8125-5.16406V147.92653Z"/><path class="cls-1" d="M142.05811,168.46657a6.321,6.321,0,0,1-.29346-2.52344v-3.22754c0-1.90723-.64551-2.61133-2.11231-2.61133h-1.11523v8.36231h-3.22754v-20.54h4.87061c3.34521,0,4.7832,1.55566,4.7832,4.72461v1.61328c0,2.11328-.67529,3.49219-2.11279,4.167,1.61377.67481,2.14209,2.23047,2.14209,4.37207v3.16895a6.04767,6.04767,0,0,0,.352,2.49414Zm-3.521-17.60547v6.30859h1.26172c1.20312,0,1.93652-.52832,1.93652-2.17187V152.9734c0-1.46679-.49853-2.1123-1.64306-2.1123Z"/><path class="cls-1" d="M156.34668,157.02321h4.51855v6.51367c0,3.28613-1.64355,5.16406-4.8125,5.16406s-4.8125-1.87793-4.8125-5.16406V152.85622c0-3.28614,1.64356-5.16407,4.8125-5.16407s4.8125,1.87793,4.8125,5.16407v1.99511h-3.05175v-2.20019c0-1.46778-.64551-2.02442-1.67286-2.02442-1.02636,0-1.67187.55664-1.67187,2.02442V163.742c0,1.46777.64551,1.99609,1.67187,1.99609,1.02735,0,1.67286-.52832,1.67286-1.99609V159.9568h-1.4668Z"/><path class="cls-1" d="M177.79492,168.46657h-3.25781l-.55762-3.72657h-3.96094l-.55761,3.72657h-2.96289l3.28613-20.54h4.72363Zm-7.36523-6.51367H173.54l-1.55566-10.3877Z"/><path class="cls-1" d="M199.47559,162.50954l2.20019-14.583H206.165v20.54h-3.05078V153.7361l-2.23047,14.73047H197.832l-2.40625-14.52442v14.52442h-2.8164v-20.54h4.48925Z"/><path class="cls-1" d="M223.3584,168.46657h-3.25781L219.543,164.74H215.582l-.55762,3.72657h-2.96289l3.28614-20.54h4.72363Zm-7.36524-6.51367h3.11036l-1.55567-10.3877Z"/><path class="cls-1" d="M228.31445,147.92653H238.291v2.93457h-3.374v17.60547h-3.22754V150.8611h-3.375Z"/><path class="cls-1" d="M254.5459,168.46657h-3.25781l-.55762-3.72657h-3.96094l-.55762,3.72657H243.249l3.28614-20.54h4.72363Zm-7.36524-6.51367H250.291l-1.55567-10.3877Z"/><path class="cls-1" d="M274.11426,150.62672c-1.02637,0-1.67188.55664-1.67188,2.02442v2.20019h-3.05176v-1.99511c0-3.28614,1.64258-5.16407,4.8125-5.16407,3.16895,0,4.81153,1.87793,4.81153,5.16407,0,6.45507-6.42578,8.86132-6.42578,12.23632a2.218,2.218,0,0,0,.02929.43946h6.10352v2.93457h-9.33106v-2.52344c0-6.04492,6.39649-7.042,6.39649-12.96973C275.78711,151.12477,275.1416,150.62672,274.11426,150.62672Z"/></svg>