<svg xmlns="http://www.w3.org/2000/svg" width="727.99955" height="90" viewBox="0 0 727.99955 90"><defs><style>.cls-1{fill:#fff;stroke:#ba9544;stroke-miterlimit:10;stroke-width:0.5px;}.cls-2{fill:#ba9544;}</style></defs><title>THC - Daytime CBD</title><g id="Content"><polygon class="cls-1" points="359.055 21.361 228.127 20.864 221.517 30.396 228.127 39.758 359.055 39.535 365.003 30.448 359.055 21.361"/><polygon class="cls-2" points="228.222 20.864 221.613 30.396 228.222 39.758 236.441 39.758 236.441 20.864 228.222 20.864"/><path class="cls-2" d="M303.0652,26.91456v1.19629h-2.13671v5.21387h-1.28223V28.11085h-2.13672V26.91456Z"/><path class="cls-2" d="M304.01735,33.32472V26.91456h1.28223V29.479h2.9873V26.91066h1.28223v6.41015l-1.28223.00391V30.67531h-2.9873v2.64941Z"/><path class="cls-2" d="M311.55739,32.40382a3.20665,3.20665,0,0,1,2.28028-5.48926,3.46873,3.46873,0,0,1,2.35449.8545l-.85449.93652a2.3625,2.3625,0,0,0-1.5-.5127,1.8275,1.8275,0,0,0-1.91895,1.90528,1.92178,1.92178,0,0,0,.53418,1.41894,1.89311,1.89311,0,0,0,1.39355.52539,2.29764,2.29764,0,0,0,1.49122-.50781l.85449.93555a3.45528,3.45528,0,0,1-2.35449.85449A3.11911,3.11911,0,0,1,311.55739,32.40382Z"/><path class="cls-2" d="M317.62868,29.23781a.617.617,0,0,1,.46192-.17383.63983.63983,0,0,1,.47851.17383.62194.62194,0,0,1,0,.85644.73233.73233,0,0,1-.94043,0,.62194.62194,0,0,1,0-.85644Zm0,3.05957a.62019.62019,0,0,1,.46192-.17285.64314.64314,0,0,1,.47851.17285.586.586,0,0,1,.1709.42968.57628.57628,0,0,1-.1709.42676.73233.73233,0,0,1-.94043,0,.57628.57628,0,0,1-.1709-.42676A.586.586,0,0,1,317.62868,32.29738Z"/><path class="cls-2" d="M326.9529,30.07667c.07715.0293.14648.05762.21.08594a1.25642,1.25642,0,0,1,.66211,1.28223,1.64446,1.64446,0,0,1-.707,1.32422,2.588,2.588,0,0,1-1.64746.55566,3.80267,3.80267,0,0,1-1.49219-.25586,3.25089,3.25089,0,0,1-1.02539-.68359l.85449-.85547a2.03161,2.03161,0,0,0,1.45313.59863q.85547,0,1.0664-.36328a.67836.67836,0,0,0,0-.72656q-.21093-.36329-1.48925-.40625V29.479q1.27734.085,1.48925-.27832a.67838.67838,0,0,0,0-.72657q-.21093-.36327-1.0664-.36328a1.52,1.52,0,0,0-1.23926.51368l-.85449-.85547a2.99584,2.99584,0,0,1,.91894-.64063,3.57191,3.57191,0,0,1,1.38477-.21387,2.25791,2.25791,0,0,1,1.56152.55567,1.71686,1.71686,0,0,1,.62207,1.32519,1.26792,1.26792,0,0,1-.57715,1.21778C327.03981,30.03273,326.9988,30.05421,326.9529,30.07667Z"/><path class="cls-2" d="M328.86794,31.61085v-.84961h2.64941v.84961Z"/><path class="cls-2" d="M333.4363,33.32472l.0039-.42676,2.00391-4.78711H332.701l-.00391-1.19629h4.376v.46973l-2.38965,5.94043Z"/><path class="cls-2" d="M338.47927,29.61964a1.65011,1.65011,0,1,1,1.14551.46192A1.55572,1.55572,0,0,1,338.47927,29.61964Zm1.13183-.29883a.76137.76137,0,0,0,.58594-.24414.92231.92231,0,0,0,0-1.21093.7715.7715,0,0,0-.58984-.24121.76108.76108,0,0,0-.58106.24121.92231.92231,0,0,0,0,1.21093A.76072.76072,0,0,0,339.6111,29.32081Zm-.34179,4.00391,3.63281-6.41016h1.043l-3.624,6.41016Zm3.18457-.42285a1.64212,1.64212,0,1,1,1.13672.457A1.5401,1.5401,0,0,1,342.45388,32.90187Zm1.11523-.31152a.74921.74921,0,0,0,.57227-.23731.89263.89263,0,0,0,0-1.17969.75547.75547,0,0,0-.57715-.2373.74511.74511,0,0,0-.56836.2373.89556.89556,0,0,0,0,1.17969A.74987.74987,0,0,0,343.56911,32.59035Z"/></g></svg>