<svg id="Layer_1" data-name="Layer 1" xmlns="http://www.w3.org/2000/svg" width="375" height="132" viewBox="0 0 375 132"><defs><style>.cls-1{fill:#fff;}</style></defs><title>self-care</title><path class="cls-1" d="M172.71763,86.33585H171.045V75.242h2.39638l1.557,7.95548,1.49621-7.95548h2.30515V86.33585h-1.6726V79.36568l-1.44553,6.97017h-1.34243l-1.62162-6.95192Z"/><path class="cls-1" d="M183.40951,75.10816a2.6531,2.6531,0,0,1,2.65791,2.65791v6.05176a2.65259,2.65259,0,0,1-2.65791,2.65791,2.53016,2.53016,0,0,1-1.87012-.77851,2.57526,2.57526,0,0,1-.76954-1.8794V77.76607a2.65315,2.65315,0,0,1,2.63966-2.65791Zm.91233,2.62663a.94452.94452,0,0,0-.9549-.954.936.936,0,0,0-.67831.27659.9115.9115,0,0,0-.28267.67744v6.07175a.91518.91518,0,0,0,.28267.67454.93174.93174,0,0,0,.67831.27949.94933.94933,0,0,0,.9549-.954Z"/><path class="cls-1" d="M190.67713,75.242a2.53328,2.53328,0,0,1,2.04941.77243,2.791,2.791,0,0,1,.57809,1.87331v1.61178a2.58042,2.58042,0,0,1-.89263,1.98887l1.239,4.84749h-1.8038l-1.02007-4.19061c-.04866.004-.09905.00608-.15176.00608h-.95925v4.18453h-1.67289V75.242Zm.99748,2.67615a.8483.8483,0,0,0-.9523-.96706h-1.00616V80.497h1.00616a.90786.90786,0,0,0,.676-.28268.93681.93681,0,0,0,.27631-.67831Z"/><path class="cls-1" d="M195.58516,86.33585V75.242h4.762v1.6726h-3.08974v3.04108h2.25619v1.6726h-2.25619v3.035h3.08974v1.67259Z"/><path class="cls-1" d="M210.819,83.58063a3.10946,3.10946,0,0,1-.60243,1.98279,2.13877,2.13877,0,0,1-1.14924.7846,3.07394,3.07394,0,0,1-.93028.12772,2.62884,2.62884,0,0,1-1.63-.48657,2.77309,2.77309,0,0,1-.8515-1.08581,4.26522,4.26522,0,0,1-.36493-1.57818l1.58716-.10948a2.40862,2.40862,0,0,0,.51669,1.3989.8478.8478,0,0,0,.68758.31019,1.04239,1.04239,0,0,0,.87583-.53523,1.34446,1.34446,0,0,0,.1703-.736A2.051,2.051,0,0,0,208.502,82.273q-.4996-.46833-1.49042-1.405a6.15973,6.15973,0,0,1-1.17415-1.44148,3.34014,3.34014,0,0,1-.37073-1.557,2.70927,2.70927,0,0,1,1.016-2.293,2.525,2.525,0,0,1,1.557-.46833,2.82433,2.82433,0,0,1,1.53271.40142,2.31115,2.31115,0,0,1,.79648.86657,3.28027,3.28027,0,0,1,.3713,1.28044l-1.6057.29195a1.8822,1.8822,0,0,0-.38926-1.0583.81236.81236,0,0,0-.66324-.27978.76965.76965,0,0,0-.69916.4075,1.56948,1.56948,0,0,0-.19463.815,2.45018,2.45018,0,0,0,.65687,1.551,5.84725,5.84725,0,0,0,.74145.70553q.58389.48657.77272.6812a5.88783,5.88783,0,0,1,.95462,1.22252,4.48027,4.48027,0,0,1,.256.52307A3.11977,3.11977,0,0,1,210.819,83.58063Z"/><path class="cls-1" d="M212.70445,86.33585V75.242h4.762v1.6726h-3.08974v3.04108h2.2562v1.6726h-2.2562v3.035h3.08974v1.67259Z"/><path class="cls-1" d="M223.67553,86.33585h-4.56105V75.242h1.67231v9.43345h2.88874Z"/><path class="cls-1" d="M226.99,86.33585h-1.67231V75.242h4.762v1.6726H226.99v3.04108h2.2562v1.6726H226.99Z"/><path class="cls-1" d="M231.67272,80.56329h4.48V82.0876h-4.48Z"/><path class="cls-1" d="M240.35575,86.47574A2.63686,2.63686,0,0,1,237.70392,83.83V77.75391a2.64865,2.64865,0,1,1,5.29729,0V79.019H241.2675V77.72349a.96563.96563,0,0,0-.96678-.96706.91252.91252,0,0,0-.67483.283.93463.93463,0,0,0-.28036.68409v6.08826a.95624.95624,0,0,0,.95519.961.9364.9364,0,0,0,.6841-.27978.92082.92082,0,0,0,.28268-.6812V82.28513h1.73371V83.83a2.64269,2.64269,0,0,1-2.64546,2.64574Z"/><path class="cls-1" d="M246.60128,83.78742l-.4078,2.54843h-1.73892l1.8791-11.09388h2.30543l1.85478,11.09388H248.7422l-.395-2.54843Zm.87583-6.0031-.62038,4.37308h1.24076Z"/><path class="cls-1" d="M255.03638,75.242a2.53328,2.53328,0,0,1,2.04941.77243,2.791,2.791,0,0,1,.57809,1.87331v1.61178a2.58046,2.58046,0,0,1-.89263,1.98887l1.239,4.84749h-1.8038l-1.02007-4.19061c-.04866.004-.09905.00608-.15177.00608h-.95924v4.18453h-1.67231V75.242Zm.99748,2.67615a.84813.84813,0,0,0-.95172-.96706H254.0754V80.497h1.00674a.90968.90968,0,0,0,.676-.28268.93861.93861,0,0,0,.27573-.67831Z"/><path class="cls-1" d="M259.94441,86.33585V75.242h4.762v1.6726h-3.08974v3.04108h2.25619v1.6726h-2.25619v3.035h3.08974v1.67259Z"/><path class="cls-1" d="M266.355,84.66934h1.67231v1.6726H266.355Z"/></svg>