<svg id="Layer_1" data-name="Layer 1" xmlns="http://www.w3.org/2000/svg" width="161.7178" height="48.6377" viewBox="0 0 161.7178 48.6377"><defs><style>.cls-1{fill:#ac9655;}</style></defs><title>frame2</title><path class="cls-1" d="M8.8779,13.5938a5.01,5.01,0,0,1-.9658,3.1816A3.4854,3.4854,0,0,1,6.0654,18.04a5.0585,5.0585,0,0,1-1.4917.1983A4.2176,4.2176,0,0,1,1.96,17.457a4.3614,4.3614,0,0,1-1.3706-1.74A7.016,7.016,0,0,1,0,13.1963l2.5566-.1856a3.8808,3.8808,0,0,0,.8243,2.2559,1.3709,1.3709,0,0,0,1.1079.5,1.6642,1.6642,0,0,0,1.4062-.8672,2.1543,2.1543,0,0,0,.27-1.18,3.2783,3.2783,0,0,0-1.0084-2.2041q-.7953-.7528-2.3862-2.26A10.1887,10.1887,0,0,1,.8809,6.9375a5.3544,5.3544,0,0,1-.5967-2.502A4.3546,4.3546,0,0,1,1.9175.7529,4.062,4.062,0,0,1,4.4175,0,4.5463,4.5463,0,0,1,6.875.6387,3.6974,3.6974,0,0,1,8.1606,2.0312a5.1549,5.1549,0,0,1,.5894,2.06L6.1787,4.56a3.0965,3.0965,0,0,0-.625-1.7051A1.3126,1.3126,0,0,0,4.4888,2.415a1.2276,1.2276,0,0,0-1.1226.6534A2.5206,2.5206,0,0,0,3.0537,4.375,3.921,3.921,0,0,0,4.105,6.86,8.84,8.84,0,0,0,5.2983,7.9971q.9375.7808,1.2359,1.0937a9.1488,9.1488,0,0,1,1.5342,1.96,7.6092,7.6092,0,0,1,.4116.8379A4.8868,4.8868,0,0,1,8.8779,13.5938Z"/><path class="cls-1" d="M17.3921,18.0254H14.7075V.2275h2.6846Z"/><path class="cls-1" d="M26.4067.2129l3.5625,11.9707V.2129h2.6846V18.0254H29.7705L26.0771,6.6191V18.0254H23.3926V.2129Z"/><path class="cls-1" d="M42.8726,18.2529a4.2444,4.2444,0,0,1-4.2618-4.247V4.29a4.097,4.097,0,0,1,1.25-3.0185,4.2615,4.2615,0,0,1,6.0235.0068A4.13,4.13,0,0,1,47.12,4.29V6.3213H44.3354V4.2324a1.55,1.55,0,0,0-1.5478-1.5478,1.4686,1.4686,0,0,0-1.0869.4541,1.506,1.506,0,0,0-.4473,1.0937v9.7451a1.5271,1.5271,0,0,0,1.5342,1.5332,1.5023,1.5023,0,0,0,1.0937-.4472,1.4668,1.4668,0,0,0,.4541-1.086V11.52H47.12v2.4864a4.2444,4.2444,0,0,1-4.247,4.247Z"/><path class="cls-1" d="M52.9214,18.0254V.2129H60.564V2.9121H55.6069V7.77H59.229v2.6993H55.6069v4.8574H60.564v2.6992Z"/><path class="cls-1" d="M74.9038,13.9346l-.6523,4.0908H71.4556L74.4819.2275h3.6924l2.9839,17.7979H78.3345l-.628-4.0908Zm1.41-9.6309L75.32,11.3213h1.9883Z"/><path class="cls-1" d="M90.03.2129l3.5625,11.9707V.2129h2.6845V18.0254H93.3936L89.7012,6.6191V18.0254H87.0156V.2129Z"/><path class="cls-1" d="M106.4961,18.2529a4.2443,4.2443,0,0,1-4.2617-4.247V4.29a4.097,4.097,0,0,1,1.25-3.0185,4.2613,4.2613,0,0,1,6.0234.0068A4.13,4.13,0,0,1,110.7432,4.29V6.3213H107.959V4.2324a1.55,1.55,0,0,0-1.5479-1.5478,1.4687,1.4687,0,0,0-1.0869.4541,1.5063,1.5063,0,0,0-.4472,1.0937v9.7451a1.5269,1.5269,0,0,0,1.5341,1.5332,1.5025,1.5025,0,0,0,1.0938-.4472,1.4671,1.4671,0,0,0,.4541-1.086V11.52h2.7842v2.4864a4.2444,4.2444,0,0,1-4.2471,4.247Z"/><path class="cls-1" d="M119.23,18.0254h-2.6856V.2275H119.23Z"/><path class="cls-1" d="M125.2285,18.0254V.2129h7.6426V2.9121h-4.957V7.77h3.622v2.6993h-3.622v4.8574h4.957v2.6992Z"/><path class="cls-1" d="M141.3311.2129l3.5625,11.9707V.2129h2.6845V18.0254h-2.8838L141.002,6.6191V18.0254h-2.6856V.2129Z"/><path class="cls-1" d="M156.1924,2.9258h-2.8555V.2275h8.3809V2.9258H158.877v15.1h-2.6846Z"/><path class="cls-1" d="M52.09,33.3252H49.2349V30.627h8.3808v2.6982H54.7749v15.1H52.09Z"/><path class="cls-1" d="M66.06,48.4248H63.3745V30.627H66.06Z"/><path class="cls-1" d="M74.7456,48.4248H72.06V30.6123h3.8525l2.502,12.7959,2.4023-12.7959h3.7017V48.4248H81.834V37.2314l-2.33,11.1934H77.3452l-2.6-11.165Z"/><path class="cls-1" d="M90.5176,48.4248V30.6123H98.16v2.6992H93.2031v4.8574h3.6221v2.6993H93.2031v4.8574H98.16v2.6992Z"/><path class="cls-1" d="M112.4844,43.9932a5.0023,5.0023,0,0,1-.9658,3.1816,3.4826,3.4826,0,0,1-1.8467,1.2647,5.0571,5.0571,0,0,1-1.4912.1982,4.2152,4.2152,0,0,1-2.6133-.7813,4.3583,4.3583,0,0,1-1.3711-1.74,7.0412,7.0412,0,0,1-.59-2.52l2.5577-.1855a3.8808,3.8808,0,0,0,.8232,2.2558,1.3723,1.3723,0,0,0,1.1084.5,1.6642,1.6642,0,0,0,1.4063-.8672,2.155,2.155,0,0,0,.27-1.18,3.2771,3.2771,0,0,0-1.0088-2.2041q-.7954-.7529-2.3857-2.26a10.1911,10.1911,0,0,1-1.89-2.3184,5.36,5.36,0,0,1-.5967-2.5019,4.355,4.355,0,0,1,1.6338-3.6827,4.0635,4.0635,0,0,1,2.5-.7529,4.5455,4.5455,0,0,1,2.457.6387,3.7031,3.7031,0,0,1,1.2862,1.3926,5.1455,5.1455,0,0,1,.5888,2.06l-2.57.4688a3.1027,3.1027,0,0,0-.625-1.7051,1.3147,1.3147,0,0,0-1.0654-.4394,1.2273,1.2273,0,0,0-1.1221.6533,2.5109,2.5109,0,0,0-.3125,1.3066,3.9175,3.9175,0,0,0,1.0508,2.4854,8.8422,8.8422,0,0,0,1.1934,1.1367q.9375.7807,1.2353,1.0937a9.1013,9.1013,0,0,1,1.5342,1.96,7.62,7.62,0,0,1,.4121.8379A4.8635,4.8635,0,0,1,112.4844,43.9932Z"/></svg>