<?xml version="1.0" encoding="utf-8"?>
<!-- Generator: Adobe Illustrator 23.0.1, SVG Export Plug-In . SVG Version: 6.00 Build 0)  -->
<svg version="1.1" id="Content" xmlns="http://www.w3.org/2000/svg" xmlns:xlink="http://www.w3.org/1999/xlink" x="0px" y="0px"
	 viewBox="0 0 640 1136" style="enable-background:new 0 0 640 1136;" xml:space="preserve">
<style type="text/css">
	.st0{fill:url(#SVGID_1_);}
	.st1{fill:#FFFFFF;}
	.st2{fill:#B89344;}
</style>
<title>pine</title>
<linearGradient id="SVGID_1_" gradientUnits="userSpaceOnUse" x1="421.69" y1="356.255" x2="508.8" y2="356.255" gradientTransform="matrix(1 0 0 -1 0 1136)">
	<stop  offset="0" style="stop-color:#A68834"/>
	<stop  offset="0.49" style="stop-color:#C8AD67"/>
	<stop  offset="1" style="stop-color:#937F2E"/>
</linearGradient>
<polygon class="st0" points="500.1,809.9 456.5,825 421.7,794.8 430.4,749.6 474,734.5 508.8,764.7 "/>
<path class="st1" d="M479.7,793.4l-14.6-34.8l-14.4,34.8l13.7,2.7v3.9c0,0.4,0.5,0.8,0.9,0.7c0.4,0,0.7-0.3,0.7-0.7v-3.9
	L479.7,793.4z"/>
<path class="st2" d="M438.6,867.5v-16.6h7.2c3.9,0,5.8,1.6,5.8,4.8c0,3.3-1.9,5-5.8,5h-3.9v6.9L438.6,867.5z M441.9,857.5h4.6
	c1.3,0,2-0.6,2.1-1.8s-0.7-1.7-2-1.7H442L441.9,857.5z"/>
<path class="st2" d="M454.1,850.9h3.3v16.7h-3.3V850.9z"/>
<path class="st2" d="M460.8,867.5v-16.6h1.1l10.4,10.4v-10.4h3.3v16.6h-1.2l-10.3-10.3v10.3H460.8z"/>
<path class="st2" d="M479,867.5v-16.6h12.2v3.1h-8.9v3.5h6.6v3.1h-6.7v3.8h8.9v3.1L479,867.5z"/>
</svg>
