<svg id="Content" xmlns="http://www.w3.org/2000/svg" width="300" height="600" viewBox="0 0 300 600"><defs><style>.cls-1{fill:#ba9544;}</style></defs><title>Frame1 - Daytime CBD</title><path class="cls-1" d="M72.47119,368.92676H77.9165c3.44239,0,5.13233,1.90918,5.13233,5.415v11.07812c0,3.50488-1.68994,5.41406-5.13233,5.41406H72.47119Zm3.44238,3.12988v15.64844H77.854c1.09522,0,1.75245-.56446,1.75245-2.12891v-11.3916c0-1.56543-.65723-2.12793-1.75245-2.12793Z"/><path class="cls-1" d="M99.06885,390.834H95.59521l-.59472-3.9746h-4.2251l-.59424,3.9746H87.02l3.50537-21.90722H95.564Zm-7.855-6.94726h3.31738l-1.65869-11.0791Z"/><path class="cls-1" d="M104.07324,383.57324l-4.3501-14.64648h3.59913l2.6289,9.9834,2.62891-9.9834h3.28613l-4.3501,14.64648V390.834h-3.44287Z"/><path class="cls-1" d="M113.67871,368.92676h10.64063v3.12988h-3.59913V390.834h-3.44238V372.05664h-3.59912Z"/><path class="cls-1" d="M128.50977,368.92676h3.44238V390.834h-3.44238Z"/><path class="cls-1" d="M145.06348,384.48047l2.34716-15.55371h4.7876V390.834h-3.25439V375.12305L146.56543,390.834h-3.25488l-2.56592-15.49121V390.834h-3.0044V368.92676h4.78809Z"/><path class="cls-1" d="M161.457,378.15918h4.72559v3.12988H161.457v6.416h5.94629v3.1289h-9.38867V368.92676h9.38867v3.12988H161.457Z"/><path class="cls-1" d="M190.99609,382.666v2.91015c0,3.50586-1.75293,5.50781-5.13281,5.50781s-5.13281-2.002-5.13281-5.50781v-11.3916c0-3.50488,1.75293-5.50781,5.13281-5.50781s5.13281,2.00293,5.13281,5.50781v2.12793h-3.25488v-2.34766c0-1.56445-.68848-2.1582-1.78418-2.1582s-1.78418.59375-1.78418,2.1582v11.83008c0,1.56543.68848,2.12891,1.78418,2.12891s1.78418-.56348,1.78418-2.12891V382.666Z"/><path class="cls-1" d="M206.70312,373.96484v.78321c0,2.2539-.68847,3.69336-2.22265,4.41211,1.84668.7207,2.56641,2.3789,2.56641,4.69531v1.7832c0,3.38086-1.78418,5.19531-5.22657,5.19531h-5.41406V368.92676h5.19531C205.169,368.92676,206.70312,370.58594,206.70312,373.96484Zm-6.85449-1.9082v5.78906h1.34571c1.2832,0,2.06543-.5625,2.06543-2.31543v-1.21972c0-1.56543-.53125-2.25391-1.752-2.25391Zm0,8.91895v6.72949h1.97168c1.15821,0,1.78418-.5332,1.78418-2.16016v-1.90918c0-2.03418-.65722-2.66015-2.22168-2.66015Z"/><path class="cls-1" d="M212.42676,368.92676h5.44531c3.44238,0,5.13184,1.90918,5.13184,5.415v11.07812c0,3.50488-1.68946,5.41406-5.13184,5.41406h-5.44531Zm3.44238,3.12988v15.64844h1.94043c1.09473,0,1.75195-.56446,1.75195-2.12891v-11.3916c0-1.56543-.65722-2.12793-1.75195-2.12793Z"/></svg>