<svg id="Layer_1" data-name="Layer 1" xmlns="http://www.w3.org/2000/svg" width="728" height="90" viewBox="0 0 728 90"><defs><style>.cls-1{fill:#fff;}</style></defs><title>meditation</title><path class="cls-1" d="M335.62012,56.4378h-2.81983V37.73468h4.04l2.625,13.41211,2.52246-13.41211H345.874V56.4378H343.0542v-11.751l-2.437,11.751H338.354l-2.73388-11.7207Z"/><path class="cls-1" d="M353.64551,37.50909a4.47283,4.47283,0,0,1,4.481,4.48047V52.19269a4.47118,4.47118,0,0,1-4.481,4.48046,4.26556,4.26556,0,0,1-3.15283-1.3125,4.34044,4.34044,0,0,1-1.29737-3.168V41.98956a4.47293,4.47293,0,0,1,4.4502-4.48047Zm1.53808,4.42774a1.59316,1.59316,0,0,0-1.60986-1.6084,1.57637,1.57637,0,0,0-1.14355.46679,1.53641,1.53641,0,0,0-.47657,1.14161V52.17315a1.5432,1.5432,0,0,0,.47657,1.1377,1.57223,1.57223,0,0,0,1.14355.4707,1.59965,1.59965,0,0,0,1.60986-1.6084Z"/><path class="cls-1" d="M365.89844,37.73468a4.27057,4.27057,0,0,1,3.45508,1.30176,4.70525,4.70525,0,0,1,.9746,3.1582v2.71777a4.34936,4.34936,0,0,1-1.50488,3.35254l2.08887,8.17285h-3.041l-1.71972-7.06543c-.082.00684-.167.01075-.25586.01075h-1.61768V56.4378H361.458V37.73468Zm1.68164,4.51172a1.43051,1.43051,0,0,0-1.60547-1.63086h-1.69678v5.97851h1.69678a1.53061,1.53061,0,0,0,1.13965-.47656,1.57941,1.57941,0,0,0,.46582-1.14355Z"/><path class="cls-1" d="M374.17285,56.4378V37.73468h8.02832V40.554h-5.209v5.127h3.80371v2.82031h-3.80371v5.11621h5.209V56.4378Z"/><path class="cls-1" d="M393.35449,56.4378h-2.81933V37.73468h4.03906l2.625,13.41211,2.52344-13.41211h3.88574V56.4378h-2.81934v-11.751l-2.4375,11.751h-2.26269l-2.73438-11.7207Z"/><path class="cls-1" d="M406.98145,56.4378V37.73468h8.02832V40.554h-5.209v5.127h3.80371v2.82031h-3.80371v5.11621h5.209V56.4378Z"/><path class="cls-1" d="M426.64746,51.9671a4.323,4.323,0,0,1-1.30273,3.1582,4.24876,4.24876,0,0,1-3.127,1.3125h-4.42968V37.73468h4.42968a4.23618,4.23618,0,0,1,3.13672,1.3125,4.32772,4.32772,0,0,1,1.293,3.14746Zm-6.04,1.68164h1.69727a1.4963,1.4963,0,0,0,1.13379-.4873,1.612,1.612,0,0,0,.46093-1.14356V42.23565a1.56844,1.56844,0,0,0-.4707-1.14257,1.52286,1.52286,0,0,0-1.124-.47754h-1.69727Z"/><path class="cls-1" d="M432.77734,56.4378H429.958V37.73468h2.81933Z"/><path class="cls-1" d="M438.87891,40.554h-2.99414V37.73468h8.79687V40.554h-2.9834V56.4378h-2.81933Z"/><path class="cls-1" d="M448.84473,52.14093l-.6875,4.29687h-2.93164l3.168-18.70312h3.88672l3.127,18.70312H452.4541l-.666-4.29687Zm1.47656-10.12012-1.0459,7.37207h2.0918Z"/><path class="cls-1" d="M458.98633,40.554h-2.99414V37.73468h8.79687V40.554h-2.9834V56.4378h-2.81933Z"/><path class="cls-1" d="M470.71582,56.4378h-2.81934V37.73468h2.81934Z"/><path class="cls-1" d="M478.49609,37.50909a4.47285,4.47285,0,0,1,4.48145,4.48047V52.19269a4.47118,4.47118,0,0,1-4.48145,4.48046,4.26451,4.26451,0,0,1-3.15234-1.3125,4.34,4.34,0,0,1-1.29687-3.168V41.98956a4.47294,4.47294,0,0,1,4.44921-4.48047Zm1.53907,4.42774a1.594,1.594,0,0,0-1.61036-1.6084,1.57639,1.57639,0,0,0-1.14355.46679,1.53644,1.53644,0,0,0-.47656,1.14161V52.17315a1.54323,1.54323,0,0,0,.47656,1.1377,1.57224,1.57224,0,0,0,1.14355.4707,1.60049,1.60049,0,0,0,1.61036-1.6084Z"/><path class="cls-1" d="M489.457,37.73468l3.73242,12.56054V37.73468h2.82032V56.4378h-3.02051L489.1084,44.46124V56.4378h-2.81934V37.73468Z"/><path class="cls-1" d="M498.78711,53.62823h2.81934v2.81934h-2.81934Z"/></svg>