<svg id="Layer_1" data-name="Layer 1" xmlns="http://www.w3.org/2000/svg" width="728" height="90" viewBox="0 0 728 90"><defs><style>.cls-1{fill:#fff;}</style></defs><title>new-year</title><path class="cls-1" d="M233.69238,38.07443l3.73242,12.561v-12.561h2.81983V56.77756h-3.02051L233.34375,44.801V56.77756h-2.81982V38.07443Z"/><path class="cls-1" d="M243.60693,56.77756V38.07443h8.02881v2.81983h-5.209v5.127h3.8042V48.841h-3.8042v5.1167h5.209v2.81983Z"/><path class="cls-1" d="M266.001,38.07443h2.95312l-2.92236,18.70313h-2.707l-1.58936-10.20264-1.49707,10.20264H257.5415l-3.12744-18.70313h2.95313l1.47656,10.01807,1.35352-10.01807h2.95312L264.627,48.0925Z"/><path class="cls-1" d="M278.2832,48.94357l-3.77343-10.86914h3.09668l2.09716,6.71631,2.07618-6.71631H284.897L281.103,48.94357v7.834H278.2832Z"/><path class="cls-1" d="M287.98291,56.77756V38.07443h8.02881v2.81983h-5.209v5.127h3.8042V48.841h-3.8042v5.1167h5.209v2.81983Z"/><path class="cls-1" d="M302.40918,52.48117l-.687,4.29639h-2.93262L301.958,38.07443h3.88623l3.12744,18.70313h-2.95313l-.6665-4.29639Zm1.47656-10.1206-1.0459,7.37255h2.0918Z"/><path class="cls-1" d="M316.63037,38.07443a4.27184,4.27184,0,0,1,3.45557,1.30225,4.70514,4.70514,0,0,1,.97412,3.1582v2.71729a4.34875,4.34875,0,0,1-1.50488,3.353l2.08935,8.17237h-3.041l-1.72022-7.06494c-.082.00683-.167.01025-.25586.01025h-1.61719v7.05469h-2.81982V38.07443Zm1.68164,4.51172a1.43,1.43,0,0,0-1.605-1.63037h-1.69678v5.978H316.707a1.5321,1.5321,0,0,0,1.13965-.47657,1.58086,1.58086,0,0,0,.46533-1.14355Z"/><path class="cls-1" d="M324.42285,53.968h2.81983v2.81982h-2.81983Z"/></svg>