<svg id="Layer_1" data-name="Layer 1" xmlns="http://www.w3.org/2000/svg" xmlns:xlink="http://www.w3.org/1999/xlink" width="320" height="50" viewBox="0 0 320 50"><defs><style>.cls-1{fill:url(#linear-gradient);}.cls-2{fill:url(#linear-gradient-2);}.cls-3{fill:url(#linear-gradient-3);}.cls-4{fill:url(#linear-gradient-4);}.cls-5{fill:url(#linear-gradient-5);}.cls-6{fill:url(#linear-gradient-6);}.cls-7{fill:url(#linear-gradient-7);}.cls-8{fill:url(#linear-gradient-8);}.cls-9{fill:url(#New_Gradient_Swatch_2);}.cls-10{fill:#a89255;}</style><linearGradient id="linear-gradient" x1="17.14" y1="19.71" x2="44.83" y2="19.71" gradientUnits="userSpaceOnUse"><stop offset="0" stop-color="#a88a34"/><stop offset="0.49" stop-color="#caaf67"/><stop offset="1" stop-color="#957f2e"/></linearGradient><linearGradient id="linear-gradient-2" x1="45.25" y1="79.5" x2="45.25" y2="33.06" gradientUnits="userSpaceOnUse"><stop offset="0" stop-color="#a88a34"/><stop offset="0.5" stop-color="#caaf67"/><stop offset="1" stop-color="#957f2e"/></linearGradient><linearGradient id="linear-gradient-3" x1="32.39" y1="55.32" x2="32.39" y2="21.03" xlink:href="#linear-gradient-2"/><linearGradient id="linear-gradient-4" x1="36.74" y1="67.09" x2="36.74" y2="21.96" xlink:href="#linear-gradient-2"/><linearGradient id="linear-gradient-5" x1="40.99" y1="68.11" x2="40.99" y2="28.61" xlink:href="#linear-gradient-2"/><linearGradient id="linear-gradient-6" x1="17.08" y1="40.42" x2="17.08" y2="2.25" xlink:href="#linear-gradient-2"/><linearGradient id="linear-gradient-7" x1="27.22" y1="50.06" x2="27.22" y2="15.97" xlink:href="#linear-gradient-2"/><linearGradient id="linear-gradient-8" x1="22.04" y1="44.97" x2="22.04" y2="10.68" xlink:href="#linear-gradient-2"/><linearGradient id="New_Gradient_Swatch_2" x1="47.09" y1="32.96" x2="49" y2="32.96" gradientUnits="userSpaceOnUse"><stop offset="0" stop-color="#a88a34"/><stop offset="0.19" stop-color="#caaf67"/><stop offset="0.46" stop-color="#a08a4a"/><stop offset="0.76" stop-color="#caaf67"/><stop offset="1" stop-color="#957f2e"/></linearGradient></defs><title>logo</title><path class="cls-1" d="M29.3,29c.3-.09.85.42.89.42a.68.68,0,0,0,.18-.42c0-.18-.13-.53-.16-.75a3.87,3.87,0,0,0-.12-.61c-.05-.14-.38-.2-.55-.31A2.31,2.31,0,0,1,29.1,27a1.28,1.28,0,0,1-.19-.64,2.78,2.78,0,0,0-.11-.65c-.06-.11-.21-.19-.32-.3a.44.44,0,0,1-.11-.28c.08,0,.11.18.2.2s.09.1.24.15.15.12.17.26.18.6.24.78.11.34.29.34.17.11.38.09a1.25,1.25,0,0,1,.53.1c.12,0,.27.05.32,0s0-.41,0-.41-.09-.11-.11-.2,0-.1,0-.1a.44.44,0,0,1,.39-.53.43.43,0,0,1,.38.53s.05,0,0,.1,0,.2-.12.2-.09.33,0,.41.2.08.32,0a1.25,1.25,0,0,1,.53-.1c.22,0,.19-.08.38-.09s.24-.15.3-.34.22-.65.24-.78,0-.21.17-.26.14-.13.23-.15.12-.23.2-.2a.44.44,0,0,1-.11.28c-.1.11-.26.19-.32.3a2.78,2.78,0,0,0-.11.65,1.4,1.4,0,0,1-.18.64,3.22,3.22,0,0,1-.44.31c-.18.11-.51.17-.55.31a2.94,2.94,0,0,0-.13.61c0,.22-.15.57-.15.75a.63.63,0,0,0,.18.42s.58-.51.88-.42.18.51-.13.82a1.36,1.36,0,0,1-.65.4,4,4,0,0,1,.49.09,5.29,5.29,0,0,1,1.41.8,4.69,4.69,0,0,0,1.25.73.35.35,0,0,0,.12,0,2.66,2.66,0,0,1,.27-.17A4,4,0,0,0,36,32l-1.44-1.11,2.86,1.24.14.05,1.72,0c.46,0,.9,0,1.32-.05-.33-.2-.7-.41-1.09-.6L38,30.78l-.15,0-3.31-.19,2.15-.38-1.39-.45,2.38,0a8,8,0,0,0,1.62-.17L37,29.12l3.3-.15a3.18,3.18,0,0,0,.55-.07l-.25,0,2.18-1a19.72,19.72,0,0,0,2-1.11,21.53,21.53,0,0,0-2.35-.14H40l.28-.09a3,3,0,0,0-.59.18L36.81,28l1.75-1.3h0l0-.3-.31-.52a10.64,10.64,0,0,0,2.37-2.46L38.23,24.5l2.38-2a3.77,3.77,0,0,0,.75-.82c.31-.46.59-.94.85-1.42l-.74.73.89-1.92a25.66,25.66,0,0,0,1.3-3.61,31.38,31.38,0,0,0-3.5,2.25L38.43,19l.56-.86c-.45.39-.88.79-1.3,1.2a3.72,3.72,0,0,0-.63.9l-1.27,2.41.45-2.2a11.45,11.45,0,0,0-1,1.19L35,22l-.2-.14,0,0-1.73,3.29,1-3.57a11.48,11.48,0,0,0,.34-4.49l-1.2,2.22.58-2.67a4.14,4.14,0,0,0,.09-1.33,20.58,20.58,0,0,0-.46-2.7L33.28,14l-.52-1.92A33.17,33.17,0,0,0,31,7.26a31,31,0,0,0-1.77,4.79L28.7,14l-.16-1.32a22.39,22.39,0,0,0-.46,2.7,4.45,4.45,0,0,0,.09,1.33l.58,2.67-1.19-2.22a11.3,11.3,0,0,0,.34,4.49l1,3.57L27.18,21.9l0,0L27,22l-.22-.31a10.33,10.33,0,0,0-1-1.19l.45,2.2-1.26-2.41a4.12,4.12,0,0,0-.64-.9c-.41-.41-.84-.81-1.29-1.19l.55.86-1.73-1.32a30.48,30.48,0,0,0-3.5-2.25,24.57,24.57,0,0,0,1.31,3.61L20.5,21l-.74-.73c.26.48.55,1,.85,1.42a4.11,4.11,0,0,0,.76.82l2.37,2-2.33-1.12a10.48,10.48,0,0,0,2.38,2.46l-.32.52,0,.3h0L25.16,28l-2.88-1.2a2.67,2.67,0,0,0-.58-.18l.27.09H19.5a21.72,21.72,0,0,0-2.36.14,19.92,19.92,0,0,0,2,1.11l2.17,1-.25,0a3.18,3.18,0,0,0,.55.07l3.3.15-2.25.43a8.2,8.2,0,0,0,1.63.17l2.38,0-1.39.45,2.14.38-3.3.19-.16,0-1.51.74c-.39.19-.75.4-1.09.6.42,0,.87.05,1.32.05l1.73,0,.14-.05,2.85-1.24L26,32a3.64,3.64,0,0,0,.57-.25,2.73,2.73,0,0,1,.26.17l.13,0a4.85,4.85,0,0,0,1.25-.73,5.25,5.25,0,0,1,1.4-.8,4.37,4.37,0,0,1,.49-.09,1.41,1.41,0,0,1-.65-.4C29.12,29.51,29,29.08,29.3,29Z"/><polygon class="cls-2" points="46.91 34.83 46.91 33.99 43.6 33.99 43.6 38.5 46.9 38.5 46.9 37.65 44.5 37.65 44.5 36.63 46.3 36.63 46.3 35.79 44.5 35.79 44.5 34.83 46.91 34.83"/><path class="cls-3" d="M31.94,34l-1.8,4.51h1l.27-.7h2l.27.7h1L32.84,34Zm-.21,2.91.68-1.71.67,1.71Z"/><path class="cls-4" d="M38,36.17a2.22,2.22,0,0,0-1-.38,1.19,1.19,0,0,1-.69-.27.34.34,0,0,1,0-.43c.1-.17.33-.26.69-.26a1,1,0,0,1,.85.36l.6-.6a2.11,2.11,0,0,0-.65-.45,2.49,2.49,0,0,0-1-.15,1.85,1.85,0,0,0-1.06.36,1.12,1.12,0,0,0-.51,1,1,1,0,0,0,.45.93,2.42,2.42,0,0,0,1,.33c.4,0,.65.15.75.32a.47.47,0,0,1,0,.51c-.1.17-.35.25-.75.25a1.43,1.43,0,0,1-1-.42l-.6.6a2.29,2.29,0,0,0,.72.49,2.67,2.67,0,0,0,1,.18A1.83,1.83,0,0,0,38,38.11a1.19,1.19,0,0,0,.5-.94A1.12,1.12,0,0,0,38,36.17Z"/><polygon class="cls-5" points="39.03 34.83 40.53 34.83 40.53 38.5 41.44 38.5 41.44 34.83 42.94 34.83 42.94 33.99 39.03 33.99 39.03 34.83"/><polygon class="cls-6" points="18.19 36.81 15.37 33.99 15.07 33.99 15.07 38.5 15.97 38.5 15.97 35.7 18.76 38.5 19.09 38.5 19.09 33.99 18.19 33.99 18.19 36.81"/><polygon class="cls-7" points="27.22 36.21 25.27 33.99 24.96 33.99 24.96 38.5 25.87 38.5 25.87 35.88 27.22 37.38 28.57 35.88 28.57 38.5 29.47 38.5 29.47 33.99 29.17 33.99 27.22 36.21"/><path class="cls-8" d="M21.59,34l-1.8,4.51h1l.27-.7h2l.27.7h1L22.49,34Zm-.21,2.91.69-1.71.66,1.71Z"/><path class="cls-9" d="M47.55,32.63v.81h-.16v-.81h-.3v-.15h.77v.15Zm1.3.81v-.72l-.3.62h-.11l-.3-.62v.72H48v-1h.19l.32.64.31-.64H49v1Z"/><path class="cls-10" d="M22.65,41.73a.64.64,0,0,1-.37,1.18H21V40.67h1.19q.57,0,.6.66A.48.48,0,0,1,22.65,41.73Zm-1.18-.16h.63a.26.26,0,0,0,.28-.28q0-.16-.27-.18h-.64Zm0,1h.74c.21,0,.31-.11.32-.33s-.11-.21-.32-.22h-.74Z"/><path class="cls-10" d="M23.28,40.67h.52l.52.73.53-.73h.52l-.83,1.12v1.12H24.1V41.79Z"/><path class="cls-10" d="M28.5,42.91H26.7v-.15l1-1.67h-1v-.42h1.8v.16l-1.05,1.66H28.5Z"/><path class="cls-10" d="M29.06,42.91V40.67h1.65v.42h-1.2v.47h.9V42h-.9v.51H30.7v.42Z"/><path class="cls-10" d="M31.16,42.91V40.67h.15l1.4,1.4v-1.4h.45v2.24H33L31.6,41.52v1.39Z"/><path class="cls-10" d="M33.5,42.91l.9-2.24h.45l.89,2.24h-.48l-.13-.35h-1l-.13.35Zm1.13-1.64-.34.85H35Z"/><path class="cls-10" d="M37.66,41.73a.66.66,0,0,1,.32.51.64.64,0,0,1-.68.67H36V40.67h1.19c.38,0,.57.24.6.66A.49.49,0,0,1,37.66,41.73Zm-1.17-.16h.63a.25.25,0,0,0,.27-.28q0-.16-.27-.18h-.63Zm0,1h.73a.29.29,0,0,0,.32-.33c0-.14-.11-.21-.31-.22h-.74Z"/><path class="cls-10" d="M38.42,40.67h.45v2.24h-.45Z"/><path class="cls-10" d="M40.53,40.74a1.12,1.12,0,0,1,.32.23l-.3.3a.52.52,0,0,0-.42-.18c-.17,0-.29,0-.34.12a.18.18,0,0,0,0,.22.61.61,0,0,0,.34.13,1.17,1.17,0,0,1,.52.19.57.57,0,0,1,.23.5.56.56,0,0,1-.25.46.88.88,0,0,1-.57.2,1.31,1.31,0,0,1-.52-.09,1.13,1.13,0,0,1-.36-.24l.3-.3a.71.71,0,0,0,.51.21c.19,0,.32,0,.37-.13a.23.23,0,0,0,0-.25c0-.09-.18-.14-.37-.16a1.23,1.23,0,0,1-.5-.16.5.5,0,0,1-.22-.46.56.56,0,0,1,.25-.48.91.91,0,0,1,.53-.18A1.25,1.25,0,0,1,40.53,40.74Z"/><rect class="cls-10" x="15.07" y="41.76" width="4.03" height="0.49"/><rect class="cls-10" x="42.88" y="41.76" width="4.03" height="0.49"/></svg>