<svg id="Layer_1" data-name="Layer 1" xmlns="http://www.w3.org/2000/svg" width="728" height="90" viewBox="0 0 728 90"><defs><style>.cls-1{fill:#ab9555;}</style></defs><title>frame3</title><path class="cls-1" d="M271.88444,60.05512V31.93037h6.33641a8.08138,8.08138,0,0,1,4.53327,1.32606,6.17263,6.17263,0,0,1,2.46708,3.47024,9.88919,9.88919,0,0,1,.4009,2.98952,6.65251,6.65251,0,0,1-1.49476,4.53508,4.45465,4.45465,0,0,1-1.48025,1.09386,4.9384,4.9384,0,0,1,2.38908,2.12786,8.06819,8.06819,0,0,1,.97232,2.77547,11.50843,11.50843,0,0,1,.1542,1.95916,9.44485,9.44485,0,0,1-1.00316,4.53145,6.50494,6.50494,0,0,1-5.42759,3.31605Zm4.56411-16.6383h1.7723a2.60418,2.60418,0,0,0,2.65212-1.9265,5.528,5.528,0,0,0,.24671-1.77413,3.72593,3.72593,0,0,0-.84716-2.65211,2.69148,2.69148,0,0,0-2.05167-.83083h-1.7723Zm0,12.44426h1.7723a3.01475,3.01475,0,0,0,2.99134-2.22038,4.78666,4.78666,0,0,0,.29388-1.74147,5.28688,5.28688,0,0,0-.91065-3.4394,2.87611,2.87611,0,0,0-2.37457-.98684h-1.7723Z"/><path class="cls-1" d="M299.48177,31.93037q3.54824,0,5.1972,1.95915a7.07283,7.07283,0,0,1,1.46392,4.74914v4.0852a6.547,6.547,0,0,1-2.2621,5.043l3.14191,12.28825h-4.57318l-2.58681-10.623c-.12335.00907-.25215.01451-.38457.01451h-2.43262V60.05512h-4.23939V31.93037Zm2.52876,6.78448a2.15033,2.15033,0,0,0-2.41267-2.45257h-2.55234v8.99034h2.55234a2.30492,2.30492,0,0,0,1.71426-.71654,2.37768,2.37768,0,0,0,.69841-1.71971Z"/><path class="cls-1" d="M314.982,60.05512V31.93037h12.0742v4.2412h-7.833v7.70964h5.71964V48.1206H319.2232v7.69331h7.833v4.24121Z"/><path class="cls-1" d="M341.09679,53.59354l-1.03218,6.46158H335.6547l4.76365-28.12475h5.84481l4.702,28.12475h-4.44075L345.523,53.59354Zm2.22038-15.21792L341.7444,49.46117h3.14553Z"/><path class="cls-1" d="M360.76634,36.17157h-4.50243v-4.2412h13.22974v4.2412h-4.4861V60.05512h-4.24121Z"/><path class="cls-1" d="M380.10075,48.15144V60.05512h-4.24121V31.93037h4.24121V43.88121h5.08655V31.93037h4.2412V60.05512h-4.2412V48.15144Z"/><path class="cls-1" d="M397.57464,60.05512V31.93037H409.647v4.2412h-7.833v7.70964h5.71964V48.1206H401.814v7.69331h7.833v4.24121Z"/><path class="cls-1" d="M429.72042,60.05512H425.481V31.93037h4.23939Z"/><path class="cls-1" d="M441.23636,31.93037l5.61261,18.8877V31.93037h4.24121V60.05512h-4.54234L440.7121,42.04541V60.05512h-4.23939V31.93037Z"/><path class="cls-1" d="M458.32386,55.83024h4.23939v4.23939h-4.23939Z"/></svg>