<svg id="Content" xmlns="http://www.w3.org/2000/svg" xmlns:xlink="http://www.w3.org/1999/xlink" width="320" height="568" viewBox="0 0 320 568"><defs><style>.cls-1{stroke:#fff;stroke-miterlimit:10;stroke-width:1.1px;fill:url(#New_Gradient_Swatch_2);}.cls-2{fill:#fff;}.cls-3{fill:url(#New_Gradient_Swatch_1);}.cls-4{fill:url(#linear-gradient);}.cls-5{fill:url(#linear-gradient-2);}.cls-6{fill:url(#linear-gradient-3);}.cls-7{fill:url(#linear-gradient-4);}.cls-8{fill:url(#linear-gradient-5);}.cls-9{fill:url(#linear-gradient-6);}.cls-10{fill:url(#linear-gradient-7);}.cls-11{fill:url(#New_Gradient_Swatch_2-2);}.cls-12{fill:#a89255;}</style><linearGradient id="New_Gradient_Swatch_2" x1="76.35935" y1="496.65285" x2="242.64035" y2="496.65285" gradientUnits="userSpaceOnUse"><stop offset="0" stop-color="#a88a34"/><stop offset="0.1878" stop-color="#caaf67"/><stop offset="0.46098" stop-color="#a08a4a"/><stop offset="0.76341" stop-color="#caaf67"/><stop offset="1" stop-color="#957f2e"/></linearGradient><linearGradient id="New_Gradient_Swatch_1" x1="218.84559" y1="48.62841" x2="293.73751" y2="48.62841" gradientUnits="userSpaceOnUse"><stop offset="0" stop-color="#a88a34"/><stop offset="0.49324" stop-color="#caaf67"/><stop offset="1" stop-color="#957f2e"/></linearGradient><linearGradient id="linear-gradient" x1="294.8737" y1="210.32951" x2="294.8737" y2="84.71499" gradientUnits="userSpaceOnUse"><stop offset="0" stop-color="#a88a34"/><stop offset="0.49894" stop-color="#caaf67"/><stop offset="1" stop-color="#957f2e"/></linearGradient><linearGradient id="linear-gradient-2" x1="260.07786" y1="144.93539" x2="260.07786" y2="52.18528" xlink:href="#linear-gradient"/><linearGradient id="linear-gradient-3" x1="271.86345" y1="176.74673" x2="271.86345" y2="54.68787" xlink:href="#linear-gradient"/><linearGradient id="linear-gradient-4" x1="283.33615" y1="179.52748" x2="283.33615" y2="72.68647" xlink:href="#linear-gradient"/><linearGradient id="linear-gradient-5" x1="218.67639" y1="104.62553" x2="218.67639" y2="1.39559" xlink:href="#linear-gradient"/><linearGradient id="linear-gradient-6" x1="246.10279" y1="130.70439" x2="246.10279" y2="38.49471" xlink:href="#linear-gradient"/><linearGradient id="linear-gradient-7" x1="232.09491" y1="116.93371" x2="232.09491" y2="24.18391" xlink:href="#linear-gradient"/><linearGradient id="New_Gradient_Swatch_2-2" x1="299.8388" y1="84.45975" x2="304.99808" y2="84.45975" xlink:href="#New_Gradient_Swatch_2"/></defs><title>CTA2</title><polygon class="cls-1" points="231.036 479.247 215.523 479.247 103.477 479.247 87.963 479.247 76.359 496.651 87.963 514.059 103.477 514.059 215.523 514.059 231.036 514.059 242.64 496.655 231.036 479.247"/><path class="cls-2" d="M110.83154,491.25488v8.72852h5.72315v2.00293h-7.86963V491.25488Z"/><path class="cls-2" d="M118.293,501.98633V491.2627l7.8833-.00782v2.00391H120.439v2.28906h4.29932v1.9961H120.439v2.43945h5.72315v2.00293Z"/><path class="cls-2" d="M127.772,501.98633l4.29248-10.73145h2.146l4.28516,10.72461-2.28223.00684-.64356-1.64551h-4.86474l-.644,1.64551Zm5.42237-7.86914-1.63086,4.07715h3.21923Z"/><path class="cls-2" d="M146.55811,497.30762l2.67578,4.67871H146.773l-2.56836-4.43555h-1.96v4.43555h-2.14649V491.25488h4.67872q3.75585,0,3.75585,3.09082A2.77558,2.77558,0,0,1,146.55811,497.30762Zm-4.31348-1.75977H145.249q1.29492-.022,1.33057-1.18066-.0359-1.05909-1.30908-1.10157h-3.02588Z"/><path class="cls-2" d="M150.34961,501.98633V491.25488h.71533l6.7251,6.72559v-6.72559h2.14648v10.73145h-.78711l-6.65332-6.65332v6.65332Z"/><path class="cls-2" d="M167.169,501.98633V491.25488h.71582l4.64941,5.29395,4.65723-5.29395h.71582v10.73145h-2.14649l-.00683-6.22363-3.21973,3.57617-3.21875-3.57617v6.22363Z"/><path class="cls-2" d="M181.04,500.44434a5.52665,5.52665,0,1,1,3.82812,1.542A5.19656,5.19656,0,0,1,181.04,500.44434Zm3.835-.46094a3.01345,3.01345,0,0,0,2.31738-.96582,3.65741,3.65741,0,0,0,0-4.793,3.28064,3.28064,0,0,0-4.64941,0,3.65741,3.65741,0,0,0,0,4.793A3.03071,3.03071,0,0,0,184.875,499.9834Z"/><path class="cls-2" d="M198.28809,497.30762l2.67578,4.67871h-2.46094l-2.56836-4.43555h-1.96v4.43555h-2.14649V491.25488h4.67872q3.75585,0,3.75586,3.09082A2.77559,2.77559,0,0,1,198.28809,497.30762Zm-4.31348-1.75977h3.00488q1.29347-.022,1.33008-1.18066-.03516-1.05909-1.30859-1.10157h-3.02637Z"/><path class="cls-2" d="M202.05176,501.98633V491.2627l7.88379-.00782v2.00391h-5.73828v2.28906h4.2998v1.9961h-4.2998v2.43945h5.72363v2.00293Z"/><path class="cls-3" d="M251.73881,73.728c.81389-.24,2.29022,1.14,2.38616,1.14a1.76114,1.76114,0,0,0,.49217-1.13655c0-.48725-.34778-1.435-.413-2.00854a9.55373,9.55373,0,0,0-.34689-1.66164c-.127-.37763-1.00951-.54222-1.48308-.83444a7.736,7.736,0,0,1-1.195-.82727,3.77993,3.77993,0,0,1-.508-1.73366,6.81584,6.81584,0,0,0-.28505-1.76476c-.16489-.309-.58877-.52729-.87542-.814a1.23246,1.23246,0,0,1-.2953-.75863c.21984-.06864.28849.4978.54251.54595s.2369.2574.635.39468c.39841.13723.41209.32634.46362.69715s.4978,1.62375.64533,2.13522c.14783.51177.30211.89651.80707.91356.50461.01712.436.278,1.02971.23016a3.3246,3.3246,0,0,1,1.425.27445c.31922.11336.72107.12361.8583-.09932.13729-.22328-.09624-1.12293-.09624-1.12293-.20587,0-.2404-.27789-.31923-.53534-.07889-.25775.04809-.27825.04809-.27825a1.08808,1.08808,0,1,1,2.0738,0s.127.0205.04809.27825c-.07918.25745-.11336.53534-.31952.53534,0,0-.23323.89965-.096,1.12293.13723.22293.53908.21268.85831.09932a3.324,3.324,0,0,1,1.42474-.27445c.594.04779.52539-.213,1.03-.23016.505-.017.6593-.40179.80678-.91356.14783-.51147.594-1.76446.64562-2.13522s.06521-.55992.46362-.69715c.39812-.13728.381-.34653.635-.39468s.323-.61459.54252-.54595a1.2345,1.2345,0,0,1-.29531.75863c-.28665.28666-.71053.505-.87542.814a6.81584,6.81584,0,0,0-.28505,1.76476,3.77981,3.77981,0,0,1-.508,1.73366,7.739,7.739,0,0,1-1.195.82727c-.47387.29222-1.3561.45681-1.48308.83444a9.51486,9.51486,0,0,0-.34689,1.66164c-.0652.57355-.413,1.52129-.413,2.00854a1.76114,1.76114,0,0,0,.49217,1.13655c.096,0,1.57257-1.38,2.38616-1.14.81359.2407.49092,1.38033-.3537,2.22465a3.61728,3.61728,0,0,1-1.74989,1.09124,9.47665,9.47665,0,0,1,1.3285.2484,14.22116,14.22116,0,0,1,3.79467,2.16536,13.78748,13.78748,0,0,0,3.38359,1.97561,2.887,2.887,0,0,0,.32734.07178c.11614-.09725.72475-.44846.72475-.44846a13.61561,13.61561,0,0,0,1.5291.65433l-3.89631-3.00442,7.72332,3.36215c.127.055.25461.1056.38165.1509l4.6682.08322c1.22539.02238,2.43556-.03133,3.559-.11828-.90545-.55868-1.88618-1.11641-2.93732-1.63031l-4.0959-2.003c-.13634-.01736-.27575-.03044-.41736-.03879l-8.92816-.5363,5.80137-1.00832-3.76085-1.22409,6.43639-.04222a21.84882,21.84882,0,0,0,4.3941-.48323l-6.0834-1.15858,8.91542-.39593a8.749,8.749,0,0,0,1.49244-.19035l-.677.082,5.884-2.76065a52.57537,52.57537,0,0,0,5.44922-2.99542,57.50012,57.50012,0,0,0-6.37368-.386l-6.68763.01522.745-.24377a8.37668,8.37668,0,0,0-1.57814.48689l-7.80185,3.25163,4.72138-3.51773-.036.00592-.10779-.81116-.858-1.41509a28.26961,28.26961,0,0,0,6.4287-6.63669l-6.30787,3.01993,6.42709-5.353a10.58535,10.58535,0,0,0,2.04081-2.21257c.82881-1.25269,1.59834-2.53612,2.30017-3.83542l-1.99213,1.96726,2.388-5.19461a68.60161,68.60161,0,0,0,3.53325-9.76875,83.15707,83.15707,0,0,0-9.46811,6.10011l-4.67543,3.5432,1.49119-2.32373c-1.20951,1.02852-2.379,2.11413-3.495,3.24476a10.244,10.244,0,0,0-1.72094,2.41163l-3.415,6.54045,1.213-5.96969a28.22358,28.22358,0,0,0-2.70539,3.23575l-.59528.83035-.54559-.37448a1.55721,1.55721,0,0,0-.08446.1419l-4.69059,8.89493,2.76622-9.66783a30.68926,30.68926,0,0,0,.91759-12.13258l-3.23014,6.00328,1.56446-7.2218a11.75693,11.75693,0,0,0,.24437-3.60373,58.18035,58.18035,0,0,0-1.2412-7.29037l-.42572,3.54468-1.40235-5.16783A87.93174,87.93174,0,0,0,256.29158,14.949a87.84168,87.84168,0,0,0-4.78878,12.96139l-1.40206,5.16783-.426-3.54468a58.23515,58.23515,0,0,0-1.2412,7.29037,11.76319,11.76319,0,0,0,.24437,3.604l1.56262,7.224-3.22829-6.00481a30.68444,30.68444,0,0,0,.91758,12.13163l2.76657,9.66842-4.69094-8.89552a1.49131,1.49131,0,0,0-.08446-.1419l-.54559.37448-.59528-.83035a28.22666,28.22666,0,0,0-2.70539-3.23575l1.21325,5.96969-3.41527-6.54045a10.25013,10.25013,0,0,0-1.72064-2.41163c-1.11386-1.1285-2.2818-2.21257-3.49007-3.23979l1.49457,2.32557-4.68407-3.55a83.1182,83.1182,0,0,0-9.46812-6.10011,68.58938,68.58938,0,0,0,3.53319,9.76875l2.388,5.19461-1.99213-1.96726c.70183,1.2993,1.47165,2.58273,2.30046,3.83542a10.5756,10.5756,0,0,0,2.04052,2.21257l6.4271,5.353-6.30788-3.01993a28.26269,28.26269,0,0,0,6.4287,6.63669l-.858,1.41509-.10779.81116-.03631-.00592,4.722,3.518-7.80215-3.25193a8.42752,8.42752,0,0,0-1.57749-.48689l.74465.24377-6.688-.01522a57.50465,57.50465,0,0,0-6.37368.386,52.57537,52.57537,0,0,0,5.44922,2.99542l5.884,2.76035-.67666-.082a8.71094,8.71094,0,0,0,1.49214.19065l8.91537.39593-6.08329,1.15858a21.85061,21.85061,0,0,0,4.394.48323l6.45345.04222L240.9,76.96842l5.79794,1.00767-8.92839.5363q-.21294.01253-.41772.03879l-4.09655,2.003c-1.05049.5139-2.03116,1.07163-2.93667,1.63031,1.12382.087,2.33363.14031,3.559.11828l4.66826-.08322c.127-.0453.25461-.09594.38195-.1509l7.723-3.36215-3.89631,3.00442a13.61561,13.61561,0,0,0,1.5291-.65433s.608.35062.72416.4481a2.84785,2.84785,0,0,0,.32758-.07142,13.78234,13.78234,0,0,0,3.38394-1.97561,14.223,14.223,0,0,1,3.79467-2.16536,9.475,9.475,0,0,1,1.3285-.2484,3.61728,3.61728,0,0,1-1.74989-1.09124C251.24789,75.10831,250.92493,73.96868,251.73881,73.728Z"/><polygon class="cls-4" points="299.351 89.511 299.351 87.236 290.397 87.244 290.397 99.423 299.335 99.423 299.335 97.148 292.835 97.148 292.835 94.378 297.718 94.378 297.718 92.111 292.835 92.111 292.835 89.511 299.351 89.511"/><path class="cls-5" d="M258.86318,87.23574l-4.875,12.18745h2.59973l.73131-1.86873h5.525l.73131,1.86873,2.592-.00832-4.86669-12.17913Zm-.56859,7.88132,1.85266-4.63159,1.80354,4.63159Z"/><path class="cls-6" d="M275.2354,93.12635a6.04371,6.04371,0,0,0-2.80316-1.01545,3.2126,3.2126,0,0,1-1.86881-.73159.95091.95091,0,0,1,0-1.17821q.40661-.69024,1.86881-.69028a2.79885,2.79885,0,0,1,2.27528.97477l1.62467-1.62507a5.68563,5.68563,0,0,0-1.74672-1.2188,6.802,6.802,0,0,0-2.63272-.40618,4.87838,4.87838,0,0,0-2.84761.97907,3.03255,3.03255,0,0,0-1.3853,2.59607,2.69678,2.69678,0,0,0,1.2186,2.51874,6.54935,6.54935,0,0,0,2.68143.89372q1.62468.16259,2.02715.853a1.28761,1.28761,0,0,1,0,1.38157q-.402.6903-2.02715.69028a3.85991,3.85991,0,0,1-2.76253-1.13742L267.232,97.63588a6.15,6.15,0,0,0,1.95015,1.29994,7.21732,7.21732,0,0,0,2.83579.48721A4.92171,4.92171,0,0,0,275.15,98.36691a3.12395,3.12395,0,0,0,1.34491-2.5187A3.05057,3.05057,0,0,0,275.2354,93.12635Z"/><polygon class="cls-7" points="278.055 89.511 282.117 89.511 282.117 99.423 284.555 99.423 284.555 89.511 288.618 89.511 288.618 87.236 278.055 87.236 278.055 89.511"/><polygon class="cls-8" points="221.683 94.873 214.045 87.236 213.233 87.236 213.233 99.423 215.67 99.423 215.67 91.867 223.227 99.423 224.12 99.423 224.12 87.236 221.683 87.236 221.683 94.873"/><polygon class="cls-9" points="246.099 93.248 240.817 87.236 240.005 87.236 240.005 99.423 242.443 99.423 242.443 92.355 246.099 96.417 249.755 92.355 249.763 99.423 252.201 99.423 252.201 87.236 251.388 87.236 246.099 93.248"/><path class="cls-10" d="M230.88029,87.23574,226.0052,99.42319h2.5998l.73132-1.86873h5.525l.73163,1.86873,2.59165-.00832-4.867-12.17913Zm-.56859,7.88132,1.85229-4.63159,1.80363,4.63159Z"/><path class="cls-11" d="M301.10125,83.551v2.21225h-.43941V83.551h-.823V83.1562h2.08913V83.551Zm3.49078,2.21225-.00364-1.94781-.823,1.67579h-.28688l-.823-1.67579v1.94781h-.41334V83.1562h.5213l.86033,1.73189.8567-1.73189h.51765v2.60709Z"/><path class="cls-12" d="M233.74122,108.163a1.71969,1.71969,0,0,1-.98511,3.19757l-3.40752-.004v-6.052h3.21373q1.53043.0891,1.61493,1.78047A1.26745,1.26745,0,0,1,233.74122,108.163Zm-3.17739-.432h1.69569a.68342.68342,0,0,0,.75094-.755q-.01989-.44382-.73883-.46833h-1.7078Zm0,2.6808h1.9783a.79035.79035,0,0,0,.87207-.87611q-.0199-.58137-.86-.6056h-1.99041Z"/><path class="cls-12" d="M235.43691,105.30047h1.42114l1.405,1.9783,1.43729-1.9783h1.38885l-2.22054,3.028v3.028h-1.21121v-3.028Z"/><path class="cls-12" d="M249.55953,111.35649h-4.84885l.004-.40374,2.82211-4.52182h-2.82211l-.004-1.13046h4.84885v.44411l-2.83421,4.48145h2.83421Z"/><path class="cls-12" d="M251.081,111.35649v-6.052l4.44915-.004v1.13046h-3.238v1.292h2.42644v1.12642h-2.42644V110.226h3.22988v1.13046Z"/><path class="cls-12" d="M256.74947,111.35649v-6.056h.40373l3.79511,3.7951v-3.7951h1.2112v6.056h-.44411l-3.75473-3.75473v3.75473Z"/><path class="cls-12" d="M263.09617,111.35649l2.42241-6.056h1.2112l2.41779,6.052-1.28733.004-.36336-.92859h-2.7454l-.36336.92859Zm3.06031-4.44108-.92052,2.30128h1.81681Z"/><path class="cls-12" d="M274.35229,108.163a1.71988,1.71988,0,0,1-.98511,3.19757l-3.40752-.004v-6.052h3.21372q1.52958.0891,1.61494,1.78047A1.27064,1.27064,0,0,1,274.35229,108.163Zm-3.178-.432H272.87a.68291.68291,0,0,0,.75094-.755c-.01269-.29588-.25954-.45218-.73826-.46833h-1.70837Zm0,2.6808h1.9783a.78985.78985,0,0,0,.87207-.87611q-.019-.58137-.85938-.6056h-1.991Z"/><path class="cls-12" d="M276.40326,105.29643h1.20659v6.06006h-1.20659Z"/><path class="cls-12" d="M282.104,105.50234a2.81116,2.81116,0,0,1,.86745.6056l-.80747.80747a1.38984,1.38984,0,0,0-1.13046-.48448q-.72672,0-.92858.34317a.47453.47453,0,0,0,0,.58542,1.597,1.597,0,0,0,.92858.36336,3.00454,3.00454,0,0,1,1.39347.50466,1.51769,1.51769,0,0,1,.62521,1.35251,1.55329,1.55329,0,0,1-.6679,1.25158,2.44537,2.44537,0,0,1-1.5561.52486,3.58977,3.58977,0,0,1-1.40961-.24224,3.069,3.069,0,0,1-.969-.646l.80747-.80747a1.91984,1.91984,0,0,0,1.3727.56523q.808,0,1.007-.34317a.63693.63693,0,0,0,0-.68635q-.199-.34347-1.007-.42392a3.2536,3.2536,0,0,1-1.33232-.44411,1.33974,1.33974,0,0,1-.6056-1.25158,1.50606,1.50606,0,0,1,.68865-1.28964,2.42359,2.42359,0,0,1,1.41538-.48679A3.38776,3.38776,0,0,1,282.104,105.50234Z"/><rect class="cls-12" x="213.2325" y="108.2417" width="10.88777" height="1.32573"/><rect class="cls-12" x="288.46277" y="108.2417" width="10.88777" height="1.32573"/></svg>