<?xml version="1.0" encoding="utf-8"?>
<!-- Generator: Adobe Illustrator 23.0.1, SVG Export Plug-In . SVG Version: 6.00 Build 0)  -->
<svg version="1.1" id="Content" xmlns="http://www.w3.org/2000/svg" xmlns:xlink="http://www.w3.org/1999/xlink" x="0px" y="0px"
	 viewBox="0 0 320 568" style="enable-background:new 0 0 320 568;" xml:space="preserve">
<style type="text/css">
	.st0{fill:#FFFFFF;stroke:#BA9544;stroke-width:0.425;stroke-miterlimit:10;}
	.st1{fill:#BA9544;}
</style>
<title>THC - Ultra Sour</title>
<polygon class="st0" points="239.5,343.1 81.3,342.5 73.3,354.1 81.3,365.4 239.5,365.1 246.7,354.1 "/>
<polygon class="st1" points="81.4,342.5 73.5,354.1 81.4,365.4 111.5,365.4 111.5,342.5 "/>
<path class="st1" d="M171.9,350.3v1.4h-2.6v6.3h-1.5v-6.3h-2.6v-1.4H171.9z"/>
<path class="st1" d="M173,358v-7.7h1.5v3.1h3.6v-3.1h1.5v7.7l-1.5,0v-3.2h-3.6v3.2H173z"/>
<path class="st1" d="M182.1,356.9c-1.5-1.5-1.5-4,0-5.5c0.7-0.7,1.7-1.2,2.8-1.2c1,0,2.1,0.3,2.8,1l-1,1.1c-0.5-0.4-1.2-0.6-1.8-0.6
	c-1.2-0.1-2.3,0.9-2.3,2.1c0,0.1,0,0.1,0,0.2c0,0.6,0.2,1.3,0.6,1.7c0.5,0.4,1.1,0.7,1.7,0.6c0.7,0,1.3-0.2,1.8-0.6l1,1.1
	c-0.8,0.7-1.8,1.1-2.8,1C183.8,358,182.9,357.6,182.1,356.9z"/>
<path class="st1" d="M193.1,353.1c0.1-0.1,0.4-0.2,0.6-0.2c0.2,0,0.4,0.1,0.6,0.2c0.1,0.1,0.2,0.3,0.2,0.5c0,0.2-0.1,0.4-0.2,0.5
	c-0.3,0.3-0.8,0.3-1.1,0c-0.1-0.1-0.2-0.3-0.2-0.5C192.9,353.4,192.9,353.2,193.1,353.1z M193.1,356.8c0.1-0.1,0.4-0.2,0.6-0.2
	c0.2,0,0.4,0.1,0.6,0.2c0.3,0.3,0.3,0.7,0,1c-0.3,0.3-0.8,0.3-1.1,0C192.8,357.5,192.8,357.1,193.1,356.8z"/>
<path class="st1" d="M201.3,350.3L201.3,350.3l1.5,0v7.7h-1.5v-5.7l-1,1l-1-1L201.3,350.3z"/>
<path class="st1" d="M208.6,354.1c0.1,0,0.2,0.1,0.3,0.1c0.6,0.3,0.9,0.9,0.8,1.5c0.1,0.7-0.2,1.3-0.8,1.7c-1.2,0.7-2.7,0.7-3.9,0
	c-0.5-0.4-0.8-1.1-0.8-1.7c-0.1-0.6,0.2-1.3,0.8-1.5c0.1,0,0.2-0.1,0.3-0.1c-0.1,0-0.1-0.1-0.2-0.1c-0.5-0.3-0.8-0.9-0.7-1.5
	c0-0.6,0.2-1.2,0.7-1.7c1.1-0.8,2.5-0.8,3.6,0c0.5,0.4,0.7,1,0.7,1.7c0.1,0.6-0.2,1.2-0.7,1.5C208.7,354,208.6,354.1,208.6,354.1z
	 M206.9,353.4c0.5,0,0.7-0.1,0.9-0.4c0.2-0.3,0.2-0.6,0-0.9c-0.2-0.3-0.5-0.5-0.9-0.4c-0.3,0-0.7,0.1-0.9,0.4
	c-0.2,0.3-0.2,0.6,0,0.9C206.2,353.3,206.5,353.4,206.9,353.4z M206.9,354.8c-0.3,0-0.7,0.2-0.9,0.4c-0.2,0.3-0.2,0.6,0,0.9
	c0.2,0.3,0.5,0.5,0.9,0.4c0.3,0,0.7-0.1,0.9-0.4c0.2-0.3,0.2-0.6,0-0.9C207.6,355,207.3,354.8,206.9,354.8z"/>
<path class="st1" d="M211,356v-1h3.2v1H211z"/>
<path class="st1" d="M218.3,350.3c0.7,0,1.3,0.2,1.9,0.6c0.5,0.4,0.8,1.1,0.7,1.7c0,0.9-0.4,1.8-1,2.5c-0.5,0.6-1.1,1.1-1.7,1.5h2.8
	v1.5h-5.2v-1.5c0.3,0,1-0.4,2-1.3c0.7-0.5,1.2-1.1,1.7-1.8c0.2-0.3,0.1-0.7,0-1.1c-0.2-0.4-0.6-0.5-1.2-0.5c-0.6,0-1.1,0.2-1.4,0.6
	l-1-1c0.3-0.3,0.6-0.6,1-0.8C217.2,350.3,217.7,350.2,218.3,350.3z"/>
<path class="st1" d="M227.4,350.3v1.4h-3.2v1.1h0.6c0.8-0.1,1.7,0.2,2.3,0.7c0.5,0.6,0.8,1.3,0.8,2.1c0,0.7-0.3,1.3-0.8,1.7
	c-0.5,0.5-1.2,0.7-1.9,0.7c-0.6,0-1.2-0.1-1.8-0.3c-0.5-0.2-0.9-0.5-1.2-0.8l1-1c0.4,0.5,1,0.7,1.7,0.7c0.9,0,1.4-0.3,1.5-1
	c0-0.4-0.2-0.7-0.5-1c-0.2-0.2-0.7-0.3-1.7-0.3h-1.7v-4H227.4z"/>
<path class="st1" d="M229.5,353.5c-0.8-0.8-0.8-2-0.1-2.8s2-0.8,2.8-0.1s0.8,2,0.1,2.8c-0.4,0.4-0.9,0.6-1.4,0.6
	C230.4,354.1,229.9,353.9,229.5,353.5z M230.9,353.2c0.3,0,0.5-0.1,0.7-0.3c0.4-0.4,0.4-1,0-1.5c-0.2-0.2-0.4-0.3-0.7-0.3
	c-0.3,0-0.5,0.1-0.7,0.3c-0.4,0.4-0.4,1,0,1.5C230.4,353.1,230.6,353.2,230.9,353.2z M230.5,358l4.4-7.7h1.3l-4.4,7.7H230.5z
	 M234.3,357.5c-0.8-0.8-0.8-2-0.1-2.8c0.8-0.8,2-0.8,2.8-0.1c0.8,0.8,0.8,2,0.1,2.8c-0.4,0.4-0.9,0.6-1.4,0.6
	C235.2,358.1,234.7,357.9,234.3,357.5z M235.7,357.1c0.3,0,0.5-0.1,0.7-0.3c0.4-0.4,0.4-1,0-1.4c-0.2-0.2-0.4-0.3-0.7-0.3
	c-0.3,0-0.5,0.1-0.7,0.3c-0.4,0.4-0.4,1,0,1.4C235.1,357,235.4,357.1,235.7,357.1L235.7,357.1z"/>
</svg>
