<?xml version="1.0" encoding="utf-8"?>
<!-- Generator: Adobe Illustrator 23.0.1, SVG Export Plug-In . SVG Version: 6.00 Build 0)  -->
<svg version="1.1" id="Content" xmlns="http://www.w3.org/2000/svg" xmlns:xlink="http://www.w3.org/1999/xlink" x="0px" y="0px"
	 viewBox="0 0 320 568" style="enable-background:new 0 0 320 568;" xml:space="preserve">
<style type="text/css">
	.st0{fill:#BA9544;}
</style>
<title>Frame2 - MK Ultra</title>
<path class="st0" d="M109.2,207.9l2.3-15.2h4.7v21.4H113v-15.4l-2.3,15.4h-3.2L105,199v15.1H102v-21.4h4.7L109.2,207.9z"/>
<path class="st0" d="M126.3,205.6l-1,2v6.6h-3.4v-21.4h3.4v9.3l4.4-9.3h3.4l-4.7,9.5l4.7,11.9h-3.5L126.3,205.6z"/>
<path class="st0" d="M148.9,192.7v16.5c0,1.5,0.7,2.1,1.7,2.1s1.7-0.6,1.7-2.1v-16.5h3.2V209c0,3.4-1.7,5.4-5,5.4c-3.3,0-5-2-5-5.4
	v-16.3H148.9z"/>
<path class="st0" d="M161.1,192.7h3.4V211h5.5v3.1h-8.9V192.7z"/>
<path class="st0" d="M173.8,192.7h10.4v3.1h-3.5v18.3h-3.4v-18.3h-3.5L173.8,192.7z"/>
<path class="st0" d="M195.9,214.1c-0.3-0.8-0.4-1.7-0.3-2.6v-3.4c0-2-0.7-2.7-2.2-2.7h-1.2v8.7h-3.4v-21.4h5.1c3.5,0,5,1.6,5,4.9
	v1.7c0,2.2-0.7,3.6-2.2,4.3c1.7,0.7,2.2,2.3,2.2,4.6v3.3c-0.1,0.9,0.1,1.8,0.4,2.6H195.9z M192.3,195.8v6.6h1.3c1.3,0,2-0.6,2-2.3
	V198c0-1.5-0.5-2.2-1.7-2.2H192.3z"/>
<path class="st0" d="M215.3,214.1h-3.4l-0.6-3.9h-4.1l-0.6,3.9h-3.1l3.4-21.4h4.9L215.3,214.1z M207.6,207.3h3.2l-1.6-10.8
	L207.6,207.3z"/>
</svg>
