<svg id="Content" xmlns="http://www.w3.org/2000/svg" xmlns:xlink="http://www.w3.org/1999/xlink" width="320" height="568" viewBox="0 0 320 568"><defs><style>.cls-1{fill:#fff;}.cls-2{fill:url(#New_Gradient_Swatch_1);}.cls-3{fill:#ba9544;}</style><linearGradient id="New_Gradient_Swatch_1" x1="142.04764" y1="269.83578" x2="182.28471" y2="269.83578" gradientUnits="userSpaceOnUse"><stop offset="0" stop-color="#a88a34"/><stop offset="0.49324" stop-color="#caaf67"/><stop offset="1" stop-color="#957f2e"/></linearGradient></defs><title>minty</title><path class="cls-1" d="M154.15257,264.73564a1.71666,1.71666,0,0,1,.32343-.13274,3.11041,3.11041,0,0,1,.36083-.09162l.02057-.00747,3.52977-.77588a1.14242,1.14242,0,0,1,.75344.11591l.59452.58145-1.23579,1.29375-3.93921.86561c-.157-.71044-.31969-1.4508-.40756-1.849m12.24948,9.84706-1.93875-8.8188a1.32188,1.32188,0,0,0-1.4695-1.02266l1.03949-1.09183.286.27108.43188-.458a.28054.28054,0,0,0-.01123-.39636l-2.09018-1.97428a.28053.28053,0,0,0-.39634.01123l-.43188.458.344.32532-1.38722,1.45453-.688-.67118-.04859-.03739a2.62879,2.62879,0,0,0-1.97616-.37205l-3.49237.7684a5.11078,5.11078,0,0,0-.617.15891,2.102,2.102,0,0,0-1.12922.75344,1.21958,1.21958,0,0,0-.18322.95162c.10844.4861.48608,2.208.71417,3.24185.00374.02243.00748.04486.0131.0673l1.93874,8.82067a1.31389,1.31389,0,0,0,1.57046.99836l8.50844-1.87145a1.32073,1.32073,0,0,0,1.01332-1.56671"/><polygon class="cls-2" points="176.859 283.381 160.083 289.82 144.592 280.719 142.048 262.931 154.368 249.852 172.275 251.329 182.285 266.252 176.859 283.381"/><path class="cls-1" d="M170.67745,276.17346a7.1281,7.1281,0,0,0-2.85485-5.90413,2.74948,2.74948,0,0,1,1.35357-.16452,4.65776,4.65776,0,0,0-2.7221-2.451,2.08255,2.08255,0,0,1,1.06752-.13087,9.80346,9.80346,0,0,0-5.65921-3.71672,3.37824,3.37824,0,0,1,1.032-.12713,8.46667,8.46667,0,0,0-8.243.28978s3.40638,1.79667,4.75434,3.6569c0,0-4.6702-2.98385-5.35074-2.93711,0,0-2.1014,4.99365,3.24185,9.36285a2.35,2.35,0,0,1-.12713-1.032s2.122,2.55946,4.19347,3.24559a2.42137,2.42137,0,0,1,.01308-1.00583,6.23965,6.23965,0,0,0,2.96142,1.6901,2.2588,2.2588,0,0,1-.09347-1.36106s3.43067,2.036,6.43322.58518"/><path class="cls-3" d="M145.44043,308.84375v-7.39453h.49316l3.20411,3.64844,3.209-3.64844h.49316v7.39453h-1.47949l-.00488-4.28906-2.21777,2.46484-2.21875-2.46484v4.28906Z"/><path class="cls-3" d="M154.31348,301.44434h1.47363v7.39941h-1.47363Z"/><path class="cls-3" d="M157.27148,308.84375v-7.39453h.49317l4.63379,4.63379v-4.63379H163.877v7.39453h-.542l-4.585-4.585v4.585Z"/><path class="cls-3" d="M171.44336,301.44922v1.38086h-2.46387v6.01367H167.5v-6.01367h-2.46484v-1.38086Z"/><path class="cls-3" d="M172.10938,301.44922h1.73535l1.71484,2.416,1.75488-2.416h1.69629l-2.71191,3.69726v3.69727h-1.47852v-3.69727Z"/></svg>