<?xml version="1.0" encoding="utf-8"?>
<!-- Generator: Adobe Illustrator 23.0.1, SVG Export Plug-In . SVG Version: 6.00 Build 0)  -->
<svg version="1.1" id="Content" xmlns="http://www.w3.org/2000/svg" xmlns:xlink="http://www.w3.org/1999/xlink" x="0px" y="0px"
	 viewBox="0 0 640 1136" style="enable-background:new 0 0 640 1136;" xml:space="preserve">
<style type="text/css">
	.st0{fill:url(#SVGID_1_);}
	.st1{fill:#FFFFFF;}
	.st2{fill:#B89344;}
</style>
<title>berry</title>
<linearGradient id="SVGID_1_" gradientUnits="userSpaceOnUse" x1="138.51" y1="361.095" x2="227" y2="361.095" gradientTransform="matrix(1 0 0 -1 0 1136)">
	<stop  offset="0" style="stop-color:#A68834"/>
	<stop  offset="0.49" style="stop-color:#C8AD67"/>
	<stop  offset="1" style="stop-color:#937F2E"/>
</linearGradient>
<polygon class="st0" points="175.3,729.6 138.5,772.1 167.5,820.2 222.2,807.4 227,751.5 "/>
<path class="st1" d="M195.6,779.7c-0.3,0.4-0.8,0.4-1.1,0.2c-0.4-0.3-0.4-0.8-0.2-1.1c0.3-0.4,0.8-0.4,1.1-0.2c0,0,0,0,0,0
	C195.8,778.8,195.9,779.3,195.6,779.7 M190.8,769.4c-0.6,0-1-0.4-1-1s0.4-1,1-1s1,0.4,1,1S191.3,769.4,190.8,769.4 M189.8,781.7
	c-0.6,0-1-0.4-1-1s0.4-1,1-1s1,0.4,1,1S190.3,781.7,189.8,781.7 M189.6,774.2c0.5,0,0.8,0.5,0.7,0.9c0,0.4-0.3,0.7-0.7,0.7
	c-0.5,0-0.8-0.5-0.7-0.9C188.9,774.6,189.2,774.3,189.6,774.2 M187.5,787.4c-0.3,0.4-0.8,0.5-1.2,0.3c-0.4-0.2-0.5-0.8-0.3-1.2
	c0.2-0.4,0.8-0.6,1.2-0.3C187.6,786.5,187.7,787,187.5,787.4C187.5,787.4,187.5,787.4,187.5,787.4 M183.3,774.1
	c-0.5,0-0.9-0.4-0.9-0.9c0-0.5,0.4-0.9,0.9-0.9s0.9,0.4,0.9,0.9C184.2,773.7,183.8,774.1,183.3,774.1
	C183.3,774.1,183.3,774.1,183.3,774.1 M183,781c-0.5,0-0.8-0.4-0.8-0.8s0.4-0.8,0.8-0.8s0.8,0.4,0.8,0.8c0,0,0,0,0,0
	C183.8,780.6,183.4,781,183,781 M180.4,784.7c-0.5,0-0.8-0.4-0.8-0.8c0-0.5,0.4-0.8,0.8-0.8c0.5,0,0.8,0.4,0.8,0.8c0,0,0,0,0,0
	C181.2,784.3,180.8,784.7,180.4,784.7 M179.4,778.2c-0.4,0.4-1,0.5-1.4,0.1c-0.4-0.4-0.5-1-0.1-1.4c0.4-0.4,1-0.5,1.4-0.1
	C179.8,777.1,179.8,777.8,179.4,778.2C179.5,778.2,179.4,778.2,179.4,778.2 M176.9,769.8c0-0.5,0.4-0.9,0.9-0.9
	c0.5,0,0.9,0.4,0.9,0.9c0,0.5-0.4,0.9-0.9,0.9c0,0,0,0,0,0C177.3,770.7,176.9,770.3,176.9,769.8 M189.9,764.4c1.7-1,3.2-2.1,4.6-3.5
	c-1.9-0.3-3.9-0.1-5.8,0.6c0.7-1.4,1-2.9,0.9-4.5c-1.4,0.1-2.5,1.2-3.3,2.7c-0.1-1.4-0.4-2.7-1.1-3.9c-1.4,0.8-1.8,2.7-1.9,4.5
	c-0.8-1.5-1.9-2.8-3.5-2.9c-0.1,1.5,0.2,2.9,0.8,4.3c-1.9-0.8-4-1-6.1-0.7c1.4,1.4,3,2.7,4.8,3.6c-4.8,1-8.2,3.7-8.2,9.3
	c0,7.6,9.6,20.2,13.8,20.2c4.5,0,13.8-12.6,13.8-20.2C198.7,768,195.1,765.3,189.9,764.4"/>
<path class="st2" d="M155,858.7c1.4,0.8,2.2,2.2,2.3,3.8c-0.1,3.1-1.8,4.8-5,5H143v-16.7h8.8c2.8,0.2,4.3,1.8,4.4,4.9
	C156.4,856.9,155.9,858,155,858.7z M146.3,857.5h4.7c1,0.1,1.9-0.6,2.1-1.7c0-0.1,0-0.3,0-0.4c0-0.8-0.7-1.2-2-1.3h-4.7L146.3,857.5
	z M146.3,864.9h5.4c1.2,0.1,2.3-0.7,2.4-1.9c0-0.2,0-0.3,0-0.5c0-1.1-0.8-1.6-2.4-1.7h-5.5V864.9z"/>
<path class="st2" d="M160.6,867.5v-16.6h12.2v3.1H164v3.5h6.7v3.1H164v3.8h8.9v3.1L160.6,867.5z"/>
<path class="st2" d="M186.2,860.3l4.1,7.2h-3.8l-4-6.9h-3v6.9h-3.3v-16.6h7.3c3.9,0,5.8,1.6,5.8,4.8
	C189.3,858.1,188.3,859.6,186.2,860.3z M179.5,857.5h4.7c1.3,0,2-0.6,2.1-1.8s-0.7-1.7-2-1.7h-4.7L179.5,857.5z"/>
<path class="st2" d="M202.1,860.3l4.1,7.2h-3.8l-4-6.9h-3v6.9h-3.3v-16.6h7.2c3.9,0,5.8,1.6,5.8,4.8
	C205.2,858.1,204.2,859.6,202.1,860.3z M195.4,857.5h4.7c1.3,0,2-0.6,2.1-1.8s-0.7-1.7-2-1.7h-4.7L195.4,857.5z"/>
<path class="st2" d="M207,850.9h3.9l3.9,5.4l3.9-5.4h3.8l-6.1,8.3v8.3h-3.3v-8.3L207,850.9z"/>
</svg>
