<?xml version="1.0" encoding="utf-8"?>
<!-- Generator: Adobe Illustrator 23.0.1, SVG Export Plug-In . SVG Version: 6.00 Build 0)  -->
<svg version="1.1" id="Content" xmlns="http://www.w3.org/2000/svg" xmlns:xlink="http://www.w3.org/1999/xlink" x="0px" y="0px"
	 viewBox="0 0 640 1136" style="enable-background:new 0 0 640 1136;" xml:space="preserve">
<style type="text/css">
	.st0{fill:#B89344;}
</style>
<title>Frame2 - MK Ultra</title>
<path class="st0" d="M207.4,652.7l5.3-35h10.8V667h-7.3v-35.4l-5.3,35.4h-7.3l-5.8-34.8V667H191v-49.3h10.8L207.4,652.7z"/>
<path class="st0" d="M246.7,647.3l-2.4,4.5V667h-7.8v-49.3h7.8v21.5l10.1-21.5h7.7l-10.8,22l10.8,27.3h-7.9L246.7,647.3z"/>
<path class="st0" d="M299,617.7v38c0,3.5,1.5,4.8,4,4.8s4-1.3,4-4.8v-38h7.3v37.5c0,7.9-3.9,12.4-11.5,12.4s-11.5-4.5-11.5-12.4
	v-37.5H299z"/>
<path class="st0" d="M327,617.7h7.7v42.2h12.8v7H327V617.7z"/>
<path class="st0" d="M356.1,617.7h23.9v7H372V667h-7.7v-42.3h-8.1L356.1,617.7z"/>
<path class="st0" d="M407.1,667c-0.4-1.3-0.7-2-0.7-6.1v-7.7c0-4.6-1.5-6.3-5.1-6.3h-2.7V667h-7.7v-49.3h11.7
	c8,0,11.5,3.7,11.5,11.3v3.9c0,5.1-1.6,8.4-5.1,10c3.9,1.6,5.1,5.3,5.1,10.5v7.6c-0.1,2,0.1,4.1,0.9,6H407.1z M398.6,624.8v15.1h3
	c2.9,0,4.6-1.3,4.6-5.2v-4.9c0-3.5-1.2-5.1-3.9-5.1H398.6z"/>
<path class="st0" d="M451.7,667h-7.8l-1.3-9h-9.5l-1.3,9h-7.1l7.9-49.3h11.3L451.7,667z M434.1,651.4h7.5l-3.7-24.9L434.1,651.4z"/>
</svg>
