<svg xmlns="http://www.w3.org/2000/svg" xmlns:xlink="http://www.w3.org/1999/xlink" width="970" height="250" viewBox="0 0 970 250"><defs><style>.cls-1{fill:none;}.cls-2{isolation:isolate;}.cls-3{clip-path:url(#clip-path);}.cls-4{clip-path:url(#clip-path-2);}.cls-5{clip-path:url(#clip-path-3);}.cls-6{clip-path:url(#clip-path-4);}.cls-7{opacity:0.65882;}.cls-8{clip-path:url(#clip-path-5);}.cls-9{clip-path:url(#clip-path-6);}.cls-10{clip-path:url(#clip-path-7);}.cls-11{clip-path:url(#clip-path-8);}.cls-12{mix-blend-mode:multiply;}.cls-13{clip-path:url(#clip-path-9);}.cls-14{fill:#ba9544;}</style><clipPath id="clip-path"><rect class="cls-1" x="-2" y="586.64614" width="974" height="251.03093"/></clipPath><clipPath id="clip-path-2"><rect class="cls-1" x="-17.21661" y="191.22969" width="994.73176" height="663.15451"/></clipPath><clipPath id="clip-path-3"><rect class="cls-1" x="-2" y="287.48396" width="974" height="251.03093"/></clipPath><clipPath id="clip-path-4"><rect class="cls-1" x="-17.21661" y="-107.9325" width="994.73176" height="663.15451"/></clipPath><clipPath id="clip-path-5"><path class="cls-1" d="M1064.61007,285.88621V446.7031l123.07415-42.6657,86.9724,9.84593,55.79361-90.25438-1.641-37.74274Z"/></clipPath><clipPath id="clip-path-6"><rect class="cls-1" x="965.79452" y="98.69366" width="294.81185" height="442.21777" transform="translate(321.73603 1165.42242) rotate(-62.92309)"/></clipPath><clipPath id="clip-path-7"><path class="cls-1" d="M-1.657,445.66581l67.9261,11.933,36.92443,16.78281,34.85591-3.48559,60.41691-1.16186L228.6748,492.9714,217.726,501.65894l11.933,34.881S-7.89635,543.69719-4.41076,540.21159-1.657,445.66581-1.657,445.66581Z"/></clipPath><clipPath id="clip-path-8"><polygon class="cls-1" points="369.101 366.295 486.821 326.447 495.819 325.559 511.068 319.315 498.74 304.154 492.467 286.097 404.664 286.097 369.101 366.295"/></clipPath><clipPath id="clip-path-9"><rect class="cls-1" x="442.98586" y="62.51336" width="273.70769" height="410.64051" transform="translate(273.91403 828.51036) rotate(-86.17418)"/></clipPath></defs><title>Frame1 - Daytime CBD</title><g class="cls-2"><g id="BG"><g class="cls-3"><g id="Background_LO.psd"><g class="cls-4"><g id="background"><image id="GettyImages-909407598" width="1266" height="1899" transform="translate(977.51516 191.22969) rotate(90) scale(0.52382)" xlink:href="Frame1%20-%20Daytime%20CBD1.png"/></g></g></g></g><g class="cls-5"><g id="Background_LO.psd-2" data-name="Background_LO.psd"><g class="cls-6"><g id="background-2" data-name="background"><image id="GettyImages-909407598-2" data-name="GettyImages-909407598" width="1266" height="1899" transform="translate(977.51516 -107.9325) rotate(90) scale(0.52382)" xlink:href="Frame1%20-%20Daytime%20CBD2.png"/><image id="Layer_27" data-name="Layer 27" class="cls-7" width="1015" height="1469" transform="translate(977.51516 23.546) rotate(90) scale(0.52382)" xlink:href="Frame1%20-%20Daytime%20CBD3.png"/></g></g></g></g></g><g id="Terpenes"><g class="cls-8"><g id="Oranges_1_GettyImages-501548078.psd" data-name="Oranges#1_GettyImages-501548078.psd"><g class="cls-9"><image id="Oranges_1" data-name="Oranges #1" width="3146" height="1965" transform="translate(989.21606 118.46046) rotate(27.07691) scale(0.12796)" xlink:href="Frame1%20-%20Daytime%20CBD4.png"/></g></g></g><g class="cls-11"><g id="Spices_GettyImages-966502372.psd" class="cls-12"><g class="cls-13"><image id="Shadow" class="cls-12" width="838" height="792" transform="matrix(0.15759, 0.01054, -0.01054, 0.15759, 397.08851, 245.40279)" xlink:href="Frame1%20-%20Daytime%20CBD5.png"/><image id="Spices_-_pepper_only" data-name="Spices - pepper only" width="792" height="759" transform="matrix(0.15759, 0.01054, -0.01054, 0.15759, 400.3346, 246.56961)" xlink:href="Frame1%20-%20Daytime%20CBD6.png"/></g></g></g></g><g id="Content"><path class="cls-14" d="M404.07422,110.31152h8.5039c5.376,0,8.01563,2.98145,8.01563,8.45557v17.30127c0,5.47363-2.63965,8.45508-8.01563,8.45508h-8.5039Zm5.376,4.8877v24.43652h3.03027c1.71094,0,2.7373-.87988,2.7373-3.32324v-17.79c0-2.44385-1.02636-3.32324-2.7373-3.32324Z"/><path class="cls-14" d="M445.61621,144.52344h-5.42578l-.92871-6.207h-6.59766l-.92871,6.207H426.7998l5.47364-34.21192h7.86816Zm-12.26758-10.84961h5.18067l-2.59082-17.30176Z"/><path class="cls-14" d="M453.43457,133.18457l-6.79395-22.87305h5.6211l4.10547,15.59082,4.10449-15.59082h5.13184l-6.793,22.87305v11.33887h-5.376Z"/><path class="cls-14" d="M468.4375,110.31152h16.61719v4.8877h-5.62012v29.32422h-5.376V115.19922H468.4375Z"/><path class="cls-14" d="M491.60254,110.31152h5.376v34.21192h-5.376Z"/><path class="cls-14" d="M517.45605,134.60156l3.665-24.29h7.47754v34.21192h-5.082V119.98877l-3.71484,24.53467h-5.083l-4.00781-24.19239v24.19239h-4.69141V110.31152h7.47754Z"/><path class="cls-14" d="M543.06348,124.72949h7.37988v4.8877h-7.37988v10.01855h9.28613v4.8877H537.6875V110.31152h14.66211v4.8877h-9.28613Z"/><path class="cls-14" d="M589.19922,131.76758v4.54492c0,5.47363-2.73731,8.60156-8.01563,8.60156s-8.01562-3.12793-8.01562-8.60156v-17.79c0-5.47363,2.7373-8.60156,8.01562-8.60156s8.01563,3.12793,8.01563,8.60156v3.32324h-5.083v-3.66552c0-2.44336-1.07519-3.37207-2.78613-3.37207-1.71,0-2.78516.92871-2.78516,3.37207V136.6543c0,2.44433,1.0752,3.32422,2.78516,3.32422,1.71094,0,2.78613-.87989,2.78613-3.32422v-4.88672Z"/><path class="cls-14" d="M613.73145,118.18018v1.22216c0,3.51905-1.0752,5.76709-3.46973,6.89161,2.88379,1.124,4.00781,3.71386,4.00781,7.33105v2.78516c0,5.27832-2.78613,8.11328-8.16211,8.11328h-8.45508V110.31152h8.11328C611.33691,110.31152,613.73145,112.90186,613.73145,118.18018Zm-10.70313-2.981v9.0415h2.10156c2.00391,0,3.22559-.87988,3.22559-3.6167v-1.90625c0-2.44336-.83106-3.51855-2.73633-3.51855Zm0,13.92871v10.50781h3.0791c1.8086,0,2.78613-.83008,2.78613-3.37207v-2.98144c0-3.17676-1.02636-4.1543-3.4707-4.1543Z"/><path class="cls-14" d="M622.6748,110.31152h8.50391c5.376,0,8.01563,2.98145,8.01563,8.45557v17.30127c0,5.47363-2.63965,8.45508-8.01563,8.45508H622.6748Zm5.376,4.8877v24.43652h3.03027c1.71094,0,2.73731-.87988,2.73731-3.32324v-17.79c0-2.44385-1.02637-3.32324-2.73731-3.32324Z"/></g></g></svg>