<svg id="Layer_1" data-name="Layer 1" xmlns="http://www.w3.org/2000/svg" width="300" height="600" viewBox="0 0 300 600"><defs><style>.cls-1{fill:#ab9555;}</style></defs><title>frame2</title><path class="cls-1" d="M190.0895,336.51186a7.12858,7.12858,0,0,1-7.15953-7.14594V306.03341h4.43782v23.284a2.48571,2.48571,0,0,0,.76681,1.83065,2.52445,2.52445,0,0,0,1.84036.75905,2.5784,2.5784,0,0,0,2.59164-2.5897v-23.284h4.73483v23.33251a6.82561,6.82561,0,0,1-2.11213,5.08233A7.03613,7.03613,0,0,1,190.0895,336.51186Z"/><path class="cls-1" d="M222.52258,331.61007h4.53683v4.53682h-4.53683Z"/><path class="cls-1" d="M88.93034,336.50436H76.397V306.02321h4.59459v25.92h7.93878Z"/><path class="cls-1" d="M105.48422,305.65556a7.28973,7.28973,0,0,1,7.30376,7.30376v16.62662a7.28971,7.28971,0,0,1-7.30376,7.30376,6.9526,6.9526,0,0,1-5.13721-2.139,7.08169,7.08169,0,0,1-2.11544-5.16473V312.95932a7.28987,7.28987,0,0,1,7.25265-7.30376Zm2.50667,7.21726a2.59486,2.59486,0,0,0-2.62267-2.62267,2.56941,2.56941,0,0,0-1.86378.76085,2.50669,2.50669,0,0,0-.77658,1.86182v16.68166a2.51733,2.51733,0,0,0,.77658,1.854,2.55929,2.55929,0,0,0,1.86378.76675,2.60459,2.60459,0,0,0,2.62267-2.62071Z"/><path class="cls-1" d="M130.16168,305.65556a7.28971,7.28971,0,0,1,7.30179,7.30376v16.62662a7.27731,7.27731,0,1,1-14.55443,0V312.95932a7.28987,7.28987,0,0,1,7.25264-7.30376Zm2.50667,7.21726a2.59812,2.59812,0,0,0-2.62463-2.62267,2.57267,2.57267,0,0,0-1.86379.76085,2.50672,2.50672,0,0,0-.77657,1.86182v16.68166a2.51736,2.51736,0,0,0,.77657,1.854,2.56253,2.56253,0,0,0,1.86379.76675,2.6079,2.6079,0,0,0,2.62463-2.62071Z"/><path class="cls-1" d="M152.24793,326.87873v9.62563h-4.59655V306.02321h4.59655v10.86225l5.58153-10.86225h4.91308l-6.2834,12.46652,7.35291,18.01463h-5.39868l-4.81282-12.35053Z"/><path class="cls-1" d="M189.734,336.8897a7.21935,7.21935,0,0,1-7.25068-7.23691V306.02321h4.49432v23.58043a2.51736,2.51736,0,0,0,.77658,1.85395,2.55657,2.55657,0,0,0,1.86378.76871,2.61121,2.61121,0,0,0,2.62464-2.62266V306.02321h4.79512v23.62958a6.91251,6.91251,0,0,1-2.139,5.147A7.12569,7.12569,0,0,1,189.734,336.8897Z"/><path class="cls-1" d="M214.51371,306.02321a6.97466,6.97466,0,0,1,5.34757,2.1233,7.316,7.316,0,0,1,1.85592,5.147V317.721a7.078,7.078,0,0,1-2.10364,5.147,6.87222,6.87222,0,0,1-5.08806,2.139h-2.65216v11.49728h-4.59458V306.02321Zm2.74063,7.35291a2.65128,2.65128,0,0,0-.70777-1.93063,2.54521,2.54521,0,0,0-1.907-.72743h-2.76619v9.74359h2.76619a2.49681,2.49681,0,0,0,1.85592-.77658,2.5787,2.5787,0,0,0,.75889-1.86378Z"/></svg>