<svg id="Content" xmlns="http://www.w3.org/2000/svg" xmlns:xlink="http://www.w3.org/1999/xlink" viewBox="0 0 728 360"><defs><style>.cls-1{fill:#ba9544;}.cls-2{fill:#fff;stroke:#ba9544;stroke-miterlimit:10;stroke-width:0.5px;}.cls-3{clip-path:url(#clip-path);}</style><clipPath id="clip-path"><polygon class="cls-1" points="391.19 239.44 402.93 256.07 431.76 256.09 431.76 222.51 402.93 222.5 391.19 239.44"/></clipPath></defs><title>THC - Durga Mata</title><polygon class="cls-2" points="635.28 223.34 402.67 222.46 390.93 239.4 402.67 256.03 635.28 255.63 645.84 239.49 635.28 223.34"/><polygon class="cls-1" points="391.19 239.44 402.93 256.07 431.76 256.09 431.76 222.51 402.93 222.5 391.19 239.44"/><g class="cls-3"><rect class="cls-1" x="388.59" y="219.9" width="17.16" height="38.78"/></g><polygon class="cls-2" points="635.28 170.59 402.67 169.71 390.93 186.64 402.67 203.27 635.28 202.88 645.84 186.73 635.28 170.59"/><polygon class="cls-1" points="402.84 169.71 391.1 186.64 402.84 203.27 426.12 203.27 425.86 169.71 402.84 169.71"/><path class="cls-1" d="M535.8,181.09v2.13H532v9.26h-2.28v-9.26h-3.8v-2.13Z"/><path class="cls-1" d="M537.5,192.48V181.09h2.28v4.56h5.3v-4.57h2.28v11.39h-2.28v-4.71h-5.3v4.71Z"/><path class="cls-1" d="M550.89,190.84a5.7,5.7,0,0,1,4.05-9.75,6.19,6.19,0,0,1,4.19,1.52l-1.52,1.66a4.17,4.17,0,0,0-2.67-.91,3.24,3.24,0,0,0-3.4,3.39,3.41,3.41,0,0,0,1,2.52,3.35,3.35,0,0,0,2.47.93,4.09,4.09,0,0,0,2.65-.9l1.52,1.66a6.16,6.16,0,0,1-4.19,1.52A5.58,5.58,0,0,1,550.89,190.84Z"/><path class="cls-1" d="M561.68,185.22a1.09,1.09,0,0,1,.82-.31,1.13,1.13,0,0,1,.85.31,1.11,1.11,0,0,1,0,1.52,1.31,1.31,0,0,1-1.67,0,1.11,1.11,0,0,1,0-1.52Zm0,5.43a1.12,1.12,0,0,1,.82-.31,1.16,1.16,0,0,1,.85.31,1.06,1.06,0,0,1,.3.77,1,1,0,0,1-.3.75,1.28,1.28,0,0,1-1.67,0,1,1,0,0,1-.3-.75A1.06,1.06,0,0,1,561.68,190.65Z"/><path class="cls-1" d="M576.19,181.1v0h2.27v6.62H580V190h-1.53v2.51h-2.27V190H571V187.7h.08l-.07-.07Zm0,6.6v-3.63l-2.77,3.63Z"/><path class="cls-1" d="M581.73,189.43v-1.51h4.71v1.51Z"/><path class="cls-1" d="M594.84,186.71l.37.15a2.24,2.24,0,0,1,1.17,2.28,2.91,2.91,0,0,1-1.1,2.54,5.46,5.46,0,0,1-5.69,0,2.93,2.93,0,0,1-1.1-2.54,2.23,2.23,0,0,1,1.18-2.28l.37-.15-.22-.12a2.23,2.23,0,0,1-1-2.16,3.14,3.14,0,0,1,1-2.47,4.49,4.49,0,0,1,5.31,0,3.14,3.14,0,0,1,1,2.47,2.24,2.24,0,0,1-1,2.16Zm-2.4-1a1.46,1.46,0,0,0,1.29-.53,1.25,1.25,0,0,0,0-1.29,1.49,1.49,0,0,0-1.29-.64,1.46,1.46,0,0,0-1.29.64,1.2,1.2,0,0,0,0,1.29C591.34,185.48,591.77,185.66,592.44,185.68Zm0,2.08a1.72,1.72,0,0,0-1.29.66,1.2,1.2,0,0,0,0,1.29,1.46,1.46,0,0,0,1.29.63,1.48,1.48,0,0,0,1.29-.63,1.25,1.25,0,0,0,0-1.29A1.76,1.76,0,0,0,592.44,187.76Z"/><path class="cls-1" d="M599,185.9a2.81,2.81,0,0,1-.82-2,2.8,2.8,0,0,1,2.86-2.85,2.8,2.8,0,0,1,2.85,2.85,2.8,2.8,0,0,1-2.85,2.86A2.81,2.81,0,0,1,599,185.9Zm2-.54a1.36,1.36,0,0,0,1-.43,1.57,1.57,0,0,0,.4-1.08,1.54,1.54,0,0,0-.4-1.07,1.37,1.37,0,0,0-1.05-.43,1.32,1.32,0,0,0-1,.43,1.5,1.5,0,0,0-.41,1.07,1.53,1.53,0,0,0,.41,1.08A1.33,1.33,0,0,0,601.05,185.36Zm-.61,7.12,6.45-11.39h1.86l-6.44,11.39Zm5.66-.75a2.91,2.91,0,1,1,2,.81A2.72,2.72,0,0,1,606.1,191.73Zm2-.56a1.32,1.32,0,0,0,1-.42,1.57,1.57,0,0,0,0-2.09,1.41,1.41,0,0,0-2,0,1.6,1.6,0,0,0,0,2.09A1.33,1.33,0,0,0,608.08,191.17Z"/><path class="cls-1" d="M527.59,245a5.7,5.7,0,0,1,4-9.75,6.17,6.17,0,0,1,4.18,1.52l-1.52,1.66a4.17,4.17,0,0,0-2.66-.91,3.25,3.25,0,0,0-3.41,3.38,3.42,3.42,0,0,0,.95,2.53,3.35,3.35,0,0,0,2.47.93,4.09,4.09,0,0,0,2.65-.9l1.52,1.66a6.15,6.15,0,0,1-4.18,1.52A5.54,5.54,0,0,1,527.59,245Z"/><path class="cls-1" d="M546.36,240.61a3.28,3.28,0,0,1,1.58,2.61,3.23,3.23,0,0,1-3.43,3.41H538.1V235.24h6c1.92.11,2.93,1.22,3,3.35A2.39,2.39,0,0,1,546.36,240.61Zm-6-.81h3.19a1.28,1.28,0,0,0,1.41-1.42c0-.56-.48-.85-1.38-.88h-3.22Zm0,5h3.72a1.48,1.48,0,0,0,1.64-1.65c0-.73-.56-1.1-1.61-1.14h-3.75Z"/><path class="cls-1" d="M550.21,246.62v-11.4h4.39q5.32,0,5.32,5.7t-5.32,5.7Zm4.39-2.27q3,0,3-3.43t-3-3.41h-2.11v6.84Z"/><path class="cls-1" d="M562.46,239.36a1.09,1.09,0,0,1,.82-.31,1.11,1.11,0,0,1,.85.31,1,1,0,0,1,.3.76,1.06,1.06,0,0,1-.3.76,1.31,1.31,0,0,1-1.67,0,1.06,1.06,0,0,1-.3-.76A1,1,0,0,1,562.46,239.36Zm0,5.43a1.12,1.12,0,0,1,.82-.31,1.15,1.15,0,0,1,.85.31,1.06,1.06,0,0,1,.3.76,1,1,0,0,1-.3.76,1.28,1.28,0,0,1-1.67,0,1,1,0,0,1-.3-.76A1.06,1.06,0,0,1,562.46,244.79Z"/><path class="cls-1" d="M579.86,240.28q0,3.63-1.37,5.05a3.85,3.85,0,0,1-3.29,1.24,4.73,4.73,0,0,1-3.06-1.44l1.29-1.4a3.91,3.91,0,0,0,1.89.65,2,2,0,0,0,1.63-.49,3.05,3.05,0,0,0,.84-1.86,3.55,3.55,0,0,1-2.36.76,3.81,3.81,0,0,1-2.81-1.31,3.94,3.94,0,0,1-.67-2.85,3.75,3.75,0,0,1,1.33-2.58,4,4,0,0,1,3.13-.79,3.72,3.72,0,0,1,2.56,1.51A6.37,6.37,0,0,1,579.86,240.28ZM577.59,239c-.06-1.06-.66-1.61-1.83-1.66s-1.77.55-1.82,1.51a1.83,1.83,0,0,0,3.65.15Z"/><path class="cls-1" d="M581.88,243.57v-1.51h4.71v1.51Z"/><path class="cls-1" d="M591.5,235.23h2.27v11.4H591.5v-8.35L590,239.78l-1.52-1.51Z"/><path class="cls-1" d="M603.13,240.85l.37.15a2.22,2.22,0,0,1,1.18,2.28,2.92,2.92,0,0,1-1.26,2.35,4.57,4.57,0,0,1-2.92,1,6.63,6.63,0,0,1-2.65-.46A5.84,5.84,0,0,1,596,245l1.52-1.52a3.61,3.61,0,0,0,2.59,1.06c1,0,1.64-.21,1.89-.64a1.2,1.2,0,0,0,0-1.29c-.25-.43-1.13-.68-2.65-.73v-2.05c1.52.11,2.4-.06,2.65-.49a1.2,1.2,0,0,0,0-1.29c-.25-.43-.88-.65-1.89-.65a2.71,2.71,0,0,0-2.21.92l-1.51-1.52a5,5,0,0,1,1.63-1.14,6.4,6.4,0,0,1,2.46-.38,4,4,0,0,1,2.77,1,3,3,0,0,1,1.11,2.35,2.26,2.26,0,0,1-1,2.16Z"/><path class="cls-1" d="M607.19,240a2.81,2.81,0,0,1-.82-2,2.8,2.8,0,0,1,2.86-2.85,2.8,2.8,0,0,1,2.85,2.85,2.79,2.79,0,0,1-2.85,2.85A2.8,2.8,0,0,1,607.19,240Zm2-.54a1.36,1.36,0,0,0,1-.43,1.57,1.57,0,0,0,.4-1.08,1.52,1.52,0,0,0-.4-1.07,1.37,1.37,0,0,0-1-.43,1.32,1.32,0,0,0-1,.43,1.49,1.49,0,0,0-.41,1.07,1.53,1.53,0,0,0,.41,1.08A1.33,1.33,0,0,0,609.21,239.5Zm-.61,7.12,6.45-11.39h1.85l-6.43,11.39Zm5.66-.75a2.74,2.74,0,0,1-.82-2,2.71,2.71,0,0,1,.82-2,2.89,2.89,0,0,1,4,0,2.7,2.7,0,0,1,.81,2,2.85,2.85,0,0,1-4.84,2Zm2-.56a1.32,1.32,0,0,0,1-.42,1.45,1.45,0,0,0,.4-1,1.43,1.43,0,0,0-.4-1,1.41,1.41,0,0,0-2,0,1.43,1.43,0,0,0-.4,1,1.45,1.45,0,0,0,.4,1A1.33,1.33,0,0,0,616.24,245.31Z"/></svg>