<svg id="Content" xmlns="http://www.w3.org/2000/svg" xmlns:xlink="http://www.w3.org/1999/xlink" viewBox="0 0 640 1136"><defs><style>.cls-1{fill:url(#New_Gradient_Swatch_1);}.cls-2{fill:#fff;}.cls-3{fill:#ba9544;}</style><linearGradient id="New_Gradient_Swatch_1" x1="135.32" y1="521.72" x2="224.45" y2="521.72" gradientUnits="userSpaceOnUse"><stop offset="0" stop-color="#a88a34"/><stop offset="0.49" stop-color="#caaf67"/><stop offset="1" stop-color="#957f2e"/></linearGradient></defs><title>sweet</title><polygon class="cls-1" points="172.34 567.31 135.32 524.55 164.54 476.13 219.63 488.95 224.45 545.31 172.34 567.31"/><path class="cls-2" d="M202,506.28a2.22,2.22,0,0,1-1.57-.65,2.2,2.2,0,0,1-.65-1.56,3.58,3.58,0,0,0-3.58-3.58H195a2.41,2.41,0,0,0-2.42,2.41v8.35a11.76,11.76,0,0,0-15.48,1l-2.24,2.24a11.77,11.77,0,0,0-1,15.49h-8.36a2.41,2.41,0,0,0-2.41,2.41v1.17a3.58,3.58,0,0,0,3.58,3.58,2.2,2.2,0,0,1,1.56.65,2.16,2.16,0,0,1,.65,1.56,3.58,3.58,0,0,0,3.58,3.58h1.17a2.41,2.41,0,0,0,2.42-2.41v-8.35a11.78,11.78,0,0,0,15.48-1l2.24-2.24a11.76,11.76,0,0,0,1-15.48h8.36a2.41,2.41,0,0,0,2.41-2.41v-1.17a3.58,3.58,0,0,0-3.58-3.58"/><path class="cls-3" d="M143.43,594.55a7.59,7.59,0,0,1,2.4,1.68l-2.23,2.23a3.87,3.87,0,0,0-3.13-1.34c-1.34,0-2.2.32-2.57,1a1.31,1.31,0,0,0,0,1.62,4.43,4.43,0,0,0,2.57,1,8.37,8.37,0,0,1,3.86,1.39,4.22,4.22,0,0,1,1.73,3.75,4.3,4.3,0,0,1-1.85,3.46,6.76,6.76,0,0,1-4.31,1.45,9.85,9.85,0,0,1-3.9-.67,8.51,8.51,0,0,1-2.68-1.79l2.24-2.23a5.31,5.31,0,0,0,3.79,1.56c1.49,0,2.42-.31,2.79-1a1.76,1.76,0,0,0,0-1.9q-.55-.94-2.79-1.17a9,9,0,0,1-3.68-1.23,3.7,3.7,0,0,1-1.68-3.46,4.18,4.18,0,0,1,1.91-3.57,6.68,6.68,0,0,1,3.91-1.35A9.36,9.36,0,0,1,143.43,594.55Z"/><path class="cls-3" d="M159.24,598.46l-3.35,12.29h-3.35L148.06,594h3.57l2.92,11.4,3-11.4H161l2.9,11.4,2.91-11.4h3.57l-4.47,16.76h-3.35Z"/><path class="cls-3" d="M172.85,610.75V594l12.31,0v3.13h-9v3.58h6.71v3.11H176.2v3.81h8.94v3.13Z"/><path class="cls-3" d="M188.49,610.75V594l12.31,0v3.13h-9v3.58h6.71v3.11h-6.71v3.81h8.94v3.13Z"/><path class="cls-3" d="M217.85,594v3.13h-5.59v13.63h-3.35V597.12h-5.59V594Z"/></svg>