<svg id="Content" xmlns="http://www.w3.org/2000/svg" width="300" height="600" viewBox="0 0 300 600"><defs><style>.cls-1{fill:#ba9544;}</style></defs><title>Frame1 - Sensi Star</title><path class="cls-1" d="M86.688,368.606c3.34863,0,5.06982,2.00293,5.06982,5.50782v.68847H88.50293v-.90722c0-1.56446-.626-2.16016-1.72119-2.16016s-1.72119.5957-1.72119,2.16016c0,4.50586,6.72851,5.35156,6.72851,11.61035,0,3.50488-1.75244,5.50879-5.13232,5.50879-3.38037,0-5.13281-2.00391-5.13281-5.50879V384.1597h3.25488v1.56543c0,1.56446.68848,2.127,1.78369,2.127,1.0957,0,1.78418-.5625,1.78418-2.127,0-4.50781-6.729-5.35156-6.729-11.61132C81.61768,370.60892,83.33936,368.606,86.688,368.606Z"/><path class="cls-1" d="M100.51758,378.08842h4.72558v3.1289h-4.72558v6.416h5.94629v3.12988H97.0752V368.856h9.38867v3.12989h-5.94629Z"/><path class="cls-1" d="M114.97314,374.896v15.86719H111.875V368.856h4.31885L119.73,381.96927V368.856h3.0669v21.90723h-3.53614Z"/><path class="cls-1" d="M133.21533,368.606c3.34863,0,5.06983,2.00293,5.06983,5.50782v.68847h-3.25489v-.90722c0-1.56446-.626-2.16016-1.72119-2.16016s-1.72119.5957-1.72119,2.16016c0,4.50586,6.72852,5.35156,6.72852,11.61035,0,3.50488-1.75245,5.50879-5.13233,5.50879-3.38037,0-5.13281-2.00391-5.13281-5.50879V384.1597h3.25488v1.56543c0,1.56446.68848,2.127,1.78369,2.127,1.09571,0,1.78418-.5625,1.78418-2.127,0-4.50781-6.729-5.35156-6.729-11.61132C128.145,370.60892,129.8667,368.606,133.21533,368.606Z"/><path class="cls-1" d="M143.60205,368.856h3.44238v21.90723h-3.44238Z"/><path class="cls-1" d="M165.66113,368.606c3.34864,0,5.07032,2.00293,5.07032,5.50782v.68847h-3.25489v-.90722c0-1.56446-.626-2.16016-1.72168-2.16016-1.09472,0-1.7207.5957-1.7207,2.16016,0,4.50586,6.72852,5.35156,6.72852,11.61035,0,3.50488-1.75293,5.50879-5.13282,5.50879s-5.13281-2.00391-5.13281-5.50879V384.1597H163.752v1.56543c0,1.56446.68848,2.127,1.78418,2.127s1.78418-.5625,1.78418-2.127c0-4.50781-6.72949-5.35156-6.72949-11.61132C160.59082,370.60892,162.3125,368.606,165.66113,368.606Z"/><path class="cls-1" d="M175.04688,368.856H185.6875v3.12989h-3.59863v18.77734h-3.44239V371.98588h-3.5996Z"/><path class="cls-1" d="M201.64551,390.76322h-3.47363l-.59473-3.97461h-4.22559l-.59472,3.97461h-3.16016l3.50488-21.90723h5.03906ZM193.79,383.815h3.31738l-1.6582-11.07813Z"/><path class="cls-1" d="M213.75293,390.76322a6.74561,6.74561,0,0,1-.3125-2.69141v-3.44238c0-2.03418-.68848-2.78516-2.25293-2.78516h-1.18945v8.91895h-3.44239V368.856H211.75c3.56836,0,5.10156,1.65821,5.10156,5.03907v1.7207c0,2.25391-.71972,3.72461-2.25293,4.44434,1.72071.71972,2.28418,2.37792,2.28418,4.66308v3.37988a6.44446,6.44446,0,0,0,.376,2.66016Zm-3.75488-18.77734v6.72851h1.3457c1.2832,0,2.06543-.56347,2.06543-2.31543v-2.16015c0-1.56446-.53223-2.25293-1.75293-2.25293Z"/></svg>