<svg id="Content" xmlns="http://www.w3.org/2000/svg" viewBox="0 0 640 100"><defs><style>.cls-1{fill:#ba9544;}</style></defs><title>Frame1 - Daytime CBD</title><path class="cls-1" d="M231.89,37h5.92c3.74,0,5.57,2.07,5.57,5.88v12c0,3.81-1.83,5.88-5.57,5.88h-5.92Zm3.74,3.4v17h2.11c1.19,0,1.9-.61,1.9-2.31V42.7c0-1.7-.71-2.31-1.9-2.31Z"/><path class="cls-1" d="M260.79,60.78H257l-.64-4.31h-4.59l-.65,4.31H247.7L251.51,37H257Zm-8.53-7.54h3.6l-1.8-12Z"/><path class="cls-1" d="M266.23,52.9,261.5,37h3.91l2.86,10.84L271.12,37h3.57L270,52.9v7.88h-3.74Z"/><path class="cls-1" d="M276.67,37h11.56v3.4h-3.91V60.78h-3.74V40.39h-3.91Z"/><path class="cls-1" d="M292.78,37h3.74V60.78h-3.74Z"/><path class="cls-1" d="M310.77,53.88,313.32,37h5.2V60.78H315V43.72L312.4,60.78h-3.54L306.08,44V60.78h-3.27V37H308Z"/><path class="cls-1" d="M328.58,47h5.14v3.4h-5.14v7H335v3.4h-10.2V37H335v3.4h-6.46Z"/><path class="cls-1" d="M360.68,51.91v3.16c0,3.81-1.9,6-5.58,6s-5.57-2.18-5.57-6V42.7c0-3.81,1.9-6,5.57-6s5.58,2.17,5.58,6V45h-3.54V42.46c0-1.7-.74-2.35-1.93-2.35s-1.94.65-1.94,2.35V55.31c0,1.7.75,2.31,1.94,2.31s1.93-.61,1.93-2.31v-3.4Z"/><path class="cls-1" d="M377.75,42.46v.85c0,2.45-.75,4-2.42,4.79,2,.79,2.79,2.59,2.79,5.1v1.94c0,3.67-1.94,5.64-5.68,5.64h-5.88V37h5.65C376.08,37,377.75,38.79,377.75,42.46Zm-7.45-2.07v6.29h1.46c1.4,0,2.25-.62,2.25-2.52V42.83c0-1.7-.58-2.44-1.91-2.44Zm0,9.69v7.3h2.14c1.26,0,1.94-.57,1.94-2.34V53c0-2.2-.71-2.88-2.41-2.88Z"/><path class="cls-1" d="M384,37h5.91c3.74,0,5.58,2.07,5.58,5.88v12c0,3.81-1.84,5.88-5.58,5.88H384Zm3.74,3.4v17h2.11c1.19,0,1.9-.61,1.9-2.31V42.7c0-1.7-.71-2.31-1.9-2.31Z"/></svg>