<svg id="Content" xmlns="http://www.w3.org/2000/svg" viewBox="0 0 640 1136"><defs><style>.cls-1{fill:#fff;stroke:#ba9544;stroke-miterlimit:10;stroke-width:0.96px;}.cls-2{fill:#ba9544;}</style></defs><title>THC - MK Ultra</title><polygon class="cls-1" points="505.99 690.2 150.11 688.85 132.15 714.75 150.11 740.2 505.99 739.6 522.16 714.9 505.99 690.2"/><polygon class="cls-2" points="150.37 688.85 132.41 714.75 150.37 740.2 204.91 740.2 205.09 688.85 150.37 688.85"/><path class="cls-2" d="M353.8,706.27v3.25H348v14.17h-3.48V709.52H338.7v-3.25Z"/><path class="cls-2" d="M356.39,723.69V706.27h3.49v7H368v-7h3.48v17.42H368v-7.2h-8.12v7.2Z"/><path class="cls-2" d="M376.89,721.19a8.71,8.71,0,0,1,6.19-14.92,9.45,9.45,0,0,1,6.41,2.32l-2.33,2.54a6.4,6.4,0,0,0-4.08-1.39,5.16,5.16,0,0,0-3.78,1.46,5.1,5.1,0,0,0-1.43,3.72,5.25,5.25,0,0,0,1.45,3.86,5.15,5.15,0,0,0,3.79,1.43,6.2,6.2,0,0,0,4.05-1.39l2.33,2.55a9.42,9.42,0,0,1-6.41,2.32A8.48,8.48,0,0,1,376.89,721.19Z"/><path class="cls-2" d="M393.39,712.58a1.7,1.7,0,0,1,1.25-.47,1.75,1.75,0,0,1,1.3.47,1.68,1.68,0,0,1,0,2.33,2,2,0,0,1-2.55,0,1.68,1.68,0,0,1,0-2.33Zm0,8.32a1.66,1.66,0,0,1,1.25-.47,1.72,1.72,0,0,1,1.3.47,1.68,1.68,0,0,1,0,2.33,2,2,0,0,1-2.55,0,1.68,1.68,0,0,1,0-2.33Z"/><path class="cls-2" d="M411.94,706.27h3.47v17.43h-3.47V710.91l-2.32,2.33-2.33-2.33Z"/><path class="cls-2" d="M418.88,715.22a10.55,10.55,0,0,1,1.8-6.54,5.89,5.89,0,0,1,4.83-2.4,7.23,7.23,0,0,1,4.87,1.73l-1.74,2.32a6.19,6.19,0,0,0-3-.7,3.09,3.09,0,0,0-2.41,1,4.72,4.72,0,0,0-1,3,5.46,5.46,0,0,1,3.49-1.51,5.84,5.84,0,0,1,4.47,1.57,6,6,0,0,1,1.45,4.24A5.74,5.74,0,0,1,430,722a6.19,6.19,0,0,1-4.65,1.68c-2.32-.08-4-.86-5-2.36A10.85,10.85,0,0,1,418.88,715.22Zm3.84,2.67c.07,1.62,1,2.47,2.79,2.54s2.71-.84,2.78-2.32c-.07-1.93-1-2.9-2.9-2.9A2.58,2.58,0,0,0,422.72,717.89Z"/><path class="cls-2" d="M434.8,719v-2.31H442V719Z"/><path class="cls-2" d="M451.28,706.27a6.56,6.56,0,0,1,4.19,1.28,4.57,4.57,0,0,1,1.63,3.83,8,8,0,0,1-2.32,5.53,16.28,16.28,0,0,1-3.82,3.3h6.27v3.48H445.48v-3.48q1.17,0,4.42-2.91c2.17-1.93,3.43-3.31,3.77-4.12a2.86,2.86,0,0,0-.05-2.44c-.39-.81-1.32-1.22-2.79-1.22a4,4,0,0,0-3.25,1.39l-2.33-2.32a9.57,9.57,0,0,1,2.27-1.74A8.66,8.66,0,0,1,451.28,706.27Z"/><path class="cls-2" d="M462.24,721.19a11.91,11.91,0,0,1,0-12.43,5.58,5.58,0,0,1,9.29,0,12,12,0,0,1,0,12.43,5.57,5.57,0,0,1-9.29,0Zm4.65-.75c.77,0,1.44-.52,2-1.57a9,9,0,0,0,0-7.78c-.58-1.05-1.26-1.57-2-1.57s-1.44.52-2,1.57a9.13,9.13,0,0,0,0,7.78C465.43,719.92,466.11,720.44,466.89,720.44Z"/><path class="cls-2" d="M477.42,713.62a4.49,4.49,0,1,1,3.11,1.25A4.21,4.21,0,0,1,477.42,713.62Zm3.08-.81a2,2,0,0,0,1.59-.67,2.52,2.52,0,0,0,0-3.29,2.1,2.1,0,0,0-1.61-.66,2.07,2.07,0,0,0-1.58.66,2.52,2.52,0,0,0,0,3.29A2.06,2.06,0,0,0,480.5,712.81Zm-.93,10.88,9.87-17.42h2.83l-9.85,17.42Zm8.65-1.15a4.47,4.47,0,1,1,3.09,1.24A4.19,4.19,0,0,1,488.22,722.54Zm3-.85a2,2,0,0,0,1.56-.64,2.28,2.28,0,0,0,.6-1.61,2.25,2.25,0,0,0-.6-1.6,2.05,2.05,0,0,0-1.57-.64,2,2,0,0,0-1.54.64,2.22,2.22,0,0,0-.61,1.6,2.24,2.24,0,0,0,.61,1.61A2,2,0,0,0,491.25,721.69Z"/></svg>