<?xml version="1.0" encoding="utf-8"?>
<!-- Generator: Adobe Illustrator 22.1.0, SVG Export Plug-In . SVG Version: 6.00 Build 0)  -->
<svg version="1.1" id="Layer_1" xmlns="http://www.w3.org/2000/svg" xmlns:xlink="http://www.w3.org/1999/xlink" x="0px" y="0px"
	 viewBox="0 0 162.3 18.3" style="enable-background:new 0 0 162.3 18.3;" xml:space="preserve">
<style type="text/css">
	.st0{fill:#D3B372;}
</style>
<title>frame3</title>
<path class="st0" d="M4.2,18.2c-1.1,0-2.2-0.4-3-1.2C0.4,16.2,0,15.1,0,14V0.2h2.6V14c0,0.4,0.2,0.8,0.5,1.1
	c0.3,0.3,0.7,0.5,1.1,0.4c0.8,0,1.5-0.7,1.5-1.5c0,0,0,0,0,0V0.2h2.8V14c0,1.1-0.4,2.2-1.2,3C6.5,17.8,5.4,18.2,4.2,18.2z"/>
<path class="st0" d="M17.5,0.2l3.6,12v-12h2.7V18h-2.9L17.2,6.6V18h-2.7V0.2H17.5z"/>
<path class="st0" d="M34,18.3c-2.3,0-4.3-1.9-4.3-4.2c0,0,0,0,0,0V4.3c0-1.1,0.4-2.2,1.2-3c1.7-1.7,4.4-1.7,6,0
	c0.8,0.8,1.3,1.9,1.2,3v2h-2.8V4.2c0-0.9-0.7-1.5-1.5-1.5c-0.4,0-0.8,0.2-1.1,0.5c-0.3,0.3-0.5,0.7-0.4,1.1V14
	c0,0.8,0.7,1.5,1.5,1.5c0,0,0,0,0,0c0.4,0,0.8-0.2,1.1-0.4c0.3-0.3,0.5-0.7,0.5-1.1v-2.5h2.8V14C38.2,16.4,36.3,18.3,34,18.3
	C34,18.3,34,18.3,34,18.3L34,18.3z"/>
<path class="st0" d="M48.2,0c1.1,0,2.2,0.4,3,1.2c0.8,0.8,1.3,1.9,1.2,3V14c0,2.3-1.9,4.3-4.3,4.3c-2.3,0-4.3-1.9-4.3-4.3V4.3
	c0-1.1,0.4-2.2,1.2-3C46,0.4,47.1,0,48.2,0z M49.7,4.2c0-0.8-0.7-1.5-1.5-1.5c0,0,0,0,0,0c-0.4,0-0.8,0.2-1.1,0.4
	c-0.3,0.3-0.5,0.7-0.5,1.1v9.7c0,0.4,0.2,0.8,0.5,1.1c0.3,0.3,0.7,0.5,1.1,0.4c0.8,0,1.5-0.7,1.5-1.5c0,0,0,0,0,0V4.2z"/>
<path class="st0" d="M61.1,18L57.9,0.2h2.8L63,14.1l2.2-13.9h2.8L64.8,18H61.1z"/>
<path class="st0" d="M73.9,18V0.2h7.6v2.7h-5v4.9h3.6v2.7h-3.6v4.9h5V18L73.9,18z"/>
<path class="st0" d="M91.2,0.2c1.2-0.1,2.4,0.3,3.3,1.2c0.7,0.9,1,1.9,0.9,3v2.6c0,1.2-0.5,2.4-1.4,3.2l2,7.8h-2.9l-1.6-6.7h-1.8V18
	H87V0.2H91.2z M92.8,4.5c0.1-0.7-0.4-1.4-1.1-1.5c-0.1,0-0.3,0-0.4,0h-1.6v5.7h1.6c0.4,0,0.8-0.2,1.1-0.5c0.3-0.3,0.5-0.7,0.4-1.1
	V4.5z"/>
<path class="st0" d="M109.6,18h-2.7V0.2h3.9l2.5,12.8l2.4-12.8h3.7V18h-2.7V6.8L114.3,18h-2.2l-2.6-11.2L109.6,18z"/>
<path class="st0" d="M129.5,0c1.1,0,2.2,0.4,3,1.2c0.8,0.8,1.3,1.9,1.2,3V14c0,2.3-1.9,4.3-4.2,4.3c-2.3,0-4.3-1.9-4.3-4.2
	c0,0,0,0,0,0V4.3c0-1.1,0.4-2.2,1.2-3C127.3,0.4,128.4,0,129.5,0z M131,4.2c0-0.8-0.7-1.5-1.5-1.5c0,0,0,0,0,0
	c-0.4,0-0.8,0.2-1.1,0.4c-0.3,0.3-0.5,0.7-0.5,1.1v9.7c0,0.4,0.2,0.8,0.5,1.1c0.3,0.3,0.7,0.5,1.1,0.4c0.8,0,1.5-0.7,1.5-1.5
	c0,0,0,0,0,0V4.2z"/>
<path class="st0" d="M144,0.2c1.2-0.1,2.4,0.3,3.3,1.2c0.7,0.9,1,1.9,0.9,3v2.6c0,1.2-0.5,2.4-1.4,3.2l2,7.8h-2.9l-1.6-6.7h-1.8V18
	h-2.7V0.2H144z M145.6,4.5c0.1-0.7-0.4-1.4-1.1-1.5c-0.1,0-0.3,0-0.4,0h-1.6v5.7h1.6c0.4,0,0.8-0.2,1.1-0.5c0.3-0.3,0.5-0.7,0.4-1.1
	V4.5z"/>
<path class="st0" d="M154.7,18V0.2h7.6v2.7h-5v4.9h3.6v2.7h-3.6v4.9h5V18L154.7,18z"/>
</svg>
