<?xml version="1.0" encoding="utf-8"?>
<!-- Generator: Adobe Illustrator 22.1.0, SVG Export Plug-In . SVG Version: 6.00 Build 0)  -->
<svg version="1.1" id="Layer_1" xmlns="http://www.w3.org/2000/svg" xmlns:xlink="http://www.w3.org/1999/xlink" x="0px" y="0px"
	 viewBox="0 0 161.7 48.6" style="enable-background:new 0 0 161.7 48.6;" xml:space="preserve">
<style type="text/css">
	.st0{fill:#D3B372;}
</style>
<title>frame2</title>
<path class="st0" d="M8.9,13.6c0,1.1-0.3,2.3-1,3.2c-0.5,0.6-1.1,1.1-1.8,1.3c-0.5,0.1-1,0.2-1.5,0.2c-0.9,0-1.9-0.2-2.6-0.8
	c-0.6-0.5-1.1-1.1-1.4-1.7C0.2,14.9,0,14.1,0,13.2L2.6,13c0,0.8,0.3,1.6,0.8,2.3c0.3,0.3,0.7,0.5,1.1,0.5c0.6,0,1.1-0.3,1.4-0.9
	c0.2-0.4,0.3-0.8,0.3-1.2c0-0.8-0.4-1.6-1-2.2C4.6,11,3.8,10.3,2.8,9.3C2,8.6,1.4,7.8,0.9,6.9C0.5,6.2,0.3,5.3,0.3,4.4
	C0.2,3,0.8,1.6,1.9,0.8C2.6,0.2,3.5,0,4.4,0c0.9,0,1.7,0.2,2.5,0.6C7.4,1,7.9,1.5,8.2,2c0.3,0.6,0.5,1.3,0.6,2.1L6.2,4.6
	c0-0.6-0.3-1.2-0.6-1.7C5.3,2.6,4.9,2.4,4.5,2.4C4,2.4,3.6,2.7,3.4,3.1C3.1,3.5,3,3.9,3.1,4.4c0,0.9,0.4,1.8,1.1,2.5
	C4.5,7.3,4.9,7.7,5.3,8c0.6,0.5,1,0.9,1.2,1.1c0.6,0.6,1.1,1.2,1.5,2c0.2,0.3,0.3,0.6,0.4,0.8C8.7,12.4,8.8,13,8.9,13.6z"/>
<path class="st0" d="M17.4,18h-2.7V0.2h2.7L17.4,18z"/>
<path class="st0" d="M26.4,0.2l3.6,12v-12h2.7V18h-2.9L26.1,6.6V18h-2.7V0.2H26.4z"/>
<path class="st0" d="M42.9,18.3c-2.3,0-4.3-1.9-4.3-4.2c0,0,0,0,0,0V4.3c0-1.1,0.4-2.2,1.2-3c1.7-1.7,4.4-1.7,6,0
	c0.8,0.8,1.3,1.9,1.2,3v2h-2.8V4.2c0-0.9-0.7-1.5-1.5-1.5c-0.4,0-0.8,0.2-1.1,0.5c-0.3,0.3-0.5,0.7-0.4,1.1V14
	c0,0.8,0.7,1.5,1.5,1.5c0,0,0,0,0,0c0.4,0,0.8-0.2,1.1-0.4c0.3-0.3,0.5-0.7,0.5-1.1v-2.5h2.8V14C47.1,16.4,45.2,18.3,42.9,18.3
	C42.9,18.3,42.9,18.3,42.9,18.3L42.9,18.3z"/>
<path class="st0" d="M52.9,18V0.2h7.6v2.7h-5v4.9h3.6v2.7h-3.6v4.9h5V18L52.9,18z"/>
<path class="st0" d="M74.9,13.9L74.3,18h-2.8l3-17.8h3.7l3,17.8h-2.8l-0.6-4.1L74.9,13.9z M76.3,4.3l-1,7h2L76.3,4.3z"/>
<path class="st0" d="M90,0.2l3.6,12v-12h2.7V18h-2.9L89.7,6.6V18H87V0.2H90z"/>
<path class="st0" d="M106.5,18.3c-2.3,0-4.3-1.9-4.3-4.2c0,0,0,0,0,0V4.3c0-1.1,0.4-2.2,1.2-3c1.7-1.7,4.4-1.7,6,0
	c0.8,0.8,1.3,1.9,1.2,3v2H108V4.2c0-0.9-0.7-1.5-1.5-1.5c-0.4,0-0.8,0.2-1.1,0.5c-0.3,0.3-0.5,0.7-0.4,1.1V14c0,0.8,0.7,1.5,1.5,1.5
	c0,0,0,0,0,0c0.4,0,0.8-0.2,1.1-0.4c0.3-0.3,0.5-0.7,0.5-1.1v-2.5h2.8V14C110.7,16.4,108.8,18.3,106.5,18.3
	C106.5,18.3,106.5,18.3,106.5,18.3L106.5,18.3z"/>
<path class="st0" d="M119.2,18h-2.7V0.2h2.7V18z"/>
<path class="st0" d="M125.2,18V0.2h7.6v2.7h-5v4.9h3.6v2.7h-3.6v4.9h5V18L125.2,18z"/>
<path class="st0" d="M141.3,0.2l3.6,12v-12h2.7V18h-2.9L141,6.6V18h-2.7V0.2H141.3z"/>
<path class="st0" d="M156.2,2.9h-2.9V0.2h8.4v2.7h-2.8V18h-2.7V2.9z"/>
<path class="st0" d="M52.1,33.3h-2.9v-2.7h8.4v2.7h-2.8v15.1h-2.7V33.3z"/>
<path class="st0" d="M66.1,48.4h-2.7V30.6h2.7V48.4z"/>
<path class="st0" d="M74.7,48.4h-2.7V30.6h3.9l2.5,12.8l2.4-12.8h3.7v17.8h-2.7V37.2l-2.3,11.2h-2.2l-2.6-11.2L74.7,48.4z"/>
<path class="st0" d="M90.5,48.4V30.6h7.6v2.7h-5v4.9h3.6v2.7h-3.6v4.9h5v2.7L90.5,48.4z"/>
<path class="st0" d="M112.5,44c0.1,1.1-0.3,2.3-1,3.2c-0.5,0.6-1.1,1.1-1.8,1.3c-0.5,0.1-1,0.2-1.5,0.2c-0.9,0-1.9-0.2-2.6-0.8
	c-0.6-0.5-1.1-1.1-1.4-1.7c-0.4-0.8-0.6-1.7-0.6-2.5l2.6-0.2c0,0.8,0.3,1.6,0.8,2.3c0.3,0.3,0.7,0.5,1.1,0.5c0.6,0,1.1-0.3,1.4-0.9
	c0.2-0.4,0.3-0.8,0.3-1.2c0-0.8-0.4-1.6-1-2.2c-0.5-0.5-1.3-1.3-2.4-2.3c-0.7-0.7-1.4-1.5-1.9-2.3c-0.4-0.8-0.6-1.6-0.6-2.5
	c-0.1-1.4,0.5-2.8,1.6-3.7c0.7-0.5,1.6-0.8,2.5-0.8c0.9,0,1.7,0.2,2.5,0.6c0.5,0.3,1,0.8,1.3,1.4c0.3,0.6,0.5,1.3,0.6,2.1l-2.6,0.5
	c0-0.6-0.3-1.2-0.6-1.7c-0.3-0.3-0.7-0.5-1.1-0.4c-0.5,0-0.9,0.2-1.1,0.7c-0.2,0.4-0.3,0.9-0.3,1.3c0,0.9,0.4,1.8,1.1,2.5
	c0.4,0.4,0.8,0.8,1.2,1.1c0.6,0.5,1,0.9,1.2,1.1c0.6,0.6,1.1,1.2,1.5,2c0.2,0.3,0.3,0.6,0.4,0.8C112.3,42.8,112.5,43.4,112.5,44z"/>
</svg>
