<svg xmlns="http://www.w3.org/2000/svg" width="300" height="600" viewBox="0 0 300 600"><defs><style>.cls-1{fill:#ba9544;}</style></defs><title>Frame1 - Shishkaberry</title><g id="Content"><path class="cls-1" d="M49.46094,284.60074c4.31347,0,6.53076,2.58008,6.53076,7.09473v.88672H51.79883v-1.168c0-2.01562-.80615-2.78223-2.21729-2.78223-1.41064,0-2.21728.76661-2.21728,2.78223,0,5.80469,8.66748,6.89258,8.66748,14.95606,0,4.51464-2.25733,7.09472-6.61133,7.09472s-6.61133-2.58008-6.61133-7.09472v-1.7334h4.19238v2.01562c0,2.01563.88721,2.74121,2.29834,2.74121,1.41065,0,2.29786-.72558,2.29786-2.74121,0-5.80566-8.66748-6.89453-8.66748-14.957C42.93018,287.18082,45.14746,284.60074,49.46094,284.60074Z"/><path class="cls-1" d="M67.28271,313.14274H62.84863V284.923h4.43408v12.09473h5.03956V284.923H76.8374v28.21973H72.32227V301.049H67.28271Z"/><path class="cls-1" d="M84.33984,284.923h4.43409v28.21973H84.33984Z"/><path class="cls-1" d="M102.24072,284.60074c4.31348,0,6.53076,2.58008,6.53076,7.09473v.88672h-4.19287v-1.168c0-2.01562-.80615-2.78223-2.21728-2.78223-1.41065,0-2.2168.76661-2.2168,2.78223,0,5.80469,8.667,6.89258,8.667,14.95606,0,4.51464-2.25732,7.09472-6.61132,7.09472s-6.61133-2.58008-6.61133-7.09472v-1.7334h4.19238v2.01562c0,2.01563.88721,2.74121,2.29785,2.74121,1.41113,0,2.29834-.72558,2.29834-2.74121,0-5.80566-8.66748-6.89453-8.66748-14.957C95.71,287.18082,97.92725,284.60074,102.24072,284.60074Z"/><path class="cls-1" d="M120.0625,313.14274h-4.43457V284.923h4.43457v12.09473h5.03955V284.923h4.51514v28.21973h-4.51514V301.049H120.0625Z"/><path class="cls-1" d="M142.92383,301.89469l-1.37061,2.58008v8.668h-4.43408V284.923h4.43408v12.2959l5.80518-12.2959H151.793l-6.168,12.57813,6.168,15.6416h-4.55518Z"/><path class="cls-1" d="M172.4375,313.14274h-4.47461l-.76562-5.11914h-5.44336l-.76563,5.11914H156.916l4.51562-28.21973h6.49024Zm-10.11914-8.94922h4.27344L164.45508,289.922Z"/><path class="cls-1" d="M192.0332,291.41422V292.422c0,2.90235-.88672,4.75586-2.86132,5.6836,2.37792.92773,3.30468,3.06445,3.30468,6.04687v2.29883c0,4.35352-2.29687,6.69141-6.73242,6.69141h-6.97363V284.923h6.69238C190.05859,284.923,192.0332,287.05973,192.0332,291.41422Zm-8.82812-2.46v7.458h1.7334c1.65332,0,2.66113-.72559,2.66113-2.98242v-1.57227c0-2.01562-.68555-2.90332-2.25781-2.90332Zm0,11.48926v8.668h2.53906c1.49219,0,2.29883-.68555,2.29883-2.78125v-2.459c0-2.62109-.84766-3.42773-2.86328-3.42773Z"/><path class="cls-1" d="M203.84863,296.81559h6.08692v4.03125h-6.08692v8.26465h7.65918v4.03125H199.41406V284.923h12.09375v4.03125h-7.65918Z"/><path class="cls-1" d="M227.79883,313.14274a8.662,8.662,0,0,1-.4043-3.4668v-4.43457c0-2.62012-.88672-3.58789-2.90234-3.58789h-1.53125v11.48926h-4.43457V284.923h6.69238c4.5957,0,6.57031,2.13672,6.57031,6.49121v2.2168c0,2.90234-.92676,4.79687-2.90234,5.72461,2.2168.92773,2.94336,3.06347,2.94336,6.00586V309.716a8.31587,8.31587,0,0,0,.4834,3.42676Zm-4.83789-24.18848v8.667h1.7334c1.65332,0,2.66113-.72461,2.66113-2.98242v-2.78125c0-2.01562-.68555-2.90332-2.25781-2.90332Z"/><path class="cls-1" d="M248.28125,313.14274a8.69712,8.69712,0,0,1-.40234-3.4668v-4.43457c0-2.62012-.88672-3.58789-2.90235-3.58789h-1.5332v11.48926h-4.43359V284.923h6.6914c4.59571,0,6.57227,2.13672,6.57227,6.49121v2.2168c0,2.90234-.92774,4.79687-2.90332,5.72461,2.21777.92773,2.94238,3.06347,2.94238,6.00586V309.716a8.31534,8.31534,0,0,0,.48438,3.42676Zm-4.83789-24.18848v8.667h1.73437c1.65235,0,2.66016-.72461,2.66016-2.98242v-2.78125c0-2.01562-.68555-2.90332-2.25781-2.90332Z"/><path class="cls-1" d="M263.64453,303.7902,258.041,284.923h4.63671l3.38575,12.86035,3.38574-12.86035h4.2334L268.0791,303.7902v9.35254h-4.43457Z"/></g></svg>