<svg xmlns="http://www.w3.org/2000/svg" xmlns:xlink="http://www.w3.org/1999/xlink" width="727.99955" height="90" viewBox="0 0 727.99955 90"><defs><style>.cls-1{fill:#ba9544;}.cls-2{fill:#fff;stroke:#ba9544;stroke-miterlimit:10;stroke-width:0.5px;}.cls-3{clip-path:url(#clip-path);}</style><clipPath id="clip-path"><polygon class="cls-1" points="221.661 59.938 228.27 69.3 228.4 69.311 228.4 50.41 228.27 50.405 221.661 59.938"/></clipPath></defs><title>CBD - MK Ultra</title><g id="Content"><polygon class="cls-2" points="359.055 50.88 228.126 50.384 221.517 59.915 228.126 69.277 359.055 69.054 365.003 59.968 359.055 50.88"/><polygon class="cls-1" points="221.661 59.938 228.27 69.3 228.4 69.311 228.4 50.41 228.27 50.405 221.661 59.938"/><g class="cls-3"><rect class="cls-1" x="220.19918" y="48.94417" width="9.65935" height="21.82789"/></g><path class="cls-1" d="M298.436,63.06007a3.20665,3.20665,0,0,1,2.28027-5.48926,3.4687,3.4687,0,0,1,2.35449.8545l-.85449.93652a2.36337,2.36337,0,0,0-1.5-.51367,1.88075,1.88075,0,0,0-1.39062.53906,1.85945,1.85945,0,0,0-.52832,1.36719,1.92178,1.92178,0,0,0,.53418,1.41894,1.89308,1.89308,0,0,0,1.39355.52539,2.293,2.293,0,0,0,1.49121-.50879l.85449.93653a3.46,3.46,0,0,1-2.35449.85449A3.123,3.123,0,0,1,298.436,63.06007Z"/><path class="cls-1" d="M309.00342,60.60011a1.8206,1.8206,0,0,1-1.043,3.38477L304.354,63.981V57.57472h3.40136q1.62012.09375,1.709,1.88477A1.33824,1.33824,0,0,1,309.00342,60.60011Zm-3.36328-.457h1.79492a.72325.72325,0,0,0,.79492-.79883q-.022-.47021-.78222-.49609h-1.80762Zm0,2.83789h2.09375a.83676.83676,0,0,0,.92285-.92773q-.0205-.61524-.91016-.64063h-2.10644Z"/><path class="cls-1" d="M311.17432,63.981V57.56691h2.4707q2.99121,0,2.99121,3.209,0,3.20508-2.99121,3.20508Zm2.4707-1.27734q1.70508-.00586,1.709-1.92774-.00439-1.92333-1.709-1.92383h-1.18847v3.85157Z"/><path class="cls-1" d="M318.06787,59.89308a.62023.62023,0,0,1,.46192-.17285.64315.64315,0,0,1,.47851.17285.586.586,0,0,1,.1709.42969.58.58,0,0,1-.1709.42773.73557.73557,0,0,1-.94043,0,.58006.58006,0,0,1-.1709-.42773A.58607.58607,0,0,1,318.06787,59.89308Zm0,3.06055a.62078.62078,0,0,1,.46192-.17383.6436.6436,0,0,1,.47851.17383.62194.62194,0,0,1,0,.85644.73233.73233,0,0,1-.94043,0,.62194.62194,0,0,1,0-.85644Z"/><path class="cls-1" d="M327.23877,59.4087l-2.47949,1.36719,2.47949,1.36719v.9834L323.187,60.89992V60.6216l4.05176-2.19629Z"/><path class="cls-1" d="M332.78955,57.57081v-.0039h1.27832V63.981h-1.27832V59.2798l-.85449.85547-.85449-.85547Z"/></g></svg>