<svg xmlns="http://www.w3.org/2000/svg" width="727.99955" height="90" viewBox="0 0 727.99955 90"><defs><style>.cls-1{fill:#ba9544;}</style></defs><title>Frame1 - MK Ultra</title><g id="Content"><path class="cls-1" d="M239.98877,50.81055l2.39942-15.90332h4.8955V57.30566h-3.32714V41.24316l-2.43165,16.0625h-3.32812l-2.624-15.83886V57.30566h-3.07129V34.90723h4.8955Z"/><path class="cls-1" d="M257.84424,48.37793l-1.08789,2.04785v6.87988h-3.51953V34.90723h3.51953V44.667l4.60742-9.75976h3.52051l-4.89648,9.98339,4.89648,12.415h-3.61621Z"/><path class="cls-1" d="M281.5874,34.90723V52.18555c0,1.60058.70411,2.17675,1.82422,2.17675s1.82422-.57617,1.82422-2.17675V34.90723H288.563V51.96191c0,3.584-1.792,5.63184-5.24707,5.63184-3.45605,0-5.248-2.04785-5.248-5.63184V34.90723Z"/><path class="cls-1" d="M294.356,34.90723h3.51953V54.10547h5.792v3.20019H294.356Z"/><path class="cls-1" d="M307.57178,34.90723h10.87891v3.20019H314.771V57.30566h-3.51953V38.10742h-3.67969Z"/><path class="cls-1" d="M330.73877,57.30566a6.87839,6.87839,0,0,1-.32031-2.752V51.03418c0-2.08008-.7041-2.84766-2.30371-2.84766h-1.21582v9.11914H323.3794V34.90723h5.31152c3.64746,0,5.21582,1.69629,5.21582,5.15136v1.75977c0,2.30469-.73633,3.80859-2.30371,4.54394,1.75977.73633,2.33594,2.43165,2.33594,4.76758v3.45606a6.5869,6.5869,0,0,0,.38379,2.71972Zm-3.83984-19.19824v6.87891h1.376c1.31153,0,2.11231-.57617,2.11231-2.36719v-2.208c0-1.60058-.54395-2.30371-1.792-2.30371Z"/><path class="cls-1" d="M351.02588,57.30566h-3.55176l-.60742-4.06347h-4.31933l-.6084,4.06347h-3.23145l3.583-22.39843h5.15234Zm-8.03125-7.10351h3.3916L344.69092,38.875Z"/></g></svg>