<svg id="Layer_1" data-name="Layer 1" xmlns="http://www.w3.org/2000/svg" width="160" height="600" viewBox="0 0 160 600"><defs><style>.cls-1{fill:#ab9555;}</style></defs><title>frame1</title><path class="cls-1" d="M26.58238,296.00586V279.084h7.26074v2.564h-4.71v4.61523h3.44141v2.56348H29.13316v4.61523h4.71v2.564Z"/><path class="cls-1" d="M45.892,291.95752a3.91924,3.91924,0,0,1-1.17383,2.86084,3.83843,3.83843,0,0,1-2.834,1.1875H37.87632V279.084h4.00782a3.83345,3.83345,0,0,1,2.84082,1.1875,3.9164,3.9164,0,0,1,1.167,2.84717Zm-5.46484,1.5249h1.53808a1.36359,1.36359,0,0,0,1.02637-.43847,1.44838,1.44838,0,0,0,.418-1.03223v-8.85254a1.42869,1.42869,0,0,0-.42481-1.03906,1.3817,1.3817,0,0,0-1.01953-.43164H40.42711Z"/><path class="cls-1" d="M54.43394,296.19482a4.00787,4.00787,0,0,1-4.03515-4.02148V279.09766h2.49609v13.04882a1.39676,1.39676,0,0,0,.43164,1.03223,1.42806,1.42806,0,0,0,1.03906.42529,1.45124,1.45124,0,0,0,1.458-1.45752V279.09766h2.6582v13.07568a3.84051,3.84051,0,0,1-1.1875,2.86084A3.94441,3.94441,0,0,1,54.43394,296.19482Z"/><path class="cls-1" d="M67.03648,296.22168a4.03275,4.03275,0,0,1-4.04883-4.03467v-9.23a4.042,4.042,0,1,1,8.084,0v1.92969H68.42613v-1.98389a1.47372,1.47372,0,0,0-1.4707-1.4707,1.39413,1.39413,0,0,0-1.03223.43164,1.42876,1.42876,0,0,0-.4248,1.03906v9.25733a1.45043,1.45043,0,0,0,1.457,1.457,1.42793,1.42793,0,0,0,1.03906-.42481,1.39386,1.39386,0,0,0,.43164-1.03222v-2.33448h2.64551V292.187a4.031,4.031,0,0,1-4.03516,4.03467Z"/><path class="cls-1" d="M78.08336,292.11963l-.61914,3.88623H74.808l2.875-16.9082h3.50781l2.834,16.9082H81.34312l-.59668-3.88623Zm1.33984-9.14942-.94434,6.66651h1.88868Z"/><path class="cls-1" d="M88.77574,281.66162H86.06285v-2.564h7.96191v2.564H91.32554v14.34424h-2.5498Z"/><path class="cls-1" d="M100.90562,296.00586H98.35484v-16.9082h2.55078Z"/><path class="cls-1" d="M109.475,278.88135a4.04271,4.04271,0,0,1,4.04785,4.04834v9.23047a4.04153,4.04153,0,1,1-8.083,0v-9.23047a4.04355,4.04355,0,0,1,4.03516-4.04834Zm1.38965,3.99463a1.45125,1.45125,0,0,0-1.457-1.45752,1.42489,1.42489,0,0,0-1.03906.42529,1.3931,1.3931,0,0,0-.43164,1.03223v9.25683a1.395,1.395,0,0,0,.43164,1.03272,1.42637,1.42637,0,0,0,1.03906.4248,1.45043,1.45043,0,0,0,1.457-1.45752Z"/><path class="cls-1" d="M120.90562,279.084l3.38477,11.37256V279.084h2.55078v16.92188h-2.73926l-3.50879-10.83594v10.83594h-2.55078V279.084Z"/><path class="cls-1" d="M130.87437,293.46875h2.55078v2.55078h-2.55078Z"/></svg>