<svg id="Layer_1" data-name="Layer 1" xmlns="http://www.w3.org/2000/svg" width="320" height="50" viewBox="0 0 320 50"><defs><style>.cls-1{fill:#ab9555;}</style></defs><title>frame4</title><path class="cls-1" d="M128.644,30.375V20.5781H130.855a2.82146,2.82146,0,0,1,1.57813.46093,2.14693,2.14693,0,0,1,.85937,1.21094,3.41115,3.41115,0,0,1,.14063,1.03906,2.30069,2.30069,0,0,1-.52344,1.57813,1.48657,1.48657,0,0,1-.51563.38281,1.7153,1.7153,0,0,1,.83594.74219,2.89909,2.89909,0,0,1,.33594.96875,3.89524,3.89524,0,0,1,.05469.67969,3.27152,3.27152,0,0,1-.35157,1.57812,2.26364,2.26364,0,0,1-1.89062,1.15625Zm1.59375-5.79687h.61719a.90444.90444,0,0,0,.92188-.67188,1.92124,1.92124,0,0,0,.08593-.61719,1.2909,1.2909,0,0,0-.29687-.92187.93605.93605,0,0,0-.71094-.28906h-.61719Zm0,4.33593h.61719a1.04782,1.04782,0,0,0,1.03906-.77343,1.703,1.703,0,0,0,.10157-.60938,1.85788,1.85788,0,0,0-.3125-1.19531,1.0071,1.0071,0,0,0-.82813-.34375h-.61719Z"/><path class="cls-1" d="M135.77393,30.375V20.5781h4.20312v1.48437h-2.72656v2.67188h1.99219v1.48437h-1.99219V28.8906h2.72656V30.375Z"/><path class="cls-1" d="M147.99219,20.58591a2.24985,2.24985,0,0,1,1.71875.67969,2.35937,2.35937,0,0,1,.59375,1.65625v1.42187A2.27863,2.27863,0,0,1,149.62891,26a2.21167,2.21167,0,0,1-1.63672.6875h-.85157V30.375h-1.47656V20.58591Zm.88281,2.35937a.84411.84411,0,0,0-.23047-.61718.822.822,0,0,0-.61328-.23438h-.89063v3.13281h.89063a.80607.80607,0,0,0,.59766-.25.82718.82718,0,0,0,.24609-.60156Z"/><path class="cls-1" d="M154.69238,20.58591a2.252,2.252,0,0,1,1.8125.67969,2.47074,2.47074,0,0,1,.50782,1.65625v1.42187a2.28894,2.28894,0,0,1-.78907,1.75781l1.09375,4.27344H155.7207l-.8955-3.6875h-.98438V30.375h-1.47656V20.58591Zm.88282,2.35937a.74938.74938,0,0,0-.84375-.85156h-.89063v3.13281h.89063a.806.806,0,0,0,.59765-.25.82719.82719,0,0,0,.2461-.60156Z"/><path class="cls-1" d="M159.46338,30.375V20.5781H163.666v1.48437h-2.72608v2.67188h1.9917v1.48437h-1.9917V28.8906H163.666V30.375Z"/><path class="cls-1" d="M170.44434,27.93747a2.75274,2.75274,0,0,1-.53125,1.75,1.914,1.914,0,0,1-1.01563.69531,2.758,2.758,0,0,1-.82031.10938,2.32323,2.32323,0,0,1-1.4375-.42969,2.40564,2.40564,0,0,1-.75391-.957,3.86812,3.86812,0,0,1-.32422-1.38672l1.40625-.10156a2.137,2.137,0,0,0,.45313,1.24023.75258.75258,0,0,0,.60937.27539.91731.91731,0,0,0,.77344-.47656,1.19021,1.19021,0,0,0,.14844-.64941,1.80089,1.80089,0,0,0-.55469-1.21192q-.438-.41454-1.3125-1.24316a5.62654,5.62654,0,0,1-1.03906-1.27442,2.95235,2.95235,0,0,1-.32813-1.377,2.396,2.396,0,0,1,.89844-2.02539,2.2389,2.2389,0,0,1,1.375-.41406,2.49836,2.49836,0,0,1,1.35156.35156,2.03058,2.03058,0,0,1,.707.76563,2.82965,2.82965,0,0,1,.32422,1.13281l-1.41406.25781a1.705,1.705,0,0,0-.34375-.9375.72359.72359,0,0,0-.58594-.24219.67579.67579,0,0,0-.61718.35938,1.38874,1.38874,0,0,0-.17188.71875,2.15511,2.15511,0,0,0,.57813,1.36719,4.84485,4.84485,0,0,0,.65625.625q.51563.4292.67968.60156A5.0146,5.0146,0,0,1,169.999,26.539,4.21984,4.21984,0,0,1,170.22559,27,2.674,2.674,0,0,1,170.44434,27.93747Z"/><path class="cls-1" d="M172.55078,30.375V20.5781h4.20313v1.48437h-2.72657v2.67188h1.99219v1.48437h-1.99219V28.8906h2.72657V30.375Z"/><path class="cls-1" d="M180.30664,20.5781l1.96,6.584v-6.584h1.47656V30.375h-1.58593L180.126,24.10153V30.375h-1.47657V20.5781Z"/><path class="cls-1" d="M187.38086,22.07028h-1.57031V20.58591h4.60937v1.48437h-1.5625V30.375h-1.47656Z"/><path class="cls-1" d="M192.31543,28.90622H193.792v1.47656h-1.47656Z"/></svg>