<svg id="Layer_1" data-name="Layer 1" xmlns="http://www.w3.org/2000/svg" width="320" height="50" viewBox="0 0 320 50"><defs><style>.cls-1{fill:#ab9555;}</style></defs><title>frame1</title><path class="cls-1" d="M141.76807,30.48438a2.32071,2.32071,0,0,1-2.33594-2.32813V20.58594h1.44531v7.55468a.80608.80608,0,0,0,.25.59766.82643.82643,0,0,0,.60156.2461.84025.84025,0,0,0,.84375-.84376V20.58594h1.53907v7.57031a2.22632,2.22632,0,0,1-.6875,1.65625A2.28366,2.28366,0,0,1,141.76807,30.48438Z"/><path class="cls-1" d="M147.96191,20.57812l1.95948,6.584v-6.584H151.398V30.375H149.812l-2.03125-6.27344V30.375H146.3042V20.57812Z"/><path class="cls-1" d="M155.92627,20.58594a2.24988,2.24988,0,0,1,1.71875.67968,2.35941,2.35941,0,0,1,.59375,1.65626v1.42187A2.27863,2.27863,0,0,1,157.563,26a2.21167,2.21167,0,0,1-1.63672.6875h-.85156V30.375h-1.47657V20.58594Zm.88281,2.35937a.84415.84415,0,0,0-.23047-.61719.82206.82206,0,0,0-.61328-.23437h-.89062v3.13281h.89062a.80608.80608,0,0,0,.59766-.25.8272.8272,0,0,0,.24609-.60156Z"/><path class="cls-1" d="M164.32129,30.375h-4.023V20.58594h1.47607v8.32031h2.54688Z"/><path class="cls-1" d="M168.55273,30.48438a2.3207,2.3207,0,0,1-2.33593-2.32813V20.58594h1.44531v7.55468a.80608.80608,0,0,0,.25.59766.82721.82721,0,0,0,.60156.2461.84025.84025,0,0,0,.84375-.84376V20.58594h1.53906v7.57031a2.22628,2.22628,0,0,1-.6875,1.65625A2.28283,2.28283,0,0,1,168.55273,30.48438Z"/><path class="cls-1" d="M175.40918,30.5a2.3406,2.3406,0,0,1-2.34375-2.33594V22.82031a2.33986,2.33986,0,1,1,4.67969,0V23.9375h-1.53125V22.78906a.85356.85356,0,0,0-.85157-.85156.80607.80607,0,0,0-.59765.25.82721.82721,0,0,0-.2461.60156v5.35938a.84026.84026,0,0,0,.84375.84375.83019.83019,0,0,0,.60157-.24512.80393.80393,0,0,0,.25-.59668V26.22656h-.82032V24.74219h2.35157v3.42187A2.33393,2.33393,0,0,1,175.40918,30.5Z"/><path class="cls-1" d="M179.64062,28.90625h1.47657v1.47656h-1.47657Z"/></svg>