<svg id="Layer_1" data-name="Layer 1" xmlns="http://www.w3.org/2000/svg" width="320" height="480" viewBox="0 0 320 480"><defs><style>.cls-1{fill:#fff;}</style></defs><title>frame2</title><path class="cls-1" d="M73.63048,283.379V262.004h4.8169a6.14042,6.14042,0,0,1,3.44531,1.00782,4.69327,4.69327,0,0,1,1.875,2.63672,7.55427,7.55427,0,0,1,.30469,2.27343,5.04807,5.04807,0,0,1-1.13672,3.44532,3.35076,3.35076,0,0,1-1.125.832,3.75912,3.75912,0,0,1,1.81641,1.61718,6.11586,6.11586,0,0,1,.73828,2.10938,8.64984,8.64984,0,0,1,.11718,1.48828,7.19578,7.19578,0,0,1-.76171,3.44531,4.94515,4.94515,0,0,1-4.125,2.51953Zm3.46875-12.64453h1.34815a1.98033,1.98033,0,0,0,2.01562-1.46484,4.2156,4.2156,0,0,0,.1875-1.34766,2.82693,2.82693,0,0,0-.64453-2.01562,2.04574,2.04574,0,0,0-1.55859-.63281H77.09923Zm0,9.457h1.34815a2.292,2.292,0,0,0,2.27344-1.6875,3.64681,3.64681,0,0,0,.22265-1.32421,4.02334,4.02334,0,0,0-.6914-2.61329,2.18843,2.18843,0,0,0-1.80469-.75H77.09923Z"/><path class="cls-1" d="M96.67785,262.004a4.88212,4.88212,0,0,1,3.94922,1.48829,5.37731,5.37731,0,0,1,1.11328,3.60937v3.10547a4.9708,4.9708,0,0,1-1.71973,3.832l2.3877,9.33984H98.93273l-1.96582-8.07421c-.09375.00781-.19141.01171-.292.01171H94.82628v8.0625H91.60363V262.004Zm1.92187,5.15625a1.6341,1.6341,0,0,0-1.834-1.86328H94.82628v6.832h1.93946a1.75042,1.75042,0,0,0,1.30273-.54492,1.808,1.808,0,0,0,.53125-1.30664Z"/><path class="cls-1" d="M109.49328,283.379V262.004h9.17578v3.22266h-5.95313v5.85938h4.34766v3.22265h-4.34766v5.84766h5.95313V283.379Z"/><path class="cls-1" d="M129.34093,278.46886l-.78515,4.91015h-3.35157l3.6211-21.375h4.4414l3.57422,21.375h-3.375l-.76172-4.91015Zm1.6875-11.56641-1.19531,8.42578h2.39063Z"/><path class="cls-1" d="M144.29015,265.22667h-3.42187V262.004H150.923v3.22266h-3.41015V283.379h-3.22266Z"/><path class="cls-1" d="M161.0548,274.33214V283.379h-3.22266V262.004h3.22266v9.082H164.922v-9.082h3.22265v21.375H164.922v-9.04687Z"/><path class="cls-1" d="M175.37121,283.379V262.004H184.547v3.22266h-5.95313v5.85938h4.34766v3.22265h-4.34766v5.84766H184.547V283.379Z"/><path class="cls-1" d="M204.14269,261.7462a5.11134,5.11134,0,0,1,5.12109,5.1211v11.66015a5.11136,5.11136,0,0,1-5.12109,5.1211,4.87644,4.87644,0,0,1-3.60351-1.5,4.96373,4.96373,0,0,1-1.48243-3.6211V266.8673a5.11144,5.11144,0,0,1,5.08594-5.1211Zm1.75781,5.06055a1.82077,1.82077,0,0,0-1.83984-1.83789,1.802,1.802,0,0,0-1.30664.5332,1.7532,1.7532,0,0,0-.54492,1.30469V278.506a1.75877,1.75877,0,0,0,.54492,1.29883,1.792,1.792,0,0,0,1.30664.53906,1.83052,1.83052,0,0,0,1.83984-1.83789Z"/><path class="cls-1" d="M221.48253,283.64855a5.06144,5.06144,0,0,1-5.08593-5.07422V262.004h3.15234v16.53516a1.76305,1.76305,0,0,0,.54492,1.30078,1.792,1.792,0,0,0,1.30664.53906,1.83055,1.83055,0,0,0,1.83985-1.83984V262.004h3.36328v16.57032a4.84642,4.84642,0,0,1-1.5,3.60937A4.99438,4.99438,0,0,1,221.48253,283.64855Z"/><path class="cls-1" d="M236.923,265.22667h-3.42187V262.004h10.05469v3.22266h-3.41016V283.379H236.923Z"/><path class="cls-1" d="M250.09093,280.16808h3.22266v3.22265h-3.22266Z"/></svg>