<svg id="Layer_1" data-name="Layer 1" xmlns="http://www.w3.org/2000/svg" xmlns:xlink="http://www.w3.org/1999/xlink" width="320" height="480" viewBox="0 0 320 480"><defs><style>.cls-1{fill:url(#linear-gradient);}.cls-2{fill:url(#linear-gradient-2);}.cls-3{fill:url(#linear-gradient-3);}.cls-4{fill:url(#linear-gradient-4);}.cls-5{fill:url(#linear-gradient-5);}.cls-6{fill:url(#linear-gradient-6);}.cls-7{fill:url(#linear-gradient-7);}.cls-8{fill:url(#linear-gradient-8);}.cls-9{fill:url(#New_Gradient_Swatch_2);}.cls-10{fill:#a89255;}</style><linearGradient id="linear-gradient" x1="109.93732" y1="75.50051" x2="212.50763" y2="75.50051" gradientUnits="userSpaceOnUse"><stop offset="0" stop-color="#a88a34"/><stop offset="0.49324" stop-color="#caaf67"/><stop offset="1" stop-color="#957f2e"/></linearGradient><linearGradient id="linear-gradient-2" x1="214.06372" y1="296.96276" x2="214.06372" y2="124.9239" gradientUnits="userSpaceOnUse"><stop offset="0" stop-color="#a88a34"/><stop offset="0.49894" stop-color="#caaf67"/><stop offset="1" stop-color="#957f2e"/></linearGradient><linearGradient id="linear-gradient-3" x1="166.40812" y1="207.40042" x2="166.40812" y2="80.37193" xlink:href="#linear-gradient-2"/><linearGradient id="linear-gradient-4" x1="182.5494" y1="250.96853" x2="182.5494" y2="83.79942" xlink:href="#linear-gradient-2"/><linearGradient id="linear-gradient-5" x1="198.26216" y1="254.77698" x2="198.26216" y2="108.4499" xlink:href="#linear-gradient-2"/><linearGradient id="linear-gradient-6" x1="109.70559" y1="152.19293" x2="109.70559" y2="10.81148" xlink:href="#linear-gradient-2"/><linearGradient id="linear-gradient-7" x1="147.26817" y1="187.90996" x2="147.26817" y2="61.62162" xlink:href="#linear-gradient-2"/><linearGradient id="linear-gradient-8" x1="128.08329" y1="169.04995" x2="128.08329" y2="42.02187" xlink:href="#linear-gradient-2"/><linearGradient id="New_Gradient_Swatch_2" x1="220.86383" y1="124.57432" x2="227.92986" y2="124.57432" gradientUnits="userSpaceOnUse"><stop offset="0" stop-color="#a88a34"/><stop offset="0.1878" stop-color="#caaf67"/><stop offset="0.46098" stop-color="#a08a4a"/><stop offset="0.76341" stop-color="#caaf67"/><stop offset="1" stop-color="#957f2e"/></linearGradient></defs><title>logo</title><path class="cls-1" d="M154.98714,109.87633c1.11468-.32875,3.13663,1.5613,3.268,1.5613a2.412,2.412,0,0,0,.67407-1.55659c0-.66733-.47631-1.96533-.56562-2.75085a13.08339,13.08339,0,0,0-.47508-2.27575c-.17391-.51719-1.3826-.74261-2.0312-1.14283a10.59384,10.59384,0,0,1-1.63657-1.133,5.17676,5.17676,0,0,1-.6958-2.37439,9.33422,9.33422,0,0,0-.39041-2.417c-.22582-.42318-.80636-.72217-1.19895-1.11476a1.688,1.688,0,0,1-.40444-1.039c.3011-.094.39511.68177.743.74771s.32446.35253.86971.54055c.54566.188.5644.447.635.9548s.68177,2.22385.88382,2.92435c.20247.70092.41377,1.22784,1.10535,1.2512.6911.02344.59709.38067,1.41027.31521a4.55322,4.55322,0,0,1,1.9517.37588c.43721.15526.98757.16929,1.17551-.136.188-.30581-.13181-1.53794-.13181-1.53794-.28195,0-.32924-.38059-.43721-.7332-.108-.353.06587-.38107.06587-.38107a1.49021,1.49021,0,1,1,2.84023,0s.17391.02806.06586.38107c-.10845.35261-.15525.7332-.43761.7332,0,0-.31943,1.23213-.13141,1.53794.188.30531.73831.29128,1.17552.136a4.55256,4.55256,0,0,1,1.9513-.37588c.81358.06546.71956-.29177,1.41066-.31521.69159-.02336.903-.55028,1.105-1.2512.20246-.7005.81358-2.41657.88423-2.92435s.08931-.76685.635-.9548c.54526-.188.52182-.4746.86972-.54055s.44231-.84172.743-.74771a1.6908,1.6908,0,0,1-.40444,1.039c-.3926.39259-.97313.69158-1.199,1.11476a9.33472,9.33472,0,0,0-.3904,2.417,5.17675,5.17675,0,0,1-.69581,2.37439,10.5978,10.5978,0,0,1-1.63657,1.133c-.649.40022-1.85728.62564-2.03119,1.14283a13.0315,13.0315,0,0,0-.47509,2.27575c-.08931.78552-.56561,2.08352-.56561,2.75085a2.412,2.412,0,0,0,.67406,1.55659c.13141,0,2.15376-1.89005,3.268-1.5613,1.11428.32965.67236,1.89046-.48441,3.04683a4.95424,4.95424,0,0,1-2.39662,1.49454,12.97786,12.97786,0,0,1,1.81948.3402,19.4772,19.4772,0,0,1,5.19711,2.96563,18.88282,18.88282,0,0,0,4.63408,2.70575,3.9561,3.9561,0,0,0,.44832.09831c.15907-.13319.9926-.6142.9926-.6142a18.64889,18.64889,0,0,0,2.09422.89615l-5.33629-4.11478,10.57768,4.60472c.17391.07527.34872.14463.52271.20668l6.39346.114c1.67826.03067,3.33568-.04291,4.87435-.162-1.24009-.76516-2.58326-1.529-4.02289-2.23285l-5.60965-2.74322c-.18673-.02376-.37767-.04169-.57162-.05313l-12.2278-.73449,7.94543-1.381-5.15078-1.67648,8.81514-.05783a29.92431,29.92431,0,0,0,6.01807-.66182l-8.3317-1.58676,12.21036-.54226a11.98206,11.98206,0,0,0,2.044-.2607l-.92714.11226,8.05858-3.78092a72.00969,72.00969,0,0,0,7.46313-4.10245,78.74875,78.74875,0,0,0-8.72925-.52863l-9.15923.02085,1.02026-.33387a11.473,11.473,0,0,0-2.16138.66684l-10.68524,4.45336,6.4663-4.81781-.04932.00812-.14763-1.111L187.887,98.17634a38.71747,38.71747,0,0,0,8.8046-9.08947l-8.63912,4.136,8.80241-7.33131A14.498,14.498,0,0,0,199.65,82.86132c1.13512-1.71566,2.189-3.47342,3.15025-5.25291l-2.72837,2.6943,3.27054-7.11441a93.95689,93.95689,0,0,0,4.83906-13.37906,113.88852,113.88852,0,0,0-12.96732,8.35457l-6.40336,4.85269,2.04231-3.18254c-1.65653,1.40864-3.25822,2.89548-4.78675,4.444a14.03037,14.03037,0,0,0-2.35695,3.30291l-4.67707,8.95766,1.66123-8.176a38.65295,38.65295,0,0,0-3.70524,4.43162l-.81529,1.13723-.74723-.51289a2.13958,2.13958,0,0,0-.11567.19435L168.886,95.79514l3.78854-13.24084a42.03127,42.03127,0,0,0,1.25672-16.61652l-4.42392,8.22195,2.14264-9.8908a16.10169,16.10169,0,0,0,.33468-4.93559,79.67976,79.67976,0,0,0-1.69992-9.98474l-.583,4.85472-1.92063-7.07775a120.42813,120.42813,0,0,0-6.55854-17.75163,120.30719,120.30719,0,0,0-6.55861,17.75163l-1.92023,7.07775-.58346-4.85472a79.75647,79.75647,0,0,0-1.69992,9.98474,16.11072,16.11072,0,0,0,.33468,4.936l2.14013,9.89381-4.4214-8.22406a42.02489,42.02489,0,0,0,1.25671,16.61522l3.789,13.24165-6.42461-12.18311a2.04683,2.04683,0,0,0-.11567-.19435l-.74723.51289-.81528-1.13723a38.6593,38.6593,0,0,0-3.70524-4.43162l1.66163,8.176-4.67748-8.95766a14.03851,14.03851,0,0,0-2.35654-3.30291c-1.52553-1.54556-3.12511-3.03029-4.77993-4.43714l2.04693,3.18505-6.4152-4.862a113.83229,113.83229,0,0,0-12.96733-8.35457,93.94052,93.94052,0,0,0,4.839,13.37906l3.27063,7.11441-2.72838-2.6943c.96121,1.77949,2.01554,3.53725,3.15066,5.25291A14.48454,14.48454,0,0,0,125.59,85.8916l8.80241,7.33131-8.63913-4.136a38.70818,38.70818,0,0,0,8.8046,9.08947l-1.17511,1.93808-.14763,1.111-.04972-.00812,6.46712,4.81822-10.68565-4.45377a11.54218,11.54218,0,0,0-2.1605-.66684l1.01986.33387-9.15972-.02085a78.75476,78.75476,0,0,0-8.72924.52863,72.01053,72.01053,0,0,0,7.46312,4.10245l8.05859,3.78052-.92674-.11226a11.93119,11.93119,0,0,0,2.04361.2611l12.21028.54226-8.33154,1.58676a29.92661,29.92661,0,0,0,6.018.66182l8.83851.05783-5.16863,1.67737,7.94072,1.38009-12.22812.73449q-.29164.01716-.5721.05313l-5.61055,2.74322c-1.43873.70384-2.78183,1.46769-4.022,2.23285,1.53915.11907,3.19608.19216,4.87435.162l6.39354-.114c.17391-.062.34871-.13141.52311-.20668l10.5772-4.60472-5.3363,4.11478a18.6481,18.6481,0,0,0,2.09422-.89615s.83273.4802.99179.61371a3.90063,3.90063,0,0,0,.44865-.09782,18.87581,18.87581,0,0,0,4.63457-2.70575,19.4796,19.4796,0,0,1,5.1971-2.96563,12.97579,12.97579,0,0,1,1.81949-.3402,4.95419,4.95419,0,0,1-2.39662-1.49454C154.31478,111.76679,153.87246,110.206,154.98714,109.87633Z"/><polygon class="cls-2" points="220.195 131.492 220.195 128.376 207.932 128.387 207.932 145.068 220.173 145.068 220.173 141.952 211.271 141.952 211.271 138.158 217.959 138.158 217.959 135.053 211.271 135.053 211.271 131.492 220.195 131.492"/><path class="cls-3" d="M164.74452,128.37625l-6.67671,16.69167h3.56053l1.00159-2.55937h7.56694l1.00159,2.55937,3.55-.01139-6.66531-16.68028Zm-.77873,10.79408,2.53736-6.34331,2.4701,6.34331Z"/><path class="cls-4" d="M187.16755,136.44391a8.27734,8.27734,0,0,0-3.83915-1.39074,4.4,4.4,0,0,1-2.55948-1.002,1.30237,1.30237,0,0,1,0-1.61365q.55688-.94534,2.55948-.9454a3.83328,3.83328,0,0,1,3.11618,1.335l2.22511-2.22565a7.78714,7.78714,0,0,0-2.39227-1.66925,9.31573,9.31573,0,0,0-3.60572-.5563,6.68127,6.68127,0,0,0-3.9,1.34092,4.15331,4.15331,0,0,0-1.89728,3.55552,3.69348,3.69348,0,0,0,1.669,3.44961,8.9698,8.9698,0,0,0,3.67242,1.224q2.22514.22266,2.77635,1.16831a1.76346,1.76346,0,0,1,0,1.89216q-.55061.94542-2.77635.94539a5.28645,5.28645,0,0,1-3.7835-1.55778l-2.226,2.22593a8.42287,8.42287,0,0,0,2.67089,1.78037,9.88482,9.88482,0,0,0,3.88384.66727,6.7407,6.7407,0,0,0,4.28961-1.44643,4.27853,4.27853,0,0,0,1.842-3.44957A4.178,4.178,0,0,0,187.16755,136.44391Z"/><polygon class="cls-5" points="191.029 131.492 196.593 131.492 196.593 145.068 199.931 145.068 199.931 131.492 205.495 131.492 205.495 128.376 191.029 128.376 191.029 131.492"/><polygon class="cls-6" points="113.823 138.836 103.363 128.376 102.25 128.376 102.25 145.068 105.588 145.068 105.588 134.719 115.938 145.068 117.161 145.068 117.161 128.376 113.823 128.376 113.823 138.836"/><polygon class="cls-7" points="147.263 136.61 140.029 128.376 138.917 128.376 138.917 145.068 142.255 145.068 142.255 135.387 147.263 140.951 152.27 135.387 152.281 145.068 155.62 145.068 155.62 128.376 154.507 128.376 147.263 136.61"/><path class="cls-8" d="M126.41977,128.37625,119.743,145.06792h3.56063l1.00159-2.55937h7.567l1.002,2.55937,3.54946-.01139-6.66569-16.68028Zm-.77873,10.79408,2.53686-6.34331,2.47021,6.34331Z"/><path class="cls-9" d="M222.59285,123.32978v3.02984H221.991v-3.02984h-1.12721V122.789H223.725v.54077Zm4.78088,3.02984-.005-2.66767-1.12721,2.29512h-.3929l-1.12721-2.29512v2.66767h-.5661V122.789h.714l1.1783,2.372,1.17331-2.372h.709v3.57061Z"/><path class="cls-10" d="M130.338,157.0377a2.35525,2.35525,0,0,1-1.34919,4.37933l-4.66686-.00553v-8.28866h4.40145q2.09606.122,2.21178,2.43849A1.73589,1.73589,0,0,1,130.338,157.0377Zm-4.35168-.59166h2.32237a.936.936,0,0,0,1.02848-1.034q-.02725-.60784-1.01189-.64142h-2.339Zm0,3.67156h2.70943a1.08244,1.08244,0,0,0,1.19437-1.19989q-.02725-.79624-1.17778-.82942h-2.726Z"/><path class="cls-10" d="M132.66041,153.11731h1.94637l1.92425,2.70944,1.96849-2.70944h1.90213l-3.0412,4.14709v4.1471h-1.65884v-4.1471Z"/><path class="cls-10" d="M152.00245,161.4115h-6.64087l.00552-.55295,3.8651-6.193h-3.8651l-.00552-1.54825h6.64087v.60824l-3.88168,6.1377h3.88168Z"/><path class="cls-10" d="M154.08627,161.4115v-8.28866l6.09346-.00553v1.54825h-4.43462V156.435h3.3232v1.54271h-3.3232v1.88555h4.42356v1.54825Z"/><path class="cls-10" d="M161.84963,161.4115v-8.29419h.55294l5.19769,5.19769v-5.19769h1.65884v8.29419h-.60824l-5.1424-5.1424v5.1424Z"/><path class="cls-10" d="M170.54193,161.4115l3.31768-8.29419h1.65883l3.31136,8.28866-1.76311.00553-.49765-1.27178h-3.76l-.49765,1.27178Zm4.19133-6.08241-1.26072,3.15179h2.48826Z"/><path class="cls-10" d="M185.95806,157.0377a2.35552,2.35552,0,0,1-1.34919,4.37933l-4.66686-.00553v-8.28866h4.40145q2.09487.122,2.21178,2.43849A1.74028,1.74028,0,0,1,185.95806,157.0377Zm-4.35247-.59166H183.928a.9353.9353,0,0,0,1.02848-1.034c-.01738-.40523-.35547-.6193-1.0111-.64142h-2.33975Zm0,3.67156H184.315a1.08174,1.08174,0,0,0,1.19436-1.19989q-.02607-.79624-1.177-.82942h-2.72681Z"/><path class="cls-10" d="M188.767,153.11178h1.65252v8.29972H188.767Z"/><path class="cls-10" d="M196.57461,153.39378a3.85052,3.85052,0,0,1,1.18805.82942l-1.10589,1.10589a1.90355,1.90355,0,0,0-1.54825-.66353q-.99531,0-1.27178.47a.64991.64991,0,0,0,0,.80177,2.18716,2.18716,0,0,0,1.27178.49766,4.1148,4.1148,0,0,1,1.90845.69118,2.07855,2.07855,0,0,1,.85628,1.85237,2.1274,2.1274,0,0,1-.91473,1.71413,3.3492,3.3492,0,0,1-2.13121.71883,4.91633,4.91633,0,0,1-1.93057-.33177,4.203,4.203,0,0,1-1.32707-.88471l1.10589-1.1059a2.62931,2.62931,0,0,0,1.88.77413q1.10669,0,1.37921-.47a.87232.87232,0,0,0,0-.94q-.27252-.4704-1.37921-.5806a4.456,4.456,0,0,1-1.82472-.60824,1.83489,1.83489,0,0,1-.82942-1.71413,2.06265,2.06265,0,0,1,.94317-1.76626,3.31931,3.31931,0,0,1,1.93847-.6667A4.6399,4.6399,0,0,1,196.57461,153.39378Z"/><rect class="cls-10" x="102.24975" y="157.14555" width="14.91165" height="1.8157"/><rect class="cls-10" x="205.28347" y="157.14555" width="14.91165" height="1.8157"/></svg>