<svg id="Content" xmlns="http://www.w3.org/2000/svg" width="320" height="50" viewBox="0 0 320 50"><defs><style>.cls-1{fill:#ba9544;}</style></defs><title>Frame1 - MK Ultra</title><path class="cls-1" d="M122.063,28.93115l.97265-6.44629H125.02V31.564H123.6709V25.05322l-.98535,6.51074h-1.34912L120.273,25.144V31.564h-1.24512v-9.0791h1.98438Z"/><path class="cls-1" d="M129.30273,27.94531l-.44091.83008V31.564h-1.42627v-9.0791h1.42627v3.95606l1.86767-3.95606h1.42676l-1.98437,4.04688,1.98437,5.03222h-1.46533Z"/><path class="cls-1" d="M138.93066,22.48486v7.00391c0,.64844.28516.88184.73926.88184.45362,0,.73926-.2334.73926-.88184V22.48486h1.34863V29.398c0,1.45264-.72607,2.28271-2.12695,2.28271s-2.127-.83007-2.127-2.28271V22.48486Z"/><path class="cls-1" d="M144.1084,22.48486h1.42627v7.78223h2.34765V31.564H144.1084Z"/><path class="cls-1" d="M149.4668,22.48486h4.40966v1.29737h-1.49169V31.564H150.958V23.78223H149.4668Z"/><path class="cls-1" d="M158.85938,31.564a2.78314,2.78314,0,0,1-.12989-1.11523V29.022c0-.84326-.28515-1.15429-.93359-1.15429h-.49317V31.564H155.876v-9.0791h2.15332c1.47851,0,2.11425.6875,2.11425,2.08838v.71338a1.81011,1.81011,0,0,1-.93408,1.8418c.71338.29834.94678.98535.94678,1.93213v1.40088A2.6762,2.6762,0,0,0,160.312,31.564Zm-1.55665-7.78173v2.78808h.55811c.53174,0,.856-.2334.856-.95947v-.895c0-.64844-.22071-.93359-.72657-.93359Z"/><path class="cls-1" d="M167.085,31.564H165.645l-.24609-1.647h-1.751l-.24658,1.647h-1.31006l1.45264-9.0791h2.08837Zm-3.25537-2.87939h1.37451l-.6875-4.59131Z"/></svg>