<svg id="Content" xmlns="http://www.w3.org/2000/svg" xmlns:xlink="http://www.w3.org/1999/xlink" width="300" height="250" viewBox="0 0 300 250"><defs><style>.cls-1{fill:#ba9544;}.cls-2{fill:#fff;stroke:#ba9544;stroke-miterlimit:10;stroke-width:0.5px;}.cls-3{clip-path:url(#clip-path);}</style><clipPath id="clip-path"><polygon class="cls-1" points="162.334 175.334 167.967 183.313 168.077 183.323 168.077 167.214 167.967 167.21 162.334 175.334"/></clipPath></defs><title>CBD - Ultra Sour</title><polygon class="cls-2" points="279.428 167.615 167.844 167.192 162.211 175.315 167.844 183.294 279.428 183.104 284.498 175.36 279.428 167.615"/><polygon class="cls-1" points="162.334 175.334 167.967 183.313 168.077 183.323 168.077 167.214 167.967 167.21 162.334 175.334"/><g class="cls-3"><rect class="cls-1" x="161.08804" y="165.96511" width="8.2322" height="18.60287"/></g><path class="cls-1" d="M227.76663,177.99521a2.732,2.732,0,0,1,1.94336-4.67774,2.95284,2.95284,0,0,1,2.00684.72852l-.72852.79687a2.01551,2.01551,0,0,0-1.27832-.43652,1.5565,1.5565,0,0,0-1.63476,1.624,1.63135,1.63135,0,0,0,.45508,1.209,1.61083,1.61083,0,0,0,1.1875.44824,1.95508,1.95508,0,0,0,1.2705-.4336l.72852.79786a2.9471,2.9471,0,0,1-2.00684.72851A2.65579,2.65579,0,0,1,227.76663,177.99521Z"/><path class="cls-1" d="M236.77249,175.8995a1.55163,1.55163,0,0,1-.88867,2.88477l-3.07422-.00391v-5.46H235.709q1.37988.08056,1.456,1.60645A1.14232,1.14232,0,0,1,236.77249,175.8995Zm-2.86621-.38965h1.5293a.61766.61766,0,0,0,.67773-.68164c-.01269-.2666-.23437-.40722-.667-.42187h-1.54Zm0,2.418h1.78418a.71319.71319,0,0,0,.78711-.79q-.019-.52441-.77637-.54589h-1.79492Z"/><path class="cls-1" d="M238.62308,178.78036v-5.4668h2.10449q2.5503,0,2.54981,2.73536,0,2.73193-2.54981,2.73144Zm2.10449-1.08887q1.45313-.00439,1.457-1.64257-.00293-1.63917-1.457-1.63868h-1.01172v3.28125Z"/><path class="cls-1" d="M247.04691,175.297a.52807.52807,0,0,1,.39355-.14746.54785.54785,0,0,1,.4082.14746.4999.4999,0,0,1,.14551.36621.4932.4932,0,0,1-.14551.36329.62178.62178,0,0,1-.80175,0,.4932.4932,0,0,1-.14551-.36329A.4999.4999,0,0,1,247.04691,175.297Zm0,2.60743a.528.528,0,0,1,.39355-.14747.54781.54781,0,0,1,.4082.14747.503.503,0,0,1,.14551.36621.497.497,0,0,1-.14551.36425.625.625,0,0,1-.80175,0,.497.497,0,0,1-.14551-.36425A.503.503,0,0,1,247.04691,177.90439Z"/><path class="cls-1" d="M254.86429,174.8829l-2.11328,1.166,2.11328,1.165v.83789l-3.45313-1.89746v-.23633l3.45313-1.87207Z"/><path class="cls-1" d="M259.59573,173.31747v-.00391h1.08887v5.4668h-1.08887V174.7745l-.72851.72754-.72852-.72754Z"/></svg>