<svg id="Content" xmlns="http://www.w3.org/2000/svg" xmlns:xlink="http://www.w3.org/1999/xlink" width="728" height="360" viewBox="0 0 728 360"><defs><style>.cls-1{fill:none;}.cls-2{fill:#fff;stroke:#ba9544;stroke-miterlimit:10;stroke-width:0.5px;}.cls-3{fill:#ba9544;}.cls-4{clip-path:url(#clip-path);}</style><clipPath id="clip-path"><rect class="cls-1" x="461.86539" y="-134.33868" width="208.12648" height="92"/></clipPath></defs><title>THC - Durga Mata</title><polygon class="cls-2" points="621.295 150.524 388.693 149.643 376.951 166.575 388.693 183.207 621.295 182.811 631.863 166.669 621.295 150.524"/><polygon class="cls-3" points="388.863 149.643 377.121 166.575 388.863 183.207 412.134 183.207 411.878 149.643 388.863 149.643"/><path class="cls-3" d="M521.82364,161.02557v2.126h-3.7959v9.2627H515.7504v-9.2627h-3.79687v-2.126Z"/><path class="cls-3" d="M523.517,172.41425V161.02557h2.27832v4.55567H531.102v-4.5625h2.27735v11.38769l-2.27735.00782v-4.707h-5.30664v4.707Z"/><path class="cls-3" d="M536.91349,170.7785a5.697,5.697,0,0,1,4.05078-9.75293,6.16429,6.16429,0,0,1,4.18359,1.51856l-1.51855,1.66309a4.19969,4.19969,0,0,0-2.665-.91114,3.34371,3.34371,0,0,0-2.47168.957,3.30927,3.30927,0,0,0-.9375,2.42871,3.411,3.411,0,0,0,.94922,2.52051,3.3617,3.3617,0,0,0,2.47558.93457,4.08625,4.08625,0,0,0,2.64942-.90332l1.51855,1.66211a6.14207,6.14207,0,0,1-4.18359,1.51856A5.54377,5.54377,0,0,1,536.91349,170.7785Z"/><path class="cls-3" d="M547.69864,165.15253a1.10108,1.10108,0,0,1,.82032-.30762,1.14293,1.14293,0,0,1,.85058.30762,1.10584,1.10584,0,0,1,0,1.52246,1.30094,1.30094,0,0,1-1.6709,0,1.10584,1.10584,0,0,1,0-1.52246Zm0,5.43554a1.10112,1.10112,0,0,1,.82032-.30761,1.143,1.143,0,0,1,.85058.30761,1.04567,1.04567,0,0,1,.30371.76368,1.0298,1.0298,0,0,1-.30371.75879,1.30094,1.30094,0,0,1-1.6709,0,1.0298,1.0298,0,0,1-.30371-.75879A1.04567,1.04567,0,0,1,547.69864,170.58807Z"/><path class="cls-3" d="M562.20743,161.03339v-.01465h2.27051v6.62012h1.5332v2.26953h-1.5332v2.50586h-2.27051v-2.50586h-5.16992v-2.26953h.07617l-.06836-.07618Zm0,6.60547V164.01l-2.77051,3.62891Z"/><path class="cls-3" d="M567.7504,169.36932v-1.51074h4.707v1.51074Z"/><path class="cls-3" d="M580.85489,166.64374c.13672.05078.25977.10156.37207.15234a2.232,2.232,0,0,1,1.17676,2.27735,2.92291,2.92291,0,0,1-1.10547,2.54394,5.47077,5.47077,0,0,1-5.68652,0,2.92481,2.92481,0,0,1-1.10449-2.54394,2.232,2.232,0,0,1,1.17675-2.27735q.167-.07617.37207-.15234c-.08105-.04-.15429-.07813-.21972-.11328a2.25176,2.25176,0,0,1-1.02539-2.16406,3.11594,3.11594,0,0,1,.99121-2.46778,4.4684,4.4684,0,0,1,5.30664,0A3.11911,3.11911,0,0,1,582.1,164.3664a2.25178,2.25178,0,0,1-1.02539,2.16406C581.00919,166.56561,580.935,166.6037,580.85489,166.64374Zm-2.39941-1.03223q1.002-.03077,1.291-.52344a1.217,1.217,0,0,0,0-1.291,1.46177,1.46177,0,0,0-1.291-.6377,1.43906,1.43906,0,0,0-1.2832.6377,1.19311,1.19311,0,0,0,0,1.291Q577.45353,165.58174,578.45548,165.61151Zm0,2.08789a1.6941,1.6941,0,0,0-1.2832.65332,1.19147,1.19147,0,0,0,0,1.29,1.437,1.437,0,0,0,1.2832.6377,1.4596,1.4596,0,0,0,1.291-.6377,1.21528,1.21528,0,0,0,0-1.29A1.72229,1.72229,0,0,0,578.45548,167.6994Z"/><path class="cls-3" d="M585.05314,165.83222a2.936,2.936,0,1,1,2.03515.81933A2.767,2.767,0,0,1,585.05314,165.83222Zm2.01269-.53223a1.35453,1.35453,0,0,0,1.04-.43262,1.64042,1.64042,0,0,0,0-2.15234,1.37149,1.37149,0,0,0-1.04785-.42871,1.35414,1.35414,0,0,0-1.03321.42871,1.64042,1.64042,0,0,0,0,2.15234A1.35521,1.35521,0,0,0,587.06583,165.3Zm-.60742,7.11426,6.45312-11.38868h1.85254l-6.43847,11.38868Zm5.65625-.752a2.91488,2.91488,0,1,1,2.01953.8125A2.73938,2.73938,0,0,1,592.11466,171.66229Zm1.98144-.55371a1.32832,1.32832,0,0,0,1.01661-.42187,1.58456,1.58456,0,0,0,0-2.09473,1.338,1.338,0,0,0-1.02442-.42187,1.32076,1.32076,0,0,0-1.00976.42187,1.58745,1.58745,0,0,0,0,2.09473A1.33039,1.33039,0,0,0,594.0961,171.10858Z"/><g class="cls-4"><image id="SmallTopDown-8297-DurgaMata2.psd" width="1500" height="1261" transform="translate(443.42939 -154.61789) scale(0.12656)" xlink:href="../../../../../Dropbox%20(Revolution%20Strategy)/Rocio%20Ugarte/Clients/Namaste/Digital%20Ads/_Flight%202:Phase%202%20Terpene/1.%20Animated%20w:%20Packaging/8.%20Expandable%20Unit%20728%20x%2090:728%20x%20360/728%20x%2090_728%20x%20360_Folder/Links/SmallTopDown-8297-DurgaMata2.png"/></g></svg>