<svg id="Layer_1" data-name="Layer 1" xmlns="http://www.w3.org/2000/svg" xmlns:xlink="http://www.w3.org/1999/xlink" width="728" height="90" viewBox="0 0 728 90"><defs><style>.cls-1{fill:url(#linear-gradient);}.cls-2{fill:url(#linear-gradient-2);}.cls-3{fill:#fff;}.cls-4{fill:url(#linear-gradient-3);}</style><linearGradient id="linear-gradient" x1="650.12942" y1="36.28848" x2="650.12942" y2="62.51695" gradientUnits="userSpaceOnUse"><stop offset="0" stop-color="#ceb467"/><stop offset="1" stop-color="#997f2f"/></linearGradient><linearGradient id="linear-gradient-2" x1="593.1697" y1="36.24952" x2="593.1697" y2="62.55591" xlink:href="#linear-gradient"/><linearGradient id="linear-gradient-3" x1="586.71199" y1="48.68615" x2="644.49012" y2="49.19973" gradientUnits="userSpaceOnUse"><stop offset="0" stop-color="#ad8f35"/><stop offset="0.1878" stop-color="#ceb467"/><stop offset="0.46098" stop-color="#a58f4b"/><stop offset="0.76341" stop-color="#ceb467"/><stop offset="1" stop-color="#997f2f"/></linearGradient></defs><title>link</title><path class="cls-1" d="M689.32936,62.517H603.79783l7.42862-13.114-7.42862-13.11447h85.53153L696.461,49.40295Zm-83.86193-.97306h83.28322L695.353,49.40295l-6.60237-12.14141H605.46743l6.87747,12.14141Z"/><path class="cls-2" d="M600.91713,62.55591l-15.625-.07792-7.09223-13.14963,7.22242-13.07884,15.625.07792,7.09223,13.14963Zm-15.04254-1.04813,14.46953.07222,6.68648-12.10863-6.56579-12.17372-14.46954-.07222L579.3088,49.33406Z"/><path class="cls-3" d="M624.075,46.54325v4.65143h3.05012v1.06754h-4.19391v-5.719Z"/><path class="cls-3" d="M628.36389,52.26222V46.54706l4.20154-.00381v1.06754h-3.05774v1.22005h2.2914v1.06373h-2.2914v1.30011h3.05011v1.06754Z"/><path class="cls-3" d="M633.728,52.26222l2.28758-5.719h1.1438l2.28377,5.71516-1.21623.00381-.34314-.87691h-2.5926l-.34314.87691Zm2.89-4.19391-.86928,2.17321h1.71569Z"/><path class="cls-3" d="M644.05229,49.76875l1.42593,2.49347h-1.31155l-1.36874-2.36384h-1.04466v2.36384h-1.1438v-5.719h2.49347q2.00165,0,2.00164,1.64706A1.47889,1.47889,0,0,1,644.05229,49.76875Zm-2.299-.93791h1.60131q.69009-.01145.70915-.62909-.01906-.56427-.69771-.58714h-1.61275Z"/><path class="cls-3" d="M646.38531,52.26222v-5.719h.38127l3.58389,3.58389V46.54325h1.14379v5.719h-.41939l-3.54576-3.54576v3.54576Z"/><path class="cls-3" d="M655.97348,52.26222v-5.719h.38127l2.47822,2.82136,2.482-2.82136h.38126v5.719h-1.14379l-.00381-3.317L658.833,50.85154l-1.71569-1.90632v3.317Z"/><path class="cls-3" d="M663.67852,51.44059a2.94523,2.94523,0,1,1,2.03977.82163A2.77052,2.77052,0,0,1,663.67852,51.44059Zm2.04358-.24591a1.60646,1.60646,0,0,0,1.2353-.51471,1.94979,1.94979,0,0,0,0-2.55447,1.74886,1.74886,0,0,0-2.47822,0,1.94979,1.94979,0,0,0,0,2.55447A1.61542,1.61542,0,0,0,665.7221,51.19468Z"/><path class="cls-3" d="M673.18313,49.76875l1.42593,2.49347h-1.31155l-1.36874-2.36384H670.8841v2.36384h-1.14379v-5.719h2.49347q2.00165,0,2.00164,1.64706A1.47889,1.47889,0,0,1,673.18313,49.76875Zm-2.299-.93791h1.60131q.69009-.01145.70916-.62909-.01906-.56427-.69772-.58714H670.8841Z"/><path class="cls-3" d="M675.5009,52.26222V46.54706l4.20153-.00381v1.06754h-3.05774v1.22005h2.2914v1.06373h-2.2914v1.30011h3.05012v1.06754Z"/><path class="cls-4" d="M598.29692,52.67515l.15664-.05136a1.76111,1.76111,0,0,0-.33178.10246l-1.64051.68371.99276-.73969-.00758.00128-.02259-.17063-.1804-.29762a5.94355,5.94355,0,0,0,1.35175-1.39541l-1.32633.63492,1.35137-1.12552a2.23321,2.23321,0,0,0,.4291-.46518c.17423-.26347.336-.53335.48367-.80645l-.419.41369.50215-1.0924a14.42576,14.42576,0,0,0,.7429-2.05407,17.50665,17.50665,0,0,0-1.99078,1.28267l-.98312.74509.31354-.48855c-.25435.21622-.50023.44451-.73493.68217a2.16119,2.16119,0,0,0-.362.50716l-.718,1.37524.25512-1.25532a5.93736,5.93736,0,0,0-.56893.6805l-.125.17462-.11479-.07883a.28908.28908,0,0,0-.01772.02991l-.98633,1.87034.58163-2.03289a6.45224,6.45224,0,0,0,.193-2.55123l-.67921,1.26239.32894-1.51853a2.47331,2.47331,0,0,0,.05136-.75779,12.2486,12.2486,0,0,0-.26089-1.53293l-.08962.74548-.2948-1.08675a18.483,18.483,0,0,0-1.007-2.72546,18.47753,18.47753,0,0,0-1.00688,2.72546l-.29493,1.08675-.08949-.74548a12.22306,12.22306,0,0,0-.2609,1.53293,2.47132,2.47132,0,0,0,.05136.75791l.32856,1.51893-.67883-1.26265a6.4511,6.4511,0,0,0,.19286,2.551l.58176,2.033-.98634-1.87047a.31076.31076,0,0,0-.01785-.02991l-.11466.07883-.12518-.17462a5.9339,5.9339,0,0,0-.56879-.6805l.25512,1.25532-.71812-1.37524a2.16005,2.16005,0,0,0-.36182-.50716c-.23419-.23728-.47994-.46518-.73391-.68127l.31431.48906-.98505-.7465A17.4943,17.4943,0,0,0,585.96,46.31288a14.41219,14.41219,0,0,0,.743,2.05407l.50215,1.0924-.41895-.41369c.14753.2731.30944.543.48367.80645a2.22855,2.22855,0,0,0,.429.46518l1.35149,1.12552-1.32633-.63492a5.941,5.941,0,0,0,1.35176,1.39541l-.1804.29762-.0226.17063-.0077-.00128.99288.73969-1.64064-.68371a1.7565,1.7565,0,0,0-.33164-.10246l.15651.05136-1.40619-.00321a12.079,12.079,0,0,0-1.3402.08115,11.03481,11.03481,0,0,0,1.14581.62978l1.23722.58048-.14227-.01721a1.84835,1.84835,0,0,0,.31368.04006l1.87483.0832-1.2792.2437a4.60412,4.60412,0,0,0,.92393.10155l1.35689.00887-.79349.25756,1.21912.21185-1.87741.11273q-.04486.0027-.08781.00809l-.86128.42127c-.221.108-.42718.22533-.61759.34281.23625.01824.49073.02954.74842.02478l.98145-.01746c.02671-.00949.05355-.02015.08038-.03171l1.624-.70695-.8193.63171a2.84237,2.84237,0,0,0,.3215-.13751s.12788.0737.15228.09424a.60927.60927,0,0,0,.06882-.015,2.89956,2.89956,0,0,0,.71157-.41549,2.994,2.994,0,0,1,.79785-.45529,1.98944,1.98944,0,0,1,.27939-.05213.76332.76332,0,0,1-.36785-.22944c-.17771-.17757-.24549-.41729-.07434-.46788s.48148.23972.50164.23972a.37.37,0,0,0,.10362-.23894c0-.10247-.07332-.30186-.08693-.4223a2.01485,2.01485,0,0,0-.07306-.3495c-.02671-.07947-.21211-.114-.31174-.17538a1.63249,1.63249,0,0,1-.25128-.174.79451.79451,0,0,1-.10682-.36452,1.43709,1.43709,0,0,0-.06-.37119c-.03466-.065-.12378-.1108-.18412-.17115a.25948.25948,0,0,1-.062-.15947c.04623-.01451.06074.10464.11415.11479s.04969.05418.13353.08307.08654.06856.09732.1465.10478.34154.13585.449.06342.18849.16961.19208.09168.05855.21661.0484a.69788.69788,0,0,1,.29955.05778c.06714.02376.15163.02594.18051-.02092s-.02015-.23613-.02015-.23613c-.0434,0-.05072-.05841-.06728-.11259s.01027-.05843.01027-.05843a.22876.22876,0,1,1,.4359,0s.02671.00424.01015.05843-.02375.11259-.06715.11259c0,0-.049.18913-.02029.23613.029.04686.11337.04468.18065.02092a.697.697,0,0,1,.29955-.05778c.1248.01015.11042-.04481.21648-.0484s.13866-.08448.16973-.19208.12481-.37107.13572-.449.01374-.11774.09745-.1465.08012-.07293.13353-.08307.06792-.1293.11414-.11479a.259.259,0,0,1-.06213.15947c-.06023.06035-.14946.10618-.184.17115a1.42673,1.42673,0,0,0-.06.37119.79437.79437,0,0,1-.10683.36452,1.64471,1.64471,0,0,1-.25126.174c-.09964.06137-.28517.09591-.31188.17538a2.00374,2.00374,0,0,0-.07293.3495c-.01374.12044-.08692.31983-.08692.4223a.36941.36941,0,0,0,.10361.23894c.02016,0,.33063-.29031.50164-.23972s.10336.29031-.07433.46788a.7624.7624,0,0,1-.36786.22944,1.98369,1.98369,0,0,1,.27926.05213,2.99384,2.99384,0,0,1,.79785.45529,2.90369,2.90369,0,0,0,.71145.41549.62943.62943,0,0,0,.06894.015c.0244-.02041.15241-.09424.15241-.09424a2.84253,2.84253,0,0,0,.32151.13751l-.8193-.63171,1.62382.70695c.02684.01156.05367.02222.08038.03171l.98159.01746c.25768.00476.512-.00654.74841-.02478-.1904-.11748-.39674-.23483-.61771-.34281l-.86128-.42127c-.02851-.0036-.0579-.00629-.0877-.00809l-1.87727-.11273,1.21989-.212-.79092-.25743,1.35343-.00887a4.60524,4.60524,0,0,0,.92393-.10155l-1.27921-.2437,1.87471-.0832a1.84808,1.84808,0,0,0,.3138-.04006l-.14239.01721,1.23722-.58048a11.03713,11.03713,0,0,0,1.14593-.62978,12.08067,12.08067,0,0,0-1.34019-.08115Z"/></svg>