<svg id="Content" xmlns="http://www.w3.org/2000/svg" xmlns:xlink="http://www.w3.org/1999/xlink" viewBox="0 0 640 1136"><defs><style>.cls-1{fill:#ba9544;}.cls-2{fill:#fff;stroke:#ba9544;stroke-miterlimit:10;stroke-width:0.96px;}.cls-3{clip-path:url(#clip-path);}</style><clipPath id="clip-path"><polygon class="cls-1" points="132.54 795.53 150.5 820.98 150.86 821.01 150.86 769.63 150.5 769.62 132.54 795.53"/></clipPath></defs><title>CBD - MK Ultra</title><polygon class="cls-2" points="505.99 770.91 150.11 769.56 132.15 795.47 150.11 820.92 505.99 820.31 522.16 795.61 505.99 770.91"/><polygon class="cls-1" points="132.54 795.53 150.5 820.98 150.86 821.01 150.86 769.63 150.5 769.62 132.54 795.53"/><g class="cls-3"><rect class="cls-1" x="128.56" y="765.65" width="26.26" height="59.33"/></g><path class="cls-1" d="M341.23,804a8.71,8.71,0,0,1,6.19-14.92,9.41,9.41,0,0,1,6.4,2.32L351.5,794a6.41,6.41,0,0,0-4.08-1.4,5.13,5.13,0,0,0-3.78,1.47,5.06,5.06,0,0,0-1.43,3.71,5.24,5.24,0,0,0,1.45,3.86,5.15,5.15,0,0,0,3.79,1.43,6.25,6.25,0,0,0,4.05-1.38l2.32,2.54a9.37,9.37,0,0,1-6.4,2.32A8.48,8.48,0,0,1,341.23,804Z"/><path class="cls-1" d="M370,797.33a5,5,0,0,1,2.42,4q-.22,4.92-5.26,5.21h-9.8V789.11h9.25q4.4.25,4.64,5.12C371.15,795.78,370.73,796.82,370,797.33Zm-9.14-1.24h4.87a2,2,0,0,0,2.16-2.17c0-.85-.74-1.3-2.12-1.35h-4.91Zm0,7.71h5.69a2.27,2.27,0,0,0,2.51-2.52c0-1.11-.87-1.69-2.48-1.74h-5.72Z"/><path class="cls-1" d="M375.85,806.52V789.09h6.71q8.13,0,8.13,8.72t-8.13,8.71Zm6.71-3.47c3.09,0,4.64-1.75,4.65-5.24s-1.56-5.23-4.65-5.23h-3.23v10.47Z"/><path class="cls-1" d="M394.59,795.41a1.68,1.68,0,0,1,1.25-.47,1.75,1.75,0,0,1,1.3.47,1.61,1.61,0,0,1,.47,1.17,1.58,1.58,0,0,1-.47,1.16,2,2,0,0,1-2.55,0,1.58,1.58,0,0,1-.47-1.16A1.61,1.61,0,0,1,394.59,795.41Zm0,8.32a1.68,1.68,0,0,1,1.25-.47,1.75,1.75,0,0,1,1.3.47,1.68,1.68,0,0,1,0,2.33,2,2,0,0,1-2.55,0,1.68,1.68,0,0,1,0-2.33Z"/><path class="cls-1" d="M419.51,794.09l-6.73,3.72,6.73,3.72v2.67l-11-6.05v-.76l11-6Z"/><path class="cls-1" d="M434.6,789.1h3.48v17.43H434.6V793.75l-2.32,2.32L430,793.75Z"/></svg>