<svg id="Content" xmlns="http://www.w3.org/2000/svg" viewBox="0 0 640 1136"><defs><style>.cls-1{fill:#ba9544;}</style></defs><title>Frame2 - Shishkaberry</title><path class="cls-1" d="M133.55,351.15c7.36,0,11.15,4.4,11.15,12.11v1.51h-7.16v-2c0-3.44-1.37-4.75-3.78-4.75s-3.79,1.31-3.79,4.75c0,9.91,14.8,11.77,14.8,25.53,0,7.71-3.86,12.11-11.29,12.11S122.2,396,122.2,388.31v-3h7.15v3.44c0,3.44,1.52,4.68,3.93,4.68s3.92-1.24,3.92-4.68c0-9.91-14.8-11.77-14.8-25.53C122.4,355.55,126.19,351.15,133.55,351.15Z"/><path class="cls-1" d="M164,399.87H156.4V351.7H164v20.64h8.6V351.7h7.71v48.17h-7.71V379.22H164Z"/><path class="cls-1" d="M193.08,351.7h7.57v48.17h-7.57Z"/><path class="cls-1" d="M223.63,351.15c7.36,0,11.15,4.4,11.15,12.11v1.51h-7.16v-2c0-3.44-1.38-4.75-3.78-4.75s-3.79,1.31-3.79,4.75c0,9.91,14.8,11.77,14.8,25.53,0,7.71-3.86,12.11-11.29,12.11s-11.28-4.4-11.28-12.11v-3h7.15v3.44c0,3.44,1.52,4.68,3.92,4.68s3.93-1.24,3.93-4.68c0-9.91-14.8-11.77-14.8-25.53C212.48,355.55,216.27,351.15,223.63,351.15Z"/><path class="cls-1" d="M254.05,399.87h-7.57V351.7h7.57v20.64h8.6V351.7h7.71v48.17h-7.71V379.22h-8.6Z"/><path class="cls-1" d="M293.07,380.67l-2.34,4.4v14.8h-7.57V351.7h7.57v21l9.91-21h7.56l-10.52,21.47,10.52,26.7h-7.77Z"/><path class="cls-1" d="M343.44,399.87H335.8l-1.31-8.74H325.2l-1.31,8.74h-6.95l7.71-48.17h11.08Zm-17.28-15.28h7.3l-3.65-24.36Z"/><path class="cls-1" d="M376.88,362.78v1.72c0,4.95-1.51,8.12-4.88,9.7,4.06,1.58,5.64,5.23,5.64,10.32v3.93c0,7.43-3.92,11.42-11.49,11.42H354.24V351.7h11.43C373.51,351.7,376.88,355.35,376.88,362.78Zm-15.07-4.2v12.73h3c2.82,0,4.54-1.24,4.54-5.09v-2.69c0-3.44-1.17-4.95-3.85-4.95Zm0,19.61V393h4.34c2.54,0,3.92-1.17,3.92-4.75V384c0-4.47-1.44-5.85-4.89-5.85Z"/><path class="cls-1" d="M397.05,372h10.39v6.88H397.05V393h13.07v6.88H389.48V351.7h20.64v6.88H397.05Z"/><path class="cls-1" d="M437.92,399.87c-.41-1.24-.68-2-.68-5.92v-7.57c0-4.47-1.52-6.12-5-6.12h-2.62v19.61H422.1V351.7h11.42c7.84,0,11.22,3.65,11.22,11.08v3.78c0,5-1.59,8.19-5,9.78,3.79,1.58,5,5.22,5,10.25V394a14.14,14.14,0,0,0,.83,5.85Zm-8.26-41.29v14.8h3c2.83,0,4.55-1.24,4.55-5.1v-4.75c0-3.44-1.17-4.95-3.86-4.95Z"/><path class="cls-1" d="M472.88,399.87c-.41-1.24-.69-2-.69-5.92v-7.57c0-4.47-1.51-6.12-4.95-6.12h-2.62v19.61h-7.57V351.7h11.43c7.84,0,11.22,3.65,11.22,11.08v3.78c0,5-1.59,8.19-5,9.78,3.79,1.58,5,5.22,5,10.25V394a14.14,14.14,0,0,0,.83,5.85Zm-8.26-41.29v14.8h3c2.83,0,4.54-1.24,4.54-5.1v-4.75c0-3.44-1.17-4.95-3.85-4.95Z"/><path class="cls-1" d="M499.1,383.9l-9.56-32.2h7.91l5.78,21.95L509,351.7h7.23l-9.57,32.2v16H499.1Z"/></svg>