<svg id="Content" xmlns="http://www.w3.org/2000/svg" xmlns:xlink="http://www.w3.org/1999/xlink" viewBox="0 0 640 1136"><defs><style>.cls-1{fill:url(#New_Gradient_Swatch_1);}.cls-2{fill:#fff;}.cls-3{fill:#ba9544;}</style><linearGradient id="New_Gradient_Swatch_1" x1="137.48" y1="525.07" x2="226.05" y2="525.07" gradientUnits="userSpaceOnUse"><stop offset="0" stop-color="#a88a34"/><stop offset="0.49" stop-color="#caaf67"/><stop offset="1" stop-color="#957f2e"/></linearGradient></defs><title>lemon</title><polygon class="cls-1" points="151.11 558.5 137.49 515.24 168.15 481.81 212.43 491.64 226.05 534.91 195.39 568.34 151.11 558.5"/><path class="cls-2" d="M200.2,520.14c-2.42-5.91-9.41-10-18.43-9.88s-16,4.08-18.37,9.88c-2.16,1-4.68,3-4.68,4.93s2.5,4,4.73,4.93c2.39,5.72,9.4,9.89,18.32,9.89s15.94-4.22,18.43-9.89c2.34-1,4.62-3,4.62-4.92s-2.28-3.94-4.62-4.94"/><path class="cls-3" d="M142.89,596.35v13.56h8.89V613H139.55V596.35Z"/><path class="cls-3" d="M154.48,613V596.36h12.25v3.12h-8.91V603h6.68v3.1h-6.68v3.79h8.89V613Z"/><path class="cls-3" d="M170.09,613V596.35h1.11l7.22,8.23,7.24-8.23h1.11V613h-3.33l0-9.67-5,5.55-5-5.55V613Z"/><path class="cls-3" d="M191.64,610.63a8.58,8.58,0,1,1,6,2.4A8.1,8.1,0,0,1,191.64,610.63Zm6-.72a4.69,4.69,0,0,0,3.6-1.5,5.67,5.67,0,0,0,0-7.44,5.11,5.11,0,0,0-7.23,0,5.67,5.67,0,0,0,0,7.44A4.73,4.73,0,0,0,197.6,609.91Z"/><path class="cls-3" d="M208.4,613V596.35h1.11L220,606.8V596.35h3.34V613h-1.23l-10.34-10.34V613Z"/></svg>