<svg id="Layer_1" data-name="Layer 1" xmlns="http://www.w3.org/2000/svg" width="300" height="250" viewBox="0 0 300 250"><defs><style>.cls-1{fill:#fff;}</style></defs><title>gratitude</title><path class="cls-1" d="M86.73833,175.56051h-2.413v-16.005h3.45723l2.24632,11.4773,2.15857-11.4773H95.513v16.005H93.1v-10.0558l-2.08545,10.0558H89.07825L86.73833,165.531Z"/><path class="cls-1" d="M102.16351,159.36242a3.82723,3.82723,0,0,1,3.83454,3.83454v8.73082a3.82725,3.82725,0,0,1-3.83454,3.83455,3.65136,3.65136,0,0,1-2.69822-1.12317,3.7167,3.7167,0,0,1-1.11-2.71138V163.197a3.82732,3.82732,0,0,1,3.80822-3.83454Zm1.31621,3.78921a1.36336,1.36336,0,0,0-1.37763-1.37617,1.34933,1.34933,0,0,0-.97838.39925,1.315,1.315,0,0,0-.408.97692v8.76007a1.3169,1.3169,0,0,0,.408.97253,1.34179,1.34179,0,0,0,.97838.40363,1.37064,1.37064,0,0,0,1.37763-1.37616Z"/><path class="cls-1" d="M112.64854,159.55547a3.65561,3.65561,0,0,1,2.95707,1.11438,4.02639,4.02639,0,0,1,.8336,2.70261v2.32529a3.722,3.722,0,0,1-1.28769,2.86933l1.78785,6.99343h-2.60243l-1.472-6.04577c-.0702.00585-.14332.00878-.21863.00878h-1.38421v6.037h-2.413v-16.005Zm1.43905,3.86086a1.22358,1.22358,0,0,0-1.37324-1.39518h-1.45221v5.11565h1.45221a1.31068,1.31068,0,0,0,.97545-.408,1.3538,1.3538,0,0,0,.39779-.97838Z"/><path class="cls-1" d="M119.729,175.56051v-16.005h6.87058v2.413H122.142v4.38734h3.25541v2.413H122.142v4.37858h4.45754v2.413Z"/><path class="cls-1" d="M136.61735,175.76233a3.81975,3.81975,0,0,1-3.82577-3.817v-8.76592a3.82139,3.82139,0,1,1,7.64276,0v1.82514h-2.50079v-1.869a1.39309,1.39309,0,0,0-1.39517-1.39518,1.32011,1.32011,0,0,0-.974.408,1.352,1.352,0,0,0-.40364.98715V171.919a1.37814,1.37814,0,0,0,1.37763,1.3864,1.3521,1.3521,0,0,0,.98715-.40363,1.33027,1.33027,0,0,0,.408-.98277v-3.15012H136.591v-2.413h3.84332v5.58948a3.81223,3.81223,0,0,1-3.817,3.817Z"/><path class="cls-1" d="M147.041,159.55547a3.65562,3.65562,0,0,1,2.95708,1.11438,4.02639,4.02639,0,0,1,.83359,2.70261v2.32529a3.722,3.722,0,0,1-1.28768,2.86933l1.78784,6.99343h-2.60243l-1.472-6.04577c-.0702.00585-.14332.00878-.21864.00878h-1.38421v6.037h-2.413v-16.005Zm1.439,3.86086a1.22357,1.22357,0,0,0-1.37324-1.39518h-1.45221v5.11565h1.45221a1.31071,1.31071,0,0,0,.97546-.408,1.35383,1.35383,0,0,0,.39778-.97838Z"/><path class="cls-1" d="M157.08725,171.88391l-.58791,3.6766h-2.50956l2.71138-16.005h3.32561l2.67628,16.005h-2.52711l-.57035-3.6766Zm1.26355-8.66062-.895,6.309h1.79Z"/><path class="cls-1" d="M165.76469,161.96851h-2.56221v-2.413h7.52869v2.413h-2.55344v13.592h-2.413Z"/><path class="cls-1" d="M175.80221,175.56051h-2.413v-16.005h2.413Z"/><path class="cls-1" d="M181.02242,161.96851h-2.56221v-2.413h7.52869v2.413h-2.55344v13.592h-2.413Z"/><path class="cls-1" d="M192.44707,175.76233a3.78986,3.78986,0,0,1-3.80821-3.79945V159.55547h2.36039v12.38109a1.32014,1.32014,0,0,0,.408.974,1.3418,1.3418,0,0,0,.97838.40364,1.37067,1.37067,0,0,0,1.37763-1.37763V159.55547h2.51833v12.40741a3.62886,3.62886,0,0,1-1.12316,2.70261A3.73965,3.73965,0,0,1,192.44707,175.76233Z"/><path class="cls-1" d="M206.72277,171.73474a3.699,3.699,0,0,1-1.11439,2.70261,3.6354,3.6354,0,0,1-2.67628,1.12316h-3.79067v-16.005h3.79067a3.62691,3.62691,0,0,1,2.68506,1.12316,3.70357,3.70357,0,0,1,1.10561,2.69383Zm-5.1683,1.43905h1.45222a1.28333,1.28333,0,0,0,.97106-.4168,1.37821,1.37821,0,0,0,.3934-.97838v-8.371a1.34617,1.34617,0,0,0-.40217-.97838,1.30488,1.30488,0,0,0-.96229-.408h-1.45222Z"/><path class="cls-1" d="M209.55626,175.56051v-16.005h6.87059v2.413h-4.45754v4.38734h3.25541v2.413h-3.25541v4.37858h4.45754v2.413Z"/><path class="cls-1" d="M218.80406,173.15624h2.413v2.413h-2.413Z"/></svg>