<svg id="Content" xmlns="http://www.w3.org/2000/svg" xmlns:xlink="http://www.w3.org/1999/xlink" width="728" height="360" viewBox="0 0 728 360"><defs><style>.cls-1{fill:none;}.cls-2{fill:#fff;stroke:#ba9544;stroke-miterlimit:10;stroke-width:0.5px;}.cls-3{fill:#ba9544;}.cls-4{clip-path:url(#clip-path);}</style><clipPath id="clip-path"><rect class="cls-1" x="461.86539" y="-134.33868" width="208.12648" height="92"/></clipPath></defs><title>THC - Ultra Sour</title><polygon class="cls-2" points="621.295 150.524 388.693 149.643 376.951 166.575 388.693 183.207 621.295 182.811 631.863 166.669 621.295 150.524"/><polygon class="cls-3" points="388.862 149.642 377.12 166.575 388.862 183.207 433.107 183.207 433.107 149.642 388.862 149.642"/><path class="cls-3" d="M521.82337,161.02557v2.126h-3.7959v9.2627h-2.27734v-9.2627h-3.79687v-2.126Z"/><path class="cls-3" d="M523.51673,172.41425V161.02557H525.795v4.55567h5.30664v-4.5625H533.379v11.38769l-2.27735.00782v-4.707H525.795v4.707Z"/><path class="cls-3" d="M536.91322,170.7785a5.697,5.697,0,0,1,4.05078-9.75293,6.16429,6.16429,0,0,1,4.18359,1.51856l-1.51855,1.66309a4.19969,4.19969,0,0,0-2.665-.91114,3.34684,3.34684,0,0,0-2.47168.95606,3.31308,3.31308,0,0,0-.9375,2.42968,3.411,3.411,0,0,0,.94922,2.52051,3.3617,3.3617,0,0,0,2.47558.93457,4.08625,4.08625,0,0,0,2.64942-.90332l1.51855,1.66211a6.14207,6.14207,0,0,1-4.18359,1.51856A5.54377,5.54377,0,0,1,536.91322,170.7785Z"/><path class="cls-3" d="M553.01283,165.15253a1.101,1.101,0,0,1,.82031-.30762,1.14292,1.14292,0,0,1,.85058.30762,1.10581,1.10581,0,0,1,0,1.52246,1.30093,1.30093,0,0,1-1.67089,0,1.10584,1.10584,0,0,1,0-1.52246Zm0,5.43554a1.10108,1.10108,0,0,1,.82031-.30761,1.143,1.143,0,0,1,.85058.30761,1.04568,1.04568,0,0,1,.30372.76368,1.02981,1.02981,0,0,1-.30372.75879,1.30093,1.30093,0,0,1-1.67089,0,1.0298,1.0298,0,0,1-.30371-.75879A1.04567,1.04567,0,0,1,553.01283,170.58807Z"/><path class="cls-3" d="M565.13783,161.02557v-.00683h2.2705v11.39551h-2.2705v-8.35157l-1.51856,1.51856-1.51855-1.51856Z"/><path class="cls-3" d="M575.81263,166.64374q.20508.07617.37207.15234a2.232,2.232,0,0,1,1.17676,2.27735,2.92291,2.92291,0,0,1-1.10547,2.54394,5.47077,5.47077,0,0,1-5.68652,0,2.92481,2.92481,0,0,1-1.1045-2.54394,2.232,2.232,0,0,1,1.17676-2.27735q.167-.07617.37207-.15234c-.081-.04-.15429-.07813-.21972-.11328a2.25176,2.25176,0,0,1-1.02539-2.16406,3.1159,3.1159,0,0,1,.99121-2.46778,4.4684,4.4684,0,0,1,5.30664,0,3.11914,3.11914,0,0,1,.99121,2.46778,2.25178,2.25178,0,0,1-1.02539,2.16406C575.96693,166.56561,575.89271,166.6037,575.81263,166.64374Zm-2.39941-1.03223q1.002-.03077,1.291-.52344a1.217,1.217,0,0,0,0-1.291,1.46057,1.46057,0,0,0-1.291-.6377,1.43909,1.43909,0,0,0-1.28321.6377,1.19311,1.19311,0,0,0,0,1.291Q572.41126,165.58174,573.41322,165.61151Zm0,2.08789a1.69412,1.69412,0,0,0-1.28321.65332,1.19147,1.19147,0,0,0,0,1.29,1.437,1.437,0,0,0,1.28321.6377,1.45841,1.45841,0,0,0,1.291-.6377,1.21528,1.21528,0,0,0,0-1.29A1.72229,1.72229,0,0,0,573.41322,167.6994Z"/><path class="cls-3" d="M579.35072,169.36932v-1.51074h4.707v1.51074Z"/><path class="cls-3" d="M590.12415,161.02557a4.30157,4.30157,0,0,1,2.73731.83887,2.98985,2.98985,0,0,1,1.06641,2.502,5.21663,5.21663,0,0,1-1.51465,3.61425,10.53612,10.53612,0,0,1-2.502,2.15625h4.09961v2.27735h-7.67578V170.1369q.76026,0,2.88574-1.89843a10.85491,10.85491,0,0,0,2.4668-2.69532,1.85024,1.85024,0,0,0-.03711-1.59375q-.38085-.79833-1.82226-.79785a2.61434,2.61434,0,0,0-2.126.91113l-1.51856-1.51855a6.28925,6.28925,0,0,1,1.48047-1.13867A5.7007,5.7007,0,0,1,590.12415,161.02557Z"/><path class="cls-3" d="M603.45619,161.02557v2.126h-4.707v1.59473h.91114a5.10905,5.10905,0,0,1,3.44629,1.02441,4.15749,4.15749,0,0,1,1.17675,3.0752,3.31632,3.31632,0,0,1-1.14257,2.50586,3.97676,3.97676,0,0,1-2.8125,1.0625,6.74219,6.74219,0,0,1-2.64942-.45508,5.743,5.743,0,0,1-1.82226-1.21485l1.51855-1.51855a3.18557,3.18557,0,0,0,2.42969.98633q2.04932,0,2.23926-1.50293a1.69808,1.69808,0,0,0-.69825-1.41211,4.551,4.551,0,0,0-2.44531-.42481h-2.42871v-5.84668Z"/><path class="cls-3" d="M606.59876,165.83222a2.936,2.936,0,1,1,2.03516.81933A2.767,2.767,0,0,1,606.59876,165.83222Zm2.0127-.53223a1.35454,1.35454,0,0,0,1.04-.43262,1.64042,1.64042,0,0,0,0-2.15234,1.37151,1.37151,0,0,0-1.04785-.42871,1.35412,1.35412,0,0,0-1.03321.42871,1.64042,1.64042,0,0,0,0,2.15234A1.35521,1.35521,0,0,0,608.61146,165.3Zm-.60742,7.11426,6.45312-11.38868h1.85254l-6.43848,11.38868Zm5.65625-.752a2.9161,2.9161,0,1,1,2.01953.8125A2.73938,2.73938,0,0,1,613.66029,171.66229Zm1.98144-.55371a1.32828,1.32828,0,0,0,1.0166-.42187,1.58453,1.58453,0,0,0,0-2.09473,1.338,1.338,0,0,0-1.02441-.42187,1.32078,1.32078,0,0,0-1.00977.42187,1.58748,1.58748,0,0,0,0,2.09473A1.33042,1.33042,0,0,0,615.64173,171.10858Z"/><g class="cls-4"><image id="SmallTopDown-8351-UltraSour.psd" width="1500" height="1261" transform="translate(443.42939 -154.61789) scale(0.12656)" xlink:href="../../../../../Dropbox%20(Revolution%20Strategy)/Rocio%20Ugarte/Clients/Namaste/Digital%20Ads/_Flight%202:Phase%202%20Terpene/1.%20Animated%20w:%20Packaging/8.%20Expandable%20Unit%20728%20x%2090:728%20x%20360/728%20x%2090_728%20x%20360_Folder/Links/SmallTopDown-8351-UltraSour.png"/></g></svg>