<svg id="Content" xmlns="http://www.w3.org/2000/svg" xmlns:xlink="http://www.w3.org/1999/xlink" width="320" height="50" viewBox="0 0 320 50"><defs><style>.cls-1{fill:#ba9544;}.cls-2{fill:#fff;stroke:#ba9544;stroke-miterlimit:10;stroke-width:0.5px;}.cls-3{clip-path:url(#clip-path);}</style><clipPath id="clip-path"><polygon class="cls-1" points="101.659 33.963 105.625 39.58 115.361 39.587 115.361 28.246 105.625 28.243 101.659 33.963"/></clipPath></defs><title>CBD - Durga Mata</title><polygon class="cls-2" points="184.096 28.528 105.539 28.23 101.573 33.949 105.539 39.566 184.096 39.432 187.665 33.981 184.096 28.528"/><polygon class="cls-1" points="101.659 33.963 105.625 39.58 115.361 39.587 115.361 28.246 105.625 28.243 101.659 33.963"/><g class="cls-3"><rect class="cls-1" x="100.78226" y="27.36642" width="5.79561" height="13.09673"/></g><path class="cls-1" d="M147.72607,35.83594a1.92318,1.92318,0,0,1,1.36817-3.293,2.08113,2.08113,0,0,1,1.4126.51269l-.5127.56153a1.41857,1.41857,0,0,0-.8999-.30762,1.09484,1.09484,0,0,0-1.15137,1.14355,1.15169,1.15169,0,0,0,.32031.85059,1.13276,1.13276,0,0,0,.83594.31543,1.38041,1.38041,0,0,0,.895-.30469l.5127.56153a2.075,2.075,0,0,1-1.4126.51269A1.86994,1.86994,0,0,1,147.72607,35.83594Z"/><path class="cls-1" d="M154.06592,34.36035a1.09257,1.09257,0,0,1-.626,2.03125l-2.16406-.00293V32.54492h2.041q.97192.05714,1.02588,1.13086A.805.805,0,0,1,154.06592,34.36035Zm-2.01807-.27441h1.07666a.434.434,0,0,0,.47705-.47949c-.0083-.1875-.165-.28711-.46924-.29688h-1.08447Zm0,1.70312h1.25635a.50257.50257,0,0,0,.55371-.55664c-.0083-.24609-.19043-.375-.5459-.38476h-1.26416Z"/><path class="cls-1" d="M155.36816,36.38867V32.54h1.48194q1.79517,0,1.79492,1.92578,0,1.92334-1.79492,1.92285Zm1.48194-.7666q1.02319-.00292,1.02588-1.15625-.00294-1.1543-1.02588-1.1543h-.71289v2.31055Z"/><path class="cls-1" d="M159.50391,33.93652a.37146.37146,0,0,1,.27685-.10449.38524.38524,0,0,1,.28711.10449.37165.37165,0,0,1,0,.51368.439.439,0,0,1-.564,0,.37293.37293,0,0,1,0-.51368Zm0,1.83594a.37142.37142,0,0,1,.27685-.10449.3852.3852,0,0,1,.28711.10449.37164.37164,0,0,1,0,.51367.439.439,0,0,1-.564,0,.37292.37292,0,0,1,0-.51367Z"/><path class="cls-1" d="M165.38086,34.24805a2.54917,2.54917,0,0,1-.46289,1.70507,1.29883,1.29883,0,0,1-1.11133.41993,1.59676,1.59676,0,0,1-1.03369-.48731l.43359-.47168a1.33183,1.33183,0,0,0,.64112.21778.67727.67727,0,0,0,.54882-.16407,1.03238,1.03238,0,0,0,.28418-.62793,1.20265,1.20265,0,0,1-.79736.25684,1.29065,1.29065,0,0,1-.94873-.44238,1.32351,1.32351,0,0,1-.22559-.96289,1.26791,1.26791,0,0,1,.44727-.8711,1.362,1.362,0,0,1,1.05811-.26758,1.251,1.251,0,0,1,.86523.51075A2.16825,2.16825,0,0,1,165.38086,34.24805Zm-.769-.42383q-.02563-.53467-.61573-.5586-.58959.02345-.61523.50977a.58119.58119,0,0,0,.64111.6416A.5719.5719,0,0,0,164.61182,33.82422Z"/><path class="cls-1" d="M166.063,35.36035v-.50976h1.58984v.50976Z"/><path class="cls-1" d="M169.31152,32.543V32.54h.7666v3.84863h-.7666V33.56836l-.51269.51269-.5127-.51269Z"/><path class="cls-1" d="M173.23975,34.43945c.04638.01758.08837.03516.126.05176a.75472.75472,0,0,1,.39746.76953.98746.98746,0,0,1-.42431.79492,1.55856,1.55856,0,0,1-.98877.333,2.27972,2.27972,0,0,1-.895-.15429,1.93959,1.93959,0,0,1-.61524-.41016l.5127-.5127a1.22,1.22,0,0,0,.87207.35938c.3418,0,.55518-.07324.63965-.21778a.40765.40765,0,0,0,0-.43652c-.08447-.14453-.38233-.22656-.89356-.24316v-.69239q.76685.05127.89356-.167a.406.406,0,0,0,0-.43554q-.12671-.21827-.63965-.21778a.91324.91324,0,0,0-.74365.30762l-.5127-.5127a1.78087,1.78087,0,0,1,.55127-.38476,2.13508,2.13508,0,0,1,.83057-.12793,1.35358,1.35358,0,0,1,.9375.333,1.0314,1.0314,0,0,1,.373.79492.76089.76089,0,0,1-.34619.73047C173.292,34.41309,173.26709,34.42676,173.23975,34.43945Z"/><path class="cls-1" d="M174.61182,34.166a.99272.99272,0,1,1,.687.27636A.934.934,0,0,1,174.61182,34.166Zm.67968-.17969a.45731.45731,0,0,0,.35108-.14649.51351.51351,0,0,0,.13574-.36425.50717.50717,0,0,0-.13574-.36231.46344.46344,0,0,0-.354-.14551.45758.45758,0,0,0-.34863.14551.50928.50928,0,0,0-.13574.36231.51566.51566,0,0,0,.13574.36425A.45764.45764,0,0,0,175.2915,33.98633Zm-.20556,2.40234,2.17968-3.8457h.62549l-2.17431,3.8457Zm1.91064-.2539a.98442.98442,0,1,1,.68213.27441A.92434.92434,0,0,1,176.99658,36.13477Zm.66895-.1875a.45.45,0,0,0,.34375-.14161.50043.50043,0,0,0,.1333-.35546.495.495,0,0,0-.1333-.35254.45316.45316,0,0,0-.34619-.14258.44657.44657,0,0,0-.34082.14258.495.495,0,0,0-.13331.35254.5004.5004,0,0,0,.13331.35546A.44891.44891,0,0,0,177.66553,35.94727Z"/></svg>