<svg id="Content" xmlns="http://www.w3.org/2000/svg" width="300" height="600" viewBox="0 0 300 600"><defs><style>.cls-1{fill:#ba9544;}</style></defs><title>Frame1 - MK Ultra</title><path class="cls-1" d="M99.15723,384.4105l2.34716-15.55371h4.78809V390.763H103.0376v-15.71l-2.37842,15.71H97.4043l-2.56592-15.49023V390.763H91.834V368.85679h4.78809Z"/><path class="cls-1" d="M116.61572,382.03257l-1.064,2.002V390.763h-3.44238V368.85679h3.44238v9.54492l4.50683-9.54492H123.501l-4.78809,9.76367L123.501,390.763h-3.53662Z"/><path class="cls-1" d="M139.832,368.85679v16.89942c0,1.56542.68848,2.12792,1.78369,2.12792s1.78369-.5625,1.78369-2.12792V368.85679h3.25489v16.67969c0,3.50586-1.75244,5.50879-5.13233,5.50879s-5.13281-2.00293-5.13281-5.50879V368.85679Z"/><path class="cls-1" d="M152.31543,368.85679h3.44238v18.77734h5.66407V390.763h-9.10645Z"/><path class="cls-1" d="M165.2373,368.85679h10.64063v3.12891H172.2793V390.763h-3.44239V371.9857H165.2373Z"/><path class="cls-1" d="M187.8916,390.763a6.742,6.742,0,0,1-.3125-2.69141v-3.4414c0-2.03516-.68848-2.78613-2.25293-2.78613h-1.18945V390.763h-3.44238V368.85679h5.19433c3.56836,0,5.10156,1.6582,5.10156,5.03809v1.72168c0,2.25293-.71972,3.72461-2.25293,4.44336,1.72071.7207,2.28418,2.3789,2.28418,4.66406v3.3789a6.43949,6.43949,0,0,0,.376,2.66016Zm-3.75488-18.77734v6.72851h1.3457c1.2832,0,2.06543-.5625,2.06543-2.31543V374.2396c0-1.56445-.53223-2.2539-1.75293-2.2539Z"/><path class="cls-1" d="M207.73047,390.763h-3.47363l-.59473-3.97461h-4.22559l-.59472,3.97461h-3.16016l3.50488-21.90625h5.03907Zm-7.85547-6.94726h3.31738l-1.6582-11.07813Z"/></svg>