<?xml version="1.0" encoding="utf-8"?>
<!-- Generator: Adobe Illustrator 23.0.1, SVG Export Plug-In . SVG Version: 6.00 Build 0)  -->
<svg version="1.1" id="Layer_2" xmlns="http://www.w3.org/2000/svg" xmlns:xlink="http://www.w3.org/1999/xlink" x="0px" y="0px"
	 viewBox="0 0 37 52" style="enable-background:new 0 0 37 52;" xml:space="preserve">
<style type="text/css">
	.st0{fill:url(#SVGID_1_);}
	.st1{fill:#FFFFFF;}
	.st2{fill:#BA9544;}
</style>
<g>
	<linearGradient id="SVGID_1_" gradientUnits="userSpaceOnUse" x1="1.8492" y1="17.3838" x2="34.4068" y2="17.3838">
		<stop  offset="0" style="stop-color:#A88A34"/>
		<stop  offset="0.4932" style="stop-color:#CAAF67"/>
		<stop  offset="1" style="stop-color:#957F2E"/>
	</linearGradient>
	<polygon class="st0" points="15.37,0.71 1.85,16.35 12.52,34.06 32.65,29.37 34.41,8.76 	"/>
	<path class="st1" d="M22.86,19.14c-0.1,0.13-0.28,0.16-0.42,0.06c-0.13-0.1-0.16-0.29-0.06-0.42c0.1-0.13,0.28-0.16,0.41-0.06
		C22.93,18.82,22.96,19.01,22.86,19.14 M21.08,15.37c-0.21,0-0.37-0.17-0.37-0.37c0-0.21,0.17-0.37,0.37-0.37
		c0.2,0,0.37,0.17,0.37,0.37C21.46,15.2,21.29,15.37,21.08,15.37 M20.71,19.89c-0.2,0-0.37-0.17-0.37-0.37
		c0-0.21,0.17-0.37,0.37-0.37c0.21,0,0.37,0.17,0.37,0.37C21.09,19.72,20.92,19.89,20.71,19.89 M20.65,17.13
		c0.16,0,0.3,0.13,0.3,0.3c0,0.16-0.13,0.3-0.3,0.3c-0.16,0-0.3-0.14-0.3-0.3C20.35,17.27,20.49,17.13,20.65,17.13 M19.86,22
		c-0.09,0.15-0.29,0.21-0.45,0.12c-0.15-0.09-0.21-0.29-0.12-0.45c0.09-0.15,0.29-0.21,0.45-0.12C19.9,21.64,19.95,21.84,19.86,22
		 M18.32,17.09c-0.18,0-0.33-0.15-0.33-0.33c0-0.18,0.15-0.33,0.33-0.33c0.18,0,0.33,0.15,0.33,0.33
		C18.65,16.95,18.5,17.09,18.32,17.09 M18.23,19.61c-0.16,0-0.3-0.13-0.3-0.3c0-0.16,0.14-0.3,0.3-0.3c0.16,0,0.3,0.14,0.3,0.3
		C18.52,19.47,18.39,19.61,18.23,19.61 M17.26,20.95c-0.16,0-0.3-0.13-0.3-0.3c0-0.16,0.14-0.3,0.3-0.3c0.16,0,0.3,0.13,0.3,0.3
		C17.55,20.82,17.42,20.95,17.26,20.95 M16.92,18.58c-0.13,0.16-0.37,0.18-0.53,0.04c-0.16-0.13-0.17-0.37-0.04-0.53
		c0.13-0.16,0.37-0.18,0.52-0.04C17.03,18.19,17.05,18.42,16.92,18.58 M15.99,15.49c0-0.18,0.15-0.33,0.33-0.33
		c0.18,0,0.33,0.15,0.33,0.33c0,0.18-0.15,0.33-0.33,0.33C16.13,15.82,15.99,15.68,15.99,15.49 M20.78,13.5
		c0.94-0.51,1.68-1.29,1.68-1.29c-0.88-0.1-1.58,0.01-2.12,0.22c0.43-0.84,0.33-1.64,0.33-1.64c-0.53,0.04-0.93,0.46-1.23,0.98
		c-0.03-0.85-0.43-1.44-0.43-1.44c-0.52,0.31-0.68,0.98-0.68,1.66c-0.3-0.57-0.71-1.04-1.28-1.08c0,0-0.1,0.75,0.3,1.57
		c-0.56-0.24-1.29-0.38-2.24-0.27c0,0,0.79,0.83,1.77,1.34c-1.77,0.38-3.01,1.37-3.01,3.44c0,2.81,3.54,7.45,5.08,7.45
		c1.67,0,5.08-4.65,5.08-7.45C24.03,14.83,22.68,13.84,20.78,13.5"/>
	<g>
		<path class="st2" d="M7.93,48.26c0.54,0.36,0.82,0.83,0.85,1.4c-0.05,1.15-0.67,1.77-1.85,1.83l-3.44,0v-6.12h3.25
			c1.03,0.06,1.58,0.66,1.63,1.8C8.35,47.72,8.21,48.08,7.93,48.26z M4.72,47.82h1.71c0.49-0.01,0.75-0.26,0.76-0.76
			c-0.01-0.3-0.26-0.46-0.75-0.47H4.72V47.82z M4.72,50.54h2c0.57-0.01,0.87-0.3,0.88-0.89c-0.01-0.39-0.3-0.6-0.87-0.61H4.72V50.54
			z"/>
		<path class="st2" d="M9.99,51.49v-6.12l4.5,0v1.14h-3.27v1.31h2.45v1.14h-2.45v1.39h3.26v1.14H9.99z"/>
		<path class="st2" d="M19.4,48.82l1.53,2.67h-1.4l-1.46-2.53h-1.12v2.53h-1.22v-6.13h2.67c1.43,0,2.14,0.59,2.14,1.76
			C20.53,48.02,20.15,48.58,19.4,48.82z M16.94,47.82h1.71c0.49-0.01,0.75-0.23,0.76-0.67c-0.01-0.4-0.26-0.61-0.75-0.63h-1.73
			V47.82z"/>
		<path class="st2" d="M25.25,48.82l1.53,2.67h-1.4l-1.46-2.53h-1.12v2.53h-1.22v-6.13h2.67c1.43,0,2.14,0.59,2.14,1.76
			C26.38,48.02,26,48.58,25.25,48.82z M22.79,47.82h1.71c0.49-0.01,0.75-0.23,0.76-0.67c-0.01-0.4-0.26-0.61-0.75-0.63h-1.73V47.82z
			"/>
		<path class="st2" d="M27.05,45.37h1.44l1.42,2l1.45-2h1.4l-2.24,3.06v3.06H29.3v-3.06L27.05,45.37z"/>
	</g>
</g>
</svg>
