<?xml version="1.0" encoding="utf-8"?>
<!-- Generator: Adobe Illustrator 23.0.1, SVG Export Plug-In . SVG Version: 6.00 Build 0)  -->
<svg version="1.1" id="Layer_2" xmlns="http://www.w3.org/2000/svg" xmlns:xlink="http://www.w3.org/1999/xlink" x="0px" y="0px"
	 viewBox="0 0 728 90" enable-background="new 0 0 728 90" xml:space="preserve">
<g>
	<g>
		<polygon fill="#FFFFFF" stroke="#BA9544" stroke-width="0.5" stroke-miterlimit="10" points="445.76,51.02 314.83,50.52 
			308.22,60.07 314.83,69.44 445.76,69.22 451.71,60.12 		"/>
		<g>
			<defs>
				<polygon id="SVGID_1_" points="308.36,60.09 314.97,69.46 315.1,69.47 315.1,50.55 314.97,50.54 				"/>
			</defs>
			<use xlink:href="#SVGID_1_"  overflow="visible" fill="#BA9544"/>
			<clipPath id="SVGID_2_">
				<use xlink:href="#SVGID_1_"  overflow="visible"/>
			</clipPath>
			<g clip-path="url(#SVGID_2_)">
				<defs>
					<rect id="SVGID_3_" x="306.9" y="49.08" width="9.66" height="21.85"/>
				</defs>
				<use xlink:href="#SVGID_3_"  overflow="visible" fill="#BA9544"/>
				<clipPath id="SVGID_4_">
					<use xlink:href="#SVGID_3_"  overflow="visible"/>
				</clipPath>
			</g>
		</g>
	</g>
	<g>
		<path fill="#BA9544" d="M385.14,63.22c-0.61-0.61-0.92-1.38-0.92-2.3c0-0.9,0.31-1.66,0.92-2.27c0.61-0.61,1.37-0.92,2.28-0.92
			c0.92,0,1.7,0.29,2.35,0.86l-0.85,0.94c-0.44-0.34-0.94-0.51-1.5-0.51c-0.58,0-1.04,0.18-1.39,0.54
			c-0.35,0.36-0.53,0.81-0.53,1.37c0,0.6,0.18,1.07,0.53,1.42c0.35,0.35,0.82,0.53,1.39,0.53s1.07-0.17,1.49-0.51l0.85,0.94
			c-0.65,0.57-1.44,0.86-2.35,0.86C386.52,64.14,385.76,63.83,385.14,63.22z"/>
		<path fill="#BA9544" d="M395.71,60.75c0.56,0.38,0.86,0.87,0.89,1.47c-0.06,1.21-0.7,1.85-1.94,1.92l-3.61,0v-6.41h3.4
			c1.08,0.06,1.65,0.69,1.71,1.89C396.15,60.18,396,60.56,395.71,60.75z M392.35,60.3h1.79c0.52-0.01,0.78-0.28,0.79-0.8
			c-0.01-0.31-0.28-0.48-0.78-0.5h-1.81V60.3z M392.35,63.14h2.09c0.6-0.01,0.91-0.32,0.92-0.93c-0.01-0.41-0.32-0.63-0.91-0.64
			h-2.11V63.14z"/>
		<path fill="#BA9544" d="M397.88,64.14v-6.42h2.47c1.99,0,2.99,1.07,2.99,3.21c0,2.14-1,3.21-2.99,3.21H397.88z M400.35,62.86
			c1.14,0,1.71-0.65,1.71-1.93c0-1.28-0.57-1.93-1.71-1.93h-1.19v3.86H400.35z"/>
		<path fill="#BA9544" d="M404.77,60.05c0.11-0.12,0.27-0.17,0.46-0.17c0.21,0,0.36,0.06,0.48,0.17s0.17,0.26,0.17,0.43
			c0,0.17-0.06,0.31-0.17,0.43s-0.27,0.17-0.47,0.17c-0.2,0-0.36-0.06-0.47-0.17s-0.17-0.26-0.17-0.43
			C404.6,60.3,404.66,60.16,404.77,60.05z M404.77,63.11c0.11-0.12,0.27-0.17,0.46-0.17c0.21,0,0.36,0.06,0.48,0.17
			c0.11,0.12,0.17,0.26,0.17,0.43c0,0.17-0.06,0.31-0.17,0.43s-0.27,0.17-0.47,0.17c-0.2,0-0.36-0.06-0.47-0.17
			s-0.17-0.26-0.17-0.43C404.6,63.37,404.66,63.23,404.77,63.11z"/>
		<path fill="#BA9544" d="M413.94,59.56l-2.48,1.37l2.48,1.37v0.98l-4.05-2.23v-0.28l4.05-2.2V59.56z"/>
		<path fill="#BA9544" d="M419.5,57.72L419.5,57.72l1.28,0v6.42h-1.28v-4.71l-0.85,0.86l-0.85-0.86L419.5,57.72z"/>
	</g>
</g>
<g>
</g>
<g>
</g>
<g>
</g>
<g>
</g>
<g>
</g>
<g>
</g>
<g>
</g>
<g>
</g>
<g>
</g>
<g>
</g>
<g>
</g>
<g>
</g>
<g>
</g>
<g>
</g>
<g>
</g>
</svg>
