<svg id="Layer_1" data-name="Layer 1" xmlns="http://www.w3.org/2000/svg" xmlns:xlink="http://www.w3.org/1999/xlink" width="320" height="480" viewBox="0 0 320 480"><defs><style>.cls-1{fill:url(#linear-gradient);}.cls-2{fill:url(#linear-gradient-2);}.cls-3{fill:#fff;}.cls-4{fill:url(#linear-gradient-3);}</style><linearGradient id="linear-gradient" x1="174.08087" y1="366.55816" x2="174.08087" y2="398.37163" gradientUnits="userSpaceOnUse"><stop offset="0" stop-color="#ceb467"/><stop offset="1" stop-color="#997f2f"/></linearGradient><linearGradient id="linear-gradient-2" x1="104.99233" y1="366.5109" x2="104.99233" y2="398.41889" xlink:href="#linear-gradient"/><linearGradient id="linear-gradient-3" x1="97.15954" y1="381.59574" x2="167.24076" y2="382.21869" gradientUnits="userSpaceOnUse"><stop offset="0" stop-color="#ad8f35"/><stop offset="0.1878" stop-color="#ceb467"/><stop offset="0.46098" stop-color="#a58f4b"/><stop offset="0.76341" stop-color="#ceb467"/><stop offset="1" stop-color="#997f2f"/></linearGradient></defs><title>learnmore</title><path class="cls-1" d="M221.62791,398.37163H117.88358l9.01044-15.90645-9.01044-15.907H221.62791l8.65026,15.907Zm-101.71922-1.18026H220.926l8.00826-14.72619L220.926,367.73842H119.90869l8.34194,14.72676Z"/><path class="cls-2" d="M114.38947,398.41889l-18.95219-.09451L86.83485,382.3747l8.76033-15.8638,18.9522.09451,8.60242,15.94968Zm-18.24565-1.27132,17.55063.0876,8.11027-14.687-7.96389-14.766-17.55063-.0876-8.11027,14.687Z"/><path class="cls-3" d="M142.47848,378.99655v5.64188h3.6996v1.29486h-5.087v-6.93674Z"/><path class="cls-3" d="M147.68066,385.93329v-6.93212l5.09619-.00462v1.29486H149.068v1.47983h2.77932v1.29024H149.068v1.577h3.69959v1.29486Z"/><path class="cls-3" d="M154.18694,385.93329l2.7747-6.93674H158.349l2.77007,6.93212-1.47521.00462-.41621-1.06363H156.083l-.4162,1.06363Zm3.50537-5.08694-1.05439,2.636h2.081Z"/><path class="cls-3" d="M166.70969,382.90887l1.72957,3.02442h-1.59083l-1.6602-2.86719h-1.26711v2.86719h-1.38735v-6.93674h3.02442q2.42787,0,2.42787,1.99778A1.79381,1.79381,0,0,1,166.70969,382.90887Zm-2.78857-1.13763h1.94229q.837-.01386.86016-.763-.02313-.68442-.84629-.71217h-1.95616Z"/><path class="cls-3" d="M169.5395,385.93329v-6.93674h.46245l4.347,4.347v-4.347h1.38735v6.93674h-.5087l-4.30078-4.30078v4.30078Z"/><path class="cls-3" d="M181.16934,385.93329v-6.93674h.46245l3.00593,3.42212,3.01054-3.42212h.46245v6.93674h-1.38735l-.00462-4.02331-2.081,2.31225-2.081-2.31225v4.02331Z"/><path class="cls-3" d="M190.51507,384.93671a3.57239,3.57239,0,1,1,2.4741.99658A3.36045,3.36045,0,0,1,190.51507,384.93671Zm2.47873-.29828a1.94857,1.94857,0,0,0,1.49834-.6243,2.365,2.365,0,0,0,0-3.09842,2.12129,2.12129,0,0,0-3.00593,0,2.365,2.365,0,0,0,0,3.09842A1.95945,1.95945,0,0,0,192.9938,384.63843Z"/><path class="cls-3" d="M202.04355,382.90887l1.72957,3.02442h-1.59083l-1.6602-2.86719H199.255v2.86719h-1.38735v-6.93674h3.02442q2.42787,0,2.42787,1.99778A1.79381,1.79381,0,0,1,202.04355,382.90887Zm-2.78857-1.13763h1.94229q.837-.01386.86016-.763-.02313-.68442-.84628-.71217H199.255Z"/><path class="cls-3" d="M204.85486,385.93329v-6.93212l5.0962-.00462v1.29486h-3.70885v1.47983h2.77933v1.29024h-2.77933v1.577h3.6996v1.29486Z"/><path class="cls-4" d="M111.21132,386.43415l.19-.0623a2.13481,2.13481,0,0,0-.40242.12429l-1.98984.82929,1.20415-.8972-.00919.00156-.02741-.207-.21881-.361a7.20911,7.20911,0,0,0,1.63959-1.69253l-1.60875.7701,1.63912-1.36518a2.70834,2.70834,0,0,0,.52047-.56423c.21133-.31957.40756-.64692.58666-.97817l-.50817.50177.60908-1.325a17.499,17.499,0,0,0,.90109-2.49146,21.23453,21.23453,0,0,0-2.41469,1.5558l-1.19247.90374.38031-.59258c-.30851.26226-.60674.53916-.89143.82743a2.62135,2.62135,0,0,0-.439.61515l-.87088,1.66809.30945-1.52263a7.20259,7.20259,0,0,0-.69007.8254l-.15169.21181-.13922-.09562a.34842.34842,0,0,0-.02149.03628l-1.19637,2.26861.70549-2.46577a7.82636,7.82636,0,0,0,.23407-3.09448l-.82384,1.5312.399-1.84189a3.00052,3.00052,0,0,0,.0623-.91915,14.85755,14.85755,0,0,0-.31646-1.85934l-.1087.90421-.35757-1.31816a22.41942,22.41942,0,0,0-1.22144-3.3058,22.412,22.412,0,0,0-1.22128,3.3058l-.35773,1.31816-.10855-.90421a14.82467,14.82467,0,0,0-.31645,1.85934,2.997,2.997,0,0,0,.0623.9193l.39852,1.84236-.82338-1.5315a7.82478,7.82478,0,0,0,.23392,3.09416l.70564,2.46592L102.36879,383.15a.37721.37721,0,0,0-.02166-.03628l-.13907.09562-.15184-.21181a7.19591,7.19591,0,0,0-.68991-.8254l.30945,1.52263-.871-1.66809a2.61946,2.61946,0,0,0-.43886-.61515c-.28406-.2878-.58214-.56424-.89019-.82634l.38125.5932-1.19481-.90545a21.21954,21.21954,0,0,0-2.41469-1.5558,17.48288,17.48288,0,0,0,.90124,2.49146l.60909,1.325-.50817-.50177c.179.33125.37533.6586.58666.97817a2.703,2.703,0,0,0,.52032.56423l1.63928,1.36518-1.60876-.7701a7.20615,7.20615,0,0,0,1.63959,1.69253l-.21881.361-.02741.207-.00934-.00156,1.2043.8972-1.99-.82929a2.12936,2.12936,0,0,0-.40225-.12429l.18984.0623-1.70563-.00389a14.65163,14.65163,0,0,0-1.62557.09842,13.384,13.384,0,0,0,1.38979.76389l1.50067.70409-.17256-.02088a2.24074,2.24074,0,0,0,.38047.04859l2.27406.10092-1.5516.29559a5.58459,5.58459,0,0,0,1.12067.12318l1.64582.01075-.96245.3124,1.47872.257-2.27718.13674q-.05442.00325-.10651.00981l-1.04468.511c-.268.131-.51814.27332-.74909.41581.28655.02212.59521.03583.90778.03006l1.19044-.02118c.0324-.01152.06495-.02445.0975-.03847l1.96975-.85748-.99376.76622a3.44878,3.44878,0,0,0,.39-.16679s.15511.0894.1847.11431a.74078.74078,0,0,0,.08347-.01822,3.51693,3.51693,0,0,0,.86309-.504,3.63181,3.63181,0,0,1,.96774-.55223,2.41194,2.41194,0,0,1,.33889-.06323.92592.92592,0,0,1-.44618-.2783c-.21555-.21538-.29777-.50614-.09017-.56751.20744-.06135.584.29076.60846.29076a.44877.44877,0,0,0,.12568-.28982c0-.12428-.08893-.36613-.10544-.51221a2.444,2.444,0,0,0-.08861-.42392c-.0324-.0964-.25728-.1383-.37813-.21273a1.981,1.981,0,0,1-.30478-.211.96383.96383,0,0,1-.12957-.44215,1.74386,1.74386,0,0,0-.07272-.45023c-.04205-.0788-.15014-.13439-.22333-.20759a.31468.31468,0,0,1-.07523-.19343c.05608-.01759.07367.12693.13846.13924s.06026.06572.162.10075.105.08316.11805.1777.12709.41426.16477.54461c.03753.13051.07693.22862.20573.233.12864.00436.11119.071.26273.05871a.8465.8465,0,0,1,.36333.07008c.08144.02881.18392.03146.219-.02538.035-.057-.02445-.2864-.02445-.2864-.05264,0-.06152-.07086-.0816-.13658s.01246-.07086.01246-.07086a.27747.27747,0,1,1,.52871,0s.0324.00514.01231.07086c-.02024.06572-.02881.13658-.08145.13658,0,0-.05949.2294-.02461.2864.0352.05684.13752.05419.21912.02538a.84551.84551,0,0,1,.36333-.07008c.15139.01231.13394-.05435.26258-.05871.12879-.00436.16819-.10247.20588-.233.03769-.13035.15138-.45008.16461-.54461.01308-.09454.01666-.14281.11821-.1777s.09717-.08845.162-.10075c.06494-.01231.08239-.15683.13845-.13924a.31421.31421,0,0,1-.07537.19343c-.073.0732-.18128.12879-.22318.20759a1.73047,1.73047,0,0,0-.07272.45023.96357.96357,0,0,1-.12958.44215,1.996,1.996,0,0,1-.30477.211c-.12085.07443-.34589.11633-.37829.21273a2.43033,2.43033,0,0,0-.08845.42392c-.01667.14608-.10544.38793-.10544.51221a.448.448,0,0,0,.12568.28982c.02445,0,.401-.35211.60846-.29076.2076.06137.12537.35213-.09017.56751a.92471.92471,0,0,1-.44618.2783,2.40515,2.40515,0,0,1,.33873.06323,3.63181,3.63181,0,0,1,.96774.55223,3.5222,3.5222,0,0,0,.86293.504.7655.7655,0,0,0,.08363.01822c.02959-.02476.18486-.11431.18486-.11431a3.44956,3.44956,0,0,0,.39.16679l-.99376-.76622,1.9696.85748c.03255.014.06509.02695.09749.03847l1.1906.02118c.31256.00577.62107-.00794.90779-.03006-.231-.14249-.48123-.28484-.74925-.41581l-1.04468-.511c-.03458-.00437-.07023-.00764-.10637-.00981l-2.277-.13674,1.47964-.25712-.95933-.31225,1.64162-.01075a5.58586,5.58586,0,0,0,1.12067-.12318l-1.5516-.29559,2.27391-.10092a2.24032,2.24032,0,0,0,.38061-.04859l-.1727.02088,1.50067-.70409a13.38694,13.38694,0,0,0,1.38994-.76389,14.65389,14.65389,0,0,0-1.62557-.09842Z"/></svg>