<svg id="Layer_1" data-name="Layer 1" xmlns="http://www.w3.org/2000/svg" width="320" height="480" viewBox="0 0 320 480"><defs><style>.cls-1{fill:#fff;}</style></defs><title>reflection</title><path class="cls-1" d="M67.43223,289.5747H64.04844V267.131h4.848l3.15,16.09453,3.027-16.09453h4.66347V289.5747H76.35312v-14.1l-2.92441,14.1H70.71289L67.43223,275.511Z"/><path class="cls-1" d="M89.06269,266.86142a5.36741,5.36741,0,0,1,5.37715,5.37656v12.24375a5.36542,5.36542,0,0,1-5.37715,5.37656,5.11868,5.11868,0,0,1-3.78339-1.575,5.21043,5.21043,0,0,1-1.55684-3.80156V272.238a5.3655,5.3655,0,0,1,5.34023-5.37656Zm1.84571,5.31328a1.90989,1.90989,0,0,0-1.93184-1.93008,1.89528,1.89528,0,0,0-1.37226.559,1.84446,1.84446,0,0,0-.57188,1.3711v12.28359a1.85114,1.85114,0,0,0,.57188,1.36406,1.88315,1.88315,0,0,0,1.37226.566,1.92157,1.92157,0,0,0,1.93184-1.93008Z"/><path class="cls-1" d="M103.76562,267.131a5.12776,5.12776,0,0,1,4.14727,1.56328,5.646,5.646,0,0,1,1.16836,3.78984v3.26016a5.21774,5.21774,0,0,1-1.80586,4.02422l2.50781,9.80625H106.134l-2.06484-8.47735c-.09844.00821-.20039.01172-.307.01172h-1.94063v8.46563H98.43769V267.131Zm2.018,5.41406a1.71588,1.71588,0,0,0-1.92539-1.95586h-2.03672v7.173h2.03672a1.836,1.836,0,0,0,1.36758-.57188,1.89816,1.89816,0,0,0,.55781-1.37109Z"/><path class="cls-1" d="M113.69492,289.5747V267.131h9.63516v3.38437H117.0793v6.15235h4.56445V280.052H117.0793v6.13945h6.25078v3.38321Z"/><path class="cls-1" d="M138.6582,267.131a5.12516,5.12516,0,0,1,4.1461,1.56328,5.64635,5.64635,0,0,1,1.16953,3.78984v3.26016a5.22165,5.22165,0,0,1-1.80586,4.02422l2.50664,9.80625h-3.64922l-2.06367-8.47735c-.09844.00821-.20039.01172-.307.01172h-1.94063v8.46563h-3.3832V267.131Zm2.018,5.41406a1.71588,1.71588,0,0,0-1.92539-1.95586h-2.03672v7.173h2.03672a1.836,1.836,0,0,0,1.36758-.57188,1.89816,1.89816,0,0,0,.55781-1.37109Z"/><path class="cls-1" d="M148.5875,289.5747V267.131h9.634v3.38437H151.9707v6.15235h4.56445V280.052H151.9707v6.13945h6.25078v3.38321Z"/><path class="cls-1" d="M164.93867,289.5747h-3.3832V267.131h9.634v3.38437h-6.25078v6.15235h4.56445V280.052h-4.56445Z"/><path class="cls-1" d="M183.75078,289.5747h-9.22734V267.131h3.3832V286.2161h5.84414Z"/><path class="cls-1" d="M187.07422,289.5747V267.131h9.634v3.38437h-6.25078v6.15235h4.56445V280.052h-4.56445v6.13945h6.25078v3.38321Z"/><path class="cls-1" d="M205.407,289.85829a5.33556,5.33556,0,0,1-5.36484-5.35312v-12.2918a5.35841,5.35841,0,1,1,10.71679,0v2.55937h-3.50742v-2.62148a1.9545,1.9545,0,0,0-1.95586-1.95586,1.84666,1.84666,0,0,0-1.36523.573,1.88635,1.88635,0,0,0-.56719,1.38281v12.31758a1.93455,1.93455,0,0,0,1.93242,1.94414,1.8944,1.8944,0,0,0,1.384-.566,1.86293,1.86293,0,0,0,.57187-1.37812V281.381H210.759v3.12422a5.34536,5.34536,0,0,1-5.352,5.35312Z"/><path class="cls-1" d="M217.68594,270.51532h-3.593V267.131h10.55625v3.38437h-3.58008V289.5747h-3.3832Z"/><path class="cls-1" d="M231.76015,289.5747H228.377V267.131h3.3832Z"/><path class="cls-1" d="M241.09765,266.86142a5.36741,5.36741,0,0,1,5.37774,5.37656v12.24375a5.36542,5.36542,0,0,1-5.37774,5.37656,5.11741,5.11741,0,0,1-3.78281-1.575,5.20992,5.20992,0,0,1-1.55625-3.80156V272.238a5.36551,5.36551,0,0,1,5.33906-5.37656Zm1.84688,5.31328a1.91087,1.91087,0,0,0-1.93242-1.93008,1.89528,1.89528,0,0,0-1.37227.559,1.84445,1.84445,0,0,0-.57187,1.3711v12.28359a1.85113,1.85113,0,0,0,.57187,1.36406,1.88316,1.88316,0,0,0,1.37227.566,1.92257,1.92257,0,0,0,1.93242-1.93008Z"/><path class="cls-1" d="M254.25078,267.131l4.47891,15.07383V267.131h3.38437V289.5747h-3.62461l-4.657-14.37188V289.5747h-3.3832V267.131Z"/><path class="cls-1" d="M265.44687,286.20439h3.38321v3.3832h-3.38321Z"/></svg>