<svg id="Content" xmlns="http://www.w3.org/2000/svg" xmlns:xlink="http://www.w3.org/1999/xlink" viewBox="0 0 640 1136"><defs><style>.cls-1{fill:#ba9544;}.cls-2{fill:#fff;stroke:#ba9544;stroke-miterlimit:10;stroke-width:0.96px;}.cls-3{clip-path:url(#clip-path);}</style><clipPath id="clip-path"><polygon class="cls-1" points="127.92 795.53 145.89 820.98 146.24 821.01 146.24 769.63 145.89 769.62 127.92 795.53"/></clipPath></defs><title>CBD - Ultra Sour</title><polygon class="cls-2" points="501.38 770.91 145.5 769.56 127.53 795.47 145.5 820.92 501.38 820.31 517.55 795.61 501.38 770.91"/><polygon class="cls-1" points="127.92 795.53 145.89 820.98 146.24 821.01 146.24 769.63 145.89 769.62 127.92 795.53"/><g class="cls-3"><rect class="cls-1" x="123.95" y="765.65" width="26.26" height="59.33"/></g><path class="cls-1" d="M336.61,804a8.72,8.72,0,0,1,6.2-14.92,9.41,9.41,0,0,1,6.4,2.32L346.89,794a6.45,6.45,0,0,0-4.08-1.4A5.13,5.13,0,0,0,339,794a5,5,0,0,0-1.44,3.71,5.24,5.24,0,0,0,1.46,3.86,5.14,5.14,0,0,0,3.78,1.43,6.26,6.26,0,0,0,4.06-1.38l2.32,2.54a9.39,9.39,0,0,1-6.4,2.32A8.5,8.5,0,0,1,336.61,804Z"/><path class="cls-1" d="M365.33,797.33a5,5,0,0,1,2.43,4c-.15,3.28-1.91,5-5.26,5.21h-9.8V789.11h9.24q4.41.25,4.65,5.12C366.53,795.78,366.12,796.82,365.33,797.33Zm-9.14-1.24h4.88a2,2,0,0,0,2.16-2.17c0-.85-.75-1.3-2.12-1.35h-4.92Zm0,7.71h5.69a2.27,2.27,0,0,0,2.51-2.52c0-1.11-.86-1.69-2.47-1.74h-5.73Z"/><path class="cls-1" d="M371.24,806.52V789.09H378q8.13,0,8.13,8.72T378,806.52Zm6.71-3.47c3.09,0,4.64-1.75,4.65-5.24s-1.56-5.23-4.65-5.23h-3.23v10.47Z"/><path class="cls-1" d="M398.1,795.41a1.71,1.71,0,0,1,1.26-.47,1.75,1.75,0,0,1,1.3.47,1.6,1.6,0,0,1,.46,1.17,1.58,1.58,0,0,1-.46,1.16,2,2,0,0,1-2.56,0,1.58,1.58,0,0,1-.46-1.16A1.6,1.6,0,0,1,398.1,795.41Zm0,8.32a1.71,1.71,0,0,1,1.26-.47,1.75,1.75,0,0,1,1.3.47,1.71,1.71,0,0,1,0,2.33,2,2,0,0,1-2.56,0,1.71,1.71,0,0,1,0-2.33Z"/><path class="cls-1" d="M423,794.09l-6.74,3.72,6.74,3.72v2.67l-11-6.05v-.76l11-6Z"/><path class="cls-1" d="M438.12,789.1h3.47v17.43h-3.47V793.75l-2.32,2.32-2.33-2.32Z"/></svg>