<svg id="Content" xmlns="http://www.w3.org/2000/svg" viewBox="0 0 640 100"><defs><style>.cls-1{fill:#ba9544;}</style></defs><title>Frame1 -Ultra Sour</title><path class="cls-1" d="M240.56,37V55.34c0,1.7.75,2.32,1.94,2.32s1.94-.62,1.94-2.32V37H248V55.11c0,3.8-1.9,6-5.58,6s-5.57-2.18-5.57-6V37Z"/><path class="cls-1" d="M254.13,37h3.74V57.38H264v3.4h-9.89Z"/><path class="cls-1" d="M268.17,37h11.56v3.4h-3.91V60.78h-3.74V40.39h-3.91Z"/><path class="cls-1" d="M292.78,60.78a7.36,7.36,0,0,1-.34-2.92V54.12c0-2.21-.75-3-2.45-3H288.7v9.69H285V37h5.65c3.87,0,5.54,1.8,5.54,5.47v1.87c0,2.45-.78,4.05-2.45,4.83,1.87.78,2.48,2.58,2.48,5.06v3.67a7.05,7.05,0,0,0,.41,2.89ZM288.7,40.39V47.7h1.46c1.4,0,2.25-.62,2.25-2.52V42.83c0-1.7-.58-2.44-1.91-2.44Z"/><path class="cls-1" d="M314.34,60.78h-3.78l-.64-4.31h-4.59l-.65,4.31h-3.43L305.06,37h5.47Zm-8.54-7.54h3.61l-1.8-12Z"/><path class="cls-1" d="M333.58,36.72c3.64,0,5.51,2.17,5.51,6v.75h-3.54v-1c0-1.7-.68-2.35-1.87-2.35s-1.87.65-1.87,2.35c0,4.9,7.31,5.81,7.31,12.61,0,3.81-1.9,6-5.57,6s-5.58-2.18-5.58-6V53.61h3.54v1.7c0,1.7.75,2.31,1.94,2.31s1.93-.61,1.93-2.31c0-4.89-7.31-5.81-7.31-12.61C328.07,38.89,329.94,36.72,333.58,36.72Z"/><path class="cls-1" d="M344.56,42.7c0-3.81,2-6,5.68-6s5.68,2.17,5.68,6V55.07c0,3.81-2,6-5.68,6s-5.68-2.18-5.68-6Zm3.74,12.61c0,1.7.75,2.35,1.94,2.35s1.94-.65,1.94-2.35V42.46c0-1.7-.75-2.35-1.94-2.35s-1.94.65-1.94,2.35Z"/><path class="cls-1" d="M365.51,37V55.34c0,1.7.75,2.32,1.94,2.32s1.93-.62,1.93-2.32V37h3.54V55.11c0,3.8-1.9,6-5.58,6s-5.57-2.18-5.57-6V37Z"/><path class="cls-1" d="M386.89,60.78a7.36,7.36,0,0,1-.34-2.92V54.12c0-2.21-.75-3-2.44-3h-1.3v9.69h-3.74V37h5.65c3.87,0,5.54,1.8,5.54,5.47v1.87c0,2.45-.78,4.05-2.45,4.83,1.87.78,2.48,2.58,2.48,5.06v3.67a7.05,7.05,0,0,0,.41,2.89Zm-4.08-20.39V47.7h1.47c1.39,0,2.24-.62,2.24-2.52V42.83c0-1.7-.58-2.44-1.9-2.44Z"/></svg>