<svg id="Content" xmlns="http://www.w3.org/2000/svg" viewBox="0 0 640 1136"><defs><style>.cls-1{fill:#ba9544;}</style></defs><title>Frame2 - Ultra Sour</title><path class="cls-1" d="M170.9,351.7v37.16c0,3.44,1.51,4.68,3.92,4.68s3.92-1.24,3.92-4.68V351.7h7.16v36.68c0,7.71-3.85,12.11-11.29,12.11s-11.28-4.4-11.28-12.11V351.7Z"/><path class="cls-1" d="M198.36,351.7h7.56V393h12.46v6.88h-20Z"/><path class="cls-1" d="M226.78,351.7h23.39v6.88h-7.91v41.29h-7.57V358.58h-7.91Z"/><path class="cls-1" d="M276.6,399.87c-.41-1.24-.69-2-.69-5.92v-7.57c0-4.47-1.51-6.12-5-6.12h-2.62v19.61h-7.57V351.7h11.42c7.85,0,11.22,3.65,11.22,11.08v3.78c0,5-1.58,8.19-5,9.78,3.78,1.58,5,5.22,5,10.25V394a14.14,14.14,0,0,0,.83,5.85Zm-8.26-41.29v14.8h3c2.82,0,4.54-1.24,4.54-5.1v-4.75c0-3.44-1.17-4.95-3.85-4.95Z"/><path class="cls-1" d="M320.23,399.87h-7.64l-1.31-8.74H302l-1.31,8.74h-6.95l7.71-48.17h11.08ZM303,384.59h7.29l-3.65-24.36Z"/><path class="cls-1" d="M359.18,351.15c7.36,0,11.15,4.4,11.15,12.11v1.51h-7.16v-2c0-3.44-1.38-4.75-3.78-4.75s-3.79,1.31-3.79,4.75c0,9.91,14.8,11.77,14.8,25.53,0,7.71-3.86,12.11-11.29,12.11s-11.29-4.4-11.29-12.11v-3H355v3.44c0,3.44,1.52,4.68,3.92,4.68s3.93-1.24,3.93-4.68c0-9.91-14.8-11.77-14.8-25.53C348,355.55,351.82,351.15,359.18,351.15Z"/><path class="cls-1" d="M381.41,363.26c0-7.71,4.06-12.11,11.49-12.11s11.49,4.4,11.49,12.11v25.05c0,7.71-4.06,12.11-11.49,12.11s-11.49-4.4-11.49-12.11ZM389,388.79c0,3.44,1.51,4.75,3.92,4.75s3.92-1.31,3.92-4.75v-26c0-3.44-1.51-4.75-3.92-4.75s-3.92,1.31-3.92,4.75Z"/><path class="cls-1" d="M423.8,351.7v37.16c0,3.44,1.51,4.68,3.92,4.68s3.92-1.24,3.92-4.68V351.7h7.16v36.68c0,7.71-3.85,12.11-11.29,12.11s-11.28-4.4-11.28-12.11V351.7Z"/><path class="cls-1" d="M467.08,399.87c-.41-1.24-.69-2-.69-5.92v-7.57c0-4.47-1.51-6.12-4.95-6.12h-2.62v19.61h-7.56V351.7h11.42c7.84,0,11.22,3.65,11.22,11.08v3.78c0,5-1.59,8.19-5,9.78,3.79,1.58,5,5.22,5,10.25V394a14.14,14.14,0,0,0,.83,5.85Zm-8.26-41.29v14.8h3c2.83,0,4.55-1.24,4.55-5.1v-4.75c0-3.44-1.17-4.95-3.86-4.95Z"/></svg>