<svg id="Layer_1" data-name="Layer 1" xmlns="http://www.w3.org/2000/svg" width="320" height="50" viewBox="0 0 320 50"><defs><style>.cls-1{fill:#fff;}</style></defs><title>self-care</title><path class="cls-1" d="M136.41,31H135V21.43H137l1.34,6.87,1.29-6.87h2V31h-1.44V25L139,31h-1.16l-1.4-6Z"/><path class="cls-1" d="M145.64,21.32a2.21,2.21,0,0,1,1.63.67,2.24,2.24,0,0,1,.67,1.62v5.23a2.29,2.29,0,0,1-2.3,2.29,2.17,2.17,0,0,1-1.61-.67,2.24,2.24,0,0,1-.67-1.62V23.61A2.2,2.2,0,0,1,144,22,2.16,2.16,0,0,1,145.64,21.32Zm.79,2.27a.81.81,0,0,0-.24-.59.78.78,0,0,0-.58-.24.82.82,0,0,0-.83.83v5.24a.82.82,0,0,0,.83.82.78.78,0,0,0,.58-.24.8.8,0,0,0,.24-.58Z"/><path class="cls-1" d="M151.92,21.43a2.22,2.22,0,0,1,1.77.67,2.43,2.43,0,0,1,.49,1.62v1.39a2.22,2.22,0,0,1-.77,1.72L154.48,31h-1.55l-.88-3.62h-1V31h-1.45V21.43Zm.86,2.31a.73.73,0,0,0-.82-.83h-.87V26H152a.78.78,0,0,0,.58-.24.82.82,0,0,0,.24-.59Z"/><path class="cls-1" d="M156.15,31V21.43h4.11v1.45H157.6V25.5h1.94V27H157.6v2.62h2.66V31Z"/><path class="cls-1" d="M169.3,28.63a2.66,2.66,0,0,1-.52,1.71,1.78,1.78,0,0,1-1,.68,2.76,2.76,0,0,1-.8.11,2.27,2.27,0,0,1-1.41-.42,2.32,2.32,0,0,1-.73-.94,3.53,3.53,0,0,1-.32-1.36l1.37-.09a2,2,0,0,0,.45,1.2.73.73,0,0,0,.59.27.89.89,0,0,0,.76-.46,1.23,1.23,0,0,0,.14-.63,1.79,1.79,0,0,0-.54-1.2L166,26.29a5.58,5.58,0,0,1-1-1.24,3,3,0,0,1-.32-1.35,2.33,2.33,0,0,1,.88-2,2.17,2.17,0,0,1,1.34-.4,2.38,2.38,0,0,1,1.33.35,1.88,1.88,0,0,1,.68.74,2.62,2.62,0,0,1,.32,1.11l-1.38.25a1.57,1.57,0,0,0-.34-.91.69.69,0,0,0-.57-.24.65.65,0,0,0-.6.35,1.28,1.28,0,0,0-.17.7,2.12,2.12,0,0,0,.57,1.34,4.86,4.86,0,0,0,.64.61c.33.28.55.47.66.59a5,5,0,0,1,.83,1.05,4.6,4.6,0,0,1,.22.45A2.68,2.68,0,0,1,169.3,28.63Z"/><path class="cls-1" d="M170.93,31V21.43H175v1.45h-2.67V25.5h1.95V27h-1.95v2.62H175V31Z"/><path class="cls-1" d="M180.4,31h-3.94V21.43h1.45v8.15h2.49Z"/><path class="cls-1" d="M183.26,31h-1.44V21.43h4.11v1.45h-2.67V25.5h2V27h-2Z"/><path class="cls-1" d="M187.3,26h3.87v1.31H187.3Z"/><path class="cls-1" d="M194.8,31.13a2.29,2.29,0,0,1-2.29-2.28V23.6a2.2,2.2,0,0,1,.67-1.62,2.24,2.24,0,0,1,1.62-.67,2.29,2.29,0,0,1,2.28,2.29v1.09h-1.49V23.58a.82.82,0,0,0-.25-.59.78.78,0,0,0-.59-.25.76.76,0,0,0-.58.25.81.81,0,0,0-.24.59v5.25a.81.81,0,0,0,.24.59.78.78,0,0,0,.58.24.81.81,0,0,0,.59-.24.82.82,0,0,0,.25-.59V27.51h1.49v1.34a2.2,2.2,0,0,1-.67,1.62A2.23,2.23,0,0,1,194.8,31.13Z"/><path class="cls-1" d="M200.19,28.81l-.35,2.2h-1.5L200,21.43h2l1.6,9.58H202l-.34-2.2Zm.76-5.18-.54,3.77h1.07Z"/><path class="cls-1" d="M207.47,21.43a2.21,2.21,0,0,1,1.77.67,2.43,2.43,0,0,1,.5,1.62v1.39a2.25,2.25,0,0,1-.77,1.72L210,31h-1.56l-.88-3.62h-1V31H205.2V21.43Zm.86,2.31a.73.73,0,0,0-.82-.83h-.87V26h.87a.78.78,0,0,0,.58-.24.82.82,0,0,0,.24-.59Z"/><path class="cls-1" d="M211.71,31V21.43h4.11v1.45h-2.67V25.5h1.95V27h-1.95v2.62h2.67V31Z"/><path class="cls-1" d="M217.24,29.57h1.44V31h-1.44Z"/></svg>