<svg id="Layer_1" data-name="Layer 1" xmlns="http://www.w3.org/2000/svg" width="320" height="50" viewBox="0 0 320 50"><defs><style>.cls-1{fill:#fff;}</style></defs><title>newyear</title><path class="cls-1" d="M82.63,21.43l1.91,6.44V21.43H86V31H84.44l-2-6.13V31H81V21.43Z"/><path class="cls-1" d="M87.71,31V21.43h4.11v1.45H89.15V25.5H91.1V27H89.15v2.62h2.67V31Z"/><path class="cls-1" d="M99.17,21.43h1.52L99.19,31H97.8L97,25.79,96.22,31H94.84l-1.6-9.58h1.51l.76,5.13.69-5.13h1.52l.75,5.13Z"/><path class="cls-1" d="M105.46,27l-1.93-5.57h1.59l1.07,3.44,1.06-3.44h1.6L106.91,27v4h-1.45Z"/><path class="cls-1" d="M110.43,31V21.43h4.11v1.45h-2.67V25.5h1.95V27h-1.95v2.62h2.67V31Z"/><path class="cls-1" d="M117.82,28.81l-.36,2.2H116l1.62-9.58h2L121.18,31h-1.52l-.34-2.2Zm.75-5.18L118,27.4h1.07Z"/><path class="cls-1" d="M125.1,21.43a2.22,2.22,0,0,1,1.77.67,2.43,2.43,0,0,1,.49,1.62v1.39a2.22,2.22,0,0,1-.77,1.72L127.66,31h-1.55l-.88-3.62h-1V31h-1.45V21.43Zm.86,2.31a.73.73,0,0,0-.82-.83h-.87V26h.87a.78.78,0,0,0,.58-.24.82.82,0,0,0,.24-.59Z"/><path class="cls-1" d="M129.09,29.57h1.44V31h-1.44Z"/></svg>