<?xml version="1.0" encoding="utf-8"?>
<!-- Generator: Adobe Illustrator 23.0.1, SVG Export Plug-In . SVG Version: 6.00 Build 0)  -->
<svg version="1.1" id="Content" xmlns="http://www.w3.org/2000/svg" xmlns:xlink="http://www.w3.org/1999/xlink" x="0px" y="0px"
	 viewBox="0 0 640 1136" style="enable-background:new 0 0 640 1136;" xml:space="preserve">
<style type="text/css">
	.st0{fill:#B89344;}
</style>
<title>Frame2 - Sensi Star</title>
<path class="st0" d="M181.6,617.1c7.5,0,11.4,4.5,11.4,12.4v1.5h-7.3v-2c0-3.5-1.4-4.9-3.9-4.9s-3.9,1.3-3.9,4.9
	c0,10.1,15.1,12,15.1,26.1c0,7.9-3.9,12.4-11.6,12.4S170,663,170,655.1v-3h7.3v3.5c0,3.5,1.5,4.8,4,4.8s4-1.3,4-4.8
	c0-10.1-15.1-12-15.1-26.1C170.2,621.6,174.1,617.1,181.6,617.1z"/>
<path class="st0" d="M212.7,638.4h10.6v7h-10.6v14.4h13.4v7H205v-49.2h21.1v7h-13.4V638.4z"/>
<path class="st0" d="M245.2,631.2V667h-7v-49.3h9.8l8,29.5v-29.5h6.9V667h-7.9L245.2,631.2z"/>
<path class="st0" d="M286.3,617.1c7.5,0,11.4,4.5,11.4,12.4v1.5h-7.3v-2c0-3.5-1.4-4.9-3.9-4.9s-3.9,1.3-3.9,4.9
	c0,10.1,15.1,12,15.1,26.1c0,7.9-3.9,12.4-11.5,12.4s-11.5-4.5-11.5-12.4v-3h7.3v3.5c0,3.5,1.5,4.8,4,4.8s4-1.3,4-4.8
	c0-10.1-15.1-12-15.1-26.1C274.9,621.6,278.7,617.1,286.3,617.1z"/>
<path class="st0" d="M309.6,617.7h7.7V667h-7.7V617.7z"/>
<path class="st0" d="M359.3,617.1c7.5,0,11.4,4.5,11.4,12.4v1.5h-7.3v-2c0-3.5-1.4-4.9-3.9-4.9s-3.9,1.3-3.9,4.9
	c0,10.1,15.1,12,15.1,26.1c0,7.9-4,12.4-11.5,12.4s-11.5-4.5-11.5-12.4v-3h7.3v3.5c0,3.5,1.5,4.8,4,4.8s4-1.3,4-4.8
	c0-10.1-15.1-12-15.1-26.1C347.9,621.6,351.8,617.1,359.3,617.1z"/>
<path class="st0" d="M380.4,617.7h23.9v7h-8.1V667h-7.7v-42.3h-8.1V617.7z"/>
<path class="st0" d="M440.2,667h-7.8l-1.3-9h-9.5l-1.3,9h-7.1l7.9-49.3h11.3L440.2,667z M422.6,651.4h7.4l-3.7-24.9L422.6,651.4z"/>
<path class="st0" d="M467.5,667c-0.4-1.3-0.7-2-0.7-6.1v-7.7c0-4.6-1.5-6.3-5.1-6.3H459V667h-7.8v-49.3H463c8,0,11.5,3.7,11.5,11.3
	v3.9c0,5.1-1.6,8.4-5.1,10c3.9,1.6,5.1,5.3,5.1,10.5v7.6c-0.1,2,0.1,4.1,0.8,6H467.5z M459,624.7v15.1h3c2.9,0,4.6-1.3,4.6-5.2v-4.9
	c0-3.5-1.2-5.1-3.9-5.1H459z"/>
</svg>
