<svg id="Layer_1" data-name="Layer 1" xmlns="http://www.w3.org/2000/svg" width="300" height="250" viewBox="0 0 300 250"><defs><style>.cls-1{fill:#ab9555;}</style></defs><title>frame1</title><path class="cls-1" d="M64.21143,141.52441a3.60765,3.60765,0,0,1-3.62207-3.61035v-8.25879a3.61623,3.61623,0,1,1,7.23242,0v1.72657h-2.3667v-1.77442a1.31951,1.31951,0,0,0-1.31592-1.3164,1.24791,1.24791,0,0,0-.92383.38671,1.27794,1.27794,0,0,0-.37988.92969v8.28223a1.2987,1.2987,0,0,0,1.30371,1.30469,1.27693,1.27693,0,0,0,.92969-.38086,1.24777,1.24777,0,0,0,.38623-.92383v-2.08887h2.3667v2.11328a3.60758,3.60758,0,0,1-3.61035,3.61035Z"/><path class="cls-1" d="M74.09619,137.85352l-.5542,3.47753H71.16553l2.57226-15.1289h3.13867l2.53565,15.1289H77.0127l-.53418-3.47753Zm1.19873-8.18555-.84521,5.96387h1.69043Z"/><path class="cls-1" d="M85.93359,126.19043l3.02832,10.17578V126.19043h2.28174v15.14062H88.793l-3.13916-9.69531v9.69531H83.37158V126.19043Z"/><path class="cls-1" d="M97.88574,126.19043l3.02832,10.17578V126.19043h2.28174v15.14062h-2.45068L97.606,131.63574v9.69531H95.32373V126.19043Z"/><path class="cls-1" d="M110.07373,137.85352l-.5542,3.47753h-2.37646l2.57226-15.1289H112.854l2.53565,15.1289h-2.39942l-.53418-3.47753Zm1.19873-8.18555-.84521,5.96387h1.69043Z"/><path class="cls-1" d="M119.34912,141.33105V126.19043h3.417a4.35415,4.35415,0,0,1,2.439.71191,3.31841,3.31841,0,0,1,1.32812,1.87207,5.27016,5.27016,0,0,1,.21729,1.60547,3.55446,3.55446,0,0,1-.80908,2.43946,2.28106,2.28106,0,0,1-.79688.59082,2.65278,2.65278,0,0,1,1.292,1.14746,4.46859,4.46859,0,0,1,.519,1.49707,5.94619,5.94619,0,0,1,.085,1.05078,5.05245,5.05245,0,0,1-.54346,2.43848,3.25174,3.25174,0,0,1-1.19531,1.25585,3.29,3.29,0,0,1-1.72656.53125Zm2.46338-8.959h.95361a1.39766,1.39766,0,0,0,1.42481-1.03809,2.96649,2.96649,0,0,0,.13281-.9541,1.994,1.994,0,0,0-.459-1.4248,1.44317,1.44317,0,0,0-1.09864-.44629h-.95361Zm0,6.70117h.95361a1.61917,1.61917,0,0,0,1.606-1.19531,2.628,2.628,0,0,0,.15674-.94141,2.87009,2.87009,0,0,0-.48291-1.84765,1.55585,1.55585,0,0,0-1.27979-.53125h-.95361Z"/><path class="cls-1" d="M133.34229,141.33105h-2.28223v-15.1289h2.28223Z"/><path class="cls-1" d="M144.83545,137.56445a4.256,4.256,0,0,1-.82129,2.7041,2.95472,2.95472,0,0,1-1.56934,1.07422,4.26053,4.26053,0,0,1-1.26806.16895,3.58335,3.58335,0,0,1-2.22119-.66406,3.70311,3.70311,0,0,1-1.16553-1.47852,5.97016,5.97016,0,0,1-.501-2.14355l2.17334-.15625a3.30355,3.30355,0,0,0,.7002,1.917,1.166,1.166,0,0,0,.94189.4248,1.4142,1.4142,0,0,0,1.19531-.7373,1.82979,1.82979,0,0,0,.2295-1.00293,2.78419,2.78419,0,0,0-.85742-1.873q-.676-.64014-2.02833-1.9209a8.66748,8.66748,0,0,1-1.606-1.9707,4.55574,4.55574,0,0,1-.50684-2.12695,3.70063,3.70063,0,0,1,1.38819-3.12989,3.453,3.453,0,0,1,2.125-.63964,3.86178,3.86178,0,0,1,2.08886.543,3.14012,3.14012,0,0,1,1.09278,1.1836,4.37309,4.37309,0,0,1,.501,1.75l-2.18506.39844a2.6349,2.6349,0,0,0-.53125-1.44825,1.11493,1.11493,0,0,0-.90576-.375,1.04321,1.04321,0,0,0-.95361.55567,2.14023,2.14023,0,0,0-.26563,1.11133,3.32944,3.32944,0,0,0,.89307,2.1123,7.5507,7.5507,0,0,0,1.01465.96582q.79688.665,1.05029.92969a7.74448,7.74448,0,0,1,1.30371,1.666,6.3212,6.3212,0,0,1,.3501.71289A4.14509,4.14509,0,0,1,144.83545,137.56445Z"/><path class="cls-1" d="M159.51465,134.91992v6.41113H157.2334v-15.1289h2.28125V132.626h2.75293v-6.42383h2.28222v15.1289h-2.28222v-6.41113Z"/><path class="cls-1" d="M171.42871,137.85352l-.55469,3.47753h-2.376l2.57129-15.1289H174.209l2.53516,15.1289h-2.39941l-.53418-3.47753ZM172.627,129.668l-.84472,5.96387h1.68945Z"/><path class="cls-1" d="M187.5625,137.56445a4.25887,4.25887,0,0,1-.82129,2.7041,2.95657,2.95657,0,0,1-1.56933,1.07422,4.26179,4.26179,0,0,1-1.26758.16895,3.58287,3.58287,0,0,1-2.22168-.66406,3.69789,3.69789,0,0,1-1.165-1.47852,5.94992,5.94992,0,0,1-.501-2.14355l2.17285-.15625a3.30355,3.30355,0,0,0,.7002,1.917,1.16567,1.16567,0,0,0,.94238.4248,1.41421,1.41421,0,0,0,1.19531-.7373,1.83463,1.83463,0,0,0,.22852-1.00293,2.78487,2.78487,0,0,0-.85645-1.873q-.67675-.64014-2.02832-1.9209a8.68509,8.68509,0,0,1-1.60644-1.9707,4.55574,4.55574,0,0,1-.50684-2.12695,3.69968,3.69968,0,0,1,1.38867-3.12989,3.45009,3.45009,0,0,1,2.125-.63964,3.86414,3.86414,0,0,1,2.08887.543,3.14779,3.14779,0,0,1,1.09277,1.1836,4.38876,4.38876,0,0,1,.501,1.75l-2.18555.39844a2.63115,2.63115,0,0,0-.53125-1.44825,1.11588,1.11588,0,0,0-.90527-.375,1.04293,1.04293,0,0,0-.9541.55567,2.13559,2.13559,0,0,0-.26563,1.11133,3.33025,3.33025,0,0,0,.89356,2.1123,7.53325,7.53325,0,0,0,1.01367.96582q.79688.665,1.05078.92969a7.74448,7.74448,0,0,1,1.30371,1.666,6.33106,6.33106,0,0,1,.35059.71289A4.15408,4.15408,0,0,1,187.5625,137.56445Z"/><path class="cls-1" d="M199.61914,141.33105V126.19043h3.417a4.35256,4.35256,0,0,1,2.43848.71191,3.31615,3.31615,0,0,1,1.32812,1.87207,5.28414,5.28414,0,0,1,.21778,1.60547,3.55709,3.55709,0,0,1-.80957,2.43946,2.28991,2.28991,0,0,1-.79688.59082,2.65694,2.65694,0,0,1,1.292,1.14746,4.47915,4.47915,0,0,1,.51954,1.49707,6.04576,6.04576,0,0,1,.084,1.05078,5.05247,5.05247,0,0,1-.543,2.43848,3.49806,3.49806,0,0,1-2.92187,1.7871Zm2.46289-8.959h.9541A1.39656,1.39656,0,0,0,204.46,131.334a2.953,2.953,0,0,0,.13281-.9541,1.996,1.996,0,0,0-.458-1.4248,1.44464,1.44464,0,0,0-1.09864-.44629h-.9541Zm0,6.70117h.9541a1.619,1.619,0,0,0,1.60547-1.19531,2.62776,2.62776,0,0,0,.15723-.94141,2.867,2.867,0,0,0-.4834-1.84765,1.55678,1.55678,0,0,0-1.2793-.53125h-.9541Z"/><path class="cls-1" d="M211.31836,141.33105V126.19043h6.49512v2.29395h-4.21387v4.1289h3.0791v2.29492h-3.0791v4.12891h4.21387v2.29394Z"/><path class="cls-1" d="M221.42383,141.33105V126.19043H227.919v2.29395h-4.21387v4.1289h3.0791v2.29492h-3.0791v4.12891H227.919v2.29394Z"/><path class="cls-1" d="M234.09082,126.19043l3.02832,10.17578V126.19043h2.28223v15.14062H236.9502l-3.13965-9.69531v9.69531H231.5293V126.19043Z"/><path class="cls-1" d="M74.92285,167.10059a3.58775,3.58775,0,0,1-3.61035-3.59766v-11.7002h2.23389v11.67579a1.24739,1.24739,0,0,0,.38623.92382,1.27906,1.27906,0,0,0,.92968.37989,1.29789,1.29789,0,0,0,1.3042-1.30371V151.80273h2.37842v11.7002a3.44,3.44,0,0,1-1.0625,2.55957A3.52936,3.52936,0,0,1,74.92285,167.10059Z"/><path class="cls-1" d="M90.01465,163.165a4.256,4.256,0,0,1-.82129,2.7041,2.95472,2.95472,0,0,1-1.56934,1.07422,4.26054,4.26054,0,0,1-1.26806.16894,3.58335,3.58335,0,0,1-2.22119-.66406,3.703,3.703,0,0,1-1.16553-1.47851,5.97022,5.97022,0,0,1-.501-2.14356l2.17334-.15625a3.30349,3.30349,0,0,0,.7002,1.917,1.166,1.166,0,0,0,.94189.42481,1.41422,1.41422,0,0,0,1.19531-.73731,1.82976,1.82976,0,0,0,.2295-1.00293,2.78412,2.78412,0,0,0-.85743-1.873q-.676-.64014-2.02832-1.9209a8.6677,8.6677,0,0,1-1.60595-1.9707,4.55578,4.55578,0,0,1-.50684-2.127A3.70063,3.70063,0,0,1,84.09814,152.25a3.453,3.453,0,0,1,2.125-.63965,3.86179,3.86179,0,0,1,2.08887.543,3.14008,3.14008,0,0,1,1.09278,1.18359,4.37313,4.37313,0,0,1,.501,1.75l-2.18506.39844a2.63487,2.63487,0,0,0-.53125-1.44824,1.11493,1.11493,0,0,0-.90576-.375,1.04321,1.04321,0,0,0-.95361.55566,2.14023,2.14023,0,0,0-.26563,1.11133,3.32946,3.32946,0,0,0,.89307,2.11231,7.55133,7.55133,0,0,0,1.01465.96582q.79688.665,1.05029.92968a7.74452,7.74452,0,0,1,1.30371,1.666,6.32037,6.32037,0,0,1,.3501.71289A4.145,4.145,0,0,1,90.01465,163.165Z"/><path class="cls-1" d="M93.94971,166.93164V151.791h6.49609V154.085H96.23193v4.12891h3.07862v2.29492H96.23193v4.12891h4.21387v2.29394Z"/><path class="cls-1" d="M111.22705,163.30957a3.50873,3.50873,0,0,1-1.05029,2.55957,3.43649,3.43649,0,0,1-2.53565,1.0625h-3.58593V151.791h3.58593a3.43086,3.43086,0,0,1,2.54151,1.0625,3.50493,3.50493,0,0,1,1.04443,2.54785Zm-4.88965,1.36426h1.37647a1.219,1.219,0,0,0,.91748-.39258,1.29424,1.29424,0,0,0,.374-.92383V155.4375a1.27793,1.27793,0,0,0-.37988-.92969,1.23426,1.23426,0,0,0-.91162-.38672H106.3374Z"/><path class="cls-1" d="M130.28125,163.165a4.256,4.256,0,0,1-.82129,2.7041,2.95472,2.95472,0,0,1-1.56934,1.07422,4.26054,4.26054,0,0,1-1.26806.16894,3.58335,3.58335,0,0,1-2.22119-.66406,3.70308,3.70308,0,0,1-1.16553-1.47851,5.97042,5.97042,0,0,1-.501-2.14356l2.17334-.15625a3.30349,3.30349,0,0,0,.7002,1.917,1.166,1.166,0,0,0,.94189.42481,1.41423,1.41423,0,0,0,1.19532-.73731,1.82986,1.82986,0,0,0,.22949-1.00293,2.78415,2.78415,0,0,0-.85742-1.873q-.676-.64014-2.02832-1.9209a8.66751,8.66751,0,0,1-1.606-1.9707,4.55578,4.55578,0,0,1-.50684-2.127,3.70061,3.70061,0,0,1,1.38819-3.12988,3.453,3.453,0,0,1,2.125-.63965,3.86178,3.86178,0,0,1,2.08886.543,3.14008,3.14008,0,0,1,1.09278,1.18359,4.37313,4.37313,0,0,1,.501,1.75l-2.18506.39844a2.63479,2.63479,0,0,0-.53125-1.44824,1.11493,1.11493,0,0,0-.90576-.375,1.04322,1.04322,0,0,0-.95361.55566,2.14023,2.14023,0,0,0-.26563,1.11133,3.32946,3.32946,0,0,0,.89307,2.11231,7.55133,7.55133,0,0,0,1.01465.96582q.79687.665,1.05029.92968a7.74452,7.74452,0,0,1,1.30371,1.666,6.32037,6.32037,0,0,1,.3501.71289A4.145,4.145,0,0,1,130.28125,163.165Z"/><path class="cls-1" d="M137.81445,151.80273a3.47733,3.47733,0,0,1,2.65625,1.05079,3.64279,3.64279,0,0,1,.91748,2.55957v2.19726a3.51877,3.51877,0,0,1-1.04443,2.55957,3.41263,3.41263,0,0,1-2.5293,1.0625h-1.31591v5.69922h-2.28223V151.80273Zm1.36426,3.64649a1.30371,1.30371,0,0,0-.356-.9541,1.27067,1.27067,0,0,0-.94775-.36133h-1.37646v4.84082H137.875a1.24592,1.24592,0,0,0,.92334-.38574,1.27645,1.27645,0,0,0,.38037-.92969Z"/><path class="cls-1" d="M147.5332,166.93164H145.251V151.80273h2.28222Z"/><path class="cls-1" d="M155.21191,151.80273a3.47947,3.47947,0,0,1,2.80079,1.05079,3.81492,3.81492,0,0,1,.78515,2.55957v2.19726a3.53253,3.53253,0,0,1-1.21973,2.7168l1.69043,6.60449h-2.46777l-1.38379-5.69922h-1.52148v5.69922h-2.28223V151.80273Zm1.36426,3.64649a1.15754,1.15754,0,0,0-1.30371-1.31543h-1.37695v4.84082h1.37695a1.247,1.247,0,0,0,.92383-.38574,1.27989,1.27989,0,0,0,.37988-.92969Z"/><path class="cls-1" d="M165.5459,166.93164h-2.28125V151.80273h2.28125Z"/><path class="cls-1" d="M171.84863,154.09668h-2.42675v-2.29395h7.123v2.29395h-2.415v12.835h-2.28125Z"/><path class="cls-1" d="M184.01758,167.10059a3.58611,3.58611,0,0,1-3.60938-3.59766v-11.7002h2.2334v11.67579a1.24788,1.24788,0,0,0,.38672.92382,1.27829,1.27829,0,0,0,.92969.37989,1.29871,1.29871,0,0,0,1.30371-1.30371V151.80273h2.37793v11.7002a3.43642,3.43642,0,0,1-1.0625,2.55957A3.52859,3.52859,0,0,1,184.01758,167.10059Z"/><path class="cls-1" d="M194.18066,163.4541l-.55468,3.47754H191.25l2.57129-15.12891h3.13965l2.53515,15.12891h-2.39941l-.53418-3.47754Zm1.19825-8.18555-.84473,5.96387h1.68945Z"/><path class="cls-1" d="M209.6748,166.93164H203.457V151.80273h2.28125v12.85938h3.93652Z"/><path class="cls-1" d="M219.502,166.93164h-6.21777V151.80273h2.28125v12.85938H219.502Z"/><path class="cls-1" d="M223.34082,160.59277l-3.05469-8.80175h2.51075l1.69042,5.43359L226.166,151.791h2.52343l-3.06738,8.80175v6.33887h-2.28125Z"/></svg>