<svg id="Layer_1" data-name="Layer 1" xmlns="http://www.w3.org/2000/svg" width="300" height="250" viewBox="0 0 300 250"><defs><style>.cls-1{fill:#ab9555;}</style></defs><title>frame2</title><path class="cls-1" d="M63.09243,145.32715a4.253,4.253,0,0,1-.82129,2.7041,2.95291,2.95291,0,0,1-1.56933,1.07422,4.25726,4.25726,0,0,1-1.26758.16894,3.58483,3.58483,0,0,1-2.22168-.66406,3.69785,3.69785,0,0,1-1.165-1.47851,5.95,5.95,0,0,1-.501-2.14356l2.17285-.15625a3.30349,3.30349,0,0,0,.7002,1.917,1.16689,1.16689,0,0,0,.94238.42481,1.41422,1.41422,0,0,0,1.19531-.73731,1.83408,1.83408,0,0,0,.2295-1.00293,2.78636,2.78636,0,0,0-.85743-1.873q-.67676-.64014-2.02832-1.9209a8.6853,8.6853,0,0,1-1.60644-1.9707,4.55578,4.55578,0,0,1-.50684-2.127,3.69966,3.69966,0,0,1,1.38867-3.12988,3.452,3.452,0,0,1,2.125-.63965,3.86405,3.86405,0,0,1,2.08887.543,3.14787,3.14787,0,0,1,1.09278,1.18359,4.389,4.389,0,0,1,.501,1.75l-2.18555.39844a2.63112,2.63112,0,0,0-.53125-1.44824,1.11325,1.11325,0,0,0-.90527-.375,1.044,1.044,0,0,0-.9541.55566,2.145,2.145,0,0,0-.26563,1.11133,3.33027,3.33027,0,0,0,.89356,2.11231,7.55133,7.55133,0,0,0,1.01465.96582q.79688.665,1.0498.92968a7.74452,7.74452,0,0,1,1.30371,1.666,6.33023,6.33023,0,0,1,.35059.71289A4.13234,4.13234,0,0,1,63.09243,145.32715Z"/><path class="cls-1" d="M69.3102,149.09375H67.028V133.96484H69.3102Z"/><path class="cls-1" d="M75.95181,133.95312l3.02832,10.17579V133.95312h2.28222v15.14063H78.81118l-3.13867-9.69531v9.69531H73.39028V133.95312Z"/><path class="cls-1" d="M88.92837,149.28711a3.60765,3.60765,0,0,1-3.62207-3.61035V137.418a3.61623,3.61623,0,1,1,7.23242,0v1.72656H90.17153v-1.77441a1.31868,1.31868,0,0,0-1.31543-1.31641,1.24792,1.24792,0,0,0-.92383.38672,1.276,1.276,0,0,0-.37988.92969v8.28222A1.2987,1.2987,0,0,0,88.8561,146.957a1.27687,1.27687,0,0,0,.92969-.38086,1.24912,1.24912,0,0,0,.38574-.92383v-2.08886h2.36719v2.11328a3.60758,3.60758,0,0,1-3.61035,3.61035Z"/><path class="cls-1" d="M96.44985,149.09375V133.95312h6.4961v2.29395H98.73208V140.376h3.07812v2.29492H98.73208v4.1289H102.946v2.29395Z"/><path class="cls-1" d="M116.15493,145.61621l-.55469,3.47754h-2.376l2.57226-15.12891h3.13867l2.53516,15.12891H119.071l-.53418-3.47754Zm1.19824-8.18555-.84472,5.96387h1.69043Z"/><path class="cls-1" d="M127.99184,133.95312l3.02832,10.17579V133.95312h2.28223v15.14063h-2.45117l-3.13867-9.69531v9.69531h-2.28223V133.95312Z"/><path class="cls-1" d="M140.96743,149.28711a3.60765,3.60765,0,0,1-3.62207-3.61035V137.418a3.61623,3.61623,0,1,1,7.23242,0v1.72656h-2.36621v-1.77441a1.32036,1.32036,0,0,0-1.31641-1.31641,1.24788,1.24788,0,0,0-.92382.38672,1.27987,1.27987,0,0,0-.37989.92969v8.28222a1.29872,1.29872,0,0,0,1.30371,1.30469,1.27687,1.27687,0,0,0,.92969-.38086,1.24636,1.24636,0,0,0,.38672-.92383v-2.08886h2.36621v2.11328a3.60758,3.60758,0,0,1-3.61035,3.61035Z"/><path class="cls-1" d="M150.77114,149.09375h-2.28223V133.96484h2.28223Z"/><path class="cls-1" d="M154.85317,149.09375V133.95312h6.49512v2.29395h-4.21387V140.376h3.0791v2.29492h-3.0791v4.1289h4.21387v2.29395Z"/><path class="cls-1" d="M167.52016,133.95312l3.02832,10.17579V133.95312h2.28223v15.14063h-2.45117l-3.13965-9.69531v9.69531h-2.28125V133.95312Z"/><path class="cls-1" d="M179.13149,136.25879h-2.42676v-2.29395h7.123v2.29395h-2.415v12.835h-2.28125Z"/><path class="cls-1" d="M197.2145,136.25879h-2.42676v-2.29395h7.123v2.29395h-2.415v12.835H197.2145Z"/><path class="cls-1" d="M208.068,149.09375h-2.28125V133.96484H208.068Z"/><path class="cls-1" d="M214.43032,149.09375h-2.28125V133.95312h3.27441l2.127,10.876,2.041-10.876h3.14649v15.14063h-2.28223V139.5791l-1.98047,9.51465h-1.835l-2.21-9.49023Z"/><path class="cls-1" d="M226.818,149.09375V133.95312h6.49511v2.29395h-4.21386V140.376h3.0791v2.29492h-3.0791v4.1289h4.21386v2.29395Z"/><path class="cls-1" d="M244.46841,145.32715a4.25893,4.25893,0,0,1-.82129,2.7041,2.95665,2.95665,0,0,1-1.56934,1.07422,4.26171,4.26171,0,0,1-1.26758.16894,3.58291,3.58291,0,0,1-2.22168-.66406,3.69794,3.69794,0,0,1-1.165-1.47851,5.95,5.95,0,0,1-.501-2.14356l2.17285-.15625a3.30349,3.30349,0,0,0,.7002,1.917,1.16563,1.16563,0,0,0,.94238.42481,1.41422,1.41422,0,0,0,1.19531-.73731,1.83472,1.83472,0,0,0,.22852-1.00293,2.78483,2.78483,0,0,0-.85645-1.873q-.67675-.64014-2.02832-1.9209a8.685,8.685,0,0,1-1.60644-1.9707,4.55566,4.55566,0,0,1-.50684-2.127,3.69966,3.69966,0,0,1,1.38867-3.12988,3.45,3.45,0,0,1,2.125-.63965,3.86405,3.86405,0,0,1,2.08887.543A3.14784,3.14784,0,0,1,243.859,135.499a4.3888,4.3888,0,0,1,.501,1.75l-2.18555.39844a2.63112,2.63112,0,0,0-.53125-1.44824,1.11589,1.11589,0,0,0-.90527-.375,1.04292,1.04292,0,0,0-.9541.55566,2.13549,2.13549,0,0,0-.26563,1.11133,3.33022,3.33022,0,0,0,.89356,2.11231,7.53327,7.53327,0,0,0,1.01367.96582q.79688.665,1.05078.92968a7.74452,7.74452,0,0,1,1.30371,1.666,6.33023,6.33023,0,0,1,.35059.71289A4.15443,4.15443,0,0,1,244.46841,145.32715Z"/></svg>