<svg id="Content" xmlns="http://www.w3.org/2000/svg" width="320" height="50" viewBox="0 0 320 50"><defs><style>.cls-1{fill:#ba9544;}</style></defs><title>Frame1 - Durga Mata</title><path class="cls-1" d="M111.52734,20.35938h2.78516c1.76074,0,2.625.97656,2.625,2.769v5.6665c0,1.79248-.86426,2.769-2.625,2.769h-2.78516ZM113.28809,21.96v8.00342h.99267c.56006,0,.896-.28809.896-1.08838V23.04834c0-.80029-.33594-1.08838-.896-1.08838Z"/><path class="cls-1" d="M121.43164,20.35938v8.64355c0,.80029.35205,1.08838.9126,1.08838.56006,0,.91211-.28809.91211-1.08838V20.35938h1.665v8.53173c0,1.79248-.89649,2.8169-2.62549,2.8169-1.72852,0-2.625-1.02442-2.625-2.8169V20.35938Z"/><path class="cls-1" d="M131.49658,31.564a3.44235,3.44235,0,0,1-.16015-1.37646V28.42676c0-1.04053-.35205-1.42481-1.15235-1.42481h-.6084v4.562h-1.76074V20.35938h2.65723c1.82471,0,2.60888.84863,2.60888,2.57714v.88037a2.234,2.234,0,0,1-1.15234,2.27295c.88037.36817,1.16846,1.21631,1.16846,2.38477v1.729a3.304,3.304,0,0,0,.19189,1.36035Zm-1.9209-9.604v3.44141h.68848c.65625,0,1.05615-.28809,1.05615-1.18457V23.1123c0-.80029-.272-1.15234-.896-1.15234Z"/><path class="cls-1" d="M138.5835,25.32129h2.46484V28.875c0,1.79248-.896,2.81689-2.625,2.81689-1.72852,0-2.625-1.02441-2.625-2.81689V23.04834c0-1.79248.89648-2.81689,2.625-2.81689,1.729,0,2.625,1.02441,2.625,2.81689v1.08838h-1.66455v-1.2002c0-.80029-.352-1.10449-.91211-1.10449-.56055,0-.9126.3042-.9126,1.10449v6.0503c0,.80029.35205,1.08838.9126,1.08838.56006,0,.91211-.28809.91211-1.08838V26.92188h-.80029Z"/><path class="cls-1" d="M149.57715,31.564h-1.77637l-.3042-2.03271h-2.16113l-.30371,2.03271H143.415l1.79248-11.20458h2.57715Zm-4.01758-3.55322h1.69678l-.84815-5.6665Z"/><path class="cls-1" d="M159.9917,28.31445l1.20068-7.95507h2.44873V31.564h-1.66455V23.52881L160.76025,31.564H159.0957l-1.313-7.92334V31.564h-1.53662V20.35938h2.44922Z"/><path class="cls-1" d="M172.3125,31.564h-1.77637l-.3042-2.03271H168.0708l-.30371,2.03271h-1.6167l1.79248-11.20458H170.52Zm-4.01758-3.55322h1.69678l-.84815-5.6665Z"/><path class="cls-1" d="M174.30957,20.35938H179.752V21.96h-1.84082v9.604h-1.76074V21.96h-1.84082Z"/><path class="cls-1" d="M187.91211,31.564h-1.77637l-.3042-2.03271h-2.16113L183.3667,31.564H181.75l1.79248-11.20458h2.57715Zm-4.01758-3.55322h1.69678l-.84815-5.6665Z"/><path class="cls-1" d="M197.1748,21.832c-.56005,0-.91259.3042-.91259,1.10449v1.2002h-1.66455V23.04834c0-1.79248.89648-2.81689,2.625-2.81689,1.729,0,2.62548,1.02441,2.62548,2.81689,0,3.52148-3.50585,4.834-3.50585,6.6748a1.20526,1.20526,0,0,0,.01611.24024H199.688V31.564h-5.09033V30.1875c0-3.29736,3.48974-3.8418,3.48974-7.0752C198.0874,22.104,197.73486,21.832,197.1748,21.832Z"/></svg>