<svg id="Content" xmlns="http://www.w3.org/2000/svg" xmlns:xlink="http://www.w3.org/1999/xlink" width="728" height="360" viewBox="0 0 728 360"><defs><style>.cls-1{fill:#ba9544;}.cls-2{fill:#fff;stroke:#ba9544;stroke-miterlimit:10;stroke-width:0.5px;}.cls-3{clip-path:url(#clip-path);}</style><clipPath id="clip-path"><polygon class="cls-1" points="377.207 219.371 388.949 236.003 389.179 236.023 389.179 202.443 388.949 202.435 377.207 219.371"/></clipPath></defs><title>CBD - MK Ultra copy</title><polygon class="cls-2" points="621.295 203.279 388.693 202.398 376.951 219.331 388.693 235.963 621.295 235.566 631.863 219.424 621.295 203.279"/><polygon class="cls-1" points="377.207 219.371 388.949 236.003 389.179 236.023 389.179 202.443 388.949 202.435 377.207 219.371"/><g class="cls-3"><rect class="cls-1" x="374.6099" y="199.8398" width="17.16039" height="38.77851"/></g><path class="cls-1" d="M513.60467,224.91718a5.697,5.697,0,0,1,4.05078-9.75293,6.16429,6.16429,0,0,1,4.18359,1.51855l-1.51855,1.66309a4.19972,4.19972,0,0,0-2.665-.91114,3.34367,3.34367,0,0,0-2.47168.957,3.30924,3.30924,0,0,0-.9375,2.42871,3.411,3.411,0,0,0,.94922,2.5205,3.36172,3.36172,0,0,0,2.47559.93457,4.08624,4.08624,0,0,0,2.64941-.90332l1.51855,1.66211a6.14206,6.14206,0,0,1-4.18359,1.51856A5.54378,5.54378,0,0,1,513.60467,224.91718Z"/><path class="cls-1" d="M532.37713,220.54706a3.23423,3.23423,0,0,1-1.85254,6.01367l-6.4082-.00781V215.17206h6.04394q2.877.167,3.03711,3.34863A2.38263,2.38263,0,0,1,532.37713,220.54706Zm-5.97461-.81152H529.591a1.28635,1.28635,0,0,0,1.41211-1.41993q-.03809-.835-1.38965-.88086h-3.21094Zm0,5.041h3.71973a1.4866,1.4866,0,0,0,1.63965-1.64746q-.03809-1.09423-1.61719-1.13867h-3.74219Z"/><path class="cls-1" d="M536.23358,226.55292V215.15741h4.38867q5.31445,0,5.31445,5.70117,0,5.69385-5.31445,5.69434Zm4.38867-2.27051q3.0293-.00732,3.03711-3.42383-.00879-3.416-3.03711-3.416H538.5119v6.83984Z"/><path class="cls-1" d="M548.47967,219.2912a1.10106,1.10106,0,0,1,.82031-.30762,1.143,1.143,0,0,1,.85059.30762,1.10584,1.10584,0,0,1,0,1.52246,1.30094,1.30094,0,0,1-1.6709,0,1.10584,1.10584,0,0,1,0-1.52246Zm0,5.43555a1.10106,1.10106,0,0,1,.82031-.30762,1.143,1.143,0,0,1,.85059.30762,1.04563,1.04563,0,0,1,.30371.76367,1.0298,1.0298,0,0,1-.30371.75879,1.30094,1.30094,0,0,1-1.6709,0,1.0298,1.0298,0,0,1-.30371-.75879A1.04563,1.04563,0,0,1,548.47967,224.72675Z"/><path class="cls-1" d="M564.77264,218.4289l-4.40332,2.42968,4.40332,2.42969v1.74609l-7.19727-3.95507v-.49414l7.19727-3.90235Z"/><path class="cls-1" d="M574.63494,215.16425v-.00684h2.27051v11.39551h-2.27051v-8.35156l-1.51855,1.51855-1.51856-1.51855Z"/></svg>