<svg id="Content" xmlns="http://www.w3.org/2000/svg" xmlns:xlink="http://www.w3.org/1999/xlink" width="728" height="360" viewBox="0 0 728 360"><defs><style>.cls-1{fill:#ba9544;}.cls-2{fill:#fff;stroke:#ba9544;stroke-miterlimit:10;stroke-width:0.5px;}.cls-3{clip-path:url(#clip-path);}</style><clipPath id="clip-path"><polygon class="cls-1" points="377.206 219.466 388.948 236.098 389.179 236.118 389.179 202.538 388.948 202.53 377.206 219.466"/></clipPath></defs><title>THC - Sensi Star_1</title><polygon class="cls-2" points="621.295 203.374 388.693 202.493 376.951 219.426 388.693 236.058 621.295 235.661 631.864 219.519 621.295 203.374"/><polygon class="cls-1" points="377.206 219.466 388.948 236.098 389.179 236.118 389.179 202.538 388.948 202.53 377.206 219.466"/><g class="cls-3"><rect class="cls-1" x="374.60939" y="199.93477" width="17.16046" height="38.77866"/></g><path class="cls-1" d="M513.6052,225.01483a5.697,5.697,0,0,1,4.05078-9.75293,6.16434,6.16434,0,0,1,4.1836,1.51856l-1.51856,1.66308a4.19972,4.19972,0,0,0-2.665-.91113,3.3468,3.3468,0,0,0-2.47168.95606,3.31306,3.31306,0,0,0-.9375,2.42968,3.411,3.411,0,0,0,.94922,2.52051,3.36172,3.36172,0,0,0,2.47559.93457,4.08629,4.08629,0,0,0,2.64941-.90332l1.51856,1.66211a6.14209,6.14209,0,0,1-4.1836,1.51855A5.54378,5.54378,0,0,1,513.6052,225.01483Z"/><path class="cls-1" d="M532.37766,220.64472a3.23423,3.23423,0,0,1-1.85254,6.01367l-6.4082-.00782V215.26972h6.04394q2.877.167,3.03711,3.34863A2.38263,2.38263,0,0,1,532.37766,220.64472Zm-5.97461-.81153h3.18848a1.28634,1.28634,0,0,0,1.41211-1.41992q-.03809-.835-1.38965-.88086h-3.21094Zm0,5.041h3.71973a1.48661,1.48661,0,0,0,1.63965-1.64746q-.03809-1.09425-1.61719-1.13868h-3.74219Z"/><path class="cls-1" d="M536.23411,226.65057v-11.3955h4.38867q5.31445,0,5.31445,5.70117,0,5.69385-5.31445,5.69433Zm4.38867-2.2705q3.02929-.00733,3.03711-3.42383-.00879-3.416-3.03711-3.416h-2.11035v6.83985Z"/><path class="cls-1" d="M553.79465,219.38886a1.10108,1.10108,0,0,1,.82032-.30762,1.14293,1.14293,0,0,1,.85058.30762,1.10584,1.10584,0,0,1,0,1.52246,1.30094,1.30094,0,0,1-1.6709,0,1.10584,1.10584,0,0,1,0-1.52246Zm0,5.43554a1.10108,1.10108,0,0,1,.82032-.30761,1.14293,1.14293,0,0,1,.85058.30761,1.04565,1.04565,0,0,1,.30371.76367,1.02977,1.02977,0,0,1-.30371.75879,1.30094,1.30094,0,0,1-1.6709,0,1.02981,1.02981,0,0,1-.30371-.75879A1.04569,1.04569,0,0,1,553.79465,224.8244Z"/><path class="cls-1" d="M570.08762,218.52655l-4.40332,2.42969,4.40332,2.42969V225.132l-7.19726-3.95508v-.49414l7.19726-3.90234Z"/><path class="cls-1" d="M579.94993,215.2619v-.00683h2.2705v11.3955h-2.2705V218.299l-1.51856,1.51856-1.51855-1.51856Z"/></svg>