<svg id="Layer_1" data-name="Layer 1" xmlns="http://www.w3.org/2000/svg" width="300" height="600" viewBox="0 0 300 600"><defs><style>.cls-1{fill:#ab9555;}</style></defs><title>frame3</title><path class="cls-1" d="M82.64151,287.98633l3.51465,11.80859V287.98633H88.8046v17.57129H85.95987l-3.64257-11.252v11.252H79.66886V287.98633Z"/><path class="cls-1" d="M96.787,301.52246l-.64355,4.03516H93.38663L96.371,288h3.64355l2.94238,17.55762h-2.78515l-.61914-4.03516Zm1.3916-9.501-.98047,6.92188h1.96094Z"/><path class="cls-1" d="M110.20108,305.55762h-2.64843V287.98633h3.7998l2.46875,12.62207,2.36914-12.62207h3.65137v17.57129h-2.64844v-11.042l-2.29785,11.042h-2.12988L110.20108,294.544Z"/><path class="cls-1" d="M127.82218,301.52246l-.64356,4.03516h-2.75683L127.40616,288h3.64356l2.94238,17.55762h-2.78516l-.61914-4.03516Zm1.3916-9.501-.98047,6.92188h1.96094Z"/><path class="cls-1" d="M146.54776,301.18555a4.94152,4.94152,0,0,1-.95312,3.13867,3.4273,3.4273,0,0,1-1.82129,1.24707,4.96839,4.96839,0,0,1-1.47168.19629,4.1636,4.1636,0,0,1-2.57812-.77051,4.30407,4.30407,0,0,1-1.35254-1.7168,6.90594,6.90594,0,0,1-.58106-2.4873l2.52149-.18164a3.8358,3.8358,0,0,0,.81347,2.22558,1.35759,1.35759,0,0,0,1.09278.49317,1.64476,1.64476,0,0,0,1.38671-.85645,2.119,2.119,0,0,0,.26661-1.16406,3.236,3.236,0,0,0-.99512-2.17383q-.78516-.74268-2.35352-2.22949a10.03847,10.03847,0,0,1-1.86425-2.28613,5.29641,5.29641,0,0,1-.58789-2.46875,4.29458,4.29458,0,0,1,1.61132-3.63282,4.00655,4.00655,0,0,1,2.46582-.74316,4.48974,4.48974,0,0,1,2.42481.63086,3.65208,3.65208,0,0,1,1.26758,1.373,5.08891,5.08891,0,0,1,.582,2.03222l-2.53711.46192a3.06009,3.06009,0,0,0-.61621-1.68164,1.29659,1.29659,0,0,0-1.05078-.4336,1.21128,1.21128,0,0,0-1.10743.64453,2.48967,2.48967,0,0,0-.30761,1.28907,3.86714,3.86714,0,0,0,1.03613,2.45215,8.77769,8.77769,0,0,0,1.17773,1.12109q.92433.77051,1.21875,1.0791a8.96414,8.96414,0,0,1,1.51368,1.93359,7.41274,7.41274,0,0,1,.40625.82618A4.83172,4.83172,0,0,1,146.54776,301.18555Z"/><path class="cls-1" d="M153.55265,290.66211h-2.81641V288h8.26758v2.66211h-2.80274v14.89551h-2.64843Z"/><path class="cls-1" d="M163.49991,305.55762V287.98633H171.038v2.66211h-4.88965v4.792h3.57324v2.66211h-3.57324v4.793H171.038v2.66211Z"/><path class="cls-1" d="M175.22843,302.92285h2.64844v2.64844h-2.64844Z"/><path class="cls-1" d="M186.26847,305.78223a4.18616,4.18616,0,0,1-4.20313-4.19043v-9.584a4.1968,4.1968,0,1,1,8.39356,0v2.00391h-2.74707v-2.06055a1.53041,1.53041,0,0,0-1.52735-1.52734,1.447,1.447,0,0,0-1.07129.44824,1.48257,1.48257,0,0,0-.4414,1.0791v9.61328a1.50709,1.50709,0,0,0,1.51269,1.5127,1.4794,1.4794,0,0,0,1.0791-.44141,1.447,1.447,0,0,0,.44825-1.07129v-2.4248h2.74707v2.45215a4.18773,4.18773,0,0,1-4.19043,4.19043Z"/><path class="cls-1" d="M199.14542,287.77539a4.19942,4.19942,0,0,1,4.2041,4.2041v9.585a4.1968,4.1968,0,1,1-8.39355,0v-9.585a4.19776,4.19776,0,0,1,4.18945-4.2041Zm1.44336,4.14844a1.5071,1.5071,0,0,0-1.51367-1.51367,1.48485,1.48485,0,0,0-1.0791.4414,1.4476,1.4476,0,0,0-.44825,1.07227v9.6123a1.45068,1.45068,0,0,0,.44825,1.07227,1.48485,1.48485,0,0,0,1.0791.4414,1.5071,1.5071,0,0,0,1.51367-1.51367Z"/><path class="cls-1" d="M210.69132,305.55762h-2.64844V287.98633h3.79981l2.46875,12.62207,2.36914-12.62207h3.65136v17.57129h-2.64843v-11.042l-2.29786,11.042h-2.12988L210.69132,294.544Z"/></svg>