<svg id="Layer_1" data-name="Layer 1" xmlns="http://www.w3.org/2000/svg" xmlns:xlink="http://www.w3.org/1999/xlink" width="60.97475" height="88.76552" viewBox="0 0 60.97475 88.76552"><defs><style>.cls-1{fill:url(#New_Gradient_Swatch_1);}.cls-2{fill:#fff;}.cls-3{fill:#ba9544;}</style><linearGradient id="New_Gradient_Swatch_1" y1="26.40218" x2="60.97475" y2="26.40218" gradientUnits="userSpaceOnUse"><stop offset="0" stop-color="#a88a34"/><stop offset="0.49324" stop-color="#caaf67"/><stop offset="1" stop-color="#957f2e"/></linearGradient></defs><title>citrus</title><polygon class="cls-1" points="45.73 0 15.244 0 0 26.401 15.244 52.804 45.73 52.804 60.975 26.401 45.73 0"/><path class="cls-2" d="M42.958,30.1409A13.40371,13.40371,0,0,1,22.63967,12.72077l-1.24085-1.06521a15.037,15.037,0,0,0,22.8,19.55055Z"/><path class="cls-2" d="M21.14894,22.20508A12.181,12.181,0,0,0,24.931,29.76355l7.20433-8.40269Z"/><path class="cls-2" d="M25.7639,30.47632a12.18537,12.18537,0,0,0,7.92957,2.58937l-.8329-10.86456Z"/><path class="cls-2" d="M23.53518,13.4885a12.17981,12.17981,0,0,0-2.45906,7.62362l10.417-.80173Z"/><path class="cls-2" d="M42.0602,29.37231l-8.08257-6.92952L34.785,32.97873a12.17522,12.17522,0,0,0,7.27516-3.60642"/><path class="cls-2" d="M32.08518,19.4024c.05382-.68275.43628-1.11619.86973-1.15019.43062-.03683.75075.33713.69691,1.01988a2.322,2.322,0,0,1-.88106,1.30035,1.5024,1.5024,0,0,1-.68558-1.17"/><path class="cls-2" d="M34.90857,20.054c.6629-.19546,1.09918.034,1.153.46179.05382.42495-.29464.88674-.95471,1.08221a1.52879,1.52879,0,0,1-1.30037-.41929s.43913-.92923,1.10206-1.12471"/><path class="cls-2" d="M36.13383,41.17035a1.41454,1.41454,0,1,1-2.82734.09916c-.02551-.77908,1.33434-2.32307,1.33434-2.32307s1.46749,1.44484,1.493,2.22391"/><path class="cls-2" d="M35.63041,40.24906a.397.397,0,0,1-.34.44195l-1.1757.04249a.3986.3986,0,0,1-.36829-.41644,4.25515,4.25515,0,0,0,.12748-2.25508c-.45046-1.34-3.58941-2.39388-3.39393-2.39956l6.46491-.45328a4.67507,4.67507,0,0,0-1.73946,2.84435,2.94887,2.94887,0,0,0,.42495,2.19557"/><path class="cls-3" d="M2.78762,87.15615A5.60518,5.60518,0,0,1,6.773,77.56044a6.06252,6.06252,0,0,1,4.11621,1.49414L9.395,80.69033A4.13039,4.13039,0,0,0,6.773,79.79384a3.2961,3.2961,0,0,0-2.43164.94141,3.25859,3.25859,0,0,0-.92187,2.39062,3.35511,3.35511,0,0,0,.93359,2.4795,3.30266,3.30266,0,0,0,2.43457.91894A4.01623,4.01623,0,0,0,9.395,85.63564l1.49414,1.63574A6.045,6.045,0,0,1,6.773,88.76552,5.45389,5.45389,0,0,1,2.78762,87.15615Z"/><path class="cls-3" d="M13.30129,77.55361h2.2334V88.76552h-2.2334Z"/><path class="cls-3" d="M26.92629,77.56044v2.0918H23.19192v9.11328H20.95071V79.65224H17.21633v-2.0918Z"/><path class="cls-3" d="M35.33742,83.87978l2.79395,4.88574H35.56106l-2.68164-4.63086h-2.0459v4.63086H28.59231V77.56044h4.88476q3.92286,0,3.92188,3.22754A2.89659,2.89659,0,0,1,35.33742,83.87978Zm-4.5039-1.83691h3.13672q1.352-.022,1.38965-1.23243-.0381-1.106-1.36719-1.15039H30.83352Z"/><path class="cls-3" d="M41.36574,77.56044v6.499a2.24729,2.24729,0,0,0,.74707,1.86718,3.21554,3.21554,0,0,0,3.73438,0,2.24726,2.24726,0,0,0,.74707-1.86718v-6.499h2.24121v7.09668a3.71363,3.71363,0,0,1-1.38183,2.91309,5.64494,5.64494,0,0,1-6.94727,0,3.71361,3.71361,0,0,1-1.38184-2.91309V77.56044Z"/><path class="cls-3" d="M57.3218,77.93447a5.21943,5.21943,0,0,1,1.60547,1.12011L57.4341,80.54873a2.57272,2.57272,0,0,0-2.09179-.89649q-1.34473,0-1.71778.63477a.87376.87376,0,0,0,0,1.083,2.95053,2.95053,0,0,0,1.71778.67286,5.56841,5.56841,0,0,1,2.57715.93359,2.8052,2.8052,0,0,1,1.15722,2.50195,2.87586,2.87586,0,0,1-1.23535,2.31641,4.529,4.529,0,0,1-2.87988.9707,6.63714,6.63714,0,0,1-2.60742-.44824,5.65247,5.65247,0,0,1-1.793-1.19531l1.49414-1.49414a3.55117,3.55117,0,0,0,2.54,1.0459q1.49414,0,1.86328-.63477a1.17986,1.17986,0,0,0,0-1.26953q-.36915-.63574-1.86328-.78418a6.02409,6.02409,0,0,1-2.46485-.82227,2.4789,2.4789,0,0,1-1.12109-2.31543,2.78864,2.78864,0,0,1,1.27441-2.38672,4.48841,4.48841,0,0,1,2.61817-.90039A6.25238,6.25238,0,0,1,57.3218,77.93447Z"/></svg>