<svg xmlns="http://www.w3.org/2000/svg" xmlns:xlink="http://www.w3.org/1999/xlink" width="970" height="250" viewBox="0 0 970 250"><defs><style>.cls-1{fill:none;}.cls-2{clip-path:url(#clip-path);}.cls-3{clip-path:url(#clip-path-2);}.cls-4{clip-path:url(#clip-path-3);}.cls-5{clip-path:url(#clip-path-4);}.cls-6{opacity:0.65882;}.cls-7{clip-path:url(#clip-path-5);}.cls-8{clip-path:url(#clip-path-6);}.cls-9{fill:#ba9544;}</style><clipPath id="clip-path"><rect class="cls-1" x="-2" y="586.64614" width="974" height="251.03093"/></clipPath><clipPath id="clip-path-2"><rect class="cls-1" x="-17.21661" y="191.22969" width="994.73176" height="663.15451"/></clipPath><clipPath id="clip-path-3"><rect class="cls-1" x="-2" y="287.48396" width="974" height="251.03093"/></clipPath><clipPath id="clip-path-4"><rect class="cls-1" x="-17.21661" y="-107.9325" width="994.73176" height="663.15451"/></clipPath><clipPath id="clip-path-5"><path class="cls-1" d="M-1.99243,285.88621V446.7031l123.07415-42.6657,86.97239,9.84593,55.79362-90.25438-1.641-37.74274Z"/></clipPath><clipPath id="clip-path-6"><rect class="cls-1" x="-100.80798" y="98.69366" width="294.81185" height="442.21777" transform="translate(-259.3638 215.7235) rotate(-62.92309)"/></clipPath></defs><title>Frame1 - Durga Mata</title><g id="BG"><g class="cls-2"><g id="Background_LO.psd"><g class="cls-3"><g id="background"><image id="GettyImages-909407598" width="1266" height="1899" transform="translate(977.51516 191.22969) rotate(90) scale(0.52382)" xlink:href="Frame1%20-%20Durga%20Mata1.png"/></g></g></g></g><g class="cls-4"><g id="Background_LO.psd-2" data-name="Background_LO.psd"><g class="cls-5"><g id="background-2" data-name="background"><image id="GettyImages-909407598-2" data-name="GettyImages-909407598" width="1266" height="1899" transform="translate(977.51516 -107.9325) rotate(90) scale(0.52382)" xlink:href="Frame1%20-%20Durga%20Mata2.png"/><image id="Layer_27" data-name="Layer 27" class="cls-6" width="1015" height="1469" transform="translate(977.51516 23.546) rotate(90) scale(0.52382)" xlink:href="Frame1%20-%20Durga%20Mata3.png"/></g></g></g></g></g><g id="Terpenes"><g class="cls-7"><g id="Oranges_1_GettyImages-501548078.psd" data-name="Oranges#1_GettyImages-501548078.psd"><g class="cls-8"><image id="Oranges_1" data-name="Oranges #1" width="3146" height="1965" transform="translate(-77.38644 118.46046) rotate(27.07691) scale(0.12796)" xlink:href="Frame1%20-%20Durga%20Mata4.png"/></g></g></g></g><g id="Content"><path class="cls-9" d="M386.79887,110.31152h8.5039c5.376,0,8.01563,2.98145,8.01563,8.45557v17.30127c0,5.47363-2.63965,8.45508-8.01563,8.45508h-8.5039Zm5.376,4.8877v24.43652h3.03028c1.71093,0,2.7373-.87988,2.7373-3.32324v-17.79c0-2.44385-1.02637-3.32324-2.7373-3.32324Z"/><path class="cls-9" d="M417.05082,110.31152v26.3916c0,2.44434,1.07519,3.32422,2.78515,3.32422,1.71094,0,2.78614-.87988,2.78614-3.32422v-26.3916h5.083v26.04981c0,5.47363-2.73731,8.60156-8.01563,8.60156s-8.01562-3.12793-8.01562-8.60156V110.31152Z"/><path class="cls-9" d="M447.79105,144.52344a10.52194,10.52194,0,0,1-.48926-4.20313v-5.376c0-3.17676-1.07519-4.34961-3.51855-4.34961h-1.85742v13.92871h-5.376V110.31152h8.11328c5.57129,0,7.9668,2.59034,7.9668,7.86866v2.68847c0,3.51856-1.125,5.81592-3.51953,6.93994,2.68848,1.124,3.56836,3.71485,3.56836,7.28223v5.27832a10.08246,10.08246,0,0,0,.58594,4.1543Zm-5.86523-29.32422V125.707h2.10156c2.00391,0,3.22559-.87988,3.22559-3.6167v-3.37256c0-2.44336-.83008-3.51855-2.73633-3.51855Z"/><path class="cls-9" d="M469.44047,125.4624h7.52734v10.8501c0,5.47363-2.7373,8.60156-8.01562,8.60156s-8.01563-3.12793-8.01563-8.60156v-17.79c0-5.47363,2.73731-8.60156,8.01563-8.60156s8.01562,3.12793,8.01562,8.60156v3.32324h-5.083v-3.66552c0-2.44336-1.07519-3.37207-2.78613-3.37207s-2.78613.92871-2.78613,3.37207V136.6543c0,2.44433,1.07519,3.32422,2.78613,3.32422s2.78613-.87989,2.78613-3.32422v-6.30469h-2.44433Z"/><path class="cls-9" d="M503.01664,144.52344h-5.42481l-.92871-6.207h-6.59863l-.92871,6.207h-4.93555l5.47364-34.21192H497.543Zm-12.26758-10.84961h5.18066l-2.58984-17.30176Z"/><path class="cls-9" d="M534.83109,134.60156l3.665-24.29h7.47754v34.21192h-5.082V119.98877l-3.71485,24.53467h-5.083L528.086,120.33105v24.19239h-4.6914V110.31152h7.47754Z"/><path class="cls-9" d="M572.46293,144.52344h-5.42578l-.92871-6.207h-6.59766l-.92871,6.207h-4.93555l5.47363-34.21192h7.86817Zm-12.26758-10.84961H565.376l-2.59082-17.30176Z"/><path class="cls-9" d="M578.57035,110.31152h16.61719v4.8877h-5.62012v29.32422h-5.376V115.19922h-5.62109Z"/><path class="cls-9" d="M620.11234,144.52344h-5.42578l-.92871-6.207h-6.59766l-.92871,6.207h-4.93554l5.47363-34.21192h7.86816Zm-12.26758-10.84961h5.18067l-2.59082-17.30176Z"/><path class="cls-9" d="M648.40824,114.80811c-1.71,0-2.78516.92871-2.78516,3.37207v3.66552h-5.083v-3.32324c0-5.47363,2.7373-8.60156,8.01562-8.60156s8.01465,3.12793,8.01465,8.60156c0,10.75195-10.70313,14.75977-10.70313,20.38086a3.69549,3.69549,0,0,0,.04883.73242h10.166v4.8877h-15.542v-4.20313c0-10.06836,10.65429-11.72949,10.65429-21.60254C651.19437,115.63916,650.11918,114.80811,648.40824,114.80811Z"/></g></svg>