<svg id="Layer_1" data-name="Layer 1" xmlns="http://www.w3.org/2000/svg" xmlns:xlink="http://www.w3.org/1999/xlink" width="300" height="250" viewBox="0 0 300 250"><defs><style>.cls-1{fill:url(#linear-gradient);}.cls-2{fill:url(#linear-gradient-2);}.cls-3{fill:url(#linear-gradient-3);}.cls-4{fill:#fff;}</style><linearGradient id="linear-gradient" x1="161.68" y1="202.31" x2="161.68" y2="225.96" gradientUnits="userSpaceOnUse"><stop offset="0" stop-color="#ceb467"/><stop offset="1" stop-color="#997f2f"/></linearGradient><linearGradient id="linear-gradient-2" x1="110.32" y1="202.27" x2="110.32" y2="225.99" xlink:href="#linear-gradient"/><linearGradient id="linear-gradient-3" x1="104.5" y1="213.49" x2="156.59" y2="213.95" gradientUnits="userSpaceOnUse"><stop offset="0" stop-color="#ad8f35"/><stop offset="0.19" stop-color="#ceb467"/><stop offset="0.46" stop-color="#a58f4b"/><stop offset="0.76" stop-color="#ceb467"/><stop offset="1" stop-color="#997f2f"/></linearGradient></defs><title>link</title><path class="cls-1" d="M197,226H119.9l6.7-11.83-6.7-11.82H197l6.43,11.82Zm-75.61-.88H196.5l5.95-11-5.95-10.94H121.41l6.2,10.94Z"/><path class="cls-2" d="M117.31,226l-14.09-.07-6.4-11.85,6.51-11.8,14.09.07,6.4,11.86Zm-13.57-.94,13.05.06,6-10.91-5.92-11-13.05-.07-6,10.92Z"/><path class="cls-3" d="M114.94,217.08l.14,0a1.54,1.54,0,0,0-.3.09l-1.47.62.89-.67h0l0-.15-.16-.27a5.4,5.4,0,0,0,1.22-1.26L114,216l1.22-1a1.89,1.89,0,0,0,.39-.42c.16-.24.3-.48.44-.73l-.38.37.45-1a12,12,0,0,0,.67-1.85,17.27,17.27,0,0,0-1.8,1.15l-.88.68.28-.44c-.23.19-.45.4-.66.61a2.13,2.13,0,0,0-.33.46l-.65,1.24.23-1.13a6.1,6.1,0,0,0-.51.61l-.11.16-.1-.07,0,0-.89,1.69.52-1.83a5.94,5.94,0,0,0,.18-2.3l-.61,1.13.29-1.36a2.09,2.09,0,0,0,0-.69,10.76,10.76,0,0,0-.24-1.38l-.08.67-.26-1a18.4,18.4,0,0,0-.91-2.46,18.4,18.4,0,0,0-.91,2.46l-.26,1-.09-.67a12.81,12.81,0,0,0-.23,1.38,2.09,2.09,0,0,0,0,.69l.29,1.36-.61-1.13a5.75,5.75,0,0,0,.17,2.3l.53,1.83-.89-1.69,0,0-.1.07-.11-.16a5.07,5.07,0,0,0-.52-.61l.23,1.13-.64-1.24a2.54,2.54,0,0,0-.33-.46c-.21-.21-.43-.42-.66-.61l.28.44-.89-.68a16.2,16.2,0,0,0-1.79-1.15,12,12,0,0,0,.67,1.85l.45,1-.38-.37c.14.25.28.49.44.73a1.89,1.89,0,0,0,.39.42l1.22,1-1.2-.57a5.4,5.4,0,0,0,1.22,1.26l-.16.27,0,.15h0l.89.67-1.48-.62a1.43,1.43,0,0,0-.29-.09l.14,0h-1.27a11.28,11.28,0,0,0-1.21.07,8.36,8.36,0,0,0,1,.57l1.12.53-.13,0,.28,0,1.69.07-1.15.22a3.91,3.91,0,0,0,.83.09h1.23l-.72.23,1.1.19-1.69.11h-.08l-.78.38c-.2.1-.38.21-.55.31a4.9,4.9,0,0,0,.67,0H107l.08,0,1.46-.64-.74.57a2.52,2.52,0,0,0,.29-.12l.14.08h.06a2.37,2.37,0,0,0,.64-.38,3.4,3.4,0,0,1,.72-.41l.26,0a.7.7,0,0,1-.34-.21c-.16-.16-.22-.38-.06-.42s.43.21.45.21a.32.32,0,0,0,.09-.21,3.25,3.25,0,0,0-.08-.38,2.29,2.29,0,0,0-.06-.32c0-.07-.19-.1-.28-.15l-.23-.16a.92.92,0,0,1-.1-.33,1.29,1.29,0,0,0,0-.34s-.11-.09-.17-.15a.23.23,0,0,1,0-.14s0,.09.1.1,0,.05.12.08.08.06.09.13.09.31.12.4.06.17.15.18.09.05.2,0a.65.65,0,0,1,.27,0c.06,0,.14,0,.16,0s0-.21,0-.21,0-.05-.06-.1,0-.05,0-.05a.22.22,0,0,1,.2-.27.23.23,0,0,1,.2.27s0,0,0,.05,0,.1-.07.1,0,.17,0,.21.1,0,.16,0a.65.65,0,0,1,.27,0c.11,0,.1,0,.19,0s.13-.08.16-.18.11-.33.12-.4,0-.11.09-.13.07-.07.12-.08.06-.12.1-.1a.23.23,0,0,1,0,.14c-.06.06-.14.1-.17.15a1.29,1.29,0,0,0,0,.34.92.92,0,0,1-.1.33l-.23.16c-.09,0-.25.08-.28.15a2.29,2.29,0,0,0-.06.32,3.25,3.25,0,0,0-.08.38.32.32,0,0,0,.09.21s.3-.26.45-.21.1.26-.06.42a.7.7,0,0,1-.34.21l.26,0a3.4,3.4,0,0,1,.72.41,2.23,2.23,0,0,0,.64.38h.06l.14-.08a2.52,2.52,0,0,0,.29.12l-.74-.57,1.46.64.07,0h.89a4.9,4.9,0,0,0,.67,0c-.17-.1-.35-.21-.55-.31l-.78-.38h-.08l-1.69-.11,1.1-.19-.71-.23h1.22a4,4,0,0,0,.83-.09l-1.15-.22,1.69-.07.28,0-.13,0,1.12-.53a8.36,8.36,0,0,0,1-.57,11.28,11.28,0,0,0-1.21-.07Z"/><path class="cls-4" d="M132.67,217.2v-5.58H133l3.51,3.5v-3.5h1.12v5.58h-.41l-3.47-3.46v3.46Z"/><path class="cls-4" d="M138.68,217.2l2.24-5.58H142l2.23,5.58h-1.19l-.34-.85h-2.53l-.33.85Zm2.83-4.09-.85,2.12h1.67Z"/><path class="cls-4" d="M145.26,217.2v-5.58h.37l2.42,2.75,2.43-2.75h.37v5.58h-1.12V214l-1.68,1.87L146.37,214v3.24Z"/><path class="cls-4" d="M151.82,217.2l2.24-5.58h1.11l2.24,5.58h-1.19l-.34-.85h-2.53l-.34.85Zm2.83-4.09-.85,2.12h1.67Z"/><path class="cls-4" d="M161.42,211.8a2.64,2.64,0,0,1,.8.56l-.74.75a1.29,1.29,0,0,0-1-.45c-.44,0-.73.1-.85.32a.42.42,0,0,0,0,.54,1.49,1.49,0,0,0,.85.33,2.84,2.84,0,0,1,1.29.47,1.4,1.4,0,0,1,.58,1.25,1.44,1.44,0,0,1-.62,1.15,2.27,2.27,0,0,1-1.44.48,3.3,3.3,0,0,1-1.3-.22,2.94,2.94,0,0,1-.89-.59l.74-.75a1.77,1.77,0,0,0,1.27.52c.5,0,.81-.1.93-.32a.6.6,0,0,0,0-.63q-.18-.32-.93-.39a3,3,0,0,1-1.23-.41,1.24,1.24,0,0,1-.56-1.16,1.39,1.39,0,0,1,.64-1.19,2.21,2.21,0,0,1,1.3-.44A3.25,3.25,0,0,1,161.42,211.8Z"/><path class="cls-4" d="M168,211.62v1h-1.86v4.54H165v-4.54h-1.87v-1Z"/><path class="cls-4" d="M169,217.2v-5.58h4.1v1h-3v1.19h2.23v1H170.1v1.27h3v1Z"/><path class="cls-4" d="M174.39,216.31a.54.54,0,0,1,.4-.15.57.57,0,0,1,.42.15.5.5,0,0,1,.15.37.52.52,0,0,1-.15.38.67.67,0,0,1-.82,0,.52.52,0,0,1-.15-.38A.5.5,0,0,1,174.39,216.31Z"/><path class="cls-4" d="M177.21,216.4a2.85,2.85,0,0,1,0-4,2.65,2.65,0,0,1,2-.8,3,3,0,0,1,2.06.74l-.75.82a2,2,0,0,0-1.31-.45,1.64,1.64,0,0,0-1.21.47,1.61,1.61,0,0,0-.46,1.19,1.67,1.67,0,0,0,.47,1.24,1.65,1.65,0,0,0,1.21.46,2,2,0,0,0,1.3-.45l.75.82a3,3,0,0,1-2.06.74A2.69,2.69,0,0,1,177.21,216.4Z"/><path class="cls-4" d="M183.12,216.4a2.89,2.89,0,1,1,2,.8A2.71,2.71,0,0,1,183.12,216.4Zm2-.24a1.6,1.6,0,0,0,1.21-.5,1.93,1.93,0,0,0,0-2.5,1.73,1.73,0,0,0-2.43,0,1.93,1.93,0,0,0,0,2.5A1.61,1.61,0,0,0,185.12,216.16Z"/><path class="cls-4" d="M188.89,217.2v-5.58h.38l2.42,2.75,2.42-2.75h.38v5.58h-1.12V214l-1.68,1.87L190,214v3.24Z"/></svg>