<?xml version="1.0" encoding="utf-8"?>
<!-- Generator: Adobe Illustrator 23.0.1, SVG Export Plug-In . SVG Version: 6.00 Build 0)  -->
<svg version="1.1" id="Content" xmlns="http://www.w3.org/2000/svg" xmlns:xlink="http://www.w3.org/1999/xlink" x="0px" y="0px"
	 viewBox="0 0 640 1136" style="enable-background:new 0 0 640 1136;" xml:space="preserve">
<style type="text/css">
	.st0{fill:url(#SVGID_1_);}
	.st1{fill:#FFFFFF;}
	.st2{fill:#B89344;}
</style>
<title>citrus</title>
<linearGradient id="SVGID_1_" gradientUnits="userSpaceOnUse" x1="424.05" y1="364.055" x2="517.34" y2="364.055" gradientTransform="matrix(1 0 0 -1 0 1136)">
	<stop  offset="0" style="stop-color:#A68834"/>
	<stop  offset="0.49" style="stop-color:#C8AD67"/>
	<stop  offset="1" style="stop-color:#937F2E"/>
</linearGradient>
<polygon class="st0" points="494,731.5 447.4,731.5 424,772 447.4,812.3 494,812.3 517.3,772 "/>
<path class="st1" d="M489.8,777.7c-7.8,8.2-20.8,8.5-29,0.7c-7.6-7.2-8.5-19-2.1-27.3l-1.9-1.6c-7.8,10-6,24.5,4,32.3
	c9.4,7.3,22.7,6.3,30.9-2.4L489.8,777.7z"/>
<path class="st1" d="M456.4,765.5c0.5,4.4,2.5,8.5,5.8,11.6l11-12.8L456.4,765.5z"/>
<path class="st1" d="M463.5,778.2c3.4,2.7,7.7,4.1,12.1,4l-1.3-16.6L463.5,778.2z"/>
<path class="st1" d="M460,752.2c-2.5,3.4-3.8,7.5-3.8,11.7l15.9-1.2L460,752.2z"/>
<path class="st1" d="M488.4,776.5L476,765.9l1.3,16.1C481.5,781.5,485.4,779.5,488.4,776.5"/>
<path class="st1" d="M473.1,761.2c0.1-1,0.7-1.7,1.3-1.8s1.1,0.5,1.1,1.6c-0.2,0.8-0.7,1.5-1.3,2C474.2,763,473,762.3,473.1,761.2"
	/>
<path class="st1" d="M477.5,762.2c1-0.3,1.7,0,1.8,0.7s-0.5,1.4-1.5,1.7c-0.7,0.1-1.5-0.1-2-0.6C475.8,764,476.4,762.5,477.5,762.2"
	/>
<path class="st1" d="M479.3,794.5c0,1.2-1,2.2-2.2,2.1c-1.1,0-2-0.9-2.1-2c0-1.2,2-3.6,2-3.6S479.3,793.3,479.3,794.5"/>
<path class="st1" d="M478.6,793.1c0,0.3-0.2,0.6-0.5,0.7l-1.8,0.1c-0.3,0-0.6-0.3-0.6-0.6c0.4-1.1,0.4-2.3,0.2-3.5
	c-0.7-2-5.5-3.7-5.2-3.7l9.9-0.7c-1.4,1.1-2.3,2.6-2.7,4.3C477.7,790.9,477.9,792.1,478.6,793.1"/>
<path class="st2" d="M428.3,864.9c-3.4-3.3-3.4-8.8-0.1-12.1c1.6-1.6,3.9-2.6,6.2-2.5c2.3,0,4.6,0.8,6.3,2.3l-2.3,2.5
	c-1.1-0.9-2.5-1.4-4-1.4c-1.4-0.1-2.7,0.5-3.7,1.4c-0.9,1-1.5,2.3-1.4,3.7c-0.1,1.4,0.5,2.8,1.4,3.8c1,1,2.3,1.5,3.7,1.4
	c1.5,0,2.9-0.4,4-1.4l2.3,2.5c-1.7,1.5-4,2.3-6.3,2.3C432.1,867.4,429.9,866.5,428.3,864.9z"/>
<path class="st2" d="M444.4,850.2h3.4v17.2h-3.4V850.2z"/>
<path class="st2" d="M465.2,850.2v3.2h-5.7v14h-3.4v-14h-5.7v-3.2H465.2z"/>
<path class="st2" d="M478.1,859.9l4.3,7.5h-3.9l-4.1-7.1h-3.1v7.1h-3.4v-17.2h7.5c4,0,6,1.6,6,4.9
	C481.3,857.6,480.2,859.2,478.1,859.9z M471.2,857.1h4.8c1.4,0,2.1-0.7,2.1-1.9s-0.7-1.7-2.1-1.8h-4.8L471.2,857.1z"/>
<path class="st2" d="M487.3,850.2v10c-0.1,1.1,0.3,2.1,1.1,2.8c1.7,1.2,4,1.2,5.7,0c0.8-0.7,1.2-1.8,1.1-2.8v-10h3.4v10.9
	c0,1.7-0.8,3.4-2.1,4.5c-3.1,2.4-7.5,2.4-10.6,0c-1.3-1.1-2.1-2.7-2.1-4.5v-10.9H487.3z"/>
<path class="st2" d="M511.8,850.8c0.9,0.4,1.8,1,2.5,1.7l-2.3,2.3c-0.8-0.9-2-1.4-3.2-1.4c-1.4,0-2.2,0.3-2.6,1
	c-0.4,0.5-0.4,1.2,0,1.7c0.7,0.6,1.7,1,2.6,1c1.4,0.1,2.8,0.6,3.9,1.4c1.2,0.9,1.9,2.3,1.8,3.8c0,1.4-0.7,2.7-1.9,3.5
	c-1.3,1-2.8,1.5-4.4,1.5c-1.4,0-2.7-0.2-4-0.7c-1-0.4-2-1-2.7-1.8l2.3-2.3c1,1,2.4,1.6,3.9,1.6c1.5,0,2.5-0.3,2.9-1
	c0.4-0.6,0.4-1.4,0-2c-0.4-0.7-1.3-1.1-2.9-1.2c-1.3-0.1-2.6-0.6-3.8-1.2c-1.2-0.8-1.9-2.1-1.7-3.5c0-1.5,0.7-2.9,2-3.7
	c1.2-0.9,2.6-1.4,4-1.4C509.3,850.1,510.6,850.3,511.8,850.8z"/>
</svg>
