<svg id="Content" xmlns="http://www.w3.org/2000/svg" xmlns:xlink="http://www.w3.org/1999/xlink" width="640" height="1136" viewBox="0 0 640 1136"><defs><style>.cls-1{fill:#fff;}.cls-2{fill:url(#New_Gradient_Swatch_1);}.cls-3{fill:#ba9544;}</style><linearGradient id="New_Gradient_Swatch_1" x1="278.51654" y1="460.29058" x2="373.19198" y2="460.29058" gradientUnits="userSpaceOnUse"><stop offset="0" stop-color="#a88a34"/><stop offset="0.49324" stop-color="#caaf67"/><stop offset="1" stop-color="#957f2e"/></linearGradient></defs><title>minty</title><path class="cls-1" d="M306.99872,448.29026a4.03959,4.03959,0,0,1,.761-.31232,7.31469,7.31469,0,0,1,.849-.21557l.04839-.01759,8.30533-1.82559a2.688,2.688,0,0,1,1.7728.27272l1.39889,1.36812-2.90776,3.04412-9.26872,2.03673c-.36951-1.67162-.75222-3.41364-.959-4.35062M335.821,471.45982l-4.56179-20.75012a3.11029,3.11029,0,0,0-3.45763-2.40625l2.44585-2.569.673.63785,1.01619-1.07774a.66008.66008,0,0,0-.02642-.93261l-4.91807-4.64536a.66008.66008,0,0,0-.93258.02642l-1.01619,1.07773.80941.76545-3.264,3.42242L320.97,443.42934l-.11434-.088a6.18534,6.18534,0,0,0-4.64979-.87543l-8.21733,1.808a12.02509,12.02509,0,0,0-1.45168.37391,4.94584,4.94584,0,0,0-2.657,1.7728,2.86957,2.86957,0,0,0-.4311,2.23911c.25513,1.14375,1.14371,5.19523,1.6804,7.62787.00879.05279.01759.10557.03081.15836l4.56175,20.75451a3.09146,3.09146,0,0,0,3.69518,2.34908l20.01987-4.40341a3.10762,3.10762,0,0,0,2.3843-3.68637"/><polygon class="cls-2" points="360.426 492.161 320.954 507.312 284.504 485.897 278.517 444.045 307.506 413.27 349.64 416.745 373.192 451.858 360.426 492.161"/><path class="cls-1" d="M345.88079,475.20278a16.772,16.772,0,0,0-6.71729-13.89206s2.1159-.76983,3.18488-.38711a10.95946,10.95946,0,0,0-6.405-5.76711,4.90017,4.90017,0,0,1,2.51183-.30793s-3.72157-6.09262-13.3158-8.74523a7.94893,7.94893,0,0,1,2.42826-.29913s-9.933-5.49436-19.39525.68185c0,0,8.015,4.22744,11.18668,8.60446,0,0-10.9887-7.02082-12.59-6.91085,0,0-4.94448,11.74976,7.62789,22.03025a5.52942,5.52942,0,0,1-.29914-2.42826s4.99289,6.02224,9.867,7.63668a5.69709,5.69709,0,0,1,.03077-2.36667s3.38286,3.47961,6.968,3.97671c0,0-.7698-2.11593-.21993-3.20249,0,0,8.07218,4.79053,15.137,1.37689"/><path class="cls-3" d="M286.49983,552.07341V534.675H287.66l7.53906,8.583,7.55078-8.583H303.91v17.39844H300.4305l-.01172-10.09082-5.21973,5.79882-5.21972-5.79882v10.09082Z"/><path class="cls-3" d="M307.37776,534.66325h3.46778v17.41016h-3.46778Z"/><path class="cls-3" d="M314.33675,552.07341V534.675h1.16015l10.90235,10.90332V534.675h3.48047v17.39844h-1.27637L317.81624,541.2863v10.78711Z"/><path class="cls-3" d="M347.68343,534.675v3.248h-5.79981v14.15039h-3.47949V537.923h-5.7998v-3.248Z"/><path class="cls-3" d="M349.24886,534.675h4.083l4.03613,5.68359,4.1289-5.68359h3.99024l-6.37988,8.69922v8.69922h-3.4795v-8.69922Z"/></svg>