<?xml version="1.0" encoding="utf-8"?>
<!-- Generator: Adobe Illustrator 23.0.1, SVG Export Plug-In . SVG Version: 6.00 Build 0)  -->
<svg version="1.1" id="Layer_1" xmlns="http://www.w3.org/2000/svg" xmlns:xlink="http://www.w3.org/1999/xlink" x="0px" y="0px"
	 viewBox="0 0 970 250" enable-background="new 0 0 970 250" xml:space="preserve">
<g>
	<g>
		<polygon fill="#FFFFFF" stroke="#BA9544" stroke-width="0.5" stroke-miterlimit="10" points="612.27,97.89 379.67,97.01 
			367.93,113.94 379.67,130.57 612.27,130.18 622.84,114.03 		"/>
		<polygon fill="#BA9544" points="379.84,97.01 368.1,113.94 379.84,130.57 424.08,130.57 424.08,97.01 		"/>
	</g>
	<g>
		<path fill="#BA9544" d="M512.8,108.39v2.13H509v9.26h-2.28v-9.26h-3.8v-2.13H512.8z"/>
		<path fill="#BA9544" d="M514.49,119.78v-11.39h2.28v4.56h5.31v-4.56h2.28v11.39l-2.28,0.01v-4.71h-5.31v4.71H514.49z"/>
		<path fill="#BA9544" d="M527.89,118.14c-1.09-1.09-1.63-2.45-1.63-4.08c0-1.6,0.55-2.94,1.64-4.04c1.09-1.09,2.44-1.64,4.05-1.64
			c1.63,0,3.02,0.51,4.18,1.52l-1.52,1.66c-0.78-0.61-1.66-0.91-2.67-0.91c-1.02,0-1.85,0.32-2.47,0.96
			c-0.63,0.63-0.94,1.44-0.94,2.43c0,1.06,0.32,1.9,0.95,2.52c0.63,0.62,1.45,0.93,2.47,0.93s1.91-0.3,2.65-0.9l1.52,1.66
			c-1.16,1.01-2.55,1.52-4.18,1.52C530.33,119.77,528.98,119.23,527.89,118.14z"/>
		<path fill="#BA9544" d="M543.99,112.52c0.2-0.21,0.48-0.31,0.82-0.31c0.37,0,0.65,0.1,0.85,0.31c0.2,0.21,0.3,0.46,0.3,0.76
			s-0.1,0.56-0.3,0.76c-0.2,0.2-0.48,0.3-0.84,0.3s-0.63-0.1-0.84-0.3c-0.2-0.2-0.3-0.46-0.3-0.76S543.79,112.72,543.99,112.52z
			 M543.99,117.95c0.2-0.21,0.48-0.31,0.82-0.31c0.37,0,0.65,0.1,0.85,0.31c0.2,0.21,0.3,0.46,0.3,0.76s-0.1,0.56-0.3,0.76
			c-0.2,0.2-0.48,0.3-0.84,0.3s-0.63-0.1-0.84-0.3c-0.2-0.2-0.3-0.46-0.3-0.76S543.79,118.16,543.99,117.95z"/>
		<path fill="#BA9544" d="M556.11,108.39L556.11,108.39l2.27-0.01v11.4h-2.27v-8.35l-1.52,1.52l-1.52-1.52L556.11,108.39z"/>
		<path fill="#BA9544" d="M566.79,114.01c0.14,0.05,0.26,0.1,0.37,0.15c0.79,0.35,1.18,1.11,1.18,2.28s-0.37,2.01-1.11,2.54
			c-0.74,0.53-1.69,0.8-2.85,0.8c-1.15,0-2.1-0.27-2.84-0.8c-0.74-0.53-1.1-1.38-1.1-2.54s0.39-1.92,1.18-2.28
			c0.11-0.05,0.24-0.1,0.37-0.15c-0.08-0.04-0.15-0.08-0.22-0.11c-0.68-0.38-1.03-1.1-1.03-2.16c0-1.06,0.33-1.88,0.99-2.47
			c0.66-0.58,1.55-0.87,2.66-0.87c1.1,0,1.99,0.29,2.65,0.87c0.66,0.58,0.99,1.41,0.99,2.47c0,1.06-0.34,1.78-1.03,2.16
			C566.94,113.93,566.87,113.97,566.79,114.01z M564.39,112.98c0.67-0.02,1.1-0.19,1.29-0.52c0.25-0.43,0.25-0.86,0-1.29
			c-0.23-0.39-0.66-0.61-1.29-0.64c-0.63,0.03-1.05,0.24-1.28,0.64c-0.25,0.43-0.25,0.86,0,1.29
			C563.29,112.78,563.72,112.96,564.39,112.98z M564.39,115.06c-0.67,0.11-1.1,0.32-1.28,0.65c-0.25,0.43-0.25,0.86,0,1.29
			c0.23,0.4,0.66,0.61,1.28,0.64c0.63-0.03,1.06-0.24,1.29-0.64c0.25-0.43,0.25-0.86,0-1.29
			C565.49,115.39,565.05,115.17,564.39,115.06z"/>
		<path fill="#BA9544" d="M570.32,116.73v-1.51h4.71v1.51H570.32z"/>
		<path fill="#BA9544" d="M581.1,108.39c1.11,0,2.03,0.28,2.74,0.84c0.71,0.56,1.07,1.39,1.07,2.5c0,1.32-0.51,2.52-1.52,3.61
			c-1.01,1.09-1.84,1.81-2.5,2.16h4.1v2.28h-7.68v-2.28c0.51,0,1.47-0.63,2.89-1.9c1.42-1.27,2.24-2.16,2.47-2.7
			s0.21-1.06-0.04-1.59c-0.25-0.53-0.86-0.8-1.82-0.8c-0.91,0-1.62,0.3-2.13,0.91l-1.52-1.52c0.51-0.51,1-0.89,1.48-1.14
			S579.94,108.39,581.1,108.39z"/>
		<path fill="#BA9544" d="M594.43,108.39v2.13h-4.71v1.59h0.91c1.51,0,2.66,0.34,3.45,1.02c0.79,0.79,1.18,1.81,1.18,3.08
			c0,0.96-0.38,1.8-1.14,2.51c-0.76,0.71-1.7,1.06-2.81,1.06c-1.06,0-1.94-0.15-2.65-0.46s-1.32-0.71-1.82-1.21l1.52-1.52
			c0.51,0.61,1.31,0.94,2.43,0.99c1.37,0,2.11-0.5,2.24-1.5c-0.03-0.64-0.26-1.11-0.7-1.41c-0.23-0.25-1.05-0.39-2.45-0.42h-2.43
			v-5.85H594.43z"/>
		<path fill="#BA9544" d="M597.57,113.2c-0.54-0.55-0.82-1.23-0.82-2.04s0.27-1.49,0.82-2.04c0.55-0.55,1.23-0.82,2.04-0.82
			c0.81,0,1.49,0.27,2.04,0.82c0.55,0.55,0.82,1.23,0.82,2.04s-0.27,1.49-0.82,2.04c-0.55,0.55-1.22,0.82-2.04,0.82
			C598.8,114.02,598.12,113.74,597.57,113.2z M599.59,112.67c0.42,0,0.77-0.14,1.04-0.43c0.27-0.29,0.4-0.65,0.4-1.08
			c0-0.43-0.13-0.79-0.4-1.07s-0.62-0.43-1.05-0.43c-0.42,0-0.77,0.14-1.03,0.43s-0.4,0.64-0.4,1.07c0,0.43,0.13,0.79,0.4,1.08
			C598.81,112.52,599.16,112.67,599.59,112.67z M598.98,119.78l6.45-11.39h1.85l-6.44,11.39H598.98z M604.63,119.03
			c-0.54-0.54-0.81-1.21-0.81-2.02s0.27-1.48,0.81-2.02c0.54-0.54,1.21-0.81,2.02-0.81c0.8,0,1.48,0.27,2.02,0.81
			c0.54,0.54,0.81,1.21,0.81,2.02s-0.27,1.48-0.81,2.02c-0.54,0.54-1.21,0.81-2.02,0.81C605.85,119.84,605.18,119.57,604.63,119.03z
			 M606.62,118.47c0.42,0,0.75-0.14,1.02-0.42c0.26-0.28,0.39-0.63,0.39-1.05c0-0.42-0.13-0.76-0.39-1.04
			c-0.26-0.28-0.61-0.42-1.03-0.42c-0.41,0-0.75,0.14-1.01,0.42c-0.26,0.28-0.39,0.63-0.39,1.04c0,0.42,0.13,0.77,0.39,1.05
			C605.86,118.33,606.2,118.47,606.62,118.47z"/>
	</g>
</g>
<g>
</g>
<g>
</g>
<g>
</g>
<g>
</g>
<g>
</g>
<g>
</g>
<g>
</g>
<g>
</g>
<g>
</g>
<g>
</g>
<g>
</g>
<g>
</g>
<g>
</g>
<g>
</g>
<g>
</g>
</svg>
