<svg id="Content" xmlns="http://www.w3.org/2000/svg" width="320" height="50" viewBox="0 0 320 50"><defs><style>.cls-1{fill:#ba9544;}</style></defs><title>Frame1 - Daytime CBD</title><path class="cls-1" d="M127.82861,22.752H130.396c1.623,0,2.41992.8999,2.41992,2.55274v5.22314c0,1.65283-.79688,2.55274-2.41992,2.55274h-2.56739Zm1.62305,1.47559V31.605h.91455c.5166,0,.82666-.26563.82666-1.00342V25.231c0-.7378-.31006-1.00342-.82666-1.00342Z"/><path class="cls-1" d="M140.37061,33.08057h-1.63819l-.28027-1.874h-1.9917l-.28076,1.874h-1.49024L136.34229,22.752h2.37548ZM136.667,29.80469h1.564l-.78223-5.22315Z"/><path class="cls-1" d="M142.73145,29.65723,140.68066,22.752h1.69678l1.23926,4.707,1.23975-4.707h1.54931l-2.05127,6.90528v3.42334h-1.623Z"/><path class="cls-1" d="M147.26172,22.752h5.0166v1.47559h-1.69678v8.853h-1.623v-8.853h-1.69678Z"/><path class="cls-1" d="M154.25586,22.752h1.623V33.08057h-1.623Z"/><path class="cls-1" d="M162.061,30.08545l1.10644-7.3335h2.25781V33.08057h-1.53467V25.67334L162.769,33.08057h-1.53466l-1.20948-7.30372v7.30372h-1.4165V22.752h2.25732Z"/><path class="cls-1" d="M169.793,27.10449h2.228v1.47559h-2.228V31.605h2.80322v1.47559h-4.42627V22.752h4.42627v1.47559H169.793Z"/><path class="cls-1" d="M183.72266,29.22949v1.37207c0,1.65283-.82666,2.59717-2.41993,2.59717-1.59375,0-2.41992-.94434-2.41992-2.59717V25.231c0-1.65284.82617-2.59717,2.41992-2.59717,1.59327,0,2.41993.94433,2.41993,2.59717v1.00341H182.188V25.12744c0-.73779-.32471-1.01807-.84131-1.01807-.51611,0-.84082.28028-.84082,1.01807v5.57764c0,.73779.32471,1.00342.84082,1.00342.5166,0,.84131-.26563.84131-1.00342V29.22949Z"/><path class="cls-1" d="M191.12939,25.12744v.36914a2.02817,2.02817,0,0,1-1.04785,2.08008,2.0887,2.0887,0,0,1,1.21,2.21338v.84131a2.19539,2.19539,0,0,1-2.46386,2.44922H186.2749V22.752h2.44922C190.40625,22.752,191.12939,23.53369,191.12939,25.12744Zm-3.23144-.8999V26.957h.63428c.605,0,.97412-.26562.97412-1.0918V25.29c0-.73779-.251-1.0625-.82666-1.0625Zm0,4.20508V31.605h.92969c.5459,0,.84082-.251.84082-1.01807V29.687c0-.95947-.31006-1.25439-1.04737-1.25439Z"/><path class="cls-1" d="M193.82959,22.752H196.397c1.623,0,2.41992.8999,2.41992,2.55274v5.22314c0,1.65283-.79687,2.55274-2.41992,2.55274h-2.56738Zm1.62305,1.47559V31.605h.91455c.5166,0,.82666-.26563.82666-1.00342V25.231c0-.7378-.31006-1.00342-.82666-1.00342Z"/></svg>