<svg id="Layer_1" data-name="Layer 1" xmlns="http://www.w3.org/2000/svg" width="728" height="90" viewBox="0 0 728 90"><defs><style>.cls-1{fill:#ab9555;}</style></defs><title>frame3_1</title><path class="cls-1" d="M304.55224,59.291h-2.67871V41.53021h2.67871Z"/><path class="cls-1" d="M311.55127,41.51654l3.55566,11.94531V41.51654h2.67871V59.291h-2.877l-3.68555-11.38183V59.291h-2.67871V41.51654Z"/><path class="cls-1" d="M324.45654,59.291h-2.67871V41.51654h7.625V44.2099h-4.94629v4.84765h3.61426v2.69239h-3.61426Z"/><path class="cls-1" d="M337.08056,41.30365a4.24611,4.24611,0,0,1,4.252,4.252v9.69531a4.24514,4.24514,0,1,1-8.49024,0V45.5556a4.2461,4.2461,0,0,1,4.23828-4.252Zm1.459,4.19531a1.52376,1.52376,0,0,0-1.53028-1.53027,1.501,1.501,0,0,0-1.09179.44628,1.46686,1.46686,0,0,0-.45313,1.084v9.72363a1.46745,1.46745,0,0,0,.45313,1.085,1.501,1.501,0,0,0,1.09179.44629,1.52378,1.52378,0,0,0,1.53028-1.53125Z"/><path class="cls-1" d="M349.52,41.53021a4.08315,4.08315,0,0,1,3.28808,1.2334,4.48189,4.48189,0,0,1,.92188,3.00488v2.58008a4.1527,4.1527,0,0,1-1.43164,3.18945l1.98437,7.75293h-2.89746l-1.624-6.69043h-1.78614V59.291h-2.67871V41.53021Zm1.60156,4.28125a1.35884,1.35884,0,0,0-1.53028-1.54492h-1.61621v5.68359h1.61621a1.46688,1.46688,0,0,0,1.084-.45312,1.501,1.501,0,0,0,.44629-1.0918Z"/><path class="cls-1" d="M360.854,59.291h-2.67871V41.51654H362.019l2.49707,12.76855,2.39746-12.76855h3.69336V59.291h-2.67969V48.122L365.60205,59.291h-2.1543L360.854,48.15033Z"/><path class="cls-1" d="M377.88232,55.20892l-.65039,4.082h-2.79l3.01953-17.76074H381.147L384.12353,59.291h-2.81738l-.627-4.082Zm1.40723-9.61035-.99219,7.002h1.98437Z"/><path class="cls-1" d="M388.314,44.22357h-2.84961V41.53021h8.36328v2.69336h-2.835V59.291H388.314Z"/><path class="cls-1" d="M400.25732,59.291h-2.67969V41.53021h2.67969Z"/><path class="cls-1" d="M408.45849,41.30365a4.2461,4.2461,0,0,1,4.25293,4.252v9.69531a4.24562,4.24562,0,1,1-8.49121,0V45.5556a4.24777,4.24777,0,0,1,4.23828-4.252Zm1.46,4.19531a1.52376,1.52376,0,0,0-1.53027-1.53027,1.49942,1.49942,0,0,0-1.0918.44628,1.46319,1.46319,0,0,0-.45312,1.084v9.72363a1.46378,1.46378,0,0,0,.45312,1.085,1.49943,1.49943,0,0,0,1.0918.44629,1.52378,1.52378,0,0,0,1.53027-1.53125Z"/><path class="cls-1" d="M419.66748,41.51654l3.55566,11.94531V41.51654h2.67871V59.291h-2.87793l-3.68457-11.38183V59.291h-2.67969V41.51654Z"/><path class="cls-1" d="M429.34033,56.62591H432.02V59.3056h-2.67969Z"/></svg>