<svg id="Content" xmlns="http://www.w3.org/2000/svg" xmlns:xlink="http://www.w3.org/1999/xlink" viewBox="0 0 640 1136"><defs><style>.cls-1{fill:url(#New_Gradient_Swatch_1);}.cls-2{fill:#fff;}.cls-3{fill:#ba9544;}</style><linearGradient id="New_Gradient_Swatch_1" x1="415.92" y1="520.44" x2="503.03" y2="520.44" gradientUnits="userSpaceOnUse"><stop offset="0" stop-color="#a88a34"/><stop offset="0.49" stop-color="#caaf67"/><stop offset="1" stop-color="#957f2e"/></linearGradient></defs><title>earthy</title><polygon class="cls-1" points="494.33 490.27 450.78 475.17 415.93 505.34 424.63 550.61 468.18 565.71 503.03 535.54 494.33 490.27"/><path class="cls-2" d="M470.42,531c-.57-1-2.4-3.9-5.09-4.71a5,5,0,0,0-3.82.37,10.87,10.87,0,0,0-2-.51c.27-2.28,2-5.31,4.23-8.35h1.55c4.74,0,8.94-.62,9.16-9.19a13.09,13.09,0,0,1,1.78-4l.65-1.07h-1.25a13.57,13.57,0,0,0-13.55,13.56v.63c-.51.74-1,1.47-1.44,2.2a17.39,17.39,0,0,0-17.33-16.39h-1.26l.66,1.07c.89,1.46,2.31,4.19,2.34,5.31.28,10.92,5.64,11.71,11.69,11.71h2.94a13.35,13.35,0,0,0-1.57,4.42,6.33,6.33,0,0,0-6,3.34c-1.27-.42-4.18-1.11-6.48.35-1.88,1.18-2.88,3.48-3,6.83l0,.72h33.55l.13-.53a4.23,4.23,0,0,0-.71-3.22c-.95-1.35-2.68-2.2-5.14-2.52"/><path class="cls-3" d="M410.43,613V596.41h12.23v3.11h-8.9v3.54h6.67v3.1h-6.67v3.78h8.87V613Z"/><path class="cls-3" d="M425.13,613l6.65-16.64h3.33L441.76,613h-3.54l-1-2.55h-7.54l-1,2.55Zm8.41-12.2L431,607.16h5Z"/><path class="cls-3" d="M454.26,605.78,458.4,613h-3.81l-4-6.88h-3V613h-3.33V596.4h7.25q5.83,0,5.83,4.79Q457.32,604.79,454.26,605.78Zm-6.69-2.73h4.66c1.34,0,2-.63,2.06-1.83s-.71-1.66-2-1.7h-4.69Z"/><path class="cls-3" d="M473.71,596.4v3.11h-5.55V613h-3.32V599.51h-5.55V596.4Z"/><path class="cls-3" d="M476.18,613V596.4h3.33v6.65h7.75v-6.66h3.33V613h-3.33v-6.88h-7.75V613Z"/><path class="cls-3" d="M493.21,596.4h3.9l3.86,5.43,3.95-5.43h3.82l-6.1,8.32V613h-3.33v-8.32Z"/></svg>