<svg id="Content" xmlns="http://www.w3.org/2000/svg" viewBox="0 0 640 1136"><defs><style>.cls-1{fill:#ba9544;}</style></defs><title>Frame2 - MK Ultra</title><path class="cls-1" d="M212.78,385.9l5.16-34.2h10.53v48.17h-7.16V365.32l-5.23,34.55h-7.16l-5.64-34.06v34.06h-6.61V351.7H207.2Z"/><path class="cls-1" d="M251.18,380.67l-2.34,4.4v14.8h-7.57V351.7h7.57v21l9.91-21h7.57l-10.53,21.47,10.53,26.7h-7.78Z"/><path class="cls-1" d="M302.24,351.7v37.16c0,3.44,1.51,4.68,3.92,4.68s3.92-1.24,3.92-4.68V351.7h7.16v36.68c0,7.71-3.85,12.11-11.29,12.11s-11.28-4.4-11.28-12.11V351.7Z"/><path class="cls-1" d="M329.7,351.7h7.57V393h12.45v6.88h-20Z"/><path class="cls-1" d="M358.12,351.7h23.39v6.88H373.6v41.29H366V358.58h-7.91Z"/><path class="cls-1" d="M407.94,399.87c-.41-1.24-.69-2-.69-5.92v-7.57c0-4.47-1.51-6.12-4.95-6.12h-2.62v19.61h-7.57V351.7h11.43c7.84,0,11.21,3.65,11.21,11.08v3.78c0,5-1.58,8.19-4.95,9.78,3.78,1.58,5,5.22,5,10.25V394a14.14,14.14,0,0,0,.83,5.85Zm-8.26-41.29v14.8h3c2.82,0,4.54-1.24,4.54-5.1v-4.75c0-3.44-1.17-4.95-3.85-4.95Z"/><path class="cls-1" d="M451.57,399.87h-7.64l-1.31-8.74h-9.29l-1.3,8.74h-7l7.71-48.17h11.08ZM434.3,384.59h7.29l-3.65-24.36Z"/></svg>