<svg id="Layer_1" data-name="Layer 1" xmlns="http://www.w3.org/2000/svg" xmlns:xlink="http://www.w3.org/1999/xlink" width="195.599" height="34.1293" viewBox="0 0 195.599 34.1293"><defs><style>.cls-1{fill:#ac9655;}.cls-2{fill:url(#New_Gradient_Swatch_1);}.cls-3{fill:url(#New_Gradient_Swatch_1-2);}</style><linearGradient id="New_Gradient_Swatch_1" x1="158.5238" y1="17.0646" x2="193.3172" y2="17.0646" gradientUnits="userSpaceOnUse"><stop offset="0" stop-color="#ac8e34"/><stop offset="0.1878" stop-color="#ceb367"/><stop offset="0.461" stop-color="#a48e4a"/><stop offset="0.7634" stop-color="#ceb367"/><stop offset="1" stop-color="#997f2e"/></linearGradient><linearGradient id="New_Gradient_Swatch_1-2" x1="197.6209" y1="25.8019" x2="191.7242" y2="30.193" xlink:href="#New_Gradient_Swatch_1"/></defs><title>frame3</title><path class="cls-1" d="M2.124,19.2272a2.0483,2.0483,0,0,1-1.5058-.6181A2.04,2.04,0,0,1,0,17.111V10.2282H1.314v6.8682a.7308.7308,0,0,0,.2275.5429.7494.7494,0,0,0,.5469.2237.7638.7638,0,0,0,.7671-.7666V10.2282H4.2544V17.111a2.0226,2.0226,0,0,1-.625,1.5049A2.0764,2.0764,0,0,1,2.124,19.2272Z"/><path class="cls-1" d="M8.7539,10.2214l1.7813,5.9853V10.2214h1.3422v8.9062H10.4355L8.5894,13.4245v5.7031H7.2466V10.2214Z"/><path class="cls-1" d="M16.9873,19.2409a2.1215,2.1215,0,0,1-2.1309-2.123V12.26a2.1272,2.1272,0,1,1,4.2544,0v1.0156h-1.392v-1.044a.7762.7762,0,0,0-.774-.7744.7347.7347,0,0,0-.5434.2276.7518.7518,0,0,0-.2237.5468v4.8721a.7636.7636,0,0,0,.7671.7676.7553.7553,0,0,0,.5469-.2236.7365.7365,0,0,0,.2271-.544V15.8747h1.392v1.2432a2.1206,2.1206,0,0,1-2.1235,2.123Z"/><path class="cls-1" d="M24.1138,10.1149a2.1279,2.1279,0,0,1,2.13,2.1309v4.8574a2.1272,2.1272,0,1,1-4.2544,0V12.2458a2.1272,2.1272,0,0,1,2.1241-2.1309Zm.7314,2.1026a.7635.7635,0,0,0-.7671-.7676.7537.7537,0,0,0-.5469.2236.7336.7336,0,0,0-.2275.544V17.09a.733.733,0,0,0,.2275.543.75.75,0,0,0,.5469.2236.7634.7634,0,0,0,.7671-.7666Z"/><path class="cls-1" d="M30.5586,19.1276l-1.5908-8.8994h1.4067l1.1172,6.9375,1.125-6.9375h1.4077l-1.62,8.8994Z"/><path class="cls-1" d="M36.9458,19.1276V10.2214h3.8213v1.35H38.2886V14H40.1v1.35h-1.811V17.778h2.4785v1.35Z"/><path class="cls-1" d="M45.6064,10.2282a2.046,2.046,0,0,1,1.6475.6182,2.2464,2.2464,0,0,1,.4619,1.5058v1.292a2.08,2.08,0,0,1-.7178,1.5987l.9942,3.8847H46.541l-.8144-3.3525h-.8941v3.3525H43.49V10.2282Zm.8028,2.1455a.6814.6814,0,0,0-.7676-.7744h-.8091V14.447h.8091a.7323.7323,0,0,0,.543-.2266.7531.7531,0,0,0,.2246-.5469Z"/><path class="cls-1" d="M57.5059,19.1276H56.1631V10.2214h1.9258L59.34,16.6188l1.2012-6.3974h1.8506v8.9062H61.05V13.5309l-1.165,5.5967H58.8057l-1.3-5.582Z"/><path class="cls-1" d="M67.4941,10.1149a2.1289,2.1289,0,0,1,2.1309,2.1309v4.8574a2.1275,2.1275,0,1,1-4.2549,0V12.2458a2.1272,2.1272,0,0,1,2.124-2.1309Zm.7315,2.1026a.7634.7634,0,0,0-.7666-.7676.7529.7529,0,0,0-.5469.2236.7317.7317,0,0,0-.2275.544V17.09a.7311.7311,0,0,0,.2275.543.7489.7489,0,0,0,.5469.2236.7634.7634,0,0,0,.7666-.7666Z"/><path class="cls-1" d="M74.7266,10.2282a2.0482,2.0482,0,0,1,1.6484.6182,2.2462,2.2462,0,0,1,.4609,1.5058v1.292a2.0822,2.0822,0,0,1-.7168,1.5987l.9942,3.8847H75.6611l-.8134-3.3525h-.8946v3.3525H72.61V10.2282Zm.8027,2.1455a.6811.6811,0,0,0-.7666-.7744h-.81V14.447h.81a.7338.7338,0,0,0,.543-.2266.7522.7522,0,0,0,.2236-.5469Z"/><path class="cls-1" d="M80.0635,19.1276V10.2214h3.8213v1.35H81.4062V14h1.8106v1.35H81.4062V17.778h2.4786v1.35Z"/><path class="cls-1" d="M86.6084,17.7927H87.95v1.3418H86.6084Z"/><path class="cls-2" d="M158.5238,29.2053h.3283l3.0857,3.0856V29.2053h.9849v4.924h-.3609l-3.0532-3.0529v3.0529h-.9848Zm8.1148,0,1.9664,4.9206-1.0471.0034-.2956-.7551H165.03l-.2955.7551h-1.05l1.97-4.924Zm.2626,3.1842-.7287-1.8713-.7483,1.8713Zm2.7675-3.1842h-.3282v4.924h.9848V31.2734l1.4772,1.6413,1.4771-1.6413.0034,2.8559h.9847v-4.924H173.94l-2.137,2.429Zm8.2757,0,1.9662,4.9206-1.0472.0034-.2954-.7551h-2.2322l-.2955.7551h-1.05l1.97-4.924Zm.2626,3.1842-.7287-1.8713L176.73,32.39Zm3.9065.8206a1.56,1.56,0,0,1-1.1161-.46l-.6567.6567a2.4836,2.4836,0,0,0,.7879.5251,2.9149,2.9149,0,0,0,1.1457.1969,1.9883,1.9883,0,0,0,1.2654-.4267,1.262,1.262,0,0,0,.5434-1.0176,1.2324,1.2324,0,0,0-.5089-1.1,2.4426,2.4426,0,0,0-1.1325-.41,1.2977,1.2977,0,0,1-.755-.2955.3842.3842,0,0,1,0-.476q.1643-.279.755-.2789a1.131,1.131,0,0,1,.9193.3938l.6564-.6566a2.2976,2.2976,0,0,0-.7058-.4924,2.7476,2.7476,0,0,0-1.0636-.1641,1.9713,1.9713,0,0,0-1.15.3956,1.2251,1.2251,0,0,0-.56,1.0488,1.09,1.09,0,0,0,.4923,1.0177,2.6468,2.6468,0,0,0,1.0834.361q.6564.0657.819.3447a.52.52,0,0,1,0,.5582Q182.77,33.21,182.1135,33.21Zm5.226.9191V30.1244h1.6414v-.9192h-4.2676v.9192h1.6413v4.0048Zm5.9777-4.0048v-.9191l-3.6174.0032v4.9207h3.611V33.21h-2.6262V32.0907h1.9729v-.9158h-1.9729v-1.05Zm-4.8428-8.9278-2.702.0062.301-.0985a3.3761,3.3761,0,0,0-.6376.1967l-3.1521,1.3137,1.9075-1.4212-.0145.0024-.0436-.3277-.3466-.5718a11.42,11.42,0,0,0,2.5973-2.6813l-2.5485,1.22,2.5967-2.1627a4.279,4.279,0,0,0,.8245-.8939c.3349-.5062.6458-1.0247.9293-1.55l-.8048.7948.9648-2.0987a27.7343,27.7343,0,0,0,1.4275-3.9468,33.584,33.584,0,0,0-3.8254,2.4646l-1.8889,1.4315.6025-.9389c-.4887.4156-.9612.8542-1.4121,1.311a4.1388,4.1388,0,0,0-.6953.9743l-1.38,2.6425.49-2.4119a11.4109,11.4109,0,0,0-1.093,1.3073l-.24.3355-.22-.1513a.6521.6521,0,0,0-.0342.0573l-1.8951,3.5938,1.1177-3.906a12.4012,12.4012,0,0,0,.3707-4.9018l-1.3051,2.4254.6321-2.9177a4.7521,4.7521,0,0,0,.0988-1.456,23.5209,23.5209,0,0,0-.5015-2.9455l-.172,1.4322-.5666-2.088A35.5252,35.5252,0,0,0,175.9205,0a35.4969,35.4969,0,0,0-1.9347,5.2366l-.5665,2.088-.1721-1.4322a23.5392,23.5392,0,0,0-.5015,2.9455,4.7539,4.7539,0,0,0,.0988,1.4561l.6313,2.9186-1.3043-2.426a12.399,12.399,0,0,0,.3707,4.9014l1.1178,3.9062L171.7648,16a.6283.6283,0,0,0-.0342-.0573l-.22.1513-.24-.3355a11.4111,11.4111,0,0,0-1.093-1.3073l.49,2.4119-1.38-2.6425a4.1409,4.1409,0,0,0-.6952-.9743c-.45-.4559-.9219-.8939-1.41-1.309l.6038.94-1.8924-1.4342a33.5654,33.5654,0,0,0-3.8254-2.4646,27.72,27.72,0,0,0,1.4275,3.9468l.9648,2.0987-.8048-.7948c.2835.5249.5946,1.0434.9294,1.55a4.273,4.273,0,0,0,.8244.8939l2.5967,2.1627-2.5485-1.22a11.418,11.418,0,0,0,2.5973,2.6813l-.3466.5718-.0436.3277-.0147-.0024,1.9078,1.4213-3.1522-1.3138a3.4079,3.4079,0,0,0-.6374-.1967l.3009.0985-2.7021-.0062a23.2343,23.2343,0,0,0-2.5751.156,21.2594,21.2594,0,0,0,2.2016,1.21l2.3773,1.1152-.2734-.0331a3.5171,3.5171,0,0,0,.6028.077l3.602.16-2.4577.4681a8.83,8.83,0,0,0,1.7752.1952l2.6074.017-1.5248.4949,2.3425.4071-3.6072.2167q-.0861.005-.1688.0156l-1.6551.8093c-.4244.2076-.8206.4329-1.1865.6586.4541.0352.9429.0568,1.438.0478l1.886-.0336c.0513-.0183.1029-.0387.1543-.0609l3.12-1.3584-1.5742,1.2138a5.5007,5.5007,0,0,0,.6178-.2643s.2456.1416.2925.181a1.1519,1.1519,0,0,0,.1324-.0288,5.5709,5.5709,0,0,0,1.3672-.7982,5.7442,5.7442,0,0,1,1.5331-.8749,3.8306,3.8306,0,0,1,.5367-.1,1.4613,1.4613,0,0,1-.7069-.4409c-.3413-.3411-.4718-.8016-.1429-.8988s.9252.46.964.46a.7113.7113,0,0,0,.1989-.4591c0-.1969-.1406-.58-.1669-.8115a3.8533,3.8533,0,0,0-.14-.6714c-.0513-.1525-.4078-.219-.5992-.3371a3.1287,3.1287,0,0,1-.4827-.3342,1.5259,1.5259,0,0,1-.2053-.7,2.7488,2.7488,0,0,0-.1152-.713c-.0666-.1248-.2378-.213-.3536-.3288a.4977.4977,0,0,1-.1194-.3065c.0889-.0277.1166.2011.2192.2206s.0958.104.2566.1594.1665.1319.1873.2817.2011.656.2607.8627.1221.3622.3261.3691.1761.1122.416.0929a1.344,1.344,0,0,1,.5758.1109c.1289.0458.2913.05.3468-.04s-.0389-.4537-.0389-.4537c-.0832,0-.0972-.1123-.129-.2163s.0194-.1124.0194-.1124a.44.44,0,1,1,.8379,0s.0513.0083.0194.1124-.0458.2163-.1291.2163c0,0-.0942.3635-.0388.4537s.2178.0859.3468.04a1.3433,1.3433,0,0,1,.5756-.1109c.24.0193.2123-.086.4162-.0929s.2663-.1624.3259-.3691.24-.7129.2609-.8627.0263-.2262.1873-.2817.1539-.14.2566-.1594.13-.2483.2191-.2206a.4987.4987,0,0,1-.1193.3065c-.1158.1158-.287.204-.3537.3288a2.7539,2.7539,0,0,0-.1151.713,1.5271,1.5271,0,0,1-.2053.7,3.1253,3.1253,0,0,1-.4828.3342c-.1914.1181-.5478.1846-.5992.3371a3.8448,3.8448,0,0,0-.14.6714c-.0263.2317-.1669.6146-.1669.8115a.7113.7113,0,0,0,.1989.4591c.0388,0,.6353-.5575.964-.46s.1984.5577-.1429.8988a1.4613,1.4613,0,0,1-.7069.4409,3.8334,3.8334,0,0,1,.5367.1,5.7457,5.7457,0,0,1,1.5331.8749,5.5706,5.5706,0,0,0,1.3671.7982,1.1691,1.1691,0,0,0,.1322.0289c.0469-.0392.2928-.1811.2928-.1811a5.5007,5.5007,0,0,0,.6178.2643l-1.5742-1.2138,3.12,1.3584c.0513.0222.1029.0426.1542.0609l1.886.0336c.4951.0091.984-.0126,1.438-.0478-.3659-.2257-.7621-.451-1.1868-.6586l-1.6548-.8093q-.0826-.0105-.1686-.0156l-3.6072-.2167,2.3439-.4074-1.52-.4946,2.6005-.017a8.8283,8.8283,0,0,0,1.7752-.1952l-2.4578-.4681,3.6021-.16a3.53,3.53,0,0,0,.6029-.0769l-.2735.0331,2.3773-1.1153a21.2594,21.2594,0,0,0,2.2016-1.21A23.2328,23.2328,0,0,0,188.4744,21.1966Z"/><path class="cls-3" d="M194.0246,27.7166V28.61h-.1776v-.8938h-.3325v-.16h.8441v.16Zm1.41.8938-.0015-.787-.3325.6771h-.1159l-.3325-.6771v.787h-.167V27.5571h.2106l.3476.7.3461-.7h.2092V28.61Z"/></svg>