<svg id="Layer_1" data-name="Layer 1" xmlns="http://www.w3.org/2000/svg" xmlns:xlink="http://www.w3.org/1999/xlink" width="37.0751" height="34.1293" viewBox="0 0 37.0751 34.1293"><defs><style>.cls-1{fill:url(#New_Gradient_Swatch_1);}.cls-2{fill:url(#New_Gradient_Swatch_1-2);}</style><linearGradient id="New_Gradient_Swatch_1" y1="17.0646" x2="34.7934" y2="17.0646" gradientUnits="userSpaceOnUse"><stop offset="0" stop-color="#ac8e34"/><stop offset="0.1878" stop-color="#ceb367"/><stop offset="0.461" stop-color="#a48e4a"/><stop offset="0.7634" stop-color="#ceb367"/><stop offset="1" stop-color="#997f2e"/></linearGradient><linearGradient id="New_Gradient_Swatch_1-2" x1="39.0971" y1="25.8019" x2="33.2004" y2="30.193" xlink:href="#New_Gradient_Swatch_1"/></defs><title>logo</title><path class="cls-1" d="M0,29.2053H.3283L3.414,32.2909V29.2053h.9849v4.924h-.361L.9848,31.0764v3.0529H0Zm8.1148,0,1.9664,4.9206-1.0471.0034-.2956-.7551H6.5063l-.2955.7551H5.16l1.97-4.924ZM8.3774,32.39l-.7287-1.8713L6.9,32.39Zm2.7674-3.1842h-.3282v4.924h.9849V31.2734l1.4772,1.6413,1.477-1.6413.0034,2.8559h.9848v-4.924h-.3282l-2.137,2.429Zm8.2758,0,1.9662,4.9206-1.0472.0034-.2955-.7551H17.8119l-.2955.7551h-1.05l1.97-4.924Zm.2626,3.1842-.7287-1.8713L18.206,32.39ZM23.59,33.21a1.56,1.56,0,0,1-1.1162-.46l-.6566.6567a2.4836,2.4836,0,0,0,.7879.5251,2.9149,2.9149,0,0,0,1.1457.1969,1.9883,1.9883,0,0,0,1.2654-.4267,1.2623,1.2623,0,0,0,.5434-1.0176,1.2326,1.2326,0,0,0-.5089-1.1,2.443,2.443,0,0,0-1.1325-.41,1.2984,1.2984,0,0,1-.7551-.2955.3842.3842,0,0,1,0-.476q.1644-.279.7551-.2789a1.1306,1.1306,0,0,1,.9192.3938l.6564-.6566a2.2973,2.2973,0,0,0-.7057-.4924,2.7482,2.7482,0,0,0-1.0637-.1641,1.971,1.971,0,0,0-1.15.3956,1.2249,1.2249,0,0,0-.56,1.0488,1.09,1.09,0,0,0,.4923,1.0177,2.6463,2.6463,0,0,0,1.0834.361q.6564.0657.819.3447a.5205.5205,0,0,1,0,.5582Q24.2463,33.21,23.59,33.21Zm5.2259.9191V30.1244H30.457v-.9192H26.19v.9192h1.6412v4.0048Zm5.9778-4.0048v-.9191l-3.6175.0032v4.9207H34.787V33.21H32.1608V32.0907h1.9729v-.9158H32.1608v-1.05Zm-4.8429-8.9278-2.7019.0062.301-.0985a3.3761,3.3761,0,0,0-.6376.1967L23.76,22.6147l1.9075-1.4212-.0146.0024-.0435-.3277-.3466-.5718A11.4219,11.4219,0,0,0,27.86,17.6151l-2.5485,1.22,2.5966-2.1627a4.277,4.277,0,0,0,.8246-.8939c.3348-.5062.6457-1.0247.9293-1.55l-.8049.7948.9648-2.0987a27.722,27.722,0,0,0,1.4275-3.9468,33.592,33.592,0,0,0-3.8253,2.4646l-1.8889,1.4315.6024-.9389c-.4887.4156-.9611.8542-1.412,1.311a4.14,4.14,0,0,0-.6954.9743l-1.38,2.6425.49-2.4119a11.4109,11.4109,0,0,0-1.093,1.3073l-.2405.3355-.22-.1513A.6534.6534,0,0,0,21.5525,16L19.6574,19.594l1.1176-3.906a12.3993,12.3993,0,0,0,.3708-4.9018l-1.3051,2.4254.6321-2.9177a4.7494,4.7494,0,0,0,.0987-1.456A23.5027,23.5027,0,0,0,20.07,5.8924l-.172,1.4322-.5665-2.088A35.5365,35.5365,0,0,0,17.3967,0,35.4856,35.4856,0,0,0,15.462,5.2366l-.5665,2.088-.1721-1.4322a23.5209,23.5209,0,0,0-.5015,2.9455,4.7542,4.7542,0,0,0,.0987,1.4561l.6314,2.9186-1.3043-2.426a12.3953,12.3953,0,0,0,.3707,4.9014l1.1177,3.9062L13.2409,16a.6074.6074,0,0,0-.0341-.0573l-.22.1513-.2406-.3355a11.4009,11.4009,0,0,0-1.093-1.3073l.49,2.4119-1.38-2.6425a4.1439,4.1439,0,0,0-.6952-.9743c-.45-.4559-.9219-.8939-1.41-1.309l.6039.94L7.3693,11.4429A33.5646,33.5646,0,0,0,3.544,8.9783a27.7079,27.7079,0,0,0,1.4275,3.9468l.9648,2.0987-.8048-.7948c.2835.5249.5945,1.0434.9294,1.55a4.273,4.273,0,0,0,.8244.8939L9.482,18.8352l-2.5485-1.22a11.416,11.416,0,0,0,2.5973,2.6813l-.3467.5718-.0435.3277-.0147-.0024,1.9078,1.4213L7.8814,21.301a3.4066,3.4066,0,0,0-.6373-.1967l.3009.0985-2.7021-.0062a23.2328,23.2328,0,0,0-2.5751.156,21.2594,21.2594,0,0,0,2.2016,1.21L6.8466,23.678l-.2733-.0331a3.5158,3.5158,0,0,0,.6028.077l3.602.16L8.32,24.35a8.8309,8.8309,0,0,0,1.7753.1952l2.6073.017-1.5247.4949,2.3425.4071-3.6073.2167q-.086.005-.1687.0156L8.09,26.5058c-.4244.2076-.8207.4329-1.1865.6586.454.0352.9428.0568,1.4379.0478l1.8861-.0336c.0513-.0183.1029-.0387.1543-.0609l3.12-1.3584-1.5741,1.2138a5.4991,5.4991,0,0,0,.6177-.2643s.2457.1416.2926.181a1.1568,1.1568,0,0,0,.1324-.0288,5.5706,5.5706,0,0,0,1.3671-.7982,5.7446,5.7446,0,0,1,1.5332-.8749,3.8278,3.8278,0,0,1,.5367-.1,1.4615,1.4615,0,0,1-.707-.4409c-.3412-.3411-.4717-.8016-.1429-.8988s.9253.46.9641.46a.7114.7114,0,0,0,.1988-.4591c0-.1969-.14-.58-.1668-.8115a3.8626,3.8626,0,0,0-.14-.6714c-.0513-.1525-.4079-.219-.5992-.3371a3.1353,3.1353,0,0,1-.4828-.3342,1.5273,1.5273,0,0,1-.2052-.7,2.7532,2.7532,0,0,0-.1152-.713c-.0666-.1248-.2379-.213-.3537-.3288a.498.498,0,0,1-.1193-.3065c.0888-.0277.1166.2011.2192.2206s.0957.104.2566.1594.1665.1319.1873.2817.2011.656.2607.8627.1221.3622.3261.3691.1761.1122.416.0929a1.3431,1.3431,0,0,1,.5757.1109c.129.0458.2914.05.3468-.04s-.0389-.4537-.0389-.4537c-.0832,0-.0971-.1123-.129-.2163s.0195-.1124.0195-.1124a.44.44,0,1,1,.8378,0s.0513.0083.02.1124-.0458.2163-.1291.2163c0,0-.0942.3635-.0388.4537s.2178.0859.3468.04a1.3433,1.3433,0,0,1,.5756-.1109c.24.0193.2123-.086.4162-.0929s.2663-.1624.3259-.3691.24-.7129.2608-.8627.0264-.2262.1874-.2817.1539-.14.2565-.1594.13-.2483.2192-.2206a.4987.4987,0,0,1-.1193.3065c-.1158.1158-.2871.204-.3537.3288a2.7575,2.7575,0,0,0-.1152.713,1.5273,1.5273,0,0,1-.2052.7,3.1253,3.1253,0,0,1-.4828.3342c-.1914.1181-.5479.1846-.5992.3371a3.8448,3.8448,0,0,0-.14.6714c-.0264.2317-.1669.6146-.1669.8115a.7113.7113,0,0,0,.1989.4591c.0387,0,.6353-.5575.964-.46s.1984.5577-.1429.8988a1.4615,1.4615,0,0,1-.707.4409,3.8322,3.8322,0,0,1,.5368.1,5.7457,5.7457,0,0,1,1.5331.8749,5.5721,5.5721,0,0,0,1.367.7982,1.1765,1.1765,0,0,0,.1323.0289c.0469-.0392.2928-.1811.2928-.1811a5.5007,5.5007,0,0,0,.6178.2643l-1.5742-1.2138,3.12,1.3584q.0771.0333.1542.0609l1.8861.0336c.4951.0091.984-.0126,1.4379-.0478-.3658-.2257-.762-.451-1.1867-.6586l-1.6549-.8093c-.055-.007-.1114-.0123-.1686-.0156l-3.6071-.2167,2.3438-.4074-1.5194-.4946,2.6-.017a8.83,8.83,0,0,0,1.7753-.1952l-2.4578-.4681,3.602-.16a3.531,3.531,0,0,0,.603-.0769l-.2735.0331,2.3772-1.1153a21.2594,21.2594,0,0,0,2.2016-1.21A23.23,23.23,0,0,0,29.9505,21.1966Z"/><path class="cls-2" d="M35.5007,27.7166V28.61h-.1775v-.8938h-.3325v-.16h.844v.16Zm1.41.8938-.0015-.787-.3325.6771h-.1159l-.3326-.6771v.787h-.167V27.5571h.2107l.3476.7.3461-.7h.2091V28.61Z"/></svg>