<svg id="Content" xmlns="http://www.w3.org/2000/svg" xmlns:xlink="http://www.w3.org/1999/xlink" viewBox="0 0 728 360"><defs><style>.cls-1{fill:url(#New_Gradient_Swatch_1);}.cls-2{fill:#fff;}.cls-3{fill:#ba9544;}</style><linearGradient id="New_Gradient_Swatch_1" x1="567.03" y1="184.07" x2="624.95" y2="184.07" gradientUnits="userSpaceOnUse"><stop offset="0" stop-color="#a88a34"/><stop offset="0.49" stop-color="#caaf67"/><stop offset="1" stop-color="#957f2e"/></linearGradient></defs><title>citrus</title><polygon class="cls-1" points="610.47 158.98 581.51 158.98 567.03 184.06 581.51 209.15 610.47 209.15 624.95 184.06 610.47 158.98"/><path class="cls-2" d="M607.84,187.62a12.74,12.74,0,0,1-19.31-16.55l-1.17-1A14.28,14.28,0,0,0,609,188.63Z"/><path class="cls-2" d="M587.12,180.08a11.53,11.53,0,0,0,3.59,7.18l6.84-8Z"/><path class="cls-2" d="M591.5,187.94A11.67,11.67,0,0,0,599,190.4l-.8-10.33Z"/><path class="cls-2" d="M589.38,171.8a11.56,11.56,0,0,0-2.33,7.24l9.89-.76Z"/><path class="cls-2" d="M607,186.89l-7.67-6.59.76,10a11.54,11.54,0,0,0,6.91-3.42"/><path class="cls-2" d="M597.51,177.42c0-.65.41-1.06.82-1.1s.72.32.67,1a2.25,2.25,0,0,1-.84,1.24s-.7-.47-.65-1.11"/><path class="cls-2" d="M600.19,178c.63-.18,1,0,1.09.44s-.28.85-.9,1a1.45,1.45,0,0,1-1.24-.4s.42-.88,1.05-1.07"/><path class="cls-2" d="M601.35,198.1a1.34,1.34,0,1,1-2.68.09c0-.74,1.27-2.21,1.27-2.21s1.39,1.38,1.41,2.12"/><path class="cls-2" d="M600.88,197.22a.39.39,0,0,1-.33.42l-1.11,0a.37.37,0,0,1-.35-.4,4.05,4.05,0,0,0,.12-2.14c-.43-1.27-3.41-2.27-3.23-2.28l6.14-.43a4.44,4.44,0,0,0-1.65,2.7,2.8,2.8,0,0,0,.41,2.09"/><path class="cls-3" d="M569.67,241.78a5.48,5.48,0,0,1,0-7.59,5.13,5.13,0,0,1,3.78-1.52,5.78,5.78,0,0,1,3.91,1.41L576,235.64a3.89,3.89,0,0,0-2.49-.85,3,3,0,0,0-3.19,3.16,3.25,3.25,0,0,0,.89,2.36,3.16,3.16,0,0,0,2.32.87,3.81,3.81,0,0,0,2.47-.84l1.42,1.55a5.72,5.72,0,0,1-3.91,1.42A5.2,5.2,0,0,1,569.67,241.78Z"/><path class="cls-3" d="M579.66,232.66h2.13v10.65h-2.13Z"/><path class="cls-3" d="M592.61,232.67v2h-3.55v8.66h-2.13v-8.66h-3.55v-2Z"/><path class="cls-3" d="M600.6,238.67l2.65,4.64h-2.44l-2.55-4.4h-1.94v4.4h-2.13V232.67h4.64c2.48,0,3.73,1,3.73,3.06A2.76,2.76,0,0,1,600.6,238.67Zm-4.28-1.75h3c.86,0,1.29-.4,1.32-1.17s-.46-1.06-1.3-1.09h-3Z"/><path class="cls-3" d="M606.32,232.67v6.17a2.14,2.14,0,0,0,.71,1.77,2.77,2.77,0,0,0,1.78.57,2.72,2.72,0,0,0,1.77-.57,2.14,2.14,0,0,0,.71-1.77v-6.17h2.13v6.74a3.51,3.51,0,0,1-1.31,2.76,5.35,5.35,0,0,1-6.6,0,3.48,3.48,0,0,1-1.31-2.76v-6.74Z"/><path class="cls-3" d="M621.48,233a5.08,5.08,0,0,1,1.53,1.06l-1.42,1.42a2.47,2.47,0,0,0-2-.85c-.85,0-1.39.2-1.63.61a.81.81,0,0,0,0,1,2.76,2.76,0,0,0,1.63.64,5.3,5.3,0,0,1,2.45.89,2.68,2.68,0,0,1,1.1,2.38,2.74,2.74,0,0,1-1.17,2.2,4.36,4.36,0,0,1-2.74.92,6.2,6.2,0,0,1-2.48-.43,5.32,5.32,0,0,1-1.7-1.13l1.42-1.42a3.34,3.34,0,0,0,2.41,1q1.43,0,1.77-.6a1.11,1.11,0,0,0,0-1.21c-.23-.4-.82-.65-1.77-.74a5.89,5.89,0,0,1-2.34-.78,2.36,2.36,0,0,1-1.06-2.2,2.65,2.65,0,0,1,1.21-2.27,4.22,4.22,0,0,1,2.48-.85A5.87,5.87,0,0,1,621.48,233Z"/></svg>