<svg id="Layer_1" data-name="Layer 1" xmlns="http://www.w3.org/2000/svg" width="300" height="600" viewBox="0 0 300 600"><defs><style>.cls-1{fill:#fff;}</style></defs><title>self-care</title><path class="cls-1" d="M57.766,331.03869H54.38225V308.59494H59.2303l3.15,16.09453,3.027-16.09453h4.66348v22.44375H66.68694V316.93752l-2.92442,14.10117H61.0467L57.766,316.97443Z"/><path class="cls-1" d="M79.39651,308.32424a5.36743,5.36743,0,0,1,5.37715,5.37715v12.24316a5.36642,5.36642,0,0,1-5.37715,5.37715,5.1187,5.1187,0,0,1-3.7834-1.575,5.20991,5.20991,0,0,1-1.55684-3.80215V313.70139a5.36751,5.36751,0,0,1,5.34024-5.37715Zm1.8457,5.31386a1.91086,1.91086,0,0,0-1.93184-1.93007,1.89342,1.89342,0,0,0-1.37226.55957,1.844,1.844,0,0,0-.57188,1.3705v12.2836a1.85154,1.85154,0,0,0,.57188,1.36465,1.885,1.885,0,0,0,1.37226.56543,1.92058,1.92058,0,0,0,1.93184-1.93008Z"/><path class="cls-1" d="M94.09944,308.59494a5.12489,5.12489,0,0,1,4.14609,1.5627,5.64626,5.64626,0,0,1,1.16953,3.78984v3.26074a5.22039,5.22039,0,0,1-1.80586,4.02363l2.50664,9.80684H96.46662L94.403,322.56076c-.09844.0082-.20039.0123-.307.0123H92.1553v8.46563H88.77092V308.59494Zm2.018,5.41406a1.71619,1.71619,0,0,0-1.92657-1.95644H92.1553v7.17363h2.03554a1.83669,1.83669,0,0,0,1.36758-.57188,1.89525,1.89525,0,0,0,.559-1.37226Z"/><path class="cls-1" d="M104.02873,331.03869V308.59494h9.634v3.38379h-6.25078v6.15234h4.56445v3.38379h-4.56445v6.14h6.25078v3.38379Z"/><path class="cls-1" d="M134.84787,325.46467a6.29058,6.29058,0,0,1-1.21875,4.01132,4.32684,4.32684,0,0,1-2.325,1.58731,6.21883,6.21883,0,0,1-1.882.2584,5.31828,5.31828,0,0,1-3.29765-.98438,5.61,5.61,0,0,1-1.72266-2.19668,8.62877,8.62877,0,0,1-.73828-3.19277l3.21094-.22148a4.87283,4.87283,0,0,0,1.04531,2.83007,1.7151,1.7151,0,0,0,1.391.62754,2.10878,2.10878,0,0,0,1.77188-1.08281,2.72,2.72,0,0,0,.34453-1.48887,4.1494,4.1494,0,0,0-1.2668-2.79316q-1.01073-.94746-3.01523-2.84238a12.46253,12.46253,0,0,1-2.37539-2.91622,6.75758,6.75758,0,0,1-.75-3.15,5.481,5.481,0,0,1,2.05547-4.63886,5.10839,5.10839,0,0,1,3.15-.94746,5.71372,5.71372,0,0,1,3.10078.81211,4.67549,4.67549,0,0,1,1.61133,1.75312,6.63621,6.63621,0,0,1,.75117,2.59043l-3.24844.59063a3.8079,3.8079,0,0,0-.7875-2.141,1.6435,1.6435,0,0,0-1.3418-.566,1.55708,1.55708,0,0,0-1.41445.82442,3.17514,3.17514,0,0,0-.39375,1.64883,4.95681,4.95681,0,0,0,1.32891,3.13769,11.8277,11.8277,0,0,0,1.5,1.42735q1.18125.98438,1.56328,1.37812a11.91176,11.91176,0,0,1,1.93125,2.47324,9.061,9.061,0,0,1,.518,1.05821A6.311,6.311,0,0,1,134.84787,325.46467Z"/><path class="cls-1" d="M138.66233,331.03869V308.59494h9.634v3.38379h-6.25078v6.15234H146.61v3.38379h-4.56445v6.14h6.25078v3.38379Z"/><path class="cls-1" d="M160.85764,331.03869H151.6303V308.59494h3.3832v19.08457h5.84414Z"/><path class="cls-1" d="M167.56311,331.03869h-3.3832V308.59494h9.634v3.38379h-6.25078v6.15234h4.56445v3.38379h-4.56445Z"/><path class="cls-1" d="M177.03655,319.36037h9.06328v3.08379h-9.06328Z"/><path class="cls-1" d="M194.603,331.3217a5.33458,5.33458,0,0,1-5.36484-5.35254V313.67678a5.35842,5.35842,0,1,1,10.7168,0v2.55937h-3.50743v-2.6209a1.9535,1.9535,0,0,0-1.95586-1.95644,1.84611,1.84611,0,0,0-1.36523.57246,1.89087,1.89087,0,0,0-.56719,1.384v12.317a1.93455,1.93455,0,0,0,1.93242,1.94415,1.89444,1.89444,0,0,0,1.384-.566,1.86293,1.86293,0,0,0,.57187-1.37813v-3.08847h3.50743v3.12539a5.34636,5.34636,0,0,1-5.352,5.35254Z"/><path class="cls-1" d="M207.23811,325.883l-.825,5.15566h-3.518l3.80156-22.44375h4.66406l3.75235,22.44375h-3.54375l-.79922-5.15566ZM209.01,313.7383l-1.25507,8.84707h2.51015Z"/><path class="cls-1" d="M224.303,308.59494a5.12493,5.12493,0,0,1,4.1461,1.5627,5.64631,5.64631,0,0,1,1.16953,3.78984v3.26074a5.22043,5.22043,0,0,1-1.80586,4.02363l2.50664,9.80684h-3.64922l-2.06367-8.47793c-.09844.0082-.20039.0123-.307.0123h-1.94063v8.46563h-3.3832V308.59494Zm2.018,5.41406a1.71583,1.71583,0,0,0-1.92539-1.95644h-2.03672v7.17363h2.03672a1.84039,1.84039,0,0,0,1.36758-.57188,1.8989,1.8989,0,0,0,.55781-1.37226Z"/><path class="cls-1" d="M234.23225,331.03869V308.59494h9.634v3.38379h-6.25078v6.15234h4.56446v3.38379h-4.56446v6.14h6.25078v3.38379Z"/><path class="cls-1" d="M247.20139,327.66721h3.3832V331.051h-3.3832Z"/></svg>