<?xml version="1.0" encoding="utf-8"?>
<!-- Generator: Adobe Illustrator 23.0.1, SVG Export Plug-In . SVG Version: 6.00 Build 0)  -->
<svg version="1.1" id="Content" xmlns="http://www.w3.org/2000/svg" xmlns:xlink="http://www.w3.org/1999/xlink" x="0px" y="0px"
	 viewBox="0 0 320 568" style="enable-background:new 0 0 320 568;" xml:space="preserve">
<style type="text/css">
	.st0{fill:#FFFFFF;stroke:#BA9544;stroke-width:0.425;stroke-miterlimit:10;}
	.st1{fill:#BA9544;}
</style>
<title>THC - Daytime CBD</title>
<polygon class="st0" points="239.5,343.3 81.3,342.7 73.3,354.3 81.3,365.6 239.5,365.3 246.7,354.3 "/>
<polygon class="st1" points="81.4,342.7 73.5,354.3 81.4,365.6 91.4,365.6 91.4,342.7 "/>
<path class="st1" d="M171.9,350.1v1.4h-2.6v6.3h-1.5v-6.3h-2.6v-1.4H171.9z"/>
<path class="st1" d="M173,357.8v-7.7h1.5v3.1h3.6v-3.1h1.5v7.7l-1.5,0v-3.2h-3.6v3.2H173z"/>
<path class="st1" d="M182.1,356.7c-1.5-1.5-1.5-4,0-5.5c0.7-0.7,1.7-1.2,2.8-1.2c1,0,2.1,0.3,2.8,1l-1,1.1c-0.5-0.4-1.2-0.6-1.8-0.6
	c-1.2-0.1-2.3,0.9-2.3,2.1c0,0.1,0,0.1,0,0.2c0,0.6,0.2,1.3,0.6,1.7c0.5,0.4,1.1,0.7,1.7,0.6c0.7,0,1.3-0.2,1.8-0.6l1,1.1
	c-0.8,0.7-1.8,1.1-2.8,1C183.8,357.8,182.9,357.4,182.1,356.7z"/>
<path class="st1" d="M189.5,352.9c0.1-0.1,0.4-0.2,0.6-0.2c0.2,0,0.4,0.1,0.6,0.2c0.1,0.1,0.2,0.3,0.2,0.5c0,0.2-0.1,0.4-0.2,0.5
	c-0.3,0.3-0.8,0.3-1.1,0c-0.1-0.1-0.2-0.3-0.2-0.5C189.2,353.2,189.3,353,189.5,352.9z M189.5,356.6c0.1-0.1,0.4-0.2,0.6-0.2
	c0.2,0,0.4,0.1,0.6,0.2c0.3,0.3,0.3,0.7,0,1c-0.3,0.3-0.8,0.3-1.1,0C189.2,357.3,189.2,356.9,189.5,356.6z"/>
<path class="st1" d="M200.7,353.9c0.1,0,0.2,0.1,0.3,0.1c0.6,0.3,0.9,0.9,0.8,1.5c0,0.6-0.3,1.2-0.9,1.6c-0.6,0.4-1.3,0.7-2,0.7
	c-0.6,0-1.2-0.1-1.8-0.3c-0.5-0.2-0.9-0.5-1.2-0.8l1-1c0.5,0.5,1.1,0.7,1.8,0.7c0.7,0,1.1-0.1,1.3-0.4c0.2-0.3,0.2-0.6,0-0.9
	c-0.2-0.3-0.8-0.5-1.8-0.5v-1.4c1,0.1,1.6,0,1.8-0.3c0.2-0.3,0.2-0.6,0-0.9c-0.2-0.3-0.6-0.4-1.3-0.4c-0.6,0-1.1,0.2-1.5,0.6l-1-1
	c0.3-0.3,0.7-0.6,1.1-0.8c0.5-0.2,1.1-0.3,1.7-0.3c0.7,0,1.4,0.2,1.9,0.7c0.5,0.4,0.8,1,0.8,1.6c0.1,0.6-0.2,1.2-0.7,1.5
	C200.8,353.8,200.8,353.9,200.7,353.9z"/>
<path class="st1" d="M203,355.7v-1h3.2v1H203z"/>
<path class="st1" d="M208.6,357.8l0-0.5l2.4-5.8h-3.3l0-1.4h5.3v0.6l-2.9,7.2H208.6z"/>
<path class="st1" d="M214.6,353.3c-0.8-0.8-0.8-2-0.1-2.8s2-0.8,2.8-0.1c0.8,0.8,0.8,2,0.1,2.8c-0.4,0.4-0.9,0.6-1.4,0.6
	C215.5,353.9,215,353.7,214.6,353.3z M216,353c0.3,0,0.5-0.1,0.7-0.3c0.4-0.4,0.4-1,0-1.5c-0.2-0.2-0.4-0.3-0.7-0.3
	c-0.3,0-0.5,0.1-0.7,0.3c-0.4,0.4-0.4,1,0,1.5C215.5,352.9,215.7,353,216,353L216,353z M215.6,357.8l4.4-7.7h1.3l-4.4,7.7H215.6z
	 M219.4,357.3c-0.8-0.8-0.8-2-0.1-2.8c0.8-0.8,2-0.8,2.8-0.1c0.8,0.8,0.8,2,0.1,2.8c-0.4,0.4-0.9,0.6-1.4,0.6
	C220.3,357.9,219.8,357.7,219.4,357.3L219.4,357.3z M220.8,356.9c0.3,0,0.5-0.1,0.7-0.3c0.4-0.4,0.4-1,0-1.4
	c-0.2-0.2-0.4-0.3-0.7-0.3c-0.3,0-0.5,0.1-0.7,0.3c-0.4,0.4-0.4,1,0,1.4C220.3,356.8,220.5,356.9,220.8,356.9L220.8,356.9z"/>
</svg>
