<svg id="Layer_1" data-name="Layer 1" xmlns="http://www.w3.org/2000/svg" width="300" height="250" viewBox="0 0 300 250"><defs><style>.cls-1{fill:#ab9555;}</style></defs><title>frame1</title><path class="cls-1" d="M84.07829,161.14405a7.13024,7.13024,0,0,1-7.16146-7.14593V130.6656h4.43879v23.284a2.48571,2.48571,0,0,0,.76681,1.83065,2.52288,2.52288,0,0,0,1.84036.75905,2.57674,2.57674,0,0,0,2.59066-2.5897v-23.284h4.73581v23.33252a6.822,6.822,0,0,1-2.11213,5.08233A7.03708,7.03708,0,0,1,84.07829,161.14405Z"/><path class="cls-1" d="M106.49743,130.6656l6.00639,20.21284V130.6656h4.53779v30.098h-4.861l-6.2442-19.27326v19.27326H101.3986v-30.098Z"/><path class="cls-1" d="M134.32891,130.6656a6.88839,6.88839,0,0,1,5.28035,2.09661,7.22338,7.22338,0,0,1,1.83161,5.08233v4.37181a6.98805,6.98805,0,0,1-2.07622,5.08233,6.78427,6.78427,0,0,1-5.02409,2.11214h-2.61882v11.35274H127.184v-30.098Zm2.70618,7.26047a2.618,2.618,0,0,0-.69887-1.90636,2.51394,2.51394,0,0,0-1.884-.71828h-2.73045v9.6211h2.73045a2.46668,2.46668,0,0,0,1.83453-.76682,2.54539,2.54539,0,0,0,.74837-1.84035Z"/><path class="cls-1" d="M163.52805,160.76356H151.15418v-30.098H155.691v25.59413h7.837Z"/><path class="cls-1" d="M179.87381,161.14405a7.12858,7.12858,0,0,1-7.15952-7.14593V130.6656h4.43782v23.284a2.48571,2.48571,0,0,0,.76681,1.83065,2.52445,2.52445,0,0,0,1.84036.75905,2.5784,2.5784,0,0,0,2.59164-2.5897v-23.284h4.73483v23.33252a6.82563,6.82563,0,0,1-2.11213,5.08233A7.03613,7.03613,0,0,1,179.87381,161.14405Z"/><path class="cls-1" d="M204.32452,161.14405a7.18147,7.18147,0,0,1-7.19447-7.17894V137.47957a7.18576,7.18576,0,1,1,14.37147,0v3.43223h-4.70378V137.398a2.62139,2.62139,0,0,0-2.6227-2.62464,2.47708,2.47708,0,0,0-1.83065.76875,2.53922,2.53922,0,0,0-.761,1.85589v16.5166a2.59824,2.59824,0,0,0,2.59164,2.60911,2.53918,2.53918,0,0,0,1.85588-.761,2.49542,2.49542,0,0,0,.76682-1.84812v-5.92291h-2.52369V143.4549h7.22747v10.51021a7.17149,7.17149,0,0,1-7.177,7.17894Z"/><path class="cls-1" d="M220.70523,156.24226h4.53683v4.53683h-4.53683Z"/></svg>