<svg id="Layer_1" data-name="Layer 1" xmlns="http://www.w3.org/2000/svg" xmlns:xlink="http://www.w3.org/1999/xlink" width="300" height="600" viewBox="0 0 300 600"><defs><style>.cls-1{fill:url(#linear-gradient);}.cls-2{fill:url(#linear-gradient-2);}.cls-3{fill:url(#linear-gradient-3);}.cls-4{fill:url(#linear-gradient-4);}.cls-5{fill:url(#linear-gradient-5);}.cls-6{fill:url(#linear-gradient-6);}.cls-7{fill:url(#linear-gradient-7);}.cls-8{fill:url(#linear-gradient-8);}.cls-9{fill:url(#New_Gradient_Swatch_2);}.cls-10{fill:#a89255;}</style><linearGradient id="linear-gradient" x1="99.0163" y1="95.48668" x2="201.58661" y2="95.48668" gradientUnits="userSpaceOnUse"><stop offset="0" stop-color="#a88a34"/><stop offset="0.49324" stop-color="#caaf67"/><stop offset="1" stop-color="#957f2e"/></linearGradient><linearGradient id="linear-gradient-2" x1="203.14271" y1="316.94893" x2="203.14271" y2="144.91007" gradientUnits="userSpaceOnUse"><stop offset="0" stop-color="#a88a34"/><stop offset="0.49894" stop-color="#caaf67"/><stop offset="1" stop-color="#957f2e"/></linearGradient><linearGradient id="linear-gradient-3" x1="155.4871" y1="227.38659" x2="155.4871" y2="100.3581" xlink:href="#linear-gradient-2"/><linearGradient id="linear-gradient-4" x1="171.62838" y1="270.9547" x2="171.62838" y2="103.78559" xlink:href="#linear-gradient-2"/><linearGradient id="linear-gradient-5" x1="187.34114" y1="274.76315" x2="187.34114" y2="128.43607" xlink:href="#linear-gradient-2"/><linearGradient id="linear-gradient-6" x1="98.78457" y1="172.1791" x2="98.78457" y2="30.79766" xlink:href="#linear-gradient-2"/><linearGradient id="linear-gradient-7" x1="136.34716" y1="207.89613" x2="136.34716" y2="81.60779" xlink:href="#linear-gradient-2"/><linearGradient id="linear-gradient-8" x1="117.16227" y1="189.03612" x2="117.16227" y2="62.00805" xlink:href="#linear-gradient-2"/><linearGradient id="New_Gradient_Swatch_2" x1="209.94281" y1="144.56049" x2="217.00885" y2="144.56049" gradientUnits="userSpaceOnUse"><stop offset="0" stop-color="#a88a34"/><stop offset="0.1878" stop-color="#caaf67"/><stop offset="0.46098" stop-color="#a08a4a"/><stop offset="0.76341" stop-color="#caaf67"/><stop offset="1" stop-color="#957f2e"/></linearGradient></defs><title>logo</title><path class="cls-1" d="M144.06613,129.86251c1.11468-.32876,3.13662,1.56129,3.268,1.56129a2.412,2.412,0,0,0,.67406-1.55659c0-.66733-.4763-1.96533-.56561-2.75084a13.08438,13.08438,0,0,0-.47509-2.27576c-.17391-.51719-1.3826-.7426-2.03119-1.14282a10.59466,10.59466,0,0,1-1.63658-1.133,5.17672,5.17672,0,0,1-.6958-2.37439,9.33472,9.33472,0,0,0-.3904-2.417c-.22583-.42318-.80636-.72217-1.199-1.11476a1.688,1.688,0,0,1-.40444-1.039c.3011-.094.39511.68177.743.74772s.32446.35252.86972.54054c.54565.188.56439.447.635.95481s.68177,2.22384.88383,2.92434c.20246.70092.41376,1.22784,1.10535,1.2512.6911.02344.59708.38067,1.41026.31521a4.55306,4.55306,0,0,1,1.9517.37589c.43721.15525.98757.16928,1.17552-.136.188-.30581-.13182-1.53794-.13182-1.53794-.28195,0-.32924-.38059-.4372-.73319-.10805-.353.06586-.38108.06586-.38108a1.49021,1.49021,0,1,1,2.84023,0s.17391.02806.06587.38108c-.10845.3526-.15526.73319-.43762.73319,0,0-.31943,1.23213-.1314,1.53794.18794.30531.7383.29128,1.17551.136a4.55239,4.55239,0,0,1,1.9513-.37589c.81358.06546.71957-.29177,1.41067-.31521.69158-.02336.903-.55028,1.10494-1.2512.20246-.7005.81358-2.41657.88423-2.92434s.08931-.76686.635-.95481c.54525-.188.52181-.4746.86971-.54054s.44232-.84173.743-.74772a1.69073,1.69073,0,0,1-.40444,1.039c-.39259.39259-.97313.69158-1.19895,1.11476a9.33422,9.33422,0,0,0-.39041,2.417,5.17672,5.17672,0,0,1-.6958,2.37439,10.59845,10.59845,0,0,1-1.63657,1.133c-.649.40022-1.85729.62563-2.0312,1.14282a13.03163,13.03163,0,0,0-.47509,2.27576c-.0893.78551-.56561,2.08351-.56561,2.75084a2.41193,2.41193,0,0,0,.67407,1.55659c.1314,0,2.15375-1.89005,3.268-1.56129,1.11427.32965.67236,1.89046-.48442,3.04683a4.95435,4.95435,0,0,1-2.39662,1.49454,12.977,12.977,0,0,1,1.81949.34019,19.477,19.477,0,0,1,5.1971,2.96564,18.88325,18.88325,0,0,0,4.63408,2.70574,3.95415,3.95415,0,0,0,.44833.09831c.15906-.13319.9926-.6142.9926-.6142a18.65,18.65,0,0,0,2.09422.89616l-5.3363-4.11479,10.57769,4.60472c.17391.07527.34871.14463.5227.20668l6.39346.114c1.67827.03066,3.33569-.04291,4.87435-.162-1.24008-.76516-2.58326-1.529-4.02288-2.23285l-5.60966-2.74321c-.18672-.02377-.37767-.0417-.57161-.05313l-12.2278-.7345,7.94543-1.381-5.15079-1.67648,8.81515-.05783a29.92422,29.92422,0,0,0,6.01806-.66182l-8.3317-1.58676,12.21036-.54225a11.98291,11.98291,0,0,0,2.044-.26071l-.92714.11227,8.05859-3.78092a72.01053,72.01053,0,0,0,7.46312-4.10246,78.74856,78.74856,0,0,0-8.72924-.52863l-9.15923.02085,1.02026-.33387a11.47291,11.47291,0,0,0-2.16139.66684l-10.68524,4.45337,6.4663-4.81781-.04931.00811-.14763-1.111-1.17511-1.93807a38.71772,38.71772,0,0,0,8.8046-9.08948l-8.63913,4.136,8.80241-7.33131a14.498,14.498,0,0,0,2.79505-3.03028c1.13512-1.71566,2.18905-3.47342,3.15026-5.25291l-2.72838,2.69431,3.27055-7.11442a93.95724,93.95724,0,0,0,4.83906-13.37906A113.88772,113.88772,0,0,0,184.29311,88.15l-6.40336,4.85269,2.04231-3.18253c-1.65653,1.40864-3.25822,2.89547-4.78674,4.444a14.02978,14.02978,0,0,0-2.357,3.30291l-4.67708,8.95766,1.66123-8.176a38.65483,38.65483,0,0,0-3.70524,4.43162l-.81528,1.13723-.74723-.51289a2.13389,2.13389,0,0,0-.11567.19436L157.965,115.78131l3.78855-13.24084A42.03145,42.03145,0,0,0,163.01023,85.924l-4.42392,8.22195,2.14265-9.8908a16.10231,16.10231,0,0,0,.33468-4.93559,79.68372,79.68372,0,0,0-1.69992-9.98474l-.58306,4.85472L156.86,67.11174a120.42928,120.42928,0,0,0-6.55853-17.75163,120.30759,120.30759,0,0,0-6.55862,17.75163l-1.92022,7.07775-.58346-4.85472a79.755,79.755,0,0,0-1.69992,9.98474,16.11009,16.11009,0,0,0,.33468,4.936l2.14013,9.89381-4.42141-8.22406a42.02508,42.02508,0,0,0,1.25671,16.61522l3.789,13.24165-6.42461-12.1831a2.048,2.048,0,0,0-.11567-.19436l-.74723.51289-.81529-1.13723a38.65913,38.65913,0,0,0-3.70524-4.43162l1.66164,8.176L127.81455,97.567a14.03889,14.03889,0,0,0-2.35655-3.30291c-1.52552-1.54556-3.12511-3.03029-4.77993-4.43714L122.725,93.012l-6.4152-4.862a113.83359,113.83359,0,0,0-12.96732-8.35457,93.93929,93.93929,0,0,0,4.839,13.37906l3.27062,7.11442-2.72837-2.69431c.96121,1.77949,2.01554,3.53725,3.15066,5.25291a14.4842,14.4842,0,0,0,2.79464,3.03028l8.80241,7.33131-8.63912-4.136a38.70779,38.70779,0,0,0,8.80459,9.08948l-1.1751,1.93807-.14763,1.111-.04973-.00811,6.46712,4.81821-10.68565-4.45377a11.5428,11.5428,0,0,0-2.16049-.66684l1.01985.33387-9.15971-.02085a78.7548,78.7548,0,0,0-8.72925.52863,72.00969,72.00969,0,0,0,7.46313,4.10246l8.05858,3.78051-.92673-.11226a11.932,11.932,0,0,0,2.0436.26111l12.21028.54225-8.33154,1.58676a29.92678,29.92678,0,0,0,6.018.66182l8.8385.05783-5.16863,1.67738,7.94073,1.38008-12.22813.7345q-.29164.01714-.5721.05313l-5.61054,2.74321c-1.43874.70384-2.78183,1.46769-4.022,2.23285,1.53915.11908,3.19609.19216,4.87435.162l6.39354-.114c.17391-.062.34872-.13141.52311-.20668l10.5772-4.60472-5.33629,4.11479a18.65078,18.65078,0,0,0,2.09422-.89616s.83272.4802.99179.61371a3.89825,3.89825,0,0,0,.44864-.09782,18.87606,18.87606,0,0,0,4.63457-2.70574,19.47942,19.47942,0,0,1,5.19711-2.96564,12.9743,12.9743,0,0,1,1.81948-.34019,4.95439,4.95439,0,0,1-2.39662-1.49454C143.39377,131.753,142.95145,130.19216,144.06613,129.86251Z"/><polygon class="cls-2" points="209.274 151.478 209.274 148.362 197.011 148.373 197.011 165.054 209.252 165.054 209.252 161.938 200.35 161.938 200.35 158.144 207.038 158.144 207.038 155.039 200.35 155.039 200.35 151.478 209.274 151.478"/><path class="cls-3" d="M153.8235,148.36242l-6.6767,16.69167h3.56052l1.00159-2.55937h7.56695l1.00159,2.55937,3.55-.01139-6.66531-16.68028Zm-.77873,10.79409,2.53736-6.34332,2.4701,6.34332Z"/><path class="cls-4" d="M176.24653,156.43008a8.27718,8.27718,0,0,0-3.83914-1.39073,4.40007,4.40007,0,0,1-2.55949-1.002,1.30237,1.30237,0,0,1,0-1.61365q.55689-.94535,2.55949-.9454a3.83325,3.83325,0,0,1,3.11617,1.335l2.22511-2.22566a7.787,7.787,0,0,0-2.39227-1.66925,9.31567,9.31567,0,0,0-3.60571-.5563,6.68136,6.68136,0,0,0-3.9,1.34092,4.15333,4.15333,0,0,0-1.89728,3.55552,3.69348,3.69348,0,0,0,1.669,3.44961,8.96985,8.96985,0,0,0,3.67243,1.224q2.22513.22266,2.77635,1.16831a1.7635,1.7635,0,0,1,0,1.89216q-.55062.94542-2.77635.94539a5.28643,5.28643,0,0,1-3.7835-1.55778l-2.226,2.22593a8.42317,8.42317,0,0,0,2.67089,1.78038,9.88483,9.88483,0,0,0,3.88384.66726,6.7407,6.7407,0,0,0,4.28961-1.44643,4.27852,4.27852,0,0,0,1.842-3.44956A4.178,4.178,0,0,0,176.24653,156.43008Z"/><polygon class="cls-5" points="180.108 151.478 185.672 151.478 185.672 165.054 189.01 165.054 189.01 151.478 194.574 151.478 194.574 148.362 180.108 148.362 180.108 151.478"/><polygon class="cls-6" points="102.902 158.822 92.442 148.362 91.329 148.362 91.329 165.054 94.667 165.054 94.667 154.705 105.017 165.054 106.24 165.054 106.24 148.362 102.902 148.362 102.902 158.822"/><polygon class="cls-7" points="136.342 156.597 129.108 148.362 127.996 148.362 127.996 165.054 131.334 165.054 131.334 155.373 136.342 160.937 141.349 155.373 141.36 165.054 144.699 165.054 144.699 148.362 143.586 148.362 136.342 156.597"/><path class="cls-8" d="M115.49875,148.36242l-6.67681,16.69167h3.56064l1.00159-2.55937h7.56694l1.002,2.55937,3.54946-.01139-6.66569-16.68028ZM114.72,159.15651l2.53687-6.34332,2.47021,6.34332Z"/><path class="cls-9" d="M211.67183,143.31595v3.02984H211.07v-3.02984h-1.12721v-.54076H212.804v.54076Zm4.78089,3.02984-.005-2.66767-1.12721,2.29512h-.3929l-1.12721-2.29512v2.66767h-.5661v-3.5706h.714l1.17829,2.372,1.17331-2.372h.709v3.5706Z"/><path class="cls-10" d="M119.417,177.02387a2.35525,2.35525,0,0,1-1.34918,4.37933l-4.66686-.00553V173.109h4.40144q2.09607.122,2.21179,2.43849A1.7359,1.7359,0,0,1,119.417,177.02387Zm-4.35168-.59165h2.32237a.936.936,0,0,0,1.02848-1.034q-.02724-.60785-1.01189-.64142h-2.339Zm0,3.67156h2.70944a1.08244,1.08244,0,0,0,1.19436-1.1999q-.02725-.79623-1.17778-.82942h-2.726Z"/><path class="cls-10" d="M121.7394,173.10348h1.94637l1.92425,2.70944,1.96848-2.70944h1.90214l-3.0412,4.1471v4.14709H124.7806v-4.14709Z"/><path class="cls-10" d="M141.08144,181.39767h-6.64088l.00553-.553,3.86509-6.193h-3.86509l-.00553-1.54825h6.64088v.60824l-3.88168,6.1377h3.88168Z"/><path class="cls-10" d="M143.16525,181.39767V173.109l6.09346-.00553v1.54825h-4.43462v1.76943h3.3232v1.54272h-3.3232v1.88554h4.42356v1.54825Z"/><path class="cls-10" d="M150.92861,181.39767v-8.29419h.553l5.19768,5.19769v-5.19769h1.65884v8.29419h-.60824l-5.14239-5.1424v5.1424Z"/><path class="cls-10" d="M159.62092,181.39767l3.31767-8.29419h1.65884l3.31135,8.28866-1.76311.00553-.49765-1.27178h-3.76l-.49765,1.27178Zm4.19132-6.0824-1.26071,3.15179h2.48825Z"/><path class="cls-10" d="M175.037,177.02387a2.35551,2.35551,0,0,1-1.34919,4.37933l-4.66686-.00553V173.109h4.40145q2.09487.122,2.21178,2.43849A1.74022,1.74022,0,0,1,175.037,177.02387Zm-4.35247-.59165h2.32237a.93531.93531,0,0,0,1.02848-1.034c-.01738-.40523-.35547-.6193-1.0111-.64142h-2.33975Zm0,3.67156H173.394a1.08175,1.08175,0,0,0,1.19437-1.1999q-.02607-.79623-1.177-.82942h-2.72681Z"/><path class="cls-10" d="M177.846,173.098h1.65251v8.29972H177.846Z"/><path class="cls-10" d="M185.6536,173.38a3.85016,3.85016,0,0,1,1.188.82941l-1.10589,1.1059a1.9035,1.9035,0,0,0-1.54825-.66354q-.99529,0-1.27177.47a.64992.64992,0,0,0,0,.80178,2.1872,2.1872,0,0,0,1.27177.49765,4.11488,4.11488,0,0,1,1.90846.69118,2.07857,2.07857,0,0,1,.85627,1.85237,2.12739,2.12739,0,0,1-.91473,1.71413,3.3492,3.3492,0,0,1-2.13121.71883,4.91636,4.91636,0,0,1-1.93057-.33177,4.203,4.203,0,0,1-1.32707-.88471l1.10589-1.10589a2.62937,2.62937,0,0,0,1.88.77412q1.10667,0,1.3792-.47a.87233.87233,0,0,0,0-.94q-.27252-.4704-1.3792-.58059a4.45623,4.45623,0,0,1-1.82472-.60824,1.8349,1.8349,0,0,1-.82942-1.71414,2.06266,2.06266,0,0,1,.94317-1.76626,3.31926,3.31926,0,0,1,1.93846-.6667A4.63977,4.63977,0,0,1,185.6536,173.38Z"/><rect class="cls-10" x="91.32873" y="177.13172" width="14.91165" height="1.8157"/><rect class="cls-10" x="194.36245" y="177.13172" width="14.91165" height="1.8157"/></svg>