<svg id="Content" xmlns="http://www.w3.org/2000/svg" xmlns:xlink="http://www.w3.org/1999/xlink" width="300" height="250" viewBox="0 0 300 250"><defs><style>.cls-1{fill:#ba9544;}.cls-2{fill:#fff;stroke:#ba9544;stroke-miterlimit:10;stroke-width:0.5px;}.cls-3{clip-path:url(#clip-path);}</style><clipPath id="clip-path"><polygon class="cls-1" points="162.334 175.334 167.967 183.313 168.077 183.323 168.077 167.214 167.967 167.21 162.334 175.334"/></clipPath></defs><title>CBD - Shishkaberry</title><polygon class="cls-2" points="279.428 167.615 167.844 167.192 162.211 175.315 167.844 183.294 279.428 183.104 284.498 175.36 279.428 167.615"/><polygon class="cls-1" points="162.334 175.334 167.967 183.313 168.077 183.323 168.077 167.214 167.967 167.21 162.334 175.334"/><g class="cls-3"><rect class="cls-1" x="161.08804" y="165.96511" width="8.2322" height="18.60287"/></g><path class="cls-1" d="M227.76663,177.99541a2.732,2.732,0,0,1,1.94336-4.67774,2.95284,2.95284,0,0,1,2.00684.72852l-.72852.79687a2.01551,2.01551,0,0,0-1.27832-.43652,1.55652,1.55652,0,0,0-1.63476,1.624,1.63132,1.63132,0,0,0,.45508,1.209,1.61079,1.61079,0,0,0,1.1875.44824,1.95513,1.95513,0,0,0,1.2705-.43359l.72852.79785a2.9471,2.9471,0,0,1-2.00684.72851A2.65579,2.65579,0,0,1,227.76663,177.99541Z"/><path class="cls-1" d="M236.77249,175.8997a1.55163,1.55163,0,0,1-.88867,2.88477l-3.07422-.00391v-5.46H235.709q1.37988.08056,1.456,1.60645A1.14232,1.14232,0,0,1,236.77249,175.8997Zm-2.86621-.38964h1.5293a.61767.61767,0,0,0,.67773-.68164c-.01269-.26661-.23437-.40723-.667-.42188h-1.54Zm0,2.418h1.78418a.7132.7132,0,0,0,.78711-.79q-.019-.52442-.77637-.5459h-1.79492Z"/><path class="cls-1" d="M238.62308,178.78056v-5.46679h2.10449q2.5503,0,2.54981,2.73535,0,2.73193-2.54981,2.73144Zm2.10449-1.08886q1.45313-.00439,1.457-1.64258-.00293-1.63915-1.457-1.63867h-1.01172v3.28125Z"/><path class="cls-1" d="M244.4971,175.29717a.52808.52808,0,0,1,.39356-.14747.54784.54784,0,0,1,.4082.14747.49987.49987,0,0,1,.14551.36621.4932.4932,0,0,1-.14551.36328.62179.62179,0,0,1-.80176,0,.4932.4932,0,0,1-.14551-.36328A.49987.49987,0,0,1,244.4971,175.29717Zm0,2.60742a.52807.52807,0,0,1,.39356-.14746.54784.54784,0,0,1,.4082.14746.503.503,0,0,1,.14551.36621.497.497,0,0,1-.14551.36426.625.625,0,0,1-.80176,0,.497.497,0,0,1-.14551-.36426A.503.503,0,0,1,244.4971,177.90459Z"/><path class="cls-1" d="M252.31351,174.8831l-2.11328,1.166,2.11328,1.165v.83789l-3.45313-1.89746v-.23633l3.45313-1.87207Z"/><path class="cls-1" d="M257.04495,173.31767v-.0039h1.08887v5.46679h-1.08887V174.7747l-.72851.72754-.72852-.72754Z"/></svg>