<?xml version="1.0" encoding="utf-8"?>
<!-- Generator: Adobe Illustrator 23.0.1, SVG Export Plug-In . SVG Version: 6.00 Build 0)  -->
<svg version="1.1" id="Layer_1" xmlns="http://www.w3.org/2000/svg" xmlns:xlink="http://www.w3.org/1999/xlink" x="0px" y="0px"
	 viewBox="0 0 300 250" style="enable-background:new 0 0 300 250;" xml:space="preserve">
<style type="text/css">
	.st0{fill:url(#SVGID_1_);}
	.st1{fill:url(#SVGID_2_);}
	.st2{fill:url(#SVGID_3_);}
	.st3{fill:url(#SVGID_4_);}
	.st4{fill:url(#SVGID_5_);}
	.st5{fill:url(#SVGID_6_);}
	.st6{fill:url(#SVGID_7_);}
	.st7{fill:url(#SVGID_8_);}
	.st8{fill:url(#SVGID_9_);}
	.st9{fill:#A89255;}
	.st10{fill:url(#SVGID_10_);}
	.st11{enable-background:new    ;}
	.st12{fill:#FFFFFF;}
</style>
<title>CTA</title>
<g id="Content">
	
		<linearGradient id="SVGID_1_" gradientUnits="userSpaceOnUse" x1="198.0816" y1="204.7849" x2="272.9735" y2="204.7849" gradientTransform="matrix(1 0 0 -1 0 252)">
		<stop  offset="0" style="stop-color:#A88A34"/>
		<stop  offset="0.4932" style="stop-color:#CAAF67"/>
		<stop  offset="1" style="stop-color:#957F2E"/>
	</linearGradient>
	<path class="st0" d="M231,72.3c0.8-0.2,2.3,1.1,2.4,1.1c0.3-0.3,0.5-0.7,0.5-1.1c0-0.5-0.3-1.4-0.4-2c-0.1-0.6-0.2-1.1-0.3-1.7
		c-0.1-0.4-1-0.5-1.5-0.8c-0.4-0.2-0.8-0.5-1.2-0.8c-0.3-0.5-0.5-1.1-0.5-1.7c0-0.6-0.1-1.2-0.3-1.8c-0.2-0.3-0.6-0.5-0.9-0.8
		c-0.2-0.2-0.3-0.5-0.3-0.8c0.2-0.1,0.3,0.5,0.5,0.5s0.2,0.3,0.6,0.4c0.4,0.1,0.4,0.3,0.5,0.7s0.5,1.6,0.6,2.1
		c0.1,0.5,0.3,0.9,0.8,0.9c0.5,0,0.4,0.3,1,0.2c0.5,0,1,0.1,1.4,0.3c0.3,0.1,0.7,0.1,0.9-0.1c0.1-0.2-0.1-1.1-0.1-1.1
		c-0.2,0-0.2-0.3-0.3-0.5c-0.1-0.3,0-0.3,0-0.3c-0.2-0.6,0.1-1.2,0.7-1.4c0.6-0.2,1.2,0.1,1.4,0.7c0.1,0.2,0.1,0.4,0,0.7
		c0,0,0.1,0,0,0.3c-0.1,0.3-0.1,0.5-0.3,0.5c0,0-0.2,0.9-0.1,1.1c0.1,0.2,0.5,0.2,0.9,0.1c0.4-0.2,0.9-0.3,1.4-0.3
		c0.6,0,0.5-0.2,1-0.2c0.5,0,0.7-0.4,0.8-0.9c0.1-0.5,0.6-1.8,0.6-2.1s0.1-0.6,0.5-0.7c0.4-0.1,0.4-0.3,0.6-0.4s0.3-0.6,0.5-0.5
		c0,0.3-0.1,0.5-0.3,0.8c-0.3,0.3-0.7,0.5-0.9,0.8c-0.2,0.6-0.3,1.2-0.3,1.8c0,0.6-0.2,1.2-0.5,1.7c-0.4,0.3-0.8,0.6-1.2,0.8
		c-0.5,0.3-1.4,0.5-1.5,0.8c-0.2,0.5-0.3,1.1-0.3,1.7c-0.1,0.6-0.4,1.5-0.4,2c0,0.4,0.2,0.8,0.5,1.1c0.1,0,1.6-1.4,2.4-1.1
		c0.8,0.2,0.5,1.4-0.4,2.2c-0.5,0.5-1.1,0.9-1.7,1.1c0.4,0.1,0.9,0.1,1.3,0.2c1.4,0.5,2.6,1.3,3.8,2.2c1,0.8,2.2,1.5,3.4,2
		c0.1,0,0.2,0.1,0.3,0.1c0.1-0.1,0.7-0.4,0.7-0.4c0.5,0.2,1,0.5,1.5,0.7l-3.9-3l7.7,3.4c0.1,0.1,0.3,0.1,0.4,0.2l4.7,0.1
		c1.2,0,2.4,0,3.6-0.1c-0.9-0.6-1.9-1.1-2.9-1.6l-4.1-2c-0.1,0-0.3,0-0.4,0l-8.9-0.5l5.8-1l-3.8-1.2l6.4,0c1.5,0,2.9-0.2,4.4-0.5
		l-6.1-1.2l8.9-0.4c0.5,0,1-0.1,1.5-0.2l-0.7,0.1l5.9-2.8c1.9-0.9,3.7-1.9,5.4-3c-2.1-0.2-4.2-0.4-6.4-0.4l-6.7,0l0.7-0.2
		c-0.5,0.1-1.1,0.3-1.6,0.5l-7.8,3.3L256,66l0,0l-0.1-0.8l-0.9-1.4c2.5-1.8,4.7-4.1,6.4-6.6l-6.3,3l6.4-5.4c0.8-0.6,1.5-1.4,2-2.2
		c0.8-1.3,1.6-2.5,2.3-3.8l-2,2l2.4-5.2c1.4-3.2,2.6-6.4,3.5-9.8c-3.3,1.8-6.5,3.9-9.5,6.1l-4.7,3.5l1.5-2.3c-1.2,1-2.4,2.1-3.5,3.2
		c-0.7,0.7-1.3,1.5-1.7,2.4l-3.4,6.5l1.2-6c-1,1-1.9,2.1-2.7,3.2l-0.6,0.8l-0.5-0.4c0,0-0.1,0.1-0.1,0.1l-4.7,8.9l2.8-9.7
		c1.1-3.9,1.4-8.1,0.9-12.1l-3.2,6l1.6-7.2c0.3-1.2,0.3-2.4,0.2-3.6c-0.3-2.5-0.7-4.9-1.2-7.3l-0.4,3.5l-1.4-5.2
		c-1.3-4.4-2.9-8.8-4.8-13c-1.9,4.2-3.5,8.5-4.8,13l-1.4,5.2l-0.4-3.5c-0.6,2.4-1,4.8-1.2,7.3c-0.1,1.2,0,2.4,0.2,3.6l1.6,7.2
		l-3.2-6c-0.5,4.1-0.2,8.2,0.9,12.1l2.8,9.7l-4.7-8.9c0,0-0.1-0.1-0.1-0.1l-0.5,0.4l-0.6-0.8c-0.8-1.1-1.7-2.2-2.7-3.2l1.2,6
		l-3.4-6.5c-0.5-0.9-1-1.7-1.7-2.4c-1.1-1.1-2.3-2.2-3.5-3.2l1.5,2.3l-4.7-3.5c-3-2.2-6.2-4.3-9.5-6.1c0.9,3.3,2.1,6.6,3.5,9.8
		l2.4,5.2l-2-2c0.7,1.3,1.5,2.6,2.3,3.8c0.6,0.8,1.3,1.6,2,2.2l6.4,5.4l-6.3-3c1.8,2.5,3.9,4.8,6.4,6.6l-0.9,1.4l-0.1,0.8l0,0
		l4.7,3.5l-7.8-3.3c-0.5-0.2-1-0.4-1.6-0.5l0.7,0.2l-6.7,0c-2.1,0-4.3,0.1-6.4,0.4c1.8,1.1,3.6,2.1,5.4,3l5.9,2.8l-0.7-0.1
		c0.5,0.1,1,0.2,1.5,0.2l8.9,0.4l-6.1,1.2c1.4,0.3,2.9,0.5,4.4,0.5l6.5,0l-3.8,1.2l5.8,1l-8.9,0.5c-0.1,0-0.3,0-0.4,0l-4.1,2
		c-1.1,0.5-2,1.1-2.9,1.6c1.1,0.1,2.3,0.1,3.6,0.1l4.7-0.1c0.1,0,0.3-0.1,0.4-0.2l7.7-3.4l-3.9,3c0.5-0.2,1-0.4,1.5-0.7
		c0,0,0.6,0.4,0.7,0.4c0.1,0,0.2,0,0.3-0.1c1.2-0.5,2.4-1.2,3.4-2c1.1-0.9,2.4-1.6,3.8-2.2c0.4-0.1,0.9-0.2,1.3-0.2
		c-0.7-0.2-1.3-0.6-1.7-1.1C230.5,73.7,230.2,72.6,231,72.3z"/>
	
		<linearGradient id="SVGID_2_" gradientUnits="userSpaceOnUse" x1="274.11" y1="43.0838" x2="274.11" y2="168.6983" gradientTransform="matrix(1 0 0 -1 0 252)">
		<stop  offset="0" style="stop-color:#A88A34"/>
		<stop  offset="0.4989" style="stop-color:#CAAF67"/>
		<stop  offset="1" style="stop-color:#957F2E"/>
	</linearGradient>
	<polygon class="st1" points="278.6,88.1 278.6,85.8 269.6,85.8 269.6,98 278.6,98 278.6,95.7 272.1,95.7 272.1,93 277,93 277,90.7 
		272.1,90.7 272.1,88.1 	"/>
	
		<linearGradient id="SVGID_3_" gradientUnits="userSpaceOnUse" x1="239.3139" y1="108.4779" x2="239.3139" y2="201.228" gradientTransform="matrix(1 0 0 -1 0 252)">
		<stop  offset="0" style="stop-color:#A88A34"/>
		<stop  offset="0.4989" style="stop-color:#CAAF67"/>
		<stop  offset="1" style="stop-color:#957F2E"/>
	</linearGradient>
	<path class="st2" d="M238.1,85.8L233.2,98h2.6l0.7-1.9h5.5l0.7,1.9l2.6,0l-4.9-12.2H238.1z M237.5,93.7l1.9-4.6l1.8,4.6H237.5z"/>
	
		<linearGradient id="SVGID_4_" gradientUnits="userSpaceOnUse" x1="251.1044" y1="76.6665" x2="251.1044" y2="198.7254" gradientTransform="matrix(1 0 0 -1 0 252)">
		<stop  offset="0" style="stop-color:#A88A34"/>
		<stop  offset="0.4989" style="stop-color:#CAAF67"/>
		<stop  offset="1" style="stop-color:#957F2E"/>
	</linearGradient>
	<path class="st3" d="M254.5,91.7c-0.8-0.6-1.8-0.9-2.8-1c-0.7,0-1.3-0.3-1.9-0.7c-0.3-0.3-0.3-0.8,0-1.2c0.3-0.5,0.9-0.7,1.9-0.7
		c0.9,0,1.7,0.3,2.3,1l1.6-1.6c-0.5-0.5-1.1-0.9-1.7-1.2c-0.8-0.3-1.7-0.4-2.6-0.4c-1,0-2,0.4-2.8,1c-0.9,0.6-1.4,1.5-1.4,2.6
		c-0.1,1,0.4,2,1.2,2.5c0.8,0.5,1.7,0.8,2.7,0.9c1.1,0.1,1.8,0.4,2,0.9c0.3,0.4,0.3,1,0,1.4c-0.3,0.5-0.9,0.7-2,0.7
		c-1,0-2-0.4-2.8-1.1l-1.6,1.6c0.6,0.6,1.2,1,2,1.3c0.9,0.4,1.9,0.5,2.8,0.5c1.1,0,2.2-0.4,3.1-1.1c0.8-0.6,1.3-1.5,1.3-2.5
		C255.8,93.4,255.3,92.3,254.5,91.7z"/>
	
		<linearGradient id="SVGID_5_" gradientUnits="userSpaceOnUse" x1="262.5725" y1="73.8858" x2="262.5725" y2="180.7268" gradientTransform="matrix(1 0 0 -1 0 252)">
		<stop  offset="0" style="stop-color:#A88A34"/>
		<stop  offset="0.4989" style="stop-color:#CAAF67"/>
		<stop  offset="1" style="stop-color:#957F2E"/>
	</linearGradient>
	<polygon class="st4" points="257.3,88.1 261.4,88.1 261.4,98 263.8,98 263.8,88.1 267.9,88.1 267.9,85.8 257.3,85.8 	"/>
	
		<linearGradient id="SVGID_6_" gradientUnits="userSpaceOnUse" x1="197.9125" y1="148.7878" x2="197.9125" y2="252.0177" gradientTransform="matrix(1 0 0 -1 0 252)">
		<stop  offset="0" style="stop-color:#A88A34"/>
		<stop  offset="0.4989" style="stop-color:#CAAF67"/>
		<stop  offset="1" style="stop-color:#957F2E"/>
	</linearGradient>
	<polygon class="st5" points="200.9,93.5 193.3,85.8 192.5,85.8 192.5,98 194.9,98 194.9,90.5 202.5,98 203.4,98 203.4,85.8 
		200.9,85.8 	"/>
	
		<linearGradient id="SVGID_7_" gradientUnits="userSpaceOnUse" x1="225.339" y1="122.7089" x2="225.339" y2="214.9186" gradientTransform="matrix(1 0 0 -1 0 252)">
		<stop  offset="0" style="stop-color:#A88A34"/>
		<stop  offset="0.4989" style="stop-color:#CAAF67"/>
		<stop  offset="1" style="stop-color:#957F2E"/>
	</linearGradient>
	<polygon class="st6" points="225.3,91.8 220.1,85.8 219.2,85.8 219.2,98 221.7,98 221.7,90.9 225.3,95 229,90.9 229,98 231.4,98 
		231.4,85.8 230.6,85.8 	"/>
	
		<linearGradient id="SVGID_8_" gradientUnits="userSpaceOnUse" x1="211.3309" y1="136.4796" x2="211.3309" y2="229.2294" gradientTransform="matrix(1 0 0 -1 0 252)">
		<stop  offset="0" style="stop-color:#A88A34"/>
		<stop  offset="0.4989" style="stop-color:#CAAF67"/>
		<stop  offset="1" style="stop-color:#957F2E"/>
	</linearGradient>
	<path class="st7" d="M210.1,85.8L205.2,98h2.6l0.7-1.9h5.5l0.7,1.9l2.6,0l-4.9-12.2H210.1z M209.5,93.7l1.9-4.6l1.8,4.6H209.5z"/>
	
		<linearGradient id="SVGID_9_" gradientUnits="userSpaceOnUse" x1="279.0749" y1="168.9535" x2="284.2343" y2="168.9535" gradientTransform="matrix(1 0 0 -1 0 252)">
		<stop  offset="0" style="stop-color:#A88A34"/>
		<stop  offset="0.1878" style="stop-color:#CAAF67"/>
		<stop  offset="0.461" style="stop-color:#A08A4A"/>
		<stop  offset="0.7634" style="stop-color:#CAAF67"/>
		<stop  offset="1" style="stop-color:#957F2E"/>
	</linearGradient>
	<path class="st8" d="M280.3,82.1v2.2h-0.4v-2.2h-0.8v-0.4h2.1v0.4H280.3z M283.8,84.3l0-1.9l-0.8,1.7h-0.3l-0.8-1.7v1.9h-0.4v-2.6
		h0.5l0.9,1.7l0.9-1.7h0.5v2.6H283.8z"/>
	<path class="st9" d="M213,106.7c0.8,0.5,1.1,1.5,0.6,2.4c-0.3,0.6-0.9,0.9-1.6,0.8l-3.4,0v-6.1h3.2c1,0.1,1.6,0.7,1.6,1.8
		C213.5,106.1,213.3,106.5,213,106.7z M209.8,106.3h1.7c0.4,0,0.7-0.2,0.8-0.6c0,0,0-0.1,0-0.1c0-0.3-0.3-0.5-0.7-0.5h-1.7
		L209.8,106.3z M209.8,109h2c0.4,0,0.8-0.3,0.9-0.7c0-0.1,0-0.1,0-0.2c0-0.4-0.3-0.6-0.9-0.6h-2V109z"/>
	<path class="st9" d="M214.7,103.9h1.4l1.4,2l1.4-2h1.4l-2.2,3v3h-1.2v-3L214.7,103.9z"/>
	<path class="st9" d="M228.8,109.9h-4.8l0-0.4l2.8-4.5H224l0-1.1h4.8v0.4l-2.8,4.5h2.8V109.9z"/>
	<path class="st9" d="M230.3,109.9v-6.1l4.4,0v1.1h-3.2v1.3h2.4v1.1h-2.4v1.4h3.2v1.1L230.3,109.9z"/>
	<path class="st9" d="M236,109.9v-6.1h0.4l3.8,3.8v-3.8h1.2v6.1H241l-3.8-3.8v3.8H236z"/>
	<path class="st9" d="M242.3,109.9l2.4-6.1h1.2l2.4,6.1l-1.3,0l-0.4-0.9H244l-0.4,0.9H242.3z M245.4,105.5l-0.9,2.3h1.8L245.4,105.5
		z"/>
	<path class="st9" d="M253.6,106.7c0.8,0.5,1.1,1.5,0.6,2.4c-0.3,0.6-0.9,0.9-1.6,0.8l-3.4,0v-6.1h3.2c1,0.1,1.6,0.7,1.6,1.8
		C254.1,106.1,253.9,106.5,253.6,106.7z M250.4,106.3h1.7c0.4,0,0.7-0.2,0.8-0.6c0,0,0-0.1,0-0.1c0-0.3-0.3-0.5-0.7-0.5h-1.7
		L250.4,106.3z M250.4,109h2c0.4,0,0.8-0.3,0.9-0.7c0-0.1,0-0.1,0-0.2c0-0.4-0.3-0.6-0.9-0.6h-2V109z"/>
	<path class="st9" d="M255.6,103.9h1.2v6.1h-1.2L255.6,103.9z"/>
	<path class="st9" d="M261.3,104.1c0.3,0.1,0.6,0.4,0.9,0.6l-0.8,0.8c-0.3-0.3-0.7-0.5-1.1-0.5c-0.5,0-0.8,0.1-0.9,0.3
		c-0.1,0.2-0.1,0.4,0,0.6c0.3,0.2,0.6,0.3,0.9,0.4c0.5,0,1,0.2,1.4,0.5c0.4,0.3,0.7,0.8,0.6,1.4c0,0.5-0.3,1-0.7,1.3
		c-0.4,0.3-1,0.5-1.6,0.5c-0.5,0-1-0.1-1.4-0.2c-0.4-0.2-0.7-0.4-1-0.6l0.8-0.8c0.4,0.4,0.9,0.6,1.4,0.6c0.5,0,0.9-0.1,1-0.3
		c0.1-0.2,0.1-0.5,0-0.7c-0.1-0.2-0.5-0.4-1-0.4c-0.5,0-0.9-0.2-1.3-0.4c-0.4-0.3-0.7-0.8-0.6-1.3c0-0.5,0.3-1,0.7-1.3
		c0.4-0.3,0.9-0.5,1.4-0.5C260.5,103.9,260.9,103.9,261.3,104.1z"/>
	<rect x="192.5" y="106.8" class="st9" width="10.9" height="1.3"/>
	<rect x="267.7" y="106.8" class="st9" width="10.9" height="1.3"/>
	
		<linearGradient id="SVGID_10_" gradientUnits="userSpaceOnUse" x1="196.022" y1="32.6685" x2="299.963" y2="32.6685" gradientTransform="matrix(1 0 0 -1 0 252)">
		<stop  offset="0" style="stop-color:#A88A34"/>
		<stop  offset="0.1878" style="stop-color:#CAAF67"/>
		<stop  offset="0.461" style="stop-color:#A08A4A"/>
		<stop  offset="0.7634" style="stop-color:#CAAF67"/>
		<stop  offset="1" style="stop-color:#957F2E"/>
	</linearGradient>
	<polygon class="st10" points="203.9,207.5 196,219.3 203.9,231.1 300,231.1 300,207.5 	"/>
	<g class="st11">
		<path class="st12" d="M216.9,215.7v5.9h3.9v1.4h-5.3v-7.3H216.9z"/>
		<path class="st12" d="M222,223v-7.3l5.4,0v1.4h-3.9v1.6h2.9v1.4h-2.9v1.7h3.9v1.4H222z"/>
		<path class="st12" d="M228.4,223l2.9-7.3h1.5l2.9,7.3l-1.5,0l-0.4-1.1h-3.3L230,223H228.4z M232.1,217.6l-1.1,2.8h2.2L232.1,217.6
			z"/>
		<path class="st12" d="M241.2,219.8l1.8,3.2h-1.7l-1.7-3h-1.3v3h-1.5v-7.3h3.2c1.7,0,2.5,0.7,2.5,2.1
			C242.5,218.8,242.1,219.5,241.2,219.8z M238.2,218.6h2c0.6,0,0.9-0.3,0.9-0.8c0-0.5-0.3-0.7-0.9-0.7h-2.1V218.6z"/>
		<path class="st12" d="M243.7,223v-7.3h0.5l4.6,4.6v-4.6h1.5v7.3h-0.5l-4.5-4.5v4.5H243.7z"/>
		<path class="st12" d="M255.1,223v-7.3h0.5l3.2,3.6l3.2-3.6h0.5v7.3H261l0-4.2l-2.2,2.4l-2.2-2.4v4.2H255.1z"/>
		<path class="st12" d="M264.6,221.9c-0.7-0.7-1-1.6-1-2.6c0-1,0.3-1.9,1-2.6s1.6-1,2.6-1c1,0,1.9,0.3,2.6,1s1,1.6,1,2.6
			c0,1-0.3,1.9-1,2.6s-1.6,1-2.6,1C266.1,223,265.3,222.6,264.6,221.9z M267.2,221.6c0.6,0,1.2-0.2,1.6-0.7c0.4-0.4,0.6-1,0.6-1.6
			c0-0.6-0.2-1.2-0.6-1.6c-0.4-0.4-0.9-0.7-1.6-0.7c-0.6,0-1.2,0.2-1.6,0.7c-0.4,0.4-0.6,1-0.6,1.6c0,0.6,0.2,1.2,0.6,1.6
			C266,221.4,266.5,221.6,267.2,221.6z"/>
		<path class="st12" d="M276.3,219.8l1.8,3.2h-1.7l-1.7-3h-1.3v3h-1.5v-7.3h3.2c1.7,0,2.5,0.7,2.5,2.1
			C277.6,218.8,277.2,219.5,276.3,219.8z M273.3,218.6h2c0.6,0,0.9-0.3,0.9-0.8c0-0.5-0.3-0.7-0.9-0.7h-2.1V218.6z"/>
		<path class="st12" d="M278.8,223v-7.3l5.4,0v1.4h-3.9v1.6h2.9v1.4h-2.9v1.7h3.9v1.4H278.8z"/>
	</g>
</g>
</svg>
