<svg id="Layer_1" data-name="Layer 1" xmlns="http://www.w3.org/2000/svg" width="131.4028" height="15.5146" viewBox="0 0 131.4028 15.5146"><defs><style>.cls-1{fill:#ac9655;}</style></defs><title>frame4</title><path class="cls-1" d="M2.562.1807,5.59,10.3564V.1807H7.8721V15.3213H5.4214L2.2822,5.626v9.6953H0V.1807Z"/><path class="cls-1" d="M15.77,11.8438l-.5542,3.4775H12.8394L15.4116.1924H18.55l2.5356,15.1289H18.6865l-.5342-3.4775Zm1.1988-8.1856-.8453,5.9639H17.814Z"/><path class="cls-1" d="M28.3477,15.3213H26.0654V.1807H29.34l2.1265,10.8759L33.5083.1807h3.146V15.3213H34.3726V5.8066l-1.98,9.5147H30.5571l-2.2094-9.49Z"/><path class="cls-1" d="M44.5522,11.8438l-.5542,3.4775H41.6216L44.1938.1924h3.1387l2.5357,15.1289H47.4688l-.5342-3.4775ZM45.751,3.6582l-.8452,5.9639h1.69Z"/><path class="cls-1" d="M61.7061,11.5547a4.2565,4.2565,0,0,1-.8213,2.7041,2.9554,2.9554,0,0,1-1.5694,1.0742,4.2594,4.2594,0,0,1-1.268.169,3.5837,3.5837,0,0,1-2.2212-.6641,3.7037,3.7037,0,0,1-1.1656-1.4785,5.97,5.97,0,0,1-.5009-2.1436L56.333,11.06a3.304,3.304,0,0,0,.7,1.917,1.166,1.166,0,0,0,.9419.4248,1.4145,1.4145,0,0,0,1.1953-.7373,1.83,1.83,0,0,0,.23-1.003,2.7839,2.7839,0,0,0-.8574-1.873L56.5142,7.8672a8.6667,8.6667,0,0,1-1.606-1.9707,4.5557,4.5557,0,0,1-.5068-2.127A3.7007,3.7007,0,0,1,55.79.64,3.453,3.453,0,0,1,57.9146,0a3.8618,3.8618,0,0,1,2.0888.543,3.14,3.14,0,0,1,1.0928,1.1836,4.3742,4.3742,0,0,1,.501,1.75l-2.1851.3984a2.6348,2.6348,0,0,0-.5312-1.4482,1.1151,1.1151,0,0,0-.9058-.375,1.0431,1.0431,0,0,0-.9536.5556,2.14,2.14,0,0,0-.2656,1.1114,3.33,3.33,0,0,0,.893,2.1123,7.5517,7.5517,0,0,0,1.0147.9658q.7968.665,1.05.93a7.7457,7.7457,0,0,1,1.3037,1.666,6.324,6.324,0,0,1,.35.7129A4.146,4.146,0,0,1,61.7061,11.5547Z"/><path class="cls-1" d="M68.7612,2.4863H66.335V.1924h7.1235V2.4863h-2.415v12.835H68.7612Z"/><path class="cls-1" d="M78.354,15.3213V.1807h6.4951V2.4746H80.6353V6.6035h3.0791V8.8984H80.6353v4.1289h4.2138v2.294Z"/><path class="cls-1" d="M89.48,13.0518h2.2812V15.333H89.48Z"/><path class="cls-1" d="M100.0132,15.5146a3.606,3.606,0,0,1-3.6221-3.61V3.6455A3.48,3.48,0,0,1,97.4536,1.08a3.6213,3.6213,0,0,1,5.1192.0058,3.51,3.51,0,0,1,1.05,2.56V5.3721h-2.3663V3.5977a1.3187,1.3187,0,0,0-1.3154-1.3165,1.2464,1.2464,0,0,0-.9238.3868,1.277,1.277,0,0,0-.3809.93V11.88a1.3,1.3,0,0,0,1.3047,1.3047,1.2786,1.2786,0,0,0,.93-.3809,1.2491,1.2491,0,0,0,.3857-.9238V9.791h2.3663v2.1133a3.6074,3.6074,0,0,1-3.6094,3.61Z"/><path class="cls-1" d="M112.1274,0a3.482,3.482,0,0,1,2.5664,1.0625,3.4984,3.4984,0,0,1,1.0557,2.56V11.88a3.6157,3.6157,0,1,1-7.2314,0V3.6221a3.482,3.482,0,0,1,1.0625-2.5664A3.4841,3.4841,0,0,1,112.1274,0Zm1.2442,3.5732A1.2988,1.2988,0,0,0,112.0679,2.27a1.2784,1.2784,0,0,0-.93.38,1.2479,1.2479,0,0,0-.3867.9238v8.2832a1.2441,1.2441,0,0,0,.3867.9229,1.2754,1.2754,0,0,0,.93.3809,1.3,1.3,0,0,0,1.3037-1.3038Z"/><path class="cls-1" d="M123.0952,15.3213H120.814V.1807h3.2744l2.1269,10.8759L128.2563.1807h3.1465V15.3213h-2.2822V5.8066l-1.98,9.5147h-1.8349l-2.21-9.49Z"/></svg>