<svg id="Layer_1" data-name="Layer 1" xmlns="http://www.w3.org/2000/svg" width="160" height="600" viewBox="0 0 160 600"><defs><style>.cls-1{fill:#ab9555;}</style></defs><title>frame1</title><path class="cls-1" d="M46.02881,254.25635a3.18337,3.18337,0,0,1-3.19629-3.18555v-7.28711a3.19069,3.19069,0,1,1,6.38135,0v1.52344H47.126v-1.56641a1.16364,1.16364,0,0,0-1.16114-1.16113,1.1029,1.1029,0,0,0-.81494.34082,1.12689,1.12689,0,0,0-.33594.82031v7.3086a1.147,1.147,0,0,0,1.15088,1.15039,1.125,1.125,0,0,0,.82032-.33594,1.10073,1.10073,0,0,0,.34082-.81445v-1.84278h2.08789v1.86426a3.18415,3.18415,0,0,1-3.18506,3.18555Z"/><path class="cls-1" d="M54.75,251.01709l-.48926,3.06836H52.16406l2.26953-13.34863h2.76953l2.23731,13.34863H57.32324l-.47119-3.06836Zm1.05762-7.22266-.74561,5.2627h1.49121Z"/><path class="cls-1" d="M65.19482,240.72607l2.67188,8.97852v-8.97852h2.01367v13.35938h-2.1626l-2.77-8.55469v8.55469H62.93408V240.72607Z"/><path class="cls-1" d="M75.74121,240.72607l2.67188,8.97852v-8.97852h2.01367v13.35938h-2.1626l-2.77-8.55469v8.55469H73.48047V240.72607Z"/><path class="cls-1" d="M86.49609,251.01709l-.48925,3.06836H83.91016l2.26953-13.34863h2.76953l2.2373,13.34863H89.06934l-.47071-3.06836Zm1.05762-7.22266-.74512,5.2627H88.2998Z"/><path class="cls-1" d="M94.67969,254.08545V240.72607h3.01562a3.83839,3.83839,0,0,1,2.15137.62891,2.92192,2.92192,0,0,1,1.17187,1.65137,4.64472,4.64472,0,0,1,.19239,1.416,3.13753,3.13753,0,0,1-.71387,2.15235,2.032,2.032,0,0,1-.70312.52246,2.33792,2.33792,0,0,1,1.13964,1.01172,3.93588,3.93588,0,0,1,.458,1.32129,5.25594,5.25594,0,0,1,.07422.92675,4.46125,4.46125,0,0,1-.47852,2.15137,3.08592,3.08592,0,0,1-2.57812,1.57715Zm2.17383-7.90527h.84179a1.233,1.233,0,0,0,1.25684-.916,2.61088,2.61088,0,0,0,.11719-.8418,1.7572,1.7572,0,0,0-.40528-1.25683,1.27167,1.27167,0,0,0-.96875-.39356h-.84179Zm0,5.91308h.84179a1.42962,1.42962,0,0,0,1.417-1.05469,2.32766,2.32766,0,0,0,.1377-.83105,2.52919,2.52919,0,0,0-.42578-1.62988,1.37365,1.37365,0,0,0-1.12891-.46875h-.84179Z"/><path class="cls-1" d="M107.02637,254.08545H105.0127V240.73682h2.01367Z"/><path class="cls-1" d="M117.169,250.76123a3.75821,3.75821,0,0,1-.72461,2.38672,2.61463,2.61463,0,0,1-1.38477.94824,3.77816,3.77816,0,0,1-1.11914.14942,3.166,3.166,0,0,1-1.96-.58594,3.27774,3.27774,0,0,1-1.02832-1.30567,5.27266,5.27266,0,0,1-.44238-1.89062l1.918-.13867a2.91325,2.91325,0,0,0,.61817,1.69238,1.02844,1.02844,0,0,0,.831.374,1.249,1.249,0,0,0,1.05469-.65039,1.61627,1.61627,0,0,0,.20215-.88476,2.45284,2.45284,0,0,0-.75684-1.65235q-.59619-.56542-1.78906-1.69531a7.63357,7.63357,0,0,1-1.417-1.73828,4.01337,4.01337,0,0,1-.44727-1.87695,3.26472,3.26472,0,0,1,1.22461-2.76172,3.042,3.042,0,0,1,1.875-.56543,3.40673,3.40673,0,0,1,1.84278.47949,2.7705,2.7705,0,0,1,.96484,1.04395,3.86979,3.86979,0,0,1,.44141,1.54492l-1.92774.35156a2.32954,2.32954,0,0,0-.46875-1.27832.98538.98538,0,0,0-.79883-.33008.91868.91868,0,0,0-.84179.49024,1.88684,1.88684,0,0,0-.23438.97949,2.93985,2.93985,0,0,0,.78809,1.86426,6.61472,6.61472,0,0,0,.89453.85253q.70313.58594.92773.82032a6.87245,6.87245,0,0,1,1.15039,1.4707,5.57716,5.57716,0,0,1,.3086.62793A3.69177,3.69177,0,0,1,117.169,250.76123Z"/><path class="cls-1" d="M21.78174,274.02783v5.65723H19.76807V266.33643h2.01367v5.668h2.42871v-5.668h2.01367v13.34863H24.21045v-5.65723Z"/><path class="cls-1" d="M32.293,276.6167l-.48926,3.06836H29.707l2.26953-13.34863h2.76953l2.23731,13.34863H34.86621L34.395,276.6167Zm1.05762-7.22266-.74561,5.2627h1.49121Z"/><path class="cls-1" d="M46.52881,276.36084a3.75529,3.75529,0,0,1-.72461,2.38672,2.61086,2.61086,0,0,1-1.38477.94824,3.77247,3.77247,0,0,1-1.11865.14941,3.16658,3.16658,0,0,1-1.96045-.58593,3.28113,3.28113,0,0,1-1.02783-1.30567,5.25238,5.25238,0,0,1-.44238-1.89062l1.91748-.13867a2.9199,2.9199,0,0,0,.61816,1.69238,1.02907,1.02907,0,0,0,.83106.374,1.24772,1.24772,0,0,0,1.05468-.65039,1.61627,1.61627,0,0,0,.20215-.88476,2.4543,2.4543,0,0,0-.75635-1.65235q-.59691-.56543-1.78955-1.69531a7.64722,7.64722,0,0,1-1.417-1.73828,4.01929,4.01929,0,0,1-.44726-1.87695,3.26374,3.26374,0,0,1,1.22509-2.76172,3.042,3.042,0,0,1,1.875-.56543,3.40906,3.40906,0,0,1,1.84278.47949,2.77311,2.77311,0,0,1,.96435,1.04394,3.87017,3.87017,0,0,1,.4419,1.54493l-1.92823.35156a2.3257,2.3257,0,0,0-.46875-1.27832.98537.98537,0,0,0-.79882-.33008.91971.91971,0,0,0-.8418.49024,1.88684,1.88684,0,0,0-.23438.97949,2.938,2.938,0,0,0,.78858,1.86426,6.5852,6.5852,0,0,0,.89453.85253q.70313.58594.92725.82032a6.842,6.842,0,0,1,1.15039,1.4707,5.67056,5.67056,0,0,1,.30908.62793A3.67864,3.67864,0,0,1,46.52881,276.36084Z"/><path class="cls-1" d="M57.16748,279.68506V266.32568h3.01514a3.83987,3.83987,0,0,1,2.15185.62891,2.92193,2.92193,0,0,1,1.17188,1.65137,4.64568,4.64568,0,0,1,.19189,1.416,3.13757,3.13757,0,0,1-.71386,2.15235,2.02305,2.02305,0,0,1-.70313.52246,2.3379,2.3379,0,0,1,1.13965,1.01172,3.93562,3.93562,0,0,1,.45849,1.32129,5.303,5.303,0,0,1,.07422.92675,4.46123,4.46123,0,0,1-.479,2.15137,3.086,3.086,0,0,1-2.57813,1.57715Zm2.17334-7.90527h.8418a1.23266,1.23266,0,0,0,1.25683-.916,2.6106,2.6106,0,0,0,.11719-.8418,1.75929,1.75929,0,0,0-.40478-1.25683,1.2735,1.2735,0,0,0-.96924-.39356h-.8418Zm0,5.91308h.8418a1.42923,1.42923,0,0,0,1.417-1.05469,2.3274,2.3274,0,0,0,.13818-.83105,2.529,2.529,0,0,0-.42627-1.62988,1.373,1.373,0,0,0-1.1289-.46875h-.8418Z"/><path class="cls-1" d="M67.48975,279.68506V266.32568h5.73144v2.02442H69.50342v3.64355h2.71631v2.02344H69.50342v3.64355h3.71777v2.02442Z"/><path class="cls-1" d="M76.40576,279.68506V266.32568H82.1377v2.02442H78.41943v3.64355h2.71631v2.02344H78.41943v3.64355H82.1377v2.02442Z"/><path class="cls-1" d="M87.583,266.32568l2.67187,8.97852v-8.97852h2.01367v13.35938h-2.1621l-2.77051-8.55469v8.55469H85.32227V266.32568Z"/><path class="cls-1" d="M108.19336,279.83447a3.16431,3.16431,0,0,1-3.18555-3.1748V266.33643h1.97071v10.30175a1.10257,1.10257,0,0,0,.34082.81543,1.12787,1.12787,0,0,0,.82031.335,1.14369,1.14369,0,0,0,1.15039-1.15039V266.33643h2.09863v10.32324a3.03549,3.03549,0,0,1-.9375,2.25879A3.116,3.116,0,0,1,108.19336,279.83447Z"/><path class="cls-1" d="M121.50977,276.36084a3.75821,3.75821,0,0,1-.72461,2.38672,2.61463,2.61463,0,0,1-1.38477.94824,3.77818,3.77818,0,0,1-1.11914.14941,3.166,3.166,0,0,1-1.96-.58593,3.27788,3.27788,0,0,1-1.02832-1.30567,5.27266,5.27266,0,0,1-.44238-1.89062l1.918-.13867a2.91325,2.91325,0,0,0,.61817,1.69238,1.02844,1.02844,0,0,0,.83105.374,1.249,1.249,0,0,0,1.05469-.65039,1.61627,1.61627,0,0,0,.20215-.88476,2.45284,2.45284,0,0,0-.75684-1.65235q-.59619-.56543-1.78906-1.69531a7.63357,7.63357,0,0,1-1.417-1.73828,4.01337,4.01337,0,0,1-.44727-1.87695,3.26472,3.26472,0,0,1,1.22461-2.76172,3.042,3.042,0,0,1,1.875-.56543,3.40673,3.40673,0,0,1,1.84278.47949,2.77055,2.77055,0,0,1,.96484,1.04394,3.86989,3.86989,0,0,1,.44141,1.54493l-1.92774.35156a2.32954,2.32954,0,0,0-.46875-1.27832.98538.98538,0,0,0-.79883-.33008.91868.91868,0,0,0-.84179.49024,1.88684,1.88684,0,0,0-.23438.97949,2.93985,2.93985,0,0,0,.78809,1.86426,6.61472,6.61472,0,0,0,.89453.85253q.70313.58594.92773.82032a6.87245,6.87245,0,0,1,1.15039,1.4707,5.57716,5.57716,0,0,1,.3086.62793A3.69177,3.69177,0,0,1,121.50977,276.36084Z"/><path class="cls-1" d="M124.98145,279.68506V266.32568h5.73144v2.02442h-3.71777v3.64355h2.71582v2.02344h-2.71582v3.64355h3.71777v2.02442Z"/><path class="cls-1" d="M140.22559,276.48877a3.09548,3.09548,0,0,1-.92676,2.25879,3.02959,3.02959,0,0,1-2.23731.9375h-3.16406V266.32568h3.16406a3.02708,3.02708,0,0,1,2.24317.9375,3.09233,3.09233,0,0,1,.9209,2.24805Zm-4.31446,1.2041H137.126a1.07478,1.07478,0,0,0,.80957-.34668,1.142,1.142,0,0,0,.33007-.81445v-6.98828a1.12181,1.12181,0,0,0-.33593-.82032,1.0871,1.0871,0,0,0-.80371-.34179h-1.21485Z"/><path class="cls-1" d="M39.91357,301.96094a3.75523,3.75523,0,0,1-.72461,2.38672,2.61083,2.61083,0,0,1-1.38476.94824,3.77247,3.77247,0,0,1-1.11865.14941,3.16654,3.16654,0,0,1-1.96045-.58593,3.281,3.281,0,0,1-1.02783-1.30567,5.25217,5.25217,0,0,1-.44239-1.89062l1.91748-.13868a2.91994,2.91994,0,0,0,.61817,1.69239,1.02905,1.02905,0,0,0,.83105.374,1.24773,1.24773,0,0,0,1.05469-.65039,1.61631,1.61631,0,0,0,.20215-.88477,2.45541,2.45541,0,0,0-.75635-1.65283q-.59693-.56543-1.78955-1.69531a7.64668,7.64668,0,0,1-1.417-1.73828,4.0193,4.0193,0,0,1-.44727-1.877,3.2637,3.2637,0,0,1,1.2251-2.76172,3.042,3.042,0,0,1,1.875-.56543,3.409,3.409,0,0,1,1.84277.47949,2.77321,2.77321,0,0,1,.96436,1.04394,3.87,3.87,0,0,1,.44189,1.54493l-1.92822.35156a2.32578,2.32578,0,0,0-.46875-1.27832.98538.98538,0,0,0-.79883-.33008.9197.9197,0,0,0-.84179.49023,1.8869,1.8869,0,0,0-.23438.9795,2.938,2.938,0,0,0,.78857,1.86425,6.58413,6.58413,0,0,0,.89454.85254q.70313.58595.92724.82032a6.842,6.842,0,0,1,1.15039,1.4707,5.67056,5.67056,0,0,1,.30908.62793A3.68324,3.68324,0,0,1,39.91357,301.96094Z"/><path class="cls-1" d="M46.56006,291.936a3.06705,3.06705,0,0,1,2.34375.92675,3.21715,3.21715,0,0,1,.80957,2.25879v1.93848a3.106,3.106,0,0,1-.92139,2.25879,3.0139,3.0139,0,0,1-2.23193.9375H45.39893v5.02881H43.38525V291.936Zm1.20361,3.21679a1.14694,1.14694,0,0,0-.314-.84082,1.11736,1.11736,0,0,0-.83643-.32031H45.39893v4.27246h1.21435a1.09917,1.09917,0,0,0,.81494-.34082,1.12834,1.12834,0,0,0,.33545-.82031Z"/><path class="cls-1" d="M55.13574,305.28516H53.12207V291.936h2.01367Z"/><path class="cls-1" d="M61.91064,291.936a3.06985,3.06985,0,0,1,2.47168.92675,3.37057,3.37057,0,0,1,.69239,2.25879v1.93848a3.11928,3.11928,0,0,1-1.07617,2.39746l1.49169,5.82764H63.3125l-1.2207-5.02881H60.74951v5.02881H58.73584V291.936Zm1.20362,3.21679a1.02178,1.02178,0,0,0-1.15039-1.16113H60.74951v4.27246h1.21436a1.09919,1.09919,0,0,0,.81494-.34082,1.12838,1.12838,0,0,0,.33545-.82031Z"/><path class="cls-1" d="M71.0293,305.28516H69.01562V291.936H71.0293Z"/><path class="cls-1" d="M76.58984,293.96045h-2.1416V291.936h6.28565v2.02441H78.603v11.32471H76.58984Z"/><path class="cls-1" d="M87.32812,305.43457a3.16431,3.16431,0,0,1-3.18554-3.1748V291.936h1.9707v10.30224a1.10257,1.10257,0,0,0,.34082.81543,1.12793,1.12793,0,0,0,.82031.335,1.14369,1.14369,0,0,0,1.15039-1.15039V291.936h2.09864v10.32373a3.03545,3.03545,0,0,1-.9375,2.25878A3.116,3.116,0,0,1,87.32812,305.43457Z"/><path class="cls-1" d="M96.29492,302.2168l-.48926,3.06836H93.709L95.97852,291.936h2.76953l2.2373,13.34912H98.86816l-.47168-3.06836Zm1.05762-7.22315-.74609,5.2627h1.49121Z"/><path class="cls-1" d="M109.96582,305.28516h-5.4873V291.936h2.01367v11.34619h3.47363Z"/><path class="cls-1" d="M118.63672,305.28516h-5.48633V291.936h2.01367v11.34619h3.47266Z"/><path class="cls-1" d="M122.02344,299.69189l-2.69532-7.7666H121.544l1.49218,4.79395,1.48047-4.79395h2.22656l-2.70605,7.7666v5.59327h-2.01367Z"/></svg>