<svg id="Layer_1" data-name="Layer 1" xmlns="http://www.w3.org/2000/svg" width="219.3677" height="133.9204" viewBox="0 0 219.3677 133.9204"><defs><style>.cls-1{fill:#212c32;}</style></defs><title>frame3</title><path class="cls-1" d="M34.8848,20.8994H28.4541L27.42,23.9077h-4.8L29.2119,6.5913h4.9146l6.5913,17.3164h-4.8ZM27.5127,2.1821,29.9238,0l3.7437,3.583-1.7456,1.63ZM33.69,17.4771l-2.021-5.7642-2.021,5.7642Z"/><path class="cls-1" d="M58.7686,29.7871V22.7593a4.8347,4.8347,0,0,1-3.6519,1.5161,5.6859,5.6859,0,0,1-4.2144-1.8145,6.2243,6.2243,0,0,1-1.24-1.9868,6.5428,6.5428,0,0,1-.4482-2.4228,6.6188,6.6188,0,0,1,.4594-2.48,6.2482,6.2482,0,0,1,1.2632-1.9981,5.847,5.847,0,0,1,1.8833-1.332,5.6691,5.6691,0,0,1,2.3423-.4824,4.3635,4.3635,0,0,1,3.606,1.6763V12.126h4.18V29.7871ZM53.5322,17.9824a2.746,2.746,0,0,0,.77,1.9292,2.5129,2.5129,0,0,0,.85.5742,2.7383,2.7383,0,0,0,1.0678.2066,2.6831,2.6831,0,0,0,1.045-.2066,2.5227,2.5227,0,0,0,.85-.5742,2.914,2.914,0,0,0,.5742-.8613,2.5552,2.5552,0,0,0,.2182-1.0449,2.4761,2.4761,0,0,0-.2182-1.0332,2.97,2.97,0,0,0-.5742-.85,2.5276,2.5276,0,0,0-.85-.5738,2.741,2.741,0,0,0-2.09,0,2.5177,2.5177,0,0,0-.85.5738,3.01,3.01,0,0,0-.5742.8383A2.3939,2.3939,0,0,0,53.5322,17.9824Z"/><path class="cls-1" d="M70.0908,12.126v6.6372a2.1141,2.1141,0,1,0,4.2261,0V12.126h4.1567v7.4414A4.2144,4.2144,0,0,1,76.9,23.15a7.71,7.71,0,0,1-4.6968,1.1943A7.7079,7.7079,0,0,1,67.5073,23.15a4.2131,4.2131,0,0,1-1.5732-3.5825V12.126Z"/><path class="cls-1" d="M84.8125,18.7173q0,2.6872,2.5259,2.687a2.2574,2.2574,0,0,0,2.0444-1.1021h4.0191q-1.2181,4.0423-6.0865,4.042a7.9912,7.9912,0,0,1-2.7329-.4482,6.0893,6.0893,0,0,1-2.124-1.2744,5.6813,5.6813,0,0,1-1.3667-1.9751,6.5847,6.5847,0,0,1-.4824-2.5723,7.2793,7.2793,0,0,1,.4594-2.6523,5.5813,5.5813,0,0,1,1.3091-2.01,5.791,5.791,0,0,1,2.0557-1.2744,7.7682,7.7682,0,0,1,2.7212-.4478,7.6042,7.6042,0,0,1,2.687.4478,5.4442,5.4442,0,0,1,2.021,1.2974,5.6445,5.6445,0,0,1,1.2632,2.0786,8.2443,8.2443,0,0,1,.4365,2.7675v.4361Zm4.8687-2.4111a2.5009,2.5009,0,0,0-.85-1.4009,2.6352,2.6352,0,0,0-3.1347-.023,2.2842,2.2842,0,0,0-.77,1.4239Z"/><path class="cls-1" d="M99.854,4.8462V23.9077H95.6973V4.8462Z"/><path class="cls-1" d="M113.7944,18.7173q0,2.6872,2.5264,2.687a2.2559,2.2559,0,0,0,2.0439-1.1021h4.02q-1.2187,4.0423-6.0869,4.042a7.9885,7.9885,0,0,1-2.7325-.4482,6.0847,6.0847,0,0,1-2.124-1.2744,5.6892,5.6892,0,0,1-1.3672-1.9751,6.5847,6.5847,0,0,1-.4824-2.5723,7.2666,7.2666,0,0,1,.46-2.6523,5.5723,5.5723,0,0,1,1.3086-2.01,5.795,5.795,0,0,1,2.0556-1.2744,7.7694,7.7694,0,0,1,2.7217-.4478,7.5994,7.5994,0,0,1,2.6865.4478,5.4494,5.4494,0,0,1,2.0215,1.2974,5.65,5.65,0,0,1,1.2627,2.0786,8.2318,8.2318,0,0,1,.4365,2.7675v.4361Zm4.8692-2.4111a2.504,2.504,0,0,0-.85-1.4009,2.6353,2.6353,0,0,0-3.1348-.023,2.2813,2.2813,0,0,0-.7695,1.4239Z"/><path class="cls-1" d="M124.68,12.126h4.1572v1.4931a4.5543,4.5543,0,0,1,1.7227-1.39,5.3844,5.3844,0,0,1,2.0439-.356,5.1133,5.1133,0,0,1,2.124.4019,4.242,4.242,0,0,1,1.5039,1.1367,3.2777,3.2777,0,0,1,.69,1.332,6.9607,6.9607,0,0,1,.1836,1.6768v7.4868h-4.1572V17.96a6.4179,6.4179,0,0,0-.126-1.4121,1.7517,1.7517,0,0,0-.4473-.8614,1.5815,1.5815,0,0,0-.62-.3906,2.3281,2.3281,0,0,0-.7354-.1147,2.0554,2.0554,0,0,0-1.6191.6313,2.6239,2.6239,0,0,0-.5625,1.8032v6.2925H124.68Z"/><path class="cls-1" d="M148.7944,4.8462h4.18V23.9077h-4.18V22.5986a4.3614,4.3614,0,0,1-3.6054,1.6768,5.7323,5.7323,0,0,1-2.3653-.4824,5.8624,5.8624,0,0,1-1.8838-1.3321,6.0765,6.0765,0,0,1-1.2509-1.998,7.04,7.04,0,0,1-.0235-4.88,6.0125,6.0125,0,0,1,1.2061-1.9863,5.7015,5.7015,0,0,1,4.2715-1.8374,4.8,4.8,0,0,1,3.6513,1.5386Zm-5.2363,13.1362a2.7511,2.7511,0,0,0,.7695,1.9292,2.5227,2.5227,0,0,0,.85.5742,2.7413,2.7413,0,0,0,1.0684.2066,2.6844,2.6844,0,0,0,1.0449-.2066,2.5227,2.5227,0,0,0,.85-.5742,2.97,2.97,0,0,0,.5743-.85,2.4781,2.4781,0,0,0,.2177-1.0337,2.5578,2.5578,0,0,0-.2177-1.0449,2.9292,2.9292,0,0,0-.5743-.8613,2.5276,2.5276,0,0,0-.85-.5738,2.7407,2.7407,0,0,0-2.09,0,2.5079,2.5079,0,0,0-.85.5738,2.989,2.989,0,0,0-.5742.8383A2.3868,2.3868,0,0,0,143.5581,17.9824Z"/><path class="cls-1" d="M155.5688,12.126h4.1573v1.9292a4.77,4.77,0,0,1,1.6308-1.6192,4.383,4.383,0,0,1,2.25-.5625h.3565a2.5679,2.5679,0,0,1,.4472.0459v3.9732a3.9475,3.9475,0,0,0-1.791-.4136,2.673,2.673,0,0,0-2.17.8613,3.8184,3.8184,0,0,0-.7236,2.5147v5.0527h-4.1573Z"/><path class="cls-1" d="M165.6733,17.9136a5.7261,5.7261,0,0,1,.5284-2.4458,6,6,0,0,1,1.47-1.9751,6.9988,6.9988,0,0,1,2.2392-1.3208,8.083,8.083,0,0,1,2.836-.482,8.2009,8.2009,0,0,1,2.8135.4707A6.9735,6.9735,0,0,1,177.811,13.47a5.891,5.891,0,0,1,1.4815,1.9981,6.1167,6.1167,0,0,1,.5283,2.5605,6.0033,6.0033,0,0,1-.54,2.5611,6.09,6.09,0,0,1-1.4815,1.998,6.6332,6.6332,0,0,1-2.2617,1.2974,8.6543,8.6543,0,0,1-2.8594.4594,8.2712,8.2712,0,0,1-2.8017-.4594,6.4616,6.4616,0,0,1-2.2168-1.3091,6.0588,6.0588,0,0,1-1.458-2.0327A6.3691,6.3691,0,0,1,165.6733,17.9136Zm4.3868.0459a2.6669,2.6669,0,0,0,.2177,1.0908,2.9123,2.9123,0,0,0,.5743.8613,2.5227,2.5227,0,0,0,.85.5742,2.7456,2.7456,0,0,0,2.09,0,2.5227,2.5227,0,0,0,.85-.5742,2.914,2.914,0,0,0,.5742-.8613,2.6116,2.6116,0,0,0,.2188-1.0679,2.5587,2.5587,0,0,0-.2188-1.0449,2.927,2.927,0,0,0-.5742-.8613,2.5344,2.5344,0,0,0-.85-.5742,2.7456,2.7456,0,0,0-2.09,0,2.5344,2.5344,0,0,0-.85.5742,2.9681,2.9681,0,0,0-.5743.85A2.4758,2.4758,0,0,0,170.06,17.96Z"/><path class="cls-1" d="M181.7036,7.6021a2.2669,2.2669,0,0,1,.1836-.9073,2.3869,2.3869,0,0,1,1.252-1.2519,2.3331,2.3331,0,0,1,1.8144,0,2.38,2.38,0,0,1,1.251,1.2519,2.32,2.32,0,0,1,0,1.814,2.38,2.38,0,0,1-1.251,1.2519,2.3331,2.3331,0,0,1-1.8144,0,2.3869,2.3869,0,0,1-1.252-1.2519A2.2643,2.2643,0,0,1,181.7036,7.6021Zm4.4326,4.5239V23.9077H181.979V12.126Z"/><path class="cls-1" d="M193.3931,15.5942v8.3135h-4.1563V15.5942h-1.3779V12.126h1.3779V8.5894h4.1563V12.126h2.3662v3.4682Z"/><path class="cls-1" d="M4.1567,57.1694H0V39.5083H4.1567v1.3091a4.3876,4.3876,0,0,1,3.6289-1.6763,5.6442,5.6442,0,0,1,2.354.4937,5.98,5.98,0,0,1,1.8946,1.3437,6.0936,6.0936,0,0,1,1.2514,1.9981,6.6949,6.6949,0,0,1,.4483,2.457,6.5163,6.5163,0,0,1-.4483,2.4346,6.2563,6.2563,0,0,1-1.24,1.9751,5.6863,5.6863,0,0,1-4.2144,1.8144,4.9082,4.9082,0,0,1-3.6748-1.5161ZM9.3931,45.4336a2.8254,2.8254,0,0,0-.1953-1.0449,2.5127,2.5127,0,0,0-.5625-.8614,2.8241,2.8241,0,0,0-.8614-.5854,2.7009,2.7009,0,0,0-2.101-.0112,2.556,2.556,0,0,0-.8384.5737,2.9173,2.9173,0,0,0-.5742.8613,2.557,2.557,0,0,0-.2183,1.0449,2.598,2.598,0,0,0,.2065,1.0337,2.5613,2.5613,0,0,0,.5743.8384,2.9094,2.9094,0,0,0,.8613.5737,2.5485,2.5485,0,0,0,1.0449.2183,2.5983,2.5983,0,0,0,1.0337-.2065,2.5516,2.5516,0,0,0,.8379-.5743,2.9674,2.9674,0,0,0,.5742-.85A2.4242,2.4242,0,0,0,9.3931,45.4336Z"/><path class="cls-1" d="M20.0259,39.5083v6.6372a1.8985,1.8985,0,0,0,2.1128,2.1821,1.8988,1.8988,0,0,0,2.1133-2.1821V39.5083h4.1567V46.95a4.2142,4.2142,0,0,1-1.5733,3.5825,7.71,7.71,0,0,1-4.6967,1.1944,7.7075,7.7075,0,0,1-4.6963-1.1944A4.2131,4.2131,0,0,1,15.8691,46.95V39.5083Z"/><path class="cls-1" d="M30.728,34.9844a2.26,2.26,0,0,1,.1836-.9073,2.3846,2.3846,0,0,1,1.2515-1.2519,2.3331,2.3331,0,0,1,1.8144,0,2.38,2.38,0,0,1,1.2515,1.2519,2.3263,2.3263,0,0,1,0,1.814,2.38,2.38,0,0,1-1.2515,1.252,2.3331,2.3331,0,0,1-1.8144,0,2.3843,2.3843,0,0,1-1.2515-1.252A2.2572,2.2572,0,0,1,30.728,34.9844ZM35.16,39.5083V51.29H31.0034V39.5083Z"/><path class="cls-1" d="M45.5869,42.54a4.8611,4.8611,0,0,0-2.251-.5971,1.69,1.69,0,0,0-.93.23.7051.7051,0,0,0-.3559.62.8064.8064,0,0,0,.0571.333.5891.5891,0,0,0,.2525.2412,2.1642,2.1642,0,0,0,.5742.2065q.3793.0924.999.23a4.772,4.772,0,0,1,2.5723,1.2285,3.1323,3.1323,0,0,1,.85,2.2622,4.1054,4.1054,0,0,1-.4131,1.86,3.96,3.96,0,0,1-1.1484,1.3892,5.463,5.463,0,0,1-1.7686.873,7.8942,7.8942,0,0,1-2.2734.31,9.24,9.24,0,0,1-4.708-1.355l1.5156-2.94a5.9207,5.9207,0,0,0,3.3071,1.1944,1.6276,1.6276,0,0,0,.9419-.2525.7558.7558,0,0,0,.3672-.643,1.0748,1.0748,0,0,0-.0571-.3789.6245.6245,0,0,0-.2412-.2759,1.9371,1.9371,0,0,0-.54-.2295q-.3559-.1034-.93-.2183a5.3243,5.3243,0,0,1-2.6987-1.16,2.8691,2.8691,0,0,1-.77-2.1245,4.18,4.18,0,0,1,.3676-1.78A3.6866,3.6866,0,0,1,39.3628,40.22a4.96,4.96,0,0,1,1.665-.85,7.4136,7.4136,0,0,1,2.17-.2983,9.847,9.847,0,0,1,3.79.7578Z"/><path class="cls-1" d="M47.8145,43.4126h6.5913V46.88H47.8145Z"/><path class="cls-1" d="M55.3237,34.9844a2.26,2.26,0,0,1,.1836-.9073,2.3846,2.3846,0,0,1,1.2515-1.2519,2.3331,2.3331,0,0,1,1.8144,0,2.38,2.38,0,0,1,1.2515,1.2519,2.3263,2.3263,0,0,1,0,1.814,2.38,2.38,0,0,1-1.2515,1.252,2.3331,2.3331,0,0,1-1.8144,0,2.3843,2.3843,0,0,1-1.2515-1.252A2.2572,2.2572,0,0,1,55.3237,34.9844Zm4.4322,4.5239V57.1694H55.5991V39.5083Z"/><path class="cls-1" d="M66.1177,46.1q0,2.6872,2.5259,2.687a2.2575,2.2575,0,0,0,2.0444-1.102h4.019q-1.218,4.0422-6.0864,4.042a7.9908,7.9908,0,0,1-2.7329-.4483,6.0875,6.0875,0,0,1-2.124-1.2744,5.68,5.68,0,0,1-1.3667-1.9751,6.5844,6.5844,0,0,1-.4824-2.5723,7.28,7.28,0,0,1,.4594-2.6523,5.5813,5.5813,0,0,1,1.3091-2.01A5.7938,5.7938,0,0,1,65.7388,39.52a7.7682,7.7682,0,0,1,2.7212-.4477,7.6043,7.6043,0,0,1,2.687.4477,5.4467,5.4467,0,0,1,2.021,1.2974,5.6472,5.6472,0,0,1,1.2632,2.0786,8.2445,8.2445,0,0,1,.4365,2.7676V46.1Zm4.8686-2.4111a2.5013,2.5013,0,0,0-.85-1.4009,2.6352,2.6352,0,0,0-3.1347-.023,2.2847,2.2847,0,0,0-.77,1.4239Z"/><path class="cls-1" d="M84.5815,39.5083h4.1568v1.4473a5.3768,5.3768,0,0,1,3.8125-1.6309,4.4333,4.4333,0,0,1,3.9961,2.2046,4.4564,4.4564,0,0,1,3.9961-2.2275,4.98,4.98,0,0,1,1.5615.2412,3.21,3.21,0,0,1,1.2632.7578,3.63,3.63,0,0,1,.8384,1.3437,5.708,5.708,0,0,1,.31,1.9981V51.29h-4.1567V45.48a7.0472,7.0472,0,0,0-.1265-1.47,2.3208,2.3208,0,0,0-.3677-.8955,1.2165,1.2165,0,0,0-.5625-.4366,2.0455,2.0455,0,0,0-.6889-.1147q-1.9981,0-1.9981,2.9165v5.81H92.459V45.48a7.933,7.933,0,0,0-.1148-1.481,2.7479,2.7479,0,0,0-.333-.93,1.1118,1.1118,0,0,0-.563-.4707,2.3347,2.3347,0,0,0-.8037-.1265,2.3068,2.3068,0,0,0-.7348.1147,1.3057,1.3057,0,0,0-.6084.4478,2.44,2.44,0,0,0-.4136.9189,6.364,6.364,0,0,0-.1494,1.5269v5.81H84.5815Z"/><path class="cls-1" d="M109.937,33.9736h3.9268l-4.2261,7.625h-2.6641Z"/><path class="cls-1" d="M116,34.9844a2.2672,2.2672,0,0,1,.1836-.9073,2.3878,2.3878,0,0,1,1.252-1.2519,2.3331,2.3331,0,0,1,1.8144,0,2.3814,2.3814,0,0,1,1.251,1.2519,2.32,2.32,0,0,1,0,1.814,2.3811,2.3811,0,0,1-1.251,1.252,2.3331,2.3331,0,0,1-1.8144,0,2.3875,2.3875,0,0,1-1.252-1.252A2.264,2.264,0,0,1,116,34.9844Zm4.4326,4.5239V51.29h-4.1572V39.5083Z"/><path class="cls-1" d="M123.0493,39.5083h4.1563v1.4932a4.5543,4.5543,0,0,1,1.7226-1.39,5.3921,5.3921,0,0,1,2.044-.3559,5.1156,5.1156,0,0,1,2.125.4018,4.2429,4.2429,0,0,1,1.5039,1.1367,3.2638,3.2638,0,0,1,.6885,1.3321,6.9118,6.9118,0,0,1,.1845,1.6767V51.29h-4.1572V45.3418a6.4191,6.4191,0,0,0-.126-1.4121,1.76,1.76,0,0,0-.4482-.8613,1.5736,1.5736,0,0,0-.62-.3907,2.3207,2.3207,0,0,0-.7344-.1147,2.0542,2.0542,0,0,0-1.6192.6313,2.62,2.62,0,0,0-.5634,1.8033V51.29h-4.1563Z"/><path class="cls-1" d="M142.57,42.9766V51.29h-4.1562V42.9766H136.92V39.5083h1.4932V37.74a8.0358,8.0358,0,0,1,.2754-2.3427,4.149,4.149,0,0,1,.7343-1.3663A5.3677,5.3677,0,0,1,140.606,32.94a5.7453,5.7453,0,0,1,1.4589-.7119,4.978,4.978,0,0,1,1.5381-.2529,3.9482,3.9482,0,0,1,.9766.1147,5.6839,5.6839,0,0,1,.9072.3218v3.6284a4.6138,4.6138,0,0,0-.7695-.31,2.6639,2.6639,0,0,0-.7461-.1031,1.7767,1.7767,0,0,0-.5166.08,1.1152,1.1152,0,0,0-.4942.333,1.4073,1.4073,0,0,0-.31.7237,7.9321,7.9321,0,0,0-.08,1.2744v1.47h2.917v3.4683Z"/><path class="cls-1" d="M146.5659,45.2959a5.7275,5.7275,0,0,1,.5283-2.4458,6,6,0,0,1,1.47-1.9751,6.9988,6.9988,0,0,1,2.2392-1.3208,8.083,8.083,0,0,1,2.836-.4819,8.1976,8.1976,0,0,1,2.8134.4707,6.9711,6.9711,0,0,1,2.251,1.3091,5.89,5.89,0,0,1,1.4815,1.998,6.117,6.117,0,0,1,.5283,2.5605,6.0018,6.0018,0,0,1-.54,2.5611,6.0886,6.0886,0,0,1-1.4814,1.998,6.6332,6.6332,0,0,1-2.2617,1.2974,8.6543,8.6543,0,0,1-2.8594.4595,8.2722,8.2722,0,0,1-2.8018-.4595,6.4625,6.4625,0,0,1-2.2168-1.3091,6.0592,6.0592,0,0,1-1.458-2.0327A6.37,6.37,0,0,1,146.5659,45.2959Zm4.3867.0459a2.667,2.667,0,0,0,.2178,1.0908,2.914,2.914,0,0,0,.5742.8613,2.5215,2.5215,0,0,0,.85.5743,2.7471,2.7471,0,0,0,2.09,0,2.5215,2.5215,0,0,0,.85-.5743,2.914,2.914,0,0,0,.5742-.8613,2.6112,2.6112,0,0,0,.2188-1.0679,2.5591,2.5591,0,0,0-.2188-1.0449,2.927,2.927,0,0,0-.5742-.8613,2.5374,2.5374,0,0,0-.85-.5742,2.7459,2.7459,0,0,0-2.09,0,2.5374,2.5374,0,0,0-.85.5742,2.97,2.97,0,0,0-.5742.85A2.4758,2.4758,0,0,0,150.9526,45.3418Z"/><path class="cls-1" d="M162.8716,39.5083h4.1562v1.9292a4.7867,4.7867,0,0,1,1.6309-1.6191,4.3888,4.3888,0,0,1,2.251-.5625h.3554a2.58,2.58,0,0,1,.4483.0459v3.9731a3.9512,3.9512,0,0,0-1.791-.4136,2.6748,2.6748,0,0,0-2.1709.8614,3.8175,3.8175,0,0,0-.7237,2.5146V51.29h-4.1562Z"/><path class="cls-1" d="M173.3442,39.5083h4.1563v1.4473a5.3777,5.3777,0,0,1,3.8125-1.6309,4.4322,4.4322,0,0,1,3.9961,2.2046,4.4564,4.4564,0,0,1,3.9961-2.2275,4.9774,4.9774,0,0,1,1.5615.2412,3.2123,3.2123,0,0,1,1.2637.7578,3.6289,3.6289,0,0,1,.8379,1.3437,5.6958,5.6958,0,0,1,.31,1.9981V51.29h-4.1572V45.48a7.0515,7.0515,0,0,0-.126-1.47,2.3285,2.3285,0,0,0-.3682-.8955,1.2116,1.2116,0,0,0-.5625-.4366,2.0425,2.0425,0,0,0-.6884-.1147q-1.9981,0-1.9981,2.9165v5.81h-4.1572V45.48a7.9383,7.9383,0,0,0-.1143-1.481,2.7565,2.7565,0,0,0-.333-.93,1.1129,1.1129,0,0,0-.5635-.4707,2.3327,2.3327,0,0,0-.8037-.1265,2.306,2.306,0,0,0-.7343.1147,1.3052,1.3052,0,0,0-.6084.4478,2.4328,2.4328,0,0,0-.4141.9189,6.364,6.364,0,0,0-.1494,1.5269v5.81h-4.1563Z"/><path class="cls-1" d="M199.64,46.1q0,2.6872,2.5264,2.687a2.256,2.256,0,0,0,2.0439-1.102h4.02q-1.2187,4.0422-6.0869,4.042a7.9885,7.9885,0,0,1-2.7325-.4483,6.0847,6.0847,0,0,1-2.124-1.2744,5.6892,5.6892,0,0,1-1.3672-1.9751,6.5844,6.5844,0,0,1-.4824-2.5723,7.2674,7.2674,0,0,1,.46-2.6523,5.5723,5.5723,0,0,1,1.3086-2.01,5.7978,5.7978,0,0,1,2.0556-1.2744,7.77,7.77,0,0,1,2.7217-.4477,7.6,7.6,0,0,1,2.6865.4477,5.4519,5.4519,0,0,1,2.0215,1.2974,5.65,5.65,0,0,1,1.2627,2.0786,8.232,8.232,0,0,1,.4365,2.7676V46.1Zm4.8692-2.4111a2.504,2.504,0,0,0-.85-1.4009,2.6353,2.6353,0,0,0-3.1348-.023,2.2823,2.2823,0,0,0-.7695,1.4239Z"/><path class="cls-1" d="M210.5259,39.5083h4.1562v1.9292a4.7867,4.7867,0,0,1,1.6309-1.6191,4.3888,4.3888,0,0,1,2.251-.5625h.3554a2.58,2.58,0,0,1,.4483.0459v3.9731a3.9512,3.9512,0,0,0-1.791-.4136,2.6748,2.6748,0,0,0-2.1709.8614,3.8175,3.8175,0,0,0-.7237,2.5146V51.29h-4.1562Z"/><path class="cls-1" d="M29.0288,69.9229a4.86,4.86,0,0,0-2.251-.5972,1.69,1.69,0,0,0-.93.23.7051.7051,0,0,0-.3559.62.8064.8064,0,0,0,.0571.333.5891.5891,0,0,0,.2525.2412,2.1674,2.1674,0,0,0,.5742.2066q.3793.0922.999.23a4.7713,4.7713,0,0,1,2.5723,1.2286,3.1315,3.1315,0,0,1,.85,2.2617,4.11,4.11,0,0,1-.4131,1.8613,3.9625,3.9625,0,0,1-1.1484,1.3887,5.4711,5.4711,0,0,1-1.7686.873,7.8765,7.8765,0,0,1-2.2734.3106,9.24,9.24,0,0,1-4.708-1.3555l1.5156-2.94a5.9226,5.9226,0,0,0,3.3071,1.1934,1.6313,1.6313,0,0,0,.9419-.252.755.755,0,0,0,.3672-.6425,1.0729,1.0729,0,0,0-.0571-.3789.6277.6277,0,0,0-.2413-.2764,1.9232,1.9232,0,0,0-.54-.23q-.356-.1026-.93-.2187A5.3244,5.3244,0,0,1,22.15,72.8511a2.8691,2.8691,0,0,1-.77-2.1245,4.18,4.18,0,0,1,.3676-1.78,3.6874,3.6874,0,0,1,1.0562-1.3438,4.9592,4.9592,0,0,1,1.665-.85,7.4136,7.4136,0,0,1,2.17-.2983,9.847,9.847,0,0,1,3.79.7578Z"/><path class="cls-1" d="M36.8369,66.8911v6.6367A1.8988,1.8988,0,0,0,38.95,75.71a1.8992,1.8992,0,0,0,2.1133-2.1826V66.8911H45.22v7.4414a4.2131,4.2131,0,0,1-1.5732,3.5821A7.7039,7.7039,0,0,1,38.95,79.11a7.7014,7.7014,0,0,1-4.6963-1.1953A4.2118,4.2118,0,0,1,32.68,74.3325V66.8911Z"/><path class="cls-1" d="M47.8145,66.8911h4.1567V68.82a4.7781,4.7781,0,0,1,1.6309-1.6191,4.3856,4.3856,0,0,1,2.25-.5625h.356a2.5681,2.5681,0,0,1,.4477.0459v3.9731a3.949,3.949,0,0,0-1.791-.4136,2.6738,2.6738,0,0,0-2.17.8614,3.8175,3.8175,0,0,0-.7236,2.5141v5.0528H47.8145Z"/><path class="cls-1" d="M70,59.6113V78.6724H65.8428V59.6113Z"/><path class="cls-1" d="M75.6719,61.3564h3.9272l-4.2261,7.625H72.709Z"/><path class="cls-1" d="M86.167,66.8911v6.6367a2.1142,2.1142,0,1,0,4.2261,0V66.8911H94.55v7.4414a4.2131,4.2131,0,0,1-1.5732,3.5821A7.7041,7.7041,0,0,1,88.28,79.11a7.7012,7.7012,0,0,1-4.6963-1.1953A4.2118,4.2118,0,0,1,82.01,74.3325V66.8911Z"/><path class="cls-1" d="M101.7842,70.3594v8.313H97.6274v-8.313H96.25V66.8911h1.3779V63.3545h4.1568v3.5366H104.15v3.4683Z"/><path class="cls-1" d="M105.5269,62.3672a2.26,2.26,0,0,1,.1835-.9072,2.3843,2.3843,0,0,1,1.2515-1.252,2.3334,2.3334,0,0,1,1.8145,0,2.38,2.38,0,0,1,1.2514,1.252,2.32,2.32,0,0,1,0,1.8139,2.38,2.38,0,0,1-1.2514,1.252,2.3334,2.3334,0,0,1-1.8145,0,2.3843,2.3843,0,0,1-1.2515-1.252A2.2571,2.2571,0,0,1,105.5269,62.3672Zm4.4326,4.5239V78.6724h-4.1573V66.8911Z"/><path class="cls-1" d="M116.7339,59.6113V78.6724h-4.1563V59.6113Z"/><path class="cls-1" d="M119.0767,62.3672a2.2664,2.2664,0,0,1,.1836-.9072,2.3869,2.3869,0,0,1,1.2519-1.252,2.3334,2.3334,0,0,1,1.8145,0,2.38,2.38,0,0,1,1.2509,1.252,2.32,2.32,0,0,1,0,1.8139,2.38,2.38,0,0,1-1.2509,1.252,2.3334,2.3334,0,0,1-1.8145,0,2.3869,2.3869,0,0,1-1.2519-1.252A2.264,2.264,0,0,1,119.0767,62.3672Zm4.4326,4.5239V78.6724h-4.1572V66.8911Z"/><path class="cls-1" d="M133.9351,69.9229a4.8591,4.8591,0,0,0-2.251-.5972,1.6911,1.6911,0,0,0-.93.23.7055.7055,0,0,0-.3555.62.8152.8152,0,0,0,.0567.333.59.59,0,0,0,.2529.2412,2.1566,2.1566,0,0,0,.5742.2066q.3793.0922.999.23a4.7709,4.7709,0,0,1,2.5723,1.2286,3.1315,3.1315,0,0,1,.85,2.2617,4.11,4.11,0,0,1-.4131,1.8613,3.9722,3.9722,0,0,1-1.1484,1.3887,5.4751,5.4751,0,0,1-1.7686.873A7.88,7.88,0,0,1,130.1,79.11a9.238,9.238,0,0,1-4.708-1.3555l1.5156-2.94a5.92,5.92,0,0,0,3.3067,1.1934,1.6326,1.6326,0,0,0,.9423-.252.7559.7559,0,0,0,.3672-.6425,1.07,1.07,0,0,0-.0576-.3789.6243.6243,0,0,0-.2412-.2764,1.9232,1.9232,0,0,0-.54-.23q-.356-.1026-.93-.2187a5.3224,5.3224,0,0,1-2.6983-1.1592,2.8675,2.8675,0,0,1-.77-2.1245,4.18,4.18,0,0,1,.3672-1.78,3.6927,3.6927,0,0,1,1.0566-1.3438,4.95,4.95,0,0,1,1.6651-.85,7.41,7.41,0,0,1,2.17-.2983,9.8494,9.8494,0,0,1,3.79.7578Z"/><path class="cls-1" d="M146.6812,66.8911h4.18V78.6724h-4.18V77.3638a4.3629,4.3629,0,0,1-3.6055,1.6767,5.8389,5.8389,0,0,1-2.3653-.4717,5.6887,5.6887,0,0,1-1.8837-1.32,6.0751,6.0751,0,0,1-1.251-1.998,6.8245,6.8245,0,0,1-.4483-2.5029,6.6358,6.6358,0,0,1,.4366-2.4,6.1532,6.1532,0,0,1,1.2168-1.9864,5.7459,5.7459,0,0,1,1.86-1.3437,5.6754,5.6754,0,0,1,2.3887-.4937,4.8,4.8,0,0,1,3.6514,1.5386Zm-5.2364,5.8565a2.7522,2.7522,0,0,0,.77,1.9287,2.494,2.494,0,0,0,.85.5742,2.723,2.723,0,0,0,1.0683.207,2.6664,2.6664,0,0,0,1.0449-.207,2.4944,2.4944,0,0,0,.85-.5742,2.95,2.95,0,0,0,.5742-.85,2.4761,2.4761,0,0,0,.2177-1.0332,2.56,2.56,0,0,0-.2177-1.045,2.927,2.927,0,0,0-.5742-.8613,2.5292,2.5292,0,0,0-.85-.5737,2.6754,2.6754,0,0,0-1.0449-.2071,2.732,2.732,0,0,0-1.0683.2071,2.5288,2.5288,0,0,0-.85.5737,2.8349,2.8349,0,0,0-.5625.8384A2.5172,2.5172,0,0,0,141.4448,72.7476Z"/><path class="cls-1" d="M158.0952,70.3594v8.313H153.938v-8.313H152.56V66.8911h1.3779V63.3545h4.1572v3.5366H160.46v3.4683Z"/><path class="cls-1" d="M161.8374,62.3672a2.2664,2.2664,0,0,1,.1836-.9072,2.3878,2.3878,0,0,1,1.2519-1.252,2.3334,2.3334,0,0,1,1.8145,0,2.3811,2.3811,0,0,1,1.251,1.252,2.3214,2.3214,0,0,1,0,1.8139,2.3811,2.3811,0,0,1-1.251,1.252,2.3334,2.3334,0,0,1-1.8145,0,2.3878,2.3878,0,0,1-1.2519-1.252A2.264,2.264,0,0,1,161.8374,62.3672Zm4.4326,4.5239V78.6724h-4.1572V66.8911Z"/><path class="cls-1" d="M168.4282,72.6782a5.7421,5.7421,0,0,1,.5283-2.4453,6.0138,6.0138,0,0,1,1.47-1.9751,6.9988,6.9988,0,0,1,2.2392-1.3208,8.0884,8.0884,0,0,1,2.8369-.4819,8.1977,8.1977,0,0,1,2.8135.4707,6.9662,6.9662,0,0,1,2.25,1.3091,5.8776,5.8776,0,0,1,1.4815,1.998,6.1017,6.1017,0,0,1,.5283,2.5606,5.9843,5.9843,0,0,1-.54,2.5605,6.0759,6.0759,0,0,1-1.48,1.9981,6.6335,6.6335,0,0,1-2.2627,1.2978,8.6648,8.6648,0,0,1-2.8594.46,8.2862,8.2862,0,0,1-2.8018-.46,6.46,6.46,0,0,1-2.2158-1.31,6.0737,6.0737,0,0,1-1.459-2.0322A6.3871,6.3871,0,0,1,168.4282,72.6782Zm4.3867.0469a2.643,2.643,0,0,0,.2188,1.09,2.8651,2.8651,0,0,0,.5742.8614,2.4748,2.4748,0,0,0,.85.5742,2.741,2.741,0,0,0,2.09,0,2.494,2.494,0,0,0,.85-.5742,2.9029,2.9029,0,0,0,.5742-.8614,2.6048,2.6048,0,0,0,.2178-1.0673,2.5566,2.5566,0,0,0-.2178-1.045,2.927,2.927,0,0,0-.5742-.8613,2.5374,2.5374,0,0,0-.85-.5742,2.7459,2.7459,0,0,0-2.09,0,2.5175,2.5175,0,0,0-.85.5742,2.93,2.93,0,0,0-.5742.85A2.4617,2.4617,0,0,0,172.8149,72.7251Z"/><path class="cls-1" d="M184.7349,66.8911h4.1562v1.4932a4.5537,4.5537,0,0,1,1.7227-1.39,5.3913,5.3913,0,0,1,2.0439-.3559,5.1149,5.1149,0,0,1,2.125.4018,4.242,4.242,0,0,1,1.5039,1.1367,3.2638,3.2638,0,0,1,.6885,1.3321,6.9116,6.9116,0,0,1,.1846,1.6767v7.4864h-4.1573V72.7251a6.4279,6.4279,0,0,0-.1259-1.4126,1.76,1.76,0,0,0-.4483-.8613,1.5736,1.5736,0,0,0-.62-.3907,2.32,2.32,0,0,0-.7344-.1147,2.0541,2.0541,0,0,0-1.6191.6313,2.6193,2.6193,0,0,0-.5635,1.8033v6.292h-4.1562Z"/><path class="cls-1" d="M17.1777,94.2739h4.1568v1.9287a4.7831,4.7831,0,0,1,1.6308-1.6191,4.3862,4.3862,0,0,1,2.2505-.5625h.356a2.5681,2.5681,0,0,1,.4477.0459V98.04a3.9487,3.9487,0,0,0-1.791-.4131,2.6741,2.6741,0,0,0-2.17.8613,3.819,3.819,0,0,0-.7236,2.5146v5.0528H17.1777Z"/><path class="cls-1" d="M31.5317,100.8647q0,2.688,2.5259,2.6866a2.2581,2.2581,0,0,0,2.0445-1.1016h4.019q-1.218,4.0429-6.0864,4.042a7.9908,7.9908,0,0,1-2.7329-.4482,6.0905,6.0905,0,0,1-2.1241-1.2745,5.6865,5.6865,0,0,1-1.3667-1.9755,6.5812,6.5812,0,0,1-.4824-2.5723,7.2838,7.2838,0,0,1,.4595-2.6524,5.5882,5.5882,0,0,1,1.3091-2.01,5.79,5.79,0,0,1,2.0556-1.2735,7.7684,7.7684,0,0,1,2.7212-.4482,7.6041,7.6041,0,0,1,2.687.4482,5.4324,5.4324,0,0,1,2.021,1.2969,5.6433,5.6433,0,0,1,1.2632,2.0781,8.2512,8.2512,0,0,1,.4365,2.7676v.4365ZM36.4,98.4536a2.499,2.499,0,0,0-.85-1.4A2.632,2.632,0,0,0,32.416,97.03a2.2841,2.2841,0,0,0-.7695,1.4238Z"/><path class="cls-1" d="M50.2256,97.3052a4.8548,4.8548,0,0,0-2.251-.5977,1.6865,1.6865,0,0,0-.93.2305.7029.7029,0,0,0-.3559.6191.81.81,0,0,0,.0571.334.59.59,0,0,0,.2524.24,2.15,2.15,0,0,0,.5743.2071q.3793.0923.999.23a4.7611,4.7611,0,0,1,2.5722,1.2286,3.1316,3.1316,0,0,1,.85,2.2617,4.105,4.105,0,0,1-.4131,1.86,3.9562,3.9562,0,0,1-1.1485,1.39,5.4705,5.4705,0,0,1-1.7685.873,7.9086,7.9086,0,0,1-2.2735.31,9.2484,9.2484,0,0,1-4.708-1.3545l1.5157-2.94a5.9241,5.9241,0,0,0,3.3071,1.1943,1.632,1.632,0,0,0,.9419-.2519.7569.7569,0,0,0,.3672-.6436,1.0708,1.0708,0,0,0-.0572-.3789.6268.6268,0,0,0-.2412-.2764,1.9255,1.9255,0,0,0-.54-.2285q-.3559-.1039-.93-.2187a5.3156,5.3156,0,0,1-2.6987-1.16,2.8672,2.8672,0,0,1-.77-2.124,4.1854,4.1854,0,0,1,.3677-1.78,3.6976,3.6976,0,0,1,1.0562-1.3437,4.9583,4.9583,0,0,1,1.665-.85,7.4269,7.4269,0,0,1,2.17-.2979,9.8563,9.8563,0,0,1,3.79.7578Z"/><path class="cls-1" d="M58.0337,111.9341H53.877v-17.66h4.1567v1.3086a4.3871,4.3871,0,0,1,3.6289-1.6758,5.6439,5.6439,0,0,1,2.354.4932,5.97,5.97,0,0,1,1.8945,1.3438,6.0928,6.0928,0,0,1,1.2515,1.998,6.6992,6.6992,0,0,1,.4482,2.457,6.5179,6.5179,0,0,1-.4482,2.4346,6.26,6.26,0,0,1-1.24,1.9746,5.7218,5.7218,0,0,1-1.8721,1.332,5.6642,5.6642,0,0,1-2.3423.4825,4.9075,4.9075,0,0,1-3.6748-1.5157ZM63.27,100.1987a2.8215,2.8215,0,0,0-.1953-1.0449,2.5113,2.5113,0,0,0-.5625-.8613,2.7967,2.7967,0,0,0-.8613-.585,2.6995,2.6995,0,0,0-2.1011-.0117,2.55,2.55,0,0,0-.8384.5742,2.8941,2.8941,0,0,0-.5742.8613,2.5571,2.5571,0,0,0-.2183,1.045,2.6,2.6,0,0,0,.2066,1.0332,2.5511,2.5511,0,0,0,.5742.8379,2.8841,2.8841,0,0,0,.8613.5742,2.5412,2.5412,0,0,0,1.045.2187,2.5982,2.5982,0,0,0,1.0336-.207,2.5528,2.5528,0,0,0,.8379-.5742,2.9642,2.9642,0,0,0,.5743-.85A2.4263,2.4263,0,0,0,63.27,100.1987Z"/><path class="cls-1" d="M69.2866,100.061a5.7314,5.7314,0,0,1,.5283-2.4453,6.014,6.014,0,0,1,1.47-1.9756,7.009,7.009,0,0,1,2.2392-1.3213,8.1086,8.1086,0,0,1,2.8365-.4814,8.1976,8.1976,0,0,1,2.8134.4707,6.9625,6.9625,0,0,1,2.2505,1.31,5.8754,5.8754,0,0,1,1.4815,1.998,6.11,6.11,0,0,1,.5283,2.5606,5.9946,5.9946,0,0,1-.54,2.5605,6.0762,6.0762,0,0,1-1.4809,1.9981,6.6375,6.6375,0,0,1-2.2622,1.2968,8.6389,8.6389,0,0,1-2.8594.46,8.26,8.26,0,0,1-2.8018-.46,6.4529,6.4529,0,0,1-2.2163-1.3086,6.07,6.07,0,0,1-1.4585-2.0332A6.371,6.371,0,0,1,69.2866,100.061Zm4.3867.0459a2.6591,2.6591,0,0,0,.2183,1.0909,2.8847,2.8847,0,0,0,.5742.8613,2.5129,2.5129,0,0,0,.85.5742,2.741,2.741,0,0,0,2.09,0,2.5227,2.5227,0,0,0,.85-.5742,2.9037,2.9037,0,0,0,.5742-.8613,2.6136,2.6136,0,0,0,.2183-1.0684,2.56,2.56,0,0,0-.2183-1.0449,2.9525,2.9525,0,0,0-.5742-.8614,2.5522,2.5522,0,0,0-.85-.5742,2.7533,2.7533,0,0,0-2.09,0,2.5421,2.5421,0,0,0-.85.5742,2.9726,2.9726,0,0,0-.5742.8506A2.4684,2.4684,0,0,0,73.6733,100.1069Z"/><path class="cls-1" d="M85.5923,94.2739H89.749v1.4922a4.55,4.55,0,0,1,1.7227-1.3887,5.37,5.37,0,0,1,2.0439-.3564,5.1143,5.1143,0,0,1,2.1245.4014,4.25,4.25,0,0,1,1.5039,1.1367,3.2724,3.2724,0,0,1,.689,1.332,6.9356,6.9356,0,0,1,.1841,1.6777v7.4864H93.86v-5.9483a6.4254,6.4254,0,0,0-.126-1.4121,1.752,1.752,0,0,0-.4478-.8613,1.575,1.575,0,0,0-.62-.3906,2.3225,2.3225,0,0,0-.7348-.1143,2.0547,2.0547,0,0,0-1.6192.6309,2.6209,2.6209,0,0,0-.563,1.8027v6.293H85.5923Z"/><path class="cls-1" d="M108.42,97.3052a4.8548,4.8548,0,0,0-2.251-.5977,1.6867,1.6867,0,0,0-.93.2305.7031.7031,0,0,0-.3559.6191.81.81,0,0,0,.0571.334.59.59,0,0,0,.2525.24,2.1479,2.1479,0,0,0,.5742.2071q.3794.0923.999.23a4.7615,4.7615,0,0,1,2.5723,1.2286,3.13,3.13,0,0,1,.85,2.2617,4.0987,4.0987,0,0,1-.4136,1.86,3.957,3.957,0,0,1-1.1484,1.39,5.4711,5.4711,0,0,1-1.7686.873,7.9084,7.9084,0,0,1-2.2734.31,9.2478,9.2478,0,0,1-4.708-1.3545l1.5156-2.94a5.9243,5.9243,0,0,0,3.3071,1.1943,1.632,1.632,0,0,0,.9419-.2519.7569.7569,0,0,0,.3672-.6436,1.0732,1.0732,0,0,0-.0571-.3789.6277.6277,0,0,0-.2413-.2764,1.9255,1.9255,0,0,0-.54-.2285q-.356-.1039-.93-.2187a5.3156,5.3156,0,0,1-2.6987-1.16,2.8671,2.8671,0,0,1-.77-2.124,4.1854,4.1854,0,0,1,.3676-1.78,3.6987,3.6987,0,0,1,1.0562-1.3437,4.9592,4.9592,0,0,1,1.665-.85,7.4274,7.4274,0,0,1,2.17-.2979,9.8606,9.8606,0,0,1,3.79.7578Z"/><path class="cls-1" d="M121.1665,94.2739h4.18v11.7813h-4.18v-1.3086a4.362,4.362,0,0,1-3.6055,1.6758,5.84,5.84,0,0,1-2.3652-.4707,5.7025,5.7025,0,0,1-1.8838-1.32,6.0784,6.0784,0,0,1-1.251-1.998,6.826,6.826,0,0,1-.4482-2.5039,6.6351,6.6351,0,0,1,.4365-2.3994,6.1556,6.1556,0,0,1,1.2168-1.9863,5.7366,5.7366,0,0,1,1.86-1.3438,5.6751,5.6751,0,0,1,2.3886-.4932,4.7993,4.7993,0,0,1,3.6514,1.5381Zm-5.2363,5.8555a2.7512,2.7512,0,0,0,.77,1.93,2.5227,2.5227,0,0,0,.85.5742,2.7415,2.7415,0,0,0,1.0684.207,2.6848,2.6848,0,0,0,1.0449-.207,2.5227,2.5227,0,0,0,.85-.5742,2.9619,2.9619,0,0,0,.5742-.85,2.4792,2.4792,0,0,0,.2178-1.0332,2.5566,2.5566,0,0,0-.2178-1.045,2.9037,2.9037,0,0,0-.5742-.8613,2.5227,2.5227,0,0,0-.85-.5742,2.6668,2.6668,0,0,0-1.0449-.207,2.7235,2.7235,0,0,0-1.0684.207,2.5227,2.5227,0,0,0-.85.5742,2.8211,2.8211,0,0,0-.5625.8379A2.5165,2.5165,0,0,0,115.93,100.1294Z"/><path class="cls-1" d="M132.0972,86.9937v8.4511a4.8737,4.8737,0,0,1,3.6748-1.5381,5.7556,5.7556,0,0,1,2.4.4932,5.6775,5.6775,0,0,1,1.86,1.332,6.1563,6.1563,0,0,1,1.2051,1.9756,6.9507,6.9507,0,0,1-.0117,4.88,6.0932,6.0932,0,0,1-1.251,1.998,5.9578,5.9578,0,0,1-1.8945,1.3428,5.6316,5.6316,0,0,1-2.3545.4942,4.3876,4.3876,0,0,1-3.6289-1.6758v1.3086h-4.1563V86.9937Zm5.2363,13.205a2.6875,2.6875,0,0,0-.78-1.9062,2.8387,2.8387,0,0,0-.85-.585,2.52,2.52,0,0,0-1.0566-.2187,2.5791,2.5791,0,0,0-1.0332.207,2.5467,2.5467,0,0,0-.8389.5742,2.9037,2.9037,0,0,0-.5742.8613,2.5566,2.5566,0,0,0-.2178,1.045,2.5992,2.5992,0,0,0,.2061,1.0332,2.5571,2.5571,0,0,0,.5742.8379,2.89,2.89,0,0,0,.8613.5742,2.5408,2.5408,0,0,0,1.0449.2187,2.6011,2.6011,0,0,0,1.0342-.207,2.5528,2.5528,0,0,0,.8379-.5742,2.9619,2.9619,0,0,0,.5742-.85A2.4259,2.4259,0,0,0,137.3335,100.1987Z"/><path class="cls-1" d="M147.9663,86.9937v19.0615H143.81V86.9937Z"/><path class="cls-1" d="M154.3286,100.8647q0,2.688,2.5254,2.6866a2.2592,2.2592,0,0,0,2.0449-1.1016h4.0186q-1.2173,4.0429-6.086,4.042a7.9941,7.9941,0,0,1-2.7334-.4482,6.0956,6.0956,0,0,1-2.124-1.2745,5.6786,5.6786,0,0,1-1.3662-1.9755,6.5812,6.5812,0,0,1-.4824-2.5723,7.2944,7.2944,0,0,1,.459-2.6524,5.5956,5.5956,0,0,1,1.31-2.01,5.7861,5.7861,0,0,1,2.0557-1.2735,7.7671,7.7671,0,0,1,2.7207-.4482,7.6089,7.6089,0,0,1,2.6875.4482,5.4272,5.4272,0,0,1,2.02,1.2969,5.6376,5.6376,0,0,1,1.2637,2.0781,8.2638,8.2638,0,0,1,.4365,2.7676v.4365Zm4.8682-2.4111a2.4963,2.4963,0,0,0-.85-1.4,2.632,2.632,0,0,0-3.1348-.0234,2.2865,2.2865,0,0,0-.7695,1.4238Z"/><path class="cls-1" d="M181.8872,86.9937h4.18v19.0615h-4.18v-1.3086a4.3639,4.3639,0,0,1-3.6064,1.6758,5.72,5.72,0,0,1-2.3653-.4825,5.838,5.838,0,0,1-1.8828-1.332,6.0954,6.0954,0,0,1-1.2519-1.998,7.03,7.03,0,0,1-.0225-4.88,5.9936,5.9936,0,0,1,1.2051-1.9863,5.7031,5.7031,0,0,1,4.2715-1.837,4.8014,4.8014,0,0,1,3.6523,1.5381Zm-5.2363,13.1357a2.74,2.74,0,0,0,.7695,1.93,2.5031,2.5031,0,0,0,.85.5742,2.7365,2.7365,0,0,0,1.0674.207,2.6812,2.6812,0,0,0,1.0449-.207,2.5227,2.5227,0,0,0,.85-.5742,2.9642,2.9642,0,0,0,.5743-.85,2.48,2.48,0,0,0,.2187-1.0332,2.5574,2.5574,0,0,0-.2187-1.045,2.9059,2.9059,0,0,0-.5743-.8613,2.5227,2.5227,0,0,0-.85-.5742,2.7407,2.7407,0,0,0-2.09,0,2.5227,2.5227,0,0,0-.85.5742,3.0148,3.0148,0,0,0-.5742.8379A2.3989,2.3989,0,0,0,176.6509,100.1294Z"/><path class="cls-1" d="M192.8188,94.2739v6.6367a2.1139,2.1139,0,1,0,4.2256,0V94.2739h4.1573v7.4414a4.2153,4.2153,0,0,1-1.5733,3.5821,9.8325,9.8325,0,0,1-9.3935,0,4.2127,4.2127,0,0,1-1.5733-3.5821V94.2739Z"/><path class="cls-1" d="M58.9409,125.4683a3.8513,3.8513,0,0,0-2.1816-.7354,2.97,2.97,0,0,0-1.1138.207,2.7672,2.7672,0,0,0-.9072.586,2.6758,2.6758,0,0,0-.6084.8955,2.9459,2.9459,0,0,0-.2183,1.1592,2.8787,2.8787,0,0,0,.2183,1.1367,2.7639,2.7639,0,0,0,.5972.8965,2.6312,2.6312,0,0,0,.9067.5859,3.0814,3.0814,0,0,0,1.1255.2061,3.4355,3.4355,0,0,0,2.1816-.8037v3.5371a7.3649,7.3649,0,0,1-2.9165.666,6.9067,6.9067,0,0,1-2.4458-.4365,6.1183,6.1183,0,0,1-3.4565-3.2041,5.95,5.95,0,0,1-.5283-2.5372,6.3435,6.3435,0,0,1,.5053-2.56,6.1246,6.1246,0,0,1,1.378-1.9981,6.24,6.24,0,0,1,2.0786-1.3095,7.0467,7.0467,0,0,1,2.5835-.4707,6.163,6.163,0,0,1,2.8017.6435Z"/><path class="cls-1" d="M70.1714,121.6558h4.18V133.438h-4.18v-1.31a4.3612,4.3612,0,0,1-3.606,1.6768,5.8578,5.8578,0,0,1-2.3652-.4707,5.7112,5.7112,0,0,1-1.8833-1.32,6.0883,6.0883,0,0,1-1.2515-1.9981,6.826,6.826,0,0,1-.4482-2.5039,6.64,6.64,0,0,1,.4365-2.4,6.1637,6.1637,0,0,1,1.2173-1.9863,5.7482,5.7482,0,0,1,1.86-1.3438,5.6889,5.6889,0,0,1,2.3882-.4931,4.8006,4.8006,0,0,1,3.6519,1.5381Zm-5.2363,5.8564a2.7454,2.7454,0,0,0,.7695,1.93,2.5421,2.5421,0,0,0,.85.5742,2.7568,2.7568,0,0,0,1.0679.2061,2.7,2.7,0,0,0,1.0449-.2061,2.5522,2.5522,0,0,0,.85-.5742,2.9882,2.9882,0,0,0,.5742-.85,2.4808,2.4808,0,0,0,.2183-1.0342,2.5566,2.5566,0,0,0-.2183-1.0449,2.927,2.927,0,0,0-.5742-.8613,2.5046,2.5046,0,0,0-.85-.5733,2.665,2.665,0,0,0-1.0449-.207,2.721,2.721,0,0,0-1.0679.207,2.4949,2.4949,0,0,0-.85.5733,2.8173,2.8173,0,0,0-.563.8388A2.5128,2.5128,0,0,0,64.9351,127.5122Z"/><path class="cls-1" d="M76.9458,121.6558h4.1567v1.4931a4.5454,4.5454,0,0,1,1.7227-1.39,5.3877,5.3877,0,0,1,2.0439-.3565,5.1147,5.1147,0,0,1,2.1246.4024,4.2313,4.2313,0,0,1,1.5039,1.1367,3.266,3.266,0,0,1,.6889,1.332,6.9343,6.9343,0,0,1,.1841,1.6768v7.4873H85.2134v-5.9492a6.4241,6.4241,0,0,0-.126-1.4121,1.7607,1.7607,0,0,0-.4478-.8614,1.5875,1.5875,0,0,0-.62-.3906,2.322,2.322,0,0,0-.7348-.1143,2.0519,2.0519,0,0,0-1.6192.6319,2.6193,2.6193,0,0,0-.563,1.8027v6.293H76.9458Z"/><path class="cls-1" d="M91.9653,121.6558h4.1568v1.4931a4.5452,4.5452,0,0,1,1.7226-1.39,5.3882,5.3882,0,0,1,2.044-.3565,5.1145,5.1145,0,0,1,2.1245.4024,4.23,4.23,0,0,1,1.5039,1.1367,3.2674,3.2674,0,0,1,.689,1.332,6.94,6.94,0,0,1,.184,1.6768v7.4873h-4.1572v-5.9492a6.4241,6.4241,0,0,0-.126-1.4121,1.7606,1.7606,0,0,0-.4477-.8614,1.5882,1.5882,0,0,0-.62-.3906,2.3226,2.3226,0,0,0-.7349-.1143,2.0517,2.0517,0,0,0-1.6191.6319,2.6193,2.6193,0,0,0-.563,1.8027v6.293H91.9653Z"/><path class="cls-1" d="M116.08,121.6558h4.18V133.438h-4.18v-1.31a4.36,4.36,0,0,1-3.6055,1.6768,5.856,5.856,0,0,1-2.3652-.4707,5.7081,5.7081,0,0,1-1.8838-1.32,6.0883,6.0883,0,0,1-1.2515-1.9981,6.826,6.826,0,0,1-.4482-2.5039,6.64,6.64,0,0,1,.4365-2.4,6.1637,6.1637,0,0,1,1.2173-1.9863,5.6513,5.6513,0,0,1,4.249-1.8369,4.8,4.8,0,0,1,3.6514,1.5381Zm-5.2363,5.8564a2.7512,2.7512,0,0,0,.7695,1.93,2.5522,2.5522,0,0,0,.85.5742,2.7589,2.7589,0,0,0,1.0684.2061,2.7027,2.7027,0,0,0,1.0449-.2061,2.5522,2.5522,0,0,0,.85-.5742,2.9882,2.9882,0,0,0,.5742-.85,2.48,2.48,0,0,0,.2178-1.0342A2.5562,2.5562,0,0,0,116,126.5132a2.927,2.927,0,0,0-.5742-.8613,2.5046,2.5046,0,0,0-.85-.5733,2.6671,2.6671,0,0,0-1.0449-.207,2.7231,2.7231,0,0,0-1.0684.207,2.5046,2.5046,0,0,0-.85.5733,2.8252,2.8252,0,0,0-.5625.8388A2.5131,2.5131,0,0,0,110.8433,127.5122Z"/><path class="cls-1" d="M127.01,114.3755v8.4512a4.8737,4.8737,0,0,1,3.6748-1.5381,5.77,5.77,0,0,1,2.4.4931,5.6917,5.6917,0,0,1,1.86,1.3321,6.1541,6.1541,0,0,1,1.2051,1.9756,6.95,6.95,0,0,1-.0117,4.88,6.0943,6.0943,0,0,1-1.251,1.9981,5.9776,5.9776,0,0,1-1.8945,1.3437,5.6472,5.6472,0,0,1-2.3545.4942,4.3857,4.3857,0,0,1-3.6289-1.6768v1.31H122.854V114.3755Zm5.2363,13.2051a2.6875,2.6875,0,0,0-.78-1.9063,2.8735,2.8735,0,0,0-.85-.5849,2.5338,2.5338,0,0,0-1.0566-.2178,2.5787,2.5787,0,0,0-1.0332.207,2.5278,2.5278,0,0,0-.8389.5733,2.927,2.927,0,0,0-.5742.8613,2.5562,2.5562,0,0,0-.2178,1.0449,2.5793,2.5793,0,0,0,.78,1.8721,2.927,2.927,0,0,0,.8613.5742,2.5562,2.5562,0,0,0,1.0449.2178,2.6179,2.6179,0,0,0,1.0342-.2061,2.5835,2.5835,0,0,0,.8379-.5742,2.9882,2.9882,0,0,0,.5742-.85A2.4269,2.4269,0,0,0,132.2466,127.5806Z"/><path class="cls-1" d="M138.4478,117.1313a2.2484,2.2484,0,0,1,.1835-.9062,2.3765,2.3765,0,0,1,1.251-1.252,2.3345,2.3345,0,0,1,1.8145,0,2.3741,2.3741,0,0,1,1.2519,1.252,2.3309,2.3309,0,0,1,0,1.8135,2.3744,2.3744,0,0,1-1.2519,1.2519,2.3334,2.3334,0,0,1-1.8145,0,2.3768,2.3768,0,0,1-1.251-1.2519A2.2467,2.2467,0,0,1,138.4478,117.1313Zm4.4316,4.5245V133.438h-4.1563V121.6558Z"/><path class="cls-1" d="M153.3062,124.688a4.8551,4.8551,0,0,0-2.251-.5977,1.6877,1.6877,0,0,0-.93.23.7062.7062,0,0,0-.3555.62.8133.8133,0,0,0,.0567.333.5872.5872,0,0,0,.2529.2413,2.1763,2.1763,0,0,0,.5742.207c.2529.0605.5859.1377.999.23a4.7744,4.7744,0,0,1,2.5723,1.2285,3.1323,3.1323,0,0,1,.85,2.2627,4.1012,4.1012,0,0,1-.4131,1.8594,3.9672,3.9672,0,0,1-1.1484,1.39,5.4582,5.4582,0,0,1-1.7686.8731,7.9159,7.9159,0,0,1-2.2734.31,9.2356,9.2356,0,0,1-4.708-1.3545l1.5156-2.94a5.916,5.916,0,0,0,3.3066,1.1953,1.6261,1.6261,0,0,0,.9424-.2529.7576.7576,0,0,0,.3672-.6436,1.0738,1.0738,0,0,0-.0576-.3789.6172.6172,0,0,0-.2412-.2754,1.9546,1.9546,0,0,0-.54-.2294q-.3561-.1041-.93-.2178a5.3221,5.3221,0,0,1-2.6983-1.16,2.8679,2.8679,0,0,1-.7695-2.125,4.1775,4.1775,0,0,1,.3672-1.7793,3.6882,3.6882,0,0,1,1.0566-1.3437,4.95,4.95,0,0,1,1.6651-.85,7.3886,7.3886,0,0,1,2.17-.2989,9.8588,9.8588,0,0,1,3.79.7579Z"/><path class="cls-1" d="M160.31,127.6274v-4.4785c.1836.0313.3525.0567.5058.08a2.88,2.88,0,0,0,.4365.0352,3.9193,3.9193,0,0,0,1.1709-.1729,3.1612,3.1612,0,0,0,.9532-.4707,2.1937,2.1937,0,0,0,.6318-.7236,1.9344,1.9344,0,0,0,.23-.93,1.7163,1.7163,0,0,0-.46-1.1944,1.5919,1.5919,0,0,0-1.24-.5048,1.4368,1.4368,0,0,0-1.1367.4824,1.8368,1.8368,0,0,0-.4248,1.2617h-4.57a4.8674,4.8674,0,0,1,.4716-2.1465,5.2109,5.2109,0,0,1,1.3086-1.6992,6.086,6.086,0,0,1,1.9746-1.125,7.3473,7.3473,0,0,1,2.47-.4023,6.5624,6.5624,0,0,1,2.4687.4472,6.0687,6.0687,0,0,1,1.917,1.2061,5.348,5.348,0,0,1,1.24,1.7451,5.0042,5.0042,0,0,1,.4366,2.0449q0,3.4439-4.1573,4.8906v1.6543Zm-.459,3.6055a2.6812,2.6812,0,0,1,.207-1.0449,2.642,2.642,0,0,1,1.4346-1.4356,2.7075,2.7075,0,0,1,2.9511.5743,2.6512,2.6512,0,0,1,.5743.8613,2.7407,2.7407,0,0,1,0,2.09,2.6527,2.6527,0,0,1-.5743.8614,2.708,2.708,0,0,1-3.8115,0,2.654,2.654,0,0,1-.5742-.8614A2.6812,2.6812,0,0,1,159.8511,131.2329Z"/></svg>