<svg id="Layer_1" data-name="Layer 1" xmlns="http://www.w3.org/2000/svg" xmlns:xlink="http://www.w3.org/1999/xlink" width="320" height="50" viewBox="0 0 320 50"><defs><style>.cls-1{fill:url(#linear-gradient);}.cls-2{fill:url(#linear-gradient-2);}.cls-3{fill:#fff;}.cls-4{fill:url(#linear-gradient-3);}</style><linearGradient id="linear-gradient" x1="280.6" y1="20.52" x2="280.6" y2="33.95" gradientUnits="userSpaceOnUse"><stop offset="0" stop-color="#ceb467"/><stop offset="1" stop-color="#997f2f"/></linearGradient><linearGradient id="linear-gradient-2" x1="251.44" y1="20.5" x2="251.44" y2="33.97" xlink:href="#linear-gradient"/><linearGradient id="linear-gradient-3" x1="248.13" y1="26.87" x2="277.71" y2="27.13" gradientUnits="userSpaceOnUse"><stop offset="0" stop-color="#ad8f35"/><stop offset="0.19" stop-color="#ceb467"/><stop offset="0.46" stop-color="#a58f4b"/><stop offset="0.76" stop-color="#ceb467"/><stop offset="1" stop-color="#997f2f"/></linearGradient></defs><title>learnmore</title><path class="cls-1" d="M300.67,34H256.88l3.8-6.72-3.8-6.71h43.79l3.65,6.71Zm-42.94-.5h42.64l3.38-6.22L300.37,21H257.73l3.52,6.21Z"/><path class="cls-2" d="M255.4,34l-8,0-3.63-6.73,3.7-6.7,8,0,3.63,6.73Zm-7.7-.54,7.41,0,3.42-6.2L255.17,21l-7.41,0-3.42,6.2Z"/><path class="cls-3" d="M267.26,25.77v2.38h1.56v.55h-2.15V25.77Z"/><path class="cls-3" d="M269.46,28.7V25.77h2.15v.55H270v.62h1.17v.55H270v.66h1.56v.55Z"/><path class="cls-3" d="M272.2,28.7l1.17-2.93H274l1.17,2.93h-.62l-.18-.45H273l-.17.45Zm1.48-2.15-.44,1.11h.87Z"/><path class="cls-3" d="M277.49,27.42l.73,1.28h-.67l-.7-1.21h-.54V28.7h-.58V25.77H277c.68,0,1,.28,1,.84A.75.75,0,0,1,277.49,27.42Zm-1.18-.48h.82c.24,0,.36-.11.36-.32s-.12-.29-.35-.3h-.83Z"/><path class="cls-3" d="M278.68,28.7V25.77h.2l1.83,1.84V25.77h.59V28.7h-.22l-1.81-1.82V28.7Z"/><path class="cls-3" d="M283.59,28.7V25.77h.2l1.27,1.45,1.27-1.45h.19V28.7h-.58V27l-.87,1-.88-1v1.7Z"/><path class="cls-3" d="M287.54,28.28a1.51,1.51,0,0,1,0-2.09,1.4,1.4,0,0,1,1-.42,1.42,1.42,0,0,1,1.05.42,1.54,1.54,0,0,1,0,2.09,1.42,1.42,0,0,1-1.05.42A1.4,1.4,0,0,1,287.54,28.28Zm1-.13a.87.87,0,0,0,.64-.26,1,1,0,0,0,0-1.31.87.87,0,0,0-.64-.26.83.83,0,0,0-.63.26,1,1,0,0,0,0,1.31A.83.83,0,0,0,288.58,28.15Z"/><path class="cls-3" d="M292.4,27.42l.73,1.28h-.67l-.7-1.21h-.53V28.7h-.59V25.77h1.28q1,0,1,.84A.75.75,0,0,1,292.4,27.42Zm-1.17-.48h.82c.23,0,.35-.11.36-.32s-.13-.29-.36-.3h-.82Z"/><path class="cls-3" d="M293.59,28.7V25.77h2.15v.55h-1.56v.62h1.17v.55h-1.17v.66h1.56v.55Z"/><path class="cls-4" d="M254.06,28.91l.08,0-.17.06-.84.35.51-.38h0l0-.09-.09-.15a2.78,2.78,0,0,0,.69-.72l-.68.33.7-.58a1,1,0,0,0,.22-.24,3.38,3.38,0,0,0,.24-.41l-.21.21.26-.56a9,9,0,0,0,.38-1.05,8.74,8.74,0,0,0-1,.66l-.51.38.17-.25a4.26,4.26,0,0,0-.38.35,1.2,1.2,0,0,0-.19.26l-.36.7.13-.64a2.34,2.34,0,0,0-.29.35l-.07.09-.06,0h0l-.5,1,.3-1a3.21,3.21,0,0,0,.09-1.31l-.34.65.17-.78a1.13,1.13,0,0,0,0-.38,6.85,6.85,0,0,0-.13-.79l-.05.38-.15-.55a9.83,9.83,0,0,0-.51-1.4,8.73,8.73,0,0,0-.52,1.4l-.15.55-.05-.38a6.85,6.85,0,0,0-.13.79,1.1,1.1,0,0,0,0,.38l.16.78-.34-.65a3.21,3.21,0,0,0,.1,1.31l.29,1-.5-1h0l-.06,0-.06-.09c-.09-.12-.19-.24-.29-.35l.13.64-.37-.7a1.2,1.2,0,0,0-.19-.26c-.12-.12-.24-.24-.37-.35l.16.25-.51-.38a8,8,0,0,0-1-.66,7.58,7.58,0,0,0,.39,1.05l.25.56-.21-.21a3.45,3.45,0,0,0,.25.41.79.79,0,0,0,.21.24l.7.58-.68-.33a2.78,2.78,0,0,0,.69.72l-.09.15v.09h0l.51.38-.84-.35-.17-.06.08,0h-.72c-.24,0-.47,0-.69,0a6.5,6.5,0,0,0,.59.32l.63.3h-.07l.16,0,1,0-.65.13a2.42,2.42,0,0,0,.47.05h.7l-.41.13.62.11-1,.05h0l-.44.21-.32.18h.93l.83-.37-.42.33.16-.07.08.05h0a1.57,1.57,0,0,0,.36-.21A1.49,1.49,0,0,1,251,30l.14,0a.59.59,0,0,1-.19-.12c-.09-.09-.12-.22,0-.24s.24.12.25.12a.19.19,0,0,0,.06-.12,2.25,2.25,0,0,0,0-.22.8.8,0,0,0,0-.18s-.1-.05-.16-.09a.41.41,0,0,1-.12-.09s0-.11-.06-.18a.75.75,0,0,0,0-.19s-.06-.06-.09-.09a.18.18,0,0,1,0-.08s0,.05.06.06,0,0,.07,0,0,0,0,.08l.07.23c0,.05,0,.09.09.09s0,0,.11,0a.31.31,0,0,1,.15,0s.08,0,.09,0,0-.12,0-.12,0,0,0-.06,0,0,0,0a.12.12,0,1,1,.23,0s0,0,0,0,0,.06,0,.06,0,.09,0,.12.06,0,.09,0a.31.31,0,0,1,.15,0c.07,0,.06,0,.11,0s.08,0,.09-.09a1.44,1.44,0,0,0,.07-.23s0-.07,0-.08,0,0,.07,0,0-.07.06-.06a.13.13,0,0,1,0,.08s-.08.05-.1.09a.75.75,0,0,0,0,.19.49.49,0,0,1,0,.18l-.13.09c-.05,0-.15,0-.16.09a.8.8,0,0,0,0,.18,2.07,2.07,0,0,0,0,.22.19.19,0,0,0,0,.12s.17-.15.26-.12,0,.15,0,.24a.59.59,0,0,1-.19.12l.14,0a1.36,1.36,0,0,1,.41.24,1.61,1.61,0,0,0,.37.21h0l.08-.05.16.07-.42-.33.84.37h.92l-.31-.18-.45-.21h0l-1-.05.62-.11-.4-.13h.69a2.42,2.42,0,0,0,.47-.05l-.65-.13,1,0,.16,0h-.07l.63-.3a5.39,5.39,0,0,0,.59-.32c-.21,0-.45,0-.69,0Z"/></svg>