<svg id="Layer_1" data-name="Layer 1" xmlns="http://www.w3.org/2000/svg" width="300" height="600" viewBox="0 0 300 600"><defs><style>.cls-1{fill:#fff;}</style></defs><title>reflection</title><path class="cls-1" d="M53.73575,330.3874H50.352V307.94365H55.2l3.15,16.09454,3.027-16.09454h4.66347V330.3874H62.65664v-14.1l-2.92441,14.1H57.01641l-3.28066-14.06367Z"/><path class="cls-1" d="M75.36621,307.67412a5.36741,5.36741,0,0,1,5.37715,5.37657v12.24375a5.36542,5.36542,0,0,1-5.37715,5.37656,5.11869,5.11869,0,0,1-3.78339-1.575,5.21043,5.21043,0,0,1-1.55684-3.80156V313.05069a5.3655,5.3655,0,0,1,5.34023-5.37657Zm1.84571,5.31328a1.90989,1.90989,0,0,0-1.93184-1.93007,1.89524,1.89524,0,0,0-1.37226.559,1.84445,1.84445,0,0,0-.57188,1.37109V325.271a1.85114,1.85114,0,0,0,.57188,1.36406,1.88319,1.88319,0,0,0,1.37226.566,1.92157,1.92157,0,0,0,1.93184-1.93008Z"/><path class="cls-1" d="M90.06914,307.94365a5.12775,5.12775,0,0,1,4.14727,1.56329,5.646,5.646,0,0,1,1.16836,3.78984v3.26016a5.21772,5.21772,0,0,1-1.80586,4.02421l2.50781,9.80625H92.4375l-2.06484-8.47734c-.09844.0082-.20039.01172-.307.01172H88.125v8.46562H84.74121V307.94365Zm2.018,5.41407a1.71588,1.71588,0,0,0-1.92539-1.95586H88.125v7.173h2.03672a1.836,1.836,0,0,0,1.36758-.57187,1.89816,1.89816,0,0,0,.55781-1.37109Z"/><path class="cls-1" d="M99.99844,330.3874V307.94365h9.63516V311.328h-6.25078v6.15234h4.56445v3.38438h-4.56445v6.13945h6.25078v3.3832Z"/><path class="cls-1" d="M124.96172,307.94365a5.12516,5.12516,0,0,1,4.1461,1.56329,5.64631,5.64631,0,0,1,1.16953,3.78984v3.26016a5.22163,5.22163,0,0,1-1.80586,4.02421l2.50664,9.80625h-3.64922l-2.06367-8.47734c-.09844.0082-.20039.01172-.307.01172h-1.94063v8.46562h-3.3832V307.94365Zm2.018,5.41407a1.71588,1.71588,0,0,0-1.92539-1.95586h-2.03672v7.173h2.03672a1.836,1.836,0,0,0,1.36758-.57187,1.89816,1.89816,0,0,0,.55781-1.37109Z"/><path class="cls-1" d="M134.891,330.3874V307.94365h9.634V311.328h-6.25078v6.15234h4.56446v3.38438h-4.56446v6.13945H144.525v3.3832Z"/><path class="cls-1" d="M151.24219,330.3874H147.859V307.94365h9.634V311.328h-6.25078v6.15234h4.56445v3.38438h-4.56445Z"/><path class="cls-1" d="M170.0543,330.3874H160.827V307.94365h3.3832v19.08516h5.84414Z"/><path class="cls-1" d="M173.37774,330.3874V307.94365h9.634V311.328h-6.25078v6.15234h4.56445v3.38438h-4.56445v6.13945h6.25078v3.3832Z"/><path class="cls-1" d="M191.71055,330.671a5.33556,5.33556,0,0,1-5.36484-5.35313V313.02608a5.35841,5.35841,0,1,1,10.71679,0v2.55937h-3.50742V312.964a1.95448,1.95448,0,0,0-1.95586-1.95586,1.84665,1.84665,0,0,0-1.36523.573,1.88638,1.88638,0,0,0-.56719,1.38282v12.31758a1.93455,1.93455,0,0,0,1.93242,1.94414,1.89444,1.89444,0,0,0,1.384-.566,1.86293,1.86293,0,0,0,.57187-1.37812v-3.0879h3.50742v3.12422a5.34536,5.34536,0,0,1-5.35195,5.35313Z"/><path class="cls-1" d="M203.98946,311.328h-3.593v-3.38438h10.55625V311.328h-3.58008V330.3874h-3.3832Z"/><path class="cls-1" d="M218.06368,330.3874h-3.38321V307.94365h3.38321Z"/><path class="cls-1" d="M227.40118,307.67412a5.36741,5.36741,0,0,1,5.37773,5.37657v12.24375a5.36542,5.36542,0,0,1-5.37773,5.37656,5.11742,5.11742,0,0,1-3.78282-1.575,5.20992,5.20992,0,0,1-1.55625-3.80156V313.05069a5.36551,5.36551,0,0,1,5.33907-5.37657Zm1.84687,5.31328a1.91087,1.91087,0,0,0-1.93242-1.93007,1.89526,1.89526,0,0,0-1.37227.559,1.84444,1.84444,0,0,0-.57187,1.37109V325.271a1.85113,1.85113,0,0,0,.57187,1.36406,1.88322,1.88322,0,0,0,1.37227.566,1.92257,1.92257,0,0,0,1.93242-1.93008Z"/><path class="cls-1" d="M240.5543,307.94365l4.47891,15.07383V307.94365h3.38437V330.3874H244.793l-4.657-14.37187V330.3874h-3.3832V307.94365Z"/><path class="cls-1" d="M251.75039,327.01709h3.38321v3.38321h-3.38321Z"/></svg>