<svg id="Layer_1" data-name="Layer 1" xmlns="http://www.w3.org/2000/svg" width="300" height="600" viewBox="0 0 300 600"><defs><style>.cls-1{fill:#ab9555;}</style></defs><title>frame4</title><path class="cls-1" d="M73.64862,309.51953v-21.375h4.82324a6.14406,6.14406,0,0,1,3.44336,1.00586,4.68015,4.68015,0,0,1,1.875,2.64209,7.45527,7.45527,0,0,1,.30664,2.2666,5.01953,5.01953,0,0,1-1.1416,3.44336,3.24124,3.24124,0,0,1-1.125.83545A3.74139,3.74139,0,0,1,83.6535,299.957a6.2866,6.2866,0,0,1,.7334,2.11328,8.47654,8.47654,0,0,1,.11914,1.4834,7.13892,7.13892,0,0,1-.7666,3.44238,4.93752,4.93752,0,0,1-4.125,2.52344Zm3.47656-12.64795h1.34668a1.97348,1.97348,0,0,0,2.01172-1.46582,4.178,4.178,0,0,0,.1875-1.34668,2.81674,2.81674,0,0,0-.64746-2.01123,2.03994,2.03994,0,0,0-1.55176-.63037H77.12518Zm0,9.46045h1.34668a2.28691,2.28691,0,0,0,2.26758-1.6875,3.71607,3.71607,0,0,0,.22168-1.33008,4.04263,4.04263,0,0,0-.68262-2.60742,2.19759,2.19759,0,0,0-1.80664-.75H77.12518Z"/><path class="cls-1" d="M90.16425,309.51953v-21.375h9.16992v3.23877H93.385v5.82959h4.34668v3.23828H93.385v5.8291h5.94922v3.23926Z"/><path class="cls-1" d="M119.70136,288.16162a4.90721,4.90721,0,0,1,3.75,1.48291,5.14606,5.14606,0,0,1,1.29589,3.61377v3.102a4.97109,4.97109,0,0,1-1.47461,3.61377,4.82341,4.82341,0,0,1-3.57128,1.49951H117.843v8.0459h-3.22071V288.16162Zm1.92578,5.14746a1.83412,1.83412,0,0,0-.50293-1.34619,1.79,1.79,0,0,0-1.33789-.51172H117.843v6.83545h1.94336a1.76251,1.76251,0,0,0,1.30468-.54541,1.80541,1.80541,0,0,0,.53614-1.3125Z"/><path class="cls-1" d="M135.28046,288.16162a4.91117,4.91117,0,0,1,3.9541,1.48291,5.38639,5.38639,0,0,1,1.1084,3.61377v3.102a4.99159,4.99159,0,0,1-1.72168,3.83545l2.38574,9.32373h-3.4834l-1.95312-8.0459h-2.14844v8.0459h-3.2207V288.16162Zm1.92578,5.14746a1.63467,1.63467,0,0,0-1.84082-1.85791h-1.94336v6.83545h1.94336a1.76255,1.76255,0,0,0,1.30469-.54541,1.80544,1.80544,0,0,0,.53613-1.3125Z"/><path class="cls-1" d="M146.6496,309.51953v-21.375h9.16992v3.23877H149.8703v5.82959H154.217v3.23828H149.8703v5.8291h5.94922v3.23926Z"/><path class="cls-1" d="M171.56952,304.20117a6.0129,6.0129,0,0,1-1.15918,3.81836,4.176,4.176,0,0,1-2.21582,1.5166,6.04161,6.04161,0,0,1-1.79.23926,5.06724,5.06724,0,0,1-3.13672-.9375,5.24459,5.24459,0,0,1-1.64453-2.08887,8.40291,8.40291,0,0,1-.707-3.02539l3.06738-.22168a4.66042,4.66042,0,0,0,.98926,2.707,1.6444,1.6444,0,0,0,1.3291.59961,1.99611,1.99611,0,0,0,1.6875-1.04,2.58589,2.58589,0,0,0,.32422-1.416,3.93153,3.93153,0,0,0-1.21-2.64453q-.95508-.90381-2.86426-2.7124a12.22224,12.22224,0,0,1-2.2666-2.78125,6.42509,6.42509,0,0,1-.71582-3.00245,5.22314,5.22314,0,0,1,1.96-4.41894,4.87229,4.87229,0,0,1,3-.9043,5.45612,5.45612,0,0,1,2.94922.76709,4.43311,4.43311,0,0,1,1.542,1.67041,6.18567,6.18567,0,0,1,.708,2.47168l-3.08594.5625a3.71774,3.71774,0,0,0-.75-2.04541,1.5746,1.5746,0,0,0-1.27832-.52832,1.473,1.473,0,0,0-1.34668.78418,3.02305,3.02305,0,0,0-.375,1.56787,4.70606,4.70606,0,0,0,1.26172,2.98291,10.60425,10.60425,0,0,0,1.43164,1.36377q1.125.9375,1.4834,1.3125a10.96686,10.96686,0,0,1,1.84082,2.35254,9.06766,9.06766,0,0,1,.49414,1.00488A5.872,5.872,0,0,1,171.56952,304.20117Z"/><path class="cls-1" d="M177.12518,309.51953v-21.375h9.16993v3.23877h-5.94922v5.82959h4.34668v3.23828h-4.34668v5.8291h5.94922v3.23926Z"/><path class="cls-1" d="M195.008,288.14453l4.27539,14.36524V288.14453h3.22168v21.375h-3.46l-4.43262-13.6875v13.6875h-3.2207v-21.375Z"/><path class="cls-1" d="M211.40155,291.40039h-3.42578v-3.23877h10.05664v3.23877h-3.40918v18.11914h-3.22168Z"/><path class="cls-1" d="M223.12811,306.31445h3.22071v3.22168h-3.22071Z"/></svg>