<?xml version="1.0" encoding="utf-8"?>
<!-- Generator: Adobe Illustrator 23.0.1, SVG Export Plug-In . SVG Version: 6.00 Build 0)  -->
<svg version="1.1" id="Layer_1" xmlns="http://www.w3.org/2000/svg" xmlns:xlink="http://www.w3.org/1999/xlink" x="0px" y="0px"
	 viewBox="0 0 970 250" enable-background="new 0 0 970 250" xml:space="preserve">
<g>
	<g>
		<g>
			<g>
				<g>
					<linearGradient id="SVGID_1_" gradientUnits="userSpaceOnUse" x1="62.6269" y1="97.5123" x2="203.5088" y2="97.5123">
						<stop  offset="0" style="stop-color:#A88A34"/>
						<stop  offset="0.4932" style="stop-color:#CAAF67"/>
						<stop  offset="1" style="stop-color:#957F2E"/>
					</linearGradient>
					<path fill="url(#SVGID_1_)" d="M124.5,144.73c1.53-0.45,4.31,2.14,4.49,2.14c0.18,0,0.93-1.22,0.93-2.14
						c0-0.92-0.65-2.7-0.78-3.78c-0.12-1.08-0.41-2.42-0.65-3.13c-0.24-0.71-1.9-1.02-2.79-1.57c-0.89-0.55-1.8-1.11-2.25-1.56
						c-0.45-0.45-0.83-1.99-0.96-3.26c-0.13-1.27-0.23-2.74-0.54-3.32c-0.31-0.58-1.11-0.99-1.65-1.53
						c-0.54-0.54-0.56-1.43-0.56-1.43c0.41-0.13,0.54,0.94,1.02,1.03s0.45,0.48,1.19,0.74c0.75,0.26,0.78,0.61,0.87,1.31
						c0.1,0.7,0.94,3.05,1.21,4.02c0.28,0.96,0.57,1.69,1.52,1.72c0.95,0.03,0.82,0.52,1.94,0.43c1.12-0.09,2.08,0.3,2.68,0.52
						c0.6,0.21,1.36,0.23,1.61-0.19c0.26-0.42-0.18-2.11-0.18-2.11c-0.39,0-0.45-0.52-0.6-1.01c-0.15-0.48,0.09-0.52,0.09-0.52
						c-0.19-1.87,1.11-2.67,1.95-2.67c0.84,0,2.14,0.8,1.95,2.67c0,0,0.24,0.04,0.09,0.52c-0.15,0.48-0.21,1.01-0.6,1.01
						c0,0-0.44,1.69-0.18,2.11c0.26,0.42,1.01,0.4,1.61,0.19c0.6-0.21,1.56-0.61,2.68-0.52c1.12,0.09,0.99-0.4,1.94-0.43
						c0.95-0.03,1.24-0.76,1.52-1.72c0.28-0.96,1.12-3.32,1.21-4.02c0.1-0.7,0.12-1.05,0.87-1.31c0.75-0.26,0.72-0.65,1.19-0.74
						s0.61-1.16,1.02-1.03c0,0-0.02,0.89-0.56,1.43c-0.54,0.54-1.34,0.95-1.65,1.53c-0.31,0.58-0.41,2.05-0.54,3.32
						c-0.13,1.27-0.51,2.82-0.96,3.26c-0.45,0.45-1.36,1.01-2.25,1.56c-0.89,0.55-2.55,0.86-2.79,1.57
						c-0.24,0.71-0.53,2.05-0.65,3.13c-0.12,1.08-0.78,2.86-0.78,3.78c0,0.92,0.74,2.14,0.93,2.14c0.18,0,2.96-2.6,4.49-2.14
						c1.53,0.45,0.92,2.6-0.67,4.18c-1.15,1.15-2.15,1.79-3.29,2.05c0.96,0.12,1.81,0.28,2.5,0.47c2.19,0.61,4.6,2.29,7.14,4.07
						c2.28,1.6,4.64,3.25,6.36,3.72c0.11,0.03,0.4,0.11,0.62,0.14c0.22-0.18,1.36-0.84,1.36-0.84c0.92,0.46,1.88,0.87,2.88,1.23
						l-7.33-5.65l14.53,6.32c0.24,0.1,0.48,0.2,0.72,0.28l8.78,0.16c2.31,0.04,4.58-0.06,6.69-0.22c-1.7-1.05-3.55-2.1-5.53-3.07
						l-7.7-3.77c-0.26-0.03-0.52-0.06-0.79-0.07l-16.8-1.01l10.91-1.9l-7.07-2.3l12.11-0.08c2.75-0.02,5.54-0.33,8.27-0.91
						l-11.44-2.18l16.77-0.74c0.99-0.04,1.94-0.17,2.81-0.36l-1.27,0.15l11.07-5.19c3.75-1.76,7.18-3.72,10.25-5.63
						c-3.7-0.41-7.75-0.73-11.99-0.73l-12.58,0.03l1.4-0.46c-1.18,0.23-2.24,0.61-2.97,0.92l-14.68,6.12l8.88-6.62l-0.07,0.01
						l-0.2-1.53l-1.61-2.66c4.67-3.45,8.82-7.74,12.09-12.48l-11.87,5.68l12.09-10.07c1.58-1.32,2.91-2.76,3.84-4.16
						c1.56-2.36,3.01-4.77,4.33-7.21l-3.75,3.7l4.49-9.77c2.93-6.38,5.01-12.69,6.65-18.38c-5.63,3.17-11.81,6.93-17.81,11.48
						l-8.8,6.67l2.81-4.37c-2.28,1.93-4.48,3.98-6.57,6.1c-1.52,1.54-2.6,3.32-3.24,4.54l-6.42,12.3l2.28-11.23
						c-1.83,1.88-3.54,3.92-5.09,6.09l-1.12,1.56l-1.03-0.7c-0.05,0.07-0.1,0.16-0.16,0.27l-8.82,16.73l5.2-18.19
						c2.08-7.28,2.68-15.17,1.73-22.82l-6.08,11.29l2.94-13.59c0.36-1.66,0.73-4.19,0.46-6.78c-0.49-4.63-1.27-9.23-2.33-13.71
						l-0.8,6.67l-2.64-9.72c-2.44-8.98-5.79-17.22-9.01-24.38c-3.22,7.16-6.57,15.41-9.01,24.38l-2.64,9.72l-0.8-6.67
						c-1.06,4.48-1.85,9.08-2.33,13.71c-0.27,2.59,0.1,5.12,0.46,6.78l2.94,13.59l-6.07-11.3c-0.95,7.66-0.36,15.54,1.73,22.82
						l5.2,18.19l-8.82-16.73c-0.06-0.1-0.11-0.19-0.16-0.27l-1.03,0.7l-1.12-1.56c-1.55-2.16-3.26-4.2-5.09-6.09l2.28,11.23
						l-6.42-12.3c-0.63-1.22-1.71-2.99-3.24-4.54c-2.1-2.12-4.29-4.16-6.57-6.09l2.81,4.37l-8.81-6.68
						c-6-4.55-12.18-8.31-17.81-11.48c1.63,5.69,3.71,12,6.65,18.38l4.49,9.77l-3.75-3.7c1.32,2.44,2.77,4.86,4.33,7.21
						c0.93,1.41,2.26,2.84,3.84,4.16l12.09,10.07l-11.87-5.68c3.27,4.74,7.42,9.03,12.09,12.48l-1.61,2.66l-0.2,1.53l-0.07-0.01
						l8.88,6.62l-14.68-6.12c-0.73-0.3-1.79-0.68-2.97-0.92l1.4,0.46l-12.58-0.03c-4.24,0-8.29,0.31-11.99,0.73
						c3.07,1.91,6.5,3.87,10.25,5.63l11.07,5.19l-1.27-0.15c0.86,0.19,1.82,0.31,2.81,0.36l16.77,0.74l-11.44,2.18
						c2.72,0.58,5.52,0.89,8.27,0.91l12.14,0.08l-7.1,2.3l10.91,1.9l-16.8,1.01c-0.27,0.02-0.53,0.04-0.79,0.07l-7.71,3.77
						c-1.98,0.97-3.82,2.02-5.52,3.07c2.11,0.16,4.39,0.26,6.69,0.22l8.78-0.16c0.24-0.09,0.48-0.18,0.72-0.28l14.53-6.32
						l-7.33,5.65c1-0.36,1.96-0.77,2.88-1.23c0,0,1.14,0.66,1.36,0.84c0.22-0.03,0.51-0.1,0.62-0.13c1.73-0.47,4.09-2.12,6.37-3.72
						c2.54-1.78,4.94-3.46,7.14-4.07c0.69-0.19,1.54-0.35,2.5-0.47c-1.14-0.26-2.14-0.9-3.29-2.05
						C123.58,147.32,122.97,145.18,124.5,144.73z"/>
					<g>
						<linearGradient id="SVGID_2_" gradientUnits="userSpaceOnUse" x1="205.6461" y1="401.6942" x2="205.6461" y2="165.3961">
							<stop  offset="0" style="stop-color:#A88A34"/>
							<stop  offset="0.4989" style="stop-color:#CAAF67"/>
							<stop  offset="1" style="stop-color:#957F2E"/>
						</linearGradient>
						<polygon fill="url(#SVGID_2_)" points="214.07,174.42 214.07,170.14 197.22,170.15 197.22,193.06 214.04,193.06 
							214.04,188.78 201.81,188.78 201.81,183.57 211,183.57 211,179.31 201.81,179.31 201.81,174.42 						"/>
						<linearGradient id="SVGID_3_" gradientUnits="userSpaceOnUse" x1="140.1904" y1="278.6789" x2="140.1904" y2="104.2033">
							<stop  offset="0" style="stop-color:#A88A34"/>
							<stop  offset="0.4989" style="stop-color:#CAAF67"/>
							<stop  offset="1" style="stop-color:#957F2E"/>
						</linearGradient>
						<path fill="url(#SVGID_3_)" d="M137.91,170.14l-9.17,22.93h4.89l1.38-3.52h10.39l1.38,3.52l4.88-0.02l-9.15-22.91H137.91z
							 M136.84,184.96l3.49-8.71l3.39,8.71H136.84z"/>
						<linearGradient id="SVGID_4_" gradientUnits="userSpaceOnUse" x1="162.3607" y1="338.5204" x2="162.3607" y2="108.911">
							<stop  offset="0" style="stop-color:#A88A34"/>
							<stop  offset="0.4989" style="stop-color:#CAAF67"/>
							<stop  offset="1" style="stop-color:#957F2E"/>
						</linearGradient>
						<path fill="url(#SVGID_4_)" d="M168.7,181.22c-1.58-1.07-3.34-1.71-5.27-1.91c-1.83-0.31-3.01-0.76-3.52-1.38
							c-0.51-0.61-0.51-1.35,0-2.22c0.51-0.87,1.68-1.3,3.52-1.3c1.83,0,3.26,0.61,4.28,1.83l3.06-3.06
							c-1.02-1.02-2.11-1.78-3.29-2.29c-1.17-0.51-2.82-0.76-4.95-0.76c-1.83,0-3.62,0.61-5.36,1.84c-1.74,1.23-2.61,2.86-2.61,4.88
							c0,2.24,0.76,3.82,2.29,4.74c1.53,0.92,3.21,1.48,5.04,1.68c2.04,0.2,3.31,0.74,3.81,1.6c0.5,0.87,0.5,1.73,0,2.6
							c-0.5,0.87-1.78,1.3-3.81,1.3c-2.45-0.2-4.18-0.92-5.2-2.14l-3.06,3.06c1.02,1.02,2.24,1.83,3.67,2.45
							c1.43,0.61,3.2,0.92,5.33,0.92c2.24,0,4.21-0.66,5.89-1.99c1.69-1.32,2.53-2.9,2.53-4.74
							C171.07,184,170.28,182.29,168.7,181.22z"/>
						<linearGradient id="SVGID_5_" gradientUnits="userSpaceOnUse" x1="183.9424" y1="343.7513" x2="183.9424" y2="142.7688">
							<stop  offset="0" style="stop-color:#A88A34"/>
							<stop  offset="0.4989" style="stop-color:#CAAF67"/>
							<stop  offset="1" style="stop-color:#957F2E"/>
						</linearGradient>
						<polygon fill="url(#SVGID_5_)" points="174.01,174.42 181.65,174.42 181.65,193.06 186.23,193.06 186.23,174.42 
							193.88,174.42 193.88,170.14 174.01,170.14 						"/>
						<linearGradient id="SVGID_6_" gradientUnits="userSpaceOnUse" x1="62.3086" y1="202.8506" x2="62.3086" y2="8.661">
							<stop  offset="0" style="stop-color:#A88A34"/>
							<stop  offset="0.4989" style="stop-color:#CAAF67"/>
							<stop  offset="1" style="stop-color:#957F2E"/>
						</linearGradient>
						<polygon fill="url(#SVGID_6_)" points="67.96,184.5 53.6,170.14 52.07,170.14 52.07,193.06 56.65,193.06 56.65,178.85 
							70.87,193.06 72.55,193.06 72.55,170.14 67.96,170.14 						"/>
						<linearGradient id="SVGID_7_" gradientUnits="userSpaceOnUse" x1="113.9014" y1="251.9084" x2="113.9014" y2="78.4495">
							<stop  offset="0" style="stop-color:#A88A34"/>
							<stop  offset="0.4989" style="stop-color:#CAAF67"/>
							<stop  offset="1" style="stop-color:#957F2E"/>
						</linearGradient>
						<polygon fill="url(#SVGID_7_)" points="113.89,181.45 103.96,170.14 102.43,170.14 102.43,193.06 107.02,193.06 
							107.02,179.77 113.89,187.41 120.77,179.77 120.79,193.06 125.37,193.06 125.37,170.14 123.84,170.14 						"/>
						<linearGradient id="SVGID_8_" gradientUnits="userSpaceOnUse" x1="87.5506" y1="226.0039" x2="87.5506" y2="51.5289">
							<stop  offset="0" style="stop-color:#A88A34"/>
							<stop  offset="0.4989" style="stop-color:#CAAF67"/>
							<stop  offset="1" style="stop-color:#957F2E"/>
						</linearGradient>
						<path fill="url(#SVGID_8_)" d="M85.27,170.14l-9.17,22.93h4.89l1.38-3.52h10.39l1.38,3.52l4.88-0.02l-9.16-22.91H85.27z
							 M84.2,184.96l3.48-8.71l3.39,8.71H84.2z"/>
					</g>
				</g>
				<linearGradient id="SVGID_9_" gradientUnits="userSpaceOnUse" x1="214.9861" y1="164.916" x2="224.6914" y2="164.916">
					<stop  offset="0" style="stop-color:#A88A34"/>
					<stop  offset="0.1878" style="stop-color:#CAAF67"/>
					<stop  offset="0.461" style="stop-color:#A08A4A"/>
					<stop  offset="0.7634" style="stop-color:#CAAF67"/>
					<stop  offset="1" style="stop-color:#957F2E"/>
				</linearGradient>
				<path fill="url(#SVGID_9_)" d="M217.36,163.21v4.16h-0.83v-4.16h-1.55v-0.74h3.93v0.74H217.36z M223.93,167.37l-0.01-3.66
					l-1.55,3.15h-0.54l-1.55-3.15v3.66h-0.78v-4.9h0.98l1.62,3.26l1.61-3.26h0.97v4.9H223.93z"/>
			</g>
		</g>
		<g>
			<path fill="#A89255" d="M90.65,209.5c1,0.67,1.53,1.54,1.59,2.61c-0.1,2.15-1.25,3.28-3.44,3.41l-6.41-0.01v-11.38h6.05
				c1.92,0.11,2.93,1.23,3.04,3.35C91.43,208.49,91.16,209.17,90.65,209.5z M84.67,208.69h3.19c0.92-0.02,1.39-0.49,1.41-1.42
				c-0.02-0.56-0.49-0.85-1.39-0.88h-3.21V208.69z M84.67,213.74h3.72c1.07-0.02,1.62-0.56,1.64-1.65
				c-0.02-0.73-0.56-1.11-1.62-1.14h-3.74V213.74z"/>
			<path fill="#A89255" d="M93.84,204.12h2.67l2.64,3.72l2.7-3.72h2.61l-4.18,5.7v5.7h-2.28v-5.7L93.84,204.12z"/>
			<path fill="#A89255" d="M120.4,215.51h-9.12l0.01-0.76l5.31-8.51h-5.31l-0.01-2.13h9.12v0.84l-5.33,8.43h5.33V215.51z"/>
			<path fill="#A89255" d="M123.27,215.51v-11.38l8.37-0.01v2.13h-6.09v2.43h4.56v2.12h-4.56v2.59h6.08v2.13H123.27z"/>
			<path fill="#A89255" d="M133.93,215.51v-11.39h0.76l7.14,7.14v-7.14h2.28v11.39h-0.84l-7.06-7.06v7.06H133.93z"/>
			<path fill="#A89255" d="M145.87,215.51l4.56-11.39h2.28l4.55,11.38l-2.42,0.01l-0.68-1.75h-5.16l-0.68,1.75H145.87z
				 M151.63,207.16l-1.73,4.33h3.42L151.63,207.16z"/>
			<path fill="#A89255" d="M167.04,209.5c1,0.67,1.53,1.54,1.59,2.61c-0.1,2.15-1.25,3.28-3.44,3.41l-6.41-0.01v-11.38h6.05
				c1.92,0.11,2.93,1.23,3.04,3.35C167.83,208.49,167.55,209.17,167.04,209.5z M161.06,208.69h3.19c0.92-0.02,1.39-0.49,1.41-1.42
				c-0.02-0.56-0.49-0.85-1.39-0.88h-3.21V208.69z M161.06,213.74h3.72c1.07-0.02,1.62-0.56,1.64-1.65
				c-0.02-0.73-0.56-1.11-1.62-1.14h-3.75V213.74z"/>
			<path fill="#A89255" d="M170.9,204.11h2.27v11.4h-2.27V204.11z"/>
			<path fill="#A89255" d="M181.62,204.5c0.58,0.25,1.13,0.63,1.63,1.14l-1.52,1.52c-0.51-0.61-1.22-0.91-2.13-0.91
				s-1.49,0.21-1.75,0.65c-0.25,0.43-0.25,0.8,0,1.1c0.25,0.3,0.84,0.53,1.75,0.68c0.96,0.1,1.84,0.42,2.62,0.95
				c0.78,0.53,1.18,1.38,1.18,2.54c0,0.91-0.42,1.7-1.26,2.35c-0.84,0.66-1.81,0.99-2.93,0.99c-1.06,0-1.94-0.15-2.65-0.46
				c-0.71-0.3-1.31-0.71-1.82-1.22l1.52-1.52c0.51,0.61,1.37,0.96,2.58,1.06c1.01,0,1.64-0.21,1.89-0.65c0.25-0.43,0.25-0.86,0-1.29
				c-0.25-0.43-0.88-0.7-1.89-0.8c-0.91-0.1-1.75-0.38-2.51-0.84c-0.76-0.46-1.14-1.24-1.14-2.35c0-1.01,0.43-1.82,1.3-2.43
				c0.86-0.61,1.75-0.92,2.66-0.92C180.22,204.12,181.04,204.25,181.62,204.5z"/>
		</g>
	</g>
	<rect x="52.07" y="209.65" fill="#A89255" width="20.48" height="2.49"/>
	<rect x="193.59" y="209.65" fill="#A89255" width="20.48" height="2.49"/>
</g>
<g>
	
		<linearGradient id="SVGID_10_" gradientUnits="userSpaceOnUse" x1="-766.072" y1="133.3373" x2="-559.9855" y2="133.3373" gradientTransform="matrix(1 0 0 1 1531.827 0)">
		<stop  offset="0" style="stop-color:#A88A34"/>
		<stop  offset="0.1878" style="stop-color:#CAAF67"/>
		<stop  offset="0.461" style="stop-color:#A08A4A"/>
		<stop  offset="0.7634" style="stop-color:#CAAF67"/>
		<stop  offset="1" style="stop-color:#957F2E"/>
	</linearGradient>
	<polygon fill="url(#SVGID_10_)" points="778.02,114.95 765.76,133.34 778.02,151.73 971.84,151.73 971.84,114.95 	"/>
	<g>
		<path fill="#FFFFFF" d="M799.64,127.63v9.22h6.05v2.12h-8.31v-11.34H799.64z"/>
		<path fill="#FFFFFF" d="M807.53,138.97v-11.33l8.33-0.01v2.12h-6.06v2.42h4.54v2.11h-4.54v2.58h6.05v2.12H807.53z"/>
		<path fill="#FFFFFF" d="M817.54,138.97l4.54-11.34h2.27l4.53,11.33l-2.41,0.01l-0.68-1.74h-5.14l-0.68,1.74H817.54z
			 M823.27,130.66l-1.72,4.31h3.4L823.27,130.66z"/>
		<path fill="#FFFFFF" d="M837.39,134.03l2.83,4.94h-2.6l-2.71-4.69h-2.07v4.69h-2.27v-11.34h4.94c2.65,0,3.97,1.09,3.97,3.27
			C839.48,132.54,838.78,133.58,837.39,134.03z M832.83,132.17h3.17c0.91-0.01,1.38-0.43,1.41-1.25c-0.02-0.75-0.49-1.13-1.38-1.16
			h-3.2V132.17z"/>
		<path fill="#FFFFFF" d="M841.4,138.97v-11.34h0.76l7.11,7.11v-7.11h2.27v11.34h-0.83l-7.03-7.03v7.03H841.4z"/>
		<path fill="#FFFFFF" d="M859.17,138.97v-11.34h0.76l4.91,5.59l4.92-5.59h0.76v11.34h-2.27l-0.01-6.58l-3.4,3.78l-3.4-3.78v6.58
			H859.17z"/>
		<path fill="#FFFFFF" d="M873.83,137.34c-1.08-1.09-1.63-2.43-1.63-4.04c0-1.61,0.54-2.96,1.63-4.04c1.08-1.08,2.43-1.63,4.04-1.63
			s2.96,0.54,4.04,1.63c1.08,1.08,1.63,2.43,1.63,4.04s-0.54,2.96-1.63,4.04c-1.08,1.08-2.43,1.63-4.04,1.63
			S874.91,138.43,873.83,137.34z M877.88,136.86c1,0,1.82-0.34,2.45-1.02c0.63-0.68,0.95-1.52,0.95-2.53s-0.32-1.85-0.95-2.53
			s-1.45-1.02-2.46-1.02c-1,0-1.82,0.34-2.45,1.02s-0.94,1.52-0.94,2.53s0.31,1.85,0.94,2.53
			C876.04,136.51,876.86,136.86,877.88,136.86z"/>
		<path fill="#FFFFFF" d="M892.05,134.03l2.83,4.94h-2.6l-2.71-4.69h-2.07v4.69h-2.27v-11.34h4.94c2.65,0,3.97,1.09,3.97,3.27
			C894.13,132.54,893.44,133.58,892.05,134.03z M887.49,132.17h3.17c0.91-0.01,1.38-0.43,1.41-1.25c-0.02-0.75-0.49-1.13-1.38-1.16
			h-3.2V132.17z"/>
		<path fill="#FFFFFF" d="M896.02,138.97v-11.33l8.33-0.01v2.12h-6.06v2.42h4.54v2.11h-4.54v2.58h6.05v2.12H896.02z"/>
	</g>
</g>
<g>
</g>
<g>
</g>
<g>
</g>
<g>
</g>
<g>
</g>
<g>
</g>
<g>
</g>
<g>
</g>
<g>
</g>
<g>
</g>
<g>
</g>
<g>
</g>
<g>
</g>
<g>
</g>
<g>
</g>
</svg>
