<svg id="Layer_1" data-name="Layer 1" xmlns="http://www.w3.org/2000/svg" width="375" height="132" viewBox="0 0 375 132"><defs><style>.cls-1{fill:#fff;}</style></defs><title>rest</title><path class="cls-1" d="M189.204,87.27839h-1.7928V75.38927h2.56816L191.648,83.915l1.60347-8.52575h2.4707V87.27839h-1.79281V79.80858l-1.54884,7.46981h-1.439L189.204,79.82783Z"/><path class="cls-1" d="M200.66163,75.24587a2.84327,2.84327,0,0,1,2.84876,2.84812v6.48588a2.84223,2.84223,0,0,1-2.84876,2.84813,2.71085,2.71085,0,0,1-2.00386-.83432,2.75886,2.75886,0,0,1-.82439-2.01381V78.094a2.84333,2.84333,0,0,1,2.82825-2.84812Zm.97835,2.8146a1.01326,1.01326,0,0,0-1.02366-1.02242,1.00211,1.00211,0,0,0-.72693.29673.97668.97668,0,0,0-.30294.72569v6.507a.981.981,0,0,0,.30294.7232.99947.99947,0,0,0,.72693.29922A1.0174,1.0174,0,0,0,201.64,84.56746Z"/><path class="cls-1" d="M208.45053,75.38927a2.7147,2.7147,0,0,1,2.19631.82749,2.991,2.991,0,0,1,.61954,2.0076V79.952a2.76477,2.76477,0,0,1-.95662,2.13113l1.32784,5.19528h-1.9331l-1.09319-4.49132c-.05214.00435-.10615.00683-.16265.00683h-1.028v4.48449h-1.79218V75.38927Zm1.069,2.868a.90915.90915,0,0,0-1.01994-1.0367h-1.07891V81.021h1.07891a.97492.97492,0,0,0,.72445-.30294,1.00589,1.00589,0,0,0,.29549-.72693Z"/><path class="cls-1" d="M213.71038,87.27839V75.38927h5.10341v1.79218h-3.31123v3.25908h2.41793v1.79281h-2.41793v3.25225h3.31123v1.7928Z"/><path class="cls-1" d="M226.93355,75.38927a2.7147,2.7147,0,0,1,2.19631.82749,2.991,2.991,0,0,1,.61954,2.0076V79.952a2.76477,2.76477,0,0,1-.95662,2.13113l1.32784,5.19528h-1.9331l-1.09319-4.49132c-.05215.00435-.10615.00683-.16264.00683h-1.028v4.48449H224.1115V75.38927Zm1.069,2.868a.90915.90915,0,0,0-1.01994-1.0367h-1.07891V81.021h1.07891a.97492.97492,0,0,0,.72445-.30294,1.00589,1.00589,0,0,0,.29549-.72693Z"/><path class="cls-1" d="M232.1934,87.27839V75.38927h5.10341v1.79218h-3.31123v3.25908h2.41793v1.79281h-2.41793v3.25225h3.31123v1.7928Z"/><path class="cls-1" d="M244.98761,84.32536a3.33233,3.33233,0,0,1-.6456,2.12492,2.29253,2.29253,0,0,1-1.23163.84115,3.29474,3.29474,0,0,1-.997.13657,2.81726,2.81726,0,0,1-1.74687-.52145,2.97078,2.97078,0,0,1-.91254-1.16334,4.57242,4.57242,0,0,1-.39109-1.69162l1.70093-.11732a2.58126,2.58126,0,0,0,.55373,1.49917.90884.90884,0,0,0,.73686.33274,1.11712,1.11712,0,0,0,.93862-.5736,1.442,1.442,0,0,0,.18251-.789,2.19739,2.19739,0,0,0-.67106-1.47931q-.53543-.5019-1.59726-1.506a6.60107,6.60107,0,0,1-1.25832-1.5445,3.57974,3.57974,0,0,1-.3973-1.66865,2.90407,2.90407,0,0,1,1.08885-2.45765,2.7059,2.7059,0,0,1,1.66865-.50159,3.02673,3.02673,0,0,1,1.64257.4302,2.47663,2.47663,0,0,1,.85357.92868,3.51382,3.51382,0,0,1,.39792,1.37192l-1.7208.31287a2.01719,2.01719,0,0,0-.41716-1.13416.87061.87061,0,0,0-.71079-.29984.82513.82513,0,0,0-.74928.437,1.682,1.682,0,0,0-.20858.87343,2.62512,2.62512,0,0,0,.704,1.66183,6.26671,6.26671,0,0,0,.7946.7561q.62574.52146.82812.73a6.311,6.311,0,0,1,1.023,1.31046,4.80013,4.80013,0,0,1,.27438.56056A3.34165,3.34165,0,0,1,244.98761,84.32536Z"/><path class="cls-1" d="M248.657,77.18145h-1.9033V75.38927h5.592v1.79218h-1.89648V87.27839H248.657Z"/><path class="cls-1" d="M254.11242,85.49242h1.79218V87.2846h-1.79218Z"/></svg>