<svg id="Layer_1" data-name="Layer 1" xmlns="http://www.w3.org/2000/svg" width="970" height="250" viewBox="0 0 970 250"><defs><style>.cls-1{fill:#fff;}</style></defs><title>rest</title><path class="cls-1" d="M490.59985,169.256h-3.50157V146.035h5.01593l3.25908,16.65186,3.13177-16.65186h4.82558V169.256h-3.50158V154.66651L496.804,169.256h-2.81047l-3.39367-14.5519Z"/><path class="cls-1" d="M512.97813,145.755a5.55328,5.55328,0,0,1,5.564,5.56275v12.66773a5.55123,5.55123,0,0,1-5.564,5.56275,5.29459,5.29459,0,0,1-3.91379-1.62954,5.38837,5.38837,0,0,1-1.61014-3.93321V151.31771a5.5534,5.5534,0,0,1,5.52393-5.56275Zm1.91084,5.49727a1.979,1.979,0,0,0-1.99934-1.99691,1.95717,1.95717,0,0,0-1.41978.57955,1.90754,1.90754,0,0,0-.59168,1.41736v12.709a1.916,1.916,0,0,0,.59168,1.41251,1.952,1.952,0,0,0,1.41978.58441,1.9871,1.9871,0,0,0,1.99934-1.99692Z"/><path class="cls-1" d="M528.19082,146.035a5.30215,5.30215,0,0,1,4.28967,1.6162,5.84186,5.84186,0,0,1,1.21,3.92108v3.37427a5.4,5.4,0,0,1-1.86839,4.16236l2.59344,10.147H530.64l-2.13513-8.77212c-.10185.00849-.20733.01334-.31768.01334h-2.00781V169.256H522.679V146.035Zm2.08785,5.60154a1.77569,1.77569,0,0,0-1.99206-2.0248h-2.10725v7.42265h2.10725a1.90411,1.90411,0,0,0,1.41493-.59167,1.96465,1.96465,0,0,0,.57713-1.41979Z"/><path class="cls-1" d="M538.464,169.256V146.035h9.96759v3.50036h-6.46723v6.36539h4.72251v3.50157h-4.72251v6.35205h6.46723V169.256Z"/><path class="cls-1" d="M564.29047,146.035a5.30216,5.30216,0,0,1,4.28967,1.6162,5.84186,5.84186,0,0,1,1.21,3.92108v3.37427a5.4,5.4,0,0,1-1.86839,4.16236l2.59344,10.147h-3.77559l-2.13513-8.77212c-.10186.00849-.20733.01334-.31767.01334H562.279V169.256h-3.50036V146.035Zm2.08785,5.60154a1.77569,1.77569,0,0,0-1.99206-2.0248H562.279v7.42265h2.10725a1.90413,1.90413,0,0,0,1.41493-.59167,1.96465,1.96465,0,0,0,.57713-1.41979Z"/><path class="cls-1" d="M574.56361,169.256V146.035h9.96759v3.50036H578.064v6.36539h4.72251v3.50157H578.064v6.35205h6.46723V169.256Z"/><path class="cls-1" d="M599.55231,163.48833a6.50847,6.50847,0,0,1-1.26095,4.15024,4.47763,4.47763,0,0,1-2.40551,1.64288,6.435,6.435,0,0,1-1.94721.26674,5.50243,5.50243,0,0,1-3.41185-1.01847,5.80223,5.80223,0,0,1-1.7823-2.27214,8.93064,8.93064,0,0,1-.76385-3.30394l3.32213-.22915a5.04165,5.04165,0,0,0,1.08151,2.92808,1.77508,1.77508,0,0,0,1.43918.64987,2.18178,2.18178,0,0,0,1.83323-1.12031,2.81636,2.81636,0,0,0,.35647-1.541,4.29179,4.29179,0,0,0-1.31067-2.88928q-1.04574-.98027-3.11965-2.94141a12.89257,12.89257,0,0,1-2.45764-3.01659,6.99163,6.99163,0,0,1-.776-3.25908,5.67206,5.67206,0,0,1,2.12665-4.80012,5.285,5.285,0,0,1,3.25908-.97966,5.91166,5.91166,0,0,1,3.20816.84023,4.83736,4.83736,0,0,1,1.66713,1.81384,6.863,6.863,0,0,1,.77718,2.67952l-3.36093.61108a3.93984,3.93984,0,0,0-.81477-2.21516,1.70039,1.70039,0,0,0-1.38826-.58561,1.61152,1.61152,0,0,0-1.46343.85357,3.28506,3.28506,0,0,0-.40739,1.70592,5.127,5.127,0,0,0,1.37493,3.24574,12.23789,12.23789,0,0,0,1.55194,1.47678q1.22216,1.01845,1.61742,1.42584a12.32631,12.32631,0,0,1,1.99812,2.5595,9.37514,9.37514,0,0,1,.53591,1.09484A6.52652,6.52652,0,0,1,599.55231,163.48833Z"/><path class="cls-1" d="M606.71914,149.5354h-3.71739V146.035h10.9218v3.50036h-3.704V169.256h-3.50036Z"/><path class="cls-1" d="M617.3742,165.76775h3.50036v3.50036H617.3742Z"/></svg>