<svg id="Content" xmlns="http://www.w3.org/2000/svg" width="300" height="600" viewBox="0 0 300 600"><defs><style>.cls-1{fill:#ba9544;}</style></defs><title>Frame1 - Ultra Sour</title><path class="cls-1" d="M94.43066,255.78116v27.9004c0,2.583,1.13672,3.51269,2.94483,3.51269,1.80859,0,2.94482-.92969,2.94482-3.51269v-27.9004h5.37354v27.53809c0,5.78711-2.89356,9.09375-8.47315,9.09375-5.58008,0-8.47363-3.30664-8.47363-9.09375V255.78116Z"/><path class="cls-1" d="M115.04443,255.78116h5.68311v31h9.35156v5.167H115.04443Z"/><path class="cls-1" d="M136.38037,255.78116h17.5669v5.167h-5.9419v31h-5.6831v-31h-5.9419Z"/><path class="cls-1" d="M173.78516,291.94816c-.31055-.93067-.51661-1.499-.51661-4.44336v-5.6836c0-3.35839-1.13671-4.59863-3.71972-4.59863H167.585v14.72559h-5.68359v-36.167h8.57715c5.88964,0,8.42187,2.73829,8.42187,8.31836v2.8418c0,3.71973-1.18848,6.14844-3.7207,7.33691,2.84179,1.18848,3.77246,3.92676,3.77246,7.69825v5.58008a10.65134,10.65134,0,0,0,.61914,4.3916Zm-6.2002-31v11.1084h2.22168c2.11816,0,3.41016-.92969,3.41016-3.82325v-3.56543c0-2.583-.87793-3.71972-2.89356-3.71972Z"/><path class="cls-1" d="M206.54,291.94816h-5.73535l-.98145-6.56153h-6.97558l-.98145,6.56153h-5.21777l5.78613-36.167h8.31836Zm-12.96875-11.46973h5.47656l-2.73828-18.29Z"/><path class="cls-1" d="M107.96631,305.36808c5.52832,0,8.36963,3.30664,8.36963,9.09375v1.13672h-5.373v-1.499c0-2.583-1.0332-3.56445-2.8418-3.56445-1.8081,0-2.8413.98145-2.8413,3.56445,0,7.44043,11.10791,8.835,11.10791,19.168,0,5.78711-2.89307,9.09375-8.47315,9.09375s-8.47314-3.30664-8.47314-9.09375v-2.2207h5.373v2.583c0,2.583,1.13672,3.51269,2.94483,3.51269,1.80859,0,2.94531-.92968,2.94531-3.51269,0-7.44043-11.1084-8.835-11.1084-19.168C99.59619,308.67472,102.438,305.36808,107.96631,305.36808Z"/><path class="cls-1" d="M124.65283,314.46183c0-5.78711,3.04834-9.09375,8.62842-9.09375s8.62842,3.30664,8.62842,9.09375v18.80566c0,5.78711-3.04834,9.09375-8.62842,9.09375s-8.62842-3.30664-8.62842-9.09375Zm5.6836,19.168c0,2.583,1.13623,3.56445,2.94482,3.56445,1.80811,0,2.94482-.98144,2.94482-3.56445V314.09952c0-2.583-1.13671-3.56445-2.94482-3.56445-1.80859,0-2.94482.98145-2.94482,3.56445Z"/><path class="cls-1" d="M156.47754,305.78116v27.9004c0,2.583,1.13672,3.51269,2.94434,3.51269,1.80859,0,2.94531-.92969,2.94531-3.51269v-27.9004h5.373v27.53809c0,5.78711-2.89355,9.09375-8.47265,9.09375-5.58008,0-8.47363-3.30664-8.47363-9.09375V305.78116Z"/><path class="cls-1" d="M188.97363,341.94816c-.30957-.93067-.5166-1.499-.5166-4.44336v-5.6836c0-3.35839-1.13672-4.59863-3.71973-4.59863h-1.96289v14.72559h-5.68359v-36.167H185.667c5.89063,0,8.42188,2.73829,8.42188,8.31836v2.8418c0,3.71973-1.18848,6.14844-3.71973,7.33691,2.8418,1.18848,3.77148,3.92676,3.77148,7.69825v5.58008a10.6508,10.6508,0,0,0,.62012,4.3916Zm-6.19922-31v11.1084h2.22168c2.11817,0,3.40918-.92969,3.40918-3.82325v-3.56543c0-2.583-.87793-3.71972-2.89257-3.71972Z"/></svg>