<svg id="Layer_1" data-name="Layer 1" xmlns="http://www.w3.org/2000/svg" xmlns:xlink="http://www.w3.org/1999/xlink" width="320" height="480" viewBox="0 0 320 480"><defs><style>.cls-1{fill:url(#linear-gradient);}.cls-2{fill:url(#linear-gradient-2);}.cls-3{fill:url(#linear-gradient-3);}.cls-4{fill:url(#linear-gradient-4);}.cls-5{fill:url(#linear-gradient-5);}.cls-6{fill:url(#linear-gradient-6);}.cls-7{fill:url(#linear-gradient-7);}.cls-8{fill:url(#linear-gradient-8);}.cls-9{fill:url(#linear-gradient-9);}.cls-10{fill:#ab9555;}.cls-11{fill:url(#linear-gradient-10);}.cls-12{fill:url(#linear-gradient-11);}</style><linearGradient id="linear-gradient" x1="102.36382" y1="381.13055" x2="216.47618" y2="381.13055" gradientTransform="matrix(1, 0, 0, -1, 0, 482)" gradientUnits="userSpaceOnUse"><stop offset="0" stop-color="#ab8d34"/><stop offset="0.07813" stop-color="#b2943e"/><stop offset="0.34281" stop-color="#c6aa5c"/><stop offset="0.49291" stop-color="#cdb267"/><stop offset="0.61495" stop-color="#c7ad61"/><stop offset="0.77706" stop-color="#b89e50"/><stop offset="0.961" stop-color="#9e8535"/><stop offset="1" stop-color="#987f2e"/></linearGradient><linearGradient id="linear-gradient-2" x1="143.8955" y1="322.30499" x2="143.8955" y2="303.735" gradientTransform="matrix(1, 0, 0, -1, 0, 482)" gradientUnits="userSpaceOnUse"><stop offset="0" stop-color="#cdb267"/><stop offset="1" stop-color="#987f2e"/></linearGradient><linearGradient id="linear-gradient-3" x1="218.2075" y1="322.30499" x2="218.2075" y2="303.735" xlink:href="#linear-gradient-2"/><linearGradient id="linear-gradient-4" x1="165.18919" y1="322.30475" x2="165.18919" y2="303.73474" xlink:href="#linear-gradient-2"/><linearGradient id="linear-gradient-5" x1="183.15434" y1="322.31505" x2="183.15434" y2="303.72989" xlink:href="#linear-gradient-2"/><linearGradient id="linear-gradient-6" x1="200.6275" y1="322.30499" x2="200.6275" y2="303.735" xlink:href="#linear-gradient-2"/><linearGradient id="linear-gradient-7" x1="102.106" y1="322.30499" x2="102.106" y2="303.735" xlink:href="#linear-gradient-2"/><linearGradient id="linear-gradient-8" x1="122.55173" y1="322.30475" x2="122.55173" y2="303.73474" xlink:href="#linear-gradient-2"/><linearGradient id="linear-gradient-9" x1="225.77274" y1="326.53451" x2="233.6339" y2="326.53451" gradientTransform="matrix(1, 0, 0, -1, 0, 482)" gradientUnits="userSpaceOnUse"><stop offset="0" stop-color="#ab8d34"/><stop offset="0.1878" stop-color="#cdb267"/><stop offset="0.76341" stop-color="#cdb267"/><stop offset="1" stop-color="#987f2e"/></linearGradient><linearGradient id="linear-gradient-10" x1="110.098" y1="77.9505" x2="241.323" y2="77.9505" gradientTransform="matrix(1, 0, 0, -1, 0, 482)" gradientUnits="userSpaceOnUse"><stop offset="0" stop-color="#cab272"/><stop offset="0.20527" stop-color="#cdb36c"/><stop offset="0.4882" stop-color="#d4b75a"/><stop offset="0.50029" stop-color="#d4b759"/><stop offset="0.74962" stop-color="#d4b563"/><stop offset="1" stop-color="#d3b372"/></linearGradient><linearGradient id="linear-gradient-11" x1="77.717" y1="77.95059" x2="112.80847" y2="77.95059" xlink:href="#linear-gradient-10"/></defs><title>cta</title><path class="cls-1" d="M152.483,139.11356c1.24013-.36576,3.4896,1.737,3.63577,1.737a2.68344,2.68344,0,0,0,.74993-1.73176c0-.74243-.52991-2.18649-.62926-3.06039a14.55651,14.55651,0,0,0-.52855-2.53184c-.19348-.57538-1.53819-.82618-2.25976-1.27143a11.78579,11.78579,0,0,1-1.82074-1.2605,5.7593,5.7593,0,0,1-.7741-2.64158,10.38538,10.38538,0,0,0-.43432-2.689c-.25124-.47078-.8971-.80342-1.33388-1.24019a1.8779,1.8779,0,0,1-.45-1.15592c.335-.10459.43958.75849.82662.83186s.361.39219.96757.60138c.60707.20909.62792.49723.70642,1.06224s.75849,2.47408.98328,3.25343c.22525.77978.46033,1.366,1.22974,1.392.76885.02608.66427.42351,1.569.3507a5.06564,5.06564,0,0,1,2.17132.41818c.48641.17271,1.09869.18834,1.30779-.15134.20918-.34021-.14664-1.711-.14664-1.711-.31368,0-.36629-.42341-.48641-.8157-.12019-.39273.07328-.424.07328-.424a1.6579,1.6579,0,1,1,3.15983,0s.19348.03124.07328.424c-.12067.39229-.17273.8157-.48687.8157,0,0-.35537,1.37078-.14619,1.711.20909.33968.82138.32407,1.30778.15134a5.06489,5.06489,0,0,1,2.17087-.41818c.90514.07281.80055-.32462,1.56941-.3507.76941-.026,1.00458-.61219,1.22928-1.392.22525-.77933.90514-2.6885.98374-3.25342s.09936-.85315.70642-1.06224c.60661-.20919.58053-.528.96757-.60138s.4921-.93645.82662-.83187a1.88109,1.88109,0,0,1-.45,1.15593c-.43677.43676-1.08264.76941-1.33388,1.24019a10.38524,10.38524,0,0,0-.43432,2.689,5.7593,5.7593,0,0,1-.7741,2.64158,11.7914,11.7914,0,0,1-1.82074,1.2605c-.722.44527-2.06628.696-2.25976,1.27143a14.49692,14.49692,0,0,0-.52855,2.53184c-.09937.87392-.62926,2.318-.62926,3.06039a2.68344,2.68344,0,0,0,.74993,1.73176c.14619,0,2.3961-2.10274,3.63577-1.737,1.23965.36674.748,2.10319-.53893,3.38969a5.51162,5.51162,0,0,1-2.6663,1.66272,14.43823,14.43823,0,0,1,2.02423.37848,21.66854,21.66854,0,0,1,5.78193,3.29935,21.00849,21.00849,0,0,0,5.15555,3.01022,4.39812,4.39812,0,0,0,.49877.10937c.177-.14817,1.10429-.68331,1.10429-.68331a20.7477,20.7477,0,0,0,2.32988.997l-5.93678-4.57782,11.768,5.12288c.19348.08375.388.1609.58152.22993l7.11291.12679c1.86713.0341,3.711-.04773,5.42285-.18021-1.37962-.85126-2.874-1.70106-4.47558-2.48411l-6.24091-3.05191c-.20773-.02645-.42017-.04639-.63594-.05912l-13.60378-.81714,8.83953-1.53637-5.73039-1.86513,9.80711-.06435a33.29056,33.29056,0,0,0,6.69527-.73628l-9.26926-1.76533,13.58438-.60328a13.32876,13.32876,0,0,0,2.274-.29l-1.03146.12489,8.96541-4.20639a80.11361,80.11361,0,0,0,8.303-4.5641,87.61346,87.61346,0,0,0-9.71153-.5881l-10.18991.02319,1.13507-.37144a12.76214,12.76214,0,0,0-2.4046.74189L183.41759,134.84l7.194-5.36-.05487.009-.16425-1.236-1.30734-2.15616a43.07444,43.07444,0,0,0,9.79536-10.11231l-9.61126,4.60147,9.79292-8.15631a16.12964,16.12964,0,0,0,3.10957-3.37127c1.26285-1.90873,2.43537-3.86428,3.50475-5.844l-3.03539,2.99749,3.63858-7.915a104.5298,104.5298,0,0,0,5.38359-14.88459,126.70378,126.70378,0,0,0-14.42651,9.2947l-7.12393,5.39876,2.27212-3.54066c-1.84292,1.56715-3.62486,3.2213-5.32539,4.944a15.60883,15.60883,0,0,0-2.62218,3.6746l-5.20338,9.96565,1.84817-9.096a43.00193,43.00193,0,0,0-4.12219,4.93031l-.907,1.2652-.83131-.5706a2.37253,2.37253,0,0,0-.12869.21621l-7.147,13.55316,4.21486-14.73082a46.76108,46.76108,0,0,0,1.39813-18.48635l-4.92173,9.14716L171.02089,88.374a17.91457,17.91457,0,0,0,.37234-5.491A88.6502,88.6502,0,0,0,169.502,71.77469l-.64867,5.401-2.13676-7.8742A133.98,133.98,0,0,0,159.42,49.5523a133.84453,133.84453,0,0,0-7.29665,19.74921l-2.1363,7.8742-.64913-5.401A88.73229,88.73229,0,0,0,147.44675,82.883a17.9234,17.9234,0,0,0,.37234,5.49144l2.381,11.00715-4.91895-9.14951a46.75389,46.75389,0,0,0,1.39814,18.48491l4.2154,14.73173-7.14756-13.55407a2.27418,2.27418,0,0,0-.1287-.21621l-.83131.5706-.907-1.2652a43.00921,43.00921,0,0,0-4.12218-4.93031l1.84862,9.096-5.20382-9.96565a15.61857,15.61857,0,0,0-2.62174-3.6746c-1.69719-1.71948-3.47678-3.37127-5.31781-4.93643l2.27727,3.54345-7.1371-5.40914a126.64108,126.64108,0,0,0-14.42652-9.2947,104.5117,104.5117,0,0,0,5.3835,14.88459l3.63867,7.915-3.0354-2.99749c1.06937,1.97974,2.24234,3.93529,3.50519,5.844a16.11467,16.11467,0,0,0,3.10913,3.37128l9.79294,8.1563-9.61128-4.60148a43.0636,43.0636,0,0,0,9.79536,10.11232l-1.30734,2.15616-.16424,1.236-.05532-.009,7.19486,5.3604-11.88809-4.95494a12.84283,12.84283,0,0,0-2.40361-.7419l1.13462.37145-10.19046-.0232a87.61835,87.61835,0,0,0-9.71154.58811,80.11081,80.11081,0,0,0,8.30294,4.5641l8.96541,4.20593-1.031-.12489a13.27459,13.27459,0,0,0,2.27357.2905l13.58429.60327L125.19,141.38429a33.29257,33.29257,0,0,0,6.69518.73628l9.8331.06435L135.968,144.051l8.83427,1.53539-13.60414.81713q-.32447.01913-.63647.05912l-6.2419,3.05191c-1.60063.783-3.09487,1.63284-4.47458,2.48411,1.71235.13248,3.55574.21378,5.42285.18021l7.113-.12679c.19348-.069.38795-.14619.582-.22993l11.76744-5.12288-5.93678,4.57782a20.74849,20.74849,0,0,0,2.32988-.997s.92643.53424,1.10339.68278a4.33756,4.33756,0,0,0,.49914-.10884,20.99989,20.99989,0,0,0,5.1561-3.01022,21.67123,21.67123,0,0,1,5.78194-3.29935,14.43535,14.43535,0,0,1,2.02423-.37848,5.5117,5.5117,0,0,1-2.66631-1.66272C151.735,141.21675,151.24289,139.4803,152.483,139.11356Z"/><polygon class="cls-2" points="143.89 168.856 135.842 159.695 134.604 159.695 134.604 178.265 138.319 178.265 138.319 167.495 143.89 173.685 149.46 167.495 149.473 178.265 153.187 178.265 153.187 159.695 151.949 159.695 143.89 168.856"/><polygon class="cls-3" points="225.029 163.162 225.029 159.695 211.386 159.708 211.386 178.265 225.004 178.265 225.004 174.799 215.1 174.799 215.1 170.577 222.541 170.577 222.541 167.123 215.1 167.123 215.1 163.162 225.029 163.162"/><path class="cls-4" d="M167.05266,159.69525h-3.7143l-7.428,18.57h3.9612l1.1143-2.84743h8.41846l1.11432,2.84743,3.94937-.01273ZM162.472,171.704l2.82288-7.05714L168.043,171.704Z"/><path class="cls-5" d="M188.28464,168.67078a9.20839,9.20839,0,0,0-4.27118-1.54721,4.89544,4.89544,0,0,1-2.84751-1.11477,1.44893,1.44893,0,0,1,0-1.79519q.61954-1.05175,2.84751-1.05178a4.26477,4.26477,0,0,1,3.46684,1.48522l2.47553-2.47608a8.66329,8.66329,0,0,0-2.66152-1.8571,10.36413,10.36413,0,0,0-4.01146-.61888,7.43345,7.43345,0,0,0-4.33887,1.49181,4.62067,4.62067,0,0,0-2.11076,3.9556,4.10913,4.10913,0,0,0,1.85674,3.83782,9.98051,9.98051,0,0,0,4.08572,1.36176q2.47553.24772,3.08873,1.29976a1.96183,1.96183,0,0,1,0,2.10509q-.61254,1.05176-3.08873,1.05177a5.8814,5.8814,0,0,1-4.20927-1.73311l-2.47654,2.47643a9.371,9.371,0,0,0,2.97141,1.98074,10.99719,10.99719,0,0,0,4.32091.74232,7.49923,7.49923,0,0,0,4.77229-1.6092,4.76,4.76,0,0,0,2.04922-3.83776A4.648,4.648,0,0,0,188.28464,168.67078Z"/><polygon class="cls-6" points="192.58 163.161 198.77 163.161 198.77 178.265 202.485 178.265 202.485 163.161 208.675 163.161 208.675 159.695 192.58 159.695 192.58 163.161"/><polygon class="cls-7" points="106.686 171.332 95.049 159.695 93.811 159.695 93.811 178.265 97.525 178.265 97.525 166.752 109.039 178.265 110.401 178.265 110.401 159.695 106.686 159.695 106.686 171.332"/><path class="cls-8" d="M124.41479,159.69525H120.701l-7.42813,18.57h3.96128l1.11431-2.84743h8.41845l1.11477,2.84743,3.94892-.01273ZM119.83462,171.704l2.82234-7.05714,2.74815,7.05714Z"/><path class="cls-9" d="M227.69632,154.0809v3.37079h-.66954V154.0809h-1.254v-.60161h3.18319v.60161Zm5.31886,3.37079-.00554-2.96786-1.25406,2.5534h-.4371l-1.25406-2.5534v2.96786h-.6298v-3.9724h.79429l1.31088,2.63887,1.30535-2.63887h.78876v3.9724Z"/><path class="cls-10" d="M125.06016,191.58194a2.62029,2.62029,0,0,1-1.501,4.87213l-5.192-.00615v-9.22137h4.89674q2.33193.13576,2.46067,2.71289A1.9312,1.9312,0,0,1,125.06016,191.58194Zm-4.84137-.65823h2.5837a1.04134,1.04134,0,0,0,1.14422-1.15036q-.03033-.67626-1.12576-.7136h-2.60216Zm0,4.08471h3.01432a1.20422,1.20422,0,0,0,1.32877-1.33491q-.03033-.88584-1.31031-.92275h-3.03278Z"/><path class="cls-10" d="M127.64387,187.2204h2.1654l2.14079,3.01431,2.19-3.01431h2.11618l-3.38342,4.61375v4.61376h-1.84551v-4.61376Z"/><path class="cls-10" d="M149.16245,196.44792h-7.38817l.00615-.61517,4.3-6.88988h-4.3l-.00615-1.72247h7.38817v.67668l-4.31849,6.82837h4.31849Z"/><path class="cls-10" d="M151.48076,196.44792v-9.22137l6.77914-.00615v1.72247h-4.93365v1.96854h3.69716v1.71632h-3.69716v2.09772h4.92134v1.72247Z"/><path class="cls-10" d="M160.11772,196.44792V187.2204h.61516l5.78258,5.78258V187.2204H168.361v9.22752h-.67669l-5.72106-5.72105v5.72105Z"/><path class="cls-10" d="M169.78816,196.44792l3.691-9.22752h1.8455l3.684,9.22137-1.96152.00615-.55365-1.41488h-4.18314l-.55365,1.41488Zm4.663-6.76684-1.40258,3.50645h2.76827Z"/><path class="cls-10" d="M186.93906,191.58194a2.62058,2.62058,0,0,1-1.501,4.87213l-5.192-.00615v-9.22137h4.89674q2.33061.13576,2.46066,2.71289A1.93606,1.93606,0,0,1,186.93906,191.58194Zm-4.84226-.65823h2.5837a1.04053,1.04053,0,0,0,1.14421-1.15036c-.01934-.45084-.39547-.689-1.12487-.7136h-2.603Zm0,4.08471h3.01431a1.20346,1.20346,0,0,0,1.32877-1.33491q-.029-.88584-1.30943-.92275H182.0968Z"/><path class="cls-10" d="M190.0641,187.21425h1.83849v9.23367H190.0641Z"/><path class="cls-10" d="M198.75027,187.528a4.28381,4.28381,0,0,1,1.32174.92276l-1.23035,1.23033a2.11773,2.11773,0,0,0-1.72247-.7382q-1.10732,0-1.41489.52288a.72306.72306,0,0,0,0,.892,2.43342,2.43342,0,0,0,1.41489.55365,4.57772,4.57772,0,0,1,2.12321.769,2.31245,2.31245,0,0,1,.95264,2.06081,2.36676,2.36676,0,0,1-1.01766,1.907,3.726,3.726,0,0,1-2.371.79972,5.46951,5.46951,0,0,1-2.14781-.3691,4.67568,4.67568,0,0,1-1.4764-.98427l1.23034-1.23033a2.92516,2.92516,0,0,0,2.09156.86124q1.23123,0,1.53441-.52289a.97051.97051,0,0,0,0-1.04579q-.30319-.52334-1.53441-.64592a4.95748,4.95748,0,0,1-2.03-.6767,2.04135,2.04135,0,0,1-.92275-1.907,2.29478,2.29478,0,0,1,1.0493-1.965,3.69286,3.69286,0,0,1,2.1566-.74172A5.16223,5.16223,0,0,1,198.75027,187.528Z"/><rect class="cls-10" x="93.81112" y="191.70193" width="16.58964" height="2.02"/><rect class="cls-10" x="208.43913" y="191.70193" width="16.58965" height="2.02"/><polygon class="cls-11" points="241.323 404.052 232.55 388.857 110.098 388.852 118.871 404.047 110.098 419.242 232.55 419.247 241.323 404.052"/><path class="cls-12" d="M104.03561,388.85437H86.48987L77.717,404.04944l8.77288,15.195h17.54573l8.77286-15.195ZM87.83385,398.86063h0v0Zm14.85777.00009-.00007-.00009h.00007Z"/><path d="M140.45366,399.14023a4.13389,4.13389,0,0,1,1.26642.883l-1.17728,1.17728a2.02863,2.02863,0,0,0-1.64819-.70636c-.70638,0-1.15879.1665-1.35388.50119a.686.686,0,0,0,0,.85269,2.323,2.323,0,0,0,1.35388.52979,4.36608,4.36608,0,0,1,2.03.73663,2.20563,2.20563,0,0,1,.91323,1.97113,2.26351,2.26351,0,0,1-.97378,1.8248,3.57509,3.57509,0,0,1-2.27048.76523,5.22546,5.22546,0,0,1-2.05353-.35318,4.45021,4.45021,0,0,1-1.41273-.94184l1.17729-1.17727a2.79924,2.79924,0,0,0,2.00137.82409c.78374,0,1.27485-.1665,1.46825-.50119a.92578.92578,0,0,0,0-.999c-.1934-.33468-.68451-.53985-1.46825-.61893a4.756,4.756,0,0,1-1.94252-.64752,1.95423,1.95423,0,0,1-.883-1.8248,2.19682,2.19682,0,0,1,1.004-1.88028,3.53084,3.53084,0,0,1,2.06194-.70974A4.91182,4.91182,0,0,1,140.45366,399.14023Z"/><path d="M146.251,398.84592v5.12118a1.77312,1.77312,0,0,0,.58865,1.47159,2.53479,2.53479,0,0,0,2.94321,0,1.77314,1.77314,0,0,0,.58864-1.47159v-5.12118h1.76593V404.438a2.92328,2.92328,0,0,1-1.08983,2.29571,4.446,4.446,0,0,1-5.4727,0A2.92335,2.92335,0,0,1,144.485,404.438v-5.5921Z"/><path d="M161.52036,403.02023a2.507,2.507,0,0,1-1.4363,4.662l-4.96815-.00674v-8.82291h4.68559q2.23008.12864,2.35457,2.59506A1.84518,1.84518,0,0,1,161.52036,403.02023Zm-4.63179-.63067h2.4723a.99548.99548,0,0,0,1.09319-1.1016c-.0185-.43054-.37841-.65927-1.07639-.68283h-2.48912Zm0,3.9086h2.88267a1.1513,1.1513,0,0,0,1.27147-1.27652q-.02773-.84765-1.253-.88465h-2.90117Z"/><path d="M170.49464,399.14023a4.11429,4.11429,0,0,1,1.26642.883l-1.17727,1.17728a2.02647,2.02647,0,0,0-1.6482-.70636q-1.05958,0-1.35388.50119a.686.686,0,0,0,0,.85269,2.32827,2.32827,0,0,0,1.35388.52979,4.366,4.366,0,0,1,2.03.73663,2.20561,2.20561,0,0,1,.91324,1.97113,2.26355,2.26355,0,0,1-.97379,1.8248,3.57176,3.57176,0,0,1-2.27047.76523,5.231,5.231,0,0,1-2.05353-.35318,4.45036,4.45036,0,0,1-1.41274-.94184l1.1773-1.17727a2.79922,2.79922,0,0,0,2.00137.82409q1.17813.00006,1.46825-.50119a.92578.92578,0,0,0,0-.999q-.29012-.502-1.46825-.61893a4.756,4.756,0,0,1-1.94252-.64752,1.95424,1.95424,0,0,1-.883-1.8248,2.19683,2.19683,0,0,1,1.00405-1.88028,3.53463,3.53463,0,0,1,2.06193-.70974A4.91182,4.91182,0,0,1,170.49464,399.14023Z"/><path d="M175.49474,406.40744a4.41666,4.41666,0,0,1,3.14-7.56155,4.77734,4.77734,0,0,1,3.24426,1.17727l-1.17729,1.2883a3.26128,3.26128,0,0,0-2.067-.70639,2.59552,2.59552,0,0,0-1.9156.74338,2.56352,2.56352,0,0,0-.72655,1.88364,2.65172,2.65172,0,0,0,.735,1.95431,2.61239,2.61239,0,0,0,1.919.72318,3.17626,3.17626,0,0,0,2.05521-.69965l1.17729,1.2883a4.76547,4.76547,0,0,1-3.24426,1.17728A4.2962,4.2962,0,0,1,175.49474,406.40744Z"/><path d="M190.30164,403.82584l2.20152,3.84973h-2.02493l-2.1124-3.6496h-1.61456v3.6496h-1.76593v-8.82965h3.85141q3.08785,0,3.08952,2.54293A2.2841,2.2841,0,0,1,190.30164,403.82584Zm-3.55036-1.44806h2.47231q1.06712-.01767,1.09655-.97211-.03026-.87034-1.07806-.90482h-2.4908Z"/><path d="M194.62733,398.83917h1.76088v8.83637h-1.76088Z"/><path d="M205.635,403.02023a2.507,2.507,0,0,1-1.43629,4.662l-4.96814-.00674v-8.82291h4.68559q2.23011.12864,2.35459,2.59506A1.84522,1.84522,0,0,1,205.635,403.02023Zm-4.63177-.63067h2.4723a.99548.99548,0,0,0,1.09321-1.1016c-.0185-.43054-.37842-.65927-1.07639-.68283h-2.48912Zm0,3.9086h2.88267a1.1513,1.1513,0,0,0,1.27147-1.27652q-.02777-.84765-1.253-.88465h-2.90117Z"/><path d="M209.80591,407.67557v-8.82291l6.48852-.00674v1.64819h-4.72259v1.88367h3.53857v1.64148h-3.53857v2.00811H216.281v1.6482Z"/><path d="M96.57622,403.93832l-.68449.48294a1.14348,1.14348,0,0,1-1.25793.00007l-.68457-.483-1.4719,1.03864L87.993,408.14127h14.53946l-3.05291-2.15436Z"/><path d="M93.94922,403.0578l.62393.44019.47537.33557a.43137.43137,0,0,0,.42844-.00012l.47542-.33545.09371-.06614.53013-.37405,4.0464-2.85525,1.91761-1.35315h-14.555l3.97409,2.80429Z"/><polygon points="87.53 399.408 87.53 407.588 93.325 403.498 87.53 399.408"/><polygon points="102.996 407.588 102.996 399.408 97.2 403.498 102.996 407.588"/></svg>