<svg id="Content" xmlns="http://www.w3.org/2000/svg" xmlns:xlink="http://www.w3.org/1999/xlink" width="300" height="600" viewBox="0 0 300 600"><defs><style>.cls-1{fill:#ba9544;}.cls-2{fill:#fff;stroke:#ba9544;stroke-miterlimit:10;stroke-width:0.5px;}.cls-3{clip-path:url(#clip-path);}</style><clipPath id="clip-path"><polygon class="cls-1" points="47.548 320.846 56.941 334.151 80.003 334.168 80.003 307.304 56.941 307.297 47.548 320.846"/></clipPath></defs><title>CBD - Durga Mata</title><polygon class="cls-2" points="242.818 307.972 56.737 307.267 47.343 320.814 56.737 334.119 242.818 333.802 251.273 320.888 242.818 307.972"/><polygon class="cls-1" points="47.548 320.846 56.941 334.151 80.003 334.168 80.003 307.304 56.941 307.297 47.548 320.846"/><g class="cls-3"><rect class="cls-1" x="45.47013" y="305.22085" width="13.72831" height="31.0228"/></g><path class="cls-1" d="M156.666,325.28289a4.5568,4.5568,0,0,1,3.24023-7.80176,4.9293,4.9293,0,0,1,3.34668,1.21484l-1.21484,1.33008a3.35545,3.35545,0,0,0-2.13184-.72851,2.67553,2.67553,0,0,0-1.97656.76562,2.64739,2.64739,0,0,0-.75,1.94336,2.73062,2.73062,0,0,0,.75879,2.01563,2.69,2.69,0,0,0,1.98047.748,3.26543,3.26543,0,0,0,2.11914-.72265l1.21484,1.33007a4.91532,4.91532,0,0,1-3.34668,1.21485A4.43547,4.43547,0,0,1,156.666,325.28289Z"/><path class="cls-1" d="M171.68359,321.78777a2.58715,2.58715,0,0,1-1.48242,4.81055l-5.126-.00586V317.487h4.835q2.30127.13476,2.42968,2.67871A1.90524,1.90524,0,0,1,171.68359,321.78777Zm-4.78027-.65039h2.55078a1.02756,1.02756,0,0,0,1.12988-1.13477c-.01953-.44531-.39062-.68164-1.11132-.70507h-2.56934Zm0,4.0332h2.97656a1.18891,1.18891,0,0,0,1.31153-1.31836c-.02051-.582-.45118-.88672-1.293-.91015h-2.99512Z"/><path class="cls-1" d="M174.76953,326.59246v-9.11719h3.51074q4.251,0,4.251,4.56152,0,4.55421-4.251,4.55567Zm3.51074-1.81641q2.42286-.00585,2.42871-2.73926-.00585-2.73339-2.42871-2.73339H176.5918v5.47265Z"/><path class="cls-1" d="M184.56641,320.78191a.877.877,0,0,1,.65527-.24609.91332.91332,0,0,1,.68066.24609.83573.83573,0,0,1,.24317.61133.82522.82522,0,0,1-.24317.60742,1.04223,1.04223,0,0,1-1.33593,0,.82522.82522,0,0,1-.24317-.60742A.83573.83573,0,0,1,184.56641,320.78191Zm0,4.34961a.877.877,0,0,1,.65527-.24609.91332.91332,0,0,1,.68066.24609.83348.83348,0,0,1,.24317.61035.81994.81994,0,0,1-.24317.60645,1.03584,1.03584,0,0,1-1.33593,0,.81994.81994,0,0,1-.24317-.60645A.83348.83348,0,0,1,184.56641,325.13152Z"/><path class="cls-1" d="M198.4873,321.52019q-.03662,2.90919-1.09668,4.03906a3.0717,3.0717,0,0,1-2.63281.9961,3.7834,3.7834,0,0,1-2.44726-1.1543l1.02636-1.11719a3.18432,3.18432,0,0,0,1.51856.51563,1.6039,1.6039,0,0,0,1.2998-.38867,2.44539,2.44539,0,0,0,.67383-1.48731,2.84687,2.84687,0,0,1-1.88867.60742,3.04683,3.04683,0,0,1-2.24707-1.04785,3.12736,3.12736,0,0,1-.53516-2.28125,2.993,2.993,0,0,1,1.06055-2.06152,3.21651,3.21651,0,0,1,2.50488-.63477,2.97328,2.97328,0,0,1,2.04981,1.209A5.13463,5.13463,0,0,1,198.4873,321.52019Zm-1.82226-1.002q-.06006-1.26855-1.458-1.32422-1.396.05566-1.457,1.209a1.375,1.375,0,0,0,1.51855,1.51758A1.35188,1.35188,0,0,0,196.665,320.51824Z"/><path class="cls-1" d="M200.10254,324.15691v-1.209h3.76562v1.209Z"/><path class="cls-1" d="M207.79785,317.48113v-.00586h1.81641v9.11719h-1.81641v-6.68164l-1.21484,1.21484-1.21387-1.21484Z"/><path class="cls-1" d="M217.10352,321.97527c.10937.041.208.082.29785.12207a1.78781,1.78781,0,0,1,.9414,1.82227,2.33641,2.33641,0,0,1-1.00586,1.88281,3.67991,3.67991,0,0,1-2.34082.79,5.38981,5.38981,0,0,1-2.12011-.36524,4.57611,4.57611,0,0,1-1.458-.97168l1.21484-1.21386a2.89131,2.89131,0,0,0,2.06543.84961q1.21436,0,1.51563-.51563a.96381.96381,0,0,0,0-1.0332q-.30175-.51562-2.11719-.57715v-1.63965q1.81641.12159,2.11719-.39453a.96381.96381,0,0,0,0-1.0332q-.30175-.51562-1.51563-.51563a2.162,2.162,0,0,0-1.76172.72852l-1.21484-1.21485a4.2612,4.2612,0,0,1,1.30566-.91113,5.093,5.093,0,0,1,1.96875-.30371,3.20773,3.20773,0,0,1,2.21973.79,2.44312,2.44312,0,0,1,.88379,1.88281,1.80273,1.80273,0,0,1-.82031,1.73145C217.22656,321.91277,217.168,321.944,217.10352,321.97527Z"/><path class="cls-1" d="M220.35254,321.32586a2.34729,2.34729,0,1,1,1.62793.65625A2.208,2.208,0,0,1,220.35254,321.32586Zm1.60937-.42481a1.086,1.086,0,0,0,.832-.3457,1.22108,1.22108,0,0,0,.32226-.86328,1.20668,1.20668,0,0,0-.32226-.85938,1.09836,1.09836,0,0,0-.8379-.34375,1.08447,1.08447,0,0,0-.82617.34375,1.20668,1.20668,0,0,0-.32226.85938,1.22108,1.22108,0,0,0,.32226.86328A1.086,1.086,0,0,0,221.96191,320.90105Zm-.48535,5.69141,5.16211-9.11133h1.48242l-5.15039,9.11133Zm4.52442-.60156a2.33211,2.33211,0,1,1,1.61523.65039A2.19323,2.19323,0,0,1,226.001,325.9909Zm1.585-.44336a1.06807,1.06807,0,0,0,.81445-.33789,1.27058,1.27058,0,0,0,0-1.67579,1.0742,1.0742,0,0,0-.82031-.33691,1.05679,1.05679,0,0,0-.80762.33691,1.27058,1.27058,0,0,0,0,1.67579A1.06449,1.06449,0,0,0,227.58594,325.54754Z"/></svg>