<svg id="Content" xmlns="http://www.w3.org/2000/svg" width="300" height="600" viewBox="0 0 300 600"><defs><style>.cls-1{fill:none;}.cls-2{fill:#ba9544;}</style></defs><title>Frame1 - Durga Mata</title><rect class="cls-1" x="209.8702" y="359.09613" width="112.81412" height="98.37391"/><path class="cls-2" d="M86.34424,255.78093h8.99023c5.68311,0,8.47315,3.15235,8.47315,8.93848v18.29c0,5.78613-2.79,8.93848-8.47315,8.93848H86.34424Zm5.68359,5.167v25.833H95.231c1.80859,0,2.89355-.92968,2.89355-3.51367V264.4616c0-2.584-1.085-3.51367-2.89355-3.51367Z"/><path class="cls-2" d="M118.32422,255.78093v27.9004c0,2.583,1.13672,3.51269,2.94482,3.51269,1.8086,0,2.94483-.92969,2.94483-3.51269v-27.9004h5.37353V283.319c0,5.78711-2.89355,9.09375-8.47314,9.09375-5.58008,0-8.47364-3.30664-8.47364-9.09375V255.78093Z"/><path class="cls-2" d="M150.82031,291.94793c-.31006-.93067-.5166-1.499-.5166-4.44336V281.821c0-3.35839-1.13672-4.59863-3.71973-4.59863h-1.96337v14.72559H138.937v-36.167h8.57666c5.88965,0,8.42188,2.73829,8.42188,8.31836v2.8418c0,3.71973-1.18848,6.14844-3.72071,7.33691,2.8418,1.18848,3.77246,3.92676,3.77246,7.69825v5.58008a10.65133,10.65133,0,0,0,.61915,4.3916Zm-6.1997-31v11.1084h2.22168c2.11816,0,3.40966-.92969,3.40966-3.82325v-3.56543c0-2.583-.87793-3.71972-2.89306-3.71972Z"/><path class="cls-2" d="M173.707,271.79754h7.957v11.46972c0,5.78711-2.89355,9.09375-8.47363,9.09375s-8.47363-3.30664-8.47363-9.09375V264.4616c0-5.78711,2.89355-9.09375,8.47363-9.09375s8.47363,3.30664,8.47363,9.09375v3.51269H176.29v-3.875c0-2.583-1.13672-3.56445-2.94434-3.56445-1.80859,0-2.94531.98145-2.94531,3.56445v19.53028c0,2.583,1.13672,3.51269,2.94531,3.51269,1.80762,0,2.94434-.92968,2.94434-3.51269v-6.665h-2.583Z"/><path class="cls-2" d="M209.2002,291.94793h-5.73438l-.98242-6.56153h-6.97461l-.98145,6.56153h-5.21875l5.78711-36.167h8.31836ZM196.23242,280.4782H201.709l-2.73828-18.29Z"/><path class="cls-2" d="M89.00635,331.45965l3.875-25.67872h7.90478v36.167h-5.373V316.0114l-3.92676,25.93653H86.11279l-4.23633-25.5752v25.5752h-4.96v-36.167h7.90479Z"/><path class="cls-2" d="M128.78711,341.94793h-5.73486l-.98194-6.56153h-6.9751l-.98144,6.56153h-5.21826l5.78662-36.167h8.31836ZM115.81885,330.4782h5.47656l-2.73828-18.29Z"/><path class="cls-2" d="M135.24365,305.78093h17.56592v5.167h-5.94141v31h-5.6831v-31h-5.94141Z"/><path class="cls-2" d="M179.1582,341.94793h-5.73535l-.98144-6.56153h-6.97559l-.98144,6.56153H159.2666l5.78613-36.167h8.31836ZM166.18945,330.4782H171.666l-2.73829-18.29Z"/><path class="cls-2" d="M209.07031,310.53484c-1.80859,0-2.94531.98145-2.94531,3.56445v3.875H200.752V314.4616c0-5.78711,2.89356-9.09375,8.47364-9.09375,5.5791,0,8.47265,3.30664,8.47265,9.09375,0,11.36621-11.31445,15.60254-11.31445,21.54492a3.89767,3.89767,0,0,0,.05176.77441h10.74609v5.167H200.752v-4.44336c0-10.64356,11.26367-12.40039,11.26367-22.83692C212.01562,311.41277,210.87891,310.53484,209.07031,310.53484Z"/></svg>