<svg id="Layer_1" data-name="Layer 1" xmlns="http://www.w3.org/2000/svg" xmlns:xlink="http://www.w3.org/1999/xlink" width="300" height="600" viewBox="0 0 300 600"><defs><style>.cls-1{fill:none;}.cls-2{fill:#ab9555;}.cls-3{clip-path:url(#clip-path);}</style><clipPath id="clip-path"><rect class="cls-1" x="363.71831" y="-1.05682" width="300" height="600"/></clipPath></defs><title>frame3</title><path class="cls-2" d="M69.68489,313.75488H66.46223V292.397h3.22266Z"/><path class="cls-2" d="M79.06184,292.37988l4.27539,14.36524V292.37988h3.22071v21.375H83.099l-4.43359-13.6875v13.6875h-3.2207v-21.375Z"/><path class="cls-2" d="M95.53841,313.75488H92.3177v-21.375h9.16993v3.23877H95.53841v5.82959h4.34765v3.23828H95.53841Z"/><path class="cls-2" d="M111.679,292.124a5.108,5.108,0,0,1,5.11524,5.11377v11.65869a5.1055,5.1055,0,1,1-10.21094,0V297.23779a5.10717,5.10717,0,0,1,5.0957-5.11377Zm1.75586,5.04541a1.83385,1.83385,0,0,0-1.83984-1.84082,1.80281,1.80281,0,0,0-1.3125.53711,1.76179,1.76179,0,0,0-.54492,1.30371V308.8623a1.764,1.764,0,0,0,.54492,1.30469,1.80385,1.80385,0,0,0,1.3125.53613,1.8322,1.8322,0,0,0,1.83984-1.84082Z"/><path class="cls-2" d="M127.599,292.397a4.91469,4.91469,0,0,1,3.95508,1.48291,5.39132,5.39132,0,0,1,1.10742,3.61377v3.10205a4.9922,4.9922,0,0,1-1.7207,3.835l2.38477,9.32422h-3.48243L127.89,305.709h-2.14844v8.0459h-3.2207V292.397Zm1.92578,5.14746a1.63437,1.63437,0,0,0-1.83984-1.85791h-1.94336v6.835h1.94336a1.7655,1.7655,0,0,0,1.30469-.54492,1.80613,1.80613,0,0,0,.53515-1.3125Z"/><path class="cls-2" d="M142.1888,313.75488h-3.22071v-21.375h4.62305l3.00195,15.3545,2.88282-15.3545h4.4414v21.375h-3.22265V300.32324l-2.79493,13.43164h-2.58984l-3.12109-13.398Z"/><path class="cls-2" d="M163.62825,308.8457l-.7832,4.90918h-3.35352l3.63086-21.35791H167.554l3.57813,21.35791h-3.38672l-.75391-4.90918Zm1.69141-11.55664L164.1263,305.709H166.513Z"/><path class="cls-2" d="M177.13216,295.63574h-3.42578V292.397H183.763v3.23877h-3.41016v18.11914h-3.2207Z"/><path class="cls-2" d="M192.45442,313.75488h-3.2207V292.397h3.2207Z"/><path class="cls-2" d="M203.27669,292.124a5.108,5.108,0,0,1,5.11523,5.11377v11.65869a5.1055,5.1055,0,1,1-10.21094,0V297.23779a5.10717,5.10717,0,0,1,5.09571-5.11377Zm1.75586,5.04541a1.83385,1.83385,0,0,0-1.83985-1.84082,1.80281,1.80281,0,0,0-1.3125.53711,1.76179,1.76179,0,0,0-.54492,1.30371V308.8623a1.764,1.764,0,0,0,.54492,1.30469,1.80385,1.80385,0,0,0,1.3125.53613,1.8322,1.8322,0,0,0,1.83985-1.84082Z"/><path class="cls-2" d="M217.71614,292.37988l4.27539,14.36524V292.37988h3.22266v21.375h-3.46094l-4.43164-13.6875v13.6875h-3.2207v-21.375Z"/><path class="cls-2" d="M230.30989,310.5498h3.2207v3.22168h-3.2207Z"/><g class="cls-3"><image width="5000" height="5000" transform="translate(77.09327 -75.68927) scale(0.15703)" xlink:href="frame31.png"/></g></svg>