<svg id="Content" xmlns="http://www.w3.org/2000/svg" width="320" height="480" viewBox="0 0 320 480"><defs><style>.cls-1{fill:#fff;stroke:#ba9544;stroke-miterlimit:10;stroke-width:0.5px;}.cls-2{fill:#ba9544;}</style></defs><title>THC - Ultra Sour</title><polygon class="cls-1" points="253.511 229.999 67.428 229.294 58.035 242.84 67.428 256.146 253.511 255.829 261.965 242.915 253.511 229.999"/><polygon class="cls-2" points="67.564 229.294 58.171 242.84 67.564 256.146 102.96 256.146 102.96 229.294 67.564 229.294"/><path class="cls-2" d="M173.93359,238.40039v1.70117h-3.03711v7.41016h-1.82226v-7.41016h-3.03711v-1.70117Z"/><path class="cls-2" d="M175.28809,247.51172v-9.11133h1.82226v3.64453h4.24512v-3.65039h1.82226v9.11133l-1.82226.00586v-3.76563h-4.24512v3.76563Z"/><path class="cls-2" d="M186.00488,246.20215a4.55728,4.55728,0,0,1,3.24024-7.80176,4.93106,4.93106,0,0,1,3.34668,1.21484l-1.21485,1.33008a3.36108,3.36108,0,0,0-2.13183-.72851,2.59732,2.59732,0,0,0-2.72657,2.709,2.73144,2.73144,0,0,0,.75879,2.0166,2.68932,2.68932,0,0,0,1.98047.74707,3.26539,3.26539,0,0,0,2.11914-.72265l1.21485,1.33008a4.91532,4.91532,0,0,1-3.34668,1.21484A4.43165,4.43165,0,0,1,186.00488,246.20215Z"/><path class="cls-2" d="M198.88477,241.70215a.88086.88086,0,0,1,.65625-.2461.91248.91248,0,0,1,.67968.2461.83348.83348,0,0,1,.24317.61035.82369.82369,0,0,1-.24317.60742,1.039,1.039,0,0,1-1.33593,0,.82369.82369,0,0,1-.24317-.60742A.83348.83348,0,0,1,198.88477,241.70215Zm0,4.34863a.88085.88085,0,0,1,.65625-.24609.91248.91248,0,0,1,.67968.24609.83348.83348,0,0,1,.24317.61035.82366.82366,0,0,1-.24317.60742,1.039,1.039,0,0,1-1.33593,0,.82366.82366,0,0,1-.24317-.60742A.83348.83348,0,0,1,198.88477,246.05078Z"/><path class="cls-2" d="M208.585,238.40039v-.00586h1.81641v9.11719H208.585v-6.68164l-1.21484,1.21484-1.21485-1.21484Z"/><path class="cls-2" d="M217.125,242.89551c.10938.04.208.08105.29785.12109a1.78782,1.78782,0,0,1,.94141,1.82227,2.34,2.34,0,0,1-.88379,2.03515,4.37652,4.37652,0,0,1-4.54981,0,2.34,2.34,0,0,1-.88378-2.03515,1.78781,1.78781,0,0,1,.9414-1.82227c.08984-.04.18848-.08105.29785-.12109q-.09668-.04834-.17578-.09082a1.80175,1.80175,0,0,1-.82031-1.73145,2.49173,2.49173,0,0,1,.793-1.97363,3.57121,3.57121,0,0,1,4.24511,0,2.4917,2.4917,0,0,1,.793,1.97363,1.80173,1.80173,0,0,1-.82031,1.73145Q217.22169,242.84717,217.125,242.89551Zm-1.91895-.82617c.53418-.01563.87793-.15625,1.03223-.419a.97014.97014,0,0,0,0-1.03223,1.16668,1.16668,0,0,0-1.03223-.51074,1.15177,1.15177,0,0,0-1.02734.51074.95428.95428,0,0,0,0,1.03223C214.3291,241.91309,214.6709,242.05371,215.20605,242.06934Zm0,1.66992a1.35754,1.35754,0,0,0-1.02734.52246.95593.95593,0,0,0,0,1.0332,1.1533,1.1533,0,0,0,1.02734.50977,1.16825,1.16825,0,0,0,1.03223-.50977.97182.97182,0,0,0,0-1.0332A1.37874,1.37874,0,0,0,215.20605,243.73926Z"/><path class="cls-2" d="M219.95605,245.07617v-1.209h3.76563v1.209Z"/><path class="cls-2" d="M228.5752,238.40039a3.43773,3.43773,0,0,1,2.18945.67188,2.39091,2.39091,0,0,1,.85254,2.001,4.17434,4.17434,0,0,1-1.21094,2.8916,8.43991,8.43991,0,0,1-2.00195,1.72461h3.28027v1.82227H225.544v-1.82227q.60791,0,2.30761-1.51855a8.71352,8.71352,0,0,0,1.97461-2.15625,1.48587,1.48587,0,0,0-.03027-1.27539q-.30469-.63722-1.458-.6377a2.09507,2.09507,0,0,0-1.70117.72852l-1.21387-1.21485a5.046,5.046,0,0,1,1.1836-.91113A4.56825,4.56825,0,0,1,228.5752,238.40039Z"/><path class="cls-2" d="M239.24023,238.40039v1.70117h-3.76562V241.377h.72851a4.0851,4.0851,0,0,1,2.75782.82032,3.328,3.328,0,0,1,.9414,2.46,2.65508,2.65508,0,0,1-.91406,2.0039,3.18157,3.18157,0,0,1-2.251.85059,5.40694,5.40694,0,0,1-2.11914-.36426,4.58389,4.58389,0,0,1-1.458-.97266l1.21484-1.21386a2.55093,2.55093,0,0,0,1.94336.78906q1.64063,0,1.792-1.20215a1.35745,1.35745,0,0,0-.55859-1.12988,3.652,3.652,0,0,0-1.95606-.34082h-1.94336v-4.67676Z"/><path class="cls-2" d="M241.75488,242.24512a2.34609,2.34609,0,1,1,1.62793.65625A2.20731,2.20731,0,0,1,241.75488,242.24512Zm1.60938-.42481a1.086,1.086,0,0,0,.832-.3457,1.3122,1.3122,0,0,0,0-1.72266,1.09757,1.09757,0,0,0-.83789-.34277,1.08072,1.08072,0,0,0-.82617.34277,1.31217,1.31217,0,0,0,0,1.72266A1.08454,1.08454,0,0,0,243.36426,241.82031Zm-.48633,5.69141,5.16309-9.11133h1.48144l-5.15039,9.11133Zm4.52539-.60156a2.33212,2.33212,0,1,1,1.61523.65039A2.19253,2.19253,0,0,1,247.40332,246.91016Zm1.585-.44336a1.06725,1.06725,0,0,0,.81445-.33692,1.27186,1.27186,0,0,0,0-1.67676,1.07422,1.07422,0,0,0-.82031-.33691,1.05685,1.05685,0,0,0-.80762.33691,1.26893,1.26893,0,0,0,0,1.67676A1.0637,1.0637,0,0,0,248.98828,246.4668Z"/></svg>