<svg id="Content" xmlns="http://www.w3.org/2000/svg" viewBox="0 0 640 1136"><defs><style>.cls-1{fill:#fff;stroke:#ba9544;stroke-miterlimit:10;stroke-width:0.96px;}.cls-2{fill:#ba9544;}</style></defs><title>THC - Sensi Star</title><polygon class="cls-1" points="500.69 690.05 144.81 688.7 126.84 714.61 144.81 740.06 500.69 739.45 516.86 714.75 500.69 690.05"/><polygon class="cls-2" points="145.07 688.7 127.1 714.61 145.07 740.06 199.61 740.06 199.79 688.7 145.07 688.7"/><path class="cls-2" d="M348.5,706.42v3.25h-5.81v14.17h-3.48V709.67H333.4v-3.25Z"/><path class="cls-2" d="M351.09,723.84V706.42h3.49v7h8.12v-7h3.48v17.43H362.7v-7.2h-8.12v7.2Z"/><path class="cls-2" d="M371.59,721.34a8.71,8.71,0,0,1,6.2-14.92,9.43,9.43,0,0,1,6.4,2.32l-2.33,2.54a6.39,6.39,0,0,0-4.07-1.39,5,5,0,0,0-5.22,5.18,5.21,5.21,0,0,0,1.45,3.85,5.11,5.11,0,0,0,3.79,1.43,6.23,6.23,0,0,0,4.05-1.38l2.33,2.55a9.46,9.46,0,0,1-6.4,2.32A8.48,8.48,0,0,1,371.59,721.34Z"/><path class="cls-2" d="M388.09,712.73a1.66,1.66,0,0,1,1.25-.47,1.75,1.75,0,0,1,1.31.47,1.71,1.71,0,0,1,0,2.33,2,2,0,0,1-2.56,0,1.68,1.68,0,0,1,0-2.33Zm0,8.32a1.66,1.66,0,0,1,1.25-.47,1.75,1.75,0,0,1,1.31.47,1.62,1.62,0,0,1,.46,1.16,1.6,1.6,0,0,1-.46,1.16,2,2,0,0,1-2.56,0,1.57,1.57,0,0,1-.47-1.16A1.58,1.58,0,0,1,388.09,721.05Z"/><path class="cls-2" d="M406.64,706.42v0h3.47v17.44h-3.47V711.06l-2.32,2.32L402,711.06Z"/><path class="cls-2" d="M413.58,715.37a10.46,10.46,0,0,1,1.81-6.54,5.85,5.85,0,0,1,4.82-2.4,7.23,7.23,0,0,1,4.87,1.73l-1.74,2.32a6.19,6.19,0,0,0-3-.7,3.09,3.09,0,0,0-2.41,1,4.72,4.72,0,0,0-1,3,5.46,5.46,0,0,1,3.49-1.51,5.84,5.84,0,0,1,4.47,1.57,6,6,0,0,1,1.45,4.24,5.7,5.7,0,0,1-1.62,4.12,6.16,6.16,0,0,1-4.65,1.69c-2.32-.08-4-.86-5-2.36A10.85,10.85,0,0,1,413.58,715.37Zm3.84,2.67c.07,1.62,1,2.47,2.79,2.54s2.71-.85,2.78-2.32c-.07-1.93-1-2.9-2.9-2.9A2.58,2.58,0,0,0,417.42,718Z"/><path class="cls-2" d="M429.5,719.18v-2.31h7.2v2.31Z"/><path class="cls-2" d="M446,706.42a6.56,6.56,0,0,1,4.19,1.28,4.56,4.56,0,0,1,1.63,3.83,7.94,7.94,0,0,1-2.32,5.52,15.8,15.8,0,0,1-3.82,3.3h6.27v3.49H440.18v-3.49c.78,0,2.25-1,4.42-2.9s3.43-3.31,3.77-4.12a2.86,2.86,0,0,0-.05-2.44c-.39-.82-1.32-1.22-2.79-1.22a4,4,0,0,0-3.25,1.39L440,708.74a9.31,9.31,0,0,1,2.27-1.74A8.66,8.66,0,0,1,446,706.42Z"/><path class="cls-2" d="M456.94,721.34a11.91,11.91,0,0,1,0-12.43,5.58,5.58,0,0,1,9.29,0,12,12,0,0,1,0,12.43,5.57,5.57,0,0,1-9.29,0Zm4.65-.75c.77,0,1.44-.53,2-1.57a9,9,0,0,0,0-7.78c-.58-1-1.26-1.57-2-1.57s-1.44.52-2,1.57a9.13,9.13,0,0,0,0,7.78C460.13,720.06,460.81,720.59,461.59,720.59Z"/><path class="cls-2" d="M472.12,713.77a4.49,4.49,0,1,1,3.11,1.25A4.24,4.24,0,0,1,472.12,713.77Zm3.08-.82a2.07,2.07,0,0,0,1.59-.66,2.32,2.32,0,0,0,.61-1.65,2.3,2.3,0,0,0-.61-1.64,2.1,2.1,0,0,0-1.61-.66,2.07,2.07,0,0,0-1.58.66,2.3,2.3,0,0,0-.61,1.64,2.32,2.32,0,0,0,.61,1.65A2.1,2.1,0,0,0,475.2,713Zm-.93,10.89,9.87-17.42H487l-9.86,17.42Zm8.65-1.15a4.47,4.47,0,1,1,3.09,1.24A4.19,4.19,0,0,1,482.92,722.69Zm3-.85a2,2,0,0,0,1.56-.64,2.28,2.28,0,0,0,.6-1.61,2.25,2.25,0,0,0-.6-1.6,2.05,2.05,0,0,0-1.57-.64,2,2,0,0,0-1.54.64,2.22,2.22,0,0,0-.61,1.6,2.24,2.24,0,0,0,.61,1.61A2,2,0,0,0,486,721.84Z"/></svg>